<svg xmlns="http://www.w3.org/2000/svg" width="65" height="65" viewBox="0 0 65 65">
  <g id="ic_account" transform="translate(-5231 -525)">
    <rect id="Rectangle_3849" data-name="Rectangle 3849" width="65" height="65" transform="translate(5231 525)" fill="none"/>
    <path id="Path_59286" data-name="Path 59286" d="M-15304-8459.217s-1.924-28.229-28.229-28.229-28.228,28.229-28.228,28.229" transform="translate(20595.957 9045)" fill="none" stroke="#0d1b3a" stroke-linecap="round" stroke-linejoin="round" stroke-width="1"/>
    <g id="Path_59287" data-name="Path 59287" transform="translate(5250 531)" fill="none">
      <path d="M13.5,0A13.5,13.5,0,1,1,0,13.5,13.5,13.5,0,0,1,13.5,0Z" stroke="none"/>
      <path d="M 13.5 1 C 10.16113090515137 1 7.022109985351563 2.300230026245117 4.661169052124023 4.661169052124023 C 2.300230026245117 7.022109985351563 1 10.16113090515137 1 13.5 C 1 16.83887100219727 2.300230026245117 19.97789001464844 4.661169052124023 22.33882904052734 C 7.022109985351563 24.69976997375488 10.16113090515137 26 13.5 26 C 16.83887100219727 26 19.97789001464844 24.69976997375488 22.33882904052734 22.33882904052734 C 24.69976997375488 19.97789001464844 26 16.83887100219727 26 13.5 C 26 10.16113090515137 24.69976997375488 7.022109985351563 22.33882904052734 4.661169052124023 C 19.97789001464844 2.300230026245117 16.83887100219727 1 13.5 1 M 13.5 0 C 20.95584106445313 0 27 6.044160842895508 27 13.5 C 27 20.95584106445313 20.95584106445313 27 13.5 27 C 6.044160842895508 27 0 20.95584106445313 0 13.5 C 0 6.044160842895508 6.044160842895508 0 13.5 0 Z" stroke="none" fill="#0d1b3a"/>
    </g>
  </g>
</svg>
