<svg xmlns="http://www.w3.org/2000/svg" width="514.176" height="513" viewBox="0 0 514.176 513">
  <g id="ic_api_integration" transform="translate(-11705 -6625.995)">
    <path id="Path_88680" data-name="Path 88680" d="M21055.3,9543.315a34.191,34.191,0,0,1-18.152-18.131,35.238,35.238,0,0,1-1.523-4.43l-.109-.414h-26.2a26.262,26.262,0,0,1-26.277-26.269V9434.25H20915.4a26.257,26.257,0,0,1-26.273-26.264v-115.72h-34.652v186.314l.426.094a33.164,33.164,0,0,1,5.578,1.814,34.092,34.092,0,1,1-26.547,0,32.495,32.495,0,0,1,3.367-1.224l.395-.125V9292.267h-34.648v98.947a26.275,26.275,0,0,1-26.277,26.271h-67.641v76.587a26.268,26.268,0,0,1-26.27,26.276h-26.2l-.113.411a33.293,33.293,0,0,1-1.523,4.425,34.11,34.11,0,0,1-62.84-26.553,34.179,34.179,0,0,1,18.148-18.143,34.123,34.123,0,0,1,46.516,23.771l.1.432h25.914a9.518,9.518,0,0,0,9.508-9.5v-77.7h-18.781l-.1.431a33.9,33.9,0,0,1-1.734,5.238,34.631,34.631,0,1,1,0-26.984,33.574,33.574,0,0,1,1.734,5.239l.1.43h18.781V9292.267h-26.285a76.513,76.513,0,0,1-76.582-76.58v-1.117a76.515,76.515,0,0,1,70.309-76.334,137.518,137.518,0,0,1,6.922-22.3,135.877,135.877,0,0,1,11.891-22.8,134.23,134.23,0,0,1,15.75-19.851,131.461,131.461,0,0,1,19.094-16.384,128.175,128.175,0,0,1,21.91-12.366,124.759,124.759,0,0,1,100.43,0,128.963,128.963,0,0,1,21.918,12.366,131.835,131.835,0,0,1,28.66,27.512,76.018,76.018,0,0,1,122.09,53.56h17.617a76.536,76.536,0,0,1,76.586,76.589v1.117a76.52,76.52,0,0,1-76.586,76.58h-26.277v126.339h18.777l.105-.431a34.708,34.708,0,1,1,0,16.507l-.105-.432h-18.777v60.938a9.517,9.517,0,0,0,9.5,9.5h25.918l.1-.438a33.228,33.228,0,0,1,1.816-5.621,34.105,34.105,0,1,1,18.152,44.684Zm-4.34-31.414a17.611,17.611,0,1,0,17.609-17.61A17.631,17.631,0,0,0,21050.965,9511.9Zm-444.977,0a17.613,17.613,0,1,0,17.617-17.61A17.636,17.636,0,0,0,20605.988,9511.9Zm223.6,0a17.615,17.615,0,1,0,17.617-17.61A17.634,17.634,0,0,0,20829.59,9511.9Zm204.891-85.47a17.887,17.887,0,1,0,17.883-17.89A17.905,17.905,0,0,0,21034.48,9426.432Zm-412.555-16.772a17.889,17.889,0,1,0,17.891-17.889A17.911,17.911,0,0,0,20621.926,9409.659Zm283.973-.556a9.513,9.513,0,0,0,9.5,9.5h67.637V9292.267H20905.9Zm-196.77-7.824v.56h67.641a9.519,9.519,0,0,0,9.508-9.508V9292.267h-77.148Zm-103.973-186.15a60.434,60.434,0,0,0,60.367,60.365h361.125a60.37,60.37,0,1,0,0-120.74H21008.1a75.143,75.143,0,0,1-5.32,19.531,77.072,77.072,0,0,1-4.262,8.546l-14.348-8.764a59.231,59.231,0,0,0-88.375-75.692,136.733,136.733,0,0,1,16.188,42.747,141.731,141.731,0,0,1,2.035,14.187h-15.652c-6.309-59.6-54.789-104.529-112.781-104.529-51.789,0-96.891,36.181-109.848,88.022,7.8,1.057,19.051,3.508,28.875,9.125,17.1,9.78,29.871,29.181,29.871,29.181l-15.109,8.41s-9.789-15.562-23.25-23.251c-12.852-7.341-29.047-7.513-30.5-7.513h-.105A60.441,60.441,0,0,0,20605.156,9215.129Zm61.4,42.487a43.621,43.621,0,0,1-30.77-12.615,43,43,0,0,1-9.332-13.678,42.82,42.82,0,0,1,0-33.51,43.584,43.584,0,0,1,39.566-26.287v17.087c-14.523.79-25.9,12.229-25.9,26.039,0,14.38,12.332,26.079,27.5,26.079h32.328v0h18.035v16.89Z" transform="translate(-8884 -2407.507)" fill="#0d1b3a" stroke="#707070" stroke-width="1"/>
    <path id="Path_88681" data-name="Path 88681" d="M55.655,9.038l-4.717-16.9H21.066l-4.848,16.9H.234l25.352-85.62H48.121L73.473,9.038ZM36.2-60.86,24.931-21.03h22.4ZM142-49.33a33.463,33.463,0,0,1-2.227,12.348,26.657,26.657,0,0,1-6.616,9.794,30.357,30.357,0,0,1-10.94,6.42,45.964,45.964,0,0,1-15.2,2.293H98.825V9.038H82.579v-85.62h25.09a54.333,54.333,0,0,1,14.707,1.8,30.149,30.149,0,0,1,10.743,5.273,22.462,22.462,0,0,1,6.616,8.549A28.328,28.328,0,0,1,142-49.33Zm-16.9,1.114a16.978,16.978,0,0,0-1.081-6.191,12.218,12.218,0,0,0-3.275-4.749A14.813,14.813,0,0,0,115.2-62.17a26.614,26.614,0,0,0-7.927-1.048H98.825v31.379H107.8a21.962,21.962,0,0,0,7.4-1.146,14.545,14.545,0,0,0,5.4-3.308,14.3,14.3,0,0,0,3.341-5.175A18.853,18.853,0,0,0,125.094-48.217Zm32.23-15.2V-76.582h54.11v13.167H192.569V-4.26h18.867v13.3h-54.11V-4.26h18.867V-63.415Z" transform="translate(11854.783 6841.625)" fill="#ec691f"/>
  </g>
</svg>
