<svg xmlns="http://www.w3.org/2000/svg" width="348.643" height="348.405" viewBox="0 0 348.643 348.405">
  <g id="ic_call" transform="translate(-9633.67 -7269)">
    <g id="Path_54693" data-name="Path 54693" transform="translate(9635.67 7292.569)" fill="#0d1b3a">
      <path d="M 256.9977722167969 323.8364562988281 L 255.9972381591797 323.8364562988281 L 255.9968566894531 323.8364562988281 C 255.8582763671875 323.8364562988281 255.7194061279297 323.8361511230469 255.5809478759766 323.8355712890625 C 245.6074066162109 323.8355712890625 235.0872802734375 322.4186096191406 224.3170318603516 319.6241149902344 C 212.2192840576172 316.485107421875 199.533203125 311.5358276367188 186.6112365722656 304.9136657714844 C 172.3469390869141 297.6035766601563 157.4461975097656 288.0752258300781 142.3229064941406 276.5933227539063 C 125.8379440307617 264.0776062011719 108.6670684814453 248.9199829101563 91.28723907470703 231.5414886474609 L 91.27999114990234 231.5342407226563 L 91.27286529541016 231.5268249511719 L 76.23506927490234 215.8597412109375 C 75.06369781494141 214.6272430419922 74.43065643310547 212.9515228271484 74.49494934082031 211.2588195800781 C 74.55998992919922 209.5640716552734 75.31894683837891 207.9413146972656 76.57727813720703 206.8062744140625 L 76.57978057861328 206.8040313720703 L 76.58232116699219 206.8017730712891 C 77.77065277099609 205.7443237304688 79.30069732666016 205.1619873046875 80.89057159423828 205.1619873046875 C 82.66786193847656 205.1619873046875 84.32578277587891 205.8663177490234 85.55882263183594 207.1452789306641 L 100.3209915161133 222.5206146240234 C 159.1124267578125 281.309326171875 211.2854309082031 311.1222839355469 255.3818206787109 311.1222839355469 C 263.1934814453125 311.1222839355469 270.7274169921875 310.1413879394531 277.7752380371094 308.2066040039063 C 284.4788513183594 306.3134765625 290.1077575683594 301.9595336914063 293.6259155273438 295.9461975097656 L 293.6286926269531 295.9414367675781 L 293.6315307617188 295.9367370605469 L 310.0250244140625 268.6109619140625 C 312.0276184082031 265.2872314453125 311.0644836425781 261.0045166015625 307.8332824707031 258.859375 L 242.4892425537109 215.278564453125 C 241.29736328125 214.4915313720703 239.9104461669922 214.0742034912109 238.4823608398438 214.0742034912109 C 236.2278594970703 214.0742034912109 234.1373138427734 215.0898590087891 232.7467803955078 216.8607330322266 L 213.7226257324219 241.3184814453125 C 211.8512268066406 243.7647705078125 209.4034729003906 245.7657623291016 206.6435699462891 247.1056060791016 C 203.9544525146484 248.4110717773438 200.9521484375 249.1011505126953 197.9611968994141 249.1011962890625 C 194.5818634033203 249.1012420654297 191.2325439453125 248.2250671386719 188.2752380371094 246.5674591064453 L 184.7459106445313 244.622314453125 L 184.7373657226563 244.6176910400391 C 172.078369140625 237.7134857177734 156.3238220214844 229.1210327148438 125.0217819213867 197.8241119384766 C 93.71811676025391 166.5249938964844 85.12557220458984 150.7645721435547 78.22132110595703 138.1008148193359 L 78.21553039550781 138.0901947021484 L 76.27516174316406 134.5653533935547 C 73.94346618652344 130.4031524658203 73.19012451171875 125.5377502441406 74.15431976318359 120.8651962280273 C 75.11849975585938 116.1929702758789 77.73538970947266 112.0239334106445 81.52389526367188 109.124755859375 L 105.9874496459961 90.09557342529297 C 108.9471130371094 87.77403259277344 109.6411972045898 83.49332427978516 107.5644073486328 80.35261535644531 L 63.98698806762695 15.01378059387207 C 62.64302825927734 12.98923873901367 60.38986206054688 11.78161334991455 57.95848846435547 11.78161334991455 C 56.64973831176758 11.78161334991455 55.36248779296875 12.14040470123291 54.23586273193359 12.81923866271973 L 26.90790557861328 29.21365547180176 L 26.90303039550781 29.21657180786133 L 26.89815521240234 29.21940422058105 C 20.88062858581543 32.7373046875 16.5201416015625 38.36770629882813 14.61869049072266 45.07512664794922 C 11.84627056121826 55.83172225952148 11.08226680755615 66.88056182861328 12.34832668304443 77.91542053222656 C 13.73807239532471 89.12947845458984 16.52069473266602 100.1566390991211 20.61867523193359 110.6902542114258 C 29.19977951049805 132.1582794189453 40.71344757080078 152.3260650634766 54.83944702148438 170.63232421875 L 54.8529052734375 170.6498260498047 L 54.8656120300293 170.6678619384766 C 55.86798858642578 172.0926971435547 56.93815612792969 173.4945678710938 58.04648971557617 174.8344879150391 L 58.05507278442383 174.8449096679688 L 58.06340408325195 174.8555755615234 C 60.21094512939453 177.599609375 59.72907257080078 181.5835723876953 56.98923873901367 183.7364501953125 L 56.98623657226563 183.7388153076172 L 56.983154296875 183.7411956787109 C 55.84011459350586 184.6251983642578 54.47361373901367 185.0924835205078 53.03136444091797 185.0924835205078 C 51.04550170898438 185.0925750732422 49.19979476928711 184.2021331787109 47.96576690673828 182.6491241455078 C 46.80002593994141 181.2374114990234 45.68202590942383 179.7615661621094 44.64252853393555 178.2622528076172 C 29.79631614685059 159.0114593505859 17.69985389709473 137.8023834228516 8.689363479614258 115.2243194580078 L 8.687613487243652 115.2200317382813 L 8.685946464538574 115.2156982421875 C 4.204029560089111 103.6758193969727 1.169738054275513 91.59336090087891 -0.3327202498912811 79.30386352539063 L -0.3331785798072815 79.29998779296875 L -0.3336369097232819 79.29607391357422 C -1.049636960029602 73.03040313720703 -1.188636898994446 66.66327667236328 -0.7467619180679321 60.37161254882813 C -0.3048869073390961 54.080322265625 0.7226547598838806 47.79494857788086 2.307321310043335 41.68998718261719 L 2.309821367263794 41.68027877807617 L 2.312529802322388 41.670654296875 C 3.688654661178589 36.77494812011719 5.960613250732422 32.25019836425781 9.06532096862793 28.22207260131836 C 12.16902160644531 24.19530487060547 15.96483325958252 20.84659004211426 20.34735107421875 18.26884269714355 L 47.66828155517578 1.856738448143005 C 50.77790451049805 -0.0123448483645916 54.33132171630859 -1.000303149223328 57.94415664672852 -1.000303149223328 C 64.65665435791016 -1.000303149223328 70.88090515136719 2.333446741104126 74.59394836425781 7.917530059814453 L 118.1728210449219 73.26423645019531 C 120.9643630981445 77.4901123046875 122.0529861450195 82.56620025634766 121.2405700683594 87.56098937988281 C 120.4281997680664 92.55565643310547 117.7871551513672 97.02519989013672 113.8039474487305 100.1461944580078 L 89.34278106689453 119.1780700683594 L 89.33927917480469 119.180778503418 L 89.33582305908203 119.1834487915039 C 86.521484375 121.3336563110352 85.70982360839844 125.2821578979492 87.44773864746094 128.3680267333984 L 87.45048522949219 128.3729400634766 L 87.45323944091797 128.3779449462891 L 89.43869781494141 131.998779296875 C 95.96011352539063 143.9409027099609 104.0752410888672 158.8014526367188 134.0653228759766 188.80224609375 C 164.0641479492188 218.8119049072266 178.9252319335938 226.9123687744141 190.8663177490234 233.4211578369141 L 194.4913635253906 235.4197387695313 C 195.5522308349609 236.0090789794922 196.7487030029297 236.3197784423828 197.9542388916016 236.3197784423828 C 200.208740234375 236.3197784423828 202.2827453613281 235.2904052734375 203.6443634033203 233.4955749511719 L 203.6479949951172 233.4908142089844 L 203.6516571044922 233.4860687255859 L 222.6864929199219 209.0117340087891 C 224.61865234375 206.5446929931641 227.0222778320313 204.6148986816406 229.8326568603516 203.2733154296875 C 232.5220336914063 201.9894866943359 235.5211181640625 201.3108978271484 238.5056915283203 201.3108978271484 C 242.44677734375 201.3108978271484 246.2719421386719 202.4633178710938 249.5676574707031 204.6436614990234 L 314.9186096191406 248.2252807617188 C 319.2203063964844 251.0857849121094 322.2140197753906 255.4378204345703 323.3471069335938 260.4790344238281 C 324.4801635742188 265.5201416015625 323.6367492675781 270.7345581054688 320.9721984863281 275.1617431640625 L 304.5441284179688 302.46533203125 C 301.9687194824219 306.8492431640625 298.6209106445313 310.6452941894531 294.5932922363281 313.7486877441406 C 290.5647888183594 316.8527526855469 286.0391235351563 319.1226501464844 281.1420593261719 320.495361328125 L 281.1376037597656 320.4966125488281 L 281.1332092285156 320.4978332519531 C 273.2622680664063 322.6260681152344 265.147705078125 323.7464599609375 256.9977722167969 323.8312377929688 L 256.9977722167969 323.8364562988281 Z M 66.19569396972656 201.804443359375 L 66.1273193359375 201.7978668212891 C 64.4398193359375 201.6350708007813 62.88444519042969 200.8528594970703 61.74773788452148 199.5953979492188 L 61.73944473266602 199.5862426757813 L 61.73136138916016 199.5768585205078 C 60.63003158569336 198.2961578369141 60.06490325927734 196.6616973876953 60.14007186889648 194.974609375 L 60.14169692993164 194.9380645751953 L 60.14598846435547 194.9017333984375 C 60.34440612792969 193.2230682373047 61.15886306762695 191.6908569335938 62.43940353393555 190.58740234375 L 62.44911193847656 190.5790252685547 L 62.45903015136719 190.5709533691406 C 63.1024169921875 190.0446166992188 63.83335113525391 189.6562957763672 64.63166809082031 189.4166412353516 C 65.27335357666016 189.2060241699219 65.94164276123047 189.0992431640625 66.61824035644531 189.0992431640625 C 66.75160217285156 189.0992431640625 66.88654327392578 189.1034851074219 67.01994323730469 189.1118621826172 L 67.04869842529297 189.1118621826172 L 67.08907318115234 189.1151580810547 C 68.76506805419922 189.2511901855469 70.30019378662109 190.0211181640625 71.41169738769531 191.2830352783203 C 72.523193359375 192.5449829101563 73.09311676025391 194.1651153564453 73.01644897460938 195.8449096679688 L 73.01531982421875 195.8696899414063 L 73.01294708251953 195.8944091796875 C 72.85356903076172 197.5635375976563 72.07786560058594 199.09912109375 70.82869720458984 200.2183227539063 L 70.81269836425781 200.2326965332031 L 70.79602813720703 200.2463684082031 C 70.48336029052734 200.5031127929688 70.14732360839844 200.7408599853516 69.79727935791016 200.9529876708984 C 69.43831634521484 201.1704559326172 69.052490234375 201.3350067138672 68.6494140625 201.442626953125 C 68.23757934570313 201.6036224365234 67.80609893798828 201.7084808349609 67.36565399169922 201.7544860839844 L 67.33428192138672 201.7577819824219 L 67.302734375 201.7590789794922 L 66.26432037353516 201.8016510009766 L 66.19569396972656 201.804443359375 Z" stroke="none"/>
      <path d="M 255.9972534179688 322.8364562988281 C 264.3968505859375 322.8364562988281 272.76171875 321.7255249023438 280.8721618652344 319.5325012207031 C 290.4630737304688 316.843994140625 298.6393737792969 310.544189453125 303.6838989257813 301.9553527832031 L 320.1154174804688 274.6460571289063 C 325.348876953125 265.9505615234375 322.8152465820313 254.6771545410156 314.36376953125 249.0572357177734 L 249.0158996582031 205.4776611328125 C 245.7867279052734 203.3413696289063 242.1300964355469 202.3108825683594 238.5056762695313 202.3108825683594 C 232.822509765625 202.3108825683594 227.2195587158203 204.8456268310547 223.4758605957031 209.6256561279297 L 204.4410247802734 234.0999908447266 C 202.8546600341797 236.1910400390625 200.4287719726563 237.3197631835938 197.9542388916016 237.3197631835938 C 196.6111907958984 237.3197631835938 195.2536773681641 236.9871673583984 194.0085754394531 236.2954406738281 L 190.3877410888672 234.2991943359375 C 178.3846130371094 227.7565765380859 163.4495239257813 219.6115264892578 133.3580780029297 189.5092315673828 C 103.2665710449219 159.4069519042969 95.10448455810547 144.4605255126953 88.56186676025391 132.4795684814453 L 86.57640838623047 128.8587341308594 C 84.58352661132813 125.3201522827148 85.50165557861328 120.854362487793 88.72869873046875 118.3888244628906 L 113.1871948242188 99.35906982421875 C 121.0127792358398 93.22732543945313 122.8206558227539 82.11453247070313 117.3408660888672 73.81906890869141 L 73.76123809814453 8.471238136291504 C 70.11753845214844 2.991473197937012 64.09811401367188 -0.0003220621729269624 57.94413757324219 -0.0003220621729269624 C 54.61121368408203 -0.0003220621729269624 51.23792266845703 0.8779131770133972 48.1832389831543 2.71394681930542 L 20.85748863220215 19.12894630432129 C 12.27148818969727 24.17803001403809 5.9706130027771 32.35207366943359 3.275238037109375 41.94123840332031 C 0.1219880804419518 54.08907318115234 -0.7649285793304443 66.714111328125 0.6599047183990479 79.18253326416016 C 2.153404712677002 91.39898681640625 5.162571430206299 103.3816986083984 9.61811351776123 114.8536529541016 C 18.5961971282959 137.3504943847656 30.65607070922852 158.4928283691406 45.45040512084961 177.67236328125 C 46.486572265625 179.1681518554688 47.58457183837891 180.6174011230469 48.74273681640625 182.01953125 C 49.82094192504883 183.3811492919922 51.41788482666016 184.0925445556641 53.03135681152344 184.0924987792969 C 54.19965362548828 184.0924835205078 55.37667465209961 183.7194366455078 56.37140655517578 182.9501495361328 C 58.68373870849609 181.1331939697266 59.0877799987793 177.7870330810547 57.27590560913086 175.4718627929688 C 56.14615631103516 174.1059875488281 55.06969451904297 172.6959533691406 54.04773712158203 171.2432403564453 C 39.86790466308594 152.8672027587891 28.3045711517334 132.6128997802734 19.68965530395508 111.0603256225586 C 15.55698776245117 100.4394912719727 12.75723838806152 89.34711456298828 11.3556547164917 78.03632354736328 C 10.07890510559082 66.91498565673828 10.85798835754395 55.65353012084961 13.65323829650879 44.81423950195313 C 15.61373805999756 37.88744735717773 20.17936325073242 31.98890495300293 26.39344596862793 28.35611343383789 L 53.71977996826172 11.96269702911377 C 55.0460319519043 11.16360282897949 56.51069259643555 10.78162097930908 57.95849990844727 10.78162097930908 C 60.6281852722168 10.78162097930908 63.24020385742188 12.08068752288818 64.81894683837891 14.45890522003174 L 108.3985290527344 79.80103302001953 C 110.7778244018555 83.39920043945313 109.9964447021484 88.22190856933594 106.601448059082 90.88490295410156 L 82.13786315917969 109.9141159057617 C 74.69298553466797 115.6066589355469 72.56735992431641 125.9074478149414 77.15061187744141 134.08203125 L 79.09352874755859 137.6115264892578 C 85.96923828125 150.2229461669922 94.51831817626953 165.9109954833984 125.7288208007813 197.116943359375 C 156.9392852783203 228.3222808837891 172.6227722167969 236.8713684082031 185.2285766601563 243.7465362548828 L 188.7631530761719 245.6945648193359 C 191.6619720458984 247.3196563720703 194.8279266357422 248.1012268066406 197.961181640625 248.1011810302734 C 203.6636199951172 248.1011047363281 209.2572021484375 245.5121154785156 212.9311065673828 240.7073211669922 L 231.9602813720703 216.2431488037109 C 233.5866546630859 214.1719055175781 236.0166015625 213.0742034912109 238.4823760986328 213.0742034912109 C 240.0549011230469 213.0742034912109 241.6423187255859 213.52099609375 243.0441131591797 214.4466094970703 L 308.3863525390625 258.0262451171875 C 312.0548095703125 260.4617004394531 313.1551208496094 265.3536071777344 310.8825378417969 269.1253967285156 L 294.4890441894531 296.4512023925781 C 290.8574523925781 302.6584167480469 284.9628295898438 307.21728515625 278.041748046875 309.1704406738281 C 271.4740600585938 310.9735412597656 263.9353332519531 312.1222839355469 255.3818359375 312.1222839355469 C 220.828369140625 312.1222839355469 169.7529296875 293.3668212890625 99.60769653320313 223.2215728759766 L 84.83890533447266 207.8393707275391 C 83.76517486572266 206.7256622314453 82.33010864257813 206.1619720458984 80.89056396484375 206.1619720458984 C 79.59206390380859 206.1619720458984 78.28985595703125 206.6209259033203 77.2470703125 207.548828125 C 76.18082427978516 208.5106201171875 75.54927825927734 209.8622741699219 75.49423980712891 211.2967834472656 C 75.43978118896484 212.7306518554688 75.96749114990234 214.1266174316406 76.95652770996094 215.1672821044922 L 91.99432373046875 230.8343658447266 C 164.5032806396484 303.337646484375 218.4829864501953 322.8355712890625 255.5851898193359 322.8355712890625 C 255.7222442626953 322.8361511230469 255.8596954345703 322.8364562988281 255.9967803955078 322.8364562988281 C 255.9972991943359 322.8364562988281 255.9967346191406 322.8364562988281 255.9972534179688 322.8364562988281 M 66.22336578369141 200.802490234375 L 67.26177978515625 200.7599029541016 C 67.63119506835938 200.7213287353516 67.99378204345703 200.6305236816406 68.33765411376953 200.4903564453125 C 68.66961669921875 200.4075317382813 68.98682403564453 200.2747802734375 69.27902984619141 200.0977325439453 C 69.587158203125 199.9110260009766 69.88224029541016 199.7027740478516 70.16140747070313 199.4735260009766 C 71.21969604492188 198.5253143310547 71.8824462890625 197.2134094238281 72.01748657226563 195.79931640625 C 72.15144348144531 192.8639831542969 69.93669891357422 190.349609375 67.00815582275391 190.1118621826172 L 66.98715209960938 190.1118621826172 C 66.86420440673828 190.1034393310547 66.74115753173828 190.0992279052734 66.61824035644531 190.0992279052734 C 66.04624176025391 190.0992279052734 65.47693634033203 190.1903228759766 64.93186187744141 190.3706207275391 C 64.26057434082031 190.5703582763672 63.63469696044922 190.9011535644531 63.09219741821289 191.3449401855469 C 62.0044059753418 192.2823181152344 61.30761337280273 193.5931091308594 61.13907241821289 195.0191192626953 C 61.07553100585938 196.445068359375 61.55898666381836 197.8426971435547 62.48957061767578 198.9248199462891 C 63.45648956298828 199.9944458007813 64.78827667236328 200.6640319824219 66.22336578369141 200.802490234375 M 255.9972381591797 324.8364562988281 L 255.9969940185547 324.8364562988281 C 255.8568572998047 324.8364562988281 255.7165679931641 324.8361511230469 255.5766906738281 324.8355712890625 C 245.5169830322266 324.8346862792969 234.914794921875 323.4070129394531 224.0659027099609 320.5920715332031 C 211.8972778320313 317.4346923828125 199.1422424316406 312.4591674804688 186.1551513671875 305.8035583496094 C 171.8388214111328 298.4668579101563 156.8880767822266 288.9070739746094 141.7182312011719 277.3897705078125 C 125.1972808837891 264.8467407226563 107.991943359375 249.6590728759766 90.58015441894531 232.2486114501953 L 90.56565093994141 232.2341156005859 L 90.55144500732422 232.2193145751953 L 75.51365661621094 216.55224609375 L 75.51019287109375 216.5486602783203 L 75.50682067871094 216.5450744628906 C 74.15423583984375 215.1219024658203 73.42124176025391 213.1813201904297 73.49569702148438 211.2208709716797 C 73.57099151611328 209.2577819824219 74.4500732421875 207.3783569335938 75.90748596191406 206.0637359619141 L 75.91249084472656 206.0592041015625 L 75.91757202148438 206.0547027587891 C 77.28919982910156 204.8341522216797 79.05532073974609 204.1619873046875 80.89057159423828 204.1619873046875 C 82.94194793701172 204.1619873046875 84.85552978515625 204.9749908447266 86.27873992919922 206.4512329101563 L 101.0362854003906 221.8217468261719 C 159.6333923339844 280.4161376953125 211.5602416992188 310.1222839355469 255.3818206787109 310.1222839355469 C 263.1007690429688 310.1222839355469 270.5433654785156 309.1539916992188 277.5024108886719 307.2445068359375 C 283.9564208984375 305.4221801757813 289.3757019042969 301.2305603027344 292.7627868652344 295.4412536621094 L 292.768310546875 295.4317321777344 L 292.7739868164063 295.4222717285156 L 309.16748046875 268.0964965820313 C 310.8941040039063 265.2308654785156 310.0642395019531 261.540771484375 307.2801513671875 259.6924743652344 L 241.9384613037109 216.1131896972656 C 240.9075317382813 215.4334716796875 239.7125244140625 215.0742034912109 238.4823608398438 215.0742034912109 C 236.5397186279297 215.0742034912109 234.7383422851563 215.9477844238281 233.5386352539063 217.4715118408203 L 214.5121307373047 241.9322662353516 C 212.5470123291016 244.4990234375 209.9775238037109 246.5987091064453 207.0802764892578 248.0052032470703 C 204.255859375 249.3763580322266 201.1025695800781 250.1011505126953 197.9612426757813 250.1011962890625 C 194.412353515625 250.1012420654297 190.8954315185547 249.1817474365234 187.7899169921875 247.4418182373047 L 184.2681121826172 245.5008239746094 L 184.2585296630859 245.4956207275391 C 171.5432434082031 238.5606994628906 155.7185668945313 229.9299926757813 124.3147354125977 198.5312805175781 C 92.90911102294922 167.1302337646484 84.2783203125 151.2996063232422 77.34336090087891 138.5795288085938 L 77.339599609375 138.5726776123047 L 75.39971160888672 135.0486755371094 C 72.9525146484375 130.6776428222656 72.1624755859375 125.5694580078125 73.17494964599609 120.6631164550781 C 74.18797302246094 115.7540740966797 76.93838500976563 111.3734970092773 80.91950225830078 108.3280258178711 L 105.3671112060547 89.31124114990234 L 105.3671112060547 89.31124114990234 C 107.9222946166992 87.30697631835938 108.5213928222656 83.61562347412109 106.7318115234375 80.90647888183594 L 63.15507125854492 15.56861305236816 C 61.99565505981445 13.8221549987793 60.05390548706055 12.78161334991455 57.95848846435547 12.78161334991455 C 56.83161163330078 12.78161334991455 55.72282028198242 13.09082221984863 54.75194549560547 13.67578029632568 L 27.42232131958008 30.0711555480957 L 27.41261291503906 30.07698822021484 L 27.4028205871582 30.08269691467285 C 21.61264801025391 33.46768188476563 17.41590118408203 38.88478469848633 15.58366775512695 45.33769989013672 C 12.84475803375244 55.9702033996582 12.09056758880615 66.89150238037109 13.3415412902832 77.79884338378906 C 14.72137641906738 88.92881774902344 17.48337936401367 99.87300872802734 21.5506706237793 110.3277206420898 C 30.09759140014648 131.7080383300781 41.56337356567383 151.7905883789063 55.63115310668945 170.0214080810547 L 55.65811157226563 170.0563659667969 L 55.68352890014648 170.0924835205078 C 56.67098617553711 171.4961547851563 57.72523880004883 172.8771514892578 58.8170280456543 174.1971588134766 L 58.83427810668945 174.2179870605469 L 58.85090637207031 174.2392425537109 C 61.33761215209961 177.4167022705078 60.77965545654297 182.0298614501953 57.60711288452148 184.5227355957031 L 57.60102844238281 184.5275268554688 L 57.59490585327148 184.5322418212891 C 56.27507019042969 185.5529479980469 54.69698715209961 186.0924835205078 53.03136444091797 186.0924835205078 C 50.74203109741211 186.092529296875 48.61399841308594 185.0674438476563 47.18912124633789 183.2791595458984 C 46.01318359375 181.8546600341797 44.88520812988281 180.3660430908203 43.83566284179688 178.8535461425781 C 28.93917083740234 159.5341339111328 16.80262184143066 138.2521057128906 7.760571479797363 115.5949478149414 L 7.757154941558838 115.5863647460938 L 7.753779888153076 115.5777359008789 C 3.241821527481079 103.9605331420898 0.1871964037418365 91.79707336425781 -1.325303554534912 79.42523956298828 L -1.326261878013611 79.41740417480469 L -1.327178597450256 79.40961456298828 C -2.050136804580688 73.08315277099609 -2.190470218658447 66.65428161621094 -1.744303584098816 60.30152893066406 C -1.298136949539185 53.94923782348633 -0.2606369256973267 47.6029052734375 1.339404702186584 41.43873977661133 L 1.344446420669556 41.4193229675293 L 1.349863052368164 41.40003204345703 C 2.760738134384155 36.380615234375 5.090113162994385 31.74152946472168 8.273321151733398 27.61161422729492 C 11.45444774627686 23.48434066772461 15.34435272216797 20.05208396911621 19.83584785461426 17.40954208374023 L 47.15336227416992 0.9994884729385376 C 50.41823959350586 -0.9628865122795105 54.1497802734375 -2.000303268432617 57.94415664672852 -2.000303268432617 C 64.99224090576172 -2.000303268432617 71.52777862548828 1.500321865081787 75.42665100097656 7.363821983337402 L 119.0047760009766 72.70940399169922 L 119.0072402954102 72.71307373046875 L 119.009651184082 72.71669769287109 C 121.937614440918 77.14920043945313 123.0804443359375 82.47798919677734 122.2276153564453 87.72152709960938 C 121.3747787475586 92.96486663818359 118.6022415161133 97.65694427490234 114.4207382202148 100.9333648681641 L 114.4180297851563 100.9354858398438 L 114.4153213500977 100.9375686645508 L 89.95681762695313 119.9673233032227 L 89.94990539550781 119.9727401733398 L 89.94290161132813 119.9780731201172 C 87.52244567871094 121.8273620605469 86.82436370849609 125.2232818603516 88.31903076171875 127.8773193359375 L 88.32461547851563 127.8871994018555 L 88.33007049560547 127.8971099853516 L 90.31552886962891 131.5179443359375 C 96.80711364746094 143.4054412841797 104.884033203125 158.1960754394531 134.7725372314453 188.0952758789063 C 164.6694030761719 218.0029449462891 179.4602813720703 226.0650787353516 191.3449401855469 232.5431060791016 L 191.3491516113281 232.54541015625 L 191.3533630371094 232.5477447509766 L 194.9741973876953 234.5439910888672 L 194.9770355224609 234.5455780029297 L 194.9798583984375 234.547119140625 C 195.8896942138672 235.0526123046875 196.9182434082031 235.3197784423828 197.9542388916016 235.3197784423828 C 199.8931579589844 235.3197784423828 201.6767730712891 234.4345703125 202.84765625 232.8911895751953 L 202.8549499511719 232.8816070556641 L 202.8623199462891 232.8721618652344 L 221.8971557617188 208.3978271484375 L 221.8992004394531 208.3951110839844 L 221.9013214111328 208.3924407958984 C 223.9273986816406 205.8054809570313 226.4509429931641 203.7795257568359 229.40185546875 202.3708648681641 C 232.2248992919922 201.0232391357422 235.3729858398438 200.3108978271484 238.5056915283203 200.3108978271484 C 242.6436157226563 200.3108978271484 246.6595764160156 201.5207366943359 250.1194000244141 203.8096618652344 L 250.1224822998047 203.8116607666016 L 250.1255645751953 203.8137359619141 L 315.4734497070313 247.3933258056641 C 319.9894409179688 250.3962860107422 323.1329345703125 254.9662017822266 324.3227233886719 260.2597351074219 C 325.5125427246094 265.5531921386719 324.6268920898438 271.0286254882813 321.8289794921875 275.6773986816406 L 305.4021911621094 302.9788818359375 C 302.7621765136719 307.4706420898438 299.3309326171875 311.3606262207031 295.20361328125 314.5408325195313 C 291.0731506347656 317.7234191894531 286.4329833984375 320.05078125 281.4119873046875 321.458251953125 L 281.4031066894531 321.4607238769531 L 281.3941955566406 321.4631652832031 C 273.1162109375 323.7014770507813 264.5714416503906 324.8364562988281 255.9972381591797 324.8364562988281 Z M 66.16802978515625 202.8064422607422 L 66.03128051757813 202.7932434082031 C 64.09498596191406 202.6064453125 62.31027984619141 201.7089080810547 61.00590515136719 200.2659912109375 L 60.98932266235352 200.2476501464844 L 60.9731559753418 200.2288665771484 C 59.70515441894531 198.7543640136719 59.05448913574219 196.8725280761719 59.14107131958008 194.9300689697266 L 59.14432144165039 194.8569946289063 L 59.15290451049805 194.7843627929688 C 59.3807373046875 192.8566131591797 60.31607055664063 191.0970764160156 61.78661346435547 189.8298645019531 L 61.8060302734375 189.8131561279297 L 61.82586288452148 189.7969512939453 C 62.56843566894531 189.1894226074219 63.41149520874023 188.7405853271484 64.33185577392578 188.4625701904297 C 65.07064819335938 188.2214660644531 65.83972930908203 188.0992431640625 66.61824035644531 188.0992431640625 C 66.76145935058594 188.0992431640625 66.90633392333984 188.1035003662109 67.04996490478516 188.1118621826172 L 67.08919525146484 188.1118621826172 L 67.16999053955078 188.118408203125 C 69.10556793212891 188.2755737304688 70.87844848632813 189.1647033691406 72.162109375 190.6220703125 C 73.44573974609375 192.0794830322266 74.10394287109375 193.9504852294922 74.01540374755859 195.8904876708984 L 74.01315307617188 195.9400787353516 L 74.00844573974609 195.9894409179688 C 73.8250732421875 197.9094085693359 72.93282318115234 199.6757354736328 71.49603271484375 200.9630737304688 L 71.46394348144531 200.9918212890625 L 71.43065643310547 201.0191497802734 C 71.08132171630859 201.3060302734375 70.70611572265625 201.571533203125 70.31549072265625 201.8082427978516 C 69.89139556884766 202.065185546875 69.43657684326172 202.2618865966797 68.96147155761719 202.3940277099609 C 68.48184967041016 202.5763854980469 67.98069000244141 202.6957092285156 67.46952819824219 202.7490692138672 L 67.40677642822266 202.7556610107422 L 67.34373474121094 202.7582397460938 L 66.30532073974609 202.8008270263672 L 66.16802978515625 202.8064422607422 Z" stroke="none" fill="#0d1b3a"/>
    </g>
    <path id="Path_54694" data-name="Path 54694" d="M151.37,159.779A143.122,143.122,0,0,0,8.409,16.818,8.409,8.409,0,0,1,8.409,0,159.955,159.955,0,0,1,168.188,159.779a8.409,8.409,0,1,1-16.818,0Zm-50.457,0a92.613,92.613,0,0,0-92.5-92.5,8.409,8.409,0,1,1,0-16.818A109.448,109.448,0,0,1,117.731,159.779a8.409,8.409,0,1,1-16.818,0Zm-50.457,0A42.1,42.1,0,0,0,8.409,117.731a8.409,8.409,0,1,1,0-16.818,58.932,58.932,0,0,1,58.866,58.866,8.409,8.409,0,1,1-16.818,0Z" transform="translate(9814.125 7269)" fill="#ec691f"/>
  </g>
</svg>
