<svg xmlns="http://www.w3.org/2000/svg" width="64.999" height="47.326" viewBox="0 0 64.999 47.326">
  <g id="ic_cards" transform="translate(-5115.434 -510.288)">
    <g id="Path_59282" data-name="Path 59282" transform="translate(5120.909 510.288) rotate(8)" fill="#fff">
      <path d="M 56.88289260864258 38.84347915649414 L 3.225192785263062 38.84347915649414 C 1.722522854804993 38.84347915649414 0.5000028014183044 37.62095642089844 0.5000028014183044 36.11827850341797 L 0.5000028014183044 3.225197553634644 C 0.5000028014183044 1.722517728805542 1.722522854804993 0.4999976754188538 3.225192785263062 0.4999976754188538 L 56.88289260864258 0.4999976754188538 C 58.38556289672852 0.4999976754188538 59.60808181762695 1.722517728805542 59.60808181762695 3.225197553634644 L 59.60808181762695 36.11827850341797 C 59.60808181762695 37.62095642089844 58.38556289672852 38.84347915649414 56.88289260864258 38.84347915649414 Z" stroke="none"/>
      <path d="M 3.225193023681641 0.9999961853027344 C 1.998222351074219 0.9999961853027344 1.000003814697266 1.998218536376953 1.000003814697266 3.225196838378906 L 1.000003814697266 36.11827850341797 C 1.000003814697266 37.34525680541992 1.998222351074219 38.34347915649414 3.225193023681641 38.34347915649414 L 56.88288116455078 38.34347915649414 C 58.10986328125 38.34347915649414 59.10808181762695 37.34525680541992 59.10808181762695 36.11827850341797 L 59.10808181762695 3.225196838378906 C 59.10808181762695 1.998218536376953 58.10986328125 0.9999961853027344 56.88288116455078 0.9999961853027344 L 3.225193023681641 0.9999961853027344 M 3.225193023681641 -3.814697265625e-06 L 56.88288116455078 -3.814697265625e-06 C 58.66411209106445 -3.814697265625e-06 60.10808181762695 1.443965911865234 60.10808181762695 3.225196838378906 L 60.10808181762695 36.11827850341797 C 60.10808181762695 37.89950942993164 58.66411209106445 39.34347915649414 56.88288116455078 39.34347915649414 L 3.225193023681641 39.34347915649414 C 1.443973541259766 39.34347915649414 3.814697265625e-06 37.89950942993164 3.814697265625e-06 36.11827850341797 L 3.814697265625e-06 3.225196838378906 C 3.814697265625e-06 1.443965911865234 1.443973541259766 -3.814697265625e-06 3.225193023681641 -3.814697265625e-06 Z" stroke="none" fill="#0d1b3a"/>
    </g>
    <g id="Path_59284" data-name="Path 59284" transform="translate(5115.706 518.089) rotate(-7)" fill="#fff">
      <path d="M 56.88289260864258 38.84347915649414 L 3.225192785263062 38.84347915649414 C 1.722522854804993 38.84347915649414 0.5000028014183044 37.62095642089844 0.5000028014183044 36.11827850341797 L 0.5000028014183044 3.225197553634644 C 0.5000028014183044 1.722517728805542 1.722522854804993 0.4999976754188538 3.225192785263062 0.4999976754188538 L 56.88289260864258 0.4999976754188538 C 58.38556289672852 0.4999976754188538 59.60808181762695 1.722517728805542 59.60808181762695 3.225197553634644 L 59.60808181762695 36.11827850341797 C 59.60808181762695 37.62095642089844 58.38556289672852 38.84347915649414 56.88289260864258 38.84347915649414 Z" stroke="none"/>
      <path d="M 3.225193023681641 0.9999961853027344 C 1.998222351074219 0.9999961853027344 1.000003814697266 1.998218536376953 1.000003814697266 3.225196838378906 L 1.000003814697266 36.11827850341797 C 1.000003814697266 37.34525680541992 1.998222351074219 38.34347915649414 3.225193023681641 38.34347915649414 L 56.88288116455078 38.34347915649414 C 58.10986328125 38.34347915649414 59.10808181762695 37.34525680541992 59.10808181762695 36.11827850341797 L 59.10808181762695 3.225196838378906 C 59.10808181762695 1.998218536376953 58.10986328125 0.9999961853027344 56.88288116455078 0.9999961853027344 L 3.225193023681641 0.9999961853027344 M 3.225193023681641 -3.814697265625e-06 L 56.88288116455078 -3.814697265625e-06 C 58.66411209106445 -3.814697265625e-06 60.10808181762695 1.443965911865234 60.10808181762695 3.225196838378906 L 60.10808181762695 36.11827850341797 C 60.10808181762695 37.89950942993164 58.66411209106445 39.34347915649414 56.88288116455078 39.34347915649414 L 3.225193023681641 39.34347915649414 C 1.443973541259766 39.34347915649414 3.814697265625e-06 37.89950942993164 3.814697265625e-06 36.11827850341797 L 3.814697265625e-06 3.225196838378906 C 3.814697265625e-06 1.443965911865234 1.443973541259766 -3.814697265625e-06 3.225193023681641 -3.814697265625e-06 Z" stroke="none" fill="#0d1b3a"/>
    </g>
    <g id="Path_59285" data-name="Path 59285" transform="translate(5155.859 525.27) rotate(-7)" fill="#fff">
      <path d="M 11.15849304199219 7.878701210021973 L 1.773853182792664 7.878701210021973 C 1.071453213691711 7.878701210021973 0.5000031590461731 7.3072509765625 0.5000031590461731 6.604841232299805 L 0.5000031590461731 1.773861050605774 C 0.5000031590461731 1.0714510679245 1.071453213691711 0.500001072883606 1.773853182792664 0.500001072883606 L 11.15849304199219 0.500001072883606 C 11.86089324951172 0.500001072883606 12.43234348297119 1.0714510679245 12.43234348297119 1.773861050605774 L 12.43234348297119 6.604841232299805 C 12.43234348297119 7.3072509765625 11.86089324951172 7.878701210021973 11.15849304199219 7.878701210021973 Z" stroke="none"/>
      <path d="M 1.773853302001953 1.000000953674316 C 1.347152709960938 1.000000953674316 1.000002861022949 1.347151279449463 1.000002861022949 1.773860931396484 L 1.000002861022949 6.604841232299805 C 1.000002861022949 7.031551361083984 1.347152709960938 7.378701210021973 1.773853302001953 7.378701210021973 L 11.15848350524902 7.378701210021973 C 11.5851936340332 7.378701210021973 11.93234348297119 7.031551361083984 11.93234348297119 6.604841232299805 L 11.93234348297119 1.773860931396484 C 11.93234348297119 1.347151279449463 11.5851936340332 1.000000953674316 11.15848350524902 1.000000953674316 L 1.773853302001953 1.000000953674316 M 1.773853302001953 9.5367431640625e-07 L 11.15848350524902 9.5367431640625e-07 C 12.13816356658936 9.5367431640625e-07 12.93234348297119 0.7941808700561523 12.93234348297119 1.773860931396484 L 12.93234348297119 6.604841232299805 C 12.93234348297119 7.584521293640137 12.13816356658936 8.378701210021973 11.15848350524902 8.378701210021973 L 1.773853302001953 8.378701210021973 C 0.7941827774047852 8.378701210021973 2.86102294921875e-06 7.584521293640137 2.86102294921875e-06 6.604841232299805 L 2.86102294921875e-06 1.773860931396484 C 2.86102294921875e-06 0.7941808700561523 0.7941827774047852 9.5367431640625e-07 1.773853302001953 9.5367431640625e-07 Z" stroke="none" fill="#ec691f"/>
    </g>
    <path id="Path_59317" data-name="Path 59317" d="M-15492.539-8461.309h35.445" transform="translate(21749.525 6477.852) rotate(-9)" fill="none" stroke="#0d1b3a" stroke-linecap="round" stroke-width="1"/>
    <path id="Path_59318" data-name="Path 59318" d="M-15492.54-8461.309h12.716" transform="translate(21750.525 6483.852) rotate(-9)" fill="none" stroke="#0d1b3a" stroke-linecap="round" stroke-width="1"/>
    <path id="Path_59319" data-name="Path 59319" d="M-15492.54-8461.309h12.716" transform="translate(21767.525 6480.852) rotate(-9)" fill="none" stroke="#0d1b3a" stroke-linecap="round" stroke-width="1"/>
    <path id="Path_59320" data-name="Path 59320" d="M-15492.54-8461.309h12.716" transform="translate(21784.525 6477.852) rotate(-9)" fill="none" stroke="#0d1b3a" stroke-linecap="round" stroke-width="1"/>
  </g>
</svg>
