<svg xmlns="http://www.w3.org/2000/svg" width="509" height="509" viewBox="0 0 509 509">
  <g id="ic_dispute" transform="translate(23910 7002)">
    <path id="Path_90904" data-name="Path 90904" d="M57.993,126.864a20.858,20.858,0,0,0,39.489,13.078l42.543-102.1H99.945L116.364,5H56.343L25.557,87.1H67.935ZM49.25,70.677,67.722,21.419H89.8L73.378,54.258H115.4L82.327,133.621a4.428,4.428,0,0,1-4.1,2.734,4.436,4.436,0,0,1-4.3-5.517l15.04-60.161Z" transform="translate(-23733.951 -6974.161)" fill="#e36410"/>
    <path id="Path_90905" data-name="Path 90905" d="M55.048,198.032h53.741l49.948,57.082a25.152,25.152,0,0,0,44.086-16.551V198.032H268.5a41.1,41.1,0,0,0,41.048-41.048V42.048A41.1,41.1,0,0,0,268.5,1H55.048A41.1,41.1,0,0,0,14,42.048V156.984A41.1,41.1,0,0,0,55.048,198.032ZM30.419,42.048A24.659,24.659,0,0,1,55.048,17.419H268.5a24.659,24.659,0,0,1,24.629,24.629V156.984A24.659,24.659,0,0,1,268.5,181.613H186.4v56.951a8.733,8.733,0,0,1-15.3,5.747l-54.857-62.7H55.048a24.659,24.659,0,0,1-24.629-24.629Z" transform="translate(-23817.273 -7003)" fill="#0d1b3a"/>
    <path id="Path_90906" data-name="Path 90906" d="M18,5H34.419V21.419H18Z" transform="translate(-23788.436 -6974.161)" fill="#0d1b3a"/>
    <path id="Path_90907" data-name="Path 90907" d="M18,9H34.419V25.419H18Z" transform="translate(-23788.436 -6945.323)" fill="#0d1b3a"/>
    <path id="Path_90908" data-name="Path 90908" d="M18,13H34.419V29.419H18Z" transform="translate(-23788.436 -6916.484)" fill="#0d1b3a"/>
    <path id="Path_90909" data-name="Path 90909" d="M44,15H60.419V31.419H44Z" transform="translate(-23600.984 -6902.064)" fill="#0d1b3a"/>
    <path id="Path_90910" data-name="Path 90910" d="M44,19H60.419V35.419H44Z" transform="translate(-23600.984 -6873.226)" fill="#0d1b3a"/>
    <path id="Path_90911" data-name="Path 90911" d="M44,11H60.419V27.419H44Z" transform="translate(-23600.984 -6930.903)" fill="#0d1b3a"/>
    <path id="Path_90912" data-name="Path 90912" d="M16,55H32.419V71.419H16Z" transform="translate(-23802.855 -6613.677)" fill="#0d1b3a"/>
    <path id="Path_90913" data-name="Path 90913" d="M16,51H32.419V67.419H16Z" transform="translate(-23802.855 -6642.516)" fill="#0d1b3a"/>
    <path id="Path_90914" data-name="Path 90914" d="M415.186,147.214a65.677,65.677,0,1,0-73.083,0,131.795,131.795,0,0,0-86.6,80.8,131.757,131.757,0,0,0-86.6-80.8,65.677,65.677,0,1,0-73.083,0C41.121,163.092,1,213.557,1,273.29v49.258H510V273.29c0-59.734-40.121-110.2-94.814-126.076Zm-79.043,76.916-5.033-55.358c2.529-1.158,5.123-2.192,7.75-3.169L367,198.426Zm34.292-7.2,8.21-6.839,8.21,6.839V273.29H370.435Zm19.859-18.5L418.429,165.6c2.627.977,5.213,2.011,7.75,3.169l-5.033,55.358ZM378.645,43.419A49.287,49.287,0,0,1,425.03,76.258h-13a47.742,47.742,0,0,1-26.542-8.037l-16.1-10.746-4.762,4.762a47.5,47.5,0,0,1-32.346,13.94,49.3,49.3,0,0,1,46.36-32.757ZM329.387,92.677h1.4a63.777,63.777,0,0,0,40.383-14.26l5.213,3.473a64.106,64.106,0,0,0,35.646,10.788H427.9a49.258,49.258,0,0,1-98.516,0Zm71.712,67.91-22.453,26.205-22.453-26.2a113.8,113.8,0,0,1,44.907-.008ZM196.4,212.941l-23,17.249V166.064c2.167.829,4.31,1.708,6.412,2.668Zm-12.766,93.188H173.4v-56.5l23.077,11.535Zm-115.4-44.964L91.306,249.63v56.5H81.077Zm16.666-92.433c2.1-.961,4.244-1.839,6.412-2.668V230.19l-23-17.249Zm22.831,30.458a40.219,40.219,0,0,0,49.258,0V306.129H107.726Zm24.629-155.77A49.287,49.287,0,0,1,178.74,76.258h-1.872A57.251,57.251,0,0,1,144.99,66.6L132.355,58.18,119.72,66.6a57.252,57.252,0,0,1-31.878,9.655H85.97a49.287,49.287,0,0,1,46.385-32.839ZM83.1,92.677h4.745a73.63,73.63,0,0,0,40.991-12.413l3.522-2.348,3.53,2.348a73.6,73.6,0,0,0,40.983,12.413h4.745a49.258,49.258,0,0,1-98.516,0Zm73.887,68.4v5.484a24.629,24.629,0,0,1-49.258,0V161.08a112.638,112.638,0,0,1,49.258,0ZM17.419,273.29a114.682,114.682,0,0,1,44.8-90.848L48.624,218.7l27.133,20.352L48.706,252.577,64,306.129H17.419ZM247.29,306.129H200.709l15.3-53.552-27.051-13.521L216.094,218.7l-13.6-36.262A114.7,114.7,0,0,1,247.29,273.29Zm246.29,0H263.71V273.29a114.884,114.884,0,0,1,51.7-95.881l7.216,79.363,31.386-26.156V289.71h49.258V230.616l31.386,26.156,7.216-79.363a114.884,114.884,0,0,1,51.7,95.881Z" transform="translate(-23911 -6815.548)" fill="#0d1b3a"/>
  </g>
</svg>
