<svg xmlns="http://www.w3.org/2000/svg" width="65" height="65" viewBox="0 0 65 65">
  <g id="ic_fuel" transform="translate(-5225.541 -458.98)">
    <path id="Intersection_1" data-name="Intersection 1" d="M5.477,33.488l-.008.023,0-.006a12.236,12.236,0,0,0,.664-2.638h0a9.135,9.135,0,0,0,4.942-.828,8.948,8.948,0,0,0,5.04-7.267c.227-2.677-.851-5.409-2.049-7.964a1.233,1.233,0,0,1,.051-1.221,1.5,1.5,0,0,1,1.241-.671,1.224,1.224,0,0,1,.644.177,1.307,1.307,0,0,1,.495.575c1.291,2.754,2.574,6.016,2.293,9.33a11.644,11.644,0,0,1-6.552,9.46,11.842,11.842,0,0,1-5.1,1.147A11.7,11.7,0,0,1,5.477,33.488ZM0,9.541A76.4,76.4,0,0,1,6.1.513a1.342,1.342,0,0,1,2.111,0c.354.45.713.923,1.1,1.447l.861,1.21.759,1.067c.448.649.885,1.3,1.3,1.935a1.222,1.222,0,0,1,.079,1.3,1.5,1.5,0,0,1-1.278.769,1.234,1.234,0,0,1-1.049-.6c-.92-1.41-1.87-2.782-2.825-4.077A73.177,73.177,0,0,0,1.5,12.36C.649,10.755.06,9.653,0,9.541Z" transform="translate(5263.193 471.793)" fill="none" stroke="#e36410" stroke-width="1"/>
    <path id="Intersection_5" data-name="Intersection 5" d="M14.257,52.222a18.044,18.044,0,0,1-9.52-5.409c-.185-.21-.539-.615-.826-.971-.409-.509-1-1.379-1.231-1.731-.165-.264-.321-.53-.466-.791a1.342,1.342,0,1,1,2.349-1.3,15.352,15.352,0,0,0,28.779-7.3C33.342,31,31.7,26,28.47,19.846c-.017-.03-.034-.059-.048-.09a131.29,131.29,0,0,0-10.409-16.2A135.993,135.993,0,0,0,8.992,17.225C4.807,24.587,2.685,30.472,2.685,34.719c0,.338.013.691.037,1.051a1.252,1.252,0,0,1-.318.968,1.418,1.418,0,0,1-1.039.426,1.26,1.26,0,0,1-1.321-1.21C.015,35.533,0,35.117,0,34.719,0,22.1,16.269,1.385,16.961.509A1.544,1.544,0,0,1,18.014,0a1.544,1.544,0,0,1,1.053.509c.164.208,1.666,2.115,3.7,5a125.451,125.451,0,0,1,6.861,10.819l.009.056,1.534,2.82c3.224,6.293,4.859,11.512,4.859,15.51a17.915,17.915,0,0,1-.248,2.961h0l-.006.008-.645,2.6,0,.011h-.005a17.825,17.825,0,0,1-2.552,4.937,18.073,18.073,0,0,1-18.32,6.984Z" transform="translate(5233.541 464.98)" fill="none" stroke="#0d1b3a" stroke-width="1"/>
    <rect id="Rectangle_3848" data-name="Rectangle 3848" width="65" height="65" transform="translate(5225.541 458.98)" fill="none"/>
  </g>
</svg>
