<svg xmlns="http://www.w3.org/2000/svg" width="433.309" height="509.374" viewBox="0 0 433.309 509.374">
  <g id="ic_outlet" transform="translate(23860 7617)">
    <path id="Path_90899" data-name="Path 90899" d="M446.9,203.956a1.222,1.222,0,0,0,0-.125V142.3a7.518,7.518,0,0,0-2.863-5.906L389.578,93.411a7.527,7.527,0,0,0-4.66-1.616H347.092V38.063A33.352,33.352,0,0,0,313.778,4.75H70.676A33.352,33.352,0,0,0,37.362,38.063V473.288H21.118a7.522,7.522,0,0,0-7.522,7.522V506.6a7.522,7.522,0,0,0,7.522,7.522H363.349a7.518,7.518,0,0,0,7.522-7.522V480.811a7.518,7.518,0,0,0-7.522-7.522H347.092V331.91h9.414a2.927,2.927,0,0,1,2.923,2.923v67.014a43.737,43.737,0,1,0,87.475,0V229.872a1.222,1.222,0,0,0,0-.125Zm-15.045,9.4v8.872H421.112V211.478h10.746v1.874Zm0-67.4v50.482H421.112V154.811a8.223,8.223,0,0,0-3.009-6.018,7.5,7.5,0,0,0-4.776-1.719H376.451V125.525c0-.142.043-.275.043-.43V106.84h5.816ZM356.506,291.074h-9.414V132.631h14.314V154.6a7.518,7.518,0,0,0,7.522,7.522H375.2v11.348a20.444,20.444,0,0,0,20.418,20.418h10.445V401.847a2.9,2.9,0,1,1-5.8,0V334.833a43.81,43.81,0,0,0-43.759-43.759Zm49.562-128.955V178.84H395.622a5.377,5.377,0,0,1-5.373-5.373V162.119ZM361.449,106.84v10.746H347.1V106.84ZM70.676,19.795H313.791A18.29,18.29,0,0,1,332.06,38.063V178.29A18.282,18.282,0,0,1,313.8,196.434H70.676A18.277,18.277,0,0,1,52.429,178.38V38.063A18.29,18.29,0,0,1,70.676,19.795ZM355.827,499.079H28.658V488.333H355.827Zm-303.4-25.791V206a33.1,33.1,0,0,0,18.247,5.476H313.791A33.133,33.133,0,0,0,332.051,206l0,267.293Zm350.759-42.727a28.748,28.748,0,0,1-28.714-28.714V334.833a17.989,17.989,0,0,0-17.968-17.968h-9.414V306.119h9.414a28.744,28.744,0,0,1,28.714,28.714v67.014a17.946,17.946,0,1,0,35.893,0V237.27h10.746V401.847a28.727,28.727,0,0,1-28.671,28.714Z" transform="translate(-23873.596 -7621.75)" fill="#0d1b3a"/>
    <path id="Path_90900" data-name="Path 90900" d="M32.647,77.207a7.522,7.522,0,0,0-7.522,7.522v30.09a7.522,7.522,0,1,0,15.045,0V84.729a7.518,7.518,0,0,0-7.522-7.522Z" transform="translate(-23835.566 -7382.75)" fill="#0d1b3a"/>
    <path id="Path_90901" data-name="Path 90901" d="M38.647,120.314H230.181a7.522,7.522,0,0,0,7.522-7.522V24.272a7.522,7.522,0,0,0-7.522-7.522H38.647a7.522,7.522,0,0,0-7.522,7.522v88.519a7.522,7.522,0,0,0,7.522,7.522ZM46.17,31.795H222.658v73.475H46.17Z" transform="translate(-23815.775 -7582.168)" fill="#0d1b3a"/>
    <path id="Path_90902" data-name="Path 90902" d="M106.789,70.094a67.289,67.289,0,1,0,67.289,67.289,67.289,67.289,0,0,0-67.289-67.289Zm0,119.529a52.244,52.244,0,1,1,52.244-52.243,52.244,52.244,0,0,1-52.244,52.243Z" transform="translate(-23788.15 -7406.212)" fill="#e36410"/>
    <path id="Path_90903" data-name="Path 90903" d="M75.324,77.816C72.465,80.752,47.4,107.166,47.4,129.355a33.313,33.313,0,0,0,66.627,0c0-22.189-25.065-48.6-27.94-51.539A7.737,7.737,0,0,0,75.324,77.816Zm5.395,69.808A18.29,18.29,0,0,1,62.45,129.355c0-10.746,10.553-25.791,18.269-35.011,7.712,9.238,18.269,24.265,18.269,35.011a18.29,18.29,0,0,1-18.273,18.269Z" transform="translate(-23762.076 -7387.932)" fill="#e36410"/>
  </g>
</svg>
