<svg xmlns="http://www.w3.org/2000/svg" width="512" height="512" viewBox="0 0 512 512">
  <g id="ic_redemption" transform="translate(22078 7012)">
    <rect id="Rectangle_3847" data-name="Rectangle 3847" width="512" height="512" transform="translate(-22078 -7012)" fill="none"/>
    <g id="Group_18904" data-name="Group 18904" transform="translate(0 -13)">
      <g id="Path_59288" data-name="Path 59288" transform="translate(-22078 -6933)" fill="none">
        <path d="M71.111,0H440.888C480.162,0,512,31.452,512,70.25V309.1c0,38.8-31.837,70.25-71.111,70.25H71.111C31.837,379.353,0,347.9,0,309.1V70.25C0,31.452,31.837,0,71.111,0Z" stroke="none"/>
        <path d="M 71.111083984375 15.99993896484375 C 40.72274780273438 15.99993896484375 16 40.33660888671875 16 70.25045776367188 L 16 309.1021118164063 C 16 339.015869140625 40.72274780273438 363.3525390625 71.111083984375 363.3525390625 L 440.8883972167969 363.3525390625 C 471.2767333984375 363.3525390625 495.9994812011719 339.015869140625 495.9994812011719 309.1021118164063 L 495.9994812011719 70.25045776367188 C 495.9994812011719 40.33660888671875 471.2767333984375 15.99993896484375 440.8883972167969 15.99993896484375 L 71.111083984375 15.99993896484375 M 71.111083984375 -6.103515625e-05 L 440.8883972167969 -6.103515625e-05 C 480.1619873046875 -6.103515625e-05 511.9994812011719 31.45220947265625 511.9994812011719 70.25045776367188 L 511.9994812011719 309.1021118164063 C 511.9994812011719 347.9003601074219 480.1619873046875 379.3525390625 440.8883972167969 379.3525390625 L 71.111083984375 379.3525390625 C 31.83749389648438 379.3525390625 0 347.9003601074219 0 309.1021118164063 L 0 70.25045776367188 C 0 31.45220947265625 31.83749389648438 -6.103515625e-05 71.111083984375 -6.103515625e-05 Z" stroke="none" fill="#0d1b3a"/>
      </g>
      <g id="Group_18903" data-name="Group 18903" transform="translate(-22078 -6925.958)">
        <path id="Path_59310" data-name="Path 59310" d="M-15493.758-8209.071h493.261" transform="translate(15503.965 8393.78)" fill="none" stroke="#0d1b3a" stroke-linecap="round" stroke-width="16"/>
        <path id="Path_59311" data-name="Path 59311" d="M0,0,360.77.348" transform="translate(328.581 363.999) rotate(-90)" fill="none" stroke="#0d1b3a" stroke-linecap="round" stroke-width="16"/>
        <path id="Path_59313" data-name="Path 59313" d="M179.786,193.788S36.545,101.313,7.47,54.234,42.145-9.853,63.478,5.484s26.1,123.2,26.1,123.2" transform="translate(221.96 69.682) rotate(-8)" fill="none" stroke="#ec691f" stroke-linecap="round" stroke-width="16"/>
        <path id="Path_59314" data-name="Path 59314" d="M179.783,0S36.542,92.472,7.466,139.542,42.151,203.634,63.48,188.3,89.579,65.1,89.579,65.1" transform="translate(408.726 261.579) rotate(-172)" fill="none" stroke="#ec691f" stroke-linecap="round" stroke-width="16"/>
        <path id="Path_59316" data-name="Path 59316" d="M13.182,80.609l-.019.056-.008-.015a29.454,29.454,0,0,0,1.6-6.35h0a21.99,21.99,0,0,0,11.895-1.992A21.539,21.539,0,0,0,38.78,54.815c.546-6.443-2.047-13.021-4.931-19.17a2.967,2.967,0,0,1,.123-2.938,3.6,3.6,0,0,1,2.986-1.615,2.946,2.946,0,0,1,1.55.426A3.147,3.147,0,0,1,39.7,32.9c3.109,6.629,6.2,14.482,5.519,22.458A28.028,28.028,0,0,1,29.448,78.13a28.505,28.505,0,0,1-12.283,2.76A28.175,28.175,0,0,1,13.182,80.609ZM0,22.967A183.888,183.888,0,0,1,14.694,1.234a3.231,3.231,0,0,1,5.08,0c.851,1.083,1.717,2.222,2.646,3.484l2.072,2.913L26.319,10.2c1.078,1.562,2.131,3.128,3.128,4.657a2.942,2.942,0,0,1,.19,3.121,3.6,3.6,0,0,1-3.076,1.851,2.971,2.971,0,0,1-2.526-1.442c-2.215-3.394-4.5-6.7-6.8-9.813A176.141,176.141,0,0,0,3.609,29.751C1.562,25.889.144,23.236,0,22.967Z" transform="translate(150.756 222.44)" fill="#e36410" stroke="#e36410" stroke-width="4"/>
        <path id="Path_59315" data-name="Path 59315" d="M34.318,125.7A43.434,43.434,0,0,1,11.4,112.683c-.446-.5-1.3-1.48-1.988-2.338-.984-1.225-2.4-3.319-2.963-4.166-.4-.636-.774-1.276-1.121-1.9a3.23,3.23,0,1,1,5.655-3.123A36.954,36.954,0,0,0,80.257,83.571c0-8.943-3.945-20.99-11.727-35.8-.042-.073-.081-.143-.115-.216-8.907-16.905-20.488-32.905-25.055-39A327.345,327.345,0,0,0,21.643,41.462C11.57,59.183,6.462,73.349,6.462,83.571c0,.813.031,1.663.09,2.529a3.013,3.013,0,0,1-.765,2.33,3.414,3.414,0,0,1-2.5,1.026A3.033,3.033,0,0,1,.107,86.543C.036,85.531,0,84.53,0,83.571,0,53.195,39.16,3.333,40.825,1.225A3.716,3.716,0,0,1,43.36,0a3.716,3.716,0,0,1,2.534,1.225c.4.5,4.009,5.091,8.9,12.047A301.97,301.97,0,0,1,71.31,39.314l.021.135,3.692,6.788c7.76,15.147,11.7,27.71,11.7,37.334a43.122,43.122,0,0,1-.6,7.127h.011l-.014.018-1.553,6.266,0,.027-.012,0a42.9,42.9,0,0,1-6.143,11.884,43.5,43.5,0,0,1-44.1,16.81Z" transform="translate(79.381 206.042)" fill="#0d1b3a" stroke="#0d1b3a" stroke-width="4"/>
      </g>
    </g>
  </g>
</svg>
