<svg xmlns="http://www.w3.org/2000/svg" width="426.664" height="512" viewBox="0 0 426.664 512">
  <g id="ic_rfid_fuel" transform="translate(-4679 -2968.998)">
    <g id="Group_10320" data-name="Group 10320" transform="translate(4679 3182.333)">
      <path id="Path_59227" data-name="Path 59227" d="M375.331,308.665h-320A53.394,53.394,0,0,1,2,255.332v-192A53.394,53.394,0,0,1,55.333,10h320a53.394,53.394,0,0,1,53.333,53.333v192A53.394,53.394,0,0,1,375.331,308.665Zm-320-277.332a32.039,32.039,0,0,0-32,32v192a32.039,32.039,0,0,0,32,32h320a32.039,32.039,0,0,0,32-32v-192a32.039,32.039,0,0,0-32-32Z" transform="translate(-2 -10)" fill="#0d1b3a"/>
    </g>
    <g id="Group_10321" data-name="Group 10321" transform="translate(4743.001 3246.333)">
      <path id="Path_59228" data-name="Path 59228" d="M79.666,119.666H37a32.039,32.039,0,0,1-32-32V45A32.039,32.039,0,0,1,37,13H79.666a32.039,32.039,0,0,1,32,32V87.666A32.039,32.039,0,0,1,79.666,119.666ZM37,34.333A10.684,10.684,0,0,0,26.333,45V87.666A10.684,10.684,0,0,0,37,98.333H79.666A10.684,10.684,0,0,0,90.333,87.666V45A10.684,10.684,0,0,0,79.666,34.333Z" transform="translate(-5 -13)" fill="#0d1b3a"/>
    </g>
    <g id="Group_10322" data-name="Group 10322" transform="translate(4743.001 3395.667)">
      <path id="Path_59229" data-name="Path 59229" d="M293,41.333H15.667a10.667,10.667,0,0,1,0-21.333H293a10.667,10.667,0,1,1,0,21.333Z" transform="translate(-5 -20)" fill="#e36410"/>
    </g>
    <path id="Path_59236" data-name="Path 59236" d="M20915.453,9210.554a10.671,10.671,0,0,1,0-15.083l18.215-18.221v-50.264a42.672,42.672,0,1,1,21.336,0v54.681a10.767,10.767,0,0,1-3.115,7.558l-21.336,21.332a10.7,10.7,0,0,1-15.1,0Zm7.547-124.888a21.333,21.333,0,1,0,21.33-21.335A21.35,21.35,0,0,0,20923,9085.666ZM20784.334,9203v-76.013a42.672,42.672,0,1,1,21.336,0V9203a10.668,10.668,0,1,1-21.336,0Zm-10.664-117.332a21.334,21.334,0,1,0,21.326-21.335A21.349,21.349,0,0,0,20773.67,9085.666Zm-114.221,124.888-21.33-21.332a10.742,10.742,0,0,1-3.115-7.558v-54.679a42.664,42.664,0,1,1,21.336,0v50.267l18.215,18.221a10.673,10.673,0,0,1-15.105,15.083Zm-35.119-124.888a21.336,21.336,0,1,0,21.336-21.335A21.357,21.357,0,0,0,20624.33,9085.666Z" transform="translate(-15903.143 -6074)" fill="#0d1b3a"/>
  </g>
</svg>
