<svg xmlns="http://www.w3.org/2000/svg" width="64.998" height="58.173" viewBox="0 0 64.998 58.173">
  <g id="ic_recharge" transform="translate(-5188 -547.669)">
    <g id="Path_59290" data-name="Path 59290" transform="translate(5188.273 587.677) rotate(-60)" fill="#fff">
      <path d="M 39.78136825561523 33.09650039672852 L 6.416347980499268 33.09650039672852 C 3.15405797958374 33.09650039672852 0.4999978840351105 30.52980995178223 0.4999978840351105 27.37492942810059 L 0.4999978840351105 6.221580028533936 C 0.4999978840351105 3.06669020652771 3.15405797958374 0.5000001788139343 6.416347980499268 0.5000001788139343 L 39.78136825561523 0.5000001788139343 C 43.04365921020508 0.5000001788139343 45.69771957397461 3.06669020652771 45.69771957397461 6.221580028533936 L 45.69771957397461 27.37492942810059 C 45.69771957397461 30.52980995178223 43.04365921020508 33.09650039672852 39.78136825561523 33.09650039672852 Z" stroke="none"/>
      <path d="M 6.416347503662109 1 C 3.429756164550781 1 0.9999961853027344 3.342390060424805 0.9999961853027344 6.22157096862793 L 0.9999961853027344 27.37493133544922 C 0.9999961853027344 30.25411033630371 3.429756164550781 32.59650039672852 6.416347503662109 32.59650039672852 L 39.78136825561523 32.59650039672852 C 42.76795959472656 32.59650039672852 45.19771957397461 30.25411033630371 45.19771957397461 27.37493133544922 L 45.19771957397461 6.22157096862793 C 45.19771957397461 3.342390060424805 42.76795959472656 1 39.78136825561523 1 L 6.416347503662109 1 M 6.416347503662109 0 L 39.78136825561523 0 C 43.32501983642578 0 46.19771957397461 2.785490036010742 46.19771957397461 6.22157096862793 L 46.19771957397461 27.37493133544922 C 46.19771957397461 30.81101036071777 43.32501983642578 33.59650039672852 39.78136825561523 33.59650039672852 L 6.416347503662109 33.59650039672852 C 2.872699737548828 33.59650039672852 -3.814697265625e-06 30.81101036071777 -3.814697265625e-06 27.37493133544922 L -3.814697265625e-06 6.22157096862793 C -3.814697265625e-06 2.785490036010742 2.872699737548828 0 6.416347503662109 0 Z" stroke="none" fill="#0d1b3a"/>
    </g>
    <g id="Path_59289" data-name="Path 59289" transform="matrix(0.839, -0.545, 0.545, 0.839, 5189.167, 573.544)" fill="#fff">
      <path d="M 39.81960296630859 32.00127792358398 L 6.422523021697998 32.00127792358398 C 3.156833171844482 32.00127792358398 0.5000032186508179 29.52556610107422 0.5000032186508179 26.48251724243164 L 0.5000032186508179 6.018756866455078 C 0.5000032186508179 2.975707054138184 3.156833171844482 0.4999970495700836 6.422523021697998 0.4999970495700836 L 39.81960296630859 0.4999970495700836 C 43.08529281616211 0.4999970495700836 45.74212265014648 2.975707054138184 45.74212265014648 6.018756866455078 L 45.74212265014648 26.48251724243164 C 45.74212265014648 29.52556610107422 43.08529281616211 32.00127792358398 39.81960296630859 32.00127792358398 Z" stroke="none"/>
      <path d="M 6.422512054443359 0.9999961853027344 C 3.432533264160156 0.9999961853027344 1.000003814697266 3.251407623291016 1.000003814697266 6.018756866455078 L 1.000003814697266 26.48251724243164 C 1.000003814697266 29.2498664855957 3.432533264160156 31.50127792358398 6.422512054443359 31.50127792358398 L 39.81960296630859 31.50127792358398 C 42.80959320068359 31.50127792358398 45.24212265014648 29.2498664855957 45.24212265014648 26.48251724243164 L 45.24212265014648 6.018756866455078 C 45.24212265014648 3.251407623291016 42.80959320068359 0.9999961853027344 39.81960296630859 0.9999961853027344 L 6.422512054443359 0.9999961853027344 M 6.422512054443359 -3.814697265625e-06 L 39.81960296630859 -3.814697265625e-06 C 43.36666488647461 -3.814697265625e-06 46.24212265014648 2.694686889648438 46.24212265014648 6.018756866455078 L 46.24212265014648 26.48251724243164 C 46.24212265014648 29.80658721923828 43.36666488647461 32.50127792358398 39.81960296630859 32.50127792358398 L 6.422512054443359 32.50127792358398 C 2.875453948974609 32.50127792358398 3.814697265625e-06 29.80658721923828 3.814697265625e-06 26.48251724243164 L 3.814697265625e-06 6.018756866455078 C 3.814697265625e-06 2.694686889648438 2.875453948974609 -3.814697265625e-06 6.422512054443359 -3.814697265625e-06 Z" stroke="none" fill="#ec691f"/>
    </g>
    <g id="Path_59288" data-name="Path 59288" transform="translate(5188 561.386)" fill="#fff">
      <path d="M 51.04141616821289 43.95542144775391 L 8.232487678527832 43.95542144775391 C 3.968777656555176 43.95542144775391 0.4999976456165314 40.48664093017578 0.4999976456165314 36.22294235229492 L 0.4999976456165314 8.232490539550781 C 0.4999976456165314 3.968780755996704 3.968777656555176 0.5000007152557373 8.232487678527832 0.5000007152557373 L 51.04141616821289 0.5000007152557373 C 55.30511856079102 0.5000007152557373 58.77389907836914 3.968780755996704 58.77389907836914 8.232490539550781 L 58.77389907836914 36.22294235229492 C 58.77389907836914 40.48664093017578 55.30511856079102 43.95542144775391 51.04141616821289 43.95542144775391 Z" stroke="none"/>
      <path d="M 8.232486724853516 1 C 4.244476318359375 1 0.9999961853027344 4.244480133056641 0.9999961853027344 8.232490539550781 L 0.9999961853027344 36.22293853759766 C 0.9999961853027344 40.21094131469727 4.244476318359375 43.45542144775391 8.232486724853516 43.45542144775391 L 51.04140853881836 43.45542144775391 C 55.0294189453125 43.45542144775391 58.27389907836914 40.21094131469727 58.27389907836914 36.22293853759766 L 58.27389907836914 8.232490539550781 C 58.27389907836914 4.244480133056641 55.0294189453125 1 51.04140853881836 1 L 8.232486724853516 1 M 8.232486724853516 0 L 51.04140853881836 0 C 55.58808898925781 0 59.27389907836914 3.685810089111328 59.27389907836914 8.232490539550781 L 59.27389907836914 36.22293853759766 C 59.27389907836914 40.76961135864258 55.58808898925781 44.45542144775391 51.04140853881836 44.45542144775391 L 8.232486724853516 44.45542144775391 C 3.685806274414063 44.45542144775391 -3.814697265625e-06 40.76961135864258 -3.814697265625e-06 36.22293853759766 L -3.814697265625e-06 8.232490539550781 C -3.814697265625e-06 3.685810089111328 3.685806274414063 0 8.232486724853516 0 Z" stroke="none" fill="#0d1b3a"/>
    </g>
    <g id="Path_59291" data-name="Path 59291" transform="translate(5238.303 578.909)" fill="#fff">
      <path d="M 12.65374279022217 10.52099990844727 L 2.040922403335571 10.52099990844727 C 1.191252470016479 10.52099990844727 0.5000025033950806 9.829739570617676 0.5000025033950806 8.980069160461426 L 0.5000025033950806 2.040929555892944 C 0.5000025033950806 1.191259503364563 1.191252470016479 0.499999463558197 2.040922403335571 0.499999463558197 L 12.65374279022217 0.499999463558197 C 13.5034122467041 0.499999463558197 14.19466209411621 1.191259503364563 14.19466209411621 2.040929555892944 L 14.19466209411621 8.980069160461426 C 14.19466209411621 9.829739570617676 13.5034122467041 10.52099990844727 12.65374279022217 10.52099990844727 Z" stroke="none"/>
      <path d="M 2.040922164916992 0.9999990463256836 C 1.466952323913574 0.9999990463256836 1.000002861022949 1.466959953308105 1.000002861022949 2.040929794311523 L 1.000002861022949 8.980069160461426 C 1.000002861022949 9.554039001464844 1.466952323913574 10.02099990844727 2.040922164916992 10.02099990844727 L 12.65374279022217 10.02099990844727 C 13.22771263122559 10.02099990844727 13.69466209411621 9.554039001464844 13.69466209411621 8.980069160461426 L 13.69466209411621 2.040929794311523 C 13.69466209411621 1.466959953308105 13.22771263122559 0.9999990463256836 12.65374279022217 0.9999990463256836 L 2.040922164916992 0.9999990463256836 M 2.040922164916992 -9.5367431640625e-07 L 12.65374279022217 -9.5367431640625e-07 C 13.78091239929199 -9.5367431640625e-07 14.69466209411621 0.9137496948242188 14.69466209411621 2.040929794311523 L 14.69466209411621 8.980069160461426 C 14.69466209411621 10.10724925994873 13.78091239929199 11.02099990844727 12.65374279022217 11.02099990844727 L 2.040922164916992 11.02099990844727 C 0.913752555847168 11.02099990844727 2.86102294921875e-06 10.10724925994873 2.86102294921875e-06 8.980069160461426 L 2.86102294921875e-06 2.040929794311523 C 2.86102294921875e-06 0.9137496948242188 0.913752555847168 -9.5367431640625e-07 2.040922164916992 -9.5367431640625e-07 Z" stroke="none" fill="#0d1b3a"/>
    </g>
  </g>
</svg>
