<svg xmlns="http://www.w3.org/2000/svg" width="59.274" height="44.455" viewBox="0 0 59.274 44.455">
  <g id="ic_rfid" transform="translate(-5104 -787.717)">
    <g id="Path_59288" data-name="Path 59288" transform="translate(5104 787.717)" fill="#fff">
      <path d="M 51.04141616821289 43.95542144775391 L 8.232487678527832 43.95542144775391 C 3.968777656555176 43.95542144775391 0.4999976456165314 40.48664093017578 0.4999976456165314 36.22294235229492 L 0.4999976456165314 8.232490539550781 C 0.4999976456165314 3.968780755996704 3.968777656555176 0.5000007152557373 8.232487678527832 0.5000007152557373 L 51.04141616821289 0.5000007152557373 C 55.30511856079102 0.5000007152557373 58.77389907836914 3.968780755996704 58.77389907836914 8.232490539550781 L 58.77389907836914 36.22294235229492 C 58.77389907836914 40.48664093017578 55.30511856079102 43.95542144775391 51.04141616821289 43.95542144775391 Z" stroke="none"/>
      <path d="M 8.232486724853516 1 C 4.244476318359375 1 0.9999961853027344 4.244480133056641 0.9999961853027344 8.232490539550781 L 0.9999961853027344 36.22293853759766 C 0.9999961853027344 40.21094131469727 4.244476318359375 43.45542144775391 8.232486724853516 43.45542144775391 L 51.04140853881836 43.45542144775391 C 55.0294189453125 43.45542144775391 58.27389907836914 40.21094131469727 58.27389907836914 36.22293853759766 L 58.27389907836914 8.232490539550781 C 58.27389907836914 4.244480133056641 55.0294189453125 1 51.04140853881836 1 L 8.232486724853516 1 M 8.232486724853516 0 L 51.04140853881836 0 C 55.58808898925781 0 59.27389907836914 3.685810089111328 59.27389907836914 8.232490539550781 L 59.27389907836914 36.22293853759766 C 59.27389907836914 40.76961135864258 55.58808898925781 44.45542144775391 51.04140853881836 44.45542144775391 L 8.232486724853516 44.45542144775391 C 3.685806274414063 44.45542144775391 -3.814697265625e-06 40.76961135864258 -3.814697265625e-06 36.22293853759766 L -3.814697265625e-06 8.232490539550781 C -3.814697265625e-06 3.685810089111328 3.685806274414063 0 8.232486724853516 0 Z" stroke="none" fill="#0d1b3a"/>
    </g>
    <g id="Path_59300" data-name="Path 59300" transform="translate(5111 799.239)" fill="#fff">
      <path d="M 12.65374279022217 10.52099990844727 L 2.040922403335571 10.52099990844727 C 1.191252470016479 10.52099990844727 0.5000025033950806 9.829739570617676 0.5000025033950806 8.980069160461426 L 0.5000025033950806 2.040929555892944 C 0.5000025033950806 1.191259503364563 1.191252470016479 0.499999463558197 2.040922403335571 0.499999463558197 L 12.65374279022217 0.499999463558197 C 13.5034122467041 0.499999463558197 14.19466209411621 1.191259503364563 14.19466209411621 2.040929555892944 L 14.19466209411621 8.980069160461426 C 14.19466209411621 9.829739570617676 13.5034122467041 10.52099990844727 12.65374279022217 10.52099990844727 Z" stroke="none"/>
      <path d="M 2.040922164916992 0.9999990463256836 C 1.466952323913574 0.9999990463256836 1.000002861022949 1.466959953308105 1.000002861022949 2.040929794311523 L 1.000002861022949 8.980069160461426 C 1.000002861022949 9.554039001464844 1.466952323913574 10.02099990844727 2.040922164916992 10.02099990844727 L 12.65374279022217 10.02099990844727 C 13.22771263122559 10.02099990844727 13.69466209411621 9.554039001464844 13.69466209411621 8.980069160461426 L 13.69466209411621 2.040929794311523 C 13.69466209411621 1.466959953308105 13.22771263122559 0.9999990463256836 12.65374279022217 0.9999990463256836 L 2.040922164916992 0.9999990463256836 M 2.040922164916992 -9.5367431640625e-07 L 12.65374279022217 -9.5367431640625e-07 C 13.78091239929199 -9.5367431640625e-07 14.69466209411621 0.9137496948242188 14.69466209411621 2.040929794311523 L 14.69466209411621 8.980069160461426 C 14.69466209411621 10.10724925994873 13.78091239929199 11.02099990844727 12.65374279022217 11.02099990844727 L 2.040922164916992 11.02099990844727 C 0.913752555847168 11.02099990844727 2.86102294921875e-06 10.10724925994873 2.86102294921875e-06 8.980069160461426 L 2.86102294921875e-06 2.040929794311523 C 2.86102294921875e-06 0.9137496948242188 0.913752555847168 -9.5367431640625e-07 2.040922164916992 -9.5367431640625e-07 Z" stroke="none" fill="#ec691f"/>
    </g>
    <path id="Path_59301" data-name="Path 59301" d="M-15493.758-8209.071h45.315" transform="translate(20604.258 9028)" fill="none" stroke="#0d1b3a" stroke-linecap="round" stroke-width="1"/>
  </g>
</svg>
