<svg xmlns="http://www.w3.org/2000/svg" width="512" height="509.374" viewBox="0 0 512 509.374">
  <g id="ic_requirement" transform="translate(22629 7617)">
    <path id="Path_90887" data-name="Path 90887" d="M343.69,45.72H331.808A43.085,43.085,0,0,0,302.565,34.3H289.017a59.754,59.754,0,0,0-106.85,0H168.62a43.085,43.085,0,0,0-29.248,11.421H127.5a64.723,64.723,0,0,0-64.65,64.65v12.944a70.35,70.35,0,0,0,0,139.9V368.027a64.729,64.729,0,0,0,64.65,64.661H248.468a70.349,70.349,0,1,0,140.281,7.646,70.022,70.022,0,0,0-3.739-22.58,64.676,64.676,0,0,0,23.329-49.724V156.98a7.5,7.5,0,0,0-15,0V368.03a49.655,49.655,0,0,1-14.994,35.533A70.316,70.316,0,0,0,251.8,417.688H127.5a49.712,49.712,0,0,1-49.65-49.661V263.216a70.349,70.349,0,0,0,0-139.9V110.376a49.706,49.706,0,0,1,49.65-49.65h1.272a43.254,43.254,0,0,0,39.845,60.088H302.566a43.255,43.255,0,0,0,39.842-60.093h1.283a49.711,49.711,0,0,1,49.65,49.66V127a7.5,7.5,0,0,0,15,0V110.38A64.73,64.73,0,0,0,343.69,45.72ZM318.4,384.981a55.352,55.352,0,1,1-55.352,55.352A55.415,55.415,0,0,1,318.4,384.981ZM125.705,193.268a55.352,55.352,0,1,1-55.353-55.352A55.416,55.416,0,0,1,125.705,193.268Zm176.86-87.454H168.62a28.255,28.255,0,1,1,0-56.51h18.4a7.5,7.5,0,0,0,6.971-4.733,44.747,44.747,0,0,1,83.195,0,7.5,7.5,0,0,0,6.971,4.733h18.4a28.255,28.255,0,0,1,0,56.51Z" transform="translate(-22629 -7618.313)" fill="#0d1b3a"/>
    <path id="Path_90888" data-name="Path 90888" d="M235.592,32.185A28.878,28.878,0,1,0,264.47,61.064a28.911,28.911,0,0,0-28.878-28.879Zm0,42.757A13.878,13.878,0,1,1,249.47,61.064,13.894,13.894,0,0,1,235.592,74.942Z" transform="translate(-22629 -7618.313)" fill="#e36410"/>
    <path id="Path_90889" data-name="Path 90889" d="M50.809,160.861a7.5,7.5,0,0,0,7.5,7.5H64.8V226.31a7.5,7.5,0,0,0,15,0V160.861a7.5,7.5,0,0,0-7.5-7.5H58.309A7.5,7.5,0,0,0,50.809,160.861Z" transform="translate(-22629 -7618.313)" fill="#e36410"/>
    <path id="Path_90890" data-name="Path 90890" d="M216.561,304.408a37.194,37.194,0,0,0,.517-4.225,24.249,24.249,0,0,0-48.039-4.692,7.5,7.5,0,1,0,14.719,2.891,9.249,9.249,0,0,1,18.311,1.393l-.2,1.58a36.224,36.224,0,0,1-5.716,11.268c-10.366,14.811-16.552,22.91-19.875,27.262-4.117,5.391-6,7.852-4.719,12a7.8,7.8,0,0,0,5.07,5.138c1,.333,1.961.654,14.68.654,4.995,0,11.8-.049,21.139-.167a7.5,7.5,0,0,0-.189-15c-6.55.083-13.5.137-19.273.148,3.629-4.854,8.664-11.735,15.456-21.44,4.189-5.984,6.921-11.642,8.121-16.815Z" transform="translate(-22629 -7618.313)" fill="#0d1b3a"/>
    <path id="Path_90891" data-name="Path 90891" d="M149.582,361.525a7.5,7.5,0,0,0,1.244,10.534,69.647,69.647,0,0,0,43.545,15.091,70.314,70.314,0,1,0-63.911-40.919,7.5,7.5,0,0,0,13.621-6.283,55.373,55.373,0,1,1,16.034,20.332,7.5,7.5,0,0,0-10.533,1.245Z" transform="translate(-22629 -7618.313)" fill="#0d1b3a"/>
    <path id="Path_90892" data-name="Path 90892" d="M318.78,467.281a9.275,9.275,0,0,1-9.157-7.947,9.371,9.371,0,0,1-.09-1.3,7.5,7.5,0,0,0-15,0,24.678,24.678,0,0,0,.233,3.373A24.247,24.247,0,1,0,336.3,441.288a24.243,24.243,0,1,0-41.311-21.438,7.5,7.5,0,0,0,14.719,2.891,9.248,9.248,0,1,1,9.073,11.048,7.5,7.5,0,0,0,0,15,9.246,9.246,0,1,1,0,18.492Z" transform="translate(-22629 -7618.313)" fill="#0d1b3a"/>
    <path id="Path_90893" data-name="Path 90893" d="M300.466,174.312a7.5,7.5,0,0,0-7.5-7.5H176.4a7.5,7.5,0,0,0,0,15H292.966A7.5,7.5,0,0,0,300.466,174.312Z" transform="translate(-22629 -7618.313)" fill="#0d1b3a"/>
    <path id="Path_90894" data-name="Path 90894" d="M254.182,219.724a7.5,7.5,0,0,0,0-15H176.4a7.5,7.5,0,0,0,0,15Z" transform="translate(-22629 -7618.313)" fill="#0d1b3a"/>
    <path id="Path_90895" data-name="Path 90895" d="M381.022,297.845a7.5,7.5,0,0,0-7.5-7.5H279.964a7.5,7.5,0,0,0,0,15h93.558a7.5,7.5,0,0,0,7.5-7.5Z" transform="translate(-22629 -7618.313)" fill="#0d1b3a"/>
    <path id="Path_90896" data-name="Path 90896" d="M279.964,328.257a7.5,7.5,0,0,0,0,15h54.774a7.5,7.5,0,0,0,0-15Z" transform="translate(-22629 -7618.313)" fill="#0d1b3a"/>
    <path id="Path_90897" data-name="Path 90897" d="M504.5,413.878H416.727a7.5,7.5,0,0,0,0,15H504.5a7.5,7.5,0,0,0,0-15Z" transform="translate(-22629 -7618.313)" fill="#0d1b3a"/>
    <path id="Path_90898" data-name="Path 90898" d="M465.716,451.789h-48.99a7.5,7.5,0,0,0,0,15h48.99a7.5,7.5,0,0,0,0-15Z" transform="translate(-22629 -7618.313)" fill="#0d1b3a"/>
  </g>
</svg>
