<svg xmlns="http://www.w3.org/2000/svg" width="345.605" height="346.405" viewBox="0 0 345.605 346.405">
  <g id="ic_support" transform="translate(22262 8342)">
    <g id="Group_18890" data-name="Group 18890" transform="translate(-22261.994 -8286.128)">
      <g id="Group_18889" data-name="Group 18889" transform="translate(0)">
        <path id="Path_90882" data-name="Path 90882" d="M281.3,325.836l-12.934-38.809a39.111,39.111,0,0,0-30.109-26.109l-37.339-6.794V251.23a56.23,56.23,0,0,0,16.655-14.789h11.28a16.782,16.782,0,0,0,16.762-16.762V152.633a72.633,72.633,0,1,0-145.266,0v39.11a22.385,22.385,0,0,0,17.817,21.885,55.976,55.976,0,0,0,26.88,37.6v2.894L107.7,260.918a39.1,39.1,0,0,0-30.1,26.109l-2.235,6.71-19.03-19.03a5.6,5.6,0,0,1,0-7.906L78.4,244.738,36.975,203.314,12.034,228.256a39.11,39.11,0,0,0,0,55.307l75.511,75.511a39.091,39.091,0,0,0,55.134.168l27.215-24.936-8.487-8.47Zm-46.86-106.156a5.593,5.593,0,0,1-5.587,5.587h-4.7a55.5,55.5,0,0,0,3.643-11.638,22.132,22.132,0,0,0,6.643-2.643Zm-5.587-18.315V182.122a11.077,11.077,0,0,1,0,19.242Zm-111.743,0a11.077,11.077,0,0,1,0-19.242Zm0-37.557v6.381a22.16,22.16,0,0,0-5.587,2.313V152.633a61.459,61.459,0,1,1,122.918,0V172.5a21.958,21.958,0,0,0-5.587-2.313v-6.381h-5.587a61.472,61.472,0,0,1-43.742-18.119l-6.543-6.543-6.543,6.543a61.472,61.472,0,0,1-43.742,18.119Zm11.174,39.11V174.77a72.438,72.438,0,0,0,44.7-19.857,72.407,72.407,0,0,0,44.7,19.857v28.148a44.361,44.361,0,0,1-6.045,22.349H172.978v11.174h29.467a44.626,44.626,0,0,1-74.164-33.523Zm61.459,53.3v.263l-16.762,16.762-16.762-16.762v-.263a55.826,55.826,0,0,0,33.523,0ZM88.187,290.558A27.945,27.945,0,0,1,109.692,271.9l39.054-7.1,24.232,24.232L197.2,264.813l39.049,7.1a27.936,27.936,0,0,1,21.505,18.656l8.04,24.1H150.232L128.47,292.9l-24.181,21.874a5.706,5.706,0,0,1-7.9,0l-12.2-12.2ZM36.969,219.115l25.623,25.623-6.068,6.068L30.9,225.183Zm97.971,132.07a27.942,27.942,0,0,1-39.507-.011L19.923,275.668a27.942,27.942,0,0,1,0-39.507L23,233.089l25.623,25.623-.2.2a16.79,16.79,0,0,0,0,23.706l40.066,40.066a16.674,16.674,0,0,0,11.856,4.911,16.451,16.451,0,0,0,11.649-4.716l.419-.374,25.74,25.74Zm11.454-10.5L120.71,315l7.381-6.671,25.64,25.64Z" transform="translate(-0.58 -80)" fill="#0d1b3a"/>
      </g>
    </g>
    <g id="Group_18892" data-name="Group 18892" transform="translate(-22028.139 -8342)">
      <g id="Group_18891" data-name="Group 18891">
        <path id="Path_90883" data-name="Path 90883" d="M430.41,0H352.19a16.782,16.782,0,0,0-16.762,16.762v44.7A16.782,16.782,0,0,0,352.19,78.22h14.923l-5.777,33.7,53.916-33.7H430.41a16.782,16.782,0,0,0,16.761-16.762v-44.7A16.782,16.782,0,0,0,430.41,0ZM436,61.459a5.6,5.6,0,0,1-5.587,5.587H412.045L376.561,89.222l3.8-22.175H352.19a5.6,5.6,0,0,1-5.587-5.587v-44.7a5.6,5.6,0,0,1,5.587-5.587h78.22A5.6,5.6,0,0,1,436,16.762Z" transform="translate(-335.428)" fill="#0d1b3a"/>
      </g>
    </g>
    <path id="Path_90886" data-name="Path 90886" d="M55.871,33.523V22.349H67.045V33.523ZM0,33.523V22.349H44.7V33.523ZM0,11.174V0H67.046V11.174Z" transform="translate(-22005.789 -8319.651)" fill="#0d1b3a"/>
    <g id="Group_18900" data-name="Group 18900" transform="translate(-22262 -8325.238)">
      <g id="Group_18899" data-name="Group 18899">
        <path id="Path_90884" data-name="Path 90884" d="M172.975,24A156.341,156.341,0,0,0,20.742,144.934l-10.588-17.65L.572,133.034l19.639,32.724,32.724-19.639-5.749-9.582-15.141,9.085A145.3,145.3,0,0,1,216.019,41.655l3.308-10.671A156.339,156.339,0,0,0,172.975,24Z" transform="translate(-0.572 -24)" fill="#e36410"/>
      </g>
    </g>
    <g id="Group_18902" data-name="Group 18902" transform="translate(-21976.73 -8237.927)">
      <g id="Group_18901" data-name="Group 18901">
        <path id="Path_90885" data-name="Path 90885" d="M466.657,168.655l-32.724-19.639L414.3,181.746l9.582,5.749,9.778-16.3a145.39,145.39,0,0,1-24.623,138.411l8.677,7.04a156.461,156.461,0,0,0,26.774-148.261l16.421,9.85Z" transform="translate(-409.036 -149.016)" fill="#e36410"/>
      </g>
    </g>
  </g>
</svg>
