<svg xmlns="http://www.w3.org/2000/svg" width="455.16" height="508.735" viewBox="0 0 455.16 508.735">
  <g id="ic_transaction" transform="translate(-5824.219 -2668)">
    <g id="Group_10317" data-name="Group 10317" transform="translate(5824.22 2668)">
      <path id="Path_59223" data-name="Path 59223" d="M251.051,427.926l-71.836,71.836V122.6a10.6,10.6,0,1,0-21.2,0V499.762L86.182,427.926a10.6,10.6,0,0,0-14.987,14.987l89.928,89.928a10.6,10.6,0,0,0,14.987,0l89.928-89.928a10.6,10.6,0,0,0-14.987-14.987Zm0,0" transform="translate(-68.22 -27.211)" fill="#0d1b3a"/>
      <path id="Path_59225" data-name="Path 59225" d="M146.6,111.592a10.6,10.6,0,0,0,10.6-10.6V58.6a10.6,10.6,0,0,0-21.2,0v42.395A10.6,10.6,0,0,0,146.6,111.592Zm0,0" transform="translate(-46.203 -48)" fill="#0d1b3a"/>
    </g>
    <g id="Group_10318" data-name="Group 10318" transform="translate(6078.587 2668.004)">
      <path id="Path_59224" data-name="Path 59224" d="M458.037,141.033,368.109,51.1a10.6,10.6,0,0,0-14.987,0l-89.928,89.928a10.6,10.6,0,0,0,14.987,14.987l71.836-71.836V461.347a10.6,10.6,0,1,0,21.2,0V84.184L443.05,156.02a10.6,10.6,0,0,0,14.987-14.987Zm0,0" transform="translate(-260.219 -48.003)" fill="#e36410"/>
      <path id="Path_59226" data-name="Path 59226" d="M338.6,384A10.6,10.6,0,0,0,328,394.6v42.395a10.6,10.6,0,1,0,21.2,0V394.6A10.6,10.6,0,0,0,338.6,384Zm0,0" transform="translate(-238.202 61.139)" fill="#e36410"/>
    </g>
  </g>
</svg>
