<svg xmlns="http://www.w3.org/2000/svg" width="539.572" height="512" viewBox="0 0 539.572 512">
  <g id="ic_web_portal" transform="translate(22197.572 7012)">
    <path id="Path_90918" data-name="Path 90918" d="M510.739,412.323H32.833A30.833,30.833,0,0,1,2,381.491V34.623A30.833,30.833,0,0,1,32.833,3.79H510.739a30.833,30.833,0,0,1,30.833,30.833V381.491A30.833,30.833,0,0,1,510.739,412.323ZM32.833,19.206A15.416,15.416,0,0,0,17.416,34.623V381.491a15.416,15.416,0,0,0,15.416,15.416H510.739a15.416,15.416,0,0,0,15.416-15.416V34.623a15.416,15.416,0,0,0-15.416-15.416Z" transform="translate(-22199.572 -7015.79)" fill="#0d1b3a"/>
    <path id="Path_90919" data-name="Path 90919" d="M293.365,173.65H26.354a7.708,7.708,0,0,1-5.465-13.1A118.852,118.852,0,0,0,58.112,63.092,7.708,7.708,0,1,1,73.482,61.9a132.8,132.8,0,0,1-29.9,96.352H276.207A132.457,132.457,0,0,1,246.145,61.9a7.733,7.733,0,0,1,15.416,1.249,119.169,119.169,0,0,0,37.354,97.416,7.708,7.708,0,0,1-5.5,13.1Z" transform="translate(-22087.646 -6673.673)" fill="#0d1b3a"/>
    <path id="Path_90920" data-name="Path 90920" d="M80.071,59.206H57.178a7.708,7.708,0,0,1,0-15.416H80.071a7.708,7.708,0,0,1,0,15.416Z" transform="translate(-21881.135 -6747.463)" fill="#e36410"/>
    <path id="Path_90921" data-name="Path 90921" d="M245.27,59.206H9.708a7.708,7.708,0,0,1,0-15.416H245.27a7.708,7.708,0,0,1,0,15.416Z" transform="translate(-22199.572 -6747.463)" fill="#0d1b3a"/>
    <path id="Path_90922" data-name="Path 90922" d="M69.7,59.206H47.268a7.708,7.708,0,0,1,0-15.416H69.7a7.708,7.708,0,1,1,0,15.416Z" transform="translate(-21947.613 -6747.463)" fill="#e36410"/>
    <path id="Path_90923" data-name="Path 90923" d="M148.547,59.206h-81.4a7.708,7.708,0,1,1,0-15.416h81.4a7.708,7.708,0,0,1,0,15.416Z" transform="translate(-21814.254 -6747.463)" fill="#0d1b3a"/>
    <path id="Path_90924" data-name="Path 90924" d="M51.108,64.416h-33.4a7.708,7.708,0,1,1,0-15.416h33.4a7.708,7.708,0,1,1,0,15.416Z" transform="translate(-22145.906 -6712.514)" fill="#e36410"/>
    <g id="Group_18913" data-name="Group 18913">
      <path id="Path_90925" data-name="Path 90925" d="M140.614,247.465A119.06,119.06,0,1,1,259.675,128.4,119.06,119.06,0,0,1,140.614,247.465Zm0-222.7A103.644,103.644,0,1,0,244.259,128.4,103.644,103.644,0,0,0,140.614,24.76Z" transform="translate(-22068.4 -6978.533)" fill="#0d1b3a"/>
      <path id="Path_90926" data-name="Path 90926" d="M90.531,247.465c-34.525,0-61.542-52.346-61.488-119.107A193.3,193.3,0,0,1,45.662,46.266C57.224,22.456,73.2,9.344,90.7,9.344s33.484,13.15,45.008,37a193.144,193.144,0,0,1,16.48,82.138,193.29,193.29,0,0,1-16.619,82.084c-11.547,23.787-27.541,36.9-45.039,36.9Zm.139-222.7C79.563,24.76,68.208,35.051,59.506,53a177.534,177.534,0,0,0-15.077,75.371c-.077,62,23.818,103.667,46.087,103.683,11.107,0,22.462-10.29,31.164-28.235a177.512,177.512,0,0,0,15.093-75.332,177.6,177.6,0,0,0-14.946-75.394C113.147,35.12,101.785,24.807,90.686,24.8Z" transform="translate(-22018.387 -6978.533)" fill="#0d1b3a"/>
      <path id="Path_90927" data-name="Path 90927" d="M43.72,247.465a7.708,7.708,0,0,1-7.708-7.708V17.052a7.708,7.708,0,1,1,15.416,0v222.7A7.708,7.708,0,0,1,43.72,247.465Z" transform="translate(-21971.414 -6978.533)" fill="#0d1b3a"/>
      <path id="Path_90928" data-name="Path 90928" d="M251.985,39.206H29.273a7.708,7.708,0,0,1,0-15.416H251.985a7.708,7.708,0,0,1,0,15.416Z" transform="translate(-22068.326 -6881.626)" fill="#0d1b3a"/>
      <path id="Path_90929" data-name="Path 90929" d="M224.518,32.027H31.166a7.708,7.708,0,0,1,0-15.416H224.518a7.708,7.708,0,1,1,0,15.416Z" transform="translate(-22055.629 -6929.785)" fill="#0d1b3a"/>
      <path id="Path_90930" data-name="Path 90930" d="M224.518,46.385H31.166a7.708,7.708,0,0,1,0-15.416H224.518a7.708,7.708,0,1,1,0,15.416Z" transform="translate(-22055.629 -6833.469)" fill="#0d1b3a"/>
    </g>
  </g>
</svg>
