<svg xmlns="http://www.w3.org/2000/svg" width="66.5" height="39.818" viewBox="0 0 66.5 39.818">
  <g id="ic_xp" transform="translate(-5235.5 -289.5)">
    <g id="Path_7812" data-name="Path 7812" transform="translate(5277.861 301.617)" fill="none" stroke-linecap="round" stroke-linejoin="round">
      <path d="M8.056,26.7H0V0H14.33A9.928,9.928,0,0,1,20.9,2.566,8.514,8.514,0,0,1,23.139,8.9a7.369,7.369,0,0,1-1.229,4.318,6.838,6.838,0,0,1-2.7,2.227,10.373,10.373,0,0,1-3.934.95H8.056V26.7ZM8.218,5.653v5.285h4.261s.038,0,.1,0c.516,0,3.093-.127,3.093-2.644S13.1,5.651,12.583,5.651c-.067,0-.1,0-.1,0Z" stroke="none"/>
      <path d="M 8.05642032623291 26.70044326782227 L 8.05642032623291 26.699462890625 L 8.05642032623291 16.39496421813965 L 15.26998996734619 16.39496421813965 C 15.28966999053955 16.39487457275391 17.26009941101074 16.37531471252441 19.20429992675781 15.44509410858154 C 20.34646034240723 14.8986234664917 21.25650024414063 14.14947414398193 21.90915107727051 13.21844387054443 C 22.72496032714844 12.05465412139893 23.13862037658691 10.60176372528076 23.13862037658691 8.900143623352051 C 23.1666202545166 6.227473735809326 22.41300964355469 4.096423625946045 20.89872932434082 2.566183805465698 C 18.43025970458984 0.0717238113284111 14.74236965179443 -0.000296185608021915 14.32997035980225 -0.000296185608021915 C 14.30405044555664 -0.000296185608021915 14.29012012481689 -2.618560756673105e-05 14.2891902923584 -6.185608071973547e-06 L 1.272583034506169e-07 -6.185608071973547e-06 L 1.272583034506169e-07 26.70044326782227 L 8.05543041229248 26.70044326782227 L 8.05642032623291 26.70044326782227 M 8.218400001525879 5.653373718261719 L 12.47889995574951 5.653373718261719 C 12.47891998291016 5.653373718261719 12.5164098739624 5.651363849639893 12.5833101272583 5.651363849639893 C 13.09973049163818 5.651363849639893 15.67584037780762 5.778853893280029 15.67584037780762 8.295833587646484 C 15.67584037780762 10.81258392333984 13.09949970245361 10.9400634765625 12.58302974700928 10.9400634765625 C 12.51667976379395 10.9400634765625 12.47935009002686 10.93830394744873 12.47889995574951 10.93828392028809 L 8.218400001525879 10.93828392028809 L 8.218400001525879 5.653373718261719 M 8.05642032623291 27.70044326782227 L 8.05543041229248 27.70044326782227 L 1.272583034506169e-07 27.70044326782227 C -0.5522798895835876 27.70044326782227 -0.9999998807907104 27.25272369384766 -0.9999998807907104 26.70044326782227 L -0.9999998807907104 -6.185608071973547e-06 C -0.9999998807907104 -0.5522862076759338 -0.5522798895835876 -1.000006198883057 1.272583034506169e-07 -1.000006198883057 L 14.28127574920654 -1.000006198883057 C 14.29170227050781 -1.000145554542542 14.30801963806152 -1.000296235084534 14.32997035980225 -1.000296235084534 C 14.78507041931152 -1.000296235084534 18.85577964782715 -0.9199562072753906 21.60952949523926 1.862793803215027 C 23.31764221191406 3.588905096054077 24.16853332519531 5.958575248718262 24.13861846923828 8.90585994720459 C 24.13769340515137 10.81449604034424 23.66310691833496 12.45847797393799 22.72800064086914 13.79245376586914 C 21.97541999816895 14.86603355407715 20.93509101867676 15.72555351257324 19.63590049743652 16.34716415405273 C 17.49156951904297 17.37313461303711 15.36408042907715 17.39454460144043 15.27455997467041 17.39495468139648 L 9.05642032623291 17.39496231079102 L 9.05642032623291 26.699462890625 C 9.05642032623291 27.25174331665039 8.608699798583984 27.70044326782227 8.05642032623291 27.70044326782227 Z M 9.218400001525879 9.938283920288086 L 12.47889995574951 9.938283920288086 C 12.49419975280762 9.938283920288086 12.50955009460449 9.938633918762207 12.52482986450195 9.939343452453613 C 12.52933025360107 9.93950366973877 12.55045032501221 9.9400634765625 12.58302974700928 9.9400634765625 C 12.9382905960083 9.9400634765625 13.46658992767334 9.867373466491699 13.88389015197754 9.66335391998291 C 14.43159008026123 9.395573616027832 14.67584037780762 8.973814010620117 14.67584037780762 8.295833587646484 C 14.67584037780762 7.617713928222656 14.43161010742188 7.195883750915527 13.88393974304199 6.928073883056641 C 13.46672058105469 6.724053859710693 12.93850994110107 6.651363849639893 12.5833101272583 6.651363849639893 C 12.55383014678955 6.651363849639893 12.53435039520264 6.651903629302979 12.5270299911499 6.652214050292969 C 12.50973033905029 6.653113842010498 12.49622058868408 6.653373718261719 12.47889995574951 6.653373718261719 L 9.218400001525879 6.653373718261719 L 9.218400001525879 9.938283920288086 Z" stroke="none" fill="#0d1b3a"/>
    </g>
    <path id="Path_59206" data-name="Path 59206" d="M-15990.69-8819.335l4.752-4.94,4.465,4.94h15.582l-13.492-13.206,20.332-25.082h-11.021l-15.865,18.526-3.326-3.705h-15.771l11.592,11.306-10.736,12.161" transform="translate(21241.037 9147.623)" fill="none" stroke="#0d1b3a" stroke-linecap="round" stroke-linejoin="round" stroke-width="1"/>
    <path id="Path_59207" data-name="Path 59207" d="M4617.225,420.958h7.954" transform="translate(622.294 -92.638)" fill="none" stroke="#ec691f" stroke-linecap="round" stroke-width="1"/>
  </g>
</svg>
