<svg xmlns="http://www.w3.org/2000/svg" width="512" height="512" viewBox="0 0 512 512">
  <g id="a1" transform="translate(-10152 -7167)">
    <g id="Ellipse_88" data-name="Ellipse 88" transform="translate(10152 7167)" fill="none" stroke="#0d1b3a" stroke-width="12">
      <circle cx="256" cy="256" r="256" stroke="none"/>
      <circle cx="256" cy="256" r="250" fill="none"/>
    </g>
    <g id="Group_8701" data-name="Group 8701" transform="translate(10349.513 7254.724)">
      <g id="Group_8700" data-name="Group 8700">
        <path id="Path_54697" data-name="Path 54697" d="M172.519,0A5.417,5.417,0,0,0,167.1,5.418V27.089a5.418,5.418,0,0,0,10.836,0V5.418A5.417,5.417,0,0,0,172.519,0Z" transform="translate(-167.101)" fill="#ec691f"/>
      </g>
    </g>
    <g id="Group_8703" data-name="Group 8703" transform="translate(10303.542 7276.542)">
      <g id="Group_8702" data-name="Group 8702">
        <path id="Path_54698" data-name="Path 54698" d="M121.552,50.192,106.229,34.867a5.418,5.418,0,0,0-7.661,7.663l15.324,15.324a5.417,5.417,0,1,0,7.661-7.662Z" transform="translate(-96.981 -33.281)" fill="#ec691f"/>
      </g>
    </g>
    <g id="Group_8705" data-name="Group 8705" transform="translate(10380.161 7276.543)">
      <g id="Group_8704" data-name="Group 8704">
        <path id="Path_54699" data-name="Path 54699" d="M238.423,34.868a5.419,5.419,0,0,0-7.661,0L215.437,50.192a5.418,5.418,0,0,0,7.661,7.662L238.423,42.53A5.418,5.418,0,0,0,238.423,34.868Z" transform="translate(-213.851 -33.281)" fill="#ec691f"/>
      </g>
    </g>
    <g id="Group_8707" data-name="Group 8707" transform="translate(10306.17 7298.066)">
      <g id="Group_8706" data-name="Group 8706">
        <path id="Path_54700" data-name="Path 54700" d="M279.777,163.993a26.969,26.969,0,0,0-17.949,6.824,27.062,27.062,0,0,0-43.342-10.836,27.068,27.068,0,0,0-41.647-12.227V93.2a27.089,27.089,0,0,0-54.178,0V197.045a27.134,27.134,0,0,0-21.671,26.544V256.1A102.755,102.755,0,0,0,192.5,358.4a5.5,5.5,0,0,0,.6.034,5.418,5.418,0,0,0,.589-10.8A91.933,91.933,0,0,1,111.825,256.1V223.589a16.281,16.281,0,0,1,10.836-15.322V245.26a5.418,5.418,0,0,0,10.836,0V93.2A16.253,16.253,0,0,1,166,93.2V201.918a5.418,5.418,0,1,0,10.836,0V169.411a16.253,16.253,0,1,1,32.507,0v32.507a5.418,5.418,0,1,0,10.836,0V180.247a16.253,16.253,0,0,1,32.507,0v21.671a5.418,5.418,0,1,0,10.836,0V191.083a16.253,16.253,0,1,1,32.507,0V256.1a91.932,91.932,0,0,1-81.862,91.533,5.418,5.418,0,0,0,.589,10.8,5.666,5.666,0,0,0,.6-.033,102.756,102.756,0,0,0,91.508-102.3V191.082A27.12,27.12,0,0,0,279.777,163.993Z" transform="translate(-100.989 -66.111)" fill="#0d1b3a"/>
      </g>
    </g>
  </g>
</svg>
