<svg xmlns="http://www.w3.org/2000/svg" width="512" height="512" viewBox="0 0 512 512">
  <g id="a11" transform="translate(-5686 -7167)">
    <g id="Group_2139" data-name="Group 2139" transform="translate(5686 7167)">
      <g id="Ellipse_88" data-name="Ellipse 88" fill="none" stroke="#0d1b3a" stroke-width="12">
        <circle cx="256" cy="256" r="256" stroke="none"/>
        <circle cx="256" cy="256" r="250" fill="none"/>
      </g>
    </g>
    <g id="Group_2187" data-name="Group 2187" transform="translate(-50 84)">
      <g id="Group_2178" data-name="Group 2178" transform="translate(5857.23 7449.408)">
        <g id="Group_2177" data-name="Group 2177" transform="translate(0 0)">
          <path id="Path_5269" data-name="Path 5269" d="M46.185,440.861a14.122,14.122,0,1,0,14.122,14.122A14.138,14.138,0,0,0,46.185,440.861Zm0,19.23a5.108,5.108,0,1,1,5.108-5.108A5.114,5.114,0,0,1,46.185,460.091Z" transform="translate(-32.063 -440.861)" fill="#ec691f"/>
        </g>
      </g>
      <g id="Group_2180" data-name="Group 2180" transform="translate(5838 7201.924)">
        <g id="Group_2179" data-name="Group 2179" transform="translate(0 0)">
          <path id="Path_5270" data-name="Path 5270" d="M307.073,169.638A23.764,23.764,0,0,0,283.336,145.9H214.23a4.507,4.507,0,0,0,0,9.014h69.106a14.723,14.723,0,0,1,0,29.445H249.684a4.507,4.507,0,0,0,0,9.014h24.037a14.723,14.723,0,1,1,0,29.445H249.684a4.507,4.507,0,0,0,0,9.014h14.422a14.723,14.723,0,1,1,0,29.445H249.684a4.507,4.507,0,0,0,0,9.014h4.808a14.723,14.723,0,0,1,0,29.445H108.583a14.713,14.713,0,0,1-4.656-.755L66.7,286.577V181.172a396.728,396.728,0,0,0,39.98-46.112c26.661-36.07,40.672-68.6,41.686-96.754,3.9-1.055,11.354-2.265,17.626,1.42C172.5,43.548,176.509,51.84,177.9,64.373c4.586,41.277-18.458,83.428-18.69,83.847a4.554,4.554,0,0,0,3.94,6.7H192.6a4.507,4.507,0,1,0,0-9.014H170.463c6.616-14.047,20.236-47.988,16.4-82.524-1.728-15.557-7.239-26.145-16.377-31.471-12.868-7.5-27.71-1.286-28.336-1.018a4.507,4.507,0,0,0-2.732,4.142c0,33.5-21.694,69.908-39.892,94.551A400.169,400.169,0,0,1,66.7,168.353v-8.331a4.507,4.507,0,0,0-4.507-4.507H4.507A4.507,4.507,0,0,0,0,160.022V313.859a4.508,4.508,0,0,0,4.507,4.508H62.2A4.507,4.507,0,0,0,66.7,313.86V296.076l34.374,11.458a23.691,23.691,0,0,0,7.506,1.218H254.492a23.721,23.721,0,0,0,17.459-39.8,23.713,23.713,0,0,0,9.615-38.459,23.713,23.713,0,0,0,9.615-38.459A23.775,23.775,0,0,0,307.073,169.638ZM57.689,309.353H9.014V164.53H57.689V309.353Z" transform="translate(0 -28.218)" fill="#0d1b3a"/>
        </g>
      </g>
      <g id="Group_2182" data-name="Group 2182" transform="translate(6025.488 7185)">
        <g id="Group_2181" data-name="Group 2181" transform="translate(0 0)">
          <path id="Path_5271" data-name="Path 5271" d="M355.576,24.036c-7.583,0-14.723-11-14.723-19.53a4.507,4.507,0,0,0-9.014,0c0,8.528-7.139,19.53-14.723,19.53a4.507,4.507,0,1,0,0,9.014c7.583,0,14.723,11,14.723,19.53a4.507,4.507,0,0,0,9.014,0c0-8.528,7.139-19.53,14.723-19.53a4.507,4.507,0,1,0,0-9.014ZM336.347,36.828a29.771,29.771,0,0,0-7.084-8.284,29.771,29.771,0,0,0,7.084-8.284,29.77,29.77,0,0,0,7.084,8.284A29.753,29.753,0,0,0,336.347,36.828Z" transform="translate(-312.609 0.001)" fill="#ec691f"/>
        </g>
      </g>
      <g id="Group_2184" data-name="Group 2184" transform="translate(5876.458 7237.881)">
        <g id="Group_2183" data-name="Group 2183" transform="translate(0 0)">
          <path id="Path_5272" data-name="Path 5272" d="M107.091,112.208c-7.583,0-14.723-11-14.723-19.53a4.507,4.507,0,0,0-9.014,0c0,8.528-7.139,19.53-14.723,19.53a4.507,4.507,0,1,0,0,9.014c7.583,0,14.723,11,14.723,19.53a4.507,4.507,0,1,0,9.014,0c0-8.528,7.139-19.53,14.723-19.53a4.507,4.507,0,1,0,0-9.014ZM87.862,125a29.77,29.77,0,0,0-7.084-8.284,29.77,29.77,0,0,0,7.084-8.284,29.77,29.77,0,0,0,7.084,8.284A29.76,29.76,0,0,0,87.862,125Z" transform="translate(-64.124 -88.171)" fill="#ec691f"/>
        </g>
      </g>
      <g id="Group_2186" data-name="Group 2186" transform="translate(6097.599 7252.304)">
        <g id="Group_2185" data-name="Group 2185" transform="translate(0 0)">
          <path id="Path_5273" data-name="Path 5273" d="M475.811,136.255c-7.583,0-14.723-11-14.723-19.53a4.507,4.507,0,0,0-9.014,0c0,8.528-7.139,19.53-14.723,19.53a4.507,4.507,0,1,0,0,9.014c7.583,0,14.723,11,14.723,19.53a4.507,4.507,0,0,0,9.014,0c0-8.528,7.139-19.53,14.723-19.53a4.507,4.507,0,1,0,0-9.014Zm-19.229,12.791a29.771,29.771,0,0,0-7.084-8.284,29.771,29.771,0,0,0,7.084-8.284,29.77,29.77,0,0,0,7.084,8.284A29.759,29.759,0,0,0,456.582,149.047Z" transform="translate(-432.844 -112.218)" fill="#ec691f"/>
        </g>
      </g>
    </g>
  </g>
</svg>
