<svg xmlns="http://www.w3.org/2000/svg" width="666.469" height="263.284" viewBox="0 0 666.469 263.284">
  <g id="branding" transform="translate(-7971 -6064.029)">
    <g id="Group_11605" data-name="Group 11605" transform="translate(2727 -759)">
      <g id="Group_11604" data-name="Group 11604">
        <path id="Path_102142" data-name="Path 102142" d="M59,0A59,59,0,1,1,0,59,59,59,0,0,1,59,0Z" transform="translate(5250 6934)" fill="#001a4d"/>
        <path id="Path_7818" data-name="Path 7818" d="M7.509,6.864q.425.384.854.7t.835.565q.405.247.767.434t.671.318l-1.187,2.14a11.915,11.915,0,0,1-1.293-.787A15.064,15.064,0,0,1,6.949,9.3q-.569-.49-1.061-1a11.5,11.5,0,0,1-.859-1,3.821,3.821,0,0,1-1.293-.207,3.085,3.085,0,0,1-.984-.555,2.5,2.5,0,0,1-.627-.8A2.157,2.157,0,0,1,1.9,4.775a1.433,1.433,0,0,1,.135-.626A1.517,1.517,0,0,1,2.4,3.665a1.7,1.7,0,0,1,.531-.318,1.81,1.81,0,0,1,.651-.116,2.781,2.781,0,0,1,1.5.424A3.8,3.8,0,0,1,6.264,4.866a3.273,3.273,0,0,0,.878-.247,1.838,1.838,0,0,0,.574-.4,1.359,1.359,0,0,0,.309-.52,2,2,0,0,0,.092-.611,1.353,1.353,0,0,0-.1-.575.774.774,0,0,0-.27-.323.987.987,0,0,0-.4-.146,3.169,3.169,0,0,0-.487-.035H4.334a2.5,2.5,0,0,1-1.447-.4A3.257,3.257,0,0,1,1.932.6a4.384,4.384,0,0,1-.526-1.3A5.823,5.823,0,0,1,1.247-2,3.2,3.2,0,0,1,1.44-3.179a2.135,2.135,0,0,1,.526-.792,2,2,0,0,1,.767-.444,3.043,3.043,0,0,1,.917-.136h3.29V-5.8H-.239V-8.075H12.5V-5.8H9.458v3.523h-4.6a1.438,1.438,0,0,0-.849.182.674.674,0,0,0-.232.565,1.5,1.5,0,0,0,.058.394,1.041,1.041,0,0,0,.2.389,1.08,1.08,0,0,0,.405.293,1.645,1.645,0,0,0,.666.116H7.731a3.439,3.439,0,0,1,1.36.237,2.311,2.311,0,0,1,.892.656,2.574,2.574,0,0,1,.492.979,4.622,4.622,0,0,1,.15,1.2,4.861,4.861,0,0,1-.183,1.353,3.707,3.707,0,0,1-.564,1.161,3.777,3.777,0,0,1-.97.919,5.184,5.184,0,0,1-1.389.636ZM8.261-11.3a1.556,1.556,0,0,1,.1-.565,1.356,1.356,0,0,1,.285-.454,1.335,1.335,0,0,1,.439-.3,1.4,1.4,0,0,1,.564-.111,1.412,1.412,0,0,1,.56.111,1.339,1.339,0,0,1,.449.308,1.491,1.491,0,0,1,.3.464,1.5,1.5,0,0,1,.111.58,1.585,1.585,0,0,1-.1.575,1.266,1.266,0,0,1-.289.449,1.364,1.364,0,0,1-.444.293,1.435,1.435,0,0,1-.555.106,1.471,1.471,0,0,1-.56-.106,1.28,1.28,0,0,1-.449-.3,1.507,1.507,0,0,1-.3-.459A1.489,1.489,0,0,1,8.261-11.3ZM18.892-5.8h-2.1V6.986H14.27V-5.8H12.138V-8.075h2.171a5.9,5.9,0,0,1-.54-2.322,4.153,4.153,0,0,1,.28-1.524,3.316,3.316,0,0,1,.864-1.252,4.14,4.14,0,0,1,1.5-.843,6.829,6.829,0,0,1,2.176-.308,8.888,8.888,0,0,1,2.861.454A10.237,10.237,0,0,1,24-12.582a13.946,13.946,0,0,1,2.3,2.009,24.474,24.474,0,0,1,2.094,2.609H26.07q-.338-.353-.786-.8t-1-.9q-.55-.454-1.182-.883a10.686,10.686,0,0,0-1.327-.767,8.085,8.085,0,0,0-1.447-.54,5.9,5.9,0,0,0-1.534-.2,3.888,3.888,0,0,0-1.187.161,2.274,2.274,0,0,0-.83.454,1.775,1.775,0,0,0-.482.691,2.428,2.428,0,0,0-.154.883A3.249,3.249,0,0,0,16.263-9a4.772,4.772,0,0,0,.371.924h2.258Zm14.656,0h-3.03v3.422H25.665a1.077,1.077,0,0,0-.671.151.6.6,0,0,0-.179.485,1.476,1.476,0,0,0,.053.373.95.95,0,0,0,.2.373,1.177,1.177,0,0,0,.4.293,1.491,1.491,0,0,0,.646.121h2.7a3.142,3.142,0,0,1,1.346.257,2.3,2.3,0,0,1,.878.7,2.821,2.821,0,0,1,.478,1.045A5.436,5.436,0,0,1,31.657,2.7a5.4,5.4,0,0,1-.3,1.817,4.279,4.279,0,0,1-.912,1.509,4.346,4.346,0,0,1-1.524,1.035,5.519,5.519,0,0,1-2.142.384A6.522,6.522,0,0,1,24.3,6.96a7.782,7.782,0,0,1-2.166-1.327A9.076,9.076,0,0,1,20.4,3.609,10.17,10.17,0,0,1,19.239,1.04L21.41.132a9.067,9.067,0,0,0,.849,1.837,7.879,7.879,0,0,0,1.225,1.56,5.758,5.758,0,0,0,1.529,1.085,3.993,3.993,0,0,0,1.761.4,2.911,2.911,0,0,0,1.008-.162,2,2,0,0,0,.733-.454,1.936,1.936,0,0,0,.449-.707,2.611,2.611,0,0,0,.154-.919,2.043,2.043,0,0,0-.072-.6.743.743,0,0,0-.232-.363.87.87,0,0,0-.4-.177,3.115,3.115,0,0,0-.569-.045h-2.74a2.178,2.178,0,0,1-1.278-.373,3.161,3.161,0,0,1-.888-.944,4.372,4.372,0,0,1-.521-1.247,5.335,5.335,0,0,1-.169-1.292,3.029,3.029,0,0,1,.174-1.105,1.735,1.735,0,0,1,.492-.707,1.872,1.872,0,0,1,.757-.379,3.911,3.911,0,0,1,.96-.111H28V-5.8H18.216V-8.075H33.548Zm-.359,0V-8.075H47.044V-5.8h-2.1V6.975H42.423V3.231l-.029-.01q-.222.172-.487.338a3.867,3.867,0,0,1-.584.3,3.994,3.994,0,0,1-.7.212,4.2,4.2,0,0,1-.859.081,4.384,4.384,0,0,1-2.156-.51A4.967,4.967,0,0,1,36.045,2.3,6.918,6.918,0,0,1,35.032.414a10.369,10.369,0,0,1-.521-2.14,3.425,3.425,0,0,0,1.037-.283,2.115,2.115,0,0,0,.675-.49,1.75,1.75,0,0,0,.367-.636,2.363,2.363,0,0,0,.111-.722,2.991,2.991,0,0,0-.154-.929A4.766,4.766,0,0,0,36.055-5.8Zm6.069,2.362a3.086,3.086,0,0,1-.482,1.721A3.276,3.276,0,0,1,37.348-.545,3.621,3.621,0,0,0,37.729.475a2.585,2.585,0,0,0,.564.691,2.123,2.123,0,0,0,.695.394,2.442,2.442,0,0,0,.782.126,2.615,2.615,0,0,0,1.563-.469A3.61,3.61,0,0,0,42.423-.09V-5.8H38.554a5.065,5.065,0,0,1,.536,1.216A4.234,4.234,0,0,1,39.258-3.442ZM61.042-5.8h-2.1V6.975h-2.7V-.161H52.06Q52.06.525,52.04,1a3.334,3.334,0,0,1-.106.777.8.8,0,0,1-.27.434.842.842,0,0,1-.511.136,1.962,1.962,0,0,1-.8-.172,3.034,3.034,0,0,1-.733-.459A4.02,4.02,0,0,1,49,1.055,5.177,5.177,0,0,1,48.5.263a4.583,4.583,0,0,1-.323-.833,2.979,2.979,0,0,1-.116-.792,1.31,1.31,0,0,1,.111-.59.7.7,0,0,1,.314-.318,1.366,1.366,0,0,1,.492-.126q.289-.025.656-.025h6.6V-5.8H46.685V-8.075H61.042Zm9.733,4.472.318.035a3.181,3.181,0,0,0,.328.015,4.993,4.993,0,0,0,1.221-.151A4.619,4.619,0,0,0,73.651-1.8V-8.075h4.622V-5.8h-2.1V6.975H73.651V.455a2.038,2.038,0,0,1-.3.121q-.183.061-.4.111T72.5.768a3.426,3.426,0,0,1-.444.03q.048.252.077.454a3.3,3.3,0,0,1,.029.464,3.9,3.9,0,0,1-.328,1.63,3.536,3.536,0,0,1-.9,1.221,4.032,4.032,0,0,1-1.351.767A5.077,5.077,0,0,1,67.92,5.6,4.873,4.873,0,0,1,66.25,5.33a5.142,5.142,0,0,1-1.37-.742,6.088,6.088,0,0,1-1.114-1.105,10.058,10.058,0,0,1-.9-1.368A13.593,13.593,0,0,1,62.155.591Q61.841-.2,61.59-.979l2.152-.908q.174.575.391,1.181A12.126,12.126,0,0,0,64.625.47a8.893,8.893,0,0,0,.608,1.07,5.069,5.069,0,0,0,.733.878,3.255,3.255,0,0,0,.868.6,2.39,2.39,0,0,0,1.018.217,1.629,1.629,0,0,0,1.3-.515A2.031,2.031,0,0,0,69.6,1.333a2.329,2.329,0,0,0-.164-.919,1.732,1.732,0,0,0-.453-.636A1.8,1.8,0,0,0,68.3-.59a3.039,3.039,0,0,0-.859-.116q-.1,0-.232.005t-.28.015l-.289.02q-.145.01-.251.02V-2.917a1.546,1.546,0,0,0,.179.01h.178a5.121,5.121,0,0,0,.936-.081,2.174,2.174,0,0,0,.753-.278,1.413,1.413,0,0,0,.5-.53,1.7,1.7,0,0,0,.183-.828,1.333,1.333,0,0,0-.425-1.1,1.774,1.774,0,0,0-1.148-.343,3.671,3.671,0,0,0-1.061.156,8.177,8.177,0,0,0-1.013.379l-.579-2.2a6.338,6.338,0,0,1,1.423-.525,6.081,6.081,0,0,1,1.394-.172,4.552,4.552,0,0,1,1.606.273,3.821,3.821,0,0,1,1.25.747,3.368,3.368,0,0,1,.81,1.115,3.308,3.308,0,0,1,.289,1.378,3.307,3.307,0,0,1-.429,1.65,4.005,4.005,0,0,1-1.278,1.337l.01.05a3.4,3.4,0,0,1,.425.252Q70.592-1.483,70.776-1.332ZM84.351-5.8h-2.1V6.975H79.73V-5.8H77.6V-8.075h6.754Zm-6.243-8.822q.039.161.116.449a5.386,5.386,0,0,0,.217.631,5.419,5.419,0,0,0,.347.7,2.978,2.978,0,0,0,.507.641,2.474,2.474,0,0,0,.7.469,2.209,2.209,0,0,0,.921.182,2.234,2.234,0,0,0,.9-.172,2.5,2.5,0,0,0,.695-.444,3,3,0,0,0,.516-.616,5.248,5.248,0,0,0,.367-.681,4.882,4.882,0,0,0,.236-.646q.087-.308.145-.52l2.065.747q-.1.414-.261.908a6.954,6.954,0,0,1-.425,1A6.2,6.2,0,0,1,84.52-11a4.32,4.32,0,0,1-.883.843,4.373,4.373,0,0,1-1.172.59,4.666,4.666,0,0,1-1.491.222,4.87,4.87,0,0,1-1.824-.328,4.419,4.419,0,0,1-1.442-.929,5.429,5.429,0,0,1-1.052-1.433A7.79,7.79,0,0,1,76-13.889ZM83.992-5.8V-8.075H97.848V-5.8h-2.1V6.975H93.226V3.231l-.029-.01q-.222.172-.487.338a3.867,3.867,0,0,1-.584.3,4,4,0,0,1-.7.212,4.2,4.2,0,0,1-.859.081,4.384,4.384,0,0,1-2.156-.51A4.968,4.968,0,0,1,86.848,2.3,6.918,6.918,0,0,1,85.835.414a10.369,10.369,0,0,1-.521-2.14,3.425,3.425,0,0,0,1.037-.283,2.114,2.114,0,0,0,.675-.49,1.75,1.75,0,0,0,.367-.636,2.364,2.364,0,0,0,.111-.722,2.991,2.991,0,0,0-.154-.929A4.768,4.768,0,0,0,86.858-5.8Zm6.069,2.362a3.086,3.086,0,0,1-.482,1.721A3.276,3.276,0,0,1,88.151-.545,3.62,3.62,0,0,0,88.532.475a2.585,2.585,0,0,0,.564.691,2.123,2.123,0,0,0,.695.394,2.442,2.442,0,0,0,.782.126,2.616,2.616,0,0,0,1.563-.469A3.609,3.609,0,0,0,93.226-.09V-5.8H89.357a5.065,5.065,0,0,1,.536,1.216A4.234,4.234,0,0,1,90.061-3.442Zm18.61,10.417V-1.877q-.116-.02-.227-.035a1.751,1.751,0,0,0-.236-.015,1.461,1.461,0,0,0-.7.162,1.442,1.442,0,0,0-.492.429,1.931,1.931,0,0,0-.289.606,2.473,2.473,0,0,0-.1.681,2.319,2.319,0,0,0,.019.293q.019.151.039.293h-2.239q-.058-.464-.15-.924a3.887,3.887,0,0,0-.251-.818,1.7,1.7,0,0,0-.405-.58.867.867,0,0,0-.6-.222.84.84,0,0,0-.5.146,1.15,1.15,0,0,0-.347.409,2.074,2.074,0,0,0-.2.621,4.482,4.482,0,0,0-.063.772,4.609,4.609,0,0,0,.371,1.888,5.5,5.5,0,0,0,.984,1.5,7.466,7.466,0,0,0,1.4,1.186,14.764,14.764,0,0,0,1.64.934L105.207,7.44a9.29,9.29,0,0,1-.955-.469,10.47,10.47,0,0,1-1.225-.8,13.22,13.22,0,0,1-1.3-1.125,8.792,8.792,0,0,1-1.182-1.433,7.689,7.689,0,0,1-.854-1.736A6.122,6.122,0,0,1,99.36-.151a5.753,5.753,0,0,1,.251-1.716,4.381,4.381,0,0,1,.719-1.408,3.466,3.466,0,0,1,1.129-.949,3.128,3.128,0,0,1,1.481-.348,2.883,2.883,0,0,1,.979.151,2.683,2.683,0,0,1,.724.384,2.812,2.812,0,0,1,.516.5,5.989,5.989,0,0,1,.357.5l.048-.01a2.614,2.614,0,0,1,.463-.646,2.66,2.66,0,0,1,.584-.449,2.513,2.513,0,0,1,.651-.257,2.9,2.9,0,0,1,.675-.081,3.261,3.261,0,0,1,.357.02q.183.02.376.061V-5.8H97.488V-8.075h15.8V-5.8h-2.1V6.975Z" transform="translate(5252.24 6994.636)" fill="#f5f5f5"/>
        <path id="Path_7821" data-name="Path 7821" d="M56.356,118A59.359,59.359,0,0,1,8.393,93.713,58.624,58.624,0,0,1,0,77.437H112.713a58.622,58.622,0,0,1-8.392,16.276A59.309,59.309,0,0,1,56.356,118Zm56.357-77.437H0A58.623,58.623,0,0,1,8.392,24.287a59.463,59.463,0,0,1,95.928,0,58.625,58.625,0,0,1,8.392,16.274v0h0Z" transform="translate(5252.344 6934)" fill="#ec691f"/>
        <path id="Path_7823" data-name="Path 7823" d="M65,130A65.017,65.017,0,0,1,39.7,5.108,65.017,65.017,0,0,1,90.3,124.892,64.591,64.591,0,0,1,65,130ZM65,3.679A61.321,61.321,0,1,0,126.32,65,61.391,61.391,0,0,0,65,3.679Z" transform="translate(5244 6928)" fill="#001a4d"/>
      </g>
      <path id="Path_64285" data-name="Path 64285" d="M2.188-.076V-22.908H6.8V-.076Zm23.441,0H21.252V-8.517a13.046,13.046,0,0,0-.28-3.465,2.43,2.43,0,0,0-.911-1.223,2.6,2.6,0,0,0-1.518-.436,3.509,3.509,0,0,0-2.04.623,3.139,3.139,0,0,0-1.238,1.651,14.27,14.27,0,0,0-.335,3.8V-.076H10.553v-16.54h4.065v2.43a6.623,6.623,0,0,1,5.451-2.8,6.567,6.567,0,0,1,2.648.522,4.436,4.436,0,0,1,1.814,1.332,4.824,4.824,0,0,1,.857,1.838,13.67,13.67,0,0,1,.241,2.944Zm19.034,0H40.6v-2.43A6.567,6.567,0,0,1,38.207-.4,6.134,6.134,0,0,1,35.427.3,6.3,6.3,0,0,1,30.545-2a9.345,9.345,0,0,1-2.032-6.409q0-4.205,1.978-6.393a6.448,6.448,0,0,1,5-2.188,6.192,6.192,0,0,1,4.8,2.3v-8.223h4.376ZM32.982-8.7a7.574,7.574,0,0,0,.732,3.831,3.307,3.307,0,0,0,2.959,1.713,3.221,3.221,0,0,0,2.57-1.285A5.93,5.93,0,0,0,40.3-8.283a6.49,6.49,0,0,0-1.028-4.1,3.253,3.253,0,0,0-2.632-1.254A3.288,3.288,0,0,0,34.033-12.4,5.594,5.594,0,0,0,32.982-8.7ZM48.4-18.858v-4.049h4.376v4.049Zm0,18.782v-16.54h4.376V-.076ZM59.961-11.57l-3.971-.716a6.186,6.186,0,0,1,2.3-3.551,8.435,8.435,0,0,1,4.859-1.152,10.472,10.472,0,0,1,4.361.693,4.349,4.349,0,0,1,2.017,1.76,9.025,9.025,0,0,1,.584,3.917l-.047,5.108a17.735,17.735,0,0,0,.21,3.216,9.387,9.387,0,0,0,.786,2.219h-4.33q-.171-.436-.421-1.293-.109-.389-.156-.514a7.89,7.89,0,0,1-2.4,1.635A6.869,6.869,0,0,1,61.035.3a5.636,5.636,0,0,1-4.026-1.386,4.607,4.607,0,0,1-1.472-3.5,4.7,4.7,0,0,1,.67-2.5,4.376,4.376,0,0,1,1.877-1.682,14.667,14.667,0,0,1,3.481-1.02,23.844,23.844,0,0,0,4.252-1.075V-11.3a2.266,2.266,0,0,0-.623-1.8,3.733,3.733,0,0,0-2.352-.537,3.132,3.132,0,0,0-1.822.459A3.193,3.193,0,0,0,59.961-11.57Zm5.856,3.551a27.354,27.354,0,0,1-2.663.67,8.022,8.022,0,0,0-2.383.763,1.825,1.825,0,0,0-.857,1.542A2.147,2.147,0,0,0,60.6-3.455a2.392,2.392,0,0,0,1.744.67A3.79,3.79,0,0,0,64.6-3.564a2.741,2.741,0,0,0,1.043-1.448,8.642,8.642,0,0,0,.171-2.134ZM88.9-.076H84.523V-8.517a13.046,13.046,0,0,0-.28-3.465,2.43,2.43,0,0,0-.911-1.223,2.6,2.6,0,0,0-1.518-.436,3.509,3.509,0,0,0-2.04.623,3.139,3.139,0,0,0-1.238,1.651,14.269,14.269,0,0,0-.335,3.8V-.076H73.824v-16.54h4.065v2.43a6.623,6.623,0,0,1,5.451-2.8,6.567,6.567,0,0,1,2.648.522A4.436,4.436,0,0,1,87.8-15.136a4.824,4.824,0,0,1,.857,1.838,13.669,13.669,0,0,1,.241,2.944Zm2.961-11.276A14.521,14.521,0,0,1,92.9-17.207a10.746,10.746,0,0,1,2.126-3.13,8.889,8.889,0,0,1,2.951-2.056,12.535,12.535,0,0,1,4.921-.9,10.72,10.72,0,0,1,8.075,3.13q3.029,3.13,3.029,8.706,0,5.529-3.006,8.651A10.637,10.637,0,0,1,102.965.314a10.746,10.746,0,0,1-8.1-3.107Q91.861-5.9,91.861-11.351Zm4.75-.156A8.555,8.555,0,0,0,98.4-5.628a5.836,5.836,0,0,0,4.548,2,5.785,5.785,0,0,0,4.524-1.986q1.768-1.986,1.768-5.957,0-3.925-1.721-5.856a5.823,5.823,0,0,0-4.571-1.931A5.861,5.861,0,0,0,98.355-17.4Q96.611-15.447,96.611-11.507ZM117-18.858v-4.049h4.376v4.049ZM117-.076v-16.54h4.376V-.076Zm8.288,0V-22.908h4.376V-.076Z" transform="translate(5242.813 7086)" fill="#0d1b3a"/>
    </g>
    <g id="Group_23932" data-name="Group 23932" transform="translate(-215 -429.604)">
      <g id="Group_23931" data-name="Group 23931" transform="translate(8343.422 6579.12)">
        <path id="Path_102145" data-name="Path 102145" d="M7.422-71.582H57.494v18.33H27.764v14.9H53.157V-21.13H27.764V13.727H7.422Zm109.8,85.309H100.233V3.718q-3.8,6.168-7.667,8.787a16.553,16.553,0,0,1-9.5,2.619,13.782,13.782,0,0,1-11.78-5.848q-4.27-5.848-4.27-18.01V-48.073H85.3v33.984q0,5.819,1.654,8.263A5.3,5.3,0,0,0,91.6-3.382,6.171,6.171,0,0,0,96.947-6.64q2.079-3.259,2.079-11.7V-48.073h18.2ZM180.974-11.3H144.493q.492,5.7,2.369,8.5a7.947,7.947,0,0,0,6.885,4.015,8.558,8.558,0,0,0,5.1-1.746,13.988,13.988,0,0,0,3.174-3.9l17.927,2.153q-4.113,9.311-9.925,13.355t-16.676,4.044q-9.433,0-14.843-3.462t-8.964-11a41.161,41.161,0,0,1-3.554-17.719q0-14.49,7.131-23.451t19.693-8.961q10.193,0,16.094,4.015a24.9,24.9,0,0,1,8.986,11.638q3.085,7.623,3.085,19.843ZM162.465-22.643q-.536-6.867-2.839-9.834a7.3,7.3,0,0,0-6.058-2.968q-4.337,0-6.93,4.481-1.654,2.793-2.1,8.321ZM189.96-71.582H208.2V13.727H189.96Z" transform="translate(-7.422 120.109)" fill="#ec691f"/>
        <path id="Path_102143" data-name="Path 102143" d="M50.74-21.16,68.488-14.2A49.173,49.173,0,0,1,62.855,1.966a26.73,26.73,0,0,1-9.545,9.8q-5.7,3.3-14.507,3.3-10.685,0-17.458-4.026T9.654-3.122Q4.736-13.259,4.736-29.072q0-21.083,8.651-32.407T37.864-72.8q12.384,0,19.47,6.492T67.862-46.373L49.98-41.214a23.031,23.031,0,0,0-1.967-5.68,13.141,13.141,0,0,0-4.158-4.637,9.765,9.765,0,0,0-5.5-1.623q-6.885,0-10.551,7.179-2.772,5.326-2.772,16.73,0,14.126,3.308,19.365a10.419,10.419,0,0,0,9.3,5.239q5.812,0,8.785-4.231T50.74-21.16ZM93.7-28,76.312-30.376a29.962,29.962,0,0,1,2.839-9.3,17.64,17.64,0,0,1,5.342-5.883,18.946,18.946,0,0,1,6.885-2.782,43.163,43.163,0,0,1,9.478-.985A58.49,58.49,0,0,1,114-48.141a15.559,15.559,0,0,1,8.271,4.956,18.5,18.5,0,0,1,3.666,7.39,33.8,33.8,0,0,1,1.341,9.129V.517a42.3,42.3,0,0,0,.425,6.81,36.629,36.629,0,0,0,1.855,6.289H112.48a26.07,26.07,0,0,1-1.341-3.623,33.924,33.924,0,0,1-.626-3.912,24.433,24.433,0,0,1-7.108,6.376,23.681,23.681,0,0,1-11.221,2.55q-8.494,0-12.9-5.1a18.571,18.571,0,0,1-4.4-12.577q0-7.013,3.174-11.534t11.713-6.723q10.238-2.666,13.278-3.738a52.717,52.717,0,0,0,6.438-2.811q0-4.347-1.386-6.086T103.226-35.3q-4.471,0-6.706,1.855Q94.776-32,93.7-28Zm15.782,12.4a71.847,71.847,0,0,1-7.824,3.072q-5.544,1.913-7.019,3.767a6.8,6.8,0,0,0-1.52,4.347A6.8,6.8,0,0,0,94.62.14a5.449,5.449,0,0,0,4.4,1.768A9.389,9.389,0,0,0,104.679,0a10.583,10.583,0,0,0,3.711-4.666,19.643,19.643,0,0,0,1.1-7.158Zm29.328-55.758h18.24v84.97h-18.24Zm30.49,0h18.24v84.97H169.3Z" transform="translate(321.504 120.414)" fill="#1a3a81"/>
        <path id="Path_102150" data-name="Path 102150" d="M3742.633,8637.76a42.5,42.5,0,0,1-8.658-.911,46.95,46.95,0,0,1-8.5-2.648,50.053,50.053,0,0,1-8.033-4.261,50.947,50.947,0,0,1-7.261-5.746,48.89,48.89,0,0,1-10.977-15.443,48.2,48.2,0,0,1-4.2-19.87c0-6.612,2.5-15.295,7.443-25.806a235.3,235.3,0,0,1,16.374-28.507c11.755-17.863,23.7-32.422,23.816-32.568l.008.01c.463.6,11.468,15.044,22.229,32.559a240.155,240.155,0,0,1,15.287,28.507c4.611,10.511,6.949,19.193,6.949,25.806a53.371,53.371,0,0,1-3.711,19.87,47.754,47.754,0,0,1-9.891,15.443A44.549,44.549,0,0,1,3759.3,8634.2,41.039,41.039,0,0,1,3742.633,8637.76Zm-1.37-93.984a28.944,28.944,0,0,0-18.448,6.017c-5.047,3.994-9,9.83-11.741,17.348a56.264,56.264,0,0,0-3.387,19.435,50.14,50.14,0,0,0,2.846,17.053,32.165,32.165,0,0,0,6.742,11.015,28.207,28.207,0,0,0,10.825,7.167,39.415,39.415,0,0,0,13.874,2.383,33.5,33.5,0,0,0,13.959-2.653,31.1,31.1,0,0,0,10-7.212,29.506,29.506,0,0,0,5.929-8.942h-6.132a25.172,25.172,0,0,1-8.98,8.942,23.7,23.7,0,0,1-6.716,2.761,34.164,34.164,0,0,1-8.158.919,32.59,32.59,0,0,1-15.128-3.532,22.765,22.765,0,0,1-6.023-4.5,25.4,25.4,0,0,1-4.413-6.433,34.078,34.078,0,0,1-2.706-8.107,47.785,47.785,0,0,1-.9-9.531,46.851,46.851,0,0,1,3.608-18.326,33.787,33.787,0,0,1,4.345-7.556,26.771,26.771,0,0,1,5.82-5.569,25.468,25.468,0,0,1,6.9-3.432,25.143,25.143,0,0,1,7.585-1.144,24.139,24.139,0,0,1,6.645.908,23.628,23.628,0,0,1,14.683,12.425,29.963,29.963,0,0,1,2.9,13.039,31.025,31.025,0,0,1-2.254,11.6,22.9,22.9,0,0,1-6.116,8.966c-1.932,1.691-3.516,2.549-4.709,2.549a2.137,2.137,0,0,1-1.678-.814,2.908,2.908,0,0,1-.694-1.942c0-.419.342-2.6,1.016-6.479l4.88-28.047h-6.064l-1.153,6.479a15.254,15.254,0,0,0-4.607-5.787,9.6,9.6,0,0,0-5.625-1.9c-2.564,0-5.244,1.125-7.963,3.344a25.027,25.027,0,0,0-6.859,10.01,34.69,34.69,0,0,0-2.763,13.312,26.94,26.94,0,0,0,1.779,9.907,15.2,15.2,0,0,0,4.625,6.687,8.907,8.907,0,0,0,11.334.272,20.3,20.3,0,0,0,4.93-5.037,12.948,12.948,0,0,0,.644,3.6,5.183,5.183,0,0,0,2.117,2.507,7.213,7.213,0,0,0,3.779.879c4.856,0,9.393-2.841,13.484-8.444a35.551,35.551,0,0,0,6.913-21.524,37.675,37.675,0,0,0-3.288-15.715,28.709,28.709,0,0,0-10.554-12.644A27.709,27.709,0,0,0,3741.264,8543.775Zm-7.148,56.342c-1.89,0-3.588-1.069-5.049-3.177s-2.2-5.1-2.2-8.9a32.762,32.762,0,0,1,1.083-7.9,27.387,27.387,0,0,1,2.88-7.313,14.246,14.246,0,0,1,3.711-4.369,6.972,6.972,0,0,1,4.083-1.356,6.76,6.76,0,0,1,5.573,3.135c1.517,2.077,2.286,5.045,2.286,8.818a30.806,30.806,0,0,1-1.219,8.506,23.836,23.836,0,0,1-3.135,7,15.66,15.66,0,0,1-4.015,4.161A7.311,7.311,0,0,1,3734.116,8600.117Z" transform="translate(-3474.948 -8501.999)" fill="#ec691f"/>
      </g>
      <path id="Path_102149" data-name="Path 102149" d="M3796.186,8587.916h-9.231c.014-.224,1.36-22.781-4.135-36.912a40.079,40.079,0,0,0-19.088-20.362h-3.184l-11.136,25.454L3695,8572.96l13.045-48.367H3695L3706.137,8502l73.5,2.229,19.094,36.912-2.546,46.773Zm-76.739-62.089-.005.009a99.181,99.181,0,0,0-12.336,34.781c.2-.029,21.237-3.2,31.2-8.654,5.191-2.845,7.362-6.329,8.268-8.75a10.489,10.489,0,0,0,.731-4.619l-2.745-4.881c-.028.017-.451.267-1.166.682-14.337,8.376-21.73,12.672-21.975,12.769a38.549,38.549,0,0,0-3.25,4.025l-2.664-.766,5.143-8.228,25.884-14.4-1.117-1.632-25.964-.341Z" transform="translate(4820.016 -2008.365)" fill="#ec691f"/>
    </g>
  </g>
</svg>
