<svg xmlns="http://www.w3.org/2000/svg" width="512" height="512" viewBox="0 0 512 512">
  <g id="cold_chain_logistic" transform="translate(-5883 -2860)">
    <g id="Path_131322" data-name="Path 131322" transform="translate(5883 2860)" fill="none">
      <path d="M256,0C397.385,0,512,114.615,512,256S397.385,512,256,512,0,397.385,0,256,114.615,0,256,0Z" stroke="none"/>
      <path d="M 256 12 C 121.4579162597656 12 12 121.4579162597656 12 256 C 12 390.5420837402344 121.4579162597656 500 256 500 C 390.5420837402344 500 500 390.5420837402344 500 256 C 500 121.4579162597656 390.5420837402344 12 256 12 M 256 0 C 397.3848571777344 0 512 114.6150817871094 512 256 C 512 397.3848571777344 397.3848571777344 512 256 512 C 114.6150817871094 512 0 397.3848571777344 0 256 C 0 114.6150817871094 114.6150817871094 0 256 0 Z" stroke="none" fill="#0d1b3a"/>
    </g>
    <g id="Group_30629" data-name="Group 30629" transform="translate(0.002 30.998)">
      <path id="Path_131323" data-name="Path 131323" d="M20905.006,9279.677a37.618,37.618,0,0,1-37.572-37.578c0-.065,0-.131,0-.194,0-.021,0-.041,0-.062,0-.043,0-.088,0-.132h-133.7c0,.065,0,.131,0,.194s0,.129,0,.194a37.57,37.57,0,1,1-75.141,0c0-.065,0-.13,0-.194s0-.129,0-.194h-32.043a12.277,12.277,0,0,1-12.262-12.262v-13.056h-19.381a5.933,5.933,0,1,1,0-11.866h56.953a5.933,5.933,0,0,1,0,11.866h-25.711l0,13.056a.394.394,0,0,0,.393.395h34.1a37.582,37.582,0,0,1,71.016,0h123.088v-44.691a5.934,5.934,0,1,1,11.867,0v44.691h2.857a37.583,37.583,0,0,1,71.014,0h15.514v-26.105h-6.725a18.61,18.61,0,0,1-18.592-18.586V9172.5a5.941,5.941,0,0,1,5.936-5.931h18.449a19.343,19.343,0,0,0-18.439-13.45h-70.014v6.726a5.934,5.934,0,0,1-11.867,0V9052.264a.4.4,0,0,0-.395-.4H20792.5V9040h61.881a12.279,12.279,0,0,1,12.262,12.267v13.05h44.691a24.945,24.945,0,0,1,24.918,24.917v6.325a5.941,5.941,0,0,1-4.7,5.8l9.814,39.245a31.259,31.259,0,0,1,26.523,30.89v63.278a5.944,5.944,0,0,1-5.937,5.937h-19.391c.006.135.01.259.01.389A37.618,37.618,0,0,1,20905.006,9279.677Zm.006-63.278a25.706,25.706,0,1,0,25.705,25.706A25.737,25.737,0,0,0,20905.012,9216.4Zm-208.832,0a25.706,25.706,0,1,0,25.711,25.706A25.735,25.735,0,0,0,20696.18,9216.4Zm246.406-37.973v6.726a6.729,6.729,0,0,0,6.719,6.725h6.725v-13.45Zm-75.941-75.935h0v38.757h62.4l-9.687-38.757Zm0-25.312h0v13.445h57.742v-.395a13.065,13.065,0,0,0-13.051-13.051Zm-246.4,88.591a5.937,5.937,0,0,1-5.93-5.931V9052.264A12.275,12.275,0,0,1,20626.57,9040h88.928v11.866h-88.928a.4.4,0,0,0-.393.4V9159.84A5.939,5.939,0,0,1,20620.244,9165.771Z" transform="translate(-14639 -6044)" fill="#0d1b3a"/>
      <g id="Group_8021" data-name="Group 8021" transform="translate(6044.922 3185.843)">
        <g id="Group_8020" data-name="Group 8020">
          <path id="Path_7773" data-name="Path 7773" d="M140.528,350.6a12.261,12.261,0,1,0,12.261,12.261A12.274,12.274,0,0,0,140.528,350.6Z" transform="translate(-128.267 -350.597)" fill="#ec691f"/>
        </g>
      </g>
      <g id="Group_8023" data-name="Group 8023" transform="translate(6253.748 3185.843)">
        <g id="Group_8022" data-name="Group 8022">
          <path id="Path_7774" data-name="Path 7774" d="M422.716,350.6a12.261,12.261,0,1,0,12.261,12.261A12.274,12.274,0,0,0,422.716,350.6Z" transform="translate(-410.455 -350.597)" fill="#ec691f"/>
        </g>
      </g>
      <g id="Group_30628" data-name="Group 30628" transform="translate(64)">
        <g id="Path_131321" data-name="Path 131321" transform="translate(-14590.006 -6100)" fill="none" stroke-linecap="round" stroke-linejoin="round">
          <path d="M20592,9208.113a50.1,50.1,0,0,1,25.148-43.459q-.1-1.116-.1-2.259V9059.677a25.68,25.68,0,0,1,51.359,0V9162.4a25.6,25.6,0,0,1-.172,2.963,50.107,50.107,0,1,1-76.238,42.755Z" stroke="none"/>
          <path d="M 20642.10546875 9248.21875 C 20664.21875 9248.21875 20682.2109375 9230.2275390625 20682.2109375 9208.11328125 C 20682.2109375 9194.041015625 20675.037109375 9181.24609375 20663.01953125 9173.8857421875 C 20659.697265625 9171.8515625 20657.859375 9168.0712890625 20658.30859375 9164.201171875 C 20658.37890625 9163.6083984375 20658.4140625 9163.005859375 20658.4140625 9162.3955078125 L 20658.4140625 9059.6767578125 C 20658.4140625 9051.033203125 20651.37890625 9044.001953125 20642.73046875 9044.001953125 C 20634.0859375 9044.001953125 20627.0546875 9051.033203125 20627.0546875 9059.6767578125 L 20627.0546875 9162.3955078125 C 20627.0546875 9162.8564453125 20627.072265625 9163.314453125 20627.11328125 9163.765625 C 20627.458984375 9167.646484375 20625.51953125 9171.3759765625 20622.142578125 9173.3203125 C 20609.720703125 9180.4716796875 20602.00390625 9193.8037109375 20602.00390625 9208.11328125 C 20602.00390625 9230.2275390625 20619.994140625 9248.21875 20642.10546875 9248.21875 M 20642.10546875 9258.21875 C 20614.43359375 9258.21875 20592.00390625 9235.791015625 20592.00390625 9208.11328125 C 20592.00390625 9189.5283203125 20602.125 9173.3056640625 20617.15234375 9164.654296875 C 20617.0859375 9163.91015625 20617.0546875 9163.15625 20617.0546875 9162.3955078125 L 20617.0546875 9059.6767578125 C 20617.0546875 9045.4970703125 20628.55078125 9034.001953125 20642.73046875 9034.001953125 C 20656.91796875 9034.001953125 20668.4140625 9045.4970703125 20668.4140625 9059.6767578125 L 20668.4140625 9162.3955078125 C 20668.4140625 9163.3974609375 20668.35546875 9164.3857421875 20668.2421875 9165.3583984375 C 20682.62109375 9174.1650390625 20692.2109375 9190.01953125 20692.2109375 9208.11328125 C 20692.2109375 9235.791015625 20669.77734375 9258.21875 20642.10546875 9258.21875 Z" stroke="none" fill="#0d1b3a"/>
        </g>
        <path id="Path_131324" data-name="Path 131324" d="M20589,9132.957a15.036,15.036,0,0,1,10.018-14.177V9039.01a5.012,5.012,0,0,1,10.023,0v79.772a15.034,15.034,0,1,1-20.041,14.175Z" transform="translate(-14551.927 -6022.336)" fill="#e36410"/>
        <path id="Path_131325" data-name="Path 131325" d="M5.011,0a5.011,5.011,0,0,1,5.011,5.011V20.042A5.011,5.011,0,0,1,0,20.042V5.011A5.011,5.011,0,0,1,5.011,0Z" transform="translate(6047.095 2979.094)" fill="#0d1b3a"/>
      </g>
    </g>
  </g>
</svg>
