<svg xmlns="http://www.w3.org/2000/svg" width="512" height="512" viewBox="0 0 512 512">
  <g id="express_logistics" transform="translate(10041 3374)">
    <g id="Group_2139" data-name="Group 2139" transform="translate(-10041 -3374)">
      <g id="Ellipse_88" data-name="Ellipse 88" fill="none" stroke="#0d1b3a" stroke-width="12">
        <circle cx="256" cy="256" r="256" stroke="none"/>
        <circle cx="256" cy="256" r="250" fill="none"/>
      </g>
    </g>
    <g id="Group_9335" data-name="Group 9335" transform="translate(-59.207 -38.873)">
      <g id="Group_2166" data-name="Group 2166" transform="translate(-9824.844 -3017.137)">
        <g id="Group_2165" data-name="Group 2165">
          <path id="Path_5261" data-name="Path 5261" d="M93.573,344.692h-.058a5.356,5.356,0,1,0,.058,0Z" transform="translate(-88.218 -344.692)" fill="#ec691f"/>
        </g>
      </g>
      <g id="Group_2168" data-name="Group 2168" transform="translate(-9779.293 -3017.137)">
        <g id="Group_2167" data-name="Group 2167">
          <path id="Path_5262" data-name="Path 5262" d="M157.7,344.692h-.057a5.356,5.356,0,1,0,.057,0Z" transform="translate(-152.347 -344.692)" fill="#ec691f"/>
        </g>
      </g>
      <g id="Group_2170" data-name="Group 2170" transform="translate(-9591.403 -3017.137)">
        <g id="Group_2169" data-name="Group 2169">
          <path id="Path_5263" data-name="Path 5263" d="M422.235,344.692h-.057a5.356,5.356,0,1,0,.057,0Z" transform="translate(-416.879 -344.692)" fill="#ec691f"/>
        </g>
      </g>
      <path id="Path_57093" data-name="Path 57093" d="M262.437,170.072H129.723A28.086,28.086,0,0,1,89.152,189.66a28.436,28.436,0,0,1-9.793-8.482,28.431,28.431,0,0,1-9.792,8.482A28.085,28.085,0,0,1,29,170.072H16.729a11.033,11.033,0,0,1-11.02-11.02V147.3H0V136.647H227.395a5.327,5.327,0,1,1,0,10.654H124.141a28.109,28.109,0,0,1,5.582,12.118H262.437a28.126,28.126,0,0,1,5.582-12.117H250.172a5.328,5.328,0,0,1,0-10.655h11.752V11.02a.368.368,0,0,0-.367-.366H35.848A5.387,5.387,0,1,1,34.714,0H261.557a11.033,11.033,0,0,1,11.02,11.02V34.16h51.609a5.327,5.327,0,0,1,1.614,10.4L340.23,87.852l7.162,7.162a16.6,16.6,0,0,1,4.9,11.819v46.529a11.033,11.033,0,0,1-11.02,11.02H318.116c0,.051,0,.1,0,.151,0,.071.005.141.005.213a28.1,28.1,0,0,1-55.689,5.326Zm10.141-5.325A17.448,17.448,0,1,0,290.063,147.3h-.147A17.489,17.489,0,0,0,272.578,164.747Zm-187.89,0A17.448,17.448,0,1,0,102.244,147.3h-.219A17.488,17.488,0,0,0,84.687,164.747Zm-45.549,0A17.448,17.448,0,1,0,56.695,147.3h-.219A17.488,17.488,0,0,0,39.138,164.747Zm-22.775-5.694a.367.367,0,0,0,.366.366H29A28.116,28.116,0,0,1,34.578,147.3H16.363Zm289.322-17.629a28.178,28.178,0,0,1,10.19,12.3h25.394a.367.367,0,0,0,.366-.366V130.221h-6.06a5.327,5.327,0,1,1,0-10.654h6.06V106.834a6.025,6.025,0,0,0-1.775-4.286l-.8-.8H295.719A11.033,11.033,0,0,1,284.7,90.729V62.26a5.333,5.333,0,0,1,5.328-5.326h28.668l-4.04-12.12H272.945a.368.368,0,0,0-.367.366v91.468h17.338l.056,0h.054A27.923,27.923,0,0,1,305.685,141.424ZM295.352,90.729a.368.368,0,0,0,.367.366h34.362l-7.836-23.508H295.352Z" transform="translate(-9876.13 -3176)" fill="#0d1b3a"/>
      <g id="Group_2174" data-name="Group 2174" transform="translate(-9926.975 -3062.684)">
        <g id="Group_2173" data-name="Group 2173">
          <path id="Path_5265" data-name="Path 5265" d="M179.539,280.567H35.435c-1.861,0-3.371,2.385-3.371,5.327s1.509,5.327,3.371,5.327h144.1c1.861,0,3.371-2.385,3.371-5.327S181.4,280.567,179.539,280.567Z" transform="translate(-32.064 -280.567)" fill="#ec691f"/>
        </g>
      </g>
      <rect id="Rectangle_3430" data-name="Rectangle 3430" width="156.815" height="10.774" rx="5" transform="translate(-9892.29 -3104.177)" fill="#0d1b3a"/>
      <rect id="Rectangle_3431" data-name="Rectangle 3431" width="177.165" height="10.774" rx="5" transform="translate(-9874.334 -3143.679)" fill="#0d1b3a"/>
    </g>
  </g>
</svg>
