<svg xmlns="http://www.w3.org/2000/svg" width="878.439" height="200" viewBox="0 0 878.439 200">
  <g id="Group_639" data-name="Group 639" transform="translate(699)">
    <g id="Group_273" data-name="Group 273" transform="translate(123.08 97.791)">
      <path id="Path_284" data-name="Path 284" d="M7550.543,2758.1h-23.129a16.616,16.616,0,0,0-16.615,16.616v68.35a16.577,16.577,0,0,0,16.615,16.611h23.129a16.58,16.58,0,0,0,16.615-16.611v-68.35A16.62,16.62,0,0,0,7550.543,2758.1Zm11.785,84.966a11.757,11.757,0,0,1-11.785,11.773h-23.129a11.789,11.789,0,0,1-11.781-11.773v-68.35a11.792,11.792,0,0,1,11.781-11.778h23.129a11.8,11.8,0,0,1,11.785,11.778Z" transform="translate(-7510.799 -2758.099)" fill="#00164e"/>
      <g id="Group_269" data-name="Group 269" transform="translate(18.717 1.84)">
        <rect id="Rectangle_145" data-name="Rectangle 145" width="5.1" height="98.37" transform="translate(13.775)" fill="#00164e"/>
        <rect id="Rectangle_146" data-name="Rectangle 146" width="5.1" height="98.37" fill="#00164e"/>
      </g>
      <g id="Group_272" data-name="Group 272" transform="translate(0.861 12.112)">
        <g id="Group_270" data-name="Group 270" transform="translate(44.374)">
          <path id="Path_285" data-name="Path 285" d="M7606.7,2785.218l-8.092,2.734a.541.541,0,0,1-.682-.313l-1.057-3.049a.546.546,0,0,1,.316-.685l8.1-2.734a.561.561,0,0,1,.689.314l1.039,3.05A.5.5,0,0,1,7606.7,2785.218Z" transform="translate(-7596.836 -2781.138)" fill="#00164e"/>
          <path id="Path_286" data-name="Path 286" d="M7606.7,2799.617l-8.092,2.732a.539.539,0,0,1-.682-.315l-1.057-3.046a.548.548,0,0,1,.316-.686l8.1-2.731a.556.556,0,0,1,.689.316l1.039,3.046A.505.505,0,0,1,7606.7,2799.617Z" transform="translate(-7596.836 -2787.965)" fill="#00164e"/>
          <path id="Path_287" data-name="Path 287" d="M7606.7,2814.02l-8.092,2.732a.539.539,0,0,1-.682-.315l-1.057-3.048a.548.548,0,0,1,.316-.686l8.1-2.732a.559.559,0,0,1,.689.316l1.039,3.047A.506.506,0,0,1,7606.7,2814.02Z" transform="translate(-7596.836 -2794.795)" fill="#00164e"/>
          <path id="Path_288" data-name="Path 288" d="M7606.7,2828.419l-8.092,2.732a.537.537,0,0,1-.682-.315l-1.057-3.047a.547.547,0,0,1,.316-.685l8.1-2.734a.559.559,0,0,1,.689.315l1.039,3.046A.491.491,0,0,1,7606.7,2828.419Z" transform="translate(-7596.836 -2801.625)" fill="#00164e"/>
          <path id="Path_289" data-name="Path 289" d="M7606.7,2842.815l-8.092,2.738a.544.544,0,0,1-.682-.318l-1.057-3.05a.547.547,0,0,1,.316-.685l8.1-2.731a.565.565,0,0,1,.689.318l1.039,3.046A.486.486,0,0,1,7606.7,2842.815Z" transform="translate(-7596.836 -2808.452)" fill="#00164e"/>
          <path id="Path_290" data-name="Path 290" d="M7606.7,2857.216l-8.092,2.736a.54.54,0,0,1-.682-.316l-1.057-3.051a.54.54,0,0,1,.316-.68l8.1-2.736a.561.561,0,0,1,.689.314l1.039,3.048C7607.119,2856.85,7607.012,2857.165,7606.7,2857.216Z" transform="translate(-7596.836 -2815.282)" fill="#00164e"/>
          <path id="Path_291" data-name="Path 291" d="M7606.7,2871.716l-8.092,2.735a.543.543,0,0,1-.682-.317l-1.057-3.049a.546.546,0,0,1,.316-.684l8.1-2.73a.555.555,0,0,1,.689.313l1.039,3.047A.506.506,0,0,1,7606.7,2871.716Z" transform="translate(-7596.836 -2822.157)" fill="#00164e"/>
          <path id="Path_292" data-name="Path 292" d="M7606.7,2886.117l-8.092,2.737a.542.542,0,0,1-.682-.318l-1.057-3.05a.546.546,0,0,1,.316-.684l8.1-2.731a.557.557,0,0,1,.689.316l1.039,3.048A.5.5,0,0,1,7606.7,2886.117Z" transform="translate(-7596.836 -2828.988)" fill="#00164e"/>
          <path id="Path_293" data-name="Path 293" d="M7606.7,2900.515l-8.092,2.734a.538.538,0,0,1-.682-.314l-1.057-3.05a.544.544,0,0,1,.316-.682l8.1-2.734a.561.561,0,0,1,.689.317l1.039,3.047A.5.5,0,0,1,7606.7,2900.515Z" transform="translate(-7596.836 -2835.815)" fill="#00164e"/>
          <path id="Path_294" data-name="Path 294" d="M7606.7,2914.919l-8.092,2.734a.542.542,0,0,1-.682-.315l-1.057-3.05a.546.546,0,0,1,.316-.685l8.1-2.733a.56.56,0,0,1,.689.314l1.039,3.051A.5.5,0,0,1,7606.7,2914.919Z" transform="translate(-7596.836 -2842.645)" fill="#00164e"/>
        </g>
        <g id="Group_271" data-name="Group 271">
          <path id="Path_295" data-name="Path 295" d="M7512.781,2785.218l8.1,2.734a.542.542,0,0,0,.68-.313l1.059-3.049a.553.553,0,0,0-.322-.685l-8.092-2.734a.546.546,0,0,0-.684.314l-1.053,3.05A.55.55,0,0,0,7512.781,2785.218Z" transform="translate(-7512.436 -2781.138)" fill="#00164e"/>
          <path id="Path_296" data-name="Path 296" d="M7512.781,2799.617l8.1,2.732a.54.54,0,0,0,.68-.315l1.059-3.046a.554.554,0,0,0-.322-.686l-8.092-2.731a.542.542,0,0,0-.684.316l-1.053,3.046A.553.553,0,0,0,7512.781,2799.617Z" transform="translate(-7512.436 -2787.965)" fill="#00164e"/>
          <path id="Path_297" data-name="Path 297" d="M7512.781,2814.02l8.1,2.732a.54.54,0,0,0,.68-.315l1.059-3.048a.554.554,0,0,0-.322-.686l-8.092-2.732a.544.544,0,0,0-.684.316l-1.053,3.047A.554.554,0,0,0,7512.781,2814.02Z" transform="translate(-7512.436 -2794.795)" fill="#00164e"/>
          <path id="Path_298" data-name="Path 298" d="M7512.781,2828.419l8.1,2.732a.538.538,0,0,0,.68-.315l1.059-3.047a.553.553,0,0,0-.322-.685l-8.092-2.734a.544.544,0,0,0-.684.315l-1.053,3.046A.532.532,0,0,0,7512.781,2828.419Z" transform="translate(-7512.436 -2801.625)" fill="#00164e"/>
          <path id="Path_299" data-name="Path 299" d="M7512.781,2842.815l8.1,2.738a.545.545,0,0,0,.68-.318l1.059-3.05a.554.554,0,0,0-.322-.685l-8.092-2.731a.55.55,0,0,0-.684.318l-1.053,3.046A.526.526,0,0,0,7512.781,2842.815Z" transform="translate(-7512.436 -2808.452)" fill="#00164e"/>
          <path id="Path_300" data-name="Path 300" d="M7512.781,2857.216l8.1,2.736a.54.54,0,0,0,.68-.316l1.059-3.051a.547.547,0,0,0-.322-.68l-8.092-2.736a.546.546,0,0,0-.684.314l-1.053,3.048A.51.51,0,0,0,7512.781,2857.216Z" transform="translate(-7512.436 -2815.282)" fill="#00164e"/>
          <path id="Path_301" data-name="Path 301" d="M7512.781,2871.716l8.1,2.735a.544.544,0,0,0,.68-.317l1.059-3.049a.552.552,0,0,0-.322-.684l-8.092-2.73a.541.541,0,0,0-.684.313l-1.053,3.047A.553.553,0,0,0,7512.781,2871.716Z" transform="translate(-7512.436 -2822.157)" fill="#00164e"/>
          <path id="Path_302" data-name="Path 302" d="M7512.781,2886.117l8.1,2.737a.543.543,0,0,0,.68-.318l1.059-3.05a.553.553,0,0,0-.322-.684l-8.092-2.731a.543.543,0,0,0-.684.316l-1.053,3.048A.548.548,0,0,0,7512.781,2886.117Z" transform="translate(-7512.436 -2828.988)" fill="#00164e"/>
          <path id="Path_303" data-name="Path 303" d="M7512.781,2900.515l8.1,2.734a.539.539,0,0,0,.68-.314l1.059-3.05a.551.551,0,0,0-.322-.682l-8.092-2.734a.546.546,0,0,0-.684.317l-1.053,3.047A.547.547,0,0,0,7512.781,2900.515Z" transform="translate(-7512.436 -2835.815)" fill="#00164e"/>
          <path id="Path_304" data-name="Path 304" d="M7512.781,2914.919l8.1,2.734a.543.543,0,0,0,.68-.315l1.059-3.05a.553.553,0,0,0-.322-.685l-8.092-2.733a.545.545,0,0,0-.684.314l-1.053,3.051A.551.551,0,0,0,7512.781,2914.919Z" transform="translate(-7512.436 -2842.645)" fill="#00164e"/>
        </g>
      </g>
    </g>
    <g id="Group_275" data-name="Group 275" transform="translate(0)">
      <g id="Group_274" data-name="Group 274">
        <path id="Path_305" data-name="Path 305" d="M7349.83,2572.1H7276.7v200h7.676V2579.721H7346V2772.1h7.678v-200Z" transform="translate(-7276.701 -2572.1)" fill="#00164e"/>
        <path id="Path_306" data-name="Path 306" d="M7345.174,2607.5h-37.068a5.294,5.294,0,0,0-5.3,5.309V2626a5.294,5.294,0,0,0,5.3,5.312h37.068a5.3,5.3,0,0,0,5.311-5.312v-13.2A5.3,5.3,0,0,0,7345.174,2607.5Zm.1,17.98h-36.588v-12.514h36.588Z" transform="translate(-7289.079 -2588.888)" fill="#00164e"/>
      </g>
      <rect id="Rectangle_147" data-name="Rectangle 147" width="76.971" height="7.098" transform="translate(0 192.901)" fill="#00164e"/>
    </g>
    <path id="Path_307" data-name="Path 307" d="M7417.9,2629.8h11.309a7.511,7.511,0,0,1,7.516,7.518v103.522a7.517,7.517,0,0,0,7.525,7.52h23.916" transform="translate(-7343.658 -2599.464)" fill="none" stroke="#00164e" stroke-miterlimit="10" stroke-width="16"/>
    <path id="Path_131246" data-name="Path 131246" d="M46.4-80.039v8.363H20.02v20.261H45.408v8.264H20.02v31.113H10.313v-68Zm13.042,0h16.3a82.424,82.424,0,0,1,9.17.373A29.6,29.6,0,0,1,91.108-78.2a16.087,16.087,0,0,1,5.949,3.46,16.157,16.157,0,0,1,3.9,5.6,17.72,17.72,0,0,1,1.4,7.019A14.991,14.991,0,0,1,98.51-51.44a18.129,18.129,0,0,1-10.54,5.252,15.405,15.405,0,0,1,4.841,3.31,26.646,26.646,0,0,1,3.643,6.048l11.428,24.791H96.753L88-32.449A33.952,33.952,0,0,0,84.519-39a7.221,7.221,0,0,0-3.655-2.638,21.731,21.731,0,0,0-6.142-.672h-5.57v30.266H59.446Zm9.707,8.363v21.007h6.01q17.187,0,17.187-10.6,0-6.372-4.5-8.388a28.832,28.832,0,0,0-11.7-2.016Zm87.564-8.363v8.363H128.591v19.962h26.085v8.363H128.591V-20.3h28.922v8.264h-38.63v-68Zm53.713,0v8.363H182.3v19.962h26.085v8.363H182.3V-20.3h28.922v8.264H172.6v-68Zm75.14,0,29.449,68H304.074l-7.113-17.224h-33.03l-7.014,17.224h-10.5l28.951-68Zm8.009,42.512-7.81-18.966q-2.338-5.426-3.482-8.537a66.741,66.741,0,0,1-2.039-6.646q-.746,2.738-1.766,5.451t-3.954,9.931l-7.511,18.767Zm41-42.512v68h-9.707v-68Zm18.22,0h16.3a82.423,82.423,0,0,1,9.17.373,29.6,29.6,0,0,1,6.188,1.469,16.087,16.087,0,0,1,5.949,3.46,16.158,16.158,0,0,1,3.9,5.6,17.72,17.72,0,0,1,1.4,7.019,14.991,14.991,0,0,1-3.846,10.678,18.129,18.129,0,0,1-10.54,5.252,15.406,15.406,0,0,1,4.841,3.31,26.647,26.647,0,0,1,3.643,6.048l11.428,24.791H390.109l-8.753-20.41A33.953,33.953,0,0,0,377.875-39a7.221,7.221,0,0,0-3.655-2.638,21.731,21.731,0,0,0-6.142-.672h-5.57v30.266H352.8Zm9.707,8.363v21.007h6.01q17.187,0,17.187-10.6,0-6.372-4.5-8.388a28.832,28.832,0,0,0-11.7-2.016Z" transform="translate(-709.313 212.039)" fill="#00164e"/>
    <path id="Path_131247" data-name="Path 131247" d="M-1.6-71.113V-80H56.958v8.887H47.218v51.984H37.479V-43.478H18.731v6.087a1.975,1.975,0,0,1-.852,1.7,2.633,2.633,0,0,1-1.948.73q-2.435,0-8.278-5.844-6.087-5.6-6.087-8.035a4.72,4.72,0,0,1,.73-2.678,2.24,2.24,0,0,1,1.948-1.1H8.991v-18.5Zm20.331,18.5H37.479v-18.5H18.731ZM5.1-3.546,9.357-9.755A36.3,36.3,0,0,0,22.14-3.06,53.6,53.6,0,0,0,38.453-.625,13.117,13.117,0,0,0,46-2.694q3.165-2.191,3.165-5.113a4.1,4.1,0,0,0-1.948-3.53A7.172,7.172,0,0,0,42.592-12.8a7.584,7.584,0,0,0-3.652.852A8.42,8.42,0,0,0,35.9-9.512L30.418-15.6a26.09,26.09,0,0,1,6.331-4.017,12.739,12.739,0,0,1,5.722-1.461,15.106,15.106,0,0,1,10.592,3.9,12.357,12.357,0,0,1,4.383,9.374q0,6.331-5.6,10.957a20.4,20.4,0,0,1-13.392,4.5A55.232,55.232,0,0,1,20.192,4.732,43.976,43.976,0,0,1,5.1-3.546ZM69.132-19.008l6.087-5.6,6.087,5.6-6.087,5.478ZM55.74-71.113V-80h57.827v8.887H96.889v11.078a12.32,12.32,0,0,1,4.5-3.53,13.5,13.5,0,0,1,6.209-1.217,10.716,10.716,0,0,1,4.017.609,6.677,6.677,0,0,1,3.165,1.826v10.591q-2.557-1.948-4.139-2.922a5.822,5.822,0,0,0-3.044-.974,11.282,11.282,0,0,0-5.965,1.7,12.951,12.951,0,0,0-4.748,4.383v30.435H87.149V-40.069a8.255,8.255,0,0,1-3.9,2.922A14.5,14.5,0,0,1,77.41-35.93,14.5,14.5,0,0,1,66.332-40.8a16.22,16.22,0,0,1-4.626-11.565V-71.113ZM77.41-45.06a10.566,10.566,0,0,0,5.113-1.583,20.79,20.79,0,0,0,4.626-4.626V-71.113h-15.7v18.748a7.962,7.962,0,0,0,1.7,5.235A5.533,5.533,0,0,0,77.41-45.06Zm33.722-26.053V-80H173.1v8.887h-9.739v51.984H153.62V-53.46H131.463a5.265,5.265,0,0,0-3.9,1.461,5.816,5.816,0,0,0-1.7,3.53A20.982,20.982,0,0,0,130-36.417a44.318,44.318,0,0,0,11.444,11.2l-5.6,6.7a59.24,59.24,0,0,1-14.487-14.731q-5.235-7.791-5.235-15.218a13.075,13.075,0,0,1,4.5-9.983,15.177,15.177,0,0,1,10.835-4.139H153.62v-8.522Zm85.1,0V-80h54.053v8.887h-7.67v13.27H218.386a8.131,8.131,0,0,0-3.652.73,2.438,2.438,0,0,0-1.461,2.07,5.437,5.437,0,0,0,1.461,3.165A26.282,26.282,0,0,0,219-47.86a21,21,0,0,1,8.278-1.7,18.56,18.56,0,0,1,12.3,4.383,12.679,12.679,0,0,1,5.113,10.226,10.882,10.882,0,0,1-1.7,5.722,16.793,16.793,0,0,1-4.748,5.113l-6.574-5.235a9.609,9.609,0,0,0,2.435-2.678,5.336,5.336,0,0,0,.852-2.922,4.679,4.679,0,0,0-2.191-3.9,9.833,9.833,0,0,0-5.478-1.583,16.055,16.055,0,0,0-9.983,3.044q-4.139,3.165-4.139,7.426.122,6.331,6.087,10.591a25.343,25.343,0,0,0,14.609,4.5H244.8v9.131H233.6q-12.539,0-21.426-7.061t-8.765-17.166a15.479,15.479,0,0,1,1.826-7.426,16.9,16.9,0,0,1,5.357-5.844,17.07,17.07,0,0,1-5.113-5.478,12.8,12.8,0,0,1-1.948-6.574,10.183,10.183,0,0,1,4.383-8.278,17.578,17.578,0,0,1,10.713-3.409h14.244v-4.139Zm51.618,0V-80h55.027v8.887h-9.739v51.984H283.4V-34.59a12.74,12.74,0,0,1-4.748,3.287,19.375,19.375,0,0,1-6.818,1.1A19.8,19.8,0,0,1,258.2-35.443a16.049,16.049,0,0,1-5.722-12.418A16.049,16.049,0,0,1,258.2-60.278a19.949,19.949,0,0,1,13.757-5.235,43.752,43.752,0,0,1,6.087.365,15.057,15.057,0,0,1,3.9,1.217L279.5-54.921a8.147,8.147,0,0,0-2.922-1.1,27.549,27.549,0,0,0-4.748-.365,10.8,10.8,0,0,0-6.939,2.435,7.885,7.885,0,0,0-2.678,6.087,7.387,7.387,0,0,0,2.922,6.087,9.863,9.863,0,0,0,6.7,2.435,13.47,13.47,0,0,0,6.7-1.7,13.322,13.322,0,0,0,4.87-4.626V-71.113Zm52.592,0V-80h29.218v8.887h-9.739v51.984h-9.739V-71.113Z" transform="translate(-697.4 80)" fill="#00164e"/>
  </g>
</svg>
