<?xml version="1.0" encoding="utf-8"?>
<!-- Generator: Adobe Illustrator 22.0.1, SVG Export Plug-In . SVG Version: 6.00 Build 0)  -->
<svg version="1.1" id="Layer_1" xmlns="http://www.w3.org/2000/svg" xmlns:xlink="http://www.w3.org/1999/xlink" x="0px" y="0px"
	 viewBox="0 0 635 1495.5" style="enable-background:new 0 0 635 1495.5;" xml:space="preserve">
<style type="text/css">
	.st0{fill:#616161;}
	.st1{fill:#444444;}
	.st2{fill:#AFAFAF;}
	.st3{fill:#F5F5F5;}
	.st4{fill:#D3D3D3;}
	.st5{fill:#FF975D;}
	.st6{fill:#00164E;}
	.st7{fill:none;stroke:#00164E;stroke-width:8.8799;stroke-miterlimit:10;}
	.st8{fill:none;stroke:#00164E;stroke-width:1.6209;stroke-miterlimit:10;}
</style>
<g id="Group_6391" transform="translate(-1.659 -0.017)">
	<path id="Path_128188" class="st0" d="M72.3,1492.1l-70.6-28.2l45-13l57.4,20.4L72.3,1492.1z"/>
	<path id="Path_128189" class="st0" d="M525.1,1365.7l-84.8-36.4l45-13l57.4,20.4L525.1,1365.7z"/>
	<path id="Path_128186" class="st1" d="M65.1,189.7h48v1293c0,0-2,12.8-24.4,12.8s-23.6-12.8-23.6-12.8V189.7z"/>
	<path id="Path_128187" class="st1" d="M514,112.6h48v1244.4c0,0-2,12.3-24.4,12.3c-22.5,0-23.6-12.3-23.6-12.3V112.6z"/>
	<g id="Group_635" transform="translate(-0.249 1064.127) rotate(-5)">
		<path id="Path_128172" class="st2" d="M11.1,327.1L0,315.7l15.4-210l11.1,11.5L11.1,327.1z"/>
		<path id="Path_128174" class="st3" d="M610.7,11.5l-15.4,210L11.1,327.1l15.4-210L610.7,11.5z"/>
		<path id="Path_128175" class="st4" d="M26.4,117.1l-11.1-11.5L599.6,0l11.1,11.5L26.4,117.1z"/>
		<path id="Path_128181" class="st5" d="M70.9,188.3L11.1,327.2l15.4-210L610.7,11.5l-508.3,147C89.2,162.2,77.2,173.7,70.9,188.3z"
			/>
	</g>
	<g id="Group_634" transform="translate(-0.249 811.571) rotate(-5)">
		<path id="Path_128172-2" class="st2" d="M11.1,327.1L0,315.7l15.4-210l11.1,11.5L11.1,327.1z"/>
		<path id="Path_128174-2" class="st3" d="M610.7,11.5l-15.4,210L11.1,327.1l15.4-210L610.7,11.5z"/>
		<path id="Path_128175-2" class="st4" d="M26.4,117.1l-11.1-11.5L599.6,0l11.1,11.5L26.4,117.1z"/>
		<path id="Path_128181-2" class="st5" d="M70.9,188.3L11.1,327.2l15.4-210L610.7,11.5l-508.3,147C89.2,162.2,77.2,173.7,70.9,188.3
			z"/>
	</g>
	<g id="Group_636" transform="translate(-0.249 558.686) rotate(-5)">
		<path id="Path_128172-3" class="st2" d="M11.1,327.1L0,315.7l15.4-210l11.1,11.5L11.1,327.1z"/>
		<path id="Path_128174-3" class="st3" d="M610.7,11.5l-15.4,210L11.1,327.1l15.4-210L610.7,11.5z"/>
		<path id="Path_128175-3" class="st4" d="M26.4,117.1l-11.1-11.5L599.6,0l11.1,11.5L26.4,117.1z"/>
		<path id="Path_128181-3" class="st5" d="M70.9,188.3L11.1,327.2l15.4-210L610.7,11.5l-508.3,147C89.2,162.2,77.2,173.7,70.9,188.3
			z"/>
	</g>
	<g id="Group_637" transform="translate(-0.249 306.13) rotate(-5)">
		<path id="Path_128172-4" class="st2" d="M11.1,327.1L0,315.7l15.4-210l11.1,11.5L11.1,327.1z"/>
		<path id="Path_128174-4" class="st3" d="M610.7,11.5l-15.4,210L11.1,327.1l15.4-210L610.7,11.5z"/>
		<path id="Path_128175-4" class="st4" d="M26.4,117.1l-11.1-11.5L599.6,0l11.1,11.5L26.4,117.1z"/>
		<path id="Path_128181-4" class="st5" d="M70.9,188.3L11.1,327.2l15.4-210L610.7,11.5l-508.3,147C89.2,162.2,77.2,173.7,70.9,188.3
			z"/>
	</g>
	<g id="Group_638" transform="translate(-0.249 53.245) rotate(-5)">
		<path id="Path_128172-5" class="st2" d="M11.1,327.1L0,315.7l15.4-210l11.1,11.5L11.1,327.1z"/>
		<path id="Path_128174-5" class="st3" d="M610.7,11.5l-15.4,210L11.1,327.1l15.4-210L610.7,11.5z"/>
		<path id="Path_128175-5" class="st4" d="M26.4,117.1l-11.1-11.5L599.6,0l11.1,11.5L26.4,117.1z"/>
		<path id="Path_128181-5" class="st5" d="M70.9,188.3L11.1,327.2l15.4-210L610.7,11.5l-508.3,147C89.2,162.2,77.2,173.7,70.9,188.3
			z"/>
	</g>
</g>
<g id="Group_302" transform="translate(593)">
	<path id="Path_105" class="st6" d="M-106.2,124.5c0.2,4.8-3.3,9.8-7.8,11.1s-8.3-1.5-8.5-6.4c-0.2-4.8,3.3-9.8,7.8-11.1
		C-110.2,116.8-106.4,119.7-106.2,124.5C-106.2,124.5-106.2,124.5-106.2,124.5 M-126.2,156.5c0,0.6,0.9,20.6,1,23l0,0.3l0,0
		c0.1,2.4-1.3,4.7-3.5,5.3s-3.7-0.9-3.8-3.2l-1-26.4c-0.2-6.1,4.2-12.4,9.9-14.1c0,0,0,0,0,0l19.5-5.6c5.7-1.7,10.6,1.9,10.8,8.1
		l1,26.4c0.1,2.3-1.3,4.7-3.5,5.3c-2.2,0.6-3.7-0.9-3.8-3.2l0,0l-0.7-17.6l0,0l-0.1-2.6l0,0l-0.1-3.1c0-0.6-0.4-1-1-0.9
		c-0.6,0.2-1.1,0.9-1.1,1.5l2.5,64.7c0,0,0,0.1,0,0.1l0,0.3c0,0,0,0.1,0,0.1c0,0,0,0.1,0,0.1c0,0,0,0.1,0,0.1c0,0,0,0.1,0,0.1
		c0,0,0,0.1,0,0.1c0,0,0,0.1,0,0.1s0,0.1,0,0.1c0,0,0,0.1,0,0.1s0,0.1,0,0.1c0,0,0,0.1,0,0.1c0,0,0,0.1,0,0.1s0,0.1,0,0.1
		c0,0,0,0.1,0,0.1c0,0.1,0,0.1-0.1,0.1c0,0.1,0,0.1-0.1,0.1s0,0.1-0.1,0.1c0,0.1,0,0.1-0.1,0.1c0,0.1,0,0.1-0.1,0.1
		c0,0.1,0,0.1-0.1,0.1c0,0.1,0,0.1-0.1,0.1c0,0.1,0,0.1-0.1,0.1c0,0.1,0,0.1-0.1,0.1l-0.1,0.1l-0.1,0.1l-0.1,0.1
		c0,0.1-0.1,0.1-0.1,0.1l-0.1,0.1c0,0.1,0,0.1-0.1,0.1l-0.1,0.1c0,0.1-0.1,0.1-0.1,0.1c0,0.1-0.1,0.1-0.1,0.1c0,0.1-0.1,0.1-0.1,0.1
		c0,0.1-0.1,0.1-0.1,0.1c0,0-0.1,0.1-0.1,0.1c0,0-0.1,0.1-0.1,0.1c0,0.1-0.1,0.1-0.1,0.1c0,0-0.1,0.1-0.1,0.1c0,0-0.1,0.1-0.1,0.1
		c0,0-0.1,0.1-0.1,0.1c0,0-0.1,0.1-0.1,0.1c0,0-0.1,0.1-0.1,0.1s-0.1,0.1-0.1,0.1c0,0-0.1,0.1-0.1,0.1c0,0-0.1,0.1-0.1,0.1
		s-0.1,0.1-0.1,0.1s-0.1,0.1-0.1,0.1c0,0-0.1,0.1-0.1,0.1c0,0-0.1,0-0.1,0.1c0,0-0.1,0-0.1,0.1c0,0-0.1,0-0.1,0.1l-0.7,0.2
		c-2.6,0.8-4.9-0.9-5-3.7c0,0,0,0,0,0l-1.4-36c0-0.6-0.5-0.9-1.1-0.8c-0.5,0.2-1,0.8-1,1.4l1.4,36c0.1,2.8-1.9,5.7-4.6,6.5
		c-2.6,0.8-4.9-0.9-5-3.7l-2.5-64.2c0-0.6-0.5-0.9-1.1-0.8l-0.4,0.1C-125.8,155.3-126.3,155.9-126.2,156.5L-126.2,156.5z"/>
	<g id="Group_170" transform="translate(0 0)">
		<path id="Path_106" class="st6" d="M-187.7,139.1c4.6-1.3,8.4,1.6,8.6,6.5c0.2,4.9-3.4,9.9-7.9,11.2c-4.6,1.3-8.4-1.6-8.6-6.5
			C-195.8,145.4-192.2,140.4-187.7,139.1"/>
		<path id="Path_107" class="st6" d="M-181.7,207.2c0.4,9.9,0.9,21.3,1.3,31.3c0.1,1.9,1.2,3.4,3.9,2.6c2.6-0.8,3.6-2.7,3.4-4.7
			l-1.2-31.3L-181.7,207.2z"/>
		<path id="Path_108" class="st6" d="M-191.1,210.1c0.4,9.9,0.9,21.2,1.3,31.1c0.1,1.9,1.2,3.4,3.9,2.6c2.7-0.8,3.6-2.7,3.4-4.7
			l-1.3-31.2L-191.1,210.1z"/>
		<path id="Path_109" class="st6" d="M-177.9,156.1c-5.5,1.6-11.8,3.1-17.3,5c-2.3,0.8-5.5,5.9-6.8,12.8l-4.3,23.8
			c-0.3,2.4,0.3,4.3,2.2,4.4c2.1,0,3.9-1.9,4.7-5.1c1.3-7.6,2.9-15.1,4.2-22.7c0.1-0.4,0.4-0.7,0.7-0.7c0.3,0,0.5,0.3,0.5,0.6
			c0,0,0,0,0,0l-8,41.4l37.8-11c-4.2-11.8-8.5-23.6-12.7-35.4c-0.2-0.2-0.1-0.6,0.2-0.9c0.3-0.2,0.6-0.2,0.8,0c0,0,0,0,0,0.1
			c2.9,7.3,5.1,12.5,7.9,19.8c0.6,1.7,2.4,2.3,4.2,1.3c0.1-0.1,0.3-0.2,0.4-0.3c2-1.5,2.3-3.8,1.5-5.7c-2.4-6.4-5.3-12.6-7.2-19.3
			C-170.7,158.9-173.5,156.4-177.9,156.1"/>
	</g>
	<polygon id="Rectangle_101" class="st6" points="-149,128.2 -147.1,127.7 -143.1,231.1 -145,231.6 	"/>
	<polygon id="Rectangle_102" class="st6" points="-81.2,108.7 -79.3,108.1 -75.3,211.5 -77.2,212 	"/>
	<g id="Group_171" transform="translate(281.813 0.311)">
		<path id="Path_110" class="st6" d="M-294.9,162.7c-1.7,15.1-14,28.5-27.6,30c-13.6,1.5-23.3-9.5-21.6-24.5
			c0.7-6.6,3.6-13.2,8.1-18.6l-0.3-7.9c-14.3,13.5-18.3,35.1-9,48.2c9.3,13.1,28.4,12.8,42.7-0.7c5.8-5.5,10.2-12.7,12.4-20.4
			L-294.9,162.7z"/>
		
			<ellipse id="Ellipse_12" transform="matrix(0.5407 -0.8412 0.8412 0.5407 -241.3897 -225.2986)" class="st6" cx="-327" cy="108.4" rx="9.6" ry="7.5"/>
		<path id="Path_111" class="st6" d="M-295,140.5l-20.8,6l-0.4-5.1l15.2-4.4c2-0.6,3.6-2.8,3.5-4.9c0,0,0,0,0,0l0,0
			c-0.1-2.1-1.8-3.4-3.8-2.8c0,0,0,0,0,0l-15.6,4.5l-0.8-9.3c-0.4-4.6-4.2-7.1-8.5-5.6c0,0,0,0,0,0l0,0c-4.3,1.5-7.5,6.4-7.2,10.9
			c0,0,0,0,0,0l2.2,25.9c0.4,5,4.6,7.7,9.3,6.1c0,0,0,0,0,0l1.7-0.6l0,0.1l24.6-7.1l12.7,17.6c1.4,2,4.4,1.9,6.5-0.2l0,0
			c2.2-2.1,2.8-5.4,1.3-7.4l-16.6-22.9C-291.6,141.3-292.5,139.9-295,140.5z"/>
	</g>
	<path id="Path_131250" class="st6" d="M-495.9,266.8l3.3-5l2.6,1.7c1.8-0.5,3.6-1.5,5.1-3c1.3-1.3,2.2-2.9,2.5-4.7
		c-0.4,0.6-1,1-1.5,1.4c-0.6,0.4-1.2,0.6-1.8,0.8c-2.2,0.7-4.5,0.5-6.2-0.6c-1.7-0.9-2.7-2.7-2.7-4.9c-0.1-2.2,0.7-4.6,2.2-6.5
		c1.5-2,3.5-3.5,5.6-4.1c2.7-0.8,4.9-0.4,6.6,1.3c1.7,1.7,2.7,4.3,2.8,7.8c0.2,3-0.6,6.2-2.3,9.2c-1.5,2.8-3.9,5.1-6.5,6.4l7.8,4.8
		l-3.2,4.7L-495.9,266.8z M-486,252.9c0.6-0.2,1.3-0.5,1.9-0.9c0.6-0.4,1.1-0.9,1.5-1.5c0-1.2-0.5-2.3-1.3-3
		c-0.7-0.7-1.8-0.9-2.8-0.6c-0.8,0.2-1.6,0.8-2.1,1.6c-0.6,0.8-0.9,1.7-0.9,2.6c0,0.8,0.4,1.5,1.1,1.8
		C-487.8,253.2-486.9,253.2-486,252.9z M-471.2,271.9l-1.1-28.7l-5,1.5l-0.2-4.9l15.1-4.4l0.2,4.9l-5,1.5l1.1,28.7L-471.2,271.9z
		 M-463.5,240.6l-0.2-4.9l15.1-4.4l0.2,4.9l-5,1.5l1.1,28.7l-5,1.5l-1.1-28.7L-463.5,240.6z M-473.5,230.3l2.2-4.7l15.5,7.6
		l-8.8-12.5l4-2.8l7.3,14.8l-5.4,1.6L-473.5,230.3z M-449.3,236.6l-0.2-4.9l32.7-9.4l0.2,4.9l-5,1.5l1.1,28.7l-5,1.5l-0.4-10.2
		c-1,1.6-2.2,3-3.6,4.2c-1.3,1.1-2.8,1.9-4.3,2.3c-2.3,0.7-4.5,0.5-6.3-0.6c-1.7-0.9-2.7-2.8-2.9-5c0-1.2,0.2-2.5,0.7-3.7
		c0.4-1.2,1.1-2.3,2-3.2l-7.2,2.1l-0.2-5l18.3-5.3l0.2,5l-4.5,1.3c-1.2,0.9-2.3,2-3.2,3.4c-0.8,1.2-1.2,2.7-1.1,4
		c0,0.9,0.5,1.6,1.2,1.8c0.8,0.4,1.8,0.5,2.7,0.2c1.2-0.4,2.5-1.3,3.8-2.7c1.5-1.7,2.8-3.6,3.9-5.7l-0.5-11.6L-449.3,236.6z
		 M-417.9,227.5l-0.2-4.9l15.1-4.4l0.2,4.9l-5,1.5l1.1,28.7l-5,1.5l-1.1-28.7L-417.9,227.5z M-404,223.5l-0.2-4.9l36.2-10.4l0.2,4.9
		l-5,1.5l1.1,28.7l-5,1.5l-0.7-18.4c-1.6,0.7-3.1,2-4.1,3.7c-1.2,2.1-2.1,4.3-2.5,6.6l-4.2-0.9c0.2-1.7,0.8-3.3,1.7-4.9
		c-0.5-0.7-1.2-1.2-2-1.5c-0.6-0.3-1.4-0.3-2.2-0.1c-1.4,0.4-2.8,1.4-3.6,2.8c-0.9,1.4-1.5,3-1.4,4.5c0.1,1.9,1,3.5,2.7,4.8
		c1.8,1.4,4,2.3,6.5,2.4l-2.2,4.7c-3.5-0.3-6.4-1.5-8.5-3.5c-2.2-1.8-3.3-4.2-3.5-7c-0.1-2.9,0.9-6,2.8-8.6c1.8-2.6,4.4-4.5,7.1-5.3
		c1.3-0.4,2.6-0.4,3.8-0.1c1.3,0.4,2.5,1.1,3.5,2.1c0.8-1.3,1.7-2.4,2.7-3.4c1-0.8,2-1.4,3.1-1.7l-0.2-5.2L-404,223.5z
		 M-369.1,213.4l-0.2-4.9l30.8-8.9l0.2,4.9l-5,1.5l1.1,28.7l-5,1.5l-0.3-8.3c-0.8,1.1-1.8,2.1-2.9,2.9c-1.2,0.9-2.5,1.5-3.9,1.9
		c-3.3,1-6.4,0.3-8.6-1.7c-2.4-2-3.8-5.2-4-8.9c1,0,1.9-0.1,2.9-0.2c1.3-0.3,2.5-1.2,3.4-2.4c0.9-1.2,1.3-2.6,1.2-3.9
		c0-0.9-0.3-1.7-0.7-2.5c-0.5-0.7-1.1-1.3-1.8-1.7L-369.1,213.4z M-354.5,227.6c1.2-0.4,2.4-1.1,3.5-2c1.2-1.2,2.3-2.6,3.2-4.1
		l-0.6-14.1l-8,2.3c0.6,0.5,1.1,1.2,1.5,2c0.4,0.7,0.6,1.5,0.6,2.3c0.1,2.1-0.5,4.4-1.8,6.4c-1.2,2-3,3.6-4.9,4.5
		c0.5,1.2,1.4,2.1,2.5,2.6C-357.3,228-355.9,228-354.5,227.6z"/>
	<path id="Path_131251" class="st6" d="M-470.2,291.3l0.2,4.2l-9.9,2.9l1.2,29.9l-4.5,1.3l-1.2-29.9l-10.1,2.9l-0.2-4.2
		L-470.2,291.3z M-452.6,285.6c2.9-0.9,5.8-1,8.3-0.1c2.4,0.8,4.3,2.5,5.5,4.7c1.4,2.5,2.1,5.5,2.2,8.7c0.1,2.5-0.1,5.1-0.8,7.6
		c-0.6,2.3-1.5,4.5-2.8,6.5c-1.3,1.9-2.9,3.6-4.6,4.9c-2,1.4-4.1,2.5-6.2,3c-2.9,0.9-5.8,0.9-8.3,0.1c-2.4-0.8-4.3-2.5-5.5-4.8
		c-1.4-2.5-2.1-5.4-2.2-8.6c-0.1-2.4,0.1-4.9,0.7-7.3c0.5-2.2,1.5-4.4,2.7-6.5c1.3-2,2.9-3.7,4.7-5.1
		C-456.9,287.3-454.7,286.2-452.6,285.6L-452.6,285.6z M-452.4,289.4c-1.9,0.5-3.8,1.7-5.3,3.3c-1.6,1.7-2.8,3.8-3.5,5.9
		c-0.8,2.5-1.1,5.1-1,7.5c0.1,1.9,0.4,3.7,1,5.4c0.5,1.5,1.3,2.8,2.3,3.9c0.9,0.9,2.1,1.6,3.4,1.9c1.3,0.3,2.8,0.2,4.2-0.2
		c1.4-0.4,2.9-1.2,4.1-2.2c1.3-1.1,2.4-2.4,3.2-3.8c0.9-1.6,1.6-3.2,2-5c0.4-1.9,0.6-3.9,0.5-5.7c-0.1-2-0.4-3.8-1-5.5
		c-0.5-1.5-1.3-2.8-2.3-3.8c-0.9-0.9-2.1-1.6-3.5-1.9C-449.5,288.9-451,289-452.4,289.4L-452.4,289.4z M-426.1,278.6l1.3,34.1
		l-4.5,1.3l-1.3-34.1L-426.1,278.6z M-413.2,274.8l1.2,29.9l13.3-3.8l0.2,4.1l-17.8,5.1l-1.3-34.1L-413.2,274.8z M-377.4,264.5
		l0.2,4.2l-13,3.8l0.4,10l12.1-3.5l0.2,4.2l-12.1,3.5l0.5,11.6l13.4-3.9l0.2,4.1l-17.9,5.2l-1.3-34.1L-377.4,264.5z M-349.4,256.4
		l0.2,4.2l-9.9,2.9l1.2,29.9l-4.5,1.3l-1.2-29.9l-10.1,2.9l-0.2-4.2L-349.4,256.4z"/>
</g>
<g id="Group_639" transform="translate(699)">
	<g id="Group_273" transform="translate(123.08 97.791)">
		<path id="Path_284" class="st6" d="M-246.4,307.5l-12.8,3.5c-5.1,1.4-9.3,6.7-9.5,11.9l-1.2,38.4c-0.2,5.1,3.8,8.2,8.9,6.8
			c0,0,0,0,0,0l12.8-3.5c5.1-1.4,9.3-6.7,9.5-11.8c0,0,0,0,0,0l1.2-38.4C-237.3,309.1-241.3,306.1-246.4,307.5z M-241.3,353.4
			c-0.1,3.6-3.1,7.4-6.7,8.4c0,0,0,0,0,0l-12.8,3.5c-3.6,1-6.4-1.2-6.3-4.8l1.2-38.4c0.1-3.7,3.1-7.4,6.7-8.4l12.8-3.5
			c3.6-1,6.4,1.2,6.3,4.8L-241.3,353.4z"/>
		<g id="Group_269" transform="translate(18.717 1.84)">
			<polygon id="Rectangle_145" class="st6" points="-269.1,307.8 -266.3,307 -268,362.3 -270.8,363 			"/>
			<polygon id="Rectangle_146" class="st6" points="-276.7,309.9 -273.9,309.1 -275.6,364.4 -278.5,365.1 			"/>
		</g>
		<g id="Group_272" transform="translate(0.861 12.112)">
			<g id="Group_270" transform="translate(44.374)">
				<path id="Path_285" class="st6" d="M-283.4,302.1l-4.5,2.8c-0.2,0.1-0.3,0.1-0.4-0.1l-0.5-1.6c0-0.1,0-0.3,0.2-0.4l4.5-2.8
					c0.2-0.1,0.3-0.1,0.4,0.1l0.5,1.6C-283.1,301.8-283.2,302-283.4,302.1C-283.4,302.1-283.4,302.1-283.4,302.1z"/>
				<path id="Path_286" class="st6" d="M-283.5,306.4l-4.5,2.8c-0.2,0.1-0.3,0.1-0.4-0.1l-0.5-1.6c0-0.1,0-0.3,0.2-0.4l4.5-2.8
					c0.2-0.1,0.3-0.1,0.4,0.1l0.5,1.6C-283.3,306.1-283.3,306.2-283.5,306.4C-283.5,306.4-283.5,306.4-283.5,306.4z"/>
				<path id="Path_287" class="st6" d="M-283.7,310.6l-4.5,2.8c-0.2,0.1-0.3,0.1-0.4-0.1l-0.5-1.6c0-0.1,0-0.3,0.2-0.4l4.5-2.8
					c0.2-0.1,0.3-0.1,0.4,0.1l0.5,1.6C-283.4,310.3-283.5,310.5-283.7,310.6C-283.6,310.6-283.6,310.6-283.7,310.6z"/>
				<path id="Path_288" class="st6" d="M-283.8,314.9l-4.5,2.8c-0.2,0.1-0.3,0.1-0.4-0.1l-0.5-1.6c0-0.1,0-0.3,0.2-0.4l4.5-2.8
					c0.2-0.1,0.3-0.1,0.4,0.1l0.5,1.6C-283.5,314.6-283.6,314.7-283.8,314.9C-283.8,314.9-283.8,314.9-283.8,314.9z"/>
				<path id="Path_289" class="st6" d="M-283.9,319.1l-4.5,2.8c-0.2,0.1-0.3,0.1-0.4-0.1l-0.5-1.6c0-0.1,0-0.3,0.2-0.4l4.5-2.8
					c0.2-0.1,0.3-0.1,0.4,0.1l0.5,1.6C-283.7,318.8-283.7,319-283.9,319.1C-283.9,319.1-283.9,319.1-283.9,319.1z"/>
				<path id="Path_290" class="st6" d="M-284.1,323.4l-4.5,2.8c-0.2,0.1-0.3,0.1-0.4-0.1l-0.5-1.6c0-0.1,0-0.3,0.2-0.4l4.5-2.8
					c0.2-0.1,0.3-0.1,0.4,0.1l0.5,1.6C-283.8,323.1-283.9,323.3-284.1,323.4z"/>
				<path id="Path_291" class="st6" d="M-284.2,327.7l-4.5,2.8c-0.2,0.1-0.3,0.1-0.4-0.1l-0.5-1.6c0-0.1,0-0.3,0.2-0.4l4.5-2.8
					c0.2-0.1,0.3-0.1,0.4,0.1l0.5,1.6C-283.9,327.4-284,327.5-284.2,327.7C-284.2,327.7-284.2,327.7-284.2,327.7z"/>
				<path id="Path_292" class="st6" d="M-284.3,331.9l-4.5,2.8c-0.2,0.1-0.3,0.1-0.4-0.1l-0.5-1.6c0-0.1,0-0.3,0.2-0.4l4.5-2.8
					c0.2-0.1,0.3-0.1,0.4,0.1l0.5,1.6C-284.1,331.6-284.1,331.8-284.3,331.9C-284.3,331.9-284.3,331.9-284.3,331.9z"/>
				<path id="Path_293" class="st6" d="M-284.5,336.2l-4.5,2.8c-0.2,0.1-0.3,0.1-0.4-0.1l-0.5-1.6c0-0.1,0-0.3,0.2-0.4l4.5-2.8
					c0.2-0.1,0.3-0.1,0.4,0.1l0.5,1.6C-284.2,335.9-284.3,336-284.5,336.2C-284.4,336.2-284.4,336.2-284.5,336.2z"/>
				<path id="Path_294" class="st6" d="M-284.6,340.4l-4.5,2.8c-0.2,0.1-0.3,0.1-0.4-0.1l-0.5-1.6c0-0.1,0-0.3,0.2-0.4l4.5-2.8
					c0.2-0.1,0.3-0.1,0.4,0.1l0.5,1.6C-284.3,340.1-284.4,340.3-284.6,340.4C-284.6,340.4-284.6,340.4-284.6,340.4z"/>
			</g>
			<g id="Group_271">
				<path id="Path_295" class="st6" d="M-268.8,310.3l4.4,0.3c0.1,0,0.3-0.1,0.4-0.3l0.6-1.9c0.1-0.2,0-0.3-0.2-0.3l-4.4-0.3
					c-0.2,0-0.3,0.1-0.4,0.3l-0.6,1.9C-269,310.2-269,310.3-268.8,310.3z"/>
				<path id="Path_296" class="st6" d="M-268.9,314.6l4.4,0.3c0.2,0,0.3-0.1,0.4-0.3l0.6-1.9c0.1-0.2,0-0.3-0.2-0.3l-4.4-0.3
					c-0.2,0-0.3,0.1-0.4,0.3l-0.6,1.9C-269.2,314.4-269.1,314.6-268.9,314.6z"/>
				<path id="Path_297" class="st6" d="M-269.1,318.8l4.4,0.3c0.2,0,0.3-0.1,0.4-0.3l0.6-1.9c0.1-0.2,0-0.3-0.2-0.3l-4.4-0.3
					c-0.2,0-0.3,0.1-0.4,0.3l-0.6,1.9C-269.3,318.7-269.2,318.8-269.1,318.8z"/>
				<path id="Path_298" class="st6" d="M-269.2,323.1l4.4,0.3c0.2,0,0.3-0.1,0.4-0.3l0.6-1.9c0.1-0.2,0-0.3-0.2-0.3l-4.4-0.3
					c-0.2,0-0.3,0.1-0.4,0.3l-0.6,1.9C-269.4,322.9-269.4,323.1-269.2,323.1C-269.2,323.1-269.2,323.1-269.2,323.1z"/>
				<path id="Path_299" class="st6" d="M-269.3,327.3l4.4,0.3c0.2,0,0.3-0.1,0.4-0.3l0.6-1.9c0.1-0.2,0-0.3-0.2-0.3l-4.4-0.3
					c-0.2,0-0.3,0.1-0.4,0.3l-0.6,1.9C-269.6,327.2-269.5,327.3-269.3,327.3C-269.3,327.3-269.3,327.3-269.3,327.3z"/>
				<path id="Path_300" class="st6" d="M-269.5,331.6l4.4,0.3c0.2,0,0.3-0.1,0.4-0.3l0.6-1.9c0.1-0.2,0-0.3-0.2-0.3l-4.4-0.3
					c-0.2,0-0.3,0.1-0.4,0.3l-0.6,1.9C-269.7,331.4-269.6,331.6-269.5,331.6C-269.5,331.6-269.5,331.6-269.5,331.6z"/>
				<path id="Path_301" class="st6" d="M-269.6,335.9l4.4,0.3c0.2,0,0.3-0.1,0.4-0.3l0.6-1.9c0.1-0.2,0-0.3-0.2-0.3l-4.4-0.3
					c-0.2,0-0.3,0.1-0.4,0.3l-0.6,1.9C-269.8,335.7-269.8,335.9-269.6,335.9z"/>
				<path id="Path_302" class="st6" d="M-269.7,340.1l4.4,0.3c0.2,0,0.3-0.1,0.4-0.3l0.6-1.9c0.1-0.2,0-0.3-0.2-0.3l-4.4-0.3
					c-0.2,0-0.3,0.1-0.4,0.3l-0.6,1.9C-270,340-269.9,340.1-269.7,340.1z"/>
				<path id="Path_303" class="st6" d="M-269.9,344.4l4.4,0.3c0.2,0,0.3-0.1,0.4-0.3l0.6-1.9c0.1-0.2,0-0.3-0.2-0.3l-4.4-0.3
					c-0.2,0-0.3,0.1-0.4,0.3l-0.6,1.9C-270.1,344.2-270,344.4-269.9,344.4z"/>
				<path id="Path_304" class="st6" d="M-270,348.6l4.4,0.3c0.2,0,0.3-0.1,0.4-0.3l0.6-1.9c0.1-0.2,0-0.3-0.2-0.3l-4.4-0.3
					c-0.2,0-0.3,0.1-0.4,0.3l-0.6,1.9C-270.2,348.5-270.2,348.6-270,348.6z"/>
			</g>
		</g>
	</g>
	<g id="Group_275" transform="translate(0)">
		<g id="Group_274">
			<path id="Path_305" class="st6" d="M-171.2,364l-40.4,11.2l-3.5,112.4l4.2-1.2l3.4-108.1l34.1-9.4l-3.4,108.1l4.2-1.2l3.5-112.4
				L-171.2,364z"/>
			<path id="Path_306" class="st6" d="M-180.9,377l-20.5,5.7c-1.6,0.4-3,2.1-3,3.8c0,0,0,0,0,0l-0.2,7.4c-0.1,1.6,1.2,2.6,2.8,2.2
				c0,0,0,0,0,0l20.5-5.7c1.6-0.4,3-2.1,3-3.8c0,0,0,0,0,0l0.2-7.4C-178,377.6-179.3,376.6-180.9,377
				C-180.9,377-180.9,377-180.9,377z M-181.2,387.1l-20.2,5.6l0.2-7l20.2-5.6L-181.2,387.1z"/>
		</g>
		<polygon id="Rectangle_147" class="st6" points="-215,483.5 -172.4,471.8 -172.5,475.8 -215.1,487.5 		"/>
	</g>
	<path id="Path_307" class="st7" d="M-171.1,380.9l6.3-1.7c2.3-0.6,4.1,0.7,4,3.1c0,0,0,0,0,0l-1.8,58.2c-0.1,2.3,1.7,3.7,4,3.1
		c0,0,0,0,0,0l13.2-3.6"/>
	<path id="Path_131246" class="st6" d="M-580.5,550.4l-0.1,4.7l-14.6,4l-0.4,11.4l14-3.9l-0.1,4.6l-14,3.9l-0.5,17.5l-5.4,1.5
		l1.2-38.2L-580.5,550.4z M-573.3,548.4l9-2.5c1.7-0.5,3.4-0.9,5.1-1.2c1.2-0.2,2.3-0.2,3.4-0.1c1.2,0.1,2.3,0.4,3.2,1
		c0.9,0.6,1.6,1.5,2.1,2.6c0.5,1.1,0.7,2.4,0.7,3.7c0,2.2-0.8,4.5-2.3,6.6c-1.6,2-3.7,3.7-5.9,4.6c1,0.2,1.9,0.5,2.6,1.1
		c0.8,0.8,1.4,1.8,1.9,2.8l5.9,12.2l-6.2,1.7l-4.5-10.1c-0.5-1.2-1.1-2.2-1.8-3.1c-0.5-0.6-1.2-0.9-2-0.9c-1.1,0-2.2,0.2-3.4,0.6
		l-3.1,0.8l-0.5,17l-5.4,1.5L-573.3,548.4z M-568,551.7l-0.4,11.8l3.3-0.9c6.3-1.7,9.6-4.6,9.7-8.6c0.1-2.4-0.7-3.7-2.3-4
		c-2-0.3-4.2,0-6.4,0.7L-568,551.7z M-519.5,533.6l-0.1,4.7l-15.6,4.3l-0.4,11.2l14.4-4l-0.1,4.7l-14.4,4l-0.4,13l16-4.4l-0.1,4.6
		l-21.4,5.9l1.2-38.2L-519.5,533.6z M-489.8,525.4l-0.1,4.7l-15.6,4.3l-0.4,11.2l14.4-4l-0.1,4.7l-14.4,4l-0.4,13l16-4.4l-0.1,4.6
		l-21.4,5.9l1.2-38.2L-489.8,525.4z M-448.2,513.9l15.1,33.7l-6,1.7l-3.6-8.6l-18.3,5l-4.2,10.7l-5.8,1.6l17.2-42.6L-448.2,513.9z
		 M-444.5,536.6l-4-9.5c-0.8-1.8-1.4-3.2-1.8-4.3c-0.4-1.1-0.7-2.2-1-3.4c-0.3,1.1-0.7,2.2-1.1,3.3c-0.4,1.1-1.2,3.2-2.4,6.2
		l-4.5,11.7L-444.5,536.6z M-421.1,506.5l-1.2,38.2l-5.4,1.5l1.2-38.2L-421.1,506.5z M-411.1,503.7l9-2.5c1.7-0.5,3.4-0.9,5.1-1.2
		c1.2-0.2,2.3-0.2,3.4-0.1c1.2,0.1,2.3,0.4,3.2,1c0.9,0.6,1.6,1.5,2.1,2.6c0.5,1.1,0.7,2.4,0.7,3.7c0,2.2-0.8,4.5-2.3,6.6
		c-1.6,2-3.7,3.7-5.9,4.6c1,0.2,1.9,0.5,2.6,1.1c0.8,0.8,1.4,1.8,1.9,2.8l5.9,12.2l-6.1,1.7l-4.5-10.1c-0.5-1.2-1.1-2.2-1.8-3.1
		c-0.5-0.6-1.2-0.9-2-0.9c-1.1,0-2.2,0.2-3.4,0.6l-3.1,0.8l-0.5,17l-5.4,1.5L-411.1,503.7z M-405.8,506.9l-0.4,11.8l3.3-0.9
		c6.3-1.7,9.6-4.6,9.7-8.6c0.1-2.4-0.7-3.7-2.3-4c-2-0.3-4.2,0-6.4,0.7L-405.8,506.9z"/>
	<path id="Path_131247" class="st6" d="M-598.3,486.8l0.2-5l32.4-8.9l-0.2,5l-5.4,1.5l-0.9,29.2l-5.4,1.5l0.4-13.7l-10.4,2.9
		l-0.1,3.4c0,0.4-0.2,0.8-0.5,1.1c-0.3,0.4-0.7,0.6-1.1,0.7c-0.9,0.2-2.4-0.4-4.5-2c-2.2-1.5-3.3-2.7-3.2-3.6c0-0.5,0.2-1.1,0.5-1.6
		c0.2-0.4,0.7-0.8,1.1-0.9l2.6-0.7l0.3-10.4L-598.3,486.8z M-587.3,494.1l10.4-2.9l0.3-10.4l-10.4,2.9L-587.3,494.1z M-595.7,523.7
		l2.5-4.1c2,1.1,4.4,1.8,7,1.8c2.9,0.1,5.9-0.3,9-1.1c1.5-0.4,2.9-1.2,4.2-2.3c1.2-1.1,1.8-2.3,1.8-3.4c0-0.8-0.4-1.4-1-1.7
		c-0.7-0.4-1.6-0.4-2.5-0.1c-0.7,0.2-1.4,0.5-2,1c-0.7,0.5-1.3,1.1-1.7,1.8l-2.9-2.6c1.1-1.2,2.3-2.3,3.6-3.2c1-0.8,2.1-1.4,3.2-1.7
		c2.2-0.7,4.2-0.5,5.8,0.6c1.5,0.9,2.3,2.6,2.3,4.6c-0.1,2.4-1.2,4.7-3.3,7c-2.1,2.3-4.8,3.9-7.5,4.6c-3.4,1-6.8,1.4-10,1.1
		C-590.6,525.9-593.4,525.1-595.7,523.7z M-560.1,505.2l3.5-4.1l3.3,2.2l-3.5,4L-560.1,505.2z M-566.6,478l0.2-5l32-8.8l-0.2,5
		l-9.2,2.5l-0.2,6.2c0.7-1,1.6-1.9,2.6-2.7c1.1-0.8,2.3-1.4,3.5-1.6c0.8-0.2,1.5-0.3,2.2-0.3c0.7,0,1.3,0.2,1.7,0.5l-0.2,6
		c-0.9-0.5-1.7-0.8-2.2-1c-0.5-0.2-1.1-0.2-1.7-0.1c-1.2,0.3-2.3,1-3.3,1.9c-1.1,0.9-2,2-2.7,3.2l-0.5,17.1l-5.4,1.5l0.4-11.8
		c-0.6,0.9-1.3,1.7-2.2,2.2c-1,0.7-2.1,1.3-3.3,1.6c-2.3,0.7-4.5,0.3-6-1c-1.6-1.3-2.5-3.4-2.4-5.8l0.3-10.5L-566.6,478z
		 M-555,489.3c1-0.3,2-0.9,2.9-1.7c1-1,1.9-2.1,2.6-3.3l0.3-11.1l-8.7,2.4l-0.3,10.5c-0.1,1.1,0.2,2,0.8,2.7
		C-556.8,489.4-556,489.6-555,489.3z M-535.9,469.6l0.2-5l34.3-9.5l-0.2,5l-5.4,1.5l-0.9,29.2l-5.4,1.5l0.6-19.3l-12.3,3.4
		c-0.8,0.2-1.6,0.7-2.2,1.4c-0.5,0.7-0.9,1.5-1,2.2c0,2.4,0.7,4.6,2.1,6.1c1.6,2,3.7,3.5,6.1,4.5l-3.2,4.6c-3.1-1.4-5.7-3.5-7.8-6.1
		c-1.8-2.4-2.7-5-2.6-7.8c0-2.1,1-4.4,2.7-6.3c1.7-2,3.8-3.4,6.1-4l12.3-3.4l0.1-4.8L-535.9,469.6z M-488.9,456.6l0.2-5l29.9-8.2
		l-0.2,5l-4.2,1.2l-0.2,7.5l-13.4,3.7c-0.7,0.2-1.4,0.5-2,1c-0.5,0.3-0.8,0.9-0.8,1.4c0,0.6,0.3,1.2,0.8,1.6
		c0.7,0.6,1.4,1.2,2.3,1.6c1.5-1,3-1.8,4.6-2.2c2.5-0.7,4.9-0.5,6.7,0.6c1.7,0.9,2.7,2.7,2.6,5c0,1.1-0.4,2.3-1,3.5
		c-0.7,1.3-1.6,2.5-2.7,3.6l-3.5-1.9c0.6-0.6,1-1.2,1.4-1.9c0.3-0.6,0.5-1.2,0.5-1.8c0-0.9-0.4-1.6-1.1-1.9c-0.9-0.3-1.9-0.4-3-0.1
		c-2,0.5-3.9,1.6-5.6,3.2c-1.6,1.6-2.4,3.2-2.4,4.8c0,2.4,1,4,3.2,5c2.3,1,5.1,1.1,8,0.3l6-1.7l-0.2,5.1l-6.2,1.7
		c-4.6,1.3-8.5,1-11.7-0.7c-3.2-1.7-4.7-4.5-4.5-8.3c0-1.5,0.4-3,1.1-4.5c0.8-1.5,1.8-2.9,3.1-4.1c-1.1-0.5-2.1-1.3-2.7-2.3
		c-0.6-0.9-1-2.1-1-3.4c0.1-1.9,1-3.8,2.6-5.3c1.8-1.8,3.9-3,6-3.5l7.9-2.2l0.1-2.3L-488.9,456.6z M-460.3,448.7l0.2-5l30.4-8.4
		l-0.2,5l-5.4,1.5l-0.9,29.2l-5.4,1.5l0.3-8.7c-0.7,1-1.7,1.9-2.7,2.6c-1.2,0.8-2.5,1.3-3.8,1.7c-2.8,0.8-5.5,0.5-7.4-0.9
		c-2-1.2-3.1-3.4-2.9-6.1c0.1-2.7,1.3-5.6,3.4-7.8c2.1-2.5,4.9-4.3,7.7-5c1.1-0.3,2.2-0.6,3.4-0.7c0.7-0.1,1.5,0,2.1,0.1l-1.5,5.4
		c-0.5-0.2-1-0.2-1.6-0.2c-0.9,0.1-1.7,0.3-2.6,0.5c-1.4,0.4-2.8,1.2-3.9,2.4c-1,1.1-1.6,2.5-1.6,3.8c-0.1,1.3,0.5,2.5,1.5,3
		c1,0.6,2.3,0.8,3.7,0.3c1.3-0.3,2.6-1,3.7-2c1.1-0.9,2.1-2.1,2.8-3.3l0.4-14.3L-460.3,448.7z M-431.2,440.7l0.2-5l16.2-4.5l-0.2,5
		l-5.4,1.5l-0.9,29.2l-5.4,1.5l0.9-29.2L-431.2,440.7z"/>
</g>
<g id="Group_634_1_" transform="translate(691)">
	<path id="Subtraction_4" class="st6" d="M-94.5,697.7l-38.4,11.1l-0.7-40l-23,6.6l0.7,40l-38.8,11.2l-1-62.4l100.2-28.9
		L-94.5,697.7L-94.5,697.7z M-125.3,666.4l0.4,24.2l21-6.1l-0.4-24.2L-125.3,666.4z M-185.4,683.7l0.4,24.2l21-6.1l-0.4-24.2
		L-185.4,683.7z"/>
	<polygon id="Rectangle_104" class="st6" points="-194.7,730.8 -94.5,702 -94.3,709.1 -194.5,737.9 	"/>
	<path id="Path_122" class="st6" d="M-101.5,589.4l-89.9,25.9c-1.5,0.4-2.8-0.6-2.8-2.4c0,0,0,0,0,0l0-0.7c0-1.7,1.2-3.5,2.7-4
		l89.9-25.9c1.5-0.4,2.8,0.6,2.8,2.4c0,0,0,0,0,0l0,0.7C-98.8,587.2-100,589-101.5,589.4z"/>
	<path id="Subtraction_5" class="st6" d="M-92.1,624.9l-12.9-0.1l-41.7,12.4l-49.4,11.9l-8.3,1l16.9-39.4l81.8-22.1l17.1,25.7
		L-92.1,624.9L-92.1,624.9z M-116.9,614.4l6.5-1.9l1.4,3.8l3.5-1l-6.6-16.5l-3.6,1l-5.9,20.1l3.3-1L-116.9,614.4L-116.9,614.4z
		 M-134.2,605.2l0.3,18.3l5.6-1.6c1.2-0.3,2.5-1,3.5-1.9c1.3-1.3,2.1-3.2,2-5c0-1.1-0.4-2-1.1-2.5c-0.7-0.6-1.7-0.8-2.7-0.6l0-0.1
		c0.9-0.4,1.7-1.1,2.3-2.1c0.6-0.9,0.9-2,0.8-2.9c0.1-1.6-0.7-2.9-1.9-3.3c-1-0.3-2.2-0.3-3.3,0.1L-134.2,605.2z M-147.3,623.2
		l6.5-1.9l1.4,3.8l3.5-1l-6.6-16.5l-3.6,1l-5.9,20.1l3.3-1L-147.3,623.2L-147.3,623.2z M-163.7,624l6.4-1.8l0.1,8l3.2-0.9l-0.3-18.3
		l-3.2,0.9l0.1,7.4l-6.4,1.8l-0.1-7.4l-3.2,0.9l0.3,18.3l3.2-0.9C-163.6,632.1-163.7,624-163.7,624z M-183.5,619.4l0.3,18.3l4.4-1.3
		c3-0.9,5.4-2.3,6.9-4.3c1.5-2,2.2-4.5,2.2-7.5s-0.9-5.1-2.4-6.2s-3.9-1.2-6.9-0.3L-183.5,619.4z M-129.2,619.3l-1.5,0.4l-0.1-5.3
		l1.5-0.4c0.9-0.3,1.7-0.3,2.5,0c0.6,0.3,0.9,1,0.9,1.8c0.1,0.7-0.2,1.6-0.8,2.1C-127.5,618.6-128.3,619.1-129.2,619.3L-129.2,619.3
		z M-178.3,633.4l-1.8,0.5l-0.2-12.5l1.8-0.5c2.1-0.7,4.1,0.3,4.9,2.3c0.6,1.5,0.6,3.3,0.1,5.2c-0.3,0.8-0.7,1.7-1.2,2.4
		c-0.5,0.7-1,1.3-1.6,1.7C-177,632.9-177.6,633.2-178.3,633.4L-178.3,633.4z M-111.4,609.9l-4.7,1.3l2.2-8.2l0,0L-111.4,609.9
		L-111.4,609.9z M-141.8,618.7l-4.7,1.3l2.2-8.2l0,0L-141.8,618.7L-141.8,618.7z M-129.5,611.3l-1.3,0.4l-0.1-4.5l1.2-0.4
		c0.7-0.2,1.4-0.3,2.1-0.3c0.7,0.2,1.1,0.8,1,1.7c0,0.7-0.2,1.4-0.7,1.9C-128,610.7-128.8,611.1-129.5,611.3L-129.5,611.3z"/>
	<g id="Group_181" transform="translate(0 48.761)">
		
			<ellipse id="Ellipse_15" transform="matrix(0.3463 -0.9381 0.9381 0.3463 -693.2628 208.4779)" class="st6" cx="-197" cy="601.7" rx="9.5" ry="6.9"/>
		
			<ellipse id="Ellipse_16" transform="matrix(0.445 -0.8955 0.8955 0.445 -635.958 168.5635)" class="st6" cx="-182" cy="597.4" rx="9.7" ry="7.3"/>
		
			<ellipse id="Ellipse_17" transform="matrix(0.445 -0.8955 0.8955 0.445 -623.9645 179.0481)" class="st6" cx="-167.5" cy="592.9" rx="9.1" ry="6.8"/>
		
			<ellipse id="Ellipse_18" transform="matrix(0.445 -0.8955 0.8955 0.445 -612.0234 189.8526)" class="st6" cx="-152.8" cy="588.7" rx="9.1" ry="6.8"/>
		
			<ellipse id="Ellipse_19" transform="matrix(0.445 -0.8955 0.8955 0.445 -600.0524 200.6841)" class="st6" cx="-138.1" cy="584.5" rx="9.1" ry="6.8"/>
		
			<ellipse id="Ellipse_20" transform="matrix(0.445 -0.8955 0.8955 0.445 -588.1108 211.489)" class="st6" cx="-123.4" cy="580.2" rx="9.1" ry="6.8"/>
		
			<ellipse id="Ellipse_21" transform="matrix(0.445 -0.8955 0.8955 0.445 -576.1697 222.2935)" class="st6" cx="-108.7" cy="576" rx="9.1" ry="6.8"/>
		
			<ellipse id="Ellipse_22" transform="matrix(0.445 -0.8955 0.8955 0.445 -564.1986 233.125)" class="st6" cx="-94" cy="571.8" rx="9.1" ry="6.8"/>
	</g>
	<path id="Path_131244" class="st6" d="M-590,744.9l-0.1-5.7l33.1-9.5l0.1,5.7l-7.9,2.3l0.2,11.3l-11.9,3.4
		c-1.3,0.3-2.6,1.3-3.5,2.7c-1,1.3-1.5,3-1.4,4.5c0.1,2.5,1,4.7,2.5,6.1c1.6,1.6,3.3,2.2,5.1,1.7c-0.9-1.1-1.4-2.6-1.4-4.2
		c0-2.4,0.8-4.9,2.3-6.9c1.5-2.1,3.5-3.6,5.7-4.1c2.2-0.6,4.2-0.2,5.7,1.2c1.6,1.3,2.5,3.4,2.6,5.9c0,2.9-1.1,5.7-3.4,8.5
		c-2.5,2.8-5.5,4.8-8.6,5.6c-4.1,1.2-8,0.5-10.9-1.9c-3.2-2.6-4.9-6-4.9-10.2c-0.1-3.1,1-6.4,2.9-9.1c1.9-2.8,4.6-4.8,7.3-5.5
		l6.5-1.9l-0.1-5.5L-590,744.9z M-567.9,765.6c0.9-0.3,1.8-1,2.4-1.9c0.7-0.8,1.1-1.9,1.1-3c0-0.9-0.3-1.8-0.9-2.3
		c-0.5-0.5-1.2-0.7-1.9-0.5c-0.7,0.2-1.4,0.8-1.9,1.6c-0.5,0.9-0.8,1.9-0.8,2.8c0,0.8,0.2,1.5,0.5,2.1
		C-569,764.9-568.5,765.4-567.9,765.6z M-558.3,735.7l-0.1-5.7l16.3-4.7l0.1,5.7l-5.4,1.6l0.6,33.3l-5.4,1.6l-0.6-33.3L-558.3,735.7
		z M-543.4,731.4l-0.1-5.7l30.8-8.9l0.1,5.7l-5.4,1.6l0.6,33.3l-5.4,1.6l-0.1-7.2c-1.9,1.6-4,2.8-6.1,3.5c-2.9,0.9-5.7,0.5-7.9-1.3
		c-2.1-1.6-3.4-4.4-3.4-7.6c-0.1-3.3,1.1-6.8,3.2-9.5c2.2-3,5.2-5.2,8.2-6c2.1-0.6,3.7-0.7,4.9-0.2l-1.7,5.9c-1-0.2-2.1-0.2-3.1,0.2
		c-1.1,0.3-2.1,1-3,1.9l8.7,5.7l-0.3-18.5L-543.4,731.4z M-529.2,749.4c0.7-0.2,1.4-0.5,2.1-0.9c0.6-0.3,1.1-0.8,1.5-1.4l-8.4-5.3
		c-0.2,0.4-0.4,0.9-0.5,1.3c-0.1,1-0.2,1.9-0.2,2.9c0,0.9,0.6,1.7,1.6,2.6C-532,749.5-530.7,749.8-529.2,749.4L-529.2,749.4z
		 M-513.9,723l-0.1-5.7l16.3-4.7l0.1,5.7l-5.4,1.6l0.6,33.3l-5.4,1.6l-0.6-33.3L-513.9,723z"/>
	<path id="Path_131245" class="st6" d="M-589.7,796.7l7.9-2.3c2.1-0.6,4.2-1.1,6.4-1.5c2.5-0.5,4.9-0.4,7.1,0.2
		c2.1,0.5,4,1.6,5.6,3.1c1.5,1.5,2.8,3.4,3.6,5.5c0.9,2.4,1.4,5,1.4,7.8c0,2.3-0.2,4.7-0.8,7c-0.5,2.3-1.4,4.5-2.4,6.6
		c-1.1,2.1-2.4,4-3.9,5.7c-1.6,1.8-3.3,3.3-5.2,4.5c-0.9,0.6-1.9,1.2-2.9,1.7c-1,0.5-2,0.9-3.2,1.3c-1.2,0.4-2.5,0.9-4.2,1.3
		l-8.6,2.5L-589.7,796.7z M-584.2,800.5l0.6,32.9l2.8-0.8c1.9-0.5,3.8-1.2,5.7-2c1.3-0.6,2.6-1.4,3.9-2.4c1.6-1.3,3-2.9,4.2-4.7
		c1.2-1.8,2.1-3.9,2.7-6c0.6-2.2,0.9-4.5,0.9-6.6c0-1.7-0.3-3.3-0.7-4.9c-0.4-1.5-1.1-2.8-1.9-3.9c-0.8-1.1-1.8-2-2.9-2.7
		c-1.1-0.7-2.4-1.1-3.7-1.2c-1.1-0.1-2.2-0.1-3.3,0.1c-1.8,0.3-3.5,0.7-5.3,1.2L-584.2,800.5z M-521.4,777.1l0.7,43.6l-5.4,1.6
		l-0.3-20l-18.3,5.3l0.3,20l-5.4,1.6l-0.7-43.6l5.4-1.6l0.3,18.3l18.3-5.3l-0.3-18.3L-521.4,777.1z M-494.4,769.3l17.1,38.8
		l-6.1,1.8l-4.1-9.9l-18.4,5.3l-3.7,12.2l-5.9,1.7l15.4-48.2L-494.4,769.3z M-489.5,795.2l-4.6-10.9c-0.9-2.1-1.6-3.7-2-4.9
		c-0.5-1.3-0.9-2.6-1.2-3.9c-0.3,1.2-0.6,2.5-0.9,3.8c-0.4,1.3-1.1,3.6-2.1,7l-4,13.2L-489.5,795.2z M-472.8,763.1l9-2.6
		c1.8-0.5,3-0.8,3.5-1c0.6-0.1,1.2-0.3,1.9-0.4c2.9-0.4,5.1,0.2,6.8,1.7c1.7,1.5,2.6,3.8,2.6,6.6c0,2.8-0.6,5.3-2,7.4
		c-1.6,2.3-3.7,4.1-5.9,5.3c2.8-0.4,5.1,0.1,6.8,1.3c1.7,1.2,2.5,3.4,2.6,6.5c0.1,2-0.4,4.2-1.3,6.2c-0.9,2-2.2,3.8-3.7,5.2
		c-1.1,1-2.3,1.8-3.6,2.4c-1.7,0.8-3.5,1.4-5.3,1.9l-10.8,3.1L-472.8,763.1z M-467.3,766.9l0.2,13.2l3.8-1.1c6.1-1.7,9-4.8,9-9.2
		c0-1.3-0.3-2.5-1-3.4c-0.7-0.7-1.5-1.2-2.5-1.3c-1-0.1-2-0.1-3,0.1c-1,0.2-2.2,0.5-3.7,0.9L-467.3,766.9z M-467,785.2l0.2,14.6
		l4.1-1.2c2.4-0.6,4.7-1.8,6.9-3.4c1.9-1.5,2.8-3.6,2.7-6.3c-0.1-3.2-1.1-5-3.2-5.3c-2.5-0.3-5.2,0-7.9,0.8L-467,785.2z
		 M-422.6,748.6l17.1,38.8l-6.1,1.8l-4.2-9.9l-18.4,5.3l-3.7,12.2l-5.9,1.7l15.4-48.2L-422.6,748.6z M-417.7,774.5l-4.6-10.9
		c-0.9-2.1-1.6-3.7-2-4.9c-0.5-1.3-0.9-2.6-1.2-3.9c-0.3,1.2-0.6,2.5-0.9,3.8c-0.4,1.3-1.1,3.6-2.1,7l-4,13.2L-417.7,774.5z"/>
</g>
<g id="Group_635_1_" transform="translate(674)">
	<path id="Path_124" class="st6" d="M-111.9,913.8c0.2,10.4-2.9,20.1-9.2,29.2c-6,8.8-14.4,15-23.2,17.2c-9.1,2.4-16.9,0.7-23.5-4.9
		c-6.6-5.7-9.9-13.7-10.1-24.1c-0.2-10.4,2.9-20,9.2-29.1c6.4-9,14-14.8,23.1-17.2c8.8-2.5,17.3-0.7,23.5,4.9
		C-115.4,895.4-112,903.5-111.9,913.8 M-108.2,912.8c-0.2-11.5-3.9-20.4-11.2-26.7c-7.3-6.3-16-8.1-26.2-5.4
		c-10.2,2.7-18.7,9-25.7,19.1c-7,10-10.4,20.9-10.3,32.4c0.2,11.6,3.9,20.5,11.2,26.8c7.2,6.3,16,8.2,26.1,5.5
		c10.2-2.7,18.7-9.1,25.8-19.1C-111.4,935.2-108,924.4-108.2,912.8L-108.2,912.8z M-195.1,907.5c0.1,3.9-1.3,7.5-4.1,10.8
		c-2.8,3.2-4.2,5.8-4.1,7.7l1.2,70.8l-6.9,1.8l-1.2-70.8c0-1.9-1.5-3.7-4.3-5.5c-2.8-1.5-4.4-4.7-4.4-8.5
		c-0.2-10.6,1.8-21.6,5.7-32.2l0.4,26.2l3.7-1l-0.4-26.2l4.1-1.1l0.4,26.2l3.8-1l-0.4-26.2C-197.6,887-195.3,896.9-195.1,907.5
		L-195.1,907.5z M-94.6,909.2c0.3,15.9-4.4,30.7-14,44.5c-9.6,13.8-21.4,22.5-35.4,26.2c-13.9,3.7-25.8,1.2-35.9-7.4
		c-10-8.6-15.1-20.9-15.4-36.8c-0.3-15.8,4.4-30.6,14.1-44.4c9.7-13.8,21.5-22.5,35.3-26.2c13.9-3.7,25.9-1.2,35.9,7.4
		C-100,881.2-94.8,893.4-94.6,909.2L-94.6,909.2z M-77,874c0.1,3.8-0.4,14.9-1.4,33.3l-2.1,0.5l0.9,56.7l-6.9,1.8l-0.9-56.7
		l-1.2,0.3l-1-60.9c2.3-0.2,4.4,0.5,6,2.1C-79.4,854.7-77.3,862.3-77,874L-77,874z"/>
	<path id="Path_131252" class="st6" d="M-566.9,999.3l-0.1-5.6l24.8-6.5l0.1,5.6l-4.4,1.2l0.1,9.1c0.1,1.8-0.5,3.7-1.7,5.3
		c-1.1,1.6-2.6,2.7-4.2,3.1c-0.4,0.1-0.8,0.2-1.1,0.2c-0.2,0-0.5,0-0.7-0.1l9.9,12.4l-4.2,4.3l-17-21.4l4.4-4.9
		c0.5,1.6,1.5,2.9,2.7,3.8c0.9,0.8,2.2,1.1,3.5,0.8c0.8-0.2,1.6-0.8,2.1-1.6c0.6-0.8,0.9-1.8,0.9-2.8l-0.1-6.8L-566.9,999.3z
		 M-566.7,978.2l3.5-4.4l15.6,14.9l-4.9,1.3L-566.7,978.2z M-543.1,993.1l-0.1-5.6l26.6-7l0.1,5.6l-8.5,2.2l0.1,9
		c0.1,1.9-0.5,4-1.5,5.8c-0.8,1.6-2.2,2.8-3.7,3.2l8.4,10.6l-4.2,4.2l-15.6-19.8l4.5-5.1c0.8,1.4,1.6,2.7,2.6,3.9
		c0.8,0.9,1.5,1.3,2,1.1c0.6-0.2,1.1-0.6,1.5-1.2c0.4-0.7,0.6-1.4,0.6-2.2l-0.1-8.3L-543.1,993.1z M-521.6,1002.7l-3.2-4.9l9.1-2.4
		l0.1,5.7L-521.6,1002.7z M-517.8,986.4l-0.1-5.6l30.6-8.1l0.1,5.6l-5.8,1.5l0.2,11.9l-12,3.2c-1.3,0.3-2.5,1.2-3.3,2.6
		c-0.9,1.3-1.3,2.8-1.3,4.2c0,2.6,1.1,4.8,2.9,6c1.9,1.3,4.3,1.7,6.8,1c1.4-0.4,2.8-1,4.1-2c1.2-0.9,2.2-2.1,3-3.5l4.5,2.3
		c-1.1,2.2-2.7,4.1-4.6,5.5c-2.1,1.7-4.5,2.8-6.8,3.4c-3.9,1.1-7.6,0.5-10.6-1.7c-3-2.2-4.5-5.3-4.6-9.5c-0.1-3,0.9-6.2,2.8-8.8
		c1.9-2.7,4.5-4.5,7.2-5.2l6.5-1.7l-0.1-6.2L-517.8,986.4z M-488.5,978.7l-0.1-5.6l16-4.2l0.1,5.6l-5.3,1.4l0.5,32.5l-5.3,1.4
		l-0.5-32.5L-488.5,978.7z M-497.1,959.9l3.5-4.4l15.6,14.9l-4.9,1.3L-497.1,959.9z M-473.5,974.7l-0.1-5.6l24.8-6.5l0.1,5.6
		l-4.4,1.2l0.1,9.1c0.1,1.8-0.5,3.7-1.7,5.3c-1.1,1.6-2.6,2.7-4.2,3.1c-0.4,0.1-0.8,0.2-1.1,0.2c-0.2,0-0.5,0-0.7-0.1l9.9,12.4
		l-4.2,4.3l-17-21.4l4.4-4.9c0.5,1.6,1.5,2.9,2.7,3.8c0.9,0.8,2.2,1.1,3.5,0.8c0.8-0.2,1.6-0.8,2.1-1.6c0.6-0.8,0.9-1.8,0.9-2.8
		l-0.1-6.8L-473.5,974.7z M-473.3,953.6l3.5-4.4l15.6,14.9l-4.9,1.3L-473.3,953.6z M-449.6,968.4l-0.1-5.6l20.8-5.5l0.1,5.6
		L-449.6,968.4z M-440.2,986.5c-1,0.3-2.5-0.8-4.5-3c-2-2.3-3-4.3-3-5.8c0-0.6,0.1-1.2,0.4-1.8c0.2-0.4,0.6-0.8,1-0.9l18.2-4.8
		l0.1,5.7l-9.4,2.5c-0.3,0.1-0.6,0.4-0.9,0.7c-0.2,0.3-0.3,0.7-0.3,1.1l0.1,4.1c0,0.5-0.2,1-0.5,1.4
		C-439.3,986.1-439.8,986.4-440.2,986.5L-440.2,986.5z M-430.2,963.3l-0.1-5.6l30.6-8.1l0.1,5.6l-5.8,1.5l0.2,11.9l-12,3.2
		c-1.3,0.3-2.5,1.2-3.3,2.6c-0.9,1.3-1.3,2.8-1.3,4.2c0,2.6,1.1,4.8,2.9,6c1.9,1.3,4.3,1.7,6.8,1c1.4-0.4,2.8-1,4.1-2
		c1.2-0.9,2.2-2.1,3-3.5l4.5,2.3c-1.1,2.2-2.7,4.1-4.6,5.5c-2.1,1.7-4.5,2.8-6.8,3.4c-3.9,1.1-7.6,0.5-10.6-1.7
		c-3-2.2-4.5-5.3-4.6-9.5c-0.1-3,0.9-6.2,2.8-8.8c1.9-2.7,4.5-4.5,7.2-5.2l6.5-1.7l-0.1-6.2L-430.2,963.3z"/>
	<path id="Path_131253" class="st6" d="M-566,1053.8l8-2.1c1.5-0.4,3-0.7,4.5-1c1-0.1,2.1-0.1,3.1,0c1.1,0.1,2.1,0.5,3,1.2
		c0.8,0.7,1.5,1.6,2,2.7c0.5,1.1,0.7,2.4,0.8,3.8c0.1,2.2-0.5,4.5-1.8,6.5c-1.4,2-3.2,3.5-5.1,4.3c0.9,0.2,1.7,0.6,2.4,1.3
		c0.7,0.9,1.4,1.9,1.8,3l5.8,12.6l-5.5,1.4l-4.5-10.4c-0.5-1.2-1.1-2.3-1.8-3.3c-0.5-0.6-1.1-0.9-1.8-1c-1,0-2,0.1-3,0.4l-2.7,0.7
		l0.3,17.2l-4.8,1.3L-566,1053.8z M-561.2,1057.3l0.2,11.9l3-0.8c5.6-1.5,8.4-4.2,8.3-8.2c0-2.4-0.8-3.8-2.3-4.2
		c-1.8-0.4-3.8-0.2-5.8,0.4L-561.2,1057.3z M-518.3,1041.2l0.1,4.7l-13.8,3.6l0.2,11.3l12.8-3.4l0.1,4.7l-12.8,3.4l0.2,13.1
		l14.2-3.7l0.1,4.7l-19,5l-0.6-38.5L-518.3,1041.2z M-494.8,1035.7l-0.5,5c-2-0.4-4.1-0.4-6.3,0.1c-1.1,0.3-2.2,0.8-3.2,1.5
		c-0.8,0.6-1.6,1.4-2.1,2.4c-0.5,1-0.7,2-0.7,3c-0.1,1.5,0.5,2.8,1.6,3.4c1.7,0.9,3.6,1.6,5.4,2.2c2.2,0.6,4.1,1.7,5.9,3.1
		c1.3,1.2,2,3.1,2,5.7c0.1,2.1-0.4,4.4-1.3,6.4c-0.9,2-2.3,3.8-4,5.2c-1.9,1.5-3.9,2.5-6,3c-2.6,0.7-5.2,0.9-7.6,0.5l0.4-5.3
		c2.5,0.7,4.7,0.8,6.6,0.3c1.2-0.3,2.5-0.9,3.6-1.7c1-0.7,1.8-1.7,2.4-2.9c0.6-1.2,0.8-2.5,0.8-3.7c0-1.9-0.6-3.2-1.8-3.9
		c-1.7-0.9-3.5-1.6-5.4-2.1c-2.1-0.5-4-1.4-5.6-2.8c-1.3-1.1-1.9-3-2-5.7c-0.1-1.9,0.4-3.9,1.2-5.8c0.9-1.9,2.1-3.5,3.7-4.7
		c1.7-1.4,3.6-2.3,5.5-2.8C-499.6,1035.6-497.1,1035.4-494.8,1035.7L-494.8,1035.7z M-464.9,1027.1l0.1,4.7l-10.5,2.8l0.6,33.8
		l-4.8,1.3l-0.6-33.8l-10.7,2.8l-0.1-4.7L-464.9,1027.1z M-445.1,1021.9l15.1,34.7l-5.4,1.4l-3.7-8.8l-16.2,4.3l-3.3,10.7l-5.2,1.4
		l13.6-42.3L-445.1,1021.9z M-440.8,1045l-4-9.7c-0.8-1.8-1.4-3.3-1.8-4.4c-0.4-1.1-0.8-2.3-1.1-3.5c-0.2,1.1-0.5,2.2-0.8,3.3
		c-0.3,1.1-0.9,3.2-1.8,6.1l-3.5,11.6L-440.8,1045z M-400.2,1010.2l0.4,21.7c0.1,2.3,0,4.7-0.3,7c-0.2,1.7-0.7,3.3-1.5,4.9
		c-1,2.3-2.6,4.3-4.4,5.8c-2,1.6-4.2,2.7-6.4,3.3c-1.7,0.5-3.4,0.6-5.1,0.4c-1.5-0.2-2.8-0.7-4-1.6c-1.2-0.9-2.1-2.1-2.7-3.6
		c-0.9-2-1.4-5.3-1.5-10.1l-0.3-21l4.8-1.3l0.3,20.2c0,2,0.1,4,0.3,6c0.2,1.3,0.5,2.4,1,3.5c0.7,1.3,1.7,2.2,2.9,2.6
		c1.3,0.5,2.8,0.5,4.3,0.1c1.5-0.3,3.1-1.2,4.3-2.5c1.1-1.2,2-2.7,2.5-4.3c0.6-1.8,0.9-3.7,0.9-5.6c0-0.5,0-1.8,0-3.9l-0.3-20.4
		L-400.2,1010.2z M-391.6,1007.9l8-2.1c1.5-0.4,3-0.7,4.5-1c1-0.1,2.1-0.1,3.1,0c1.1,0.1,2.1,0.5,3,1.2c0.8,0.7,1.5,1.6,2,2.7
		c0.5,1.1,0.7,2.4,0.8,3.8c0.1,2.2-0.5,4.5-1.8,6.5c-1.4,2-3.2,3.5-5.1,4.3c0.9,0.2,1.7,0.6,2.4,1.3c0.7,0.9,1.4,1.9,1.8,3l5.8,12.6
		l-5.5,1.4l-4.5-10.4c-0.5-1.2-1.1-2.3-1.8-3.3c-0.5-0.6-1.1-0.9-1.8-1c-1,0-2,0.1-3,0.4l-2.7,0.7l0.3,17.2l-4.8,1.3L-391.6,1007.9z
		 M-386.8,1011.3l0.2,11.9l2.9-0.8c5.6-1.5,8.4-4.2,8.3-8.2c0-2.4-0.8-3.8-2.3-4.2c-1.8-0.4-3.8-0.2-5.8,0.4L-386.8,1011.3z
		 M-347.3,996.2l15.1,34.7l-5.4,1.4l-3.7-8.8l-16.2,4.3l-3.3,10.7l-5.2,1.4l13.6-42.3L-347.3,996.2z M-342.9,1019.2l-4-9.7
		c-0.8-1.8-1.4-3.3-1.8-4.4c-0.4-1.1-0.8-2.3-1.1-3.5c-0.2,1.1-0.5,2.2-0.8,3.3c-0.3,1.1-0.9,3.2-1.8,6.1l-3.5,11.6L-342.9,1019.2z
		 M-301.6,984.1l0.6,38.5l-6.2,1.6l-10.9-18.1c-1.9-3.2-3.2-5.6-3.9-6.9c-0.8-1.5-1.4-3.1-1.9-4.8c0.3,4.2,0.6,9,0.7,14.5l0.3,19.6
		l-4.8,1.3l-0.6-38.5l6.5-1.7l11.7,19.7c2.4,4,4,7.3,4.8,9.8c-0.3-2.5-0.4-4.2-0.5-5.1c-0.1-1.5-0.1-3-0.2-4.4
		c0-1.5-0.1-2.4-0.1-2.8s0-1.3-0.1-2.8l-0.3-18.5L-301.6,984.1z M-271.1,976.1l0.1,4.7l-10.5,2.8l0.6,33.8l-4.8,1.3l-0.6-33.8
		l-10.7,2.8l-0.1-4.7L-271.1,976.1z"/>
</g>
<g id="Group_638_1_" transform="translate(634 1)">
	<path id="Path_125" class="st6" d="M-175.7,1200.3c-0.1-0.8-0.3-1.6-0.7-2.2l0.2-0.1l-4.7-23c-0.4,0-0.9-0.1-1.3-0.2
		c-0.5,1.5-1.4,2.9-2.5,3.8l-12.8,10.8l3.6,17.5l-0.2,40.3c0,2.9,1.8,4.9,4.1,4.4l0.3-0.1c2.2-0.6,3.9-3.2,3.9-6l0.2-41.9l0-0.7
		l1.8-1c0,0.4,0,0.8,0,1.1l3.9,40.8c0.3,2.7,2.1,4.3,4.3,3.7l0.3-0.1c2.2-0.8,3.8-3.7,3.6-6.5c0,0,0,0,0,0L-175.7,1200.3z"/>
	<path id="Path_126" class="st6" d="M-184,1170.3c-0.9-2-2.9-2.4-4.6-1l-1.2,1.1l0,0l-2.5,2l0.1,0l-5.1,4.3l0.6-1.9l0,0l6.5-7.3
		c0.1-0.9,0.2-1.7,0.5-2.6l0,0c0.5-1.3,1.2-2.5,2.1-3.4c0.7-0.7,1.6-1.3,2.5-1.6c0.6-1.4,1.6-2.5,2.7-3.2c0.2-0.1,0.4-0.3,0.7-0.4
		l1.7-13.5c0.2-1.2-0.1-2.4-0.7-3.3l-9.7-13.9c-1.2-1.6-3.3-1.5-4.8,0.3c-1.4,1.8-1.7,4.5-0.6,6.1l8.8,12.6l0,0.1
		c2.9,4.9,1.8,12.6-2.5,17.3c-0.9,1-1.9,1.8-3,2.4c-0.6,0.3-1.2,0.6-1.8,0.7c-0.5,0.1-1,0.2-1.5,0.3c0,0-0.1,0-0.1,0l0,0l0,0
		l-4.1,2.2c-1.1,0.6-1.9,1.7-2.4,3.1l-4.6,15.6c-0.7,2.4,0.1,4.7,1.9,5.3c0.5,0.1,1,0.2,1.5,0c0.5-0.1,0.9-0.4,1.3-0.8l16.8-14.3
		C-183.8,1175.1-183.1,1172.3-184,1170.3L-184,1170.3z"/>
	<path id="Path_127" class="st6" d="M-181.7,1159.3c-0.7,0.4-1.2,1.1-1.6,2c-0.3,0.7-0.8,1.3-1.4,1.4l-0.1,0c-0.6,0.2-1.1,0.5-1.6,1
		c-0.6,0.7-1.1,1.5-1.4,2.5c2.3-0.8,4.5,0.2,5.5,2.6c0.4,0.8,0.6,1.8,0.6,2.8c0.6,0.3,1.2,0.4,1.9,0.2c0.6-0.2,1.1-0.5,1.6-1
		c1.1-1.3,1.6-3.2,1.2-4.8c-0.1-0.5-0.4-0.9-0.7-1.2c-0.4-0.5-0.5-1.2-0.4-1.9c0.2-1.1,0.1-2.2-0.5-3c-0.6-0.8-1.5-1.2-2.4-1
		C-181.2,1159-181.4,1159.1-181.7,1159.3L-181.7,1159.3z"/>
	<path id="Path_128" class="st6" d="M-174.4,1160.3"/>
	<path id="Path_129" class="st6" d="M-175.8,1159.5c0.1-0.1,0.2-0.2,0.3-0.2c0.8-0.7,1.1-2,0.7-3c-0.4-0.9-1.4-1.1-2.2-0.4l0,0
		c-0.2,0.2-0.4,0.5-0.6,0.8c-0.3,0.7-0.4,1.5-0.1,2.2C-177.3,1159.6-176.6,1159.9-175.8,1159.5L-175.8,1159.5z"/>
	<path id="Path_130" class="st6" d="M-172.4,1153.8"/>
	<path id="Path_131" class="st6" d="M-194.5,1162.1c0.4-0.1,0.9-0.3,1.3-0.5c3.8-2,6.1-7.3,5.2-12c-0.8-4.1-3.9-6.3-7.3-5.4
		c-0.4,0.1-0.9,0.3-1.3,0.5c-3.8,2-6.1,7.3-5.2,12C-200.9,1160.8-197.9,1163-194.5,1162.1L-194.5,1162.1z"/>
	<path id="Path_132" class="st6" d="M-63.9,1211.1c0,2.9,1.8,4.9,4.1,4.4l0.3-0.1c2.2-0.6,3.9-3.2,3.9-6l0.2-41.9
		c0-0.4,0-0.8-0.1-1.1l1.9-0.1c0,0.2,0,0.5,0,0.7l3.9,40.8c0.3,2.7,2.1,4.3,4.3,3.7l0.3-0.1c2.2-0.8,3.8-3.7,3.6-6.5c0,0,0,0,0,0
		l-3.7-39.3l1.9-19l-13.5-3.5c-1.2-0.3-2.1-1.1-2.8-2.3c-0.4,0.4-0.8,0.7-1.2,0.9l-2.6,25.1l0.2,0c-0.3,0.8-0.5,1.6-0.5,2.5
		L-63.9,1211.1z"/>
	<path id="Path_133" class="st6" d="M-58.3,1135.4c-0.7,2.4,0.3,4.7,2,5.2l17.7,4.7c0.4,0.1,0.9,0.1,1.4,0c1.9-0.5,3.3-2.8,3.2-5.2
		c0-0.6-0.2-1.3-0.4-1.8l-5.9-12.6c-0.5-1.1-1.5-1.8-2.6-1.7l-4.2,0.1l0,0l0,0c0,0-0.1,0-0.1,0.1c-0.5,0.2-1,0.4-1.5,0.6
		c-0.6,0.2-1.2,0.3-1.8,0.3c-5.2,0.2-8.8-5.1-8.2-11.9c0.1-1.4,0.5-2.9,1-4.3l0-0.1l7.4-17.1c1-2.2,0.5-4.8-1.1-5.8
		c-1.6-1-3.7,0.1-4.7,2.3c0,0,0,0.1,0,0.1l-8.2,18.8c-0.5,1.1-0.6,2.4-0.4,3.6l2.9,12.2c0.2,0,0.5,0,0.7,0c1.1,0.1,2.1,0.7,2.9,1.7
		c0.9-0.2,1.7-0.1,2.5,0.2c1,0.4,1.8,1.1,2.4,2.2l0,0c0.3,0.7,0.6,1.5,0.7,2.3l7,3.6l0,0l0.7,1.6l-5.3-1.4l0.1,0l-2.6-0.6l0,0
		l-1.3-0.4C-55.7,1131.5-57.6,1133-58.3,1135.4L-58.3,1135.4z"/>
	<path id="Path_134" class="st6" d="M-61.5,1125.9c-0.2,0-0.5,0-0.7,0.1c-0.9,0.3-1.8,1.1-2.3,2.3c-0.4,1-0.5,2.2-0.2,3.2
		c0.2,0.6,0.1,1.4-0.2,2.1c-0.3,0.5-0.4,1-0.6,1.6c-0.3,1.8,0.3,3.4,1.6,4c0.5,0.2,1.1,0.3,1.6,0.1c0.7-0.2,1.3-0.6,1.8-1.3
		c-0.1-1,0-2,0.3-3c0.8-2.9,2.9-5.2,5.2-5.6c-0.3-0.8-0.9-1.4-1.6-1.7c-0.5-0.2-1.1-0.2-1.7-0.1l-0.1,0c-0.6,0.2-1.1-0.1-1.5-0.6
		C-60.2,1126.4-60.8,1126-61.5,1125.9L-61.5,1125.9z"/>
	<path id="Path_135" class="st6" d="M-68.6,1130.9"/>
	<path id="Path_136" class="st6" d="M-67.2,1129.3"/>
	<path id="Path_137" class="st6" d="M-71.1,1125.6"/>
	<path id="Path_138" class="st6" d="M-48.8,1121.6c3.9-1.1,6.9-5.9,6.7-10.9c-0.2-4.3-2.8-7.3-6.2-7.2c-0.4,0-0.9,0.1-1.3,0.2
		c-3.9,1.1-6.9,5.9-6.7,10.9c0.2,4.3,2.8,7.3,6.2,7.2C-49.6,1121.8-49.2,1121.7-48.8,1121.6L-48.8,1121.6z"/>
	<path id="Path_139" class="st6" d="M-78.9,1147.2l3.1,70l-82.9,23l-3.1-70l-5.6,1.5l3.4,77.5l94.1-26.1l-3.4-77.5L-78.9,1147.2z"/>
	<g id="Group_187" transform="translate(87.725 89.192)">
		<path id="Path_140" class="st8" d="M-249.4,1087.3c9.4,1.3,18.3-9,27.7-7.8"/>
		<path id="Path_141" class="st8" d="M-221.7,1079.4c9.4,1.3,18.3-9,27.7-7.8"/>
		<path id="Path_142" class="st8" d="M-194,1071.7c9.4,1.3,18.3-9,27.7-7.8"/>
	</g>
	<g id="Group_188" transform="translate(87.725 95.066)">
		<path id="Path_143" class="st8" d="M-249.2,1085.2c9.4,1.3,18.3-9,27.7-7.8"/>
		<path id="Path_144" class="st8" d="M-221.5,1077.4c9.4,1.3,18.3-9,27.7-7.8"/>
		<path id="Path_145" class="st8" d="M-193.8,1069.7c9.4,1.3,18.3-9,27.7-7.8"/>
	</g>
	<g id="Group_189" transform="translate(87.725 100.938)">
		<path id="Path_146" class="st8" d="M-249,1083.2c9.4,1.3,18.3-9,27.7-7.8"/>
		<path id="Path_147" class="st8" d="M-221.3,1075.4c9.4,1.3,18.3-9,27.7-7.8"/>
		<path id="Path_148" class="st8" d="M-193.7,1067.6c9.4,1.3,18.3-9,27.7-7.8"/>
	</g>
	<g id="Group_190" transform="translate(87.725 106.755)">
		<path id="Path_149" class="st8" d="M-248.9,1081.2c9.4,1.3,18.3-9,27.7-7.8"/>
		<path id="Path_150" class="st8" d="M-221.2,1073.4c9.4,1.3,18.3-9,27.7-7.8"/>
		<path id="Path_151" class="st8" d="M-193.5,1065.6c9.4,1.3,18.3-9,27.7-7.8"/>
	</g>
	<g id="Group_191" transform="translate(87.725 112.628)">
		<path id="Path_152" class="st8" d="M-248.7,1079.1c9.4,1.3,18.3-9,27.7-7.8"/>
		<path id="Path_153" class="st8" d="M-221,1071.4c9.4,1.3,18.3-9,27.7-7.8"/>
		<path id="Path_154" class="st8" d="M-193.3,1063.6c9.4,1.3,18.3-9,27.7-7.8"/>
	</g>
	<g id="Group_192" transform="translate(87.725 118.502)">
		<path id="Path_155" class="st8" d="M-248.5,1077.1c9.4,1.3,18.3-9,27.7-7.8"/>
		<path id="Path_156" class="st8" d="M-220.8,1069.4c9.4,1.3,18.3-9,27.7-7.8"/>
		<path id="Path_157" class="st8" d="M-193.2,1061.6c9.4,1.3,18.3-9,27.7-7.8"/>
	</g>
	<g id="Group_193" transform="translate(87.725 124.375)">
		<path id="Path_158" class="st8" d="M-248.3,1075.1c9.4,1.3,18.3-9,27.7-7.8"/>
		<path id="Path_159" class="st8" d="M-220.7,1067.3c9.4,1.3,18.3-9,27.7-7.8"/>
		<path id="Path_160" class="st8" d="M-193,1059.6c9.4,1.3,18.3-9,27.7-7.8"/>
	</g>
	<g id="Group_194" transform="translate(87.725 130.191)">
		<path id="Path_161" class="st8" d="M-248.2,1073.1c9.4,1.3,18.3-9,27.7-7.8"/>
		<path id="Path_162" class="st8" d="M-220.5,1065.3c9.4,1.3,18.3-9,27.7-7.8"/>
		<path id="Path_163" class="st8" d="M-192.8,1057.6c9.4,1.3,18.3-9,27.7-7.8"/>
	</g>
	<g id="Group_195" transform="translate(87.725 136.064)">
		<path id="Path_164" class="st8" d="M-248,1071.1c9.4,1.3,18.3-9,27.7-7.8"/>
		<path id="Path_165" class="st8" d="M-220.3,1063.3c9.4,1.3,18.3-9,27.7-7.8"/>
		<path id="Path_166" class="st8" d="M-192.6,1055.6c9.4,1.3,18.3-9,27.7-7.8"/>
	</g>
	<g id="Group_196" transform="translate(87.725 141.938)">
		<path id="Path_167" class="st8" d="M-247.8,1069.1c9.4,1.3,18.3-9,27.7-7.8"/>
		<path id="Path_168" class="st8" d="M-220.1,1061.3c9.4,1.3,18.3-9,27.7-7.8"/>
		<path id="Path_169" class="st8" d="M-192.5,1053.5c9.4,1.3,18.3-9,27.7-7.8"/>
	</g>
	<g id="Group_197" transform="translate(87.725 147.754)">
		<path id="Path_170" class="st8" d="M-247.7,1067.1c9.4,1.3,18.3-9,27.7-7.8"/>
		<path id="Path_171" class="st8" d="M-220,1059.3c9.4,1.3,18.3-9,27.7-7.8"/>
		<path id="Path_172" class="st8" d="M-192.3,1051.5c9.4,1.3,18.3-9,27.7-7.8"/>
	</g>
	<g id="Group_198" transform="translate(87.725 153.628)">
		<path id="Path_173" class="st8" d="M-247.5,1065c9.4,1.3,18.3-9,27.7-7.8"/>
		<path id="Path_174" class="st8" d="M-219.8,1057.3c9.4,1.3,18.3-9,27.7-7.8"/>
		<path id="Path_175" class="st8" d="M-192.1,1049.5c9.4,1.3,18.3-9,27.7-7.8"/>
	</g>
	<g id="Group_199" transform="translate(87.725 159.501)">
		<path id="Path_176" class="st8" d="M-247.3,1063c9.4,1.3,18.3-9,27.7-7.8"/>
		<path id="Path_177" class="st8" d="M-219.6,1055.3c9.4,1.3,18.3-9,27.7-7.8"/>
		<path id="Path_178" class="st8" d="M-192,1047.5c9.4,1.3,18.3-9,27.7-7.8"/>
	</g>
	<g id="Group_200" transform="translate(87.725 165.318)">
		<path id="Path_179" class="st8" d="M-247.1,1061c9.4,1.3,18.3-9,27.7-7.8"/>
		<path id="Path_180" class="st8" d="M-219.5,1053.3c9.4,1.3,18.3-9,27.7-7.8"/>
		<path id="Path_181" class="st8" d="M-191.8,1045.5c9.4,1.3,18.3-9,27.7-7.8"/>
	</g>
	<g id="Group_201" transform="translate(87.725 171.191)">
		<path id="Path_182" class="st8" d="M-247,1059c9.4,1.3,18.3-9,27.7-7.8"/>
		<path id="Path_183" class="st8" d="M-219.3,1051.2c9.4,1.3,18.3-9,27.7-7.8"/>
		<path id="Path_184" class="st8" d="M-191.6,1043.5c9.4,1.3,18.3-9,27.7-7.8"/>
	</g>
	<g id="Group_202" transform="translate(87.725 177.064)">
		<path id="Path_185" class="st8" d="M-246.8,1057c9.4,1.3,18.3-9,27.7-7.8"/>
		<path id="Path_186" class="st8" d="M-219.1,1049.2c9.4,1.3,18.3-9,27.7-7.8"/>
		<path id="Path_187" class="st8" d="M-191.4,1041.4c9.4,1.3,18.3-9,27.7-7.8"/>
	</g>
	<g id="Group_203" transform="translate(87.725 182.88)">
		<path id="Path_188" class="st8" d="M-246.6,1055c9.4,1.3,18.3-9,27.7-7.8"/>
		<path id="Path_189" class="st8" d="M-219,1047.2c9.4,1.3,18.3-9,27.7-7.8"/>
		<path id="Path_190" class="st8" d="M-191.3,1039.4c9.4,1.3,18.3-9,27.7-7.8"/>
	</g>
	<path id="Path_131248" class="st6" d="M-541,1251.7l-0.2-5.5l26.5-7.4l0.2,5.5l-3.8,1l0.4,8.2l-11.9,3.3c-0.6,0.1-1.2,0.5-1.8,0.9
		c-0.4,0.3-0.7,0.9-0.7,1.5c0.1,0.7,0.4,1.3,0.8,1.8c0.7,0.8,1.4,1.4,2.2,1.9c1.3-1.1,2.6-1.8,4-2.2c2.2-0.7,4.4-0.3,6.1,1
		c1.7,1,2.7,3.1,2.8,5.6c0,1.3-0.2,2.6-0.7,3.8c-0.5,1.4-1.3,2.7-2.2,3.8l-3.4-2.3c0.5-0.6,0.8-1.3,1.1-2c0.3-0.6,0.4-1.3,0.3-1.9
		c-0.1-1-0.5-1.8-1.2-2.1c-0.8-0.4-1.8-0.5-2.7-0.2c-1.8,0.4-3.4,1.6-4.8,3.2c-1.3,1.7-1.9,3.4-1.8,5.2c0.2,2.6,1.2,4.5,3.3,5.7
		c2.2,1.3,4.7,1.5,7.3,0.8l5.4-1.5l0.3,5.6l-5.5,1.5c-4.1,1.1-7.7,0.7-10.7-1.5c-3-2.1-4.6-5.2-4.8-9.4c-0.1-1.6,0.2-3.3,0.7-4.8
		c0.6-1.6,1.4-3.1,2.5-4.3c-1.1-0.6-2-1.5-2.7-2.7c-0.7-1.1-1.1-2.4-1.1-3.8c-0.1-2.1,0.6-4.2,1.9-5.7c1.5-1.8,3.3-3.1,5.2-3.6
		l7-1.9l-0.1-2.6L-541,1251.7z M-515.7,1244.7l-0.2-5.5l14.3-4l0.2,5.5l-4.8,1.3l1.4,32.2l-4.8,1.3l-1.4-32.2L-515.7,1244.7z
		 M-525.3,1232.6l2.1-5.1l14.8,9.4l-8.5-14.5l3.8-2.9l7.1,17l-5.1,1.4L-525.3,1232.6z M-502.2,1240.9l-0.2-5.5l26.6-7.4l0.2,5.5
		l-4.5,1.2l0.5,11.5l-10.4,2.9c-1.2,0.3-2.3,1.1-3.2,2.3c-0.8,1.1-1.2,2.5-1.2,3.8c0.1,2.5,1.2,4.6,2.9,5.6c1.9,1.3,4.2,1.6,6.5,0.9
		c-0.3-0.7-0.5-1.5-0.5-2.3c0-1.3,0.3-2.6,1-3.7c0.7-1.1,1.7-1.9,2.7-2.2c1.1-0.3,2.1,0,2.9,0.9c0.8,0.8,1.3,2.1,1.4,3.5
		c0,1-0.2,2-0.5,3c-0.4,1.2-1,2.3-1.7,3.2l3.5,6.4l-4.1,3.7l-3.2-7.2c-4.1,1.1-7.7,0.7-10.8-1.3c-3.1-2-4.8-5-4.9-9
		c-0.2-2.8,0.7-5.8,2.4-8.1c1.7-2.6,4.1-4.4,6.5-5l5.7-1.6l-0.3-5.8L-502.2,1240.9z M-476.8,1233.9l-0.2-5.5l14.3-4l0.2,5.5
		l-4.8,1.3l1.4,32.2l-4.8,1.3l-1.4-32.2L-476.8,1233.9z"/>
	<path id="Path_131249" class="st6" d="M-510,1294l1.9,43l-4.9,1.4l-0.9-19.7l-16.5,4.6l0.9,19.7l-4.9,1.3l-1.9-43l4.9-1.4l0.8,18
		l16.5-4.6l-0.8-18L-510,1294z M-486.8,1286.7c3.1-1,6.2-0.8,9,0.4c2.6,1.2,4.7,3.4,6,6.3c1.5,3.2,2.3,7,2.5,11
		c0.2,3.1-0.1,6.4-0.7,9.5c-0.6,2.8-1.6,5.5-3,8c-1.4,2.4-3.1,4.4-5,5.9c-2.1,1.7-4.4,2.8-6.7,3.4c-3.1,1-6.2,0.8-9-0.4
		c-2.6-1.2-4.7-3.4-6.1-6.4c-1.5-3.2-2.3-6.9-2.5-10.9c-0.2-3,0.1-6.1,0.7-9.2c0.6-2.8,1.5-5.5,2.9-8c1.3-2.4,3-4.5,5-6.1
		C-491.5,1288.6-489.2,1287.4-486.8,1286.7L-486.8,1286.7z M-486.6,1291.6c-2.1,0.5-4.1,1.9-5.7,3.8c-1.7,2-3,4.5-3.7,7.3
		c-0.8,3.1-1.2,6.3-1,9.4c0.1,2.4,0.5,4.7,1.1,6.8c0.6,1.9,1.5,3.6,2.6,5c1,1.2,2.3,2.1,3.7,2.6c1.5,0.4,3,0.4,4.6,0
		c1.6-0.4,3.1-1.3,4.4-2.5c1.4-1.2,2.5-2.8,3.4-4.6c1-1.9,1.7-4,2.1-6.1c0.5-2.4,0.6-4.8,0.5-7.2c-0.1-2.5-0.5-4.8-1.1-7
		c-0.6-1.9-1.4-3.6-2.6-4.9c-1-1.3-2.3-2.1-3.8-2.6C-483.4,1291.1-485,1291.1-486.6,1291.6L-486.6,1291.6z M-437,1273.8l1.1,24.2
		c0.2,2.6,0.1,5.2-0.1,7.8c-0.2,1.8-0.6,3.7-1.3,5.4c-1,2.5-2.5,4.8-4.3,6.4c-2,1.8-4.2,3-6.5,3.6c-1.8,0.5-3.5,0.6-5.2,0.4
		c-1.5-0.2-2.9-0.8-4.2-1.8c-1.2-1-2.2-2.4-2.9-4c-1-2.2-1.6-6-1.8-11.2l-1-23.4l4.9-1.4l1,22.5c0.1,2.3,0.3,4.5,0.5,6.7
		c0.2,1.4,0.6,2.7,1.2,3.9c0.7,1.4,1.8,2.5,3.1,3c1.4,0.6,2.9,0.6,4.4,0.2c1.6-0.4,3.1-1.3,4.4-2.7c1.1-1.3,2-3,2.4-4.8
		c0.5-2,0.8-4.1,0.7-6.2c0-0.6,0-2-0.1-4.3l-1-22.7L-437,1273.8z M-428.3,1271.3l7.1-2c1.9-0.6,3.8-1,5.7-1.3
		c2.2-0.4,4.4-0.2,6.5,0.5c1.9,0.6,3.7,1.7,5.2,3.2c1.4,1.5,2.6,3.4,3.4,5.6c0.9,2.4,1.4,5,1.5,7.7c0.1,2.3-0.1,4.6-0.5,6.9
		c-0.4,2.2-1.1,4.4-2,6.4c-0.9,2-2.1,3.8-3.4,5.5c-1.4,1.7-2.9,3.1-4.6,4.3c-0.8,0.6-1.7,1.1-2.6,1.6c-0.9,0.4-1.8,0.8-2.8,1.2
		c-1,0.4-2.3,0.8-3.7,1.2l-7.8,2.2L-428.3,1271.3z M-423.2,1275.2l1.4,32.5l2.5-0.7c1.7-0.4,3.4-1,5.1-1.7c1.2-0.6,2.4-1.3,3.5-2.2
		c1.4-1.2,2.7-2.7,3.7-4.5c1-1.8,1.8-3.7,2.2-5.8c0.5-2.2,0.7-4.4,0.6-6.5c-0.1-1.7-0.3-3.3-0.8-4.8c-0.4-1.5-1.1-2.8-1.8-3.9
		c-0.8-1.1-1.7-2-2.7-2.7c-1-0.7-2.2-1.1-3.4-1.3c-1-0.2-2-0.2-3,0c-1.6,0.2-3.2,0.6-4.7,1L-423.2,1275.2z M-377.6,1257.2l16.7,38.9
		l-5.5,1.5l-4-9.9l-16.5,4.6l-3,11.9l-5.3,1.5l12.6-47L-377.6,1257.2z M-372.4,1282.9l-4.4-10.9c-0.9-2.1-1.5-3.7-2-4.9
		c-0.5-1.3-0.9-2.6-1.2-3.9c-0.2,1.2-0.4,2.5-0.7,3.7c-0.3,1.2-0.9,3.5-1.7,6.8l-3.2,12.9L-372.4,1282.9z"/>
</g>
</svg>
