<svg xmlns="http://www.w3.org/2000/svg" xmlns:xlink="http://www.w3.org/1999/xlink" width="341.988" height="287.319" viewBox="0 0 341.988 287.319">
  <defs>
    <linearGradient id="linear-gradient" x1="0.5" x2="0.5" y2="1" gradientUnits="objectBoundingBox">
      <stop offset="0" stop-color="#1df73d"/>
      <stop offset="1" stop-color="#0f7c1f"/>
    </linearGradient>
    <clipPath id="clip-path">
      <path id="Path_131312" data-name="Path 131312" d="M0,0H127.18V12.525H0Z"/>
    </clipPath>
    <clipPath id="clip-path-2">
      <path id="Path_131311" data-name="Path 131311" d="M0,0H103.093V12.525H0Z" stroke="#707070" stroke-width="1"/>
    </clipPath>
  </defs>
  <g id="Group_30623" data-name="Group 30623" transform="translate(-5687 -570.681)">
    <path id="Path_131309" data-name="Path 131309" d="M3739.335,8641.482a72.839,72.839,0,1,1,28.256,5.7A72.535,72.535,0,0,1,3739.335,8641.482Zm-39.148-66.89a67.406,67.406,0,1,0,67.4-67.4A67.483,67.483,0,0,0,3700.187,8574.593Zm48.147,27.044-26.495-35.163a3.671,3.671,0,1,1,5.862-4.42l24.287,32.235,55.673-41.954a3.667,3.667,0,0,1,4.415,5.855l-58.6,44.166a3.67,3.67,0,0,1-5.138-.72Z" transform="translate(2090 -7789.187)" fill="url(#linear-gradient)"/>
    <g id="Group_30622" data-name="Group 30622" transform="translate(5687 570.681)">
      <path id="Path_7819" data-name="Path 7819" d="M0,0V79.336" transform="translate(70.566)" fill="none" stroke="#707070" stroke-width="1"/>
      <g id="Group_11608" data-name="Group 11608" transform="translate(80.882 0.231)">
        <g id="Group_11607" data-name="Group 11607" transform="translate(0 45.396)">
          <g id="Group_8033" data-name="Group 8033">
            <g id="Mask_Group_75" data-name="Mask Group 75" transform="translate(0 0)" clip-path="url(#clip-path)">
              <path id="Path_7815" data-name="Path 7815" d="M.341.564h0ZM0,10.826H2.521V6.688H7.074V4.494H2.521V2.521H7.934V.237H0Zm27.851,0h7.563V8.542H30.372V.237H27.851Zm27.851,0h8.483V8.542H58.224V6.407h5.191V4.3H58.224V2.432h5.813V.237H55.7Zm28.667,0h8.483V8.542H86.891V6.407h5.191V4.3H86.891V2.432H92.7V.237H84.37Zm31.01,0H117.9v-8.3h3.188V.237h-8.9V2.521h3.189ZM148.155,6.54A2.253,2.253,0,0,1,145.9,8.957c-1.142,0-2.6-.89-2.6-3.426s1.453-3.426,2.7-3.426a2.019,2.019,0,0,1,2.121,1.809h2.462C150.587,1.617,148.347,0,146,0c-3.011,0-5.22,2.165-5.22,5.532s2.225,5.532,5.116,5.532a4.472,4.472,0,0,0,4.775-4.523ZM170.1,10.826h2.61l.816-2.358H177.1l.816,2.358h2.7L176.629.237h-2.521ZM174.345.564h2.047l3.737,9.936h-1.972l-.816-2.358h-4.049l-.816,2.358h-1.883ZM176.5,6.54h-2.314l1.157-3.218h.03Zm-.1-5.977h-2.047L170.593,10.5h1.883l.816-2.358h4.049l.816,2.358h1.972Zm24.114,10.263h2.521V6.852h1.765c1.5,0,1.958.252,2.076,2.15.074,1.142.163,1.705.326,1.824h2.744c-.208-.208-.489-.475-.564-1.542L209.3,8.29a2.723,2.723,0,0,0-1.275-2.477,2.767,2.767,0,0,0,1.394-2.566c0-2.3-1.809-3.011-3.708-3.011h-5.205ZM200.847.564H205.5c.9,0,3.574,0,3.574,2.8a2.825,2.825,0,0,1-1.587,2.462v.03c1.009.608,1.305.86,1.468,2.477l.074.934c.074.845.163,1.112.267,1.231h-1.883a4.16,4.16,0,0,1-.208-1.2l-.045-.742c-.119-2.032-1.112-2.032-2.462-2.032h-2.017Zm2.18,1.78h2.106c.682,0,1.765.015,1.765,1.275,0,1.305-1.083,1.305-1.765,1.305h-2.106Zm2.664,4.326.855.478.619,2.151s-.073,1.1.252,1.2a17.657,17.657,0,0,0,1.958.152l-.341-2.694-.4-1.433-1-.667a4.412,4.412,0,0,0,1.246-1.144,2.329,2.329,0,0,0,.3-1.348,2.83,2.83,0,0,0-1.156-2.3,3.764,3.764,0,0,0-2.521-.5h-4.657l1.527,6.164Zm27.1-4.237h1.631c.534,0,2.758,0,2.758,3.1s-2.225,3.1-2.758,3.1h-1.631Zm-2.18,8.068h4.019c2.15,0,4.731-.924,4.731-4.968S236.781.564,234.63.564h-4.019Zm0-9.936h4.019c2.922,0,4.731,1.78,4.731,4.968S237.552,10.5,234.63,10.5h-4.019Zm-.341,10.263h4.36c2.966,0,5.072-1.676,5.072-5.294S237.6.237,234.63.237h-4.36Z" transform="translate(2.789 1.223)"/>
            </g>
            <g id="Mask_Group_74" data-name="Mask Group 74" transform="translate(158.012)" clip-path="url(#clip-path-2)">
              <path id="Path_7816" data-name="Path 7816" d="M.342.565h0ZM0,10.851H2.527V6.7H7.09V4.5H2.527V2.527H7.952V.238H0Zm27.915,0H35.5V8.562H30.442V.238H27.915Zm27.915,0h8.5V8.562H58.357V6.421h5.2V4.311h-5.2V2.438h5.827V.238H55.83Zm28.733,0h8.5V8.562H87.09V6.421h5.2V4.311h-5.2V2.438h5.827V.238H84.563Zm31.081,0h2.527V2.527h3.2V.238h-8.919V2.527h3.2Zm32.85-4.3a2.258,2.258,0,0,1-2.259,2.423c-1.145,0-2.6-.892-2.6-3.434s1.457-3.434,2.705-3.434a2.024,2.024,0,0,1,2.126,1.813h2.467c0-2.3-2.245-3.924-4.593-3.924-3.017,0-5.232,2.17-5.232,5.544s2.23,5.544,5.128,5.544a4.482,4.482,0,0,0,4.786-4.534Zm22,4.3h2.616l.818-2.363h3.582l.818,2.363h2.705l-4-10.613h-2.527ZM174.745.565H176.8l3.746,9.959h-1.977l-.818-2.363h-4.058l-.818,2.363h-1.888Zm2.155,5.99h-2.319l1.159-3.226h.03Zm-.1-5.99h-2.051l-3.761,9.959h1.888l.818-2.363h4.058l.818,2.363h1.977Zm24.169,10.286h2.527V6.867h1.769c1.5,0,1.962.253,2.081,2.155.074,1.145.164,1.709.327,1.828h2.75c-.208-.208-.49-.476-.565-1.546l-.074-1A2.729,2.729,0,0,0,208.5,5.827a2.773,2.773,0,0,0,1.4-2.572c0-2.3-1.813-3.017-3.716-3.017h-5.217ZM201.307.565h4.667c.907,0,3.582,0,3.582,2.809a2.831,2.831,0,0,1-1.59,2.467v.03c1.011.609,1.308.862,1.472,2.482l.074.936c.074.847.164,1.115.268,1.234h-1.888a4.172,4.172,0,0,1-.208-1.2l-.045-.743c-.119-2.036-1.115-2.036-2.467-2.036h-2.022Zm2.185,1.784H205.6c.684,0,1.769.015,1.769,1.278,0,1.308-1.085,1.308-1.769,1.308h-2.111Zm2.67,4.336.856.479.621,2.156s-.073,1.107.253,1.2a17.7,17.7,0,0,0,1.962.153l-.342-2.7-.4-1.436-1-.669a4.422,4.422,0,0,0,1.248-1.146,2.334,2.334,0,0,0,.3-1.351A2.836,2.836,0,0,0,208.5,1.067a3.772,3.772,0,0,0-2.527-.5h-4.667l1.531,6.178Zm27.163-4.247h1.635c.535,0,2.765,0,2.765,3.107s-2.23,3.107-2.765,3.107h-1.635Zm-2.185,8.086h4.028c2.155,0,4.742-.926,4.742-4.98s-2.586-4.98-4.742-4.98H231.14Zm0-9.959h4.028c2.928,0,4.742,1.784,4.742,4.98s-1.813,4.98-4.742,4.98H231.14ZM230.8,10.851h4.37c2.973,0,5.084-1.68,5.084-5.307S238.141.238,235.168.238H230.8Z" transform="translate(-140.274 0.297)"/>
            </g>
          </g>
          <path id="Path_7817" data-name="Path 7817" d="M6.4,6.15l1.854.588a4.158,4.158,0,0,1-1.418,2.3,4.045,4.045,0,0,1-2.516.753A4.074,4.074,0,0,1,1.214,8.5,4.931,4.931,0,0,1,0,4.981,5.177,5.177,0,0,1,1.221,1.308,4.186,4.186,0,0,1,4.432,0,3.939,3.939,0,0,1,7.255,1.027a3.735,3.735,0,0,1,.969,1.744l-1.893.452a1.956,1.956,0,0,0-2-1.589,2.155,2.155,0,0,0-1.709.756A3.7,3.7,0,0,0,1.97,4.839,3.972,3.972,0,0,0,2.616,7.4a2.1,2.1,0,0,0,1.68.762,1.915,1.915,0,0,0,1.311-.485A2.814,2.814,0,0,0,6.4,6.15Zm3.319-1.2a6.023,6.023,0,0,1,.433-2.429,4.457,4.457,0,0,1,.882-1.3A3.687,3.687,0,0,1,12.253.375,5.2,5.2,0,0,1,14.294,0a4.446,4.446,0,0,1,3.35,1.3A4.976,4.976,0,0,1,18.9,4.91,4.96,4.96,0,0,1,17.654,8.5a4.412,4.412,0,0,1-3.333,1.3A4.457,4.457,0,0,1,10.961,8.5,4.891,4.891,0,0,1,9.714,4.955Zm1.97-.065a3.549,3.549,0,0,0,.743,2.439,2.554,2.554,0,0,0,3.763.006,3.619,3.619,0,0,0,.733-2.471,3.561,3.561,0,0,0-.714-2.429,2.415,2.415,0,0,0-1.9-.8,2.431,2.431,0,0,0-1.906.811A3.578,3.578,0,0,0,11.685,4.89Zm8.939,4.742V.162h1.86L26.36,6.486V.162h1.777v9.47H26.218L22.4,3.456V9.632Zm12.163,0L29.4.162h2.074l2.4,7.009L36.191.162h2.028l-3.392,9.47Zm6.62,0V.162h7.022v1.6h-5.11v2.1h4.755v1.6H41.319V8.036h5.291v1.6Zm9.055,0V.162h1.86L54.2,6.486V.162h1.776v9.47H54.056L50.238,3.456V9.632Zm9.688,0V.162h1.912v9.47Zm3.946,0V.162h7.022v1.6h-5.11v2.1h4.755v1.6H64.008V8.036H69.3v1.6Zm9.055,0V.162h1.86l3.876,6.324V.162h1.776v9.47H76.746L72.928,3.456V9.632Zm11.878,0V1.764H80.22V.162h7.526v1.6h-2.8V9.632Zm4.637-1.815h1.815v1.3a4.526,4.526,0,0,1-.136,1.244,1.857,1.857,0,0,1-.514.817,2.647,2.647,0,0,1-.959.568l-.355-.749a1.529,1.529,0,0,0,.782-.5,1.5,1.5,0,0,0,.246-.866h-.879ZM95.015,6.55l1.86-.181a2.27,2.27,0,0,0,.682,1.376,2.061,2.061,0,0,0,1.386.439,2.13,2.13,0,0,0,1.392-.391,1.163,1.163,0,0,0,.468-.914.862.862,0,0,0-.2-.572,1.575,1.575,0,0,0-.688-.41q-.336-.116-1.531-.413a5.194,5.194,0,0,1-2.158-.937,2.464,2.464,0,0,1-.872-1.906,2.434,2.434,0,0,1,.41-1.353A2.568,2.568,0,0,1,96.95.329,4.738,4.738,0,0,1,98.814,0,4,4,0,0,1,101.5.782a2.759,2.759,0,0,1,.946,2.087l-1.912.084a1.624,1.624,0,0,0-.526-1.05,1.928,1.928,0,0,0-1.211-.32,2.185,2.185,0,0,0-1.3.342.69.69,0,0,0-.3.588.727.727,0,0,0,.284.575,5.027,5.027,0,0,0,1.757.633,9.273,9.273,0,0,1,2.064.682,2.66,2.66,0,0,1,1.047.963,2.815,2.815,0,0,1,.378,1.508,2.789,2.789,0,0,1-.452,1.525,2.71,2.71,0,0,1-1.279,1.056,5.364,5.364,0,0,1-2.061.346,4.1,4.1,0,0,1-2.758-.83A3.611,3.611,0,0,1,95.015,6.55Zm9.521,3.081V.162h7.022v1.6h-5.11v2.1H111.2v1.6h-4.755V8.036h5.291v1.6Zm15.1-3.482,1.854.588a4.158,4.158,0,0,1-1.418,2.3A4.462,4.462,0,0,1,114.45,8.5a4.931,4.931,0,0,1-1.214-3.524,5.177,5.177,0,0,1,1.221-3.673A4.186,4.186,0,0,1,117.667,0a3.939,3.939,0,0,1,2.823,1.027,3.735,3.735,0,0,1,.969,1.744l-1.893.452a1.956,1.956,0,0,0-2-1.589,2.155,2.155,0,0,0-1.709.756,3.705,3.705,0,0,0-.656,2.448,3.972,3.972,0,0,0,.646,2.558,2.1,2.1,0,0,0,1.68.762,1.915,1.915,0,0,0,1.311-.485A2.814,2.814,0,0,0,119.631,6.15ZM123.325.162h1.912V5.291a10.64,10.64,0,0,0,.071,1.583,1.534,1.534,0,0,0,.585.933,2.037,2.037,0,0,0,1.263.352,1.927,1.927,0,0,0,1.227-.333,1.314,1.314,0,0,0,.5-.817,10.653,10.653,0,0,0,.084-1.609V.162h1.912V5.136a12.783,12.783,0,0,1-.155,2.41,2.667,2.667,0,0,1-.572,1.189,2.889,2.889,0,0,1-1.114.772,4.848,4.848,0,0,1-1.822.287,5.245,5.245,0,0,1-2.057-.313,2.942,2.942,0,0,1-1.108-.814,2.61,2.61,0,0,1-.536-1.05,11.5,11.5,0,0,1-.187-2.4Zm9.785,9.47V.162h4.025a6.889,6.889,0,0,1,2.206.255,2.176,2.176,0,0,1,1.1.908,2.728,2.728,0,0,1,.413,1.492,2.528,2.528,0,0,1-.627,1.76,3.009,3.009,0,0,1-1.873.875,4.461,4.461,0,0,1,1.024.795,10.79,10.79,0,0,1,1.089,1.537l1.156,1.848h-2.287l-1.382-2.061a13.374,13.374,0,0,0-1.008-1.392,1.468,1.468,0,0,0-.575-.394,3.152,3.152,0,0,0-.963-.107h-.388V9.632Zm1.912-5.465h1.415a7.306,7.306,0,0,0,1.718-.116,1.03,1.03,0,0,0,.536-.4,1.233,1.233,0,0,0,.194-.711,1.136,1.136,0,0,0-.255-.772,1.171,1.171,0,0,0-.72-.371q-.233-.032-1.4-.032h-1.492Zm7.847,5.465V.162h7.022v1.6h-5.11v2.1h4.755v1.6h-4.755V8.036h5.291v1.6Zm21.3-1.156-1.1,1.4a6.413,6.413,0,0,1-1.55-1.085,3.9,3.9,0,0,1-1.221.762,4.329,4.329,0,0,1-1.538.245A3.391,3.391,0,0,1,156.1,8.8a2.569,2.569,0,0,1-.691-1.77,2.669,2.669,0,0,1,.543-1.638,4.438,4.438,0,0,1,1.622-1.263,5.14,5.14,0,0,1-.73-1.095,2.313,2.313,0,0,1-.245-.985A1.86,1.86,0,0,1,157.289.6a2.9,2.9,0,0,1,1.961-.6,2.753,2.753,0,0,1,1.919.627,1.989,1.989,0,0,1,.691,1.531,1.944,1.944,0,0,1-.342,1.092,4.631,4.631,0,0,1-1.382,1.169l1.318,1.738a4.447,4.447,0,0,0,.4-1.079l1.641.375a10.08,10.08,0,0,1-.426,1.276,3.423,3.423,0,0,1-.388.675,7.4,7.4,0,0,0,.785.623A5.923,5.923,0,0,0,164.172,8.476ZM159.23,3.327l.491-.375a1.129,1.129,0,0,0,.543-.833A.785.785,0,0,0,160,1.525a1.156,1.156,0,0,0-1.386-.029.651.651,0,0,0-.245.5,1.369,1.369,0,0,0,.413.814ZM158.52,5.3a2.457,2.457,0,0,0-.937.762,1.579,1.579,0,0,0-.31.911,1.275,1.275,0,0,0,.384.959,1.42,1.42,0,0,0,1.03.371,2.072,2.072,0,0,0,.82-.168,3.579,3.579,0,0,0,.859-.556Zm10.934,4.335V.162h4.025a6.889,6.889,0,0,1,2.206.255,2.176,2.176,0,0,1,1.1.908,2.728,2.728,0,0,1,.413,1.492,2.528,2.528,0,0,1-.627,1.76,3.009,3.009,0,0,1-1.873.875,4.462,4.462,0,0,1,1.024.795,10.792,10.792,0,0,1,1.088,1.537l1.156,1.848h-2.287L174.3,7.571a13.358,13.358,0,0,0-1.008-1.392,1.467,1.467,0,0,0-.575-.394,3.152,3.152,0,0,0-.963-.107h-.388V9.632Zm1.912-5.465h1.415A7.306,7.306,0,0,0,174.5,4.05a1.03,1.03,0,0,0,.536-.4,1.233,1.233,0,0,0,.194-.711,1.136,1.136,0,0,0-.255-.772,1.171,1.171,0,0,0-.72-.371q-.233-.032-1.4-.032h-1.492Zm7.847,5.465V.162h7.022v1.6h-5.11v2.1h4.755v1.6h-4.755V8.036h5.291v1.6Zm10.38,0L187.332.162h1.957l1.428,6.505L192.448.162h2.274l1.66,6.615L197.836.162h1.925l-2.3,9.47h-2.028l-1.886-7.08-1.88,7.08Zm19.165,0h-2.08l-.827-2.151h-3.786l-.782,2.151h-2.028l3.689-9.47h2.022Zm-3.521-3.747-1.3-3.514-1.279,3.514Zm4.753,3.747V.162h4.025a6.889,6.889,0,0,1,2.206.255,2.176,2.176,0,0,1,1.1.908,2.728,2.728,0,0,1,.413,1.492,2.528,2.528,0,0,1-.627,1.76,3.01,3.01,0,0,1-1.873.875,4.462,4.462,0,0,1,1.024.795,10.794,10.794,0,0,1,1.089,1.537L218.5,9.632h-2.287l-1.382-2.061a13.37,13.37,0,0,0-1.008-1.392,1.468,1.468,0,0,0-.575-.394,3.152,3.152,0,0,0-.963-.107H211.9V9.632ZM211.9,4.167h1.415a7.306,7.306,0,0,0,1.718-.116,1.03,1.03,0,0,0,.536-.4,1.233,1.233,0,0,0,.194-.711,1.135,1.135,0,0,0-.255-.772,1.171,1.171,0,0,0-.72-.371q-.233-.032-1.4-.032H211.9ZM219.743.162h3.495a6.825,6.825,0,0,1,1.8.181,3.167,3.167,0,0,1,1.428.872,4.137,4.137,0,0,1,.9,1.534,6.989,6.989,0,0,1,.31,2.238A6.225,6.225,0,0,1,227.392,7a4.175,4.175,0,0,1-1.014,1.673,3.361,3.361,0,0,1-1.344.756,5.786,5.786,0,0,1-1.693.2h-3.6Zm1.912,1.6V8.036h1.428a5.21,5.21,0,0,0,1.156-.09,1.765,1.765,0,0,0,.772-.394,2,2,0,0,0,.5-.914,6.176,6.176,0,0,0,.194-1.735,5.656,5.656,0,0,0-.194-1.686,2.167,2.167,0,0,0-.543-.917,1.82,1.82,0,0,0-.885-.446,8.67,8.67,0,0,0-1.57-.09Zm7.8,7.868V.162h1.912v9.47Zm3.965,0V.162h1.861l3.876,6.324V.162h1.776v9.47h-1.919L235.2,3.456V9.632ZM247.575,6.15v-1.6H251.7V8.327a5.189,5.189,0,0,1-1.741,1.024,6.337,6.337,0,0,1-2.309.443,5.183,5.183,0,0,1-2.59-.623,3.964,3.964,0,0,1-1.66-1.783,5.762,5.762,0,0,1-.556-2.523,5.451,5.451,0,0,1,.62-2.629A4.177,4.177,0,0,1,245.275.472,4.9,4.9,0,0,1,247.543,0,4.524,4.524,0,0,1,250.3.74a3.34,3.34,0,0,1,1.276,2.045l-1.9.355a2.006,2.006,0,0,0-.753-1.1,2.275,2.275,0,0,0-1.379-.4,2.591,2.591,0,0,0-1.993.795,3.347,3.347,0,0,0-.74,2.358,3.708,3.708,0,0,0,.749,2.529,2.5,2.5,0,0,0,1.964.843,3.293,3.293,0,0,0,1.2-.236,4.129,4.129,0,0,0,1.037-.572V6.15Zm6.084,3.482V7.817h1.815V9.632Z" transform="translate(2.773 22.197)"/>
          <path id="Path_131310" data-name="Path 131310" d="M0,0H256.645V1.715H0Z" transform="translate(2.311 14.024)"/>
        </g>
        <g id="Group_11606" data-name="Group 11606" transform="translate(0.926)">
          <path id="Path_7807" data-name="Path 7807" d="M0,0H24.958V5.435H17.322V26.052H6.627V5.435H0Z" transform="translate(37.669 17.101)" fill="#001850"/>
          <path id="Path_7810" data-name="Path 7810" d="M10.59,26.052H0V0H21.916A16.116,16.116,0,0,1,26.8,1.148,8.855,8.855,0,0,1,30.152,3.49a6.489,6.489,0,0,1,1.525,4.326,6.168,6.168,0,0,1-1.036,3.559A6.667,6.667,0,0,1,28.362,13.4a9.894,9.894,0,0,1-3.315,1.116L30.94,26.049H19.061L14,15.63H10.59V26.051ZM10.221,5.3v5.21h7.231c.027,0,2.715-.234,2.715-2.7S17.479,5.3,17.452,5.3Z" transform="translate(63.729 16.922)" fill="#001850"/>
          <path id="Path_7811" data-name="Path 7811" d="M8.256,26.046H0L10.291,0H21.3L31.712,26.044h-9.45L20.107,21.1H10.291L8.256,26.045ZM15.2,8.064,12.446,15.23h5.626Z" transform="translate(95.406 16.922)" fill="#001850"/>
          <path id="Path_7813" data-name="Path 7813" d="M11.678,26.052A11.029,11.029,0,0,1,3.42,22.237,13.735,13.735,0,0,1,0,13.026,13.735,13.735,0,0,1,3.42,3.815,11.029,11.029,0,0,1,11.678,0a11.03,11.03,0,0,1,8.258,3.815,13.734,13.734,0,0,1,3.421,9.211,13.734,13.734,0,0,1-3.421,9.211A11.03,11.03,0,0,1,11.678,26.052Zm0-19.763A2.924,2.924,0,0,0,8.951,8.076a11.272,11.272,0,0,0-.866,4.95,11.272,11.272,0,0,0,.866,4.95,2.974,2.974,0,0,0,5.454,0,11.271,11.271,0,0,0,.866-4.95,11.271,11.271,0,0,0-.866-4.95A2.925,2.925,0,0,0,11.678,6.289Z" transform="translate(152.405 16.922)" fill="#ec691f"/>
          <path id="Path_7799" data-name="Path 7799" d="M0,0,7.085,26.052h7.28l3.852-15.3,3.432,15.3h7.687L36.01,0H29.337L26.1,14.476,21.649,0H14.365L11.739,14.476,8.095,0Z" transform="translate(176.147 16.922)" fill="#ec691f"/>
          <path id="Path_7798" data-name="Path 7798" d="M19.825,0H0V26.045H19.825V19.923H7.492V15.093H17.8V9.513H7.492V5.952H19.825Z" transform="translate(212.967 16.922)" fill="#ec691f"/>
          <path id="Path_7814" data-name="Path 7814" d="M8.26,26.045H0V0H15.422a11.043,11.043,0,0,1,3.961.958,7.528,7.528,0,0,1,2.824,2.173,7.346,7.346,0,0,1,.7,7.776,7.049,7.049,0,0,1-1.857,2.236,8.324,8.324,0,0,1-2.738,1.46L23.7,26.043H15.084l-4.072-10.71H8.26v10.71Zm-.6-21.4v5.963h5.985c.02,0,2.035-.273,2.035-2.921s-2.015-3.039-2.035-3.042Z" transform="translate(235.365 16.922)" fill="#ec691f"/>
          <path id="Path_7812" data-name="Path 7812" d="M7.859,26.045H0V0H13.978a9.685,9.685,0,0,1,6.408,2.5,8.3,8.3,0,0,1,2.185,6.178,7.188,7.188,0,0,1-1.2,4.212,6.67,6.67,0,0,1-2.638,2.172,10.119,10.119,0,0,1-3.838.927H7.859V26.044Zm.158-20.53V10.67h4.156s.037,0,.1,0c.5,0,3.017-.124,3.017-2.579s-2.513-2.58-3.017-2.58c-.065,0-.1,0-.1,0Z" transform="translate(129.49 16.922)" fill="#ec691f"/>
          <path id="Path_64284" data-name="Path 64284" d="M0,21.234,18.97,0,40.721,21.234H24.029L18.97,15.682l-5.564,5.552Z" transform="translate(1.897 21.918)" fill="#001850"/>
          <path id="Path_64283" data-name="Path 64283" d="M50.708,0,20.737,37.6,0,17.492H17.2l3.54,4.3L38.7,0Z" transform="translate(0)" fill="#ec691f"/>
        </g>
      </g>
      <path id="Path_64286" data-name="Path 64286" d="M27.269,0A27.269,27.269,0,1,1,0,27.269,27.269,27.269,0,0,1,27.269,0Z" transform="translate(2.773 5.777)" fill="#001a4d"/>
      <path id="Path_7818" data-name="Path 7818" d="M3.581,9.937q.2.177.395.324t.386.261q.187.114.355.2t.31.147l-.549.989a5.508,5.508,0,0,1-.6-.364,6.961,6.961,0,0,1-.557-.432q-.263-.226-.491-.464a5.317,5.317,0,0,1-.4-.462,1.766,1.766,0,0,1-.6-.1,1.426,1.426,0,0,1-.455-.257,1.155,1.155,0,0,1-.29-.371,1,1,0,0,1-.1-.443.662.662,0,0,1,.062-.289.7.7,0,0,1,.167-.224.787.787,0,0,1,.245-.147.836.836,0,0,1,.3-.054,1.285,1.285,0,0,1,.693.2,1.754,1.754,0,0,1,.546.56A1.512,1.512,0,0,0,3.411,8.9a.85.85,0,0,0,.265-.184.628.628,0,0,0,.143-.24.924.924,0,0,0,.042-.282.625.625,0,0,0-.047-.266.358.358,0,0,0-.125-.149.456.456,0,0,0-.183-.068,1.465,1.465,0,0,0-.225-.016H2.114a1.154,1.154,0,0,1-.669-.187A1.505,1.505,0,0,1,1,7.04a2.026,2.026,0,0,1-.243-.6,2.691,2.691,0,0,1-.074-.6A1.478,1.478,0,0,1,.776,5.3a.987.987,0,0,1,.243-.366.923.923,0,0,1,.355-.205A1.407,1.407,0,0,1,1.8,4.661H3.318V4.082H0V3.032H5.886v1.05h-1.4V5.71H2.355a.665.665,0,0,0-.392.084.312.312,0,0,0-.107.261.693.693,0,0,0,.027.182.481.481,0,0,0,.094.18.5.5,0,0,0,.187.135.76.76,0,0,0,.308.054H3.684a1.589,1.589,0,0,1,.629.11,1.068,1.068,0,0,1,.412.3,1.19,1.19,0,0,1,.227.453,2.136,2.136,0,0,1,.069.553,2.247,2.247,0,0,1-.085.625,1.713,1.713,0,0,1-.261.537,1.746,1.746,0,0,1-.448.425,2.4,2.4,0,0,1-.642.294Zm.348-8.4a.719.719,0,0,1,.047-.261.627.627,0,0,1,.132-.21.617.617,0,0,1,.2-.14.683.683,0,0,1,.52,0,.619.619,0,0,1,.207.142.693.693,0,0,1,.19.483.732.732,0,0,1-.047.266.585.585,0,0,1-.134.208.631.631,0,0,1-.205.135.663.663,0,0,1-.256.049.68.68,0,0,1-.259-.049.591.591,0,0,1-.207-.14A.7.7,0,0,1,3.98,1.81.688.688,0,0,1,3.929,1.54ZM8.842,4.082H7.87V9.993H6.706V4.082H5.72V3.032h1a2.724,2.724,0,0,1-.25-1.073,1.92,1.92,0,0,1,.129-.7A1.533,1.533,0,0,1,7,.676a1.913,1.913,0,0,1,.691-.39A3.156,3.156,0,0,1,8.7.145a4.108,4.108,0,0,1,1.322.21A4.731,4.731,0,0,1,11.2.949a6.446,6.446,0,0,1,1.061.928,11.311,11.311,0,0,1,.968,1.206H12.16Q12,2.92,11.8,2.715T11.335,2.3q-.254-.21-.546-.408a4.939,4.939,0,0,0-.613-.355,3.737,3.737,0,0,0-.669-.25A2.725,2.725,0,0,0,8.8,1.194a1.8,1.8,0,0,0-.549.075,1.051,1.051,0,0,0-.384.21.821.821,0,0,0-.223.32,1.122,1.122,0,0,0-.071.408,1.5,1.5,0,0,0,.056.4,2.206,2.206,0,0,0,.172.427H8.842Zm6.774,0h-1.4V5.664H11.973a.5.5,0,0,0-.31.07.278.278,0,0,0-.083.224.682.682,0,0,0,.025.173A.439.439,0,0,0,11.7,6.3a.544.544,0,0,0,.183.135.689.689,0,0,0,.3.056h1.249a1.452,1.452,0,0,1,.622.119,1.064,1.064,0,0,1,.406.324,1.3,1.3,0,0,1,.221.483A2.6,2.6,0,0,1,14.6,8.85a1.978,1.978,0,0,1-.421.7,2.008,2.008,0,0,1-.7.478,2.551,2.551,0,0,1-.99.177,3.014,3.014,0,0,1-1.144-.222,3.6,3.6,0,0,1-1-.613,4.2,4.2,0,0,1-.8-.935A4.7,4.7,0,0,1,9,7.245l1-.42a4.191,4.191,0,0,0,.392.849,3.642,3.642,0,0,0,.566.721,2.661,2.661,0,0,0,.707.5,1.846,1.846,0,0,0,.814.187,1.345,1.345,0,0,0,.466-.075.926.926,0,0,0,.339-.21.9.9,0,0,0,.207-.327,1.207,1.207,0,0,0,.071-.425.944.944,0,0,0-.033-.275.343.343,0,0,0-.107-.168.4.4,0,0,0-.185-.082A1.439,1.439,0,0,0,12.98,7.5H11.714a1.007,1.007,0,0,1-.591-.173,1.461,1.461,0,0,1-.41-.436,2.021,2.021,0,0,1-.241-.576,2.466,2.466,0,0,1-.078-.6,1.4,1.4,0,0,1,.08-.511.8.8,0,0,1,.227-.327.865.865,0,0,1,.35-.175,1.808,1.808,0,0,1,.444-.051h1.556V4.082H8.53V3.032h7.086Zm-.166,0V3.032h6.4v1.05h-.972V9.988H19.718V8.258l-.013,0q-.1.079-.225.156a1.787,1.787,0,0,1-.27.138,1.846,1.846,0,0,1-.326.1,1.943,1.943,0,0,1-.4.037,2.026,2.026,0,0,1-1-.236,2.3,2.3,0,0,1-.72-.62,3.2,3.2,0,0,1-.468-.87,4.793,4.793,0,0,1-.241-.989,1.583,1.583,0,0,0,.479-.131.978.978,0,0,0,.312-.226.809.809,0,0,0,.169-.294,1.092,1.092,0,0,0,.051-.334A1.382,1.382,0,0,0,17,4.553a2.2,2.2,0,0,0-.227-.471Zm2.805,1.092a1.426,1.426,0,0,1-.223.8,1.514,1.514,0,0,1-.66.544,1.673,1.673,0,0,0,.176.471,1.2,1.2,0,0,0,.261.32.981.981,0,0,0,.321.182,1.129,1.129,0,0,0,.361.058,1.209,1.209,0,0,0,.722-.217,1.668,1.668,0,0,0,.5-.6V4.082H17.929a2.341,2.341,0,0,1,.247.562A1.957,1.957,0,0,1,18.255,5.174ZM28.323,4.082h-.972V9.988H26.1V6.69H24.172q0,.317-.009.539a1.541,1.541,0,0,1-.049.359.368.368,0,0,1-.125.2.389.389,0,0,1-.236.063.907.907,0,0,1-.368-.079,1.4,1.4,0,0,1-.339-.212,1.858,1.858,0,0,1-.29-.308,2.393,2.393,0,0,1-.227-.366,2.118,2.118,0,0,1-.149-.385,1.377,1.377,0,0,1-.054-.366.605.605,0,0,1,.051-.273.322.322,0,0,1,.145-.147.631.631,0,0,1,.227-.058q.134-.012.3-.012H26.1V4.082H21.688V3.032h6.636Zm4.5,2.067.147.016a1.47,1.47,0,0,0,.152.007,2.308,2.308,0,0,0,.564-.07,2.135,2.135,0,0,0,.466-.168v-2.9h2.136v1.05h-.972V9.988H34.151V6.975a.942.942,0,0,1-.138.056q-.085.028-.185.051t-.207.037a1.583,1.583,0,0,1-.205.014q.022.117.036.21a1.527,1.527,0,0,1,.013.215,1.8,1.8,0,0,1-.152.753,1.634,1.634,0,0,1-.417.565,1.864,1.864,0,0,1-.624.355,2.346,2.346,0,0,1-.769.124,2.252,2.252,0,0,1-.771-.126,2.377,2.377,0,0,1-.633-.343,2.814,2.814,0,0,1-.515-.511,4.648,4.648,0,0,1-.415-.632,6.283,6.283,0,0,1-.33-.7q-.145-.366-.261-.725l.994-.42q.08.266.181.546a5.605,5.605,0,0,0,.227.544,4.109,4.109,0,0,0,.281.495,2.343,2.343,0,0,0,.339.406,1.5,1.5,0,0,0,.4.275,1.1,1.1,0,0,0,.47.1.753.753,0,0,0,.6-.238.939.939,0,0,0,.207-.639,1.076,1.076,0,0,0-.076-.425.8.8,0,0,0-.21-.294.831.831,0,0,0-.317-.17,1.4,1.4,0,0,0-.4-.054l-.107,0-.129.007-.134.009-.116.009V5.416a.715.715,0,0,0,.083,0h.083a2.367,2.367,0,0,0,.433-.037,1,1,0,0,0,.348-.128.653.653,0,0,0,.232-.245.785.785,0,0,0,.085-.383.616.616,0,0,0-.2-.509.82.82,0,0,0-.531-.159,1.7,1.7,0,0,0-.491.072,3.779,3.779,0,0,0-.468.175L30.1,3.191a2.929,2.929,0,0,1,.658-.243,2.811,2.811,0,0,1,.644-.079A2.1,2.1,0,0,1,32.146,3a1.766,1.766,0,0,1,.578.345,1.557,1.557,0,0,1,.375.516,1.573,1.573,0,0,1-.065,1.4,1.851,1.851,0,0,1-.591.618l0,.023a1.572,1.572,0,0,1,.2.117Q32.737,6.079,32.822,6.149ZM39.1,4.082h-.972V9.988H36.96V4.082h-.986V3.032H39.1ZM36.211,0q.018.075.054.208a2.49,2.49,0,0,0,.1.292,2.5,2.5,0,0,0,.161.322,1.376,1.376,0,0,0,.234.3,1.143,1.143,0,0,0,.323.217,1.021,1.021,0,0,0,.426.084,1.033,1.033,0,0,0,.415-.079,1.155,1.155,0,0,0,.321-.205,1.385,1.385,0,0,0,.239-.285,2.425,2.425,0,0,0,.169-.315,2.258,2.258,0,0,0,.109-.3Q38.8.1,38.829,0l.954.345q-.045.191-.12.42a3.213,3.213,0,0,1-.2.462,2.867,2.867,0,0,1-.292.453,2,2,0,0,1-.408.39,2.021,2.021,0,0,1-.542.273,2.157,2.157,0,0,1-.689.1,2.251,2.251,0,0,1-.843-.152,2.042,2.042,0,0,1-.667-.429A2.509,2.509,0,0,1,35.54,1.2a3.6,3.6,0,0,1-.305-.856ZM38.93,4.082V3.032h6.4v1.05h-.972V9.988H43.2V8.258l-.013,0q-.1.079-.225.156a1.787,1.787,0,0,1-.27.138,1.846,1.846,0,0,1-.326.1,1.943,1.943,0,0,1-.4.037,2.026,2.026,0,0,1-1-.236,2.3,2.3,0,0,1-.72-.62,3.2,3.2,0,0,1-.468-.87,4.792,4.792,0,0,1-.241-.989,1.583,1.583,0,0,0,.479-.131.977.977,0,0,0,.312-.226.809.809,0,0,0,.169-.294,1.092,1.092,0,0,0,.051-.334,1.382,1.382,0,0,0-.071-.429,2.2,2.2,0,0,0-.227-.471Zm2.805,1.092a1.426,1.426,0,0,1-.223.8,1.514,1.514,0,0,1-.66.544,1.673,1.673,0,0,0,.176.471,1.194,1.194,0,0,0,.261.32.981.981,0,0,0,.321.182,1.129,1.129,0,0,0,.361.058,1.209,1.209,0,0,0,.722-.217,1.668,1.668,0,0,0,.5-.6V4.082H41.41a2.342,2.342,0,0,1,.248.562A1.957,1.957,0,0,1,41.735,5.174Zm8.6,4.815V5.9l-.1-.016a.809.809,0,0,0-.109-.007.675.675,0,0,0-.326.075.667.667,0,0,0-.227.2.893.893,0,0,0-.134.28,1.143,1.143,0,0,0-.045.315,1.07,1.07,0,0,0,.009.135q.009.07.018.135H48.383q-.027-.215-.069-.427a1.8,1.8,0,0,0-.116-.378.784.784,0,0,0-.187-.268.4.4,0,0,0-.279-.1.388.388,0,0,0-.23.068.531.531,0,0,0-.161.189.959.959,0,0,0-.094.287,2.071,2.071,0,0,0-.029.357,2.13,2.13,0,0,0,.172.872,2.54,2.54,0,0,0,.455.7,3.45,3.45,0,0,0,.649.548,6.825,6.825,0,0,0,.758.432l-.517.919a4.293,4.293,0,0,1-.441-.217,4.838,4.838,0,0,1-.566-.371,6.109,6.109,0,0,1-.6-.52,4.064,4.064,0,0,1-.546-.662,3.554,3.554,0,0,1-.395-.8,2.829,2.829,0,0,1-.152-.935,2.659,2.659,0,0,1,.116-.793,2.025,2.025,0,0,1,.332-.651A1.6,1.6,0,0,1,47,4.812a1.446,1.446,0,0,1,.685-.161,1.332,1.332,0,0,1,.453.07,1.24,1.24,0,0,1,.334.177,1.3,1.3,0,0,1,.239.233,2.766,2.766,0,0,1,.165.233l.022,0a1.208,1.208,0,0,1,.214-.3,1.23,1.23,0,0,1,.27-.208,1.161,1.161,0,0,1,.3-.119A1.338,1.338,0,0,1,50,4.7a1.507,1.507,0,0,1,.165.009q.085.009.174.028V4.082H45.168V3.032h7.3v1.05H51.5V9.988Z" transform="translate(3.698 27.038)" fill="#f5f5f5"/>
      <path id="Path_7821" data-name="Path 7821" d="M26.047,54.538A27.435,27.435,0,0,1,3.879,43.313,27.1,27.1,0,0,1,0,35.79H52.094a27.094,27.094,0,0,1-3.879,7.523A27.412,27.412,0,0,1,26.047,54.538Zm26.047-35.79H0a27.1,27.1,0,0,1,3.879-7.522,27.483,27.483,0,0,1,44.336,0,27.1,27.1,0,0,1,3.879,7.522h0Z" transform="translate(3.856 5.777)" fill="#ec691f"/>
      <path id="Path_7823" data-name="Path 7823" d="M30.042,60.084A30.05,30.05,0,0,1,18.348,2.361,30.05,30.05,0,0,1,41.736,57.723,29.853,29.853,0,0,1,30.042,60.084Zm0-58.384A28.341,28.341,0,1,0,58.383,30.042,28.374,28.374,0,0,0,30.042,1.7Z" transform="translate(0 3.004)" fill="#001a4d"/>
      <path id="Path_64285" data-name="Path 64285" d="M0,10.732V.18H2.131V10.732Zm10.834,0H8.812v-3.9a6.03,6.03,0,0,0-.13-1.6,1.123,1.123,0,0,0-.421-.565,1.2,1.2,0,0,0-.7-.2,1.622,1.622,0,0,0-.943.288,1.451,1.451,0,0,0-.572.763A6.6,6.6,0,0,0,5.889,7.27v3.462H3.866V3.088H5.745V4.211A3.133,3.133,0,0,1,9.488,3.156a2.05,2.05,0,0,1,.839.615,2.229,2.229,0,0,1,.4.849,6.318,6.318,0,0,1,.112,1.36Zm8.8,0H17.753V9.61a3.035,3.035,0,0,1-1.1.975,2.835,2.835,0,0,1-1.285.32,2.912,2.912,0,0,1-2.257-1.062,4.319,4.319,0,0,1-.939-2.962,4.268,4.268,0,0,1,.914-2.955,2.98,2.98,0,0,1,2.311-1.011,2.862,2.862,0,0,1,2.217,1.065V.18h2.023Zm-5.4-3.988a3.5,3.5,0,0,0,.338,1.771,1.529,1.529,0,0,0,1.368.792,1.489,1.489,0,0,0,1.188-.594,2.741,2.741,0,0,0,.489-1.774,3,3,0,0,0-.475-1.9,1.5,1.5,0,0,0-1.216-.579,1.52,1.52,0,0,0-1.206.572A2.586,2.586,0,0,0,14.233,6.745ZM21.36,2.051V.18h2.023V2.051Zm0,8.681V3.088h2.023v7.644ZM26.7,5.42l-1.836-.331a2.859,2.859,0,0,1,1.065-1.641,3.9,3.9,0,0,1,2.246-.533,4.84,4.84,0,0,1,2.015.32,2.01,2.01,0,0,1,.932.813,4.171,4.171,0,0,1,.27,1.81L31.373,8.22a8.2,8.2,0,0,0,.1,1.486,4.339,4.339,0,0,0,.364,1.026h-2q-.079-.2-.194-.6-.05-.18-.072-.238a3.647,3.647,0,0,1-1.109.756,3.175,3.175,0,0,1-1.26.252,2.6,2.6,0,0,1-1.861-.641,2.129,2.129,0,0,1-.68-1.62,2.174,2.174,0,0,1,.31-1.155,2.022,2.022,0,0,1,.867-.777,6.779,6.779,0,0,1,1.609-.471,11.02,11.02,0,0,0,1.965-.5v-.2a1.047,1.047,0,0,0-.288-.831,1.725,1.725,0,0,0-1.087-.248,1.447,1.447,0,0,0-.842.212A1.476,1.476,0,0,0,26.7,5.42Zm2.706,1.641a12.643,12.643,0,0,1-1.231.31,3.708,3.708,0,0,0-1.1.353.844.844,0,0,0-.4.713A.992.992,0,0,0,27,9.17a1.106,1.106,0,0,0,.806.31,1.752,1.752,0,0,0,1.044-.36,1.267,1.267,0,0,0,.482-.669,3.994,3.994,0,0,0,.079-.986Zm10.669,3.671H38.054v-3.9a6.03,6.03,0,0,0-.13-1.6,1.123,1.123,0,0,0-.421-.565,1.2,1.2,0,0,0-.7-.2,1.622,1.622,0,0,0-.943.288,1.451,1.451,0,0,0-.572.763,6.6,6.6,0,0,0-.155,1.756v3.462H33.109V3.088h1.879V4.211a3.133,3.133,0,0,1,3.743-1.055,2.051,2.051,0,0,1,.839.615,2.23,2.23,0,0,1,.4.849,6.318,6.318,0,0,1,.112,1.36Zm1.369-5.211a6.711,6.711,0,0,1,.482-2.706,4.967,4.967,0,0,1,.983-1.447,4.109,4.109,0,0,1,1.364-.95A5.793,5.793,0,0,1,46.549,0a4.955,4.955,0,0,1,3.732,1.447,5.545,5.545,0,0,1,1.4,4.024,5.527,5.527,0,0,1-1.389,4,4.916,4.916,0,0,1-3.714,1.443,4.966,4.966,0,0,1-3.743-1.436A5.45,5.45,0,0,1,41.446,5.521Zm2.2-.072a3.954,3.954,0,0,0,.828,2.717,2.846,2.846,0,0,0,4.193.007,4.033,4.033,0,0,0,.817-2.753,3.968,3.968,0,0,0-.8-2.707,2.947,2.947,0,0,0-4.236.011A3.987,3.987,0,0,0,43.641,5.449Zm9.423-3.4V.18h2.023V2.051Zm0,8.681V3.088h2.023v7.644Zm3.83,0V.18h2.023V10.732Z" transform="translate(0.462 65.262)" fill="#0d1b3a"/>
    </g>
  </g>
</svg>
