<svg xmlns="http://www.w3.org/2000/svg" width="1029.9" height="201" viewBox="0 0 1029.9 201">
  <g id="Group_302" data-name="Group 302" transform="translate(593)">
    <path id="Path_105" data-name="Path 105" d="M1433.07,1218.748A16.747,16.747,0,1,1,1416.323,1202a16.737,16.737,0,0,1,16.747,16.748m-43.156,49.759c0,1.209.163,39.531.163,44.284v.481h0c0,4.591-2.981,8.215-7.488,8.215s-7.489-3.7-7.489-8.215v-50.724a21.253,21.253,0,0,1,21.335-21.254h39.936a21.3,21.3,0,0,1,21.336,21.254l-.082,50.724c0,4.51-2.978,8.215-7.485,8.215s-7.488-3.7-7.488-8.215h0v-33.9h0v-4.91h0v-5.958a2.073,2.073,0,0,0-1.932-2.177,2.323,2.323,0,0,0-2.254,2.339v124.313a.287.287,0,0,1-.082.241v.484a.3.3,0,0,1-.081.242.3.3,0,0,1-.079.242c0,.081-.082.16-.082.24s-.08.162-.08.242-.081.163-.081.241-.081.162-.081.244-.079.162-.079.24-.081.161-.081.24-.081.162-.081.243-.081.159-.081.241-.08.161-.08.242-.08.16-.08.24-.083.162-.083.241c-.079.08-.079.16-.161.242s-.079.164-.159.243-.081.16-.161.16c-.081.08-.081.16-.163.16-.081.08-.081.162-.16.162-.082.08-.082.16-.161.16-.082.08-.082.161-.162.161-.08.079-.08.162-.161.162-.081.079-.081.079-.162.162l-.158.159-.162.161-.162.162c-.08.082-.161.082-.161.161l-.162.161c-.081.079-.081.079-.162.163l-.159.16c-.081.083-.162.083-.162.16-.081.082-.16.082-.16.163-.081.08-.162.08-.162.162-.08.079-.159.079-.239.159a.177.177,0,0,0-.164.16c-.08,0-.162.081-.24.081-.08.082-.161.082-.241.161-.081,0-.162.082-.243.082s-.159.079-.242.079-.161.079-.241.079-.161.082-.241.082-.162.079-.244.079-.16.083-.24.083-.162.081-.243.081-.161.079-.24.079-.163.08-.245.08-.158.082-.24.082-.161.079-.241.079a.293.293,0,0,0-.241.08.3.3,0,0,0-.244.082.3.3,0,0,0-.241.079h-1.45a9.81,9.81,0,0,1-9.822-9.822v-69.163a2.094,2.094,0,0,0-4.187,0v69.163a9.822,9.822,0,0,1-19.644,0V1268.507a2.057,2.057,0,0,0-2.095-2.014h-.885A2.04,2.04,0,0,0,1389.913,1268.507Z" transform="translate(-1223.801 -1201.758)" fill="#00164e" fill-rule="evenodd"/>
    <g id="Group_170" data-name="Group 170" transform="translate(0 0)">
      <path id="Path_106" data-name="Path 106" d="M1236.289,1201.7a16.989,16.989,0,1,1-16.989,16.99,16.992,16.992,0,0,1,16.989-16.99" transform="translate(-1193.443 -1201.7)" fill="#00164e" fill-rule="evenodd"/>
      <path id="Path_107" data-name="Path 107" d="M1248.6,1366.6c.08,19.083.161,41.062.241,60.146,0,3.7,2.174,7.085,7.649,7,5.394,0,7.487-3.22,7.328-7V1366.6Z" transform="translate(-1199.153 -1233.831)" fill="#00164e" fill-rule="evenodd"/>
      <path id="Path_108" data-name="Path 108" d="M1224.7,1366.9c.081,19.082.162,40.819.242,59.9,0,3.7,2.173,7.086,7.647,7,5.478,0,7.489-3.22,7.329-7l-.082-59.9Z" transform="translate(-1194.496 -1233.889)" fill="#00164e" fill-rule="evenodd"/>
      <path id="Path_109" data-name="Path 109" d="M1248.388,1248.331c-11.271,0-24.235-.645-35.426,0-4.669.241-11.675,8.21-14.815,20.531l-10.708,42.755c-.805,4.428.24,8.372,4.186,9.661,4.269,1.127,8.133-1.369,9.9-7.088,3.3-13.684,7.087-27.052,10.388-40.738a1.211,1.211,0,1,1,2.333.644l-19.484,74.235,77.617-.081c-7.649-24.716-15.38-49.517-23.029-74.235a1.121,1.121,0,1,1,2.015-.967c5.232,15.38,9.339,26.57,14.491,41.95a6.767,6.767,0,0,0,9.26,4.347c4.269-1.77,5.072-5.957,3.542-9.9-4.349-13.527-9.66-26.731-13.043-40.58-2.737-11.191-8.212-17.471-17.231-20.531" transform="translate(-1187.186 -1210.729)" fill="#00164e" fill-rule="evenodd"/>
    </g>
    <rect id="Rectangle_101" data-name="Rectangle 101" width="3.865" height="198.63" transform="translate(122.152 0.644)" fill="#00164e"/>
    <rect id="Rectangle_102" data-name="Rectangle 102" width="3.865" height="198.63" transform="translate(261.282 0.644)" fill="#00164e"/>
    <g id="Group_171" data-name="Group 171" transform="translate(281.813 0.311)">
      <path id="Path_110" data-name="Path 110" d="M1650.563,1361.942a50.821,50.821,0,1,1-82.445-47.505V1299.3a63.213,63.213,0,1,0,91.382,76.811Z" transform="translate(-1537.2 -1221.028)" fill="#00164e"/>
      <circle id="Ellipse_12" data-name="Ellipse 12" cx="16.747" cy="16.747" r="16.747" transform="translate(32.424 32.583) rotate(-76.597)" fill="#00164e"/>
      <path id="Path_111" data-name="Path 111" d="M1661.35,1310.467H1618.6l-.482-9.983h31.241a7.473,7.473,0,0,0,7.488-7.489h0a7.472,7.472,0,0,0-7.488-7.486h-31.966l-.805-18.036a16.133,16.133,0,0,0-16.907-15.377h0A16.136,16.136,0,0,0,1584.3,1269l2.336,50.484a17.5,17.5,0,0,0,18.36,16.667l3.459-.16v.16h50.565l24.474,40.42a9.685,9.685,0,0,0,13.286,3.3h0a9.684,9.684,0,0,0,3.3-13.287l-31.885-52.656C1668.194,1314.012,1666.423,1310.79,1661.35,1310.467Z" transform="translate(-1546.373 -1211.827)" fill="#00164e"/>
    </g>
    <path id="Path_131250" data-name="Path 131250" d="M2.3-12.673,9.413-20.3l5.173,4.656a18.479,18.479,0,0,0,10.605-2.975,12.043,12.043,0,0,0,5.432-7.5,9.029,9.029,0,0,1-3.233,1.811,10.519,10.519,0,0,1-3.751.517,17.8,17.8,0,0,1-12.545-4.527A13.585,13.585,0,0,1,5.921-39.057,14.674,14.674,0,0,1,10.836-50.31a17.325,17.325,0,0,1,11.769-4.785q8.407,0,13.321,6.079,5.044,6.208,5.044,16.425a26,26,0,0,1-5.3,16.167A22.551,22.551,0,0,1,21.959-7.888L37.479,5.563l-6.855,7.113ZM23.511-33.5a10.379,10.379,0,0,0,3.88-.776,8.117,8.117,0,0,0,3.233-1.94A9.612,9.612,0,0,0,28.3-42.679a7.223,7.223,0,0,0-5.691-2.716,6.065,6.065,0,0,0-4.4,1.94,6.065,6.065,0,0,0-1.94,4.4,5.026,5.026,0,0,0,2.069,4.009A8.042,8.042,0,0,0,23.511-33.5ZM52.094,10.736V-44.49H41.747v-9.441h31.04v9.441H62.44V10.736ZM70.2-44.49v-9.441h31.04v9.441H90.894V10.736H80.547V-44.49ZM50.671-69.58l4.915-7.76L86.367-54.448,69.554-83.031l8.407-3.1,13.58,32.2H80.418ZM99.3-44.49v-9.441h67.124v9.441H156.078V10.736H145.731V-8.923A25.552,25.552,0,0,1,138.1-2.844a19.678,19.678,0,0,1-8.924,2.069A18.569,18.569,0,0,1,116.5-5.3a14.746,14.746,0,0,1-5.432-11.123,14.923,14.923,0,0,1,1.681-6.725,12.305,12.305,0,0,1,4.268-4.915H102.275v-9.7h37.636v9.7h-9.183A16.875,16.875,0,0,0,124-23.408a10.963,10.963,0,0,0-2.587,6.984,4.97,4.97,0,0,0,2.328,4.139,9.139,9.139,0,0,0,5.561,1.811q3.751,0,8.019-3.1a40.387,40.387,0,0,0,8.407-8.665V-44.49Zm64.538,0v-9.441h31.04v9.441H184.531V10.736H174.185V-44.49Zm28.453,0v-9.441h74.238v9.441H256.182V10.736H245.836V-24.572a12.67,12.67,0,0,0-8.536,4.785,28.133,28.133,0,0,0-5.561,11.123L223.2-12.673a18.9,18.9,0,0,1,3.88-8.277,13.84,13.84,0,0,0-3.88-3.88,8.043,8.043,0,0,0-4.4-1.423,9.979,9.979,0,0,0-7.631,3.363,11.417,11.417,0,0,0-3.233,7.76q0,5.561,5.044,10.605a31.7,31.7,0,0,0,12.933,8.148l-4.785,7.76Q210.4,7.5,204.19.131q-6.337-6.984-6.6-15.261a20.219,20.219,0,0,1,6.337-14.744A20.229,20.229,0,0,1,218.8-35.953a16.186,16.186,0,0,1,7.76,1.94,23.665,23.665,0,0,1,6.984,5.949,21.278,21.278,0,0,1,5.82-4.915,15.413,15.413,0,0,1,6.467-1.552V-44.49Zm71.651,0v-9.441h63.244v9.441H316.84V10.736H306.493V-5.172a17.526,17.526,0,0,1-6.079,3.88A23.114,23.114,0,0,1,292.4.131a22.317,22.317,0,0,1-17.331-8.019A28.112,28.112,0,0,1,267.693-26.9a33.944,33.944,0,0,0,5.949,1.164,10.187,10.187,0,0,0,7.113-2.716,8.667,8.667,0,0,0,2.845-6.725,12.246,12.246,0,0,0-1.164-5.044,13.384,13.384,0,0,0-3.492-4.268ZM292.4-9.569a14.722,14.722,0,0,0,7.243-1.94,25.986,25.986,0,0,0,6.855-5.949V-44.49H290.068a14.4,14.4,0,0,1,2.845,4.527,12.289,12.289,0,0,1,1.035,4.785,16.972,16.972,0,0,1-4.139,11.252,16.623,16.623,0,0,1-10.347,5.82,12.4,12.4,0,0,0,4.915,6.337A14.1,14.1,0,0,0,292.4-9.569Z" transform="translate(-595.3 86.135)" fill="#00164e"/>
    <path id="Path_131251" data-name="Path 131251" d="M50.691-60.608v8.056H30.42V4.9H21.184v-57.45H.533v-8.056Zm36.375-1.2a31.839,31.839,0,0,1,16.885,4.34,27.9,27.9,0,0,1,10.823,12.037,40.248,40.248,0,0,1,3.694,17.623,43.336,43.336,0,0,1-2.155,14.075,30.04,30.04,0,0,1-6.252,10.766,27.154,27.154,0,0,1-9.828,6.81A33.683,33.683,0,0,1,87.35,6.193,31.6,31.6,0,0,1,70.489,1.805a28.254,28.254,0,0,1-10.87-12.133A39.885,39.885,0,0,1,55.9-27.807a42.346,42.346,0,0,1,2.084-13.547A31.29,31.29,0,0,1,64.048-52.12a27.423,27.423,0,0,1,9.875-7.121A32.609,32.609,0,0,1,87.066-61.807Zm-.095,7.385a19.075,19.075,0,0,0-11.059,3.333,21.366,21.366,0,0,0-7.483,9.4A34.365,34.365,0,0,0,65.8-27.9a36.041,36.041,0,0,0,1.563,10.742,25.584,25.584,0,0,0,4.452,8.608,19.786,19.786,0,0,0,6.8,5.467,19.552,19.552,0,0,0,8.644,1.894A19.135,19.135,0,0,0,95.8-3.11a20.161,20.161,0,0,0,6.82-5.515,25.409,25.409,0,0,0,4.428-8.32,34.513,34.513,0,0,0,1.516-10.574,37.454,37.454,0,0,0-1.516-11.054,25.12,25.12,0,0,0-4.428-8.512,19.451,19.451,0,0,0-6.891-5.467A20.338,20.338,0,0,0,86.972-54.422ZM141.3-60.608V4.9h-9.236V-60.608Zm26.571,0V-3.062H195.2V4.9H158.632V-60.608Zm73.319,0v8.056h-26.76v19.23h24.818v8.056H214.427v22.2h27.518V4.9H205.191V-60.608Zm57.5,0v8.056H278.415V4.9h-9.236v-57.45h-20.65v-8.056Z" transform="translate(-593.533 194.807)" fill="#00164e"/>
  </g>
</svg>
