<svg xmlns="http://www.w3.org/2000/svg" width="949.262" height="201" viewBox="0 0 949.262 201">
  <g id="Group_635" data-name="Group 635" transform="translate(674)">
    <path id="Path_124" data-name="Path 124" d="M1612.347,2027.119c0,17.713-6.185,32.8-18.744,45.36a61.7,61.7,0,0,1-45.267,18.744c-17.619,0-32.615-6.279-45.173-18.744q-18.7-18.838-18.744-45.36c0-17.62,6.279-32.615,18.744-45.174,12.558-12.465,27.554-18.744,45.173-18.744a61.7,61.7,0,0,1,45.267,18.744c12.559,12.559,18.744,27.648,18.744,45.174m7.123,0q0-29.382-20.806-50.235-20.806-20.806-50.328-20.805c-19.681,0-36.364,6.935-50.234,20.805s-20.806,30.647-20.806,50.235c0,19.681,6.935,36.363,20.806,50.328q20.665,20.946,50.234,20.9,29.522,0,50.328-20.9C1612.628,2063.575,1619.47,2046.8,1619.47,2027.119Zm-167.572-47.7c0,6.654-2.718,12.09-8.248,16.4-5.436,4.218-8.247,7.967-8.247,11.153v120.337H1422V2006.969c0-3.187-2.718-6.842-8.154-11.153a19.745,19.745,0,0,1-8.247-16.4,117.894,117.894,0,0,1,12.09-52.015v44.611h7.123V1927.4h7.873v44.611H1440V1927.4A121.674,121.674,0,0,1,1451.9,1979.415Zm194,47.7q0,40.487-28.491,69.071-28.538,28.538-69.072,28.585c-26.9,0-49.859-9.467-68.978-28.585q-28.538-28.537-28.584-69.071,0-40.347,28.584-68.885,28.679-28.539,68.978-28.585c26.992,0,49.953,9.559,69.072,28.585C1636.34,1977.353,1645.9,2000.221,1645.9,2027.119Zm34.958-51.828c.094,6.467-1.219,25.023-3.749,55.763h-4.03V2127.4h-13.4v-96.345h-2.249V1927.493a19.217,19.217,0,0,1,11.528,6.186C1676.827,1941.551,1680.763,1955.422,1680.857,1975.291Z" transform="translate(-1405.6 -1927.4)" fill="#00164e" fill-rule="evenodd"/>
    <path id="Path_131252" data-name="Path 131252" d="M-1.6-78.195v-9.441H46.512v9.441H37.976V-62.8a11.25,11.25,0,0,1-3.363,8.277,11.25,11.25,0,0,1-8.277,3.363,12.78,12.78,0,0,1-2.2-.129,4.065,4.065,0,0,1-1.293-.517L41.6-26.461l-8.148,5.432L1.245-64.873l8.665-6.337a18.236,18.236,0,0,0,5.044,7.631,10.217,10.217,0,0,0,6.725,2.975,5.177,5.177,0,0,0,4.139-1.811,6.449,6.449,0,0,0,1.811-4.268V-78.195Zm1.035-35.7,6.855-5.949,29.617,32.2H26.465Zm45.137,35.7v-9.441h51.6v9.441H79.751v15.261a14.253,14.253,0,0,1-3.1,9.183A8.955,8.955,0,0,1,69.4-50L85.183-28.272l-8.277,5.3L47.417-63.451l8.924-6.6a64.407,64.407,0,0,0,4.915,7.76q2.2,2.845,3.88,2.845a4.089,4.089,0,0,0,2.975-1.293A5.151,5.151,0,0,0,69.4-64.1v-14.1ZM85.7-52.328l-5.949-9.7H97.47v9.7ZM93.59-78.195v-9.441h59.364v9.441H141.7v20.176h-23.28a8.376,8.376,0,0,0-6.467,2.845,9.507,9.507,0,0,0-2.587,6.6A14.7,14.7,0,0,0,114.8-37.2a19.718,19.718,0,0,0,13.063,4.656,19.817,19.817,0,0,0,7.889-1.552,16.108,16.108,0,0,0,5.949-4.527l8.536,5.82a20.2,20.2,0,0,1-9.053,7.243,30.62,30.62,0,0,1-13.321,2.716,29.446,29.446,0,0,1-20.305-7.631q-8.536-7.5-8.536-18.107a18.537,18.537,0,0,1,5.691-13.58,19.5,19.5,0,0,1,13.968-5.561h12.675V-78.195Zm56.777,0v-9.441h31.04v9.441H171.06v55.225H160.714V-78.195Zm-16.037-35.7,6.855-5.949,29.617,32.2H161.36Zm45.137,35.7v-9.441h48.112v9.441h-8.536V-62.8a11.25,11.25,0,0,1-3.363,8.277,11.25,11.25,0,0,1-8.277,3.363,12.78,12.78,0,0,1-2.2-.129,4.065,4.065,0,0,1-1.293-.517l18.753,25.349-8.148,5.432-32.2-43.844,8.665-6.337a18.236,18.236,0,0,0,5.044,7.631,10.217,10.217,0,0,0,6.725,2.975,5.177,5.177,0,0,0,4.139-1.811,6.449,6.449,0,0,0,1.811-4.268V-78.195Zm1.035-35.7,6.855-5.949,29.617,32.2h-9.441Zm45.137,35.7v-9.441h40.352v9.441Zm17.589,34.661q-2.845,0-8.536-7.113-5.561-7.243-5.561-11.123a4.854,4.854,0,0,1,.905-2.845,2.341,2.341,0,0,1,1.94-1.035h35.308v9.7H249.048a3.13,3.13,0,0,0-1.681.776,2.274,2.274,0,0,0-.647,1.681v6.984a3.006,3.006,0,0,1-1.035,2.069A2.949,2.949,0,0,1,243.228-43.533ZM263.4-78.195v-9.441h59.364v9.441H311.517v20.176h-23.28a8.376,8.376,0,0,0-6.467,2.845,9.507,9.507,0,0,0-2.587,6.6A14.7,14.7,0,0,0,284.615-37.2a19.718,19.718,0,0,0,13.063,4.656,19.817,19.817,0,0,0,7.889-1.552,16.108,16.108,0,0,0,5.949-4.527l8.536,5.82A20.2,20.2,0,0,1,311-25.556a30.62,30.62,0,0,1-13.321,2.716,29.446,29.446,0,0,1-20.305-7.631q-8.536-7.5-8.536-18.107a18.537,18.537,0,0,1,5.691-13.58A19.5,19.5,0,0,1,288.5-67.719H301.17V-78.195Z" transform="translate(-672.4 119.84)" fill="#00164e"/>
    <path id="Path_131253" data-name="Path 131253" d="M10.313-80.305H25.825a77.46,77.46,0,0,1,8.725.36,27.873,27.873,0,0,1,5.888,1.415A15.264,15.264,0,0,1,46.1-75.2a15.568,15.568,0,0,1,3.71,5.395,17.255,17.255,0,0,1,1.332,6.762,14.548,14.548,0,0,1-3.66,10.286A17.173,17.173,0,0,1,37.452-47.7a14.655,14.655,0,0,1,4.606,3.189,25.728,25.728,0,0,1,3.466,5.827L56.4-14.8H45.808L37.481-34.46a32.84,32.84,0,0,0-3.312-6.306,6.874,6.874,0,0,0-3.478-2.542,20.433,20.433,0,0,0-5.843-.647h-5.3V-14.8H10.313Zm9.236,8.056v20.237h5.718q16.353,0,16.353-10.214,0-6.138-4.277-8.08a27.132,27.132,0,0,0-11.13-1.942Zm83.312-8.056v8.056H76.1v19.23h24.818v8.056H76.1v22.2h27.518V-14.8H66.864V-80.305Zm45.469,1.2-1.137,8.248a34.231,34.231,0,0,0-12.125-2.685,15.467,15.467,0,0,0-6.134,1.127,9.37,9.37,0,0,0-4.073,3.165,8.038,8.038,0,0,0-1.445,4.772,7.7,7.7,0,0,0,2.96,6.522A81.488,81.488,0,0,0,136.8-51.8,42.079,42.079,0,0,1,148-43.883q3.742,4,3.742,10.622a19.573,19.573,0,0,1-2.747,10.31,18.055,18.055,0,0,1-7.791,7,26.227,26.227,0,0,1-11.58,2.446,42.164,42.164,0,0,1-14.73-2.59l.947-8.824q7.152,3.453,12.693,3.453a17.207,17.207,0,0,0,6.986-1.343,10.407,10.407,0,0,0,4.689-3.86,10.635,10.635,0,0,0,1.634-5.922q0-4.891-3.268-7.409a63.424,63.424,0,0,0-10.373-5.97,38.9,38.9,0,0,1-10.751-7.169Q113.8-56.855,113.8-63.617a17.222,17.222,0,0,1,2.534-9.327,16.948,16.948,0,0,1,7.2-6.306A24.145,24.145,0,0,1,134.168-81.5,41.328,41.328,0,0,1,148.329-79.106Zm58.02-1.2v8.056H186.078V-14.8h-9.236v-57.45h-20.65v-8.056Zm38.337,0L272.706-14.8H262.293l-6.768-16.592H224.1L217.425-14.8h-9.986l27.546-65.506Zm7.62,40.953-7.431-18.271q-2.225-5.227-3.313-8.224a64.889,64.889,0,0,1-1.94-6.4q-.71,2.638-1.68,5.251t-3.762,9.567l-7.147,18.079Zm79.271-40.858V-43.38a63.875,63.875,0,0,1-.829,11.749,22.352,22.352,0,0,1-2.96,7.577,20.978,20.978,0,0,1-8.62,7.865,27.733,27.733,0,0,1-12.5,2.685,29.3,29.3,0,0,1-9.828-1.583,22.2,22.2,0,0,1-7.7-4.532,21.322,21.322,0,0,1-5.115-7.265q-2.51-5.659-2.51-17.7v-35.63h9.236v34.288a87.675,87.675,0,0,0,.45,10.262,19.087,19.087,0,0,0,1.871,6.33,13.378,13.378,0,0,0,5.565,5.779,16.692,16.692,0,0,0,8.312,2.086,14.452,14.452,0,0,0,8.431-2.3,13.9,13.9,0,0,0,4.949-6.21,27.136,27.136,0,0,0,1.918-8.992q.095-1.247.095-6.57V-80.209Zm16.672-.1h15.512a77.46,77.46,0,0,1,8.725.36,27.872,27.872,0,0,1,5.888,1.415,15.264,15.264,0,0,1,5.66,3.333,15.568,15.568,0,0,1,3.71,5.395,17.255,17.255,0,0,1,1.332,6.762,14.548,14.548,0,0,1-3.66,10.286A17.173,17.173,0,0,1,375.389-47.7,14.656,14.656,0,0,1,380-44.507a25.728,25.728,0,0,1,3.466,5.827L394.335-14.8H383.746L375.418-34.46a32.839,32.839,0,0,0-3.312-6.306,6.874,6.874,0,0,0-3.478-2.542,20.433,20.433,0,0,0-5.843-.647h-5.3V-14.8H348.25Zm9.236,8.056v20.237H363.2q16.353,0,16.353-10.214,0-6.138-4.277-8.08a27.132,27.132,0,0,0-11.13-1.942Zm76.749-8.056L462.254-14.8H451.841l-6.768-16.592H413.647L406.973-14.8h-9.986l27.546-65.506Zm7.62,40.953-7.431-18.271q-2.225-5.227-3.313-8.224a64.881,64.881,0,0,1-1.94-6.4q-.71,2.638-1.68,5.251t-3.762,9.567l-7.147,18.079Zm80.929-40.953V-14.8H510.849L490.388-50.333q-5.3-9.5-7.318-13.451a56.709,56.709,0,0,1-3.576-9.039q.805,10.79.805,24.745V-14.8h-9.236V-80.305h12.6l22.024,38.6q6.678,11.749,8.952,18.75-.616-6.57-.71-8.824-.095-3.836-.166-7.577t-.095-4.7q-.024-.959-.024-4.748V-80.305Zm59.062,0v8.056H561.575V-14.8h-9.236v-57.45h-20.65v-8.056Z" transform="translate(-684.313 214.504)" fill="#00164e"/>
  </g>
</svg>
