<svg xmlns="http://www.w3.org/2000/svg" width="902" height="200" viewBox="0 0 902 200">
  <g id="Group_634" data-name="Group 634" transform="translate(691)">
    <path id="Subtraction_4" data-name="Subtraction 4" d="M179.775,97.431h-68.84V34.98h-41.3V97.43H0V0H179.775V97.43ZM125.691,34.98V72.727h37.746V34.98Zm-107.707,0V72.727H55.731V34.98Z" transform="translate(14.822 84.782)" fill="#00164e"/>
    <rect id="Rectangle_104" data-name="Rectangle 104" width="179.775" height="11.067" transform="translate(14.822 188.932)" fill="#00164e"/>
    <path id="Path_122" data-name="Path 122" d="M7460.8,1164.335H7299.541a4.935,4.935,0,0,1-4.941-4.941v-1.054a4.977,4.977,0,0,1,4.941-4.941H7460.8a4.933,4.933,0,0,1,4.939,4.941v1.054A4.974,4.974,0,0,1,7460.8,1164.335Z" transform="translate(-7275.43 -1153.4)" fill="#00164e"/>
    <path id="Subtraction_5" data-name="Subtraction 5" d="M201.185,64.822l-22.99-5.995-74.9.526L14.822,55.8,0,53.623,31.423,0,178.194,2.24,207.97,49.8l-6.785,15.02Zm-44.09-27.473H168.67l2.454,6.544h6.34l-11.207-28.55h-6.462l-11.125,28.55H154.6l2.5-6.544ZM126.622,15.344v28.55h9.98a12.911,12.911,0,0,0,6.381-1.431,7.271,7.271,0,0,0,3.681-6.831,6,6,0,0,0-1.82-4.418,7.571,7.571,0,0,0-4.725-2.086v-.082a7.031,7.031,0,0,0,4.131-2.168,6.077,6.077,0,0,0,1.555-4.213,6.409,6.409,0,0,0-3.231-6.012,12.019,12.019,0,0,0-5.972-1.309Zm-24.05,22.005h11.575l2.455,6.544h6.34l-11.207-28.55h-6.462L94.146,43.893h5.931l2.5-6.544ZM73.285,31.378H84.738V43.893h5.727V15.344H84.738V26.878H73.285V15.344H67.559v28.55h5.726V31.378ZM38.028,15.344v28.55H45.84c5.469,0,9.628-1.2,12.363-3.569s4.121-5.97,4.121-10.706S60.937,21.281,58.2,18.913s-6.894-3.569-12.363-3.569Zm97.021,24.051h-2.7V31.132h2.7a7.518,7.518,0,0,1,4.417,1.074,3.743,3.743,0,0,1,1.472,3.221,3.362,3.362,0,0,1-1.472,2.976A8,8,0,0,1,135.048,39.395Zm-88.1,0h-3.19V19.843h3.19a9.193,9.193,0,0,1,8.681,5.736,11.569,11.569,0,0,1,0,8.068,8.933,8.933,0,0,1-2.178,3.17,9.243,9.243,0,0,1-2.976,1.933A9.533,9.533,0,0,1,46.944,39.395Zm120.13-6.545H158.73l4.131-11.78h.082l4.131,11.779Zm-54.523,0h-8.344l4.131-11.78h.082l4.131,11.779Zm22.128-5.972h-2.332V19.843h2.209a10.055,10.055,0,0,1,3.763.532,3.045,3.045,0,0,1,1.759,3.027,2.907,2.907,0,0,1-1.35,2.607A7.608,7.608,0,0,1,134.68,26.878Z" transform="translate(0 5.468)" fill="#00164e"/>
    <g id="Group_181" data-name="Group 181" transform="translate(0 48.761)">
      <ellipse id="Ellipse_15" data-name="Ellipse 15" cx="13" cy="14" rx="13" ry="14" transform="translate(0 0.239)" fill="#00164e"/>
      <circle id="Ellipse_16" data-name="Ellipse 16" cx="14" cy="14" r="14" transform="translate(26 0.239)" fill="#00164e"/>
      <ellipse id="Ellipse_17" data-name="Ellipse 17" cx="13.175" cy="13.175" rx="13.175" ry="13.175" transform="translate(52.767 0.646)" fill="#00164e"/>
      <ellipse id="Ellipse_18" data-name="Ellipse 18" cx="13.175" cy="13.175" rx="13.175" ry="13.175" transform="translate(79.117 0.646)" fill="#00164e"/>
      <ellipse id="Ellipse_19" data-name="Ellipse 19" cx="13.175" cy="13.175" rx="13.175" ry="13.175" transform="translate(105.533 0.646)" fill="#00164e"/>
      <ellipse id="Ellipse_20" data-name="Ellipse 20" cx="13.175" cy="13.175" rx="13.175" ry="13.175" transform="translate(131.884 0.646)" fill="#00164e"/>
      <ellipse id="Ellipse_21" data-name="Ellipse 21" cx="13.175" cy="13.175" rx="13.175" ry="13.175" transform="translate(158.234 0.646)" fill="#00164e"/>
      <ellipse id="Ellipse_22" data-name="Ellipse 22" cx="13.175" cy="13.175" rx="13.175" ry="13.175" transform="translate(184.65 0.646)" fill="#00164e"/>
    </g>
    <path id="Path_131244" data-name="Path 131244" d="M-1.6-71.12V-80H57.763v8.88H43.652v17.639H22.243a8.591,8.591,0,0,0-6.326,2.555A8.152,8.152,0,0,0,13.241-44.6,15.762,15.762,0,0,0,17.5-34.018q4.258,4.866,9.123,4.987a12.525,12.525,0,0,1-2.433-7.177,12.967,12.967,0,0,1,4.379-9.732,14.341,14.341,0,0,1,10.218-3.893A14,14,0,0,1,49-45.453a14.14,14.14,0,0,1,4.379,10.34q0,6.691-6.326,11.678a25.1,25.1,0,0,1-15.571,4.866,27.246,27.246,0,0,1-19.463-7.907Q3.509-34.626,3.509-44.6A16.993,16.993,0,0,1,8.983-57.374,18.093,18.093,0,0,1,22.243-62.6H33.921V-71.12ZM37.2-29.03a6.638,6.638,0,0,0,4.379-1.946,5.417,5.417,0,0,0,2.068-4.136,5.261,5.261,0,0,0-1.46-3.893,4.942,4.942,0,0,0-3.406-1.7,4.266,4.266,0,0,0-3.406,1.581,5.972,5.972,0,0,0-1.46,4.014,6.491,6.491,0,0,0,.852,3.528A6.73,6.73,0,0,0,37.2-29.03ZM55.33-71.12V-80H84.525v8.88H74.793v51.943H65.062V-71.12Zm26.762,0V-80h55.227v8.88h-9.732v51.943h-9.732V-30.49a28.837,28.837,0,0,1-11.07,2.676A19.467,19.467,0,0,1,92.8-33.288a17.641,17.641,0,0,1-5.839-13.381A17.324,17.324,0,0,1,93.04-60.05a21.4,21.4,0,0,1,14.841-5.6q5.6,0,8.758,1.825l-3.163,8.394a12.5,12.5,0,0,0-5.6-1.095,9.826,9.826,0,0,0-5.474,1.581l15.449,12.773V-71.12Zm24.694,34.182a17.774,17.774,0,0,0,3.771-.487,5.9,5.9,0,0,0,2.8-1.46L98.514-50.927a5.479,5.479,0,0,0-.852,1.825,30.14,30.14,0,0,0-.365,4.44q0,2.007,2.8,4.805A8.7,8.7,0,0,0,106.786-36.937Zm28.1-34.182V-80h29.195v8.88H154.35v51.943h-9.732V-71.12Z" transform="translate(-689.4 80)" fill="#00164e"/>
    <path id="Path_131245" data-name="Path 131245" d="M10.313-80.039H24.4a101.647,101.647,0,0,1,11.4.5,36.624,36.624,0,0,1,12.694,3.51,32.725,32.725,0,0,1,9.931,7.293A31.781,31.781,0,0,1,64.7-58.509,35.366,35.366,0,0,1,66.913-45.79a34.714,34.714,0,0,1-1.618,10.6,32.041,32.041,0,0,1-4.555,9.135,30.859,30.859,0,0,1-7.168,7.069,34.711,34.711,0,0,1-9.408,4.7,33.038,33.038,0,0,1-5.177,1.344q-2.589.448-5.7.672t-7.492.224H10.313Zm9.707,8.363V-20.3H25a77.825,77.825,0,0,0,10.2-.5,29.619,29.619,0,0,0,7.019-1.941,22.934,22.934,0,0,0,7.641-5.376,23.773,23.773,0,0,0,4.928-8.064,28.254,28.254,0,0,0,1.717-9.906,27.336,27.336,0,0,0-1.145-7.865,24.928,24.928,0,0,0-3.286-6.969A24.357,24.357,0,0,0,46.951-66.4a21.718,21.718,0,0,0-6.571-3.534,24.15,24.15,0,0,0-5.849-1.319,83.509,83.509,0,0,0-9.433-.423Zm112.852-8.363v68h-9.707V-43.251H90.26v31.212H80.553v-68H90.26v28.524h32.9V-80.039Zm48.457,0,29.449,68H199.834l-7.113-17.224h-33.03l-7.014,17.224h-10.5l28.951-68Zm8.009,42.512-7.81-18.966q-2.338-5.426-3.482-8.537a66.737,66.737,0,0,1-2.039-6.646q-.746,2.738-1.766,5.451t-3.954,9.931l-7.511,18.767Zm30.7-42.512h16.107q4.773,0,6.363.075t3.48.324q7.683,1.046,12.172,5.63a15.658,15.658,0,0,1,4.49,11.41q0,6.576-3.846,10.512a21.3,21.3,0,0,1-10.69,5.53q7.589,1.045,12.033,4.974t4.444,11.291a17.432,17.432,0,0,1-2.439,9.078,17.143,17.143,0,0,1-6.82,6.442,21.059,21.059,0,0,1-6.447,2.114,58.606,58.606,0,0,1-9.483.622H220.037Zm9.707,8.363v20.609h6.9q16.293,0,16.293-10.3A8.935,8.935,0,0,0,251.2-67.1a9.745,9.745,0,0,0-4.471-3.161,21.5,21.5,0,0,0-5.439-1.195q-2.707-.224-6.582-.224Zm0,28.574v22.8h7.417a30.275,30.275,0,0,0,12.346-2.26q5.078-2.26,5.078-8.618,0-7.451-5.6-9.687A38.533,38.533,0,0,0,234.822-43.1Zm80.267-36.937,29.449,68H328.516L321.4-29.263h-33.03l-7.014,17.224h-10.5l28.951-68Zm8.009,42.512-7.81-18.966q-2.338-5.426-3.482-8.537a66.741,66.741,0,0,1-2.039-6.646q-.746,2.738-1.766,5.451t-3.954,9.931l-7.511,18.767Z" transform="translate(-701.313 212.039)" fill="#00164e"/>
  </g>
</svg>
