<svg xmlns="http://www.w3.org/2000/svg" xmlns:xlink="http://www.w3.org/1999/xlink" width="269.448" height="211" viewBox="0 0 269.448 211">
  <defs>
    <linearGradient id="linear-gradient" x1="1.035" y1="-0.353" x2="-0.032" y2="1.33" gradientUnits="objectBoundingBox">
      <stop offset="0" stop-color="#fff2eb"/>
      <stop offset="1" stop-color="#eff4ff"/>
    </linearGradient>
    <linearGradient id="linear-gradient-2" y1="0.5" x2="1" y2="0.5" gradientUnits="objectBoundingBox">
      <stop offset="0" stop-color="#cfd5f1"/>
      <stop offset="0.283" stop-color="#e0e4f6"/>
      <stop offset="0.719" stop-color="#f6f7fc"/>
      <stop offset="1" stop-color="#fff"/>
    </linearGradient>
    <linearGradient id="linear-gradient-4" y1="0.5" x2="1" y2="0.5" gradientUnits="objectBoundingBox">
      <stop offset="0" stop-color="#c2c8e6"/>
      <stop offset="0.633" stop-color="#ebedf7"/>
      <stop offset="1" stop-color="#fff"/>
    </linearGradient>
    <linearGradient id="linear-gradient-5" y1="0.5" x2="1" y2="0.5" gradientUnits="objectBoundingBox">
      <stop offset="0" stop-color="#dae0f5"/>
      <stop offset="0.319" stop-color="#e0e5f6"/>
      <stop offset="0.765" stop-color="#f2f4fb"/>
      <stop offset="1" stop-color="#fff"/>
    </linearGradient>
    <linearGradient id="linear-gradient-6" y1="0.5" x2="1" y2="0.5" gradientUnits="objectBoundingBox">
      <stop offset="0" stop-color="#c4cae9"/>
      <stop offset="0.502" stop-color="#e3e6f4"/>
      <stop offset="1" stop-color="#fff"/>
    </linearGradient>
    <linearGradient id="linear-gradient-7" x1="-0.188" y1="-7.906" x2="-0.723" y2="-9.931" gradientUnits="objectBoundingBox">
      <stop offset="0" stop-color="#ced3f8"/>
      <stop offset="1" stop-color="#bbc0e6"/>
    </linearGradient>
    <linearGradient id="linear-gradient-8" y1="0.5" x2="1" y2="0.5" gradientUnits="objectBoundingBox">
      <stop offset="0" stop-color="#d1d7f3"/>
      <stop offset="1" stop-color="#fff"/>
    </linearGradient>
    <linearGradient id="linear-gradient-11" y1="0.5" x2="1" y2="0.5" gradientUnits="objectBoundingBox">
      <stop offset="0" stop-color="#d1d6f0"/>
      <stop offset="0.29" stop-color="#d5d9f1"/>
      <stop offset="0.592" stop-color="#e1e4f5"/>
      <stop offset="0.899" stop-color="#f6f7fc"/>
      <stop offset="1" stop-color="#fff"/>
    </linearGradient>
    <linearGradient id="linear-gradient-12" y1="0.5" x2="1" y2="0.5" gradientUnits="objectBoundingBox">
      <stop offset="0" stop-color="#bbbfe2"/>
      <stop offset="1" stop-color="#ced2f4"/>
    </linearGradient>
    <linearGradient id="linear-gradient-13" y1="0.5" x2="1" y2="0.5" gradientUnits="objectBoundingBox">
      <stop offset="0" stop-color="#a5acd4"/>
      <stop offset="0.635" stop-color="#bdc2e7"/>
      <stop offset="1" stop-color="#ced2f4"/>
    </linearGradient>
    <linearGradient id="linear-gradient-15" y1="0.5" x2="1" y2="0.5" gradientUnits="objectBoundingBox">
      <stop offset="0" stop-color="#a5acd4"/>
      <stop offset="0.516" stop-color="#bcc1e6"/>
      <stop offset="1" stop-color="#ced2f4"/>
    </linearGradient>
    <linearGradient id="linear-gradient-19" y1="0.5" x2="1" y2="0.5" gradientUnits="objectBoundingBox">
      <stop offset="0" stop-color="#c4cae9"/>
      <stop offset="0.308" stop-color="#d2d6ee"/>
      <stop offset="0.891" stop-color="#f7f8fc"/>
      <stop offset="1" stop-color="#fff"/>
    </linearGradient>
    <linearGradient id="linear-gradient-21" x1="1.489" y1="0.5" x2="2.489" y2="0.5" gradientUnits="objectBoundingBox">
      <stop offset="0" stop-color="#c4cae9"/>
      <stop offset="0.095" stop-color="#cdd2ec"/>
      <stop offset="0.409" stop-color="#e8eaf6"/>
      <stop offset="0.687" stop-color="#f9f9fc"/>
      <stop offset="0.899" stop-color="#fff"/>
    </linearGradient>
    <linearGradient id="linear-gradient-22" x1="4.823" y1="5.103" x2="5.463" y2="4.503" gradientUnits="objectBoundingBox">
      <stop offset="0" stop-color="#362e94"/>
      <stop offset="1" stop-color="#6b67e9"/>
    </linearGradient>
    <linearGradient id="linear-gradient-23" x1="-6.956" y1="0.087" x2="-5.985" y2="0.979" gradientUnits="objectBoundingBox">
      <stop offset="0" stop-color="#20196f"/>
      <stop offset="0.224" stop-color="#231c74"/>
      <stop offset="0.518" stop-color="#2b2585"/>
      <stop offset="0.849" stop-color="#3a35a0"/>
      <stop offset="1" stop-color="#423eaf"/>
    </linearGradient>
    <linearGradient id="linear-gradient-24" x1="-27.303" y1="0.5" x2="-26.303" y2="0.5" gradientUnits="objectBoundingBox">
      <stop offset="0" stop-color="#6b67e9"/>
      <stop offset="1" stop-color="#362e94"/>
    </linearGradient>
    <linearGradient id="linear-gradient-25" x1="-5.204" y1="0.5" x2="-4.204" y2="0.5" gradientUnits="objectBoundingBox">
      <stop offset="0" stop-color="#362e94"/>
      <stop offset="0.386" stop-color="#38319a"/>
      <stop offset="0.904" stop-color="#403bab"/>
      <stop offset="1" stop-color="#423eaf"/>
    </linearGradient>
    <linearGradient id="linear-gradient-26" y1="0.5" x2="1" y2="0.5" gradientUnits="objectBoundingBox">
      <stop offset="0.25" stop-color="#fff"/>
      <stop offset="0.609" stop-color="#e9ebfb"/>
      <stop offset="1" stop-color="#ced3f8"/>
    </linearGradient>
    <linearGradient id="linear-gradient-29" x1="0" y1="0.5" x2="1" y2="0.5" xlink:href="#linear-gradient-21"/>
    <linearGradient id="linear-gradient-30" x1="14.644" y1="0.5" x2="15.644" y2="0.5" gradientUnits="objectBoundingBox">
      <stop offset="0" stop-color="#e19100"/>
      <stop offset="0.097" stop-color="#e49807"/>
      <stop offset="0.692" stop-color="#f7c02e"/>
      <stop offset="1" stop-color="#ffd03e"/>
    </linearGradient>
    <linearGradient id="linear-gradient-31" x1="0.465" y1="0.088" x2="0.581" y2="1.067" xlink:href="#linear-gradient-23"/>
    <linearGradient id="linear-gradient-32" x1="13.066" y1="0.5" x2="14.066" y2="0.5" xlink:href="#linear-gradient-30"/>
    <linearGradient id="linear-gradient-33" x1="0.485" y1="-0.009" x2="0.581" y2="0.956" xlink:href="#linear-gradient-25"/>
    <linearGradient id="linear-gradient-34" x1="0.5" y1="1" x2="0.5" y2="-0.544" gradientUnits="objectBoundingBox">
      <stop offset="0" stop-color="#fff"/>
      <stop offset="0.571" stop-color="#e2e5f7"/>
      <stop offset="1" stop-color="#d1d7f3"/>
    </linearGradient>
    <linearGradient id="linear-gradient-49" x1="-5.204" y1="0.5" x2="-4.204" y2="0.5" gradientUnits="objectBoundingBox">
      <stop offset="0" stop-color="#0d1b3a"/>
      <stop offset="0.386" stop-color="#38319a"/>
      <stop offset="0.904" stop-color="#403bab"/>
      <stop offset="1" stop-color="#423eaf"/>
    </linearGradient>
  </defs>
  <g id="help_center_cover" transform="translate(-435.4 -843)">
    <g id="Group_20784" data-name="Group 20784" transform="translate(4.545 1)" style="isolation: isolate">
      <path id="Path_95998" data-name="Path 95998" d="M1.318,0A1.318,1.318,0,1,1,0,1.318,1.318,1.318,0,0,1,1.318,0Z" transform="translate(445 1012)" fill="#d8e4ff"/>
      <path id="Path_95999" data-name="Path 95999" d="M1.318,0A1.318,1.318,0,1,1,0,1.318,1.318,1.318,0,0,1,1.318,0Z" transform="translate(450.273 1012)" fill="#d8e4ff"/>
      <path id="Path_96000" data-name="Path 96000" d="M1.318,0A1.318,1.318,0,1,1,0,1.318,1.318,1.318,0,0,1,1.318,0Z" transform="translate(455.546 1012)" fill="#d8e4ff"/>
      <path id="Path_96001" data-name="Path 96001" d="M1.318,0A1.318,1.318,0,1,1,0,1.318,1.318,1.318,0,0,1,1.318,0Z" transform="translate(460.819 1012)" fill="#d8e4ff"/>
      <path id="Path_96002" data-name="Path 96002" d="M1.318,0A1.318,1.318,0,1,1,0,1.318,1.318,1.318,0,0,1,1.318,0Z" transform="translate(445 1017.273)" fill="#d8e4ff"/>
      <path id="Path_96003" data-name="Path 96003" d="M1.318,0A1.318,1.318,0,1,1,0,1.318,1.318,1.318,0,0,1,1.318,0Z" transform="translate(450.273 1017.273)" fill="#d8e4ff"/>
      <path id="Path_96004" data-name="Path 96004" d="M1.318,0A1.318,1.318,0,1,1,0,1.318,1.318,1.318,0,0,1,1.318,0Z" transform="translate(455.546 1017.273)" fill="#d8e4ff"/>
      <path id="Path_96005" data-name="Path 96005" d="M1.318,0A1.318,1.318,0,1,1,0,1.318,1.318,1.318,0,0,1,1.318,0Z" transform="translate(460.819 1017.273)" fill="#d8e4ff"/>
      <path id="Path_96006" data-name="Path 96006" d="M1.318,0A1.318,1.318,0,1,1,0,1.318,1.318,1.318,0,0,1,1.318,0Z" transform="translate(445 1022.546)" fill="#d8e4ff"/>
      <path id="Path_96007" data-name="Path 96007" d="M1.318,0A1.318,1.318,0,1,1,0,1.318,1.318,1.318,0,0,1,1.318,0Z" transform="translate(450.273 1022.546)" fill="#d8e4ff"/>
      <path id="Path_96008" data-name="Path 96008" d="M1.318,0A1.318,1.318,0,1,1,0,1.318,1.318,1.318,0,0,1,1.318,0Z" transform="translate(455.546 1022.546)" fill="#d8e4ff"/>
      <path id="Path_96009" data-name="Path 96009" d="M1.318,0A1.318,1.318,0,1,1,0,1.318,1.318,1.318,0,0,1,1.318,0Z" transform="translate(460.819 1022.546)" fill="#d8e4ff"/>
      <path id="Path_96010" data-name="Path 96010" d="M1.318,0A1.318,1.318,0,1,1,0,1.318,1.318,1.318,0,0,1,1.318,0Z" transform="translate(445 1027.819)" fill="#d8e4ff"/>
      <path id="Path_96011" data-name="Path 96011" d="M1.318,0A1.318,1.318,0,1,1,0,1.318,1.318,1.318,0,0,1,1.318,0Z" transform="translate(450.273 1027.819)" fill="#d8e4ff"/>
      <path id="Path_96012" data-name="Path 96012" d="M1.318,0A1.318,1.318,0,1,1,0,1.318,1.318,1.318,0,0,1,1.318,0Z" transform="translate(455.546 1027.819)" fill="#d8e4ff"/>
      <path id="Path_96013" data-name="Path 96013" d="M1.318,0A1.318,1.318,0,1,1,0,1.318,1.318,1.318,0,0,1,1.318,0Z" transform="translate(460.819 1027.819)" fill="#d8e4ff"/>
    </g>
    <path id="Path_96014" data-name="Path 96014" d="M1.513,0A1.513,1.513,0,1,1,0,1.513,1.513,1.513,0,0,1,1.513,0Z" transform="translate(573 843)" fill="#f1f5ff"/>
    <path id="Path_96015" data-name="Path 96015" d="M1.513,0A1.513,1.513,0,1,1,0,1.513,1.513,1.513,0,0,1,1.513,0Z" transform="translate(579.052 843)" fill="#f1f5ff"/>
    <path id="Path_96016" data-name="Path 96016" d="M1.513,0A1.513,1.513,0,1,1,0,1.513,1.513,1.513,0,0,1,1.513,0Z" transform="translate(585.104 843)" fill="#f1f5ff"/>
    <path id="Path_96017" data-name="Path 96017" d="M1.513,0A1.513,1.513,0,1,1,0,1.513,1.513,1.513,0,0,1,1.513,0Z" transform="translate(591.156 843)" fill="#f1f5ff"/>
    <path id="Path_96018" data-name="Path 96018" d="M1.513,0A1.513,1.513,0,1,1,0,1.513,1.513,1.513,0,0,1,1.513,0Z" transform="translate(573 849.052)" fill="#f1f5ff"/>
    <path id="Path_96019" data-name="Path 96019" d="M1.513,0A1.513,1.513,0,1,1,0,1.513,1.513,1.513,0,0,1,1.513,0Z" transform="translate(579.052 849.052)" fill="#f1f5ff"/>
    <path id="Path_96020" data-name="Path 96020" d="M1.513,0A1.513,1.513,0,1,1,0,1.513,1.513,1.513,0,0,1,1.513,0Z" transform="translate(585.104 849.052)" fill="#f1f5ff"/>
    <path id="Path_96021" data-name="Path 96021" d="M1.513,0A1.513,1.513,0,1,1,0,1.513,1.513,1.513,0,0,1,1.513,0Z" transform="translate(591.156 849.052)" fill="#f1f5ff"/>
    <path id="Path_96022" data-name="Path 96022" d="M1.513,0A1.513,1.513,0,1,1,0,1.513,1.513,1.513,0,0,1,1.513,0Z" transform="translate(573 855.104)" fill="#f1f5ff"/>
    <path id="Path_96023" data-name="Path 96023" d="M1.513,0A1.513,1.513,0,1,1,0,1.513,1.513,1.513,0,0,1,1.513,0Z" transform="translate(579.052 855.104)" fill="#f1f5ff"/>
    <path id="Path_96024" data-name="Path 96024" d="M1.513,0A1.513,1.513,0,1,1,0,1.513,1.513,1.513,0,0,1,1.513,0Z" transform="translate(585.104 855.104)" fill="#f1f5ff"/>
    <path id="Path_96025" data-name="Path 96025" d="M1.513,0A1.513,1.513,0,1,1,0,1.513,1.513,1.513,0,0,1,1.513,0Z" transform="translate(591.156 855.104)" fill="#f1f5ff"/>
    <path id="Path_96026" data-name="Path 96026" d="M1.513,0A1.513,1.513,0,1,1,0,1.513,1.513,1.513,0,0,1,1.513,0Z" transform="translate(573 861.156)" fill="#f1f5ff"/>
    <path id="Path_96027" data-name="Path 96027" d="M1.513,0A1.513,1.513,0,1,1,0,1.513,1.513,1.513,0,0,1,1.513,0Z" transform="translate(579.052 861.156)" fill="#f1f5ff"/>
    <path id="Path_96028" data-name="Path 96028" d="M1.513,0A1.513,1.513,0,1,1,0,1.513,1.513,1.513,0,0,1,1.513,0Z" transform="translate(585.104 861.156)" fill="#f1f5ff"/>
    <path id="Path_96029" data-name="Path 96029" d="M1.513,0A1.513,1.513,0,1,1,0,1.513,1.513,1.513,0,0,1,1.513,0Z" transform="translate(591.156 861.156)" fill="#f1f5ff"/>
    <path id="Path_95997" data-name="Path 95997" d="M-4099.247-8034.485c9.017,33.813,27.63,61.646,90.34,66.565s130.76-20.905,150.146-58.025-21.155-73.869-64.737-90.168-63.457,16.052-105.428,36.53S-4108.264-8068.3-4099.247-8034.485Z" transform="translate(4543 9021.319)" fill="url(#linear-gradient)"/>
    <g id="help_center_cover-2" data-name="help_center_cover" transform="translate(362)">
      <path id="Path_95993" data-name="Path 95993" d="M2130.5,1228.3h-11.534l7.21,4.291-7.21,4.165H2130.5l7.321-4.227Z" transform="translate(-1917.842 -318.74)" fill="url(#linear-gradient-2)" style="mix-blend-mode: multiply;isolation: isolate"/>
      <path id="Path_95992" data-name="Path 95992" d="M2118.961,1220.665l7.21-4.165v-8.454l-7.21,4.163Z" transform="translate(-1917.872 -302.651)" fill="#ffac7e"/>
      <path id="Path_95991" data-name="Path 95991" d="M2091.087,1220.665l-7.211-4.165v-8.454l7.211,4.163Z" transform="translate(-1890.002 -302.651)" fill="#ff975d"/>
      <path id="Path_58960" data-name="Path 58960" d="M2091.087,1196.122l-7.211-4.163,7.211-4.162,7.21,4.162Z" transform="translate(-1889.999 -286.563)" fill="#fbd1b9"/>
      <path id="Path_58961" data-name="Path 58961" d="M2118.961,1166.407l7.21-4.163v-8.455l-7.21,4.164Z" transform="translate(-1917.872 -259.572)" fill="#423eaf"/>
      <path id="Path_58962" data-name="Path 58962" d="M2091.087,1166.407l-7.211-4.163v-8.455l7.211,4.164Z" transform="translate(-1890.002 -259.572)" fill="#5652cc"/>
      <path id="Path_58963" data-name="Path 58963" d="M2091.087,1141.868l-7.211-4.163,7.211-4.162,7.21,4.162Z" transform="translate(-1889.999 -243.492)" fill="#807cfb"/>
      <path id="Path_95987" data-name="Path 95987" d="M2130.5,1228.3h-11.534l7.21,4.291-7.21,4.165H2130.5l7.321-4.227Z" transform="translate(-1992.651 -212.667)" fill="url(#linear-gradient-2)" style="mix-blend-mode: multiply;isolation: isolate"/>
      <path id="Path_58825" data-name="Path 58825" d="M2020.291,646.6h39.549v-35.33l-35.627-.08-34,31.046c-1.324.764-1.324,2.017,0,2.781,0,0,14.126,8.151,14.191,8.183l-2.156.776h3.463a6.575,6.575,0,0,0,3.321-.876Z" transform="translate(-1734.376 304.299)" fill="url(#linear-gradient-4)" style="mix-blend-mode: multiply;isolation: isolate"/>
      <path id="Path_58826" data-name="Path 58826" d="M1919.047,674.592a5.346,5.346,0,0,1,4.816,0l27.131,15.664c1.325.766,1.325,2.016,0,2.781l-14,8.085a5.353,5.353,0,0,1-4.817,0l-27.131-15.665c-1.325-.764-1.325-2.015,0-2.781Z" transform="translate(-1666.751 254.389)" fill="#f6f6fb"/>
      <path id="Path_58827" data-name="Path 58827" d="M1905.062,724.525l27.131,15.665a5.352,5.352,0,0,0,4.816,0l14-8.085a1.717,1.717,0,0,0,.989-1.331s0,2.134,0,2.134a1.685,1.685,0,0,1-.992,1.392l-14,8.085a5.343,5.343,0,0,1-4.816,0l-27.131-15.664a1.65,1.65,0,0,1-.988-1.449V723.2A1.715,1.715,0,0,0,1905.062,724.525Z" transform="translate(-1666.768 215.326)" fill="#ffd4bc"/>
      <path id="Path_58828" data-name="Path 58828" d="M1999.671,716.378l-.236,0h-12.526a1.768,1.768,0,0,0,.981,1.246l14.948,8.63-.107.231-2.574,1.485H2014.6l2.573-1.485Z" transform="translate(-1732.575 220.74)" fill="url(#linear-gradient-5)" style="mix-blend-mode: multiply;isolation: isolate"/>
      <path id="Path_58829" data-name="Path 58829" d="M1968.143,670.227a23.128,23.128,0,0,0,1.092-7.361l1.927-1.112c0,.492,0,1.242-.065,2.187l15.643,9.031a22.023,22.023,0,0,1-3.029,11.6l-17.5-10.1Z" transform="translate(-1716.136 264.129)" fill="#ffd4bc"/>
      <path id="Path_58830" data-name="Path 58830" d="M1980.939,662.866l17.5,10.106,1.926-1.111-17.5-10.106Z" transform="translate(-1727.839 264.126)" fill="#c6b4bb"/>
      <path id="Path_58831" data-name="Path 58831" d="M2051.363,723.636a22.026,22.026,0,0,0,3.028-11.6l1.926-1.111a25.843,25.843,0,0,1-2.38,11.229Z" transform="translate(-1783.785 225.073)" fill="#ffd4bc"/>
      <path id="Path_58832" data-name="Path 58832" d="M2061.4,731.188l2.069-1.2a25.727,25.727,0,0,0,.672-3.725l-1.946,1.125A22.288,22.288,0,0,1,2061.4,731.188Z" transform="translate(-1791.759 212.88)" fill="#d8def3" style="mix-blend-mode: multiply;isolation: isolate"/>
      <path id="Path_58833" data-name="Path 58833" d="M1839.943,327.094c0-1.529,1.084-2.155,2.408-1.39l64.891,37.464a5.343,5.343,0,0,1,2.408,4.171v43.495l-69.706-40.244Z" transform="translate(-1615.817 531.312)" fill="#fff2eb"/>
      <path id="Path_58834" data-name="Path 58834" d="M1848.695,318.377l64.891,37.464a5.342,5.342,0,0,1,2.408,4.171v43.5l-2.611,1.506V361.519a5.343,5.343,0,0,0-2.408-4.171l-64.891-37.464a1.861,1.861,0,0,0-1.442-.271l2.089-1.189A1.532,1.532,0,0,1,1848.695,318.377Z" transform="translate(-1619.548 537.133)" fill="#ffd4bc"/>
      <path id="Path_58835" data-name="Path 58835" d="M1909.649,585.587v8.794c0,1.529-1.084,2.154-2.408,1.39l-64.891-37.464a5.343,5.343,0,0,1-2.408-4.17v-8.793Z" transform="translate(-1615.817 356.6)" fill="#fff2eb"/>
      <path id="Path_58836" data-name="Path 58836" d="M2176.725,744.1V735.31l2.612-1.506V742.6a1.683,1.683,0,0,1-.715,1.558l-2.5,1.435A1.76,1.76,0,0,0,2176.725,744.1Z" transform="translate(-1882.857 206.897)" fill="#ffd4bc"/>
      <path id="Path_58837" data-name="Path 58837" d="M1851.657,383.988l64.891,37.465v-43.5l-64.891-37.465Z" transform="translate(-1625.124 519.305)" fill="#fff"/>
      <path id="Path_58838" data-name="Path 58838" d="M2009.506,431.627v21.382h0l2.643,4.578-2.643,1.526h0v16.01l32.446,18.732v-43.5Z" transform="translate(-1750.524 446.902)" fill="#ff975d"/>
      <path id="Path_58839" data-name="Path 58839" d="M1913.981,404.573c2.723,1.572,4.756,4.606,4.756,7.352v.088c0,2.613-1.458,2.834-2.819,2.735l-.345-.022c-.461-.022-.614.177-.614.82v.576l-2.531-1.461v-.8c0-1.505.46-2.192,1.668-2.114l.346.022c1.15.067,1.764-.067,1.764-1.174a4.116,4.116,0,0,0-2.224-3.277c-1.381-.8-2.417-.6-2.417.908v.532l-2.531-1.461v-.665C1909.033,403.576,1911.219,402.978,1913.981,404.573Zm-.288,11.747a3.862,3.862,0,0,1,1.822,3.156c0,1.24-.787,1.649-1.822,1.052a3.861,3.861,0,0,1-1.822-3.156C1911.871,416.132,1912.657,415.722,1913.693,416.32Z" transform="translate(-1670.725 469.076)" fill="#a3a9d0"/>
      <path id="Path_58840" data-name="Path 58840" d="M2080.229,505.033a4.216,4.216,0,0,1,1.988,3.444c0,1.353-.858,1.8-1.988,1.148a4.215,4.215,0,0,1-1.989-3.444C2078.24,504.828,2079.1,504.381,2080.229,505.033Zm1.381-11.867v11.65l-2.763-1.6v-11.65Z" transform="translate(-1805.135 399.305)" fill="#fff"/>
      <path id="Path_58841" data-name="Path 58841" d="M1903.624,493.28l-19.183-11.075v-.714l19.183,11.075Z" transform="translate(-1651.188 407.311)" fill="#ced3f8"/>
      <path id="Path_58842" data-name="Path 58842" d="M1903.624,502.093l-19.183-11.075V490.3l19.183,11.075Z" transform="translate(-1651.188 400.311)" fill="#ced3f8"/>
      <path id="Path_58843" data-name="Path 58843" d="M1903.624,510.907l-19.183-11.075v-.714l19.183,11.075Z" transform="translate(-1651.188 393.31)" fill="#ced3f8"/>
      <path id="Path_58844" data-name="Path 58844" d="M1894.032,514.183l-9.591-5.537v-.714l9.592,5.537Z" transform="translate(-1651.191 386.309)" fill="#ced3f8"/>
      <path id="Path_58845" data-name="Path 58845" d="M1903.624,539.445l-19.183-11.075v-.714l19.183,11.075Z" transform="translate(-1651.188 370.641)" fill="#ced3f8"/>
      <path id="Path_58846" data-name="Path 58846" d="M1903.624,548.259l-19.183-11.075v-.714l19.183,11.075Z" transform="translate(-1651.188 363.64)" fill="#ced3f8"/>
      <path id="Path_58847" data-name="Path 58847" d="M1894.032,551.535,1884.441,546v-.714l9.592,5.537Z" transform="translate(-1651.191 356.639)" fill="#ced3f8"/>
      <path id="Path_58848" data-name="Path 58848" d="M2065.1,584.753l-19.182-11.075v-.714l19.182,11.075Z" transform="translate(-1779.452 334.652)" fill="#fff"/>
      <path id="Path_58849" data-name="Path 58849" d="M2065.1,593.568l-19.182-11.075v-.714l19.182,11.075Z" transform="translate(-1779.452 327.651)" fill="#fff"/>
      <path id="Path_58850" data-name="Path 58850" d="M2055.507,596.844l-9.591-5.537v-.714l9.591,5.537Z" transform="translate(-1779.457 320.65)" fill="#fff"/>
      <path id="Path_58851" data-name="Path 58851" d="M2065.1,621.789l-19.182-11.075V610l19.182,11.075Z" transform="translate(-1779.452 305.236)" fill="#fff"/>
      <path id="Path_58852" data-name="Path 58852" d="M2065.1,630.6l-19.182-11.075v-.714l19.182,11.075Z" transform="translate(-1779.452 298.233)" fill="#fff"/>
      <path id="Path_58853" data-name="Path 58853" d="M2055.507,633.879l-9.591-5.537v-.714l9.591,5.537Z" transform="translate(-1779.457 291.232)" fill="#fff"/>
      <path id="Path_58854" data-name="Path 58854" d="M1834.1,1138.858c-6.057-3.52-15.911-3.518-22,0s-6.129,9.226-.072,12.746a18.773,18.773,0,0,0,5.056,1.959v.67h5.556c.249,0,.5,0,.746,0h.366v-.01a22.156,22.156,0,0,0,10.278-2.62C1840.122,1148.084,1840.156,1142.377,1834.1,1138.858Z" transform="translate(-1590.068 -112.741)" fill="url(#linear-gradient-6)" style="mix-blend-mode: multiply;isolation: isolate"/>
      <path id="Path_58855" data-name="Path 58855" d="M1807.307,1168.895c3.068-1.771,4.6-4.1,4.594-6.418l-.013-4.492c.006,2.322-1.525,4.647-4.593,6.418-6.1,3.521-15.948,3.521-22,0-3.009-1.749-4.515-4.037-4.522-6.328l.013,4.492c.007,2.291,1.513,4.58,4.522,6.328C1791.359,1172.414,1801.211,1172.414,1807.307,1168.895Z" transform="translate(-1568.833 -130.033)" fill="url(#linear-gradient-7)"/>
      <path id="Path_58856" data-name="Path 58856" d="M1807.3,1129.746c6.095-3.518,6.129-9.226.074-12.745s-15.911-3.518-22,0-6.129,9.226-.072,12.746S1801.2,1133.266,1807.3,1129.746Z" transform="translate(-1568.835 -95.38)" fill="#f6f6fb"/>
      <path id="Path_58857" data-name="Path 58857" d="M1823.671,1140.622a.877.877,0,0,1,0,1.664,2.865,2.865,0,0,1-1.446.349,2.83,2.83,0,0,1-1.445-.343.974.974,0,0,1-.594-.834,1,1,0,0,1,.6-.835,3.175,3.175,0,0,1,2.882,0Zm1.4-.7-.363-.21a9.738,9.738,0,0,1,1.582-.8,12.141,12.141,0,0,1,1.943-.445,15.438,15.438,0,0,0,2.011-.441,7.512,7.512,0,0,0,1.443-.662q1.19-.687,1.291-1.281a.894.894,0,0,0-.535-.96,2.462,2.462,0,0,0-1.073-.32,1.2,1.2,0,0,0-.663.094.818.818,0,0,0-.278.357,1.871,1.871,0,0,1-1.824,1.151,2.073,2.073,0,0,1-1.044-.262.792.792,0,0,1-.49-.691q.013-.4.6-.737a5.1,5.1,0,0,1,2.769-.543,7.208,7.208,0,0,1,3.351,1.014q1.738,1,1.819,2.007a1.773,1.773,0,0,1-1.093,1.681,5.358,5.358,0,0,1-2.04.638,15.121,15.121,0,0,1-3.408-.122,9.581,9.581,0,0,0-2.237-.076A5.807,5.807,0,0,0,1825.07,1139.923Z" transform="translate(-1600.147 -111.113)" fill="#ced3f8"/>
      <path id="Path_58858" data-name="Path 58858" d="M1859.054,914.376a30.348,30.348,0,0,0-3.857.419,28.8,28.8,0,0,0-5.5,1.638q-18.739-5.017-31.741-5.016-11.586,0-14.068,2.423t4.048,6.193c.058.034.121.067.181.1q-2.86-.2-5.49-.208-11.586,0-14.068,2.423t4.048,6.193q6.534,3.771,19.537,6.638l-5.379,2.969,16.964,3.379,5.734-3.379q8.333,1.126,17.141,1.911s3.05-4.165,4.325-6.1c3.381.9,5.974,1.513,8.123,1.937Z" transform="translate(-1574.461 65.826)" fill="url(#linear-gradient-8)" style="mix-blend-mode: multiply;isolation: isolate"/>
      <path id="Path_58859" data-name="Path 58859" d="M1997.88,1033l-73.566-7.545-9.477,5.472,9.811,5.665,21.693,2.218,17.317,10-14.008,2.218,9.811,5.665,38.418-6.112Z" transform="translate(-1675.282 -24.753)" fill="url(#linear-gradient-8)" style="mix-blend-mode: multiply;isolation: isolate"/>
      <path id="Path_58860" data-name="Path 58860" d="M1706.968,883q-7.6-.622-15.149-.625-12.886,0-19.89,1.894-6.251,1.691-6.54,4.428-1,.163-1.917.352c-.914-.178-1.837-.392-2.772-.651a16.271,16.271,0,0,1-3.635-1.382,4.589,4.589,0,0,1-1.655-1.4q-.414-.682-.06-1.093a5.542,5.542,0,0,1,2.661-1.262l-16.255-2.764c-3.782,1.957-10.641,5.293-10.641,5.293q-5.674,2.935,1.95,7.337a47.973,47.973,0,0,0,10.876,4.027,114.033,114.033,0,0,0,16.254,3.037q9.163,5.29,27.662,8.907,9.6,1.876,19.112,2.776Z" transform="translate(-1448.017 90.386)" fill="url(#linear-gradient-8)" style="mix-blend-mode: multiply;isolation: isolate"/>
      <path id="Path_58861" data-name="Path 58861" d="M1528.288,650.785q0,7.44-3.281,11.484a10.1,10.1,0,0,1-8.836,3.771,10.229,10.229,0,0,0,1.684,2.713,9.1,9.1,0,0,0,2.394,2.1,8.07,8.07,0,0,0,2.423.955,4.109,4.109,0,0,0,1.892.035,4.171,4.171,0,0,0,2.187-1.536l4.788,9.385q-5.083,3.276-12.708-1.126a25.99,25.99,0,0,1-6.975-6.279,31.643,31.643,0,0,1-5.26-9.385q-9.162-5.29-15.427-15.97t-6.265-21.192q0-10.51,6.265-13.957t15.427,1.842q9.161,5.289,15.426,15.971T1528.288,650.785Zm-9.4-5.391a27.031,27.031,0,0,0-3.546-12.934,23.527,23.527,0,0,0-8.719-9.538q-5.171-2.986-8.718-.529t-3.547,8.839a26.827,26.827,0,0,0,3.547,12.9,23.565,23.565,0,0,0,8.718,9.5q5.172,2.986,8.719.563T1518.89,645.394Z" transform="translate(-1333.815 304.917)" fill="#fef0e8"/>
      <path id="Path_58862" data-name="Path 58862" d="M1697.971,875.143l-9.477,5.472,4.788,9.384,9.477-5.472Z" transform="translate(-1495.542 94.631)" fill="#ffe1d1"/>
      <path id="Path_58863" data-name="Path 58863" d="M1555.025,691.271a14.267,14.267,0,0,1-2.374-1.111,23.562,23.562,0,0,1-8.718-9.5,26.824,26.824,0,0,1-3.547-12.9,16.555,16.555,0,0,1,.432-3.943,6.682,6.682,0,0,0-6.362.576q-3.547,2.458-3.547,8.839a26.825,26.825,0,0,0,3.547,12.9,23.56,23.56,0,0,0,8.718,9.5q5.172,2.986,8.719.563A7.9,7.9,0,0,0,1555.025,691.271Z" transform="translate(-1370.365 262.916)" fill="#ffc5a5"/>
      <path id="Path_58864" data-name="Path 58864" d="M1556.246,602.973q-6.266-10.681-15.427-15.971t-15.427-1.842c-.207.114-.4.238-.6.363l0,0-8.734,5.043q6.228-3.316,15.289,1.911,9.16,5.289,15.426,15.971t6.266,21.191q0,7.44-3.281,11.484a10.335,10.335,0,0,1-2.575,2.3l4.1-2.366,4.783-2.762v0a10.141,10.141,0,0,0,3.172-2.639q3.279-4.044,3.281-11.484Q1562.512,613.654,1556.246,602.973Z" transform="translate(-1358.557 326.058)" fill="#ffe1d1"/>
      <path id="Path_58865" data-name="Path 58865" d="M1642.749,865l-.083.048h0a10.852,10.852,0,0,1-5.644,1.121,10.226,10.226,0,0,0,1.684,2.713,9.105,9.105,0,0,0,2.394,2.1,8.069,8.069,0,0,0,2.423.955,4.11,4.11,0,0,0,1.892.035,4.168,4.168,0,0,0,2.187-1.536h0l6.671-3.852a5.383,5.383,0,0,1-1.272-.119,8.073,8.073,0,0,1-2.423-.955,9.108,9.108,0,0,1-2.394-2.1,12.663,12.663,0,0,1-.8-1.081l-4.1,2.366Q1643.02,864.857,1642.749,865Z" transform="translate(-1454.653 104.808)" fill="#ffc5a5"/>
      <path id="Path_58866" data-name="Path 58866" d="M1769.07,885.162a8.922,8.922,0,0,0,1.713,4.948,13.215,13.215,0,0,0,4.434,4.129,6.52,6.52,0,0,0,5.851.374q-4.315-7.745-7.447-13.854Q1769.069,881.408,1769.07,885.162Z" transform="translate(-1559.547 90.169)" fill="#ffc5a5"/>
      <path id="Path_58867" data-name="Path 58867" d="M1800.309,797.473a6.506,6.506,0,0,0-1.063-3.617,7.2,7.2,0,0,0-2.365-2.389,2.5,2.5,0,0,0-2.334-.291q-1.034.462-1.034,2.269t2.364,6.586Q1800.308,799.862,1800.309,797.473Z" transform="translate(-1578.964 161.463)" fill="#ffc5a5"/>
      <path id="Path_58868" data-name="Path 58868" d="M1745.6,832.133a13.059,13.059,0,0,1,4.706-1.215c-.2-.4-.394-.788-.579-1.168Z" transform="translate(-1540.902 130.682)" fill="#f6f6fb"/>
      <path id="Path_58869" data-name="Path 58869" d="M1879.778,956.564l5.852,10.068,9.477-5.472-5.852-10.068Z" transform="translate(-1647.484 34.304)" fill="#ffe1d1"/>
      <path id="Path_58870" data-name="Path 58870" d="M1752.642,795.838q-4.966,1.774-11.5-2a31.969,31.969,0,0,1-10.727-10.05,23.042,23.042,0,0,1-4.2-12.968q0-7.507,8.689-8.293a52.711,52.711,0,0,1-2.837-6.449,16.557,16.557,0,0,1-.887-5.391q0-5.8,3.636-6.774t8.6,1.894a26.549,26.549,0,0,1,8.481,7.866A17.721,17.721,0,0,1,1755.42,764q0,6.689-8.452,7.542,3.31,6.688,4.964,9.759a17.738,17.738,0,0,0,2.246-5.323l6.916,9.726a24.6,24.6,0,0,1-3.311,6.074l5.852,10.068-5.852,3.037Zm-15.9-14.64a13.215,13.215,0,0,0,4.433,4.129,6.52,6.52,0,0,0,5.851.374q-4.315-7.745-7.447-13.854-4.551.648-4.551,4.4A8.921,8.921,0,0,0,1736.741,781.2Zm6.679-27.334a2.5,2.5,0,0,0-2.334-.291q-1.035.462-1.034,2.269t2.364,6.586q4.432-.17,4.432-2.56a6.506,6.506,0,0,0-1.063-3.617A7.2,7.2,0,0,0,1743.421,753.864Z" transform="translate(-1525.501 199.079)" fill="#fef0e8"/>
      <path id="Path_58871" data-name="Path 58871" d="M1883.087,927.017a24.605,24.605,0,0,1-3.311,6.074l9.478-5.472a24.606,24.606,0,0,0,3.31-6.073Z" transform="translate(-1647.485 57.772)" fill="#ffc5a5"/>
      <path id="Path_58872" data-name="Path 58872" d="M1878.63,883.952l-6.916-9.726-9.478,5.472,6.916,9.726,9.478-5.471Z" transform="translate(-1633.55 95.358)" fill="#ffe1d1"/>
      <path id="Path_58873" data-name="Path 58873" d="M1787.01,746.066l3.942-2.276c.1-.048.2-.1.3-.154l.7-.406c.083-.054.172-.1.252-.161l.008,0h0a6.534,6.534,0,0,0,2.686-5.686,17.723,17.723,0,0,0-3.517-10.323,26.557,26.557,0,0,0-8.482-7.866q-4.964-2.866-8.6-1.894a4.584,4.584,0,0,0-.839.313h0l0,0a4.1,4.1,0,0,0-.443.255l-9.031,5.215h0a4.569,4.569,0,0,1,.839-.313q3.635-.973,8.6,1.894a26.552,26.552,0,0,1,8.482,7.866,17.722,17.722,0,0,1,3.518,10.323,6.5,6.5,0,0,1-3.158,5.989l4.76-2.755Z" transform="translate(-1555.496 220.212)" fill="#ffe1d1"/>
      <path id="Path_58874" data-name="Path 58874" d="M1839.98,863.81q-1.174-2.291-2.77-5.5l-4.76,2.755q-.141.086-.288.167l-.154.089-.009-.005a13.353,13.353,0,0,1-4.844,1.3q3.31,6.688,4.965,9.759a17.75,17.75,0,0,0,2.246-5.323l5.615-3.241Z" transform="translate(-1605.686 108.003)" fill="#ffc5a5"/>
      <path id="Path_58875" data-name="Path 58875" d="M1972.048,1021.757l-9.477,5.472,3.842-8.087,9.477-5.472Z" transform="translate(-1713.25 -15.403)" fill="#ffc5a5"/>
      <path id="Path_58876" data-name="Path 58876" d="M2007.7,936.031l-9.477,5.472,5.2-10.852,9.477-5.472Z" transform="translate(-1741.573 54.887)" fill="#ffc5a5"/>
      <path id="Path_58877" data-name="Path 58877" d="M2018.047,983.948l-9.477,5.472-10.343-5.972,9.477-5.472Z" transform="translate(-1741.571 12.947)" fill="#f6f6fb"/>
      <path id="Path_58878" data-name="Path 58878" d="M1949.648,927.62l-3.842-12.524-17.317-10-3.842,8.087-9.812-5.665,17.85-37.4,8.925,5.153,17.85,58.012Zm-12.472-40.711-5.2,10.852,10.343,5.972Z" transform="translate(-1675.318 98.646)" fill="#fef0e8"/>
      <path id="Path_58879" data-name="Path 58879" d="M2054.575,868.564l-9.477,5.472,17.85,58.013,9.477-5.472Z" transform="translate(-1778.798 99.881)" fill="#ffe1d1"/>
      <path id="Path_58880" data-name="Path 58880" d="M2011.153,843.5l-9.477,5.472,8.925,5.152,9.477-5.472Z" transform="translate(-1744.311 119.767)" fill="#ffe1d1"/>
      <path id="Path_58881" data-name="Path 58881" d="M1998.227,988.44h8.518l-1.277-4.18Z" transform="translate(-1741.575 7.953)" fill="#6c6c6c" opacity="0.11" style="mix-blend-mode: multiply;isolation: isolate"/>
      <path id="Path_58882" data-name="Path 58882" d="M2242.993,914.232a1.7,1.7,0,0,1,.6-.393h2.641l1.1-2.415-.995-.154a2.752,2.752,0,0,1-.929-.308.945.945,0,0,1-.553-.818,6.232,6.232,0,0,0,0-.962c-.021-.689.822-1.026,1.463-1.127l1-.155-1.131-2.413h-2.638a2.058,2.058,0,0,1-.251-.12,1.636,1.636,0,0,1-.355-.274,10.847,10.847,0,0,0-.835-.834c-.614-.594-.174-1.13.294-1.4l.726-.422-3.06-1.767-.727.422a3.009,3.009,0,0,1-2.42.175c-.47-.175-.953-.336-1.443-.482a2.481,2.481,0,0,1-.472-.2c-.588-.339-.618-.793-.481-1.1l.264-.575-4.172-.648-.264.576c-.169.373-.748.863-1.938.855q-.832-.023-1.661,0a2.763,2.763,0,0,1-1.417-.316,1.29,1.29,0,0,1-.535-.536l-.268-.577-4.165.648.271.575c.174.373.1.965-.937,1.3q-.735.219-1.438.482a3.024,3.024,0,0,1-2.421-.176l-.732-.423-3.041,1.767.731.422c.472.272.917.809.311,1.4a10.228,10.228,0,0,0-.827.835,2.682,2.682,0,0,1-2.241.548l-1-.154-1.1,2.413,1,.155a2.755,2.755,0,0,1,.929.307.949.949,0,0,1,.554.818,6.034,6.034,0,0,0,0,.96.809.809,0,0,1-.274.623h-6.8v3.074h8.386a1.774,1.774,0,0,1,.248.119,1.6,1.6,0,0,1,.355.273,10.663,10.663,0,0,0,.838.834,1.063,1.063,0,0,1,.242.331h-3.95v3.26h5.975v-.133l.5-.29a3.017,3.017,0,0,1,2.422-.175c.183.068.369.132.557.2v2.809h5.711v-.006l.035.006.264-.576a.78.78,0,0,1,.072-.126v.7h5.747l4.164-.646-.269-.576c-.156-.333-.109-.841.644-1.186h4.884l3.041-1.768-.729-.42c-.472-.273-.918-.811-.312-1.4A10.283,10.283,0,0,0,2242.993,914.232Zm-9.8-1.363a12.267,12.267,0,0,1-11.131,0c-3.084-1.781-3.1-4.669-.037-6.448a12.268,12.268,0,0,1,11.133,0C2236.243,908.2,2236.259,911.089,2233.194,912.87Z" transform="translate(-1904.488 76.273)" fill="url(#linear-gradient-11)" style="mix-blend-mode: multiply;isolation: isolate"/>
      <path id="Path_58883" data-name="Path 58883" d="M2268.77,907.727a12.179,12.179,0,0,0-11.055,0c-2.707,1.573-2.99,4.017-.862,5.783a6.367,6.367,0,0,1,.862-.6,12.18,12.18,0,0,1,11.055,0,6.415,6.415,0,0,1,.9.619C2271.809,911.766,2271.507,909.307,2268.77,907.727Z" transform="translate(-1945.879 69.8)" fill="url(#linear-gradient-12)"/>
      <path id="Path_58884" data-name="Path 58884" d="M2326.827,876.669a.745.745,0,0,0-.069.309l-.015,5.2a.752.752,0,0,1,.068-.31l.263-.575.015-5.2Z" transform="translate(-2002.523 93.872)" fill="#bbbfe2"/>
      <path id="Path_58885" data-name="Path 58885" d="M2258.492,876.669l-.27-.575-.016,5.2.271.575a.761.761,0,0,1,.073.323l.014-5.2A.755.755,0,0,0,2258.492,876.669Z" transform="translate(-1948.074 93.872)" fill="#bbbfe2"/>
      <path id="Path_58886" data-name="Path 58886" d="M2363.11,893.679a1.045,1.045,0,0,0-.6.806l-.015,5.2a1.043,1.043,0,0,1,.6-.806l.726-.422.014-5.2Z" transform="translate(-2030.93 80.238)" fill="#bbbfe2"/>
      <path id="Path_58887" data-name="Path 58887" d="M2218.573,893.68l-.73-.422-.015,5.2.731.422a1.051,1.051,0,0,1,.606.815l.014-5.2A1.049,1.049,0,0,0,2218.573,893.68Z" transform="translate(-1915.995 80.238)" fill="#ced2f4"/>
      <path id="Path_58888" data-name="Path 58888" d="M2378.818,920.005c-.632.1-1.461.428-1.462,1.1l-.016,5.2c0-.671.831-1,1.464-1.1l1-.155.015-5.2Z" transform="translate(-2042.72 59.116)" fill="#bbbfe2"/>
      <path id="Path_58889" data-name="Path 58889" d="M2377.386,928.615l-.015,5.2c0,.147-.007.294-.018.441l.016-5.2C2377.38,928.91,2377.386,928.763,2377.386,928.615Z" transform="translate(-2042.73 52.154)" fill="#242d3c"/>
      <path id="Path_58890" data-name="Path 58890" d="M2200.238,921.995l0-.86a.948.948,0,0,0-.552-.818,2.785,2.785,0,0,0-.93-.308l-1-.154-.014,5.2,1,.155a2.757,2.757,0,0,1,.929.307,1.017,1.017,0,0,1,.537.658l0,.608c0,.172.006.343.02.513l.015-5.2C2200.239,922.063,2200.241,922.028,2200.238,921.995Z" transform="translate(-1900.042 59.113)" fill="#ced2f4"/>
      <path id="Path_58891" data-name="Path 58891" d="M2209.828,930.783l-.015,5.2v-.026l.015-5.2C2209.828,930.765,2209.828,930.774,2209.828,930.783Z" transform="translate(-1909.627 50.453)" fill="#242d3c"/>
      <path id="Path_58892" data-name="Path 58892" d="M2385.158,936.992l-.015,5.2-1.1,2.415.014-5.2Z" transform="translate(-2048.042 45.501)" fill="#bbbfe2"/>
      <path id="Path_58893" data-name="Path 58893" d="M2198.994,939.409l-.015,5.2-1.129-2.414.015-5.2Z" transform="translate(-1900.123 45.499)" fill="#ced2f4"/>
      <path id="Path_58894" data-name="Path 58894" d="M2366.207,947.83a2.677,2.677,0,0,0-2.242.549,10.1,10.1,0,0,1-.827.832.83.83,0,0,0-.293.586l-.014,5.2a.827.827,0,0,1,.293-.586,10.131,10.131,0,0,0,.827-.833,2.676,2.676,0,0,1,2.242-.548l1,.155.014-5.2Z" transform="translate(-2031.193 36.924)" fill="url(#linear-gradient-13)"/>
      <path id="Path_58895" data-name="Path 58895" d="M2207.439,949.211a10.442,10.442,0,0,1-.838-.834,1.607,1.607,0,0,0-.355-.272,3.056,3.056,0,0,0-1.894-.275l-.993.155-.015,5.2.994-.155a3.063,3.063,0,0,1,1.894.274,1.641,1.641,0,0,1,.356.273,10.6,10.6,0,0,0,.837.834.835.835,0,0,1,.3.6l.015-5.2A.841.841,0,0,0,2207.439,949.211Z" transform="translate(-1904.488 36.924)" fill="url(#linear-gradient-12)"/>
      <path id="Path_58896" data-name="Path 58896" d="M2357.589,963.586l-.015,5.2-3.041,1.768.014-5.2Z" transform="translate(-2024.601 24.377)" fill="#bbbfe2"/>
      <path id="Path_58897" data-name="Path 58897" d="M2221.3,965.353l-.015,5.2-3.061-1.768.015-5.2Z" transform="translate(-1916.31 24.377)" fill="#ced2f4"/>
      <path id="Path_58898" data-name="Path 58898" d="M2332.165,968.789a3.019,3.019,0,0,0-2.421-.173c-.467.173-.947.334-1.438.481-.77.25-1.01.641-1.01.979l-.014,5.2c0-.337.241-.729,1.01-.979.491-.146.97-.308,1.438-.482a3.02,3.02,0,0,1,2.42.173l.732.423.015-5.2Z" transform="translate(-2002.951 20.518)" fill="url(#linear-gradient-15)"/>
      <path id="Path_58899" data-name="Path 58899" d="M2238.194,969.3a2.558,2.558,0,0,0-.475-.2q-.737-.219-1.442-.482a3.017,3.017,0,0,0-2.421.175l-.726.423-.015,5.2.727-.422a3.014,3.014,0,0,1,2.421-.175q.705.262,1.441.482a2.4,2.4,0,0,1,.475.205.922.922,0,0,1,.548.788l.015-5.2A.924.924,0,0,0,2238.194,969.3Z" transform="translate(-1928.139 20.522)" fill="url(#linear-gradient-12)"/>
      <path id="Path_58900" data-name="Path 58900" d="M2312.865,980.758l-.015,5.2-4.164.646.015-5.2Z" transform="translate(-1988.177 10.736)" fill="#bbbfe2"/>
      <path id="Path_58901" data-name="Path 58901" d="M2284.922,977.795a1.273,1.273,0,0,0-.534-.537,2.767,2.767,0,0,0-1.417-.315c-.55.014-1.106.014-1.659,0-1.189-.008-1.768.483-1.938.854l-.264.576-.014,5.2.263-.576c.171-.372.75-.862,1.938-.855.554.015,1.108.015,1.66,0a2.763,2.763,0,0,1,1.417.316,1.276,1.276,0,0,1,.534.537l.27.576.015-5.2Z" transform="translate(-1964.67 13.769)" fill="url(#linear-gradient-12)"/>
      <path id="Path_58902" data-name="Path 58902" d="M2232.356,891.152l.73.421-3.041,1.767-.732-.423a3.02,3.02,0,0,0-2.421-.173c-.467.173-.947.334-1.437.481-1.035.337-1.113.929-.938,1.3l.271.576-4.165.646-.271-.576a1.276,1.276,0,0,0-.534-.537,2.765,2.765,0,0,0-1.417-.315c-.551.014-1.106.014-1.659,0-1.189-.008-1.767.483-1.939.854l-.263.576-4.172-.646.264-.577c.139-.3.107-.756-.48-1.1a2.552,2.552,0,0,0-.475-.2c-.491-.146-.971-.307-1.441-.482a3.016,3.016,0,0,0-2.421.175l-.726.423-3.06-1.767.726-.422c.468-.272.908-.808.295-1.4a10.573,10.573,0,0,1-.837-.834,1.653,1.653,0,0,0-.355-.273,3.067,3.067,0,0,0-1.895-.274l-.993.155-1.129-2.414.994-.154c.641-.1,1.484-.437,1.465-1.128a6.15,6.15,0,0,1,0-.96.947.947,0,0,0-.552-.818,2.782,2.782,0,0,0-.93-.308l-1-.154,1.1-2.414,1,.155a2.687,2.687,0,0,0,2.24-.548,10.5,10.5,0,0,1,.827-.835c.606-.593.16-1.13-.312-1.4l-.73-.422,3.041-1.767.732.422a3.026,3.026,0,0,0,2.421.175q.7-.262,1.438-.482c1.035-.337,1.112-.93.938-1.3l-.27-.575,4.164-.648.268.577a1.294,1.294,0,0,0,.535.536,2.762,2.762,0,0,0,1.417.316c.55-.013,1.106-.013,1.66,0,1.189.009,1.77-.482,1.938-.853l.263-.577,4.172.648-.263.575c-.138.3-.108.757.479,1.1a2.542,2.542,0,0,0,.473.2q.736.219,1.443.482a3.015,3.015,0,0,0,2.42-.176l.726-.423,3.061,1.768-.726.421c-.469.273-.908.81-.294,1.4a10.9,10.9,0,0,1,.834.833,1.647,1.647,0,0,0,.355.275,3.07,3.07,0,0,0,1.9.273l.993-.154,1.131,2.413-1,.155c-.64.1-1.484.437-1.461,1.127a6.383,6.383,0,0,1,0,.961.942.942,0,0,0,.552.818,2.76,2.76,0,0,0,.93.308l.995.154-1.1,2.415-1-.155a2.676,2.676,0,0,0-2.242.549,10.214,10.214,0,0,1-.827.832C2231.438,890.342,2231.883,890.878,2232.356,891.152Zm-20.416-3.6a12.272,12.272,0,0,0,11.131,0c3.064-1.782,3.048-4.668-.035-6.448a12.269,12.269,0,0,0-11.133,0c-3.061,1.78-3.047,4.669.037,6.449Z" transform="translate(-1900.098 96.383)" fill="#f0f0f5"/>
      <path id="Path_58903" data-name="Path 58903" d="M2262.985,981.4l-.015,5.2-4.172-.646.014-5.2Z" transform="translate(-1948.544 10.736)" fill="#ced2f4"/>
      <path id="Path_58904" data-name="Path 58904" d="M2258.484,901.115c-4.34-2.506-11.355-2.507-15.669,0-2.053,1.193-3.121,2.741-3.211,4.3.084,1.583,1.17,3.154,3.262,4.361,4.341,2.506,11.356,2.5,15.666,0,2.057-1.195,3.125-2.742,3.214-4.305C2261.661,903.891,2260.576,902.323,2258.484,901.115Zm-2.265,7.328a12.187,12.187,0,0,1-11.054,0,3.108,3.108,0,0,1-.035-5.992,12.183,12.183,0,0,1,11.055,0,3.108,3.108,0,0,1,.035,5.991Z" transform="translate(-1933.295 75.493)" fill="#e0e0eb"/>
      <path id="Path_58905" data-name="Path 58905" d="M2242.794,899.5c4.314-2.507,11.329-2.506,15.669,0,2.09,1.207,3.176,2.774,3.261,4.355.1-1.719-.988-3.459-3.261-4.772-4.34-2.506-11.355-2.507-15.669,0-2.235,1.3-3.3,3.017-3.211,4.719C2239.674,902.24,2240.741,900.695,2242.794,899.5Z" transform="translate(-1933.274 77.104)" fill="url(#linear-gradient-12)"/>
      <path id="Path_58906" data-name="Path 58906" d="M1251.538,889.85l46.917-34.635,13.074,7.548-46.916,27.087Z" transform="translate(-1148.445 110.469)" fill="url(#linear-gradient-19)" style="mix-blend-mode: multiply;isolation: isolate"/>
      <path id="Path_58907" data-name="Path 58907" d="M1136.231,848.576l46.915-27.086-28.963-16.724-46.916,27.087Z" transform="translate(-1033.867 150.544)" fill="#ffbe9a"/>
      <path id="Path_58908" data-name="Path 58908" d="M1124.057,908.055v5.955l27.153,15.677v-5.955Z" transform="translate(-1047.206 68.491)" fill="#dfe4f4"/>
      <path id="Path_58909" data-name="Path 58909" d="M1136.925,816.126l46.917-27.086-29.656-17.121-46.915,27.087Z" transform="translate(-1033.87 176.635)" fill="#ffbe9a"/>
      <path id="Path_58910" data-name="Path 58910" d="M1136.922,928.37l-29.654-17.121v-.8l28.964,16.723v-5.955L1107.267,904.5v-.8l29.653,17.12Z" transform="translate(-1033.867 71.953)" fill="#ab4a0a"/>
      <path id="Path_58911" data-name="Path 58911" d="M1251.538,889.85l46.916-27.087v-7.548L1251.538,882.3Z" transform="translate(-1148.448 110.469)" fill="#ff975d"/>
      <path id="Path_58912" data-name="Path 58912" d="M1256.65,822.746l-9.542,5.51,20.19,11.656,9.542-5.509Z" transform="translate(-1144.93 136.251)" fill="#ff975d"/>
      <path id="Path_58913" data-name="Path 58913" d="M1305.967,894.377a2.557,2.557,0,0,0-2.313,0,.7.7,0,0,0,0,1.335,2.557,2.557,0,0,0,2.313,0A.7.7,0,0,0,1305.967,894.377Z" transform="translate(-1189.47 79.568)" fill="#ff975d"/>
      <path id="Path_58914" data-name="Path 58914" d="M1288.994,884.577a2.558,2.558,0,0,0-2.313,0,.7.7,0,0,0,0,1.335,2.554,2.554,0,0,0,2.313,0A.7.7,0,0,0,1288.994,884.577Z" transform="translate(-1175.988 87.353)" fill="#ff975d"/>
      <path id="Path_58915" data-name="Path 58915" d="M1272.021,874.777a2.552,2.552,0,0,0-2.313,0,.7.7,0,0,0,0,1.335,2.557,2.557,0,0,0,2.313,0A.7.7,0,0,0,1272.021,874.777Z" transform="translate(-1162.505 95.136)" fill="#ff975d"/>
      <path id="Path_58916" data-name="Path 58916" d="M1255.047,864.976a2.554,2.554,0,0,0-2.313,0,.7.7,0,0,0,0,1.335,2.558,2.558,0,0,0,2.313,0A.7.7,0,0,0,1255.047,864.976Z" transform="translate(-1149.053 102.922)" fill="#ff975d"/>
      <path id="Path_58917" data-name="Path 58917" d="M1278.508,980.092a2.969,2.969,0,0,1,1.342-2.325c.741-.427,1.343-.08,1.343.776a2.966,2.966,0,0,1-1.343,2.324C1279.109,981.3,1278.508,980.948,1278.508,980.092Z" transform="translate(-1169.876 13.256)" fill="#ab4a0a"/>
      <path id="Path_58918" data-name="Path 58918" d="M1439.758,886.992a2.968,2.968,0,0,1,1.342-2.325c.741-.428,1.343-.081,1.343.776a2.966,2.966,0,0,1-1.343,2.324C1440.359,888.194,1439.758,887.848,1439.758,886.992Z" transform="translate(-1297.964 87.207)" fill="#ab4a0a"/>
      <path id="Path_58919" data-name="Path 58919" d="M1359.133,933.543a2.967,2.967,0,0,1,1.342-2.325c.742-.428,1.343-.081,1.343.775a2.968,2.968,0,0,1-1.343,2.325C1359.734,934.745,1359.133,934.4,1359.133,933.543Z" transform="translate(-1233.92 50.231)" fill="#ab4a0a"/>
      <path id="Path_58920" data-name="Path 58920" d="M1297.475,949.386l11.46-6.616v1.594l-11.46,6.616Z" transform="translate(-1184.941 40.912)" fill="#ab4a0a"/>
      <path id="Path_58921" data-name="Path 58921" d="M1389.561,896.223l-11.46,6.616v1.593l11.46-6.616Z" transform="translate(-1248.986 77.884)" fill="#ab4a0a"/>
      <path id="Path_58957" data-name="Path 58957" d="M2130.5,1228.3h-11.534l7.21,4.291-7.21,4.165H2130.5l7.321-4.227Z" transform="translate(-1837.449 -185.869)" fill="url(#linear-gradient-2)" style="mix-blend-mode: multiply;isolation: isolate"/>
      <path id="Path_58958" data-name="Path 58958" d="M2118.961,1220.665l7.21-4.165v-8.454l-7.21,4.163Z" transform="translate(-1837.48 -169.78)" fill="#ffac7e"/>
      <path id="Path_58959" data-name="Path 58959" d="M2091.087,1220.665l-7.211-4.165v-8.454l7.211,4.163Z" transform="translate(-1809.61 -169.78)" fill="#ff975d"/>
      <path id="Path_95990" data-name="Path 95990" d="M2091.087,1196.122l-7.211-4.163,7.211-4.162,7.21,4.162Z" transform="translate(-1964.808 -180.49)" fill="#fbd1b9"/>
      <path id="Path_58969" data-name="Path 58969" d="M1625.427,1266.775h-11.659l-2.23,2.974h13.89Z" transform="translate(-1434.412 -216.437)" fill="url(#linear-gradient-21)" style="mix-blend-mode: multiply;isolation: isolate"/>
      <path id="Path_58970" data-name="Path 58970" d="M1600.087,1265.928c.841.254.906,1.674.36,2.487a3.339,3.339,0,0,1-1.018.455,26.468,26.468,0,0,1-3.483.722c-.619-.03-1.945-.44-1.917-1.5.188-.622.775-.928,1.485-1.232.925-.395,1.73-.834,2.466-1.082A5.825,5.825,0,0,1,1600.087,1265.928Z" transform="translate(-1420.506 -215.594)" fill="url(#linear-gradient-22)"/>
      <path id="Path_58971" data-name="Path 58971" d="M1596,1278.277a27.331,27.331,0,0,0,3.585-.742,3.649,3.649,0,0,0,1.015-.446,1.937,1.937,0,0,1-.155.287,3.337,3.337,0,0,1-1.018.455,26.488,26.488,0,0,1-3.483.722c-.619-.03-1.945-.44-1.917-1.5.007-.02.017-.038.024-.059C1594.227,1277.892,1595.42,1278.248,1596,1278.277Z" transform="translate(-1420.506 -224.555)" fill="#131147"/>
      <path id="Path_58972" data-name="Path 58972" d="M1611.636,1261.078a15.292,15.292,0,0,1,1.746.929.842.842,0,0,0,.016.412c.009.02.016.041.025.062.224.283.438.762-.383.905-1.594.278-2.762-.922-2.115-1.188C1611.36,1262.021,1611.54,1261.4,1611.636,1261.078Z" transform="translate(-1433.785 -211.911)" fill="#ffd3ab"/>
      <path id="Path_58973" data-name="Path 58973" d="M1610.355,1266.164a.53.53,0,0,1,.85-.064,1.127,1.127,0,0,1,.394,1.187c-.1.341-1.076-.051-1.107-.108S1610.355,1266.164,1610.355,1266.164Z" transform="translate(-1433.476 -215.75)" fill="#423eaf"/>
      <path id="Path_58974" data-name="Path 58974" d="M1607.179,1267.186a2.063,2.063,0,0,1,.794,1.009.278.278,0,0,0,.529-.171,2.61,2.61,0,0,0-1.041-1.317.278.278,0,0,0-.283.479Z" transform="translate(-1430.845 -216.352)" fill="#fff"/>
      <path id="Path_58975" data-name="Path 58975" d="M1602.7,1269.273a2.067,2.067,0,0,1,.793,1.008.278.278,0,0,0,.529-.169,2.611,2.611,0,0,0-1.04-1.318.278.278,0,1,0-.283.479Z" transform="translate(-1427.286 -218.011)" fill="#fff"/>
      <path id="Path_58976" data-name="Path 58976" d="M1614.969,1125.675c-1.73,9.868-1.278,20.654-1.767,28.082-.1.915,2.053,1.266,2.53.641a55.39,55.39,0,0,0,2.143-13.7,95.889,95.889,0,0,0,3.4-14.715C1620.123,1126.352,1616.116,1125.31,1614.969,1125.675Z" transform="translate(-1435.733 -104.277)" fill="url(#linear-gradient-23)"/>
      <path id="Path_58977" data-name="Path 58977" d="M1704.492,1216.116c-.152,1.235-.05,3.752.893,3.725,1.309-.036,1.755-1.063,1.892-2.852s.393-3.766-.664-3.988a2.919,2.919,0,0,0-1.927.3S1704.643,1214.88,1704.492,1216.116Z" transform="translate(-1508.207 -173.672)" fill="url(#linear-gradient-24)"/>
      <path id="Path_58978" data-name="Path 58978" d="M1711.152,1213.347c-.077-.015-.149-.021-.224-.029.979.29.733,2.22.6,3.967-.131,1.714-.556,2.719-1.743,2.832a.462.462,0,0,0,.147.021c1.3-.036,1.743-1.056,1.878-2.83S1712.2,1213.568,1711.152,1213.347Z" transform="translate(-1512.457 -173.968)" fill="#131147"/>
      <path id="Path_58979" data-name="Path 58979" d="M1703.714,1227.3c.5.033,1.58.063,1.627.065a.264.264,0,0,0,.014-.527c-.011,0-1.119-.03-1.607-.063a.263.263,0,1,0-.034.526Z" transform="translate(-1507.439 -184.658)" fill="#fff"/>
      <path id="Path_58980" data-name="Path 58980" d="M1703.377,1232.84a6.722,6.722,0,0,0,1.734.074.263.263,0,1,0-.02-.526,6.2,6.2,0,0,1-1.625-.067.263.263,0,0,0-.089.519Z" transform="translate(-1507.194 -189.062)" fill="#fff"/>
      <path id="Path_58981" data-name="Path 58981" d="M1706.549,1215.055a.863.863,0,0,1,.687,1.134c-.146.571-.632,1.153-1.368.834C1704.82,1216.569,1706.549,1215.055,1706.549,1215.055Z" transform="translate(-1509.078 -175.348)" fill="#ffd3ab"/>
      <path id="Path_58982" data-name="Path 58982" d="M1652.228,1143.567c-.893-.708-5.745-3.1-5.745-3.1s-.758-6.579-1.3-8.981c0-2.162-.005-4.325-.914-5.888l-5.031.859-2.224.863s3.724,11.382,4.924,14.32a5.752,5.752,0,0,0,2.232,2.809,42.553,42.553,0,0,0,7.11,1.572C1652.587,1146.181,1652.991,1144.33,1652.228,1143.567Z" transform="translate(-1454.649 -104.302)" fill="url(#linear-gradient-25)"/>
      <path id="Path_58983" data-name="Path 58983" d="M1593.432,1004.794a9.4,9.4,0,0,1-2.164-1.851c-.71-.85-1.932-6.287-2.265-8.231a2.245,2.245,0,0,0-1.489.6c.47,2.513-.581,6.994,1.51,10.44a30.561,30.561,0,0,0,2.75,2.347C1591.841,1006.316,1592.45,1005.322,1593.432,1004.794Z" transform="translate(-1415.331 -0.344)" fill="#ffd3ab"/>
      <path id="Path_58984" data-name="Path 58984" d="M1612.217,1044.388c-.756-.4-2.341-1.207-3.7-2.012a4.34,4.34,0,0,0-2.015,3.661,34.842,34.842,0,0,0,4.7,3.559S1612.282,1044.917,1612.217,1044.388Z" transform="translate(-1430.416 -38.207)" fill="url(#linear-gradient-26)"/>
      <path id="Path_58985" data-name="Path 58985" d="M1628.711,1052.775a25.125,25.125,0,0,0-4.732-1.7c-3.094-.92-4.23-.1-4.69,1.825-1.166,4.866-.472,10.856-.473,13.008,0,.993.671,1.672,2.2,2.242a12.29,12.29,0,0,0,7.856-.14c1.045-.389,1.719-.961,1.7-1.143C1630.311,1064.386,1629.688,1053.318,1628.711,1052.775Z" transform="translate(-1440.032 -44.816)" fill="url(#linear-gradient-26)"/>
      <path id="Path_58986" data-name="Path 58986" d="M1657.956,1063.756c.787-.365,3.214-2.039,3.214-2.039a5.416,5.416,0,0,0-3.826-3.789C1654.932,1059.833,1657.292,1063.324,1657.956,1063.756Z" transform="translate(-1469.957 -50.561)" fill="url(#linear-gradient-26)"/>
      <path id="Path_58987" data-name="Path 58987" d="M1635.184,1033.967c.282-.8-2.942.219-3.078,1.33-.11.9.192,1.918-1.052,2.086-.364.175-1.812,1.648-.2,2.04,2.309.561,3.073.067,5.077-.981C1635.113,1037.947,1634.27,1036.56,1635.184,1033.967Z" transform="translate(-1449.167 -31.301)" fill="#ffd3ab"/>
      <path id="Path_58988" data-name="Path 58988" d="M1630.32,1058.068s.424-.408.744-.317.3.623.18.856A.649.649,0,0,1,1630.32,1058.068Z" transform="translate(-1449.335 -50.413)" fill="#20196f"/>
      <path id="Path_58989" data-name="Path 58989" d="M1627.09,1059.971a19.482,19.482,0,0,0,1.259,14.849l.989.384.411-1.33a19.618,19.618,0,0,1-2.149-13.586C1627.449,1060.178,1627.09,1059.971,1627.09,1059.971Z" transform="translate(-1446.028 -52.179)" fill="#20196f"/>
      <path id="Path_58990" data-name="Path 58990" d="M1633.124,1021.688l-.779-1.888-5.02-1.157-.7,3.021a2.875,2.875,0,0,0,1.813,3.6,2.815,2.815,0,0,0,3.285-2.1l.658-.071Z" transform="translate(-1446.326 -19.356)" fill="#ffd3ab"/>
      <path id="Path_58991" data-name="Path 58991" d="M1634.7,1043.633c1.373.135,2.873-1.366,3.1-2.993a2.821,2.821,0,0,1-3.038,2.131,1.454,1.454,0,0,1-.476.14.876.876,0,0,0-.1.065C1634.128,1043.219,1634.478,1043.611,1634.7,1043.633Z" transform="translate(-1452.399 -36.83)" fill="#f4c59f"/>
      <path id="Path_58992" data-name="Path 58992" d="M1627.684,1008.8c-.441-.185-.394-.578,1.615-.793a4.113,4.113,0,0,1,3.624.751,3.328,3.328,0,0,1,.681,3.937,8.633,8.633,0,0,1-1.649,2.548c-.183.115-.307-.432-.067-.928a1.012,1.012,0,0,0,.279-.408c.716-1.477-.292-1.464-.453-1.363-.322.053-.05,1.476-.884,1.148-.4-.158-.077-1.31.018-1.72a1.881,1.881,0,0,0-.2.007c-.8.232-3.289-.039-1.753-.569-.936-.216-2.311-.078-2.605-.772C1625.944,1009.817,1626.942,1009.235,1627.684,1008.8Z" transform="translate(-1446.078 -10.814)" fill="#20196f"/>
      <path id="Path_58993" data-name="Path 58993" d="M1633.87,1054.067a1.583,1.583,0,0,1-.018,1.069,5.587,5.587,0,0,0,5.055-1.267c.037-.161-.656-.769-.656-.769A5.015,5.015,0,0,1,1633.87,1054.067Z" transform="translate(-1452.14 -46.728)" fill="#ced3f8"/>
      <path id="Path_58994" data-name="Path 58994" d="M1630.643,1052.567a1.333,1.333,0,0,0-.827.425,1.6,1.6,0,0,1,.79-1.643,1.164,1.164,0,0,1,.578-.136A1.4,1.4,0,0,0,1630.643,1052.567Z" transform="translate(-1448.914 -45.229)" fill="#ced3f8"/>
      <path id="Path_58995" data-name="Path 58995" d="M1584.7,974.419a1.058,1.058,0,0,1,1.049-1.142c.363,0,.932.676.956,1s.011,1.025,0,1.153c.187-.1.524-.209.524-.1a7.655,7.655,0,0,0-.42.967,6.142,6.142,0,0,1-.116,1.61c-.163.255-.42.32-.944.223a1.484,1.484,0,0,1-1.049-1.425C1584.678,975.986,1584.7,974.419,1584.7,974.419Z" transform="translate(-1413.087 16.678)" fill="#f4c59f"/>
      <path id="Path_58996" data-name="Path 58996" d="M1670.793,1082.763a32.762,32.762,0,0,0-2.417-6.093c-.513.351-2.131,1.446-2.907,1.866,1.254,2.458,2.155,3.688,2.819,5.247a42.2,42.2,0,0,1-2.638,5.588c-.438.478.826,1.623,1.525.792a20.391,20.391,0,0,0,2.986-4.1A4.494,4.494,0,0,0,1670.793,1082.763Z" transform="translate(-1477.255 -65.444)" fill="#ffd3ab"/>
      <path id="Path_58997" data-name="Path 58997" d="M1655.451,1138.457c-.286.286-.931.217-1.333.3s-1.127.454-1.049.542.952-.183,1.066,0-1.667,1.7-1.494,2.054a1.4,1.4,0,0,0,1.854.77c1.116-.438,2.115-2.148,2.479-2.879A4.718,4.718,0,0,0,1655.451,1138.457Z" transform="translate(-1467.057 -114.528)" fill="#ffd3ab"/>
      <path id="Path_58998" data-name="Path 58998" d="M1530.973,1257.323v-5.817h-19.939l-.969,2.9h6.009l-.957,2.917Z" transform="translate(-1353.807 -204.306)" fill="url(#linear-gradient-29)" style="mix-blend-mode: multiply;isolation: isolate"/>
      <path id="Path_58999" data-name="Path 58999" d="M1500.787,1247.541c0-2.51,1.589-2.581,1.589-2.581a6.557,6.557,0,0,0,2.26-.581c1.38-.572,3.325-.351,2.238,1.655a.7.7,0,0,1-.037.074.986.986,0,0,1-.353.309l-3.474,2.037C1502.48,1248.756,1500.8,1248.057,1500.787,1247.541Z" transform="translate(-1346.441 -198.426)" fill="url(#linear-gradient-30)"/>
      <path id="Path_59000" data-name="Path 59000" d="M1500.809,1253.957c.03.516,1.689,1.2,2.214.9l3.474-2.037a3.207,3.207,0,0,0,.489-.356c-.031.068-.06.133-.1.21a.672.672,0,0,1-.037.074.986.986,0,0,1-.353.309l-3.474,2.038a2.352,2.352,0,0,1-2.2-.813.556.556,0,0,1-.016-.1A1.677,1.677,0,0,1,1500.809,1253.957Z" transform="translate(-1346.454 -205.068)" fill="#131147"/>
      <path id="Path_59001" data-name="Path 59001" d="M1504.276,1245.584a9.351,9.351,0,0,1,1.686.4.875.875,0,0,0,.14.408.428.428,0,0,1,.044.055c.311.214.626.557-.11,1.018a1.023,1.023,0,0,1-1.327-.094,1.218,1.218,0,0,0-.428-.485,1.087,1.087,0,0,0-.411-.173.335.335,0,0,0,0-.038S1504.089,1245.584,1504.276,1245.584Z" transform="translate(-1348.888 -199.602)" fill="#facfa7"/>
      <path id="Path_59002" data-name="Path 59002" d="M1504.172,1118.559c1.717.031,4.782.36,6.5.391-.64,5.158-.968,8.9-1.827,13.9-.921,4.853-1.958,8.265-2.864,12.306-.332.753-1.631.547-1.939-.176.343-4.7-.43-8.333.674-12.625-.1-2.436.282-5.4-.11-6.5A13.325,13.325,0,0,1,1504.172,1118.559Z" transform="translate(-1348.881 -98.686)" fill="url(#linear-gradient-31)"/>
      <path id="Path_59003" data-name="Path 59003" d="M1525.369,1261.733c0-2.509,1.589-2.58,1.589-2.58a6.554,6.554,0,0,0,2.26-.582c1.38-.572,3.325-.352,2.238,1.655a.71.71,0,0,1-.037.073.976.976,0,0,1-.353.309l-3.474,2.037C1527.062,1262.948,1525.38,1262.249,1525.369,1261.733Z" transform="translate(-1365.967 -209.701)" fill="url(#linear-gradient-32)"/>
      <path id="Path_59004" data-name="Path 59004" d="M1525.391,1268.15c.03.516,1.689,1.2,2.214.9l3.474-2.036a3.267,3.267,0,0,0,.489-.356c-.031.068-.059.133-.1.21a.705.705,0,0,1-.037.073.983.983,0,0,1-.353.309l-3.474,2.037a2.35,2.35,0,0,1-2.2-.813.515.515,0,0,1-.016-.1A1.662,1.662,0,0,1,1525.391,1268.15Z" transform="translate(-1365.98 -216.344)" fill="#131147"/>
      <path id="Path_59005" data-name="Path 59005" d="M1528.712,1259.775a11.871,11.871,0,0,1,1.83.4.879.879,0,0,0,.139.408.473.473,0,0,1,.045.055c.311.214.626.557-.11,1.019a1.024,1.024,0,0,1-1.327-.094,1.208,1.208,0,0,0-.428-.486,1.074,1.074,0,0,0-.411-.173.319.319,0,0,0,0-.038S1528.525,1259.775,1528.712,1259.775Z" transform="translate(-1368.413 -210.875)" fill="#facfa7"/>
      <path id="Path_59006" data-name="Path 59006" d="M1516.49,1130.84c1.717.031,5.769.438,7.484.469a34.751,34.751,0,0,1-.069,14.213c-.921,4.854-1.958,8.265-2.864,12.307-.332.753-1.743.467-2.05-.256.227-4.189-.318-8.254.785-12.546a52.166,52.166,0,0,0-.9-7.163C1518.279,1136.242,1516.177,1134.323,1516.49,1130.84Z" transform="translate(-1358.889 -108.443)" fill="url(#linear-gradient-33)"/>
      <path id="Path_59007" data-name="Path 59007" d="M1581.572,978.707a5.4,5.4,0,0,1-.381-1.355c-.049-.832-.39-1.306-.3-1.4s.445.074.445.074c-.015-.163-.13-1.174.09-1.416.142-.157.5-.544.866-.454a1.536,1.536,0,0,1,1,.869,17.267,17.267,0,0,1,0,3.617,3.716,3.716,0,0,0-.356.89l-1.364-.193A1.043,1.043,0,0,0,1581.572,978.707Z" transform="translate(-1410.058 15.986)" fill="#facfa7"/>
      <path id="Path_59008" data-name="Path 59008" d="M1498.185,1044.949c-.985.949-2.225,3.877-2.541,7.048a10.172,10.172,0,0,0,1.5,7.034C1499,1056.588,1498.185,1044.949,1498.185,1044.949Z" transform="translate(-1342.295 -40.248)" fill="#ec691f"/>
      <path id="Path_59009" data-name="Path 59009" d="M1518.938,996.953c-.3.573-2.168,5.868-2.633,6.38-1.031,1.133-2.838,3.1-5.366,3.568a4.213,4.213,0,0,1-.953.059,4.385,4.385,0,0,1-1.063-.633,8.076,8.076,0,0,0-2.562-1.689c-5.029-1.026-4.378,7.832-3.958,17.383.389,2.541.93,2.809,1.857,3.354,2.246,1.2,7.312,2.241,8.624-.3a26.284,26.284,0,0,1-1.769-8.118c-.039-1.569,1.055-2.818,1.423-4.576a5.547,5.547,0,0,0-.25-1.134,16.674,16.674,0,0,0,6.422-6.4,43.686,43.686,0,0,0,1.8-7.2A1.23,1.23,0,0,0,1518.938,996.953Z" transform="translate(-1347.499 -2.056)" fill="#ff975d"/>
      <path id="Path_59010" data-name="Path 59010" d="M1500.648,1002.413c-.4-1.518-1.929-3.972-4.671-3.382-2.649.57-3.275,2.285-3.215,4.957.038,1.7-.685,1.519-.995,2.7-.188.72.357,1.705-.2,2.726a2.676,2.676,0,0,1-1.441,1.271c-2,.837-.692,1.818.489,2.078,2.869.631,1.686-.724,2.915-.973.723-.146,2.047.543,2.723.2,1.331-.684.847-1.421,1.471-2.106.659-.722,1.389-.569,2.284-1.655a2.639,2.639,0,0,0,.419-3.006C1500.075,1004.414,1500.962,1003.593,1500.648,1002.413Z" transform="translate(-1337.147 -3.704)" fill="#20196f"/>
      <path id="Path_59011" data-name="Path 59011" d="M1540.51,1073.446c.693,1.346,1.439,6.566,1.373,8.358a2.571,2.571,0,0,0,1.28-1.162,26.27,26.27,0,0,1-1.768-8.118c-.039-1.569,1.055-2.818,1.422-4.576a5.548,5.548,0,0,0-.25-1.134,6.738,6.738,0,0,0-1.708,2.172C1540.626,1069.678,1539.818,1072.1,1540.51,1073.446Z" transform="translate(-1377.777 -57.614)" fill="url(#linear-gradient-34)" style="mix-blend-mode: multiply;isolation: isolate"/>
      <path id="Path_58854-2" data-name="Path 58854" d="M1834.1,1138.858c-6.057-3.52-15.911-3.518-22,0s-6.129,9.226-.072,12.746a18.773,18.773,0,0,0,5.056,1.959v.67h5.556c.249,0,.5,0,.746,0h.366v-.01a22.156,22.156,0,0,0,10.278-2.62C1840.122,1148.084,1840.156,1142.377,1834.1,1138.858Z" transform="translate(-1590.686 -112.947)" fill="url(#linear-gradient-6)" style="mix-blend-mode: multiply;isolation: isolate"/>
      <path id="Path_58855-2" data-name="Path 58855" d="M1807.307,1168.895c3.068-1.771,4.6-4.1,4.594-6.418l-.013-4.492c.006,2.322-1.525,4.647-4.593,6.418-6.1,3.521-15.948,3.521-22,0-3.009-1.749-4.515-4.037-4.522-6.328l.013,4.492c.007,2.291,1.513,4.58,4.522,6.328C1791.359,1172.414,1801.211,1172.414,1807.307,1168.895Z" transform="translate(-1569.451 -130.238)" fill="url(#linear-gradient-7)"/>
      <path id="Path_58856-2" data-name="Path 58856" d="M1807.3,1129.746c6.095-3.518,6.129-9.226.074-12.745s-15.911-3.518-22,0-6.129,9.226-.072,12.746S1801.2,1133.266,1807.3,1129.746Z" transform="translate(-1569.452 -95.587)" fill="#f6f6fb"/>
      <path id="Path_58857-2" data-name="Path 58857" d="M1823.671,1140.622a.877.877,0,0,1,0,1.664,2.865,2.865,0,0,1-1.446.349,2.83,2.83,0,0,1-1.445-.343.974.974,0,0,1-.594-.834,1,1,0,0,1,.6-.835,3.175,3.175,0,0,1,2.882,0Zm1.4-.7-.363-.21a9.738,9.738,0,0,1,1.582-.8,12.141,12.141,0,0,1,1.943-.445,15.438,15.438,0,0,0,2.011-.441,7.512,7.512,0,0,0,1.443-.662q1.19-.687,1.291-1.281a.894.894,0,0,0-.535-.96,2.462,2.462,0,0,0-1.073-.32,1.2,1.2,0,0,0-.663.094.818.818,0,0,0-.278.357,1.871,1.871,0,0,1-1.824,1.151,2.073,2.073,0,0,1-1.044-.262.792.792,0,0,1-.49-.691q.013-.4.6-.737a5.1,5.1,0,0,1,2.769-.543,7.208,7.208,0,0,1,3.351,1.014q1.738,1,1.819,2.007a1.773,1.773,0,0,1-1.093,1.681,5.358,5.358,0,0,1-2.04.638,15.121,15.121,0,0,1-3.408-.122,9.581,9.581,0,0,0-2.237-.076A5.807,5.807,0,0,0,1825.07,1139.923Z" transform="translate(-1600.764 -111.318)" fill="#ced3f8"/>
      <path id="Path_58868-2" data-name="Path 58868" d="M1745.6,832.133a13.059,13.059,0,0,1,4.706-1.215c-.2-.4-.394-.788-.579-1.168Z" transform="translate(-1541.52 130.477)" fill="#f6f6fb"/>
      <path id="Path_58882-2" data-name="Path 58882" d="M2242.993,914.232a1.7,1.7,0,0,1,.6-.393h2.641l1.1-2.415-.995-.154a2.752,2.752,0,0,1-.929-.308.945.945,0,0,1-.553-.818,6.232,6.232,0,0,0,0-.962c-.021-.689.822-1.026,1.463-1.127l1-.155-1.131-2.413h-2.638a2.058,2.058,0,0,1-.251-.12,1.636,1.636,0,0,1-.355-.274,10.847,10.847,0,0,0-.835-.834c-.614-.594-.174-1.13.294-1.4l.726-.422-3.06-1.767-.727.422a3.009,3.009,0,0,1-2.42.175c-.47-.175-.953-.336-1.443-.482a2.481,2.481,0,0,1-.472-.2c-.588-.339-.618-.793-.481-1.1l.264-.575-4.172-.648-.264.576c-.169.373-.748.863-1.938.855q-.832-.023-1.661,0a2.763,2.763,0,0,1-1.417-.316,1.29,1.29,0,0,1-.535-.536l-.268-.577-4.165.648.271.575c.174.373.1.965-.937,1.3q-.735.219-1.438.482a3.024,3.024,0,0,1-2.421-.176l-.732-.423-3.041,1.767.731.422c.472.272.917.809.311,1.4a10.228,10.228,0,0,0-.827.835,2.682,2.682,0,0,1-2.241.548l-1-.154-1.1,2.413,1,.155a2.755,2.755,0,0,1,.929.307.949.949,0,0,1,.554.818,6.034,6.034,0,0,0,0,.96.809.809,0,0,1-.274.623h-6.8v3.074h8.386a1.774,1.774,0,0,1,.248.119,1.6,1.6,0,0,1,.355.273,10.663,10.663,0,0,0,.838.834,1.063,1.063,0,0,1,.242.331h-3.95v3.26h5.975v-.133l.5-.29a3.017,3.017,0,0,1,2.422-.175c.183.068.369.132.557.2v2.809h5.711v-.006l.035.006.264-.576a.78.78,0,0,1,.072-.126v.7h5.747l4.164-.646-.269-.576c-.156-.333-.109-.841.644-1.186h4.884l3.041-1.768-.729-.42c-.472-.273-.918-.811-.312-1.4A10.283,10.283,0,0,0,2242.993,914.232Zm-9.8-1.363a12.267,12.267,0,0,1-11.131,0c-3.084-1.781-3.1-4.669-.037-6.448a12.268,12.268,0,0,1,11.133,0C2236.243,908.2,2236.259,911.089,2233.194,912.87Z" transform="translate(-1905.105 76.068)" fill="url(#linear-gradient-11)" style="mix-blend-mode: multiply;isolation: isolate"/>
      <path id="Path_58883-2" data-name="Path 58883" d="M2268.77,907.727a12.179,12.179,0,0,0-11.055,0c-2.707,1.573-2.99,4.017-.862,5.783a6.367,6.367,0,0,1,.862-.6,12.18,12.18,0,0,1,11.055,0,6.415,6.415,0,0,1,.9.619C2271.809,911.766,2271.507,909.307,2268.77,907.727Z" transform="translate(-1946.497 69.594)" fill="url(#linear-gradient-12)"/>
      <path id="Path_58884-2" data-name="Path 58884" d="M2326.827,876.669a.745.745,0,0,0-.069.309l-.015,5.2a.752.752,0,0,1,.068-.31l.263-.575.015-5.2Z" transform="translate(-2003.141 93.666)" fill="#bbbfe2"/>
      <path id="Path_58885-2" data-name="Path 58885" d="M2258.492,876.669l-.27-.575-.016,5.2.271.575a.761.761,0,0,1,.073.323l.014-5.2A.755.755,0,0,0,2258.492,876.669Z" transform="translate(-1948.691 93.666)" fill="#bbbfe2"/>
      <path id="Path_58886-2" data-name="Path 58886" d="M2363.11,893.679a1.045,1.045,0,0,0-.6.806l-.015,5.2a1.043,1.043,0,0,1,.6-.806l.726-.422.014-5.2Z" transform="translate(-2031.547 80.033)" fill="#bbbfe2"/>
      <path id="Path_58887-2" data-name="Path 58887" d="M2218.573,893.68l-.73-.422-.015,5.2.731.422a1.051,1.051,0,0,1,.606.815l.014-5.2A1.049,1.049,0,0,0,2218.573,893.68Z" transform="translate(-1916.612 80.033)" fill="#ced2f4"/>
      <path id="Path_58888-2" data-name="Path 58888" d="M2378.818,920.005c-.632.1-1.461.428-1.462,1.1l-.016,5.2c0-.671.831-1,1.464-1.1l1-.155.015-5.2Z" transform="translate(-2043.337 58.91)" fill="#bbbfe2"/>
      <path id="Path_58889-2" data-name="Path 58889" d="M2377.386,928.615l-.015,5.2c0,.147-.007.294-.018.441l.016-5.2C2377.38,928.91,2377.386,928.763,2377.386,928.615Z" transform="translate(-2043.348 51.948)" fill="#242d3c"/>
      <path id="Path_58890-2" data-name="Path 58890" d="M2200.238,921.995l0-.86a.948.948,0,0,0-.552-.818,2.785,2.785,0,0,0-.93-.308l-1-.154-.014,5.2,1,.155a2.757,2.757,0,0,1,.929.307,1.017,1.017,0,0,1,.537.658l0,.608c0,.172.006.343.02.513l.015-5.2C2200.239,922.063,2200.241,922.028,2200.238,921.995Z" transform="translate(-1900.659 58.908)" fill="#ced2f4"/>
      <path id="Path_58891-2" data-name="Path 58891" d="M2209.828,930.783l-.015,5.2v-.026l.015-5.2C2209.828,930.765,2209.828,930.774,2209.828,930.783Z" transform="translate(-1910.244 50.248)" fill="#242d3c"/>
      <path id="Path_58892-2" data-name="Path 58892" d="M2385.158,936.992l-.015,5.2-1.1,2.415.014-5.2Z" transform="translate(-2048.659 45.295)" fill="#bbbfe2"/>
      <path id="Path_58893-2" data-name="Path 58893" d="M2198.994,939.409l-.015,5.2-1.129-2.414.015-5.2Z" transform="translate(-1900.74 45.294)" fill="#ced2f4"/>
      <path id="Path_58894-2" data-name="Path 58894" d="M2366.207,947.83a2.677,2.677,0,0,0-2.242.549,10.1,10.1,0,0,1-.827.832.83.83,0,0,0-.293.586l-.014,5.2a.827.827,0,0,1,.293-.586,10.131,10.131,0,0,0,.827-.833,2.676,2.676,0,0,1,2.242-.548l1,.155.014-5.2Z" transform="translate(-2031.81 36.719)" fill="url(#linear-gradient-13)"/>
      <path id="Path_58895-2" data-name="Path 58895" d="M2207.439,949.211a10.442,10.442,0,0,1-.838-.834,1.607,1.607,0,0,0-.355-.272,3.056,3.056,0,0,0-1.894-.275l-.993.155-.015,5.2.994-.155a3.063,3.063,0,0,1,1.894.274,1.641,1.641,0,0,1,.356.273,10.6,10.6,0,0,0,.837.834.835.835,0,0,1,.3.6l.015-5.2A.841.841,0,0,0,2207.439,949.211Z" transform="translate(-1905.105 36.719)" fill="url(#linear-gradient-12)"/>
      <path id="Path_58896-2" data-name="Path 58896" d="M2357.589,963.586l-.015,5.2-3.041,1.768.014-5.2Z" transform="translate(-2025.218 24.172)" fill="#bbbfe2"/>
      <path id="Path_58897-2" data-name="Path 58897" d="M2221.3,965.353l-.015,5.2-3.061-1.768.015-5.2Z" transform="translate(-1916.927 24.172)" fill="#ced2f4"/>
      <path id="Path_58898-2" data-name="Path 58898" d="M2332.165,968.789a3.019,3.019,0,0,0-2.421-.173c-.467.173-.947.334-1.438.481-.77.25-1.01.641-1.01.979l-.014,5.2c0-.337.241-.729,1.01-.979.491-.146.97-.308,1.438-.482a3.02,3.02,0,0,1,2.42.173l.732.423.015-5.2Z" transform="translate(-2003.568 20.313)" fill="url(#linear-gradient-15)"/>
      <path id="Path_58899-2" data-name="Path 58899" d="M2238.194,969.3a2.558,2.558,0,0,0-.475-.2q-.737-.219-1.442-.482a3.017,3.017,0,0,0-2.421.175l-.726.423-.015,5.2.727-.422a3.014,3.014,0,0,1,2.421-.175q.705.262,1.441.482a2.4,2.4,0,0,1,.475.205.922.922,0,0,1,.548.788l.015-5.2A.924.924,0,0,0,2238.194,969.3Z" transform="translate(-1928.756 20.317)" fill="url(#linear-gradient-12)"/>
      <path id="Path_58900-2" data-name="Path 58900" d="M2312.865,980.758l-.015,5.2-4.164.646.015-5.2Z" transform="translate(-1988.794 10.53)" fill="#bbbfe2"/>
      <path id="Path_58901-2" data-name="Path 58901" d="M2284.922,977.795a1.273,1.273,0,0,0-.534-.537,2.767,2.767,0,0,0-1.417-.315c-.55.014-1.106.014-1.659,0-1.189-.008-1.768.483-1.938.854l-.264.576-.014,5.2.263-.576c.171-.372.75-.862,1.938-.855.554.015,1.108.015,1.66,0a2.763,2.763,0,0,1,1.417.316,1.276,1.276,0,0,1,.534.537l.27.576.015-5.2Z" transform="translate(-1965.287 13.563)" fill="url(#linear-gradient-12)"/>
      <path id="Path_58902-2" data-name="Path 58902" d="M2232.356,891.152l.73.421-3.041,1.767-.732-.423a3.02,3.02,0,0,0-2.421-.173c-.467.173-.947.334-1.437.481-1.035.337-1.113.929-.938,1.3l.271.576-4.165.646-.271-.576a1.276,1.276,0,0,0-.534-.537,2.765,2.765,0,0,0-1.417-.315c-.551.014-1.106.014-1.659,0-1.189-.008-1.767.483-1.939.854l-.263.576-4.172-.646.264-.577c.139-.3.107-.756-.48-1.1a2.552,2.552,0,0,0-.475-.2c-.491-.146-.971-.307-1.441-.482a3.016,3.016,0,0,0-2.421.175l-.726.423-3.06-1.767.726-.422c.468-.272.908-.808.295-1.4a10.573,10.573,0,0,1-.837-.834,1.653,1.653,0,0,0-.355-.273,3.067,3.067,0,0,0-1.895-.274l-.993.155-1.129-2.414.994-.154c.641-.1,1.484-.437,1.465-1.128a6.15,6.15,0,0,1,0-.96.947.947,0,0,0-.552-.818,2.782,2.782,0,0,0-.93-.308l-1-.154,1.1-2.414,1,.155a2.687,2.687,0,0,0,2.24-.548,10.5,10.5,0,0,1,.827-.835c.606-.593.16-1.13-.312-1.4l-.73-.422,3.041-1.767.732.422a3.026,3.026,0,0,0,2.421.175q.7-.262,1.438-.482c1.035-.337,1.112-.93.938-1.3l-.27-.575,4.164-.648.268.577a1.294,1.294,0,0,0,.535.536,2.762,2.762,0,0,0,1.417.316c.55-.013,1.106-.013,1.66,0,1.189.009,1.77-.482,1.938-.853l.263-.577,4.172.648-.263.575c-.138.3-.108.757.479,1.1a2.542,2.542,0,0,0,.473.2q.736.219,1.443.482a3.015,3.015,0,0,0,2.42-.176l.726-.423,3.061,1.768-.726.421c-.469.273-.908.81-.294,1.4a10.9,10.9,0,0,1,.834.833,1.647,1.647,0,0,0,.355.275,3.07,3.07,0,0,0,1.9.273l.993-.154,1.131,2.413-1,.155c-.64.1-1.484.437-1.461,1.127a6.383,6.383,0,0,1,0,.961.942.942,0,0,0,.552.818,2.76,2.76,0,0,0,.93.308l.995.154-1.1,2.415-1-.155a2.676,2.676,0,0,0-2.242.549,10.214,10.214,0,0,1-.827.832C2231.438,890.342,2231.883,890.878,2232.356,891.152Zm-20.416-3.6a12.272,12.272,0,0,0,11.131,0c3.064-1.782,3.048-4.668-.035-6.448a12.269,12.269,0,0,0-11.133,0c-3.061,1.78-3.047,4.669.037,6.449Z" transform="translate(-1900.715 96.178)" fill="#f0f0f5"/>
      <path id="Path_58903-2" data-name="Path 58903" d="M2262.985,981.4l-.015,5.2-4.172-.646.014-5.2Z" transform="translate(-1949.162 10.53)" fill="#ced2f4"/>
      <path id="Path_58904-2" data-name="Path 58904" d="M2258.484,901.115c-4.34-2.506-11.355-2.507-15.669,0-2.053,1.193-3.121,2.741-3.211,4.3.084,1.583,1.17,3.154,3.262,4.361,4.341,2.506,11.356,2.5,15.666,0,2.057-1.195,3.125-2.742,3.214-4.305C2261.661,903.891,2260.576,902.323,2258.484,901.115Zm-2.265,7.328a12.187,12.187,0,0,1-11.054,0,3.108,3.108,0,0,1-.035-5.992,12.183,12.183,0,0,1,11.055,0,3.108,3.108,0,0,1,.035,5.991Z" transform="translate(-1933.912 75.288)" fill="#e0e0eb"/>
      <path id="Path_58905-2" data-name="Path 58905" d="M2242.794,899.5c4.314-2.507,11.329-2.506,15.669,0,2.09,1.207,3.176,2.774,3.261,4.355.1-1.719-.988-3.459-3.261-4.772-4.34-2.506-11.355-2.507-15.669,0-2.235,1.3-3.3,3.017-3.211,4.719C2239.674,902.24,2240.741,900.695,2242.794,899.5Z" transform="translate(-1933.891 76.899)" fill="url(#linear-gradient-12)"/>
      <path id="Path_58969-2" data-name="Path 58969" d="M1625.427,1266.775h-11.659l-2.23,2.974h13.89Z" transform="translate(-1435.029 -216.643)" fill="url(#linear-gradient-21)" style="mix-blend-mode: multiply;isolation: isolate"/>
      <path id="Path_58970-2" data-name="Path 58970" d="M1600.087,1265.928c.841.254.906,1.674.36,2.487a3.339,3.339,0,0,1-1.018.455,26.468,26.468,0,0,1-3.483.722c-.619-.03-1.945-.44-1.917-1.5.188-.622.775-.928,1.485-1.232.925-.395,1.73-.834,2.466-1.082A5.825,5.825,0,0,1,1600.087,1265.928Z" transform="translate(-1421.123 -215.799)" fill="url(#linear-gradient-22)"/>
      <path id="Path_58971-2" data-name="Path 58971" d="M1596,1278.277a27.331,27.331,0,0,0,3.585-.742,3.649,3.649,0,0,0,1.015-.446,1.937,1.937,0,0,1-.155.287,3.337,3.337,0,0,1-1.018.455,26.488,26.488,0,0,1-3.483.722c-.619-.03-1.945-.44-1.917-1.5.007-.02.017-.038.024-.059C1594.227,1277.892,1595.42,1278.248,1596,1278.277Z" transform="translate(-1421.123 -224.761)" fill="#131147"/>
      <path id="Path_58972-2" data-name="Path 58972" d="M1611.636,1261.078a15.292,15.292,0,0,1,1.746.929.842.842,0,0,0,.016.412c.009.02.016.041.025.062.224.283.438.762-.383.905-1.594.278-2.762-.922-2.115-1.188C1611.36,1262.021,1611.54,1261.4,1611.636,1261.078Z" transform="translate(-1434.402 -212.116)" fill="#ffd3ab"/>
      <path id="Path_58973-2" data-name="Path 58973" d="M1610.355,1266.164a.53.53,0,0,1,.85-.064,1.127,1.127,0,0,1,.394,1.187c-.1.341-1.076-.051-1.107-.108S1610.355,1266.164,1610.355,1266.164Z" transform="translate(-1434.093 -215.955)" fill="#423eaf"/>
      <path id="Path_58974-2" data-name="Path 58974" d="M1607.179,1267.186a2.063,2.063,0,0,1,.794,1.009.278.278,0,0,0,.529-.171,2.61,2.61,0,0,0-1.041-1.317.278.278,0,0,0-.283.479Z" transform="translate(-1431.463 -216.557)" fill="#fff"/>
      <path id="Path_58975-2" data-name="Path 58975" d="M1602.7,1269.273a2.067,2.067,0,0,1,.793,1.008.278.278,0,0,0,.529-.169,2.611,2.611,0,0,0-1.04-1.318.278.278,0,1,0-.283.479Z" transform="translate(-1427.903 -218.216)" fill="#fff"/>
      <path id="Path_58976-2" data-name="Path 58976" d="M1614.969,1125.675c-1.73,9.868-1.278,20.654-1.767,28.082-.1.915,2.053,1.266,2.53.641a55.39,55.39,0,0,0,2.143-13.7,95.889,95.889,0,0,0,3.4-14.715C1620.123,1126.352,1616.116,1125.31,1614.969,1125.675Z" transform="translate(-1436.349 -104.482)" fill="url(#linear-gradient-23)"/>
      <path id="Path_58977-2" data-name="Path 58977" d="M1704.492,1216.116c-.152,1.235-.05,3.752.893,3.725,1.309-.036,1.755-1.063,1.892-2.852s.393-3.766-.664-3.988a2.919,2.919,0,0,0-1.927.3S1704.643,1214.88,1704.492,1216.116Z" transform="translate(-1508.824 -173.878)" fill="url(#linear-gradient-24)"/>
      <path id="Path_58978-2" data-name="Path 58978" d="M1711.152,1213.347c-.077-.015-.149-.021-.224-.029.979.29.733,2.22.6,3.967-.131,1.714-.556,2.719-1.743,2.832a.462.462,0,0,0,.147.021c1.3-.036,1.743-1.056,1.878-2.83S1712.2,1213.568,1711.152,1213.347Z" transform="translate(-1513.075 -174.173)" fill="#131147"/>
      <path id="Path_58979-2" data-name="Path 58979" d="M1703.714,1227.3c.5.033,1.58.063,1.627.065a.264.264,0,0,0,.014-.527c-.011,0-1.119-.03-1.607-.063a.263.263,0,1,0-.034.526Z" transform="translate(-1508.057 -184.863)" fill="#fff"/>
      <path id="Path_58980-2" data-name="Path 58980" d="M1703.377,1232.84a6.722,6.722,0,0,0,1.734.074.263.263,0,1,0-.02-.526,6.2,6.2,0,0,1-1.625-.067.263.263,0,0,0-.089.519Z" transform="translate(-1507.811 -189.267)" fill="#fff"/>
      <path id="Path_58981-2" data-name="Path 58981" d="M1706.549,1215.055a.863.863,0,0,1,.687,1.134c-.146.571-.632,1.153-1.368.834C1704.82,1216.569,1706.549,1215.055,1706.549,1215.055Z" transform="translate(-1509.695 -175.554)" fill="#ffd3ab"/>
      <path id="Path_58982-2" data-name="Path 58982" d="M1652.228,1143.567c-.893-.708-5.745-3.1-5.745-3.1s-.758-6.579-1.3-8.981c0-2.162-.005-4.325-.914-5.888l-5.031.859-2.224.863s3.724,11.382,4.924,14.32a5.752,5.752,0,0,0,2.232,2.809,42.553,42.553,0,0,0,7.11,1.572C1652.587,1146.181,1652.991,1144.33,1652.228,1143.567Z" transform="translate(-1455.266 -104.508)" fill="url(#linear-gradient-49)"/>
      <path id="Path_58983-2" data-name="Path 58983" d="M1593.432,1004.794a9.4,9.4,0,0,1-2.164-1.851c-.71-.85-1.932-6.287-2.265-8.231a2.245,2.245,0,0,0-1.489.6c.47,2.513-.581,6.994,1.51,10.44a30.561,30.561,0,0,0,2.75,2.347C1591.841,1006.316,1592.45,1005.322,1593.432,1004.794Z" transform="translate(-1415.949 -0.55)" fill="#ffd3ab"/>
      <path id="Path_58984-2" data-name="Path 58984" d="M1612.217,1044.388c-.756-.4-2.341-1.207-3.7-2.012a4.34,4.34,0,0,0-2.015,3.661,34.842,34.842,0,0,0,4.7,3.559S1612.282,1044.917,1612.217,1044.388Z" transform="translate(-1431.033 -38.412)" fill="url(#linear-gradient-26)"/>
      <path id="Path_58985-2" data-name="Path 58985" d="M1628.711,1052.775a25.125,25.125,0,0,0-4.732-1.7c-3.094-.92-4.23-.1-4.69,1.825-1.166,4.866-.472,10.856-.473,13.008,0,.993.671,1.672,2.2,2.242a12.29,12.29,0,0,0,7.856-.14c1.045-.389,1.719-.961,1.7-1.143C1630.311,1064.386,1629.688,1053.318,1628.711,1052.775Z" transform="translate(-1440.65 -45.022)" fill="url(#linear-gradient-26)"/>
      <path id="Path_58986-2" data-name="Path 58986" d="M1657.956,1063.756c.787-.365,3.214-2.039,3.214-2.039a5.416,5.416,0,0,0-3.826-3.789C1654.932,1059.833,1657.292,1063.324,1657.956,1063.756Z" transform="translate(-1470.574 -50.767)" fill="url(#linear-gradient-26)"/>
      <path id="Path_58987-2" data-name="Path 58987" d="M1635.184,1033.967c.282-.8-2.942.219-3.078,1.33-.11.9.192,1.918-1.052,2.086-.364.175-1.812,1.648-.2,2.04,2.309.561,3.073.067,5.077-.981C1635.113,1037.947,1634.27,1036.56,1635.184,1033.967Z" transform="translate(-1449.784 -31.507)" fill="#ffd3ab"/>
      <path id="Path_58988-2" data-name="Path 58988" d="M1630.32,1058.068s.424-.408.744-.317.3.623.18.856A.649.649,0,0,1,1630.32,1058.068Z" transform="translate(-1449.952 -50.618)" fill="#20196f"/>
      <path id="Path_58989-2" data-name="Path 58989" d="M1627.09,1059.971a19.482,19.482,0,0,0,1.259,14.849l.989.384.411-1.33a19.618,19.618,0,0,1-2.149-13.586C1627.449,1060.178,1627.09,1059.971,1627.09,1059.971Z" transform="translate(-1446.646 -52.385)" fill="#20196f"/>
      <path id="Path_58990-2" data-name="Path 58990" d="M1633.124,1021.688l-.779-1.888-5.02-1.157-.7,3.021a2.875,2.875,0,0,0,1.813,3.6,2.815,2.815,0,0,0,3.285-2.1l.658-.071Z" transform="translate(-1446.943 -19.562)" fill="#ffd3ab"/>
      <path id="Path_58991-2" data-name="Path 58991" d="M1634.7,1043.633c1.373.135,2.873-1.366,3.1-2.993a2.821,2.821,0,0,1-3.038,2.131,1.454,1.454,0,0,1-.476.14.876.876,0,0,0-.1.065C1634.128,1043.219,1634.478,1043.611,1634.7,1043.633Z" transform="translate(-1453.016 -37.036)" fill="#f4c59f"/>
      <path id="Path_58992-2" data-name="Path 58992" d="M1627.684,1008.8c-.441-.185-.394-.578,1.615-.793a4.113,4.113,0,0,1,3.624.751,3.328,3.328,0,0,1,.681,3.937,8.633,8.633,0,0,1-1.649,2.548c-.183.115-.307-.432-.067-.928a1.012,1.012,0,0,0,.279-.408c.716-1.477-.292-1.464-.453-1.363-.322.053-.05,1.476-.884,1.148-.4-.158-.077-1.31.018-1.72a1.881,1.881,0,0,0-.2.007c-.8.232-3.289-.039-1.753-.569-.936-.216-2.311-.078-2.605-.772C1625.944,1009.817,1626.942,1009.235,1627.684,1008.8Z" transform="translate(-1446.695 -11.02)" fill="#20196f"/>
      <path id="Path_58993-2" data-name="Path 58993" d="M1633.87,1054.067a1.583,1.583,0,0,1-.018,1.069,5.587,5.587,0,0,0,5.055-1.267c.037-.161-.656-.769-.656-.769A5.015,5.015,0,0,1,1633.87,1054.067Z" transform="translate(-1452.757 -46.934)" fill="#ced3f8"/>
      <path id="Path_58994-2" data-name="Path 58994" d="M1630.643,1052.567a1.333,1.333,0,0,0-.827.425,1.6,1.6,0,0,1,.79-1.643,1.164,1.164,0,0,1,.578-.136A1.4,1.4,0,0,0,1630.643,1052.567Z" transform="translate(-1449.531 -45.434)" fill="#ced3f8"/>
      <path id="Path_58995-2" data-name="Path 58995" d="M1584.7,974.419a1.058,1.058,0,0,1,1.049-1.142c.363,0,.932.676.956,1s.011,1.025,0,1.153c.187-.1.524-.209.524-.1a7.655,7.655,0,0,0-.42.967,6.142,6.142,0,0,1-.116,1.61c-.163.255-.42.32-.944.223a1.484,1.484,0,0,1-1.049-1.425C1584.678,975.986,1584.7,974.419,1584.7,974.419Z" transform="translate(-1413.704 16.472)" fill="#f4c59f"/>
      <path id="Path_58996-2" data-name="Path 58996" d="M1670.793,1082.763a32.762,32.762,0,0,0-2.417-6.093c-.513.351-2.131,1.446-2.907,1.866,1.254,2.458,2.155,3.688,2.819,5.247a42.2,42.2,0,0,1-2.638,5.588c-.438.478.826,1.623,1.525.792a20.391,20.391,0,0,0,2.986-4.1A4.494,4.494,0,0,0,1670.793,1082.763Z" transform="translate(-1477.872 -65.65)" fill="#ffd3ab"/>
      <path id="Path_58997-2" data-name="Path 58997" d="M1655.451,1138.457c-.286.286-.931.217-1.333.3s-1.127.454-1.049.542.952-.183,1.066,0-1.667,1.7-1.494,2.054a1.4,1.4,0,0,0,1.854.77c1.116-.438,2.115-2.148,2.479-2.879A4.718,4.718,0,0,0,1655.451,1138.457Z" transform="translate(-1467.673 -114.733)" fill="#ffd3ab"/>
      <path id="Path_58998-2" data-name="Path 58998" d="M1530.973,1257.323v-5.817h-19.939l-.969,2.9h6.009l-.957,2.917Z" transform="translate(-1348.052 -212.116)" fill="url(#linear-gradient-29)" style="mix-blend-mode: multiply;isolation: isolate"/>
      <path id="Path_58999-2" data-name="Path 58999" d="M1500.787,1247.541c0-2.51,1.589-2.581,1.589-2.581a6.557,6.557,0,0,0,2.26-.581c1.38-.572,3.325-.351,2.238,1.655a.7.7,0,0,1-.037.074.986.986,0,0,1-.353.309l-3.474,2.037C1502.48,1248.756,1500.8,1248.057,1500.787,1247.541Z" transform="translate(-1347.058 -198.631)" fill="url(#linear-gradient-30)"/>
      <path id="Path_59000-2" data-name="Path 59000" d="M1500.809,1253.957c.03.516,1.689,1.2,2.214.9l3.474-2.037a3.207,3.207,0,0,0,.489-.356c-.031.068-.06.133-.1.21a.672.672,0,0,1-.037.074.986.986,0,0,1-.353.309l-3.474,2.038a2.352,2.352,0,0,1-2.2-.813.556.556,0,0,1-.016-.1A1.677,1.677,0,0,1,1500.809,1253.957Z" transform="translate(-1347.071 -205.275)" fill="#131147"/>
      <path id="Path_59001-2" data-name="Path 59001" d="M1504.276,1245.584a9.351,9.351,0,0,1,1.686.4.875.875,0,0,0,.14.408.428.428,0,0,1,.044.055c.311.214.626.557-.11,1.018a1.023,1.023,0,0,1-1.327-.094,1.218,1.218,0,0,0-.428-.485,1.087,1.087,0,0,0-.411-.173.335.335,0,0,0,0-.038S1504.089,1245.584,1504.276,1245.584Z" transform="translate(-1349.505 -199.807)" fill="#facfa7"/>
      <path id="Path_59002-2" data-name="Path 59002" d="M1504.172,1118.559c1.717.031,4.782.36,6.5.391-.64,5.158-.968,8.9-1.827,13.9-.921,4.853-1.958,8.265-2.864,12.306-.332.753-1.631.547-1.939-.176.343-4.7-.43-8.333.674-12.625-.1-2.436.282-5.4-.11-6.5A13.325,13.325,0,0,1,1504.172,1118.559Z" transform="translate(-1349.499 -98.892)" fill="url(#linear-gradient-31)"/>
      <path id="Path_59003-2" data-name="Path 59003" d="M1525.369,1261.733c0-2.509,1.589-2.58,1.589-2.58a6.554,6.554,0,0,0,2.26-.582c1.38-.572,3.325-.352,2.238,1.655a.71.71,0,0,1-.037.073.976.976,0,0,1-.353.309l-3.474,2.037C1527.062,1262.948,1525.38,1262.249,1525.369,1261.733Z" transform="translate(-1366.584 -209.906)" fill="url(#linear-gradient-32)"/>
      <path id="Path_59004-2" data-name="Path 59004" d="M1525.391,1268.15c.03.516,1.689,1.2,2.214.9l3.474-2.036a3.267,3.267,0,0,0,.489-.356c-.031.068-.059.133-.1.21a.705.705,0,0,1-.037.073.983.983,0,0,1-.353.309l-3.474,2.037a2.35,2.35,0,0,1-2.2-.813.515.515,0,0,1-.016-.1A1.662,1.662,0,0,1,1525.391,1268.15Z" transform="translate(-1366.597 -216.55)" fill="#131147"/>
      <path id="Path_59005-2" data-name="Path 59005" d="M1528.712,1259.775a11.871,11.871,0,0,1,1.83.4.879.879,0,0,0,.139.408.473.473,0,0,1,.045.055c.311.214.626.557-.11,1.019a1.024,1.024,0,0,1-1.327-.094,1.208,1.208,0,0,0-.428-.486,1.074,1.074,0,0,0-.411-.173.319.319,0,0,0,0-.038S1528.525,1259.775,1528.712,1259.775Z" transform="translate(-1369.03 -211.08)" fill="#facfa7"/>
      <path id="Path_59006-2" data-name="Path 59006" d="M1516.49,1130.84c1.717.031,5.769.438,7.484.469a34.751,34.751,0,0,1-.069,14.213c-.921,4.854-1.958,8.265-2.864,12.307-.332.753-1.743.467-2.05-.256.227-4.189-.318-8.254.785-12.546a52.166,52.166,0,0,0-.9-7.163C1518.279,1136.242,1516.177,1134.323,1516.49,1130.84Z" transform="translate(-1359.506 -108.648)" fill="url(#linear-gradient-33)"/>
      <path id="Path_59007-2" data-name="Path 59007" d="M1581.572,978.707a5.4,5.4,0,0,1-.381-1.355c-.049-.832-.39-1.306-.3-1.4s.445.074.445.074c-.015-.163-.13-1.174.09-1.416.142-.157.5-.544.866-.454a1.536,1.536,0,0,1,1,.869,17.267,17.267,0,0,1,0,3.617,3.716,3.716,0,0,0-.356.89l-1.364-.193A1.043,1.043,0,0,0,1581.572,978.707Z" transform="translate(-1410.675 15.781)" fill="#facfa7"/>
      <path id="Path_59008-2" data-name="Path 59008" d="M1498.185,1044.949c-.985.949-2.225,3.877-2.541,7.048a10.172,10.172,0,0,0,1.5,7.034C1499,1056.588,1498.185,1044.949,1498.185,1044.949Z" transform="translate(-1342.912 -40.453)" fill="#ec691f"/>
      <path id="Path_59009-2" data-name="Path 59009" d="M1518.938,996.953c-.3.573-2.168,5.868-2.633,6.38-1.031,1.133-2.838,3.1-5.366,3.568a4.213,4.213,0,0,1-.953.059,4.385,4.385,0,0,1-1.063-.633,8.076,8.076,0,0,0-2.562-1.689c-5.029-1.026-4.378,7.832-3.958,17.383.389,2.541.93,2.809,1.857,3.354,2.246,1.2,7.312,2.241,8.624-.3a26.284,26.284,0,0,1-1.769-8.118c-.039-1.569,1.055-2.818,1.423-4.576a5.547,5.547,0,0,0-.25-1.134,16.674,16.674,0,0,0,6.422-6.4,43.686,43.686,0,0,0,1.8-7.2A1.23,1.23,0,0,0,1518.938,996.953Z" transform="translate(-1348.116 -2.262)" fill="#ff975d"/>
      <path id="Path_59010-2" data-name="Path 59010" d="M1500.648,1002.413c-.4-1.518-1.929-3.972-4.671-3.382-2.649.57-3.275,2.285-3.215,4.957.038,1.7-.685,1.519-.995,2.7-.188.72.357,1.705-.2,2.726a2.676,2.676,0,0,1-1.441,1.271c-2,.837-.692,1.818.489,2.078,2.869.631,1.686-.724,2.915-.973.723-.146,2.047.543,2.723.2,1.331-.684.847-1.421,1.471-2.106.659-.722,1.389-.569,2.284-1.655a2.639,2.639,0,0,0,.419-3.006C1500.075,1004.414,1500.962,1003.593,1500.648,1002.413Z" transform="translate(-1337.763 -3.909)" fill="#20196f"/>
      <path id="Path_59011-2" data-name="Path 59011" d="M1540.51,1073.446c.693,1.346,1.439,6.566,1.373,8.358a2.571,2.571,0,0,0,1.28-1.162,26.27,26.27,0,0,1-1.768-8.118c-.039-1.569,1.055-2.818,1.422-4.576a5.548,5.548,0,0,0-.25-1.134,6.738,6.738,0,0,0-1.708,2.172C1540.626,1069.678,1539.818,1072.1,1540.51,1073.446Z" transform="translate(-1378.394 -57.821)" fill="url(#linear-gradient-34)" style="mix-blend-mode: multiply;isolation: isolate"/>
      <path id="Path_95988" data-name="Path 95988" d="M2118.961,1220.665l7.21-4.165v-8.454l-7.21,4.163Z" transform="translate(-1992.682 -196.578)" fill="#ffac7e"/>
      <path id="Path_95989" data-name="Path 95989" d="M2091.087,1220.665l-7.211-4.165v-8.454l7.211,4.163Z" transform="translate(-1964.812 -196.578)" fill="#ffc7a8"/>
      <g id="Group_20783" data-name="Group 20783" transform="translate(274.265 1022.922)">
        <path id="Path_58960-2" data-name="Path 58960" d="M2091.087,1196.122l-7.211-4.163,7.211-4.162,7.21,4.162Z" transform="translate(-2083.871 -1176.614)" fill="#fbd1b9"/>
        <path id="Path_58961-2" data-name="Path 58961" d="M2118.961,1166.407l7.21-4.163v-8.455l-7.21,4.164Z" transform="translate(-2111.745 -1149.623)" fill="#423eaf"/>
        <path id="Path_58962-2" data-name="Path 58962" d="M2091.087,1166.407l-7.211-4.163v-8.455l7.211,4.164Z" transform="translate(-2083.875 -1149.623)" fill="#5652cc"/>
        <path id="Path_58963-2" data-name="Path 58963" d="M2091.087,1141.868l-7.211-4.163,7.211-4.162,7.21,4.162Z" transform="translate(-2083.871 -1133.543)" fill="#807cfb"/>
      </g>
      <path id="Path_95996" data-name="Path 95996" d="M2118.961,1166.407l7.21-4.163v-8.455l-7.21,4.164Z" transform="translate(-1917.872 -270.737)" fill="#423eaf"/>
      <path id="Path_95995" data-name="Path 95995" d="M2091.087,1166.407l-7.211-4.163v-8.455l7.211,4.164Z" transform="translate(-1890.002 -270.737)" fill="#5652cc"/>
      <path id="Path_95994" data-name="Path 95994" d="M2091.087,1141.868l-7.211-4.163,7.211-4.162,7.21,4.162Z" transform="translate(-1889.999 -254.658)" fill="#807cfb"/>
    </g>
  </g>
</svg>
