<svg xmlns="http://www.w3.org/2000/svg" xmlns:xlink="http://www.w3.org/1999/xlink" width="2002.301" height="472.9" viewBox="0 0 2002.301 472.9">
  <defs>
    <clipPath id="clip-path">
      <path id="Path_1757" data-name="Path 1757" d="M-82.2,543.8H1920.1v472.9H-82.2Z"/>
    </clipPath>
    <linearGradient id="linear-gradient" y1="0.5" x2="1" y2="0.5" gradientUnits="objectBoundingBox">
      <stop offset="0" stop-color="#f98d29"/>
      <stop offset="1" stop-color="#dc5902"/>
    </linearGradient>
    <linearGradient id="linear-gradient-2" y1="0.5" x2="1" y2="0.5" gradientUnits="objectBoundingBox">
      <stop offset="0" stop-color="#ffc17b"/>
      <stop offset="1" stop-color="#ff8836"/>
    </linearGradient>
  </defs>
  <g id="hero-area11" transform="translate(82.2 -543.8)">
    <g id="Group_778" data-name="Group 778" clip-path="url(#clip-path)">
      <path id="Path_1756" data-name="Path 1756" d="M570.2,870.9c129.2-102.3,299.6-137,464.1-145.7,164.6-8.7,330.3,5.4,494-13.8a1224.34,1224.34,0,0,0,366.6-102.6c16.8-7.7,37.2-15.6,52.8-5.6,17,10.9,16.7,35.5,14.3,55.6-8,68.4-19.7,144-73.3,187.2-32.6,26.2-75.2,35.6-116.3,43.5a3560.326,3560.326,0,0,1-864.6,57.9c-116.1-6.6-235.8-19.9-337.6-76.5Z" fill="url(#linear-gradient)"/>
    </g>
    <g id="Group_779" data-name="Group 779" clip-path="url(#clip-path)">
      <path id="Path_1758" data-name="Path 1758" d="M1245.5,845.7c212.2-21.9,411.9-126,625.1-129.2,37.4-.6,77.2,2.8,107.4,25,48.3,35.5,54.7,103.9,56.8,163.8,1.5,42.5,1.2,90-28.1,120.9-28.6,30.1-74.7,33.6-116.2,34.3-309.3,5.4-618.3-33.3-927.5-24.6-287.6,8.1-599.8,81.8-875.7.4C162,924.8,310.5,835.6,443,813.5s268-7.2,401.2,9.9c133.2,17,267.7,36.1,401.3,22.3Z" fill="url(#linear-gradient-2)"/>
    </g>
  </g>
</svg>
