<svg xmlns="http://www.w3.org/2000/svg" width="512" height="512" viewBox="0 0 512 512">
  <g id="ic_average_fleet_score" transform="translate(-6290 -3788)">
    <g id="Ellipse_425" data-name="Ellipse 425" transform="translate(6290 3788)" fill="none" stroke="#0d1b3a" stroke-linecap="round" stroke-linejoin="round" stroke-width="12">
      <circle cx="256" cy="256" r="256" stroke="none"/>
      <circle cx="256" cy="256" r="250" fill="none"/>
    </g>
    <g id="Group_70" data-name="Group 70" transform="translate(2263.639 3328.64)">
      <path id="Path_81" data-name="Path 81" d="M327.794,24.055c-29.023,1.243-53.28,24.532-55.6,53.484a58.324,58.324,0,0,0,49.186,62.416v-17.2a8.978,8.978,0,1,1,17.956,0v17.2a58.324,58.324,0,0,0-11.54-115.9Zm0,0" transform="translate(4023.626 565.467)" fill="none" stroke="#ea5c10" stroke-width="3"/>
      <path id="Path_82" data-name="Path 82" d="M391.247,229.868a13.389,13.389,0,0,0-5.011.989,13.35,13.35,0,0,0-17.956-8.978,13.44,13.44,0,0,0-12.945-9.966,13.281,13.281,0,0,0-4.489.826V189.467a13.467,13.467,0,1,0-26.934,0v96.864a6.29,6.29,0,0,1-1.679-3.255l-5.911-32.506A14.276,14.276,0,0,0,288,253.121v2.867a14.859,14.859,0,0,0,.193,2.348l8.079,48.456a22.515,22.515,0,0,0,4.607,10.328l11.1,13.875a13.524,13.524,0,0,1,2.955,8.417v16.148h71.824V339.412a13.515,13.515,0,0,1,2.955-8.417l10.08-12.608a22.536,22.536,0,0,0,4.921-14.015V243.335a13.484,13.484,0,0,0-13.467-13.467Zm4.489,74.5a13.515,13.515,0,0,1-2.955,8.417L382.7,325.4a22.536,22.536,0,0,0-4.921,14.015v7.17H323.912v-7.17a22.569,22.569,0,0,0-4.921-14.024l-11.1-13.875a13.472,13.472,0,0,1-2.762-6.2l-8.079-48.445a5.6,5.6,0,0,1-.068-.881v-2.867a5.3,5.3,0,0,1,10.512-.943l5.909,32.5a15.238,15.238,0,0,0,15,12.52h4.489V189.467a4.489,4.489,0,1,1,8.978,0V261.29h8.978V225.379a4.489,4.489,0,0,1,8.978,0V261.29H368.8V234.357a4.489,4.489,0,0,1,8.978,0V261.29h8.978V243.335a4.489,4.489,0,0,1,8.978,0Zm0,0" transform="translate(4016.603 498.758)" fill="#011131"/>
      <path id="Path_83" data-name="Path 83" d="M406.081,40.671l-6.545-6.159L330.89,107.458l-10.2-10.194-6.348,6.348,16.735,16.739Zm0,0" transform="translate(4005.042 560.854)" fill="#011131"/>
      <path id="Path_84" data-name="Path 84" d="M112.225,0h-80.8A31.461,31.461,0,0,0,0,31.423V246.894a31.461,31.461,0,0,0,31.423,31.423h80.8a31.461,31.461,0,0,0,31.423-31.423V31.423A31.461,31.461,0,0,0,112.225,0Zm22.445,246.894a22.471,22.471,0,0,1-22.445,22.445h-80.8A22.471,22.471,0,0,1,8.978,246.894V31.423A22.471,22.471,0,0,1,31.423,8.978h80.8a22.471,22.471,0,0,1,22.445,22.445Zm0,0" transform="translate(4143 576)" fill="#011131"/>
      <g id="Group_69" data-name="Group 69" transform="translate(4178.912 602.934)">
        <path id="Path_85" data-name="Path 85" d="M99.912,192l11.1,22.167,24.814,3.551-17.956,17.257,4.237,24.361-22.193-11.5-22.193,11.5,4.237-24.361L64,217.717l24.814-3.551Zm0,0" transform="translate(-64 -111.198)" fill="#ea5c10"/>
        <path id="Path_86" data-name="Path 86" d="M103.423,344l9.71,19.208,21.713,3.084-15.711,14.953,3.709,21.112-19.42-9.971L84,402.357l3.709-21.112L72,366.291l21.713-3.084Zm0,0" transform="translate(-67.511 -177.908)" fill="#ea5c10"/>
        <path id="Path_87" data-name="Path 87" d="M103.423,48l9.71,19.208,21.713,3.084L119.134,85.245l3.709,21.112-19.42-9.971L84,106.357l3.709-21.112L72,70.292l21.713-3.084Zm0,0" transform="translate(-67.511 -48)" fill="#ea5c10"/>
      </g>
    </g>
  </g>
</svg>
