<svg xmlns="http://www.w3.org/2000/svg" width="512" height="512" viewBox="0 0 512 512">
  <g id="Group_18153" data-name="Group 18153" transform="translate(-11375 -6680)">
    <g id="Ellipse_817" data-name="Ellipse 817" transform="translate(11375 6680)" fill="none" stroke="#0d1b3a" stroke-width="12">
      <circle cx="256" cy="256" r="256" stroke="none"/>
      <circle cx="256" cy="256" r="250" fill="none"/>
    </g>
    <g id="Group_18152" data-name="Group 18152" transform="translate(-234.148 149.698)">
      <path id="Path_88680" data-name="Path 88680" d="M20880.232,9351.891a21.334,21.334,0,0,1-11.328-11.316,21.971,21.971,0,0,1-.953-2.765l-.066-.259h-16.355a16.391,16.391,0,0,1-16.4-16.4v-37.338h-42.217a16.391,16.391,0,0,1-16.4-16.393V9195.2h-21.629v116.288l.268.059a20.651,20.651,0,0,1,3.48,1.133,21.283,21.283,0,1,1-16.568,0,20.168,20.168,0,0,1,2.1-.764l.246-.078V9195.2h-21.627v61.758a16.4,16.4,0,0,1-16.4,16.4h-42.217v47.8a16.4,16.4,0,0,1-16.4,16.4h-16.355l-.07.257a21.251,21.251,0,0,1-5.512,9.521,21.256,21.256,0,1,1,5.7-19.82l.063.27h16.176a5.94,5.94,0,0,0,5.934-5.932v-48.5h-11.723l-.062.269a21.338,21.338,0,0,1-1.082,3.27,21.609,21.609,0,1,1,0-16.842,21.129,21.129,0,0,1,1.082,3.27l.063.269h11.723V9195.2H20637.3a47.759,47.759,0,0,1-47.8-47.8v-.7a47.755,47.755,0,0,1,43.883-47.644,85.953,85.953,0,0,1,4.32-13.916,84.953,84.953,0,0,1,7.422-14.229,83.97,83.97,0,0,1,9.83-12.39,82.076,82.076,0,0,1,11.918-10.226,79.938,79.938,0,0,1,13.676-7.719,77.871,77.871,0,0,1,62.684,0,80.415,80.415,0,0,1,13.68,7.719,82.36,82.36,0,0,1,17.889,17.171,47.444,47.444,0,0,1,76.2,33.43h11a47.771,47.771,0,0,1,47.8,47.8v.7a47.761,47.761,0,0,1-47.8,47.8h-16.4v78.854h11.719l.066-.269a21.231,21.231,0,0,1,1.084-3.266,21.624,21.624,0,1,1,0,16.838,21.137,21.137,0,0,1-1.084-3.27l-.066-.27H20845.6v38.034a5.94,5.94,0,0,0,5.932,5.932h16.178l.063-.273a20.625,20.625,0,0,1,1.135-3.509,21.286,21.286,0,1,1,11.328,27.89Zm-2.709-19.607a10.992,10.992,0,1,0,10.992-10.991A11.006,11.006,0,0,0,20877.523,9332.283Zm-277.732,0a10.994,10.994,0,1,0,11-10.991A11.008,11.008,0,0,0,20599.791,9332.283Zm139.563,0a10.994,10.994,0,1,0,11-10.991A11.006,11.006,0,0,0,20739.354,9332.283Zm127.881-53.346a11.164,11.164,0,1,0,11.162-11.166A11.176,11.176,0,0,0,20867.234,9278.938Zm-257.494-10.469a11.164,11.164,0,1,0,11.166-11.165A11.178,11.178,0,0,0,20609.74,9268.469Zm177.24-.347a5.938,5.938,0,0,0,5.932,5.931h42.217V9195.2h-48.148Zm-122.812-4.884v.35h42.217a5.942,5.942,0,0,0,5.934-5.935V9195.2h-48.15Zm-64.9-116.186a37.721,37.721,0,0,0,37.68,37.677h225.4a37.68,37.68,0,0,0,0-75.36h-11.576a46.952,46.952,0,0,1-3.32,12.19,48.126,48.126,0,0,1-2.66,5.334l-8.955-5.47a36.97,36.97,0,0,0-55.16-47.243,85.31,85.31,0,0,1,10.1,26.681,88.037,88.037,0,0,1,1.27,8.854h-9.77c-3.936-37.2-34.2-65.242-70.391-65.242-32.324,0-60.475,22.582-68.562,54.939a51.139,51.139,0,0,1,18.021,5.7c10.674,6.1,18.645,18.213,18.645,18.213l-9.43,5.249s-6.111-9.713-14.512-14.512c-8.021-4.582-18.129-4.689-19.033-4.689h-.066A37.725,37.725,0,0,0,20599.271,9147.053Zm38.326,26.519a27.218,27.218,0,0,1-19.205-7.874,26.825,26.825,0,0,1-5.824-8.537,26.726,26.726,0,0,1,0-20.915,27.2,27.2,0,0,1,24.693-16.407V9130.5c-9.064.493-16.164,7.633-16.164,16.252,0,8.976,7.7,16.277,17.164,16.277h20.178v0h11.258v10.542Z" transform="translate(-8884 -2407.507)" fill="#0d1b3a" stroke="#707070" stroke-width="1"/>
      <path id="Path_88681" data-name="Path 88681" d="M34.825-23.142,31.881-33.691H13.237L10.211-23.142H.234l15.823-53.44H30.123l15.823,53.44ZM22.682-66.769l-7.033,24.86H29.632Zm66.033,7.2a20.886,20.886,0,0,1-1.39,7.707,16.638,16.638,0,0,1-4.13,6.113,18.947,18.947,0,0,1-6.828,4.007,28.689,28.689,0,0,1-9.486,1.431H61.77v17.173H51.63v-53.44H67.29a33.912,33.912,0,0,1,9.179,1.124,18.817,18.817,0,0,1,6.706,3.291A14.02,14.02,0,0,1,87.3-66.83,17.681,17.681,0,0,1,88.715-59.573Zm-10.549.7a10.6,10.6,0,0,0-.675-3.864,7.626,7.626,0,0,0-2.044-2.964,9.246,9.246,0,0,0-3.455-1.881,16.611,16.611,0,0,0-4.947-.654H61.77v19.585h5.6a13.708,13.708,0,0,0,4.62-.716,9.078,9.078,0,0,0,3.373-2.065,8.924,8.924,0,0,0,2.085-3.23A11.767,11.767,0,0,0,78.166-58.878Zm20.117-9.486v-8.218h33.773v8.218H120.28v36.921h11.776v8.3H98.283v-8.3h11.776V-68.364Z" transform="translate(11798.587 6789.552)" fill="#ec691f"/>
    </g>
  </g>
</svg>
