<svg xmlns="http://www.w3.org/2000/svg" width="250" height="250" viewBox="0 0 250 250">
  <g id="ic_block" transform="translate(-48 -1876)">
    <g id="Ellipse_817" data-name="Ellipse 817" transform="translate(48 1876)" fill="none" stroke="#0d1b3a" stroke-width="6">
      <circle cx="125" cy="125" r="125" stroke="none"/>
      <circle cx="125" cy="125" r="122" fill="none"/>
    </g>
    <g id="Group_21388" data-name="Group 21388" transform="translate(-8.752 -8.755)">
      <path id="Path_97905" data-name="Path 97905" d="M46.7,75.532a2.538,2.538,0,0,1-.591-5c2.472-.6,5.025-1.353,7.809-2.317a2.538,2.538,0,1,1,1.66,4.8c-2.939,1.015-5.649,1.82-8.281,2.454a2.538,2.538,0,0,1-.6.071Z" transform="translate(155.323 2020.082)" fill="#e36410"/>
      <path id="Path_97910" data-name="Path 97910" d="M3781.919,8679.635l.01,0h-.053a88.823,88.823,0,1,1,68.887-30.408,2.538,2.538,0,1,1-3.823-3.341,83.745,83.745,0,1,0-64.969,28.68,2.537,2.537,0,0,1-.021,5.073Zm-38.491-33.477a2.537,2.537,0,0,1-.295-3.841l92.173-92.174a2.5,2.5,0,0,1,1.99-.735,2.532,2.532,0,0,1,1.854,1.028,68.5,68.5,0,0,1-55.317,108.917h-.179A67.908,67.908,0,0,1,3743.427,8646.158Zm5.436-2.4a63.428,63.428,0,0,0,87.893-87.893Zm-18.5-11.481a2.541,2.541,0,0,1-1.854-1.028,68.5,68.5,0,0,1,95.722-95.736,2.537,2.537,0,0,1,.295,3.842l-92.173,92.172a2.536,2.536,0,0,1-1.8.751Zm53.464-104.887a63.518,63.518,0,0,0-63.446,63.446,62.867,62.867,0,0,0,10.522,34.966l87.893-87.89a62.848,62.848,0,0,0-34.811-10.522Z" transform="translate(-3602.536 -6581.532)" fill="#0d1b3a"/>
      <path id="Path_97907" data-name="Path 97907" d="M56.55,72.539a2.538,2.538,0,0,1-1.363-4.67c2.152-1.368,4.215-2.792,6.131-4.228a2.538,2.538,0,0,1,3.045,4.06c-2.03,1.523-4.192,3.015-6.456,4.451a2.51,2.51,0,0,1-1.358.386Z" transform="translate(170.479 2012.491)" fill="#e36410"/>
    </g>
  </g>
</svg>
