<svg xmlns="http://www.w3.org/2000/svg" width="250" height="250" viewBox="0 0 250 250">
  <g id="ic_varient" transform="translate(-48 -1602)">
    <g id="Ellipse_817" data-name="Ellipse 817" transform="translate(48 1602)" fill="none" stroke="#0d1b3a" stroke-width="6">
      <circle cx="125" cy="125" r="125" stroke="none"/>
      <circle cx="125" cy="125" r="122" fill="none"/>
    </g>
    <g id="Group_21384" data-name="Group 21384">
      <path id="Path_96756" data-name="Path 96756" d="M20608.014,9140.465a19.031,19.031,0,0,1-19.014-19.012v-68.438a19.033,19.033,0,0,1,19.014-19.017h114.072a19.039,19.039,0,0,1,19.012,19.017v68.438a19.037,19.037,0,0,1-19.012,19.012Zm-11.412-87.45v68.438a11.423,11.423,0,0,0,11.412,11.411h114.072a11.428,11.428,0,0,0,11.406-11.411v-68.438a11.424,11.424,0,0,0-11.406-11.408h-114.072A11.419,11.419,0,0,0,20596.6,9053.015Zm19.018,64.638a3.8,3.8,0,1,1,0-7.605h98.865a3.8,3.8,0,0,1,0,7.605Zm7.6-22.815a11.43,11.43,0,0,1-11.41-11.406v-15.209a11.43,11.43,0,0,1,11.41-11.406h15.213a11.42,11.42,0,0,1,11.406,11.406v15.209a11.42,11.42,0,0,1-11.406,11.406Zm-3.8-26.615v15.209a3.808,3.808,0,0,0,3.8,3.8h15.213a3.8,3.8,0,0,0,3.795-3.8v-15.209a3.808,3.808,0,0,0-3.795-3.806h-15.213A3.814,3.814,0,0,0,20619.42,9068.222Z" transform="translate(-20490.58 -7359.915)" fill="#0d1b3a"/>
      <path id="Intersection_6" data-name="Intersection 6" d="M3729.219,8562.839a11.43,11.43,0,0,1-11.411-11.405v-15.209a11.43,11.43,0,0,1,11.411-11.407h15.212a11.421,11.421,0,0,1,11.407,11.407v15.209a11.421,11.421,0,0,1-11.407,11.405Zm-3.8-26.614v15.209a3.81,3.81,0,0,0,3.8,3.8h15.212a3.8,3.8,0,0,0,3.8-3.8v-15.209a3.81,3.81,0,0,0-3.8-3.808h-15.212A3.816,3.816,0,0,0,3725.419,8536.225Z" transform="translate(-3596.58 -6827.917)" fill="#e36410"/>
    </g>
  </g>
</svg>
