<svg xmlns="http://www.w3.org/2000/svg" width="512" height="512" viewBox="0 0 512 512">
  <g id="ic_dr_ready" transform="translate(-3199 -7634)">
    <g id="Ellipse_817" data-name="Ellipse 817" transform="translate(3199 7634)" fill="none" stroke="#0d1b3a" stroke-width="12">
      <circle cx="256" cy="256" r="256" stroke="none"/>
      <circle cx="256" cy="256" r="250" fill="none"/>
    </g>
    <g id="Group_30631" data-name="Group 30631" transform="translate(549 18)">
      <g id="Path_131339" data-name="Path 131339" transform="translate(2783 7739)" fill="#fff" stroke-linecap="round">
        <path d="M 184.0894470214844 264.0538330078125 L 27.64713287353516 264.0538330078125 C 24.58759307861328 264.0538330078125 21.6222095489502 263.4557495117188 18.83340072631836 262.276123046875 C 16.13717079162598 261.1357421875 13.71470928192139 259.5021057128906 11.63320922851563 257.4206237792969 C 9.551709175109863 255.3391265869141 7.918093681335449 252.9166259765625 6.777670860290527 250.2204437255859 C 5.59809398651123 247.4315948486328 5.000016689300537 244.4662017822266 5.000016689300537 241.4066772460938 L 5.000016689300537 27.64713287353516 C 5.000016689300537 24.58759307861328 5.59809398651123 21.6222095489502 6.777670860290527 18.83340072631836 C 7.918093681335449 16.13717079162598 9.551709175109863 13.71470928192139 11.63320922851563 11.63320922851563 C 13.71470928192139 9.551709175109863 16.13717079162598 7.918093681335449 18.83340072631836 6.777670383453369 C 21.6222095489502 5.598093509674072 24.58759307861328 5.000016689300537 27.64713287353516 5.000016689300537 L 184.0894470214844 5.000016689300537 C 187.1489715576172 5.000016689300537 190.1143646240234 5.598093509674072 192.9032135009766 6.777670383453369 C 195.5993957519531 7.918093681335449 198.0218963623047 9.551709175109863 200.1034088134766 11.63320922851563 C 202.1848602294922 13.71470928192139 203.8185119628906 16.13717079162598 204.9589080810547 18.83340072631836 C 206.1385192871094 21.6222095489502 206.7365875244141 24.58759307861328 206.7365875244141 27.64713287353516 L 206.7365875244141 241.4066772460938 C 206.7365875244141 244.4662017822266 206.1384735107422 247.4315948486328 204.9589080810547 250.2203979492188 C 203.8185119628906 252.9166259765625 202.1848602294922 255.3391265869141 200.1034088134766 257.4206237792969 C 198.0218963623047 259.5021057128906 195.5993957519531 261.1357421875 192.9031677246094 262.276123046875 C 190.1143646240234 263.4557189941406 187.1489715576172 264.0538330078125 184.0894470214844 264.0538330078125 Z" stroke="none"/>
        <path d="M 27.64710998535156 10 C 17.91647338867188 10 10.00001525878906 17.91644287109375 10.00001525878906 27.64712524414063 L 10.00001525878906 241.4066772460938 C 10.00001525878906 251.1373596191406 17.91647338867188 259.0538024902344 27.64710998535156 259.0538024902344 L 184.0894165039063 259.0538024902344 C 193.8200988769531 259.0538024902344 201.7365570068359 251.1373596191406 201.7365570068359 241.4066772460938 L 201.7365570068359 27.64712524414063 C 201.7365570068359 17.91644287109375 193.8200988769531 10 184.0894165039063 10 L 27.64710998535156 10 M 27.64710998535156 0 L 184.0894165039063 0 C 199.3585205078125 0 211.7365570068359 12.3780517578125 211.7365570068359 27.64712524414063 L 211.7365570068359 241.4066772460938 C 211.7365570068359 256.6757507324219 199.3585205078125 269.0538024902344 184.0894165039063 269.0538024902344 L 27.64710998535156 269.0538024902344 C 12.37800598144531 269.0538024902344 1.52587890625e-05 256.6757507324219 1.52587890625e-05 241.4066772460938 L 1.52587890625e-05 27.64712524414063 C 1.52587890625e-05 12.3780517578125 12.37800598144531 0 27.64710998535156 0 Z" stroke="none" fill="#0d1b3a"/>
      </g>
      <g id="Path_131340" data-name="Path 131340" transform="translate(2813.344 7772.716)" fill="#fff" stroke-linecap="round">
        <path d="M 146.0477600097656 197.9703979492188 L 4.999989986419678 197.9703979492188 L 4.999989986419678 4.999993324279785 L 146.0477600097656 4.999993324279785 L 146.0477600097656 197.9703979492188 Z" stroke="none"/>
        <path d="M 9.999984741210938 9.999984741210938 L 9.999984741210938 192.9703826904297 L 141.0477294921875 192.9703826904297 L 141.0477294921875 9.999984741210938 L 9.999984741210938 9.999984741210938 M -1.52587890625e-05 -1.52587890625e-05 L 151.0477294921875 -1.52587890625e-05 L 151.0477294921875 202.9703826904297 L -1.52587890625e-05 202.9703826904297 L -1.52587890625e-05 -1.52587890625e-05 Z" stroke="none" fill="#0d1b3a"/>
      </g>
      <g id="Path_131341" data-name="Path 131341" transform="translate(2842.34 7804.409)" fill="#fff" stroke-linecap="round">
        <path d="M 6.068882465362549 7.137762546539307 C 5.47950267791748 7.137762546539307 5.000002384185791 6.658262252807617 5.000002384185791 6.068882465362549 C 5.000002384185791 5.47950267791748 5.47950267791748 5.000002384185791 6.068882465362549 5.000002384185791 C 6.658262252807617 5.000002384185791 7.137762546539307 5.47950267791748 7.137762546539307 6.068882465362549 C 7.137762546539307 6.658262252807617 6.658262252807617 7.137762546539307 6.068882465362549 7.137762546539307 Z" stroke="none"/>
        <path d="M 6.068882465362549 0 C 9.420635223388672 0 12.1377649307251 2.717129707336426 12.1377649307251 6.068882465362549 C 12.1377649307251 9.420635223388672 9.420635223388672 12.1377649307251 6.068882465362549 12.1377649307251 C 2.717129707336426 12.1377649307251 0 9.420635223388672 0 6.068882465362549 C 0 2.717129707336426 2.717129707336426 0 6.068882465362549 0 Z" stroke="none" fill="#0d1b3a"/>
      </g>
      <g id="Path_131343" data-name="Path 131343" transform="translate(2842.34 7867.795)" fill="#fff" stroke-linecap="round">
        <path d="M 6.068882465362549 7.137762546539307 C 5.47950267791748 7.137762546539307 5.000002384185791 6.658262252807617 5.000002384185791 6.068882465362549 C 5.000002384185791 5.47950267791748 5.47950267791748 5.000002384185791 6.068882465362549 5.000002384185791 C 6.658262252807617 5.000002384185791 7.137762546539307 5.47950267791748 7.137762546539307 6.068882465362549 C 7.137762546539307 6.658262252807617 6.658262252807617 7.137762546539307 6.068882465362549 7.137762546539307 Z" stroke="none"/>
        <path d="M 6.068882465362549 0 C 9.420635223388672 0 12.1377649307251 2.717129707336426 12.1377649307251 6.068882465362549 C 12.1377649307251 9.420635223388672 9.420635223388672 12.1377649307251 6.068882465362549 12.1377649307251 C 2.717129707336426 12.1377649307251 0 9.420635223388672 0 6.068882465362549 C 0 2.717129707336426 2.717129707336426 0 6.068882465362549 0 Z" stroke="none" fill="#0d1b3a"/>
      </g>
      <g id="Path_131345" data-name="Path 131345" transform="translate(2842.34 7931.181)" fill="#fff" stroke-linecap="round">
        <path d="M 6.068882465362549 7.137762546539307 C 5.47950267791748 7.137762546539307 5.000002384185791 6.658262252807617 5.000002384185791 6.068882465362549 C 5.000002384185791 5.47950267791748 5.47950267791748 5.000002384185791 6.068882465362549 5.000002384185791 C 6.658262252807617 5.000002384185791 7.137762546539307 5.47950267791748 7.137762546539307 6.068882465362549 C 7.137762546539307 6.658262252807617 6.658262252807617 7.137762546539307 6.068882465362549 7.137762546539307 Z" stroke="none"/>
        <path d="M 6.068882465362549 0 C 9.420635223388672 0 12.1377649307251 2.717129707336426 12.1377649307251 6.068882465362549 C 12.1377649307251 9.420635223388672 9.420635223388672 12.1377649307251 6.068882465362549 12.1377649307251 C 2.717129707336426 12.1377649307251 0 9.420635223388672 0 6.068882465362549 C 0 2.717129707336426 2.717129707336426 0 6.068882465362549 0 Z" stroke="none" fill="#0d1b3a"/>
      </g>
      <g id="Path_131342" data-name="Path 131342" transform="translate(2867.289 7804.409)" fill="#fff" stroke-linecap="round">
        <path d="M 6.068882465362549 7.137762546539307 C 5.47950267791748 7.137762546539307 5.000002384185791 6.658262252807617 5.000002384185791 6.068882465362549 C 5.000002384185791 5.47950267791748 5.47950267791748 5.000002384185791 6.068882465362549 5.000002384185791 C 6.658262252807617 5.000002384185791 7.137762546539307 5.47950267791748 7.137762546539307 6.068882465362549 C 7.137762546539307 6.658262252807617 6.658262252807617 7.137762546539307 6.068882465362549 7.137762546539307 Z" stroke="none"/>
        <path d="M 6.068882465362549 0 C 9.420635223388672 0 12.1377649307251 2.717129707336426 12.1377649307251 6.068882465362549 C 12.1377649307251 9.420635223388672 9.420635223388672 12.1377649307251 6.068882465362549 12.1377649307251 C 2.717129707336426 12.1377649307251 0 9.420635223388672 0 6.068882465362549 C 0 2.717129707336426 2.717129707336426 0 6.068882465362549 0 Z" stroke="none" fill="#0d1b3a"/>
      </g>
      <g id="Path_131344" data-name="Path 131344" transform="translate(2867.289 7867.795)" fill="#fff" stroke-linecap="round">
        <path d="M 6.068882465362549 7.137762546539307 C 5.47950267791748 7.137762546539307 5.000002384185791 6.658262252807617 5.000002384185791 6.068882465362549 C 5.000002384185791 5.47950267791748 5.47950267791748 5.000002384185791 6.068882465362549 5.000002384185791 C 6.658262252807617 5.000002384185791 7.137762546539307 5.47950267791748 7.137762546539307 6.068882465362549 C 7.137762546539307 6.658262252807617 6.658262252807617 7.137762546539307 6.068882465362549 7.137762546539307 Z" stroke="none"/>
        <path d="M 6.068882465362549 0 C 9.420635223388672 0 12.1377649307251 2.717129707336426 12.1377649307251 6.068882465362549 C 12.1377649307251 9.420635223388672 9.420635223388672 12.1377649307251 6.068882465362549 12.1377649307251 C 2.717129707336426 12.1377649307251 0 9.420635223388672 0 6.068882465362549 C 0 2.717129707336426 2.717129707336426 0 6.068882465362549 0 Z" stroke="none" fill="#0d1b3a"/>
      </g>
      <g id="Path_131346" data-name="Path 131346" transform="translate(2867.289 7931.181)" fill="#fff" stroke-linecap="round">
        <path d="M 6.068882465362549 7.137762546539307 C 5.47950267791748 7.137762546539307 5.000002384185791 6.658262252807617 5.000002384185791 6.068882465362549 C 5.000002384185791 5.47950267791748 5.47950267791748 5.000002384185791 6.068882465362549 5.000002384185791 C 6.658262252807617 5.000002384185791 7.137762546539307 5.47950267791748 7.137762546539307 6.068882465362549 C 7.137762546539307 6.658262252807617 6.658262252807617 7.137762546539307 6.068882465362549 7.137762546539307 Z" stroke="none"/>
        <path d="M 6.068882465362549 0 C 9.420635223388672 0 12.1377649307251 2.717129707336426 12.1377649307251 6.068882465362549 C 12.1377649307251 9.420635223388672 9.420635223388672 12.1377649307251 6.068882465362549 12.1377649307251 C 2.717129707336426 12.1377649307251 0 9.420635223388672 0 6.068882465362549 C 0 2.717129707336426 2.717129707336426 0 6.068882465362549 0 Z" stroke="none" fill="#0d1b3a"/>
      </g>
      <path id="Path_131333" data-name="Path 131333" d="M-18504-962.687h142.451" transform="translate(21321.926 8867.106)" fill="none" stroke="#0d1b3a" stroke-linecap="round" stroke-width="10"/>
      <path id="Path_131334" data-name="Path 131334" d="M-18504-962.687h142.451" transform="translate(21321.926 8803.721)" fill="none" stroke="#0d1b3a" stroke-linecap="round" stroke-width="10"/>
      <path id="Path_131335" data-name="Path 131335" d="M-18504-809v31.717" transform="translate(21315.32 8817.391)" fill="none" stroke="#0d1b3a" stroke-linecap="round" stroke-width="10"/>
      <path id="Path_131338" data-name="Path 131338" d="M-18504-809v31.717" transform="translate(21473.113 8817.391)" fill="none" stroke="#0d1b3a" stroke-linecap="round" stroke-width="10"/>
      <path id="Path_131336" data-name="Path 131336" d="M0,0V51.435" transform="translate(2837.039 8040.084) rotate(90)" fill="none" stroke="#0d1b3a" stroke-linecap="round" stroke-width="10"/>
      <path id="Path_131337" data-name="Path 131337" d="M0,0V51.435" transform="translate(2994.828 8040.084) rotate(90)" fill="none" stroke="#0d1b3a" stroke-linecap="round" stroke-width="10"/>
      <g id="Ellipse_962" data-name="Ellipse 962" transform="translate(2951 7704)" fill="#fff" stroke="#0d1b3a" stroke-width="10">
        <circle cx="39.5" cy="39.5" r="39.5" stroke="none"/>
        <circle cx="39.5" cy="39.5" r="34.5" fill="none"/>
      </g>
      <path id="Path_131347" data-name="Path 131347" d="M-17614.7-1293.585l9.766,9.615,18.469-18.47" transform="translate(20590.918 9036.217)" fill="none" stroke="#ec691f" stroke-linecap="round" stroke-linejoin="round" stroke-width="10"/>
    </g>
  </g>
</svg>
