<svg xmlns="http://www.w3.org/2000/svg" width="250" height="250" viewBox="0 0 250 250">
  <g id="ic_easy_integration" transform="translate(-48 -2137)">
    <g id="Path_97948" data-name="Path 97948" transform="translate(48 2137)" fill="none">
      <path d="M125,0A125,125,0,1,1,0,125,125,125,0,0,1,125,0Z" stroke="none"/>
      <path d="M 125 6 C 59.38319396972656 6 6 59.38319396972656 6 125 C 6 190.6168060302734 59.38319396972656 244 125 244 C 190.6168060302734 244 244 190.6168060302734 244 125 C 244 59.38319396972656 190.6168060302734 6 125 6 M 125 0 C 194.0355834960938 0 250 55.96441650390625 250 125 C 250 194.0355834960938 194.0355834960938 250 125 250 C 55.96441650390625 250 0 194.0355834960938 0 125 C 0 55.96441650390625 55.96441650390625 0 125 0 Z" stroke="none" fill="#0d1b3a"/>
    </g>
    <g id="Group_18152" data-name="Group 18152" transform="translate(95 2184)">
      <path id="Path_88680" data-name="Path 88680" d="M20731.459,9189.221a10.412,10.412,0,0,1-5.531-5.525,10.776,10.776,0,0,1-.465-1.35l-.033-.127h-7.984a8,8,0,0,1-8.01-8.006v-18.23h-20.613a8,8,0,0,1-8.006-8v-35.268h-10.562v56.781l.131.029a9.916,9.916,0,0,1,1.7.553,10.394,10.394,0,0,1-8.09,19.148,10.389,10.389,0,0,1-6.348-9.576,10.389,10.389,0,0,1,6.348-9.572,9.872,9.872,0,0,1,1.025-.373l.121-.038v-56.952h-10.559v30.155a8.012,8.012,0,0,1-8.01,8.007h-20.613v23.34a8.009,8.009,0,0,1-8.006,8.009h-7.986l-.033.125a10.76,10.76,0,0,1-.465,1.349,10.4,10.4,0,1,1,.555-6.377l.031.131h7.9a2.9,2.9,0,0,0,2.9-2.9v-23.681h-5.727l-.029.131a10.3,10.3,0,0,1-.529,1.6,10.56,10.56,0,1,1,0-8.224,10.222,10.222,0,0,1,.529,1.6l.029.132h5.727v-33.394h-8.012a23.32,23.32,0,0,1-23.34-23.339v-.341a23.318,23.318,0,0,1,21.426-23.263,42.03,42.03,0,0,1,2.111-6.795,40.957,40.957,0,0,1,8.424-13,39.96,39.96,0,0,1,5.82-4.993,38.956,38.956,0,0,1,6.676-3.769,38.021,38.021,0,0,1,30.607,0,39.174,39.174,0,0,1,6.68,3.769,40.165,40.165,0,0,1,8.734,8.384,23.168,23.168,0,0,1,37.209,16.323h5.367a23.32,23.32,0,0,1,23.34,23.341v.341a23.319,23.319,0,0,1-23.34,23.339h-8.008v38.5h5.723l.031-.132a10.586,10.586,0,0,1,6.15-7.216,10.56,10.56,0,1,1-5.619,13.843,10.309,10.309,0,0,1-.531-1.6l-.031-.131h-5.723v18.571a2.9,2.9,0,0,0,2.9,2.9h7.9l.031-.133a10.053,10.053,0,0,1,.553-1.713,10.392,10.392,0,1,1,5.531,13.617Zm-1.322-9.574a5.367,5.367,0,1,0,5.367-5.366A5.374,5.374,0,0,0,20730.137,9179.646Zm-135.611,0a5.368,5.368,0,1,0,5.369-5.366A5.374,5.374,0,0,0,20594.525,9179.646Zm68.146,0a5.367,5.367,0,1,0,5.367-5.366A5.373,5.373,0,0,0,20662.672,9179.646Zm62.441-26.047a5.451,5.451,0,1,0,5.449-5.453A5.456,5.456,0,0,0,20725.113,9153.6Zm-125.73-5.111a5.451,5.451,0,1,0,5.453-5.452A5.459,5.459,0,0,0,20599.383,9148.488Zm86.543-.17a2.9,2.9,0,0,0,2.9,2.9h20.613v-38.5h-23.51Zm-59.967-2.385v.171h20.613a2.9,2.9,0,0,0,2.9-2.9v-30.5h-23.51Zm-31.687-56.73a18.418,18.418,0,0,0,18.4,18.4h110.057a18.4,18.4,0,1,0,0-36.8h-5.652a22.949,22.949,0,0,1-1.621,5.952,23.967,23.967,0,0,1-1.3,2.6l-4.373-2.671a18.051,18.051,0,0,0-26.934-23.067,41.659,41.659,0,0,1,4.934,13.027,42.812,42.812,0,0,1,.619,4.323h-4.77c-1.922-18.163-16.7-31.856-34.371-31.856-15.783,0-29.529,11.026-33.479,26.826a24.955,24.955,0,0,1,8.8,2.78c5.211,2.981,9.1,8.894,9.1,8.894l-4.6,2.563s-2.984-4.742-7.086-7.086a20.95,20.95,0,0,0-9.293-2.289h-.033A18.42,18.42,0,0,0,20594.271,9089.2Zm18.713,12.947a13.286,13.286,0,0,1-9.377-3.844,13.127,13.127,0,0,1-2.844-4.169,13.042,13.042,0,0,1,0-10.212,13.275,13.275,0,0,1,12.057-8.012v5.207a7.948,7.948,0,1,0,.488,15.884h15.352v5.146Z" transform="translate(-20589.5 -9034.002)" fill="#0d1b3a"/>
      <path id="Path_88681" data-name="Path 88681" d="M17.124-50.488l-1.437-5.151h-9.1L5.106-50.488H.234L7.961-76.582h6.868l7.726,26.094Zm-5.929-21.3L7.761-59.652h6.828Zm32.243,3.514a10.2,10.2,0,0,1-.679,3.763,8.124,8.124,0,0,1-2.016,2.985,9.252,9.252,0,0,1-3.334,1.957,14.008,14.008,0,0,1-4.632.7h-2.5v8.385H25.33V-76.582h7.646a16.559,16.559,0,0,1,4.482.549,9.188,9.188,0,0,1,3.274,1.607,6.846,6.846,0,0,1,2.016,2.605A8.633,8.633,0,0,1,43.438-68.277Zm-5.151.339a5.174,5.174,0,0,0-.329-1.887,3.724,3.724,0,0,0-1-1.447,4.514,4.514,0,0,0-1.687-.918,8.111,8.111,0,0,0-2.416-.319H30.281v9.563h2.735a6.693,6.693,0,0,0,2.256-.349A4.433,4.433,0,0,0,36.919-64.3a4.358,4.358,0,0,0,1.018-1.577A5.746,5.746,0,0,0,38.287-67.937Zm9.823-4.632v-4.013H64.6v4.013H58.85v18.028H64.6v4.053H48.109v-4.053h5.75V-72.569Z" transform="translate(45.333 118.806)" fill="#ec691f"/>
    </g>
  </g>
</svg>
