<svg xmlns="http://www.w3.org/2000/svg" width="512" height="512" viewBox="0 0 512 512">
  <g id="ic_fleet_utilization" transform="translate(-6290 -4471)">
    <g id="Ellipse_425" data-name="Ellipse 425" transform="translate(6290 4471)" fill="none" stroke="#0d1b3a" stroke-linecap="round" stroke-linejoin="round" stroke-width="12">
      <circle cx="256" cy="256" r="256" stroke="none"/>
      <circle cx="256" cy="256" r="250" fill="none"/>
    </g>
    <g id="Group_68" data-name="Group 68" transform="translate(2305.252 4177.252)">
      <path id="Path_78" data-name="Path 78" d="M327.928,189.066V137.2l-32.455-10.815a136.014,136.014,0,0,0-12.787-30.819L298,64.944,261.322,28.262,230.7,43.57A136.68,136.68,0,0,0,199.88,30.782L189.065-1.667H137.2l-10.815,32.45A136.723,136.723,0,0,0,95.563,43.57L64.938,28.262,28.267,64.939,43.574,95.563a136.006,136.006,0,0,0-12.786,30.819L-1.668,137.2v51.868l32.457,10.815A136.024,136.024,0,0,0,43.574,230.7L28.267,261.323,64.938,298l30.625-15.306a136.833,136.833,0,0,0,30.822,12.787L137.2,327.929h51.868l10.815-32.448A136.759,136.759,0,0,0,230.7,282.693L261.319,298l36.671-36.676-15.3-30.625a136.1,136.1,0,0,0,12.787-30.822Zm-42.3,5.2A125.747,125.747,0,0,1,271.76,227.7l-1.542,2.584,14.44,28.872-25.5,25.477L230.282,270.2l-2.584,1.536a125.749,125.749,0,0,1-33.442,13.9l-2.91.743-10.2,30.568H145.119l-10.2-30.6-2.91-.743a125.679,125.679,0,0,1-33.442-13.871L95.98,270.2,67.108,284.632,41.631,259.155l14.444-28.872L54.53,227.7a125.636,125.636,0,0,1-13.871-33.437l-.738-2.911-30.6-10.207V145.12l30.6-10.207L40.659,132A125.649,125.649,0,0,1,54.53,98.564l1.545-2.584L41.631,67.108,67.108,41.631,95.98,56.067l2.584-1.536A125.623,125.623,0,0,1,132.005,40.66l2.91-.743,10.2-30.6h36.024l10.2,30.6,2.91.743A125.623,125.623,0,0,1,227.7,54.53l2.584,1.536,28.872-14.435,25.477,25.477L270.187,95.98l1.545,2.584A125.66,125.66,0,0,1,285.63,132l.736,2.913,30.575,10.207v36.024l-30.6,10.207Zm0,0" transform="translate(4077.668 386.667)" fill="#011131"/>
      <path id="Path_79" data-name="Path 79" d="M344.184,239.819a104.519,104.519,0,1,0-7.316,38.271l16.31,3.081-14.487-41.352Zm-34.058,33.217,15.793,2.987a93.421,93.421,0,1,1,7.279-36.2h5.493Zm0,0" transform="translate(4000.986 309.979)" fill="#ea5c10"/>
      <path id="Path_80" data-name="Path 80" d="M302.122,248.332a54.458,54.458,0,0,0-40.343,17.723l-15.486-6.137,6.389,43.347h-5.493a54.933,54.933,0,1,0,54.933-54.933Zm0,98.879a44,44,0,0,1-43.946-43.946h-5.493l34.345-27.2-14.1-5.586a43.928,43.928,0,1,1,29.192,76.736Zm0,0" transform="translate(3938.677 246.533)" fill="#011131"/>
    </g>
  </g>
</svg>
