<svg xmlns="http://www.w3.org/2000/svg" width="512" height="512" viewBox="0 0 512 512">
  <g id="ic_feet_analytics" transform="translate(-1208 -8345)">
    <g id="Group_2175" data-name="Group 2175" transform="translate(1272 8378.755)">
      <g id="Group_2166" data-name="Group 2166" transform="translate(66.089 288.391)">
        <g id="Group_2165" data-name="Group 2165">
          <path id="Path_5261" data-name="Path 5261" d="M93.867,344.692h-.061a5.649,5.649,0,1,0,.061,0Z" transform="translate(-88.218 -344.692)" fill="#ec691f"/>
        </g>
      </g>
      <g id="Group_2168" data-name="Group 2168" transform="translate(114.131 288.391)">
        <g id="Group_2167" data-name="Group 2167">
          <path id="Path_5262" data-name="Path 5262" d="M158,344.692h-.06a5.649,5.649,0,1,0,.06,0Z" transform="translate(-152.347 -344.692)" fill="#ec691f"/>
        </g>
      </g>
      <g id="Group_2170" data-name="Group 2170" transform="translate(312.307 288.391)">
        <g id="Group_2169" data-name="Group 2169">
          <path id="Path_5263" data-name="Path 5263" d="M422.528,344.692h-.06a5.649,5.649,0,1,0,.06,0Z" transform="translate(-416.879 -344.692)" fill="#ec691f"/>
        </g>
      </g>
      <g id="Group_2172" data-name="Group 2172" transform="translate(0 120.245)">
        <g id="Group_2171" data-name="Group 2171">
          <path id="Path_5264" data-name="Path 5264" d="M378.4,220.46l-7.554-7.554L355.63,167.248a5.618,5.618,0,0,0-1.7-10.973H299.493V131.869a11.637,11.637,0,0,0-11.624-11.624H11.624A11.637,11.637,0,0,0,0,131.869V263.985a11.637,11.637,0,0,0,11.624,11.624h6.392V288A11.637,11.637,0,0,0,29.64,299.627H42.578A29.62,29.62,0,0,0,95.7,311.341a29.621,29.621,0,0,0,53.12-11.714H288.8a29.638,29.638,0,0,0,58.738-5.619c0-.129-.008-.255-.01-.384h24.418A11.637,11.637,0,0,0,383.566,282V232.925A17.509,17.509,0,0,0,378.4,220.46ZM42.578,288.39H29.64a.386.386,0,0,1-.387-.387V275.61H48.465A29.525,29.525,0,0,0,42.578,288.39Zm29.1,24.022a18.4,18.4,0,0,1-.115-36.8h.231a18.4,18.4,0,0,1-.116,36.8Zm48.043,0a18.4,18.4,0,0,1-.115-36.8h.231a18.4,18.4,0,0,1-.115,36.8ZM288.8,288.39H148.819a29.52,29.52,0,0,0-5.888-12.781H251.837a5.619,5.619,0,0,0,0-11.237H11.624a.386.386,0,0,1-.387-.387V131.869a.387.387,0,0,1,.387-.387H287.869a.387.387,0,0,1,.387.387v132.5H275.86a5.619,5.619,0,1,0,0,11.237h18.823A29.516,29.516,0,0,0,288.8,288.39Zm71.347-72.063H323.9a.387.387,0,0,1-.387-.387V191.532h28.365ZM317.9,312.412a18.4,18.4,0,0,1-.115-36.8h.115l.039,0a18.4,18.4,0,0,1-.04,36.8ZM372.33,282a.387.387,0,0,1-.387.387H345.159A29.683,29.683,0,0,0,317.9,264.37c-.039,0-.076,0-.115,0H299.493V167.9a.387.387,0,0,1,.387-.387h43.993l4.261,12.784H317.9a5.619,5.619,0,0,0-5.619,5.619v30.027A11.637,11.637,0,0,0,323.9,227.564h45.715l.842.842a6.352,6.352,0,0,1,1.872,4.52v13.431h-6.392a5.619,5.619,0,1,0,0,11.237h6.392Z" transform="translate(0 -120.245)" fill="#0d1b3a"/>
        </g>
      </g>
      <g id="Group_2174" data-name="Group 2174" transform="translate(24.021 240.351)">
        <g id="Group_2173" data-name="Group 2173">
          <path id="Path_5265" data-name="Path 5265" d="M277.9,280.567H37.683a5.619,5.619,0,1,0,0,11.237H277.9a5.619,5.619,0,0,0,0-11.237Z" transform="translate(-32.064 -280.567)" fill="#ec691f"/>
        </g>
      </g>
    </g>
    <g id="Ellipse_963" data-name="Ellipse 963" transform="translate(1208 8345)" fill="none" stroke="#0d1b3a" stroke-width="12">
      <circle cx="256" cy="256" r="256" stroke="none"/>
      <circle cx="256" cy="256" r="250" fill="none"/>
    </g>
  </g>
</svg>
