<svg xmlns="http://www.w3.org/2000/svg" xmlns:xlink="http://www.w3.org/1999/xlink" width="4036.913" height="2313.91" viewBox="0 0 4036.913 2313.91">
  <defs>
    <clipPath id="clip-path">
      <path id="Path_5321" data-name="Path 5321" d="M809.745,654.716h0l-.024.014Z" transform="translate(-809.719 -654.716)" fill="#2b64a3"/>
    </clipPath>
    <clipPath id="clip-path-2">
      <path id="Path_5324" data-name="Path 5324" d="M1357.116,666.481l-.022-.007Z" transform="translate(-1357.094 -666.474)" fill="#2b64a3"/>
    </clipPath>
    <clipPath id="clip-path-3">
      <path id="Path_5327" data-name="Path 5327" d="M1179.907,702.066l-.024.015Z" transform="translate(-1179.883 -702.066)" fill="#2b64a3"/>
    </clipPath>
    <clipPath id="clip-path-4">
      <path id="Path_5330" data-name="Path 5330" d="M1724.088,712.66h0l-.026-.012Z" transform="translate(-1724.062 -712.648)" fill="#2b64a3"/>
    </clipPath>
    <clipPath id="clip-path-5">
      <path id="Path_5333" data-name="Path 5333" d="M1712.476,714.652c7.822-4.532,20.522-4.527,28.386.012C1733,710.125,1720.3,710.12,1712.476,714.652Z" transform="translate(-1712.476 -711.257)" fill="#2b64a3"/>
    </clipPath>
    <clipPath id="clip-path-6">
      <path id="Path_5336" data-name="Path 5336" d="M1712.49,712.643l-.025.017Z" transform="translate(-1712.465 -712.643)" fill="#2b64a3"/>
    </clipPath>
    <clipPath id="clip-path-7">
      <path id="Path_5339" data-name="Path 5339" d="M1243.855,739.023h0l.021-.012Z" transform="translate(-1243.855 -739.011)" fill="#2b64a3"/>
    </clipPath>
    <clipPath id="clip-path-8">
      <path id="Path_5342" data-name="Path 5342" d="M1094.961,758.149l.024.012-.024-.012Z" transform="translate(-1094.961 -758.149)" fill="#2b64a3"/>
    </clipPath>
    <clipPath id="clip-path-9">
      <path id="Path_5345" data-name="Path 5345" d="M1403.18,764.36h0l-.024.014Z" transform="translate(-1403.156 -764.36)" fill="#2b64a3"/>
    </clipPath>
    <clipPath id="clip-path-10">
      <path id="Path_5348" data-name="Path 5348" d="M1527.264,766.376l-.024.017.024-.017Z" transform="translate(-1527.24 -766.376)" fill="#2b64a3"/>
    </clipPath>
    <clipPath id="clip-path-11">
      <path id="Path_5351" data-name="Path 5351" d="M1158.61,781.508h0l-.024-.012Z" transform="translate(-1158.586 -781.496)" fill="#2b64a3"/>
    </clipPath>
    <clipPath id="clip-path-12">
      <path id="Path_5355" data-name="Path 5355" d="M1585.4,799.977h0l.024-.012Z" transform="translate(-1585.397 -799.965)" fill="#2b64a3"/>
    </clipPath>
    <clipPath id="clip-path-13">
      <path id="Path_5358" data-name="Path 5358" d="M1478.763,808.04l.022-.017Z" transform="translate(-1478.763 -808.023)" fill="#2b64a3"/>
    </clipPath>
    <clipPath id="clip-path-14">
      <path id="Path_5361" data-name="Path 5361" d="M1086.344,823.468l.022.015Z" transform="translate(-1086.344 -823.468)" fill="#2b64a3"/>
    </clipPath>
    <clipPath id="clip-path-15">
      <path id="Path_5364" data-name="Path 5364" d="M1211.654,889.141h0l.024-.012Z" transform="translate(-1211.654 -889.129)" fill="#2b64a3"/>
    </clipPath>
    <linearGradient id="linear-gradient" x1="0.081" y1="0.179" x2="1" y2="1" gradientUnits="objectBoundingBox">
      <stop offset="0" stop-color="#fff" stop-opacity="0"/>
      <stop offset="1" stop-color="#858585"/>
    </linearGradient>
  </defs>
  <g id="Group_2731" data-name="Group 2731" transform="translate(19393.926 2772.474)">
    <path id="Path_5286" data-name="Path 5286" d="M1722.115,789.04c11.754,6.793,11.82,17.9.142,24.684L1474.509,957.7c-11.681,6.791-30.86,6.791-42.617,0L1256.624,856.508c-11.754-6.783-11.818-17.889-.132-24.684l247.746-143.975c11.681-6.786,30.855-6.786,42.607,0Z" transform="translate(-17945.031 -2420.414)" fill="#f5b48f" opacity="0.6"/>
    <path id="Path_5287" data-name="Path 5287" d="M1469.048,944.223c11.761,6.793,11.822,17.9.142,24.687l-56.63,32.911c-11.681,6.781-30.853,6.781-42.614-.005l-66.26-38.254c-11.752-6.788-11.813-17.893-.137-24.682l56.627-32.906c11.683-6.793,30.86-6.793,42.612-.005Z" transform="translate(-17876.797 -2104.185)" fill="#f5b48f" opacity="0.6"/>
    <path id="Path_5288" data-name="Path 5288" d="M1533.909,981.671c11.754,6.781,11.816,17.891.13,24.679l-56.627,32.911c-11.678,6.784-30.853,6.784-42.6,0l-66.257-38.256c-11.761-6.786-11.825-17.9-.147-24.679l56.627-32.913c11.686-6.786,30.86-6.786,42.622,0Z" transform="translate(-17782.771 -2049.898)" fill="#f5b48f" opacity="0.6"/>
    <path id="Path_5289" data-name="Path 5289" d="M1999.895,1023.4c11.8,6.813,11.865,17.859.137,24.674l-247.748,143.98c-11.73,6.815-30.8,6.815-42.607,0L1365.546,993.37c-11.805-6.815-11.867-17.864-.137-24.679l247.746-143.977c11.732-6.818,30.8-6.818,42.6,0Z" transform="translate(-17787.174 -2222.023)" fill="#f5b48f" opacity="0.6"/>
    <path id="Path_5290" data-name="Path 5290" d="M1839.662,714.667c11.8,6.813,11.871,17.867.144,24.682L1609.756,873.04c-11.727,6.813-30.814,6.815-42.619,0L1391.868,771.848c-11.8-6.815-11.86-17.866-.133-24.684l230.051-133.688c11.727-6.813,30.8-6.813,42.607,0Z" transform="translate(-17749.004 -2528.271)" fill="#f5b48f" opacity="0.6"/>
    <path id="Path_5291" data-name="Path 5291" d="M1775.287,818.76c11.751,6.791,11.813,17.893.139,24.682l-56.634,32.906c-11.678,6.8-30.855,6.8-42.607.01l-175.271-101.2c-11.761-6.786-11.823-17.893-.137-24.684l56.627-32.908c11.678-6.786,30.85-6.786,42.614,0Z" transform="translate(-17590.867 -2377.326)" fill="#f5b48f" opacity="0.6"/>
    <path id="Path_5292" data-name="Path 5292" d="M1607.326,790.082c11.754,6.783,11.816,17.893.14,24.679l-56.629,32.908c-11.678,6.784-30.853,6.784-42.6,0l-66.26-38.253c-11.759-6.791-11.823-17.9-.147-24.684l56.632-32.908c11.675-6.786,30.85-6.786,42.611,0Z" transform="translate(-17676.322 -2327.663)" fill="#f5b48f" opacity="0.6"/>
    <path id="Path_5293" data-name="Path 5293" d="M1752.914,825.009c11.752,6.789,11.816,17.891.137,24.682l-404.185,234.884c-11.678,6.783-30.853,6.783-42.607,0L1240,1046.322c-11.759-6.791-11.825-17.9-.147-24.687l404.19-234.884c11.673-6.789,30.847-6.789,42.609.005Z" transform="translate(-17969.141 -2277.028)" fill="#f5b48f" opacity="0.6"/>
    <path id="Path_5294" data-name="Path 5294" d="M1568.632,1007.387c11.756,6.781,11.823,17.891.142,24.682l-247.75,143.97c-11.673,6.788-30.848,6.788-42.6,0L987.012,1007.8c-11.752-6.786-11.818-17.893-.14-24.682l247.751-143.977c11.676-6.784,30.848-6.784,42.6,0Z" transform="translate(-18335.916 -2201.073)" fill="#f5b48f" opacity="0.6"/>
    <g id="Group_2563" data-name="Group 2563" transform="translate(-18266.727 -2096.761)">
      <g id="Group_2562" data-name="Group 2562" transform="translate(0 0)" opacity="0.6">
        <path id="Path_5295" data-name="Path 5295" d="M1048.9,642.458c11.752,6.786,11.813,17.893.14,24.682L833.854,792.2c-11.678,6.784-30.85,6.784-42.607,0l-175.276-101.2c-11.749-6.783-11.813-17.888-.137-24.679l215.19-125.048c11.676-6.791,30.85-6.791,42.607,0Z" transform="translate(-607.118 -536.174)" fill="#f5b48f"/>
      </g>
    </g>
    <g id="Group_2564" data-name="Group 2564" transform="translate(-18005.957 -2056.038)" opacity="0.6">
      <path id="Path_5296" data-name="Path 5296" d="M1235.33,596.142c11.762,6.791,11.823,17.9.145,24.679L831.29,855.71c-11.676,6.786-30.853,6.786-42.609,0l-66.26-38.256c-11.754-6.786-11.818-17.893-.14-24.677l404.185-234.889c11.681-6.788,30.853-6.788,42.607,0Z" transform="translate(-713.563 -552.797)" fill="#f5b48f"/>
    </g>
    <g id="Group_2565" data-name="Group 2565" transform="translate(-17698.445 -1963.07)" opacity="0.6">
      <path id="Path_5297" data-name="Path 5297" d="M1313.436,697.026c11.754,6.788,11.815,17.9.137,24.679L1065.827,865.682c-11.678,6.786-30.853,6.786-42.607,0L847.947,764.491c-11.757-6.791-11.818-17.9-.142-24.679l247.748-143.975c11.678-6.788,30.855-6.788,42.607,0Z" transform="translate(-839.089 -590.746)" fill="#f5b48f"/>
    </g>
    <g id="Group_2566" data-name="Group 2566" transform="translate(-17849.926 -1763.974)" opacity="0.6">
      <path id="Path_5298" data-name="Path 5298" d="M951.475,715.367c11.752,6.781,11.813,17.889.137,24.677l-56.63,32.911c-11.678,6.783-30.85,6.783-42.6,0L786.111,734.7c-11.754-6.789-11.815-17.9-.14-24.684l56.632-32.9c11.673-6.791,30.848-6.791,42.6-.007Z" transform="translate(-777.255 -672.017)" fill="#f5b48f"/>
    </g>
    <g id="Group_2567" data-name="Group 2567" transform="translate(-18155.596 -1780.112)" opacity="0.6">
      <path id="Path_5299" data-name="Path 5299" d="M826.7,708.779c11.752,6.781,11.813,17.888.135,24.677l-56.63,32.91c-11.676,6.784-30.85,6.784-42.6,0L661.339,728.11c-11.754-6.791-11.818-17.9-.14-24.687l56.63-32.9c11.676-6.791,30.85-6.791,42.6-.007Z" transform="translate(-652.481 -665.428)" fill="#f5b48f"/>
    </g>
    <g id="Group_2568" data-name="Group 2568" transform="translate(-17265.496 -1799.766)" opacity="0.6">
      <path id="Path_5300" data-name="Path 5300" d="M1345.025,760.812c11.754,6.783,11.813,17.888.14,24.677L1237.57,848.015c-11.686,6.791-30.858,6.791-42.612,0l-170.283-98.31c-11.754-6.788-11.82-17.893-.135-24.684l107.6-62.529c11.676-6.783,30.853-6.783,42.6,0Z" transform="translate(-1015.817 -657.406)" fill="#f5b48f"/>
    </g>
    <g id="Group_2569" data-name="Group 2569" transform="translate(-17691.041 -1672.242)" opacity="0.6">
      <path id="Path_5301" data-name="Path 5301" d="M1016.323,752.805c11.756,6.788,11.82,17.894.145,24.679L959.841,810.4c-11.681,6.791-30.855,6.791-42.617,0l-66.255-38.256c-11.754-6.783-11.82-17.886-.14-24.674l56.627-32.911c11.681-6.788,30.853-6.788,42.607,0Z" transform="translate(-842.111 -709.461)" fill="#f5b48f"/>
    </g>
    <g id="Group_2570" data-name="Group 2570" transform="translate(-16996.18 -1644.276)" opacity="0.6">
      <path id="Path_5302" data-name="Path 5302" d="M1306.766,738.722c11.754,6.783,11.815,17.891.137,24.679l-107.6,62.529c-11.683,6.786-30.855,6.786-42.612,0l-22.088-12.756c-11.757-6.786-11.818-17.891-.135-24.684l107.6-62.526c11.678-6.786,30.853-6.786,42.607,0Z" transform="translate(-1125.751 -720.876)" fill="#f5b48f"/>
    </g>
    <g id="Group_2571" data-name="Group 2571" transform="translate(-17990.748 -1674.71)" opacity="0.6">
      <path id="Path_5303" data-name="Path 5303" d="M1046.455,839.828c11.761,6.788,11.825,17.9.147,24.682l-56.632,32.913c-11.673,6.783-30.848,6.783-42.609-.005L728.63,771.133c-11.754-6.788-11.818-17.9-.142-24.679l56.63-32.911c11.681-6.786,30.855-6.786,42.607,0Z" transform="translate(-719.772 -708.454)" fill="#f5b48f"/>
    </g>
    <g id="Group_2572" data-name="Group 2572" transform="translate(-17417.764 -1683.368)" opacity="0.6">
      <path id="Path_5304" data-name="Path 5304" d="M1341.734,878.271c11.8,6.811,11.867,17.866.14,24.684l-45.3,26.323c-11.727,6.813-30.808,6.813-42.609,0L962.556,761.034c-11.8-6.818-11.867-17.864-.14-24.677l45.3-26.328c11.73-6.813,30.8-6.813,42.6,0Z" transform="translate(-953.663 -704.919)" fill="#f5b48f"/>
    </g>
    <g id="Group_2573" data-name="Group 2573" transform="translate(-18431.783 -1736.595)" opacity="0.6">
      <path id="Path_5305" data-name="Path 5305" d="M1158.545,983.221c11.762,6.788,11.823,17.893.145,24.682l-56.63,32.913c-11.678,6.783-30.85,6.783-42.609-.007L548.6,745.87c-11.757-6.786-11.823-17.893-.144-24.679l56.627-32.911c11.681-6.783,30.853-6.783,42.614,0Z" transform="translate(-539.743 -683.192)" fill="#f5b48f"/>
    </g>
    <g id="Group_2574" data-name="Group 2574" transform="translate(-17005.18 -1539.792)" opacity="0.6">
      <path id="Path_5306" data-name="Path 5306" d="M1563.865,869.807c11.762,6.791,11.823,17.9.14,24.682L1348.82,1019.546c-11.681,6.788-30.858,6.788-42.614,0L1130.934,918.35c-11.754-6.783-11.815-17.891-.137-24.677l215.186-125.055c11.683-6.788,30.86-6.788,42.617,0Z" transform="translate(-1122.078 -763.527)" fill="#f5b48f"/>
    </g>
    <g id="Group_2575" data-name="Group 2575" transform="translate(-17870.455 -1575.166)" opacity="0.6">
      <path id="Path_5307" data-name="Path 5307" d="M1290.647,792.439c11.757,6.784,11.82,17.893.14,24.677L886.612,1052c-11.688,6.793-30.86,6.793-42.617.005l-66.265-38.256c-11.754-6.786-11.815-17.893-.13-24.682L1181.779,754.18c11.678-6.791,30.855-6.791,42.607,0Z" transform="translate(-768.876 -749.087)" fill="#f5b48f"/>
    </g>
    <g id="Group_2576" data-name="Group 2576" transform="translate(-17852.357 -1473.584)" opacity="0.6">
      <path id="Path_5308" data-name="Path 5308" d="M1455.919,833.923c11.805,6.818,11.867,17.862.14,24.679L894.026,1185.219c-11.727,6.818-30.8,6.818-42.6,0l-66.257-38.254c-11.808-6.818-11.879-17.866-.147-24.682l562.033-326.62c11.727-6.818,30.809-6.815,42.612,0Z" transform="translate(-776.263 -790.552)" fill="#f5b48f"/>
    </g>
    <path id="Path_5309" data-name="Path 5309" d="M1151.265,528.445c11.752,6.781,11.815,17.9.13,24.682l-56.62,32.906c-11.686,6.791-30.858,6.791-42.614,0l-175.273-101.2c-11.752-6.786-11.815-17.893-.132-24.677l56.625-32.911c11.683-6.788,30.858-6.788,42.612,0Z" transform="translate(-18495.572 -2798.232)" fill="#f5b48f" opacity="0.6"/>
    <path id="Path_5310" data-name="Path 5310" d="M1152.365,530.054c11.808,6.818,11.859,17.866.135,24.682L904.757,698.713c-11.73,6.81-30.809,6.815-42.612,0L779.494,651c-11.8-6.823-11.865-17.876-.137-24.692L1027.1,482.337c11.727-6.813,30.814-6.813,42.617,0Z" transform="translate(-18636.828 -2718.395)" fill="#f5b48f" opacity="0.6"/>
    <path id="Path_5311" data-name="Path 5311" d="M1263.32,660.423c11.754,6.791,11.813,17.9.14,24.682l-56.629,32.908c-11.678,6.786-30.853,6.786-42.607,0L988.95,616.819c-11.757-6.786-11.818-17.893-.142-24.679l56.632-32.911c11.676-6.786,30.85-6.786,42.6,0Z" transform="translate(-18333.109 -2606.888)" fill="#f5b48f" opacity="0.6"/>
    <path id="Path_5312" data-name="Path 5312" d="M1742.974,802.789c11.754,6.784,11.813,17.891.137,24.679l-56.63,32.911c-11.678,6.783-30.853,6.783-42.6,0L1133.026,565.435c-11.757-6.786-11.818-17.891-.14-24.679l56.629-32.908c11.678-6.788,30.853-6.788,42.6,0Z" transform="translate(-18124.227 -2681.383)" fill="#f5b48f" opacity="0.6"/>
    <path id="Path_5313" data-name="Path 5313" d="M1632.946,761.557c11.756,6.788,11.82,17.893.132,24.684L1444.8,895.659c-11.681,6.786-30.853,6.786-42.607,0L1110.78,727.414c-11.754-6.788-11.818-17.891-.139-24.679L1298.927,593.32c11.683-6.791,30.855-6.791,42.612,0Z" transform="translate(-18156.477 -2557.47)" fill="#f5b48f" opacity="0.6"/>
    <g id="Group_2577" data-name="Group 2577" transform="translate(-17366.77 -2225.52)" opacity="0.6">
      <path id="Path_5314" data-name="Path 5314" d="M1257.7,589.9c11.762,6.788,11.823,17.9.137,24.687l-56.622,32.908c-11.683,6.786-30.86,6.786-42.617,0L983.333,546.3c-11.754-6.786-11.815-17.893-.132-24.682l56.622-32.906c11.686-6.793,30.855-6.793,42.612-.005Z" transform="translate(-974.478 -483.615)" fill="#f5b48f"/>
    </g>
    <g id="Group_2578" data-name="Group 2578" transform="translate(-17511.168 -2141.598)" opacity="0.6">
      <path id="Path_5315" data-name="Path 5315" d="M1089.745,561.214c11.761,6.791,11.823,17.9.147,24.682l-56.63,32.908c-11.678,6.786-30.853,6.786-42.612,0l-66.262-38.251c-11.752-6.788-11.813-17.9-.135-24.682l56.627-32.908c11.68-6.786,30.853-6.786,42.607,0Z" transform="translate(-915.535 -517.871)" fill="#f5b48f"/>
    </g>
    <path id="Path_5316" data-name="Path 5316" d="M1250.982,586.016c11.754,6.786,11.818,17.9.135,24.682l-56.622,32.9c-11.686,6.8-30.86,6.8-42.614.007l-56.289-32.5c-11.749-6.791-11.813-17.893-.13-24.682l56.624-32.906c11.685-6.791,30.855-6.791,42.612,0Z" transform="translate(-18178.49 -2615.164)" fill="#f5b48f" opacity="0.6"/>
    <path id="Path_5317" data-name="Path 5317" d="M1768.559,814.883c11.761,6.788,11.823,17.893.144,24.679l-56.627,32.908c-11.686,6.791-30.86,6.791-42.621,0l-56.28-32.489c-11.759-6.793-11.823-17.9-.139-24.689l56.629-32.911c11.678-6.786,30.853-6.786,42.612.01Z" transform="translate(-17428.109 -2283.36)" fill="#f5b48f" opacity="0.6"/>
    <path id="Path_5318" data-name="Path 5318" d="M1780.9,889.288c11.761,6.783,11.823,17.891.14,24.684l-56.627,32.908c-11.678,6.786-30.851,6.786-42.615,0L1506.525,845.686c-11.754-6.788-11.813-17.893-.137-24.679l56.627-32.911c11.683-6.791,30.858-6.791,42.612,0Z" transform="translate(-17582.723 -2275.082)" fill="#f5b48f" opacity="0.6"/>
    <g id="Group_2582" data-name="Group 2582" transform="translate(-17770.396 -1806.356)">
      <g id="Group_2581" data-name="Group 2581" transform="translate(0 0)">
        <path id="Path_5319" data-name="Path 5319" d="M809.745,654.716h0l-.024.014Z" transform="translate(-809.719 -654.716)" fill="#2b64a3"/>
        <g id="Group_2580" data-name="Group 2580" clip-path="url(#clip-path)">
          <g id="Group_2579" data-name="Group 2579" style="isolation: isolate">
            <path id="Path_5320" data-name="Path 5320" d="M809.719,654.73l.024-.014-.024.014Z" transform="translate(-809.719 -654.716)" fill="#2b64a3"/>
          </g>
        </g>
      </g>
    </g>
    <g id="Group_2586" data-name="Group 2586" transform="translate(-16429.438 -1777.552)">
      <g id="Group_2585" data-name="Group 2585" transform="translate(0 0)">
        <path id="Path_5322" data-name="Path 5322" d="M1357.116,666.481l-.022-.007Z" transform="translate(-1357.094 -666.474)" fill="#2b64a3"/>
        <g id="Group_2584" data-name="Group 2584" clip-path="url(#clip-path-2)">
          <g id="Group_2583" data-name="Group 2583" transform="translate(-0.001 -0.001)" style="isolation: isolate">
            <path id="Path_5323" data-name="Path 5323" d="M1357.094,666.474l.022.01-.022-.01Z" transform="translate(-1357.094 -666.474)" fill="#2b64a3"/>
          </g>
        </g>
      </g>
    </g>
    <g id="Group_2590" data-name="Group 2590" transform="translate(-16863.568 -1690.358)">
      <g id="Group_2589" data-name="Group 2589" transform="translate(0 0)">
        <path id="Path_5325" data-name="Path 5325" d="M1179.907,702.066l-.024.015Z" transform="translate(-1179.883 -702.066)" fill="#2b64a3"/>
        <g id="Group_2588" data-name="Group 2588" clip-path="url(#clip-path-3)">
          <g id="Group_2587" data-name="Group 2587" style="isolation: isolate">
            <path id="Path_5326" data-name="Path 5326" d="M1179.883,702.081l.024-.015-.024.015Z" transform="translate(-1179.883 -702.066)" fill="#2b64a3"/>
          </g>
        </g>
      </g>
    </g>
    <g id="Group_2594" data-name="Group 2594" transform="translate(-15530.439 -1664.434)">
      <g id="Group_2593" data-name="Group 2593" transform="translate(0 0)">
        <path id="Path_5328" data-name="Path 5328" d="M1724.088,712.66h0l-.026-.012Z" transform="translate(-1724.062 -712.648)" fill="#2b64a3"/>
        <g id="Group_2592" data-name="Group 2592" clip-path="url(#clip-path-4)">
          <g id="Group_2591" data-name="Group 2591" style="isolation: isolate">
            <path id="Path_5329" data-name="Path 5329" d="M1724.062,712.648l.026.012-.026-.012Z" transform="translate(-1724.062 -712.648)" fill="#2b64a3"/>
          </g>
        </g>
      </g>
    </g>
    <g id="Group_2598" data-name="Group 2598" transform="translate(-15558.824 -1667.843)">
      <g id="Group_2597" data-name="Group 2597" transform="translate(0)">
        <path id="Path_5331" data-name="Path 5331" d="M1712.476,714.652c7.822-4.532,20.522-4.527,28.386.012C1733,710.125,1720.3,710.12,1712.476,714.652Z" transform="translate(-1712.476 -711.257)" fill="#2b64a3"/>
        <g id="Group_2596" data-name="Group 2596" clip-path="url(#clip-path-5)">
          <g id="Group_2595" data-name="Group 2595" style="isolation: isolate">
            <path id="Path_5332" data-name="Path 5332" d="M1712.476,714.652c7.822-4.532,20.522-4.527,28.386.012-7.864-4.54-20.564-4.544-28.386-.012Z" transform="translate(-1712.476 -711.257)" fill="#2b64a3"/>
          </g>
        </g>
      </g>
    </g>
    <g id="Group_2602" data-name="Group 2602" transform="translate(-15558.85 -1664.446)">
      <g id="Group_2601" data-name="Group 2601" transform="translate(0)">
        <path id="Path_5334" data-name="Path 5334" d="M1712.49,712.643l-.025.017Z" transform="translate(-1712.465 -712.643)" fill="#2b64a3"/>
        <g id="Group_2600" data-name="Group 2600" clip-path="url(#clip-path-6)">
          <g id="Group_2599" data-name="Group 2599" transform="translate(0 0.001)" style="isolation: isolate">
            <path id="Path_5335" data-name="Path 5335" d="M1712.465,712.66l.024-.017-.024.017Z" transform="translate(-1712.465 -712.644)" fill="#2b64a3"/>
          </g>
        </g>
      </g>
    </g>
    <g id="Group_2606" data-name="Group 2606" transform="translate(-16706.85 -1599.849)">
      <g id="Group_2605" data-name="Group 2605" transform="translate(0 0)">
        <path id="Path_5337" data-name="Path 5337" d="M1243.855,739.023h0l.021-.012Z" transform="translate(-1243.855 -739.011)" fill="#2b64a3"/>
        <g id="Group_2604" data-name="Group 2604" clip-path="url(#clip-path-7)">
          <g id="Group_2603" data-name="Group 2603" style="isolation: isolate">
            <path id="Path_5338" data-name="Path 5338" d="M1243.877,739.011l-.021.012.021-.012Z" transform="translate(-1243.855 -739.011)" fill="#2b64a3"/>
          </g>
        </g>
      </g>
    </g>
    <g id="Group_2610" data-name="Group 2610" transform="translate(-17071.609 -1552.966)">
      <g id="Group_2609" data-name="Group 2609" transform="translate(0 0)">
        <path id="Path_5340" data-name="Path 5340" d="M1094.961,758.149l.024.012-.024-.012Z" transform="translate(-1094.961 -758.149)" fill="#2b64a3"/>
        <g id="Group_2608" data-name="Group 2608" clip-path="url(#clip-path-8)">
          <g id="Group_2607" data-name="Group 2607" style="isolation: isolate">
            <path id="Path_5341" data-name="Path 5341" d="M1094.985,758.161l-.024-.012.024.012Z" transform="translate(-1094.961 -758.149)" fill="#2b64a3"/>
          </g>
        </g>
      </g>
    </g>
    <g id="Group_2614" data-name="Group 2614" transform="translate(-16316.594 -1537.749)">
      <g id="Group_2613" data-name="Group 2613" transform="translate(0 0)">
        <path id="Path_5343" data-name="Path 5343" d="M1403.18,764.36h0l-.024.014Z" transform="translate(-1403.156 -764.36)" fill="#2b64a3"/>
        <g id="Group_2612" data-name="Group 2612" clip-path="url(#clip-path-9)">
          <g id="Group_2611" data-name="Group 2611" style="isolation: isolate">
            <path id="Path_5344" data-name="Path 5344" d="M1403.156,764.375l.024-.014-.024.014Z" transform="translate(-1403.156 -764.36)" fill="#2b64a3"/>
          </g>
        </g>
      </g>
    </g>
    <g id="Group_2618" data-name="Group 2618" transform="translate(-16012.613 -1532.812)">
      <g id="Group_2617" data-name="Group 2617" transform="translate(0 0)">
        <path id="Path_5346" data-name="Path 5346" d="M1527.264,766.376l-.024.017.024-.017Z" transform="translate(-1527.24 -766.376)" fill="#2b64a3"/>
        <g id="Group_2616" data-name="Group 2616" clip-path="url(#clip-path-10)">
          <g id="Group_2615" data-name="Group 2615" style="isolation: isolate">
            <path id="Path_5347" data-name="Path 5347" d="M1527.24,766.393l.024-.017-.024.017Z" transform="translate(-1527.24 -766.376)" fill="#2b64a3"/>
          </g>
        </g>
      </g>
    </g>
    <g id="Group_2622" data-name="Group 2622" transform="translate(-16915.742 -1495.771)">
      <g id="Group_2621" data-name="Group 2621" transform="translate(0)">
        <path id="Path_5349" data-name="Path 5349" d="M1158.61,781.508h0l-.024-.012Z" transform="translate(-1158.586 -781.496)" fill="#2b64a3"/>
        <g id="Group_2620" data-name="Group 2620" clip-path="url(#clip-path-11)">
          <g id="Group_2619" data-name="Group 2619" style="isolation: isolate">
            <path id="Path_5350" data-name="Path 5350" d="M1158.586,781.5l.024.012-.024-.012Z" transform="translate(-1158.586 -781.496)" fill="#2b64a3"/>
          </g>
        </g>
      </g>
    </g>
    <g id="Group_2623" data-name="Group 2623" transform="translate(-18842.32 -2084.942)">
      <path id="Path_5352" data-name="Path 5352" d="M3684.045,961.506c7.866,4.542,7.91,11.911.088,16.458l-339.768,197.451c-7.817,4.542-20.537,4.542-28.4,0l-99.751-57.592-133.078,77.333c-7.817,4.544-20.534,4.544-28.4,0l-142.495-82.267-483.463,280.96c-7.814,4.539-20.536,4.539-28.405,0l-278.581-160.842c-7.866-4.542-7.913-11.913-.1-16.455l134.494-78.154L2142.9,1072.986c-7.868-4.537-7.91-11.9-.093-16.448L2350.915,935.6c7.817-4.542,20.536-4.542,28.4,0l114,65.816,249.164-144.8-381.9-220.484L1745.467,993.6c-7.82,4.547-20.534,4.552-28.408.005l-258.63-149.315-279.6,162.48c-7.822,4.545-20.539,4.545-28.408,0L378.091,560.861c-7.869-4.542-7.91-11.906-.088-16.451s20.537-4.549,28.405,0l758.078,437.672,279.6-162.483c7.817-4.544,20.537-4.544,28.41,0l258.63,149.313,615.118-357.462c7.825-4.552,20.542-4.552,28.408-.007l410.393,236.942c7.876,4.544,7.908,11.909.086,16.455l-277.477,161.248c-7.815,4.539-20.529,4.544-28.405,0l-114-65.821-179.8,104.489,113.284,65.407c7.868,4.542,7.917,11.9.093,16.45l-134.489,78.158,250.083,144.386,483.461-280.96c7.817-4.537,20.534-4.54,28.408,0l142.495,82.269,133.078-77.333c7.817-4.547,20.534-4.547,28.4,0l99.751,57.59,325.61-189.225C3663.456,956.961,3676.171,956.959,3684.045,961.506Z" transform="translate(-372.163 -540.998)" fill="#ec691f"/>
    </g>
    <g id="Group_2627" data-name="Group 2627" transform="translate(-15870.143 -1450.525)">
      <g id="Group_2626" data-name="Group 2626" transform="translate(0 0)">
        <path id="Path_5353" data-name="Path 5353" d="M1585.4,799.977h0l.024-.012Z" transform="translate(-1585.397 -799.965)" fill="#2b64a3"/>
        <g id="Group_2625" data-name="Group 2625" clip-path="url(#clip-path-12)">
          <g id="Group_2624" data-name="Group 2624" style="isolation: isolate">
            <path id="Path_5354" data-name="Path 5354" d="M1585.421,799.965l-.024.012.024-.012Z" transform="translate(-1585.397 -799.965)" fill="#2b64a3"/>
          </g>
        </g>
      </g>
    </g>
    <g id="Group_2631" data-name="Group 2631" transform="translate(-16131.373 -1430.784)">
      <g id="Group_2630" data-name="Group 2630" transform="translate(0 0)">
        <path id="Path_5356" data-name="Path 5356" d="M1478.763,808.04l.022-.017Z" transform="translate(-1478.763 -808.023)" fill="#2b64a3"/>
        <g id="Group_2629" data-name="Group 2629" clip-path="url(#clip-path-13)">
          <g id="Group_2628" data-name="Group 2628" transform="translate(-0.001 0.001)" style="isolation: isolate">
            <path id="Path_5357" data-name="Path 5357" d="M1478.786,808.023l-.024.017.024-.017Z" transform="translate(-1478.763 -808.023)" fill="#2b64a3"/>
          </g>
        </g>
      </g>
    </g>
    <g id="Group_2635" data-name="Group 2635" transform="translate(-17092.721 -1392.947)">
      <g id="Group_2634" data-name="Group 2634" transform="translate(0 0)">
        <path id="Path_5359" data-name="Path 5359" d="M1086.344,823.468l.022.015Z" transform="translate(-1086.344 -823.468)" fill="#2b64a3"/>
        <g id="Group_2633" data-name="Group 2633" clip-path="url(#clip-path-14)">
          <g id="Group_2632" data-name="Group 2632" transform="translate(-0.001 -0.001)" style="isolation: isolate">
            <path id="Path_5360" data-name="Path 5360" d="M1086.367,823.482l-.024-.014.024.014Z" transform="translate(-1086.343 -823.468)" fill="#2b64a3"/>
          </g>
        </g>
      </g>
    </g>
    <g id="Group_2639" data-name="Group 2639" transform="translate(-16785.734 -1232.091)">
      <g id="Group_2638" data-name="Group 2638" transform="translate(0 0)">
        <path id="Path_5362" data-name="Path 5362" d="M1211.654,889.141h0l.024-.012Z" transform="translate(-1211.654 -889.129)" fill="#2b64a3"/>
        <g id="Group_2637" data-name="Group 2637" clip-path="url(#clip-path-15)">
          <g id="Group_2636" data-name="Group 2636" style="isolation: isolate">
            <path id="Path_5363" data-name="Path 5363" d="M1211.678,889.129l-.024.012.024-.012Z" transform="translate(-1211.654 -889.129)" fill="#2b64a3"/>
          </g>
        </g>
      </g>
    </g>
    <path id="Path_5365" data-name="Path 5365" d="M1134.128,905.095s-48.7,60.324-101.2,82.105c-58.594,24.309-132.368,63.668-238.973,16.374C663.774,945.825,591.926,904.681,462.313,821.5,332.2,738,223.594,678.062,209.135,632.454s-23.408-75.7,21.561-112.728,126.75-91.461,192.326-72.923S868.509,689.7,868.509,689.7Z" transform="translate(-19591.295 -2785.716)" fill="#f8d1bb" opacity="0.4"/>
    <g id="Group_2666" data-name="Group 2666" transform="translate(-15821.482 -1845.029)">
      <g id="Group_2665" data-name="Group 2665" transform="translate(0 0)">
        <path id="Path_5425" data-name="Path 5425" d="M1853.149,663.536c23.881,13.876,37.614,31.406,41.193,49.518.2,1,.348,1.994.493,2.989l16.511,100.584-175.234-10.079c-32.421-1.766-63.962-9.843-88.71-24.224-56.451-32.808-56.152-85.993.667-118.8S1796.7,630.728,1853.149,663.536Zm-58.59,85.123c24.618-14.211,24.748-37.249.289-51.465s-64.241-14.216-88.857,0-24.756,37.257-.289,51.475,64.234,14.211,88.857,0Z" transform="translate(-1605.259 -638.929)" fill="url(#linear-gradient)"/>
      </g>
    </g>
    <path id="Path_5426" data-name="Path 5426" d="M1821.263,591.471,1766.349,561.6c19.18,10.434,31.884,31.779,31.838,58.124-.076,40.9-30.87,78.374-68.766,83.7a58.806,58.806,0,0,1-36.649-6.3q27.453,14.934,54.912,29.868a58.8,58.8,0,0,0,36.651,6.3c37.893-5.326,68.69-42.8,68.766-83.7C1853.147,623.252,1840.44,601.9,1821.263,591.471Z" transform="translate(-17299.867 -2596.075)" fill="#0d1b3a"/>
    <path id="Path_5427" data-name="Path 5427" d="M1886.435,534.891c-24.454-13.3-53.469-18.92-84.6-14.542-87.47,12.293-158.522,98.791-158.7,193.2-.076,39.951,12.563,74.905,33.81,101.039q1.749,2.168,3.586,4.228l120.614,141.973,54.915,29.873L1735.446,848.693q-1.837-2.062-3.584-4.228c-21.247-26.137-33.886-61.088-33.812-101.04.177-94.415,71.225-180.913,158.7-193.2,31.132-4.375,60.147,1.24,84.6,14.54Q1913.893,549.827,1886.435,534.891Z" transform="translate(-17371.824 -2657.999)" fill="#0d1b3a"/>
    <g id="Group_2667" data-name="Group 2667" transform="translate(-15673.775 -2109.239)">
      <path id="Path_5428" data-name="Path 5428" d="M1824.251,532.542c87.47-12.293,158.235,54.273,158.063,148.683-.081,41.389-13.778,81.26-36.522,114.016L1823.565,972.987,1702.949,831.014q-1.837-2.062-3.584-4.229c-21.247-26.137-33.886-61.088-33.812-101.04C1665.73,631.33,1736.779,544.833,1824.251,532.542Zm-.456,245c37.893-5.326,68.69-42.8,68.766-83.7s-30.6-69.751-68.489-64.422-68.675,42.81-68.751,83.712,30.578,69.734,68.474,64.41Z" transform="translate(-1665.553 -531.08)" fill="#1a3a81"/>
    </g>
    <g id="Group_2680" data-name="Group 2680" transform="translate(-17295.789 -897.522)">
      <path id="Path_5437" data-name="Path 5437" d="M1016.051,1089.937h-12.6V1085.7h30.218v4.238h-12.6v33.555h-5.022Z" transform="translate(-1003.452 -1085.699)" fill="#a2a2a2"/>
      <path id="Path_5438" data-name="Path 5438" d="M1015.137,1090.336h4.233v5.767h.105c2.168-4.393,5.186-6.561,10.054-6.4v4.762c-7.249,0-9.895,4.125-9.895,11.058V1117.7h-4.5Z" transform="translate(-986.511 -1079.907)" fill="#a2a2a2"/>
      <path id="Path_5439" data-name="Path 5439" d="M1047.507,1117.588a6.017,6.017,0,0,1-3.224.742c-2.325,0-3.809-1.271-3.809-4.238a12.134,12.134,0,0,1-9.635,4.238c-4.973,0-9.05-2.222-9.05-7.672,0-6.2,4.6-7.519,9.262-8.418,4.973-.951,9.211-.635,9.211-4.02,0-3.917-3.234-4.554-6.085-4.554-3.814,0-6.619,1.163-6.832,5.186h-4.5c.26-6.774,5.507-9.155,11.59-9.155,4.922,0,10.27,1.112,10.27,7.516v14.081c0,2.114,0,3.07,1.433,3.07a3.741,3.741,0,0,0,1.367-.272Zm-7.3-14.025c-1.747,1.271-5.139,1.32-8.155,1.854-2.964.526-5.5,1.585-5.5,4.924,0,2.959,2.538,4.023,5.294,4.023,5.923,0,8.364-3.706,8.364-6.2Z" transform="translate(-976.867 -1079.902)" fill="#a2a2a2"/>
      <path id="Path_5440" data-name="Path 5440" d="M1053.446,1099.116c-.691-3.442-3.065-5.451-6.771-5.451-6.514,0-8.528,5.132-8.528,10.7,0,5.022,2.283,10,8,10,4.341,0,6.933-2.548,7.516-6.673h4.606c-1.007,6.673-5.189,10.639-12.065,10.639-8.368,0-12.812-5.823-12.812-13.969,0-8.207,4.233-14.664,12.916-14.664,6.191,0,11.166,2.913,11.806,9.419Z" transform="translate(-960.052 -1079.902)" fill="#a2a2a2"/>
      <path id="Path_5441" data-name="Path 5441" d="M1045.7,1085.7h4.5v22.389l12.489-11.96h6.034l-10.848,9.948,11.642,17.416H1063.8l-9.363-14.29-4.236,3.915v10.375h-4.5Z" transform="translate(-942.206 -1085.699)" fill="#a2a2a2"/>
      <path id="Path_5442" data-name="Path 5442" d="M1061.4,1091.2h-4.493v-5.5h4.493Zm-4.493,4.927h4.493v27.364h-4.493Z" transform="translate(-925.949 -1085.699)" fill="#a2a2a2"/>
      <path id="Path_5443" data-name="Path 5443" d="M1061.594,1090.331h4.233v4.339h.105a9.537,9.537,0,0,1,8.9-4.973c7.2,0,9.422,4.128,9.422,10v18h-4.5v-18.523a5.156,5.156,0,0,0-5.556-5.507c-5.453,0-8.1,3.653-8.1,8.574V1117.7h-4.5Z" transform="translate(-919.158 -1079.902)" fill="#a2a2a2"/>
      <path id="Path_5444" data-name="Path 5444" d="M1098.084,1115.366c0,8.893-4.072,13.444-12.7,13.444-5.137,0-11.061-2.065-11.328-8.045h4.5c.211,3.285,4.128,4.442,7.092,4.442,5.872,0,8.2-4.229,8.2-10.37v-1.8h-.11c-1.48,3.332-5.078,4.976-8.523,4.976-8.153,0-12.224-6.4-12.224-13.868,0-6.46,3.177-14.449,12.653-14.449a8.917,8.917,0,0,1,8.141,4.549h.064v-3.915h4.229Zm-4.449-11.914c0-4.811-2.112-9.787-7.776-9.787-5.769,0-8.1,4.708-8.1,9.949,0,4.924,1.8,10.431,7.726,10.431S1093.635,1108.59,1093.635,1103.452Z" transform="translate(-902.624 -1079.902)" fill="#a2a2a2"/>
    </g>
    <g id="Group_2682" data-name="Group 2682" transform="translate(-16344.318 -489.086)">
      <path id="Path_5446" data-name="Path 5446" d="M1391.839,1272.421h11.068c2.7,0,6.24,0,8.082,1.11a7.231,7.231,0,0,1,3.591,6.367,7.053,7.053,0,0,1-4.53,6.842v.083c3.763.771,5.811,3.591,5.811,7.354,0,4.491-3.206,8.765-9.275,8.765h-14.748Zm4.059,13.121h8.126c4.61,0,6.5-1.668,6.5-4.873,0-4.233-3-4.833-6.5-4.833H1395.9Zm0,13.976h10.174c3.511,0,5.73-2.139,5.73-5.47,0-3.974-3.2-5.086-6.632-5.086H1395.9Z" transform="translate(-1391.839 -1272.421)" fill="#f2f2f2"/>
    </g>
    <g id="Group_2683" data-name="Group 2683" transform="translate(-18022.027 -555.855)">
      <rect id="Rectangle_95" data-name="Rectangle 95" width="1687.965" height="13.962" transform="translate(0 0)" fill="#ec691f"/>
    </g>
    <g id="Group_2684" data-name="Group 2684" transform="translate(-18044.84 -573.857)">
      <path id="Path_5447" data-name="Path 5447" d="M743.32,1260.628a22.814,22.814,0,1,1-22.81-22.81A22.811,22.811,0,0,1,743.32,1260.628Z" transform="translate(-697.692 -1237.818)" fill="#929292"/>
    </g>
    <g id="Group_2685" data-name="Group 2685" transform="translate(-16356.207 -573.857)">
      <path id="Path_5448" data-name="Path 5448" d="M1432.614,1260.628a22.814,22.814,0,1,1-22.813-22.81A22.812,22.812,0,0,1,1432.614,1260.628Z" transform="translate(-1386.986 -1237.818)" fill="#929292"/>
    </g>
    <g id="Group_2686" data-name="Group 2686" transform="translate(-17674.777 -571.623)">
      <path id="Path_5449" data-name="Path 5449" d="M889.909,1259.306a20.58,20.58,0,1,1-20.576-20.576A20.578,20.578,0,0,1,889.909,1259.306Z" transform="translate(-848.75 -1238.73)" fill="#ec691f"/>
    </g>
    <g id="Group_2687" data-name="Group 2687" transform="translate(-17666.314 -563.164)">
      <path id="Path_5450" data-name="Path 5450" d="M876.448,1254.3a12.122,12.122,0,1,1-12.124-12.117A12.128,12.128,0,0,1,876.448,1254.3Z" transform="translate(-852.205 -1242.183)" fill="#929292"/>
    </g>
    <g id="Group_2688" data-name="Group 2688" transform="translate(-18057.816 -680.396)">
      <path id="Path_5451" data-name="Path 5451" d="M692.4,1194.329h12.962c11.641,0,18.158,5.821,18.158,18,0,12.646-5.561,19.79-18.158,19.79H692.4Zm5.022,33.557h8.364c3.442,0,12.7-.953,12.7-14.87,0-9-3.334-14.452-12.6-14.452h-8.466Z" transform="translate(-692.395 -1194.329)" fill="#a2a2a2"/>
      <path id="Path_5452" data-name="Path 5452" d="M711.9,1199.836h-4.5v-5.507h4.5Zm-4.5,4.929h4.5v27.357h-4.5Z" transform="translate(-670.633 -1194.329)" fill="#a2a2a2"/>
      <path id="Path_5453" data-name="Path 5453" d="M715.882,1217.69c.154,4.03,3.648,5.3,7.354,5.3,2.8,0,6.614-.637,6.614-4.077,0-3.491-4.449-4.076-8.942-5.078-4.451-1-8.946-2.489-8.946-7.727,0-5.5,5.448-7.778,10.213-7.778,6.029,0,10.848,1.9,11.22,8.57h-4.5c-.318-3.494-3.381-4.6-6.348-4.6-2.695,0-5.823.737-5.823,3.493,0,3.224,4.765,3.758,8.949,4.76,4.5,1.012,8.944,2.491,8.944,7.785,0,6.507-6.09,8.623-11.646,8.623-6.137,0-11.325-2.489-11.592-9.267Z" transform="translate(-664.875 -1188.53)" fill="#a2a2a2"/>
      <path id="Path_5454" data-name="Path 5454" d="M730.858,1203.45h5.451v3.966h-5.451v16.989c0,2.065.585,2.43,3.388,2.43h2.063v3.971h-3.435c-4.665,0-6.517-.953-6.517-5.982v-17.408H721.7v-3.966h4.657v-8.214h4.5Z" transform="translate(-649.907 -1193.014)" fill="#a2a2a2"/>
      <path id="Path_5455" data-name="Path 5455" d="M754.809,1226.22a6.046,6.046,0,0,1-3.229.738c-2.327,0-3.809-1.272-3.809-4.238a12.139,12.139,0,0,1-9.638,4.238c-4.966,0-9.045-2.224-9.045-7.67,0-6.2,4.6-7.519,9.26-8.422,4.976-.948,9.206-.632,9.206-4.015,0-3.917-3.224-4.554-6.085-4.554-3.814,0-6.615,1.161-6.83,5.186h-4.5c.262-6.771,5.5-9.152,11.588-9.152,4.929,0,10.267,1.11,10.267,7.506v14.086c0,2.116,0,3.067,1.433,3.067a3.74,3.74,0,0,0,1.377-.269ZM747.5,1212.2c-1.742,1.271-5.135,1.318-8.151,1.847-2.967.534-5.507,1.587-5.507,4.929,0,2.957,2.54,4.018,5.3,4.018,5.921,0,8.356-3.7,8.356-6.191Z" transform="translate(-639.196 -1188.53)" fill="#a2a2a2"/>
      <path id="Path_5456" data-name="Path 5456" d="M741.291,1198.966h4.238v4.331h.1a9.521,9.521,0,0,1,8.888-4.968c7.2,0,9.424,4.128,9.424,10v18h-4.5V1207.8a5.162,5.162,0,0,0-5.559-5.507c-5.456,0-8.1,3.65-8.1,8.569v15.458h-4.5Z" transform="translate(-621.506 -1188.53)" fill="#a2a2a2"/>
      <path id="Path_5457" data-name="Path 5457" d="M772.754,1207.744c-.681-3.442-3.062-5.448-6.771-5.448-6.511,0-8.525,5.13-8.525,10.693,0,5.029,2.276,10,7.994,10,4.336,0,6.933-2.541,7.516-6.666h4.61c-1.014,6.666-5.193,10.635-12.073,10.635-8.363,0-12.81-5.823-12.81-13.969,0-8.2,4.236-14.66,12.92-14.66,6.186,0,11.164,2.906,11.8,9.415Z" transform="translate(-604.972 -1188.53)" fill="#a2a2a2"/>
      <path id="Path_5458" data-name="Path 5458" d="M789.121,1217.641c-1.225,6.034-5.561,9.317-11.7,9.317-8.736,0-12.864-6.031-13.128-14.393,0-8.2,5.4-14.236,12.866-14.236,9.679,0,12.646,9.042,12.379,15.664H769.053c-.157,4.76,2.546,9,8.528,9,3.7,0,6.3-1.8,7.09-5.348Zm-4.346-7.616a7.873,7.873,0,0,0-7.884-7.729c-4.713,0-7.518,3.54-7.839,7.729Z" transform="translate(-588.157 -1188.53)" fill="#a2a2a2"/>
    </g>
    <g id="Group_2689" data-name="Group 2689" transform="translate(-18058.77 -815.027)">
      <path id="Path_5459" data-name="Path 5459" d="M692.006,1158.113c14.775.159,28.79-4.919,31.407-17.859h14.316v107.769H718.483v-76.051H692.006Z" transform="translate(-692.006 -1138.096)" fill="#a2a2a2"/>
      <path id="Path_5460" data-name="Path 5460" d="M755.9,1186.179c11.7.46,23.861-3.689,23.861-16.933,0-9.086-7.08-15.243-16.784-15.243-12.158,0-18.158,10.936-17.852,22.019H727.569c.926-20.941,14.008-36.649,35.716-36.649,16.783,0,34.028,9.711,34.028,28.8,0,10.776-4.927,19.4-15.243,23.089v.311c12.163,2.459,19.549,13.086,19.549,26.94,0,20.324-17.55,32.947-38.183,32.947-24.936,0-37.406-15.086-37.866-37.57h17.545c-.463,13.092,6.624,22.942,20.321,22.942,11.705,0,20.632-6.928,20.632-19.238,0-16.783-14.317-18.942-28.173-18.322Z" transform="translate(-643.345 -1139.373)" fill="#a2a2a2"/>
      <path id="Path_5461" data-name="Path 5461" d="M762.9,1175.762h21.4v20.782H762.9Z" transform="translate(-589.222 -1086.617)" fill="#a2a2a2"/>
      <path id="Path_5462" data-name="Path 5462" d="M854.217,1222.469H840.361v25.554H823.727v-25.554H777.548v-17.4l46.179-64.817h16.634v68.357h13.856Zm-63.126-13.858h32.636v-47.416h-.3Z" transform="translate(-567.987 -1138.096)" fill="#a2a2a2"/>
    </g>
    <g id="Group_2690" data-name="Group 2690" transform="translate(-17742.971 -760.084)">
      <path id="Path_5463" data-name="Path 5463" d="M820.914,1161.8h6.546v32.58l18.177-17.408h8.775l-15.784,14.476,16.943,25.336h-8.317L833.619,1196l-6.159,5.7v15.093h-6.546Z" transform="translate(-820.914 -1161.801)" fill="#a2a2a2"/>
      <path id="Path_5464" data-name="Path 5464" d="M837.066,1168.537h6.164v5.855h.155a14.664,14.664,0,0,1,12.861-6.774c4.846,0,9.319,1.92,10.931,6.774a14.73,14.73,0,0,1,12.479-6.774c7.932,0,13.244,3.307,13.244,11.544v29.187h-6.541v-26.1c0-4.929-1.313-8.856-7.707-8.856-6.315,0-10.392,4-10.392,10.167v24.792h-6.546v-26.1c0-5.164-1.617-8.856-7.472-8.856-7.783,0-10.63,7.158-10.63,10.167v24.792h-6.546Z" transform="translate(-797.497 -1153.366)" fill="#a2a2a2"/>
    </g>
    <g id="Group_2691" data-name="Group 2691" transform="translate(-16663.352 -680.396)">
      <path id="Path_5465" data-name="Path 5465" d="M1274.21,1198.565h-12.6v-4.236h30.226v4.236h-12.6v33.557h-5.029Z" transform="translate(-1261.611 -1194.329)" fill="#a2a2a2"/>
      <path id="Path_5466" data-name="Path 5466" d="M1298.066,1226.22a6.052,6.052,0,0,1-3.229.738c-2.325,0-3.807-1.272-3.807-4.238a12.132,12.132,0,0,1-9.635,4.238c-4.973,0-9.05-2.224-9.05-7.67,0-6.2,4.6-7.519,9.268-8.422,4.966-.948,9.206-.632,9.206-4.015,0-3.917-3.231-4.554-6.088-4.554-3.812,0-6.619,1.161-6.827,5.186h-4.5c.267-6.771,5.5-9.152,11.593-9.152,4.926,0,10.264,1.11,10.264,7.506v14.086c0,2.116,0,3.067,1.433,3.067a3.716,3.716,0,0,0,1.372-.269Zm-7.3-14.025c-1.747,1.271-5.135,1.318-8.153,1.847-2.964.534-5.5,1.587-5.5,4.929,0,2.957,2.538,4.018,5.292,4.018,5.924,0,8.364-3.7,8.364-6.191Z" transform="translate(-1246.047 -1188.53)" fill="#a2a2a2"/>
      <path id="Path_5467" data-name="Path 5467" d="M1284.656,1194.329h4.5v22.389l12.489-11.953h6.034l-10.853,9.946,11.646,17.411h-5.718l-9.368-14.285-4.231,3.907v10.377h-4.5Z" transform="translate(-1228.201 -1194.329)" fill="#a2a2a2"/>
      <path id="Path_5468" data-name="Path 5468" d="M1319.978,1217.641c-1.218,6.034-5.556,9.317-11.7,9.317-8.736,0-12.862-6.031-13.131-14.393,0-8.2,5.4-14.236,12.861-14.236,9.689,0,12.651,9.042,12.389,15.664h-20.485c-.157,4.76,2.545,9,8.528,9,3.7,0,6.3-1.8,7.094-5.348Zm-4.341-7.616a7.874,7.874,0,0,0-7.886-7.729c-4.708,0-7.519,3.54-7.834,7.729Z" transform="translate(-1212.983 -1188.53)" fill="#a2a2a2"/>
      <path id="Path_5469" data-name="Path 5469" d="M1321.331,1203.45h5.451v3.966h-5.451v16.989c0,2.065.583,2.43,3.388,2.43h2.063v3.971h-3.442c-4.655,0-6.507-.953-6.507-5.982v-17.408h-4.662v-3.966h4.662v-8.214h4.5Z" transform="translate(-1188.309 -1193.014)" fill="#a2a2a2"/>
      <path id="Path_5470" data-name="Path 5470" d="M1324.769,1199.836h-4.5v-5.507h4.5Zm-4.5,4.929h4.5v27.357h-4.5Z" transform="translate(-1176.566 -1194.329)" fill="#a2a2a2"/>
      <path id="Path_5471" data-name="Path 5471" d="M1324.959,1198.966h4.229v4.015h.105a10.1,10.1,0,0,1,8.841-4.652c3.336,0,6.4,1.318,7.518,4.652a10.116,10.116,0,0,1,8.57-4.652c5.456,0,9.106,2.273,9.106,7.932v20.061h-4.493v-17.945c0-3.381-.9-6.083-5.3-6.083-4.341,0-7.144,2.749-7.144,6.984v17.043h-4.5v-17.945c0-3.543-1.112-6.083-5.13-6.083-5.343,0-7.308,4.922-7.308,6.984v17.043h-4.5Z" transform="translate(-1169.769 -1188.53)" fill="#a2a2a2"/>
      <path id="Path_5472" data-name="Path 5472" d="M1367.6,1217.641c-1.22,6.034-5.559,9.317-11.7,9.317-8.738,0-12.861-6.031-13.126-14.393,0-8.2,5.394-14.236,12.861-14.236,9.682,0,12.648,9.042,12.379,15.664h-20.483c-.159,4.76,2.545,9,8.525,9,3.7,0,6.3-1.8,7.092-5.348Zm-4.344-7.616a7.872,7.872,0,0,0-7.886-7.729c-4.709,0-7.516,3.54-7.837,7.729Z" transform="translate(-1143.936 -1188.53)" fill="#a2a2a2"/>
    </g>
    <g id="Group_2692" data-name="Group 2692" transform="translate(-16659.387 -815.027)">
      <path id="Path_5473" data-name="Path 5473" d="M1293.558,1186.179c11.7.46,23.863-3.689,23.863-16.933,0-9.086-7.077-15.243-16.781-15.243-12.158,0-18.168,10.936-17.857,22.019h-17.548c.921-20.941,14.008-36.649,35.713-36.649,16.781,0,34.023,9.711,34.023,28.8,0,10.776-4.919,19.4-15.238,23.089v.311c12.161,2.459,19.552,13.086,19.552,26.94,0,20.324-17.555,32.947-38.183,32.947-24.936,0-37.416-15.086-37.874-37.57h17.553c-.463,13.092,6.624,22.942,20.321,22.942,11.7,0,20.627-6.928,20.627-19.238,0-16.783-14.314-18.942-28.173-18.322Z" transform="translate(-1263.229 -1139.373)" fill="#a2a2a2"/>
      <path id="Path_5474" data-name="Path 5474" d="M1373.006,1195.422c0,24.476-6.311,56.037-37.259,56.037s-37.259-31.561-37.259-56.037,6.311-56.049,37.259-56.049S1373.006,1170.946,1373.006,1195.422Zm-17.55,0c0-22.482-4.314-41.419-19.708-41.419s-19.709,18.937-19.709,41.419,4.312,41.409,19.709,41.409S1355.455,1217.9,1355.455,1195.422Z" transform="translate(-1212.11 -1139.373)" fill="#a2a2a2"/>
    </g>
    <g id="Group_2693" data-name="Group 2693" transform="translate(-16477.453 -760.084)">
      <path id="Path_5475" data-name="Path 5475" d="M1337.494,1168.537h6.161v5.855h.154a14.658,14.658,0,0,1,12.862-6.774c4.851,0,9.317,1.92,10.936,6.774a14.723,14.723,0,0,1,12.477-6.774c7.927,0,13.244,3.307,13.244,11.544v29.187h-6.546v-26.1c0-4.929-1.308-8.856-7.7-8.856-6.313,0-10.395,4-10.395,10.167v24.792h-6.546v-26.1c0-5.164-1.614-8.856-7.467-8.856-7.785,0-10.632,7.158-10.632,10.167v24.792h-6.546Z" transform="translate(-1337.494 -1153.366)" fill="#a2a2a2"/>
      <path id="Path_5476" data-name="Path 5476" d="M1371,1169.812h-6.546V1161.8H1371Zm-6.546,7.161H1371v39.812h-6.546Z" transform="translate(-1298.403 -1161.801)" fill="#a2a2a2"/>
      <path id="Path_5477" data-name="Path 5477" d="M1371.277,1168.537h6.159v6.313h.154c2.776-4.929,7.239-7.232,12.943-7.232,10.468,0,13.7,6,13.7,14.549v26.181H1397.7V1181.4c0-4.85-3.082-8.008-8.092-8.008-7.933,0-11.782,5.311-11.782,12.469v22.489h-6.546Z" transform="translate(-1288.515 -1153.366)" fill="#a2a2a2"/>
      <path id="Path_5478" data-name="Path 5478" d="M1394.259,1195.8c.23,5.847,5.311,7.695,10.7,7.695,4.079,0,9.628-.919,9.628-5.923,0-5.091-6.47-5.931-13.021-7.394-6.463-1.47-13.013-3.626-13.013-11.245,0-8.011,7.932-11.318,14.865-11.318,8.78,0,15.784,2.766,16.325,12.472H1413.2c-.458-5.079-4.931-6.7-9.238-6.7-3.93,0-8.474,1.075-8.474,5.078,0,4.7,6.93,5.473,13.016,6.933,6.544,1.462,13.019,3.616,13.019,11.32,0,9.473-8.861,12.555-16.948,12.555-8.935,0-16.475-3.619-16.862-13.474Z" transform="translate(-1264.687 -1153.366)" fill="#a2a2a2"/>
    </g>
    <path id="Path_5479" data-name="Path 5479" d="M1631.793,528.023H1314.769a68.1,68.1,0,0,0-68.095,68.095v1a68.094,68.094,0,0,0,68.095,68.095h37.247V768.1l69.54-102.892h210.237a68.094,68.094,0,0,0,68.094-68.095v-1A68.1,68.1,0,0,0,1631.793,528.023Z" transform="translate(-17946.617 -2644.752)" fill="#1a3a81"/>
    <g id="Group_2695" data-name="Group 2695" transform="translate(-16643.324 -2070.05)">
      <g id="Group_2694" data-name="Group 2694" transform="translate(0 0)">
        <rect id="Rectangle_96" data-name="Rectangle 96" width="4.9" height="36.747" transform="translate(220.207 4.768)" fill="#fff"/>
        <path id="Path_5480" data-name="Path 5480" d="M1377.27,582.385a12.2,12.2,0,0,0,11.935-9.226h-4.539a7.508,7.508,0,0,1-7.234,4.868c-6.1,0-8.854-4.868-8.7-9.767h20.9c.272-7.349-2.754-15.608-12.639-15.608-7.611,0-13.121,6.531-13.121,14.9C1364.149,576.087,1368.358,582.385,1377.27,582.385Zm-.541-24.456c4.542,0,7.832,2.981,8.048,7.881h-16.041C1369.061,560.91,1371.925,557.929,1376.729,557.929Z" transform="translate(-1133.373 -538.994)" fill="#fff"/>
        <path id="Path_5481" data-name="Path 5481" d="M1378.124,586.535h4.9V564.487h12.249v16.894c0,5.132,1.7,5.154,6.45,5.154h3.348v-2.45h-1.947c-2.861,0-2.952-1.031-2.952-3.136V564.487h4.9v-4.9h-4.9v-7.349h-4.9v7.349h-12.249v-3.912c0-2.428,1.916-3.133,4.133-3.133.809,0,.767.11,3.217.382v-4c-2.45-.27-2.883-.431-3.748-.431-5.025,0-8.5,2.374-8.5,6.911v4.182h-2.45v4.9h2.45Z" transform="translate(-1116.27 -545.021)" fill="#fff"/>
        <path id="Path_5482" data-name="Path 5482" d="M1315.544,585.77h5.132c.7-12.249,7.146-25.084,14.5-32.746v-4h-24.5v4.9h19.993C1322.622,561.272,1316.406,573.521,1315.544,585.77Z" transform="translate(-1210.507 -544.256)" fill="#fff"/>
        <path id="Path_5483" data-name="Path 5483" d="M1328.573,576.134l3.727-4.471,8.967,14.108h5.833l-11.883-17.283,11.072-9.665h-6.156L1328.573,571V549.023h-4.9V585.77h4.9Z" transform="translate(-1191.659 -544.255)" fill="#fff"/>
        <path id="Path_5484" data-name="Path 5484" d="M1339.573,563.864c0-2.1,1.773-7.127,7.234-7.127,4.1,0,5.015,2.594,5.015,6.213v17.357h4.9V563.864c0-4.317,2.641-7.127,7.07-7.127,4.481,0,5.179,2.756,5.179,6.213v17.357h4.9v-19.52c0-5.779-3.775-8-9.336-8a10.5,10.5,0,0,0-8.8,4.856c-1.134-3.405-4.267-4.549-7.67-4.549-3.528,0-6.448.27-8.494,4.118v1.044h-.527c.164-.392.351-.711.527-1.044v-3.856h-4.9v26.948h4.9Z" transform="translate(-1175.711 -538.793)" fill="#fff"/>
        <path id="Path_5485" data-name="Path 5485" d="M1301.878,598.684l19.39-51.607L1269.786,566.6l22.188,9.785Zm11.923-44.111L1301.538,587.2l-6.276-14.121-13.991-6.169Z" transform="translate(-1269.786 -547.077)" fill="#fff"/>
        <path id="Path_5486" data-name="Path 5486" d="M1336.985,555.641V554.6c-.176.333-.363.652-.527,1.044Z" transform="translate(-1173.123 -536.175)" fill="#fff"/>
      </g>
    </g>
    <g id="Group_2704" data-name="Group 2704" transform="translate(-19367.254 -2772.474)">
      <path id="Path_5514" data-name="Path 5514" d="M1161.307,981.157v-15.71h0c0-2.906,1.9-5.825,5.744-8.024L1355.529,848.6c7.685-4.435,20.155-4.428,27.857.019l406.1,234.479c3.827,2.189,5.728,5.079,5.745,7.96h.036v.063s-.016,0,0,.01V1107.2h0c0,2.9-1.921,5.824-5.781,8.033l-188.457,108.822c-7.685,4.431-20.155,4.431-27.838,0L1167.07,989.585c-4.016-2.316-5.885-5.4-5.713-8.427Z" transform="translate(-961.653 -349.711)" fill="#315271"/>
      <g id="Group_2699" data-name="Group 2699" transform="translate(121.341 556.274)">
        <path id="Path_5515" data-name="Path 5515" d="M1167.99,1037.986l-.056-.07a23.143,23.143,0,0,1-9.6,3.018c-22.265,1.974-50.77-23.3-63.655-56.434-10.762-27.767-7.11-52.2,7.49-60.566l-.052-.053,30.579-17.663.034.08a23,23,0,0,1,9.592-3.016c22.3-1.972,50.806,23.292,63.676,56.439,10.772,27.76,7.125,52.192-7.459,60.533l.05.067Z" transform="translate(-1086.532 -903.173)" fill="#315271"/>
        <path id="Path_5516" data-name="Path 5516" d="M1132.722,906.3l-.034-.08-30.579,17.664.052.053a23.2,23.2,0,0,0-7.405,6.8c-4.555,6.479-6.479,15.307-6.181,25.217l78.763-45.457C1154.573,902.637,1141.946,900.933,1132.722,906.3Z" transform="translate(-1086.528 -903.172)" opacity="0.3" style="mix-blend-mode: overlay;isolation: isolate"/>
        <path id="Path_5517" data-name="Path 5517" d="M1094.677,983.682c-12.84-33.127-5.205-61.585,17.078-63.563,22.3-1.981,50.786,23.283,63.658,56.429,12.871,33.13,5.222,61.6-17.082,63.567C1136.067,1042.09,1107.562,1016.819,1094.677,983.682Z" transform="translate(-1086.533 -902.355)" fill="#315271"/>
        <path id="Path_5518" data-name="Path 5518" d="M1094.677,983.682c-12.84-33.127-5.205-61.585,17.078-63.563,22.3-1.981,50.786,23.283,63.658,56.429,12.871,33.13,5.222,61.6-17.082,63.567C1136.067,1042.09,1107.562,1016.819,1094.677,983.682Z" transform="translate(-1086.533 -902.355)" fill="#fff" opacity="0.3" style="mix-blend-mode: overlay;isolation: isolate"/>
        <path id="Path_5519" data-name="Path 5519" d="M1092.544,985.763c-12.19-31.393-4.96-58.343,16.138-60.218,21.134-1.872,48.116,22.061,60.337,53.446,12.176,31.387,4.948,58.333-16.169,60.227C1131.733,1041.094,1104.734,1017.145,1092.544,985.763Z" transform="translate(-1086.621 -902.091)" fill="#315271"/>
        <path id="Path_5520" data-name="Path 5520" d="M1113.229,937.822c16.332-1.455,37.222,17.057,46.648,41.339s3.826,45.111-12.486,46.571c-16.363,1.441-37.233-17.054-46.647-41.331C1091.313,960.111,1096.883,939.277,1113.229,937.822Z" transform="translate(-1086.158 -901.493)" fill="#ededef" opacity="0.3"/>
        <path id="Path_5521" data-name="Path 5521" d="M1121.878,947.534c11.617-1.02,26.443,12.136,33.166,29.405,6.689,17.233,2.706,32.043-8.888,33.084s-26.475-12.131-33.167-29.376C1106.319,963.375,1110.263,948.566,1121.878,947.534Z" transform="translate(-1085.498 -901.021)" fill="#ededef" opacity="0.3"/>
        <path id="Path_5522" data-name="Path 5522" d="M1154.128,1019.673c.173-.117.345-.185.558-.315.174-.107.348-.193.524-.3.155-.111.365-.189.558-.339a4.717,4.717,0,0,0,.539-.289c.16-.1.368-.208.526-.315.173-.12.42-.224.578-.328,9.572-5.906,11.876-22.32,4.644-41.008-8.787-22.551-28.188-39.749-43.347-38.413a15.723,15.723,0,0,0-7.526,2.629,2.178,2.178,0,0,0-.525.315c-.176.1-.387.174-.577.295-.157.116-.365.21-.524.333-.172.1-.384.183-.556.287a5.255,5.255,0,0,1-.544.322c-.174.115-.382.211-.538.324-.192.111-.388.2-.561.309-9.554,5.915-11.878,22.368-4.645,41,8.768,22.533,28.171,39.771,43.345,38.405a15.787,15.787,0,0,0,7.511-2.6A4.5,4.5,0,0,0,1154.128,1019.673Zm3.663-16.148c-4.711-3.309-13.6-12.529-13.6-18.739a4.36,4.36,0,0,1,.507-2.112c4.595-.517,10.915,1.895,11.6,3.792,2.584,7.411,2.165,11.6,2.165,11.6A16.488,16.488,0,0,1,1157.791,1003.524Zm-50.872-46.1c4.736,3.291,13.622,12.547,13.622,18.748a4.379,4.379,0,0,1-.489,2.1c-4.594.5-10.9-1.9-11.577-3.825-2.619-7.376-2.185-11.552-2.185-11.552A16.7,16.7,0,0,1,1106.919,957.419Zm43.086,17.953a9.511,9.511,0,0,1-10.621-3.014c-3.964-4.886-3.6-12.929-2.216-17.621a33.654,33.654,0,0,1,7.16,6.915,41.138,41.138,0,0,1,6.636,11.171C1151.3,973.533,1150.858,974.447,1150.005,975.372Zm-21.044-.8a7.512,7.512,0,0,1,2.846,1.723c-.019.031-.052.1-.089.1a1.193,1.193,0,0,0-.541.333,1.055,1.055,0,0,0-.541.3,1.639,1.639,0,0,0-.542.311,1.364,1.364,0,0,0-.541.305,1.285,1.285,0,0,0-.527.264A7.476,7.476,0,0,1,1128.961,974.568Zm6.86,11.851a8.028,8.028,0,0,1-2.882-1.718c.037-.063.073-.079.109-.133a1.246,1.246,0,0,0,.524-.29,1.508,1.508,0,0,0,.558-.338,1.332,1.332,0,0,0,.541-.3,1.479,1.479,0,0,0,.542-.309,1.836,1.836,0,0,0,.525-.246A8.364,8.364,0,0,1,1135.821,986.419Zm-21.111-.863c3.388-1.032,7.631-.761,10.652,3.019,3.946,4.881,3.579,12.914,2.2,17.613a32.99,32.99,0,0,1-7.129-6.9,41.239,41.239,0,0,1-6.653-11.175C1113.452,987.4,1113.869,986.465,1114.71,985.556Zm-.945-39.254c.263-.312.543-.531.751-.793a6.718,6.718,0,0,1,1.534-.164s3.129-.861,8.823,2.1c1.85.952,4.821,13.325,3.141,19C1121.745,964.045,1112.612,947.709,1113.765,946.3Zm37.216,68.349c-.261.295-.525.515-.767.778a6.83,6.83,0,0,1-1.519.154s-3.125.894-8.838-2.093c-1.835-.961-4.786-13.3-3.145-19.019C1142.985,996.9,1152.136,1013.22,1150.981,1014.651Z" transform="translate(-1086.046 -901.467)" fill="#ededef"/>
        <path id="Path_5523" data-name="Path 5523" d="M1154.128,1019.673c.173-.117.345-.185.558-.315.174-.107.348-.193.524-.3.155-.111.365-.189.558-.339a4.717,4.717,0,0,0,.539-.289c.16-.1.368-.208.526-.315.173-.12.42-.224.578-.328,9.572-5.906,11.876-22.32,4.644-41.008-8.787-22.551-28.188-39.749-43.347-38.413a15.723,15.723,0,0,0-7.526,2.629,2.178,2.178,0,0,0-.525.315c-.176.1-.387.174-.577.295-.157.116-.365.21-.524.333-.172.1-.384.183-.556.287a5.255,5.255,0,0,1-.544.322c-.174.115-.382.211-.538.324-.192.111-.388.2-.561.309-9.554,5.915-11.878,22.368-4.645,41,8.768,22.533,28.171,39.771,43.345,38.405a15.787,15.787,0,0,0,7.511-2.6A4.5,4.5,0,0,0,1154.128,1019.673Zm3.663-16.148c-4.711-3.309-13.6-12.529-13.6-18.739a4.36,4.36,0,0,1,.507-2.112c4.595-.517,10.915,1.895,11.6,3.792,2.584,7.411,2.165,11.6,2.165,11.6A16.488,16.488,0,0,1,1157.791,1003.524Zm-50.872-46.1c4.736,3.291,13.622,12.547,13.622,18.748a4.379,4.379,0,0,1-.489,2.1c-4.594.5-10.9-1.9-11.577-3.825-2.619-7.376-2.185-11.552-2.185-11.552A16.7,16.7,0,0,1,1106.919,957.419Zm43.086,17.953a9.511,9.511,0,0,1-10.621-3.014c-3.964-4.886-3.6-12.929-2.216-17.621a33.654,33.654,0,0,1,7.16,6.915,41.138,41.138,0,0,1,6.636,11.171C1151.3,973.533,1150.858,974.447,1150.005,975.372Zm-21.044-.8a7.512,7.512,0,0,1,2.846,1.723c-.019.031-.052.1-.089.1a1.193,1.193,0,0,0-.541.333,1.055,1.055,0,0,0-.541.3,1.639,1.639,0,0,0-.542.311,1.364,1.364,0,0,0-.541.305,1.285,1.285,0,0,0-.527.264A7.476,7.476,0,0,1,1128.961,974.568Zm6.86,11.851a8.028,8.028,0,0,1-2.882-1.718c.037-.063.073-.079.109-.133a1.246,1.246,0,0,0,.524-.29,1.508,1.508,0,0,0,.558-.338,1.332,1.332,0,0,0,.541-.3,1.479,1.479,0,0,0,.542-.309,1.836,1.836,0,0,0,.525-.246A8.364,8.364,0,0,1,1135.821,986.419Zm-21.111-.863c3.388-1.032,7.631-.761,10.652,3.019,3.946,4.881,3.579,12.914,2.2,17.613a32.99,32.99,0,0,1-7.129-6.9,41.239,41.239,0,0,1-6.653-11.175C1113.452,987.4,1113.869,986.465,1114.71,985.556Zm-.945-39.254c.263-.312.543-.531.751-.793a6.718,6.718,0,0,1,1.534-.164s3.129-.861,8.823,2.1c1.85.952,4.821,13.325,3.141,19C1121.745,964.045,1112.612,947.709,1113.765,946.3Zm37.216,68.349c-.261.295-.525.515-.767.778a6.83,6.83,0,0,1-1.519.154s-3.125.894-8.838-2.093c-1.835-.961-4.786-13.3-3.145-19.019C1142.985,996.9,1152.136,1013.22,1150.981,1014.651Z" transform="translate(-1086.046 -901.467)" style="mix-blend-mode: overlay;isolation: isolate"/>
        <path id="Path_5524" data-name="Path 5524" d="M1102.712,984.063c8.768,22.533,28.171,39.771,43.345,38.406,15.193-1.326,20.365-20.692,11.634-43.258-8.768-22.552-28.19-39.765-43.347-38.422C1099.147,942.135,1093.944,961.511,1102.712,984.063Zm17.83-8.013c-.017,8.165-15.387,3.851-16.45.8-2.6-7.405-2.184-11.571-2.184-11.571a16.633,16.633,0,0,1,2.2-9.063C1105.154,954.438,1120.524,967.876,1120.541,976.05Zm4.838-6.835c-6.147.53-17.272-18.971-15.981-20.5,3.11-3.756,6.653-3.483,6.653-3.483s3.129-.861,8.823,2.1C1127.267,948.558,1131.511,968.662,1125.379,969.215Zm1.939,4.973c2.757-.237,6.3,2.893,7.858,7.013,1.625,4.114.645,7.613-2.093,7.859-2.76.271-6.307-2.89-7.895-6.969C1123.6,977.954,1124.541,974.426,1127.318,974.189Zm23.647-1.483c1.293,3.03-9.832,9.693-15.943,2.052-6.151-7.6-1.906-22.825.452-21.3a33.714,33.714,0,0,1,8.854,8.076A41.133,41.133,0,0,1,1150.965,972.705Zm-11.141,14.485c0-8.208,15.387-3.874,16.467-.843,2.583,7.411,2.165,11.6,2.165,11.6a16.616,16.616,0,0,1-2.179,9.026C1155.211,1008.8,1139.824,995.349,1139.824,987.19ZM1135,994.036c6.131-.556,17.255,18.915,15.979,20.5-3.125,3.731-6.653,3.485-6.653,3.485s-3.127.812-8.854-2.132C1133.133,1014.663,1128.889,994.564,1135,994.036Zm-18.951,7.668a42.047,42.047,0,0,1-6.653-11.179c-1.31-3.045,9.85-9.658,15.964-2.069,6.111,7.641,1.866,22.8-.488,21.3A33.553,33.553,0,0,1,1116.051,1001.7Zm11.721-19.864c-.766-1.982-.315-3.686,1.013-3.819,1.343-.121,3.071,1.417,3.822,3.4.788,1.981.314,3.712-.991,3.833C1130.251,985.349,1128.54,983.839,1127.772,981.84Z" transform="translate(-1086.047 -901.349)" fill="#ededef"/>
        <path id="Path_5525" data-name="Path 5525" d="M1169.019,978.991c-12.22-31.385-39.2-55.318-60.337-53.446-21.1,1.875-28.327,28.826-16.138,60.218s39.189,55.332,60.305,53.456C1173.967,1037.324,1181.2,1010.378,1169.019,978.991Zm-21.165,47.339c-16.363,1.441-37.233-17.054-46.646-41.331-9.432-24.29-3.862-45.125,12.485-46.579,16.331-1.455,37.221,17.056,46.648,41.339S1164.167,1024.871,1147.854,1026.33Z" transform="translate(-1086.622 -902.091)" fill="#315271"/>
      </g>
      <path id="Path_5526" data-name="Path 5526" d="M1494.609,852.93,970.9,550.577l308.126-177.9,523.723,302.362Z" transform="translate(-970.903 -372.673)" fill="#ffdfcc"/>
      <path id="Path_5528" data-name="Path 5528" d="M1778.487,661.026V987.777l-308.143,177.88V838.921Z" transform="translate(-946.641 -358.663)" fill="#fed4bd"/>
      <path id="Path_5530" data-name="Path 5530" d="M970.9,542.334V869.086l523.706,302.338V844.687Z" transform="translate(-970.903 -364.428)" fill="#ffe9dc"/>
      <g id="Group_2703" data-name="Group 2703" transform="translate(563.157 461.007)">
        <g id="Group_2701" data-name="Group 2701" transform="translate(14.585 358.776)">
          <path id="Path_5531" data-name="Path 5531" d="M1603.244,1289.29l-.036-.087a22.948,22.948,0,0,1-9.623,3.031c-22.267,1.971-50.771-23.3-63.656-56.43-10.759-27.782-7.094-52.19,7.491-60.566l-.034-.048,30.578-17.68.037.082a23.062,23.062,0,0,1,9.584-3.006c22.3-1.981,50.808,23.272,63.661,56.42,10.793,27.772,7.141,52.209-7.474,60.531l.07.068Z" transform="translate(-1521.79 -1154.475)" fill="#315271"/>
          <path id="Path_5532" data-name="Path 5532" d="M1529.928,1234.985c-12.821-33.112-5.189-61.581,17.08-63.567,22.3-2,50.786,23.282,63.657,56.424,12.89,33.151,5.24,61.6-17.082,63.573C1571.318,1293.386,1542.813,1268.119,1529.928,1234.985Z" transform="translate(-1521.79 -1153.657)" fill="#315271"/>
          <path id="Path_5533" data-name="Path 5533" d="M1529.928,1234.985c-12.821-33.112-5.189-61.581,17.08-63.567,22.3-2,50.786,23.282,63.657,56.424,12.89,33.151,5.24,61.6-17.082,63.573C1571.318,1293.386,1542.813,1268.119,1529.928,1234.985Z" transform="translate(-1521.79 -1153.657)" fill="#fff" opacity="0.3" style="mix-blend-mode: overlay;isolation: isolate"/>
          <path id="Path_5534" data-name="Path 5534" d="M1527.8,1237.056c-12.192-31.388-4.942-58.338,16.152-60.208,21.134-1.871,48.1,22.064,60.341,53.446,12.19,31.392,4.942,58.343-16.189,60.209C1567.006,1292.388,1540.007,1268.429,1527.8,1237.056Z" transform="translate(-1521.879 -1153.393)" fill="#315271"/>
          <path id="Path_5535" data-name="Path 5535" d="M1548.5,1189.12c16.309-1.449,37.216,17.072,46.629,41.315,9.447,24.288,3.84,45.153-12.49,46.6s-37.214-17.062-46.65-41.339C1526.581,1211.4,1532.156,1190.566,1548.5,1189.12Z" transform="translate(-1521.415 -1152.795)" fill="#ededef" opacity="0.3"/>
          <path id="Path_5536" data-name="Path 5536" d="M1557.132,1198.828c11.631-1.03,26.457,12.136,33.182,29.4,6.69,17.261,2.708,32.04-8.891,33.1-11.615,1.03-26.475-12.117-33.164-29.4C1541.588,1214.676,1545.534,1199.853,1557.132,1198.828Z" transform="translate(-1520.755 -1152.323)" fill="#ededef" opacity="0.3"/>
          <path id="Path_5537" data-name="Path 5537" d="M1589.393,1270.981c.162-.117.352-.189.541-.315s.368-.208.542-.329a6.134,6.134,0,0,0,.542-.323,5.871,5.871,0,0,0,.557-.291c.159-.121.371-.193.524-.315.177-.121.407-.217.561-.328,9.572-5.906,11.859-22.34,4.647-40.991-8.771-22.562-28.172-39.779-43.348-38.426a15.8,15.8,0,0,0-7.528,2.625,3.218,3.218,0,0,0-.522.324c-.16.091-.387.183-.561.285-.177.126-.367.2-.558.333-.16.111-.368.184-.539.314a5.015,5.015,0,0,1-.53.3c-.174.116-.381.2-.553.333-.177.111-.386.193-.544.315-9.536,5.9-11.895,22.354-4.664,40.99,8.785,22.529,28.188,39.754,43.347,38.4a15.508,15.508,0,0,0,7.544-2.6C1589.028,1271.193,1589.187,1271.106,1589.393,1270.981Zm3.671-16.159c-4.734-3.291-13.607-12.533-13.607-18.734a4.721,4.721,0,0,1,.506-2.131c4.58-.5,10.9,1.9,11.581,3.809,2.6,7.414,2.166,11.6,2.166,11.6A16.922,16.922,0,0,1,1593.064,1254.823Zm-50.875-46.1c4.734,3.277,13.622,12.542,13.622,18.74a4.115,4.115,0,0,1-.488,2.1c-4.612.493-10.917-1.889-11.6-3.79-2.617-7.413-2.18-11.581-2.18-11.581A16.874,16.874,0,0,1,1542.189,1208.723Zm43.07,17.946a9.5,9.5,0,0,1-10.622-3.015c-3.963-4.886-3.562-12.925-2.2-17.622a33.437,33.437,0,0,1,7.125,6.916,40.74,40.74,0,0,1,6.651,11.16C1586.546,1224.823,1586.131,1225.769,1585.258,1226.668Zm-21.044-.8a7.25,7.25,0,0,1,2.846,1.706c-.019.044-.039.111-.073.12a1.2,1.2,0,0,0-.524.324.87.87,0,0,0-.558.324,1.158,1.158,0,0,0-.558.3,1.948,1.948,0,0,0-.559.285c-.176.1-.369.116-.491.257A7.423,7.423,0,0,1,1564.214,1225.871Zm6.878,11.842a7.581,7.581,0,0,1-2.884-1.725c.02-.054.054-.063.107-.126a1.431,1.431,0,0,0,.524-.287,1.736,1.736,0,0,0,.543-.323,1.338,1.338,0,0,0,.539-.334,1.241,1.241,0,0,0,.544-.29,1.48,1.48,0,0,0,.524-.251A8.394,8.394,0,0,1,1571.092,1237.713Zm-21.115-.856c3.386-1.019,7.615-.749,10.654,3.016,3.93,4.886,3.562,12.919,2.2,17.608a32.321,32.321,0,0,1-7.124-6.907,40.774,40.774,0,0,1-6.67-11.183C1548.7,1238.689,1549.119,1237.766,1549.978,1236.857Zm-.943-39.261c.244-.295.524-.537.735-.8a6.955,6.955,0,0,1,1.554-.14s3.122-.856,8.8,2.089c1.867.962,4.819,13.311,3.158,19.023C1557,1215.339,1547.862,1199.012,1549.035,1197.6Zm37.216,68.338c-.263.3-.522.528-.771.793a8.1,8.1,0,0,1-1.515.154s-3.145.87-8.855-2.116c-1.834-.938-4.77-13.253-3.144-19C1578.233,1248.191,1587.423,1264.523,1586.251,1265.934Z" transform="translate(-1521.303 -1152.769)" fill="#ededef"/>
          <path id="Path_5538" data-name="Path 5538" d="M1589.393,1270.981c.162-.117.352-.189.541-.315s.368-.208.542-.329a6.134,6.134,0,0,0,.542-.323,5.871,5.871,0,0,0,.557-.291c.159-.121.371-.193.524-.315.177-.121.407-.217.561-.328,9.572-5.906,11.859-22.34,4.647-40.991-8.771-22.562-28.172-39.779-43.348-38.426a15.8,15.8,0,0,0-7.528,2.625,3.218,3.218,0,0,0-.522.324c-.16.091-.387.183-.561.285-.177.126-.367.2-.558.333-.16.111-.368.184-.539.314a5.015,5.015,0,0,1-.53.3c-.174.116-.381.2-.553.333-.177.111-.386.193-.544.315-9.536,5.9-11.895,22.354-4.664,40.99,8.785,22.529,28.188,39.754,43.347,38.4a15.508,15.508,0,0,0,7.544-2.6C1589.028,1271.193,1589.187,1271.106,1589.393,1270.981Zm3.671-16.159c-4.734-3.291-13.607-12.533-13.607-18.734a4.721,4.721,0,0,1,.506-2.131c4.58-.5,10.9,1.9,11.581,3.809,2.6,7.414,2.166,11.6,2.166,11.6A16.922,16.922,0,0,1,1593.064,1254.823Zm-50.875-46.1c4.734,3.277,13.622,12.542,13.622,18.74a4.115,4.115,0,0,1-.488,2.1c-4.612.493-10.917-1.889-11.6-3.79-2.617-7.413-2.18-11.581-2.18-11.581A16.874,16.874,0,0,1,1542.189,1208.723Zm43.07,17.946a9.5,9.5,0,0,1-10.622-3.015c-3.963-4.886-3.562-12.925-2.2-17.622a33.437,33.437,0,0,1,7.125,6.916,40.74,40.74,0,0,1,6.651,11.16C1586.546,1224.823,1586.131,1225.769,1585.258,1226.668Zm-21.044-.8a7.25,7.25,0,0,1,2.846,1.706c-.019.044-.039.111-.073.12a1.2,1.2,0,0,0-.524.324.87.87,0,0,0-.558.324,1.158,1.158,0,0,0-.558.3,1.948,1.948,0,0,0-.559.285c-.176.1-.369.116-.491.257A7.423,7.423,0,0,1,1564.214,1225.871Zm6.878,11.842a7.581,7.581,0,0,1-2.884-1.725c.02-.054.054-.063.107-.126a1.431,1.431,0,0,0,.524-.287,1.736,1.736,0,0,0,.543-.323,1.338,1.338,0,0,0,.539-.334,1.241,1.241,0,0,0,.544-.29,1.48,1.48,0,0,0,.524-.251A8.394,8.394,0,0,1,1571.092,1237.713Zm-21.115-.856c3.386-1.019,7.615-.749,10.654,3.016,3.93,4.886,3.562,12.919,2.2,17.608a32.321,32.321,0,0,1-7.124-6.907,40.774,40.774,0,0,1-6.67-11.183C1548.7,1238.689,1549.119,1237.766,1549.978,1236.857Zm-.943-39.261c.244-.295.524-.537.735-.8a6.955,6.955,0,0,1,1.554-.14s3.122-.856,8.8,2.089c1.867.962,4.819,13.311,3.158,19.023C1557,1215.339,1547.862,1199.012,1549.035,1197.6Zm37.216,68.338c-.263.3-.522.528-.771.793a8.1,8.1,0,0,1-1.515.154s-3.145.87-8.855-2.116c-1.834-.938-4.77-13.253-3.144-19C1578.233,1248.191,1587.423,1264.523,1586.251,1265.934Z" transform="translate(-1521.303 -1152.769)" style="mix-blend-mode: overlay;isolation: isolate"/>
          <path id="Path_5539" data-name="Path 5539" d="M1537.962,1235.362c8.785,22.529,28.188,39.754,43.348,38.4,15.194-1.324,20.363-20.687,11.632-43.259-8.768-22.557-28.169-39.763-43.348-38.424S1529.214,1212.815,1537.962,1235.362Zm17.849-8.018c-.016,8.167-15.383,3.846-16.469.812-2.586-7.415-2.148-11.551-2.148-11.551a16.643,16.643,0,0,1,2.165-9.082C1540.428,1205.724,1555.795,1219.18,1555.811,1227.344Zm4.841-6.854c-6.167.552-17.277-18.946-16-20.5,3.13-3.752,6.673-3.452,6.673-3.452s3.122-.855,8.8,2.089C1562.515,1199.838,1566.762,1219.958,1560.652,1220.49Zm1.919,5.012c2.777-.252,6.305,2.876,7.876,7,1.608,4.093.646,7.617-2.1,7.859-2.777.251-6.286-2.88-7.893-6.98C1558.849,1229.258,1559.792,1225.72,1562.571,1225.5Zm23.645-1.512c1.312,3.021-9.815,9.7-15.946,2.064-6.146-7.609-1.885-22.809.472-21.3a33.419,33.419,0,0,1,8.823,8.072A40.755,40.755,0,0,1,1586.216,1223.99Zm-11.141,14.49c0-8.188,15.387-3.872,16.469-.831,2.6,7.414,2.165,11.595,2.165,11.595a16.548,16.548,0,0,1-2.165,9.047C1590.477,1260.075,1575.075,1246.643,1575.075,1238.48Zm-4.8,6.868c6.131-.576,17.221,18.9,15.982,20.468-3.125,3.731-6.687,3.5-6.687,3.5s-3.11.826-8.823-2.113C1568.385,1265.957,1564.158,1245.865,1570.27,1245.349Zm-18.965,7.66a43.245,43.245,0,0,1-6.653-11.184c-1.289-3.025,9.851-9.676,15.982-2.069,6.107,7.622,1.865,22.8-.508,21.3A33.819,33.819,0,0,1,1551.3,1253.008Zm11.721-19.865c-.769-1.991-.3-3.7,1.028-3.819s3.056,1.417,3.808,3.379c.8,2,.333,3.723-1,3.843C1565.519,1236.634,1563.808,1235.135,1563.026,1233.144Z" transform="translate(-1521.303 -1152.651)" fill="#ededef"/>
          <path id="Path_5540" data-name="Path 5540" d="M1604.292,1230.294c-12.242-31.382-39.208-55.317-60.341-53.446-21.094,1.871-28.344,28.82-16.152,60.208,12.209,31.373,39.208,55.332,60.3,53.447C1609.234,1288.637,1616.482,1261.686,1604.292,1230.294Zm-21.186,47.337c-16.345,1.436-37.215-17.061-46.65-41.339-9.412-24.291-3.836-45.129,12.51-46.574,16.31-1.449,37.216,17.072,46.63,41.315C1605.042,1255.32,1599.436,1276.186,1583.106,1277.631Z" transform="translate(-1521.879 -1153.393)" fill="#315271"/>
        </g>
        <path id="Path_5541" data-name="Path 5541" d="M1914.106,892.224c-9.57-16.565-35.839-37.323-78.048-61.7-6.621-3.823-12.4-7.022-17.5-9.744-28.415-16.128-51.417-5.162-60.985.043v-.009L1550.164,940.576c-14.861,8.7-38.036,24.8-41.688,62.591-.454,18.555-.611,45.588-.438,85.294.107,24.075.247,43.475.454,59.266l67.955,39.241c13.029,7.531,24.959,19.8,34.249,34.076l84.682,48.9,264.66-152.814c.679-16.961,1.027-37.116,1.027-58.634C1961.084,994.9,1928.83,917.686,1914.106,892.224Z" transform="translate(-1507.969 -812.322)" fill="#ededef"/>
        <path id="Path_5542" data-name="Path 5542" d="M1965.6,1164.831v-40.106s.02,0,.02-.016l-.02-.323h-.014c-.14-7.9-6.6-14.646-18.425-21.484l-8.574-4.94-270.108,155.947v40.648l8.576,4.935c38.4,22.17,75.291,11.755,182.889-50.349,74.694-43.147,106.2-66.569,105.642-84.312Z" transform="translate(-1500.171 -798.444)" fill="#315271"/>
        <path id="Path_5543" data-name="Path 5543" d="M1938.583,1097.962l8.574,4.94c38.4,22.18,20.346,43.471-87.217,105.584-107.6,62.113-144.469,72.558-182.889,50.358l-8.576-4.934Z" transform="translate(-1500.171 -798.444)" fill="#fff" opacity="0.3" style="mix-blend-mode: overlay;isolation: isolate"/>
        <path id="Path_5544" data-name="Path 5544" d="M1959.263,1048.834c-.121-7.859-6.493-14.573-18.282-21.359l-267.573,154.492v70.76c38.053,21.992,74.625,11.644,181.191-49.869,73.247-42.292,104.615-65.5,104.663-83h0l.02-71.028Z" transform="translate(-1499.932 -801.869)" fill="#ededef"/>
        <path id="Path_5545" data-name="Path 5545" d="M1854.6,1132.088c-106.567,61.523-143.138,71.848-181.191,49.88l267.573-154.492C1979.053,1049.443,1961.152,1070.569,1854.6,1132.088Z" transform="translate(-1499.932 -801.869)" fill="#fff" opacity="0.8" style="mix-blend-mode: overlay;isolation: isolate"/>
        <path id="Path_5546" data-name="Path 5546" d="M1649.449,1038.138c-9.57-16.557-35.818-37.321-78.051-61.692-25.061-14.479-38.544-20.373-46.158-22.485-8.174,9.845-14.93,23.35-16.764,42.325-.454,18.555-.611,45.588-.438,85.294.107,24.074.247,43.475.454,59.266l67.955,39.241c13.029,7.531,24.959,19.8,34.249,34.076l84.682,48.9c.672-16.965,1.016-37.139,1.034-58.638C1696.429,1140.826,1664.155,1063.616,1649.449,1038.138Z" transform="translate(-1507.969 -805.44)" fill="#ededef"/>
        <g id="Group_2702" data-name="Group 2702" transform="translate(13.821 165.27)">
          <path id="Path_5547" data-name="Path 5547" d="M1629.472,1272.179c0-34.186-24.009-75.772-53.666-92.868l-54.015-31.193c-1.121-70.127-1.015-176.122,2.286-178,6.374-3.678,101.362,49.319,114.953,72.866,14.2,24.551,42.928,96.111,42.928,152.695s-2.536,107.545-7.128,104.891c-2.042-1.169-22.233-12.822-45.457-26.23C1629.388,1273.614,1629.472,1272.923,1629.472,1272.179Z" transform="translate(-1521.15 -969.934)" fill="#dde8eb"/>
          <path id="Path_5548" data-name="Path 5548" d="M1533.455,1023.894V979.359c7.141,2.9,19.768,9.047,36.707,18.838,36.363,20.994,59.677,39.442,63.956,46.826,13.637,23.607,38.526,86.71,40.919,138.721-32.78-25.936-94.658-88.638-115.159-108.789C1531.514,1047.1,1533.455,1032.722,1533.455,1023.894Z" transform="translate(-1520.552 -969.476)" fill="#243c3f"/>
          <path id="Path_5549" data-name="Path 5549" d="M1527.955,1103.829a13.185,13.185,0,0,0,5.957,10.31l14.512,8.385c3.3,1.9,5.974.372,5.974-3.432h0a13.124,13.124,0,0,0-5.974-10.314l-14.512-8.381c-3.284-1.923-5.957-.367-5.957,3.432Z" transform="translate(-1520.819 -963.636)" fill="#315271"/>
        </g>
        <path id="Path_5550" data-name="Path 5550" d="M1629.472,1272.179c0-34.186-24.009-75.772-53.666-92.868l-54.015-31.193c-1.121-70.127-1.015-176.122,2.286-178,6.374-3.678,101.362,49.319,114.953,72.866,14.2,24.551,42.928,96.111,42.928,152.695s-2.536,107.545-7.128,104.891c-2.042-1.169-22.233-12.822-45.457-26.23C1629.388,1273.614,1629.472,1272.923,1629.472,1272.179Z" transform="translate(-1507.329 -804.664)" fill="#ededef"/>
        <path id="Path_5551" data-name="Path 5551" d="M1525.474,1028.945V974.606a48.277,48.277,0,0,1,8.33,4.984c7.583,5.266,17.9,13.344,29.674,20.144,36.344,20.984,58.4,42.956,62.681,50.345,13.62,23.61,51.255,93.065,49.266,145.014-32.78-25.945-103.022-94.936-123.522-115.081C1523.555,1052.154,1525.474,1037.773,1525.474,1028.945Z" transform="translate(-1507.12 -804.438)" fill="#fff" opacity="0.8" style="mix-blend-mode: overlay;isolation: isolate"/>
        <path id="Path_5552" data-name="Path 5552" d="M1533.455,1023.894V979.359c7.141,2.9,19.768,9.047,36.707,18.838,36.363,20.994,59.677,39.442,63.956,46.826,13.637,23.607,38.526,86.71,40.919,138.721-32.78-25.936-94.658-88.638-115.159-108.789C1531.514,1047.1,1533.455,1032.722,1533.455,1023.894Z" transform="translate(-1506.732 -804.206)" fill="#315271"/>
        <path id="Path_5553" data-name="Path 5553" d="M1536.649,984.25A351.011,351.011,0,0,1,1568.556,1001c35.486,20.468,58.838,38.787,62.768,45.65,12.364,21.344,35.819,79.852,40.027,129.943-28.135-23.413-72.3-67.289-96.784-91.625-4.978-4.924-9.2-9.134-12.42-12.3-25.758-25.3-25.6-38.456-25.5-47.178V984.25Zm-3.195-4.891v44.536c0,8.828-1.941,23.21,26.423,51.062,20.5,20.151,82.379,82.853,115.159,108.789-2.393-52.011-27.282-115.115-40.919-138.721-4.279-7.385-27.593-25.833-63.956-46.826-16.939-9.79-29.566-15.938-36.707-18.838Z" transform="translate(-1506.732 -804.206)" opacity="0.3" style="mix-blend-mode: overlay;isolation: isolate"/>
        <path id="Path_5554" data-name="Path 5554" d="M1527.955,1103.829a13.185,13.185,0,0,0,5.957,10.31l14.512,8.385c3.3,1.9,5.974.372,5.974-3.432h0a13.124,13.124,0,0,0-5.974-10.314l-14.512-8.381c-3.284-1.923-5.957-.367-5.957,3.432Z" transform="translate(-1506.998 -798.366)" fill="#315271"/>
        <path id="Path_5555" data-name="Path 5555" d="M1953.68,1037.107c-4.349-52.108-26.231-109.047-40.589-137.972-.174-.348-.4-.752-.611-1.211-6.706-14.226-19.174-9.5-24.746-6.3-2.775,1.617-49.79,36.508-106.5,69.255-56.5,32.6-122.65,63.074-125.99,64.979l-.261.137c-5.781,3.345-14.426,8.6-8.365,22.321.662,1.312,1.344,2.636,2.026,4.047l.016.022c14.3,28.953,35.853,85.3,40.291,137l-.509.294c.192.083.387.135.561.209v.014h.034a61.831,61.831,0,0,0,23.087,4.365c27.632,0,64.428-15.588,140.643-59.59,42.545-24.554,82.485-49.112,96.333-66.417l.019-.017C1956.039,1061,1955.146,1055.165,1953.68,1037.107Z" transform="translate(-1501.333 -808.634)" fill="#315271"/>
        <path id="Path_5556" data-name="Path 5556" d="M1899.034,891.434c4.594,0,8.052,2.578,10.548,7.861.245.522.471.976.629,1.273,16,32.217,36.117,87.375,40.256,136.8l.209,2.765c1.365,16.182,1.484,20.254-3.773,25.771l-.087.087-.1.143-.121.119c-13.816,17.274-55.993,42.875-95.424,65.64-75.641,43.67-112.019,59.16-139.04,59.141a58.245,58.245,0,0,1-20.1-3.447c-4.555-49.555-24.588-104.453-40.5-136.633l-.211-.474h-.019c-.609-1.218-1.2-2.4-1.778-3.528-4.541-10.4.3-14.234,7.109-18.168l.208-.131c.542-.295,3.808-1.87,7.949-3.851,19.731-9.491,72.141-34.626,118.041-61.151,46.6-26.869,86.2-54.9,101.1-65.45,2.669-1.9,4.992-3.526,5.431-3.782a20.545,20.545,0,0,1,9.673-2.984Zm0-3.214a23.773,23.773,0,0,0-11.3,3.407c-2.775,1.617-49.79,36.509-106.5,69.255-56.5,32.6-122.65,63.074-125.99,64.979l-.261.137c-5.781,3.345-14.426,8.6-8.365,22.321.662,1.312,1.344,2.636,2.026,4.048l.016.022c14.3,28.953,35.853,85.3,40.291,137l-.509.295c.192.083.387.135.561.209v.014h.034a61.833,61.833,0,0,0,23.087,4.365c27.632,0,64.428-15.588,140.643-59.59,42.545-24.554,82.485-49.112,96.333-66.417l.019-.017c6.917-7.245,6.024-13.079,4.558-31.137-4.349-52.108-26.231-109.046-40.589-137.971-.174-.348-.4-.752-.611-1.211-3.492-7.44-8.589-9.693-13.446-9.7Z" transform="translate(-1501.333 -808.634)" opacity="0.3" style="mix-blend-mode: overlay;isolation: isolate"/>
      </g>
    </g>
  </g>
</svg>
