<svg xmlns="http://www.w3.org/2000/svg" width="512" height="512" viewBox="0 0 512 512">
  <g id="ic_frustated_person" transform="translate(-8422 -6838)">
    <g id="Ellipse_817" data-name="Ellipse 817" transform="translate(8422 6838)" fill="none" stroke="#0d1b3a" stroke-width="8">
      <circle cx="256" cy="256" r="256" stroke="none"/>
      <circle cx="256" cy="256" r="252" fill="none"/>
    </g>
    <g id="Group_21251" data-name="Group 21251" transform="translate(-4 2.975)">
      <g id="Group_21250" data-name="Group 21250" transform="translate(8579.694 6895.024)">
        <path id="Path_96764" data-name="Path 96764" d="M206.095,113.387V106.4a74.784,74.784,0,0,0-3.61-23.019l26.908-21.67a8.53,8.53,0,0,0-5.35-15.175H212.457L230.3,15.087A10.1,10.1,0,0,0,221.508,0H188.543a10.164,10.164,0,0,0-9.084,5.681h0L163.382,38.707a74.354,74.354,0,0,0-18.028-5.931A75.121,75.121,0,0,0,82.339,49.46a3.417,3.417,0,1,0,4.448,5.188,68.1,68.1,0,0,1,73.6-9.791l-5.709,11.728a8.4,8.4,0,0,0,7.55,12.073H173.17l-9.986,26.5a8.305,8.305,0,0,0,13,9.41l20.56-16.557a68.069,68.069,0,0,1,2.518,18.394v7.119c-23.41-.308-55.663-3.6-82.795-16.8C99.5,88.472,92.507,80.132,92.446,80.057a3.417,3.417,0,0,0-6.069,2.155c0,5.972-2.951,12.562-8.308,18.557a47.309,47.309,0,0,1-15.1,11.174V106.4A67.524,67.524,0,0,1,76.913,65.1a3.417,3.417,0,0,0-5.433-4.146,74.306,74.306,0,0,0-15.342,45.452v7c-.573-.02-1.076-.033-1.372-.033a26.865,26.865,0,1,0,0,53.73c.773,0,1.545-.041,2.314-.107a74.98,74.98,0,0,0,136.977,28.9,3.417,3.417,0,0,0-5.733-3.72A68.15,68.15,0,0,1,62.973,155.137V119.368a53.178,53.178,0,0,0,20.192-14.045,40.084,40.084,0,0,0,9.068-15.988,99.384,99.384,0,0,0,20.724,13.281c15.985,7.866,43.815,17.211,86.3,17.741v34.779a67.743,67.743,0,0,1-5.1,25.914,3.417,3.417,0,1,0,6.32,2.6,74.313,74.313,0,0,0,4.664-16.555c.147,0,.293.008.44.008a26.861,26.861,0,0,0,.512-53.718ZM171.9,99.245a1.482,1.482,0,0,1-2.316-1.676l11.727-31.122a3.417,3.417,0,0,0-3.2-4.622H162.228a1.563,1.563,0,0,1-1.405-2.247L185.6,8.673h0a3.289,3.289,0,0,1,2.94-1.838h32.966a3.269,3.269,0,0,1,2.843,4.882L203.618,48.273a3.417,3.417,0,0,0,2.972,5.1h17.452a1.7,1.7,0,0,1,1.064,3.018ZM54.768,160.27a20.031,20.031,0,1,1,0-40.062c.246,0,.756.015,1.372.037V131.7c-4.67-.1-10.52,1.508-13.288,7.874a3.417,3.417,0,1,0,6.267,2.725c1.465-3.371,4.712-3.886,7.021-3.777v16.61c0,1.7.062,3.392.175,5.067C55.8,160.244,55.285,160.27,54.768,160.27Zm151.152-.009q.171-2.548.175-5.125v-16.61c2.309-.109,5.552.408,7.016,3.777a3.417,3.417,0,0,0,6.267-2.725c-2.767-6.364-8.614-7.974-13.284-7.874V120.221a20.025,20.025,0,0,1-.175,40.04Z" transform="translate(-27.899)" fill="#0d1b3a"/>
        <path id="Path_96765" data-name="Path 96765" d="M209.54,391.278a24.468,24.468,0,0,1,34.565,0,3.417,3.417,0,0,0,4.832-4.832,31.31,31.31,0,0,0-44.23,0,3.417,3.417,0,0,0,4.833,4.832Z" transform="translate(-123.607 -205.399)" fill="#0d1b3a"/>
        <path id="Path_96766" data-name="Path 96766" d="M165.753,312.818a3.415,3.415,0,0,0,4.271,2.261l18.061-5.557a3.417,3.417,0,0,0,1.411-5.682L177.34,291.683a3.417,3.417,0,0,0-4.832,4.832l8.144,8.144-12.637,3.888A3.418,3.418,0,0,0,165.753,312.818Z" transform="translate(-102.863 -158.245)" fill="#0d1b3a"/>
        <path id="Path_96767" data-name="Path 96767" d="M309.058,315.232a3.417,3.417,0,0,0,1-6.684l-12.636-3.888,8.144-8.144a3.417,3.417,0,0,0-4.832-4.832L288.58,303.841a3.417,3.417,0,0,0,1.411,5.682l18.061,5.558A3.428,3.428,0,0,0,309.058,315.232Z" transform="translate(-169.266 -158.245)" fill="#0d1b3a"/>
        <path id="Path_96768" data-name="Path 96768" d="M53.527,55.836,40.313,58.885a3.417,3.417,0,0,0-2.075,5.225L52.131,84.95a3.417,3.417,0,0,0,5.686-3.791L46.666,64.433l13.244-3.056a3.417,3.417,0,0,0,2.064-5.241L42.75,27.654a3.417,3.417,0,0,0-5.665,3.823Z" transform="translate(-32.582 -14.235)" fill="#ec691f"/>
        <path id="Path_96769" data-name="Path 96769" d="M121.479,45.931a3.417,3.417,0,1,0,6.278-2.7l-5.511-12.81,9.026-.407a3.417,3.417,0,0,0,2.977-4.782L127.2,9.088a3.417,3.417,0,1,0-6.262,2.736L126,23.409l-9,.405a3.417,3.417,0,0,0-2.985,4.764Z" transform="translate(-74.629 -3.832)" fill="#ec691f"/>
      </g>
      <path id="Path_96792" data-name="Path 96792" d="M-10295.942-1397.964v-75.356s2.887-22.222,17-35.479,39.444-17.549,39.444-17.549l39.383-9.3a135.626,135.626,0,0,0,31.975,4.409c16.2,0,32.838-4.409,32.838-4.409l40.934,9.3s24.439,4.574,38.162,17.831,16.727,35.2,16.727,35.2v75.356" transform="translate(18849.941 8676.346)" fill="none" stroke="#0d1b3a" stroke-linecap="round" stroke-width="6"/>
      <path id="Path_96793" data-name="Path 96793" d="M-10196.771-1524.874l61.794,61.794,61.795-61.794" transform="translate(18817.164 8672.796)" fill="none" stroke="#0d1b3a" stroke-linecap="round" stroke-width="6"/>
      <path id="Path_96796" data-name="Path 96796" d="M16.1,0A16.1,16.1,0,1,1,0,16.1,16.1,16.1,0,0,1,16.1,0Z" transform="translate(8666.331 7144.485)" fill="#fff" stroke="#0d1b3a" stroke-linecap="round" stroke-width="6"/>
      <path id="Path_96794" data-name="Path 96794" d="M-10125.206-1489.551l-6.422,20" transform="translate(18795.527 8661.162)" fill="none" stroke="#0d1b3a" stroke-linecap="round" stroke-width="6"/>
      <path id="Path_96795" data-name="Path 96795" d="M-10131.628-1489.551l6.422,20" transform="translate(18825.705 8661.162)" fill="none" stroke="#0d1b3a" stroke-linecap="round" stroke-width="6"/>
      <path id="Path_96797" data-name="Path 96797" d="M-10151.606-1548.386v-25.931" transform="translate(18802.107 8689.081)" fill="none" stroke="#0d1b3a" stroke-linecap="round" stroke-width="6"/>
      <path id="Path_96798" data-name="Path 96798" d="M-10151.606-1548.386v-25.931" transform="translate(18865.816 8689.081)" fill="none" stroke="#0d1b3a" stroke-linecap="round" stroke-width="6"/>
      <path id="Path_96799" data-name="Path 96799" d="M-11988.5-1814.569v58" transform="translate(20590.432 9043.989)" fill="none" stroke="#0d1b3a" stroke-linecap="round" stroke-width="6"/>
      <path id="Path_96800" data-name="Path 96800" d="M-11988.5-1814.569v58" transform="translate(20750.205 9043.989)" fill="none" stroke="#0d1b3a" stroke-linecap="round" stroke-width="6"/>
    </g>
  </g>
</svg>
