<svg xmlns="http://www.w3.org/2000/svg" width="250" height="250" viewBox="0 0 250 250">
  <g id="Group_21262" data-name="Group 21262" transform="translate(-858 -1240)">
    <g id="Ellipse_875" data-name="Ellipse 875" transform="translate(858 1240)" fill="none" stroke="#0d1b3a" stroke-width="6">
      <circle cx="125" cy="125" r="125" stroke="none"/>
      <circle cx="125" cy="125" r="122" fill="none"/>
    </g>
    <g id="Group_21261" data-name="Group 21261" transform="translate(-193.194 8.915)">
      <path id="Path_494" data-name="Path 494" d="M118.811,88.21H11.471A9.51,9.51,0,0,1,2,78.684V15.175A3.167,3.167,0,0,1,5.157,12H125.125a3.167,3.167,0,0,1,3.157,3.175V78.684A9.51,9.51,0,0,1,118.811,88.21ZM8.314,18.351V78.684a3.176,3.176,0,0,0,3.157,3.175h107.34a3.176,3.176,0,0,0,3.157-3.175V18.351Z" transform="translate(1110.607 1347.066)" fill="#0d1b3a"/>
      <path id="Path_493" data-name="Path 493" d="M142.2,45.1H9.48A9.515,9.515,0,0,1,0,35.579V16.526A9.515,9.515,0,0,1,9.48,7H142.2a9.515,9.515,0,0,1,9.48,9.526V35.579A9.515,9.515,0,0,1,142.2,45.1ZM9.48,13.351a3.177,3.177,0,0,0-3.16,3.175V35.579a3.177,3.177,0,0,0,3.16,3.175H142.2a3.177,3.177,0,0,0,3.16-3.175V16.526a3.177,3.177,0,0,0-3.16-3.175Z" transform="translate(1099.904 1320.761)" fill="#0d1b3a"/>
      <path id="Path_497" data-name="Path 497" d="M14.675,114.964a3.177,3.177,0,0,1-3.175-3.175V10.175a3.175,3.175,0,0,1,6.351,0V111.788A3.177,3.177,0,0,1,14.675,114.964Z" transform="translate(1161.077 1320.313)" fill="#0d1b3a"/>
      <path id="Path_496" data-name="Path 496" d="M14.677,50.807a3.177,3.177,0,0,1-3.144-3.62C11.6,46.71,18.7,0,55.957,0,72.368,0,78.191,8.866,78.191,16.455,78.191,30.719,58.485,50.807,14.677,50.807ZM55.957,6.351c-26.115,0-35.018,27.848-37.4,38.041,34.8-1.08,53.283-16.614,53.283-27.937a8.262,8.262,0,0,0-3.518-6.891c-2.794-2.1-7.075-3.214-12.365-3.214Z" transform="translate(1160.703 1277)" fill="#e36410"/>
      <path id="Path_495" data-name="Path 495" d="M65.515,50.807C21.707,50.807,2,30.719,2,16.455A14.7,14.7,0,0,1,8.052,4.484C11.958,1.55,17.553,0,24.234,0,61.488,0,68.588,46.71,68.658,47.187a3.177,3.177,0,0,1-3.144,3.62ZM24.234,6.351c-9.8,0-15.883,3.868-15.883,10.1,0,11.33,18.5,26.864,53.315,27.944C59.361,34.142,50.679,6.351,24.234,6.351Z" transform="translate(1110.607 1277)" fill="#e36410"/>
    </g>
  </g>
</svg>
