<svg xmlns="http://www.w3.org/2000/svg" width="512" height="512" viewBox="0 0 512 512">
  <g id="ic_halt_time" transform="translate(-5656 -5789)">
    <g id="Ellipse_425" data-name="Ellipse 425" transform="translate(5656 5789)" fill="none" stroke="#0d1b3a" stroke-linecap="round" stroke-linejoin="round" stroke-width="12">
      <circle cx="256" cy="256" r="256" stroke="none"/>
      <circle cx="256" cy="256" r="250" fill="none"/>
    </g>
    <g id="Group_31452" data-name="Group 31452" transform="translate(-7.891 3.881)">
      <path id="Path_41" data-name="Path 41" d="M207.138,298.445H135.874L95.774,156.71a15.895,15.895,0,0,0-30.589,8.655l43.374,153.3a15.893,15.893,0,0,0,15.294,11.567h83.284a15.894,15.894,0,0,0,0-31.789Z" transform="translate(5713.309 5849.383)" fill="none" stroke="#011131" stroke-width="10"/>
      <path id="Path_42" data-name="Path 42" d="M249.442,263.233A19.1,19.1,0,0,0,231.9,251.705h-.04l-27.84.059-5.349-20.219,12.84,9.687a15.887,15.887,0,0,0,9.571,3.206h.161l21.808-.219a15.894,15.894,0,1,0-.319-31.787l-16.4.165-47.61-35.914A29.539,29.539,0,0,0,130.982,206.7l16.263,61.462a29.554,29.554,0,0,0,28.54,21.992c.833,0,1.671-.049,2.512-.121l41.063-.086,28.319,65.544a19.1,19.1,0,1,0,35.075-15.155Z" transform="translate(5724.67 5843.267)" fill="none" stroke="#011131" stroke-width="10"/>
      <path id="Path_43" data-name="Path 43" d="M135.858,157.577a32.819,32.819,0,1,0-32.837-32.814A32.818,32.818,0,0,0,135.858,157.577Z" transform="translate(5723.696 5844.462)" fill="none" stroke="#011131" stroke-width="10"/>
      <path id="Path_44" data-name="Path 44" d="M287.171,34.861a65.46,65.46,0,1,0,65.46,65.46A65.535,65.535,0,0,0,287.171,34.861Zm0,114.46a49,49,0,1,1,49-49A49.056,49.056,0,0,1,287.171,149.321Z" transform="translate(5709.839 5836.258)" fill="none" stroke="#011131" stroke-width="10"/>
      <path id="Path_45" data-name="Path 45" d="M300.149,83.467H283.391V59.392a7.081,7.081,0,1,0-14.161,0V90.548a7.081,7.081,0,0,0,7.081,7.081h23.839a7.081,7.081,0,0,0,0-14.163Z" transform="translate(5720.697 5846.032)" fill="none" stroke="#ea5c10" stroke-width="10"/>
    </g>
  </g>
</svg>
