<svg xmlns="http://www.w3.org/2000/svg" width="250" height="250" viewBox="0 0 250 250">
  <g id="ic_hotlist" transform="translate(-896 -1595)">
    <g id="Ellipse_817" data-name="Ellipse 817" transform="translate(896 1595)" fill="none" stroke="#0d1b3a" stroke-width="6">
      <circle cx="125" cy="125" r="125" stroke="none"/>
      <circle cx="125" cy="125" r="122" fill="none"/>
    </g>
    <g id="Group_21390" data-name="Group 21390" transform="translate(-211 -38)">
      <path id="Path_97922" data-name="Path 97922" d="M124.818,173.19l15.519-18.67a2.49,2.49,0,1,0-3.829-3.183l-13.3,16-2.907-4.723a2.49,2.49,0,0,0-4.24,2.61l4.726,7.676A2.49,2.49,0,0,0,124.818,173.19Z" transform="translate(1070.125 1572.498)" fill="#0d1b3a"/>
      <path id="Path_97923" data-name="Path 97923" d="M116.059,264.227l4.726,7.675a2.49,2.49,0,0,0,4.034.286l15.519-18.67a2.49,2.49,0,0,0-3.829-3.183l-13.3,16-2.907-4.723a2.489,2.489,0,1,0-4.24,2.61Z" transform="translate(1070.124 1506.361)" fill="#e36410"/>
      <path id="Path_97924" data-name="Path 97924" d="M116.059,363.894l4.726,7.676a2.489,2.489,0,0,0,4.034.286l15.519-18.67A2.49,2.49,0,1,0,136.509,350l-13.3,16-2.907-4.723a2.489,2.489,0,1,0-4.24,2.61Z" transform="translate(1070.124 1439.778)" fill="#0d1b3a"/>
      <path id="Path_97925" data-name="Path 97925" d="M186.287,240.293a2.489,2.489,0,0,0-2.49,2.49v18.122a3.822,3.822,0,0,1-3.817,3.817H64.8a3.822,3.822,0,0,1-3.817-3.817V151.8a2.49,2.49,0,0,0-4.979,0V260.905a8.807,8.807,0,0,0,8.8,8.8H179.98a8.807,8.807,0,0,0,8.8-8.8V242.783A2.49,2.49,0,0,0,186.287,240.293Z" transform="translate(1110 1573.253)" fill="#0d1b3a"/>
      <path id="Path_97926" data-name="Path 97926" d="M179.98,19.183H167.8V8.9a8.9,8.9,0,1,0-17.792,0V19.183H131.285V8.9a8.9,8.9,0,1,0-17.792,0V19.183H94.767V8.9a8.9,8.9,0,1,0-17.792,0V19.183H64.8a8.806,8.806,0,0,0-8.8,8.8V40.434a2.49,2.49,0,1,0,4.979,0V27.98A3.822,3.822,0,0,1,64.8,24.162H76.974v3.953a8.9,8.9,0,1,0,17.792,0V24.162h18.726v3.953a8.9,8.9,0,1,0,17.792,0V24.162H150.01v3.953a8.9,8.9,0,1,0,17.792,0V24.162H179.98A3.822,3.822,0,0,1,183.8,27.98V131.418a2.49,2.49,0,0,0,4.979,0V27.98a8.807,8.807,0,0,0-8.8-8.8ZM89.788,28.116a3.917,3.917,0,0,1-7.834,0V8.9a3.917,3.917,0,0,1,7.834,0Zm36.518,0a3.917,3.917,0,1,1-7.834,0V8.9a3.917,3.917,0,1,1,7.834,0Zm36.518,0a3.917,3.917,0,0,1-7.834,0V8.9a3.917,3.917,0,0,1,7.834,0Z" transform="translate(1110 1673)" fill="#0d1b3a"/>
      <path id="Path_97927" data-name="Path 97927" d="M206.04,193.784h52.447a7.8,7.8,0,1,0,0-15.6H206.04a7.8,7.8,0,1,0,0,15.6Zm0-10.622h52.447a2.822,2.822,0,1,1,0,5.643H206.04a2.822,2.822,0,0,1,0-5.643Z" transform="translate(1014.976 1553.964)" fill="#0d1b3a"/>
      <path id="Path_97928" data-name="Path 97928" d="M206.04,293h52.447a7.8,7.8,0,1,0,0-15.6H206.04a7.8,7.8,0,1,0,0,15.6Zm0-10.622h52.447a2.822,2.822,0,1,1,0,5.643H206.04a2.822,2.822,0,0,1,0-5.643Z" transform="translate(1014.976 1487.683)" fill="#e36410"/>
      <path id="Path_97929" data-name="Path 97929" d="M206.04,392.209h52.447a7.8,7.8,0,0,0,0-15.6H206.04a7.8,7.8,0,0,0,0,15.6Zm0-10.622h52.447a2.822,2.822,0,1,1,0,5.643H206.04a2.822,2.822,0,1,1,0-5.643Z" transform="translate(1014.976 1421.404)" fill="#0d1b3a"/>
    </g>
  </g>
</svg>
