<svg xmlns="http://www.w3.org/2000/svg" width="512" height="512" viewBox="0 0 512 512">
  <g id="ic_high_availibility" transform="translate(-3853 -7634)">
    <g id="Ellipse_817" data-name="Ellipse 817" transform="translate(3853 7634)" fill="none" stroke="#0d1b3a" stroke-width="12">
      <circle cx="256" cy="256" r="256" stroke="none"/>
      <circle cx="256" cy="256" r="250" fill="none"/>
    </g>
    <g id="Group_30630" data-name="Group 30630" transform="translate(-479.498 -175.501)">
      <path id="Path_131332" data-name="Path 131332" d="M20728.828,9313.7a140.184,140.184,0,0,1-28.08-2.834,138.365,138.365,0,0,1-49.82-21,140,140,0,0,1-50.48-61.423,139.078,139.078,0,0,1-8.119-26.2,141.188,141.188,0,0,1,0-56.273,139.036,139.036,0,0,1,20.965-49.918,139.788,139.788,0,0,1,61.3-50.578,138.173,138.173,0,0,1,26.154-8.133,140.351,140.351,0,0,1,56.162,0,138.432,138.432,0,0,1,49.822,21c.752.512,1.5,1.027,2.221,1.535a14.991,14.991,0,0,1,3.105,5,10.484,10.484,0,0,1,.637,4.528,10.335,10.335,0,0,1-2.043,5.194,10.446,10.446,0,0,1-4.223,3.486,11.092,11.092,0,0,1-4.516.9,16.634,16.634,0,0,1-6.441-1.406l.063.092a116.084,116.084,0,0,0-66.707-20.952c-64.57,0-117.1,52.655-117.1,117.376s52.531,117.375,117.1,117.375,117.105-52.654,117.105-117.375a117.726,117.726,0,0,0-3.687-29.279l.055.079a14.82,14.82,0,0,1,.438-5.339,11.313,11.313,0,0,1,2.219-4.329,11.187,11.187,0,0,1,5.039-3.35,10.208,10.208,0,0,1,3.307-.579,9.06,9.06,0,0,1,4.232,1.063,12.4,12.4,0,0,1,3.164,2.42,18.016,18.016,0,0,1,3.049,4.324c.584,2.266,1.117,4.572,1.584,6.855a141.379,141.379,0,0,1,0,56.273,139.047,139.047,0,0,1-20.967,49.914,139.725,139.725,0,0,1-61.3,50.582,138.7,138.7,0,0,1-26.152,8.133A140.145,140.145,0,0,1,20728.828,9313.7Z" transform="translate(-16139.998 -1108.997)" fill="#0d1b3a"/>
      <path id="Path_131330" data-name="Path 131330" d="M20661.273,9216.619l-60.266-56.2a11.115,11.115,0,1,1,15.16-16.258l52.023,48.512,121.938-145.322a11.114,11.114,0,1,1,17.027,14.289L20678.215,9215.3a11.774,11.774,0,0,1-16.941,1.316Z" transform="translate(-16081.482 -1099.748)" fill="#ec691f"/>
    </g>
  </g>
</svg>
