<svg xmlns="http://www.w3.org/2000/svg" width="2397.094" height="2611.507" viewBox="0 0 2397.094 2611.507">
  <g id="Group_2890" data-name="Group 2890" transform="translate(12072.141 -6636.216)">
    <path id="Path_6341" data-name="Path 6341" d="M2005.871,1984.378c-15.092,20.208-33.561,39.291-57.99,45.149-19.057,73.082-73.952,105.826-163.79,69.4-33.664-13.634-88.38-36.042-121.787-50.854,34.482,137.929-58.732,155.016-195.535,114.062-.051,0-.1-.025-.153-.025-81.192-24.966-437.908-163.074-437.908-163.074-10.283,19.722-20.8,23.713-23.355,26.245-10.846,6.165-22.05,6.779-31.668,3.555-.051,0-6.625-2.072-6.7-2.1a.025.025,0,0,0-.026.025c-49.344-15.629-104.6-34.3-137.8-48.781-.026-.026-.051-.026-.077-.051h-.026c-.051-.025-90.528-30.978-166.527-59.806-109.662-41.9-326.045-355.079-332.8-375.364,0-3.274-9-11.076,1.049-96,11.127-94.007,10.258-109.765-8.8-176.529-17.19-4.758-23.841-9.848-23.841-9.874C257.976,1268.414,117.183,1196.687,0,1131.33V350.008l1293.9,727.91c11.46,6.625,253.116,211.548,253.116,211.548v81.959c67.532,40.672,268.567,155.527,261.609,149.542,55.33,42.054,101.656,90.247,115.571,139.949,5.781,5.781,5.935,128.758,5.935,133.759,32.692,28.343,75.973,72.955,88.252,118.718v-.077C2025.773,1942.912,2020.375,1964.911,2005.871,1984.378Z" transform="translate(-12072.142 7066.095)" opacity="0.11"/>
    <g id="Group_2880" data-name="Group 2880" transform="translate(-12072.142 6889.509)">
      <path id="Path_6342" data-name="Path 6342" d="M569.628,459.32c0,146.631-103.306,325.564-230.3,398.864-34.37,19.84-68.279,30.32-98.108,30.32-70.919,0-114.962-58.745-114.962-153.323,0-146.631,103.3-325.562,230.3-398.893,34.339-19.84,68.276-30.32,98.08-30.32C525.556,305.969,569.628,364.742,569.628,459.32Z" transform="translate(196.719 107.972)" fill="#162739"/>
      <path id="Path_6343" data-name="Path 6343" d="M565.233,471.42c0,132.3-93.2,293.776-207.8,359.926-31,17.888-61.6,27.35-88.51,27.35-64,0-103.751-53.007-103.751-138.353,0-132.3,93.224-293.75,207.8-359.929,31-17.886,61.623-27.348,88.508-27.348C525.476,333.067,565.233,386.074,565.233,471.42Z" transform="translate(257.337 150.192)" fill="#b3b3b3"/>
      <g id="Group_2877" data-name="Group 2877" transform="translate(356.102 405.872)">
        <path id="Path_6344" data-name="Path 6344" d="M1961.372,1631.3c-19.523,26.123-38.01,40.519-58,45.129-10.526,40.383-46.41,116.976-163.767,69.422-46.492-18.868-86.709-35.446-121.8-50.853,48.372,195.4-158.751,141.653-340.6,57.589a443.08,443.08,0,0,0-51.235-19.768l-.026-.028L984.2,1645.973c-12.025,22.687-31.387,37.03-55.026,29.8-3.054-1.036-101.871-31.466-149.153-52.926-77.383-35.094-90.825-30.729-161.994-57.806-71.249-27.077-97.507-50.989-153.568-135.409-56.087-84.446-155.722-203.631-171.4-224.873-15.681-21.214-14.235-47.091-2.972-145.142,7.362-63.723,3.19-87.108-12.762-142.952-10.907-38.2-57.65-78.93-138.115-122.447,36.38-69.031,38.427-144.421,58.359-197.827,78.639-210.712,78.961-289.141,150.88-293.579,5.72-.353,174.508,90.891,345.65,154.589,136.163,50.677,228.874,73.364,454.657,282.73,132.8,123.146,140.4,151.33,373.806,290.228,55.709,33.132,346.757,158.042,360.909,296.94,1.228,12.189,1.744,67.677-36.646,83.737C1846.824,1411.039,2031.449,1537.477,1961.372,1631.3Z" transform="translate(-139.21 -302.815)" fill="#f0ae74"/>
        <path id="Path_6345" data-name="Path 6345" d="M821.028,1593.677c-77.383-35.094-90.828-30.732-161.994-57.809-71.249-27.077-97.507-50.989-153.568-135.409-56.09-84.445-155.722-203.631-171.4-224.873-15.246-20.628-14.294-45.691-3.875-137.235l.005,0c.164-1.527,9.16-111.113-2.428-173.828-11.862-64.27-19.658-327.943,277.99-442.274-136.637-57.535-252.6-119.731-257.321-119.431-71.9,4.446-72.231,82.867-150.869,293.586-19.932,53.388-21.976,128.784-58.351,197.824,80.465,43.517,127.2,84.228,138.108,122.429,15.952,55.842,20.124,79.237,12.762,142.96-.038.335-.028.665-.049.995l-.069.041c-11.15,97.184-12.534,122.974,3.09,144.111,15.678,21.242,115.313,140.427,171.4,224.873,56.061,84.42,82.32,108.332,153.568,135.409,71.169,27.077,84.612,22.712,161.994,57.806,45.891,20.833,140.289,50.091,148.634,52.762a106.86,106.86,0,0,0,32.339-31.929C934.923,1635.449,860.24,1611.481,821.028,1593.677Z" transform="translate(-139.205 -302.815)" fill="#dc9964" opacity="0.54"/>
        <path id="Path_6347" data-name="Path 6347" d="M492.044,685.707c-48.73,34.61-87.74,81.677-111.658,141,25.938-95.465,63.874-259-50.342-414.016C371.92,436.147,448,502.656,492.044,685.707Z" transform="translate(158.115 -131.626)" fill="#dc9964" opacity="0.54"/>
        <path id="Path_6348" data-name="Path 6348" d="M874.264,872.126c-10.117-4.563-22.871-10.536-36.9-17.259,28.553-20.551,28.005-67.238,26.882-78.3-4.8-47.3-41.363-93.818-89.815-135.573,62.546,47.538,113.6,102.894,119.357,159.418C894.8,810.416,895.316,849.526,874.264,872.126Z" transform="translate(850.471 224.079)" fill="#dc9964" opacity="0.54"/>
        <path id="Path_6349" data-name="Path 6349" d="M1061.338,865.423c-19.515,26.112-38.007,40.506-58,45.154-10.544,40.355-46.428,116.966-163.783,69.4-43.8-17.768-82.061-33.531-115.653-48.165-.443-13.6-2.714-29.08-7.022-46.474,35.073,15.42,75.305,32,121.78,50.851,117.354,47.561,153.238-29.049,163.782-69.4,19.994-4.646,38.486-19.042,58-45.154a78.446,78.446,0,0,0,13.419-27.25C1080.3,818.457,1078.154,842.91,1061.338,865.423Z" transform="translate(760.811 463.06)" fill="#dc9964" opacity="0.54"/>
        <path id="Path_6350" data-name="Path 6350" d="M1228.654,1089.195a64.753,64.753,0,0,1-16.013,6.032s40.619-82.043-146.354-174.431S832.02,835.324,794.269,814.538c-35.766-19.692-120.8-86.106-203.736-115.224a12.082,12.082,0,0,1,8.037-22.787c84.018,28.977,170.807,98.118,206.992,118.424,37.6,21.114,83.957,16.5,271.127,108.557C1237.354,982.538,1234.681,1063.113,1228.654,1089.195Z" transform="translate(551.508 278.411)" fill="#dc9964"/>
        <path id="Path_6351" data-name="Path 6351" d="M1059.4,1054.375c-6.866-2.916-13.527-5.835-20.022-8.677,0,0-6.991-68.765-186.82-144.551C682.524,829.489,572.169,781.2,515.132,740.055a11.319,11.319,0,0,1,13.276-18.336c56.857,41.245,167.394,89.62,338.05,161.539,86.154,36.339,133.974,71.223,160.393,97.74C1048.776,1003,1057.389,1027.643,1059.4,1054.375Z" transform="translate(439.206 346.493)" fill="#dc9964"/>
        <path id="Path_6352" data-name="Path 6352" d="M1122.626,884.628a48.6,48.6,0,0,1-17.113,12S928.7,815.2,846.853,774.089c-73.254-36.777-158.607-89.607-225.809-121.2a10.451,10.451,0,1,1,9.6-18.546c57.819,33.024,268.047,148.227,321.528,170.19C987.271,818.936,1079.152,865.019,1122.626,884.628Z" transform="translate(602.109 211.576)" fill="#dc9964"/>
        <path id="Path_6353" data-name="Path 6353" d="M559.619,927.067c-51.721-16.382-109.946-36.1-142.441-50.835-17.893-8.109-32.359-14.131-44.927-18.886-1.655-31.18,7.728-92.416,112.407-70.8C591.551,808.648,586.427,878.925,559.619,927.067Z" transform="translate(223.624 443.805)" fill="#f6e2ca"/>
        <path id="Path_6354" data-name="Path 6354" d="M414.573,865.943c-16.714-7.526-30.376-13.2-42.32-17.725-.926-17.287,1.555-43.819,21.815-60.341C403.011,800.419,416.154,823.9,414.573,865.943Z" transform="translate(223.622 452.922)" fill="#fff" opacity="0.39"/>
        <path id="Path_6355" data-name="Path 6355" d="M775.406,1029.868a446.423,446.423,0,0,0-51.235-19.768l-.026-.028-241.981-86.9c11.915-86-20.331-152.97-20.876-156.487,27.066,56.338,68.522,91.672,93.718,117.247,60.963,61.774,215.521,99.765,319.51,137.407,121.468,43.967,231.406,56.6,245.956-27.466C1148.34,1163.476,950.19,1110.689,775.406,1029.868Z" transform="translate(362.595 419.906)" fill="#dc9964" opacity="0.54"/>
        <path id="Path_6356" data-name="Path 6356" d="M632.741,1159.825c24.652-15.461,44.637-43.3,44.691-69.394.3-130.147-132.544-238.753-250.857-276.545-22.3,1.256-73.84,5.835-97.453,22.032,2.046-1.826,35.774-30.839,73.622-38.529-10.171-23.311-35.613-78.365-59.443-102.305-10.442-10.526,22.823-58.571,24.731-61.216-.737,2.481-12.378,42.128-7.5,50.554,5.044,8.672,44.09,67.158,57.451,86.627s74.413,38.529,104.244,58.87c28.166,19.224,147.6,83.847,176.882,219.064C711.241,1101.584,680.758,1175.1,632.741,1159.825Z" transform="translate(156.677 212.973)" fill="#dc9964"/>
        <path id="Path_6357" data-name="Path 6357" d="M569.022,863.389c-2.7-.872-5.426-1.719-8.152-2.538,2.727.793,5.426,1.637,8.127,2.509Z" transform="translate(517.745 566.617)" fill="#dc9964"/>
        <path id="Path_6358" data-name="Path 6358" d="M448.178,839.576c.545.164,1.09.355,1.635.519q-.94-.287-1.88-.573C448.015,839.548,448.1,839.548,448.178,839.576Z" transform="translate(341.787 533.386)" fill="#dc9964"/>
        <path id="Path_6359" data-name="Path 6359" d="M466.164,834.16c-.327.381-.627.765-.954,1.118a7.932,7.932,0,0,1-.627.683C465.128,835.36,465.647,834.761,466.164,834.16Z" transform="translate(367.728 525.032)" fill="#dc9964"/>
      </g>
      <path id="Path_6360" data-name="Path 6360" d="M557.027,381.31a99.487,99.487,0,0,0-34.93-6.027c-26.885,0-57.507,9.462-88.507,27.348-114.579,66.179-207.8,227.628-207.8,359.929,0,57.287,17.914,100.016,49.053,121.91a150.447,150.447,0,0,1-33.62,4.036c-70.921,0-114.957-58.76-114.957-153.325,0-146.641,103.313-325.569,230.3-398.89,34.331-19.85,68.279-30.32,98.082-30.32C503.2,305.971,539.2,333.536,557.027,381.31Z" transform="translate(196.719 107.976)" fill="#6c7c8a"/>
      <path id="Path_6361" data-name="Path 6361" d="M374.668,356.438c-119.05,68.742-215.575,235.888-215.575,373.371,0,82.046,34.382,134.971,87.418,149.7-.054-.164-.11-.353-.164-.517A83.279,83.279,0,0,0,238,859.871c-39.892-18-63.367-64.485-63.367-130.063,0-132.3,93.225-293.75,207.8-359.929,31-17.886,61.623-27.348,88.508-27.348,26.45,0,48.753,9.053,65.823,25.713q14.727,6.462,29.832,12.869C530.906,321.29,458.351,308.122,374.668,356.438Z" transform="translate(247.87 140.726)" fill="#e6e6e6"/>
      <g id="Group_2878" data-name="Group 2878" transform="translate(79.785 288.294)">
        <path id="Path_6362" data-name="Path 6362" d="M714.053,444.583c-37.654-15.527-86.615-9.746-140.077,21.129C454.9,534.446,358.361,701.613,358.361,839.107c0,67.941,23.559,115.878,61.776,138.747v.026L31.19,753.285,390.336,256.85Z" transform="translate(-31.19 -256.85)" fill="#fff"/>
      </g>
      <g id="Group_2879" data-name="Group 2879" transform="translate(0 0)">
        <path id="Path_6363" data-name="Path 6363" d="M699.92,550.1c-41.744-17.231-96.008-10.826-155.231,23.4C412.716,649.682,305.747,834.962,305.747,987.3c0,75.313,26.094,128.456,68.44,153.788v.028L0,925.025V144.148Z" transform="translate(0 -144.148)" fill="#acc6ff"/>
      </g>
      <path id="Path_6364" data-name="Path 6364" d="M655.7,306.047c-1.432-.051-2.891-.077-4.349-.077-29.8,0-63.72,10.488-98.075,30.313C444.686,399,353.413,538.937,329.248,669.853L0,489v183.9l374.187,216.1v-.026C348.658,873.7,329.013,848.3,317.45,813.993l151.281,87.356v-.026c-38.217-22.869-61.776-70.806-61.776-138.747a325.455,325.455,0,0,1,3.684-48.014L369.391,691.9c29.292-131,120.774-267.073,229.135-329.632,35.019-20.208,68.3-30.722,98.3-32.385Z" transform="translate(0 107.974)" opacity="0.11"/>
      <path id="Path_6365" data-name="Path 6365" d="M581.9,380.973c-1.867-.918-3.789-1.75-5.712-2.525l-.087-.059-21.076-12.23c-19.9-31.842-50.82-49.7-89.9-49.7-29.8,0-63.741,10.48-98.08,30.32-126.993,73.331-230.3,252.262-230.3,398.893,0,94.578,44.044,153.323,114.962,153.323,2.668,0,5.367-.087,8.1-.286h.028l22.682,13.12c.576.345,1.177.691,1.78,1.033-95.667,19.208-164.777-44.732-164.777-167.19,0-152.343,106.951-337.62,238.911-413.793C460.567,272.9,547.734,296.561,581.9,380.973Z" transform="translate(186.225 97.484)" fill="#8fa2ce"/>
    </g>
    <g id="Group_2792" data-name="Group 2792" transform="translate(-11332.452 6636.216)">
      <g id="Group_2791" data-name="Group 2791" transform="translate(0 0)">
        <path id="Path_6156" data-name="Path 6156" d="M1860.217,857.093l-8.427-30.372c-58.686-210.75-362.539-363.73-722.485-363.73-37.656,0-75.74,1.75-113.229,5.189C761.542,491.495,551.53,589.515,454.32,730.4c-51.629,74.836-67.028,157.063-44.547,237.861,58.71,210.8,362.528,363.849,722.426,363.849,37.631,0,75.74-1.738,113.205-5.2l31.36-2.833L1164.486,920.8Z" transform="translate(-399.723 495.379)" fill="#d1d1d1" style="mix-blend-mode: multiply;isolation: isolate"/>
        <path id="Path_6157" data-name="Path 6157" d="M1229.571,524.12l-5.9-21.137-748.953,68.6,126.607,454.68,21.827-1.988C877.766,1000.948,1087.789,902.916,1185,762.04,1236.652,687.192,1252.052,604.918,1229.571,524.12Z" transform="translate(417.787 931.347)" fill="#d1d1d1" style="mix-blend-mode: multiply;isolation: isolate"/>
        <path id="Path_6158" data-name="Path 6158" d="M1157.75,466.241l-.928,332.168L461.063,862.122l.956-332.157Z" transform="translate(268.97 530.815)" fill="#ec691f"/>
        <g id="Group_2782" data-name="Group 2782" transform="translate(925.351 1229.209)">
          <path id="Path_6159" data-name="Path 6159" d="M1080.462,491.311l-.964,240.146c-.56,196.515-246.752,369.014-592.594,400.719l.929-240.17c345.877-31.681,592.034-204.168,592.629-400.7" transform="translate(-374.665 -425.103)" fill="#b1c9ff"/>
          <path id="Path_6160" data-name="Path 6160" d="M1173.282,485.748c61.994,222.687-199.229,431.71-583.488,466.9L477.552,549.456Z" transform="translate(-476.626 -485.748)" fill="#e2ebff"/>
          <path id="Path_6161" data-name="Path 6161" d="M590.647,894.3l-.927,240.171L477.474,731.274,478.4,491.1Z" transform="translate(-477.474 -427.395)" fill="#92b4ff"/>
        </g>
        <g id="Group_2783" data-name="Group 2783" transform="translate(25.331 1058.294)">
          <path id="Path_6162" data-name="Path 6162" d="M1219.785,877.129l-.928,332.179c-384.152,35.156-745.895-116.824-807.889-339.57a243.414,243.414,0,0,1-9.116-66.183l.964-332.168a243.193,243.193,0,0,0,9.069,66.184c62.03,222.746,423.772,374.75,807.9,339.558" transform="translate(-401.851 -471.387)" fill="#e5a784"/>
        </g>
        <path id="Path_6163" data-name="Path 6163" d="M994.4,442.357c384.26-35.18,746,116.812,807.973,339.428L1106.646,845.5l112.277,403.254c-384.129,35.192-745.87-116.812-807.9-339.558C349.065,686.573,610.288,477.538,994.4,442.357Z" transform="translate(-375.659 215.277)" fill="#f5b48f"/>
        <g id="Group_2784" data-name="Group 2784" transform="translate(227.654 252.363)">
          <path id="Path_6164" data-name="Path 6164" d="M836.526,644.748l111.71,338.731-35.1-20.269L816.291,669.6,418.851,440.148l.112-36.479Z" transform="translate(-418.851 -403.669)" fill="#b1c9ff"/>
        </g>
        <g id="Group_2790" data-name="Group 2790" transform="translate(198.259)">
          <g id="Group_2785" data-name="Group 2785">
            <path id="Path_6165" data-name="Path 6165" d="M516.485,440.176l-.085,31.159L472.728,575.725l-42.886-24.758L472.278,453.5l-55.9-32.256.139-38.775Z" transform="translate(-416.381 -382.465)" fill="#b1c9ff"/>
          </g>
          <g id="Group_2786" data-name="Group 2786" transform="translate(111.04 68.255)">
            <path id="Path_6166" data-name="Path 6166" d="M520.446,438.674l-.083,38.786-52.1-30.087-.845,17.412c6.355.643,11.771,3.13,16.745,6,24.541,14.162,45.475,48.105,45.392,79.7-.119,32.61-22.791,44.071-52.271,27.04-33.586-19.388-48.034-53.461-51.569-73.42l34.336,8.569c1.75,10.223,7.962,18.423,15.091,22.553,7.391,4.249,14.222,2.2,14.246-7.914a29,29,0,0,0-14.52-24.446c-6.748-3.9-10.6-2.237-13.02.309l-31.9-25.314,3.071-89.665Z" transform="translate(-425.711 -388.2)" fill="#b1c9ff"/>
          </g>
          <g id="Group_2787" data-name="Group 2787" transform="translate(221.841 141.064)">
            <path id="Path_6167" data-name="Path 6167" d="M510.321,462.635c-.083,23.136-15.912,31.443-37.894,18.756-21.886-12.639-37.454-38.811-37.406-62.2.1-22.743,16.138-31.634,37.5-19.316C494.635,412.661,510.368,439.891,510.321,462.635Zm-46.9-27.338c0,6.177,4.154,13.2,9.1,16.067,6.01,3.464,9.462.643,9.462-5.332.036-5.522-3.785-12.271-9.152-15.365-5.8-3.344-9.39-.619-9.414,4.63" transform="translate(-435.021 -394.318)" fill="#b1c9ff"/>
          </g>
          <g id="Group_2788" data-name="Group 2788" transform="translate(232.33 196.205)">
            <path id="Path_6168" data-name="Path 6168" d="M543.539,398.951l36.928,21.324L472.86,518.945,435.9,497.607Z" transform="translate(-435.902 -398.951)" fill="#b1c9ff"/>
          </g>
          <g id="Group_2789" data-name="Group 2789" transform="translate(311.637 278.18)">
            <path id="Path_6169" data-name="Path 6169" d="M480.258,411.494c21.97,12.675,37.846,40.024,37.823,62.7C518,497.125,502,505.587,480.2,493.007c-21.946-12.675-37.692-39.2-37.632-62.4C442.649,407.936,458.7,399.034,480.258,411.494Zm-.143,51.188c5.784,3.332,9.557.655,9.581-5.058s-4.13-12.734-9.33-15.745c-5.784-3.321-9.188-.488-9.188,5.046-.024,5.963,3.736,12.747,8.937,15.758" transform="translate(-442.566 -405.839)" fill="#b1c9ff"/>
          </g>
        </g>
      </g>
    </g>
  </g>
</svg>
