<svg xmlns="http://www.w3.org/2000/svg" width="250" height="250" viewBox="0 0 250 250">
  <g id="ic_incentive" transform="translate(-588 -1240)">
    <g id="Ellipse_875" data-name="Ellipse 875" transform="translate(588 1240)" fill="none" stroke="#0d1b3a" stroke-width="6">
      <circle cx="125" cy="125" r="125" stroke="none"/>
      <circle cx="125" cy="125" r="122" fill="none"/>
    </g>
    <g id="Group_21260" data-name="Group 21260" transform="translate(-375 -72.014)">
      <path id="Union_11" data-name="Union 11" d="M84.976,84.752,56.981,76.107A20.392,20.392,0,0,0,38.8,79.257L34.62,82.4a8.54,8.54,0,0,1-11.409-1.052A114.916,114.916,0,0,1,.673,47.309,8.53,8.53,0,0,1,3.868,36.851L25.768,22.6a48.5,48.5,0,0,1,23.093-8.013A34.027,34.027,0,0,1,74.789,22.63c.233.163,10.707,7.872,30.722,2.2l2.556-.606a13.838,13.838,0,0,1,13.9,4.741L151.546,3.5a13.442,13.442,0,0,1,18.081,19.9L159.5,33.135a3.431,3.431,0,0,1-4.754-4.948l10.132-9.754A6.579,6.579,0,0,0,156.027,8.7L124.891,35.516a13.86,13.86,0,0,1-10.705,15.753C98.729,54.7,78.006,58.128,67.05,54.924a3.431,3.431,0,1,1,1.925-6.587c7.349,2.152,23.287.78,43.722-3.768a7,7,0,0,0,5.385-8.279,7.523,7.523,0,0,0-.234-.828,7,7,0,0,0-8.2-4.565l-2.4.57C83.821,38.1,70.931,28.294,70.394,27.876a27.221,27.221,0,0,0-21.042-6.439,41.6,41.6,0,0,0-19.828,6.9L7.608,42.6a1.676,1.676,0,0,0-.591,2.058,108.012,108.012,0,0,0,21.221,32,1.675,1.675,0,0,0,2.268.241l4.176-3.156A27.3,27.3,0,0,1,59,69.555l28,8.65a20.941,20.941,0,0,0,19.25-3.555,3.429,3.429,0,0,1,4.248,5.384,27.777,27.777,0,0,1-25.522,4.718Zm32.974-18.205a3.428,3.428,0,0,1,.8-3.76L124,57.714a3.434,3.434,0,0,1,4.762,4.948l-5.253,5.066a3.438,3.438,0,0,1-5.564-1.182ZM135.9,49.305a3.414,3.414,0,0,1,.8-3.749l5.362-5.158a3.431,3.431,0,0,1,4.762,4.94l-5.37,5.168a3.434,3.434,0,0,1-5.557-1.2Z" transform="translate(1001 1431.172)" fill="#0d1b3a"/>
      <path id="Path_96814" data-name="Path 96814" d="M66.208,110.251a42.3,42.3,0,1,1,42.3-42.3A42.3,42.3,0,0,1,66.208,110.251Zm0-77.343a35.07,35.07,0,1,0,35.07,35.07,35.07,35.07,0,0,0-35.07-35.07Z" transform="translate(1034.251 1330.366)" fill="#0d1b3a"/>
      <path id="Path_96815" data-name="Path 96815" d="M35.188-15.032,31.67-9.826H24.353a11.5,11.5,0,0,1,1.864,2.884,13.936,13.936,0,0,1,1.055,3.729h7.915L31.67,1.993h-4.4A13.883,13.883,0,0,1,25.6,6.725a12.619,12.619,0,0,1-3.289,3.729A15.506,15.506,0,0,1,17.476,12.9a20.887,20.887,0,0,1-6.279.879L32.585,36.537H23.228L2.579,14.34V9.134H7.75a20.917,20.917,0,0,0,4.5-.457A13.261,13.261,0,0,0,15.946,7.3a9.35,9.35,0,0,0,2.691-2.234,7.625,7.625,0,0,0,1.5-3.078H.82L4.338-3.213H20.1a8.218,8.218,0,0,0-3.465-4.819A12.755,12.755,0,0,0,9.4-9.826H.82l3.518-5.206Z" transform="translate(1081.897 1388.041)" fill="#e36410"/>
    </g>
  </g>
</svg>
