<svg xmlns="http://www.w3.org/2000/svg" width="512" height="512" viewBox="0 0 512 512">
  <g id="ic_idling_hour" transform="translate(-11352 -3484)">
    <g id="Ellipse_984" data-name="Ellipse 984" transform="translate(11352 3484)" fill="none" stroke="#0d1b3a" stroke-linecap="round" stroke-linejoin="round" stroke-width="12">
      <circle cx="256" cy="256" r="256" stroke="none"/>
      <circle cx="256" cy="256" r="250" fill="none"/>
    </g>
    <g id="Group_88" data-name="Group 88" transform="translate(7072 2059)">
      <g id="Group_87" data-name="Group 87" transform="translate(4394.637 1517.637)">
        <path id="Path_114" data-name="Path 114" d="M54.389,102.32l12.286,12.288a133.293,133.293,0,0,0-15.951,15.949L38.437,118.271Zm0,0" transform="translate(-17.075 -35.867)" fill="none"/>
        <path id="Path_115" data-name="Path 115" d="M365.955,118.272l-12.288,12.286a132.893,132.893,0,0,0-15.951-15.949L350,102.32Zm0,0" transform="translate(-105.496 -35.867)" fill="none"/>
        <path id="Path_116" data-name="Path 116" d="M224.481,13.636V24.909a5.637,5.637,0,0,1-5.636,5.636H173.753a5.637,5.637,0,0,1-5.636-5.636V13.636A5.637,5.637,0,0,1,173.753,8h45.091A5.637,5.637,0,0,1,224.481,13.636Zm0,0" transform="translate(-55.388 -8)" fill="none"/>
        <path id="Path_117" data-name="Path 117" d="M211.338,275.221a11.017,11.017,0,0,1-7.948,3.325,11.273,11.273,0,1,1,11.273-11.273A11.017,11.017,0,0,1,211.338,275.221Zm0,0" transform="translate(-62.479 -81.271)" fill="none"/>
        <path id="Path_118" data-name="Path 118" d="M256.286,121.6a140.909,140.909,0,1,1-214.522,0A133.3,133.3,0,0,1,57.716,105.65a139.839,139.839,0,0,1,80.038-33.144c3.721-.339,7.5-.506,11.273-.506s7.552.168,11.273.506a139.825,139.825,0,0,1,80.036,33.144A132.888,132.888,0,0,1,256.287,121.6Zm11.1,91.311A118.365,118.365,0,1,0,149.027,331.275,118.363,118.363,0,0,0,267.391,212.91Zm0,0" transform="translate(-8.116 -26.909)" fill="none"/>
      </g>
      <path id="Path_119" data-name="Path 119" d="M156.118,96a124,124,0,1,0,124,124A124,124,0,0,0,156.118,96Zm0,236.729A112.728,112.728,0,1,1,268.846,220,112.727,112.727,0,0,1,156.118,332.729Zm0,0" transform="translate(4379.43 1483.637)" fill="#011131"/>
      <path id="Path_120" data-name="Path 120" d="M261.482,100.739l8.713-8.713a5.639,5.639,0,0,0,0-7.97L254.244,68.1a5.634,5.634,0,0,0-7.97,0l-8.713,8.713A145.788,145.788,0,0,0,163.572,46.1V33.818h5.636a11.273,11.273,0,0,0,11.273-11.273V11.272A11.273,11.273,0,0,0,169.208,0H124.117a11.273,11.273,0,0,0-11.273,11.273V22.545a11.273,11.273,0,0,0,11.273,11.273h5.636V46.1A145.791,145.791,0,0,0,55.764,76.818L47.051,68.1a5.634,5.634,0,0,0-7.97,0L23.129,84.056a5.634,5.634,0,0,0,0,7.97l8.713,8.713a146.547,146.547,0,1,0,229.64,0Zm-11.223-20.7,8,8-4.109,4.109q-3.831-4.145-7.981-7.981ZM124.117,11.272h45.091V22.545H124.117Zm16.909,22.546H152.3V45.231c-1.871-.066-3.748-.14-5.636-.14s-3.765.074-5.636.14ZM35.06,88.041l8.006-8,4.109,4.109q-4.145,3.827-7.981,7.981Zm111.6,238.87A135.274,135.274,0,1,1,281.937,191.637,135.273,135.273,0,0,1,146.663,326.911Zm0,0" transform="translate(4388.886 1512)" fill="#011131"/>
      <path id="Path_121" data-name="Path 121" d="M217.935,264.909a16.909,16.909,0,1,0-16.909,16.909,16.691,16.691,0,0,0,7.244-1.69l33.863,33.862,7.97-7.97-33.86-33.868A16.657,16.657,0,0,0,217.935,264.909Zm-22.546,0a5.636,5.636,0,1,1,5.636,5.636A5.637,5.637,0,0,1,195.39,264.909Zm0,0" transform="translate(4334.522 1438.729)" fill="#011131"/>
      <path id="Path_122" data-name="Path 122" d="M240.988,148.6l-3,10.849A78.985,78.985,0,0,1,289.28,267.107l10.332,4.508a89.506,89.506,0,0,0,7.513-36.072,90.408,90.408,0,0,0-66.137-86.94Zm0,0" transform="translate(4318.607 1468.096)" fill="#011131"/>
      <path id="Path_123" data-name="Path 123" d="M220.133,144.8a90.905,90.905,0,0,0-12.016-.8v11.273a80.229,80.229,0,0,1,10.53.693Zm0,0" transform="translate(4327.433 1469.456)" fill="#ea5c10"/>
    </g>
  </g>
</svg>
