<svg xmlns="http://www.w3.org/2000/svg" width="512" height="512" viewBox="0 0 512 512">
  <g id="ic_idle-to-run-ratio" transform="translate(-5651 -5061)">
    <g id="Ellipse_425" data-name="Ellipse 425" transform="translate(5651 5061)" fill="none" stroke="#0d1b3a" stroke-linecap="round" stroke-linejoin="round" stroke-width="12">
      <circle cx="256" cy="256" r="256" stroke="none"/>
      <circle cx="256" cy="256" r="250" fill="none"/>
    </g>
    <g id="Group_31453" data-name="Group 31453" transform="translate(-8.996 -11.953)">
      <path id="Path_69" data-name="Path 69" d="M260.079,341.6a5.735,5.735,0,0,0-1.186.126L158.213,363.548l-31.637-21.015a5.6,5.6,0,0,0-3.1-.935H95.189a5.6,5.6,0,0,0-5.6-5.6H61.6a5.6,5.6,0,0,0-5.6,5.6v67.183a5.6,5.6,0,0,0,5.6,5.6H89.59a5.6,5.6,0,0,0,5.6-5.6v0h9.939l49.352,27.292a5.6,5.6,0,0,0,5.708-.169l107.058-67.815a14.2,14.2,0,0,0-7.167-26.489ZM83.992,403.18H67.2V347.2h16.8ZM261.44,358.517,157,424.669l-47.717-26.387a5.613,5.613,0,0,0-2.712-.7H95.189V352.8h26.6l36.827,24.46a8.347,8.347,0,0,1,2.36,11.565c-.094.141-.192.281-.293.416a8.466,8.466,0,0,1-11.432,1.946l-22.672-15.059-6.2,9.327,22.673,15.06a19.511,19.511,0,0,0,26.515-27.963l90.986-19.725a2.878,2.878,0,0,1,2.477,2.211,2.954,2.954,0,0,1-1.586,3.483Z" transform="translate(5730.997 5060.085)" fill="#011131"/>
      <path id="Path_70" data-name="Path 70" d="M375.968,106.369A106.49,106.49,0,0,0,269.6,0,5.6,5.6,0,0,0,264,5.6V106.369a5.6,5.6,0,0,0,5.6,5.6H370.369a5.6,5.6,0,0,0,5.6-5.6Zm-100.771-5.6V11.361a95.313,95.313,0,0,1,89.41,89.41Z" transform="translate(5668.556 5160.953)" fill="#011131"/>
      <path id="Path_71" data-name="Path 71" d="M301.6,40a5.6,5.6,0,0,0-5.6,5.6V95.984a5.6,5.6,0,0,0,5.6,5.6h50.388a5.6,5.6,0,0,0,5.6-5.6v0A56.049,56.049,0,0,0,301.6,40Zm5.6,50.385V51.544a44.879,44.879,0,0,1,38.839,38.842Z" transform="translate(5658.949 5148.945)" fill="#ea5c10"/>
      <path id="Path_72" data-name="Path 72" d="M295.14,132.771H199.968V37.6a5.6,5.6,0,0,0-5.6-5.6h0A106.369,106.369,0,1,0,300.739,138.369a5.6,5.6,0,0,0-5.6-5.6ZM194.369,233.542a95.173,95.173,0,0,1-5.6-190.181v95.008a5.6,5.6,0,0,0,5.6,5.6h95.012A95.3,95.3,0,0,1,194.369,233.542Z" transform="translate(5721.391 5156.71)" fill="#011131"/>
    </g>
  </g>
</svg>
