<svg xmlns="http://www.w3.org/2000/svg" width="2701.48" height="2034.438" viewBox="0 0 2701.48 2034.438">
  <g id="Group_4277" data-name="Group 4277" transform="translate(14773.621 -209.663)">
    <g id="Group_2713" data-name="Group 2713" transform="translate(-14773.621 637.532)">
      <g id="Group_2710" data-name="Group 2710" transform="translate(0)">
        <g id="Group_2706" data-name="Group 2706" transform="translate(1653.551 941.193)">
          <path id="Path_5557" data-name="Path 5557" d="M234.75,3715.461v60.728l1047.929-604.65v-60.725Z" transform="translate(-234.75 -3110.813)" fill="#a4ad8e"/>
        </g>
        <g id="Group_2707" data-name="Group 2707" transform="translate(0 604.647)">
          <path id="Path_5558" data-name="Path 5558" d="M3527.412,3525.6v60.727l-1653.551-941.2v-60.725Z" transform="translate(-1873.861 -2584.407)" fill="#a4ad8e"/>
        </g>
        <g id="Group_2709" data-name="Group 2709" transform="translate(0)">
          <g id="Group_2708" data-name="Group 2708">
            <path id="Path_5559" data-name="Path 5559" d="M1282.679,1638.653,234.75,2243.3,1888.3,3184.494,2936.23,2579.846Z" transform="translate(-234.75 -1638.653)" fill="#7d7d7d"/>
          </g>
        </g>
      </g>
      <g id="Group_2711" data-name="Group 2711" transform="translate(168.056 620.535)">
        <path id="Path_5560" data-name="Path 5560" d="M3365.743,3430.807a23.007,23.007,0,0,0,10.533-43.184L1988.021,2612.082a23.008,23.008,0,1,0-22.085,40.37L3354.19,3427.99A22.833,22.833,0,0,0,3365.743,3430.807Z" transform="translate(-1953.964 -2609.258)" fill="#fff"/>
      </g>
      <g id="Group_2712" data-name="Group 2712" transform="translate(1010.923 45.611)">
        <path id="Path_5561" data-name="Path 5561" d="M2047.377,2531.545a23.008,23.008,0,0,0,10.535-43.185L669.657,1712.82a23.008,23.008,0,1,0-22.085,40.369l1388.254,775.538A22.835,22.835,0,0,0,2047.377,2531.545Z" transform="translate(-635.6 -1709.995)" fill="#fff"/>
      </g>
    </g>
    <path id="Path_5780" data-name="Path 5780" d="M1931.524,1298.392s-90.163,111.673-187.351,152c-108.471,45-245.042,117.864-442.394,30.313-240.988-106.907-373.995-183.074-613.94-337.06C446.965,989.055,245.918,878.1,219.152,793.672s-43.333-140.136,39.914-208.684c83.265-68.557,234.643-169.315,356.04-135s824.7,449.65,824.7,449.65Z" transform="matrix(0.999, -0.035, 0.035, 0.999, -14619.467, 474.085)" opacity="0.23"/>
    <g id="Group_2730" data-name="Group 2730" transform="translate(-14425.25 209.663)">
      <path id="Path_5514" data-name="Path 5514" d="M1161.307,1084.08v-27.61h0c0-5.106,3.346-10.237,10.1-14.1l331.244-191.251c13.507-7.794,35.422-7.783,48.958.033l713.707,412.09c6.726,3.848,10.067,8.927,10.1,13.989h.063v.111s-.029,0,0,.018v28.235h0c0,5.1-3.376,10.235-10.16,14.118L1934.1,1510.962c-13.507,7.788-35.422,7.788-48.924,0l-713.742-412.071c-7.059-4.071-10.342-9.485-10.04-14.811Z" transform="translate(-810.421 25.667)" fill="#315271"/>
      <g id="Group_2699" data-name="Group 2699" transform="translate(213.253 977.635)">
        <path id="Path_5515" data-name="Path 5515" d="M1228.235,1140.1l-.1-.123a40.673,40.673,0,0,1-16.879,5.3c-39.13,3.469-89.226-40.943-111.871-99.181-18.913-48.8-12.5-91.739,13.163-106.443l-.091-.094,53.741-31.043.059.14a40.415,40.415,0,0,1,16.857-5.3c39.2-3.466,89.29,40.935,111.908,99.19,18.932,48.787,12.523,91.726-13.11,106.384l.089.118Z" transform="translate(-1085.074 -903.173)" fill="#315271"/>
        <path id="Path_5516" data-name="Path 5516" d="M1166.185,908.646l-.06-.14-53.741,31.043.09.094A40.768,40.768,0,0,0,1099.46,951.6c-8.006,11.387-11.387,26.9-10.864,44.318l138.424-79.889C1204.588,902.217,1182.4,899.222,1166.185,908.646Z" transform="translate(-1085 -903.157)" opacity="0.3" style="mix-blend-mode: overlay;isolation: isolate"/>
        <path id="Path_5517" data-name="Path 5517" d="M1099.4,1031.912c-22.565-58.219-9.148-108.234,30.014-111.71,39.2-3.481,89.256,40.919,111.877,99.173,22.62,58.225,9.177,108.251-30.021,111.717C1172.138,1134.562,1122.042,1090.15,1099.4,1031.912Z" transform="translate(-1085.085 -888.982)" fill="#315271"/>
        <path id="Path_5518" data-name="Path 5518" d="M1099.4,1031.912c-22.565-58.219-9.148-108.234,30.014-111.71,39.2-3.481,89.256,40.919,111.877,99.173,22.62,58.225,9.177,108.251-30.021,111.717C1172.138,1134.562,1122.042,1090.15,1099.4,1031.912Z" transform="translate(-1085.085 -888.982)" fill="#fff" opacity="0.3" style="mix-blend-mode: overlay;isolation: isolate"/>
        <path id="Path_5519" data-name="Path 5519" d="M1097.031,1031.454c-21.423-55.172-8.717-102.537,28.362-105.832,37.142-3.289,84.563,38.772,106.04,93.931,21.4,55.161,8.7,102.518-28.417,105.848C1165.9,1128.7,1118.454,1086.607,1097.031,1031.454Z" transform="translate(-1086.621 -884.403)" fill="#315271"/>
        <path id="Path_5520" data-name="Path 5520" d="M1126.161,937.883c28.7-2.558,65.416,29.976,81.983,72.653s6.725,79.281-21.944,81.847c-28.758,2.532-65.437-29.973-81.98-72.638C1087.644,977.055,1097.433,940.439,1126.161,937.883Z" transform="translate(-1078.585 -874.036)" fill="#ededef" opacity="0.3"/>
        <path id="Path_5521" data-name="Path 5521" d="M1131.066,947.576c20.417-1.793,46.473,21.329,58.287,51.679,11.756,30.287,4.756,56.314-15.62,58.144s-46.528-21.32-58.29-51.628C1103.722,975.415,1110.653,949.389,1131.066,947.576Z" transform="translate(-1067.129 -865.831)" fill="#ededef" opacity="0.3"/>
        <path id="Path_5522" data-name="Path 5522" d="M1196.287,1081.315c.3-.205.607-.324.981-.553.305-.188.611-.339.922-.527.273-.2.641-.332.98-.6a8.3,8.3,0,0,0,.947-.508c.281-.179.647-.365.924-.553.3-.212.739-.395,1.015-.577,16.822-10.38,20.871-39.227,8.162-72.07-15.443-39.632-49.54-69.858-76.182-67.509a27.634,27.634,0,0,0-13.226,4.62,3.829,3.829,0,0,0-.922.553c-.309.169-.679.306-1.015.518-.276.2-.641.368-.921.586-.3.182-.674.322-.977.505a9.256,9.256,0,0,1-.956.566c-.306.2-.671.371-.946.57-.338.2-.682.351-.986.543-16.79,10.4-20.876,39.312-8.164,72.057,15.41,39.6,49.51,69.9,76.178,67.5a27.748,27.748,0,0,0,13.2-4.57A7.956,7.956,0,0,0,1196.287,1081.315Zm6.437-28.38c-8.28-5.816-23.906-22.019-23.906-32.934a7.663,7.663,0,0,1,.89-3.711c8.075-.908,19.183,3.33,20.378,6.664,4.541,13.025,3.806,20.395,3.806,20.395A28.978,28.978,0,0,1,1202.724,1052.935Zm-89.406-81.028c8.324,5.784,23.94,22.051,23.94,32.95a7.7,7.7,0,0,1-.859,3.7c-8.074.872-19.151-3.334-20.347-6.723-4.6-12.963-3.841-20.3-3.841-20.3A29.352,29.352,0,0,1,1113.319,971.907Zm75.723,31.551c-5.891,1.815-13.354,1.292-18.667-5.3-6.966-8.588-6.321-22.722-3.9-30.969a59.145,59.145,0,0,1,12.584,12.153s6.23,6.728,11.663,19.632C1191.314,1000.226,1190.54,1001.832,1189.042,1003.458Zm-36.984-1.413a13.2,13.2,0,0,1,5,3.028c-.033.055-.092.184-.156.184a2.1,2.1,0,0,0-.951.585,1.856,1.856,0,0,0-.951.523,2.88,2.88,0,0,0-.953.547,2.4,2.4,0,0,0-.951.536,2.259,2.259,0,0,0-.926.463A13.141,13.141,0,0,1,1152.057,1002.045Zm12.056,20.828a14.109,14.109,0,0,1-5.066-3.019c.064-.11.127-.14.192-.234a2.188,2.188,0,0,0,.922-.51,2.65,2.65,0,0,0,.98-.593,2.343,2.343,0,0,0,.951-.527,2.6,2.6,0,0,0,.952-.543,3.226,3.226,0,0,0,.922-.433A14.7,14.7,0,0,1,1164.113,1022.872Zm-37.1-1.517c5.954-1.814,13.412-1.338,18.721,5.305,6.935,8.579,6.29,22.7,3.87,30.954a57.981,57.981,0,0,1-12.53-12.122s-6.232-6.719-11.693-19.639C1124.8,1024.6,1125.533,1022.954,1127.011,1021.356Zm-1.66-68.987c.463-.548.955-.933,1.321-1.393a11.809,11.809,0,0,1,2.7-.288s5.5-1.513,15.507,3.7c3.251,1.672,8.473,23.418,5.521,33.39C1139.375,983.551,1123.324,954.842,1125.351,952.369Zm65.406,120.12c-.459.518-.922.905-1.347,1.368a12,12,0,0,1-2.67.271s-5.492,1.572-15.532-3.679c-3.225-1.69-8.411-23.371-5.526-33.426C1176.7,1041.288,1192.786,1069.974,1190.757,1072.489Z" transform="translate(-1076.635 -873.571)" fill="#ededef"/>
        <path id="Path_5523" data-name="Path 5523" d="M1196.287,1081.315c.3-.205.607-.324.981-.553.305-.188.611-.339.922-.527.273-.2.641-.332.98-.6a8.3,8.3,0,0,0,.947-.508c.281-.179.647-.365.924-.553.3-.212.739-.395,1.015-.577,16.822-10.38,20.871-39.227,8.162-72.07-15.443-39.632-49.54-69.858-76.182-67.509a27.634,27.634,0,0,0-13.226,4.62,3.829,3.829,0,0,0-.922.553c-.309.169-.679.306-1.015.518-.276.2-.641.368-.921.586-.3.182-.674.322-.977.505a9.256,9.256,0,0,1-.956.566c-.306.2-.671.371-.946.57-.338.2-.682.351-.986.543-16.79,10.4-20.876,39.312-8.164,72.057,15.41,39.6,49.51,69.9,76.178,67.5a27.748,27.748,0,0,0,13.2-4.57A7.956,7.956,0,0,0,1196.287,1081.315Zm6.437-28.38c-8.28-5.816-23.906-22.019-23.906-32.934a7.663,7.663,0,0,1,.89-3.711c8.075-.908,19.183,3.33,20.378,6.664,4.541,13.025,3.806,20.395,3.806,20.395A28.978,28.978,0,0,1,1202.724,1052.935Zm-89.406-81.028c8.324,5.784,23.94,22.051,23.94,32.95a7.7,7.7,0,0,1-.859,3.7c-8.074.872-19.151-3.334-20.347-6.723-4.6-12.963-3.841-20.3-3.841-20.3A29.352,29.352,0,0,1,1113.319,971.907Zm75.723,31.551c-5.891,1.815-13.354,1.292-18.667-5.3-6.966-8.588-6.321-22.722-3.9-30.969a59.145,59.145,0,0,1,12.584,12.153s6.23,6.728,11.663,19.632C1191.314,1000.226,1190.54,1001.832,1189.042,1003.458Zm-36.984-1.413a13.2,13.2,0,0,1,5,3.028c-.033.055-.092.184-.156.184a2.1,2.1,0,0,0-.951.585,1.856,1.856,0,0,0-.951.523,2.88,2.88,0,0,0-.953.547,2.4,2.4,0,0,0-.951.536,2.259,2.259,0,0,0-.926.463A13.141,13.141,0,0,1,1152.057,1002.045Zm12.056,20.828a14.109,14.109,0,0,1-5.066-3.019c.064-.11.127-.14.192-.234a2.188,2.188,0,0,0,.922-.51,2.65,2.65,0,0,0,.98-.593,2.343,2.343,0,0,0,.951-.527,2.6,2.6,0,0,0,.952-.543,3.226,3.226,0,0,0,.922-.433A14.7,14.7,0,0,1,1164.113,1022.872Zm-37.1-1.517c5.954-1.814,13.412-1.338,18.721,5.305,6.935,8.579,6.29,22.7,3.87,30.954a57.981,57.981,0,0,1-12.53-12.122s-6.232-6.719-11.693-19.639C1124.8,1024.6,1125.533,1022.954,1127.011,1021.356Zm-1.66-68.987c.463-.548.955-.933,1.321-1.393a11.809,11.809,0,0,1,2.7-.288s5.5-1.513,15.507,3.7c3.251,1.672,8.473,23.418,5.521,33.39C1139.375,983.551,1123.324,954.842,1125.351,952.369Zm65.406,120.12c-.459.518-.922.905-1.347,1.368a12,12,0,0,1-2.67.271s-5.492,1.572-15.532-3.679c-3.225-1.69-8.411-23.371-5.526-33.426C1176.7,1041.288,1192.786,1069.974,1190.757,1072.489Z" transform="translate(-1076.635 -873.571)" style="mix-blend-mode: overlay;isolation: isolate"/>
        <path id="Path_5524" data-name="Path 5524" d="M1105.937,1016.9c15.41,39.6,49.51,69.9,76.178,67.5,26.7-2.331,35.792-36.365,20.446-76.025-15.41-39.634-49.544-69.887-76.182-67.526C1099.673,943.211,1090.528,977.264,1105.937,1016.9Zm31.335-14.083c-.03,14.35-27.042,6.769-28.911,1.41-4.574-13.014-3.839-20.336-3.839-20.336a29.233,29.233,0,0,1,3.868-15.928C1110.23,964.833,1137.243,988.451,1137.273,1002.816Zm8.5-12.012c-10.8.931-30.355-33.341-28.086-36.037,5.465-6.6,11.693-6.12,11.693-6.12s5.5-1.513,15.507,3.7C1149.093,954.5,1156.551,989.831,1145.775,990.8Zm3.408,8.74c4.845-.416,11.08,5.085,13.81,12.325,2.855,7.23,1.133,13.379-3.678,13.812-4.85.476-11.085-5.079-13.875-12.247C1142.645,1006.162,1144.3,999.961,1149.183,999.544Zm41.558-2.607c2.272,5.326-17.279,17.035-28.019,3.606-10.81-13.35-3.35-40.115.795-37.432a59.254,59.254,0,0,1,15.561,14.194S1185.309,984.033,1190.741,996.937Zm-19.58,25.457c0-14.424,27.042-6.808,28.94-1.482,4.54,13.025,3.806,20.395,3.806,20.395a29.2,29.2,0,0,1-3.83,15.863C1198.2,1060.364,1171.161,1036.733,1171.161,1022.394Zm-8.473,12.032c10.775-.976,30.325,33.243,28.083,36.022-5.492,6.557-11.693,6.124-11.693,6.124s-5.5,1.427-15.561-3.746C1159.4,1070.677,1151.943,1035.353,1162.688,1034.426Zm-33.307,13.477s-6.227-6.778-11.693-19.646c-2.3-5.352,17.312-16.973,28.057-3.636,10.74,13.429,3.279,40.077-.858,37.427A58.968,58.968,0,0,1,1129.381,1047.9Zm20.6-34.911c-1.347-3.483-.553-6.478,1.781-6.712,2.36-.212,5.4,2.49,6.717,5.973,1.385,3.481.552,6.524-1.742,6.736C1154.338,1019.158,1151.33,1016.5,1149.981,1012.992Z" transform="translate(-1076.649 -871.53)" fill="#ededef"/>
        <path id="Path_5525" data-name="Path 5525" d="M1231.432,1019.553c-21.477-55.159-68.9-97.22-106.04-93.931-37.078,3.3-49.784,50.66-28.362,105.832,21.423,55.153,68.873,97.244,105.985,93.947C1240.129,1122.071,1252.832,1074.714,1231.432,1019.553Zm-37.2,83.2c-28.757,2.532-65.436-29.972-81.979-72.638-16.577-42.689-6.788-79.3,21.941-81.861,28.7-2.557,65.416,29.976,81.983,72.652S1222.9,1100.185,1194.236,1102.75Z" transform="translate(-1086.622 -884.403)" fill="#315271"/>
      </g>
      <path id="Path_5526" data-name="Path 5526" d="M1891.3,1216.71,970.9,685.334l541.523-312.662,920.427,531.392Z" transform="translate(-970.903 -372.673)" fill="#ffdfcc"/>
      <path id="Path_5528" data-name="Path 5528" d="M2011.9,661.026v574.255L1470.344,1547.9V973.67Z" transform="translate(-549.951 -129.632)" fill="#fed4bd"/>
      <path id="Path_5530" data-name="Path 5530" d="M970.9,542.334v574.255l920.4,531.35V1073.71Z" transform="translate(-970.903 -229.67)" fill="#ffe9dc"/>
      <g id="Group_2703" data-name="Group 2703" transform="translate(989.731 810.206)">
        <g id="Group_2701" data-name="Group 2701" transform="translate(25.633 630.538)">
          <path id="Path_5531" data-name="Path 5531" d="M1663.485,1391.407l-.064-.153a40.333,40.333,0,0,1-16.912,5.326c-39.133,3.465-89.229-40.943-111.874-99.173-18.909-48.826-12.467-91.722,13.166-106.443l-.059-.084,53.739-31.073.065.144a40.531,40.531,0,0,1,16.843-5.283c39.2-3.481,89.294,40.9,111.883,99.157,18.969,48.808,12.55,91.756-13.136,106.382l.123.12Z" transform="translate(-1520.332 -1154.475)" fill="#315271"/>
          <path id="Path_5532" data-name="Path 5532" d="M1534.639,1283.219c-22.533-58.193-9.12-108.227,30.018-111.718,39.193-3.508,89.256,40.918,111.876,99.164,22.654,58.262,9.208,108.261-30.021,111.727C1607.38,1385.858,1557.284,1341.45,1534.639,1283.219Z" transform="translate(-1520.336 -1140.287)" fill="#315271"/>
          <path id="Path_5533" data-name="Path 5533" d="M1534.639,1283.219c-22.533-58.193-9.12-108.227,30.018-111.718,39.193-3.508,89.256,40.918,111.876,99.164,22.654,58.262,9.208,108.261-30.021,111.727C1607.38,1385.858,1557.284,1341.45,1534.639,1283.219Z" transform="translate(-1520.336 -1140.287)" fill="#fff" opacity="0.3" style="mix-blend-mode: overlay;isolation: isolate"/>
          <path id="Path_5534" data-name="Path 5534" d="M1532.282,1282.74c-21.427-55.164-8.686-102.527,28.387-105.815,37.142-3.288,84.534,38.777,106.048,93.93,21.423,55.171,8.686,102.536-28.452,105.815C1601.188,1379.984,1553.739,1337.876,1532.282,1282.74Z" transform="translate(-1521.879 -1135.704)" fill="#315271"/>
          <path id="Path_5535" data-name="Path 5535" d="M1561.443,1189.181c28.663-2.546,65.406,30,81.949,72.61,16.6,42.685,6.749,79.355-21.95,81.9-28.724,2.523-65.4-29.985-81.985-72.653C1522.916,1228.341,1532.713,1191.721,1561.443,1189.181Z" transform="translate(-1513.837 -1125.34)" fill="#ededef" opacity="0.3"/>
          <path id="Path_5536" data-name="Path 5536" d="M1566.308,1198.871c20.441-1.81,46.5,21.329,58.317,51.67,11.758,30.335,4.759,56.31-15.625,58.179-20.412,1.809-46.529-21.3-58.284-51.663C1538.99,1226.723,1545.925,1200.672,1566.308,1198.871Z" transform="translate(-1502.377 -1117.14)" fill="#ededef" opacity="0.3"/>
          <path id="Path_5537" data-name="Path 5537" d="M1631.554,1332.633c.285-.2.619-.332.95-.553s.647-.365.952-.579a10.761,10.761,0,0,0,.952-.567,10.319,10.319,0,0,0,.979-.511c.28-.212.652-.339.922-.553.312-.213.715-.382.986-.577,16.823-10.381,20.841-39.262,8.167-72.04-15.414-39.653-49.51-69.911-76.182-67.532a27.763,27.763,0,0,0-13.229,4.613,5.674,5.674,0,0,0-.917.57c-.281.16-.68.322-.986.5-.31.221-.644.358-.98.586-.281.2-.647.323-.948.553a8.774,8.774,0,0,1-.931.518c-.306.2-.67.355-.972.585-.31.2-.679.339-.955.553-16.758,10.372-20.9,39.287-8.2,72.039,15.439,39.594,49.54,69.866,76.182,67.49a27.255,27.255,0,0,0,13.259-4.571C1630.911,1333,1631.192,1332.852,1631.554,1332.633Zm6.451-28.4c-8.321-5.784-23.913-22.026-23.913-32.925a8.3,8.3,0,0,1,.889-3.745c8.05-.885,19.155,3.347,20.353,6.693,4.573,13.031,3.806,20.378,3.806,20.378A29.74,29.74,0,0,1,1638,1304.234Zm-89.412-81.02c8.32,5.759,23.941,22.042,23.941,32.934a7.232,7.232,0,0,1-.857,3.685c-8.1.866-19.186-3.321-20.388-6.66-4.6-13.029-3.83-20.353-3.83-20.353A29.651,29.651,0,0,1,1548.593,1223.215Zm75.694,31.539c-5.9,1.809-13.362,1.308-18.667-5.3-6.965-8.587-6.26-22.714-3.861-30.97a58.772,58.772,0,0,1,12.521,12.155s6.26,6.717,11.689,19.613C1626.55,1251.51,1625.82,1253.174,1624.287,1254.754Zm-36.985-1.4a12.742,12.742,0,0,1,5,3c-.034.077-.069.2-.128.212a2.109,2.109,0,0,0-.921.57,1.529,1.529,0,0,0-.98.57,2.034,2.034,0,0,0-.98.534,3.421,3.421,0,0,0-.983.5c-.309.171-.648.2-.862.452A13.046,13.046,0,0,1,1587.3,1253.353Zm12.088,20.812a13.325,13.325,0,0,1-5.069-3.031c.035-.095.094-.111.188-.221a2.514,2.514,0,0,0,.922-.5,3.054,3.054,0,0,0,.955-.567,2.353,2.353,0,0,0,.948-.586,2.184,2.184,0,0,0,.956-.51,2.6,2.6,0,0,0,.921-.441A14.754,14.754,0,0,1,1599.39,1274.165Zm-37.108-1.5c5.95-1.791,13.383-1.315,18.725,5.3,6.907,8.587,6.261,22.706,3.861,30.945a56.806,56.806,0,0,1-12.521-12.138s-6.26-6.7-11.722-19.654C1560.043,1275.88,1560.773,1274.259,1562.282,1272.661Zm-1.657-69c.428-.518.921-.944,1.292-1.41a12.213,12.213,0,0,1,2.731-.246s5.486-1.5,15.468,3.67c3.281,1.69,8.47,23.393,5.551,33.433C1574.62,1234.844,1558.565,1206.15,1560.625,1203.661Zm65.406,120.1c-.463.528-.917.928-1.354,1.394a14.228,14.228,0,0,1-2.663.271s-5.527,1.53-15.563-3.719c-3.223-1.648-8.383-23.292-5.525-33.4C1611.94,1292.58,1628.092,1321.283,1626.031,1323.762Z" transform="translate(-1511.887 -1124.879)" fill="#ededef"/>
          <path id="Path_5538" data-name="Path 5538" d="M1631.554,1332.633c.285-.2.619-.332.95-.553s.647-.365.952-.579a10.761,10.761,0,0,0,.952-.567,10.319,10.319,0,0,0,.979-.511c.28-.212.652-.339.922-.553.312-.213.715-.382.986-.577,16.823-10.381,20.841-39.262,8.167-72.04-15.414-39.653-49.51-69.911-76.182-67.532a27.763,27.763,0,0,0-13.229,4.613,5.674,5.674,0,0,0-.917.57c-.281.16-.68.322-.986.5-.31.221-.644.358-.98.586-.281.2-.647.323-.948.553a8.774,8.774,0,0,1-.931.518c-.306.2-.67.355-.972.585-.31.2-.679.339-.955.553-16.758,10.372-20.9,39.287-8.2,72.039,15.439,39.594,49.54,69.866,76.182,67.49a27.255,27.255,0,0,0,13.259-4.571C1630.911,1333,1631.192,1332.852,1631.554,1332.633Zm6.451-28.4c-8.321-5.784-23.913-22.026-23.913-32.925a8.3,8.3,0,0,1,.889-3.745c8.05-.885,19.155,3.347,20.353,6.693,4.573,13.031,3.806,20.378,3.806,20.378A29.74,29.74,0,0,1,1638,1304.234Zm-89.412-81.02c8.32,5.759,23.941,22.042,23.941,32.934a7.232,7.232,0,0,1-.857,3.685c-8.1.866-19.186-3.321-20.388-6.66-4.6-13.029-3.83-20.353-3.83-20.353A29.651,29.651,0,0,1,1548.593,1223.215Zm75.694,31.539c-5.9,1.809-13.362,1.308-18.667-5.3-6.965-8.587-6.26-22.714-3.861-30.97a58.772,58.772,0,0,1,12.521,12.155s6.26,6.717,11.689,19.613C1626.55,1251.51,1625.82,1253.174,1624.287,1254.754Zm-36.985-1.4a12.742,12.742,0,0,1,5,3c-.034.077-.069.2-.128.212a2.109,2.109,0,0,0-.921.57,1.529,1.529,0,0,0-.98.57,2.034,2.034,0,0,0-.98.534,3.421,3.421,0,0,0-.983.5c-.309.171-.648.2-.862.452A13.046,13.046,0,0,1,1587.3,1253.353Zm12.088,20.812a13.325,13.325,0,0,1-5.069-3.031c.035-.095.094-.111.188-.221a2.514,2.514,0,0,0,.922-.5,3.054,3.054,0,0,0,.955-.567,2.353,2.353,0,0,0,.948-.586,2.184,2.184,0,0,0,.956-.51,2.6,2.6,0,0,0,.921-.441A14.754,14.754,0,0,1,1599.39,1274.165Zm-37.108-1.5c5.95-1.791,13.383-1.315,18.725,5.3,6.907,8.587,6.261,22.706,3.861,30.945a56.806,56.806,0,0,1-12.521-12.138s-6.26-6.7-11.722-19.654C1560.043,1275.88,1560.773,1274.259,1562.282,1272.661Zm-1.657-69c.428-.518.921-.944,1.292-1.41a12.213,12.213,0,0,1,2.731-.246s5.486-1.5,15.468,3.67c3.281,1.69,8.47,23.393,5.551,33.433C1574.62,1234.844,1558.565,1206.15,1560.625,1203.661Zm65.406,120.1c-.463.528-.917.928-1.354,1.394a14.228,14.228,0,0,1-2.663.271s-5.527,1.53-15.563-3.719c-3.223-1.648-8.383-23.292-5.525-33.4C1611.94,1292.58,1628.092,1321.283,1626.031,1323.762Z" transform="translate(-1511.887 -1124.879)" style="mix-blend-mode: overlay;isolation: isolate"/>
          <path id="Path_5539" data-name="Path 5539" d="M1541.178,1268.2c15.44,39.593,49.54,69.866,76.182,67.489,26.7-2.327,35.787-36.356,20.443-76.026-15.41-39.643-49.507-69.882-76.183-67.529C1534.951,1194.506,1525.8,1228.576,1541.178,1268.2Zm31.369-14.091c-.029,14.354-27.036,6.76-28.944,1.426-4.544-13.031-3.776-20.3-3.776-20.3a29.25,29.25,0,0,1,3.805-15.96C1545.511,1216.115,1572.518,1239.762,1572.547,1254.111Zm8.508-12.047c-10.838.969-30.364-33.3-28.121-36.032,5.5-6.594,11.728-6.067,11.728-6.067s5.486-1.5,15.467,3.671C1584.329,1205.769,1591.792,1241.129,1581.054,1242.064Zm3.372,8.809c4.881-.443,11.081,5.055,13.842,12.31,2.825,7.193,1.135,13.387-3.686,13.811-4.881.442-11.047-5.062-13.871-12.266C1577.886,1257.474,1579.542,1251.257,1584.426,1250.873Zm41.556-2.658c2.306,5.31-17.249,17.039-28.025,3.627-10.8-13.372-3.313-40.085.83-37.427a58.735,58.735,0,0,1,15.506,14.187S1620.553,1235.319,1625.982,1248.216Zm-19.58,25.467c0-14.39,27.042-6.8,28.945-1.461,4.573,13.03,3.8,20.378,3.8,20.378a29.081,29.081,0,0,1-3.8,15.9C1633.47,1311.634,1606.4,1288.029,1606.4,1273.682Zm-8.445,12.071c10.776-1.012,30.266,33.212,28.088,35.972-5.492,6.557-11.752,6.143-11.752,6.143s-5.466,1.452-15.506-3.714C1594.645,1321.972,1587.216,1286.661,1597.958,1285.753Zm-33.331,13.462s-6.191-6.821-11.693-19.656c-2.266-5.317,17.312-17.006,28.088-3.636,10.732,13.4,3.278,40.069-.893,37.426A59.437,59.437,0,0,1,1564.627,1299.215Zm20.6-34.911c-1.351-3.5-.528-6.507,1.807-6.711s5.371,2.49,6.692,5.938c1.413,3.518.586,6.542-1.751,6.754C1589.608,1270.437,1586.6,1267.8,1585.226,1264.3Z" transform="translate(-1511.9 -1122.84)" fill="#ededef"/>
          <path id="Path_5540" data-name="Path 5540" d="M1666.718,1270.855c-21.515-55.153-68.906-97.218-106.048-93.93-37.073,3.288-49.814,50.651-28.387,105.815,21.457,55.136,68.906,97.244,105.984,93.931C1675.4,1373.392,1688.141,1326.026,1666.718,1270.855Zm-37.234,83.194c-28.725,2.523-65.4-29.984-81.985-72.653-16.541-42.691-6.742-79.312,21.986-81.852,28.664-2.547,65.406,30,81.95,72.61C1668.035,1314.839,1658.182,1351.51,1629.484,1354.049Z" transform="translate(-1521.879 -1135.704)" fill="#315271"/>
        </g>
        <path id="Path_5541" data-name="Path 5541" d="M2221.743,952.747c-16.818-29.112-62.985-65.594-137.167-108.441-11.636-6.719-21.792-12.342-30.757-17.124-49.938-28.344-90.364-9.072-107.179.076v-.016l-364.514,210.483c-26.117,15.3-66.848,43.593-73.266,110-.8,32.609-1.073,80.12-.769,149.9.189,42.31.433,76.407.8,104.158l119.428,68.965c22.9,13.235,43.866,34.793,60.191,59.888l148.826,85.945,465.132-268.566c1.193-29.808,1.805-65.23,1.805-103.047C2304.3,1133.194,2247.619,997.5,2221.743,952.747Z" transform="translate(-1507.97 -812.322)" fill="#ededef"/>
        <path id="Path_5542" data-name="Path 5542" d="M2190.656,1215.483V1145s.034,0,.034-.028l-.034-.568h-.024c-.247-13.889-11.6-25.739-32.381-37.758l-15.069-8.682-474.706,274.073v71.438l15.073,8.672c67.493,38.963,132.322,20.658,321.421-88.487,131.273-75.83,186.643-116.993,185.662-148.176Z" transform="translate(-1372.685 -571.569)" fill="#315271"/>
        <path id="Path_5543" data-name="Path 5543" d="M2143.181,1097.962l15.069,8.682c67.491,38.98,35.758,76.4-153.281,185.56-189.1,109.162-253.9,127.518-321.421,88.5l-15.073-8.672Z" transform="translate(-1372.685 -571.569)" fill="#fff" opacity="0.3" style="mix-blend-mode: overlay;isolation: isolate"/>
        <path id="Path_5544" data-name="Path 5544" d="M2175.789,1065.013c-.212-13.813-11.412-25.612-32.13-37.537L1673.408,1298.99v124.358c66.877,38.65,131.15,20.463,318.438-87.644,128.729-74.327,183.857-115.108,183.942-145.876h0l.035-124.829Z" transform="translate(-1368.53 -630.978)" fill="#ededef"/>
        <path id="Path_5545" data-name="Path 5545" d="M1991.846,1211.328c-187.288,108.125-251.561,126.271-318.438,87.663l470.251-271.515C2210.569,1066.082,2179.109,1103.211,1991.846,1211.328Z" transform="translate(-1368.53 -630.978)" fill="#fff" opacity="0.8" style="mix-blend-mode: overlay;isolation: isolate"/>
        <path id="Path_5546" data-name="Path 5546" d="M1756.616,1101.9c-16.82-29.1-62.948-65.591-137.171-108.422-44.044-25.446-67.739-35.8-81.122-39.516-14.365,17.3-26.239,41.037-29.463,74.385-.8,32.609-1.073,80.12-.769,149.9.189,42.31.433,76.406.8,104.158l119.428,68.965c22.9,13.235,43.865,34.792,60.191,59.887l148.827,85.945c1.181-29.816,1.785-65.27,1.818-103.054C1839.182,1282.37,1782.46,1146.677,1756.616,1101.9Z" transform="translate(-1507.969 -692.941)" fill="#ededef"/>
        <g id="Group_2702" data-name="Group 2702" transform="translate(24.289 290.457)">
          <path id="Path_5547" data-name="Path 5547" d="M1711.523,1501.12c0-60.081-42.2-133.167-94.316-163.213l-94.929-54.821c-1.97-123.247-1.784-309.529,4.017-312.832,11.2-6.465,178.141,86.676,202.026,128.06,24.949,43.148,75.446,168.912,75.446,268.357s-4.457,189.007-12.527,184.343c-3.589-2.055-39.074-22.534-79.889-46.1C1711.376,1503.642,1711.523,1502.427,1711.523,1501.12Z" transform="translate(-1521.15 -969.934)" fill="#dde8eb"/>
          <path id="Path_5548" data-name="Path 5548" d="M1533.476,1057.629v-78.27c12.55,5.1,34.742,15.9,64.511,33.107,63.907,36.9,104.88,69.317,112.4,82.3,23.967,41.488,67.709,152.391,71.914,243.8-57.609-45.581-166.358-155.778-202.388-191.193C1530.065,1098.42,1533.476,1073.143,1533.476,1057.629Z" transform="translate(-1510.8 -961.991)" fill="#243c3f"/>
          <path id="Path_5549" data-name="Path 5549" d="M1527.954,1107.054c0,6.657,4.7,14.78,10.47,18.119l25.5,14.737c5.8,3.347,10.5.655,10.5-6.032h0c0-6.686-4.7-14.8-10.5-18.126l-25.5-14.729c-5.772-3.38-10.47-.645-10.47,6.032Z" transform="translate(-1515.413 -860.669)" fill="#315271"/>
        </g>
        <path id="Path_5550" data-name="Path 5550" d="M1711.523,1501.12c0-60.081-42.2-133.167-94.316-163.213l-94.929-54.821c-1.97-123.247-1.784-309.529,4.017-312.832,11.2-6.465,178.141,86.676,202.026,128.06,24.949,43.148,75.446,168.912,75.446,268.357s-4.457,189.007-12.527,184.343c-3.589-2.055-39.074-22.534-79.889-46.1C1711.376,1503.642,1711.523,1502.427,1711.523,1501.12Z" transform="translate(-1496.86 -679.478)" fill="#ededef"/>
        <path id="Path_5551" data-name="Path 5551" d="M1525.495,1070.1v-95.5c3.816,1.546,8.783,4.681,14.64,8.759,13.327,9.255,31.463,23.452,52.151,35.4,63.874,36.879,102.638,75.494,110.16,88.479,23.936,41.493,90.078,163.558,86.583,254.857-57.61-45.6-181.059-166.847-217.086-202.251C1522.122,1110.894,1525.495,1085.619,1525.495,1070.1Z" transform="translate(-1493.237 -675.54)" fill="#fff" opacity="0.8" style="mix-blend-mode: overlay;isolation: isolate"/>
        <path id="Path_5552" data-name="Path 5552" d="M1533.476,1057.629v-78.27c12.55,5.1,34.742,15.9,64.511,33.107,63.907,36.9,104.88,69.317,112.4,82.3,23.967,41.488,67.709,152.391,71.914,243.8-57.609-45.581-166.358-155.778-202.388-191.193C1530.065,1098.42,1533.476,1073.143,1533.476,1057.629Z" transform="translate(-1486.511 -671.534)" fill="#315271"/>
        <path id="Path_5553" data-name="Path 5553" d="M1539.09,987.954c10.529,4.7,28.914,13.692,56.075,29.434,62.366,35.972,103.406,68.167,110.313,80.228,21.729,37.511,62.951,140.337,70.345,228.372-49.446-41.147-127.066-118.258-170.094-161.028-8.749-8.654-16.177-16.053-21.828-21.609-45.27-44.459-45-67.585-44.811-82.914V987.954Zm-5.615-8.6v78.27c0,15.515-3.411,40.792,46.438,89.739,36.03,35.415,144.778,145.612,202.388,191.193-4.206-91.408-47.947-202.31-71.914-243.8-7.521-12.979-48.494-45.4-112.4-82.3-29.769-17.206-51.961-28.011-64.511-33.107Z" transform="translate(-1486.511 -671.534)" opacity="0.3" style="mix-blend-mode: overlay;isolation: isolate"/>
        <path id="Path_5554" data-name="Path 5554" d="M1527.954,1107.054c0,6.657,4.7,14.78,10.47,18.119l25.5,14.737c5.8,3.347,10.5.655,10.5-6.032h0c0-6.686-4.7-14.8-10.5-18.126l-25.5-14.729c-5.772-3.38-10.47-.645-10.47,6.032Z" transform="translate(-1491.124 -570.212)" fill="#315271"/>
        <path id="Path_5555" data-name="Path 5555" d="M2187.833,1149.88c-7.643-91.579-46.1-191.646-71.333-242.481-.306-.612-.7-1.322-1.074-2.128-11.785-25-33.7-16.7-43.491-11.068-4.877,2.842-87.505,64.162-187.166,121.713-99.291,57.291-215.553,110.851-221.423,114.2l-.458.242c-10.16,5.878-25.352,15.117-14.7,39.229,1.164,2.305,2.363,4.633,3.56,7.113l.029.039c25.139,50.885,63.011,149.9,70.811,240.769l-.894.518c.337.146.68.238.986.367v.024h.059a108.669,108.669,0,0,0,40.574,7.672c48.563,0,113.23-27.4,247.175-104.728,74.772-43.152,144.965-86.312,169.3-116.726l.033-.03C2191.977,1191.868,2190.409,1181.616,2187.833,1149.88Z" transform="translate(-1392.846 -748.346)" fill="#315271"/>
        <path id="Path_5556" data-name="Path 5556" d="M2091.794,893.868c8.073,0,14.151,4.532,18.538,13.816.43.918.828,1.716,1.1,2.237,28.116,56.62,63.475,153.559,70.749,240.422l.367,4.859c2.4,28.439,2.607,35.595-6.63,45.292l-.153.153-.182.251-.213.208c-24.281,30.359-98.406,75.352-167.7,115.36-132.936,76.749-196.87,103.972-244.359,103.939a102.364,102.364,0,0,1-35.327-6.058c-8.005-87.092-43.212-183.572-71.174-240.127l-.371-.833h-.034c-1.07-2.14-2.11-4.222-3.125-6.2-7.981-18.283.521-25.015,12.494-31.929l.365-.23c.953-.518,6.693-3.286,13.97-6.769,34.677-16.68,126.786-60.855,207.454-107.472,81.89-47.222,151.5-96.485,177.686-115.027,4.691-3.343,8.774-6.2,9.544-6.647,3.371-1.963,10.065-5.245,17-5.245Zm0-5.648c-7.765.02-15.2,3.282-19.86,5.988-4.877,2.842-87.505,64.163-187.166,121.713-99.291,57.291-215.553,110.851-221.423,114.2l-.458.241c-10.16,5.879-25.352,15.117-14.7,39.229,1.164,2.305,2.363,4.633,3.56,7.114l.029.038c25.139,50.885,63.011,149.9,70.811,240.769l-.894.518c.337.146.68.238.986.367v.024h.059a108.669,108.669,0,0,0,40.574,7.672c48.563,0,113.23-27.4,247.175-104.727,74.772-43.152,144.965-86.312,169.3-116.727l.033-.03c12.156-12.734,10.587-22.986,8.011-54.722-7.643-91.579-46.1-191.646-71.333-242.481-.306-.612-.7-1.322-1.074-2.129-6.137-13.076-15.1-17.035-23.631-17.056Z" transform="translate(-1392.846 -748.351)" opacity="0.3" style="mix-blend-mode: overlay;isolation: isolate"/>
      </g>
    </g>
  </g>
</svg>
