<svg xmlns="http://www.w3.org/2000/svg" width="250" height="250" viewBox="0 0 250 250">
  <g id="ic_limit" transform="translate(-626 -1602)">
    <g id="Path_97904" data-name="Path 97904" transform="translate(626 1602)" fill="none">
      <path d="M125,0A125,125,0,1,1,0,125,125,125,0,0,1,125,0Z" stroke="none"/>
      <path d="M 125 6 C 59.38319396972656 6 6 59.38319396972656 6 125 C 6 190.6168060302734 59.38319396972656 244 125 244 C 190.6168060302734 244 244 190.6168060302734 244 125 C 244 59.38319396972656 190.6168060302734 6 125 6 M 125 0 C 194.0355834960938 0 250 55.96441650390625 250 125 C 250 194.0355834960938 194.0355834960938 250 125 250 C 55.96441650390625 250 0 194.0355834960938 0 125 C 0 55.96441650390625 55.96441650390625 0 125 0 Z" stroke="none" fill="#0d1b3a"/>
    </g>
    <g id="Group_21387" data-name="Group 21387" transform="translate(364.787 -224.157)">
      <path id="Path_97892" data-name="Path 97892" d="M3703.787,8660.751a8.617,8.617,0,0,1-3.421-.7,8.744,8.744,0,0,1-2.792-1.912,8.888,8.888,0,0,1-1.884-2.836,8.994,8.994,0,0,1-.69-3.473V8539.377a2.113,2.113,0,0,1,.826-.772,3.967,3.967,0,0,1,3.208-.02,2.067,2.067,0,0,1,.815.741v32.359h16.666v-60.764a3.975,3.975,0,0,0-3.939-4h-8.788a3.975,3.975,0,0,0-3.939,4v21.036a2.384,2.384,0,0,1-.814.9,3.228,3.228,0,0,1-3.208-.021,2.471,2.471,0,0,1-.827-.935v-20.982a8.985,8.985,0,0,1,.69-3.472,8.892,8.892,0,0,1,1.884-2.837,8.786,8.786,0,0,1,2.792-1.912,8.634,8.634,0,0,1,3.421-.7h8.788a8.619,8.619,0,0,1,3.419.7,8.753,8.753,0,0,1,2.793,1.912,8.887,8.887,0,0,1,1.884,2.837,8.985,8.985,0,0,1,.69,3.472v140.907a8.993,8.993,0,0,1-.69,3.473,8.883,8.883,0,0,1-1.884,2.836,8.737,8.737,0,0,1-2.793,1.912,8.6,8.6,0,0,1-3.419.7Zm-3.939-8.922a3.975,3.975,0,0,0,3.939,4h8.788a3.975,3.975,0,0,0,3.939-4V8576.3h-16.666Z" transform="translate(-3354.541 -6630)" fill="#0d1b3a"/>
      <path id="Path_97903" data-name="Path 97903" d="M3747.584,8589.988a2.534,2.534,0,0,1-.9-2.132,2.449,2.449,0,0,1,.982-2.176h13.325a3.541,3.541,0,0,0,3.538-3.538v-9.536a3.541,3.541,0,0,0-3.538-3.538h-57.839a3.542,3.542,0,0,0-3.539,3.538v9.536a3.542,3.542,0,0,0,3.539,3.538h37.868a2.446,2.446,0,0,1,1.157,2.176,2.658,2.658,0,0,1-.334,1.341,2.5,2.5,0,0,1-.728.791h-37.963a8.148,8.148,0,0,1-8.153-8.152v-8.923a8.133,8.133,0,0,1,2.389-5.765c.08-.08.161-.158.244-.234-.083-.076-.164-.153-.244-.234a8.125,8.125,0,0,1-2.389-5.765v-8.923a8.129,8.129,0,0,1,2.389-5.765c.08-.08.161-.156.244-.234-.083-.075-.164-.153-.244-.233a8.125,8.125,0,0,1-2.389-5.766v-8.922a8.125,8.125,0,0,1,2.389-5.765q.119-.12.243-.234-.124-.114-.244-.234a8.128,8.128,0,0,1-2.388-5.765v-8.923a8.149,8.149,0,0,1,8.153-8.152h40.116a2.5,2.5,0,0,1,.729.793,2.653,2.653,0,0,1,.333,1.34,2.443,2.443,0,0,1-1.157,2.175h-40.021a3.541,3.541,0,0,0-3.539,3.538v9.537a3.542,3.542,0,0,0,3.539,3.537h57.839a3.542,3.542,0,0,0,3.538-3.537v-9.537a3.541,3.541,0,0,0-3.538-3.538h-11.171a2.445,2.445,0,0,1-.982-2.175,2.534,2.534,0,0,1,.9-2.133h11.254a8.145,8.145,0,0,1,8.153,8.152v8.923a8.126,8.126,0,0,1-2.388,5.765q-.12.12-.244.234.124.114.244.234a8.117,8.117,0,0,1,2.388,5.765v8.922a8.126,8.126,0,0,1-2.388,5.766c-.08.08-.161.158-.244.233.083.078.164.154.244.234a8.126,8.126,0,0,1,2.388,5.765v8.923a8.126,8.126,0,0,1-2.388,5.765c-.08.081-.161.158-.244.234q.124.114.244.234a8.126,8.126,0,0,1,2.388,5.765v8.923a8.146,8.146,0,0,1-8.152,8.152Zm13.409-25.227a3.543,3.543,0,0,0,3.538-3.539v-9.536a3.542,3.542,0,0,0-3.538-3.539h-57.839a3.543,3.543,0,0,0-3.539,3.539v9.536a3.544,3.544,0,0,0,3.539,3.539Zm0-20.922a3.542,3.542,0,0,0,3.538-3.539v-9.536a3.542,3.542,0,0,0-3.538-3.537h-57.839a3.542,3.542,0,0,0-3.539,3.537v9.536a3.543,3.543,0,0,0,3.539,3.539Z" transform="translate(-3313.777 -6560.315)" fill="#0d1b3a"/>
      <path id="Path_97902" data-name="Path 97902" d="M3700.241,8541.455a5.215,5.215,0,0,1-1.969-.388,5.318,5.318,0,0,1-1.674-1.083,5.164,5.164,0,0,1-1.6-3.768v-14.591a5.159,5.159,0,0,1,1.6-3.768,5.319,5.319,0,0,1,1.674-1.083,5.163,5.163,0,0,1,4.7.4l11.86,7.294a5.222,5.222,0,0,1,0,8.911l-11.86,7.295A5.219,5.219,0,0,1,3700.241,8541.455Zm-.01-20.319a.309.309,0,0,0-.309.309V8536.4a.308.308,0,0,0,.473.26l11.734-7.478a.308.308,0,0,0,0-.519l-11.734-7.478A.3.3,0,0,0,3700.23,8521.136Z" transform="translate(-3377 -6584.891)" fill="#e36410"/>
      <path id="Path_97901" data-name="Path 97901" d="M-3262.175-6403.193v4.6h-26.147v-4.6Z" transform="translate(3628.996 8344.884)" fill="#e36410"/>
    </g>
  </g>
</svg>
