<svg xmlns="http://www.w3.org/2000/svg" xmlns:xlink="http://www.w3.org/1999/xlink" width="2701.48" height="2267.187" viewBox="0 0 2701.48 2267.187">
  <defs>
    <radialGradient id="radial-gradient" cx="0.5" cy="0.5" r="0.438" gradientTransform="matrix(-0.999, 0.036, 0.042, 1.16, 0.979, -0.098)" gradientUnits="objectBoundingBox">
      <stop offset="0" stop-opacity="0.812"/>
      <stop offset="1" stop-color="#fff" stop-opacity="0"/>
    </radialGradient>
  </defs>
  <g id="Group_3020" data-name="Group 3020" transform="translate(14618.029 -7448.874)">
    <g id="Group_2713" data-name="Group 2713" transform="translate(-14618.029 8109.492)">
      <g id="Group_2710" data-name="Group 2710" transform="translate(0)">
        <g id="Group_2706" data-name="Group 2706" transform="translate(1653.551 941.193)">
          <path id="Path_5557" data-name="Path 5557" d="M234.75,3715.461v60.728l1047.929-604.65v-60.725Z" transform="translate(-234.75 -3110.813)" fill="#a4ad8e"/>
        </g>
        <g id="Group_2707" data-name="Group 2707" transform="translate(0 604.647)">
          <path id="Path_5558" data-name="Path 5558" d="M3527.412,3525.6v60.727l-1653.551-941.2v-60.725Z" transform="translate(-1873.861 -2584.407)" fill="#a4ad8e"/>
        </g>
        <g id="Group_2709" data-name="Group 2709" transform="translate(0)">
          <g id="Group_2708" data-name="Group 2708">
            <path id="Path_5559" data-name="Path 5559" d="M1282.679,1638.653,234.75,2243.3,1888.3,3184.494,2936.23,2579.846Z" transform="translate(-234.75 -1638.653)" fill="#7d7d7d"/>
          </g>
        </g>
      </g>
      <g id="Group_2711" data-name="Group 2711" transform="translate(168.056 620.535)">
        <path id="Path_5560" data-name="Path 5560" d="M3365.743,3430.807a23.007,23.007,0,0,0,10.533-43.184L1988.021,2612.082a23.008,23.008,0,1,0-22.085,40.37L3354.19,3427.99A22.833,22.833,0,0,0,3365.743,3430.807Z" transform="translate(-1953.964 -2609.258)" fill="#fff"/>
      </g>
      <g id="Group_2712" data-name="Group 2712" transform="translate(1010.923 45.611)">
        <path id="Path_5561" data-name="Path 5561" d="M2047.377,2531.545a23.008,23.008,0,0,0,10.535-43.185L669.657,1712.82a23.008,23.008,0,1,0-22.085,40.369l1388.254,775.538A22.835,22.835,0,0,0,2047.377,2531.545Z" transform="translate(-635.6 -1709.995)" fill="#fff"/>
      </g>
    </g>
    <g id="Group_2934" data-name="Group 2934" transform="translate(-14037.172 7904.935)">
      <path id="Path_5514" data-name="Path 5514" d="M1161.307,1040.242V1017.7h0c0-4.169,2.732-8.358,8.242-11.513l270.435-156.142c11.027-6.363,28.919-6.354,39.97.027l582.686,336.44c5.491,3.141,8.219,7.288,8.244,11.421h.051v.09s-.023,0,0,.015v23.051h0c0,4.167-2.756,8.356-8.295,11.526l-270.406,156.142c-11.027,6.358-28.919,6.358-39.943,0l-582.716-336.424c-5.763-3.323-8.444-7.744-8.2-12.092Z" transform="translate(-874.836 -134.219)" fill="#315271"/>
      <g id="Group_2699" data-name="Group 2699" transform="translate(174.105 798.164)">
        <path id="Path_5515" data-name="Path 5515" d="M1202.574,1096.608l-.08-.1a33.207,33.207,0,0,1-13.781,4.33c-31.947,2.832-72.846-33.427-91.334-80.974-15.441-39.842-10.2-74.9,10.746-86.9l-.074-.077,43.875-25.344.048.114a33,33,0,0,1,13.762-4.327c32-2.83,72.9,33.42,91.364,80.981,15.456,39.831,10.224,74.887-10.7,86.855l.072.1Z" transform="translate(-1085.695 -903.173)" fill="#315271"/>
        <path id="Path_5516" data-name="Path 5516" d="M1151.932,907.645l-.049-.114-43.876,25.344.074.076a33.283,33.283,0,0,0-10.625,9.762c-6.536,9.3-9.3,21.963-8.87,36.183L1201.6,913.673C1183.285,902.4,1165.167,899.951,1151.932,907.645Z" transform="translate(-1085.651 -903.163)" opacity="0.3" style="mix-blend-mode: overlay;isolation: isolate"/>
        <path id="Path_5517" data-name="Path 5517" d="M1097.387,1011.369c-18.423-47.532-7.468-88.365,24.5-91.2,32-2.842,72.87,33.407,91.339,80.967,18.468,47.536,7.492,88.379-24.51,91.209C1156.775,1095.175,1115.875,1058.916,1097.387,1011.369Z" transform="translate(-1085.702 -894.678)" fill="#315271"/>
        <path id="Path_5518" data-name="Path 5518" d="M1097.387,1011.369c-18.423-47.532-7.468-88.365,24.5-91.2,32-2.842,72.87,33.407,91.339,80.967,18.468,47.536,7.492,88.379-24.51,91.209C1156.775,1095.175,1115.875,1058.916,1097.387,1011.369Z" transform="translate(-1085.702 -894.678)" fill="#fff" opacity="0.3" style="mix-blend-mode: overlay;isolation: isolate"/>
        <path id="Path_5519" data-name="Path 5519" d="M1095.12,1011.993c-17.49-45.043-7.116-83.713,23.155-86.4,30.324-2.685,69.039,31.654,86.573,76.687,17.471,45.035,7.1,83.7-23.2,86.417C1151.35,1091.385,1112.61,1057.021,1095.12,1011.993Z" transform="translate(-1086.622 -891.937)" fill="#315271"/>
        <path id="Path_5520" data-name="Path 5520" d="M1120.653,937.857c23.433-2.088,53.407,24.473,66.933,59.315s5.49,64.727-17.916,66.822c-23.479,2.067-53.424-24.47-66.93-59.3C1089.206,969.838,1097.2,939.944,1120.653,937.857Z" transform="translate(-1081.811 -885.731)" fill="#ededef" opacity="0.3"/>
        <path id="Path_5521" data-name="Path 5521" d="M1127.153,947.558c16.669-1.464,37.942,17.414,47.587,42.192,9.6,24.727,3.883,45.976-12.752,47.47S1124,1019.814,1114.4,995.07C1104.828,970.287,1110.487,949.038,1127.153,947.558Z" transform="translate(-1074.953 -880.819)" fill="#ededef" opacity="0.3"/>
        <path id="Path_5522" data-name="Path 5522" d="M1178.33,1055.059c.248-.167.5-.265.8-.451.249-.154.5-.277.752-.431.223-.16.523-.271.8-.486a6.773,6.773,0,0,0,.773-.415c.229-.146.528-.3.754-.451.248-.173.6-.322.829-.471,13.734-8.475,17.04-32.026,6.664-58.84-12.608-32.357-40.445-57.034-62.2-55.116a22.561,22.561,0,0,0-10.8,3.772,3.127,3.127,0,0,0-.753.451c-.253.138-.555.25-.828.423-.226.167-.524.3-.752.478-.247.149-.551.263-.8.412a7.546,7.546,0,0,1-.78.462c-.25.166-.548.3-.772.465-.276.159-.557.287-.8.444-13.708,8.487-17.044,32.1-6.665,58.829,12.581,32.331,40.421,57.064,62.194,55.106a22.654,22.654,0,0,0,10.777-3.731A6.483,6.483,0,0,0,1178.33,1055.059Zm5.255-23.17c-6.76-4.748-19.517-17.976-19.517-26.888a6.256,6.256,0,0,1,.727-3.03c6.593-.742,15.661,2.718,16.637,5.441,3.707,10.634,3.107,16.651,3.107,16.651A23.656,23.656,0,0,1,1183.586,1031.889Zm-72.993-66.153c6.8,4.722,19.546,18,19.546,26.9a6.283,6.283,0,0,1-.7,3.02c-6.592.712-15.635-2.722-16.612-5.489-3.758-10.583-3.136-16.576-3.136-16.576A23.965,23.965,0,0,1,1110.593,965.736Zm61.822,25.759c-4.81,1.482-10.9,1.055-15.24-4.324-5.687-7.011-5.161-18.551-3.18-25.284a48.288,48.288,0,0,1,10.274,9.922s5.087,5.493,9.522,16.028C1174.27,988.856,1173.638,990.168,1172.415,991.5Zm-30.195-1.154a10.778,10.778,0,0,1,4.083,2.472c-.027.045-.075.15-.128.15a1.712,1.712,0,0,0-.776.477,1.515,1.515,0,0,0-.776.427,2.353,2.353,0,0,0-.778.447,1.956,1.956,0,0,0-.776.438,1.844,1.844,0,0,0-.756.378A10.727,10.727,0,0,1,1142.22,990.341Zm9.843,17a11.518,11.518,0,0,1-4.136-2.465c.052-.09.1-.114.156-.191a1.787,1.787,0,0,0,.752-.416,2.164,2.164,0,0,0,.8-.484,1.913,1.913,0,0,0,.776-.431,2.12,2.12,0,0,0,.777-.444,2.634,2.634,0,0,0,.753-.353A12,12,0,0,1,1152.062,1007.346Zm-30.291-1.238c4.861-1.481,10.95-1.092,15.284,4.331,5.662,7,5.135,18.53,3.16,25.272a47.339,47.339,0,0,1-10.229-9.9s-5.088-5.486-9.546-16.034C1119.968,1008.754,1120.565,1007.412,1121.771,1006.107Zm-1.355-56.323c.378-.447.779-.761,1.078-1.138a9.639,9.639,0,0,1,2.2-.235s4.49-1.235,12.66,3.017c2.654,1.365,6.918,19.119,4.507,27.26C1131.866,975.243,1118.761,951.8,1120.416,949.785Zm53.4,98.069c-.375.423-.753.739-1.1,1.117a9.8,9.8,0,0,1-2.18.221s-4.484,1.283-12.681-3c-2.633-1.38-6.866-19.081-4.512-27.29C1162.342,1022.38,1175.472,1045.8,1173.815,1047.854Z" transform="translate(-1080.644 -885.453)" fill="#ededef"/>
        <path id="Path_5523" data-name="Path 5523" d="M1178.33,1055.059c.248-.167.5-.265.8-.451.249-.154.5-.277.752-.431.223-.16.523-.271.8-.486a6.773,6.773,0,0,0,.773-.415c.229-.146.528-.3.754-.451.248-.173.6-.322.829-.471,13.734-8.475,17.04-32.026,6.664-58.84-12.608-32.357-40.445-57.034-62.2-55.116a22.561,22.561,0,0,0-10.8,3.772,3.127,3.127,0,0,0-.753.451c-.253.138-.555.25-.828.423-.226.167-.524.3-.752.478-.247.149-.551.263-.8.412a7.546,7.546,0,0,1-.78.462c-.25.166-.548.3-.772.465-.276.159-.557.287-.8.444-13.708,8.487-17.044,32.1-6.665,58.829,12.581,32.331,40.421,57.064,62.194,55.106a22.654,22.654,0,0,0,10.777-3.731A6.483,6.483,0,0,0,1178.33,1055.059Zm5.255-23.17c-6.76-4.748-19.517-17.976-19.517-26.888a6.256,6.256,0,0,1,.727-3.03c6.593-.742,15.661,2.718,16.637,5.441,3.707,10.634,3.107,16.651,3.107,16.651A23.656,23.656,0,0,1,1183.586,1031.889Zm-72.993-66.153c6.8,4.722,19.546,18,19.546,26.9a6.283,6.283,0,0,1-.7,3.02c-6.592.712-15.635-2.722-16.612-5.489-3.758-10.583-3.136-16.576-3.136-16.576A23.965,23.965,0,0,1,1110.593,965.736Zm61.822,25.759c-4.81,1.482-10.9,1.055-15.24-4.324-5.687-7.011-5.161-18.551-3.18-25.284a48.288,48.288,0,0,1,10.274,9.922s5.087,5.493,9.522,16.028C1174.27,988.856,1173.638,990.168,1172.415,991.5Zm-30.195-1.154a10.778,10.778,0,0,1,4.083,2.472c-.027.045-.075.15-.128.15a1.712,1.712,0,0,0-.776.477,1.515,1.515,0,0,0-.776.427,2.353,2.353,0,0,0-.778.447,1.956,1.956,0,0,0-.776.438,1.844,1.844,0,0,0-.756.378A10.727,10.727,0,0,1,1142.22,990.341Zm9.843,17a11.518,11.518,0,0,1-4.136-2.465c.052-.09.1-.114.156-.191a1.787,1.787,0,0,0,.752-.416,2.164,2.164,0,0,0,.8-.484,1.913,1.913,0,0,0,.776-.431,2.12,2.12,0,0,0,.777-.444,2.634,2.634,0,0,0,.753-.353A12,12,0,0,1,1152.062,1007.346Zm-30.291-1.238c4.861-1.481,10.95-1.092,15.284,4.331,5.662,7,5.135,18.53,3.16,25.272a47.339,47.339,0,0,1-10.229-9.9s-5.088-5.486-9.546-16.034C1119.968,1008.754,1120.565,1007.412,1121.771,1006.107Zm-1.355-56.323c.378-.447.779-.761,1.078-1.138a9.639,9.639,0,0,1,2.2-.235s4.49-1.235,12.66,3.017c2.654,1.365,6.918,19.119,4.507,27.26C1131.866,975.243,1118.761,951.8,1120.416,949.785Zm53.4,98.069c-.375.423-.753.739-1.1,1.117a9.8,9.8,0,0,1-2.18.221s-4.484,1.283-12.681-3c-2.633-1.38-6.866-19.081-4.512-27.29C1162.342,1022.38,1175.472,1045.8,1173.815,1047.854Z" transform="translate(-1080.644 -885.453)" style="mix-blend-mode: overlay;isolation: isolate"/>
        <path id="Path_5524" data-name="Path 5524" d="M1104.563,1002.913c12.581,32.331,40.421,57.065,62.193,55.106,21.8-1.9,29.221-29.689,16.693-62.069-12.581-32.358-40.449-57.057-62.2-55.13C1099.449,942.752,1091.983,970.555,1104.563,1002.913Zm25.583-11.5c-.024,11.716-22.078,5.526-23.6,1.151-3.735-10.625-3.134-16.6-3.134-16.6a23.866,23.866,0,0,1,3.158-13C1108.068,960.405,1130.122,979.687,1130.146,991.415Zm6.942-9.807c-8.821.76-24.783-27.22-22.93-29.421,4.462-5.39,9.546-5,9.546-5s4.49-1.235,12.66,3.017C1139.8,951.969,1145.885,980.814,1137.088,981.609Zm2.782,7.136c3.955-.34,9.046,4.151,11.275,10.063,2.331,5.9.925,10.923-3,11.276-3.96.389-9.05-4.146-11.328-10C1134.532,994.147,1135.885,989.085,1139.87,988.744Zm33.929-2.129c1.855,4.348-14.107,13.908-22.875,2.944-8.825-10.9-2.735-32.751.649-30.56a48.376,48.376,0,0,1,12.7,11.588S1169.364,976.081,1173.8,986.616Zm-15.986,20.784c0-11.776,22.078-5.558,23.628-1.21,3.707,10.634,3.107,16.651,3.107,16.651a23.841,23.841,0,0,1-3.127,12.951C1179.891,1038.4,1157.814,1019.107,1157.814,1007.4Zm-6.918,9.823c8.8-.8,24.758,27.141,22.928,29.409-4.484,5.354-9.546,5-9.546,5s-4.487,1.165-12.7-3.059C1148.213,1046.818,1142.124,1017.98,1150.9,1017.223Zm-27.192,11s-5.084-5.534-9.546-16.04c-1.879-4.37,14.134-13.857,22.906-2.969,8.769,10.964,2.677,32.72-.7,30.556A48.143,48.143,0,0,1,1123.7,1028.226Zm16.818-28.5c-1.1-2.844-.451-5.288,1.454-5.48,1.927-.173,4.406,2.033,5.484,4.876,1.131,2.842.451,5.326-1.422,5.5C1144.078,1004.758,1141.623,1002.591,1140.522,999.723Z" transform="translate(-1080.652 -884.231)" fill="#ededef"/>
        <path id="Path_5525" data-name="Path 5525" d="M1204.848,1002.276c-17.534-45.033-56.25-79.373-86.573-76.687-30.272,2.69-40.645,41.36-23.155,86.4,17.491,45.028,56.23,79.392,86.528,76.7C1211.948,1085.974,1222.319,1047.311,1204.848,1002.276ZM1174.48,1070.2c-23.478,2.067-53.423-24.47-66.929-59.3-13.534-34.853-5.542-64.746,17.914-66.833,23.432-2.088,53.407,24.473,66.933,59.315S1197.886,1068.106,1174.48,1070.2Z" transform="translate(-1086.622 -891.937)" fill="#315271"/>
      </g>
      <path id="Path_5526" data-name="Path 5526" d="M1722.337,1061.764,970.9,627.937l442.112-255.264,751.458,433.841Z" transform="translate(-970.903 -372.673)" fill="#ffdfcc"/>
      <path id="Path_5528" data-name="Path 5528" d="M1912.479,661.026v468.835L1470.344,1385.09V916.276Z" transform="translate(-718.914 -227.184)" fill="#fed4bd"/>
      <path id="Path_5530" data-name="Path 5530" d="M970.9,542.334v468.835l751.434,433.806V976.162Z" transform="translate(-970.903 -287.068)" fill="#ffe9dc"/>
      <g id="Group_2703" data-name="Group 2703" transform="translate(808.039 661.471)">
        <g id="Group_2701" data-name="Group 2701" transform="translate(20.927 514.786)">
          <path id="Path_5531" data-name="Path 5531" d="M1637.827,1347.912l-.052-.125a32.93,32.93,0,0,1-13.808,4.348c-31.949,2.828-72.849-33.427-91.336-80.967-15.438-39.863-10.178-74.884,10.749-86.9l-.048-.069,43.874-25.369.053.117a33.091,33.091,0,0,1,13.751-4.313c32-2.842,72.9,33.392,91.344,80.954,15.486,39.848,10.246,74.912-10.724,86.853l.1.1Z" transform="translate(-1520.953 -1154.475)" fill="#315271"/>
          <path id="Path_5532" data-name="Path 5532" d="M1532.632,1262.675c-18.4-47.51-7.446-88.359,24.508-91.209,32-2.864,72.87,33.406,91.338,80.96,18.5,47.567,7.518,88.386-24.51,91.217C1592.02,1346.471,1551.12,1310.216,1532.632,1262.675Z" transform="translate(-1520.955 -1145.982)" fill="#315271"/>
          <path id="Path_5533" data-name="Path 5533" d="M1532.632,1262.675c-18.4-47.51-7.446-88.359,24.508-91.209,32-2.864,72.87,33.406,91.338,80.96,18.5,47.567,7.518,88.386-24.51,91.217C1592.02,1346.471,1551.12,1310.216,1532.632,1262.675Z" transform="translate(-1520.955 -1145.982)" fill="#fff" opacity="0.3" style="mix-blend-mode: overlay;isolation: isolate"/>
          <path id="Path_5534" data-name="Path 5534" d="M1530.372,1263.281c-17.493-45.037-7.091-83.705,23.176-86.39,30.324-2.684,69.015,31.659,86.58,76.687,17.491,45.043,7.091,83.713-23.228,86.39C1586.629,1342.674,1547.89,1308.3,1530.372,1263.281Z" transform="translate(-1521.879 -1143.238)" fill="#315271"/>
          <path id="Path_5535" data-name="Path 5535" d="M1555.931,1189.155c23.4-2.079,53.4,24.5,66.905,59.281,13.555,34.849,5.51,64.787-17.921,66.861-23.451,2.06-53.4-24.48-66.935-59.315C1524.477,1221.127,1532.476,1191.229,1555.931,1189.155Z" transform="translate(-1517.065 -1137.034)" fill="#ededef" opacity="0.3"/>
          <path id="Path_5536" data-name="Path 5536" d="M1562.4,1198.852c16.688-1.478,37.961,17.414,47.611,42.185,9.6,24.766,3.885,45.973-12.757,47.5-16.665,1.477-37.987-17.386-47.585-42.178C1540.1,1221.592,1545.759,1200.323,1562.4,1198.852Z" transform="translate(-1510.205 -1132.125)" fill="#ededef" opacity="0.3"/>
          <path id="Path_5537" data-name="Path 5537" d="M1613.6,1306.373c.233-.167.505-.271.776-.451s.528-.3.778-.473a8.757,8.757,0,0,0,.777-.463,8.379,8.379,0,0,0,.8-.417c.229-.173.532-.277.752-.451.255-.174.584-.312.805-.471,13.735-8.475,17.015-32.054,6.668-58.815-12.584-32.374-40.421-57.077-62.2-55.135a22.666,22.666,0,0,0-10.8,3.766,4.644,4.644,0,0,0-.749.465c-.229.131-.555.263-.805.409-.253.181-.526.292-.8.479-.229.159-.528.264-.774.451a7.167,7.167,0,0,1-.76.423c-.25.166-.547.29-.794.478-.253.16-.554.277-.78.451-13.682,8.468-17.067,32.074-6.692,58.814,12.6,32.325,40.446,57.041,62.2,55.1a22.252,22.252,0,0,0,10.825-3.732C1613.072,1306.677,1613.3,1306.552,1613.6,1306.373Zm5.267-23.185c-6.793-4.723-19.523-17.982-19.523-26.88a6.774,6.774,0,0,1,.726-3.057c6.572-.722,15.638,2.733,16.616,5.465,3.734,10.638,3.107,16.637,3.107,16.637A24.28,24.28,0,0,1,1618.863,1283.188Zm-73-66.146c6.793,4.7,19.546,18,19.546,26.888a5.9,5.9,0,0,1-.7,3.009c-6.617.707-15.664-2.711-16.645-5.437-3.755-10.637-3.127-16.617-3.127-16.617A24.207,24.207,0,0,1,1545.865,1217.042Zm61.8,25.749c-4.816,1.477-10.909,1.068-15.24-4.326-5.687-7.011-5.111-18.545-3.152-25.285a47.98,47.98,0,0,1,10.223,9.924s5.111,5.484,9.544,16.013C1609.511,1240.143,1608.915,1241.5,1607.664,1242.791Zm-30.2-1.143a10.4,10.4,0,0,1,4.084,2.448c-.027.063-.056.159-.1.173a1.723,1.723,0,0,0-.752.465,1.248,1.248,0,0,0-.8.465,1.662,1.662,0,0,0-.8.436,2.793,2.793,0,0,0-.8.409c-.253.14-.53.167-.7.369A10.649,10.649,0,0,1,1577.468,1241.648Zm9.869,16.991a10.881,10.881,0,0,1-4.138-2.475c.029-.078.077-.091.154-.18a2.055,2.055,0,0,0,.752-.412,2.5,2.5,0,0,0,.779-.463,1.92,1.92,0,0,0,.773-.479,1.782,1.782,0,0,0,.781-.416,2.12,2.12,0,0,0,.752-.36A12.04,12.04,0,0,1,1587.337,1258.639Zm-30.3-1.228c4.858-1.463,10.926-1.074,15.287,4.327,5.639,7.011,5.111,18.537,3.152,25.264a46.38,46.38,0,0,1-10.222-9.91s-5.11-5.471-9.57-16.046C1555.213,1260.039,1555.81,1258.715,1557.042,1257.411Zm-1.353-56.333c.35-.423.752-.771,1.054-1.151a9.965,9.965,0,0,1,2.229-.2s4.479-1.228,12.628,3c2.679,1.38,6.915,19.1,4.532,27.3C1567.115,1226.536,1554.007,1203.11,1555.689,1201.078Zm53.4,98.053c-.378.431-.749.757-1.105,1.138a11.613,11.613,0,0,1-2.174.221s-4.512,1.249-12.706-3.036c-2.631-1.345-6.844-19.016-4.511-27.269C1597.583,1273.673,1610.77,1297.107,1609.088,1299.131Z" transform="translate(-1515.898 -1136.758)" fill="#ededef"/>
          <path id="Path_5538" data-name="Path 5538" d="M1613.6,1306.373c.233-.167.505-.271.776-.451s.528-.3.778-.473a8.757,8.757,0,0,0,.777-.463,8.379,8.379,0,0,0,.8-.417c.229-.173.532-.277.752-.451.255-.174.584-.312.805-.471,13.735-8.475,17.015-32.054,6.668-58.815-12.584-32.374-40.421-57.077-62.2-55.135a22.666,22.666,0,0,0-10.8,3.766,4.644,4.644,0,0,0-.749.465c-.229.131-.555.263-.805.409-.253.181-.526.292-.8.479-.229.159-.528.264-.774.451a7.167,7.167,0,0,1-.76.423c-.25.166-.547.29-.794.478-.253.16-.554.277-.78.451-13.682,8.468-17.067,32.074-6.692,58.814,12.6,32.325,40.446,57.041,62.2,55.1a22.252,22.252,0,0,0,10.825-3.732C1613.072,1306.677,1613.3,1306.552,1613.6,1306.373Zm5.267-23.185c-6.793-4.723-19.523-17.982-19.523-26.88a6.774,6.774,0,0,1,.726-3.057c6.572-.722,15.638,2.733,16.616,5.465,3.734,10.638,3.107,16.637,3.107,16.637A24.28,24.28,0,0,1,1618.863,1283.188Zm-73-66.146c6.793,4.7,19.546,18,19.546,26.888a5.9,5.9,0,0,1-.7,3.009c-6.617.707-15.664-2.711-16.645-5.437-3.755-10.637-3.127-16.617-3.127-16.617A24.207,24.207,0,0,1,1545.865,1217.042Zm61.8,25.749c-4.816,1.477-10.909,1.068-15.24-4.326-5.687-7.011-5.111-18.545-3.152-25.285a47.98,47.98,0,0,1,10.223,9.924s5.111,5.484,9.544,16.013C1609.511,1240.143,1608.915,1241.5,1607.664,1242.791Zm-30.2-1.143a10.4,10.4,0,0,1,4.084,2.448c-.027.063-.056.159-.1.173a1.723,1.723,0,0,0-.752.465,1.248,1.248,0,0,0-.8.465,1.662,1.662,0,0,0-.8.436,2.793,2.793,0,0,0-.8.409c-.253.14-.53.167-.7.369A10.649,10.649,0,0,1,1577.468,1241.648Zm9.869,16.991a10.881,10.881,0,0,1-4.138-2.475c.029-.078.077-.091.154-.18a2.055,2.055,0,0,0,.752-.412,2.5,2.5,0,0,0,.779-.463,1.92,1.92,0,0,0,.773-.479,1.782,1.782,0,0,0,.781-.416,2.12,2.12,0,0,0,.752-.36A12.04,12.04,0,0,1,1587.337,1258.639Zm-30.3-1.228c4.858-1.463,10.926-1.074,15.287,4.327,5.639,7.011,5.111,18.537,3.152,25.264a46.38,46.38,0,0,1-10.222-9.91s-5.11-5.471-9.57-16.046C1555.213,1260.039,1555.81,1258.715,1557.042,1257.411Zm-1.353-56.333c.35-.423.752-.771,1.054-1.151a9.965,9.965,0,0,1,2.229-.2s4.479-1.228,12.628,3c2.679,1.38,6.915,19.1,4.532,27.3C1567.115,1226.536,1554.007,1203.11,1555.689,1201.078Zm53.4,98.053c-.378.431-.749.757-1.105,1.138a11.613,11.613,0,0,1-2.174.221s-4.512,1.249-12.706-3.036c-2.631-1.345-6.844-19.016-4.511-27.269C1597.583,1273.673,1610.77,1297.107,1609.088,1299.131Z" transform="translate(-1515.898 -1136.758)" style="mix-blend-mode: overlay;isolation: isolate"/>
          <path id="Path_5539" data-name="Path 5539" d="M1539.808,1254.214c12.605,32.325,40.445,57.04,62.2,55.1,21.8-1.9,29.217-29.682,16.69-62.069-12.581-32.365-40.419-57.053-62.2-55.132S1527.255,1221.863,1539.808,1254.214Zm25.61-11.5c-.023,11.719-22.073,5.519-23.63,1.164-3.71-10.639-3.083-16.574-3.083-16.574a23.88,23.88,0,0,1,3.107-13.031C1543.346,1211.689,1565.4,1231,1565.418,1242.71Zm6.946-9.835c-8.849.791-24.79-27.184-22.958-29.417,4.492-5.383,9.575-4.953,9.575-4.953s4.479-1.228,12.628,3C1575.037,1203.243,1581.131,1232.112,1572.364,1232.875Zm2.753,7.192c3.985-.361,9.047,4.127,11.3,10.05,2.307,5.873.926,10.93-3.009,11.276-3.985.361-9.019-4.133-11.325-10.015C1569.777,1245.456,1571.129,1240.38,1575.117,1240.067Zm33.927-2.17c1.883,4.335-14.082,13.911-22.88,2.961-8.818-10.917-2.7-32.727.677-30.556a47.953,47.953,0,0,1,12.659,11.582S1604.612,1227.368,1609.044,1237.9Zm-15.986,20.791c0-11.749,22.078-5.555,23.631-1.193,3.734,10.638,3.106,16.637,3.106,16.637a23.743,23.743,0,0,1-3.106,12.981C1615.158,1289.673,1593.059,1270.4,1593.059,1258.688Zm-6.894,9.855c8.8-.827,24.71,27.115,22.931,29.368-4.484,5.353-9.595,5.015-9.595,5.015s-4.463,1.185-12.659-3.032C1583.46,1298.113,1577.4,1269.285,1586.164,1268.543Zm-27.212,10.991s-5.055-5.569-9.546-16.047c-1.85-4.341,14.134-13.884,22.931-2.969,8.762,10.936,2.676,32.713-.729,30.556A48.526,48.526,0,0,1,1558.952,1279.534Zm16.818-28.5c-1.1-2.857-.431-5.313,1.476-5.479s4.385,2.033,5.463,4.848c1.154,2.872.479,5.341-1.43,5.514C1579.348,1256.039,1576.892,1253.889,1575.77,1251.031Z" transform="translate(-1515.905 -1135.538)" fill="#ededef"/>
          <path id="Path_5540" data-name="Path 5540" d="M1640.129,1253.579c-17.565-45.028-56.257-79.371-86.58-76.687-30.267,2.684-40.669,41.353-23.176,86.39,17.518,45.015,56.257,79.392,86.528,76.687C1647.22,1337.292,1657.619,1298.622,1640.129,1253.579Zm-30.4,67.921c-23.452,2.06-53.4-24.48-66.935-59.316-13.5-34.854-5.5-64.752,17.95-66.826,23.4-2.079,53.4,24.5,66.906,59.281C1641.2,1289.488,1633.16,1319.427,1609.73,1321.5Z" transform="translate(-1521.879 -1143.238)" fill="#315271"/>
        </g>
        <path id="Path_5541" data-name="Path 5541" d="M2090.711,926.968c-13.731-23.767-51.423-53.553-111.986-88.534-9.5-5.486-17.792-10.076-25.111-13.981-40.77-23.141-73.775-7.407-87.5.062V824.5l-297.6,171.843c-21.323,12.489-54.576,35.59-59.816,89.808-.652,26.623-.876,65.412-.628,122.383.154,34.543.354,62.38.651,85.037l97.5,56.3c18.694,10.806,35.813,28.406,49.142,48.894l121.505,70.167,379.745-219.264c.974-24.336,1.474-53.255,1.474-84.13C2158.116,1074.289,2111.836,963.5,2090.711,926.968Z" transform="translate(-1507.97 -812.322)" fill="#ededef"/>
        <path id="Path_5542" data-name="Path 5542" d="M2094.8,1193.909v-57.546s.028,0,.028-.023l-.028-.464h-.02c-.2-11.339-9.474-21.014-26.437-30.826l-12.3-7.088-387.561,223.759v58.324l12.306,7.08c55.1,31.811,108.031,16.866,262.416-72.243,107.174-61.909,152.38-95.516,151.579-120.974Z" transform="translate(-1426.985 -668.203)" fill="#315271"/>
        <path id="Path_5543" data-name="Path 5543" d="M2056.036,1097.962l12.3,7.088c55.1,31.824,29.193,62.374-125.142,151.5-154.385,89.122-207.289,104.109-262.416,72.256l-12.306-7.08Z" transform="translate(-1426.985 -668.203)" fill="#fff" opacity="0.3" style="mix-blend-mode: overlay;isolation: isolate"/>
        <path id="Path_5544" data-name="Path 5544" d="M2083.563,1058.122c-.173-11.277-9.316-20.911-26.231-30.646l-383.923,221.671v101.528c54.6,31.555,107.074,16.707,259.98-71.554,105.1-60.682,150.105-93.977,150.175-119.1h0l.029-101.913Z" transform="translate(-1424.498 -703.766)" fill="#ededef"/>
        <path id="Path_5545" data-name="Path 5545" d="M1933.388,1177.577c-152.906,88.276-205.38,103.091-259.98,71.57l383.924-221.671C2111.958,1058.995,2086.273,1089.308,1933.388,1177.577Z" transform="translate(-1424.498 -703.766)" fill="#fff" opacity="0.8" style="mix-blend-mode: overlay;isolation: isolate"/>
        <path id="Path_5546" data-name="Path 5546" d="M1710.97,1074.741c-13.732-23.757-51.392-53.55-111.99-88.519-35.958-20.775-55.3-29.232-66.23-32.262-11.728,14.126-21.422,33.5-24.054,60.729-.652,26.623-.876,65.412-.628,122.383.154,34.542.354,62.38.651,85.037l97.5,56.3c18.694,10.805,35.813,28.405,49.141,48.894l121.505,70.167c.964-24.342,1.457-53.288,1.484-84.136C1778.379,1222.082,1732.07,1111.3,1710.97,1074.741Z" transform="translate(-1507.97 -740.858)" fill="#ededef"/>
        <g id="Group_2702" data-name="Group 2702" transform="translate(19.83 237.135)">
          <path id="Path_5547" data-name="Path 5547" d="M1676.575,1403.606c0-49.052-34.449-108.721-77-133.251l-77.5-44.757c-1.608-100.621-1.457-252.707,3.28-255.4,9.145-5.278,145.439,70.765,164.939,104.551,20.369,35.227,61.6,137.9,61.6,219.093s-3.639,154.31-10.227,150.5c-2.931-1.678-31.9-18.4-65.223-37.636C1676.455,1405.665,1676.575,1404.674,1676.575,1403.606Z" transform="translate(-1521.15 -969.934)" fill="#dde8eb"/>
          <path id="Path_5548" data-name="Path 5548" d="M1533.466,1043.26v-63.9c10.246,4.16,28.364,12.981,52.668,27.029,52.175,30.122,85.627,56.592,91.767,67.189,19.567,33.872,55.279,124.415,58.713,199.043-47.034-37.213-135.819-127.181-165.234-156.094C1530.682,1076.563,1533.466,1055.927,1533.466,1043.26Z" transform="translate(-1514.954 -965.179)" fill="#243c3f"/>
          <path id="Path_5549" data-name="Path 5549" d="M1527.954,1105.68c0,5.435,3.835,12.066,8.548,14.793l20.822,12.031c4.737,2.733,8.572.534,8.572-4.924h0c0-5.458-3.835-12.087-8.572-14.8l-20.822-12.026c-4.713-2.759-8.548-.526-8.548,4.925Z" transform="translate(-1517.716 -904.526)" fill="#315271"/>
        </g>
        <path id="Path_5550" data-name="Path 5550" d="M1676.575,1403.606c0-49.052-34.449-108.721-77-133.251l-77.5-44.757c-1.608-100.621-1.457-252.707,3.28-255.4,9.145-5.278,145.439,70.765,164.939,104.551,20.369,35.227,61.6,137.9,61.6,219.093s-3.639,154.31-10.227,150.5c-2.931-1.678-31.9-18.4-65.223-37.636C1676.455,1405.665,1676.575,1404.674,1676.575,1403.606Z" transform="translate(-1501.319 -732.799)" fill="#ededef"/>
        <path id="Path_5551" data-name="Path 5551" d="M1525.486,1052.573V974.606c3.116,1.262,7.171,3.821,11.952,7.151,10.881,7.556,25.687,19.147,42.577,28.9,52.148,30.109,83.8,61.635,89.938,72.237,19.542,33.876,73.542,133.533,70.688,208.071-47.034-37.227-147.82-136.217-177.234-165.122C1522.732,1085.875,1525.486,1065.24,1525.486,1052.573Z" transform="translate(-1499.15 -730.442)" fill="#fff" opacity="0.8" style="mix-blend-mode: overlay;isolation: isolate"/>
        <path id="Path_5552" data-name="Path 5552" d="M1533.466,1043.26v-63.9c10.246,4.16,28.364,12.981,52.668,27.029,52.175,30.122,85.627,56.592,91.767,67.189,19.567,33.872,55.279,124.415,58.713,199.043-47.034-37.213-135.819-127.181-165.234-156.094C1530.682,1076.563,1533.466,1055.927,1533.466,1043.26Z" transform="translate(-1495.124 -728.043)" fill="#315271"/>
        <path id="Path_5553" data-name="Path 5553" d="M1538.05,986.376c8.6,3.835,23.606,11.179,45.781,24.031,50.917,29.369,84.423,55.653,90.062,65.5,17.74,30.625,51.4,114.574,57.432,186.448-40.368-33.593-103.74-96.549-138.869-131.467-7.143-7.065-13.207-13.106-17.821-17.642-36.959-36.3-36.735-55.178-36.584-67.693V986.376Zm-4.584-7.017v63.9c0,12.667-2.785,33.3,37.913,73.265,29.415,28.913,118.2,118.881,165.234,156.094-3.434-74.627-39.145-165.171-58.713-199.043-6.14-10.6-39.592-37.066-91.767-67.189-24.3-14.048-42.422-22.869-52.668-27.029Z" transform="translate(-1495.124 -728.043)" opacity="0.3" style="mix-blend-mode: overlay;isolation: isolate"/>
        <path id="Path_5554" data-name="Path 5554" d="M1527.954,1105.68c0,5.435,3.835,12.066,8.548,14.793l20.822,12.031c4.737,2.733,8.572.534,8.572-4.924h0c0-5.458-3.835-12.087-8.572-14.8l-20.822-12.026c-4.713-2.759-8.548-.526-8.548,4.925Z" transform="translate(-1497.885 -667.39)" fill="#315271"/>
        <path id="Path_5555" data-name="Path 5555" d="M2088.1,1101.847c-6.24-74.767-37.637-156.464-58.238-197.967-.25-.5-.575-1.079-.877-1.738-9.622-20.412-27.511-13.634-35.507-9.036-3.981,2.32-71.441,52.384-152.807,99.369-81.064,46.774-175.982,90.5-180.775,93.234l-.374.2c-8.295,4.8-20.7,12.342-12,32.027.95,1.882,1.929,3.782,2.907,5.807l.023.031c20.524,41.544,51.444,122.385,57.812,196.57l-.73.422c.275.119.555.194.8.3v.02h.048a88.72,88.72,0,0,0,33.126,6.264c39.648,0,92.444-22.367,201.8-85.5,61.045-35.231,118.353-70.467,138.223-95.3l.027-.024C2091.483,1136.126,2090.2,1127.756,2088.1,1101.847Z" transform="translate(-1439.054 -774.025)" fill="#315271"/>
        <path id="Path_5556" data-name="Path 5556" d="M2009.691,892.831c6.591,0,11.553,3.7,15.135,11.28.351.749.676,1.4.9,1.826,22.955,46.226,51.822,125.37,57.761,196.287l.3,3.967c1.959,23.218,2.129,29.061-5.413,36.977l-.125.125-.149.2-.174.17c-19.823,24.786-80.341,61.519-136.918,94.183-108.532,62.66-160.729,84.885-199.5,84.859a83.571,83.571,0,0,1-28.842-4.946c-6.536-71.1-35.279-149.873-58.109-196.046l-.3-.68h-.028c-.874-1.747-1.723-3.447-2.551-5.063-6.516-14.927.426-20.423,10.2-26.068l.3-.188c.778-.423,5.465-2.683,11.406-5.526,28.311-13.618,103.511-49.683,169.37-87.742,66.857-38.553,123.689-78.772,145.067-93.911,3.83-2.729,7.163-5.06,7.792-5.427,2.752-1.6,8.217-4.282,13.879-4.282Zm0-4.612c-6.339.017-12.406,2.68-16.214,4.888-3.981,2.32-71.441,52.384-152.807,99.369-81.064,46.774-175.982,90.5-180.775,93.234l-.374.2c-8.295,4.8-20.7,12.342-12,32.027.95,1.882,1.929,3.783,2.907,5.808l.023.031c20.524,41.544,51.444,122.385,57.812,196.569l-.73.423c.275.119.555.195.8.3v.02h.048a88.719,88.719,0,0,0,33.126,6.263c39.648,0,92.444-22.367,201.8-85.5,61.045-35.231,118.353-70.467,138.223-95.3l.027-.024c9.924-10.4,8.644-18.766,6.541-44.676-6.24-74.767-37.637-156.464-58.238-197.967-.25-.5-.575-1.079-.877-1.738-5.01-10.676-12.324-13.908-19.293-13.924Z" transform="translate(-1439.054 -774.027)" opacity="0.3" style="mix-blend-mode: overlay;isolation: isolate"/>
      </g>
    </g>
    <g id="Layer_1" data-name="Layer 1" transform="translate(-14258.65 7294.991)">
      <g id="Group_3013" data-name="Group 3013" transform="translate(556.034 153.882)">
        <path id="Path_9435" data-name="Path 9435" d="M556.034,436.855V715.7c0,45.361,27.579,66.21,61.6,46.568L682.2,724.987l78.6,136.13,3.734.882c3.147.384,7.406-2.267,9.592-8.576l78.595-226.884,64.567-37.277c34.021-19.642,61.6-72.337,61.6-117.7V192.724c0-32.624-19.835-47.62-44.3-33.493L600.337,352.206C575.869,366.332,556.034,404.231,556.034,436.855Z" transform="translate(-556.034 -153.898)" fill="#ce0909"/>
        <path id="Path_9436" data-name="Path 9436" d="M686.327,459.027v278.84c0,45.361,27.579,66.211,61.6,46.568l64.567-37.278,78.595,136.131c2.962,5.129,10.365.855,13.326-7.694l78.6-226.884,64.567-37.278c34.021-19.642,61.6-72.336,61.6-117.7V214.9c0-32.624-19.835-47.62-44.3-33.493L730.63,374.377C706.162,388.5,686.327,426.4,686.327,459.027Z" transform="translate(-622.088 -165.139)" fill="#f5b48f"/>
        <path id="Path_9437" data-name="Path 9437" d="M1029.516,165.8s-61.786-12.652-67.5-11.88-11.141,2.153-14.953,4.3S620.893,346.2,613.771,350.6s-17.9,11.914-24.411,21.625-7.719,9.343-12.258,20.614l62.6,17.841s13.111-31.072,28.257-40.833,347.243-201.154,347.243-201.154S1024.61,164.926,1029.516,165.8Z" transform="translate(-566.715 -153.882)" fill="#f5b48f"/>
        <path id="Path_9438" data-name="Path 9438" d="M979.412,1474.666l-65.9-12.915-58.1-100.19,43.719-25.241Z" transform="translate(-708.812 -754.3)" fill="#e5a784"/>
        <path id="Path_9439" data-name="Path 9439" d="M649.99,1025.449l-60.18-10.268s-30.876-.177-33.692-49.535l-.084-292.1s4.343-24.316,10.387-35l64.037,17.841s-9.263,10.133-9.263,47.74.412,278.448.412,278.448S623.687,1014.851,649.99,1025.449Z" transform="translate(-556.034 -399.588)" fill="#e5a784"/>
        <ellipse id="Ellipse_76" data-name="Ellipse 76" cx="121.366" cy="46.942" rx="121.366" ry="46.942" transform="translate(145.976 836.422) rotate(-36.263)" fill="url(#radial-gradient)"/>
      </g>
      <g id="Group_3019" data-name="Group 3019" transform="translate(678.58 353.27)">
        <g id="Group_3014" data-name="Group 3014" transform="translate(0)" opacity="0.3">
          <path id="Path_9440" data-name="Path 9440" d="M916.693,836.738h0l-4,2.31v77.574l6.678,2.46,10.964-6.33V881.969l22.848-13.191V854.692l-6.678,3.856h0l6.678-3.856-6.678-2.46-16.17,9.336v-12.3l27.25-15.732V819.446l-6.678-2.46Z" transform="translate(-859.392 -689.438)"/>
          <path id="Path_9441" data-name="Path 9441" d="M1119.433,799.352V742.179l-6.678-2.46-10.964,6.33v77.574l4.882-2.818h0l-4.882,2.818,6.678,2.46,4.882-2.818h0l34.092-19.683V789.5l-6.678-2.46Z" transform="translate(-955.258 -650.266)"/>
          <path id="Path_9442" data-name="Path 9442" d="M1276.937,624.974v44.778l-14.01-30.374-6.678-2.46-13.4,7.739v77.521l6.678,2.46,10.484-6.053V674.47l13.93,29.757,6.678,2.46L1294.1,698.9V621.381l-6.678-2.46Z" transform="translate(-1026.767 -589.027)"/>
          <path id="Path_9443" data-name="Path 9443" d="M1195.448,691.738v77.574l6.678,2.46,11.364-6.561V687.637l-6.678-2.46Z" transform="translate(-1002.739 -622.616)"/>
          <path id="Path_9444" data-name="Path 9444" d="M1007.241,784.46v77.574l6.678,2.46,10.964-6.33V827.38l22.848-13.191V800.1l-6.678-2.46-16.164,8.925v.407l-.006,0v-12.3l27.25-15.733V764.858l-6.678,3.855h0l6.678-3.855-6.678-2.46Z" transform="translate(-907.325 -661.764)"/>
          <path id="Path_9445" data-name="Path 9445" d="M845.313,894.524l.065-.124-5.89-1.994a9.436,9.436,0,0,0-1.827-.618l-.011,0h0c-.22-.05-.444-.1-.672-.131q-4.822-.764-11.144,2.886a37.67,37.67,0,0,0-11.144,9.982,48.565,48.565,0,0,0-7.463,14.339,52.478,52.478,0,0,0-2.641,16.543v21.981q0,8.537,2.641,13.494a11.228,11.228,0,0,0,4.039,4.488h0l.008,0a9.382,9.382,0,0,0,3.317,1.211l3.28,1.2a9.389,9.389,0,0,0,3.5,1.281h.015l.357.131-.061-.092q4.714.6,10.833-2.927a37.68,37.68,0,0,0,11.144-9.982,48.556,48.556,0,0,0,7.463-14.339,52.474,52.474,0,0,0,2.641-16.543V913.33q0-8.536-2.641-13.494A10.419,10.419,0,0,0,845.313,894.524Zm-9.594,22.533v22.728a25.527,25.527,0,0,1-1.22,7.854,22.7,22.7,0,0,1-3.461,6.774,17.4,17.4,0,0,1-5.2,4.684,12.286,12.286,0,0,1-2.013.946,14.367,14.367,0,0,1-1.193-6.385V930.93a25.513,25.513,0,0,1,1.22-7.854,22.681,22.681,0,0,1,3.462-6.774,17.4,17.4,0,0,1,5.2-4.684,12.331,12.331,0,0,1,2.013-.946A14.4,14.4,0,0,1,835.718,917.057Z" transform="translate(-804.587 -727.225)"/>
          <path id="Path_9446" data-name="Path 9446" d="M1404.878,574.834V560.748l-6.678-2.46L1363.188,578.5h0l-3.961,2.287v77.574l6.678,2.46,10.964-6.33h0l28.01-16.171V624.238l-6.678,3.856h0l6.678-3.856-6.678-2.46-21.332,12.316V623.016l23.608-13.63V595.3l-6.678,3.856v-.06l6.678-3.8-6.678-2.46-16.93,9.775v-11.61Z" transform="translate(-1085.768 -558.288)"/>
        </g>
        <g id="Group_3018" data-name="Group 3018" transform="translate(4.851 1.71)">
          <g id="Group_3016" data-name="Group 3016">
            <g id="Group_3015" data-name="Group 3015">
              <path id="Path_9447" data-name="Path 9447" d="M824.529,980.07q-4.823-.763-7.463-5.722t-2.641-13.493V938.873a52.462,52.462,0,0,1,2.641-16.543,48.564,48.564,0,0,1,7.463-14.339,37.676,37.676,0,0,1,11.144-9.982q6.322-3.65,11.144-2.886t7.463,5.722q2.641,4.957,2.641,13.494v21.981a52.475,52.475,0,0,1-2.641,16.544,48.547,48.547,0,0,1-7.463,14.339,37.669,37.669,0,0,1-11.144,9.982Q829.35,980.833,824.529,980.07Zm16.346-22.189a22.7,22.7,0,0,0,3.461-6.774,25.525,25.525,0,0,0,1.22-7.854V920.526a14.294,14.294,0,0,0-1.22-6.445,4.741,4.741,0,0,0-3.461-2.777,7.907,7.907,0,0,0-5.2,1.323,17.4,17.4,0,0,0-5.2,4.684,22.691,22.691,0,0,0-3.461,6.774,25.5,25.5,0,0,0-1.221,7.854v22.728a14.27,14.27,0,0,0,1.221,6.445,4.736,4.736,0,0,0,3.461,2.777,7.9,7.9,0,0,0,5.2-1.323A17.405,17.405,0,0,0,840.875,957.881Z" transform="translate(-814.425 -730.694)" fill="#b5b0b0"/>
              <path id="Path_9448" data-name="Path 9448" d="M922.529,842.517l10.964-6.33v77.574l-10.964,6.33Zm4-2.31,34.212-19.752V834.54l-34.212,19.752Zm0,32.7,29.81-17.211v14.086L926.531,887Z" transform="translate(-869.23 -692.907)" fill="#b5b0b0"/>
              <path id="Path_9449" data-name="Path 9449" d="M1017.078,787.928l10.964-6.33v77.574l-10.964,6.33Zm4-2.31,34.212-19.753v14.086L1021.08,799.7Zm0,32.7,29.81-17.211V815.2l-29.81,17.211Z" transform="translate(-917.162 -665.233)" fill="#b5b0b0"/>
              <path id="Path_9450" data-name="Path 9450" d="M1111.629,749.517l10.964-6.33v77.574l-10.964,6.33Zm4.882,60.671L1150.6,790.5V804.59l-34.092,19.683Z" transform="translate(-965.096 -653.735)" fill="#b5b0b0"/>
              <path id="Path_9451" data-name="Path 9451" d="M1216.649,766.22l-11.364,6.561V695.207l11.364-6.561Z" transform="translate(-1012.576 -626.085)" fill="#b5b0b0"/>
              <path id="Path_9452" data-name="Path 9452" d="M1252.683,648.126l13.4-7.739,21.648,46.936-.961,1.942V628.443l10.484-6.053v77.521l-13.485,7.786-21.568-46.075.961-1.942v59.914l-10.484,6.053Z" transform="translate(-1036.605 -592.496)" fill="#b5b0b0"/>
              <path id="Path_9453" data-name="Path 9453" d="M1369.064,584.258l10.964-6.33V655.5l-10.964,6.33Zm3.962-2.287,35.012-20.215v14.085l-35.012,20.215Zm0,32.011,30.611-17.673v14.085l-30.611,17.673Zm0,31.477,35.012-20.214v14.085l-35.012,20.214Z" transform="translate(-1095.606 -561.757)" fill="#b5b0b0"/>
            </g>
            <path id="Path_9454" data-name="Path 9454" d="M1369.064,584.258l6.678,2.46,38.974-22.5-6.678-2.46Z" transform="translate(-1095.606 -561.757)" fill="#d8d8d8"/>
            <path id="Path_9455" data-name="Path 9455" d="M1421.776,631.839l6.678,2.46-23.608,13.419v-6.1Z" transform="translate(-1113.746 -597.286)" fill="#d8d8d8"/>
            <path id="Path_9456" data-name="Path 9456" d="M1426.178,690.529l6.678,2.46-28.01,16.171v-6.316Z" transform="translate(-1113.746 -627.039)" fill="#d8d8d8"/>
            <path id="Path_9457" data-name="Path 9457" d="M1321.829,628.443l6.678,2.46,10.484-6.053-6.678-2.46Z" transform="translate(-1071.66 -592.496)" fill="#d8d8d8"/>
            <path id="Path_9458" data-name="Path 9458" d="M1252.682,666.631l6.678,2.46,13.4-7.739-6.678-2.46Z" transform="translate(-1036.605 -611.001)" fill="#d8d8d8"/>
            <path id="Path_9459" data-name="Path 9459" d="M1205.285,695.207l6.678,2.46,11.364-6.561-6.678-2.46Z" transform="translate(-1012.576 -626.085)" fill="#d8d8d8"/>
            <path id="Path_9460" data-name="Path 9460" d="M1111.629,749.517l6.678,2.46,10.964-6.33-6.678-2.46Z" transform="translate(-965.096 -653.735)" fill="#d8d8d8"/>
            <path id="Path_9461" data-name="Path 9461" d="M1168.742,839.159l6.678,2.46-28.01,16.172v-6.245Z" transform="translate(-983.236 -702.389)" fill="#d8d8d8"/>
            <path id="Path_9462" data-name="Path 9462" d="M1017.078,787.929l6.678,2.46,38.213-22.062-6.678-2.46Z" transform="translate(-917.163 -665.233)" fill="#d8d8d8"/>
            <path id="Path_9463" data-name="Path 9463" d="M922.529,842.517l6.678,2.46,38.214-22.062-6.678-2.46Z" transform="translate(-869.23 -692.907)" fill="#d8d8d8"/>
            <path id="Path_9464" data-name="Path 9464" d="M974.481,891.942l6.678,2.46L958.317,907.59l-.006-6.312Z" transform="translate(-887.37 -729.148)" fill="#d8d8d8"/>
            <path id="Path_9465" data-name="Path 9465" d="M881.484,895.523l7.728,2.617-3.864,7.328Z" transform="translate(-848.421 -730.964)" fill="#b5b0b0"/>
            <path id="Path_9466" data-name="Path 9466" d="M827.969,1061.883l10.476,3.826-4.569-6.907Z" transform="translate(-821.291 -813.74)" fill="#b5b0b0"/>
            <path id="Path_9467" data-name="Path 9467" d="M922.529,1017.885l6.678,2.46v-6.989Z" transform="translate(-869.23 -790.701)" fill="#b5b0b0"/>
            <path id="Path_9468" data-name="Path 9468" d="M1017.078,963.144l6.678,2.46v-7.139Z" transform="translate(-917.163 -762.873)" fill="#b5b0b0"/>
            <path id="Path_9469" data-name="Path 9469" d="M1069.037,837.354l6.678,2.46L1052.873,853v-6.723Z" transform="translate(-935.309 -701.474)" fill="#d8d8d8"/>
            <path id="Path_9470" data-name="Path 9470" d="M1111.629,909.4l6.678,2.46v-6.316Z" transform="translate(-965.096 -736.045)" fill="#b5b0b0"/>
            <path id="Path_9471" data-name="Path 9471" d="M1205.285,851.2l6.678,2.46V843.337Z" transform="translate(-1012.576 -704.507)" fill="#b5b0b0"/>
            <path id="Path_9472" data-name="Path 9472" d="M1252.682,825.009l6.678,2.46v-9.084Z" transform="translate(-1036.605 -691.858)" fill="#b5b0b0"/>
            <path id="Path_9473" data-name="Path 9473" d="M1315.743,790.607l6.678,2.46-3.339-7.133Z" transform="translate(-1068.574 -675.407)" fill="#b5b0b0"/>
            <path id="Path_9474" data-name="Path 9474" d="M1369.064,758.776l6.678,2.46V752.98Z" transform="translate(-1095.606 -658.7)" fill="#b5b0b0"/>
          </g>
          <g id="Group_3017" data-name="Group 3017" transform="translate(6.678 2.46)">
            <path id="Path_9475" data-name="Path 9475" d="M838.073,985.06q-4.823-.763-7.463-5.722t-2.641-13.493V943.863a52.478,52.478,0,0,1,2.641-16.543,48.582,48.582,0,0,1,7.463-14.339A37.67,37.67,0,0,1,849.217,903q6.322-3.65,11.144-2.886t7.463,5.722q2.64,4.957,2.641,13.494V941.31a52.487,52.487,0,0,1-2.641,16.543,48.538,48.538,0,0,1-7.463,14.339,37.662,37.662,0,0,1-11.144,9.982Q842.894,985.824,838.073,985.06Zm16.346-22.189a22.7,22.7,0,0,0,3.461-6.774,25.528,25.528,0,0,0,1.22-7.853V925.516a14.294,14.294,0,0,0-1.22-6.444,4.742,4.742,0,0,0-3.461-2.777,7.911,7.911,0,0,0-5.2,1.323,17.393,17.393,0,0,0-5.2,4.684,22.68,22.68,0,0,0-3.462,6.774,25.51,25.51,0,0,0-1.221,7.854v22.728a14.276,14.276,0,0,0,1.221,6.445,4.734,4.734,0,0,0,3.462,2.777,7.9,7.9,0,0,0,5.2-1.322A17.4,17.4,0,0,0,854.419,962.871Z" transform="translate(-827.969 -735.684)" fill="#fff"/>
            <path id="Path_9476" data-name="Path 9476" d="M936.073,847.507l10.964-6.33v77.574l-10.964,6.33Zm4-2.31,34.212-19.752V839.53l-34.212,19.752Zm0,32.705,29.81-17.211v14.086l-29.81,17.211Z" transform="translate(-882.774 -697.897)" fill="#fff"/>
            <path id="Path_9477" data-name="Path 9477" d="M1030.623,792.918l10.964-6.33v77.574l-10.964,6.33Zm4-2.31,34.211-19.753v14.086l-34.211,19.752Zm0,32.7,29.81-17.211v14.085l-29.81,17.211Z" transform="translate(-930.707 -670.223)" fill="#fff"/>
            <path id="Path_9478" data-name="Path 9478" d="M1125.173,754.507l10.964-6.33v77.575l-10.964,6.33Zm4.882,60.671,34.092-19.683V809.58l-34.092,19.683Z" transform="translate(-978.64 -658.725)" fill="#fff"/>
            <path id="Path_9479" data-name="Path 9479" d="M1230.194,771.21l-11.364,6.561V700.2l11.364-6.561Z" transform="translate(-1026.121 -631.075)" fill="#fff"/>
            <path id="Path_9480" data-name="Path 9480" d="M1266.227,653.116l13.4-7.739,21.648,46.936-.96,1.942V633.433l10.483-6.053V704.9l-13.484,7.785-21.568-46.075.961-1.942v59.914l-10.484,6.053Z" transform="translate(-1050.149 -597.486)" fill="#fff"/>
            <path id="Path_9481" data-name="Path 9481" d="M1382.609,589.249l10.964-6.33v77.575l-10.964,6.33Zm3.962-2.287,35.012-20.215v14.085l-35.012,20.215Zm0,32.011,30.61-17.673v14.085l-30.61,17.673Zm0,31.477,35.012-20.214v14.085l-35.012,20.214Z" transform="translate(-1109.151 -566.747)" fill="#fff"/>
          </g>
        </g>
      </g>
    </g>
  </g>
</svg>
