<svg xmlns="http://www.w3.org/2000/svg" width="512" height="512" viewBox="0 0 512 512">
  <g id="ic_mismatch_doc" transform="translate(-3484 -5717)">
    <g id="Ellipse_817" data-name="Ellipse 817" transform="translate(3484 5717)" fill="none" stroke="#0d1b3a" stroke-width="12">
      <circle cx="256" cy="256" r="256" stroke="none"/>
      <circle cx="256" cy="256" r="250" fill="none"/>
    </g>
    <g id="Group_21244" data-name="Group 21244" transform="translate(680.998 -2.999)">
      <path id="Path_96775" data-name="Path 96775" d="M53.223,83.345h82.6a4.723,4.723,0,0,0,0-9.447h-82.6a4.723,4.723,0,0,0,0,9.447Zm0,0" transform="translate(2913.046 5787.642)" fill="#e36410"/>
      <path id="Path_96776" data-name="Path 96776" d="M53.223,126.2h82.6a4.723,4.723,0,0,0,0-9.447h-82.6a4.723,4.723,0,1,0,0,9.447Zm0,0" transform="translate(2913.046 5771.778)" fill="#e36410"/>
      <path id="Path_96785" data-name="Path 96785" d="M20610.4,9356.455a21.419,21.419,0,0,1-21.395-21.4v-28.444a4.724,4.724,0,0,1,9.447,0v28.444a11.961,11.961,0,0,0,11.947,11.95h212.889a11.962,11.962,0,0,0,11.951-11.95v-93.795a3.2,3.2,0,0,0-4.465-2.94l-23.113,9.929a22.233,22.233,0,0,1-17.48,0l-27.287-11.724a12.76,12.76,0,0,0-10.023,0l-27.291,11.724a22.233,22.233,0,0,1-17.48,0l-27.283-11.724a12.76,12.76,0,0,0-10.023,0l-27.281,11.724a22.247,22.247,0,0,1-17.486,0l-23.107-9.929a3.2,3.2,0,0,0-4.465,2.943v43.373a4.724,4.724,0,0,1-9.447,0v-43.373a12.647,12.647,0,0,1,17.641-11.625l23.109,9.934a12.774,12.774,0,0,0,10.025,0l27.281-11.724a22.209,22.209,0,0,1,17.484,0l27.279,11.724a12.774,12.774,0,0,0,10.025,0l27.287-11.724a22.229,22.229,0,0,1,17.482,0l27.289,11.724a12.735,12.735,0,0,0,10.023,0l23.113-9.934a12.647,12.647,0,0,1,17.641,11.625v93.8a21.417,21.417,0,0,1-21.4,21.393Zm13.873-42.519a4.724,4.724,0,0,1,0-9.448h177.59a4.724,4.724,0,0,1,0,9.448Zm0-25.612a4.724,4.724,0,0,1,0-9.448h177.59a4.724,4.724,0,0,1,0,9.448Zm165.873-65.714-27.252-11.812a12.752,12.752,0,0,0-10.023-.03l-27.326,11.639a22.23,22.23,0,0,1-17.484-.057l-27.244-11.808a12.752,12.752,0,0,0-10.023-.028l-27.2,11.584a22.2,22.2,0,0,1-17.744-.169l-29.354-13.171a12.664,12.664,0,0,1-7.471-11.539L20589,9055.4a21.419,21.419,0,0,1,21.395-21.4h156.035a4.715,4.715,0,0,1,3.338,1.384l73.529,73.526a4.726,4.726,0,0,1,1.385,3.342v35.122a4.724,4.724,0,0,1-9.447,0v-30.4h-56.207a17.345,17.345,0,0,1-17.324-17.323v-56.207H20610.4a11.961,11.961,0,0,0-11.947,11.949l.021,141.823a3.211,3.211,0,0,0,1.889,2.921l29.355,13.17a12.747,12.747,0,0,0,10.176.1l27.193-11.584a22.251,22.251,0,0,1,17.484.053l27.246,11.811a12.757,12.757,0,0,0,10.025.029l27.322-11.637a22.217,22.217,0,0,1,17.482.053l27.252,11.81a12.756,12.756,0,0,0,10.023.03l29.367-12.51a3.193,3.193,0,0,0,1.949-2.948v-29.161a4.724,4.724,0,1,1,9.447,0v29.161a12.632,12.632,0,0,1-7.693,11.64l-29.367,12.51a22.257,22.257,0,0,1-17.48-.053Zm-18.988-122.956a7.885,7.885,0,0,0,7.875,7.875h49.527l-57.4-57.4Zm-146.885,78.887a4.724,4.724,0,0,1,0-9.448h177.59a4.724,4.724,0,0,1,0,9.448Z" transform="translate(-17658 -3219.001)" fill="#0d1b3a"/>
      <path id="Path_96778" data-name="Path 96778" d="M230.812,173.84H53.223a4.723,4.723,0,1,0,0,9.447H230.812a4.723,4.723,0,0,0,0-9.447Zm0,0" transform="translate(2913.046 5750.644)" fill="#e36410"/>
    </g>
  </g>
</svg>
