<svg xmlns="http://www.w3.org/2000/svg" xmlns:xlink="http://www.w3.org/1999/xlink" width="2701.48" height="2190.03" viewBox="0 0 2701.48 2190.03">
  <defs>
    <linearGradient id="linear-gradient" x1="0.919" y1="0.179" x2="0" y2="1" gradientUnits="objectBoundingBox">
      <stop offset="0" stop-color="#fff" stop-opacity="0"/>
      <stop offset="1" stop-opacity="0.51"/>
    </linearGradient>
  </defs>
  <g id="Group_2935" data-name="Group 2935" transform="translate(14773.62 -7433.03)">
    <g id="Group_2713" data-name="Group 2713" transform="translate(-14773.621 8016.492)">
      <g id="Group_2710" data-name="Group 2710" transform="translate(0)">
        <g id="Group_2706" data-name="Group 2706" transform="translate(0 941.193)">
          <path id="Path_5557" data-name="Path 5557" d="M1282.679,3715.461v60.728L234.75,3171.538v-60.725Z" transform="translate(-234.75 -3110.813)" fill="#a4ad8e"/>
        </g>
        <g id="Group_2707" data-name="Group 2707" transform="translate(1047.929 604.647)">
          <path id="Path_5558" data-name="Path 5558" d="M1873.861,3525.6v60.727l1653.551-941.2v-60.725Z" transform="translate(-1873.861 -2584.407)" fill="#a4ad8e"/>
        </g>
        <g id="Group_2709" data-name="Group 2709">
          <g id="Group_2708" data-name="Group 2708">
            <path id="Path_5559" data-name="Path 5559" d="M1888.3,1638.653,2936.23,2243.3,1282.679,3184.494,234.75,2579.846Z" transform="translate(-234.75 -1638.653)" fill="#7d7d7d"/>
          </g>
        </g>
      </g>
      <g id="Group_2711" data-name="Group 2711" transform="translate(1099.142 620.535)">
        <path id="Path_5560" data-name="Path 5560" d="M1976.468,3430.807a23.007,23.007,0,0,1-10.533-43.184l1388.254-775.541a23.008,23.008,0,1,1,22.085,40.37L1988.021,3427.99A22.834,22.834,0,0,1,1976.468,3430.807Z" transform="translate(-1953.964 -2609.258)" fill="#fff"/>
      </g>
      <g id="Group_2712" data-name="Group 2712" transform="translate(256.275 45.611)">
        <path id="Path_5561" data-name="Path 5561" d="M658.105,2531.545a23.008,23.008,0,0,1-10.535-43.185L2035.825,1712.82a23.008,23.008,0,1,1,22.085,40.369L669.657,2528.727A22.836,22.836,0,0,1,658.105,2531.545Z" transform="translate(-635.6 -1709.995)" fill="#fff"/>
      </g>
    </g>
    <g id="Group_2934" data-name="Group 2934" transform="translate(-14128.876 7811.935)">
      <path id="Path_5514" data-name="Path 5514" d="M2070.936,1040.242V1017.7h0c0-4.169-2.732-8.358-8.242-11.513L1792.259,850.046c-11.027-6.363-28.919-6.354-39.97.027L1169.6,1186.512c-5.491,3.141-8.219,7.288-8.244,11.421h-.051v.09s.023,0,0,.015v23.051h0c0,4.167,2.756,8.356,8.295,11.526l270.406,156.142c11.027,6.358,28.919,6.358,39.943,0l582.716-336.424c5.763-3.323,8.444-7.744,8.2-12.092Z" transform="translate(-881.53 -134.219)" fill="#315271"/>
      <g id="Group_2699" data-name="Group 2699" transform="translate(1121.424 798.164)">
        <path id="Path_5515" data-name="Path 5515" d="M1151.924,1096.608l.08-.1a33.207,33.207,0,0,0,13.781,4.33c31.947,2.832,72.846-33.427,91.334-80.974,15.441-39.842,10.2-74.9-10.746-86.9l.074-.077-43.875-25.344-.048.114a33,33,0,0,0-13.762-4.327c-32-2.83-72.9,33.42-91.364,80.981-15.456,39.831-10.224,74.887,10.7,86.855l-.072.1Z" transform="translate(-1088.456 -903.173)" fill="#315271"/>
        <path id="Path_5516" data-name="Path 5516" d="M1138.212,907.645l.049-.114,43.876,25.344-.074.076a33.283,33.283,0,0,1,10.625,9.762c6.536,9.3,9.3,21.963,8.87,36.183l-113.013-65.224C1106.859,902.4,1124.977,899.951,1138.212,907.645Z" transform="translate(-1024.145 -903.163)" opacity="0.3" style="mix-blend-mode: overlay;isolation: isolate"/>
        <path id="Path_5517" data-name="Path 5517" d="M1213.255,1011.369c18.423-47.532,7.468-88.365-24.5-91.2-32-2.842-72.87,33.407-91.339,80.967-18.468,47.536-7.492,88.379,24.51,91.209C1153.867,1095.175,1194.767,1058.916,1213.255,1011.369Z" transform="translate(-1044.592 -894.678)" fill="#315271"/>
        <path id="Path_5518" data-name="Path 5518" d="M1213.255,1011.369c18.423-47.532,7.468-88.365-24.5-91.2-32-2.842-72.87,33.407-91.339,80.967-18.468,47.536-7.492,88.379,24.51,91.209C1153.867,1095.175,1194.767,1058.916,1213.255,1011.369Z" transform="translate(-1044.592 -894.678)" fill="#fff" opacity="0.3" style="mix-blend-mode: overlay;isolation: isolate"/>
        <path id="Path_5519" data-name="Path 5519" d="M1204.835,1011.993c17.49-45.043,7.116-83.713-23.155-86.4-30.324-2.685-69.039,31.654-86.573,76.687-17.471,45.035-7.1,83.7,23.2,86.417C1148.6,1091.385,1187.344,1057.021,1204.835,1011.993Z" transform="translate(-1032.985 -891.937)" fill="#315271"/>
        <path id="Path_5520" data-name="Path 5520" d="M1169.66,937.857c-23.433-2.088-53.407,24.473-66.933,59.315s-5.49,64.727,17.916,66.822c23.479,2.067,53.424-24.47,66.93-59.3C1201.107,969.838,1193.114,939.944,1169.66,937.857Z" transform="translate(-1028.154 -885.731)" fill="#ededef" opacity="0.3"/>
        <path id="Path_5521" data-name="Path 5521" d="M1161.992,947.558c-16.669-1.464-37.942,17.414-47.587,42.192-9.6,24.727-3.883,45.976,12.752,47.47s37.987-17.406,47.589-42.15C1184.317,970.287,1178.658,949.038,1161.992,947.558Z" transform="translate(-1033.844 -880.819)" fill="#ededef" opacity="0.3"/>
        <path id="Path_5522" data-name="Path 5522" d="M1115.935,1055.059c-.248-.167-.5-.265-.8-.451-.249-.154-.5-.277-.752-.431-.223-.16-.523-.271-.8-.486a6.773,6.773,0,0,1-.773-.415c-.229-.146-.528-.3-.754-.451-.248-.173-.6-.322-.829-.471-13.734-8.475-17.04-32.026-6.664-58.84,12.608-32.357,40.445-57.034,62.2-55.116a22.561,22.561,0,0,1,10.8,3.772,3.127,3.127,0,0,1,.753.451c.253.138.555.25.828.423.226.167.524.3.752.478.247.149.551.263.8.412a7.546,7.546,0,0,0,.78.462c.25.166.548.3.772.465.276.159.557.287.8.444,13.708,8.487,17.044,32.1,6.665,58.829-12.581,32.331-40.421,57.064-62.194,55.106a22.654,22.654,0,0,1-10.777-3.731A6.483,6.483,0,0,1,1115.935,1055.059Zm-5.255-23.17c6.76-4.748,19.517-17.976,19.517-26.888a6.256,6.256,0,0,0-.727-3.03c-6.593-.742-15.661,2.718-16.637,5.441-3.707,10.634-3.107,16.651-3.107,16.651A23.656,23.656,0,0,0,1110.679,1031.889Zm72.993-66.153c-6.8,4.722-19.546,18-19.546,26.9a6.283,6.283,0,0,0,.7,3.02c6.592.712,15.635-2.722,16.612-5.489,3.758-10.583,3.136-16.576,3.136-16.576A23.965,23.965,0,0,0,1183.672,965.736ZM1121.85,991.5c4.81,1.482,10.9,1.055,15.24-4.324,5.687-7.011,5.161-18.551,3.18-25.284A48.288,48.288,0,0,0,1130,971.809s-5.087,5.493-9.522,16.028C1120,988.856,1120.627,990.168,1121.85,991.5Zm30.195-1.154a10.778,10.778,0,0,0-4.083,2.472c.027.045.075.15.128.15a1.712,1.712,0,0,1,.776.477,1.515,1.515,0,0,1,.776.427,2.353,2.353,0,0,1,.778.447,1.956,1.956,0,0,1,.776.438,1.844,1.844,0,0,1,.756.378A10.727,10.727,0,0,0,1152.045,990.341Zm-9.843,17a11.518,11.518,0,0,0,4.136-2.465c-.052-.09-.1-.114-.156-.191a1.787,1.787,0,0,1-.752-.416,2.164,2.164,0,0,1-.8-.484,1.913,1.913,0,0,1-.776-.431,2.12,2.12,0,0,1-.777-.444,2.634,2.634,0,0,1-.753-.353A12,12,0,0,0,1142.2,1007.346Zm30.291-1.238c-4.861-1.481-10.95-1.092-15.284,4.331-5.662,7-5.135,18.53-3.16,25.272a47.339,47.339,0,0,0,10.229-9.9s5.088-5.486,9.546-16.034C1174.3,1008.754,1173.7,1007.412,1172.494,1006.107Zm1.355-56.323c-.378-.447-.779-.761-1.078-1.138a9.639,9.639,0,0,0-2.2-.235s-4.49-1.235-12.66,3.017c-2.654,1.365-6.918,19.119-4.507,27.26C1162.4,975.243,1175.5,951.8,1173.849,949.785Zm-53.4,98.069c.375.423.753.739,1.1,1.117a9.8,9.8,0,0,0,2.18.221s4.484,1.283,12.681-3c2.633-1.38,6.866-19.081,4.512-27.29C1131.924,1022.38,1118.793,1045.8,1120.45,1047.854Z" transform="translate(-1033.273 -885.453)" fill="#ededef"/>
        <path id="Path_5523" data-name="Path 5523" d="M1115.935,1055.059c-.248-.167-.5-.265-.8-.451-.249-.154-.5-.277-.752-.431-.223-.16-.523-.271-.8-.486a6.773,6.773,0,0,1-.773-.415c-.229-.146-.528-.3-.754-.451-.248-.173-.6-.322-.829-.471-13.734-8.475-17.04-32.026-6.664-58.84,12.608-32.357,40.445-57.034,62.2-55.116a22.561,22.561,0,0,1,10.8,3.772,3.127,3.127,0,0,1,.753.451c.253.138.555.25.828.423.226.167.524.3.752.478.247.149.551.263.8.412a7.546,7.546,0,0,0,.78.462c.25.166.548.3.772.465.276.159.557.287.8.444,13.708,8.487,17.044,32.1,6.665,58.829-12.581,32.331-40.421,57.064-62.194,55.106a22.654,22.654,0,0,1-10.777-3.731A6.483,6.483,0,0,1,1115.935,1055.059Zm-5.255-23.17c6.76-4.748,19.517-17.976,19.517-26.888a6.256,6.256,0,0,0-.727-3.03c-6.593-.742-15.661,2.718-16.637,5.441-3.707,10.634-3.107,16.651-3.107,16.651A23.656,23.656,0,0,0,1110.679,1031.889Zm72.993-66.153c-6.8,4.722-19.546,18-19.546,26.9a6.283,6.283,0,0,0,.7,3.02c6.592.712,15.635-2.722,16.612-5.489,3.758-10.583,3.136-16.576,3.136-16.576A23.965,23.965,0,0,0,1183.672,965.736ZM1121.85,991.5c4.81,1.482,10.9,1.055,15.24-4.324,5.687-7.011,5.161-18.551,3.18-25.284A48.288,48.288,0,0,0,1130,971.809s-5.087,5.493-9.522,16.028C1120,988.856,1120.627,990.168,1121.85,991.5Zm30.195-1.154a10.778,10.778,0,0,0-4.083,2.472c.027.045.075.15.128.15a1.712,1.712,0,0,1,.776.477,1.515,1.515,0,0,1,.776.427,2.353,2.353,0,0,1,.778.447,1.956,1.956,0,0,1,.776.438,1.844,1.844,0,0,1,.756.378A10.727,10.727,0,0,0,1152.045,990.341Zm-9.843,17a11.518,11.518,0,0,0,4.136-2.465c-.052-.09-.1-.114-.156-.191a1.787,1.787,0,0,1-.752-.416,2.164,2.164,0,0,1-.8-.484,1.913,1.913,0,0,1-.776-.431,2.12,2.12,0,0,1-.777-.444,2.634,2.634,0,0,1-.753-.353A12,12,0,0,0,1142.2,1007.346Zm30.291-1.238c-4.861-1.481-10.95-1.092-15.284,4.331-5.662,7-5.135,18.53-3.16,25.272a47.339,47.339,0,0,0,10.229-9.9s5.088-5.486,9.546-16.034C1174.3,1008.754,1173.7,1007.412,1172.494,1006.107Zm1.355-56.323c-.378-.447-.779-.761-1.078-1.138a9.639,9.639,0,0,0-2.2-.235s-4.49-1.235-12.66,3.017c-2.654,1.365-6.918,19.119-4.507,27.26C1162.4,975.243,1175.5,951.8,1173.849,949.785Zm-53.4,98.069c.375.423.753.739,1.1,1.117a9.8,9.8,0,0,0,2.18.221s4.484,1.283,12.681-3c2.633-1.38,6.866-19.081,4.512-27.29C1131.924,1022.38,1118.793,1045.8,1120.45,1047.854Z" transform="translate(-1033.273 -885.453)" style="mix-blend-mode: overlay;isolation: isolate"/>
        <path id="Path_5524" data-name="Path 5524" d="M1183.425,1002.913c-12.581,32.331-40.421,57.065-62.193,55.106-21.8-1.9-29.221-29.689-16.693-62.069,12.581-32.358,40.449-57.057,62.2-55.13C1188.539,942.752,1196.005,970.555,1183.425,1002.913Zm-25.583-11.5c.024,11.716,22.078,5.526,23.6,1.151,3.735-10.625,3.134-16.6,3.134-16.6a23.866,23.866,0,0,0-3.158-13C1179.92,960.405,1157.866,979.687,1157.842,991.415Zm-6.942-9.807c8.821.76,24.783-27.22,22.93-29.421-4.462-5.39-9.546-5-9.546-5s-4.49-1.235-12.66,3.017C1148.192,951.969,1142.1,980.814,1150.9,981.609Zm-2.782,7.136c-3.955-.34-9.046,4.151-11.275,10.063-2.331,5.9-.925,10.923,3,11.276,3.96.389,9.05-4.146,11.328-10C1153.456,994.147,1152.1,989.085,1148.118,988.744Zm-33.929-2.129c-1.855,4.348,14.107,13.908,22.875,2.944,8.825-10.9,2.735-32.751-.649-30.56a48.376,48.376,0,0,0-12.7,11.588S1118.624,976.081,1114.189,986.616Zm15.986,20.784c0-11.776-22.078-5.558-23.628-1.21-3.707,10.634-3.107,16.651-3.107,16.651a23.841,23.841,0,0,0,3.127,12.951C1108.1,1038.4,1130.175,1019.107,1130.175,1007.4Zm6.918,9.823c-8.8-.8-24.758,27.141-22.928,29.409,4.484,5.354,9.546,5,9.546,5s4.487,1.165,12.7-3.059C1139.775,1046.818,1145.865,1017.98,1137.092,1017.223Zm27.192,11s5.084-5.534,9.546-16.04c1.879-4.37-14.134-13.857-22.906-2.969-8.769,10.964-2.677,32.72.7,30.556A48.143,48.143,0,0,0,1164.285,1028.226Zm-16.818-28.5c1.1-2.844.451-5.288-1.454-5.48-1.927-.173-4.406,2.033-5.484,4.876-1.131,2.842-.451,5.326,1.422,5.5C1143.91,1004.758,1146.365,1002.591,1147.467,999.723Z" transform="translate(-1026.988 -884.231)" fill="#ededef"/>
        <path id="Path_5525" data-name="Path 5525" d="M1095.106,1002.276c17.534-45.033,56.25-79.373,86.573-76.687,30.272,2.69,40.645,41.36,23.155,86.4-17.491,45.028-56.23,79.392-86.528,76.7C1088.006,1085.974,1077.635,1047.311,1095.106,1002.276Zm30.368,67.924c23.478,2.067,53.423-24.47,66.929-59.3,13.534-34.853,5.542-64.746-17.914-66.833-23.432-2.088-53.407,24.473-66.933,59.315S1102.068,1068.106,1125.474,1070.2Z" transform="translate(-1032.985 -891.937)" fill="#315271"/>
      </g>
      <path id="Path_5526" data-name="Path 5526" d="M1413.038,1061.764l751.434-433.827L1722.361,372.673,970.9,806.514Z" transform="translate(-688.595 -372.673)" fill="#ffdfcc"/>
      <path id="Path_5528" data-name="Path 5528" d="M1470.344,661.026v468.835l442.135,255.229V916.276Z" transform="translate(-1188.033 -227.184)" fill="#fed4bd"/>
      <path id="Path_5530" data-name="Path 5530" d="M1722.337,542.334v468.835L970.9,1444.976V976.162Z" transform="translate(-246.46 -287.068)" fill="#ffe9dc"/>
      <g id="Group_2703" data-name="Group 2703" transform="translate(0 661.471)">
        <g id="Group_2701" data-name="Group 2701" transform="translate(466.553 514.786)">
          <path id="Path_5531" data-name="Path 5531" d="M1587.2,1347.912l.052-.125a32.93,32.93,0,0,0,13.808,4.348c31.949,2.828,72.849-33.427,91.336-80.967,15.438-39.863,10.178-74.884-10.749-86.9l.048-.069-43.874-25.369-.053.117a33.091,33.091,0,0,0-13.751-4.313c-32-2.842-72.9,33.392-91.344,80.954-15.486,39.848-10.246,74.912,10.724,86.853l-.1.1Z" transform="translate(-1523.714 -1154.475)" fill="#315271"/>
          <path id="Path_5532" data-name="Path 5532" d="M1648.538,1262.675c18.4-47.51,7.446-88.359-24.508-91.209-32-2.864-72.87,33.406-91.338,80.96-18.5,47.567-7.518,88.386,24.51,91.217C1589.15,1346.471,1630.05,1310.216,1648.538,1262.675Z" transform="translate(-1479.857 -1145.982)" fill="#315271"/>
          <path id="Path_5533" data-name="Path 5533" d="M1648.538,1262.675c18.4-47.51,7.446-88.359-24.508-91.209-32-2.864-72.87,33.406-91.338,80.96-18.5,47.567-7.518,88.386,24.51,91.217C1589.15,1346.471,1630.05,1310.216,1648.538,1262.675Z" transform="translate(-1479.857 -1145.982)" fill="#fff" opacity="0.3" style="mix-blend-mode: overlay;isolation: isolate"/>
          <path id="Path_5534" data-name="Path 5534" d="M1640.126,1263.281c17.493-45.037,7.091-83.705-23.176-86.39-30.324-2.684-69.015,31.659-86.58,76.687-17.491,45.043-7.091,83.713,23.228,86.39C1583.869,1342.674,1622.608,1308.3,1640.126,1263.281Z" transform="translate(-1468.261 -1143.238)" fill="#315271"/>
          <path id="Path_5535" data-name="Path 5535" d="M1604.911,1189.155c-23.4-2.079-53.4,24.5-66.905,59.281-13.555,34.849-5.51,64.787,17.921,66.861,23.451,2.06,53.4-24.48,66.935-59.315C1636.365,1221.127,1628.366,1191.229,1604.911,1189.155Z" transform="translate(-1463.419 -1137.034)" fill="#ededef" opacity="0.3"/>
          <path id="Path_5536" data-name="Path 5536" d="M1597.286,1198.852c-16.688-1.478-37.961,17.414-47.611,42.185-9.6,24.766-3.885,45.973,12.757,47.5,16.665,1.477,37.987-17.386,47.585-42.178C1619.589,1221.592,1613.927,1200.323,1597.286,1198.852Z" transform="translate(-1469.122 -1132.125)" fill="#ededef" opacity="0.3"/>
          <path id="Path_5537" data-name="Path 5537" d="M1551.168,1306.373c-.233-.167-.505-.271-.776-.451s-.528-.3-.778-.473a8.757,8.757,0,0,1-.777-.463,8.379,8.379,0,0,1-.8-.417c-.229-.173-.532-.277-.752-.451-.255-.174-.584-.312-.805-.471-13.735-8.475-17.015-32.054-6.668-58.815,12.584-32.374,40.421-57.077,62.2-55.135a22.666,22.666,0,0,1,10.8,3.766,4.644,4.644,0,0,1,.749.465c.229.131.555.263.805.409.253.181.526.292.8.479.229.159.528.264.774.451a7.167,7.167,0,0,0,.76.423c.25.166.547.29.794.478.253.16.554.277.78.451,13.682,8.468,17.067,32.074,6.692,58.814-12.6,32.325-40.446,57.041-62.2,55.1a22.252,22.252,0,0,1-10.825-3.732C1551.692,1306.677,1551.463,1306.552,1551.168,1306.373Zm-5.267-23.185c6.793-4.723,19.523-17.982,19.523-26.88a6.774,6.774,0,0,0-.726-3.057c-6.572-.722-15.638,2.733-16.616,5.465-3.734,10.638-3.107,16.637-3.107,16.637A24.28,24.28,0,0,0,1545.9,1283.188Zm73-66.146c-6.793,4.7-19.546,18-19.546,26.888a5.9,5.9,0,0,0,.7,3.009c6.617.707,15.664-2.711,16.645-5.437,3.755-10.637,3.127-16.617,3.127-16.617A24.207,24.207,0,0,0,1618.9,1217.042Zm-61.8,25.749c4.816,1.477,10.909,1.068,15.24-4.326,5.687-7.011,5.111-18.545,3.152-25.285a47.98,47.98,0,0,0-10.223,9.924s-5.111,5.484-9.544,16.013C1555.253,1240.143,1555.849,1241.5,1557.1,1242.791Zm30.2-1.143a10.4,10.4,0,0,0-4.084,2.448c.027.063.056.159.1.173a1.723,1.723,0,0,1,.752.465,1.248,1.248,0,0,1,.8.465,1.662,1.662,0,0,1,.8.436,2.793,2.793,0,0,1,.8.409c.253.14.53.167.7.369A10.649,10.649,0,0,0,1587.3,1241.648Zm-9.869,16.991a10.881,10.881,0,0,0,4.138-2.475c-.029-.078-.077-.091-.154-.18a2.055,2.055,0,0,1-.752-.412,2.5,2.5,0,0,1-.779-.463,1.92,1.92,0,0,1-.773-.479,1.782,1.782,0,0,1-.781-.416,2.12,2.12,0,0,1-.752-.36A12.04,12.04,0,0,0,1577.427,1258.639Zm30.3-1.228c-4.858-1.463-10.926-1.074-15.287,4.327-5.639,7.011-5.111,18.537-3.152,25.264a46.38,46.38,0,0,0,10.222-9.91s5.11-5.471,9.57-16.046C1609.551,1260.039,1608.955,1258.715,1607.723,1257.411Zm1.353-56.333c-.35-.423-.752-.771-1.054-1.151a9.965,9.965,0,0,0-2.229-.2s-4.479-1.228-12.628,3c-2.679,1.38-6.915,19.1-4.532,27.3C1597.649,1226.536,1610.758,1203.11,1609.075,1201.078Zm-53.4,98.053c.378.431.749.757,1.105,1.138a11.613,11.613,0,0,0,2.174.221s4.512,1.249,12.706-3.036c2.631-1.345,6.844-19.016,4.511-27.269C1567.181,1273.673,1553.994,1297.107,1555.676,1299.131Z" transform="translate(-1468.509 -1136.758)" fill="#ededef"/>
          <path id="Path_5538" data-name="Path 5538" d="M1551.168,1306.373c-.233-.167-.505-.271-.776-.451s-.528-.3-.778-.473a8.757,8.757,0,0,1-.777-.463,8.379,8.379,0,0,1-.8-.417c-.229-.173-.532-.277-.752-.451-.255-.174-.584-.312-.805-.471-13.735-8.475-17.015-32.054-6.668-58.815,12.584-32.374,40.421-57.077,62.2-55.135a22.666,22.666,0,0,1,10.8,3.766,4.644,4.644,0,0,1,.749.465c.229.131.555.263.805.409.253.181.526.292.8.479.229.159.528.264.774.451a7.167,7.167,0,0,0,.76.423c.25.166.547.29.794.478.253.16.554.277.78.451,13.682,8.468,17.067,32.074,6.692,58.814-12.6,32.325-40.446,57.041-62.2,55.1a22.252,22.252,0,0,1-10.825-3.732C1551.692,1306.677,1551.463,1306.552,1551.168,1306.373Zm-5.267-23.185c6.793-4.723,19.523-17.982,19.523-26.88a6.774,6.774,0,0,0-.726-3.057c-6.572-.722-15.638,2.733-16.616,5.465-3.734,10.638-3.107,16.637-3.107,16.637A24.28,24.28,0,0,0,1545.9,1283.188Zm73-66.146c-6.793,4.7-19.546,18-19.546,26.888a5.9,5.9,0,0,0,.7,3.009c6.617.707,15.664-2.711,16.645-5.437,3.755-10.637,3.127-16.617,3.127-16.617A24.207,24.207,0,0,0,1618.9,1217.042Zm-61.8,25.749c4.816,1.477,10.909,1.068,15.24-4.326,5.687-7.011,5.111-18.545,3.152-25.285a47.98,47.98,0,0,0-10.223,9.924s-5.111,5.484-9.544,16.013C1555.253,1240.143,1555.849,1241.5,1557.1,1242.791Zm30.2-1.143a10.4,10.4,0,0,0-4.084,2.448c.027.063.056.159.1.173a1.723,1.723,0,0,1,.752.465,1.248,1.248,0,0,1,.8.465,1.662,1.662,0,0,1,.8.436,2.793,2.793,0,0,1,.8.409c.253.14.53.167.7.369A10.649,10.649,0,0,0,1587.3,1241.648Zm-9.869,16.991a10.881,10.881,0,0,0,4.138-2.475c-.029-.078-.077-.091-.154-.18a2.055,2.055,0,0,1-.752-.412,2.5,2.5,0,0,1-.779-.463,1.92,1.92,0,0,1-.773-.479,1.782,1.782,0,0,1-.781-.416,2.12,2.12,0,0,1-.752-.36A12.04,12.04,0,0,0,1577.427,1258.639Zm30.3-1.228c-4.858-1.463-10.926-1.074-15.287,4.327-5.639,7.011-5.111,18.537-3.152,25.264a46.38,46.38,0,0,0,10.222-9.91s5.11-5.471,9.57-16.046C1609.551,1260.039,1608.955,1258.715,1607.723,1257.411Zm1.353-56.333c-.35-.423-.752-.771-1.054-1.151a9.965,9.965,0,0,0-2.229-.2s-4.479-1.228-12.628,3c-2.679,1.38-6.915,19.1-4.532,27.3C1597.649,1226.536,1610.758,1203.11,1609.075,1201.078Zm-53.4,98.053c.378.431.749.757,1.105,1.138a11.613,11.613,0,0,0,2.174.221s4.512,1.249,12.706-3.036c2.631-1.345,6.844-19.016,4.511-27.269C1567.181,1273.673,1553.994,1297.107,1555.676,1299.131Z" transform="translate(-1468.509 -1136.758)" style="mix-blend-mode: overlay;isolation: isolate"/>
          <path id="Path_5539" data-name="Path 5539" d="M1618.689,1254.214c-12.605,32.325-40.445,57.04-62.2,55.1-21.8-1.9-29.217-29.682-16.69-62.069,12.581-32.365,40.419-57.053,62.2-55.132S1631.242,1221.863,1618.689,1254.214Zm-25.61-11.5c.023,11.719,22.073,5.519,23.63,1.164,3.71-10.639,3.083-16.574,3.083-16.574a23.88,23.88,0,0,0-3.107-13.031C1615.152,1211.689,1593.1,1231,1593.079,1242.71Zm-6.946-9.835c8.849.791,24.79-27.184,22.958-29.417-4.492-5.383-9.575-4.953-9.575-4.953s-4.479-1.228-12.628,3C1583.46,1203.243,1577.367,1232.112,1586.134,1232.875Zm-2.753,7.192c-3.985-.361-9.047,4.127-11.3,10.05-2.307,5.873-.926,10.93,3.009,11.276,3.985.361,9.019-4.133,11.325-10.015C1588.72,1245.456,1587.368,1240.38,1583.381,1240.067Zm-33.927-2.17c-1.883,4.335,14.082,13.911,22.88,2.961,8.818-10.917,2.7-32.727-.677-30.556A47.953,47.953,0,0,0,1559,1221.884S1553.886,1227.368,1549.453,1237.9Zm15.986,20.791c0-11.749-22.078-5.555-23.631-1.193-3.734,10.638-3.106,16.637-3.106,16.637a23.743,23.743,0,0,0,3.106,12.981C1543.34,1289.673,1565.439,1270.4,1565.439,1258.688Zm6.894,9.855c-8.8-.827-24.71,27.115-22.931,29.368,4.484,5.353,9.595,5.015,9.595,5.015s4.463,1.185,12.659-3.032C1575.038,1298.113,1581.1,1269.285,1572.333,1268.543Zm27.212,10.991s5.055-5.569,9.546-16.047c1.85-4.341-14.134-13.884-22.931-2.969-8.762,10.936-2.676,32.713.729,30.556A48.526,48.526,0,0,0,1599.546,1279.534Zm-16.818-28.5c1.1-2.857.431-5.313-1.476-5.479s-4.385,2.033-5.463,4.848c-1.154,2.872-.479,5.341,1.43,5.514C1579.15,1256.039,1581.606,1253.889,1582.728,1251.031Z" transform="translate(-1462.235 -1135.538)" fill="#ededef"/>
          <path id="Path_5540" data-name="Path 5540" d="M1530.369,1253.579c17.565-45.028,56.257-79.371,86.58-76.687,30.267,2.684,40.669,41.353,23.176,86.39-17.518,45.015-56.257,79.392-86.528,76.687C1523.278,1337.292,1512.879,1298.622,1530.369,1253.579Zm30.4,67.921c23.452,2.06,53.4-24.48,66.935-59.316,13.5-34.854,5.5-64.752-17.95-66.826-23.4-2.079-53.4,24.5-66.906,59.281C1529.293,1289.488,1537.338,1319.427,1560.768,1321.5Z" transform="translate(-1468.261 -1143.238)" fill="#315271"/>
        </g>
        <path id="Path_5541" data-name="Path 5541" d="M1575.348,926.968c13.731-23.767,51.423-53.553,111.986-88.534,9.5-5.486,17.792-10.076,25.111-13.981,40.77-23.141,73.775-7.407,87.5.062V824.5l297.6,171.843c21.323,12.489,54.576,35.59,59.816,89.808.652,26.623.876,65.412.628,122.383-.154,34.543-.354,62.38-.651,85.037l-97.5,56.3c-18.694,10.806-35.813,28.406-49.142,48.894l-121.505,70.167-379.745-219.264c-.974-24.336-1.474-53.255-1.474-84.13C1507.943,1074.289,1554.222,963.5,1575.348,926.968Z" transform="translate(-1490.251 -812.322)" fill="#ededef"/>
        <path id="Path_5542" data-name="Path 5542" d="M1668.5,1193.909v-57.546s-.028,0-.028-.023l.028-.464h.02c.2-11.339,9.474-21.014,26.437-30.826l12.3-7.088,387.561,223.759v58.324l-12.306,7.08c-55.1,31.811-108.031,16.866-262.416-72.243-107.174-61.909-152.38-95.516-151.579-120.974Z" transform="translate(-1668.475 -668.203)" fill="#315271"/>
        <path id="Path_5543" data-name="Path 5543" d="M1707.256,1097.962l-12.3,7.088c-55.1,31.824-29.193,62.374,125.142,151.5,154.385,89.122,207.289,104.109,262.416,72.256l12.306-7.08Z" transform="translate(-1668.469 -668.203)" fill="#fff" opacity="0.3" style="mix-blend-mode: overlay;isolation: isolate"/>
        <path id="Path_5544" data-name="Path 5544" d="M1673.437,1058.122c.173-11.277,9.317-20.911,26.232-30.646l383.923,221.671v101.528c-54.6,31.555-107.074,16.707-259.98-71.554-105.1-60.682-150.105-93.977-150.175-119.1h0l-.029-101.913Z" transform="translate(-1664.664 -703.766)" fill="#ededef"/>
        <path id="Path_5545" data-name="Path 5545" d="M1823.6,1177.577c152.906,88.276,205.38,103.091,259.98,71.57l-383.923-221.671C1645.034,1058.995,1670.719,1089.308,1823.6,1177.577Z" transform="translate(-1664.657 -703.766)" fill="#fff" opacity="0.8" style="mix-blend-mode: overlay;isolation: isolate"/>
        <path id="Path_5546" data-name="Path 5546" d="M1575.354,1074.741c13.732-23.757,51.392-53.55,111.99-88.519,35.958-20.775,55.3-29.232,66.23-32.262,11.728,14.126,21.422,33.5,24.054,60.729.652,26.623.876,65.412.628,122.383-.154,34.542-.354,62.38-.651,85.037l-97.5,56.3c-18.694,10.805-35.813,28.405-49.141,48.894l-121.505,70.167c-.964-24.342-1.457-53.288-1.484-84.136C1507.945,1222.082,1554.254,1111.3,1575.354,1074.741Z" transform="translate(-1110.517 -740.858)" fill="#ededef"/>
        <g id="Group_2702" data-name="Group 2702" transform="translate(417.273 237.135)">
          <path id="Path_5547" data-name="Path 5547" d="M1596.459,1403.606c0-49.052,34.449-108.721,77-133.251l77.5-44.757c1.608-100.621,1.457-252.707-3.28-255.4-9.145-5.278-145.439,70.765-164.939,104.551-20.369,35.227-61.6,137.9-61.6,219.093s3.639,154.31,10.227,150.5c2.931-1.678,31.9-18.4,65.223-37.636C1596.58,1405.665,1596.459,1404.674,1596.459,1403.606Z" transform="translate(-1521.15 -969.934)" fill="#dde8eb"/>
          <path id="Path_5548" data-name="Path 5548" d="M1736.573,1043.26v-63.9c-10.246,4.16-28.364,12.981-52.668,27.029-52.175,30.122-85.627,56.592-91.767,67.189-19.567,33.872-55.279,124.415-58.713,199.043,47.034-37.213,135.819-127.181,165.234-156.094C1739.358,1076.563,1736.573,1055.927,1736.573,1043.26Z" transform="translate(-1524.351 -965.179)" fill="#243c3f"/>
          <path id="Path_5549" data-name="Path 5549" d="M1565.9,1105.68c0,5.435-3.835,12.066-8.548,14.793l-20.822,12.031c-4.737,2.733-8.572.534-8.572-4.924h0c0-5.458,3.835-12.087,8.572-14.8l20.822-12.026c4.713-2.759,8.548-.526,8.548,4.925Z" transform="translate(-1345.4 -904.526)" fill="#315271"/>
        </g>
        <path id="Path_5550" data-name="Path 5550" d="M1596.459,1403.606c0-49.052,34.449-108.721,77-133.251l77.5-44.757c1.608-100.621,1.457-252.707-3.28-255.4-9.145-5.278-145.439,70.765-164.939,104.551-20.369,35.227-61.6,137.9-61.6,219.093s3.639,154.31,10.227,150.5c2.931-1.678,31.9-18.4,65.223-37.636C1596.58,1405.665,1596.459,1404.674,1596.459,1403.606Z" transform="translate(-1103.878 -732.799)" fill="#ededef"/>
        <path id="Path_5551" data-name="Path 5551" d="M1740.71,1052.573V974.606c-3.116,1.262-7.171,3.821-11.952,7.151-10.881,7.556-25.687,19.147-42.577,28.9-52.148,30.109-83.8,61.635-89.937,72.237-19.542,33.876-73.542,133.533-70.688,208.071,47.034-37.227,147.82-136.217,177.234-165.122C1743.464,1085.875,1740.71,1065.24,1740.71,1052.573Z" transform="translate(-1099.208 -730.442)" fill="#fff" opacity="0.8" style="mix-blend-mode: overlay;isolation: isolate"/>
        <path id="Path_5552" data-name="Path 5552" d="M1736.573,1043.26v-63.9c-10.246,4.16-28.364,12.981-52.668,27.029-52.175,30.122-85.627,56.592-91.767,67.189-19.567,33.872-55.279,124.415-58.713,199.043,47.034-37.213,135.819-127.181,165.234-156.094C1739.358,1076.563,1736.573,1055.927,1736.573,1043.26Z" transform="translate(-1107.078 -728.043)" fill="#315271"/>
        <path id="Path_5553" data-name="Path 5553" d="M1731.989,986.376c-8.6,3.835-23.606,11.179-45.781,24.031-50.917,29.369-84.423,55.653-90.062,65.5-17.74,30.625-51.4,114.574-57.432,186.448,40.368-33.593,103.74-96.549,138.869-131.467,7.143-7.065,13.207-13.106,17.821-17.642,36.959-36.3,36.735-55.178,36.584-67.693V986.376Zm4.584-7.017v63.9c0,12.667,2.785,33.3-37.913,73.265-29.415,28.913-118.2,118.881-165.234,156.094,3.434-74.627,39.145-165.171,58.713-199.043,6.14-10.6,39.592-37.066,91.767-67.189,24.3-14.048,42.422-22.869,52.668-27.029Z" transform="translate(-1107.078 -728.043)" opacity="0.3" style="mix-blend-mode: overlay;isolation: isolate"/>
        <path id="Path_5554" data-name="Path 5554" d="M1565.9,1105.68c0,5.435-3.835,12.066-8.548,14.793l-20.822,12.031c-4.737,2.733-8.572.534-8.572-4.924h0c0-5.458,3.835-12.087,8.572-14.8l20.822-12.026c4.713-2.759,8.548-.526,8.548,4.925Z" transform="translate(-928.128 -667.39)" fill="#315271"/>
        <path id="Path_5555" data-name="Path 5555" d="M1646.027,1101.847c6.24-74.767,37.637-156.464,58.238-197.967.25-.5.575-1.079.877-1.738,9.622-20.412,27.511-13.634,35.507-9.036,3.981,2.32,71.441,52.384,152.807,99.369,81.064,46.774,175.982,90.5,180.775,93.234l.374.2c8.295,4.8,20.7,12.342,12,32.027-.95,1.882-1.929,3.782-2.907,5.807l-.023.031c-20.524,41.544-51.444,122.385-57.812,196.57l.73.422c-.275.119-.555.194-.8.3v.02h-.048a88.72,88.72,0,0,1-33.126,6.264c-39.648,0-92.444-22.367-201.8-85.5-61.045-35.231-118.353-70.467-138.223-95.3l-.027-.024C1642.644,1136.126,1643.924,1127.756,1646.027,1101.847Z" transform="translate(-1627.235 -774.025)" fill="#315271"/>
        <path id="Path_5556" data-name="Path 5556" d="M1724.436,892.831c-6.591,0-11.553,3.7-15.135,11.28-.351.749-.676,1.4-.9,1.826-22.955,46.226-51.822,125.37-57.761,196.287l-.3,3.967c-1.959,23.218-2.129,29.061,5.413,36.977l.125.125.149.2.174.17c19.823,24.786,80.341,61.519,136.918,94.183,108.532,62.66,160.729,84.885,199.5,84.859a83.571,83.571,0,0,0,28.842-4.946c6.536-71.1,35.279-149.873,58.109-196.046l.3-.68h.028c.874-1.747,1.723-3.447,2.551-5.063,6.516-14.927-.426-20.423-10.2-26.068l-.3-.188c-.778-.423-5.465-2.683-11.406-5.526-28.311-13.618-103.511-49.683-169.37-87.742-66.857-38.553-123.689-78.772-145.067-93.911-3.83-2.729-7.163-5.06-7.792-5.427-2.752-1.6-8.217-4.282-13.879-4.282Zm0-4.612c6.339.017,12.406,2.68,16.214,4.888,3.981,2.32,71.441,52.384,152.807,99.369,81.064,46.774,175.982,90.5,180.775,93.234l.374.2c8.295,4.8,20.7,12.342,12,32.027-.95,1.882-1.929,3.783-2.907,5.808l-.023.031c-20.524,41.544-51.444,122.385-57.812,196.569l.73.423c-.275.119-.555.195-.8.3v.02h-.048a88.719,88.719,0,0,1-33.126,6.263c-39.648,0-92.444-22.367-201.8-85.5-61.045-35.231-118.353-70.467-138.223-95.3l-.027-.024c-9.924-10.4-8.644-18.766-6.541-44.676,6.24-74.767,37.637-156.464,58.238-197.967.25-.5.575-1.079.877-1.738,5.01-10.676,12.324-13.908,19.293-13.924Z" transform="translate(-1627.235 -774.027)" opacity="0.3" style="mix-blend-mode: overlay;isolation: isolate"/>
      </g>
    </g>
    <path id="Path_6542" data-name="Path 6542" d="M1674.627,668.259c-28.464,16.539-44.834,37.435-49.1,59.022-.24,1.188-.415,2.377-.587,3.562l-19.681,119.89,208.869-12.013c38.643-2.106,76.239-11.733,105.737-28.873,67.286-39.1,66.93-102.5-.794-141.6S1741.91,629.154,1674.627,668.259Z" transform="translate(-14866.196 7296.2)" fill="url(#linear-gradient)"/>
    <g id="Group_2933" data-name="Group 2933" transform="translate(-2212.609 -1087.97)">
      <path id="Path_6532" data-name="Path 6532" d="M268.786-30.364c-118.222-59.111-214.2,3.108-214.2,138.853S175.8,469.714,268.786,626.57c92.983-63.874,214.2-168.132,214.2-303.878S387.007,28.747,268.786-30.364Z" transform="translate(-11317.183 8608.334)" fill="#f5b48f" fill-rule="evenodd"/>
      <path id="Path_6533" data-name="Path 6533" d="M98.571,612.9l69.251-34.625c92.984-63.874,214.2-168.132,214.2-303.879S286.043-19.544,167.821-78.655c-53.77-26.885-102.939-28.671-140.57-9.856h0L-42-53.886h0C-4.369-72.7,44.8-70.915,98.571-44.03c118.221,59.111,214.2,217.31,214.2,353.056s-121.219,240-214.2,303.878Z" transform="translate(-11146.967 8622)" fill="#e5a784" fill-rule="evenodd"/>
      <path id="Path_6534" data-name="Path 6534" d="M359.3,171.1l-61.5,46.123-61.5-107.62-45.071,33.8,61.5,107.62-61.5,46.123,45.071,78.874,61.5-46.123,61.5,107.62,45.071-33.8-61.5-107.621,61.5-46.123L359.3,171.1Z" transform="translate(-11336.552 8562.403)" fill="#a1212b" fill-rule="evenodd"/>
      <path id="Path_6535" data-name="Path 6535" d="M435.61,209.25l-61.5,46.123-61.5-107.621-45.071,33.8,61.5,107.621-61.5,46.123,45.071,78.873,61.5-46.123,61.5,107.621,45.071-33.8-61.5-107.621,61.5-46.123L435.61,209.25Z" transform="translate(-11467.572 8551.606)" fill="#d3e5f0" fill-rule="evenodd"/>
      <path id="Path_6536" data-name="Path 6536" d="M213.28,227.442l38.909-15.4,45.07,78.873-38.909,15.4L213.28,227.442Z" transform="translate(-11245.242 8533.414)" fill="#f6f9fb" fill-rule="evenodd"/>
      <path id="Path_6537" data-name="Path 6537" d="M274.778,337.445l38.909-15.4-61.5,46.123-38.909,15.4,61.5-46.123Z" transform="translate(-11261.669 8502.285)" fill="#9dc0dc" fill-rule="evenodd"/>
      <path id="Path_6538" data-name="Path 6538" d="M469.164,454.995l6.1,10.673-28.1,21.073-39.5,14.378,61.5-46.123Z" transform="translate(-11562.624 8464.661)" fill="#9dc0dc" fill-rule="evenodd"/>
      <path id="Path_6539" data-name="Path 6539" d="M258.351,551.867l38.909-15.4-45.07,33.8-38.909,15.4,45.071-33.8Z" transform="translate(-11245.242 8441.606)" fill="#9dc0dc" fill-rule="evenodd"/>
      <path id="Path_6540" data-name="Path 6540" d="M213.28,401.771l38.909-15.4,61.5,107.621-38.909,15.4-61.5-107.621Z" transform="translate(-11261.669 8484.081)" fill="#f6f9fb" fill-rule="evenodd"/>
      <path id="Path_6541" data-name="Path 6541" d="M369.473,141.673l38.909-15.4L464.454,224.4l-33.484,24.9-61.5-107.621Z" transform="translate(-11524.43 8557.686)" fill="#f6f9fb" fill-rule="evenodd"/>
    </g>
  </g>
</svg>
