<svg xmlns="http://www.w3.org/2000/svg" width="512" height="512" viewBox="0 0 512 512">
  <g id="ic_no_itegration" transform="translate(-4153 -1734)">
    <g id="Path_96755" data-name="Path 96755" transform="translate(4153 1734)" fill="none">
      <path d="M256,0C397.385,0,512,114.615,512,256S397.385,512,256,512,0,397.385,0,256,114.615,0,256,0Z" stroke="none"/>
      <path d="M 256 12 C 121.4579162597656 12 12 121.4579162597656 12 256 C 12 390.5420837402344 121.4579162597656 500 256 500 C 390.5420837402344 500 500 390.5420837402344 500 256 C 500 121.4579162597656 390.5420837402344 12 256 12 M 256 0 C 397.3848571777344 0 512 114.6150817871094 512 256 C 512 397.3848571777344 397.3848571777344 512 256 512 C 114.6150817871094 512 0 397.3848571777344 0 256 C 0 114.6150817871094 114.6150817871094 0 256 0 Z" stroke="none" fill="#0d1b3a"/>
    </g>
    <g id="Group_21239" data-name="Group 21239" transform="translate(-9 -9.785)">
      <path id="Path_56285" data-name="Path 56285" d="M44.315,81.245H33.236a3.693,3.693,0,1,1,0-7.386h7.386V66.473H11.079A11.092,11.092,0,0,1,0,55.394V11.079A11.092,11.092,0,0,1,11.079,0H77.552A11.092,11.092,0,0,1,88.63,11.079V55.394A11.092,11.092,0,0,1,77.552,66.473H48.008v7.386h7.386a3.693,3.693,0,1,1,0,7.386ZM7.386,11.079V55.394a3.694,3.694,0,0,0,3.693,3.693H77.552a3.694,3.694,0,0,0,3.693-3.693V11.079a3.694,3.694,0,0,0-3.693-3.693H11.079A3.694,3.694,0,0,0,7.386,11.079Z" transform="translate(4266.219 1862.784)" fill="#0d1b3a"/>
      <path id="Path_56284" data-name="Path 56284" d="M55.151,134.813a6.128,6.128,0,0,1,0-12.256H67.407V110.3H18.384A18.406,18.406,0,0,1,0,91.918V18.384A18.406,18.406,0,0,1,18.384,0h110.3a18.406,18.406,0,0,1,18.383,18.384V91.918A18.406,18.406,0,0,1,128.685,110.3H79.662v12.256H91.918a6.128,6.128,0,1,1,0,12.256Zm-42.9-116.43V91.918a6.13,6.13,0,0,0,6.128,6.128h110.3a6.13,6.13,0,0,0,6.128-6.128V18.384a6.13,6.13,0,0,0-6.128-6.128H18.384A6.13,6.13,0,0,0,12.256,18.384Z" transform="translate(4437.068 2002.324)" fill="#0d1b3a"/>
      <path id="Path_96754" data-name="Path 96754" d="M4310.534,1982.068v117.856h112.259" transform="translate(0 -27.153)" fill="none" stroke="#0d1b3a" stroke-linecap="round" stroke-linejoin="round" stroke-width="8" stroke-dasharray="16"/>
      <g id="Group_21238" data-name="Group 21238" transform="translate(-34 -14.967)">
        <g id="Path_96753" data-name="Path 96753" transform="translate(4285 2025)" fill="#fff">
          <path d="M 59.55199813842773 115.1039962768555 C 52.05075836181641 115.1039962768555 44.77603912353516 113.6357574462891 37.92987823486328 110.7400970458984 C 34.63905715942383 109.3481750488281 31.46475791931152 107.6251983642578 28.49513816833496 105.6189575195313 C 25.55269813537598 103.6310958862305 22.7856388092041 101.3480377197266 20.27079772949219 98.83319854736328 C 17.75595855712891 96.318359375 15.47289848327637 93.55130004882813 13.4850378036499 90.60885620117188 C 11.47879791259766 87.63923645019531 9.755818367004395 84.46493530273438 8.363898277282715 81.17411804199219 C 5.468238353729248 74.32795715332031 3.999998092651367 67.05323791503906 3.999998092651367 59.55199813842773 C 3.999998092651367 52.05075836181641 5.468238353729248 44.77603912353516 8.363898277282715 37.92987823486328 C 9.755818367004395 34.63905715942383 11.47879791259766 31.46475791931152 13.4850378036499 28.49513816833496 C 15.47289848327637 25.55269813537598 17.75595855712891 22.7856388092041 20.27079772949219 20.27079772949219 C 22.7856388092041 17.75595855712891 25.55269813537598 15.47289848327637 28.49513816833496 13.4850378036499 C 31.46475791931152 11.47879791259766 34.63905715942383 9.755818367004395 37.92987823486328 8.363898277282715 C 44.77603912353516 5.468238353729248 52.05075836181641 3.999998092651367 59.55199813842773 3.999998092651367 C 67.05323791503906 3.999998092651367 74.32795715332031 5.468238353729248 81.17411804199219 8.363898277282715 C 84.46493530273438 9.755818367004395 87.63923645019531 11.47879791259766 90.60885620117188 13.4850378036499 C 93.55130004882813 15.47289848327637 96.318359375 17.75595855712891 98.83319854736328 20.27079772949219 C 101.3480377197266 22.7856388092041 103.6310958862305 25.55269813537598 105.6189575195313 28.49513816833496 C 107.6251983642578 31.46475791931152 109.3481750488281 34.63905715942383 110.7400970458984 37.92987823486328 C 113.6357574462891 44.77603912353516 115.1039962768555 52.05075836181641 115.1039962768555 59.55199813842773 C 115.1039962768555 67.05323791503906 113.6357574462891 74.32795715332031 110.7400970458984 81.17411804199219 C 109.3481750488281 84.46493530273438 107.6251983642578 87.63923645019531 105.6189575195313 90.60885620117188 C 103.6310958862305 93.55130004882813 101.3480377197266 96.318359375 98.83319854736328 98.83319854736328 C 96.318359375 101.3480377197266 93.55130004882813 103.6310958862305 90.60885620117188 105.6189575195313 C 87.63923645019531 107.6251983642578 84.46493530273438 109.3481750488281 81.17411804199219 110.7400970458984 C 74.32795715332031 113.6357574462891 67.05323791503906 115.1039962768555 59.55199813842773 115.1039962768555 Z" stroke="none"/>
          <path d="M 59.55199813842773 8 C 31.12613677978516 8 8 31.12613677978516 8 59.55199813842773 C 8 87.97785949707031 31.12613677978516 111.1039962768555 59.55199813842773 111.1039962768555 C 87.97785949707031 111.1039962768555 111.1039962768555 87.97785949707031 111.1039962768555 59.55199813842773 C 111.1039962768555 31.12613677978516 87.97785949707031 8 59.55199813842773 8 M 59.55199813842773 0 C 92.44165802001953 0 119.1039962768555 26.66233825683594 119.1039962768555 59.55199813842773 C 119.1039962768555 92.44165802001953 92.44165802001953 119.1039962768555 59.55199813842773 119.1039962768555 C 26.66233825683594 119.1039962768555 0 92.44165802001953 0 59.55199813842773 C 0 26.66233825683594 26.66233825683594 0 59.55199813842773 0 Z" stroke="none" fill="#ec691f"/>
        </g>
        <g id="Group_21237" data-name="Group 21237" transform="translate(4323.875 2063.875)">
          <path id="Path_96751" data-name="Path 96751" d="M-16294.5-6903.83l42.713-42.714" transform="translate(16294.495 6946.544)" fill="none" stroke="#ec691f" stroke-linecap="round" stroke-width="8"/>
          <path id="Path_96752" data-name="Path 96752" d="M-16251.782-6903.83l-42.713-42.714" transform="translate(16294.495 6946.544)" fill="none" stroke="#ec691f" stroke-linecap="round" stroke-width="8"/>
        </g>
      </g>
    </g>
  </g>
</svg>
