<svg xmlns="http://www.w3.org/2000/svg" width="512" height="512" viewBox="0 0 512 512">
  <g id="Group_21242" data-name="Group 21242" transform="translate(-2053 -5832)">
    <g id="Ellipse_817" data-name="Ellipse 817" transform="translate(2053 5832)" fill="none" stroke="#0d1b3a" stroke-width="12">
      <circle cx="256" cy="256" r="256" stroke="none"/>
      <circle cx="256" cy="256" r="250" fill="none"/>
    </g>
    <g id="Group_21241" data-name="Group 21241" transform="translate(-509.479 -97.232)">
      <path id="Path_96756" data-name="Path 96756" d="M20625.625,9239.087a36.663,36.663,0,0,1-36.625-36.625V9070.623a36.663,36.663,0,0,1,36.625-36.625h219.732a36.672,36.672,0,0,1,36.627,36.625v131.839a36.672,36.672,0,0,1-36.627,36.625Zm-21.979-168.464v131.839a22,22,0,0,0,21.979,21.978h219.732a22,22,0,0,0,21.975-21.978V9070.623a22,22,0,0,0-21.975-21.973h-219.732A22,22,0,0,0,20603.646,9070.623Zm36.623,124.519a7.326,7.326,0,0,1,0-14.651h190.443a7.326,7.326,0,0,1,0,14.651Zm14.652-43.95a22,22,0,0,1-21.977-21.972v-29.3a22,22,0,0,1,21.977-21.972h29.3a22,22,0,0,1,21.973,21.972v29.3a22,22,0,0,1-21.973,21.972Zm-7.324-51.271v29.3a7.337,7.337,0,0,0,7.324,7.326h29.3a7.332,7.332,0,0,0,7.32-7.326v-29.3a7.336,7.336,0,0,0-7.32-7.326h-29.3A7.34,7.34,0,0,0,20647.6,9099.921Z" transform="translate(-17942.521 -2972.766)" fill="#0d1b3a"/>
      <g id="Group_21240" data-name="Group 21240" transform="translate(2844.139 6163.778)">
        <g id="Path_96753" data-name="Path 96753" transform="translate(0 0)" fill="#fff">
          <path d="M 73.03884124755859 141.0776824951172 C 63.85145568847656 141.0776824951172 54.94154739379883 139.2794342041016 46.55659103393555 135.73291015625 C 42.52609252929688 134.0281372070313 38.63827133178711 131.9178619384766 35.00115966796875 129.4606781005859 C 31.39731788635254 127.0259552001953 28.00825119018555 124.2297058105469 24.92811393737793 121.1495666503906 C 21.84797668457031 118.0694351196289 19.05172729492188 114.6803665161133 16.61700057983398 111.0765228271484 C 14.15981864929199 107.4394073486328 12.04954624176025 103.5515899658203 10.3447732925415 99.52108764648438 C 6.798250198364258 91.13613891601563 5.000000476837158 82.22622680664063 5.000000476837158 73.03884124755859 C 5.000000476837158 63.85145568847656 6.798250198364258 54.94154739379883 10.3447732925415 46.55659103393555 C 12.04954624176025 42.52609252929688 14.15981864929199 38.63827133178711 16.61700057983398 35.00115966796875 C 19.05172729492188 31.39731788635254 21.84797668457031 28.00825119018555 24.92811393737793 24.92811393737793 C 28.00825119018555 21.84797668457031 31.39731788635254 19.05172729492188 35.00115966796875 16.61700057983398 C 38.63827133178711 14.15981864929199 42.52609252929688 12.04954624176025 46.55659103393555 10.3447732925415 C 54.94154739379883 6.798250198364258 63.85145568847656 5.000000476837158 73.03884124755859 5.000000476837158 C 82.22622680664063 5.000000476837158 91.13613891601563 6.798250198364258 99.52108764648438 10.3447732925415 C 103.5515899658203 12.04954624176025 107.4394073486328 14.15981864929199 111.0765228271484 16.61700057983398 C 114.6803665161133 19.05172729492188 118.0694351196289 21.84797668457031 121.1495666503906 24.92811393737793 C 124.2297058105469 28.00825119018555 127.0259552001953 31.39731788635254 129.4606781005859 35.00115966796875 C 131.9178619384766 38.63827133178711 134.0281372070313 42.52609252929688 135.73291015625 46.55659103393555 C 139.2794342041016 54.94154739379883 141.0776824951172 63.85145568847656 141.0776824951172 73.03884124755859 C 141.0776824951172 82.22622680664063 139.2794342041016 91.13613891601563 135.73291015625 99.52108764648438 C 134.0281372070313 103.5515899658203 131.9178619384766 107.4394073486328 129.4606781005859 111.0765228271484 C 127.0259552001953 114.6803665161133 124.2297058105469 118.0694351196289 121.1495666503906 121.1495666503906 C 118.0694351196289 124.2297058105469 114.6803665161133 127.0259552001953 111.0765228271484 129.4606781005859 C 107.4394073486328 131.9178619384766 103.5515899658203 134.0281372070313 99.52108764648438 135.73291015625 C 91.13613891601563 139.2794342041016 82.22622680664063 141.0776824951172 73.03884124755859 141.0776824951172 Z" stroke="none"/>
          <path d="M 73.03884124755859 10.00001525878906 C 38.27912139892578 10.00001525878906 10.00001525878906 38.27912139892578 10.00001525878906 73.03884124755859 C 10.00001525878906 107.7985687255859 38.27912139892578 136.0776672363281 73.03884124755859 136.0776672363281 C 107.7985687255859 136.0776672363281 136.0776672363281 107.7985687255859 136.0776672363281 73.03884124755859 C 136.0776672363281 38.27912139892578 107.7985687255859 10.00001525878906 73.03884124755859 10.00001525878906 M 73.03884124755859 1.52587890625e-05 C 113.3770599365234 1.52587890625e-05 146.0776672363281 32.70062255859375 146.0776672363281 73.03884124755859 C 146.0776672363281 113.3770599365234 113.3770599365234 146.0776672363281 73.03884124755859 146.0776672363281 C 32.70062255859375 146.0776672363281 1.52587890625e-05 113.3770599365234 1.52587890625e-05 73.03884124755859 C 1.52587890625e-05 32.70062255859375 32.70062255859375 1.52587890625e-05 73.03884124755859 1.52587890625e-05 Z" stroke="none" fill="#ec691f"/>
        </g>
        <path id="Path_96751" data-name="Path 96751" d="M-16294.493-6894.156l52.385-52.388" transform="translate(16342.172 6994.223)" fill="none" stroke="#ec691f" stroke-linecap="round" stroke-width="10"/>
        <path id="Path_96752" data-name="Path 96752" d="M-16242.108-6894.156l-52.385-52.388" transform="translate(16342.172 6994.223)" fill="none" stroke="#ec691f" stroke-linecap="round" stroke-width="10"/>
      </g>
    </g>
  </g>
</svg>
