<svg xmlns="http://www.w3.org/2000/svg" width="512" height="512" viewBox="0 0 512 512">
  <g id="ic_no_gps_vehicle" transform="translate(-9041 -3484)">
    <g id="Ellipse_980" data-name="Ellipse 980" transform="translate(9041 3484)" fill="none" stroke="#0d1b3a" stroke-linecap="round" stroke-linejoin="round" stroke-width="12">
      <circle cx="256" cy="256" r="256" stroke="none"/>
      <circle cx="256" cy="256" r="250" fill="none"/>
    </g>
    <g id="Group_187" data-name="Group 187" transform="translate(8602.521 2747.44)">
      <g id="Group_173" data-name="Group 173" transform="translate(517 955.978)">
        <g id="Group_57" data-name="Group 57" transform="translate(0 0.71)">
          <g id="Path_9" data-name="Path 9" transform="translate(2.139 0)" fill="none" stroke-linecap="round" stroke-linejoin="round">
            <path d="M6.877,0h171.47a4.308,4.308,0,0,1,4.341,4.275s7.668,18.318,7.668,37.556-7.668,39.394-7.668,39.394a4.308,4.308,0,0,1-4.341,4.275H6.877a4.308,4.308,0,0,1-4.341-4.275S-2.139,61.069-2.139,41.831A172.773,172.773,0,0,1,2.536,4.275,4.308,4.308,0,0,1,6.877,0Z" stroke="none"/>
            <path d="M 6.876556396484375 -1.52587890625e-05 C 4.479049682617188 -1.52587890625e-05 2.5355224609375 1.913986206054688 2.5355224609375 4.275016784667969 C 2.5355224609375 4.275016784667969 -2.138778686523438 22.59348678588867 -2.138778686523438 41.83102035522461 C -2.138778686523438 61.06851959228516 2.5355224609375 81.22509002685547 2.5355224609375 81.22509002685547 C 2.5355224609375 83.58612060546875 4.479080200195313 85.5001220703125 6.876556396484375 85.5001220703125 L 178.3465576171875 85.5001220703125 C 180.7440185546875 85.5001220703125 182.6875457763672 83.58612060546875 182.6875457763672 81.22509002685547 C 182.6875457763672 81.22509002685547 190.3553466796875 61.06851959228516 190.3553466796875 41.83102035522461 C 190.3553466796875 22.59348678588867 182.6875457763672 4.275016784667969 182.6875457763672 4.275016784667969 C 182.6875457763672 1.913986206054688 180.7440185546875 -1.52587890625e-05 178.3465576171875 -1.52587890625e-05 L 6.876556396484375 -1.52587890625e-05 M 6.876556396484375 -8.000015258789063 L 178.3465576171875 -8.000015258789063 C 184.4989318847656 -8.000015258789063 189.6141204833984 -3.499313354492188 190.5385284423828 2.366065979003906 C 192.3103332519531 6.939453125 198.3553466796875 23.8612060546875 198.3553466796875 41.83102035522461 C 198.3553466796875 59.92927169799805 192.2156524658203 78.35162353515625 190.5605926513672 82.98836517333984 C 189.6983947753906 88.92449951171875 184.5495910644531 93.5001220703125 178.3465576171875 93.5001220703125 L 6.876556396484375 93.5001220703125 C 0.448394775390625 93.5001220703125 -4.847610473632813 88.58669281005859 -5.414276123046875 82.33718872070313 C -6.263519287109375 78.49332427978516 -10.13877868652344 59.95755767822266 -10.13877868652344 41.83102035522461 C -10.13877868652344 23.83435821533203 -6.320175170898438 6.870758056640625 -5.404876708984375 3.063728332519531 C -4.791458129882813 -3.138481140136719 0.482452392578125 -8.000015258789063 6.876556396484375 -8.000015258789063 Z" stroke="none" fill="#011131"/>
          </g>
          <g id="Path_11" data-name="Path 11" transform="translate(27.876 34.263)" fill="none" stroke-linecap="round" stroke-linejoin="round">
            <path d="M5.812,0H158.762c1.014,5.944.892,9.727,0,16.973H5.812c-2.139,0-3.872-.38-3.872-.849,0,0-4.013-3.762-4.013-7.581S1.94.849,1.94.849C1.94.38,3.674,0,5.812,0Z" stroke="none"/>
            <path d="M 5.812362670898438 -7.62939453125e-06 C 3.673858642578125 -7.62939453125e-06 1.94024658203125 0.3799629211425781 1.94024658203125 0.8486576080322266 C 1.94024658203125 0.8486576080322266 -2.07275390625 4.724907875061035 -2.07275390625 8.54390811920166 C -2.07275390625 12.36290740966797 1.94024658203125 16.12465858459473 1.94024658203125 16.12465858459473 C 1.94024658203125 16.59335327148438 3.673858642578125 16.97332382202148 5.812362670898438 16.97332382202148 L 158.7618560791016 16.97332382202148 C 159.65380859375 9.726518630981445 159.7760314941406 5.944074630737305 158.7618560791016 -7.62939453125e-06 L 5.812362670898438 -7.62939453125e-06 M 5.812362670898438 -8.000007629394531 L 158.7618560791016 -8.000007629394531 C 162.6609497070313 -8.000007629394531 165.9921112060547 -5.189064025878906 166.6478881835938 -1.345508575439453 C 167.8552551269531 5.730880737304688 167.6403656005859 10.32632446289063 166.7019500732422 17.95060348510742 C 166.2083892822266 21.96068572998047 162.8022155761719 24.97332382202148 158.7618560791016 24.97332382202148 L 5.812362670898438 24.97332382202148 C -0.11383056640625 24.97332382202148 -3.099700927734375 23.01325416564941 -4.593765258789063 20.87879753112793 C -6.540771484375 18.75279235839844 -10.07275390625 14.12606048583984 -10.07275390625 8.54390811920166 C -10.07275390625 2.995957374572754 -6.56256103515625 -1.686956405639648 -4.6458740234375 -3.830087661743164 C -3.169601440429688 -5.99363899230957 -0.1837615966796875 -8.000007629394531 5.812362670898438 -8.000007629394531 Z" stroke="none" fill="#ea5c10"/>
          </g>
        </g>
        <g id="Group_58" data-name="Group 58" transform="translate(22.127 0)">
          <g id="Subtraction_1" data-name="Subtraction 1" transform="translate(174.352 -0.418)" fill="#fff" stroke-linecap="round" stroke-linejoin="round">
            <path d="M 20.97445487976074 112 L 20.9725456237793 112 L -0.0003454545512795448 111.9982147216797 L -4.101236343383789 111.9978713989258 L -3.998745441436768 107.8982543945313 L -1.298981785774231 -0.09996363520622253 L -1.201490879058838 -4 L 2.699763536453247 -4 L 49.05005264282227 -3.999963521957397 L 51.25492858886719 -3.999963521957397 L 52.43216323852539 -2.135672807693481 L 78.33575439453125 38.88516616821289 L 109.7805633544922 54.51663589477539 L 112 55.61992645263672 L 112 58.09847259521484 L 112 107.995491027832 L 112 111.9948883056641 L 108.000602722168 111.995491027832 L 89.72765350341797 111.9982147216797 L 86.89845275878906 111.9986343383789 L 85.95567321777344 109.3311462402344 C 81.38254547119141 96.39192962646484 69.08351135253906 87.69837951660156 55.35108947753906 87.69837951660156 C 41.61867141723633 87.69837951660156 29.31961822509766 96.39192962646484 24.74647331237793 109.3311462402344 L 24.74427223205566 109.3373641967773 L 24.7420539855957 109.3435668945313 L 23.79396438598633 111.9982147216797 L 20.97445487976074 112 Z" stroke="none"/>
            <path d="M 20.97445678710938 108 L 20.9750862121582 107.9982147216797 C 26.11206436157227 93.46371459960938 39.92673873901367 83.69837188720703 55.3510856628418 83.69837188720703 C 70.77621459960938 83.69837188720703 84.58986663818359 93.46299743652344 89.72706604003906 107.9982147216797 L 108 107.9954986572266 L 108 58.09847640991211 L 75.55188751220703 41.96826171875 L 49.05004501342773 2.173912980651949e-05 L 2.699760913848877 7.105427357601002e-15 L 7.105427357601002e-15 107.9982147216797 L 20.97254371643066 108 L 20.97445678710938 108 M 20.97445487976074 116 C 20.97404098510742 116 20.97419738769531 116 20.97378349304199 116 L -0.0006739130476489663 115.9982147216797 C -2.156956434249878 115.998046875 -4.221848011016846 115.1274108886719 -5.727347850799561 113.5836944580078 C -7.232826232910156 112.0399780273438 -8.0513916015625 109.9538879394531 -7.997499942779541 107.7983016967773 L -5.297739028930664 -0.1999130398035049 C -5.189282417297363 -4.538956642150879 -1.640630483627319 -8 2.699760913848877 -8 L 49.05004501342773 -7.999978065490723 C 51.79517364501953 -7.999978065490723 54.34858703613281 -6.59250020980835 55.81428146362305 -4.27141284942627 L 81.11964416503906 35.80207443237305 L 111.5611267089844 50.93478393554688 C 114.2805023193359 52.28662872314453 116 55.06163024902344 116 58.09847640991211 L 116 107.9954986572266 C 116 112.4133071899414 112.4189987182617 115.9948501586914 108.0011978149414 115.9954986572266 L 89.72826385498047 115.9982147216797 C 89.72805023193359 115.9982147216797 89.72727966308594 115.9982147216797 89.72707366943359 115.9982147216797 C 86.3363037109375 115.9984588623047 83.31423187255859 113.8610687255859 82.18430328369141 110.6640625 C 78.17500305175781 99.32008361816406 67.39154052734375 91.69837188720703 55.3510856628418 91.69837188720703 C 43.31063079833984 91.69837188720703 32.52717208862305 99.32010650634766 28.51784706115723 110.6640853881836 C 27.3880500793457 113.8607177734375 24.36477661132813 116 20.97445487976074 116 Z" stroke="none" fill="#011131"/>
          </g>
          <g id="Subtraction_2" data-name="Subtraction 2" transform="translate(0.352 96.582)" fill="#fff" stroke-linecap="round" stroke-linejoin="round">
            <path d="M 158 15 L 157.9971923828125 15 L 80.95954895019531 15 L 78.10600280761719 15 L 77.17730712890625 12.30178546905518 C 75.94926452636719 8.733785629272461 74.14516448974609 5.429095268249512 71.81517028808594 2.4794762134552 L 66.69676208496094 -4 L 74.9539794921875 -4 L 158 -4 L 162 -4 L 162 0 L 162 10.99723815917969 L 162 14.99723815917969 L 158 15 Z M 12.7686185836792 15 L 12.76659488677979 15 L 0 15 L -4 15 L -4 11 L -4 0 L -4 -4 L 0 -4 L 18.77492904663086 -4 L 27.03269004821777 -4 L 21.91361999511719 2.479642868041992 C 19.58477973937988 5.427441120147705 17.78134727478027 8.729670524597168 16.5532169342041 12.29493427276611 L 15.62933349609375 14.99811935424805 L 12.7686185836792 15 Z" stroke="none"/>
            <path d="M 158 11 L 158 10.99724960327148 L 158 0 L 74.95397186279297 0 C 77.56522369384766 3.305611133575439 79.58486175537109 7.00594425201416 80.95955657958984 11 L 157.9971923828125 11 L 158 11 M 12.76861095428467 11 L 12.76927757263184 10.99813842773438 C 14.14591693878174 6.999555587768555 16.16727828979492 3.300750017166138 18.77491760253906 0 L 0 0 L 0 11 L 12.76658344268799 11 L 12.76861095428467 11 M 158 19 L 80.95955657958984 19 C 77.54474639892578 19 74.50641632080078 16.83247184753418 73.39508056640625 13.60358333587646 C 72.31400299072266 10.46261119842529 70.72638702392578 7.554138660430908 68.67636108398438 4.958972454071045 C 66.77561187744141 2.552805662155151 66.41744232177734 -0.7281110882759094 67.75424957275391 -3.487694501876831 C 69.09107971191406 -6.247305393218994 71.88764190673828 -8 74.95397186279297 -8 L 158 -8 C 162.4182739257813 -8 166 -4.418277740478516 166 0 L 166 10.99724960327148 C 166 15.41552734375 162.4182739257813 19 158 19 Z M 12.76861095428467 19 L 0 19 C -4.418277740478516 19 -8 15.41827774047852 -8 11 L -8 0 C -8 -4.418277740478516 -4.418277740478516 -8 0 -8 L 18.77491760253906 -8 C 21.84133338928223 -8 24.63791656494141 -6.247250080108643 25.97469520568848 -3.487555503845215 C 27.31150054931641 -0.7278611063957214 26.95322227478027 2.55311107635498 25.05233383178711 4.959249973297119 C 23.00227737426758 7.554194450378418 21.41463851928711 10.46216678619385 20.33352851867676 13.60236072540283 C 19.22200012207031 16.8309440612793 16.18316650390625 19 12.76861095428467 19 Z" stroke="none" fill="#011131"/>
          </g>
          <g id="Path_34" data-name="Path 34" transform="translate(26.362 84.15) rotate(17)" fill="none" stroke-linecap="round" stroke-linejoin="round">
            <path d="M27.888,0c15.4,0,27.888,13.2,27.888,29.485S43.29,58.97,27.888,58.97,0,45.769,0,29.485,12.486,0,27.888,0Z" stroke="none"/>
            <path d="M 27.88823127746582 -7.62939453125e-06 C 12.48598480224609 -7.62939453125e-06 0 13.20083618164063 0 29.48489952087402 C 0 45.76895904541016 12.48598480224609 58.96979141235352 27.88823127746582 58.96979141235352 C 43.29047775268555 58.96979141235352 55.77646255493164 45.76895904541016 55.77646255493164 29.48489952087402 C 55.77646255493164 13.20083618164063 43.29047775268555 -7.62939453125e-06 27.88823127746582 -7.62939453125e-06 M 27.88823127746582 -8.000011444091797 C 47.67706298828125 -8.000011444091797 63.77646255493164 8.815654754638672 63.77646255493164 29.48489952087402 C 63.77646255493164 50.15414428710938 47.67706298828125 66.96979522705078 27.88823127746582 66.96979522705078 C 8.099399566650391 66.96979522705078 -8 50.15414428710938 -8 29.48489952087402 C -8 8.815654754638672 8.099399566650391 -8.000011444091797 27.88823127746582 -8.000011444091797 Z" stroke="none" fill="#011131"/>
          </g>
          <g id="Path_35" data-name="Path 35" transform="translate(212.283 84.15) rotate(17)" fill="none" stroke-linecap="round" stroke-linejoin="round">
            <path d="M27.888,0c15.4,0,27.888,13.2,27.888,29.485S43.29,58.97,27.888,58.97,0,45.769,0,29.485,12.486,0,27.888,0Z" stroke="none"/>
            <path d="M 27.88823127746582 -7.62939453125e-06 C 12.48598480224609 -7.62939453125e-06 0 13.20083618164063 0 29.48489952087402 C 0 45.76895904541016 12.48598480224609 58.96979141235352 27.88823127746582 58.96979141235352 C 43.29047775268555 58.96979141235352 55.77646255493164 45.76895904541016 55.77646255493164 29.48489952087402 C 55.77646255493164 13.20083618164063 43.29047775268555 -7.62939453125e-06 27.88823127746582 -7.62939453125e-06 M 27.88823127746582 -8.000011444091797 C 47.67706298828125 -8.000011444091797 63.77646255493164 8.815654754638672 63.77646255493164 29.48489952087402 C 63.77646255493164 50.15414428710938 47.67706298828125 66.96979522705078 27.88823127746582 66.96979522705078 C 8.099399566650391 66.96979522705078 -8 50.15414428710938 -8 29.48489952087402 C -8 8.815654754638672 8.099399566650391 -8.000011444091797 27.88823127746582 -8.000011444091797 Z" stroke="none" fill="#011131"/>
          </g>
          <g id="Ellipse_10" data-name="Ellipse 10" transform="translate(35.179 100.732) rotate(17)" fill="#fff" stroke="#011131" stroke-linecap="round" stroke-linejoin="round" stroke-width="8">
            <ellipse cx="14.608" cy="15.936" rx="14.608" ry="15.936" stroke="none"/>
            <ellipse cx="14.608" cy="15.936" rx="18.608" ry="19.936" fill="none"/>
          </g>
          <g id="Ellipse_11" data-name="Ellipse 11" transform="translate(221.1 100.732) rotate(17)" fill="#fff" stroke="#011131" stroke-linecap="round" stroke-linejoin="round" stroke-width="8">
            <ellipse cx="14.608" cy="15.936" rx="14.608" ry="15.936" stroke="none"/>
            <ellipse cx="14.608" cy="15.936" rx="18.608" ry="19.936" fill="none"/>
          </g>
          <g id="Path_12" data-name="Path 12" transform="translate(-1453.006 -1351.166)" fill="none" stroke-linecap="round" stroke-linejoin="round">
            <path d="M1638.823,1360.094l.238,35.9h51.961l-22.453-35.9Z" stroke="none"/>
            <path d="M 1638.822998046875 1360.094482421875 L 1639.060791015625 1395.9970703125 L 1691.022216796875 1395.9970703125 L 1668.569091796875 1360.094482421875 L 1638.822998046875 1360.094482421875 M 1638.822998046875 1352.094482421875 L 1668.569091796875 1352.094482421875 C 1671.32666015625 1352.094482421875 1673.889770507813 1353.5146484375 1675.351928710938 1355.8525390625 L 1697.805053710938 1391.755126953125 C 1699.347290039063 1394.22119140625 1699.429565429688 1397.330078125 1698.019897460938 1399.874267578125 C 1696.610229492188 1402.41845703125 1693.930786132813 1403.9970703125 1691.022216796875 1403.9970703125 L 1639.060791015625 1403.9970703125 C 1634.663208007813 1403.9970703125 1631.090087890625 1400.447509765625 1631.060913085938 1396.050048828125 L 1630.823120117188 1360.1474609375 C 1630.80908203125 1358.0166015625 1631.645629882813 1355.968139648438 1633.1474609375 1354.456420898438 C 1634.649169921875 1352.944580078125 1636.692138671875 1352.094482421875 1638.822998046875 1352.094482421875 Z" stroke="none" fill="#011131"/>
          </g>
        </g>
      </g>
      <g id="Group_74" data-name="Group 74" transform="translate(771.338 873)">
        <path id="Path_91" data-name="Path 91" d="M78.8,75.816a37.72,37.72,0,0,0,9.6-23.139H99.034a2.107,2.107,0,1,0,0-4.214H88.392A37.917,37.917,0,0,0,52.678,12.749V2.107a2.107,2.107,0,1,0-4.214,0V12.749a37.716,37.716,0,0,0-23.139,9.6L3.6.617A2.107,2.107,0,0,0,.617,3.6L22.345,25.324a37.72,37.72,0,0,0-9.6,23.139H2.107a2.107,2.107,0,1,0,0,4.214H12.749A37.917,37.917,0,0,0,48.463,88.392V99.034a2.107,2.107,0,1,0,4.214,0V88.392a37.716,37.716,0,0,0,23.139-9.6l21.728,21.728a2.107,2.107,0,0,0,2.98-2.979ZM50.571,84.284A33.659,33.659,0,0,1,25.324,28.3L37.309,40.289a16.69,16.69,0,0,0-3.6,10.282A16.875,16.875,0,0,0,50.57,67.427a16.69,16.69,0,0,0,10.282-3.6L72.838,75.817A33.536,33.536,0,0,1,50.571,84.284Zm7.3-23.431A12.6,12.6,0,0,1,40.288,43.267ZM43.267,40.287A12.6,12.6,0,0,1,60.854,57.874ZM63.832,60.852a16.69,16.69,0,0,0,3.6-10.282A16.875,16.875,0,0,0,50.571,33.714a16.69,16.69,0,0,0-10.282,3.6L28.3,25.324A33.659,33.659,0,0,1,75.817,72.837Z" transform="translate(0 0)" fill="#011131"/>
        <path id="Subtraction_3" data-name="Subtraction 3" d="M16.624,33.248a16.546,16.546,0,0,1-9.295-2.839A16.672,16.672,0,0,1,1.306,23.1,16.6,16.6,0,0,1,2.839,7.329a16.673,16.673,0,0,1,7.314-6.023A16.6,16.6,0,0,1,25.919,2.839a16.672,16.672,0,0,1,6.023,7.314,16.6,16.6,0,0,1-1.533,15.766A16.673,16.673,0,0,1,23.1,31.942,16.52,16.52,0,0,1,16.624,33.248Zm0-28.5A11.874,11.874,0,1,0,28.5,16.624,11.888,11.888,0,0,0,16.624,4.75Z" transform="translate(33.366 33.366)" fill="#ea5c10"/>
      </g>
    </g>
  </g>
</svg>
