<svg xmlns="http://www.w3.org/2000/svg" width="512" height="512" viewBox="0 0 512 512">
  <g id="ic_penalties" transform="translate(-8371 -3484)">
    <g id="Ellipse_425" data-name="Ellipse 425" transform="translate(8371 3484)" fill="none" stroke="#0d1b3a" stroke-linecap="round" stroke-linejoin="round" stroke-width="12">
      <circle cx="256" cy="256" r="256" stroke="none"/>
      <circle cx="256" cy="256" r="250" fill="none"/>
    </g>
    <g id="Group_71" data-name="Group 71" transform="translate(7181.293 2477.908)">
      <path id="Path_88" data-name="Path 88" d="M280.652,0H46.034a4.254,4.254,0,1,0,0,8.509H280.652a.668.668,0,0,1,.663.663V187.418a.663.663,0,0,1-.663.666H9.172a.663.663,0,0,1-.663-.666V9.172a.668.668,0,0,1,.663-.663H29.017a4.254,4.254,0,1,0,0-8.509H9.172A9.184,9.184,0,0,0,0,9.172V187.418a9.181,9.181,0,0,0,9.172,9.174H117.966v53.579H78.4a28.255,28.255,0,0,0-28.221,28.221,9.8,9.8,0,0,0,9.785,9.793H235.394a4.256,4.256,0,0,0,4.254-4.256v-5.537a28.255,28.255,0,0,0-28.221-28.221H171.857V196.592H280.652a9.181,9.181,0,0,0,9.172-9.174V9.172A9.184,9.184,0,0,0,280.652,0ZM126.475,196.592h36.874v53.579H126.475Zm84.951,62.088c9.656,0,18.917,7.007,19.664,19.374a1.538,1.538,0,0,1-1.537,1.621H59.96a1.277,1.277,0,0,1-1.276-1.271A19.738,19.738,0,0,1,78.4,258.68Zm0,0" transform="translate(1301 1118)" fill="#011131"/>
      <path id="Path_89" data-name="Path 89" d="M81.562,188.352a4.257,4.257,0,0,0,4.254,4.257H279.158a7.1,7.1,0,0,0,7.091-7.091V37.279a7.1,7.1,0,0,0-7.091-7.091H34.151a7.1,7.1,0,0,0-7.091,7.091V185.517a7.1,7.1,0,0,0,7.091,7.091H68.8a4.255,4.255,0,0,0,0-8.511H35.57V38.7H277.739V184.1H85.817a4.255,4.255,0,0,0-4.254,4.254Zm0,0" transform="translate(1289.258 1104.9)" fill="#011131"/>
      <path id="Path_90" data-name="Path 90" d="M149.777,164.171c0,20.721,25.241,31.47,40.1,16.61l20.027-20.027,20.027,20.027a23.454,23.454,0,0,0,10.939,6.187,4.254,4.254,0,1,0,2.048-8.259c-5.314-1.318-5.154-2.129-30.006-26.981a4.256,4.256,0,0,0-6.017,0l-23.034,23.034c-9.471,9.471-25.575,2.634-25.575-10.592a14.877,14.877,0,0,1,4.387-10.594l23.036-23.036a4.256,4.256,0,0,0,0-6.017l-23.036-23.036A14.872,14.872,0,0,1,158.288,90.9c0-13.216,16.1-20.073,25.575-10.594L206.9,103.337a4.256,4.256,0,0,0,6.017,0L235.949,80.3c9.468-9.471,25.575-2.633,25.575,10.594a14.873,14.873,0,0,1-4.389,10.592L234.1,124.525a4.252,4.252,0,0,0,0,6.017l23.034,23.036a14.981,14.981,0,0,1-1.641,22.609A4.255,4.255,0,0,0,260.588,183a23.491,23.491,0,0,0,2.565-35.445l-20.027-20.027,20.027-20.027a23.338,23.338,0,0,0,6.879-16.61c0-20.721-25.241-31.47-40.1-16.61L209.906,94.313,189.879,74.284c-14.85-14.846-40.1-4.128-40.1,16.613a23.329,23.329,0,0,0,6.881,16.608l20.027,20.027-20.027,20.027a23.339,23.339,0,0,0-6.881,16.613Zm0,0" transform="translate(1236.006 1088.765)" fill="#ea5c10"/>
    </g>
  </g>
</svg>
