<svg xmlns="http://www.w3.org/2000/svg" width="3336.846" height="1971.642" viewBox="0 0 3336.846 1971.642">
  <g id="Group_2932" data-name="Group 2932" transform="translate(15127.496 -4089.976)">
    <g id="Group_2894" data-name="Group 2894" transform="translate(-15127.496 4089.976)">
      <g id="Group_2891" data-name="Group 2891">
        <path id="Path_6366" data-name="Path 6366" d="M113.5,1299.307l1661.587,959.252,1675.259-962.1L1788.763,337.206Z" transform="translate(-113.504 -337.206)" fill="#aaa"/>
        <path id="Path_6367" data-name="Path 6367" d="M1414.975,2050.66v50.29l1675.259-962.1v-50.292Z" transform="translate(246.612 -129.307)" fill="#8d8d8d"/>
        <path id="Path_6368" data-name="Path 6368" d="M113.5,1090.791v50.29l1661.587,959.251v-50.29Z" transform="translate(-113.504 -128.69)" fill="#686868"/>
      </g>
      <g id="Group_2893" data-name="Group 2893" transform="translate(0 702.376)">
        <g id="Group_2892" data-name="Group 2892">
          <path id="Path_6369" data-name="Path 6369" d="M2077.265,1846.608,415.677,887.356l-33.642,19.333,1660.746,959.734Z" transform="translate(-39.202 -887.356)" fill="#ec691f"/>
          <path id="Path_6370" data-name="Path 6370" d="M1775.091,2058.748l341.993-196.514L456.338,902.5,113.5,1099.5Z" transform="translate(-113.504 -883.166)" fill="#e8ecf8"/>
        </g>
        <path id="Path_6371" data-name="Path 6371" d="M113.5,1056.8v43.4l1661.587,959.252v-43.395Z" transform="translate(-113.504 -840.471)" fill="#c5cde2"/>
        <path id="Path_6372" data-name="Path 6372" d="M1791.451,1638.709l-376.476,216.33v43.395l376.476-217.359Z" transform="translate(246.612 -679.457)" fill="#afbad3"/>
      </g>
    </g>
    <g id="Group_2895" data-name="Group 2895" transform="translate(-13665.222 4706)">
      <path id="Path_6373" data-name="Path 6373" d="M2309.5,1226.525,1884.208,980.984l-70.749,40.846,425.294,245.543Z" transform="translate(-1105.401 -775.097)" fill="#fff"/>
      <path id="Path_6374" data-name="Path 6374" d="M2217.066,1279.893,1791.775,1034.35l-70.749,40.846,425.294,245.543Z" transform="translate(-1130.978 -760.33)" fill="#fff"/>
      <path id="Path_6375" data-name="Path 6375" d="M2124.634,1333.259l-425.294-245.543-70.747,40.848L2053.885,1374.1Z" transform="translate(-1156.553 -745.564)" fill="#fff"/>
      <path id="Path_6376" data-name="Path 6376" d="M2032.2,1386.625l-425.291-245.541-70.747,40.846,425.292,245.541Z" transform="translate(-1182.13 -730.797)" fill="#fff"/>
      <path id="Path_6377" data-name="Path 6377" d="M1939.765,1439.99l-425.289-245.541-70.749,40.846,425.291,245.543Z" transform="translate(-1207.706 -716.031)" fill="#fff"/>
      <path id="Path_6378" data-name="Path 6378" d="M2585.471,1065.262,2160.178,819.719l-70.747,40.849,425.291,245.541Z" transform="translate(-1029.04 -819.719)" fill="#fff"/>
      <path id="Path_6379" data-name="Path 6379" d="M2493.037,1118.627,2067.745,873.086,1997,913.932l425.289,245.541Z" transform="translate(-1054.616 -804.952)" fill="#fff"/>
      <path id="Path_6380" data-name="Path 6380" d="M2400.6,1172,1975.312,926.453,1904.565,967.3l425.291,245.543Z" transform="translate(-1080.192 -790.185)" fill="#fff"/>
      <path id="Path_6381" data-name="Path 6381" d="M1847.333,1493.356l-425.291-245.539-70.749,40.844L1776.584,1534.2Z" transform="translate(-1233.283 -701.264)" fill="#fff"/>
      <path id="Path_6382" data-name="Path 6382" d="M1754.9,1546.724l-425.291-245.541-70.749,40.846,425.294,245.543Z" transform="translate(-1258.859 -686.497)" fill="#fff"/>
    </g>
    <g id="Group_2931" data-name="Group 2931" transform="translate(-14317.326 4117.401)">
      <path id="Path_5514" data-name="Path 5514" d="M1161.307,1029.725V1008.4h0c0-3.944,2.585-7.907,7.8-10.892l255.846-147.719c10.432-6.02,27.359-6.011,37.814.025l551.254,318.29c5.195,2.972,7.776,6.895,7.8,10.8h.048V1179s-.022,0,0,.014v21.808h0c0,3.943-2.608,7.905-7.848,10.9L1758.2,1359.44c-10.432,6.015-27.359,6.015-37.788,0L1169.13,1041.164c-5.452-3.144-7.988-7.326-7.755-11.44Z" transform="translate(-890.289 -172.577)" fill="#315271"/>
      <g id="Group_2699" data-name="Group 2699" transform="translate(164.713 755.107)">
        <path id="Path_5515" data-name="Path 5515" d="M1196.418,1086.173l-.076-.095a31.415,31.415,0,0,1-13.037,4.1c-30.223,2.68-68.916-31.624-86.407-76.606-14.608-37.693-9.651-70.857,10.167-82.215l-.07-.073L1148.5,907.3l.046.108a31.216,31.216,0,0,1,13.02-4.094c30.275-2.677,68.966,31.618,86.436,76.612,14.623,37.682,9.672,70.848-10.126,82.169l.068.091Z" transform="translate(-1085.844 -903.173)" fill="#315271"/>
        <path id="Path_5516" data-name="Path 5516" d="M1148.513,907.4l-.046-.108-41.509,23.977.07.072a31.49,31.49,0,0,0-10.052,9.235c-6.183,8.795-8.8,20.778-8.391,34.231L1195.5,913.107C1178.174,902.439,1161.034,900.126,1148.513,907.4Z" transform="translate(-1085.807 -903.165)" opacity="0.3" style="mix-blend-mode: overlay;isolation: isolate"/>
        <path id="Path_5517" data-name="Path 5517" d="M1096.9,1006.441c-17.429-44.968-7.065-83.6,23.183-86.283,30.276-2.689,68.939,31.6,86.412,76.6,17.471,44.972,7.088,83.611-23.187,86.288C1153.088,1085.726,1114.4,1051.423,1096.9,1006.441Z" transform="translate(-1085.85 -896.044)" fill="#315271"/>
        <path id="Path_5518" data-name="Path 5518" d="M1096.9,1006.441c-17.429-44.968-7.065-83.6,23.183-86.283,30.276-2.689,68.939,31.6,86.412,76.6,17.471,44.972,7.088,83.611-23.187,86.288C1153.088,1085.726,1114.4,1051.423,1096.9,1006.441Z" transform="translate(-1085.85 -896.044)" fill="#fff" opacity="0.3" style="mix-blend-mode: overlay;isolation: isolate"/>
        <path id="Path_5519" data-name="Path 5519" d="M1094.661,1007.324c-16.547-42.613-6.732-79.2,21.906-81.742,28.688-2.541,65.315,29.947,81.9,72.55,16.529,42.606,6.717,79.183-21.949,81.755C1147.858,1082.433,1111.208,1049.923,1094.661,1007.324Z" transform="translate(-1086.621 -893.744)" fill="#315271"/>
        <path id="Path_5520" data-name="Path 5520" d="M1119.331,937.851c22.169-1.975,50.526,23.153,63.322,56.116s5.194,61.235-16.949,63.217c-22.212,1.956-50.542-23.15-63.32-56.1C1089.581,968.107,1097.143,939.825,1119.331,937.851Z" transform="translate(-1082.585 -888.537)" fill="#ededef" opacity="0.3"/>
        <path id="Path_5521" data-name="Path 5521" d="M1126.214,947.554c15.77-1.385,35.9,16.474,45.02,39.916,9.08,23.393,3.674,43.5-12.064,44.909s-35.938-16.467-45.022-39.876C1105.094,969.056,1110.447,948.954,1126.214,947.554Z" transform="translate(-1076.83 -884.415)" fill="#ededef" opacity="0.3"/>
        <path id="Path_5522" data-name="Path 5522" d="M1174.022,1048.76c.235-.158.469-.251.758-.427.236-.145.472-.262.712-.407.211-.151.495-.256.757-.46a6.419,6.419,0,0,0,.731-.392c.217-.138.5-.282.714-.427.235-.164.571-.3.784-.446,12.993-8.018,16.12-30.3,6.3-55.666-11.928-30.611-38.263-53.957-58.841-52.143a21.345,21.345,0,0,0-10.216,3.569,2.962,2.962,0,0,0-.712.427c-.239.131-.525.236-.784.4-.213.158-.5.284-.712.452-.233.141-.521.249-.755.39a7.162,7.162,0,0,1-.738.437c-.236.157-.518.287-.73.44-.261.151-.527.271-.761.42-12.969,8.029-16.124,30.364-6.306,55.656,11.9,30.587,38.24,53.986,58.839,52.133a21.432,21.432,0,0,0,10.2-3.53A6.139,6.139,0,0,0,1174.022,1048.76Zm4.972-21.92c-6.395-4.492-18.464-17.007-18.464-25.437a5.918,5.918,0,0,1,.688-2.867c6.237-.7,14.816,2.572,15.74,5.147,3.507,10.06,2.939,15.753,2.939,15.753A22.381,22.381,0,0,1,1178.994,1026.84Zm-69.055-62.585c6.429,4.468,18.491,17.032,18.491,25.45a5.943,5.943,0,0,1-.663,2.857c-6.236.673-14.792-2.575-15.715-5.193-3.556-10.012-2.967-15.681-2.967-15.681A22.67,22.67,0,0,1,1109.939,964.255Zm58.487,24.37c-4.55,1.4-10.314,1-14.418-4.091-5.38-6.633-4.882-17.55-3.009-23.92a45.684,45.684,0,0,1,9.72,9.387s4.812,5.2,9.009,15.164C1170.181,986.129,1169.583,987.37,1168.426,988.625Zm-28.566-1.092a10.2,10.2,0,0,1,3.863,2.339c-.026.042-.071.142-.121.142a1.619,1.619,0,0,0-.734.452,1.434,1.434,0,0,0-.734.4,2.222,2.222,0,0,0-.736.422,1.853,1.853,0,0,0-.734.414,1.747,1.747,0,0,0-.715.358A10.152,10.152,0,0,1,1139.86,987.534Zm9.312,16.087a10.9,10.9,0,0,1-3.913-2.332c.05-.085.1-.108.148-.181a1.69,1.69,0,0,0,.712-.394,2.048,2.048,0,0,0,.757-.458,1.809,1.809,0,0,0,.734-.407,2.008,2.008,0,0,0,.735-.42,2.492,2.492,0,0,0,.712-.334A11.357,11.357,0,0,1,1149.171,1003.621Zm-28.657-1.171c4.6-1.4,10.359-1.033,14.46,4.1,5.357,6.626,4.858,17.53,2.989,23.908a44.783,44.783,0,0,1-9.678-9.363s-4.814-5.19-9.031-15.169C1118.808,1004.953,1119.373,1003.683,1120.514,1002.449Zm-1.282-53.285c.357-.423.737-.72,1.02-1.076a9.121,9.121,0,0,1,2.083-.222s4.248-1.168,11.977,2.854c2.511,1.292,6.545,18.088,4.264,25.79C1130.064,973.25,1117.667,951.075,1119.232,949.165Zm50.519,92.779c-.355.4-.712.7-1.041,1.056a9.271,9.271,0,0,1-2.062.21s-4.242,1.214-12-2.841c-2.491-1.305-6.5-18.051-4.269-25.818C1158.9,1017.844,1171.318,1040,1169.751,1041.944Z" transform="translate(-1081.605 -888.303)" fill="#ededef"/>
        <path id="Path_5523" data-name="Path 5523" d="M1174.022,1048.76c.235-.158.469-.251.758-.427.236-.145.472-.262.712-.407.211-.151.495-.256.757-.46a6.419,6.419,0,0,0,.731-.392c.217-.138.5-.282.714-.427.235-.164.571-.3.784-.446,12.993-8.018,16.12-30.3,6.3-55.666-11.928-30.611-38.263-53.957-58.841-52.143a21.345,21.345,0,0,0-10.216,3.569,2.962,2.962,0,0,0-.712.427c-.239.131-.525.236-.784.4-.213.158-.5.284-.712.452-.233.141-.521.249-.755.39a7.162,7.162,0,0,1-.738.437c-.236.157-.518.287-.73.44-.261.151-.527.271-.761.42-12.969,8.029-16.124,30.364-6.306,55.656,11.9,30.587,38.24,53.986,58.839,52.133a21.432,21.432,0,0,0,10.2-3.53A6.139,6.139,0,0,0,1174.022,1048.76Zm4.972-21.92c-6.395-4.492-18.464-17.007-18.464-25.437a5.918,5.918,0,0,1,.688-2.867c6.237-.7,14.816,2.572,15.74,5.147,3.507,10.06,2.939,15.753,2.939,15.753A22.381,22.381,0,0,1,1178.994,1026.84Zm-69.055-62.585c6.429,4.468,18.491,17.032,18.491,25.45a5.943,5.943,0,0,1-.663,2.857c-6.236.673-14.792-2.575-15.715-5.193-3.556-10.012-2.967-15.681-2.967-15.681A22.67,22.67,0,0,1,1109.939,964.255Zm58.487,24.37c-4.55,1.4-10.314,1-14.418-4.091-5.38-6.633-4.882-17.55-3.009-23.92a45.684,45.684,0,0,1,9.72,9.387s4.812,5.2,9.009,15.164C1170.181,986.129,1169.583,987.37,1168.426,988.625Zm-28.566-1.092a10.2,10.2,0,0,1,3.863,2.339c-.026.042-.071.142-.121.142a1.619,1.619,0,0,0-.734.452,1.434,1.434,0,0,0-.734.4,2.222,2.222,0,0,0-.736.422,1.853,1.853,0,0,0-.734.414,1.747,1.747,0,0,0-.715.358A10.152,10.152,0,0,1,1139.86,987.534Zm9.312,16.087a10.9,10.9,0,0,1-3.913-2.332c.05-.085.1-.108.148-.181a1.69,1.69,0,0,0,.712-.394,2.048,2.048,0,0,0,.757-.458,1.809,1.809,0,0,0,.734-.407,2.008,2.008,0,0,0,.735-.42,2.492,2.492,0,0,0,.712-.334A11.357,11.357,0,0,1,1149.171,1003.621Zm-28.657-1.171c4.6-1.4,10.359-1.033,14.46,4.1,5.357,6.626,4.858,17.53,2.989,23.908a44.783,44.783,0,0,1-9.678-9.363s-4.814-5.19-9.031-15.169C1118.808,1004.953,1119.373,1003.683,1120.514,1002.449Zm-1.282-53.285c.357-.423.737-.72,1.02-1.076a9.121,9.121,0,0,1,2.083-.222s4.248-1.168,11.977,2.854c2.511,1.292,6.545,18.088,4.264,25.79C1130.064,973.25,1117.667,951.075,1119.232,949.165Zm50.519,92.779c-.355.4-.712.7-1.041,1.056a9.271,9.271,0,0,1-2.062.21s-4.242,1.214-12-2.841c-2.491-1.305-6.5-18.051-4.269-25.818C1158.9,1017.844,1171.318,1040,1169.751,1041.944Z" transform="translate(-1081.605 -888.303)" style="mix-blend-mode: overlay;isolation: isolate"/>
        <path id="Path_5524" data-name="Path 5524" d="M1104.234,999.558c11.9,30.587,38.24,53.986,58.839,52.133,20.623-1.8,27.645-28.088,15.792-58.72-11.9-30.612-38.267-53.979-58.841-52.156C1099.4,942.642,1092.332,968.945,1104.234,999.558Zm24.2-10.877c-.023,11.084-20.887,5.228-22.33,1.089-3.533-10.052-2.965-15.707-2.965-15.707a22.579,22.579,0,0,1,2.988-12.3C1107.55,959.343,1128.414,977.585,1128.437,988.68ZM1135,979.4c-8.345.719-23.446-25.752-21.693-27.834,4.221-5.1,9.031-4.727,9.031-4.727s4.248-1.169,11.977,2.854C1137.567,951.362,1143.327,978.651,1135,979.4Zm2.632,6.751c3.742-.321,8.558,3.927,10.667,9.52,2.205,5.584.875,10.334-2.841,10.668-3.746.368-8.562-3.923-10.716-9.46C1132.586,991.265,1133.865,986.475,1137.636,986.153Zm32.1-2.014c1.755,4.114-13.346,13.158-21.641,2.785-8.349-10.311-2.587-30.984.614-28.912a45.766,45.766,0,0,1,12.019,10.963S1165.539,974.173,1169.735,984.14Zm-15.123,19.663c0-11.141,20.887-5.258,22.353-1.145,3.507,10.061,2.939,15.753,2.939,15.753a22.555,22.555,0,0,1-2.958,12.252C1175.5,1033.13,1154.611,1014.878,1154.611,1003.8Zm-6.545,9.293c8.322-.754,23.423,25.677,21.691,27.823-4.242,5.065-9.031,4.73-9.031,4.73s-4.245,1.1-12.019-2.894C1145.529,1041.095,1139.768,1013.812,1148.067,1013.1Zm-25.725,10.409s-4.81-5.235-9.031-15.175c-1.778-4.134,13.371-13.11,21.671-2.809,8.3,10.372,2.533,30.954-.663,28.908A45.549,45.549,0,0,1,1122.342,1023.5Zm15.911-26.965c-1.04-2.69-.427-5,1.375-5.184,1.823-.164,4.168,1.923,5.188,4.613,1.07,2.689.427,5.039-1.346,5.2C1141.617,1001.3,1139.294,999.253,1138.252,996.54Z" transform="translate(-1081.612 -887.278)" fill="#ededef"/>
        <path id="Path_5525" data-name="Path 5525" d="M1198.471,998.132c-16.588-42.6-53.215-75.091-81.9-72.55-28.639,2.545-38.453,39.129-21.906,81.742s53.2,75.109,81.86,72.563C1205.188,1077.315,1215,1040.737,1198.471,998.132Zm-28.73,64.26c-22.212,1.956-50.541-23.15-63.319-56.1-12.8-32.972-5.243-61.254,16.947-63.228,22.168-1.975,50.526,23.153,63.322,56.115S1191.884,1060.41,1169.741,1062.391Z" transform="translate(-1086.622 -893.744)" fill="#315271"/>
      </g>
      <path id="Path_5526" data-name="Path 5526" d="M1681.8,1024.591,970.9,614.167l418.262-241.494,710.921,410.438Z" transform="translate(-970.903 -372.673)" fill="#ffdfcc"/>
      <path id="Path_5528" data-name="Path 5528" d="M1888.629,661.026V1104.57l-418.285,241.461V902.507Z" transform="translate(-759.45 -250.588)" fill="#fed4bd"/>
      <path id="Path_5530" data-name="Path 5530" d="M970.9,542.334V985.878l710.9,410.4V952.759Z" transform="translate(-970.903 -300.838)" fill="#ffe9dc"/>
      <g id="Group_2703" data-name="Group 2703" transform="translate(764.449 625.788)">
        <g id="Group_2701" data-name="Group 2701" transform="translate(19.798 487.016)">
          <path id="Path_5531" data-name="Path 5531" d="M1631.671,1337.477l-.05-.118a31.152,31.152,0,0,1-13.063,4.114c-30.225,2.676-68.919-31.623-86.409-76.6-14.605-37.713-9.629-70.845,10.169-82.215l-.046-.065,41.507-24,.05.111a31.306,31.306,0,0,1,13.01-4.081c30.276-2.689,68.969,31.591,86.417,76.587,14.651,37.7,9.694,70.87-10.146,82.167l.1.093Z" transform="translate(-1521.102 -1154.475)" fill="#315271"/>
          <path id="Path_5532" data-name="Path 5532" d="M1532.151,1257.746c-17.4-44.948-7.044-83.593,23.185-86.289,30.272-2.709,68.939,31.6,86.411,76.593,17.5,45,7.112,83.618-23.187,86.3C1588.335,1337.022,1549.641,1302.723,1532.151,1257.746Z" transform="translate(-1521.104 -1147.348)" fill="#315271"/>
          <path id="Path_5533" data-name="Path 5533" d="M1532.151,1257.746c-17.4-44.948-7.044-83.593,23.185-86.289,30.272-2.709,68.939,31.6,86.411,76.593,17.5,45,7.112,83.618-23.187,86.3C1588.335,1337.022,1549.641,1302.723,1532.151,1257.746Z" transform="translate(-1521.104 -1147.348)" fill="#fff" opacity="0.3" style="mix-blend-mode: overlay;isolation: isolate"/>
          <path id="Path_5534" data-name="Path 5534" d="M1529.914,1258.613c-16.55-42.607-6.709-79.19,21.926-81.729,28.688-2.54,65.292,29.951,81.91,72.55,16.547,42.613,6.708,79.2-21.975,81.729C1583.136,1333.723,1546.487,1301.2,1529.914,1258.613Z" transform="translate(-1521.879 -1145.046)" fill="#315271"/>
          <path id="Path_5535" data-name="Path 5535" d="M1554.609,1189.149c22.139-1.967,50.519,23.174,63.3,56.083,12.823,32.969,5.213,61.292-16.954,63.254-22.186,1.948-50.516-23.16-63.324-56.116C1524.852,1219.4,1532.418,1191.111,1554.609,1189.149Z" transform="translate(-1517.839 -1139.84)" fill="#ededef" opacity="0.3"/>
          <path id="Path_5536" data-name="Path 5536" d="M1561.462,1198.848c15.788-1.4,35.913,16.474,45.043,39.909,9.082,23.43,3.675,43.493-12.069,44.936-15.766,1.4-35.938-16.448-45.018-39.9C1540.362,1220.361,1545.719,1200.239,1561.462,1198.848Z" transform="translate(-1512.083 -1135.721)" fill="#ededef" opacity="0.3"/>
          <path id="Path_5537" data-name="Path 5537" d="M1609.288,1300.073c.22-.158.478-.256.734-.427s.5-.282.736-.447a8.325,8.325,0,0,0,.735-.438,7.983,7.983,0,0,0,.757-.395c.216-.164.5-.262.712-.427.241-.164.552-.295.761-.446,12.994-8.018,16.1-30.325,6.309-55.643-11.906-30.627-38.241-54-58.842-52.16a21.443,21.443,0,0,0-10.218,3.563,4.393,4.393,0,0,0-.708.44c-.217.124-.525.249-.762.387-.24.171-.5.276-.757.453-.217.151-.5.249-.732.427a6.752,6.752,0,0,1-.719.4c-.236.157-.518.275-.751.452-.24.151-.524.262-.738.427-12.944,8.011-16.146,30.344-6.331,55.642,11.925,30.582,38.264,53.964,58.841,52.128a21.05,21.05,0,0,0,10.241-3.531C1608.792,1300.36,1609.009,1300.243,1609.288,1300.073Zm4.983-21.934c-6.427-4.468-18.47-17.012-18.47-25.43a6.41,6.41,0,0,1,.686-2.892c6.218-.683,14.795,2.585,15.72,5.17,3.532,10.065,2.94,15.74,2.94,15.74A22.971,22.971,0,0,1,1614.271,1278.139Zm-69.06-62.578c6.426,4.448,18.491,17.025,18.491,25.438a5.585,5.585,0,0,1-.662,2.846c-6.26.669-14.819-2.565-15.747-5.144-3.552-10.063-2.958-15.72-2.958-15.72A22.9,22.9,0,0,1,1545.211,1215.561Zm58.464,24.36c-4.556,1.4-10.321,1.01-14.418-4.093-5.38-6.633-4.835-17.544-2.982-23.921a45.391,45.391,0,0,1,9.671,9.388s4.835,5.188,9.029,15.149C1605.423,1237.416,1604.859,1238.7,1603.675,1239.921Zm-28.566-1.082a9.84,9.84,0,0,1,3.864,2.316c-.026.06-.053.151-.1.163a1.632,1.632,0,0,0-.712.44,1.181,1.181,0,0,0-.757.44,1.571,1.571,0,0,0-.757.412,2.642,2.642,0,0,0-.759.387c-.239.132-.5.158-.666.349A10.076,10.076,0,0,1,1575.109,1238.839Zm9.337,16.074a10.294,10.294,0,0,1-3.915-2.341c.027-.073.073-.086.145-.171a1.943,1.943,0,0,0,.712-.389,2.36,2.36,0,0,0,.737-.438,1.817,1.817,0,0,0,.732-.453,1.689,1.689,0,0,0,.739-.394,2.011,2.011,0,0,0,.712-.341A11.4,11.4,0,0,1,1584.446,1254.914Zm-28.662-1.162c4.6-1.384,10.337-1.016,14.463,4.094,5.335,6.633,4.836,17.537,2.982,23.9a43.879,43.879,0,0,1-9.671-9.375s-4.835-5.176-9.053-15.18C1554.054,1256.239,1554.618,1254.986,1555.784,1253.752Zm-1.28-53.294c.331-.4.711-.729,1-1.089a9.431,9.431,0,0,1,2.109-.19s4.237-1.162,11.947,2.835c2.534,1.305,6.542,18.068,4.287,25.823C1565.314,1224.543,1552.913,1202.381,1554.5,1200.458Zm50.518,92.764c-.357.408-.708.717-1.046,1.077a10.985,10.985,0,0,1-2.057.21s-4.269,1.182-12.021-2.872c-2.489-1.273-6.475-17.99-4.268-25.8C1594.138,1269.137,1606.614,1291.307,1605.023,1293.222Z" transform="translate(-1516.86 -1139.608)" fill="#ededef"/>
          <path id="Path_5538" data-name="Path 5538" d="M1609.288,1300.073c.22-.158.478-.256.734-.427s.5-.282.736-.447a8.325,8.325,0,0,0,.735-.438,7.983,7.983,0,0,0,.757-.395c.216-.164.5-.262.712-.427.241-.164.552-.295.761-.446,12.994-8.018,16.1-30.325,6.309-55.643-11.906-30.627-38.241-54-58.842-52.16a21.443,21.443,0,0,0-10.218,3.563,4.393,4.393,0,0,0-.708.44c-.217.124-.525.249-.762.387-.24.171-.5.276-.757.453-.217.151-.5.249-.732.427a6.752,6.752,0,0,1-.719.4c-.236.157-.518.275-.751.452-.24.151-.524.262-.738.427-12.944,8.011-16.146,30.344-6.331,55.642,11.925,30.582,38.264,53.964,58.841,52.128a21.05,21.05,0,0,0,10.241-3.531C1608.792,1300.36,1609.009,1300.243,1609.288,1300.073Zm4.983-21.934c-6.427-4.468-18.47-17.012-18.47-25.43a6.41,6.41,0,0,1,.686-2.892c6.218-.683,14.795,2.585,15.72,5.17,3.532,10.065,2.94,15.74,2.94,15.74A22.971,22.971,0,0,1,1614.271,1278.139Zm-69.06-62.578c6.426,4.448,18.491,17.025,18.491,25.438a5.585,5.585,0,0,1-.662,2.846c-6.26.669-14.819-2.565-15.747-5.144-3.552-10.063-2.958-15.72-2.958-15.72A22.9,22.9,0,0,1,1545.211,1215.561Zm58.464,24.36c-4.556,1.4-10.321,1.01-14.418-4.093-5.38-6.633-4.835-17.544-2.982-23.921a45.391,45.391,0,0,1,9.671,9.388s4.835,5.188,9.029,15.149C1605.423,1237.416,1604.859,1238.7,1603.675,1239.921Zm-28.566-1.082a9.84,9.84,0,0,1,3.864,2.316c-.026.06-.053.151-.1.163a1.632,1.632,0,0,0-.712.44,1.181,1.181,0,0,0-.757.44,1.571,1.571,0,0,0-.757.412,2.642,2.642,0,0,0-.759.387c-.239.132-.5.158-.666.349A10.076,10.076,0,0,1,1575.109,1238.839Zm9.337,16.074a10.294,10.294,0,0,1-3.915-2.341c.027-.073.073-.086.145-.171a1.943,1.943,0,0,0,.712-.389,2.36,2.36,0,0,0,.737-.438,1.817,1.817,0,0,0,.732-.453,1.689,1.689,0,0,0,.739-.394,2.011,2.011,0,0,0,.712-.341A11.4,11.4,0,0,1,1584.446,1254.914Zm-28.662-1.162c4.6-1.384,10.337-1.016,14.463,4.094,5.335,6.633,4.836,17.537,2.982,23.9a43.879,43.879,0,0,1-9.671-9.375s-4.835-5.176-9.053-15.18C1554.054,1256.239,1554.618,1254.986,1555.784,1253.752Zm-1.28-53.294c.331-.4.711-.729,1-1.089a9.431,9.431,0,0,1,2.109-.19s4.237-1.162,11.947,2.835c2.534,1.305,6.542,18.068,4.287,25.823C1565.314,1224.543,1552.913,1202.381,1554.5,1200.458Zm50.518,92.764c-.357.408-.708.717-1.046,1.077a10.985,10.985,0,0,1-2.057.21s-4.269,1.182-12.021-2.872c-2.489-1.273-6.475-17.99-4.268-25.8C1594.138,1269.137,1606.614,1291.307,1605.023,1293.222Z" transform="translate(-1516.86 -1139.608)" style="mix-blend-mode: overlay;isolation: isolate"/>
          <path id="Path_5539" data-name="Path 5539" d="M1539.48,1250.858c11.926,30.581,38.264,53.963,58.842,52.127,20.625-1.8,27.641-28.081,15.79-58.721-11.9-30.619-38.238-53.976-58.843-52.158S1527.6,1220.253,1539.48,1250.858Zm24.229-10.883c-.022,11.087-20.882,5.221-22.355,1.1-3.51-10.065-2.917-15.68-2.917-15.68a22.593,22.593,0,0,1,2.939-12.328C1542.826,1210.627,1563.686,1228.892,1563.708,1239.975Zm6.571-9.3c-8.371.749-23.452-25.718-21.72-27.83,4.249-5.093,9.059-4.686,9.059-4.686s4.237-1.161,11.946,2.836C1572.809,1202.637,1578.573,1229.948,1570.279,1230.67Zm2.6,6.8c3.77-.342,8.559,3.9,10.691,9.508,2.182,5.556.876,10.34-2.847,10.667-3.77.341-8.532-3.91-10.714-9.474C1567.832,1242.573,1569.111,1237.77,1572.884,1237.474Zm32.1-2.053c1.781,4.1-13.323,13.161-21.646,2.8-8.343-10.328-2.559-30.961.641-28.908a45.367,45.367,0,0,1,11.976,10.958S1600.788,1225.461,1604.981,1235.422Zm-15.123,19.67c0-11.115,20.887-5.255,22.356-1.128,3.532,10.064,2.938,15.739,2.938,15.739a22.462,22.462,0,0,1-2.938,12.281C1610.765,1284.4,1589.858,1266.172,1589.858,1255.091Zm-6.522,9.323c8.323-.782,23.377,25.652,21.694,27.784-4.242,5.064-9.077,4.744-9.077,4.744s-4.222,1.121-11.976-2.868C1580.777,1292.389,1575.039,1265.116,1583.335,1264.415Zm-25.744,10.4s-4.782-5.268-9.031-15.182c-1.75-4.107,13.372-13.135,21.694-2.809,8.289,10.346,2.531,30.949-.689,28.907A45.912,45.912,0,0,1,1557.591,1274.812Zm15.911-26.965c-1.043-2.7-.407-5.026,1.4-5.184s4.148,1.923,5.168,4.586c1.092,2.717.453,5.053-1.353,5.216C1576.886,1252.585,1574.563,1250.551,1573.5,1247.847Z" transform="translate(-1516.866 -1138.584)" fill="#ededef"/>
          <path id="Path_5540" data-name="Path 5540" d="M1633.75,1249.434c-16.618-42.6-53.222-75.09-81.91-72.55-28.634,2.54-38.475,39.122-21.926,81.729,16.573,42.586,53.222,75.109,81.86,72.55C1640.458,1328.631,1650.3,1292.047,1633.75,1249.434Zm-28.759,64.257c-22.187,1.949-50.516-23.159-63.324-56.116-12.776-32.974-5.208-61.259,16.981-63.221,22.14-1.967,50.519,23.174,63.3,56.083C1634.767,1283.406,1627.157,1311.73,1604.991,1313.691Z" transform="translate(-1521.879 -1145.046)" fill="#315271"/>
        </g>
        <path id="Path_5541" data-name="Path 5541" d="M2059.275,920.784c-12.99-22.485-48.649-50.664-105.945-83.758-8.988-5.19-16.832-9.532-23.756-13.226-38.571-21.893-69.8-7.007-82.783.059v-.013L1565.246,986.419c-20.172,11.815-51.632,33.67-56.589,84.963-.617,25.187-.829,61.883-.594,115.781.146,32.68.335,59.015.616,80.45l92.244,53.267c17.686,10.223,33.881,26.874,46.491,46.256l114.951,66.382,359.259-207.436c.922-23.023,1.394-50.382,1.394-79.592C2123.044,1060.157,2079.261,955.346,2059.275,920.784Z" transform="translate(-1507.97 -812.322)" fill="#ededef"/>
        <path id="Path_5542" data-name="Path 5542" d="M2071.8,1188.733v-54.442s.027,0,.027-.022l-.027-.438h-.019c-.191-10.728-8.963-19.88-25.011-29.163l-11.639-6.706-366.654,211.689v55.177l11.642,6.7c52.13,30.095,102.2,15.956,248.26-68.345,101.393-58.569,144.16-90.363,143.4-114.448Z" transform="translate(-1440.013 -691.386)" fill="#315271"/>
        <path id="Path_5543" data-name="Path 5543" d="M2035.13,1097.962l11.639,6.706c52.129,30.107,27.619,59.009-118.391,143.323-146.057,84.314-196.107,98.493-248.26,68.358l-11.642-6.7Z" transform="translate(-1440.013 -691.386)" fill="#fff" opacity="0.3" style="mix-blend-mode: overlay;isolation: isolate"/>
        <path id="Path_5544" data-name="Path 5544" d="M2061.438,1056.469c-.164-10.669-8.814-19.782-24.816-28.993l-363.213,209.713v96.052c51.655,29.853,101.3,15.805,245.956-67.694,99.428-57.409,142.008-88.908,142.073-112.672h0l.027-96.416Z" transform="translate(-1437.926 -721.228)" fill="#ededef"/>
        <path id="Path_5545" data-name="Path 5545" d="M1919.364,1169.48c-144.658,83.514-194.3,97.529-245.956,67.709l363.213-209.713C2088.3,1057.294,2064,1085.973,1919.364,1169.48Z" transform="translate(-1437.926 -721.228)" fill="#fff" opacity="0.8" style="mix-blend-mode: overlay;isolation: isolate"/>
        <path id="Path_5546" data-name="Path 5546" d="M1700.02,1068.226c-12.991-22.475-48.62-50.661-105.949-83.743-34.019-19.654-52.321-27.655-62.657-30.522-11.1,13.364-20.267,31.7-22.757,57.453-.617,25.187-.829,61.883-.594,115.781.146,32.679.335,59.015.616,80.449l92.244,53.268c17.685,10.222,33.881,26.873,46.49,46.256l114.951,66.382c.912-23.029,1.379-50.414,1.4-79.6C1763.792,1207.618,1719.981,1102.811,1700.02,1068.226Z" transform="translate(-1507.969 -752.354)" fill="#ededef"/>
        <g id="Group_2702" data-name="Group 2702" transform="translate(18.761 224.343)">
          <path id="Path_5547" data-name="Path 5547" d="M1668.191,1380.212c0-46.406-32.591-102.856-72.848-126.062l-73.321-42.343c-1.522-95.193-1.378-239.075,3.1-241.626,8.652-4.993,137.593,66.947,156.041,98.911,19.27,33.327,58.273,130.464,58.273,207.274s-3.442,145.986-9.676,142.383c-2.772-1.587-30.18-17.4-61.7-35.606C1668.077,1382.16,1668.191,1381.222,1668.191,1380.212Z" transform="translate(-1521.15 -969.934)" fill="#dde8eb"/>
          <path id="Path_5548" data-name="Path 5548" d="M1533.464,1039.813V979.359c9.693,3.936,26.834,12.281,49.827,25.571,49.361,28.5,81.008,53.54,86.816,63.564,18.512,32.045,52.3,117.7,55.545,188.305-44.5-35.206-128.492-120.32-156.32-147.674C1530.83,1071.32,1533.464,1051.8,1533.464,1039.813Z" transform="translate(-1515.95 -965.944)" fill="#243c3f"/>
          <path id="Path_5549" data-name="Path 5549" d="M1527.954,1105.351c0,5.142,3.628,11.415,8.087,13.995l19.7,11.382c4.482,2.585,8.109.505,8.109-4.659h0c0-5.164-3.628-11.435-8.109-14l-19.7-11.377c-4.458-2.611-8.087-.5-8.087,4.659Z" transform="translate(-1518.268 -915.048)" fill="#315271"/>
        </g>
        <path id="Path_5550" data-name="Path 5550" d="M1668.191,1380.212c0-46.406-32.591-102.856-72.848-126.062l-73.321-42.343c-1.522-95.193-1.378-239.075,3.1-241.626,8.652-4.993,137.593,66.947,156.041,98.911,19.27,33.327,58.273,130.464,58.273,207.274s-3.442,145.986-9.676,142.383c-2.772-1.587-30.18-17.4-61.7-35.606C1668.077,1382.16,1668.191,1381.222,1668.191,1380.212Z" transform="translate(-1502.389 -745.591)" fill="#ededef"/>
        <path id="Path_5551" data-name="Path 5551" d="M1525.484,1048.367V974.606c2.948,1.194,6.784,3.615,11.307,6.765,10.294,7.148,24.3,18.114,40.281,27.345,49.335,28.485,79.275,58.31,85.086,68.34,18.488,32.049,69.575,126.329,66.875,196.847-44.5-35.219-139.846-128.869-167.673-156.215C1522.879,1079.872,1525.484,1060.351,1525.484,1048.367Z" transform="translate(-1500.569 -743.613)" fill="#fff" opacity="0.8" style="mix-blend-mode: overlay;isolation: isolate"/>
        <path id="Path_5552" data-name="Path 5552" d="M1533.464,1039.813V979.359c9.693,3.936,26.834,12.281,49.827,25.571,49.361,28.5,81.008,53.54,86.816,63.564,18.512,32.045,52.3,117.7,55.545,188.305-44.5-35.206-128.492-120.32-156.32-147.674C1530.83,1071.32,1533.464,1051.8,1533.464,1039.813Z" transform="translate(-1497.19 -741.601)" fill="#315271"/>
        <path id="Path_5553" data-name="Path 5553" d="M1537.8,986c8.132,3.628,22.333,10.576,43.311,22.734,48.17,27.784,79.869,52.651,85.2,61.967,16.783,28.973,48.623,108.394,54.333,176.39-38.191-31.781-98.144-91.34-131.378-124.375-6.757-6.684-12.495-12.4-16.859-16.69-34.965-34.339-34.754-52.2-34.611-64.041V986Zm-4.337-6.639v60.454c0,11.983-2.634,31.507,35.868,69.313,27.828,27.354,111.824,112.468,156.32,147.674-3.248-70.6-37.033-156.261-55.545-188.305-5.809-10.025-37.456-35.067-86.816-63.564-22.993-13.29-40.133-21.635-49.827-25.571Z" transform="translate(-1497.19 -741.601)" opacity="0.3" style="mix-blend-mode: overlay;isolation: isolate"/>
        <path id="Path_5554" data-name="Path 5554" d="M1527.954,1105.351c0,5.142,3.628,11.415,8.087,13.995l19.7,11.382c4.482,2.585,8.109.505,8.109-4.659h0c0-5.164-3.628-11.435-8.109-14l-19.7-11.377c-4.458-2.611-8.087-.5-8.087,4.659Z" transform="translate(-1499.507 -690.704)" fill="#315271"/>
        <path id="Path_5555" data-name="Path 5555" d="M2064.173,1090.323c-5.9-70.734-35.607-148.024-55.1-187.288-.236-.473-.544-1.021-.83-1.644-9.1-19.311-26.027-12.9-33.592-8.549-3.767,2.195-67.587,49.558-144.564,94.009-76.691,44.25-166.489,85.62-171.023,88.2l-.354.187c-7.847,4.54-19.582,11.676-11.354,30.3.9,1.78,1.825,3.578,2.75,5.494l.022.03c19.417,39.3,48.668,115.783,54.693,185.966l-.691.4c.26.112.525.184.761.283v.019h.046a83.934,83.934,0,0,0,31.339,5.926c37.509,0,87.457-21.16,190.913-80.89,57.752-33.33,111.969-66.666,130.766-90.157l.026-.023C2067.374,1122.753,2066.163,1114.835,2064.173,1090.323Z" transform="translate(-1450.14 -780.185)" fill="#315271"/>
        <path id="Path_5556" data-name="Path 5556" d="M1989.994,892.582c6.236,0,10.93,3.5,14.319,10.671.332.709.64,1.325.853,1.728,21.717,43.732,49.027,118.606,54.645,185.7l.283,3.753c1.854,21.966,2.014,27.493-5.121,34.983l-.118.118-.141.194-.164.161c-18.754,23.448-76.007,58.2-129.532,89.1-102.677,59.28-152.059,80.306-188.738,80.281a79.065,79.065,0,0,1-27.286-4.679c-6.183-67.268-33.376-141.788-54.974-185.47l-.286-.643h-.026c-.826-1.653-1.63-3.261-2.414-4.79-6.165-14.121.4-19.321,9.65-24.661l.282-.178c.736-.4,5.17-2.538,10.791-5.228,26.784-12.883,97.927-47,160.233-83.009,63.25-36.473,117.017-74.523,137.242-88.845,3.624-2.582,6.777-4.787,7.372-5.134,2.6-1.516,7.774-4.051,13.131-4.051Zm0-4.363c-6,.016-11.737,2.535-15.34,4.625-3.767,2.195-67.587,49.558-144.564,94.009-76.691,44.25-166.489,85.619-171.023,88.2l-.354.186c-7.847,4.541-19.582,11.676-11.354,30.3.9,1.781,1.825,3.579,2.75,5.495l.022.03c19.417,39.3,48.668,115.783,54.693,185.965l-.691.4c.26.113.525.184.761.283v.019h.046a83.934,83.934,0,0,0,31.339,5.926c37.509,0,87.457-21.16,190.913-80.889,57.752-33.33,111.969-66.666,130.766-90.157l.026-.023c9.389-9.835,8.177-17.754,6.188-42.266-5.9-70.734-35.607-148.023-55.1-187.287-.236-.473-.544-1.021-.83-1.644-4.74-10.1-11.659-13.158-18.252-13.173Z" transform="translate(-1450.14 -780.188)" opacity="0.3" style="mix-blend-mode: overlay;isolation: isolate"/>
      </g>
    </g>
    <g id="Group_2915" data-name="Group 2915" transform="translate(-13415.876 4934.786)">
      <g id="Group_2910" data-name="Group 2910" transform="translate(44.983 747.844)">
        <path id="Path_6459" data-name="Path 6459" d="M1611.064,1617.379l-65.028,37.262-56.638-32.695,65.028-37.263Z" transform="translate(-1489.398 -1584.683)" fill="#c5cde2"/>
        <path id="Path_6460" data-name="Path 6460" d="M1546.036,1646.565v15.34l-56.638-32.7V1613.87Z" transform="translate(-1489.398 -1576.608)" fill="#afbad3"/>
        <path id="Path_6461" data-name="Path 6461" d="M1598.789,1610.293l-65.028,37.262v15.34l65.028-37.262Z" transform="translate(-1477.123 -1577.597)" fill="#97a5c1"/>
      </g>
      <path id="Path_6462" data-name="Path 6462" d="M1539.828,1085.914a12.876,12.876,0,0,0-12.839,12.836V1755.5c0,3.773,5.75,6.829,12.839,6.829s12.839-3.056,12.839-6.829V1098.75A12.875,12.875,0,0,0,1539.828,1085.914Z" transform="translate(-1434.013 -974.849)" fill="#afbad3"/>
      <g id="Group_2914" data-name="Group 2914" transform="translate(0 0)">
        <g id="Group_2911" data-name="Group 2911">
          <path id="Path_6463" data-name="Path 6463" d="M1639.206,1021.949l.407-4.124-15.794-9.949h0a60.571,60.571,0,0,0-31.966-8.956c-13.76,0-28.081,4.232-42.554,12.583-53.342,30.812-95.136,110.037-95.136,180.367,0,39.07,13.79,69.28,36.377,83.459h0l16.782,10.023,2.865-2.676a62.489,62.489,0,0,0,12.424,1.435c13.763,0,28.064-4.232,42.54-12.583,53.343-30.8,95.138-110.021,95.138-180.361C1660.29,1062.044,1652.466,1038.194,1639.206,1021.949Z" transform="translate(-1454.164 -998.92)" fill="#d6560d"/>
          <path id="Path_6464" data-name="Path 6464" d="M1532.727,1290.4c-40.941,0-68.45-37.064-68.45-92.242,0-70.331,41.8-149.556,95.138-180.367,14.473-8.352,28.793-12.584,42.554-12.584,40.927,0,68.434,37.073,68.434,92.252,0,70.336-41.794,149.563-95.136,180.357C1560.792,1286.169,1546.49,1290.4,1532.727,1290.4Z" transform="translate(-1451.366 -997.18)" fill="#ec691f"/>
          <path id="Path_6465" data-name="Path 6465" d="M1651.115,1094.022c0,64.218-39.043,138.822-87.208,166.63s-87.213-1.709-87.213-65.927,39.047-138.824,87.213-166.635S1651.115,1029.8,1651.115,1094.022Z" transform="translate(-1447.929 -993.745)" fill="#fff"/>
        </g>
        <g id="Group_2912" data-name="Group 2912" transform="translate(83.736 58.802)">
          <path id="Path_6466" data-name="Path 6466" d="M1519.752,1078.17l41.3-23.855c26.383-15.241,47.77-14.808,47.77,24.05a94.109,94.109,0,0,1-47.021,81.476l-14.958,8.633v54.317l-27.088,15.656Zm40.372,53.864c14.937-8.633,22.143-21.634,22.143-38.347s-8.121-18.193-22.871-9.658l-12.556,7.239V1139.7Z" transform="translate(-1519.752 -1044.978)" fill="#491914"/>
        </g>
        <g id="Group_2913" data-name="Group 2913" transform="translate(42.286 83.277)">
          <rect id="Rectangle_97" data-name="Rectangle 97" width="20.149" height="176.729" transform="translate(0 14.758) rotate(-47.09)" fill="#ec691f"/>
        </g>
      </g>
    </g>
    <g id="Group_2920" data-name="Group 2920" transform="translate(-13619.195 4192.797)">
      <g id="Group_2916" data-name="Group 2916">
        <path id="Path_6467" data-name="Path 6467" d="M1482.232,538.8l22.128-12.774L1317.1,417.743l-22.185,12.743Z" transform="translate(-1294.911 -417.743)" fill="#fff"/>
      </g>
      <g id="Group_2917" data-name="Group 2917" transform="translate(243.894 140.943)">
        <path id="Path_6468" data-name="Path 6468" d="M1674.088,649.537l22.125-12.774-188.14-108.624-22.128,12.775Z" transform="translate(-1485.945 -528.139)" fill="#fff"/>
        <path id="Path_6469" data-name="Path 6469" d="M1865.8,760.226l22.127-12.775L1699.789,638.827,1677.664,651.6Z" transform="translate(-1432.897 -497.511)" fill="#fff"/>
        <path id="Path_6470" data-name="Path 6470" d="M2054.832,869.36l22.127-12.775-188.14-108.621-22.127,12.775Z" transform="translate(-1380.593 -467.313)" fill="#fff"/>
      </g>
      <g id="Group_2919" data-name="Group 2919" transform="translate(1431.233 826.673)">
        <g id="Group_2918" data-name="Group 2918">
          <path id="Path_6471" data-name="Path 6471" d="M2604.095,1186.647l22.125-12.775-188.14-108.621-22.128,12.775Z" transform="translate(-2415.952 -1065.251)" fill="#fff"/>
        </g>
      </g>
    </g>
    <g id="Group_2927" data-name="Group 2927" transform="translate(-14144.21 4874.677)">
      <path id="Path_6472" data-name="Path 6472" d="M1030.845,1066.144s9.994,23.763,13.271,35.938c3.9,14.508,5.111,17.4,5.111,17.4s29.745,5.833,38.688,5.319,28.578-3.272,33.456-7.465,3.548-14.572,13.28-20.111c11.382-6.479,12.167-9.694,16.44-7.175,7.942,4.686-4.968,14.568-8.851,19.92s36.627-18.946,43.361-12.87c9.427,8.51-8.943,26.617-22.765,31.687-8.025,2.947-30.083,4.449-38.213,11.072s-39.486,17.638-55.015,17.881c-24.934.388-33.688-2.906-41.222-8.743a23.352,23.352,0,0,1-7.021-9.139c-3.782-9.025-9.665-21.089-13.542-33.977C1002.163,1087.086,1030.845,1066.144,1030.845,1066.144Z" transform="translate(-849.537 -920.21)" fill="#ffc9b6"/>
      <path id="Path_6473" data-name="Path 6473" d="M1004.956,1139.64s11.1-5.625,15.88,3.286,12.908,26.351,9.976,34.1c-1.542,4.076-14.837,9.808-14.837,9.808Z" transform="translate(-850.126 -900.359)" fill="#722b24"/>
      <path id="Path_6474" data-name="Path 6474" d="M1025.811,1101.378c5.345-3.147,16.459-7.362,20.771-11.424-.8-7.307-9.827-29.548-24.528-53.763-15.564-25.644-29.708-13.349-29.708-13.349s6.2,49.689,13.067,87.058A73.541,73.541,0,0,0,1025.811,1101.378Z" transform="translate(-853.615 -933.007)" fill="#646cc8"/>
      <path id="Path_6475" data-name="Path 6475" d="M1014.1,1376.219a96.842,96.842,0,0,1-3.054,14.464c-2.212,7.391.506,17.7.506,17.7s1.6,4.542,8.45,5.887a26.578,26.578,0,0,0,11.538-.276,85.24,85.24,0,0,0,14.473,13.384c8.2,5.8,26.287,10.308,31.209,9.557,7.94-1.211,12.193-7.4,11.58-11.392s-9.962-15.046-17.632-19.83c-4.988-3.113-16.32-13.63-19.72-17.287a94.694,94.694,0,0,1-9.781-12.743Z" transform="translate(-848.68 -834.56)" fill="#491914"/>
      <path id="Path_6476" data-name="Path 6476" d="M1017.273,1129.184s22.989,58.644,26.55,82.378,15.435,61.569,19.722,91.47-3.183,44.46-2.455,73.717c.57,22.765,5.485,55.828,3.058,74.8-15.462,14.636-39.077,7.341-46.421-2.711-1.842-7.714-13.228-68.491-15.175-89.975a110.087,110.087,0,0,1,3.424-38.688s-29.5-74.3-40.487-100.673-3.508-59.069-3.508-59.069Z" transform="translate(-862.703 -902.767)" fill="#4e5ab7"/>
      <path id="Path_6477" data-name="Path 6477" d="M921.632,1423.24s-4.241,15.749-3.711,24.862,2.7,11.287,5.462,14.36a5.468,5.468,0,0,0,5.989,1.748s1.27,18.794,10.179,26.393,25.067,8.314,32.485,5.559,2.542-16.218-4.72-29.411-16.526-27.392-18.839-39.317C930.707,1424.988,921.632,1423.24,921.632,1423.24Z" transform="translate(-874.221 -821.402)" fill="#491914"/>
      <path id="Path_6478" data-name="Path 6478" d="M947.943,1148.831s-11.259,15.917-20.232,43.924c-6.306,19.692-5.284,66.913-5.284,66.913s-1.618,46.5,1.381,62.576,2.742,19.339,2.742,19.339a618.313,618.313,0,0,0-13.444,162.226s4.9,7.009,22.487,10c18.859,3.2,23.623-7.827,23.623-7.827s14.383-95,21.627-116.993,9.911-47.353,9.911-47.353l14.8-108.37s29.294-19.122,14.279-67.343C1010.432,1135.721,947.943,1148.831,947.943,1148.831Z" transform="translate(-875.739 -898.114)" fill="#646cc8"/>
      <path id="Path_6479" data-name="Path 6479" d="M932.838,1156.739l-4.5,19.116s20.569,26.586,59.209,22.384c46.554-5.058,54.488-29.147,54.488-29.147L1033.959,1146Z" transform="translate(-871.326 -898.115)" fill="#491914"/>
      <path id="Path_6480" data-name="Path 6480" d="M970.271,1035.967c6.076-1.912,34.207-38,42.448-16.51,6.818,17.768,26.13,49.628,28.625,72.049,1.028,9.275-1,33.471-6.52,48.308,5.725,9.27.922,16.251.587,18.941-.569,4.577,6.542,24.38,8.283,28.707-10.319,28.028-29.307,32.256-53.575,35.616-28.087,3.885-43.482-7.641-53.581-18.095-5.812-6.018-2.653-17.885.852-20.121-4.684-14.234-8.347-38.144-12.93-55.219-6.893-25.692-14.473-42.741-3.738-64.706C927.226,1051.634,957.026,1040.319,970.271,1035.967Z" transform="translate(-874.916 -935.011)" fill="#7682d6"/>
      <path id="Path_6481" data-name="Path 6481" d="M959.388,1006.846s27.674,15.945,35.047,27.584,5.568,17.588,1.693,44.455c-20.869-7.284-46.9-19.826-51.856-34.267C951.49,1040.638,959.388,1006.846,959.388,1006.846Z" transform="translate(-866.917 -936.618)" fill="#ffb9a4"/>
      <path id="Path_6482" data-name="Path 6482" d="M963.611,1058.006s12.841,7.036,33.2-10.593c1.315,16.559,4.9,47.823,4.9,47.823Z" transform="translate(-861.566 -925.393)" fill="#491914"/>
      <path id="Path_6483" data-name="Path 6483" d="M950.828,1031.012s13.839,17.465,21.7,23.971a191.743,191.743,0,0,1,32.849,36.452c.5-1.259-8.242-51.9-8.242-51.9s5.223-8.685,5.153-8.523c-.034.074,10.078,7.7,15.175,18.958-1.545,3.825-6.6,4.064-10.771,8.671a25.185,25.185,0,0,1,11.243,2.44c-1.792,23.658-9.389,38.7-9.389,38.7l-38.509-17.015s1.357-8.942,2.492-12c-7.974,2.177-17.657,4.684-23.254,8.481-6.572-13.45-10.354-22.089-10.354-34.692C938.918,1038.378,950.828,1031.012,950.828,1031.012Z" transform="translate(-868.398 -929.932)" fill="#4e5ab7"/>
      <path id="Path_6484" data-name="Path 6484" d="M1014.925,1007.2c-1.492-10.349-5.072-23.184-13.822-29.789-8.642-6.529-22.286-5.872-32.473-4.11-15.786,2.731-25.189,21.454-20.306,41.508,4.508,18.518,20,46.19,41.343,47.982,10.867.913,18.317-7.927,22.156-18.676C1016.373,1031.383,1016.156,1015.736,1014.925,1007.2Z" transform="translate(-866.154 -946.231)" fill="#ffc9b6"/>
      <g id="Group_2921" data-name="Group 2921" transform="translate(143.967 43.768)">
        <path id="Path_6485" data-name="Path 6485" d="M996.452,986.212c.011-.035.037-.055.048-.091C996.448,986.282,996.439,986.282,996.452,986.212Z" transform="translate(-996.447 -986.121)" fill="#491914"/>
      </g>
      <path id="Path_6486" data-name="Path 6486" d="M976.589,956.384c-11.558.248-25.094,3.982-28.421,19.417-12.527,5.213-9.863,23.7-6.233,35.516,2.465,8.024,12.584,32.617,12.978,32.62,4.8-4.546,11.212-23.2,11.82-25.142,7.361.626,17.169-11.885,19.927-14.848,7.623,3.964,39.061-9.612,32.977-19.062C1008.423,967.455,982.573,956.257,976.589,956.384Z" transform="translate(-868.399 -950.581)" fill="#491914"/>
      <path id="Path_6487" data-name="Path 6487" d="M963.792,1010.221s-4.691-7.878-10.773-2.673,7.061,17.79,7.061,17.79Z" transform="translate(-864.941 -936.916)" fill="#ffc9b6"/>
      <g id="Group_2922" data-name="Group 2922" transform="translate(58.534)">
        <path id="Path_6488" data-name="Path 6488" d="M986.509,972.66c23.074,0,41.776,9.947,41.776,22.224s-18.7,22.221-41.776,22.221c-15.95,0-34.532-10.005-41.775-18.434-2.888-3.359,0,0,0-3.787C944.734,982.607,963.439,972.66,986.509,972.66Z" transform="translate(-925.678 -946.077)" fill="#491914"/>
        <path id="Path_6489" data-name="Path 6489" d="M986.233,970.951c23.074,0,41.776,9.948,41.776,22.224s-18.7,22.222-41.776,22.222c-15.365,0-31.232-8.651-38.491-15.223-3.639-3.3-3.284-2.9-3.284-7C944.458,980.9,963.163,970.951,986.233,970.951Z" transform="translate(-925.402 -946.55)" fill="#722b24"/>
        <path id="Path_6490" data-name="Path 6490" d="M930.094,984.027c2.67,11.88,7.1,16.475,12.427,19.2,9.832,5.029,17.922,5.4,44.2-.815s35.416-17.163,35.416-17.163,7.637-12.286,7.009-17.779C1026.285,942.318,924.547,959.332,930.094,984.027Z" transform="translate(-929.434 -950.942)" fill="#4e5ab7"/>
        <path id="Path_6491" data-name="Path 6491" d="M976.561,952.9c27.237-3.456,51.125,1.618,52.848,14.025.908,6.542-12.37-.683-21.436,1.425-4.378,1.015-8.442,3.862-17.612,12.194-6.977,6.343-15.237,13.213-26.7,17.073-25.992,8.757-32.3-3.042-34.027-15.445S948.412,956.47,976.561,952.9Z" transform="translate(-929.53 -951.838)" fill="#7682d6"/>
        <path id="Path_6492" data-name="Path 6492" d="M997.308,967.477l-8.4,9.552-7.166,8.142,6.588,8.029,11.391-5.332,7.243-10.244Z" transform="translate(-915.083 -947.511)" fill="#ffd215"/>
        <path id="Path_6493" data-name="Path 6493" d="M996.367,969.386l-4.674,10.425-8.13,4.819,6.4,1.22-.915,4.9,7.316-5.1,3.643.569.027-4.228,5.07-4.27-6.3-.4Z" transform="translate(-914.579 -946.983)" fill="#ffc200"/>
      </g>
      <g id="Group_2923" data-name="Group 2923" transform="translate(77.879 170.54)">
        <path id="Path_6494" data-name="Path 6494" d="M949.215,1090.215l22.544-4.673a5.738,5.738,0,0,1,6.755,4.1c2.408,8.95,6.447,26.908,2.029,32.963-5.979,8.19-25.923,12.093-29.829-.915-2.6-8.674-5.128-18.788-5.981-25.18A5.672,5.672,0,0,1,949.215,1090.215Z" transform="translate(-944.682 -1085.417)" fill="#646cc8"/>
        <path id="Path_6495" data-name="Path 6495" d="M946.53,1096.983s5.817,8.3,13.163,9.164c6.611.775,15.332-2.483,16.818-6.067s2.082-9.589,2.082-9.589,2.943,8.51,1.439,12.067c-2.128,5.022-15.748,10.839-25.083,6.553C948.16,1106,946.53,1096.983,946.53,1096.983Z" transform="translate(-944.171 -1084.014)" fill="#4e5ab7"/>
      </g>
      <path id="Path_6496" data-name="Path 6496" d="M1016.379,1070.359c-1.347.7-8.394,4.223-11.917,5.849s-1.354,7.589,0,14.636,4.061,14.633,7.188,17.346,7.923-3.787,9.583-13.546S1016.379,1070.359,1016.379,1070.359Z" transform="translate(-850.792 -919.044)" fill="#4e5ab7"/>
      <path id="Path_6497" data-name="Path 6497" d="M1003.835,1079.9s.285,3.009,4.886,5.3,13.542-2.649,13.542-2.649v-4.005s-5.277,2.109-10.593,3.63S1003.835,1079.9,1003.835,1079.9Z" transform="translate(-850.436 -916.778)" fill="#646cc8"/>
      <path id="Path_6498" data-name="Path 6498" d="M994.215,1088.833a77.373,77.373,0,0,1,1.628,16.51c-.092,3.578-1.307,7.174-1.994,10.119-2.275,9.758,5.983,15.23,6.668,22.157s-5.205,15.371-6.668,20.59,4.1,10.269,5.511,15.79a22.474,22.474,0,0,1-1.154,15.092c4.738-3.188,5.376-10.383,4.572-15.226-1.19-7.181-7.138-7.055-3.886-15.656s8.672-18.356,4.337-25.674-6.524-10.57-5.022-15.447S1000.517,1098.591,994.215,1088.833Z" transform="translate(-853.308 -913.932)" fill="#4e5ab7"/>
      <g id="Group_2924" data-name="Group 2924" transform="translate(152.282 156.315)">
        <path id="Path_6499" data-name="Path 6499" d="M1005.733,1074.275l-2.773,1.7c.231.366,22.875,37.474,24.972,56.989,1.507,13.926-7.525,24.344-12.469,28.934a20.618,20.618,0,0,1,1.675,2.912c5.263-4.667,15.771-16.108,14.033-32.2C1028.987,1112.373,1006.685,1075.822,1005.733,1074.275Z" transform="translate(-1002.96 -1074.275)" fill="#491914"/>
      </g>
      <path id="Path_6500" data-name="Path 6500" d="M1002.307,1065.061c-9.746,7.473-10.169,9.528-5.129,17.929,3.051,5.084,7.793,10.331,12.217,10.82,2.888.322,8-3.548,10.627-7.19,4.963-6.888-.494-10.02-5.63-16.773C1009.171,1062.978,1008.972,1059.951,1002.307,1065.061Z" transform="translate(-853.157 -921.218)" fill="#491914"/>
      <path id="Path_6501" data-name="Path 6501" d="M1001.573,1065.175c-5.4,3.682-6.861,7.441-1.818,15.843s10.113,14.219,18.591,6.651c6.164-5.5,3.757-13.041-1.377-19.8C1011.749,1061,1008.512,1060.448,1001.573,1065.175Z" transform="translate(-852.424 -921.332)" fill="#722b24"/>
      <rect id="Rectangle_98" data-name="Rectangle 98" width="30.702" height="6.779" transform="translate(75.945 165.637) rotate(-14.188)" fill="#ffd215"/>
      <g id="Group_2925" data-name="Group 2925" transform="translate(38.41 252.547)">
        <path id="Path_6502" data-name="Path 6502" d="M942.425,1155.273c-.73-.812-2.223-1.891-5.263-3.06a2.908,2.908,0,0,0-2.611.675c-.146-.05-.3-.1-.442-.154-6.15-2.075-8.424.637-9.348,4.442-1.349,5.558-3.47,12.816-5.213,19.256-3,6.167-5.132,11.1-5.132,11.1s.559,1.657,3.411,4.223c3.512,3.158,10.5,4.057,11.5,4.087,3.816.112,5.587-2.114,7.747-9.127s7.351-20.934,7.616-27.026C944.739,1158.595,943.251,1156.2,942.425,1155.273Z" transform="translate(-913.588 -1148.996)" fill="#491914"/>
        <path id="Path_6503" data-name="Path 6503" d="M921.506,1154.81c-2.114,8.707-6.165,21.68-7.6,28.959s8.347,9.6,12.163,9.707,5.588-2.114,7.748-9.127,7.353-20.935,7.614-27.029c.146-3.363-5.559-5.256-10.581-6.952C924.7,1148.293,922.429,1151.008,921.506,1154.81Z" transform="translate(-913.767 -1149.651)" fill="#722b24"/>
        <path id="Path_6504" data-name="Path 6504" d="M918.43,1160.206s-2.3,8.265,3.849,10.454c7.936,2.827,11.984.554,13.333-3.881s3.151-10.38,3.151-10.38a76.819,76.819,0,0,0-5.339,8.69c-1.39,3.077-4.613,3.1-8.793,1.777A8.54,8.54,0,0,1,918.43,1160.206Z" transform="translate(-912.594 -1147.783)" fill="#491914"/>
      </g>
      <g id="Group_2926" data-name="Group 2926" transform="translate(64.809 262.378)">
        <path id="Path_6505" data-name="Path 6505" d="M962.807,1162.829c-.735-.806-2.239-1.868-5.293-3.01a2.912,2.912,0,0,0-2.6.7c-.148-.047-.3-.1-.442-.149-6.169-2.015-8.417.721-9.3,4.532-1.295,5.568-3.345,12.85-5.025,19.306-2.944,6.2-5.019,11.15-5.019,11.15s.571,1.652,3.447,4.19c3.545,3.122,10.548,3.954,11.544,3.974,3.819.073,5.569-2.168,7.658-9.2s7.144-21.006,7.35-27.1C965.154,1166.129,963.641,1163.744,962.807,1162.829Z" transform="translate(-934.259 -1156.703)" fill="#491914"/>
        <path id="Path_6506" data-name="Path 6506" d="M941.883,1162.566c-2.027,8.727-5.948,21.74-7.309,29.03s8.443,9.517,12.259,9.589,5.565-2.168,7.656-9.2,7.146-21.006,7.35-27.1c.112-3.363-5.611-5.2-10.651-6.849C945.018,1156.018,942.77,1158.753,941.883,1162.566Z" transform="translate(-934.445 -1157.351)" fill="#722b24"/>
        <path id="Path_6507" data-name="Path 6507" d="M938.922,1168.009s-2.213,8.287,3.954,10.415c7.963,2.749,11.987.434,13.292-4.01S959.215,1164,959.215,1164a76.706,76.706,0,0,0-5.25,8.743c-1.362,3.091-4.582,3.15-8.779,1.864A8.541,8.541,0,0,1,938.922,1168.009Z" transform="translate(-933.313 -1155.511)" fill="#491914"/>
      </g>
      <path id="Path_6508" data-name="Path 6508" d="M965.265,1154.762l4.251-12.14,53.46,3.736v6.763l-31.637,12.368Z" transform="translate(-861.108 -899.049)" fill="#ffc200"/>
      <path id="Path_6509" data-name="Path 6509" d="M959.818,1147.169l27.036-8.4,37.629,8.656-31.637,12.37Z" transform="translate(-862.615 -900.115)" fill="#ffd215"/>
      <path id="Path_6510" data-name="Path 6510" d="M905.911,1084.235s-10.186,21.03-14.951,34.039-5.375,27.018-7,34.462,3.953,9.32,16.261,15.015c6.44,2.979,28.966,12.393,53.983,16.371,12.281,1.949,27.671-1.37,42.227,0,17.061,1.6,25.623,3.588,25.985-5.8-2.6.338-5.718,2.237-8.5,3.324-6.372-5.278-14.85-9.02-18.838-10.874-4.005-1.862-6.144-4.767.271-8.715,2.763-1.7,10.243-7.7,7.7-9.32-4.6-2.929-10.451,1.955-20.1,6.018-3.982,1.679-9.573,8.133-11.707,7.875s-20.44-8.191-28.582-13.893c-13.17-9.226-22.328-12.5-22.328-12.5a295.96,295.96,0,0,0,13.684-35.269C940.847,1083.761,905.911,1084.235,905.911,1084.235Z" transform="translate(-883.682 -915.205)" fill="#ffc9b6"/>
      <path id="Path_6511" data-name="Path 6511" d="M910.881,1134.119a106.126,106.126,0,0,0,21.349,6.293c3.593-5.441,13.289-19.789,16.206-38.15,4.419-27.827-7.774-37.235-14.374-47.161a97.135,97.135,0,0,1-5.287-8.366s-20.122,7.967-29.473,37.637c-3.871,12.282-6.774,18.8-12.309,34.89C892.619,1126.175,901.732,1130.378,910.881,1134.119Z" transform="translate(-882.766 -925.581)" fill="#4e5ab7"/>
      <path id="Path_6512" data-name="Path 6512" d="M927.5,1059.687c-6.247-5.472-8.444-7.451-11.255-8.321.808-3.327,7.69-4.005,15.046-8.883,5.519-3.662,9.121-6.186,13.9-.069C950.979,1049.819,933.2,1059.708,927.5,1059.687Z" transform="translate(-874.672 -927.799)" fill="#646cc8"/>
      <path id="Path_6513" data-name="Path 6513" d="M934.668,1046.372c-1.935,1.455-4.148,1.78-4.945.725s.13-3.094,2.064-4.55,4.147-1.782,4.941-.724S936.6,1044.915,934.668,1046.372Z" transform="translate(-871.021 -927.112)" fill="#ffd215"/>
      <path id="Path_6514" data-name="Path 6514" d="M1017.325,1145.548l-31.637,12.37s11.222-1.016,14.667,15.481-4.057,34.039-4.057,34.039l29.87-12.822s5.857-17.408,4.565-29.937S1017.325,1145.548,1017.325,1145.548Z" transform="translate(-855.457 -898.239)" fill="#ffc200"/>
      <path id="Path_6515" data-name="Path 6515" d="M1103.354,1106.492s19.417-18.882,37.9-23.1,27.694,0,27.694,0l11.923,28.97s-25.476-8.6-38.755-4.361-26.83,16.531-26.83,16.531Z" transform="translate(-822.899 -915.955)" fill="#ffc200"/>
      <path id="Path_6516" data-name="Path 6516" d="M1111.885,1092.233s7.586,5.623,14.365,4.269,8.159-3.49,4.334-6.386-7.826-5.079-10.84-5.87S1111.885,1092.233,1111.885,1092.233Z" transform="translate(-820.538 -915.215)" fill="#ffc9b6"/>
    </g>
    <g id="Group_2930" data-name="Group 2930" transform="translate(-13823.972 4891.612)">
      <g id="Group_2928" data-name="Group 2928" transform="translate(26.506 258.83)">
        <path id="Path_6517" data-name="Path 6517" d="M1232,1413.406a99.428,99.428,0,0,0,3.133,14.842c2.269,7.586-.518,18.165-.518,18.165s-1.643,4.664-8.673,6.041a27.227,27.227,0,0,1-11.841-.283,87.284,87.284,0,0,1-14.853,13.735c-8.412,5.956-26.977,10.578-32.026,9.808-8.146-1.24-12.509-7.591-11.885-11.687s10.226-15.442,18.1-20.352c5.119-3.193,16.748-13.986,20.237-17.739a97.188,97.188,0,0,0,10.037-13.078Z" transform="translate(-1155.277 -1100.04)" fill="#491914"/>
        <path id="Path_6518" data-name="Path 6518" d="M1227.6,1167.837s-18.159,55.232-23.827,79.2c-7.683,32.488-12.177,58.377-16.578,89.064s3.266,45.627,2.518,75.651c-.581,23.362-5.625,57.291-3.138,76.76,15.869,15.019,40.1,7.533,47.637-2.781,1.893-7.917,13.579-70.289,15.577-92.337a112.958,112.958,0,0,0-3.516-39.7s30.278-76.245,41.548-103.314,3.6-60.619,3.6-60.619Z" transform="translate(-1146.824 -1167.837)" fill="#030711"/>
        <path id="Path_6519" data-name="Path 6519" d="M1322.26,1461.659s4.354,16.16,3.808,25.513-2.774,11.585-5.6,14.738a5.613,5.613,0,0,1-6.146,1.8s-1.3,19.287-10.447,27.08-25.725,8.533-33.337,5.706-2.607-16.642,4.845-30.182,16.957-28.108,19.331-40.348C1312.947,1463.453,1322.26,1461.659,1322.26,1461.659Z" transform="translate(-1124.434 -1086.536)" fill="#491914"/>
        <path id="Path_6520" data-name="Path 6520" d="M1307.242,1180.054s18.709,13.2,27.916,41.949c6.474,20.206,1.181,48.334,0,64.385-1.312,17.877-.073,55.125-3.15,71.625s-2.815,19.848-2.815,19.848a634.574,634.574,0,0,1,13.8,166.48s-5.034,7.192-23.079,10.26c-19.353,3.289-24.242-8.032-24.242-8.032s-14.761-97.485-22.193-120.061-10.171-48.6-10.171-48.6l-15.19-111.209s-30.062-19.624-14.651-69.111C1243.112,1166.6,1307.242,1180.054,1307.242,1180.054Z" transform="translate(-1134.858 -1165.26)" fill="#081126"/>
      </g>
      <path id="Path_6521" data-name="Path 6521" d="M1206.92,983.6s-3.276,8.938-1.007,15.3,9.412,10.22,9.412,10.22,20.669-4.314,25.893-11.355,13.87-6.816,19.987-8.856S1272.9,985.5,1266.992,978s-10.331-14.081-18.28-12.717a60.421,60.421,0,0,0-23.167,9.991C1219.185,979.819,1206.92,983.6,1206.92,983.6Z" transform="translate(-1114.981 -965.103)" fill="#ffc9b6"/>
      <path id="Path_6522" data-name="Path 6522" d="M1253.8,1062.467c-6.487-12.716-11.673-21.115-32.936-19.549-7-3.584-24.246-14.05-32.113-20.644,11.358-2.274,32.113-9.994,46.108-17.036-6.361-7.266-10.214-19.3-6.788-26.046-9.626-.444-29.277,1.46-42.27,1.97-18.035.71-28.038-.7-36.682,9.051-8.048,9.076-3.33,13.33-11.667,23.339-5.938,7.132-1.62,8.224,2.013,9.4,5.614,9.569,10.611,25.2,16.844,34.925a225.521,225.521,0,0,0,22.905,29.229c11.619,12.863,29.067,33.442,49.057,29.651C1230.364,1116.361,1264.432,1083.309,1253.8,1062.467Z" transform="translate(-1134.515 -961.223)" fill="#0d1b3a"/>
      <path id="Path_6523" data-name="Path 6523" d="M1341.9,1134.4c1.16-27.591,9.491-38.994,0-54.864-.569-.951-13.831-12.039-17.559-11.9-22.905-12.723-46.746-25.106-70.541-34.89-10.578-4.348-18.478-4.625-26.052-1.833-13.122,28.108-33.631,75.125-18.187,96.627,1.677,9.716-2.981,80.538,5.413,91.441-4.994,2.27-9.393,9.575-3.506,18.636,20.654,31.8,89.977,24.606,121.738,5.64,3.362-6.812.406-12.624-4.77-17.566,5.906-6.076,1.719-13.317,0-16.069C1337.528,1187.817,1340.54,1166.756,1341.9,1134.4Z" transform="translate(-1115.276 -947.397)" fill="#db5205"/>
      <g id="Group_2929" data-name="Group 2929" transform="translate(97.162 5.303)">
        <path id="Path_6524" data-name="Path 6524" d="M1237.813,1036.426c0-.264-.018-.571-.027-.849,10.926,1.672,25.344-4.6,34.807-11.2,5.084,12.416,6.318,17.139,14.017,29.667-4.119.2-12.251,11.531-18.995,23.43-2.862,5.052-15.224,18.12-23,15.1-11.988-4.648-5.989-14.249-6.343-27.745C1238.025,1055.37,1237.831,1045.885,1237.813,1036.426Z" transform="translate(-1203.298 -954.005)" fill="#ffb9a4"/>
        <path id="Path_6525" data-name="Path 6525" d="M1221.794,1001.971c10.046-12.343,34.666-11.573,48.549-3.164a23.122,23.122,0,0,1,8.892,4.693c9.051,8.039,8.053,22.446,5.348,33.074-4.078,16.031-26.886,52.887-47.967,39.105-11.211-7.33-18.5-25.534-20.308-38.269C1214.7,1026.083,1214.476,1010.959,1221.794,1001.971Z" transform="translate(-1209.3 -962.803)" fill="#ffc9b6"/>
        <path id="Path_6526" data-name="Path 6526" d="M1214.508,984.368c7.243-16.828,21.067-21.142,24.958-5.017,9.314-12.265,21.8-3.6,14.635,5.94,11.423-2.086,32.016,5.334,37.125,15.151,8.685,16.694,2.639,45.253-4.982,53.839-7.958-6.936-20.246-21.678-23.49-35.82-13.127,6.311-31.063,6.975-43.95-.439C1207.99,1011.8,1209.361,996.323,1214.508,984.368Z" transform="translate(-1210.62 -969.257)" fill="#491914"/>
        <path id="Path_6527" data-name="Path 6527" d="M1254.381,1022.093s6.4-10.62,12.293-2.856c8.945,11.771-4.158,17.534-4.158,17.534Z" transform="translate(-1198.511 -956.213)" fill="#ffc9b6"/>
      </g>
      <path id="Path_6528" data-name="Path 6528" d="M1272.468,1008.543a30.077,30.077,0,0,1,9.371-10.352,44.449,44.449,0,0,1,11.5-5.832c-3.432-3.506-10.054-10.424-14.584-16.116-6.331-7.949-12.745-10.219-25.182-5.952-9.8,3.363-24.3,7.316-29.527,10.949s.628,9.97,7.591,10.447c5.354.369,14.272-.987,20.573-.987.909.441,12.666,8.03,16.354,9.846a58.834,58.834,0,0,0,2.981,9.924C1271.846,1009.8,1272.172,1009.118,1272.468,1008.543Z" transform="translate(-1110.298 -964.254)" fill="#ffc9b6"/>
      <path id="Path_6529" data-name="Path 6529" d="M1341.748,1066.3c2.5-2.5,8.179-10.45-2.176-17.3-16.638-22.317-38.722-42.051-57.637-62.484a2.255,2.255,0,0,0-2.25-.6c-9.515,3.781-18.816,11.308-19.267,19.053,9.642,24.357,18.164,45.8,37.493,64.393-3.382,12.527-7.808,32.29-6.294,51.368.836,10.543,6.824,39.786,24.691,47.546,9.685,1.5,21.142-24.608,25.438-36.34C1348.409,1113.759,1346.55,1086.194,1341.748,1066.3Z" transform="translate(-1099.677 -959.371)" fill="#0d1b3a"/>
      <path id="Path_6530" data-name="Path 6530" d="M1222.037,1177.485a60.9,60.9,0,0,0,27.056,13.168c16.97,3.637,35.545-2.726,35.545-2.726s-21.829-1.533-34.739-5.9S1222.037,1177.485,1222.037,1177.485Z" transform="translate(-1110.298 -906.337)" fill="#a73c00"/>
      <path id="Path_6531" data-name="Path 6531" d="M1237.078,1166.34s21.365,13.374,37.511,15.278c18.056,2.132,38.641-1.049,38.641-1.049s-20.148-5.2-35.772-6.989S1237.078,1166.34,1237.078,1166.34Z" transform="translate(-1106.136 -909.421)" fill="#a73c00"/>
    </g>
  </g>
</svg>
