<svg xmlns="http://www.w3.org/2000/svg" width="250" height="250" viewBox="0 0 250 250">
  <g id="ic_pin_code" transform="translate(-324 -1876)">
    <g id="Ellipse_817" data-name="Ellipse 817" transform="translate(324 1876)" fill="none" stroke="#0d1b3a" stroke-width="6">
      <circle cx="125" cy="125" r="125" stroke="none"/>
      <circle cx="125" cy="125" r="122" fill="none"/>
    </g>
    <g id="Group_21389" data-name="Group 21389" transform="translate(66 -227)">
      <path id="Path_97917" data-name="Path 97917" d="M156.684,149.333H14.244A14.258,14.258,0,0,0,0,163.577v42.732a14.258,14.258,0,0,0,14.244,14.244h142.44a14.258,14.258,0,0,0,14.244-14.244V163.577A14.258,14.258,0,0,0,156.684,149.333Zm7.122,56.976a7.131,7.131,0,0,1-7.122,7.122H14.244a7.131,7.131,0,0,1-7.122-7.122V163.577a7.131,7.131,0,0,1,7.122-7.122h142.44a7.131,7.131,0,0,1,7.122,7.122Z" transform="translate(298 2043.667)" fill="#0d1b3a"/>
      <path id="Path_97918" data-name="Path 97918" d="M82.768,220.455a3.561,3.561,0,0,0-4.865-1.3l-3.909,2.257v-4.514a3.561,3.561,0,0,0-7.122,0v4.514l-3.909-2.257A3.562,3.562,0,0,0,59.4,225.32l3.908,2.257L59.4,229.834A3.562,3.562,0,0,0,62.963,236l3.909-2.257v4.514a3.561,3.561,0,1,0,7.122,0v-4.514L77.9,236a3.562,3.562,0,1,0,3.561-6.169l-3.908-2.257,3.908-2.257A3.561,3.561,0,0,0,82.768,220.455Z" transform="translate(259.616 2001.033)" fill="#0d1b3a"/>
      <path id="Path_97919" data-name="Path 97919" d="M189.435,220.455a3.561,3.561,0,0,0-4.865-1.3l-3.909,2.257v-4.514a3.561,3.561,0,0,0-7.122,0v4.514l-3.909-2.257a3.562,3.562,0,0,0-3.561,6.169l3.908,2.257-3.908,2.257A3.562,3.562,0,0,0,169.63,236l3.909-2.257v4.514a3.561,3.561,0,1,0,7.122,0v-4.514L184.57,236a3.562,3.562,0,1,0,3.561-6.169l-3.909-2.257,3.908-2.257A3.56,3.56,0,0,0,189.435,220.455Z" transform="translate(188.559 2001.033)" fill="#0d1b3a"/>
      <path id="Path_97920" data-name="Path 97920" d="M296.1,220.455a3.561,3.561,0,0,0-4.865-1.3l-3.909,2.257v-4.514a3.561,3.561,0,0,0-7.122,0v4.514l-3.909-2.257a3.562,3.562,0,0,0-3.561,6.169l3.908,2.257-3.908,2.257A3.562,3.562,0,0,0,276.3,236l3.909-2.257v4.514a3.561,3.561,0,1,0,7.122,0v-4.514L291.236,236a3.562,3.562,0,1,0,3.561-6.169l-3.908-2.257,3.908-2.257A3.561,3.561,0,0,0,296.1,220.455Z" transform="translate(117.503 2001.033)" fill="#e36410"/>
      <path id="Path_97921" data-name="Path 97921" d="M402.768,220.455a3.56,3.56,0,0,0-4.865-1.3l-3.909,2.257v-4.514a3.561,3.561,0,0,0-7.122,0v4.514l-3.909-2.257a3.562,3.562,0,0,0-3.561,6.169l3.908,2.257-3.908,2.257A3.562,3.562,0,0,0,382.963,236l3.909-2.257v4.514a3.561,3.561,0,1,0,7.122,0v-4.514L397.9,236a3.562,3.562,0,0,0,3.561-6.169l-3.908-2.257,3.908-2.257A3.561,3.561,0,0,0,402.768,220.455Z" transform="translate(46.446 2001.033)" fill="#0d1b3a"/>
    </g>
  </g>
</svg>
