<svg id="ic_quote_close" xmlns="http://www.w3.org/2000/svg" width="508.045" height="438.903" viewBox="0 0 508.045 438.903">
  <g id="Group_11603" data-name="Group 11603" transform="translate(0 0)">
    <path id="Path_64281" data-name="Path 64281" d="M241.875,155.509a121.259,121.259,0,1,0-81.769,114.327C132.89,425.927,11.169,526.588,124,443.742c125.117-91.867,118-284.537,117.865-288.068C241.869,155.619,241.875,155.57,241.875,155.509Z" transform="translate(266.062 -34.571)"/>
    <path id="Path_64282" data-name="Path 64282" d="M507.937,155.509a121.259,121.259,0,1,0-81.769,114.327c-27.216,156.091-148.937,256.752-36.1,173.906C515.183,351.875,508.072,159.2,507.931,155.674,507.931,155.619,507.937,155.57,507.937,155.509Z" transform="translate(-266.061 -34.571)"/>
  </g>
</svg>
