<svg xmlns="http://www.w3.org/2000/svg" width="512" height="512" viewBox="0 0 512 512">
  <g id="ic_running_hour" transform="translate(-10798 -3484)">
    <g id="Ellipse_983" data-name="Ellipse 983" transform="translate(10798 3484)" fill="none" stroke="#0d1b3a" stroke-linecap="round" stroke-linejoin="round" stroke-width="12">
      <circle cx="256" cy="256" r="256" stroke="none"/>
      <circle cx="256" cy="256" r="250" fill="none"/>
    </g>
    <g id="Group_85" data-name="Group 85" transform="translate(9751.017 2035.229)">
      <path id="Path_107" data-name="Path 107" d="M64.783,178.859a5.848,5.848,0,0,0-5.851-5.851H33.359a5.849,5.849,0,1,0,0,11.7H58.932A5.845,5.845,0,0,0,64.783,178.859Zm0,0" transform="translate(1144.064 1536.928)" fill="#ea5c10"/>
      <path id="Path_108" data-name="Path 108" d="M17.5,283.027H5.851a5.849,5.849,0,1,0,0,11.7H17.5a5.849,5.849,0,1,0,0-11.7Zm0,0" transform="translate(1148 1521.183)" fill="#ea5c10"/>
      <path id="Path_109" data-name="Path 109" d="M60.863,38.007H72.512a5.849,5.849,0,1,0,0-11.7H60.863a5.849,5.849,0,0,0,0,11.7Zm0,0" transform="translate(1140.126 1557.922)" fill="#ea5c10"/>
      <path id="Path_110" data-name="Path 110" d="M306.68,80.185C297.85,45.628,277.3,19.888,248.833,7.7,215.863-6.421,178.005.518,145.541,22.79a5.576,5.576,0,0,0-.974-.194H93.461a5.849,5.849,0,0,0,0,11.7h37.325a173.187,173.187,0,0,0-30.517,35.611,5.337,5.337,0,0,0-.84-.171H62.158a5.851,5.851,0,0,0,0,11.7H93.371c-2.992,5.426-5.784,11.053-8.294,16.914-1.513,3.538-2.825,7.116-4.114,10.7-.057,0-.107-.033-.164-.033H15.019a5.851,5.851,0,1,0,0,11.7h62.2c-7.263,25.171-9.041,50.818-4.971,74.727h-25.8a5.849,5.849,0,1,0,0,11.7H74.686a122.274,122.274,0,0,0,15.13,35.434H46.322a5.849,5.849,0,1,0,0,11.7H97.428a5.617,5.617,0,0,0,1-.2,92.77,92.77,0,0,0,34.038,25.349,91.479,91.479,0,0,0,36.217,7.334c49.659,0,101.856-38.021,127.533-97.987,15.437-36.03,19.15-74.6,10.46-108.584ZM285.468,184.167c-29.539,68.98-96.093,106.887-148.4,84.5-25.057-10.728-43.209-33.68-51.116-64.632-8.057-31.511-4.549-67.41,9.871-101.083,23.792-55.544,71.584-90.941,116.594-90.941a80.414,80.414,0,0,1,31.809,6.433c25.051,10.728,43.2,33.68,51.116,64.632,8.053,31.511,4.542,67.41-9.878,101.087Zm0,0" transform="translate(1146.688 1561.634)" fill="#011131"/>
      <path id="Path_111" data-name="Path 111" d="M167.863,78.793a5.852,5.852,0,0,0,3.967-1.55,107.41,107.41,0,0,1,13.834-10.838,5.846,5.846,0,1,0-6.41-9.777A118.893,118.893,0,0,0,163.9,68.641a5.851,5.851,0,0,0,3.963,10.152Zm0,0" transform="translate(1124.814 1553.72)" fill="#ea5c10"/>
      <path id="Path_112" data-name="Path 112" d="M259.747,48.8c-17.111-10.638-38.055-13.382-58.995-7.752a5.852,5.852,0,0,0,3.049,11.3c12.783-3.444,25.134-3.267,36.441.318l-5.714,13.339a5.843,5.843,0,0,0,3.073,7.679,5.725,5.725,0,0,0,2.3.475,5.847,5.847,0,0,0,5.376-3.548l5.694-13.3c.867.479,1.754.9,2.6,1.429,32.676,20.3,42.436,69.5,25.084,115.262L269.6,170.12a5.847,5.847,0,0,0-4.6,10.751l9.031,3.869c-.9,1.874-1.751,3.756-2.748,5.6-9.76,18.119-22.949,32.84-37.937,42.935L230.7,223.116a5.849,5.849,0,1,0-11.32,2.949l3.458,13.3a84.911,84.911,0,0,1-16.14,6.3c-12.693,3.374-24.967,3.173-36.21-.385l5.71-13.335a5.848,5.848,0,0,0-10.751-4.606l-5.7,13.3c-.864-.479-1.751-.9-2.6-1.429-14.848-9.225-24.89-24.472-29.9-42.6l12.087-6.346A5.851,5.851,0,1,0,133.9,179.9l-9.192,4.827c-2.782-19.009-.435-40.224,7.357-60.776l9.058,3.879a5.848,5.848,0,0,0,7.678-3.076,5.839,5.839,0,0,0-3.073-7.675l-9.034-3.869c.9-1.871,1.754-3.752,2.748-5.6a5.848,5.848,0,0,0-10.293-5.553c-29.73,55.166-19.936,121.153,21.827,147.094a70.329,70.329,0,0,0,37.563,10.681,82.2,82.2,0,0,0,21.165-2.862c28.913-7.7,55.109-29.954,71.872-61.067C311.3,140.731,301.51,74.743,259.747,48.8Zm0,0" transform="translate(1131.979 1556.221)" fill="#011131"/>
      <path id="Path_113" data-name="Path 113" d="M164.557,189.528a5.79,5.79,0,0,0,2.855-.75l47.5-26.657a5.793,5.793,0,0,0,2.514-2.8L241.72,102.59a5.847,5.847,0,1,0-10.751-4.6l-23.511,54.9-45.77,25.683a5.85,5.85,0,0,0,2.869,10.952Zm0,0" transform="translate(1125.289 1548.172)" fill="#ea5c10"/>
    </g>
  </g>
</svg>
