<svg xmlns="http://www.w3.org/2000/svg" width="512" height="512" viewBox="0 0 512 512">
  <g id="Group_31140" data-name="Group 31140" transform="translate(-895 -7378)">
    <g id="Group_31139" data-name="Group 31139" transform="translate(31.242 31.242)">
      <g id="Group_31138" data-name="Group 31138" transform="translate(1054.172 7537.179)">
        <path id="Path_132558" data-name="Path 132558" d="M20688.271,9120.745a4.524,4.524,0,1,0-4.527,4.524A4.522,4.522,0,0,0,20688.271,9120.745Zm-14.119-9.6a4.531,4.531,0,0,0,0-6.4l-56.629-56.626a4.526,4.526,0,0,0-6.4,6.4l56.627,56.625a4.527,4.527,0,0,0,6.4,0Zm-68.1-72.625a4.526,4.526,0,1,0-4.527,4.524A4.52,4.52,0,0,0,20606.055,9038.521Z" transform="translate(-20526.801 -8963.794)" fill="#ec691f"/>
        <path id="Path_132557" data-name="Path 132557" d="M20814.5,9277.452a45.033,45.033,0,0,0,14.449-2.36,4.524,4.524,0,0,0,2.961-3.264,4.4,4.4,0,0,0-.059-2.277,4.483,4.483,0,0,0-1.154-1.959l-18.912-18.758v-9.044l10.3-10.307h9.045l18.76,18.91a4.562,4.562,0,0,0,3.209,1.339,4.7,4.7,0,0,0,1.025-.119,4.544,4.544,0,0,0,3.262-2.964,45.173,45.173,0,0,0-54.613-58.169l-33.207-33.205.523-.522-6.582-6.219-.34.339-6.4-6.395.16-.16-10.105-9.545.08-.167-29.863-29.863a45.4,45.4,0,0,0,1.543-9.931,44.27,44.27,0,0,0-3.535-19.352,46.629,46.629,0,0,0-4.99-8.842,45.259,45.259,0,0,0-51.187-16.489,4.521,4.521,0,0,0-1.773,7.462l18.486,18.768v9.117l-9.9,10.258h-9l-18.758-18.908a4.546,4.546,0,0,0-3.209-1.336,4.413,4.413,0,0,0-1.025.116,4.54,4.54,0,0,0-3.268,2.962,45.283,45.283,0,0,0,54.617,58.167l26.8,26.8-.332.3,6.441,6.366.295-.265,19.461,19.463-.156.173,6.439,6.363.123-.131,26.666,26.672a45.835,45.835,0,0,0-1.545,9.931,44.416,44.416,0,0,0,3.543,19.354,46.032,46.032,0,0,0,5,8.842A44.724,44.724,0,0,0,20814.5,9277.452Zm18.52-57.018h-12.8a4.544,4.544,0,0,0-3.2,1.327l-12.957,12.951a4.564,4.564,0,0,0-1.324,3.2v12.8a4.511,4.511,0,0,0,1.334,3.214l14.371,14.258a36.555,36.555,0,0,1-3.943.211,36.237,36.237,0,0,1-34.316-47.764,4.489,4.489,0,0,0-1.086-4.646l-2.332-2.331c-1.812-1.811-3.844-3.844-6.061-6.062-3.3-3.3-7.014-7.012-11-11l-20.7-20.7-8.861-8.859c-8.459-8.456-16.658-16.661-24-24l-7.055-7.055c-3.5-3.507-6.721-6.721-9.559-9.56a4.526,4.526,0,0,0-4.639-1.088,36.233,36.233,0,0,1-47.77-34.311,36.676,36.676,0,0,1,.213-3.943l14.258,14.367a4.5,4.5,0,0,0,3.213,1.338h12.8a4.555,4.555,0,0,0,3.254-1.381l12.5-12.957a4.5,4.5,0,0,0,1.268-3.139V9072.5a4.482,4.482,0,0,0-1.3-3.176l-14.07-14.281a37.027,37.027,0,0,1,4.059-.224,36.238,36.238,0,0,1,34.318,47.763,4.5,4.5,0,0,0,1.088,4.643l89.564,89.573a4.577,4.577,0,0,0,3.205,1.325,4.514,4.514,0,0,0,1.441-.237,36.344,36.344,0,0,1,11.641-1.929,36.326,36.326,0,0,1,36.125,36.24,35.291,35.291,0,0,1-.211,3.946l-14.258-14.372A4.559,4.559,0,0,0,20833.021,9220.435Z" transform="translate(-20628.072 -9045.768)" fill="#0d1b3a"/>
      </g>
      <path id="Path_4945" data-name="Path 4945" d="M209.677,253.1a6.45,6.45,0,0,0-8.593-3.062,102.71,102.71,0,0,1-16.316,6.1,6.447,6.447,0,0,0-4.586,4.947l-6.824,34.117a7.252,7.252,0,0,1-7.092,5.814H147.653a7.252,7.252,0,0,1-7.092-5.814l-6.824-34.117a6.451,6.451,0,0,0-4.586-4.947,102.487,102.487,0,0,1-22.653-9.387,6.452,6.452,0,0,0-6.744.253L70.8,266.309a7.254,7.254,0,0,1-9.126-.9L48.513,252.242a7.254,7.254,0,0,1-.9-9.126l19.3-28.953a6.448,6.448,0,0,0,.253-6.744,102.46,102.46,0,0,1-9.387-22.653,6.447,6.447,0,0,0-4.947-4.586l-34.117-6.824a7.252,7.252,0,0,1-5.814-7.092V147.65a7.251,7.251,0,0,1,5.814-7.092l34.117-6.824a6.451,6.451,0,0,0,4.947-4.586,102.489,102.489,0,0,1,9.387-22.653,6.452,6.452,0,0,0-.253-6.744L47.61,70.8a7.253,7.253,0,0,1,.9-9.126L61.676,48.513a7.254,7.254,0,0,1,9.126-.9l28.953,19.3a6.45,6.45,0,0,0,6.744.253,102.489,102.489,0,0,1,22.653-9.387,6.447,6.447,0,0,0,4.586-4.947l6.824-34.117a7.252,7.252,0,0,1,7.092-5.814h18.614a7.251,7.251,0,0,1,7.092,5.814l6.824,34.117a6.451,6.451,0,0,0,4.586,4.947,102.489,102.489,0,0,1,22.653,9.387,6.451,6.451,0,0,0,6.744-.253l28.953-19.3a7.254,7.254,0,0,1,9.126.9l13.162,13.162a7.254,7.254,0,0,1,.9,9.126l-19.3,28.953a6.448,6.448,0,0,0-.253,6.744,102.49,102.49,0,0,1,9.387,22.653,6.447,6.447,0,0,0,4.947,4.586l34.117,6.824a7.252,7.252,0,0,1,5.814,7.092v18.614a7.252,7.252,0,0,1-5.814,7.092l-34.117,6.824a6.45,6.45,0,0,0-4.947,4.588,102.667,102.667,0,0,1-6.287,16.7,6.45,6.45,0,1,0,11.63,5.581,115.688,115.688,0,0,0,5.938-14.982l30.313-6.062a20.189,20.189,0,0,0,16.181-19.743V147.652a20.188,20.188,0,0,0-16.185-19.743l-30.312-6.062A115.422,115.422,0,0,0,259.9,103.68l17.149-25.724a20.188,20.188,0,0,0-2.516-25.4L261.366,39.389a20.189,20.189,0,0,0-25.4-2.516L210.238,54.022a115.5,115.5,0,0,0-18.167-7.527l-6.062-30.312A20.185,20.185,0,0,0,166.267,0H147.653A20.188,20.188,0,0,0,127.91,16.185L121.848,46.5a115.424,115.424,0,0,0-18.167,7.527L77.958,36.876a20.187,20.187,0,0,0-25.4,2.516L39.392,52.554a20.189,20.189,0,0,0-2.516,25.4l17.149,25.724A115.469,115.469,0,0,0,46.5,121.849l-30.313,6.062A20.186,20.186,0,0,0,0,147.654v18.614A20.188,20.188,0,0,0,16.185,186.01L46.5,192.073a115.411,115.411,0,0,0,7.527,18.167L36.876,235.964a20.188,20.188,0,0,0,2.516,25.4l13.162,13.162a20.189,20.189,0,0,0,25.4,2.516L103.682,259.9a115.475,115.475,0,0,0,18.167,7.527l6.062,30.314a20.187,20.187,0,0,0,19.742,16.182h18.614a20.188,20.188,0,0,0,19.743-16.185l6.062-30.312a115.56,115.56,0,0,0,14.544-5.729A6.451,6.451,0,0,0,209.677,253.1Z" transform="translate(953.758 7436.758)" fill="#0d1b3a"/>
    </g>
    <g id="Path_64277" data-name="Path 64277" transform="translate(895 7378)" fill="none">
      <path d="M256,0C397.385,0,512,114.615,512,256S397.385,512,256,512,0,397.385,0,256,114.615,0,256,0Z" stroke="none"/>
      <path d="M 256 12 C 121.4579162597656 12 12 121.4579162597656 12 256 C 12 390.5420837402344 121.4579162597656 500 256 500 C 390.5420837402344 500 500 390.5420837402344 500 256 C 500 121.4579162597656 390.5420837402344 12 256 12 M 256 0 C 397.3848571777344 0 512 114.6150817871094 512 256 C 512 397.3848571777344 397.3848571777344 512 256 512 C 114.6150817871094 512 0 397.3848571777344 0 256 C 0 114.6150817871094 114.6150817871094 0 256 0 Z" stroke="none" fill="#0d1b3a"/>
    </g>
  </g>
</svg>
