<svg xmlns="http://www.w3.org/2000/svg" width="250" height="250" viewBox="0 0 250 250">
  <g id="ic_real_time_report" transform="translate(-929 -1876)">
    <g id="Ellipse_817" data-name="Ellipse 817" transform="translate(929 1876)" fill="none" stroke="#0d1b3a" stroke-width="6">
      <circle cx="125" cy="125" r="125" stroke="none"/>
      <circle cx="125" cy="125" r="122" fill="none"/>
    </g>
    <g id="Group_21395" data-name="Group 21395" transform="translate(-0.132 -0.126)">
      <path id="Path_97941" data-name="Path 97941" d="M145.042,29.049,118.688,2.695a2.475,2.475,0,0,0-1.7-.695h-59.9A7.209,7.209,0,0,0,49.9,9.187V23.682a50.248,50.248,0,0,0,0,100.385v14.495a7.209,7.209,0,0,0,7.187,7.187h81.458a7.209,7.209,0,0,0,7.187-7.187V30.75a2.475,2.475,0,0,0-.695-1.7ZM119.383,10.17l18.184,18.184H121.779a2.4,2.4,0,0,1-2.4-2.4Zm-112.6,63.7A45.576,45.576,0,0,1,49.9,28.426V72.892L18.519,104.278a45.231,45.231,0,0,1-11.74-30.4ZM21.9,107.656,53.282,76.27H97.749A45.432,45.432,0,0,1,21.9,107.656Zm119.048,30.906a2.4,2.4,0,0,1-2.4,2.4H57.091a2.4,2.4,0,0,1-2.4-2.4V124.067a50.346,50.346,0,0,0,47.916-50.192,2.4,2.4,0,0,0-2.4-2.4H54.7V9.187a2.4,2.4,0,0,1,2.4-2.4h57.5V25.958a7.209,7.209,0,0,0,7.187,7.187h19.167Z" transform="translate(980.123 1927.125)" fill="#0d1b3a"/>
      <path id="Path_97942" data-name="Path 97942" d="M28.4,7A2.4,2.4,0,0,0,26,9.4V57.312a2.4,2.4,0,0,0,2.4,2.4H76.312a2.4,2.4,0,0,0,2.4-2.4A50.367,50.367,0,0,0,28.4,7Zm2.4,47.916V11.864A45.561,45.561,0,0,1,73.845,54.916Z" transform="translate(1013.61 1934.104)" fill="#0d1b3a"/>
      <path id="Path_97943" data-name="Path 97943" d="M61.562,40A21.562,21.562,0,1,0,83.125,61.562,21.562,21.562,0,0,0,61.562,40Zm0,38.333A16.771,16.771,0,1,1,78.333,61.562,16.771,16.771,0,0,1,61.562,78.333Z" transform="translate(1033.151 1980.167)" fill="#e36410"/>
      <path id="Path_97944" data-name="Path 97944" d="M52.174,57.974,46.681,52.48l-3.388,3.388,7.187,7.187a2.4,2.4,0,0,0,3.388,0L68.243,48.681l-3.388-3.388Z" transform="translate(1037.748 1987.555)" fill="#e36410"/>
      <path id="Path_97945" data-name="Path 97945" d="M50,19H69.167v4.792H50Z" transform="translate(1047.109 1950.854)" fill="#0d1b3a"/>
      <path id="Path_97946" data-name="Path 97946" d="M50,25H69.167v4.792H50Z" transform="translate(1047.109 1959.229)" fill="#0d1b3a"/>
      <path id="Path_97947" data-name="Path 97947" d="M50,31H69.167v4.792H50Z" transform="translate(1047.109 1967.604)" fill="#0d1b3a"/>
    </g>
  </g>
</svg>
