<svg xmlns="http://www.w3.org/2000/svg" width="196" height="196" viewBox="0 0 196 196">
  <g id="ic_rfid_transaction" transform="translate(-693 -858)">
    <g id="Path_98155" data-name="Path 98155" transform="translate(693 858)" fill="none">
      <path d="M98,0A98,98,0,1,1,0,98,98,98,0,0,1,98,0Z" stroke="none"/>
      <path d="M 98 6 C 47.27102661132813 6 6 47.27102661132813 6 98 C 6 148.7289733886719 47.27102661132813 190 98 190 C 148.7289733886719 190 190 148.7289733886719 190 98 C 190 47.27102661132813 148.7289733886719 6 98 6 M 98 0 C 152.1239013671875 0 196 43.8760986328125 196 98 C 196 152.1239013671875 152.1239013671875 196 98 196 C 43.8760986328125 196 0 152.1239013671875 0 98 C 0 43.8760986328125 43.8760986328125 0 98 0 Z" stroke="none" fill="#0d1b3a"/>
    </g>
    <g id="Group_10323" data-name="Group 10323" transform="translate(740.803 895.993)">
      <g id="Group_10320" data-name="Group 10320" transform="translate(0 50.105)">
        <path id="Path_59227" data-name="Path 59227" d="M89.682,80.146H14.526A12.54,12.54,0,0,1,2,67.62V22.526A12.54,12.54,0,0,1,14.526,10H89.682a12.54,12.54,0,0,1,12.526,12.526V67.62A12.54,12.54,0,0,1,89.682,80.146ZM14.526,15.01A7.525,7.525,0,0,0,7.01,22.526V67.62a7.525,7.525,0,0,0,7.516,7.516H89.682A7.525,7.525,0,0,0,97.2,67.62V22.526a7.525,7.525,0,0,0-7.516-7.516Z" transform="translate(-2 -10)" fill="#0d1b3a"/>
      </g>
      <g id="Group_10321" data-name="Group 10321" transform="translate(15.032 65.136)">
        <path id="Path_59228" data-name="Path 59228" d="M22.536,38.052H12.516A7.525,7.525,0,0,1,5,30.536V20.516A7.525,7.525,0,0,1,12.516,13H22.536a7.525,7.525,0,0,1,7.516,7.516V30.536A7.525,7.525,0,0,1,22.536,38.052ZM12.516,18.01a2.509,2.509,0,0,0-2.505,2.505V30.536a2.509,2.509,0,0,0,2.505,2.505H22.536a2.509,2.509,0,0,0,2.505-2.505V20.516a2.509,2.509,0,0,0-2.505-2.505Z" transform="translate(-5 -13)" fill="#0d1b3a"/>
      </g>
      <g id="Group_10322" data-name="Group 10322" transform="translate(15.032 100.209)">
        <path id="Path_59229" data-name="Path 59229" d="M72.641,25.01H7.505a2.505,2.505,0,0,1,0-5.01H72.641a2.505,2.505,0,0,1,0,5.01Z" transform="translate(-5 -20)" fill="#e36410"/>
      </g>
      <path id="Path_59236" data-name="Path 59236" d="M20676.383,9082.351a2.511,2.511,0,0,1,0-3.542l4.279-4.28v-11.8a10.024,10.024,0,1,1,5.01,0v12.843a2.521,2.521,0,0,1-.73,1.775l-5.012,5.01a2.513,2.513,0,0,1-3.547,0Zm1.773-29.331a5.011,5.011,0,1,0,5.01-5.012A5.015,5.015,0,0,0,20678.156,9053.02Zm-32.57,27.556v-17.852a10.025,10.025,0,1,1,5.012,0v17.852a2.506,2.506,0,1,1-5.012,0Zm-2.5-27.556a5.011,5.011,0,1,0,5.008-5.012A5.013,5.013,0,0,0,20643.084,9053.02Zm-26.824,29.331-5.012-5.01a2.523,2.523,0,0,1-.732-1.775v-12.842a10.022,10.022,0,1,1,5.01,0v11.806l4.279,4.28a2.506,2.506,0,0,1-3.545,3.542Zm-8.252-29.331a5.012,5.012,0,1,0,5.012-5.012A5.018,5.018,0,0,0,20608.008,9053.02Z" transform="translate(-20598.102 -9042.998)" fill="#0d1b3a"/>
    </g>
  </g>
</svg>
