<svg xmlns="http://www.w3.org/2000/svg" width="512" height="512" viewBox="0 0 512 512">
  <g id="ic_rfid_secure" transform="translate(-1944 -8345)">
    <g id="Ellipse_963" data-name="Ellipse 963" transform="translate(1944 8345)" fill="none" stroke="#0d1b3a" stroke-width="12">
      <circle cx="256" cy="256" r="256" stroke="none"/>
      <circle cx="256" cy="256" r="250" fill="none"/>
    </g>
    <g id="Group_31117" data-name="Group 31117" transform="translate(2057 8437)">
      <path id="Path_498" data-name="Path 498" d="M286.511,88.946l-.01-.255c-.147-3.149-.244-6.481-.3-10.187-.275-18.075-15.04-33.027-33.615-34.037-38.729-2.1-68.69-14.394-94.289-38.677l-.218-.2a22,22,0,0,0-29.3,0l-.218.2C102.96,30.073,73,42.363,34.27,44.469,15.7,45.477.93,60.428.655,78.506.6,82.188.5,85.519.352,88.691l-.015.592c-.753,38.435-1.688,86.268,14.754,129.684a164.658,164.658,0,0,0,40.7,61.69c20.457,19.429,47.251,34.853,79.638,45.843a25.206,25.206,0,0,0,3.264.865,24.757,24.757,0,0,0,9.478,0,25.281,25.281,0,0,0,3.277-.87c32.347-11.01,59.114-26.442,79.552-45.868a164.886,164.886,0,0,0,40.7-61.7C288.195,175.376,287.262,127.453,286.511,88.946ZM253.145,212.267c-17.342,45.76-52.743,77.186-108.226,96.069a5.078,5.078,0,0,1-.627.165,4.556,4.556,0,0,1-1.737,0,5.023,5.023,0,0,1-.622-.163c-55.541-18.848-90.966-50.257-108.295-96.019C18.483,172.3,19.342,128.388,20.1,89.651l.005-.215c.154-3.329.257-6.816.314-10.647A15.639,15.639,0,0,1,35.373,63.675c21.917-1.191,41.171-5.312,58.862-12.6A154.334,154.334,0,0,0,142.2,19.711a1.86,1.86,0,0,1,2.446,0,154.393,154.393,0,0,0,47.968,31.364c17.692,7.288,36.946,11.41,58.865,12.6a15.636,15.636,0,0,1,14.952,15.117c.059,3.851.162,7.338.316,10.645C267.507,128.218,268.344,172.162,253.145,212.267Zm0,0" transform="translate(0 0.001)" fill="#0d1b3a"/>
      <path id="Path_499" data-name="Path 499" d="M174.241,128.41c-46.232,0-83.843,37.726-83.843,84.095s37.611,84.1,83.843,84.1,83.843-37.726,83.843-84.1S220.471,128.41,174.241,128.41Zm0,148.39a64.3,64.3,0,1,1,64.1-64.3A64.271,64.271,0,0,1,174.241,276.8Zm0,0" transform="translate(-30.823 -48.588)" fill="#0d1b3a"/>
      <path id="Path_500" data-name="Path 500" d="M220.235,214.893l-39.06,39.06-10.6-10.6a9.9,9.9,0,0,0-14,14l17.6,17.6a9.9,9.9,0,0,0,14,0l46.063-46.062a9.9,9.9,0,1,0-14-14Zm0,0" transform="translate(-52.646 -77.222)" fill="#e36410"/>
    </g>
  </g>
</svg>
