<svg xmlns="http://www.w3.org/2000/svg" width="512" height="512" viewBox="0 0 512 512">
  <g id="ic_support_24x7" transform="translate(-1797 -7634)">
    <g id="Ellipse_963" data-name="Ellipse 963" transform="translate(1797 7634)" fill="none" stroke="#0d1b3a" stroke-width="12">
      <circle cx="256" cy="256" r="256" stroke="none"/>
      <circle cx="256" cy="256" r="250" fill="none"/>
    </g>
    <g id="Group_30633" data-name="Group 30633" transform="translate(2 -14)">
      <g id="Group_30632" data-name="Group 30632" transform="translate(-95 162)">
        <path id="Path_5021" data-name="Path 5021" d="M249,9.25H83.648a7.416,7.416,0,0,0-7.416,7.416V125.749a7.416,7.416,0,0,0,7.416,7.416h20.909V155.2a7.416,7.416,0,0,0,12.645,5.263l27.3-27.3H249a7.416,7.416,0,0,0,7.416-7.416V16.666A7.416,7.416,0,0,0,249,9.25Zm-7.416,109.083H141.446a7.416,7.416,0,0,0-5.242,2.174l-16.815,16.807V125.749a7.416,7.416,0,0,0-7.416-7.416H91.064V24.082H241.579Z" transform="translate(2046.619 7576.75)" fill="#0d1b3a"/>
        <path id="Path_5022" data-name="Path 5022" d="M98.976,45.445A12.582,12.582,0,1,0,86.394,32.863,12.582,12.582,0,0,0,98.976,45.445Z" transform="translate(2079.521 7612.465)" fill="#ec691f"/>
        <path id="Path_5023" data-name="Path 5023" d="M115.233,45.445a12.582,12.582,0,1,0-12.582-12.582,12.582,12.582,0,0,0,12.582,12.582Z" transform="translate(2132.156 7612.465)" fill="#ec691f"/>
        <path id="Path_5024" data-name="Path 5024" d="M107.1,45.445A12.582,12.582,0,1,0,94.522,32.863,12.582,12.582,0,0,0,107.1,45.445Z" transform="translate(2105.836 7612.465)" fill="#ec691f"/>
      </g>
      <g id="Path_131348" data-name="Path 131348" transform="translate(1893 7790)" fill="#0d1b3a">
        <path d="M 214.6565399169922 270.4411010742188 L 213.6567535400391 270.4411010742188 L 213.6564331054688 270.4411010742188 C 213.5404968261719 270.4411010742188 213.42431640625 270.4408874511719 213.3085021972656 270.4403686523438 C 195.5362854003906 270.4403686523438 176.1428833007813 265.1209411621094 155.6713562011719 254.6298370361328 C 143.7577056884766 248.5244140625 131.3132171630859 240.5668029785156 118.6835327148438 230.9780883789063 C 104.9191436767578 220.5278778076172 90.58253479003906 207.8722686767578 76.07192993164063 193.3628082275391 L 76.06467437744141 193.3555450439453 L 76.05753326416016 193.3481292724609 L 63.50688934326172 180.2722625732422 C 62.49817657470703 179.2108764648438 61.95331954956055 177.7685241699219 62.00860595703125 176.3115234375 C 62.06460571289063 174.8526611328125 62.71792602539063 173.4558715820313 63.80099868774414 172.4788360595703 L 63.80353164672852 172.4765472412109 L 63.80606842041016 172.4743041992188 C 64.82820892333984 171.5648040771484 66.14424896240234 171.0639038085938 67.51171112060547 171.0639038085938 C 69.04039001464844 171.0639038085938 70.46635437011719 171.6697387695313 71.52689361572266 172.7697601318359 L 83.84758758544922 185.6021728515625 C 132.8831329345703 234.6354370117188 176.385498046875 259.4989929199219 213.1431427001953 259.4989929199219 C 219.6479949951172 259.4989929199219 225.9214324951172 258.6822509765625 231.7893371582031 257.0713500976563 C 237.3419036865234 255.502685546875 242.0048828125 251.8958282470703 244.9190979003906 246.9148101806641 L 244.9218902587891 246.9100494384766 L 244.9247131347656 246.9053344726563 L 258.6067504882813 224.0990905761719 C 260.2325439453125 221.40087890625 259.4507446289063 217.9245147705078 256.827880859375 216.1832275390625 L 202.2911376953125 179.8102722167969 C 201.3241119384766 179.1717681884766 200.1981048583984 178.8329162597656 199.0387115478516 178.8329162597656 C 197.2081756591797 178.8329162597656 195.5108184814453 179.6575164794922 194.3818511962891 181.0953063964844 L 178.5071716308594 201.5040740966797 C 176.9294891357422 203.5669860839844 174.8653869628906 205.2547302246094 172.5381469726563 206.3844757080078 C 170.2714233398438 207.4849090576172 167.7407073974609 208.0665893554688 165.2195739746094 208.0666198730469 C 162.3712310791016 208.0666198730469 159.5482330322266 207.3282623291016 157.0556488037109 205.9313201904297 L 154.1101379394531 204.3079833984375 L 154.1036376953125 204.304443359375 C 143.5290374755859 198.5371246337891 130.3686065673828 191.3594512939453 104.2269287109375 165.2220458984375 C 78.08374786376953 139.0826568603516 70.90606689453125 125.9172668457031 65.13867950439453 115.3387298583984 L 65.13388824462891 115.3299789428711 L 63.5150260925293 112.3891906738281 C 61.54953765869141 108.8806838989258 60.91485977172852 104.7799835205078 61.72764205932617 100.8413009643555 C 62.54071807861328 96.90117645263672 64.74856567382813 93.38526916503906 67.94425201416016 90.94126892089844 L 88.35617828369141 75.06369781494141 C 90.75849914550781 73.17933654785156 91.32203674316406 69.70387268066406 89.63588714599609 67.15394592285156 L 53.26631927490234 12.62226676940918 C 52.17517471313477 10.97858810424805 50.34614181518555 9.99833869934082 48.37249755859375 9.99833869934082 C 47.31028366088867 9.99833869934082 46.26542663574219 10.28958797454834 45.35089111328125 10.84062385559082 L 22.54253387451172 24.52366065979004 L 22.53767585754395 24.52655220031738 L 22.53278350830078 24.52940940856934 C 17.54820442199707 27.44341659545898 13.93588542938232 32.10772323608398 12.36034870147705 37.66353988647461 C 10.05179786682129 46.62143325805664 9.415936470031738 55.82206344604492 10.47047996520996 65.01155090332031 C 11.62898063659668 74.35681915283203 13.94789123535156 83.54582977294922 17.36305999755859 92.32379913330078 C 24.5194206237793 110.2266464233398 34.12064361572266 127.0441665649414 45.90024948120117 142.3096313476563 L 45.91371154785156 142.3271179199219 L 45.92642593383789 142.3451538085938 C 46.76046371459961 143.53076171875 47.65103149414063 144.6972961425781 48.57335662841797 145.8124084472656 L 48.58196258544922 145.8228454589844 L 48.59028244018555 145.8334503173828 C 50.43874740600586 148.1953735351563 50.02396011352539 151.6244812011719 47.66574859619141 153.4774780273438 L 47.66271209716797 153.4798736572266 L 47.65964126586914 153.4822387695313 C 46.67642593383789 154.2426300048828 45.50092697143555 154.6445922851563 44.26028442382813 154.6446228027344 C 42.55212783813477 154.6446533203125 40.96448135375977 153.8786926269531 39.90295791625977 152.5428924560547 C 38.92877960205078 151.3629760742188 37.99462509155273 150.1298675537109 37.12606430053711 148.8772888183594 C 24.72707748413086 132.7991333007813 14.62403106689453 115.0850296020508 7.098533153533936 96.22812652587891 L 7.096818923950195 96.22383880615234 L 7.09514045715332 96.21952056884766 C 3.349604845046997 86.57562255859375 0.8137833476066589 76.47812652587891 -0.4418595433235168 66.20751953125 L -0.4423238039016724 66.20359039306641 L -0.4427880942821503 66.19969177246094 C -1.041538119316101 60.96026611328125 -1.157752394676208 55.63601684570313 -0.7882524132728577 50.37487411499023 C -0.4187524020671844 45.11401748657227 0.4404619038105011 39.85812377929688 1.765604734420776 34.75312423706055 L 1.768140435218811 34.743408203125 L 1.770854711532593 34.73376846313477 C 2.925069093704224 30.62733840942383 4.830747604370117 26.83205223083496 7.434961795806885 23.45330238342285 C 10.03765487670898 20.07655906677246 13.22080898284912 17.26810455322266 16.89567565917969 15.10613632202148 L 39.69899749755859 1.407802581787109 C 42.31999588012695 -0.167554572224617 45.31517791748047 -1.000304579734802 48.3604621887207 -1.000304579734802 C 54.01828384399414 -1.000304579734802 59.26456832885742 1.809659719467163 62.39428329467773 6.516374111175537 L 98.76531982421875 61.05494689941406 C 101.1184997558594 64.61726379394531 102.0360336303711 68.89555358886719 101.351318359375 73.10540771484375 C 100.6666030883789 77.31508636474609 98.44064331054688 81.08219909667969 95.08346557617188 83.7127685546875 L 74.66753387451172 99.59719848632813 L 74.66407012939453 99.59990692138672 L 74.66056823730469 99.60255432128906 C 72.37689208984375 101.3473358154297 71.71820831298828 104.5514068603516 73.12846374511719 107.0554428100586 L 73.13124847412109 107.0603713989258 L 73.13396453857422 107.0653762817383 L 74.79103088378906 110.0873718261719 C 80.22895812988281 120.0453414916992 86.99560546875 132.4364776611328 112.0086441040039 157.4584808349609 C 137.0289306640625 182.4877319335938 149.4205017089844 189.2421264648438 159.3772888183594 194.6693725585938 L 162.4034576416016 196.3377685546875 C 163.2648162841797 196.8162689208984 164.2356109619141 197.0683746337891 165.2137145996094 197.0683746337891 C 167.0431823730469 197.0683746337891 168.7261047363281 196.2331237792969 169.8309631347656 194.7767639160156 L 169.8346099853516 194.7719879150391 L 169.8382873535156 194.7672271728516 L 185.7248840332031 174.3408050537109 C 187.3537139892578 172.2610931396484 189.3796081542969 170.6345825195313 191.7484283447266 169.5037689208984 C 194.0151062011719 168.4216918945313 196.5427856445313 167.8497619628906 199.0582122802734 167.8497619628906 C 202.3800048828125 167.8497619628906 205.6040649414063 168.8210906982422 208.3818206787109 170.6587677001953 L 262.9245910644531 207.0325469970703 C 266.5503234863281 209.4435119628906 269.0736389160156 213.1118316650391 270.0286865234375 217.3609771728516 C 270.9837036132813 221.6100463867188 270.2727966308594 226.0051879882813 268.0268859863281 229.7368011474609 L 254.3155212402344 252.5252838134766 C 252.155517578125 256.2013854980469 249.3477020263672 259.3849182128906 245.9701690673828 261.9873962402344 C 242.5911102294922 264.591064453125 238.7950286865234 266.4950256347656 234.6874237060547 267.646484375 L 234.6829681396484 267.6477355957031 L 234.6785278320313 267.6488952636719 C 228.1481781005859 269.4147033691406 221.4179077148438 270.3508911132813 214.6565399169922 270.4348754882813 L 214.6565399169922 270.4411010742188 Z M 55.24271011352539 168.5928039550781 L 55.17438888549805 168.5862274169922 C 53.724853515625 168.4463806152344 52.3887825012207 167.7745208740234 51.41231918334961 166.6943359375 L 51.40403366088867 166.6851654052734 L 51.39596176147461 166.6757659912109 C 50.44917678833008 165.5748748779297 49.96335601806641 164.1698455810547 50.02799606323242 162.719482421875 L 50.02960586547852 162.6829528808594 L 50.03392791748047 162.6466217041016 C 50.20439147949219 161.2044525146484 50.90414047241211 159.8880462646484 52.0042839050293 158.9399871826172 L 52.01399612426758 158.9316253662109 L 52.02392578125 158.9234771728516 C 52.57744216918945 158.4707183837891 53.20606231689453 158.1366119384766 53.89266967773438 157.9302520751953 C 54.44427490234375 157.7494659423828 55.01861572265625 157.6578369140625 55.59999847412109 157.6578369140625 C 55.71292495727539 157.6578369140625 55.82717514038086 157.6613616943359 55.94017028808594 157.6683807373047 L 55.96588897705078 157.6683807373047 L 56.00628280639648 157.6716613769531 C 57.44803237915039 157.7887268066406 58.76856994628906 158.4510192871094 59.72471237182617 159.5365600585938 C 60.68085479736328 160.6220855712891 61.17110443115234 162.0157318115234 61.10517501831055 163.4607696533203 L 61.10403442382813 163.4855499267578 L 61.10167694091797 163.5102691650391 C 60.96467590332031 164.9447631835938 60.29799652099609 166.2645568847656 59.22442626953125 167.2264862060547 L 59.20838928222656 167.2408447265625 L 59.1917839050293 167.2544860839844 C 58.92485427856445 167.4736938476563 58.6379280090332 167.6766967773438 58.33892440795898 167.8578796386719 C 58.0284538269043 168.0459747314453 57.69501876831055 168.1886444091797 57.34670639038086 168.2825469970703 C 56.99185562133789 168.4203948974609 56.62020492553711 168.5102844238281 56.24099731445313 168.5499114990234 L 56.20956802368164 168.5531921386719 L 56.17799758911133 168.5545196533203 L 55.31131744384766 168.5900115966797 L 55.24271011352539 168.5928039550781 Z" stroke="none"/>
        <path d="M 213.6567535400391 269.4411010742188 C 220.6671447753906 269.4411010742188 227.6484832763672 268.513916015625 234.4174957275391 266.68359375 C 242.4221343994141 264.4397277832031 249.2461090087891 259.1819152832031 253.4563140869141 252.0136260986328 L 267.1701049804688 229.2211303710938 C 271.5379943847656 221.9638366699219 269.4234313964844 212.5549774169922 262.3697814941406 207.8645172119141 L 207.8300628662109 171.4927673339844 C 205.1349945068359 169.7098083496094 202.0831756591797 168.8497772216797 199.0582275390625 168.8497772216797 C 194.3150177001953 168.8497772216797 189.6387481689453 170.9653015136719 186.5142517089844 174.9547271728516 L 170.6276397705078 195.3811645507813 C 169.3036651611328 197.1263275146484 167.2789916992188 198.0683746337891 165.2137298583984 198.0683746337891 C 164.0928039550781 198.0683746337891 162.9598388671875 197.7908020019531 161.9206695556641 197.2134857177734 L 158.898681640625 195.5474090576172 C 148.8808135986328 190.0868682861328 136.4159240722656 183.2889862060547 111.3013916015625 158.1654510498047 C 86.18685150146484 133.0419158935547 79.37474822998047 120.5675506591797 73.91421508789063 110.5681610107422 L 72.25714111328125 107.5461578369141 C 70.59388732910156 104.5928726196289 71.36013793945313 100.8656921386719 74.05345916748047 98.80794525146484 L 94.4666748046875 82.92562103271484 C 100.9979248046875 77.8079833984375 102.5068206787109 68.53319549560547 97.93335723876953 61.60976791381836 L 61.56156921386719 7.070088386535645 C 58.52050399780273 2.496674299240112 53.49661636352539 -0.0003140520420856774 48.36045455932617 -0.0003140520420856774 C 45.57877349853516 -0.0003140520420856774 42.763427734375 0.7326540350914001 40.21396255493164 2.265016794204712 L 17.40774726867676 15.965087890625 C 10.24185466766357 20.1790885925293 4.983068943023682 27.00115966796875 2.733533382415771 35.00437545776367 C 0.1017833277583122 45.14301681518555 -0.6384309530258179 55.67994689941406 0.5507476329803467 66.08615875244141 C 1.797247648239136 76.28208923339844 4.308676242828369 86.28291320800781 8.027318954467773 95.85748291015625 C 15.52049732208252 114.6334457397461 25.58571243286133 132.2789459228516 37.93317794799805 148.2863311767578 C 38.7979621887207 149.5347290039063 39.71435546875 150.7442626953125 40.68092727661133 151.9145202636719 C 41.5808219909668 153.0509185791016 42.91364288330078 153.6446380615234 44.26025772094727 153.6446075439453 C 45.23532867431641 153.6445770263672 46.21768951416016 153.3332366943359 47.04788970947266 152.6911926269531 C 48.977783203125 151.1747741699219 49.31496047973633 148.3820190429688 47.80278396606445 146.4497680664063 C 46.85988998413086 145.3097991943359 45.96146011352539 144.1329803466797 45.1085319519043 142.9205474853516 C 33.27396011352539 127.5838012695313 23.62314033508301 110.679443359375 16.43310546875 92.69151306152344 C 12.98392581939697 83.82733917236328 10.64724731445313 74.56958770751953 9.477461814880371 65.12947845458984 C 8.411890029907227 55.84755325317383 9.062140464782715 46.44869613647461 11.39503288269043 37.40216064453125 C 13.03128337860107 31.62105178833008 16.84181976318359 26.69805335998535 22.02810478210449 23.66612434387207 L 44.83481979370117 9.984087944030762 C 45.94170379638672 9.317158699035645 47.16413879394531 8.998349189758301 48.37248611450195 8.998349189758301 C 50.60062408447266 8.998349189758301 52.78063201904297 10.08254432678223 54.09824752807617 12.06740951538086 L 90.47003173828125 66.60237121582031 C 92.45578002929688 69.60540771484375 91.80367279052734 73.63044738769531 88.97013854980469 75.85301971435547 L 68.55271148681641 91.73487091064453 C 62.33917617797852 96.48594665527344 60.56513977050781 105.0830154418945 64.39031982421875 111.9055862426758 L 66.01189422607422 114.8513031005859 C 71.75038909912109 125.3768768310547 78.88553619384766 138.4701995849609 104.9339599609375 164.5148773193359 C 130.9823913574219 190.5590515136719 144.0719604492188 197.6941528320313 154.5928192138672 203.4321899414063 L 157.5428161621094 205.0580139160156 C 159.9621887207031 206.4143218994141 162.6045227050781 207.0666351318359 165.2195587158203 207.0666046142578 C 169.9788360595703 207.0665588378906 174.6472625732422 204.90576171875 177.7135314941406 200.8956604003906 L 193.5953521728516 180.4777374267578 C 194.9527282714844 178.7490539550781 196.9807586669922 177.8329162597656 199.0387115478516 177.8329162597656 C 200.3511505126953 177.8329162597656 201.6760406494141 178.205810546875 202.8459930419922 178.9783325195313 L 257.3810119628906 215.3501281738281 C 260.4427185058594 217.3827667236328 261.3610229492188 221.4655914306641 259.4642944335938 224.6135559082031 L 245.7822418212891 247.4197998046875 C 242.7512512207031 252.6003723144531 237.8316040039063 256.4052429199219 232.0552062988281 258.0353698730469 C 226.5737915039063 259.5402526855469 220.2819366455078 260.4989929199219 213.1431274414063 260.4989929199219 C 184.3046264648438 260.4989929199219 141.6767730712891 244.8455505371094 83.13314056396484 186.3019409179688 L 70.80699920654297 173.4638366699219 C 69.91086578369141 172.5343322753906 68.71318054199219 172.0639038085938 67.51172637939453 172.0639038085938 C 66.42799377441406 172.0639038085938 65.34114074707031 172.4469451904297 64.47081756591797 173.2213745117188 C 63.58096313476563 174.0240936279297 63.05385589599609 175.1521911621094 63.00788879394531 176.3494415283203 C 62.96246337890625 177.5461883544922 63.40288925170898 178.7112274169922 64.22835540771484 179.5798034667969 L 76.77899932861328 192.6556549072266 C 137.2953948974609 253.1672973632813 182.3471374511719 269.4403686523438 213.3128509521484 269.4403686523438 C 213.42724609375 269.4408874511719 213.5419616699219 269.4411010742188 213.6563568115234 269.4411010742188 C 213.6567840576172 269.4411010742188 213.6563262939453 269.4411010742188 213.6567535400391 269.4411010742188 M 55.27038955688477 167.5908355712891 L 56.13706970214844 167.5553436279297 C 56.44535446166992 167.5231170654297 56.74799728393555 167.4473419189453 57.03496170043945 167.3303680419922 C 57.31203460693359 167.26123046875 57.5767822265625 167.1504058837891 57.82067489624023 167.0026550292969 C 58.07781982421875 166.8468322753906 58.32410430908203 166.6730499267578 58.55710601806641 166.481689453125 C 59.44035339355469 165.6903076171875 59.99349594116211 164.5953674316406 60.1062126159668 163.4151916503906 C 60.21799850463867 160.9653015136719 58.36956787109375 158.8668365478516 55.92535400390625 158.6683807373047 L 55.90781784057617 158.6683807373047 C 55.80520248413086 158.6613311767578 55.70258331298828 158.6578216552734 55.59999847412109 158.6578216552734 C 55.12261581420898 158.6578216552734 54.64741897583008 158.73388671875 54.19249725341797 158.8843383789063 C 53.63224792480469 159.0510559082031 53.10985565185547 159.3271636962891 52.6571044921875 159.697509765625 C 51.74924850463867 160.4798736572266 51.16767501831055 161.5738677978516 51.02699661254883 162.7640228271484 C 50.97396087646484 163.9541625976563 51.37746047973633 165.1206207275391 52.15414047241211 166.0237274169922 C 52.96113967895508 166.9164428710938 54.07267761230469 167.4752960205078 55.27038955688477 167.5908355712891 M 213.6567535400391 271.4411010742188 L 213.6565399169922 271.4411010742188 C 213.5418395996094 271.4411010742188 213.4270629882813 271.4408874511719 213.3125305175781 271.4403686523438 C 195.3761749267578 271.4403686523438 175.8293151855469 266.0839233398438 155.2152862548828 255.5197601318359 C 143.2496032714844 249.3876647949219 130.7550659179688 241.3986206054688 118.0788192749023 231.7745513916016 C 104.2784652709961 221.2970123291016 89.90738677978516 208.6113433837891 75.36485290527344 194.0699462890625 L 75.35031890869141 194.0554046630859 L 75.33610534667969 194.0405883789063 L 62.78546142578125 180.9647369384766 L 62.78203201293945 180.9611663818359 L 62.77864074707031 180.9575958251953 C 61.58874893188477 179.7055511474609 60.94385528564453 177.9983062744141 61.00931930541992 176.2735900878906 C 61.07564163208008 174.5463714599609 61.84903335571289 172.8929443359375 63.13117599487305 171.7362976074219 L 63.13624572753906 171.7317657470703 L 63.14131927490234 171.7272338867188 C 64.34674835205078 170.6546173095703 65.89885711669922 170.0639038085938 67.51171112060547 170.0639038085938 C 69.31442260742188 170.0639038085938 70.99603271484375 170.7783813476563 72.24681854248047 172.0756988525391 L 84.56114196777344 184.9015197753906 C 133.3987121582031 233.7345275878906 176.6625518798828 258.4989929199219 213.1431427001953 258.4989929199219 C 219.5565795898438 258.4989929199219 225.7390289306641 257.6947631835938 231.5192108154297 256.1085205078125 C 236.8212890625 254.6103515625 241.2731475830078 251.1662750244141 244.0559997558594 246.4098358154297 L 244.0615386962891 246.4003448486328 L 244.0672149658203 246.3909149169922 L 257.7492370605469 223.5846557617188 C 259.0989990234375 221.344482421875 258.4505004882813 218.4607696533203 256.2748107910156 217.0163726806641 L 201.7422485351563 180.6462097167969 C 200.9357604980469 180.1141510009766 200.0009002685547 179.8329162597656 199.0387115478516 179.8329162597656 C 197.5173950195313 179.8329162597656 196.1068115234375 180.5179901123047 195.1686706542969 181.7125091552734 L 179.2968597412109 202.1175537109375 C 177.6254577636719 204.3011016845703 175.4394989013672 206.0876159667969 172.9748840332031 207.2840881347656 C 170.5728607177734 208.4501953125 167.8911437988281 209.0665893554688 165.2196044921875 209.0666198730469 C 162.2016296386719 209.0666198730469 159.2109832763672 208.2848663330078 156.5702514648438 206.8056488037109 L 153.6292572021484 205.1847991943359 L 153.6248168945313 205.182373046875 C 142.993896484375 199.3843078613281 129.7633972167969 192.1684417724609 103.5198516845703 165.92919921875 C 77.2747802734375 139.6878814697266 70.05882263183594 126.4523391723633 64.26067352294922 115.8174133300781 L 64.25871276855469 115.8137969970703 L 62.64092254638672 112.8749465942383 C 60.55935287475586 109.1572570800781 59.88714599609375 104.8122406005859 60.74828338623047 100.6392288208008 C 61.60948944091797 96.46567535400391 63.94734954833984 92.74121856689453 67.33123779296875 90.15118408203125 L 87.73931121826172 74.27660369873047 C 89.73365020751953 72.70919036865234 90.20118713378906 69.82621765136719 88.80428314208984 67.70929718017578 L 52.43435287475586 13.1771240234375 C 51.5278205871582 11.81148147583008 50.01024627685547 10.99833869934082 48.37249755859375 10.99833869934082 C 47.49214172363281 10.99833869934082 46.62574768066406 11.23998069763184 45.86699676513672 11.69715976715088 L 23.05699729919434 25.38115882873535 L 23.04728317260742 25.38701629638672 L 23.03749847412109 25.39273071289063 C 18.28054237365723 28.17367935180664 14.83235263824463 32.62322616577148 13.32585906982422 37.92416381835938 C 11.05078792572021 46.75778198242188 10.42422389984131 55.83181381225586 11.46353340148926 64.89358520507813 C 12.61182117462158 74.15343475341797 14.90943241119385 83.25815582275391 18.29301261901855 91.95610809326172 C 25.4149169921875 109.7718505859375 34.96957015991211 126.5074081420898 46.69192504882813 141.69873046875 L 46.71889114379883 141.7336883544922 L 46.74431991577148 141.7698059082031 C 47.56346130371094 142.9341888427734 48.43810653686523 144.0799102783203 49.34392547607422 145.175048828125 L 49.36114120483398 145.1958770751953 L 49.37778472900391 145.2171630859375 C 51.56542587280273 148.0124816894531 51.07453155517578 152.0707702636719 48.2835693359375 154.2638092041016 L 48.27749633789063 154.2685852050781 L 48.27138900756836 154.2733001708984 C 47.11138916015625 155.1703796386719 45.72439193725586 155.6445465087891 44.26031875610352 155.6446228027344 C 42.24913787841797 155.6446533203125 40.37955856323242 154.7444763183594 39.1272087097168 153.1740112304688 C 38.14225387573242 151.9806518554688 37.19738006591797 150.7337799072266 36.31827545166016 149.4673004150391 C 23.87004661560059 133.3213653564453 13.72632122039795 115.5335388183594 6.169783115386963 96.59880065917969 L 6.166354656219482 96.59019470214844 L 6.162997722625732 96.58155059814453 C 2.387390375137329 86.86030578613281 -0.1687881052494049 76.68183898925781 -1.43446671962738 66.32887268066406 L -1.435431003570557 66.32105255126953 L -1.436323761940002 66.313232421875 C -2.042002439498901 61.01301574707031 -2.159573793411255 55.62701797485352 -1.785788059234619 50.30480194091797 C -1.412038087844849 44.98294448852539 -0.5428237915039063 39.66608810424805 0.7976762056350708 34.50187301635742 L 0.8027119040489197 34.48248291015625 L 0.8081404566764832 34.46319580078125 C 1.997176170349121 30.23301696777344 3.96024751663208 26.32337379455566 6.642926216125488 22.84283828735352 C 9.323681831359863 19.36478424072266 12.60213375091553 16.47209739685059 16.3870964050293 14.24510860443115 L 39.1840705871582 0.5505883097648621 C 41.96039199829102 -1.118126034736633 45.13367462158203 -2.000304460525513 48.3604621887207 -2.000304460525513 C 54.35388946533203 -2.000304460525513 59.91146087646484 0.9765168428421021 63.22699737548828 5.96265983581543 L 99.59728240966797 60.50012588500977 L 99.59970855712891 60.50376510620117 L 99.60214233398438 60.50740814208984 C 102.0917816162109 64.27630615234375 103.0635299682617 68.807373046875 102.3383560180664 73.26594543457031 C 101.6131744384766 77.72430419921875 99.25571441650391 81.71394348144531 95.70021057128906 84.49990844726563 L 95.69753265380859 84.50201416015625 L 95.69481658935547 84.50412750244141 L 75.28160095214844 100.3864440917969 L 75.27467346191406 100.3918380737305 L 75.26767730712891 100.3971939086914 C 73.37781524658203 101.8410491943359 72.83274841308594 104.4925537109375 73.99978637695313 106.5647277832031 L 74.00535583496094 106.5746231079102 L 74.01081848144531 106.5845489501953 L 75.66789245605469 109.6065521240234 C 81.07595825195313 119.5098724365234 87.80438995361328 131.8311309814453 112.7158584594727 156.7514801025391 C 137.6341705322266 181.6787261962891 149.9554901123047 188.3948364257813 159.8558959960938 193.7913360595703 L 159.8600616455078 193.7936248779297 L 159.8642883300781 193.7959442138672 L 162.8862762451172 195.4620208740234 L 162.8891448974609 195.4635925292969 L 162.8919677734375 195.4651641845703 C 163.6022796630859 195.8598022460938 164.4051361083984 196.0683746337891 165.2137145996094 196.0683746337891 C 166.7276000976563 196.0683746337891 168.1201477050781 195.3773040771484 169.0342864990234 194.1723785400391 L 169.0415344238281 194.1627960205078 L 169.0489196777344 194.1533050537109 L 184.9355316162109 173.7268676757813 L 184.9376068115234 173.7241973876953 L 184.9396820068359 173.7215576171875 C 186.6624298095703 171.5219116210938 188.8082885742188 169.7992248535156 191.3176116943359 168.6013336181641 C 193.7180023193359 167.4554443359375 196.3946380615234 166.8497619628906 199.0582122802734 166.8497619628906 C 202.5768585205078 166.8497619628906 205.9916687011719 167.8784790039063 208.9335632324219 169.8247375488281 L 208.9366455078125 169.8267974853516 L 208.9397125244141 169.8288421630859 L 263.4794311523438 206.2005920410156 C 267.3193969726563 208.7540588378906 269.9925842285156 212.6401977539063 271.0043640136719 217.1416931152344 C 272.01611328125 221.6431274414063 271.2629699707031 226.2992706298828 268.8836669921875 230.25244140625 L 255.1750030517578 253.0364837646484 C 252.9501495361328 256.8216857910156 250.0587005615234 260.0995178222656 246.5805358886719 262.7795104980469 C 243.0995025634766 265.4617309570313 239.1888885498047 267.4231567382813 234.9573211669922 268.609375 L 234.9484558105469 268.6118469238281 L 234.9395294189453 268.6142578125 C 228.0025329589844 270.4900207519531 220.8419647216797 271.4411010742188 213.6567535400391 271.4411010742188 Z M 55.21503448486328 169.5947723388672 L 55.07835388183594 169.5815887451172 C 53.37999725341797 169.4177703857422 51.81460571289063 168.6305541992188 50.67049789428711 167.3649139404297 L 50.65388870239258 167.3465881347656 L 50.63778305053711 167.3278045654297 C 49.52431869506836 166.0331268310547 48.95296096801758 164.3806915283203 49.02899932861328 162.6749877929688 L 49.03224945068359 162.6019134521484 L 49.04081726074219 162.5292358398438 C 49.24074935913086 160.8379821777344 50.06135559082031 159.2942657470703 51.35149765014648 158.1824798583984 L 51.37092590332031 158.1657257080078 L 51.39078521728516 158.1494750976563 C 52.04377365112305 157.6153259277344 52.78479766845703 157.2205657958984 53.59381103515625 156.9758911132813 C 54.24221420288086 156.7648468017578 54.91699981689453 156.6578369140625 55.59999847412109 156.6578369140625 C 55.72285842895508 156.6578369140625 55.84700012207031 156.661376953125 55.97002410888672 156.6683807373047 L 56.00642776489258 156.6683807373047 L 56.08721160888672 156.6749420166016 C 57.78853225708008 156.8130950927734 59.34685516357422 157.5946197509766 60.47510528564453 158.8755950927734 C 61.60342788696289 160.1565551757813 62.18192672729492 161.8011627197266 62.10414123535156 163.5063781738281 L 62.10185623168945 163.5559387207031 L 62.09714126586914 163.6053314208984 C 61.93617630004883 165.2906951904297 61.15296173095703 166.8412017822266 59.89174652099609 167.9712371826172 L 59.85967636108398 167.9999389648438 L 59.8264274597168 168.0272674560547 C 59.52285385131836 168.2765808105469 59.19674682617188 168.5073394775391 58.857177734375 168.7131195068359 C 58.48160552978516 168.9406433105469 58.07926940917969 169.1154174804688 57.6590576171875 169.2337341308594 C 57.23634719848633 169.39306640625 56.79497909545898 169.4974975585938 56.34492492675781 169.5445098876953 L 56.28207015991211 169.5510864257813 L 56.21892547607422 169.5536651611328 L 55.35224914550781 169.5891571044922 L 55.21503448486328 169.5947723388672 Z" stroke="none" fill="#0d1b3a"/>
      </g>
    </g>
  </g>
</svg>
