<svg xmlns="http://www.w3.org/2000/svg" width="250" height="250" viewBox="0 0 250 250">
  <g id="ic_support" transform="translate(-600 -2137)">
    <g id="Path_97948" data-name="Path 97948" transform="translate(600 2137)" fill="none">
      <path d="M125,0A125,125,0,1,1,0,125,125,125,0,0,1,125,0Z" stroke="none"/>
      <path d="M 125 6 C 59.38319396972656 6 6 59.38319396972656 6 125 C 6 190.6168060302734 59.38319396972656 244 125 244 C 190.6168060302734 244 244 190.6168060302734 244 125 C 244 59.38319396972656 190.6168060302734 6 125 6 M 125 0 C 194.0355834960938 0 250 55.96441650390625 250 125 C 250 194.0355834960938 194.0355834960938 250 125 250 C 55.96441650390625 250 0 194.0355834960938 0 125 C 0 55.96441650390625 55.96441650390625 0 125 0 Z" stroke="none" fill="#0d1b3a"/>
    </g>
    <g id="Group_21397" data-name="Group 21397">
      <path id="Path_97953" data-name="Path 97953" d="M157.158,73.626a75.005,75.005,0,0,0-10.242-36.313C152.158,12.235,125.641-8.159,102.8,3.245a73.978,73.978,0,0,0-66.3,12.28c-2.5,1.921.522,5.652,2.923,3.812A70.222,70.222,0,0,1,97.5,6.564,31.322,31.322,0,0,0,92.4,11.558C55.038,5.175,19.474,34.065,17.77,71.6a19.068,19.068,0,0,0-5.9.561,68.986,68.986,0,0,1,16.89-42.729c2.068-2.316-1.516-5.515-3.583-3.2C13.759,39.022,7.161,56.548,7,74.427A15.975,15.975,0,0,0,.088,87.582v23.207c0,10.257,8.734,16.218,18.2,15.98,3.348,9.674,17.463,7.573,17.7-2.808V73.585A9.117,9.117,0,0,0,23.3,65.262c4.887-30.668,34.464-53.419,66.094-49.28C82.6,27.573,84.883,43.854,94.715,53.2v6.521q.481,2.9,3.336,2.212l5.846-2.47c11.027,5.166,25.394,2.528,33.816-5.73a58.927,58.927,0,0,1,3.169,11.555,9.116,9.116,0,0,0-12.741,8.3V123.96A9.1,9.1,0,0,0,141.6,131.9c-.012,2.122-.051,4.244-.134,6.344a15.357,15.357,0,0,1-12.643,13.774,67.924,67.924,0,0,1-7.6.25,9.314,9.314,0,0,0-8.972-6.856H99.5c-12.331.509-12.333,18.084,0,18.594h12.752a9.314,9.314,0,0,0,8.993-6.935,48.773,48.773,0,0,0,8.27-.3,20.332,20.332,0,0,0,16.871-18.191c0-.032,0-.064,0-.1.167-4.179.041-8.4,0-12.542,9.283.45,17.654-6.315,17.654-15.98V86.757a15.974,15.974,0,0,0-6.882-13.131ZM4.891,110.789V87.582c0-7,6.162-11.557,12.779-11.177v45.56C11.05,122.332,4.891,117.812,4.891,110.789ZM26.913,69.315a4.275,4.275,0,0,1,4.27,4.27v50.375a4.27,4.27,0,0,1-8.541,0V73.585a4.275,4.275,0,0,1,4.27-4.27Zm85.339,89.89H99.5a4.494,4.494,0,0,1,0-8.988h12.752A4.494,4.494,0,0,1,112.252,159.2Zm40.013-87.865a19.069,19.069,0,0,0-5.91-.562,63.825,63.825,0,0,0-5.075-21.011,31.062,31.062,0,0,0,3.61-6.124A70.225,70.225,0,0,1,152.265,71.339ZM116.5,57.325A25.987,25.987,0,0,1,105,54.676a2.4,2.4,0,0,0-1.989-.054L99.519,56.1V52.169a2.4,2.4,0,0,0-.776-1.768C81.256,34.353,92.741,4.847,116.5,4.86,151.308,6.3,151.3,55.889,116.5,57.325Zm42.735,52.639c0,7.077-6.248,11.579-12.906,11.177q-.045-3.871-.042-7.743c0-3.105-4.8-3.105-4.8,0V123.96a4.27,4.27,0,1,1-8.541,0V73.585a4.27,4.27,0,0,1,8.541,0v27.028c0,3.105,4.8,3.105,4.8,0V75.581c6.674-.378,12.948,4.038,12.948,11.177Z" transform="translate(642.77 2179.863)" fill="#0d1b3a"/>
      <path id="Path_97954" data-name="Path 97954" d="M201.374,269.837q2.856.684,3.336-2.212v-7.841c23.008-22.37,6.954-61.9-25.186-61.862a36.1,36.1,0,0,0-36.063,36.057c-.3,25.8,27.511,43.755,50.872,32.884Zm-8.146-7.761c-20.309,10.227-45.242-5.335-44.963-28.1a31.292,31.292,0,0,1,31.26-31.254c28.311-.013,41.992,35.142,21.158,54.259a2.4,2.4,0,0,0-.776,1.768V264l-4.69-1.982A2.4,2.4,0,0,0,193.228,262.076Z" transform="translate(545.308 2045.319)" fill="#e36410"/>
      <path id="Path_97955" data-name="Path 97955" d="M231.084,265.759h12.847c3.105,0,3.105-4.8,0-4.8H231.084C227.978,260.956,227.978,265.759,231.084,265.759Z" transform="translate(487.326 2002.47)" fill="#e36410"/>
      <path id="Path_97956" data-name="Path 97956" d="M243.932,345.09H231.084c-3.105,0-3.105,4.8,0,4.8h12.847C247.037,349.893,247.037,345.09,243.932,345.09Z" transform="translate(487.325 1945.277)" fill="#e36410"/>
      <path id="Path_97957" data-name="Path 97957" d="M236.213,303.023H209.619c-3.105,0-3.105,4.8,0,4.8h26.594C239.318,307.826,239.318,303.023,236.213,303.023Z" transform="translate(501.917 1973.874)" fill="#e36410"/>
      <path id="Path_97958" data-name="Path 97958" d="M342.066,39.857A10.357,10.357,0,0,0,331.6,50.113c0,3.105,4.8,3.105,4.8,0a5.577,5.577,0,0,1,5.569-5.454,5.455,5.455,0,0,1-.114,10.909,2.4,2.4,0,0,0-2.4,2.4v8.215a2.4,2.4,0,1,0,4.8,0v-6.1a10.257,10.257,0,0,0-2.191-20.227Z" transform="translate(417.415 2152.771)" fill="#0d1b3a"/>
      <path id="Path_97959" data-name="Path 97959" d="M358.708,140.331c-3.091,0-3.1,4.8,0,4.8S361.8,140.331,358.708,140.331Z" transform="translate(400.563 2084.469)"/>
    </g>
  </g>
</svg>
