<svg xmlns="http://www.w3.org/2000/svg" width="512" height="512" viewBox="0 0 512 512">
  <g id="ic_save_time" transform="translate(-4748 -5555)">
    <g id="Ellipse_425" data-name="Ellipse 425" transform="translate(4748 5555)" fill="none" stroke="#0d1b3a" stroke-linecap="round" stroke-linejoin="round" stroke-width="12">
      <circle cx="256" cy="256" r="256" stroke="none"/>
      <circle cx="256" cy="256" r="250" fill="none"/>
    </g>
    <g id="Group_11302" data-name="Group 11302" transform="translate(4901.993 5622.226)">
      <g id="Path_63547" data-name="Path 63547" transform="translate(0 0)" fill="none" stroke-linecap="round">
        <path d="M107.374,0A107.374,107.374,0,1,1,0,107.374,107.374,107.374,0,0,1,107.374,0Z" stroke="none"/>
        <path d="M 107.3740463256836 12.00001525878906 C 54.78462219238281 12.00001525878906 12.00001525878906 54.78462219238281 12.00001525878906 107.3740463256836 C 12.00001525878906 159.9634704589844 54.78462219238281 202.7480773925781 107.3740463256836 202.7480773925781 C 159.9634704589844 202.7480773925781 202.7480773925781 159.9634704589844 202.7480773925781 107.3740463256836 C 202.7480773925781 54.78462219238281 159.9634704589844 12.00001525878906 107.3740463256836 12.00001525878906 M 107.3740463256836 1.52587890625e-05 C 166.6750793457031 1.52587890625e-05 214.7480773925781 48.07301330566406 214.7480773925781 107.3740463256836 C 214.7480773925781 166.6750793457031 166.6750793457031 214.7480773925781 107.3740463256836 214.7480773925781 C 48.07301330566406 214.7480773925781 1.52587890625e-05 166.6750793457031 1.52587890625e-05 107.3740463256836 C 1.52587890625e-05 48.07301330566406 48.07301330566406 1.52587890625e-05 107.3740463256836 1.52587890625e-05 Z" stroke="none" fill="#0d1b3a"/>
      </g>
      <path id="Path_63548" data-name="Path 63548" d="M-15591.888-3435.017v20.135" transform="translate(15699.347 3459.201)" fill="none" stroke="#0d1b3a" stroke-linecap="round" stroke-width="12"/>
      <path id="Path_63550" data-name="Path 63550" d="M0,0V20.135" transform="translate(190.496 106.995) rotate(90)" fill="none" stroke="#0d1b3a" stroke-linecap="round" stroke-width="12"/>
      <path id="Path_63549" data-name="Path 63549" d="M-15591.888-3435.017v20.135" transform="translate(15698.883 3605.139)" fill="none" stroke="#0d1b3a" stroke-linecap="round" stroke-width="12"/>
      <path id="Path_63551" data-name="Path 63551" d="M0,0V20.135" transform="translate(44.558 106.995) rotate(90)" fill="none" stroke="#0d1b3a" stroke-linecap="round" stroke-width="12"/>
      <path id="Path_63552" data-name="Path 63552" d="M-15641.033-3381.33l35.16,35.16,56.746-56.747" transform="translate(15712.086 3455.91)" fill="none" stroke="#e36410" stroke-linecap="round" stroke-linejoin="round" stroke-width="12"/>
    </g>
    <g id="Group_11301" data-name="Group 11301" transform="translate(4830.126 5835.702)">
      <g id="Path_63553" data-name="Path 63553" transform="translate(0 61.43) rotate(-30)" fill="none" stroke-linecap="round">
        <path d="M12.855,0H59.736A12.855,12.855,0,0,1,72.591,12.855V122.5a12.855,12.855,0,0,1-12.855,12.855H12.855A12.855,12.855,0,0,1,0,122.5V12.855A12.855,12.855,0,0,1,12.855,0Z" stroke="none"/>
        <path d="M 12.85462951660156 11.99998474121094 C 12.38339233398438 11.99998474121094 12.0000114440918 12.38336944580078 12.0000114440918 12.85462951660156 L 12.0000114440918 122.4971618652344 C 12.0000114440918 122.9683990478516 12.38339233398438 123.3517761230469 12.85462951660156 123.3517761230469 L 59.73627471923828 123.3517761230469 C 60.20751190185547 123.3517761230469 60.59089279174805 122.9683990478516 60.59089279174805 122.4971618652344 L 60.59089279174805 12.85462951660156 C 60.59089279174805 12.38336944580078 60.20751190185547 11.99998474121094 59.73627471923828 11.99998474121094 L 12.85462951660156 11.99998474121094 M 12.85462951660156 -1.52587890625e-05 L 59.73627471923828 -1.52587890625e-05 C 66.83568572998047 -1.52587890625e-05 72.59089660644531 5.755218505859375 72.59089660644531 12.85462951660156 L 72.59089660644531 122.4971618652344 C 72.59089660644531 129.5965728759766 66.83568572998047 135.3517761230469 59.73627471923828 135.3517761230469 L 12.85462951660156 135.3517761230469 C 5.755218505859375 135.3517761230469 7.62939453125e-06 129.5965728759766 7.62939453125e-06 122.4971618652344 L 7.62939453125e-06 12.85462951660156 C 7.62939453125e-06 5.755218505859375 5.755218505859375 -1.52587890625e-05 12.85462951660156 -1.52587890625e-05 Z" stroke="none" fill="#0d1b3a"/>
      </g>
      <path id="Path_63554" data-name="Path 63554" d="M-15700.076-2980.67" transform="translate(15797.595 3136.448)" fill="none" stroke="#0d1b3a" stroke-width="1"/>
      <path id="Path_63555" data-name="Path 63555" d="M-15713.863-2986.447l-27.734-46.871" transform="translate(15810.904 3141.168)" fill="none" stroke="#0d1b3a" stroke-linecap="round" stroke-width="12"/>
      <path id="Path_63556" data-name="Path 63556" d="M-15741.6-3032.94l.379-.378" transform="translate(15798.488 3119.24)" fill="none" stroke="#0d1b3a" stroke-linecap="round" stroke-width="12"/>
      <path id="Path_63559" data-name="Path 63559" d="M-15741.6-3032.94l.379-.378" transform="translate(15883.178 3151.755)" fill="none" stroke="#0d1b3a" stroke-linecap="round" stroke-width="12"/>
      <path id="Path_63557" data-name="Path 63557" d="M-15728.581-3130.653s49.087-30.579,68.049-31.76,93.27,21.714,93.27,21.714,26.311,12.2,3.584,33.88c-15.035,4.2-72.036,0-72.036,0" transform="translate(15804.546 3180.775)" fill="none" stroke="#0d1b3a" stroke-linecap="round" stroke-linejoin="round" stroke-width="12"/>
      <path id="Path_63558" data-name="Path 63558" d="M-15533.422-3112.377l71.709-66.729s13.963-14.863,28.363-2.954,2.363,28.364,2.363,28.364l-71.5,71.5s-9.275,11.523-35.127,15.364c-18.533.611-68.281,0-68.281,0" transform="translate(15774.629 3186.683)" fill="none" stroke="#0d1b3a" stroke-linecap="round" stroke-linejoin="round" stroke-width="12"/>
    </g>
  </g>
</svg>
