<svg xmlns="http://www.w3.org/2000/svg" width="250" height="250" viewBox="0 0 250 250">
  <g id="ic_secured_pin" transform="translate(-318 -1602)">
    <g id="Ellipse_817" data-name="Ellipse 817" transform="translate(318 1602)" fill="none" stroke="#0d1b3a" stroke-width="6">
      <circle cx="125" cy="125" r="125" stroke="none"/>
      <circle cx="125" cy="125" r="122" fill="none"/>
    </g>
    <g id="password_1_" data-name="password (1)" transform="translate(346 1548)">
      <path id="Path_97911" data-name="Path 97911" d="M181.4,132H11.917A11.93,11.93,0,0,0,0,143.917v36.317A11.93,11.93,0,0,0,11.917,192.15H117.841a2.837,2.837,0,0,0,0-5.675H11.917a6.249,6.249,0,0,1-6.242-6.242V143.917a6.249,6.249,0,0,1,6.242-6.242H181.4a6.249,6.249,0,0,1,6.242,6.242v27.238a2.837,2.837,0,0,0,5.675,0V143.917A11.93,11.93,0,0,0,181.4,132Z"/>
      <path id="Path_97912" data-name="Path 97912" d="M390.1,207.7v-3.682a24.022,24.022,0,0,0-48.045,0V207.7A8.9,8.9,0,0,0,336,216.128v30.264a8.9,8.9,0,0,0,8.89,8.89h42.37a8.9,8.9,0,0,0,8.89-8.89V216.128A8.9,8.9,0,0,0,390.1,207.7Zm-24.022-22.03a18.369,18.369,0,0,1,18.348,18.348v3.216h-36.7v-3.216A18.368,18.368,0,0,1,366.075,185.675Zm24.4,60.718a3.219,3.219,0,0,1-3.216,3.216H344.89a3.219,3.219,0,0,1-3.216-3.216V216.128a3.219,3.219,0,0,1,3.216-3.216h42.37a3.219,3.219,0,0,1,3.216,3.216Z" transform="translate(-208.89 -29.841)"/>
      <path id="Path_97913" data-name="Path 97913" d="M78.549,179.471a2.837,2.837,0,0,0-3.876-1.038l-6.228,3.6v-7.192a2.837,2.837,0,1,0-5.675,0v7.192l-6.228-3.6a2.837,2.837,0,0,0-2.837,4.914l6.228,3.6-6.228,3.6a2.837,2.837,0,1,0,2.837,4.914l6.228-3.6v7.192a2.837,2.837,0,0,0,5.675,0v-7.192l6.228,3.6a2.837,2.837,0,1,0,2.837-4.914l-6.228-3.6,6.228-3.6A2.837,2.837,0,0,0,78.549,179.471Z" transform="translate(-32.506 -24.868)"/>
      <path id="Path_97914" data-name="Path 97914" d="M174.549,179.471a2.837,2.837,0,0,0-3.876-1.038l-6.228,3.6v-7.192a2.837,2.837,0,1,0-5.675,0v7.192l-6.228-3.6a2.837,2.837,0,0,0-2.837,4.914l6.228,3.6-6.228,3.6a2.837,2.837,0,1,0,2.837,4.914l6.228-3.6v7.192a2.837,2.837,0,0,0,5.675,0v-7.192l6.228,3.6a2.837,2.837,0,1,0,2.837-4.914l-6.228-3.6,6.228-3.6A2.837,2.837,0,0,0,174.549,179.471Z" transform="translate(-92.189 -24.868)"/>
      <path id="Path_97915" data-name="Path 97915" d="M270.549,179.471a2.837,2.837,0,0,0-3.876-1.038l-6.228,3.6v-7.192a2.837,2.837,0,1,0-5.675,0v7.192l-6.228-3.6a2.837,2.837,0,0,0-2.837,4.914l6.228,3.6-6.228,3.6a2.837,2.837,0,1,0,2.837,4.914l6.228-3.6v7.192a2.837,2.837,0,1,0,5.675,0v-7.192l6.228,3.6a2.837,2.837,0,1,0,2.837-4.914l-6.228-3.6,6.228-3.6A2.837,2.837,0,0,0,270.549,179.471Z" transform="translate(-151.872 -24.868)"/>
      <path id="Path_97916" data-name="Path 97916" d="M400.89,284a8.889,8.889,0,0,0-2.837,17.313V305a2.837,2.837,0,0,0,5.675,0v-3.682A8.889,8.889,0,0,0,400.89,284Zm0,12.106a3.216,3.216,0,1,1,3.216-3.216A3.219,3.219,0,0,1,400.89,296.106Z" transform="translate(-243.705 -94.498)"/>
    </g>
  </g>
</svg>
