<svg xmlns="http://www.w3.org/2000/svg" width="250" height="250" viewBox="0 0 250 250">
  <g id="ic_transfer_fund" transform="translate(-600 -1876)">
    <g id="Ellipse_817" data-name="Ellipse 817" transform="translate(600 1876)" fill="none" stroke="#0d1b3a" stroke-width="6">
      <circle cx="125" cy="125" r="125" stroke="none"/>
      <circle cx="125" cy="125" r="122" fill="none"/>
    </g>
    <g id="Group_21394" data-name="Group 21394" transform="translate(8.618 8.618)">
      <g id="Group_21391" data-name="Group 21391" transform="translate(709.255 1981.564)">
        <path id="Path_97934" data-name="Path 97934" d="M15.193,95.437a3.693,3.693,0,0,1,0-7.386A73.942,73.942,0,0,0,89.051,14.193a3.693,3.693,0,0,1,7.386,0A81.34,81.34,0,0,1,15.193,95.437Z" transform="translate(-7.805 -10.5)"/>
        <path id="Path_97937" data-name="Path 97937" d="M29.466,55.924a3.709,3.709,0,0,1-2.615-1.078L12.08,40.074a3.7,3.7,0,0,1,0-5.222L26.852,20.081A3.692,3.692,0,1,1,32.073,25.3L19.916,37.46,32.073,49.617a3.7,3.7,0,0,1,0,5.222A3.657,3.657,0,0,1,29.466,55.924Z" transform="translate(-11 43.784)"/>
      </g>
      <g id="Group_21392" data-name="Group 21392" transform="translate(628.013 1934.327)">
        <path id="Path_97936" data-name="Path 97936" d="M56.393,128.478a3.75,3.75,0,0,1-1.226-.207A81.153,81.153,0,0,1,1,51.739,79.872,79.872,0,0,1,15.092,6.221a3.689,3.689,0,1,1,6.079,4.18A72.611,72.611,0,0,0,8.386,51.739,73.745,73.745,0,0,0,57.619,121.3a3.694,3.694,0,0,1-1.226,7.179Z" transform="translate(6.386 -0.81)"/>
        <path id="Path_97938" data-name="Path 97938" d="M30.828,32.877a3.7,3.7,0,0,1-3.567-2.733L22.482,12.307,4.646,17.086A3.692,3.692,0,0,1,2.74,9.951l21.4-5.731a3.716,3.716,0,0,1,4.52,2.607l5.731,21.4a3.694,3.694,0,0,1-2.607,4.527,3.941,3.941,0,0,1-.96.126Z" transform="translate(0 -4.104)"/>
      </g>
      <g id="Group_21393" data-name="Group 21393" transform="translate(665.09 1904.013)">
        <path id="Path_97935" data-name="Path 97935" d="M129.766,59.456a3.708,3.708,0,0,1-3.493-2.482,73.779,73.779,0,0,0-69.7-49.588A71.989,71.989,0,0,0,11.025,23.332,3.691,3.691,0,1,1,6.4,17.578,79.261,79.261,0,0,1,56.573,0,81.192,81.192,0,0,1,133.26,54.551a3.7,3.7,0,0,1-2.282,4.7A3.853,3.853,0,0,1,129.766,59.456Z" transform="translate(-5.02 0)"/>
        <path id="Path_97939" data-name="Path 97939" d="M41.783,31.577a3.649,3.649,0,0,1-1.846-.495L20.749,20a3.693,3.693,0,1,1,3.693-6.4l15.99,9.232,9.232-15.99a3.693,3.693,0,0,1,6.4,3.693L44.981,29.731a3.7,3.7,0,0,1-3.2,1.846Z" transform="translate(83.628 31.926)"/>
      </g>
      <path id="Path_97940" data-name="Path 97940" d="M60.579-15.032,54.462-5.98H41.74A19.987,19.987,0,0,1,44.982-.964a24.232,24.232,0,0,1,1.835,6.484H60.579l-6.117,9.052H46.817A24.139,24.139,0,0,1,43.911,22.8a21.942,21.942,0,0,1-5.719,6.484,26.962,26.962,0,0,1-8.41,4.251,36.319,36.319,0,0,1-10.918,1.529L56.053,74.636H39.783l-35.9-38.6V26.988H12.87a36.371,36.371,0,0,0,7.829-.8,23.059,23.059,0,0,0,6.422-2.385A16.259,16.259,0,0,0,31.8,19.924a13.259,13.259,0,0,0,2.6-5.352H.82L6.937,5.519h27.4a14.29,14.29,0,0,0-6.025-8.38Q23.7-5.98,15.745-5.98H.82l6.117-9.052Z" transform="translate(685.957 1962.318)" fill="#e36410"/>
    </g>
  </g>
</svg>
