<svg xmlns="http://www.w3.org/2000/svg" width="512" height="512" viewBox="0 0 512 512">
  <g id="ic_team_involved" transform="translate(-2384 -7634)">
    <g id="Ellipse_817" data-name="Ellipse 817" transform="translate(2384 7634)" fill="none" stroke="#0d1b3a" stroke-width="12">
      <circle cx="256" cy="256" r="256" stroke="none"/>
      <circle cx="256" cy="256" r="250" fill="none"/>
    </g>
    <g id="Group_30634" data-name="Group 30634" transform="translate(-1.998 -529)">
      <path id="Path_131351" data-name="Path 131351" d="M159.708-446.949c-6.962,1.5-16.313,5.938-18.7,8.8a5.176,5.176,0,0,0,.546,6.689c2.252,1.775,3.822,1.57,9.965-1.5,7.1-3.549,12.218-4.778,19.794-4.778a42.908,42.908,0,0,1,19.726,4.641c10.579,5.733,18.156,17.883,18.156,29.008v4.164L207.35-401.7c-4.914-4.573-8.737-4.5-14.538.273l-2.389,1.911h-14.06c-15.289,0-19.452.478-24.981,3.071-4.3,1.911-10.579,7.644-12.968,11.808-2.321,3.959-4.3,10.511-4.3,14.265,0,3,0,3-2.184,2.8-2.116-.2-2.321-.478-3.549-4.641-.956-3.413-1.3-6.757-1.365-14.333-.068-11.33,1.024-16.381,5.8-26.756,2.525-5.46,2.662-6.143,1.843-7.849a5.256,5.256,0,0,0-6.484-2.525c-2.252.751-5.529,6.962-8.327,15.63a67.313,67.313,0,0,0-.41,41.157l1.57,5.051-1.638,2.389c-7.167,10.579-.614,24.981,12.422,27.1,2.73.478,2.8.614,3.617,4.027,1.57,7.03,6.075,14.675,12.149,20.886l5.665,5.733v4.641c0,4.027-.2,4.778-1.365,5.392a112.3,112.3,0,0,0-12.149,10.238,14.331,14.331,0,0,0-1.638,3.754c-.683,2.525-1.638,3.344-12.764,10.921-7.371,4.983-13.856,10.033-16.791,12.968l-4.778,4.846-4.778-1.911c-2.594-1.024-7.3-2.73-10.375-3.754-5.392-1.775-5.665-1.979-5.665-3.822,0-1.638.887-2.867,4.437-6.075,4.5-4.164,8.668-11.057,9.624-15.972.41-2.116.614-2.321,2.8-2.321,6.143,0,12.627-4.232,14.879-9.692a17.122,17.122,0,0,0-.546-13.856c-1.706-3-1.706-3.276-1.365-13.1.41-12.149-.41-16.722-4.71-25.049A44.624,44.624,0,0,0,69-368.115c-6.825,0-11.808,1.16-20.2,4.641-3.549,1.5-8.054,3.208-10.033,3.822-11.4,3.754-20.2,14.606-21.159,26.21a75.337,75.337,0,0,0,.819,14.06l1.3,9.214-1.843,3.617C12.483-295.9,20.06-282.8,31.595-282.8h2.662l1.3,4.232a33.207,33.207,0,0,0,9.01,14.265c2.457,2.116,2.867,2.867,2.867,5.119v2.662l-6.689,2.252c-14.879,5.119-18.224,7.576-16.586,11.945,1.365,3.481,4.232,4.027,9.692,1.638,2.048-.887,6.279-2.525,9.351-3.549,5.392-1.843,5.8-1.911,6.416-.751,4.368,7.781,14.333,11.33,22.251,7.917,3.276-1.433,8.4-6.006,9.146-8.259.273-.751,1.365-.614,6.075,1.024,3.14,1.092,7.167,2.525,8.873,3.276l3.14,1.3-1.365,4.573c-1.229,4.1-1.365,6.552-1.433,24.572l-.068,20.067,1.638,1.3a5.653,5.653,0,0,0,6.621.341c1.229-.887,1.3-2.184,1.706-21.022.341-19.452.41-20.135,2.116-24.708,2.184-5.733,6.006-11.33,9.692-14.4,3.481-2.8,23.684-16.722,24.367-16.722a56.7,56.7,0,0,1,5.324,6.484c7.1,9.419,8.873,9.965,19.862,6.484,3.549-1.092,6.552-2.048,6.621-2.048s.273,14.879.341,33.035c.2,31.4.273,33.1,1.5,34.468a5.424,5.424,0,0,0,7.235.068c1.3-1.3,1.365-2.252,1.365-34.537,0-31.26.068-33.1,1.229-32.762,7.713,2.457,13.037,3.822,14.675,3.822,3.754,0,6.211-1.911,11.125-8.532,2.594-3.549,4.983-6.484,5.256-6.484.341,0,5.733,3.549,12.081,7.849,11.945,8.259,17.2,13.037,19.794,18.087,3.617,7.1,3.686,7.371,4.1,28.872l.341,20.408,1.638,1.3a5.289,5.289,0,0,0,6.962-.137c1.365-1.365,1.365-1.911,1.092-22.319-.137-11.535-.41-21.568-.546-22.251-.2-1.16,1.092-1.911,8.6-4.983,5.6-2.321,8.941-3.344,9.146-2.867.614,1.911,4.846,5.733,7.918,7.167a16.379,16.379,0,0,0,19.862-4.914l2.116-2.8,8.873,3.481c9.419,3.822,12.627,5.8,15.972,10.1,3.549,4.5,4.846,8.8,5.324,18.156.478,9.419.956,10.375,5.256,10.375,3.686,0,5.051-2.457,5.051-9.146,0-12.832-3.14-21.432-10.443-28.667-4.846-4.914-6.825-6.075-19.248-11.057l-8.873-3.549-.2-2.389c-.137-1.911.068-2.594,1.3-3.208a34.777,34.777,0,0,0,4.3-3.413c2.662-2.457,3-2.525,8.8-2.935,5.187-.273,6.825-.683,10.989-2.8,10.443-5.119,17.541-16.176,17.473-27.37-.068-5.256-1.024-8.668-6.143-20.613a110.608,110.608,0,0,1-5.733-15.7c-2.116-9.9-5.8-17.064-12.491-24.162a45.83,45.83,0,0,0-32.762-14.811c-9.556-.409-15.835.887-24.026,4.983a48.132,48.132,0,0,0-18.087,15.971,43.946,43.946,0,0,0-7.3,17.2c-.683,3.344-3.276,10.511-6.075,16.859-5.529,12.9-6.757,18.087-5.6,24.708,2.662,14.879,15.289,25.937,29.622,25.937,3.686,0,4.368.2,6.621,2.252,1.365,1.229,3.14,2.73,4.027,3.344,1.3.887,1.57,1.57,1.365,3.617l-.2,2.525-9.9,4.027c-8.8,3.549-9.965,3.891-10.579,2.867a69.07,69.07,0,0,0-9.9-11.467c-1.638-1.365-8.122-6.006-14.47-10.306-8.941-6.143-11.467-8.191-11.467-9.351,0-2.662-2.457-5.665-8.8-10.784l-6.211-5.051v-9.692l3.413-2.867c6.143-5.187,12.149-15.152,14.333-23.753.683-2.73.819-2.867,4.437-3.617a17.745,17.745,0,0,0,13.924-13.787c.956-4.164.478-7.235-1.706-11.672l-1.57-3.208,2.048-14.538c2.252-15.767,2.252-20.067-.068-26.824a34.8,34.8,0,0,0-24.3-22.456c-2.662-.683-4.368-1.5-4.983-2.525a78.038,78.038,0,0,0-6.143-6.757,46.876,46.876,0,0,0-22.183-12.218C177.318-448.177,166.124-448.382,159.708-446.949Zm62.18,35.083a25.345,25.345,0,0,1,8.737,10.306c2.594,5.733,2.73,8.8,1.16,20.545-2.048,14.879-1.843,14.06-4.1,13.719-1.843-.273-1.979-.546-2.389-4.3a41.258,41.258,0,0,0-4.778-15.289c-1.706-3.14-2.048-4.573-1.706-6.143.683-3,.683-15.289,0-18.292-.341-1.365-.41-2.525-.068-2.525A13.623,13.623,0,0,1,221.888-411.866Zm-16.245,22.387c5.051,4.983,7.644,9.556,8.941,15.767.41,2.116.751,10.716.751,20.545,0,14.743-.2,17.61-1.365,22.319-3.822,14.743-15.972,25.049-31.6,26.619-16.449,1.638-32.626-10.1-36.994-26.824-1.5-5.8-1.5-40.27.068-44.775,1.365-4.1,5.733-8.941,10.1-11.262,3.481-1.843,3.549-1.843,21.227-2.184l17.814-.341,2.662-2.252a16.866,16.866,0,0,1,3.208-2.184C200.8-394.052,203.118-392,205.643-389.479ZM305.09-358.9a37.35,37.35,0,0,1,17.064,10.238c5.733,5.733,8.668,11.262,10.579,19.93.819,3.754,3.208,10.238,6.279,17.268,4.71,10.716,4.983,11.535,4.983,16.381a19.834,19.834,0,0,1-6.894,15.63c-2.662,2.321-9.419,5.529-10.17,4.778a33.764,33.764,0,0,1,.887-5.256c1.024-4.778,1.024-4.983-.341-6.825a4.807,4.807,0,0,0-3.822-2.048c-3.14-.273-4.983,1.638-5.6,5.87-1.843,12.354-14.4,21.5-26.483,19.248A23.337,23.337,0,0,1,274.1-277.268c-1.706-3.686-1.775-4.232-1.979-19.179-.2-9.829,0-16.791.546-19.384.819-4.1,3.276-9.965,4.164-9.965a19.848,19.848,0,0,1,3.822,2.048c6.894,4.232,16.518,6.075,32.83,6.143H318.4v6.757c0,8.122.956,9.9,5.119,9.9,4.368,0,5.119-1.638,5.119-11.467,0-14.333-.819-15.016-19.794-15.63-14.2-.546-18.565-1.433-24.026-5.119-1.5-1.024-3.549-2.389-4.573-3a8.176,8.176,0,0,0-8.191-.137c-2.389,1.706-6.757,8.873-8.4,13.856-1.3,3.959-1.5,6.484-1.775,21.227-.2,13.719-.068,17.541.819,21.432.614,2.594.956,4.846.751,5.051-.546.614-6.279-1.911-9.214-4.027a20.2,20.2,0,0,1-7.644-19.316c.41-1.979,2.73-8.122,5.119-13.719a138.96,138.96,0,0,0,6.143-17.2,60.381,60.381,0,0,1,4.027-11.262c4.368-8.327,14.129-16.04,23.479-18.633C290.006-360.129,300.175-360.129,305.09-358.9Zm-227.7,2.048a34.026,34.026,0,0,1,23.957,22.8c1.092,3.617,1.365,6.075,1.229,11.74l-.2,7.1-2.048.2c-1.775.137-2.184-.136-3.14-2.525-1.979-4.641-3.344-5.119-17-5.6-14.06-.41-18.429-1.638-27.233-7.371-5.733-3.754-7.508-4.164-10.648-2.184-2.594,1.5-6.143,8.122-7.371,13.446-.887,3.959-.956,4.027-3.276,4.027H29.342l-.819-5.46c-1.024-7.3-1.024-13.1.068-16.245,2.321-6.416,7.576-11.262,14.675-13.446,2.116-.683,6.143-2.184,8.941-3.413a81.74,81.74,0,0,1,8.191-3.14C64.561-358.082,72.957-358.082,77.393-356.853Zm56.719,6.757c0,3.959-.2,7.3-.546,7.508-1.092.683-4.846-1.638-5.87-3.617-1.775-3.413-1.433-6.006,1.229-8.668,1.3-1.3,2.935-2.321,3.754-2.321C134.044-357.194,134.113-356.853,134.113-350.1Zm94.942-6.006c2.525,1.229,4.164,4.846,3.617,7.713a9.051,9.051,0,0,1-5.529,5.733c-1.57.341-1.57.273-1.57-7.1,0-4.71.273-7.44.683-7.44A8.92,8.92,0,0,1,229.054-356.1ZM58.282-316.173c6.006,2.252,13.173,3.344,21.7,3.344h7.781l-.2,15.152c-.2,15.084-.2,15.289-2.116,19.111A21.007,21.007,0,0,1,67.5-266.553c-9.351.614-16.791-3.617-20.886-11.944l-2.252-4.573-.2-14.538c-.273-13.719.137-18.429,1.843-22.865l.683-1.843L50.569-320A67.228,67.228,0,0,0,58.282-316.173Zm-24.5,17v6.143H31.731c-4.164,0-6.825-5.051-4.71-8.941.683-1.365,4.164-3.276,5.938-3.344C33.574-305.321,33.779-303.683,33.779-299.178Zm69.892-4.164a5.337,5.337,0,0,1,1.5,6.552,5.54,5.54,0,0,1-5.46,3.754H97.938v-12.422l2.252.478A10.283,10.283,0,0,1,103.671-303.342Zm92.553,9.692v3.413l-8.327,3.959-8.4,3.959-7.986-4.027-8.054-3.959v-3.14c0-3.071,0-3.14,1.911-2.662,5.529,1.433,11.057,2.389,13.787,2.389,5.051,0,13.173-1.57,16.927-3.344A22.221,22.221,0,0,1,196.224-293.65Zm-30.714,15.7,8.873,4.232v8.327l-7.576,2.252a61.729,61.729,0,0,1-7.781,2.048c-.068-.137-2.525-3.413-5.46-7.3l-5.324-7.1,3.686-3.276a25.585,25.585,0,0,1,4.163-3.344C156.432-282.115,160.6-280.2,165.51-277.951Zm41.772-.956c2.525,1.979,3.754,3.413,3.344,3.891-.273.41-2.73,3.754-5.46,7.44-4.232,5.733-5.119,6.552-6.416,6.279-.887-.273-4.3-1.3-7.713-2.321l-6.075-1.911-.2-3.822-.2-3.822,8.737-4.437a94.328,94.328,0,0,1,9.419-4.437C203.118-282.115,205.165-280.681,207.281-278.907ZM67.292-256.178h5.392v2.048c0,4.573-3.344,8.191-7.576,8.191-4.368,0-7.44-3.891-7.44-9.487,0-1.433.2-1.57,2.116-1.16A60.714,60.714,0,0,0,67.292-256.178Zm234.044,5.256c0,6.552-6.075,10.033-10.648,6.143-1.365-1.229-1.911-2.389-2.116-5.051l-.341-3.549,6.552.068h6.552Z" transform="translate(2461.876 8735.914)" fill="#0d1b3a"/>
      <path id="Path_131352" data-name="Path 131352" d="M4.851-131.223c-3.208,4.1-4.368,9.965-4.71,23.684-.273,12.627-.2,12.9,1.3,14.538a4.954,4.954,0,0,0,7.167.2c1.16-1.3,1.365-2.935,1.706-13.856.273-10.443.546-12.968,1.843-16.449a24.678,24.678,0,0,0,1.5-5.6C13.656-132.861,7.513-134.568,4.851-131.223Z" transform="translate(2466.982 8635.94)" fill="#0d1b3a"/>
      <path id="Path_131353" data-name="Path 131353" d="M177.706-124.294,176-122.656v15.425c0,14.47.068,15.425,1.365,16.722a5.1,5.1,0,0,0,7.44-.41c1.365-1.706,1.433-2.662,1.433-16.791v-14.948l-1.706-1.638A5.621,5.621,0,0,0,181.119-126,5.621,5.621,0,0,0,177.706-124.294Z" transform="translate(2411.115 8633.721)" fill="#e36410"/>
      <path id="Path_131354" data-name="Path 131354" d="M322.775-124.539,321-123.174v15.7c0,14.743.068,15.7,1.365,17a5.134,5.134,0,0,0,7.508-.478c1.365-1.775,1.433-2.389,1.229-17.132-.2-15.084-.2-15.289-1.843-16.586C327.211-126.382,325.027-126.314,322.775-124.539Z" transform="translate(2365.084 8633.693)" fill="#e36410"/>
    </g>
  </g>
</svg>
