<svg xmlns="http://www.w3.org/2000/svg" xmlns:xlink="http://www.w3.org/1999/xlink" width="2388.263" height="1672.207" viewBox="0 0 2388.263 1672.207">
  <defs>
    <linearGradient id="linear-gradient" x1="0.484" y1="1.815" x2="0.506" y2="0.198" gradientUnits="objectBoundingBox">
      <stop offset="0" stop-color="#fff"/>
      <stop offset="1" stop-color="#ffd9c4"/>
    </linearGradient>
    <linearGradient id="linear-gradient-2" x1="0.291" y1="0.353" x2="1.708" y2="1.351" gradientUnits="objectBoundingBox">
      <stop offset="0.123" stop-color="#5986ff"/>
      <stop offset="0.541" stop-color="#4c71d9"/>
    </linearGradient>
    <linearGradient id="linear-gradient-3" y1="0.5" x2="1" y2="0.5" gradientUnits="objectBoundingBox">
      <stop offset="0" stop-color="#4f75e0"/>
      <stop offset="0.482" stop-color="#4e72df"/>
      <stop offset="0.758" stop-color="#4d6add"/>
      <stop offset="0.982" stop-color="#4c5cd9"/>
      <stop offset="1" stop-color="#4c5bd9"/>
    </linearGradient>
  </defs>
  <g id="img_fleet_analytics" transform="translate(-2040.693 -511.207)">
    <line id="Line_117" data-name="Line 117" y1="255.556" transform="translate(2133.24 1407.947)" fill="none" stroke="#a8b2e5" stroke-linecap="round" stroke-linejoin="round" stroke-width="5.932"/>
    <g id="Group_20177" data-name="Group 20177">
      <path id="Path_94238" data-name="Path 94238" d="M2186.814,2080.745l234.847-41.376,421.178-186.262-220.173-69.228-225.672,93.369Z" fill="#333" opacity="0.15"/>
      <path id="Path_94239" data-name="Path 94239" d="M2533.715,1469.181l134.161-56.747-133.827-56.419-134.277,56.6Z" fill="#ffb185"/>
      <path id="Path_94240" data-name="Path 94240" d="M2533.6,1924.17l134.277-56.6V1412.434L2533.6,1469.181Z" fill="#ff975d"/>
      <path id="Path_94241" data-name="Path 94241" d="M2534.105,1924.17l-137.111-56.6V1412.6l137.111,56.583Z" fill="#e18857"/>
      <path id="Path_94242" data-name="Path 94242" d="M2354.294,1418.685l135.861-56.5-134.983-56.514-134.277,56.6Z" fill="#ffc5a5"/>
      <path id="Path_94243" data-name="Path 94243" d="M2489.03,1362.178V1941.15l-134.277,56.6-.459-580.7Z" fill="#ec691f"/>
      <path id="Path_94244" data-name="Path 94244" d="M2354.294,1418.685l.1,579.061-134.841-56.6,1.337-578.884Z" fill="#ff975d"/>
    </g>
    <g id="Group_20178" data-name="Group 20178">
      <path id="Path_94245" data-name="Path 94245" d="M2186.425,1803.229l134.16-56.747-133.827-56.419-134.277,56.6Z" fill="#7399ff"/>
      <path id="Path_94246" data-name="Path 94246" d="M2186.308,2080.745l134.277-56.6V1746.482l-134.277,56.747Z" fill="#2f53a2"/>
      <path id="Path_94247" data-name="Path 94247" d="M2186.814,2080.745l-137.111-56.6v-277.49l137.11,56.57Z" fill="#5986ff"/>
    </g>
    <g id="Group_20180" data-name="Group 20180">
      <line id="Line_111" data-name="Line 111" x1="264.193" y1="84.4" transform="translate(4161.778 768.456)" fill="none" stroke="#c7d0fc" stroke-miterlimit="10" stroke-width="5.932"/>
      <path id="Path_94248" data-name="Path 94248" d="M3630.944,881.715l-264.193-84.4,2.449-282.059,264.193,84.4Z" fill="none" stroke="#c7d0fc" stroke-miterlimit="10" stroke-width="5.932"/>
      <path id="Path_94249" data-name="Path 94249" d="M3895.137,966.115l-264.193-84.4,2.449-282.059,264.193,84.4Z" fill="none" stroke="#c7d0fc" stroke-miterlimit="10" stroke-width="5.932"/>
      <path id="Path_94250" data-name="Path 94250" d="M4423.522,1134.914l-264.193-84.4,2.449-282.059,264.193,84.4Z" fill="none" stroke="#c7d0fc" stroke-miterlimit="10" stroke-width="5.932"/>
      <line id="Line_112" data-name="Line 112" x1="2.449" y2="282.059" transform="translate(3364.303 797.316)" fill="none" stroke="#c7d0fc" stroke-miterlimit="10" stroke-width="5.932"/>
      <path id="Path_94251" data-name="Path 94251" d="M3892.688,1248.174l-264.193-84.4,2.449-282.059,264.193,84.4Z" fill="none" stroke="#c7d0fc" stroke-miterlimit="10" stroke-width="5.932"/>
      <path id="Path_94252" data-name="Path 94252" d="M4156.881,1332.573l-264.193-84.4,2.449-282.059,264.192,84.4Z" fill="none" stroke="#c7d0fc" stroke-miterlimit="10" stroke-width="5.932"/>
      <path id="Path_94253" data-name="Path 94253" d="M4421.074,1416.973l-264.193-84.4,2.449-282.059,264.193,84.4Z" fill="none" stroke="#c7d0fc" stroke-miterlimit="10" stroke-width="5.932"/>
      <line id="Line_113" data-name="Line 113" x1="2.449" y2="282.059" transform="translate(3361.854 1079.375)" fill="none" stroke="#c7d0fc" stroke-miterlimit="10" stroke-width="5.932"/>
      <path id="Path_94254" data-name="Path 94254" d="M3626.047,1445.833l-264.193-84.4,2.449-282.059,264.193,84.4Z" fill="none" stroke="#c7d0fc" stroke-miterlimit="10" stroke-width="5.932"/>
      <path id="Path_94255" data-name="Path 94255" d="M3890.24,1530.233l-264.193-84.4,2.449-282.059,264.193,84.4Z" fill="none" stroke="#c7d0fc" stroke-miterlimit="10" stroke-width="5.932"/>
      <path id="Path_94256" data-name="Path 94256" d="M4154.432,1614.632l-264.193-84.4,2.449-282.059,264.193,84.4Z" fill="none" stroke="#c7d0fc" stroke-miterlimit="10" stroke-width="5.932"/>
      <path id="Path_94257" data-name="Path 94257" d="M4418.625,1699.032l-264.193-84.4,2.449-282.059,264.193,84.4Z" fill="none" stroke="#c7d0fc" stroke-miterlimit="10" stroke-width="5.932"/>
    </g>
    <line id="Line_114" data-name="Line 114" x1="264.193" y1="84.4" transform="translate(3897.586 684.057)" fill="none" stroke="#c7d0fc" stroke-miterlimit="10" stroke-width="5.932"/>
    <path id="Path_94258" data-name="Path 94258" d="M3208.853,1257.172s63.1-97.8,178.927-62.7c88.552,26.83,41.948,34.743,148.233,43.205,62.669,4.99,160.353-131.749,314.909-96.325,279.827,64.134,378.163-223.233,499.549-107.066l-1.711,677.768L3208.6,1359.057Z" fill="url(#linear-gradient)"/>
    <path id="Path_94259" data-name="Path 94259" d="M3208.578,1366.85a3.021,3.021,0,0,1-3.846-3.117l1.709-677.11a5.231,5.231,0,0,1,3.867-4.874,3.023,3.023,0,0,1,3.847,3.118l-1.709,677.11A5.23,5.23,0,0,1,3208.578,1366.85Z" fill="#a8b2e5"/>
    <path id="Path_94260" data-name="Path 94260" d="M3492.578,1446.994a3.023,3.023,0,0,1-3.847-3.118l1.71-677.109a5.228,5.228,0,0,1,3.867-4.874,3.022,3.022,0,0,1,3.847,3.117l-1.71,677.11A5.228,5.228,0,0,1,3492.578,1446.994Z" fill="#a8b2e5"/>
    <path id="Path_94261" data-name="Path 94261" d="M3776.562,1535.63a3.023,3.023,0,0,1-3.847-3.118l1.71-677.11a5.228,5.228,0,0,1,3.867-4.874,3.023,3.023,0,0,1,3.847,3.118l-1.71,677.11A5.228,5.228,0,0,1,3776.562,1535.63Z" fill="#a8b2e5"/>
    <path id="Path_94262" data-name="Path 94262" d="M4060.547,1624.095a3.023,3.023,0,0,1-3.847-3.118l1.71-677.11a5.23,5.23,0,0,1,3.867-4.874,3.022,3.022,0,0,1,3.846,3.118l-1.709,677.11A5.23,5.23,0,0,1,4060.547,1624.095Z" fill="#a8b2e5"/>
    <path id="Path_94263" data-name="Path 94263" d="M4348.758,1712.75a3.022,3.022,0,0,1-3.847-3.118l1.71-677.109a5.228,5.228,0,0,1,3.867-4.874,3.023,3.023,0,0,1,3.847,3.118l-1.71,677.109A5.228,5.228,0,0,1,4348.758,1712.75Z" fill="#a8b2e5"/>
    <path id="Path_94264" data-name="Path 94264" d="M4343.08,976.042l-37.444-13.911c-4.142-1.539-7.519-7.49-7.505-13.225h0c.015-5.735,3.416-9.168,7.558-7.629l37.443,13.911c4.142,1.539,7.52,7.49,7.505,13.225h0C4350.623,974.148,4347.222,977.581,4343.08,976.042Z" fill="#a8b2e5"/>
    <path id="Path_94265" data-name="Path 94265" d="M4054.837,898.81,4017.394,884.9c-4.142-1.539-7.52-7.491-7.505-13.226h0c.014-5.735,3.415-9.168,7.557-7.629l37.444,13.911c4.142,1.539,7.519,7.49,7.505,13.225h0C4062.38,896.915,4058.98,900.349,4054.837,898.81Z" fill="#a8b2e5"/>
    <path id="Path_94266" data-name="Path 94266" d="M3772.942,821.676,3735.5,807.765c-4.142-1.539-7.519-7.49-7.505-13.225h0c.015-5.735,3.416-9.168,7.558-7.629L3773,800.822c4.142,1.539,7.519,7.49,7.5,13.225h0C3780.485,819.782,3777.084,823.215,3772.942,821.676Z" fill="#a8b2e5"/>
    <path id="Path_94267" data-name="Path 94267" d="M3486.983,741.907,3449.539,728c-4.142-1.539-7.519-7.491-7.505-13.226h0c.015-5.735,3.416-9.168,7.558-7.629l37.443,13.911c4.143,1.539,7.52,7.49,7.505,13.225h0C3494.526,740.012,3491.125,743.445,3486.983,741.907Z" fill="#a8b2e5"/>
    <path id="Path_94268" data-name="Path 94268" d="M3205.263,659.169l-37.444-13.911c-4.142-1.539-7.519-7.49-7.505-13.225h0c.015-5.735,3.416-9.169,7.558-7.63l37.443,13.911c4.142,1.539,7.52,7.491,7.505,13.225h0C3212.806,657.274,3209.405,660.708,3205.263,659.169Z" fill="#a8b2e5"/>
    <path id="Path_94270" data-name="Path 94270" d="M4046.945,1651.1l-37.444-13.91c-.118-.044-.227-.044-.344-.08l-27.8-10.33c-4.142-1.538-7.543,1.895-7.557,7.63s3.362,11.686,7.505,13.225l37.443,13.911c.119.044.231.044.348.08l27.8,10.329c4.143,1.539,7.543-1.9,7.558-7.629S4051.087,1652.638,4046.945,1651.1Z" fill="#abcfff"/>
    <path id="Path_94271" data-name="Path 94271" d="M3169.1,1371.748l-37.444-13.91c-.118-.044-.227-.044-.344-.08l-27.805-10.33c-4.142-1.538-7.543,1.9-7.557,7.63s3.362,11.686,7.5,13.225l37.443,13.911c.119.044.231.044.348.08l27.8,10.329c4.143,1.539,7.543-1.9,7.558-7.629S3173.24,1373.287,3169.1,1371.748Z" fill="#abcfff"/>
    <path id="Path_94272" data-name="Path 94272" d="M3462.918,1373.759l-314.134-101.641c-13.713-4.437-24.933-20.942-24.933-36.677V1054.485c0-15.735,11.22-24.98,24.933-20.543l314.134,101.642c13.714,4.437,24.933,20.942,24.933,36.677v180.956C3487.851,1368.952,3476.632,1378.2,3462.918,1373.759Z" fill="none" stroke="#3a4157" stroke-linecap="round" stroke-linejoin="round" stroke-width="6.168"/>
    <path id="Path_94273" data-name="Path 94273" d="M3187.464,1256.846l-45.481-14.716v-61.174l45.481,14.716Z" fill="#7096ff"/>
    <path id="Path_94274" data-name="Path 94274" d="M3253.042,1278.064l-45.481-14.716v-97.577l45.481,14.716Z" fill="#7096ff"/>
    <path id="Path_94275" data-name="Path 94275" d="M3318.619,1299.282l-45.481-14.716V1156.925l45.481,14.716Z" fill="#7096ff"/>
    <path id="Path_94276" data-name="Path 94276" d="M3384.2,1320.5l-45.481-14.716V1165.73l45.481,14.716Z" fill="#7096ff"/>
    <path id="Path_94277" data-name="Path 94277" d="M3449.774,1341.719,3404.293,1327V1153.956l45.481,14.716Z" fill="#7096ff"/>
    <path id="Path_94278" data-name="Path 94278" d="M3320.278,1034.47l-151.252-52.09c-27.746-9.555-50.447-40.074-50.447-67.821V763.308c0-27.746,22.7-42.63,50.447-33.074l151.252,52.089c27.746,9.556,50.447,40.075,50.447,67.821V1001.4C3370.725,1029.142,3348.024,1044.025,3320.278,1034.47Z" fill="url(#linear-gradient-2)"/>
    <path id="Path_94279" data-name="Path 94279" d="M3191.922,864.305l31.056,75.734,71.365-108.718" fill="none" stroke="#fff" stroke-linecap="round" stroke-linejoin="round" stroke-width="7.138"/>
    <path id="Path_94280" data-name="Path 94280" d="M3658.376,1176.495c50.029-29.034,111.6-53.119,190.707-36.548,253.634,53.132,332.321-143.152,460.218-133.219" fill="none" stroke="#ab4a0a" stroke-linecap="round" stroke-linejoin="round" stroke-width="6.168"/>
    <path id="Path_94281" data-name="Path 94281" d="M4270.934,996.795c19.311,3.507,40.654,10.461,38.367,9.933l-26.378,20.824" fill="none" stroke="#ab4a0a" stroke-linecap="round" stroke-linejoin="round" stroke-width="6.168"/>
    <path id="Path_94282" data-name="Path 94282" d="M3785.261,1987.635c138.32-64.779,137.616-170.135-1.573-235.321l-65.341,30.6c-136.185-37.119-313.122-28.614-429.132,25.716-138.32,64.779-137.616,170.136,1.573,235.321s364.154,65.515,502.474.737L3541.239,1926.66l56.912-26.653Z" fill="#333" opacity="0.14"/>
    <path id="Path_94283" data-name="Path 94283" d="M2847.276,1441.891l-75.754,92.125a38.668,38.668,0,0,0-6.583,37.463l45.286,127.911,29.063-26.693.015-115.093Z" fill="#ecbb5a"/>
    <path id="Path_94284" data-name="Path 94284" d="M2852.3,1434.789l-76.447,84.068a17.818,17.818,0,0,0-2.269,20.885c12.466,21.664,41.238,64.142,63.675,40.194C2866.744,1548.47,2852.3,1434.789,2852.3,1434.789Z" fill="#8d89c9"/>
    <ellipse id="Ellipse_860" data-name="Ellipse 860" cx="108.684" cy="39.45" rx="108.684" ry="39.45" transform="translate(2802.293 2102.809)" fill="#8288d4" opacity="0.21" style="mix-blend-mode: multiply;isolation: isolate"/>
    <path id="Path_94285" data-name="Path 94285" d="M2832.958,2090.515l24.617,2.859c16.215-5.611,23.69-11.188,31.276-3.147l2.15,2.279c3.488,5.828,2.561,16-2.837,20.427l-39.777,33.488c-8.287,4.352-24.023,1.1-26.922-10.974,0,0-2.773-33.972,1.038-35.835C2830.156,2095.87,2826.33,2094,2832.958,2090.515Z" fill="#27427a"/>
    <path id="Path_94286" data-name="Path 94286" d="M2856.756,2111.64c-.157,13.016-31.819,12.635-31.663-.382l.51-42.3,31.662.381Z" fill="#fffcfa"/>
    <path id="Path_94287" data-name="Path 94287" d="M2867.792,2073.009c-12.046,14.753-39.394,14.529-44.6,4.542.634-58.932-15.172-121.668,13.4-202.71l-9.757-245.764,109.658,21.869-42.534,259.485Z" fill="#27427a"/>
    <path id="Path_94288" data-name="Path 94288" d="M2937.587,2130.844l31.922,5.348c23.384-3.169,35.1-7.3,42.688.742l2.15,2.279c2.818,5.6-1.618,14.576-10.207,17.915l-63.567,25.382c-12.418,2.945-25.455-1.338-25.523-12.445,0,0,.068-31.056,5.736-32.286C2932.167,2135.307,2927.654,2133.2,2937.587,2130.844Z" fill="#27427a"/>
    <path id="Path_94289" data-name="Path 94289" d="M2954.174,2146.038c-.156,13.017-31.819,12.636-31.662-.381l.509-42.3,31.662.381Z" fill="#fffcfa"/>
    <path id="Path_94290" data-name="Path 94290" d="M2961.362,2108.205c-11.068,14.973-38.522,14.725-44.436,4.579-3.433-59.846-23.622-123.568-.551-205.846l-26.756-249.585,111.532,22.29-24.761,263.48Z" fill="#27427a"/>
    <path id="Path_94291" data-name="Path 94291" d="M2971.171,1380.07c.058,25.64-22.844,41.549-42.236,30.411s-35.159-40.954-35.216-66.594,15.617-37.4,35.009-26.259S2971.114,1354.429,2971.171,1380.07Z" fill="#ecbb5a"/>
    <path id="Path_94292" data-name="Path 94292" d="M2912.23,1460.8l-2.64-.6a16.672,16.672,0,0,1-12.532-19.888l11.4-50.27a16.671,16.671,0,0,1,19.886-12.533l2.64.6A16.672,16.672,0,0,1,2943.519,1398l-3.856,49.915C2937.641,1456.83,2921.145,1462.824,2912.23,1460.8Z" fill="#ecbb5a"/>
    <path id="Path_94293" data-name="Path 94293" d="M2884.407,1405.3s5.294,17.122,36.643,12.637c23.658-3.384,5.4-43.594,26.83-54.337,28.975-14.524,16.515-42.939,3.234-51.942s-29.62-3.077-49.747,4.34C2880.076,1323.848,2851.292,1341.379,2884.407,1405.3Z" fill="#333"/>
    <path id="Path_94294" data-name="Path 94294" d="M2946.825,1376.96a11.288,11.288,0,1,1-11.313-11.263A11.287,11.287,0,0,1,2946.825,1376.96Z" fill="#ecbb5a"/>
    <path id="Path_94295" data-name="Path 94295" d="M2940.956,1415.747l-4.287-5.194s5.9,3.255,14.289-.383A21.738,21.738,0,0,1,2940.956,1415.747Z" fill="#cea24a"/>
    <path id="Path_94296" data-name="Path 94296" d="M2939.889,1384.584h0a3.777,3.777,0,0,1-4.328-3.1l-7.4-23.733c-.337-2.043,5.043-.993,7.087-1.329h0c2.043-.336,7.854-2.375,8.191-.332l-.451,24.171A3.776,3.776,0,0,1,2939.889,1384.584Z" fill="#333"/>
    <path id="Rectangle_4790" data-name="Rectangle 4790" d="M17.126,0h3.56A17.126,17.126,0,0,1,37.812,17.126v16.4A17.127,17.127,0,0,1,20.685,50.653H17.126A17.126,17.126,0,0,1,0,33.527v-16.4A17.126,17.126,0,0,1,17.126,0Z" transform="translate(2946.543 1416.941) rotate(-47.283)" fill="#ecbb5a"/>
    <path id="Path_94297" data-name="Path 94297" d="M3002.264,1425.886s51.356,89.164,49.826,141.99c-.923,31.855-40.582,11.261-40.582,11.261l-35.719-135.8Z" fill="#ecbb5a"/>
    <path id="Path_94298" data-name="Path 94298" d="M2939.2,1522.565l55.656,80.27c11.841,27,89.062,1.751,59.768-48.294-1.125-1.922-61.112-91.681-61.112-91.681S2940.754,1483.019,2939.2,1522.565Z" fill="#adabd0"/>
    <path id="Path_94299" data-name="Path 94299" d="M2830.766,1514.794,2809.8,1726.237s10.813,22.734,76.858,29.857,123.988-8.8,123.988-8.8l3.715-196.867-20.844-87.564s3.329-2.764-47.9-22.845l-59.788-14.615s-32.5-.315-38.546,16.491S2830.766,1514.794,2830.766,1514.794Z" fill="#adabd0"/>
    <path id="Path_94300" data-name="Path 94300" d="M2885.822,1425.4s-5.056,15.231,12.857,20.3,46.931-5.685,46.931-5.685S2925.477,1420.153,2885.822,1425.4Z" fill="#fff"/>
    <path id="Path_94301" data-name="Path 94301" d="M3010.644,1747.291l1.339-139.256-50.579-53.451-3.854,201.6S2998.253,1759.664,3010.644,1747.291Z" fill="#8d89c9"/>
    <path id="Path_94302" data-name="Path 94302" d="M4055.348,1401.909s-9.5,102.846,46.06,96.323,43.126-81.815,43.126-81.815Z" fill="#333"/>
    <path id="Path_94303" data-name="Path 94303" d="M4015.642,1447.079l49.653,32.122,37.519,7.507-13.588,34.734-34.538-11.026-49.232-40.393Z" fill="#596fff"/>
    <path id="Path_94304" data-name="Path 94304" d="M3979.393,1429.954h0a16.07,16.07,0,0,1,22.565-1.958l8.842,7.427a16.064,16.064,0,0,1,1.959,22.576h0a16.069,16.069,0,0,1-22.564,1.958l-8.843-7.427A16.065,16.065,0,0,1,3979.393,1429.954Z" fill="#e6c334"/>
    <g id="Group_20189" data-name="Group 20189">
      <path id="Path_94305" data-name="Path 94305" d="M3940.371,1159.04c25.212,118.61-53.274,187.158-138.155,189.83s-160.644-77.985-169.224-180.153,53.275-187.158,138.155-189.831S3919.054,1058.753,3940.371,1159.04Z" fill="#637a94" opacity="0.4" style="mix-blend-mode: multiply;isolation: isolate"/>
      <path id="Path_94306" data-name="Path 94306" d="M3968.2,1439.907l-30.856,41.5-72.671-141.667,37.444-28.658Z" fill="#24307d"/>
      <path id="Path_94307" data-name="Path 94307" d="M4083.393,1592.228l.05-.027-89.956-167.853-.007,0c-2.521-7.116-10.775-11.178-23.578-10.187-22.3,1.727-49.863,18.08-61.564,36.527-6.056,9.547-6.635,17.76-2.731,23.246l-.012.006,21.039,39.345-.013.008,89.245,166.894,88.6-48.638Z" fill="#2f40a6"/>
      <ellipse id="Ellipse_861" data-name="Ellipse 861" cx="50.119" cy="18.447" rx="50.119" ry="18.447" transform="translate(4008.469 1666.826) rotate(-30.154)" fill="#24307d"/>
      <path id="Path_94308" data-name="Path 94308" d="M3840.3,987.849c-84.906-45.482-174.063-1.582-199.141,98.054s23.423,217.273,108.33,262.754,174.064,1.581,199.141-98.055S3925.209,1033.329,3840.3,987.849Zm98.2,252.6c-21.3,84.63-110.048,119.67-182.168,81.038s-113.315-138.552-92.015-223.182,103.322-133.543,175.441-94.912S3959.8,1155.819,3938.5,1240.449Z" fill="#24307d"/>
      <path id="Path_94309" data-name="Path 94309" d="M3990.894,1190.749c.146-2.183.278-4.367.361-6.555.014-.39.011-.782.024-1.172.034-1.042.044-2.084.065-3.126.025-1.267.074-2.534.079-3.8,0-.7-.025-1.41-.029-2.115-.005-1.131-.023-2.262-.044-3.393-.017-.871-.009-1.742-.035-2.613-.032-1.047-.1-2.093-.148-3.139-.049-1.133-.095-2.265-.16-3.4-.032-.559-.043-1.118-.079-1.677-.095-1.488-.238-2.974-.36-4.46-.079-.964-.142-1.928-.232-2.89-.026-.272-.04-.544-.066-.815q-.389-3.994-.905-7.978c0-.032-.009-.063-.013-.095-.032-.242-.074-.483-.106-.724-.312-2.349-.646-4.695-1.023-7.034-.06-.37-.134-.736-.195-1.1-.147-.886-.313-1.768-.469-2.652-.223-1.259-.427-2.522-.668-3.777-.155-.8-.337-1.6-.5-2.4q-.3-1.462-.606-2.921c-.152-.712-.286-1.428-.444-2.139-.317-1.421-.671-2.832-1.012-4.247-.181-.754-.351-1.509-.538-2.261-.067-.267-.124-.537-.192-.8q-.941-3.713-1.991-7.4c-.03-.105-.064-.208-.094-.313-.2-.7-.429-1.4-.637-2.106-.558-1.889-1.11-3.78-1.711-5.655-.094-.295-.2-.584-.3-.879-.5-1.542-1.039-3.068-1.567-4.6-.423-1.227-.815-2.466-1.256-3.685-.081-.222-.178-.436-.259-.658q-2.163-5.934-4.612-11.736c-.138-.327-.251-.665-.39-.992-.417-.979-.876-1.936-1.3-2.91-.7-1.586-1.4-3.171-2.125-4.74-.646-1.391-1.316-2.765-1.986-4.142-.753-1.547-1.508-3.091-2.29-4.62-.257-.5-.493-1.02-.754-1.521-.625-1.2-1.286-2.383-1.93-3.574-.44-.815-.871-1.638-1.322-2.448q-2.116-3.813-4.349-7.544c-.014-.022-.026-.045-.039-.068l0,0-.04-.062q-2.558-4.243-5.283-8.358c-.081-.122-.154-.249-.234-.371-1.323-2-2.691-3.955-4.069-5.9-.277-.392-.539-.8-.819-1.188-.017-.023-.032-.047-.048-.07q-2.468-3.442-5.047-6.778c-.085-.11-.176-.215-.261-.324-.526-.678-1.075-1.332-1.607-2-1.1-1.38-2.182-2.769-3.307-4.118-.211-.254-.435-.495-.648-.748-.762-.907-1.547-1.789-2.322-2.681-.858-.987-1.7-1.995-2.569-2.964-.323-.359-.663-.7-.988-1.054-.852-.934-1.722-1.846-2.589-2.763-.746-.789-1.472-1.6-2.229-2.378-.428-.439-.876-.852-1.307-1.286-.943-.95-1.9-1.882-2.858-2.812-.665-.645-1.311-1.317-1.984-1.953-.528-.5-1.077-.963-1.608-1.454q-1.455-1.344-2.933-2.654c-.6-.531-1.178-1.088-1.782-1.611-.65-.564-1.325-1.091-1.982-1.646-.972-.82-1.947-1.635-2.932-2.434-.508-.412-1-.848-1.511-1.255-.831-.66-1.687-1.277-2.527-1.922-.925-.711-1.848-1.426-2.784-2.118-.377-.279-.742-.577-1.12-.852-1.141-.83-2.311-1.61-3.468-2.412-.794-.55-1.578-1.118-2.38-1.655-.205-.138-.4-.288-.61-.425q-3.157-2.1-6.392-4.055c-.019-.012-.038-.022-.057-.033-.158-.095-.32-.181-.478-.276-1.952-1.172-3.92-2.316-5.914-3.409q-.751-.413-1.508-.818-2.454-1.314-4.911-2.529c-.624-.308-1.248-.578-1.872-.876q-1.275-.61-2.548-1.193c-.658-.3-1.316-.633-1.974-.924-1.059-.468-2.118-.881-3.177-1.322-.76-.316-1.52-.646-2.28-.948-.312-.124-.624-.268-.937-.39q-3.189-1.245-6.375-2.327l-.036-.012q-3.253-1.105-6.5-2.043c-.283-.082-.564-.144-.847-.223-.786-.222-1.571-.414-2.357-.621-1.115-.294-2.231-.616-3.343-.881-.557-.132-1.11-.227-1.666-.352-.974-.219-1.947-.421-2.92-.618-.75-.152-1.5-.338-2.253-.477-.788-.146-1.571-.243-2.358-.374-.985-.165-1.969-.327-2.952-.469-.518-.075-1.04-.179-1.559-.248-.929-.123-1.85-.185-2.776-.288-1.15-.127-2.3-.26-3.445-.356-.4-.034-.811-.1-1.214-.126-.955-.072-1.9-.078-2.855-.128-1.24-.066-2.479-.138-3.713-.167-.364-.009-.732-.044-1.1-.049-.847-.013-1.682.04-2.527.044-1.485.008-2.968.019-4.444.079-.414.017-.835,0-1.248.022-1.642.083-3.275.2-4.9.35-.209.019-.417.048-.626.068-1.238.118-2.475.241-3.7.4-.784.1-1.559.233-2.339.347-.587.085-1.175.167-1.761.261-2.141.344-4.273.725-6.384,1.182-.067.014-.132.034-.2.048-.576.125-1.14.287-1.713.421-1.765.411-3.526.839-5.268,1.328-.85.239-1.687.517-2.532.774-1.119.341-2.248.653-3.357,1.026-.282.095-.554.217-.834.314-1.711.589-3.4,1.244-5.081,1.909-.821.324-1.651.618-2.465.96-2.481,1.044-4.935,2.156-7.35,3.364l-39.506,19.76c2.415-1.208,4.869-2.32,7.35-3.363.812-.342,1.642-.635,2.462-.959,1.685-.666,3.374-1.322,5.086-1.912,1.384-.476,2.782-.91,4.183-1.337.847-.257,1.686-.536,2.538-.775,1.742-.49,3.5-.917,5.268-1.329.573-.133,1.137-.295,1.713-.42,2.175-.474,4.371-.875,6.578-1.23.589-.1,1.181-.176,1.772-.263,2-.292,4.011-.549,6.035-.743.21-.02.418-.048.628-.067,2.038-.184,4.092-.289,6.151-.372,1.477-.06,2.963-.072,4.451-.079,1.2-.006,2.4-.024,3.612,0,1.235.029,2.477.1,3.718.167,1.355.071,2.71.14,4.071.255,1.141.1,2.288.228,3.433.355,1.448.16,2.9.327,4.35.537.979.142,1.96.3,2.94.467q2.3.386,4.617.852c.974.2,1.949.4,2.924.619,1.663.375,3.33.791,5,1.231.789.208,1.578.4,2.367.623,2.447.69,4.9,1.433,7.347,2.265l.02.007.016.006c2.437.828,4.876,1.747,7.314,2.717.758.3,1.515.63,2.273.946q2.58,1.074,5.159,2.249,1.27.582,2.54,1.189c2.264,1.084,4.528,2.2,6.787,3.408,2.518,1.348,5,2.77,7.45,4.243.148.088.3.168.448.258,2.389,1.444,4.741,2.958,7.066,4.517.8.534,1.575,1.1,2.364,1.644,1.546,1.072,3.087,2.154,4.6,3.275.933.689,1.852,1.4,2.773,2.11,1.361,1.045,2.714,2.1,4.049,3.185.984.8,1.957,1.611,2.927,2.43q1.9,1.6,3.765,3.259,1.477,1.311,2.934,2.653,1.816,1.679,3.594,3.409c.957.929,1.912,1.86,2.854,2.808,1.193,1.2,2.367,2.429,3.534,3.663.87.92,1.743,1.836,2.6,2.772,1.2,1.313,2.371,2.656,3.54,4,.779.9,1.568,1.782,2.334,2.692,1.343,1.6,2.652,3.227,3.953,4.865.533.671,1.082,1.325,1.608,2q2.739,3.529,5.358,7.176c.27.377.524.77.792,1.149,1.471,2.079,2.92,4.177,4.328,6.31q2.692,4.08,5.236,8.282c.029.05.062.1.091.146l.011.02c1.5,2.495,2.955,5.029,4.374,7.586.451.812.884,1.636,1.326,2.454q1.366,2.529,2.681,5.09c.781,1.528,1.536,3.071,2.288,4.616.671,1.38,1.343,2.758,1.99,4.152.726,1.564,1.423,3.145,2.119,4.726.572,1.3,1.147,2.6,1.7,3.912q2.439,5.8,4.61,11.733c.526,1.44,1.015,2.894,1.515,4.345.529,1.532,1.068,3.059,1.568,4.6.7,2.155,1.357,4.325,2,6.5.212.716.443,1.425.648,2.143q1.212,4.232,2.276,8.507c.188.752.357,1.508.538,2.261q.766,3.185,1.456,6.386.312,1.46.606,2.921.623,3.082,1.166,6.179c.157.884.322,1.766.469,2.652q.678,4.082,1.226,8.184c.03.225.068.449.1.674.384,2.959.706,5.924.985,8.893.09.966.154,1.933.233,2.9.167,2.039.321,4.078.437,6.119.065,1.14.112,2.279.161,3.419q.125,2.865.182,5.73.033,1.7.046,3.4c.01,1.977-.013,3.953-.052,5.928-.02,1.036-.03,2.072-.064,3.107q-.127,3.873-.385,7.738c-.025.377-.035.755-.062,1.132q-.316,4.421-.812,8.823c-.093.836-.209,1.668-.311,2.5-.257,2.1-.537,4.206-.854,6.3-.153,1.012-.318,2.022-.485,3.031q-.494,2.981-1.073,5.944c-.187.959-.365,1.918-.565,2.874-.588,2.816-1.212,5.625-1.915,8.415-.737,2.929-1.539,5.8-2.385,8.633-.241.806-.507,1.588-.756,2.385-.608,1.945-1.231,3.876-1.89,5.773-.381,1.1-.785,2.179-1.183,3.262-.592,1.61-1.195,3.209-1.824,4.783-.463,1.161-.941,2.306-1.423,3.447q-.921,2.178-1.888,4.307-.871,1.917-1.779,3.793-.929,1.922-1.9,3.8-1.135,2.208-2.324,4.356c-.62,1.122-1.244,2.237-1.884,3.335-1,1.723-2.042,3.406-3.095,5.07-.661,1.043-1.306,2.1-1.985,3.123-.342.513-.691,1.018-1.037,1.525q-1.774,2.6-3.627,5.089c-.242.324-.475.658-.719.979q-2.354,3.108-4.826,6.05l-.036.044q-2.472,2.93-5.065,5.679c-.349.37-.709.722-1.06,1.088q-1.962,2.046-3.986,3.994c-.542.521-1.089,1.033-1.638,1.543q-1.9,1.769-3.857,3.449c-.5.428-.988.866-1.49,1.285-1.776,1.485-3.576,2.925-5.41,4.3-.258.194-.525.372-.785.564q-2.392,1.769-4.849,3.412c-.6.4-1.2.785-1.8,1.173q-2.086,1.348-4.214,2.607c-.588.348-1.172.7-1.763,1.039-1.967,1.121-3.951,2.2-5.967,3.213l39.506-19.761c2.016-1.008,4-2.091,5.967-3.213.592-.337,1.175-.691,1.763-1.039q2.127-1.258,4.214-2.606c.6-.388,1.2-.774,1.8-1.173q2.455-1.646,4.849-3.413c.26-.191.526-.369.784-.563,1.835-1.377,3.635-2.818,5.411-4.3.5-.42.993-.858,1.49-1.286q1.953-1.681,3.857-3.448c.549-.511,1.1-1.022,1.638-1.543q2.025-1.947,3.986-3.994c.351-.366.711-.718,1.059-1.089.105-.11.213-.213.317-.324q2.424-2.6,4.749-5.355l.037-.043q2.318-2.751,4.532-5.651c.1-.13.193-.268.292-.4.245-.323.48-.658.723-.984q1.852-2.488,3.624-5.085c.346-.507.695-1.012,1.036-1.526.254-.38.518-.747.769-1.131.422-.644.8-1.338,1.217-1.992,1.053-1.664,2.091-3.346,3.095-5.07.267-.458.559-.885.823-1.347.367-.646.7-1.333,1.06-1.987q1.188-2.153,2.326-4.358c.31-.6.647-1.172.951-1.781.328-.657.624-1.35.945-2.016q.909-1.878,1.78-3.8c.3-.657.622-1.286.915-1.95.338-.771.643-1.576.972-2.356.483-1.141.961-2.287,1.425-3.447.236-.592.494-1.161.725-1.757.384-.991.728-2.02,1.1-3.025.4-1.085.8-2.164,1.184-3.265.153-.441.324-.865.475-1.309.5-1.464.948-2.969,1.414-4.461.25-.8.515-1.58.756-2.386.059-.2.127-.386.185-.583q1.107-3.742,2.086-7.6l.114-.451q.888-3.523,1.652-7.076c.095-.445.17-.9.263-1.34.2-.953.378-1.91.563-2.866.219-1.123.462-2.241.662-3.368.153-.86.272-1.727.414-2.589.167-1.007.331-2.014.484-3.024.1-.664.223-1.324.318-1.989.2-1.438.361-2.882.537-4.324.1-.829.218-1.656.31-2.487.03-.278.074-.555.1-.833q.417-3.9.7-7.825c0-.057.006-.114.01-.171C3990.859,1191.507,3990.869,1191.128,3990.894,1190.749Z" fill="#24307d"/>
      <path id="Path_94310" data-name="Path 94310" d="M3837.506,980.872c-41.332-22.14-85.472-24.742-124.276-7.352-41.888,18.781-72.194,57.881-85.337,110.1-25.614,101.758,24.191,222.382,111.019,268.893,25.313,13.559,51.674,19.793,77.221,18.593a129.435,129.435,0,0,0,47.056-11.241c41.887-18.78,72.194-57.88,85.34-110.1C3974.139,1148.008,3924.335,1027.381,3837.506,980.872Zm91.06,262.209c-11.567,45.95-38.233,80.354-75.089,96.879a113.912,113.912,0,0,1-41.4,9.891c-22.479,1.056-45.673-4.43-67.946-16.36-76.4-40.925-120.222-147.061-97.684-236.6,11.563-45.95,38.23-80.354,75.086-96.878,34.143-15.3,72.982-13.012,109.349,6.468C3907.278,1047.407,3951.1,1153.545,3928.566,1243.081Z" fill="#596fff"/>
    </g>
    <path id="Path_94311" data-name="Path 94311" d="M4058.253,2087.592c37.762-14.872,102.412-16.439,144.4-3.5,20.306,6.257,31.563,14.763,33.533,23.559a56.548,56.548,0,0,1,5.62-2.294c20.862-7.225,53.356-7.557,72.578-.743s17.892,18.2-2.969,25.421-53.356,7.557-72.578.742c-4.981-1.766-8.552-3.841-10.791-6.069-4.282,3.461-10.17,6.756-17.745,9.739-37.762,14.872-102.412,16.44-144.4,3.5S4020.49,2102.464,4058.253,2087.592Z" fill="#333" opacity="0.16"/>
    <path id="Path_94312" data-name="Path 94312" d="M4265.646,2051.787c2.2,16.515,23.24.708,23.023-11.9-28.016-84.93-57.569-153.651-90.985-181.62l-11.1-181.172-101.668-26.78,53.792,235.039Z" fill="#e6c334"/>
    <path id="Path_94313" data-name="Path 94313" d="M4100.892,2091.256l-23.905,8.785c-18.544.957-28.207-.528-32.9,6.793l-1.331,2.075c-4.694,7.321-1.094,11.039,9.7,14.161l48.552,10.123c14.167,2.889,17.688-1.827,21.057-10.427,0,0,2-10.694-7.888-23.356C4108.539,2092.19,4108.915,2091.629,4100.892,2091.256Z" fill="#27427a"/>
    <path id="Path_94314" data-name="Path 94314" d="M4086.127,2102.747c5.514,13.281,28.63,9.956,28.048-1.014,21.5-169.124,4.656-179,4.649-215.831-.006-41.137,7.2-85.634,35.022-164.11l-26.163,4.645a86.7,86.7,0,0,0-71.5,86.125C4057.06,1917.346,4063.548,2000.171,4086.127,2102.747Z" fill="#e6c334"/>
    <path id="Path_94315" data-name="Path 94315" d="M4062.954,1657.826l-11.836,221.246s79.281,65.618,173.9-19.25c-21.557-29.722-24.832-67.993-22.639-108.82,7.9-38.467-2.344-69.827-13.827-97.18Z" fill="#27427a"/>
    <path id="Path_94316" data-name="Path 94316" d="M4125.279,1508.827l2.58-.622a16.345,16.345,0,0,0,12.02-19.662l-11.851-49.125a16.343,16.343,0,0,0-19.662-12.02l-2.58.623a16.342,16.342,0,0,0-12.019,19.662l4.447,48.878C4100.316,1505.274,4116.567,1510.929,4125.279,1508.827Z" fill="#e6c334"/>
    <path id="Path_94317" data-name="Path 94317" d="M4188.55,1653.822c-.669-38.8-2.087-47.035,3.836-91.254,1.987-14.833.836-19.209,2.061-34.124,2.155-26.217-10.312-73.636-53.264-60.47l-3.848,2.779a91.125,91.125,0,0,0-18.243,7.371c-62.5,33.6-86.227,37.861-75.779,77.722,3.2,29.938,27.88,38.114,19.641,101.98C4076.644,1700.386,4174.7,1684.685,4188.55,1653.822Z" fill="#596fff"/>
    <path id="Path_94318" data-name="Path 94318" d="M4137.622,1464.537a7.549,7.549,0,0,1,9.284,8.466c-.888,5.9-4.362,13-15.034,16.819-14.778,5.292-31.152,2.867-39.038,1.134a2.14,2.14,0,0,1-.671-3.9C4100.917,1481.435,4121.946,1468.613,4137.622,1464.537Z" fill="#fffcfa"/>
    <path id="Path_94319" data-name="Path 94319" d="M4265.794,2053.205l5.893,24.972c-1.287,18.663-3.943,28.15,2.812,33.729l1.914,1.582c6.755,5.579,13.658,1.981,15.34-8l14.8-45.462c1.683-9.977-3.935-18.467-12.129-22.876,0,0-7.169-3.977-18.867,3.746C4267.854,2045.987,4267.139,2045.226,4265.794,2053.205Z" fill="#27427a"/>
    <path id="Path_94320" data-name="Path 94320" d="M4100.091,2111.42l-30.8-1.246a3.639,3.639,0,0,1-1.4-6.864l19.059-11.814Z" fill="#e6c334"/>
    <path id="Path_94321" data-name="Path 94321" d="M4282.732,2037.141s-7.139,36.256-11.045,41.036l-8.079-30.761,5.028-18.217Z" fill="#e6c334"/>
    <path id="Path_94322" data-name="Path 94322" d="M4204.021,1741.2s-10.592,19.876-18.665,20.615c0,0,10.553.727,16.692-3.584Z" fill="#223a6b"/>
    <path id="Path_94323" data-name="Path 94323" d="M4051.118,1879.072l11.836-221.246,28.689,16.216s-19.956,196.405-1.685,224.227C4089.958,1898.269,4070.713,1894.287,4051.118,1879.072Z" fill="#223a6b"/>
    <path id="Path_94324" data-name="Path 94324" d="M3927.037,1538.131h0a16.069,16.069,0,0,1,22.412-3.273l9.261,6.9a16.065,16.065,0,0,1,3.275,22.423h0a16.069,16.069,0,0,1-22.412,3.273l-9.261-6.9A16.065,16.065,0,0,1,3927.037,1538.131Z" fill="#e6c334"/>
    <path id="Path_94325" data-name="Path 94325" d="M4062.954,1657.826s2.573-38.811-2.821-50.037-26.886-59.033-26.886-59.033l11.915-15.2c13.785,23.165,41.625,24.489,46.817,147.62C4091.979,1681.178,4066.448,1675.884,4062.954,1657.826Z" fill="#4e62e0"/>
    <path id="Path_94326" data-name="Path 94326" d="M4080.89,1561.516l-41.317,77.845a19.58,19.58,0,0,1-32.244,3.465l-61.368-72.55,19.63-24.717,39.754,41.587a7.865,7.865,0,0,0,12.921-2.354l24.073-56.538Z" fill="#596fff"/>
    <path id="Path_94327" data-name="Path 94327" d="M4054.853,1408.463s-.839,42.921,24.614,47.955,17.476-81.021,17.476-81.021Z" fill="#333"/>
    <path id="Path_94328" data-name="Path 94328" d="M4122.32,1375.464c-7.151-10.092-16.845-11.333-25.171-4.746-8.988-3.134-23.431,4.122-31.572,17.47-6.824,11.187-4.165,45.54,2.267,62.031,2.862,7.338,10.8,9.423,16.792,8.921,13.13-1.1,16.286-.876,21.52-3.26,18.749-8.541,19.331-5.707,25.4-18.877C4140.669,1417.231,4132.749,1390.183,4122.32,1375.464Z" fill="#e6c334"/>
    <path id="Path_94329" data-name="Path 94329" d="M4089.311,1381.393c-6.617,7.344,17.271,53.572,41.543,72.323,0,0,38.311-7.8,25.692-50.4-15.708-53.03-39.723-27.922-39.723-27.922Z" fill="#333"/>
    <path id="Path_94330" data-name="Path 94330" d="M4125.047,1387.5c-22.492-5.047-44.142-13.5-68.861,24.02-3.241-4.2-1.336-18.37,6.377-26.945,11.972-13.308,18.628-19.79,33.468-25.832l3.667-1.056c22.148-6.376,35.6.231,44.164,21.125.753,1.837,6.11,9.9,6.514,11.479l-7.645-1.177C4145.965,1401.791,4137.694,1383.49,4125.047,1387.5Z" fill="#333"/>
    <path id="Path_94331" data-name="Path 94331" d="M4123.345,1426.6a11.158,11.158,0,1,1-13.419-8.3A11.158,11.158,0,0,1,4123.345,1426.6Z" fill="#e6c334"/>
    <path id="Path_94332" data-name="Path 94332" d="M3711.247,2018.571c-131.664,61.662-345.8,61.348-478.3-.7s-133.161-162.335-1.5-224,95.468-72.274,227.959-10.226l158.72,40.957,91.615,13.4Z" fill="url(#linear-gradient-3)"/>
    <path id="Path_94333" data-name="Path 94333" d="M3134,1715.015l-.582,183.973s-13.33,67.5,99.53,118.882V1877.639l-66.767-64.585-23.154-40.178Z" fill="#3c5cb3"/>
    <path id="Path_94334" data-name="Path 94334" d="M3710.5,1793.047s103.983-29.852,98.311-149.8c-.466-9.848-.079-42.208-.079-42.208-35.389-43.011-98.232,108.877-98.232,108.877Z" fill="#e18857"/>
    <path id="Path_94335" data-name="Path 94335" d="M3232.952,1877.639c-132.491-62.048-133.161-162.335-1.5-224l239.9,112.349-238.4,72.929Z" fill="#3c5cb3"/>
    <path id="Path_94336" data-name="Path 94336" d="M3604.387,1648.078c-132.491-62.048-241.268-56.1-372.932,5.565l239.9,112.349,133.036,72.929Z" fill="#89b1e8"/>
    <path id="Path_94337" data-name="Path 94337" d="M3711.247,1839.622c-131.664,61.662-345.8,61.348-478.3-.7s-133.161-162.335-1.5-224,345.8-61.348,478.294.7l-238.4,111.648Z" fill="#5986ff"/>
    <path id="Path_94338" data-name="Path 94338" d="M3232.952,1838.921c-132.491-62.048-133.161-162.335-1.5-224l239.9,112.349Z" fill="#4367c7"/>
    <path id="Path_94339" data-name="Path 94339" d="M3709.749,1615.626c-132.49-62.049-346.63-62.363-478.294-.7l239.9,112.349Z" fill="#abcfff"/>
    <path id="Path_94340" data-name="Path 94340" d="M3709,1491.482c132.491,62.049,133.161,162.335,1.5,224L3470.6,1603.13Z" fill="#ffb185"/>
    <path id="Path_94341" data-name="Path 94341" d="M3470.924,1727.474l.427-.2-239.9-112.349c-59.459,27.846-91.921,63.568-97.451,100.09C3243.247,1719.172,3393.173,1724.648,3470.924,1727.474Z" fill="#2c4482"/>
    <path id="Path_94342" data-name="Path 94342" d="M3470.923,1727.474l.427-.2,239.9,112.349c-59.459,27.845-135.737,43.048-213.72,45.638C3488.649,1834.1,3476.957,1763.886,3470.923,1727.474Z" fill="#fff"/>
    <path id="Path_94343" data-name="Path 94343" d="M3470.6,1603.13V1675.7l239.9,117.342v-77.568Z" fill="#ff975d"/>
    <path id="Path_94344" data-name="Path 94344" d="M3497.527,1885.261v178.952s120.179,2,213.72-45.642V1839.623S3618.518,1884.676,3497.527,1885.261Z" fill="#abcfff"/>
    <path id="Path_94345" data-name="Path 94345" d="M3710.012,1839.15c-131.664,61.661-345.8,61.347-478.295-.7-56.886-26.641-89.471-60.331-97.715-94.986" fill="none" stroke="#fff" stroke-linecap="round" stroke-linejoin="round" stroke-width="2.667"/>
    <path id="Path_94346" data-name="Path 94346" d="M2806.042,1237.375l139.894-51.91c19.077-7.079,34.685-33.682,34.685-59.118V1118.9c0-25.436-15.61-40.455-34.687-33.376l-139.894,51.91c-19.077,7.079-34.685,33.681-34.684,59.117V1204C2771.356,1229.434,2786.965,1244.454,2806.042,1237.375Z" fill="#dee5ff"/>
    <path id="Path_94347" data-name="Path 94347" d="M2955.671,715.044v524.67l-265.85,98.761V801.917Z" fill="none" stroke="#a8b2e5" stroke-linecap="round" stroke-linejoin="round" stroke-width="5.932"/>
    <path id="Path_94348" data-name="Path 94348" d="M2812.7,890.749l95.933-35.591a12.816,12.816,0,0,0,7.8-10.3h0c.905-7.181-4.6-12.121-10.9-9.784L2809.6,870.665a12.816,12.816,0,0,0-7.8,10.3h0C2800.9,888.147,2806.4,893.086,2812.7,890.749Z" fill="#a8b2e5"/>
    <path id="Path_94349" data-name="Path 94349" d="M2812.7,990.049l95.933-35.591a12.816,12.816,0,0,0,7.8-10.3h0c.905-7.181-4.6-12.12-10.9-9.783L2809.6,969.966a12.815,12.815,0,0,0-7.8,10.3h0C2800.9,987.447,2806.4,992.386,2812.7,990.049Z" fill="#a8b2e5"/>
    <path id="Path_94350" data-name="Path 94350" d="M2812.7,1089.349l95.933-35.591a12.815,12.815,0,0,0,7.8-10.3h0c.905-7.181-4.6-12.12-10.9-9.783l-95.933,35.591a12.816,12.816,0,0,0-7.8,10.3h0C2800.9,1086.747,2806.4,1091.686,2812.7,1089.349Z" fill="#a8b2e5"/>
    <path id="Path_94351" data-name="Path 94351" d="M2725.229,922.75l24.113-8.947c3.592-1.333,6.5-6.3,6.5-11.087V877.465c0-4.79-2.911-7.593-6.5-6.26l-24.113,8.948c-3.592,1.333-6.5,6.3-6.5,11.086v25.252C2718.725,921.281,2721.637,924.083,2725.229,922.75Z" fill="#7096ff"/>
    <path id="Path_94352" data-name="Path 94352" d="M2725.229,1025.837l24.113-8.947c3.592-1.333,6.5-6.3,6.5-11.087V980.552c0-4.79-2.911-7.593-6.5-6.26l-24.113,8.948c-3.592,1.333-6.5,6.3-6.5,11.086v25.252C2718.725,1024.368,2721.637,1027.17,2725.229,1025.837Z" fill="#7096ff"/>
    <path id="Path_94353" data-name="Path 94353" d="M2725.229,1128.924l24.113-8.947c3.592-1.333,6.5-6.3,6.5-11.087v-25.252c0-4.789-2.911-7.592-6.5-6.259l-24.113,8.948c-3.592,1.333-6.5,6.3-6.5,11.086v25.252C2718.725,1127.455,2721.637,1130.257,2725.229,1128.924Z" fill="#7096ff"/>
    <path id="Path_94354" data-name="Path 94354" d="M2832.983,1247.846l139.894-51.91c19.077-7.079,34.685-33.682,34.685-59.117v-7.452c0-25.436-15.61-40.455-34.687-33.376l-139.893,51.91c-19.078,7.079-34.686,33.682-34.685,59.117v7.452C2798.3,1239.906,2813.906,1254.925,2832.983,1247.846Z" fill="#ff975d"/>
    <path id="Path_94355" data-name="Path 94355" d="M2845.945,1197.151,2967.35,1152.1c2.477-.919,4.5-4.373,4.5-7.675h0c0-3.3-2.026-5.253-4.5-4.334l-121.405,45.049c-2.477.919-4.5,4.373-4.5,7.676h0C2841.442,1196.12,2843.468,1198.07,2845.945,1197.151Z" fill="#fff"/>
    <path id="Path_94356" data-name="Path 94356" d="M4115.044,1440.024s13.113,16.584,8.6,29.621-14.729,37.651,5.7,54.369,50.154,16.253,51.083,60.835,67.337,39.812,73.374,18.281-52.012-51.421-39.474-87.327-48.85-59.757-56.235-106.113-31.07-46.82-31.07-46.82l13.305,81.106Z" fill="#333"/>
    <line id="Line_115" data-name="Line 115" y1="255.556" transform="translate(2521.885 1064.945)" fill="none" stroke="#a8b2e5" stroke-linecap="round" stroke-linejoin="round" stroke-width="5.932"/>
    <line id="Line_116" data-name="Line 116" y2="231.789" transform="translate(2286.979 1050.516)" fill="none" stroke="#a8b2e5" stroke-linecap="round" stroke-linejoin="round" stroke-width="5.932"/>
    <path id="Path_94357" data-name="Path 94357" d="M2210.174,929.532l-.591,4.187c-1.147,8.138,4.267,13.983,12.094,13.054h0c6.914-.821,9.151,7.46,3.545,13.123h0c-6.346,6.412-7.662,15.742-2.939,20.839l2.431,2.624c4.723,5.1,13.695,4.032,20.041-2.378,5.606-5.664,13.457-3.056,12.443,4.133-1.147,8.137,4.267,13.981,12.094,13.052l4.028-.478c7.827-.929,15.1-8.279,16.25-16.417h0c1.014-7.189,9.881-11.782,14.053-7.278h0c4.723,5.1,13.7,4.032,20.042-2.379l3.266-3.3c6.345-6.412,7.661-15.741,2.938-20.839h0c-4.172-4.5.516-13.606,7.43-14.426,7.827-.929,15.1-8.279,16.25-16.417l.59-4.189c1.148-8.138-4.267-13.982-12.093-13.053h0c-6.914.821-9.151-7.46-3.545-13.124h0c6.346-6.411,7.661-15.74,2.938-20.838l-2.43-2.623c-4.723-5.1-13.7-4.033-20.042,2.378h0c-5.606,5.663-13.458,3.055-12.444-4.134h0c1.147-8.138-4.267-13.982-12.094-13.053l-4.028.478c-7.827.929-15.1,8.279-16.249,16.417h0c-1.014,7.189-9.881,11.781-14.053,7.278h0c-4.723-5.1-13.7-4.032-20.042,2.379l-3.266,3.3c-6.346,6.411-7.661,15.74-2.938,20.838h0c4.172,4.5-.516,13.606-7.43,14.426h0C2218.6,914.043,2211.321,921.394,2210.174,929.532Zm36.517-2.276c2.848-20.2,20.9-38.437,40.327-40.743s32.862,12.2,30.014,32.4-20.9,38.437-40.327,40.743S2243.843,947.453,2246.691,927.256Z" fill="#dee5ff"/>
    <path id="Path_94358" data-name="Path 94358" d="M2497.632,1054.191l-64.164,23.921c-5.5,2.052-10.006-.87-10.006-6.492h0c0-5.623,4.5-11.9,10.006-13.953l64.164-23.922c5.5-2.051,10.006.87,10.006,6.493h0C2507.638,1045.86,2503.135,1052.139,2497.632,1054.191Z" fill="#dee5ff"/>
    <path id="Path_94359" data-name="Path 94359" d="M2114.863,1401.154l-64.164,23.921c-5.5,2.052-10.006-.87-10.006-6.492h0c0-5.623,4.5-11.9,10.006-13.953l64.164-23.921c5.5-2.052,10.006.87,10.006,6.492h0C2124.869,1392.824,2120.366,1399.1,2114.863,1401.154Z" fill="#dee5ff"/>
  </g>
</svg>
