<svg xmlns="http://www.w3.org/2000/svg" width="512" height="512" viewBox="0 0 512 512">
  <g id="img_network" transform="translate(-6962 -7167)">
    <g id="Group_8062" data-name="Group 8062" transform="translate(10973.488 7547.99)">
      <path id="Path_38506" data-name="Path 38506" d="M165.171,313.244a34.156,34.156,0,0,1-5.7-67.832V190.707a49.786,49.786,0,0,0,11.391-.05v54.756a33.956,33.956,0,0,1,11.257,4.034,34.333,34.333,0,0,1,15.04,17.621,34.166,34.166,0,0,1-31.992,46.177Zm-.005-56.953a22.781,22.781,0,1,0,22.781,22.781A22.807,22.807,0,0,0,165.165,256.291ZM34.172,301.853a34.172,34.172,0,0,1,0-68.344,33.7,33.7,0,0,1,12.49,2.383A34.336,34.336,0,0,1,57.09,242.4l69.739-69.744a49.007,49.007,0,0,0,8.1,8.013L64.209,251.393a34.168,34.168,0,0,1-30.037,50.461Zm0-56.954a22.781,22.781,0,1,0,22.781,22.781A22.807,22.807,0,0,0,34.172,244.9Zm222.118,11.391a22.807,22.807,0,0,1-22.782-22.782,21.784,21.784,0,0,1,.863-6.06A23.575,23.575,0,0,1,236.744,222l-41.52-41.52a49.008,49.008,0,0,0,8.041-8.054l41.527,41.527a23.567,23.567,0,0,1,5.44-2.366,21.8,21.8,0,0,1,6.059-.863,22.781,22.781,0,0,1,0,45.563Zm0-34.172a11.391,11.391,0,1,0,11.391,11.391A11.4,11.4,0,0,0,256.291,222.118ZM203.406,112.2h0a49.051,49.051,0,0,0-8.013-8.1l53.642-53.642a34.17,34.17,0,1,1,30.037,17.883,33.7,33.7,0,0,1-12.49-2.383,34.285,34.285,0,0,1-10.423-6.513ZM279.072,11.391a22.781,22.781,0,1,0,22.782,22.782A22.807,22.807,0,0,0,279.072,11.391ZM126.693,111.964,85.539,70.81a23.576,23.576,0,0,1-5.44,2.367,21.8,21.8,0,0,1-6.059.863A22.781,22.781,0,1,1,96.821,51.258a21.8,21.8,0,0,1-.863,6.059,23.572,23.572,0,0,1-2.366,5.44l41.16,41.16a49.018,49.018,0,0,0-8.059,8.047ZM74.04,39.867A11.391,11.391,0,1,0,85.43,51.258,11.4,11.4,0,0,0,74.04,39.867Z" transform="translate(-3912.498 -282)" fill="#0d1b3a"/>
      <path id="Path_38504" data-name="Path 38504" d="M43.591,87.181a43.387,43.387,0,0,1-24.372-7.445A43.718,43.718,0,0,1,3.426,60.558,43.533,43.533,0,0,1,7.445,19.219,43.718,43.718,0,0,1,26.623,3.426,43.533,43.533,0,0,1,67.963,7.445,43.718,43.718,0,0,1,83.756,26.623a43.533,43.533,0,0,1-4.019,41.339A43.718,43.718,0,0,1,60.558,83.756,43.318,43.318,0,0,1,43.591,87.181Zm0-76.438A32.848,32.848,0,1,0,76.439,43.591,32.885,32.885,0,0,0,43.591,10.743Z" transform="translate(-3791.133 -183.364)" fill="#ec691f"/>
    </g>
    <g id="Ellipse_88" data-name="Ellipse 88" transform="translate(6962 7167)" fill="none" stroke="#0d1b3a" stroke-width="12">
      <circle cx="256" cy="256" r="256" stroke="none"/>
      <circle cx="256" cy="256" r="250" fill="none"/>
    </g>
  </g>
</svg>
