<svg xmlns="http://www.w3.org/2000/svg" width="512" height="512" viewBox="0 0 512 512">
  <g id="img_driver" transform="translate(-8238 -7167)">
    <g id="Ellipse_88" data-name="Ellipse 88" transform="translate(8238 7167)" fill="none" stroke="#0d1b3a" stroke-width="12">
      <circle cx="256" cy="256" r="256" stroke="none"/>
      <circle cx="256" cy="256" r="250" fill="none"/>
    </g>
    <g id="Group_8697" data-name="Group 8697" transform="translate(-949 -38.009)">
      <g id="Group_8087" data-name="Group 8087" transform="translate(9410.072 7549.843)">
        <path id="Path_38538" data-name="Path 38538" d="M28.619,62.136A5.568,5.568,0,0,1,28.558,51h.061a5.568,5.568,0,0,1,0,11.136Z" transform="translate(-23.023 -51)" fill="#ec691f"/>
      </g>
      <g id="Group_8088" data-name="Group 8088" transform="translate(9410.072 7583.257)">
        <path id="Path_38539" data-name="Path 38539" d="M28.619,68.137A5.568,5.568,0,0,1,28.558,57h.061a5.568,5.568,0,0,1,0,11.136Z" transform="translate(-23.023 -57.001)" fill="#ec691f"/>
      </g>
      <path id="Path_54682" data-name="Path 54682" d="M50.016,93.563a5.575,5.575,0,0,1-5.568-5.468A55.3,55.3,0,0,0,4.05,35.548,5.565,5.565,0,1,1,7.085,24.84a66.378,66.378,0,0,1,48.5,63.06,5.571,5.571,0,0,1-5.468,5.668A.613.613,0,0,0,50.016,93.563Zm22.167-.055a5.568,5.568,0,0,1-5.463-5.674A66.422,66.422,0,0,1,115.2,24.84a5.566,5.566,0,0,1,3.046,10.708A55.346,55.346,0,0,0,77.856,88.039a5.571,5.571,0,0,1-5.568,5.468ZM44.436,33.41a16.7,16.7,0,1,1,16.7,16.7A16.73,16.73,0,0,1,44.436,33.41Zm11.137,0a5.568,5.568,0,1,0,5.568-5.574A5.57,5.57,0,0,0,55.573,33.41ZM12.909,11.137A5.568,5.568,0,0,1,12.909,0h96.463a5.568,5.568,0,0,1,0,11.137Z" transform="translate(9488.02 7499.706)" fill="#ec691f"/>
      <path id="Path_54681" data-name="Path 54681" d="M178.2,256.121q0-2.794.195-5.543l-15.221-.007-15.315,10.2a5.717,5.717,0,0,1-1.17.593l-.011,0-.036.014-.032.011-.015.005-.041.014-.006,0a5.515,5.515,0,0,1-1.513.287h-.262a5.614,5.614,0,0,1-1.466-.2l-20.812-5.2-20.823,5.2a5.617,5.617,0,0,1-1.438.192h-.322a5.552,5.552,0,0,1-2.322-.654h0l-.016-.009q-.222-.121-.438-.262l-15.3-10.189-31.723-.006a39.027,39.027,0,0,0-38.977,38.977l.011,38.972a5.568,5.568,0,0,1-11.137,0L0,289.553a50.168,50.168,0,0,1,50.114-50.114l27.841,0v-23.1A89.14,89.14,0,0,1,33.41,139.211V105.928c0-.088,0-.175,0-.263V77.955A78.04,78.04,0,0,1,111.364,0h55.682a5.563,5.563,0,0,1,5.568,5.568V28.2a44.617,44.617,0,0,1,38.977,44.2c0,.029,0,.058,0,.087v33.155c0,.1,0,.209,0,.314v33.171c0,.029,0,.058,0,.087a89.143,89.143,0,0,1-44.546,77.134v23.091l12.954.006a78.009,78.009,0,1,1-1.8,16.679Zm11.137,0A66.819,66.819,0,1,0,256.16,189.3,66.9,66.9,0,0,0,189.341,256.121Zm-65.249-10.886,19.64,4.905,12.178-8.111V221.8a89.1,89.1,0,0,1-66.819,0v20.229l12.177,8.109,19.671-4.913a5.5,5.5,0,0,1,1.292-.216c.095,0,.189-.008.284-.008A5.487,5.487,0,0,1,124.092,245.235ZM44.546,108.1v31.109a77.955,77.955,0,0,0,155.911.082c0-.027,0-.055,0-.082V108.1L182.767,90.413c-9.006,4.67-32.662,15.383-60.266,15.383S71.247,95.087,62.235,90.412ZM64.107,78.74c.273.167,27.012,15.92,58.394,15.92s58.121-15.753,58.388-15.914l.045-.027a5.563,5.563,0,0,1,6.753.868l12.767,12.767V72.4c0-.026,0-.053,0-.079a33.442,33.442,0,0,0-33.41-33.33c-.084,0-.168,0-.251-.005a5.563,5.563,0,0,1-5.317-5.563V11.137H111.365A66.893,66.893,0,0,0,44.546,77.955v14.4L57.19,79.71a5.567,5.567,0,0,1,6.917-.969Zm130.8,177.381a61.25,61.25,0,1,1,61.25,61.267A61.323,61.323,0,0,1,194.91,256.121Zm11.136,0A50.114,50.114,0,1,0,256.16,206,50.178,50.178,0,0,0,206.046,256.121Z" transform="translate(9293 7277)" fill="#0d1b3a"/>
    </g>
  </g>
</svg>
