<svg xmlns="http://www.w3.org/2000/svg" width="384" height="316" viewBox="0 0 384 316">
  <g id="img_driving_behaviour" transform="translate(-512 -194)">
    <path id="Path_94774" data-name="Path 94774" d="M-3925,6673s126.4-21.528,172.143,0,10.82,86.112,10.82,86.112l-17.8,8.682-33.756-18.959s-12.6-40.923-36.993-54.564-60.575,0-60.575,0Z" transform="translate(4549 -6410)" opacity="0.16"/>
    <g id="Group_20317" data-name="Group 20317" transform="translate(-319.848)">
      <g id="Group_19234" data-name="Group 19234" transform="translate(977.679 240.931)">
        <path id="Path_92887" data-name="Path 92887" d="M1117.467,354.005l17.838-10.366c-8.828,5.031-14.3,15.836-14.347,31.264L1103.12,385.27C1103.164,369.841,1108.639,359.037,1117.467,354.005Z" transform="translate(-1103.12 -343.639)" fill="#974006"/>
      </g>
      <g id="Group_19235" data-name="Group 19235" transform="translate(968.173 199.617)">
        <path id="Path_92888" data-name="Path 92888" d="M1070.069,210.359l17.838-10.366,23.853,41.314-17.838,10.366Z" transform="translate(-1070.069 -199.993)" fill="#f80202"/>
      </g>
      <g id="Group_19236" data-name="Group 19236" transform="translate(943.847 209.983)">
        <path id="Path_92889" data-name="Path 92889" d="M1009.816,236.036l23.852,41.314c-8.828,5.031-14.3,15.836-14.347,31.264L985.49,289.081C985.564,262.917,994.857,244.578,1009.816,236.036Z" transform="translate(-985.49 -236.036)" fill="#ab4a0a"/>
      </g>
      <g id="Group_19237" data-name="Group 19237" transform="translate(968.173 204.583)">
        <path id="Path_92890" data-name="Path 92890" d="M1128.454,228.572l-.11,38.892c-13.412-7.744-25.594-8.52-34.422-3.49L1070.07,222.66C1085.044,214.127,1105.684,215.426,1128.454,228.572Z" transform="translate(-1070.07 -217.26)" fill="#ec691f"/>
      </g>
      <g id="Group_19238" data-name="Group 19238" transform="translate(1026.447 205.529)">
        <path id="Path_92891" data-name="Path 92891" d="M1272.8,230.913l17.838-10.366-.11,38.892L1272.685,269.8Z" transform="translate(-1272.685 -220.546)" fill="#ffb300"/>
      </g>
      <g id="Group_19239" data-name="Group 19239" transform="translate(968.173 194.217)">
        <path id="Path_92892" data-name="Path 92892" d="M1070.07,196.983l17.838-10.366c14.974-8.533,35.615-7.235,58.385,5.911l-17.838,10.367C1105.684,189.749,1085.044,188.45,1070.07,196.983Z" transform="translate(-1070.07 -181.217)" fill="#e25c11"/>
      </g>
      <g id="Group_19240" data-name="Group 19240" transform="translate(1084.77 266.934)">
        <path id="Path_92893" data-name="Path 92893" d="M1475.47,444.417l17.838-10.366c14.891,25.776,24.05,54.768,23.976,80.932l-17.838,10.366C1499.52,499.185,1490.361,470.193,1475.47,444.417Z" transform="translate(-1475.47 -434.051)" fill="#fcbb96"/>
      </g>
      <g id="Group_19241" data-name="Group 19241" transform="translate(1060.776 277.3)">
        <path id="Path_92894" data-name="Path 92894" d="M1416.039,470.094c14.891,25.776,24.05,54.768,23.976,80.932l-33.846-19.541c.044-15.429-5.367-32.518-14.123-47.7Z" transform="translate(-1392.045 -470.094)" fill="#ffcbae"/>
      </g>
      <g id="Group_19242" data-name="Group 19242" transform="translate(1060.776 266.934)">
        <path id="Path_92895" data-name="Path 92895" d="M1392.045,458.107l17.838-10.366,23.994-13.69-17.838,10.366Z" transform="translate(-1392.045 -434.051)" fill="#52ba52"/>
      </g>
      <g id="Group_19243" data-name="Group 19243" transform="translate(1026.557 205.528)">
        <path id="Path_92896" data-name="Path 92896" d="M1273.069,230.913l17.838-10.367c22.755,13.138,43.35,35.647,58.212,61.406l-17.838,10.366C1316.419,266.559,1295.824,244.05,1273.069,230.913Z" transform="translate(-1273.069 -220.546)" fill="#fc8542"/>
      </g>
      <g id="Group_19244" data-name="Group 19244" transform="translate(1026.447 215.895)">
        <path id="Path_92897" data-name="Path 92897" d="M1272.8,256.59c22.755,13.138,43.35,35.646,58.212,61.405l-23.994,13.69c-8.8-15.208-20.9-28.451-34.329-36.2Z" transform="translate(-1272.686 -256.59)" fill="#ff975d"/>
      </g>
      <g id="Group_19256" data-name="Group 19256" transform="translate(1030.33 276.344)">
        <g id="Group_19255" data-name="Group 19255" transform="translate(0)" style="isolation: isolate">
          <g id="Group_19247" data-name="Group 19247" transform="translate(2.031 16.761)">
            <path id="Path_92898" data-name="Path 92898" d="M1301.356,528.646a12.326,12.326,0,0,0,5.594,9.688l-8.108,4.712a12.326,12.326,0,0,1-5.593-9.688l8.107-4.712-8.108,4.712a3.929,3.929,0,0,1,1.637-3.6l8.108-4.712A3.93,3.93,0,0,0,1301.356,528.646Z" transform="translate(-1293.248 -525.046)" fill="#587380"/>
          </g>
          <g id="Group_19248" data-name="Group 19248" transform="translate(7.624 30.049)">
            <path id="Path_92899" data-name="Path 92899" d="M1320.8,571.247c1.56.9,2.973.984,3.993.391l-8.108,4.712c-1.02.593-2.433.51-3.993-.391Z" transform="translate(-1312.696 -571.247)" fill="#587380"/>
          </g>
          <g id="Group_19249" data-name="Group 19249" transform="translate(3.668 16.382)">
            <path id="Path_92900" data-name="Path 92900" d="M1298.94,528.82l8.108-4.712a3.959,3.959,0,0,1,3.993.391l-8.108,4.712C1301.373,528.311,1299.96,528.227,1298.94,528.82Z" transform="translate(-1298.94 -523.73)" fill="#37474f"/>
          </g>
          <g id="Group_19250" data-name="Group 19250" transform="translate(7.661 17.152)">
            <path id="Path_92901" data-name="Path 92901" d="M1324.888,539.694l-8.108,4.712a3.928,3.928,0,0,0,1.637-3.6,12.325,12.325,0,0,0-5.593-9.688l8.108-4.712a12.327,12.327,0,0,1,5.593,9.688A3.928,3.928,0,0,1,1324.888,539.694Z" transform="translate(-1312.823 -526.406)" fill="#37474f"/>
          </g>
          <g id="Group_19251" data-name="Group 19251" transform="translate(0 4.712)">
            <path id="Path_92902" data-name="Path 92902" d="M1288.441,497.419c2.992-1.722,44.64-13.64,46.832-14.267-1.652,1.562-33.048,31.237-36.04,32.942-1.5.848-3.467.573-5.426-.558a15.538,15.538,0,0,1-5.4-5.693C1285.433,504.695,1285.449,499.125,1288.441,497.419Zm5.37,15.781c3.1,1.79,5.62.353,5.63-3.208a12.326,12.326,0,0,0-5.594-9.688c-3.1-1.79-5.62-.353-5.63,3.208a12.326,12.326,0,0,0,5.593,9.688Z" transform="translate(-1286.187 -483.152)" fill="#7a7a7a"/>
          </g>
          <g id="Group_19252" data-name="Group 19252" transform="translate(2.031 21.094)">
            <path id="Path_92903" data-name="Path 92903" d="M1298.879,540.883a12.325,12.325,0,0,1,5.593,9.688c-.01,3.561-2.53,5-5.63,3.208a12.326,12.326,0,0,1-5.593-9.688C1293.259,540.53,1295.779,539.094,1298.879,540.883Z" transform="translate(-1293.249 -540.113)" fill="#bfbfbf"/>
          </g>
          <g id="Group_19253" data-name="Group 19253" transform="translate(13.046)">
            <path id="Path_92904" data-name="Path 92904" d="M1375.695,466.769c-1.652,1.562-33.049,31.237-36.04,32.942l-8.108,4.712c2.992-1.7,34.388-31.38,36.041-32.942Z" transform="translate(-1331.546 -466.769)" fill="#333"/>
          </g>
          <g id="Group_19254" data-name="Group 19254" transform="translate(2.254)">
            <path id="Path_92905" data-name="Path 92905" d="M1294.025,485.748l8.108-4.712c2.992-1.722,44.64-13.64,46.832-14.267l-8.108,4.712C1338.665,472.108,1297.017,484.027,1294.025,485.748Z" transform="translate(-1294.025 -466.769)" fill="#bfbfbf"/>
          </g>
        </g>
      </g>
    </g>
    <path id="Subtraction_25" data-name="Subtraction 25" d="M45.581,53.855H4.308A4.313,4.313,0,0,1,0,49.546V4.308A4.313,4.313,0,0,1,4.308,0H103.4a4.313,4.313,0,0,1,4.308,4.308V20.465h4.066V16.156l15.112,10.771L111.775,37.7V33.39h-4.066V49.546a4.313,4.313,0,0,1-4.308,4.308H62.127L53.855,42.3l-8.274,11.55Z" transform="translate(588.384 385.953)" fill="#ff975d"/>
    <path id="Subtraction_28" data-name="Subtraction 28" d="M103.4,74.021H4.309A4.314,4.314,0,0,1,0,69.713V24.475a4.313,4.313,0,0,1,4.309-4.308H47.392V15.038H43.083L53.855,0l10.77,15.038H60.317v5.129H103.4a4.313,4.313,0,0,1,4.308,4.308v14.9l-10.83,7.719,10.83,7.719v14.9A4.314,4.314,0,0,1,103.4,74.021Z" transform="translate(588.384 435.796)" fill="#ff975d"/>
    <path id="Subtraction_20" data-name="Subtraction 20" d="M122.847,53.854H23.755a4.313,4.313,0,0,1-4.308-4.309V33.39H15.112V37.7L0,26.927,15.112,16.156v4.308h4.335V4.308A4.313,4.313,0,0,1,23.755,0H65.8l7.5,10.471L80.8,0h42.045a4.313,4.313,0,0,1,4.309,4.308V49.546A4.314,4.314,0,0,1,122.847,53.854Z" transform="translate(693.341 455.963)" fill="#ff975d"/>
    <path id="Subtraction_21" data-name="Subtraction 21" d="M53.854,72.944h0L43.083,57.907h4.309V53.855H4.309A4.314,4.314,0,0,1,0,49.546V34.454l10.561-7.527L0,19.4V4.308A4.313,4.313,0,0,1,4.309,0H103.4a4.313,4.313,0,0,1,4.308,4.308V49.546a4.313,4.313,0,0,1-4.308,4.309H60.317v4.052h4.308L53.855,72.943Z" transform="translate(712.788 385.952)" fill="#ff975d"/>
    <path id="Subtraction_18" data-name="Subtraction 18" d="M45.581,53.855H4.308A4.313,4.313,0,0,1,0,49.546V4.308A4.313,4.313,0,0,1,4.308,0H103.4a4.313,4.313,0,0,1,4.308,4.308V20.465h4.066V16.156l15.112,10.771L111.775,37.7V33.39h-4.066V49.546a4.313,4.313,0,0,1-4.308,4.308H62.127L53.855,42.3l-8.274,11.55Z" transform="translate(587 385.107)" fill="#fff4ee"/>
    <text id="Create_KPIs" data-name="Create KPIs" transform="translate(605.311 416.686)" fill="#0d1b3a" font-size="12" font-family="OpenSans-SemiBold, Open Sans" font-weight="600"><tspan x="0" y="0">Create KPIs</tspan></text>
    <path id="Subtraction_11" data-name="Subtraction 11" d="M103.4,74.021H4.309A4.314,4.314,0,0,1,0,69.713V24.475a4.313,4.313,0,0,1,4.309-4.308H47.392V15.038H43.083L53.855,0l10.77,15.038H60.317v5.129H103.4a4.313,4.313,0,0,1,4.308,4.308v14.9l-10.83,7.719,10.83,7.719v14.9A4.314,4.314,0,0,1,103.4,74.021Z" transform="translate(587 434.951)" fill="#fff4ee"/>
    <text id="Improve" transform="translate(615.384 487)" fill="#0d1b3a" font-size="13" font-family="OpenSans-SemiBold, Open Sans" font-weight="600"><tspan x="0" y="0">Improve</tspan></text>
    <path id="Subtraction_8" data-name="Subtraction 8" d="M122.847,53.854H23.755a4.313,4.313,0,0,1-4.308-4.309V33.39H15.112V37.7L0,26.927,15.112,16.156v4.308h4.335V4.308A4.313,4.313,0,0,1,23.755,0H65.8l7.5,10.471L80.8,0h42.045a4.313,4.313,0,0,1,4.309,4.308V49.546A4.314,4.314,0,0,1,122.847,53.854Z" transform="translate(691.957 455.118)" fill="#fff4ee"/>
    <text id="Coach" transform="translate(746.384 487)" fill="#0d1b3a" font-size="13" font-family="OpenSans-SemiBold, Open Sans" font-weight="600"><tspan x="0" y="0">Coach</tspan></text>
    <path id="Subtraction_6" data-name="Subtraction 6" d="M53.854,72.944h0L43.083,57.907h4.309V53.855H4.309A4.314,4.314,0,0,1,0,49.546V34.454l10.561-7.527L0,19.4V4.308A4.313,4.313,0,0,1,4.309,0H103.4a4.313,4.313,0,0,1,4.308,4.308V49.546a4.313,4.313,0,0,1-4.308,4.309H60.317v4.052h4.308L53.855,72.943Z" transform="translate(711.404 385.106)" fill="#fff4ee"/>
    <text id="Measure" transform="translate(738.331 416.686)" fill="#0d1b3a" font-size="12" font-family="OpenSans-SemiBold, Open Sans" font-weight="600"><tspan x="0" y="0">Measure</tspan></text>
    <rect id="Rectangle_4628" data-name="Rectangle 4628" width="384" height="316" transform="translate(512 194)" fill="none"/>
    <path id="Path_94737" data-name="Path 94737" d="M-39.344-5.093a4.922,4.922,0,0,1-1.4,3.78A5.729,5.729,0,0,1-44.806,0h-2.83V-9.994H-44.5A5.284,5.284,0,0,1-40.7-8.7,4.752,4.752,0,0,1-39.344-5.093Zm-2.2.055q0-3.22-2.844-3.22h-1.128V-1.75h.909Q-41.545-1.75-41.545-5.038Zm8.374-2.748a3.362,3.362,0,0,1,.7.062l-.157,1.955a2.389,2.389,0,0,0-.615-.068,2.211,2.211,0,0,0-1.555.513,1.853,1.853,0,0,0-.557,1.436V0h-2.085V-7.643h1.579l.308,1.285h.1a2.873,2.873,0,0,1,.96-1.036A2.368,2.368,0,0,1-33.171-7.786Zm2-1.832q0-1.019,1.135-1.019T-28.9-9.618a.993.993,0,0,1-.284.755,1.192,1.192,0,0,1-.851.27Q-31.168-8.593-31.168-9.618ZM-28.995,0H-31.08V-7.643h2.085Zm4.006,0L-27.9-7.643h2.181l1.477,4.354a7.77,7.77,0,0,1,.308,1.565h.041a6.807,6.807,0,0,1,.308-1.565l1.47-4.354h2.181L-22.849,0Zm6.057-9.618q0-1.019,1.135-1.019t1.135,1.019a.993.993,0,0,1-.284.755,1.192,1.192,0,0,1-.851.27Q-18.932-8.593-18.932-9.618ZM-16.758,0h-2.085V-7.643h2.085Zm9.242,0H-9.6V-4.464A2.144,2.144,0,0,0-9.9-5.7a1.069,1.069,0,0,0-.937-.414,1.408,1.408,0,0,0-1.265.584,3.625,3.625,0,0,0-.39,1.938V0h-2.085V-7.643h1.593l.28.978h.116a2.2,2.2,0,0,1,.96-.837,3.271,3.271,0,0,1,1.391-.284,2.673,2.673,0,0,1,2.023.721,2.894,2.894,0,0,1,.69,2.082Zm8.8-7.643v1.06l-1.2.308A2.085,2.085,0,0,1,.414-5.127,2.319,2.319,0,0,1-.444-3.209a3.716,3.716,0,0,1-2.382.687L-3.2-2.543l-.308-.034a.693.693,0,0,0-.321.547q0,.451,1.148.451h1.3a2.963,2.963,0,0,1,1.917.54A1.93,1.93,0,0,1,1.193.547,2.352,2.352,0,0,1,.075,2.625a5.821,5.821,0,0,1-3.209.738,4.443,4.443,0,0,1-2.444-.557,1.769,1.769,0,0,1-.844-1.562A1.635,1.635,0,0,1-5.992.089,2.445,2.445,0,0,1-4.727-.574a1.4,1.4,0,0,1-.561-.448,1.064,1.064,0,0,1-.239-.66,1.069,1.069,0,0,1,.253-.728,2.924,2.924,0,0,1,.731-.571A2.051,2.051,0,0,1-5.5-3.814a2.538,2.538,0,0,1-.352-1.354A2.387,2.387,0,0,1-5.035-7.1,3.518,3.518,0,0,1-2.71-7.786a5.949,5.949,0,0,1,.762.058q.441.058.564.085Zm-5.9,8.723a.756.756,0,0,0,.414.677A2.276,2.276,0,0,0-3.045,2,4.1,4.1,0,0,0-1.289,1.7.938.938,0,0,0-.653.854.6.6,0,0,0-1.029.26,3.079,3.079,0,0,0-2.191.1h-1.08a1.636,1.636,0,0,0-.96.27A.833.833,0,0,0-4.618,1.08Zm.759-6.221a1.556,1.556,0,0,0,.284.984,1.03,1.03,0,0,0,.865.362,1.009,1.009,0,0,0,.861-.362,1.6,1.6,0,0,0,.273-.984q0-1.381-1.135-1.381T-3.859-5.141ZM11.508-2.27a2.1,2.1,0,0,1-.817,1.791A4.036,4.036,0,0,1,8.248.137,7.676,7.676,0,0,1,6.826.024a5.378,5.378,0,0,1-1.1-.332V-2.03a7.268,7.268,0,0,0,1.309.458,5.3,5.3,0,0,0,1.282.185q1.135,0,1.135-.656a.548.548,0,0,0-.15-.4,2.18,2.18,0,0,0-.52-.349q-.369-.195-.984-.455a6.184,6.184,0,0,1-1.3-.684,1.924,1.924,0,0,1-.6-.721,2.381,2.381,0,0,1-.188-1A1.815,1.815,0,0,1,6.5-7.229,3.846,3.846,0,0,1,8.74-7.786a6.355,6.355,0,0,1,2.687.6l-.629,1.5q-.574-.246-1.073-.4a3.37,3.37,0,0,0-1.019-.157q-.923,0-.923.5a.587.587,0,0,0,.3.485,8.087,8.087,0,0,0,1.3.608,6.05,6.05,0,0,1,1.313.677,2,2,0,0,1,.615.725A2.227,2.227,0,0,1,11.508-2.27ZM16.239.137Q12.67.137,12.67-3.78a4.178,4.178,0,0,1,.971-2.977,3.641,3.641,0,0,1,2.782-1.029,5.3,5.3,0,0,1,2.379.52l-.615,1.613q-.492-.2-.916-.325a2.951,2.951,0,0,0-.848-.126Q14.8-6.1,14.8-3.794q0,2.242,1.627,2.242a3.709,3.709,0,0,0,1.114-.161,4.023,4.023,0,0,0,1.025-.5V-.431a3.36,3.36,0,0,1-1.022.444A5.747,5.747,0,0,1,16.239.137ZM24.6-7.786a3.362,3.362,0,0,1,.7.062L25.146-5.77a2.388,2.388,0,0,0-.615-.068,2.211,2.211,0,0,0-1.555.513,1.853,1.853,0,0,0-.557,1.436V0H20.333V-7.643h1.579l.308,1.285h.1a2.873,2.873,0,0,1,.96-1.036A2.368,2.368,0,0,1,24.6-7.786Zm3.753,3.951a3.208,3.208,0,0,0,.373,1.716,1.332,1.332,0,0,0,1.213.581,1.311,1.311,0,0,0,1.2-.578A3.254,3.254,0,0,0,31.5-3.835a3.157,3.157,0,0,0-.369-1.7,1.335,1.335,0,0,0-1.21-.567,1.33,1.33,0,0,0-1.2.564A3.154,3.154,0,0,0,28.352-3.835Zm5.284,0a4.107,4.107,0,0,1-.984,2.919A3.569,3.569,0,0,1,29.911.137a3.835,3.835,0,0,1-1.941-.482,3.207,3.207,0,0,1-1.292-1.384,4.652,4.652,0,0,1-.451-2.105A4.084,4.084,0,0,1,27.2-6.747a3.59,3.59,0,0,1,2.748-1.039,3.856,3.856,0,0,1,1.941.479,3.194,3.194,0,0,1,1.292,1.374A4.608,4.608,0,0,1,33.636-3.835Zm5.988-3.951a3.362,3.362,0,0,1,.7.062L40.171-5.77a2.389,2.389,0,0,0-.615-.068A2.211,2.211,0,0,0,38-5.325a1.853,1.853,0,0,0-.557,1.436V0H35.359V-7.643h1.579l.308,1.285h.1a2.873,2.873,0,0,1,.96-1.036A2.368,2.368,0,0,1,39.625-7.786ZM44.881-6.3a1.322,1.322,0,0,0-1.039.42,1.946,1.946,0,0,0-.431,1.193h2.926a1.738,1.738,0,0,0-.4-1.193A1.366,1.366,0,0,0,44.881-6.3ZM45.175.137A3.945,3.945,0,0,1,42.291-.882a3.857,3.857,0,0,1-1.039-2.885,4.242,4.242,0,0,1,.96-2.97,3.42,3.42,0,0,1,2.656-1.049,3.366,3.366,0,0,1,2.522.923,3.491,3.491,0,0,1,.9,2.55V-3.3H43.364a2.007,2.007,0,0,0,.526,1.388,1.852,1.852,0,0,0,1.381.5,5.732,5.732,0,0,0,1.306-.144,6.533,6.533,0,0,0,1.285-.458V-.4A4.9,4.9,0,0,1,46.693,0,7.37,7.37,0,0,1,45.175.137Z" transform="translate(648.636 325.288)" fill="#0d1b3a"/>
  </g>
</svg>
