<svg xmlns="http://www.w3.org/2000/svg" xmlns:xlink="http://www.w3.org/1999/xlink" width="822" height="727" viewBox="0 0 822 727">
  <defs>
    <clipPath id="clip-path">
      <rect id="Rectangle_3389" data-name="Rectangle 3389" width="822" height="727" transform="translate(-14414 -3118)" fill="none"/>
    </clipPath>
  </defs>
  <g id="img_b2b" transform="translate(14414 3118)" clip-path="url(#clip-path)">
    <g id="img_b2b-2" data-name="img_b2b" transform="translate(301.74)">
      <path id="Path_56990" data-name="Path 56990" d="M296.76,0C507.205,0,736.4,302.472,736.4,512.918S606.125,692.439,395.68,692.439,0,738.018,0,527.573,86.314,0,296.76,0Z" transform="matrix(0.966, -0.259, 0.259, 0.966, -14751, -3030.405)" fill="#ff975d" opacity="0.08"/>
      <path id="Path_56991" data-name="Path 56991" d="M296.76,696.6C507.205,696.6,736.4,394.131,736.4,183.685S606.125,4.164,395.68,4.164,0-41.415,0,169.03,86.314,696.6,296.76,696.6Z" transform="matrix(-0.966, -0.259, 0.259, -0.966, -14039.688, -2357.538)" fill="#ff975d" opacity="0.08"/>
      <g id="Group_9305" data-name="Group 9305" transform="translate(-14618.755 -3098.468)">
        <g id="Group_9304" data-name="Group 9304" transform="translate(94.888 393)">
          <path id="Path_4951" data-name="Path 4951" d="M138.471,50.534,136.3,48.368V37.247a1.932,1.932,0,0,0-1.932-1.932H123.252l-4.1-4.1a5.757,5.757,0,0,0-4.1-1.7H103.468V27.589A11.6,11.6,0,0,0,91.879,16H49.384A11.6,11.6,0,0,0,37.795,27.589v84.989H33.932A1.932,1.932,0,0,0,32,114.51v15.453a1.932,1.932,0,0,0,1.932,1.932h75.331v-3.863h-73.4V116.441h65.673a1.932,1.932,0,0,0,1.932-1.932V83.6H105.4a1.934,1.934,0,0,1,1.932,1.932v29.939a16.418,16.418,0,1,0,32.837,0V54.631a5.757,5.757,0,0,0-1.7-4.1ZM116.423,33.95l4.663,4.663a1.932,1.932,0,0,0,1.366.566h9.989v9.989a1.932,1.932,0,0,0,.566,1.366l2.732,2.731a1.92,1.92,0,0,1,.566,1.366V77.81h-3.863V56.231a1.931,1.931,0,0,0-.566-1.366L126.412,49.4a1.932,1.932,0,0,0-1.366-.566h-9.975c0-5.256-.014-9.662-.014-9.662a1.932,1.932,0,0,0-1.932-1.927h-1.932V33.384h3.863a1.919,1.919,0,0,1,1.366.566ZM105.4,72.015h-1.932V41.11h7.73c0,2.135.013,20.309.005,23.16a7.725,7.725,0,0,0,7.726,7.745h9.649v43.46a4.829,4.829,0,1,1-9.658,0V85.536A13.536,13.536,0,0,0,105.4,72.015ZM124.247,52.7l4.332,4.332v3.394h-5.795V52.7Zm-3.394,11.589h7.726v3.863h-9.649a3.862,3.862,0,0,1-3.863-3.872c.006-2.384.008-7.9.007-11.581h3.847v9.658A1.932,1.932,0,0,0,120.852,64.289ZM107.331,33.384v3.863h-3.863V33.384ZM41.658,112.578V27.589a7.735,7.735,0,0,1,7.726-7.726H91.879A7.735,7.735,0,0,1,99.6,27.589v84.989Zm94.647,2.9a12.555,12.555,0,1,1-25.11,0V85.536a5.8,5.8,0,0,0-5.795-5.795h-1.932V75.879H105.4a9.669,9.669,0,0,1,9.658,9.658v29.939a8.692,8.692,0,1,0,17.384,0v-33.8H136.3Z" transform="translate(-32 -16)" fill="#0d1b3a"/>
          <path id="Path_4952" data-name="Path 4952" d="M140.426,64H97.932A1.932,1.932,0,0,0,96,65.932V96.837a1.932,1.932,0,0,0,1.932,1.932h42.494a1.932,1.932,0,0,0,1.932-1.932V65.932A1.932,1.932,0,0,0,140.426,64Zm-1.932,30.905H99.863V67.863h38.631Z" transform="translate(-80.548 -52.411)" fill="#0d1b3a"/>
          <path id="Path_4953" data-name="Path 4953" d="M136,128h3.863v3.863H136Z" transform="translate(-110.89 -100.958)" fill="#ec691f"/>
          <path id="Path_4954" data-name="Path 4954" d="M168,128h3.863v3.863H168Z" transform="translate(-135.162 -100.958)" fill="#0d1b3a"/>
          <path id="Path_4955" data-name="Path 4955" d="M200,128h3.863v3.863H200Z" transform="translate(-159.437 -100.958)" fill="#ec691f"/>
          <path id="Path_4956" data-name="Path 4956" d="M232,128h3.863v3.863H232Z" transform="translate(-183.709 -100.958)" fill="#0d1b3a"/>
          <path id="Path_4957" data-name="Path 4957" d="M149.964,275.956a10.542,10.542,0,0,0,18.446-10.121l-7.8-16.721a1.932,1.932,0,0,0-3.5,0l-7.8,16.721A10.494,10.494,0,0,0,149.964,275.956Zm2.84-8.488,6.053-12.97,6.053,12.97a6.679,6.679,0,1,1-12.106,0Z" transform="translate(-120.225 -191.984)" fill="#ec691f"/>
        </g>
        <g id="Group_2175" data-name="Group 2175" transform="translate(372.827 405.701)">
          <g id="Group_2166" data-name="Group 2166" transform="translate(30.432 77.426)">
            <g id="Group_2165" data-name="Group 2165">
              <path id="Path_5261" data-name="Path 5261" d="M90.819,344.692h-.028a2.6,2.6,0,1,0,.028,0Z" transform="translate(-88.218 -344.692)" fill="#ec691f"/>
            </g>
          </g>
          <g id="Group_2168" data-name="Group 2168" transform="translate(52.554 77.426)">
            <g id="Group_2167" data-name="Group 2167">
              <path id="Path_5262" data-name="Path 5262" d="M154.948,344.692h-.028a2.6,2.6,0,1,0,.028,0Z" transform="translate(-152.347 -344.692)" fill="#ec691f"/>
            </g>
          </g>
          <g id="Group_2170" data-name="Group 2170" transform="translate(143.807 77.426)">
            <g id="Group_2169" data-name="Group 2169">
              <path id="Path_5263" data-name="Path 5263" d="M419.48,344.692h-.028a2.6,2.6,0,1,0,.028,0Z" transform="translate(-416.879 -344.692)" fill="#ec691f"/>
            </g>
          </g>
          <g id="Group_2172" data-name="Group 2172" transform="translate(0 0)">
            <g id="Group_2171" data-name="Group 2171">
              <path id="Path_5264" data-name="Path 5264" d="M174.243,166.391l-3.479-3.479-7.008-21.024a2.587,2.587,0,0,0-.784-5.053H137.907V125.6a5.358,5.358,0,0,0-5.352-5.352H5.352A5.359,5.359,0,0,0,0,125.6v60.835a5.358,5.358,0,0,0,5.352,5.352H8.3v5.707a5.358,5.358,0,0,0,5.352,5.352h5.958a13.639,13.639,0,0,0,24.46,5.394,13.639,13.639,0,0,0,24.46-5.394h64.455a13.647,13.647,0,0,0,27.047-2.587c0-.059,0-.118,0-.177h11.244a5.358,5.358,0,0,0,5.352-5.352v-22.6A8.062,8.062,0,0,0,174.243,166.391ZM19.606,197.671H13.648a.178.178,0,0,1-.178-.178v-5.707h8.847A13.6,13.6,0,0,0,19.606,197.671ZM33,208.732a8.473,8.473,0,0,1-.053-16.946h.106A8.473,8.473,0,0,1,33,208.732Zm22.122,0a8.473,8.473,0,0,1-.053-16.946h.106a8.473,8.473,0,0,1-.053,16.946Zm77.854-11.061H68.526a13.593,13.593,0,0,0-2.711-5.885h50.147a2.587,2.587,0,0,0,0-5.174H5.352a.178.178,0,0,1-.178-.178V125.6a.178.178,0,0,1,.178-.178h127.2a.178.178,0,0,1,.178.178v61.014h-5.707a2.587,2.587,0,0,0,0,5.174h8.668A13.591,13.591,0,0,0,132.982,197.671Zm32.853-33.183H149.146a.178.178,0,0,1-.178-.178V153.071h13.061Zm-19.454,44.244a8.473,8.473,0,0,1-.053-16.946h.071a8.474,8.474,0,0,1-.018,16.947Zm25.065-14a.178.178,0,0,1-.178.178H158.935a13.668,13.668,0,0,0-12.554-8.3h-8.474V142.189h0a.178.178,0,0,1,.178-.178h20.257L160.3,147.9H146.381a2.587,2.587,0,0,0-2.587,2.587V164.31a5.358,5.358,0,0,0,5.352,5.352H170.2l.388.388a2.925,2.925,0,0,1,.862,2.081v6.185H168.5a2.587,2.587,0,1,0,0,5.174h2.943Z" transform="translate(0 -120.245)" fill="#0d1b3a"/>
            </g>
          </g>
          <g id="Group_2174" data-name="Group 2174" transform="translate(11.061 55.305)">
            <g id="Group_2173" data-name="Group 2173">
              <path id="Path_5265" data-name="Path 5265" d="M145.262,280.567H34.651a2.587,2.587,0,0,0,0,5.174h110.61a2.587,2.587,0,0,0,0-5.174Z" transform="translate(-32.064 -280.567)" fill="#ec691f"/>
            </g>
          </g>
        </g>
        <g id="Group_9065" data-name="Group 9065" transform="translate(238.34 94.141)">
          <path id="Path_56285" data-name="Path 56285" d="M36.1,66.186H27.076a3.008,3.008,0,1,1,0-6.017h6.017V54.153H9.025A9.036,9.036,0,0,1,0,45.127V9.025A9.036,9.036,0,0,1,9.025,0H63.178A9.036,9.036,0,0,1,72.2,9.025v36.1a9.036,9.036,0,0,1-9.025,9.025H39.11V60.17h6.017a3.008,3.008,0,1,1,0,6.017ZM6.017,9.025v36.1a3.009,3.009,0,0,0,3.008,3.009H63.178a3.009,3.009,0,0,0,3.008-3.009V9.025a3.009,3.009,0,0,0-3.008-3.008H9.025A3.009,3.009,0,0,0,6.017,9.025Z" transform="translate(0 0)" fill="#0d1b3a"/>
          <path id="Path_56284" data-name="Path 56284" d="M27.076,66.187a3.008,3.008,0,0,1,0-6.017h6.017V54.153H9.025A9.036,9.036,0,0,1,0,45.127V9.025A9.036,9.036,0,0,1,9.025,0H63.178A9.036,9.036,0,0,1,72.2,9.025v36.1a9.036,9.036,0,0,1-9.025,9.025H39.11V60.17h6.017a3.008,3.008,0,1,1,0,6.017ZM6.017,9.025v36.1a3.009,3.009,0,0,0,3.008,3.009H63.178a3.009,3.009,0,0,0,3.008-3.009V9.025a3.009,3.009,0,0,0-3.008-3.008H9.025A3.009,3.009,0,0,0,6.017,9.025Z" transform="translate(72.203 78.219)" fill="#0d1b3a"/>
          <path id="Path_56286" data-name="Path 56286" d="M24.068,96.271a3.008,3.008,0,1,1,0-6.017h9.025a3.008,3.008,0,0,1,0,6.017ZM11.023,95.73A15.086,15.086,0,0,1,0,81.229V78.473a3.008,3.008,0,0,1,6.017,0v2.756a9.051,9.051,0,0,0,6.613,8.7,3.008,3.008,0,0,1-.8,5.909A3.126,3.126,0,0,1,11.023,95.73ZM0,66.186V57.161a3.008,3.008,0,1,1,6.017,0v9.025a3.008,3.008,0,1,1-6.017,0ZM90.254,39.11V30.085a3.008,3.008,0,0,1,6.017,0V39.11a3.008,3.008,0,0,1-6.017,0Zm0-21.312V15.042a9.052,9.052,0,0,0-6.613-8.7,3.009,3.009,0,1,1,1.6-5.8,15.085,15.085,0,0,1,11.029,14.5V17.8a3.008,3.008,0,0,1-6.017,0ZM63.178,6.017a3.008,3.008,0,1,1,0-6.017H72.2a3.008,3.008,0,1,1,0,6.017Z" transform="translate(24.068 24.068)" fill="#ec691f"/>
        </g>
        <g id="Path_56988" data-name="Path 56988" transform="translate(0 284.663)" fill="none">
          <path d="M166.612,333.225A165.834,165.834,0,0,1,73.458,304.77a167.1,167.1,0,0,1-60.365-73.3A166.392,166.392,0,0,1,28.455,73.458a167.1,167.1,0,0,1,73.3-60.365A165.567,165.567,0,0,1,166.612,0a167.438,167.438,0,0,1,38.54,4.48A166.045,166.045,0,0,1,271.6,37.238a167.857,167.857,0,0,1,25.855,26.22,166.645,166.645,0,0,0,0,206.309,167.309,167.309,0,0,1-56.967,46.222,165.727,165.727,0,0,1-35.34,12.755A167.438,167.438,0,0,1,166.612,333.225Z" stroke="none"/>
          <path d="M 166.6120758056641 327.2245788574219 C 179.1677703857422 327.2245788574219 191.6693725585938 325.771484375 203.7696228027344 322.9056701660156 C 215.5290222167969 320.1205749511719 226.9881286621094 315.984619140625 237.8285217285156 310.6126098632813 C 248.4775695800781 305.3354797363281 258.5684814453125 298.8479309082031 267.8210144042969 291.3301696777344 C 275.8155212402344 284.8346252441406 283.1979064941406 277.5590209960938 289.8139038085938 269.66015625 C 267.4760131835938 239.7323760986328 255.6952667236328 204.2081146240234 255.6952667236328 166.6122741699219 C 255.6952667236328 129.0169525146484 267.4760131835938 93.49288940429688 289.8139038085938 63.56503677368164 C 283.1979064941406 55.66608428955078 275.8155212402344 48.39045715332031 267.8209838867188 41.89482498168945 C 258.5683288574219 34.37692260742188 248.4774169921875 27.88932418823242 237.8285217285156 22.61222457885742 C 226.9881744384766 17.24017333984375 215.5290679931641 13.10412406921387 203.7696685791016 10.31897449493408 C 191.6690673828125 7.453124046325684 179.16748046875 6.000024318695068 166.6120758056641 6.000024318695068 C 144.9272766113281 6.000024318695068 123.8941268920898 10.245774269104 104.0968704223633 18.61932373046875 C 94.5811767578125 22.64417457580566 85.40287017822266 27.62612342834473 76.81692504882813 33.42667388916016 C 68.31101989746094 39.17322540283203 60.3121223449707 45.77297592163086 53.04247283935547 53.04247283935547 C 45.77302551269531 60.31207275390625 39.17332458496094 68.31097412109375 33.42667388916016 76.81697082519531 C 27.62617301940918 85.40277099609375 22.64427375793457 94.58107757568359 18.61932373046875 104.096923828125 C 10.24577331542969 123.894172668457 6.00002384185791 144.9273681640625 6.00002384185791 166.6122741699219 C 6.00002384185791 188.2975311279297 10.24577331542969 209.3309783935547 18.6192741394043 229.1282196044922 C 22.64407348632813 238.6438293457031 27.62602424621582 247.8221740722656 33.42667388916016 256.4083251953125 C 39.17322540283203 264.9141845703125 45.77292251586914 272.9130249023438 53.04242324829102 280.1825866699219 C 60.31232452392578 287.4523620605469 68.31122589111328 294.0520324707031 76.81687164306641 299.7982788085938 C 85.40287017822266 305.5987854003906 94.5811767578125 310.5806274414063 104.0968246459961 314.6054382324219 C 123.8940734863281 322.9788818359375 144.9272308349609 327.2245788574219 166.6120758056641 327.2245788574219 M 166.6120758056641 333.2245788574219 C 144.1198272705078 333.2245788574219 122.3002243041992 328.8193664550781 101.759521484375 320.1314697265625 C 91.88722229003906 315.955810546875 82.36522674560547 310.7875366210938 73.45807647705078 304.77001953125 C 64.63577270507813 298.8098754882813 56.33957290649414 291.9648742675781 48.79982376098633 284.4252624511719 C 41.26012420654297 276.8855285644531 34.41512298583984 268.5892639160156 28.4549732208252 259.7671813964844 C 22.43752288818359 250.8601684570313 17.26907348632813 241.3381805419922 13.09327411651611 231.465576171875 C 4.405223846435547 210.9246673583984 2.365722684771754e-05 189.1048736572266 2.365722684771754e-05 166.6122741699219 C 2.365722684771754e-05 144.1200714111328 4.405223846435547 122.3004760742188 13.09327411651611 101.7596206665039 C 17.26912307739258 91.88702392578125 22.43752288818359 82.36502075195313 28.4549732208252 73.45812225341797 C 34.41532516479492 64.63572692871094 41.26032257080078 56.33947372436523 48.79982376098633 48.79987335205078 C 56.33942413330078 41.2603759765625 64.63567352294922 34.41532516479492 73.45807647705078 28.4549732208252 C 82.36507415771484 22.43747329711914 91.88707733154297 17.26907348632813 101.759521484375 13.09332370758057 C 122.3003234863281 4.405274391174316 144.119873046875 2.416992174403276e-05 166.6120758056641 2.416992174403276e-05 C 179.632568359375 2.416992174403276e-05 192.5993804931641 1.507474184036255 205.1524200439453 4.48047399520874 C 217.3543243408203 7.370424270629883 229.2444763183594 11.66197395324707 240.49267578125 17.23612403869629 C 251.5395660400391 22.71047401428223 262.0071105957031 29.44012451171875 271.6045837402344 37.23817443847656 C 281.1449584960938 44.98982238769531 289.8439331054688 53.81147384643555 297.4597778320313 63.45802307128906 C 274.0624084472656 93.09407043457031 261.6952819824219 128.7635192871094 261.6952819824219 166.6122741699219 C 261.6952819824219 204.4608306884766 274.0624084472656 240.1312255859375 297.4597778320313 269.7671813964844 C 289.84228515625 279.415771484375 281.143310546875 288.2366333007813 271.6045837402344 295.9868774414063 C 262.0072326660156 303.7847595214844 251.5396270751953 310.5143737792969 240.49267578125 315.9887390136719 C 229.2445678710938 321.5627136230469 217.3543243408203 325.8542785644531 205.1524200439453 328.7441711425781 C 192.5995178222656 331.7171630859375 179.6326751708984 333.2245788574219 166.6120758056641 333.2245788574219 Z" stroke="none" fill="#0d1b3a"/>
        </g>
        <g id="Path_56987" data-name="Path 56987" transform="translate(210.376 142.158)" fill="none">
          <path d="M250.612,477.225a165.833,165.833,0,0,1-93.154-28.455,167.1,167.1,0,0,1-60.365-73.3,166.51,166.51,0,0,1,11.331-151.745c.487.8.916,1.509,1.314,2.182A165.34,165.34,0,0,0,172.6,211.3a166.793,166.793,0,0,0,27.346-15.633,167.53,167.53,0,0,0,43.382-44.777c1.472-2.236,2.912-4.544,4.28-6.86,1.015-.018,2.027-.027,3.007-.027a165.835,165.835,0,0,1,93.155,28.455,167.1,167.1,0,0,1,60.365,73.3,166.393,166.393,0,0,1-15.362,158.008,167.1,167.1,0,0,1-73.305,60.364A165.575,165.575,0,0,1,250.612,477.225Z" stroke="none"/>
          <path d="M 250.61181640625 471.2245788574219 C 272.297119140625 471.2245788574219 293.3305969238281 466.9788818359375 313.1281127929688 458.60546875 C 322.6432495117188 454.5810241699219 331.8216552734375 449.5991821289063 340.4082946777344 443.7983093261719 C 348.9144592285156 438.0517272949219 356.9133605957031 431.4520874023438 364.182861328125 424.1827392578125 C 371.4522094726563 416.9134216308594 378.052001953125 408.9145812988281 383.7987976074219 400.4084167480469 C 389.5996704101563 391.8219299316406 394.5816040039063 382.6435852050781 398.606201171875 373.1283264160156 C 406.9797668457031 353.3310241699219 411.2255249023438 332.2976379394531 411.2255249023438 310.6123352050781 C 411.2255249023438 288.9273681640625 406.9797668457031 267.8941650390625 398.606201171875 248.096923828125 C 394.5815734863281 238.5817260742188 389.5996704101563 229.4033813476563 383.7988586425781 220.8169708251953 C 378.0522155761719 212.3109741210938 371.4524230957031 204.3121185302734 364.1828002929688 197.0425720214844 C 356.9134216308594 189.7730712890625 348.9145202636719 183.1733703613281 340.4082641601563 177.4267272949219 C 331.8223571777344 171.626220703125 322.6439514160156 166.6442718505859 313.1280517578125 162.6193695068359 C 293.4501342773438 154.2963714599609 272.5516052246094 150.0514831542969 251.0052947998047 150.00048828125 C 250.1330261230469 151.4126129150391 249.2403411865234 152.8125457763672 248.3360595703125 154.1861724853516 C 242.3956146240234 163.2090301513672 235.5662536621094 171.7232666015625 228.0378570556641 179.4923248291016 C 220.5146026611328 187.2563171386719 212.2249145507813 194.3470764160156 203.3992614746094 200.5674743652344 C 194.4972534179688 206.8421783447266 184.9649047851563 212.2913665771484 175.0670623779297 216.7636260986328 C 154.7182922363281 225.9584655761719 133.0278167724609 231.0420837402344 110.589241027832 231.8768768310547 C 104.4467544555664 242.7772827148438 99.60543823242188 254.3528747558594 96.17080688476563 266.3638610839844 C 92.07595825195313 280.6835632324219 89.99971008300781 295.5708618164063 89.99971008300781 310.6123352050781 C 89.99971008300781 332.2975158691406 94.24546051025391 353.3309326171875 102.619010925293 373.1282653808594 C 106.6438064575195 382.6439208984375 111.6257629394531 391.822265625 117.4263610839844 400.4083862304688 C 123.1729125976563 408.9142150878906 129.7726135253906 416.9131164550781 137.0421600341797 424.1827392578125 C 144.3118591308594 431.4523315429688 152.3107147216797 438.0519714355469 160.8165130615234 443.7983093261719 C 169.4027557373047 449.5989685058594 178.5810546875 454.580810546875 188.0965118408203 458.60546875 C 207.8937072753906 466.9789123535156 228.9269104003906 471.2245788574219 250.61181640625 471.2245788574219 M 250.61181640625 477.2245788574219 C 228.1195068359375 477.2245788574219 206.2999572753906 472.8194274902344 185.7592163085938 464.1315307617188 C 175.8869171142578 459.9559326171875 166.3649139404297 454.7875671386719 157.4577026367188 448.7700805664063 C 148.6353149414063 442.809814453125 140.3391571044922 435.9648742675781 132.799560546875 428.4253845214844 C 125.2599105834961 420.8856811523438 118.414909362793 412.5894775390625 112.4546585083008 403.7672119140625 C 106.4371566772461 394.8601379394531 101.2687606811523 385.338134765625 97.09300994873047 375.4656372070313 C 88.40496063232422 354.9247131347656 83.99971008300781 333.1049194335938 83.99971008300781 310.6123352050781 C 83.99971008300781 295.0128173828125 86.15376281738281 279.5705261230469 90.40206146240234 264.7142333984375 C 94.51866149902344 250.3183288574219 100.5822067260742 236.5262298583984 108.4241104125977 223.7210235595703 C 108.9109115600586 224.5162811279297 109.3396606445313 225.22998046875 109.7378616333008 225.9032287597656 C 131.6190032958984 225.1698303222656 152.7681579589844 220.2555694580078 172.5964050292969 211.2959289550781 C 182.1491546630859 206.9795684814453 191.3497619628906 201.7200317382813 199.9425048828125 195.663330078125 C 208.4629058837891 189.6580810546875 216.4658050537109 182.8125762939453 223.7289123535156 175.3170166015625 C 230.9972534179688 167.8163757324219 237.5901641845703 159.5968170166016 243.3246612548828 150.8867797851563 C 244.7967529296875 148.6506805419922 246.23681640625 146.3425750732422 247.6047668457031 144.0266265869141 C 248.6202087402344 144.0086669921875 249.6314544677734 144.0000305175781 250.61181640625 144.0000305175781 C 273.1044006347656 144.0000305175781 294.92431640625 148.4052734375 315.4653625488281 157.0933227539063 C 325.3379516601563 161.2691192626953 334.8600158691406 166.4374694824219 343.7671203613281 172.4549713134766 C 352.5897216796875 178.4153747558594 360.8859558105469 185.2603759765625 368.4254455566406 192.7999267578125 C 375.9649963378906 200.3394317626953 382.8101196289063 208.6356201171875 388.7705688476563 217.4580688476563 C 394.7880554199219 226.3652801513672 399.9565734863281 235.8873291015625 404.1322021484375 245.7596282958984 C 412.8202514648438 266.3003845214844 417.2255249023438 288.1199645996094 417.2255249023438 310.6123352050781 C 417.2255249023438 333.10498046875 412.8202514648438 354.9248352050781 404.1322021484375 375.4656372070313 C 399.9565734863281 385.3380126953125 394.7880554199219 394.8600769042969 388.7705688476563 403.7672119140625 C 382.8101196289063 412.5896301269531 375.9651184082031 420.8858337402344 368.4254455566406 428.4253845214844 C 360.8858642578125 435.9648742675781 352.589599609375 442.8097839355469 343.7671203613281 448.7700805664063 C 334.8597106933594 454.7876281738281 325.337646484375 459.9560241699219 315.4653625488281 464.1315307617188 C 294.9243469238281 472.8194274902344 273.1044616699219 477.2245788574219 250.61181640625 477.2245788574219 Z" stroke="none" fill="#0d1b3a"/>
        </g>
        <g id="Path_56989" data-name="Path 56989" transform="translate(65.199 0)" fill="none">
          <path d="M251.287,333.13h0a167.466,167.466,0,0,0-143.5-81.9c-1.884,0-3.794.032-5.675.095a166.394,166.394,0,0,1,5.344-177.864,167.1,167.1,0,0,1,73.3-60.365A166.392,166.392,0,0,1,338.766,28.455a167.1,167.1,0,0,1,60.365,73.3,166.4,166.4,0,0,1-14.258,156.355,167.174,167.174,0,0,1-70.727,60.408,165.319,165.319,0,0,1-62.858,14.607Z" stroke="none"/>
          <path d="M 254.5749359130859 326.9792785644531 C 274.4251403808594 325.8923645019531 293.6176452636719 321.2140197753906 311.6747741699219 313.05517578125 C 320.883056640625 308.8944702148438 329.7519226074219 303.8245849609375 338.0350646972656 297.9862670898438 C 346.2498168945313 292.1961364746094 353.9657287597656 285.5960388183594 360.9684143066406 278.3692932128906 C 367.9762268066406 271.1372375488281 374.3327331542969 263.2124938964844 379.861328125 254.8150329589844 C 385.4438781738281 246.3358306884766 390.2357177734375 237.2927856445313 394.103759765625 227.9370269775391 C 402.146484375 208.4839324951172 406.2244262695313 187.8512878417969 406.2244262695313 166.6122741699219 C 406.2244262695313 144.9274291992188 401.9786682128906 123.8942337036133 393.6051635742188 104.0969772338867 C 389.5804138183594 94.58162689208984 384.5985107421875 85.40328216552734 378.7978210449219 76.81697845458984 C 373.0512084960938 68.31102752685547 366.4515075683594 60.31212997436523 359.1819763183594 53.04257965087891 C 351.9126586914063 45.77323150634766 343.9137573242188 39.17348098754883 335.4075622558594 33.42673110961914 C 326.8216247558594 27.62618064880371 317.643310546875 22.64422988891602 308.1275634765625 18.61932945251465 C 288.3304138183594 10.24573040008545 267.2972717285156 5.999980449676514 245.6123657226563 5.999980449676514 C 223.9270172119141 5.999980449676514 202.8935699462891 10.24573040008545 183.0963745117188 18.61932945251465 C 173.5807189941406 22.64418029785156 164.4024200439453 27.62607955932617 155.8163757324219 33.42668151855469 C 147.3102264404297 39.17343139648438 139.3114166259766 45.77312850952148 132.0421142578125 53.04257965087891 C 124.7725677490234 60.31217956542969 118.1729202270508 68.31102752685547 112.4265213012695 76.81697845458984 C 106.6260681152344 85.40267944335938 101.6442184448242 94.58097839355469 97.61936950683594 104.0969314575195 C 89.24591827392578 123.8939819335938 85.00022125244141 144.9271850585938 85.00022125244141 166.6122741699219 C 85.00022125244141 181.2284240722656 86.96186828613281 195.7095794677734 90.83061981201172 209.6536254882813 C 94.27007293701172 222.0506286621094 99.2093505859375 234.006591796875 105.5292129516602 245.2417602539063 C 106.2833709716797 245.2320556640625 107.0365829467773 245.2271728515625 107.7860717773438 245.2271728515625 C 167.3204193115234 245.2271728515625 223.2259521484375 276.457275390625 254.5749359130859 326.9792785644531 M 251.2867126464844 333.1297912597656 L 251.2872772216797 333.1297302246094 C 221.4008178710938 282.6103820800781 166.4143676757813 251.2271728515625 107.7860717773438 251.2271728515625 C 105.9020233154297 251.2271728515625 103.9924697875977 251.259033203125 102.1106719970703 251.3220367431641 C 94.67967224121094 238.7609252929688 88.9398193359375 225.2816314697266 85.04901885986328 211.2576751708984 C 81.03531646728516 196.7913360595703 79.00022125244141 181.7704772949219 79.00022125244141 166.6122741699219 C 79.00022125244141 144.119873046875 83.40537261962891 122.3002777099609 92.09332275390625 101.7596282958984 C 96.26911926269531 91.88687896728516 101.4374237060547 82.36492919921875 107.4547729492188 73.4581298828125 C 113.4148712158203 64.63587951660156 120.2598190307617 56.33963012695313 127.7994689941406 48.79993057250977 C 135.3389129638672 41.26033020019531 143.6351165771484 34.41532897949219 152.45751953125 28.45498085021973 C 161.3645172119141 22.43753051757813 170.886474609375 17.26913070678711 180.7590179443359 13.09333038330078 C 201.2998199462891 4.405230522155762 223.1196746826172 -1.962890564755071e-05 245.6123657226563 -1.962890564755071e-05 C 268.1046142578125 -1.962890564755071e-05 289.9242248535156 4.405230522155762 310.4649047851563 13.09333038330078 C 320.3373107910156 17.26908111572266 329.859375 22.43748092651367 338.7664184570313 28.45498085021973 C 347.5888671875 34.41543197631836 355.8851318359375 41.26042938232422 363.4246215820313 48.79993057250977 C 370.9641723632813 56.33953094482422 377.8091735839844 64.63572692871094 383.76953125 73.4581298828125 C 389.7868347167969 82.36502838134766 394.955322265625 91.88697814941406 399.1311645507813 101.7596282958984 C 407.8191833496094 122.3003768920898 412.2244262695313 144.1199798583984 412.2244262695313 166.6122741699219 C 412.2244262695313 188.6420288085938 407.9932250976563 210.0459289550781 399.6485595703125 230.2294769287109 C 395.6354064941406 239.9361267089844 390.6641235351563 249.3179779052734 384.8727111816406 258.1144409179688 C 379.1384582519531 266.8241882324219 372.5456237792969 275.0437316894531 365.2773132324219 282.5445861816406 C 358.0146179199219 290.0396728515625 350.0120239257813 296.8850402832031 341.4917602539063 302.8904724121094 C 332.8992309570313 308.9468688964844 323.6985778808594 314.2063903808594 314.1453247070313 318.5229187011719 C 294.3141174316406 327.4833679199219 273.1656799316406 332.3978271484375 251.2872772216797 333.1297302246094 L 251.2867126464844 333.1297912597656 Z" stroke="none" fill="#0d1b3a"/>
        </g>
      </g>
    </g>
  </g>
</svg>
