<svg id="img_fleet_truck" xmlns="http://www.w3.org/2000/svg" xmlns:xlink="http://www.w3.org/1999/xlink" width="283.543" height="229.836" viewBox="0 0 283.543 229.836">
  <defs>
    <linearGradient id="linear-gradient" x1="-20.79" y1="-0.034" x2="-21.4" y2="0.576" gradientUnits="objectBoundingBox">
      <stop offset="0" stop-color="#fff"/>
      <stop offset="1"/>
    </linearGradient>
    <linearGradient id="linear-gradient-2" x1="-40.837" y1="0.019" x2="-41.865" y2="0.63" xlink:href="#linear-gradient"/>
  </defs>
  <path id="Path_127594" data-name="Path 127594" d="M520.913,462.275h0l.059-.086A.966.966,0,0,0,520.913,462.275Z" transform="translate(-260.571 -252.438)" fill="#be1e2d" fill-rule="evenodd"/>
  <g id="Group_28508" data-name="Group 28508" transform="translate(1.116 70.335)" opacity="0.3" style="mix-blend-mode: multiply;isolation: isolate">
    <path id="Path_127595" data-name="Path 127595" d="M46.513,227.521c-2.807,1.422-2.858,3.879-.115,5.453l124.441,72.278L275.57,364.184a11.316,11.316,0,0,0,9.99.105l39.183-21.649c2.751-1.524,2.743-4.031-.016-5.577L95.038,207.132a12.044,12.044,0,0,0-10.117-.233Z" transform="translate(-44.374 -205.897)"/>
  </g>
  <path id="Path_127596" data-name="Path 127596" d="M414.735,333.407a.144.144,0,0,0-.03,0l36.05-20.249a.893.893,0,0,1,.79.075L478.977,328.6a3.528,3.528,0,0,1,1.552,2.445l1.078,6.313,3.869,18.743.068,5.6a1.611,1.611,0,0,1,1.336,1.657c.095,1.439,0,1.536.037,2.982a2.321,2.321,0,0,1-.484,1.394l-.812.464.1,8.675a1.607,1.607,0,0,1,1.34,1.654c.092,1.445.033,4.335.069,5.776a2.332,2.332,0,0,1-.487,1.394l-34.369,19.718s-2.505,1.293-4.522.407l-10.9-6.16-.039-.553a21.225,21.225,0,0,0-9.909-16.609c-4.966-2.917-9.818-.015-9.639,5.624.01.328.032.661.061.992l-2.184-1.23-.308-3.512-.6-49.906C414.231,333.717,414.472,333.462,414.735,333.407Z" transform="translate(-211.927 -184.445)" fill="#ffd0b7"/>
  <g id="Group_28509" data-name="Group 28509" transform="translate(134.079 148.962)">
    <path id="Path_127597" data-name="Path 127597" d="M415.126,350.44s-.009,0-.016,0H415.1A.139.139,0,0,1,415.126,350.44Z" transform="translate(-346.396 -350.44)" fill="#fbaa7c"/>
    <path id="Path_127598" data-name="Path 127598" d="M292.8,358.148l1.8-1.075L350.5,388.483l6.94-3.794-.038-3.074-.217-18.075-.144-12.041c-.009-.729.222-.988.479-1.054l.347,0a1.3,1.3,0,0,1,.317.125l27.432,15.361a3.536,3.536,0,0,1,1.551,2.443l4.946,25.059.066,5.688c-2.546-.067-6.141-2.3-9.472-3.949l6.91,3.883c2.758,1.55,5.89-.448,5.89-.448l2.4-1.378.066,5.467-3.109,1.785a7.405,7.405,0,0,1-2.607.7l.1,8.67c-2.624-.052-6.79-2.359-10.35-4.01a28.115,28.115,0,0,0-11.4-13.916c-6-3.521-11.868-.633-12.671,5.572l-.293-.1.015,1.287-1.441,1.265-23.4-13.145,0-.378-.689.392-1.26-.708a8.742,8.742,0,0,0,.043-1.206,21.2,21.2,0,0,0-9.9-16.587c-4.958-2.912-9.8-.019-9.627,5.617.012.427.045.849.092,1.277l-.887-.5-1.407-.73a9.24,9.24,0,0,0,.047-1.2,21.217,21.217,0,0,0-9.9-16.591c-4.962-2.909-9.807-.016-9.63,5.617.011.427.045.852.092,1.278l-.883-.5c-.051-.462-.085-.922-.1-1.384C288.7,361.691,290.353,359.136,292.8,358.148Z" transform="translate(-288.804 -350.442)" fill="#fbaa7c"/>
  </g>
  <path id="Path_127599" data-name="Path 127599" d="M290.538,374.307c-.047-.426-.081-.852-.092-1.278-.15-4.78,3.31-7.585,7.393-6.551h0a8.633,8.633,0,0,1,2.237.934,21.217,21.217,0,0,1,9.9,16.591,9.257,9.257,0,0,1-.047,1.2l1.119.582-5.32,2.982a5.874,5.874,0,0,1-5.4-.589,18.456,18.456,0,0,1-8.614-14.439c0-.057,0-.11,0-.165,0,.02-.006.037-.006.055Z" transform="translate(-155.471 -208.694)" fill="#343433"/>
  <path id="Path_127600" data-name="Path 127600" d="M335.584,390.746l3.173-1.8a8.593,8.593,0,0,1,2.234.936,21.2,21.2,0,0,1,9.9,16.587,8.752,8.752,0,0,1-.044,1.206l1.078.608-5.279,2.956a5.882,5.882,0,0,1-5.4-.589,18.462,18.462,0,0,1-8.612-14.442C332.543,393.538,333.761,391.57,335.584,390.746Z" transform="translate(-174.708 -219.039)" fill="#343433"/>
  <path id="Path_127601" data-name="Path 127601" d="M280.87,368.968l2.016,1.119-.067-5.59-2.014-1.119Z" transform="translate(-151.077 -207.378)" fill="#8897a0"/>
  <g id="Group_28510" data-name="Group 28510" transform="translate(136.235 159.157)">
    <path id="Path_127602" data-name="Path 127602" d="M292.77,375.072a18.457,18.457,0,0,0,8.614,14.439c4.319,2.538,8.537.02,8.383-4.889a18.468,18.468,0,0,0-8.613-14.439C296.833,367.649,292.616,370.164,292.77,375.072Z" transform="translate(-292.766 -369.182)" fill="#424040"/>
  </g>
  <g id="Group_28511" data-name="Group 28511" transform="translate(136.828 160.269)">
    <path id="Path_127603" data-name="Path 127603" d="M293.862,376.646a17.032,17.032,0,0,0,7.855,13.293c3.938,2.33,7.783.011,7.641-4.5a17.014,17.014,0,0,0-7.854-13.29C297.566,369.814,293.722,372.132,293.862,376.646Z" transform="translate(-293.858 -371.226)" fill="#575656"/>
  </g>
  <g id="Group_28512" data-name="Group 28512" transform="translate(138.978 163.363)">
    <path id="Path_127604" data-name="Path 127604" d="M297.812,380.622a11.63,11.63,0,0,0,5.421,9.09c2.721,1.6,5.374.009,5.278-3.078a11.625,11.625,0,0,0-5.423-9.091C300.37,375.947,297.714,377.534,297.812,380.622Z" transform="translate(-297.809 -376.913)" fill="#cdcccb"/>
  </g>
  <path id="Path_127605" data-name="Path 127605" d="M301.275,376.93a3.077,3.077,0,0,0-2.619,3.462,10.923,10.923,0,0,0,5.078,8.544c2.053,1.2,4.059.472,4.719-1.375-.407,2.458-2.785,3.58-5.219,2.152a11.63,11.63,0,0,1-5.421-9.09C297.738,378.239,299.3,376.746,301.275,376.93Z" transform="translate(-158.832 -213.551)" fill="#424040"/>
  <g id="Group_28513" data-name="Group 28513" transform="translate(142.743 165.985)">
    <path id="Path_127606" data-name="Path 127606" d="M304.732,383.71a6.191,6.191,0,0,0,2.891,4.838,1.756,1.756,0,0,0,2.808-1.637,6.194,6.194,0,0,0-2.886-4.843A1.761,1.761,0,0,0,304.732,383.71Z" transform="translate(-304.731 -381.733)" fill="#e8e9e8"/>
  </g>
  <g id="Group_28514" data-name="Group 28514" transform="translate(144.911 168.254)">
    <path id="Path_127607" data-name="Path 127607" d="M308.717,386.526a1.949,1.949,0,0,0,.907,1.525.555.555,0,0,0,.887-.516,1.954,1.954,0,0,0-.911-1.526A.553.553,0,0,0,308.717,386.526Z" transform="translate(-308.716 -385.904)" fill="#424040"/>
  </g>
  <g id="Group_28515" data-name="Group 28515" transform="translate(146.539 171.705)">
    <path id="Path_127608" data-name="Path 127608" d="M311.722,392.437a.733.733,0,0,0,.2.641.213.213,0,0,0,.374-.114.733.733,0,0,0-.205-.642A.211.211,0,0,0,311.722,392.437Z" transform="translate(-311.71 -392.248)" fill="#424040"/>
  </g>
  <g id="Group_28516" data-name="Group 28516" transform="translate(144.083 166.705)">
    <path id="Path_127609" data-name="Path 127609" d="M307.195,383.29a.749.749,0,0,0,.345.579.209.209,0,0,0,.335-.2.721.721,0,0,0-.346-.576A.209.209,0,0,0,307.195,383.29Z" transform="translate(-307.195 -383.057)" fill="#424040"/>
  </g>
  <g id="Group_28517" data-name="Group 28517" transform="translate(146.196 167.512)">
    <path id="Path_127610" data-name="Path 127610" d="M311.163,384.586a.489.489,0,0,0-.027.511c.076.165.245.235.335.136a.49.49,0,0,0,.027-.51C311.421,384.558,311.25,384.488,311.163,384.586Z" transform="translate(-311.078 -384.541)" fill="#424040"/>
  </g>
  <g id="Group_28518" data-name="Group 28518" transform="translate(147.151 170.037)">
    <path id="Path_127611" data-name="Path 127611" d="M312.835,389.36a.5.5,0,0,0,.383.351c.177.053.337-.035.319-.164a.508.508,0,0,0-.379-.35C312.98,389.148,312.819,389.228,312.835,389.36Z" transform="translate(-312.834 -389.182)" fill="#424040"/>
  </g>
  <g id="Group_28519" data-name="Group 28519" transform="translate(143.29 168.797)">
    <path id="Path_127612" data-name="Path 127612" d="M305.811,387.28a.747.747,0,0,0,.645.206.205.205,0,0,0,.118-.365.745.745,0,0,0-.645-.208A.207.207,0,0,0,305.811,387.28Z" transform="translate(-305.736 -386.902)" fill="#424040"/>
  </g>
  <g id="Group_28520" data-name="Group 28520" transform="translate(144.572 170.748)">
    <path id="Path_127613" data-name="Path 127613" d="M308.406,391.276a.724.724,0,0,0,.416-.525.211.211,0,0,0-.309-.237.721.721,0,0,0-.417.527A.212.212,0,0,0,308.406,391.276Z" transform="translate(-308.093 -390.49)" fill="#424040"/>
  </g>
  <path id="Path_127614" data-name="Path 127614" d="M300.043,379.5l0,0,.056-.086C300.078,379.438,300.062,379.469,300.043,379.5Z" transform="translate(-159.849 -214.688)" fill="#be1e2d" fill-rule="evenodd"/>
  <path id="Path_127615" data-name="Path 127615" d="M339.9,401.79l0,0,.053-.084C339.935,401.729,339.919,401.762,339.9,401.79Z" transform="translate(-178.026 -224.855)" fill="#be1e2d" fill-rule="evenodd"/>
  <g id="Group_28521" data-name="Group 28521" transform="translate(157.916 171.282)">
    <path id="Path_127616" data-name="Path 127616" d="M332.629,397.36A18.462,18.462,0,0,0,341.24,411.8c4.322,2.536,8.537.02,8.384-4.89a18.444,18.444,0,0,0-8.617-14.439C336.692,389.934,332.474,392.456,332.629,397.36Z" transform="translate(-332.624 -391.471)" fill="#424040"/>
  </g>
  <g id="Group_28522" data-name="Group 28522" transform="translate(158.511 172.395)">
    <path id="Path_127617" data-name="Path 127617" d="M333.721,398.936a17.032,17.032,0,0,0,7.852,13.295c3.941,2.33,7.783.015,7.646-4.5a17.027,17.027,0,0,0-7.858-13.291C337.423,392.105,333.579,394.423,333.721,398.936Z" transform="translate(-333.717 -393.517)" fill="#575656"/>
  </g>
  <g id="Group_28523" data-name="Group 28523" transform="translate(160.658 175.488)">
    <path id="Path_127618" data-name="Path 127618" d="M337.667,402.91A11.637,11.637,0,0,0,343.089,412c2.721,1.6,5.375.009,5.28-3.08a11.629,11.629,0,0,0-5.426-9.091C340.226,398.238,337.569,399.827,337.667,402.91Z" transform="translate(-337.664 -399.203)" fill="#cdcccb"/>
  </g>
  <path id="Path_127619" data-name="Path 127619" d="M341.129,399.223a3.076,3.076,0,0,0-2.617,3.462,10.926,10.926,0,0,0,5.079,8.54c2.053,1.208,4.059.475,4.717-1.372-.407,2.459-2.783,3.58-5.218,2.151a11.637,11.637,0,0,1-5.422-9.093C337.592,400.526,339.16,399.041,341.129,399.223Z" transform="translate(-177.006 -223.718)" fill="#424040"/>
  <g id="Group_28524" data-name="Group 28524" transform="translate(164.427 178.111)">
    <path id="Path_127620" data-name="Path 127620" d="M344.594,406a6.183,6.183,0,0,0,2.886,4.84,1.757,1.757,0,0,0,2.81-1.636,6.191,6.191,0,0,0-2.889-4.845A1.757,1.757,0,0,0,344.594,406Z" transform="translate(-344.592 -404.024)" fill="#e8e9e8"/>
  </g>
  <g id="Group_28525" data-name="Group 28525" transform="translate(166.59 180.38)">
    <path id="Path_127621" data-name="Path 127621" d="M348.571,408.818a1.953,1.953,0,0,0,.91,1.523.554.554,0,0,0,.886-.517,1.955,1.955,0,0,0-.911-1.523A.553.553,0,0,0,348.571,408.818Z" transform="translate(-348.57 -408.196)" fill="#424040"/>
  </g>
  <g id="Group_28526" data-name="Group 28526" transform="translate(168.221 183.831)">
    <path id="Path_127622" data-name="Path 127622" d="M351.58,414.729a.714.714,0,0,0,.2.637.21.21,0,0,0,.372-.112.722.722,0,0,0-.2-.64A.209.209,0,0,0,351.58,414.729Z" transform="translate(-351.568 -414.54)" fill="#424040"/>
  </g>
  <g id="Group_28527" data-name="Group 28527" transform="translate(165.764 178.828)">
    <path id="Path_127623" data-name="Path 127623" d="M347.052,405.578a.736.736,0,0,0,.348.579.209.209,0,0,0,.334-.2.742.742,0,0,0-.346-.576A.21.21,0,0,0,347.052,405.578Z" transform="translate(-347.052 -405.343)" fill="#424040"/>
  </g>
  <g id="Group_28528" data-name="Group 28528" transform="translate(167.877 179.638)">
    <path id="Path_127624" data-name="Path 127624" d="M351.018,406.876a.491.491,0,0,0-.026.509c.076.166.245.234.333.14a.482.482,0,0,0,.028-.511C351.279,406.845,351.107,406.78,351.018,406.876Z" transform="translate(-350.935 -406.832)" fill="#424040"/>
  </g>
  <g id="Group_28529" data-name="Group 28529" transform="translate(168.832 182.161)">
    <path id="Path_127625" data-name="Path 127625" d="M352.692,411.651a.509.509,0,0,0,.381.351c.18.05.339-.036.32-.163a.513.513,0,0,0-.379-.354C352.837,411.435,352.676,411.518,352.692,411.651Z" transform="translate(-352.691 -411.47)" fill="#424040"/>
  </g>
  <g id="Group_28530" data-name="Group 28530" transform="translate(164.971 180.922)">
    <path id="Path_127626" data-name="Path 127626" d="M345.668,409.573a.764.764,0,0,0,.647.2.205.205,0,0,0,.116-.364.745.745,0,0,0-.645-.208A.208.208,0,0,0,345.668,409.573Z" transform="translate(-345.594 -409.193)" fill="#424040"/>
  </g>
  <g id="Group_28531" data-name="Group 28531" transform="translate(166.253 182.873)">
    <path id="Path_127627" data-name="Path 127627" d="M348.264,413.568a.725.725,0,0,0,.415-.525.213.213,0,0,0-.311-.24.732.732,0,0,0-.413.528A.211.211,0,0,0,348.264,413.568Z" transform="translate(-347.951 -412.78)" fill="#424040"/>
  </g>
  <path id="Path_127628" data-name="Path 127628" d="M337.7,388.769l-3.173,1.8a5.446,5.446,0,0,0-2.956,5.355l-1.172.676c-.048-.427-.08-.85-.092-1.277C330.151,390.543,333.615,387.737,337.7,388.769Z" transform="translate(-173.647 -218.86)" fill="#343433"/>
  <g id="Group_28532" data-name="Group 28532" transform="translate(201.329 188.366)" opacity="0.2">
    <path id="Path_127629" data-name="Path 127629" d="M413.875,422.877l.138,11.559.015,1.287-1.441,1.265-.155-12.844Z" transform="translate(-412.432 -422.877)"/>
  </g>
  <g id="Group_28538" data-name="Group 28538" transform="translate(205.337 196.904)">
    <g id="Group_28533" data-name="Group 28533" transform="translate(0.869 1.346)">
      <path id="Path_127630" data-name="Path 127630" d="M421.4,446.937a18.451,18.451,0,0,0,8.613,14.442c4.321,2.539,8.538.018,8.385-4.887a18.479,18.479,0,0,0-8.615-14.446C425.466,439.514,421.247,442.035,421.4,446.937Z" transform="translate(-421.398 -441.047)" fill="#424040"/>
    </g>
    <g id="Group_28534" data-name="Group 28534" transform="translate(1.464 2.461)">
      <path id="Path_127631" data-name="Path 127631" d="M422.495,448.517a17.027,17.027,0,0,0,7.853,13.289c3.94,2.333,7.781.015,7.644-4.5a17.02,17.02,0,0,0-7.858-13.291C426.2,441.685,422.351,444,422.495,448.517Z" transform="translate(-422.491 -443.097)" fill="#575656"/>
    </g>
    <path id="Path_127632" data-name="Path 127632" d="M429.906,448.8a3.079,3.079,0,0,0-2.62,3.466,10.931,10.931,0,0,0,5.077,8.538c2.051,1.209,4.065.477,4.72-1.371-.407,2.458-2.786,3.579-5.219,2.153a11.634,11.634,0,0,1-5.421-9.094C426.365,450.1,427.935,448.617,429.906,448.8Z" transform="translate(-422.828 -443.229)" fill="#424040"/>
    <g id="Group_28535" data-name="Group 28535" transform="translate(4.456 5.572)">
      <path id="Path_127633" data-name="Path 127633" d="M433.07,460.817a10.931,10.931,0,0,1-5.077-8.538,3.078,3.078,0,0,1,2.6-3.461,4.423,4.423,0,0,1,1.832.609,11.621,11.621,0,0,1,5.424,9.094,4.641,4.641,0,0,1-.067.944C437.118,461.3,435.116,462.02,433.07,460.817Z" transform="translate(-427.99 -448.817)" fill="#cdcccb"/>
      <path id="Path_127634" data-name="Path 127634" d="M445.941,468.487c-.011.064-.027.13-.042.195C445.914,468.617,445.93,468.549,445.941,468.487Z" transform="translate(-436.157 -457.787)" fill="#cdcccb"/>
    </g>
    <g id="Group_28536" data-name="Group 28536" transform="translate(5.816 8.829)">
      <path id="Path_127635" data-name="Path 127635" d="M430.492,456.779a6.2,6.2,0,0,0,2.891,4.839,1.757,1.757,0,0,0,2.808-1.639,6.192,6.192,0,0,0-2.887-4.839A1.76,1.76,0,0,0,430.492,456.779Z" transform="translate(-430.49 -454.804)" fill="#e8e9e8"/>
    </g>
    <g id="Group_28537" data-name="Group 28537" transform="translate(4.496 5.794)">
      <path id="Path_127636" data-name="Path 127636" d="M439.456,456.7l1.273-1.264c.239.329.461.666.667,1.017l-1.613.745C439.682,457.025,439.571,456.861,439.456,456.7Z" transform="translate(-433.26 -452.056)" fill="#343433" fill-rule="evenodd"/>
      <path id="Path_127637" data-name="Path 127637" d="M435.652,452.419c-.084-.045-.163-.084-.248-.123l.309-2.217a.953.953,0,0,1,.118.06,9.6,9.6,0,0,1,.925.64l-.771,1.854C435.876,452.558,435.762,452.486,435.652,452.419Z" transform="translate(-431.412 -449.614)" fill="#343433" fill-rule="evenodd"/>
      <path id="Path_127638" data-name="Path 127638" d="M440.76,459.466l1.669-.647a11.4,11.4,0,0,1,.51,1.217l-1.9.141A6.1,6.1,0,0,0,440.76,459.466Z" transform="translate(-433.854 -453.6)" fill="#343433" fill-rule="evenodd"/>
      <path id="Path_127639" data-name="Path 127639" d="M437.711,454.216l.741-1.85a10.733,10.733,0,0,1,.885.92l-1.129,1.443C438.053,454.553,437.886,454.378,437.711,454.216Z" transform="translate(-432.464 -450.657)" fill="#343433" fill-rule="evenodd"/>
      <path id="Path_127640" data-name="Path 127640" d="M430.029,453.049l-.99-1.605a3.235,3.235,0,0,1,.192-.332,2.721,2.721,0,0,1,.273-.357l.786,2.017A1.566,1.566,0,0,0,430.029,453.049Z" transform="translate(-428.509 -449.922)" fill="#343433" fill-rule="evenodd"/>
      <path id="Path_127641" data-name="Path 127641" d="M429.244,455.11l-1.041-1.159a6.335,6.335,0,0,1,.176-.691l1.036,1.309A2.3,2.3,0,0,0,429.244,455.11Z" transform="translate(-428.128 -451.065)" fill="#343433" fill-rule="evenodd"/>
      <path id="Path_127642" data-name="Path 127642" d="M431.45,451.887l-.674-2.217a2.144,2.144,0,0,1,.76-.339l.343,2.41A1.711,1.711,0,0,0,431.45,451.887Z" transform="translate(-429.301 -449.273)" fill="#343433" fill-rule="evenodd"/>
      <path id="Path_127643" data-name="Path 127643" d="M433.354,451.654l-.305-2.431h.016a2.89,2.89,0,0,1,.93.171l-.2,2.324A2.3,2.3,0,0,0,433.354,451.654Z" transform="translate(-430.338 -449.224)" fill="#343433" fill-rule="evenodd"/>
      <path id="Path_127644" data-name="Path 127644" d="M441.652,462.756l1.973-.008a10.007,10.007,0,0,1,.225,1.21l-2.1-.5A5.87,5.87,0,0,0,441.652,462.756Z" transform="translate(-434.261 -455.391)" fill="#343433" fill-rule="evenodd"/>
      <path id="Path_127645" data-name="Path 127645" d="M434.072,466.456l.076,1.174c-.221-.2-.438-.41-.647-.633l.159-.924C433.792,466.209,433.928,466.334,434.072,466.456Z" transform="translate(-430.543 -456.908)" fill="#343433" fill-rule="evenodd"/>
      <path id="Path_127646" data-name="Path 127646" d="M431.757,464.3l-.279.764a11.268,11.268,0,0,1-.726-1.081l.687-.144C431.539,464,431.645,464.156,431.757,464.3Z" transform="translate(-429.29 -455.89)" fill="#343433" fill-rule="evenodd"/>
      <path id="Path_127647" data-name="Path 127647" d="M430.172,461.377l-.664.169a10.913,10.913,0,0,1-.532-1.282l.867.282A6.916,6.916,0,0,0,430.172,461.377Z" transform="translate(-428.48 -454.258)" fill="#343433" fill-rule="evenodd"/>
      <path id="Path_127648" data-name="Path 127648" d="M441.684,465.373l2.179.54c0,.053.007.1.007.156a2.748,2.748,0,0,1-.113.832l-2.2-1.024A2.444,2.444,0,0,0,441.684,465.373Z" transform="translate(-434.216 -456.588)" fill="#343433" fill-rule="evenodd"/>
      <path id="Path_127649" data-name="Path 127649" d="M429.134,457.089a5.432,5.432,0,0,0,.1.843l-.921-.35a8.766,8.766,0,0,1-.25-1.407Z" transform="translate(-428.065 -452.394)" fill="#343433" fill-rule="evenodd"/>
      <path id="Path_127650" data-name="Path 127650" d="M435.795,467.688c.1.055.2.106.3.152l.684,1.615c-.055-.016-.106-.039-.162-.052-.034-.022-.071-.039-.108-.061-.23-.135-.455-.286-.674-.446l-.307-1.384C435.615,467.573,435.7,467.63,435.795,467.688Z" transform="translate(-431.467 -457.563)" fill="#343433" fill-rule="evenodd"/>
      <path id="Path_127651" data-name="Path 127651" d="M440.985,467l2.106,1.235a2.274,2.274,0,0,1-.453.5,2.5,2.5,0,0,1-.232.169l-1.682-1.581A1.941,1.941,0,0,0,440.985,467Z" transform="translate(-433.838 -457.332)" fill="#343433" fill-rule="evenodd"/>
      <path id="Path_127652" data-name="Path 127652" d="M439.806,468.115l1.569,1.548a3.439,3.439,0,0,1-.732.2l-1.094-1.636A1.733,1.733,0,0,0,439.806,468.115Z" transform="translate(-433.302 -457.839)" fill="#343433" fill-rule="evenodd"/>
      <path id="Path_127653" data-name="Path 127653" d="M438.323,468.491l.887,1.594h-.035a4.772,4.772,0,0,1-.622-.042l-.762-1.567A1.957,1.957,0,0,0,438.323,468.491Z" transform="translate(-432.5 -458.003)" fill="#343433" fill-rule="evenodd"/>
    </g>
    <path id="Path_127654" data-name="Path 127654" d="M426.6,438.661l0,0,.016,0a.22.22,0,0,1,.057.009l-.007,0a8.168,8.168,0,0,1,2.775,1.043,21.225,21.225,0,0,1,9.91,16.609l.039.553,1.172.665-5.249,2.939a5.641,5.641,0,0,0,2.355-5.124,18.479,18.479,0,0,0-8.615-14.446c-4.319-2.531-8.537-.011-8.383,4.891,0,.019,0,.039,0,.058l-.81.463c-.029-.329-.051-.66-.061-.986C419.659,440.8,422.787,438.037,426.6,438.661Z" transform="translate(-419.799 -438.573)" fill="#343433"/>
  </g>
  <g id="Group_28540" data-name="Group 28540" transform="translate(227.099 177.323)">
    <path id="Path_127655" data-name="Path 127655" d="M506.491,457.747l13.7-7.89a1.828,1.828,0,0,0,.831-1.451l0,.458a1.819,1.819,0,0,1-.828,1.447L506.5,458.2c-.461.269-.846.054-.854-.48l0-.456C505.646,457.8,506.03,458.015,506.491,457.747Z" transform="translate(-480.706 -423.476)" fill="#fff" opacity="0.5" style="mix-blend-mode: overlay;isolation: isolate"/>
    <path id="Path_127656" data-name="Path 127656" d="M537.3,405.178c2.091-1.221,4.444-2.6,4.444-2.6.573.444.146.852-.145,1.078l-3.226,1.851Z" transform="translate(-495.145 -402.577)" fill="#fff" opacity="0.5" style="mix-blend-mode: overlay;isolation: isolate"/>
    <g id="Group_28539" data-name="Group 28539" transform="translate(0 15.945)" opacity="0.5" style="mix-blend-mode: overlay;isolation: isolate">
      <path id="Path_127657" data-name="Path 127657" d="M474.222,436.105s-3.131,2-5.89.448l-6.911-3.885c4.108,2.031,8.623,4.959,11.073,3.612,1.083-.6,1.665-.919,3.288-1.836l.767.324Z" transform="translate(-460.542 -432.244)" fill="#fff"/>
      <path id="Path_127658" data-name="Path 127658" d="M459.828,431.9l-.023-.013a.073.073,0,0,0,.022.011Z" transform="translate(-459.804 -431.889)" fill="#fff"/>
    </g>
    <path id="Path_127659" data-name="Path 127659" d="M506.593,431.41l-32.773,18.8s-3.132,2-5.891.447l-7.791-4.377c4.328,2.008,9.549,4.986,11.812,3.708,8.131-4.612,34.7-19.651,34.7-19.651C507.225,430.779,506.884,431.184,506.593,431.41Z" transform="translate(-459.956 -415.237)" fill="#fff" opacity="0.5" style="mix-blend-mode: overlay;isolation: isolate"/>
  </g>
  <g id="Group_28542" data-name="Group 28542" transform="translate(204.336 131.461)">
    <path id="Path_127660" data-name="Path 127660" d="M537.368,412.831l1.071.249-.066-5.392-1.072-.327Z" transform="translate(-472.382 -358.896)" opacity="0.1" style="mix-blend-mode: multiply;isolation: isolate"/>
    <path id="Path_127661" data-name="Path 127661" d="M536.987,424.108l4.462-2.529.023,4.765-4.264,2.36s-.67.288-.677-.437l-.039-3.159A1.231,1.231,0,0,1,536.987,424.108Z" transform="translate(-472.013 -365.38)" opacity="0.1" style="mix-blend-mode: multiply;isolation: isolate"/>
    <path id="Path_127662" data-name="Path 127662" d="M477.174,455.679l.243.082a2.245,2.245,0,0,0,1.685-.18l5.814-3.4c.711-.412.7.512.7.512l.035,2.988,0,.151a1.192,1.192,0,0,1-.682,1.045l-5.256,3.022a3.006,3.006,0,0,1-2.489.336Z" transform="translate(-444.963 -379.286)" opacity="0.1" style="mix-blend-mode: multiply;isolation: isolate"/>
    <path id="Path_127663" data-name="Path 127663" d="M471.517,456.993l2.783.943.053,4.53a8.287,8.287,0,0,1-1.537-.562s-1.25-.4-1.4-1.035l-.5-3.213C470.753,456.76,471.517,456.993,471.517,456.993Z" transform="translate(-442.1 -381.517)" fill-rule="evenodd" opacity="0.1" style="mix-blend-mode: multiply;isolation: isolate"/>
    <path id="Path_127664" data-name="Path 127664" d="M493.093,470.273a2.128,2.128,0,0,0,.971-1.7.624.624,0,0,0-1-.568,1.926,1.926,0,0,0-.183.13,2.249,2.249,0,0,1,.6-.542.726.726,0,0,1,1.161.656,2.469,2.469,0,0,1-1.128,1.981.854.854,0,0,1-.587.127A.935.935,0,0,0,493.093,470.273Z" transform="translate(-452.126 -386.298)" opacity="0.2" style="mix-blend-mode: multiply;isolation: isolate"/>
    <path id="Path_127665" data-name="Path 127665" d="M486.512,473.824a2.125,2.125,0,0,0,.972-1.7.623.623,0,0,0-1-.568,1.766,1.766,0,0,0-.187.131,2.2,2.2,0,0,1,.6-.543.721.721,0,0,1,1.158.656,2.459,2.459,0,0,1-1.125,1.977.847.847,0,0,1-.587.129A1.5,1.5,0,0,0,486.512,473.824Z" transform="translate(-449.124 -387.917)" opacity="0.2" style="mix-blend-mode: multiply;isolation: isolate"/>
    <path id="Path_127666" data-name="Path 127666" d="M537.558,444.515a2.125,2.125,0,0,0,.971-1.705.623.623,0,0,0-1-.568,2.068,2.068,0,0,0-.186.131,2.211,2.211,0,0,1,.594-.546.725.725,0,0,1,1.161.658,2.468,2.468,0,0,1-1.129,1.981.849.849,0,0,1-.584.126A.887.887,0,0,0,537.558,444.515Z" transform="translate(-472.403 -374.55)" opacity="0.2" style="mix-blend-mode: multiply;isolation: isolate"/>
    <path id="Path_127667" data-name="Path 127667" d="M543.311,441.816a2.123,2.123,0,0,0,.972-1.7.625.625,0,0,0-1-.57,1.432,1.432,0,0,0-.184.134,2.2,2.2,0,0,1,.6-.548.726.726,0,0,1,1.161.659,2.472,2.472,0,0,1-1.127,1.981.856.856,0,0,1-.587.127A.8.8,0,0,0,543.311,441.816Z" transform="translate(-475.026 -373.32)" opacity="0.2" style="mix-blend-mode: multiply;isolation: isolate"/>
    <path id="Path_127668" data-name="Path 127668" d="M470.738,318.267l22.786,12.688c.56.313.584.816.051,1.121a2.251,2.251,0,0,1-1.989-.02l-22.8-12.695Z" transform="translate(-441.137 -318.267)" opacity="0.05" style="mix-blend-mode: multiply;isolation: isolate"/>
    <path id="Path_127669" data-name="Path 127669" d="M459.885,324.364l22.7,12.642c.562.312.585.815.053,1.12a2.249,2.249,0,0,1-1.989-.016l-22.716-12.648Z" transform="translate(-436.19 -321.047)" opacity="0.05" style="mix-blend-mode: multiply;isolation: isolate"/>
    <path id="Path_127670" data-name="Path 127670" d="M448.862,330.553l22.77,12.683c.56.311.585.819.051,1.118a2.252,2.252,0,0,1-1.989-.015L446.911,331.65Z" transform="translate(-431.162 -323.87)" opacity="0.05" style="mix-blend-mode: multiply;isolation: isolate"/>
    <path id="Path_127671" data-name="Path 127671" d="M438.182,336.55,461.088,349.3c.56.312.584.819.051,1.122a2.258,2.258,0,0,1-1.989-.015L436.231,337.65Z" transform="translate(-426.292 -326.604)" opacity="0.05" style="mix-blend-mode: multiply;isolation: isolate"/>
    <path id="Path_127672" data-name="Path 127672" d="M426.619,343.052l22.845,12.722c.558.31.582.816.05,1.12a2.258,2.258,0,0,1-1.99-.019l-22.856-12.727Z" transform="translate(-421.018 -329.569)" opacity="0.05" style="mix-blend-mode: multiply;isolation: isolate"/>
    <path id="Path_127673" data-name="Path 127673" d="M420.667,364.583c5.482,2.662,21.392,11.438,21.392,11.438s-15.753-8.3-21.2-10.894c-.643-.3-2.557-1.235-2.519,1.944l-.134,20.121s-.206-17.137-.248-20.61S419.969,364.243,420.667,364.583Z" transform="translate(-417.959 -339.183)" opacity="0.1" style="mix-blend-mode: multiply;isolation: isolate"/>
    <path id="Path_127674" data-name="Path 127674" d="M495.257,444.941l-1.289.7-5.509-13.531Z" transform="translate(-450.109 -370.181)" opacity="0.1" style="mix-blend-mode: multiply;isolation: isolate"/>
    <path id="Path_127675" data-name="Path 127675" d="M533.792,403.167l-1.4,18.589-1.062.607Z" transform="translate(-469.657 -356.984)" opacity="0.1" style="mix-blend-mode: multiply;isolation: isolate"/>
    <g id="Group_28541" data-name="Group 28541" transform="translate(47.821 68.734)">
      <path id="Path_127676" data-name="Path 127676" d="M520.623,447.867c0-.011,0-.024,0-.034l-.024-1.926c0-.527-.389-.745-.852-.475l-13.7,7.893a1.371,1.371,0,0,0-.175.122,1.8,1.8,0,0,1,.685-.816l13.7-7.894c.466-.267.847-.052.854.481l.018,1.462A1.83,1.83,0,0,1,520.623,447.867Z" transform="translate(-505.87 -444.623)" opacity="0.2" style="mix-blend-mode: multiply;isolation: isolate"/>
    </g>
    <path id="Path_127677" data-name="Path 127677" d="M428.014,343.052l22.845,12.722c.54.3.575.777.1,1.084.217-.292.109-.644-.325-.888l-22.908-12.755Z" transform="translate(-422.413 -329.569)" opacity="0.1" style="mix-blend-mode: multiply;isolation: isolate"/>
    <path id="Path_127678" data-name="Path 127678" d="M439.576,336.55,462.482,349.3c.54.3.574.781.1,1.084.216-.287.107-.641-.328-.881l-22.969-12.792Z" transform="translate(-427.685 -326.604)" opacity="0.1" style="mix-blend-mode: multiply;isolation: isolate"/>
    <path id="Path_127679" data-name="Path 127679" d="M450.256,330.553l22.77,12.683c.542.3.577.781.1,1.082.217-.288.108-.643-.325-.883l-22.836-12.72Z" transform="translate(-432.556 -323.87)" opacity="0.1" style="mix-blend-mode: multiply;isolation: isolate"/>
    <path id="Path_127680" data-name="Path 127680" d="M461.279,324.364l22.7,12.642c.543.3.578.775.1,1.085.218-.289.109-.646-.327-.886l-22.766-12.679Z" transform="translate(-437.584 -321.047)" opacity="0.1" style="mix-blend-mode: multiply;isolation: isolate"/>
    <path id="Path_127681" data-name="Path 127681" d="M472.132,318.267l22.786,12.688c.54.3.578.778.1,1.084.219-.29.109-.644-.323-.886L471.843,318.43Z" transform="translate(-442.531 -318.267)" opacity="0.1" style="mix-blend-mode: multiply;isolation: isolate"/>
  </g>
  <path id="Path_127682" data-name="Path 127682" d="M543.477,376.318l.989-2.272a1.11,1.11,0,0,1-.291-.8l-.037-3.153-1.736,1.031-.1-.5,1.831-1.091-.061-5.017a3.075,3.075,0,0,1,1.375-2.425l.424-.246c.768-.45,1.4-.093,1.413.79l.107,8.9a2.9,2.9,0,0,1-1.407,2.366l-.359.192a1.266,1.266,0,0,1-.712.163l-1.263,2.89Z" transform="translate(-270.326 -206.589)" fill="#343433"/>
  <path id="Path_127683" data-name="Path 127683" d="M469.074,377.26a2.973,2.973,0,0,0,1.24.244,3.72,3.72,0,0,0,1.329-.251L506.534,357.7l.109.535,3.756,18.208-33.386,18.717a8.862,8.862,0,0,1-3.245.792,3.247,3.247,0,0,1-1.563-.339l-.868-.478L468.9,377.168Z" transform="translate(-236.854 -204.787)" fill="#0d1b3a"/>
  <path id="Path_127684" data-name="Path 127684" d="M470.816,378.437a4.113,4.113,0,0,0,1.524-.3l.021-.008.021-.012,34.3-19.227.453-.216,3.756,18.209-1.48-.535-32.28,18.1a8.552,8.552,0,0,1-3.023.74,2.728,2.728,0,0,1-1.325-.284l-.653-.355-2.145-16.2A3.812,3.812,0,0,0,470.816,378.437Z" transform="translate(-237.35 -205.235)" fill="#36464b"/>
  <path id="Path_127685" data-name="Path 127685" d="M544.456,390.135l.224,1.1-.606-.219Z" transform="translate(-271.135 -219.58)" fill="#c6d1d4"/>
  <path id="Path_127686" data-name="Path 127686" d="M541.172,379.063l1.075,5.2-.674,1.54-.978-.354L539.6,380Z" transform="translate(-269.096 -214.531)" fill="#c6d1d4"/>
  <path id="Path_127687" data-name="Path 127687" d="M535.818,359.391l.889-.5.453-.216,2.184,10.587-1.557.925Z" transform="translate(-267.37 -205.235)" fill="#c6d1d4"/>
  <path id="Path_127688" data-name="Path 127688" d="M522.023,361.393l2.579,14.161,0-.007-1.368.758-14.638-4.559-.035-2.81Z" transform="translate(-254.939 -206.472)" fill="#c6d1d4"/>
  <path id="Path_127689" data-name="Path 127689" d="M489.467,382.4l7.592-4.257,1.658,8.982-8.506,4.861Z" transform="translate(-246.232 -214.112)" fill="#445053"/>
  <path id="Path_127690" data-name="Path 127690" d="M473.414,391.388l.021-.008.021-.012,6.492-3.64,1.682,9.113-8.51,4.859-.775-10.044A3.942,3.942,0,0,0,473.414,391.388Z" transform="translate(-238.425 -218.482)" fill="#445053"/>
  <g id="Group_28543" data-name="Group 28543" transform="translate(242.991 179.736)">
    <path id="Path_127691" data-name="Path 127691" d="M489.019,407.012h0v0Z" transform="translate(-489.019 -407.012)" fill="#82979e"/>
  </g>
  <path id="Path_127692" data-name="Path 127692" d="M455.173,386l2.433,17.964-14.954-8.16,0-.15-.012-1-.18-15.019-.008-.574Z" transform="translate(-224.791 -214.531)" fill="#141c1e"/>
  <path id="Path_127693" data-name="Path 127693" d="M455.319,387.108l2.176,16.071-13.532-7.326-.2-15.031Z" transform="translate(-225.389 -215.333)" fill="#263338"/>
  <path id="Path_127694" data-name="Path 127694" d="M433.476,374.822a1.3,1.3,0,0,1,.622.179l2.307,1.259.2,16.748-2.31-1.26a3.062,3.062,0,0,1-1.449-2.385l-.161-13.535C432.68,375.2,433,374.824,433.476,374.822Z" transform="translate(-220.34 -212.597)" fill="#141c1e"/>
  <path id="Path_127695" data-name="Path 127695" d="M446.648,418.375c0,.116-.083.16-.182.106l-2.976-1.67a.391.391,0,0,1-.184-.307l-.006-.411c0-.113.08-.163.18-.106l2.977,1.669a.4.4,0,0,1,.187.308Z" transform="translate(-225.179 -231.358)" fill="#323b3d"/>
  <path id="Path_127696" data-name="Path 127696" d="M434.212,376.626c0-.194.034-.521.305-.521l.383.119,2.206,1.2.18,15.022-1.813-.983a2.6,2.6,0,0,1-1.2-1.971Z" transform="translate(-221.035 -213.182)" fill="#263338"/>
  <path id="Path_127697" data-name="Path 127697" d="M462.037,404.506l-2.4,1.366-4.254-2.306-.812-10.455a1.952,1.952,0,0,1,.89-1.679l2.438-1.4,2.347,1.275Z" transform="translate(-230.319 -219.534)" fill="#445053"/>
  <path id="Path_127698" data-name="Path 127698" d="M452.561,390.156l2.632-1.51,1.386.755-2.438,1.4a1.952,1.952,0,0,0-.89,1.679l.812,10.455-1.6-.863-.794-10.235A1.947,1.947,0,0,1,452.561,390.156Z" transform="translate(-228.996 -218.901)" fill="#202d30"/>
  <path id="Path_127699" data-name="Path 127699" d="M463.89,418l2.4-1.366.387,2.874Z" transform="translate(-234.568 -231.666)" fill="#5c6f75"/>
  <path id="Path_127700" data-name="Path 127700" d="M458.018,408.162l.422-.245c.768-.447,1.406-.093,1.419.787l.06,5.128,3.75-2.212.008.56-3.753,2.209.02,1.659,4.832,4.624.007.679-4.831-4.628.01.884a2.907,2.907,0,0,1-1.41,2.367l-.357.192a.905.905,0,0,1-1.45-.848l-.1-8.733A3.066,3.066,0,0,1,458.018,408.162Z" transform="translate(-231.264 -227.601)" fill="#343433"/>
  <path id="Path_127701" data-name="Path 127701" d="M492.619,468.362a.624.624,0,0,1,1,.568,2.128,2.128,0,0,1-.971,1.7.927.927,0,0,1-.17.078.733.733,0,0,1-.573-.786,2.463,2.463,0,0,1,.531-1.435A1.965,1.965,0,0,1,492.619,468.362Z" transform="translate(-247.344 -255.198)" fill="#fff"/>
  <path id="Path_127702" data-name="Path 127702" d="M486.041,471.918a.623.623,0,0,1,1,.568,2.125,2.125,0,0,1-.972,1.7,1.492,1.492,0,0,1-.169.078.733.733,0,0,1-.574-.783,2.445,2.445,0,0,1,.532-1.435A1.756,1.756,0,0,1,486.041,471.918Z" transform="translate(-244.342 -256.82)" fill="#fff"/>
  <path id="Path_127703" data-name="Path 127703" d="M537.087,442.606a.623.623,0,0,1,1,.568,2.125,2.125,0,0,1-.97,1.705.883.883,0,0,1-.169.077.727.727,0,0,1-.574-.784,2.429,2.429,0,0,1,.531-1.436A2.078,2.078,0,0,1,537.087,442.606Z" transform="translate(-267.621 -243.453)" fill="#fff"/>
  <path id="Path_127704" data-name="Path 127704" d="M542.837,439.908a.625.625,0,0,1,1,.57,2.122,2.122,0,0,1-.972,1.7.79.79,0,0,1-.169.081.737.737,0,0,1-.575-.789,2.434,2.434,0,0,1,.532-1.43A1.431,1.431,0,0,1,542.837,439.908Z" transform="translate(-270.244 -242.223)" fill="#fff"/>
  <path id="Path_127705" data-name="Path 127705" d="M511.127,455.855c0,.323.238.457.521.294l8.375-4.824a1.124,1.124,0,0,0,.509-.888l-.015-1.175c0-.324-.238-.456-.52-.294l-8.377,4.828a1.114,1.114,0,0,0-.509.884Z" transform="translate(-256.103 -246.378)" fill="#ec691f"/>
  <path id="Path_127706" data-name="Path 127706" d="M537,425.982l.032,2.73c.008.681.634.412.634.412l4.008-2.272a.2.2,0,0,0,.027-.011l-.049-4.17-4.191,2.369A1.161,1.161,0,0,0,537,425.982Z" transform="translate(-267.911 -234.418)" fill="#fff"/>
  <path id="Path_127707" data-name="Path 127707" d="M472.328,458.228l2.347.772.047,4.029a8.291,8.291,0,0,1-1.537-.562s-.812-.223-.958-.863l-.5-2.715C471.566,457.992,472.328,458.228,472.328,458.228Z" transform="translate(-238.133 -250.619)" fill="#e05526" fill-rule="evenodd"/>
  <path id="Path_127708" data-name="Path 127708" d="M477.164,456.923l.227.076a2.173,2.173,0,0,0,1.579-.164l5.464-3.091c.667-.38.658.462.658.462l.032,2.72,0,.035a1.085,1.085,0,0,1-.641.951l-4.806,2.721a3.233,3.233,0,0,1-2.467.32Z" transform="translate(-240.622 -248.542)" fill="#fff"/>
  <g id="Group_28544" data-name="Group 28544" transform="translate(243.29 180.403)">
    <path id="Path_127709" data-name="Path 127709" d="M491.493,424.3l21.841-12.4,1.042-3.658-.558,4.378-22.6,12.836-1.65-3.125Z" transform="translate(-489.568 -408.238)" fill="#0d1b3a"/>
    <path id="Path_127710" data-name="Path 127710" d="M532.1,432.38Z" transform="translate(-508.963 -419.248)" fill="#0d1b3a"/>
    <path id="Path_127711" data-name="Path 127711" d="M515.542,435.687l1.311-3.307-.421,3.3-16.52,9.38-1.245-2.359,1.734,1.577Z" transform="translate(-493.718 -419.248)" fill="#0d1b3a"/>
    <path id="Path_127712" data-name="Path 127712" d="M498.667,451.362Z" transform="translate(-493.718 -427.904)" fill="#0d1b3a"/>
    <path id="Path_127713" data-name="Path 127713" d="M494.517,431.1l19.669-11.2,1.016-3.613-.558,4.376-20.391,11.583,1.9,1.982,17.463-9.916,1.025-3.649-.557,4.378L495.9,435.367l-3.3-6.243Z" transform="translate(-490.952 -411.909)" fill="#0d1b3a"/>
    <path id="Path_127714" data-name="Path 127714" d="M533.122,424.331Z" transform="translate(-509.43 -415.577)" fill="#0d1b3a"/>
  </g>
  <path id="Path_127715" data-name="Path 127715" d="M292.644,361.354l-1.8,1.075a6.374,6.374,0,0,0-3.763,4.638l-2.5,1.4-.066-5.59,5.427-3.047Z" transform="translate(-152.766 -205.761)" fill="#727e84"/>
  <path id="Path_127716" data-name="Path 127716" d="M288.247,358.9l-5.428,3.048-2.014-1.119,5.454-3.043Z" transform="translate(-151.077 -204.827)" fill="#434b50"/>
  <g id="Group_28545" data-name="Group 28545" transform="translate(148.703 160.55)" opacity="0.2" style="mix-blend-mode: multiply;isolation: isolate">
    <path id="Path_127717" data-name="Path 127717" d="M315.687,371.742l12.805,7.2-1.753,1.045c-2.447.987-4.1,3.545-3.992,7.064.014.423.046.855.089,1.285l-.138.079a10,10,0,0,0,.047-1.308A23.621,23.621,0,0,0,315.687,371.742Z" transform="translate(-315.687 -371.742)" fill="url(#linear-gradient)"/>
  </g>
  <g id="Group_28546" data-name="Group 28546" transform="translate(170.528 172.816)">
    <path id="Path_127718" data-name="Path 127718" d="M355.808,394.291l7.414,4.166.144,11.972-.689.392a9.818,9.818,0,0,0,.046-1.309A23.6,23.6,0,0,0,355.808,394.291Z" transform="translate(-355.808 -394.291)" opacity="0.2" fill="url(#linear-gradient-2)" style="mix-blend-mode: multiply;isolation: isolate"/>
  </g>
  <path id="Path_127719" data-name="Path 127719" d="M409.529,413.4l.061,5.157-1.443,1.267-5.111-2.874Z" transform="translate(-206.818 -230.188)" opacity="0.1" style="mix-blend-mode: multiply;isolation: isolate"/>
  <path id="Path_127720" data-name="Path 127720" d="M69.58,236.9l1.285-.727,52.732,29.63a14.317,14.317,0,0,1,.154,1.628,5.531,5.531,0,0,1-2.747,5.363l-6.441,3.611a5.878,5.878,0,0,1-5.4-.589,18.653,18.653,0,0,1-8.225-11.549l-3.9,2.183a5.883,5.883,0,0,1-5.4-.586,18.625,18.625,0,0,1-7.869-10.224L80.64,257.4a5.875,5.875,0,0,1-5.4-.588,18.45,18.45,0,0,1-8.614-14.44C66.539,239.693,67.756,237.727,69.58,236.9Z" transform="translate(-53.403 -149.371)" fill="#343433"/>
  <path id="Path_127721" data-name="Path 127721" d="M71.431,236.761l7.388,4.153a18.374,18.374,0,0,1,4.8,11.273c.152,4.907-4.061,7.426-8.383,4.889a18.45,18.45,0,0,1-8.614-14.44C66.514,239.132,68.636,236.856,71.431,236.761Z" transform="translate(-53.403 -149.637)" fill="#424040"/>
  <path id="Path_127722" data-name="Path 127722" d="M101.311,253.427l7.949,4.468a18.323,18.323,0,0,1,4.507,10.95c.153,4.909-4.063,7.425-8.385,4.891a18.48,18.48,0,0,1-8.615-14.442C96.662,255.9,98.647,253.654,101.311,253.427Z" transform="translate(-67.149 -157.237)" fill="#424040"/>
  <path id="Path_127723" data-name="Path 127723" d="M133.71,271.721l7.566,4.251a18.339,18.339,0,0,1,4.707,11.168c.153,4.909-4.061,7.426-8.382,4.89a18.463,18.463,0,0,1-8.614-14.44C128.878,274.123,130.957,271.858,133.71,271.721Z" transform="translate(-81.842 -165.58)" fill="#424040"/>
  <path id="Path_127724" data-name="Path 127724" d="M248.313,334.487l-1.335.971.038,3.356,3.877-2.869Z" transform="translate(-135.651 -194.203)" fill="#343433"/>
  <g id="Group_28547" data-name="Group 28547" transform="translate(13.811 88.22)">
    <path id="Path_127725" data-name="Path 127725" d="M67.716,244.2a17.012,17.012,0,0,0,7.854,13.29c3.938,2.334,7.782.018,7.643-4.5A17.016,17.016,0,0,0,75.357,239.7C71.419,237.364,67.574,239.683,67.716,244.2Z" transform="translate(-67.712 -238.777)" fill="#575656"/>
  </g>
  <g id="Group_28548" data-name="Group 28548" transform="translate(15.959 91.315)">
    <path id="Path_127726" data-name="Path 127726" d="M71.663,248.174a11.634,11.634,0,0,0,5.422,9.091c2.722,1.6,5.374.01,5.279-3.079a11.622,11.622,0,0,0-5.425-9.09C74.222,243.5,71.567,245.087,71.663,248.174Z" transform="translate(-71.66 -244.466)" fill="#cdcccb"/>
  </g>
  <path id="Path_127727" data-name="Path 127727" d="M75.125,244.482a3.081,3.081,0,0,0-2.618,3.463,10.936,10.936,0,0,0,5.077,8.544c2.053,1.206,4.063.472,4.718-1.375-.407,2.46-2.784,3.578-5.218,2.152a11.634,11.634,0,0,1-5.422-9.091C71.588,245.788,73.156,244.3,75.125,244.482Z" transform="translate(-55.701 -153.151)" fill="#424040"/>
  <g id="Group_28549" data-name="Group 28549" transform="translate(19.725 93.936)">
    <path id="Path_127728" data-name="Path 127728" d="M78.586,251.258a6.2,6.2,0,0,0,2.889,4.843,1.758,1.758,0,0,0,2.81-1.638,6.183,6.183,0,0,0-2.888-4.841A1.758,1.758,0,0,0,78.586,251.258Z" transform="translate(-78.585 -249.285)" fill="#e8e9e8"/>
  </g>
  <g id="Group_28550" data-name="Group 28550" transform="translate(21.892 96.205)">
    <path id="Path_127729" data-name="Path 127729" d="M82.569,254.077a1.96,1.96,0,0,0,.909,1.525.553.553,0,0,0,.885-.515,1.944,1.944,0,0,0-.909-1.526A.554.554,0,0,0,82.569,254.077Z" transform="translate(-82.568 -253.455)" fill="#424040"/>
  </g>
  <g id="Group_28551" data-name="Group 28551" transform="translate(23.521 99.656)">
    <path id="Path_127730" data-name="Path 127730" d="M85.575,259.989a.738.738,0,0,0,.2.642.211.211,0,0,0,.372-.117.718.718,0,0,0-.2-.639A.21.21,0,0,0,85.575,259.989Z" transform="translate(-85.563 -259.8)" fill="#424040"/>
  </g>
  <g id="Group_28552" data-name="Group 28552" transform="translate(21.066 94.655)">
    <path id="Path_127731" data-name="Path 127731" d="M81.05,250.842a.744.744,0,0,0,.345.577.211.211,0,0,0,.337-.194.742.742,0,0,0-.346-.579A.21.21,0,0,0,81.05,250.842Z" transform="translate(-81.05 -250.605)" fill="#424040"/>
  </g>
  <g id="Group_28553" data-name="Group 28553" transform="translate(23.178 95.463)">
    <path id="Path_127732" data-name="Path 127732" d="M85.015,252.136a.486.486,0,0,0-.027.509c.076.168.245.238.336.14a.49.49,0,0,0,.028-.51C85.276,252.107,85.105,252.04,85.015,252.136Z" transform="translate(-84.931 -252.092)" fill="#424040"/>
  </g>
  <g id="Group_28554" data-name="Group 28554" transform="translate(24.135 97.987)">
    <path id="Path_127733" data-name="Path 127733" d="M86.693,256.91a.5.5,0,0,0,.379.351c.177.054.34-.032.319-.164a.509.509,0,0,0-.378-.351C86.835,256.7,86.672,256.78,86.693,256.91Z" transform="translate(-86.691 -256.732)" fill="#424040"/>
  </g>
  <g id="Group_28555" data-name="Group 28555" transform="translate(20.273 96.749)">
    <path id="Path_127734" data-name="Path 127734" d="M79.666,254.831a.756.756,0,0,0,.644.208.207.207,0,0,0,.119-.367.752.752,0,0,0-.646-.206A.2.2,0,0,0,79.666,254.831Z" transform="translate(-79.59 -254.455)" fill="#424040"/>
  </g>
  <g id="Group_28556" data-name="Group 28556" transform="translate(21.554 98.701)">
    <path id="Path_127735" data-name="Path 127735" d="M82.259,258.829a.725.725,0,0,0,.416-.527.211.211,0,0,0-.31-.234.72.72,0,0,0-.415.523A.212.212,0,0,0,82.259,258.829Z" transform="translate(-81.946 -258.044)" fill="#424040"/>
  </g>
  <path id="Path_127736" data-name="Path 127736" d="M73.9,247.053v0l.056-.085Z" transform="translate(-56.721 -154.29)" fill="#be1e2d" fill-rule="evenodd"/>
  <g id="Group_28557" data-name="Group 28557" transform="translate(30.209 97.279)">
    <path id="Path_127737" data-name="Path 127737" d="M97.86,260.849a17.033,17.033,0,0,0,7.856,13.29c3.941,2.335,7.781.018,7.642-4.5a17.017,17.017,0,0,0-7.856-13.29C101.566,254.018,97.722,256.336,97.86,260.849Z" transform="translate(-97.856 -255.43)" fill="#575656"/>
  </g>
  <g id="Group_28558" data-name="Group 28558" transform="translate(32.359 100.372)">
    <path id="Path_127738" data-name="Path 127738" d="M101.812,264.825a11.614,11.614,0,0,0,5.422,9.089c2.72,1.6,5.374.013,5.275-3.077a11.615,11.615,0,0,0-5.422-9.091C104.369,260.148,101.713,261.735,101.812,264.825Z" transform="translate(-101.809 -261.115)" fill="#cdcccb"/>
  </g>
  <path id="Path_127739" data-name="Path 127739" d="M105.273,261.131a3.082,3.082,0,0,0-2.617,3.465,10.927,10.927,0,0,0,5.078,8.543c2.051,1.208,4.06.473,4.719-1.376-.41,2.463-2.786,3.58-5.219,2.151a11.614,11.614,0,0,1-5.422-9.089C101.736,262.44,103.3,260.952,105.273,261.131Z" transform="translate(-69.45 -160.744)" fill="#424040"/>
  <g id="Group_28559" data-name="Group 28559" transform="translate(36.126 102.996)">
    <path id="Path_127740" data-name="Path 127740" d="M108.736,267.913a6.194,6.194,0,0,0,2.886,4.839,1.759,1.759,0,0,0,2.812-1.639,6.19,6.19,0,0,0-2.889-4.839A1.757,1.757,0,0,0,108.736,267.913Z" transform="translate(-108.734 -265.939)" fill="#e8e9e8"/>
  </g>
  <g id="Group_28560" data-name="Group 28560" transform="translate(38.293 105.263)">
    <path id="Path_127741" data-name="Path 127741" d="M112.718,270.727a1.951,1.951,0,0,0,.908,1.528.555.555,0,0,0,.886-.517,1.954,1.954,0,0,0-.909-1.525A.553.553,0,0,0,112.718,270.727Z" transform="translate(-112.717 -270.107)" fill="#424040"/>
  </g>
  <g id="Group_28561" data-name="Group 28561" transform="translate(39.92 108.715)">
    <path id="Path_127742" data-name="Path 127742" d="M115.721,276.64a.732.732,0,0,0,.205.641.211.211,0,0,0,.372-.116.74.74,0,0,0-.2-.639A.212.212,0,0,0,115.721,276.64Z" transform="translate(-115.709 -276.452)" fill="#424040"/>
  </g>
  <g id="Group_28562" data-name="Group 28562" transform="translate(37.466 103.713)">
    <path id="Path_127743" data-name="Path 127743" d="M111.2,267.492a.733.733,0,0,0,.344.579.21.21,0,0,0,.336-.195.74.74,0,0,0-.345-.579A.21.21,0,0,0,111.2,267.492Z" transform="translate(-111.197 -267.258)" fill="#424040"/>
  </g>
  <g id="Group_28563" data-name="Group 28563" transform="translate(39.576 104.523)">
    <path id="Path_127744" data-name="Path 127744" d="M115.16,268.79a.491.491,0,0,0-.025.512c.077.167.246.232.336.135a.481.481,0,0,0,.024-.509C115.422,268.761,115.25,268.694,115.16,268.79Z" transform="translate(-115.077 -268.746)" fill="#424040"/>
  </g>
  <g id="Group_28564" data-name="Group 28564" transform="translate(40.534 107.045)">
    <path id="Path_127745" data-name="Path 127745" d="M116.839,273.56a.5.5,0,0,0,.379.353c.179.052.338-.034.321-.164a.507.507,0,0,0-.379-.353C116.981,273.347,116.822,273.431,116.839,273.56Z" transform="translate(-116.838 -273.382)" fill="#424040"/>
  </g>
  <g id="Group_28565" data-name="Group 28565" transform="translate(36.672 105.807)">
    <path id="Path_127746" data-name="Path 127746" d="M109.812,271.483a.745.745,0,0,0,.646.208.2.2,0,0,0,.119-.364.762.762,0,0,0-.645-.211A.208.208,0,0,0,109.812,271.483Z" transform="translate(-109.738 -271.107)" fill="#424040"/>
  </g>
  <g id="Group_28566" data-name="Group 28566" transform="translate(37.954 107.759)">
    <path id="Path_127747" data-name="Path 127747" d="M112.408,275.481a.726.726,0,0,0,.414-.525.211.211,0,0,0-.308-.238.716.716,0,0,0-.415.525A.211.211,0,0,0,112.408,275.481Z" transform="translate(-112.095 -274.695)" fill="#424040"/>
  </g>
  <path id="Path_127748" data-name="Path 127748" d="M104.046,263.7l0,0,.055-.084C104.08,263.642,104.064,263.673,104.046,263.7Z" transform="translate(-70.469 -161.883)" fill="#be1e2d" fill-rule="evenodd"/>
  <g id="Group_28567" data-name="Group 28567" transform="translate(47.734 107.233)">
    <path id="Path_127749" data-name="Path 127749" d="M130.078,279.147a17.028,17.028,0,0,0,7.856,13.29c3.939,2.334,7.781.018,7.642-4.5a17.009,17.009,0,0,0-7.857-13.29C133.782,272.316,129.939,274.635,130.078,279.147Z" transform="translate(-130.074 -273.729)" fill="#575656"/>
  </g>
  <g id="Group_28568" data-name="Group 28568" transform="translate(49.882 110.326)">
    <path id="Path_127750" data-name="Path 127750" d="M134.024,283.123a11.631,11.631,0,0,0,5.426,9.092c2.719,1.595,5.373.01,5.275-3.081a11.612,11.612,0,0,0-5.422-9.089C136.584,278.448,133.929,280.036,134.024,283.123Z" transform="translate(-134.021 -279.415)" fill="#cdcccb"/>
  </g>
  <path id="Path_127751" data-name="Path 127751" d="M137.486,279.434a3.081,3.081,0,0,0-2.618,3.462,10.941,10.941,0,0,0,5.078,8.543c2.053,1.206,4.062.47,4.718-1.377-.406,2.463-2.784,3.582-5.215,2.154a11.631,11.631,0,0,1-5.426-9.092C133.952,280.741,135.518,279.254,137.486,279.434Z" transform="translate(-84.14 -169.09)" fill="#424040"/>
  <g id="Group_28569" data-name="Group 28569" transform="translate(53.651 112.95)">
    <path id="Path_127752" data-name="Path 127752" d="M140.953,286.212a6.182,6.182,0,0,0,2.887,4.839,1.757,1.757,0,0,0,2.809-1.638,6.19,6.19,0,0,0-2.887-4.839A1.757,1.757,0,0,0,140.953,286.212Z" transform="translate(-140.951 -284.238)" fill="#e8e9e8"/>
  </g>
  <g id="Group_28570" data-name="Group 28570" transform="translate(55.818 115.216)">
    <path id="Path_127753" data-name="Path 127753" d="M144.935,289.029a1.944,1.944,0,0,0,.908,1.523.554.554,0,0,0,.886-.517,1.959,1.959,0,0,0-.91-1.525A.554.554,0,0,0,144.935,289.029Z" transform="translate(-144.934 -288.404)" fill="#424040"/>
  </g>
  <g id="Group_28571" data-name="Group 28571" transform="translate(57.446 118.67)">
    <path id="Path_127754" data-name="Path 127754" d="M147.939,294.943a.738.738,0,0,0,.2.639.213.213,0,0,0,.375-.114.742.742,0,0,0-.2-.64A.212.212,0,0,0,147.939,294.943Z" transform="translate(-147.927 -294.754)" fill="#424040"/>
  </g>
  <g id="Group_28572" data-name="Group 28572" transform="translate(54.991 113.667)">
    <path id="Path_127755" data-name="Path 127755" d="M143.414,285.79a.729.729,0,0,0,.345.58.21.21,0,0,0,.336-.2.743.743,0,0,0-.345-.578A.21.21,0,0,0,143.414,285.79Z" transform="translate(-143.414 -285.557)" fill="#424040"/>
  </g>
  <g id="Group_28573" data-name="Group 28573" transform="translate(57.102 114.476)">
    <path id="Path_127756" data-name="Path 127756" d="M147.378,287.087a.489.489,0,0,0-.026.511c.076.166.245.233.336.139a.492.492,0,0,0,.026-.513C147.639,287.06,147.468,286.991,147.378,287.087Z" transform="translate(-147.294 -287.043)" fill="#424040"/>
  </g>
  <g id="Group_28574" data-name="Group 28574" transform="translate(58.06 117.001)">
    <path id="Path_127757" data-name="Path 127757" d="M149.057,291.865a.505.505,0,0,0,.379.351c.178.046.338-.035.319-.165a.5.5,0,0,0-.379-.351C149.2,291.648,149.038,291.731,149.057,291.865Z" transform="translate(-149.055 -291.684)" fill="#424040"/>
  </g>
  <g id="Group_28575" data-name="Group 28575" transform="translate(54.196 115.762)">
    <path id="Path_127758" data-name="Path 127758" d="M142.029,289.784a.759.759,0,0,0,.646.209.208.208,0,0,0,.115-.369.753.753,0,0,0-.646-.208A.207.207,0,0,0,142.029,289.784Z" transform="translate(-141.953 -289.406)" fill="#424040"/>
  </g>
  <g id="Group_28576" data-name="Group 28576" transform="translate(55.477 117.713)">
    <path id="Path_127759" data-name="Path 127759" d="M144.622,293.781a.729.729,0,0,0,.416-.527.212.212,0,0,0-.311-.237.729.729,0,0,0-.416.527A.213.213,0,0,0,144.622,293.781Z" transform="translate(-144.307 -292.994)" fill="#424040"/>
  </g>
  <path id="Path_127760" data-name="Path 127760" d="M136.265,282l0,0,.053-.085A.87.87,0,0,0,136.265,282Z" transform="translate(-85.162 -170.227)" fill="#be1e2d" fill-rule="evenodd"/>
  <path id="Path_127761" data-name="Path 127761" d="M42.323,118.969,237.444,228.643l.651,54.282L42.974,173.278Z" transform="translate(-42.323 -95.921)" fill="#dfe6ea"/>
  <path id="Path_127762" data-name="Path 127762" d="M85.346,76.6,285.168,182.772l-47.725,26.549L42.323,99.676Z" transform="translate(-42.323 -76.599)" fill="#e8ebee"/>
  <path id="Path_127763" data-name="Path 127763" d="M47.2,224.026l9.761,5.486.039,3.36-9.759-5.487Z" transform="translate(-44.548 -143.83)" fill="#8897a0"/>
  <path id="Path_127764" data-name="Path 127764" d="M66.481,232.323l-1.335.972.039,3.36,3.873-2.875Z" transform="translate(-52.73 -147.613)" fill="#343433"/>
  <path id="Path_127765" data-name="Path 127765" d="M47.2,223.258l9.761,5.486,1.335-.972-9.8-5.429Z" transform="translate(-44.548 -143.062)" fill="#434b50"/>
  <path id="Path_127766" data-name="Path 127766" d="M166.015,290.672l44.042,24.805.038,3.356-44.04-24.806Z" transform="translate(-98.73 -174.222)" fill="#8897a0"/>
  <path id="Path_127767" data-name="Path 127767" d="M166.015,289.9l44.042,24.806,1.335-.971-44.083-24.755Z" transform="translate(-98.73 -173.45)" fill="#434b50"/>
  <path id="Path_127768" data-name="Path 127768" d="M448.743,271.779l.295,24.588-3.523-1.97a.894.894,0,0,0-.79-.075l-36.05,20.249a.145.145,0,0,1,.03,0c-.263.055-.5.309-.5,1.056l.4,33.191-6.937,3.861-.653-54.348Z" transform="translate(-205.898 -165.606)" fill="#b8bdc1"/>
  <path id="Path_127769" data-name="Path 127769" d="M408.773,321.211l38.079-21.082c.926-.535,1.69-.1,1.705.96l.075,6.323-.339-.19a.894.894,0,0,0-.79-.075l-36.049,20.249a.141.141,0,0,1,.03,0c-.263.055-.5.31-.5,1.056l.4,33.191-3.8,2.116-.476-39.649A3.655,3.655,0,0,1,408.773,321.211Z" transform="translate(-208.676 -178.43)" opacity="0.1" style="mix-blend-mode: multiply;isolation: isolate"/>
  <path id="Path_127770" data-name="Path 127770" d="M512.3,390.286a24.789,24.789,0,0,1,7.508-3.709,3.761,3.761,0,0,0,.07-.634c.035-1.933-2.347-3.02-4.735-2.112-2.684,1.016-4.626,3.323-4.666,5.509a2.122,2.122,0,0,0,.735,1.65C511.584,390.76,511.968,390.514,512.3,390.286Z" transform="translate(-255.812 -216.557)" fill="#3a4448"/>
  <path id="Path_127771" data-name="Path 127771" d="M501.709,395.356l-2.37-.692-8.506,4.857,5.609,1.656,2.6-1.427,1.7-2.755s.731-.424,1.518-.916A2.227,2.227,0,0,1,501.709,395.356Z" transform="translate(-246.855 -221.645)" fill="#5c6f75"/>
  <path id="Path_127772" data-name="Path 127772" d="M516.2,385.77c-1.968.746-3.392,2.443-3.42,4.043a1.58,1.58,0,0,0,.679,1.326,27.268,27.268,0,0,1,6.133-3.25,2.613,2.613,0,0,0,.075-.4c0-.057.009-.113.01-.166C519.7,385.906,517.951,385.108,516.2,385.77Z" transform="translate(-256.863 -217.482)" fill="#263338"/>
  <path id="Path_127773" data-name="Path 127773" d="M513.558,394.35c.871-.593,1.712-1.114,2.513-1.57l-.252-.2-2.835,1.049A1.644,1.644,0,0,0,513.558,394.35Z" transform="translate(-256.957 -220.697)" fill="#82979e"/>
  <path id="Path_127774" data-name="Path 127774" d="M515.725,389.793l.252.2c.616-.345,1.206-.643,1.783-.917l-.122-.228,1.964-1.605a1.6,1.6,0,0,0-.545-.775L512.794,390c-.008.078-.014.159-.016.236a1.522,1.522,0,0,0,.112.6Z" transform="translate(-256.863 -217.906)" fill="#acbdc3"/>
  <path id="Path_127775" data-name="Path 127775" d="M525.573,413.843h0v0Z" transform="translate(-262.698 -230.391)" fill="#82979e"/>
  <path id="Path_127776" data-name="Path 127776" d="M491.115,396.446l1.7-2.755s1.592-.922,2.605-1.62c3.561-2.439,6.538-3.67,8.98-4.026a29.146,29.146,0,0,1,3.189-.01l1.005-.616,2.77,1.841-32.644,18.3a8.549,8.549,0,0,1-3.024.74,2.747,2.747,0,0,1-1.325-.282l-.651-.354-.257-1.941a2.08,2.08,0,0,0,.886-.19C477.6,403.9,491.115,396.446,491.115,396.446Z" transform="translate(-238.933 -218.341)" fill="#434f52" fill-rule="evenodd"/>
  <path id="Path_127777" data-name="Path 127777" d="M487.842,406.109l-5.564-1.616-8.508,4.854,5.283,1.553C481.907,409.364,485.34,407.484,487.842,406.109Z" transform="translate(-239.074 -226.128)" fill="#5c6f75"/>
  <path id="Path_127778" data-name="Path 127778" d="M473.943,417.83c.769-.388,2.12-1.1,3.724-1.963l-5.092-1.477.481,3.63c.138,0,.281-.031.423-.046A1.737,1.737,0,0,0,473.943,417.83Z" transform="translate(-238.529 -230.641)" fill="#5c6f75"/>
  <path id="Path_127779" data-name="Path 127779" d="M523.13,389.171l.606-.557a.364.364,0,0,1,0-.045c.005-.056.009-.113.01-.166a1.551,1.551,0,0,0-.082-.5l-1.956,1.6.122.228C522.277,389.524,522.71,389.337,523.13,389.171Z" transform="translate(-260.937 -218.563)" fill="#82979e"/>
</svg>
