<svg xmlns="http://www.w3.org/2000/svg" width="1259" height="1008.496" viewBox="0 0 1259 1008.496">
  <g id="img_best_price" transform="translate(-258 -25.97)">
    <path id="Path_131254" data-name="Path 131254" d="M1004.244,162.449c0-32.209-13.262-55.982-35.934-64.415L826.222,45.184c-22.839-8.5-54.814,7.491-77.654,38.827L606.479,278.951c-22.671,31.1-35.932,68.138-35.932,100.346v611.85c0,17.7,6.269,31.542,17.429,38.479s26.295,6.4,42.078-1.491L944.737,870.794c15.782-7.892,30.918-22.491,42.078-40.587S1004.244,792,1004.244,774.3V162.449ZM787.4,158.183c23.53-11.765,42.634.11,42.634,26.5s-19.1,57.37-42.634,69.135-42.634-.109-42.634-26.5,19.1-57.37,42.634-69.136Z" fill="#fff7f2" fill-rule="evenodd"/>
    <path id="Path_131255" data-name="Path 131255" d="M1004.244,679.167l-433.7,216.849V720.725l433.7-216.849V679.167Z" fill="#333" fill-rule="evenodd" opacity="0.26"/>
    <path id="Path_131256" data-name="Path 131256" d="M585.09,386.57c0,128.9-13.366,476.769-14.543,604.577V379.3c0-32.208,13.261-69.242,35.932-100.346L748.568,84.011c22.84-31.336,54.815-47.323,77.654-38.827L968.31,98.034a48.192,48.192,0,0,1,11.486,6.135L840.766,52.455c-22.84-8.5-54.815,7.493-77.655,38.827C722.793,146.6,660.236,232.423,621.023,286.222c-22.672,31.105-35.933,68.139-35.933,100.348ZM822.279,161.076c13.275,1.466,22.294,12.746,22.294,30.88,0,26.391-19.1,57.369-42.634,69.135-14.413,7.206-27.164,5.544-34.884-2.892,6.048.669,12.978-.7,20.34-4.38,23.53-11.765,42.634-42.743,42.634-69.135,0-10.226-2.868-18.274-7.75-23.608Z" fill="#ffe6d8" fill-rule="evenodd"/>
    <path id="Path_131257" data-name="Path 131257" d="M592.131,1031.788q-.243-.087-.511-.193c-1.717-.681-35.98-17.945-37.549-18.921-11.16-6.937-17.429-20.778-17.429-38.48V362.346c0-32.209,13.261-69.243,35.933-100.348L714.664,67.058c22.84-31.334,54.815-47.322,77.654-38.827L934.406,81.083c3.055,1.136,39.285,18.487,41.989,20.163a18.533,18.533,0,0,1,4.867,4.028,48.078,48.078,0,0,0-12.952-7.24L826.222,45.184c-22.839-8.5-54.814,7.491-77.654,38.827L606.479,278.951c-22.671,31.1-35.932,68.138-35.932,100.346v611.85c0,17.7,6.269,31.542,17.429,38.479a30.779,30.779,0,0,0,4.155,2.162Z" fill="#ff975d" fill-rule="evenodd"/>
    <path id="Path_131258" data-name="Path 131258" d="M794.463,155.3c20.172-6.3,35.566,5.687,35.566,29.379,0,26.392-19.1,57.37-42.634,69.135-19.429,9.715-35.84,3.312-40.971-14.074a47.6,47.6,0,0,0,7.067-2.878c23.531-11.766,42.634-42.744,42.634-69.135a43.942,43.942,0,0,0-1.662-12.427Z" fill="#ec691f" fill-rule="evenodd"/>
    <path id="Path_131277" data-name="Path 131277" d="M23910-11713.077l40-20q15.683-7.835,23.227-5.14t7.549,18.312v5.415q0,1.334-.295,4.306a27.67,27.67,0,0,1-.836,4.85q-.545,1.881-1.637,4.782a23.429,23.429,0,0,1-2.684,5.185,45.97,45.97,0,0,1-4.023,4.915,37.633,37.633,0,0,1-5.617,4.93,15,15,0,0,1,7.879-.413,9.558,9.558,0,0,1,4.947,2.826,13.912,13.912,0,0,1,2.645,5.543,32.428,32.428,0,0,1,1.131,6.256q.17,2.669.166,6.507a96.152,96.152,0,0,1-1.465,17.683,58.673,58.673,0,0,1-5.076,15.132,44.905,44.905,0,0,1-10.02,13.244,68.391,68.391,0,0,1-15.891,10.654l-40,20Zm34.3,49.38-5.449,2.728v36.249c1.342-.569,2.318-1,2.938-1.312q11.487-5.744,11.486-15v-15.613q0-5.963-2.139-7.677a3.5,3.5,0,0,0-2.264-.725A10.733,10.733,0,0,0,23944.3-11663.7Zm.756-47.527-6.205,3.1v27.7l6.039-3.022a11.627,11.627,0,0,0,3.564-2.645,9.31,9.31,0,0,0,1.971-3.454,19.041,19.041,0,0,0,.752-3.278,26.356,26.356,0,0,0,.172-3.185v-12.4q0-3.9-2.7-3.9A8.514,8.514,0,0,0,23945.053-11711.225Zm47.8-43.277,59.039-29.521v24.242l-29.016,14.508v24.4l27.842-13.923v23.462l-27.842,13.918v28.484l30.947-15.476v24.4l-60.971,30.484Zm77.781,78.716q-8.763-4.409-8.762-22.765v-12.241l29.182-14.592v11.22q0,12.083,7.049,8.562a12.08,12.08,0,0,0,5.154-4.935,14.1,14.1,0,0,0,1.889-7.141,16.564,16.564,0,0,0-1.471-7.74,10.635,10.635,0,0,0-4.441-4.325,59.149,59.149,0,0,0-9.771-3.71l-12.5-3.873q-15.091-4.614-15.094-19.913a48.931,48.931,0,0,1,9.1-29.3q9.105-12.672,25.033-20.637l5.2-2.6a47.48,47.48,0,0,1,10.566-3.519,21.726,21.726,0,0,1,11.49.138q5.027,1.607,7.545,7.682t2.516,16.67l-29.936,14.97-.17-7.445a2.882,2.882,0,0,0-1.928-2.8,4.917,4.917,0,0,0-4.107.4,14.209,14.209,0,0,0-4.994,4.183,8.945,8.945,0,0,0-2.055,5.382q0,5.336,8.307,7.46l17.863,4.565a31.652,31.652,0,0,1,7.588,2.914,16.891,16.891,0,0,1,5.115,4.188,35.018,35.018,0,0,1,3.063,4.512,15.379,15.379,0,0,1,1.633,5.067q.463,2.947.545,4.516t.084,4.153a79.851,79.851,0,0,1-.924,12.428,60.19,60.19,0,0,1-3.268,11.992,49.067,49.067,0,0,1-6.164,11.4,56.492,56.492,0,0,1-9.9,10.242,74.735,74.735,0,0,1-14.129,9.027q-14.376,7.191-22.986,7.191A13.948,13.948,0,0,1,24070.633-11675.786Zm86.166-136.6-17.525,8.762v-24.086l64.572-32.288v24.086l-17.523,8.763v100.9l-29.523,14.759Z" transform="translate(-23256.641 12246.41)" fill="#ab4a0a" stroke="rgba(0,0,0,0)" stroke-width="1"/>
    <path id="Path_131263" data-name="Path 131263" d="M1078.249,673.257c-9.342-.779-18.684-.6-29.266,3.973l-8.684,4.349V516.171l8.684-4.345c11.9-6,26.359-15.63,37.639-30.907,11.086-15.032,19.382-36.248,19.382-66.185A53.77,53.77,0,0,1,1111.2,391.8a46.962,46.962,0,0,1,11.629-15.5c4.38-3.737,9.187-6.113,13.878-6.718a16.971,16.971,0,0,1,10.117,1.686l37.252,18.641a17.042,17.042,0,0,0-9.458-1.356c-4.653.6-9.459,2.981-13.839,6.714a46.944,46.944,0,0,0-11.629,15.5,53.81,53.81,0,0,0-5.233,22.936c0,29.937-8.3,51.157-19.343,66.185-11.281,15.281-25.778,24.91-37.64,30.906l-8.683,4.35V673.257ZM1199.386,419.99l10.7-5.334c6.318-3.171,12.171-3.081,16.668-.411l36.9,18.417c-4.341-2.112-9.769-1.972-15.661.962l-50.121,25.06c1.86-13.366,2.442-24.517,1.938-33.752-.116-1.709-.233-3.356-.426-4.942Z" fill="#ff975d" fill-rule="evenodd"/>
    <path id="Path_131264" data-name="Path 131264" d="M1086.925,530.8c11.879-6.007,26.348-15.632,37.622-30.914,11.087-15.026,19.377-36.243,19.38-66.185a53.52,53.52,0,0,1,5.22-22.933,46.611,46.611,0,0,1,11.609-15.489c4.385-3.751,9.2-6.117,13.862-6.717,6.128-.807,12.109,1.334,16.649,7.325,4.718,6.251,7.775,15.682,8.526,29.048.511,9.241-.054,20.39-1.913,33.744L1248,433.625c6.91-3.455,13.226-3.026,17.88.368l.387.277c4.686,3.675,7.587,10.552,7.587,19.713s-2.9,18.913-7.591,27.3l-1.232,2.053,1.2.85c4.708,3.718,7.609,10.569,7.608,19.676,0,9.174-2.9,18.941-7.58,27.3a55.443,55.443,0,0,1-9.729,12.764c2.766,3.908,4.393,9.475,4.393,16.3,0,9.161-2.914,18.946-7.591,27.3a55.021,55.021,0,0,1-9.75,12.773c2.776,3.918,4.4,9.457,4.4,16.294,0,9.161-2.9,18.941-7.6,27.307s-11.16,15.332-18.269,18.886L1176.881,685.4c-22.1,11.049-37.954,9.293-53.153,7.61-11.92-1.333-23.4-2.617-36.805,3.2l-8.7,4.347.013-165.411,8.685-4.342Z" fill="#ffddc9" fill-rule="evenodd"/>
    <path id="Path_131265" data-name="Path 131265" d="M1265.056,483.33,1223.5,504.1l47.641-13.657a17.469,17.469,0,0,0-6.085-7.117Z" fill="#ec691f" fill-rule="evenodd"/>
    <path id="Path_131266" data-name="Path 131266" d="M1256.528,543.914l-41.556,20.773,45.2-12.113a22.176,22.176,0,0,0-3.643-8.66Z" fill="#ec691f" fill-rule="evenodd"/>
    <path id="Path_131267" data-name="Path 131267" d="M1243.572,600.288l-41.515,20.77,45.159-12.114a23.94,23.94,0,0,0-3.644-8.656Z" fill="#ec691f" fill-rule="evenodd"/>
    <path id="Path_131268" data-name="Path 131268" d="M1224.973,445.141l-25-12.494a183.96,183.96,0,0,1-2.094,26.037l27.1-13.543Z" fill="#b7745c" fill-rule="evenodd"/>
    <path id="Path_131269" data-name="Path 131269" d="M540.714,802.124c0-6.747-4.46-14.359-9.94-16.988L510.893,775.6c-5.481-2.628-9.893.731-9.893,7.478V957.377c0,6.747,4.412,14.338,9.893,16.965l19.881,9.532c5.48,2.628,9.94-.709,9.94-7.456V802.124Z" fill="#707070" fill-rule="evenodd"/>
    <path id="Path_131270" data-name="Path 131270" d="M504.7,775.306v0L1042.208,506.55a6.877,6.877,0,0,1,6.165.308l19.87,9.522c5.5,2.629,9.956,10.239,9.956,16.984v174.3c0,3.7-1.334,6.373-3.458,7.6v.013l-537.3,268.648v-.033c2-1.283,3.249-3.9,3.249-7.474v-174.3c0-6.74-4.457-14.35-9.956-16.979l-19.87-9.527a6.891,6.891,0,0,0-6.165-.3Z" fill="#333" fill-rule="evenodd"/>
    <path id="Path_131271" data-name="Path 131271" d="M1045.925,668.249c7.286-3.644,13.2,1,13.2,10.372s-5.916,19.93-13.2,23.574-13.2-1.005-13.2-10.373,5.915-19.931,13.2-23.573Z" fill="#e9eaec" fill-rule="evenodd"/>
    <path id="Path_131272" data-name="Path 131272" d="M641.825,907.995V780.156l37.158-18.579a44.581,44.581,0,0,1,12.865-4.506,15.546,15.546,0,0,1,9.75,1.384q4.234,2.217,6.432,8.782t2.2,17.478a95.647,95.647,0,0,1-1.319,16.75A56.881,56.881,0,0,1,704.4,815.64,40.761,40.761,0,0,1,695.325,828a59.8,59.8,0,0,1-14.424,9.82l-11.427,5.713V894.17l-27.649,13.825ZM669.474,789.6v30.9l1.6-.8q2.236-1.117,3.4-1.818a28.062,28.062,0,0,0,2.717-1.92,8.674,8.674,0,0,0,2.317-2.6,27.529,27.529,0,0,0,1.558-3.508,19.613,19.613,0,0,0,1.079-4.993q.281-2.868.28-6.72,0-8.427-2.2-10.618t-7.632.525l-3.116,1.559Z" fill="#fff"/>
    <path id="Path_131273" data-name="Path 131273" d="M746.986,797.233v58.181l-28.448,14.224V741.8l43.152-21.576a35.764,35.764,0,0,1,11.346-3.868q4.715-.551,7.432,1.019a10.524,10.524,0,0,1,4.276,5.647,34.1,34.1,0,0,1,2.037,8.691,114.89,114.89,0,0,1,.479,11.517q0,3.611-.119,5.958a46.313,46.313,0,0,1-.879,6.218,31.356,31.356,0,0,1-2.118,6.877,35.114,35.114,0,0,1-4.116,6.632,39.443,39.443,0,0,1-6.672,6.787,11.775,11.775,0,0,1,6.473-.548,5.459,5.459,0,0,1,3.676,3.017,17.788,17.788,0,0,1,1.518,4.577,30.7,30.7,0,0,1,.4,5.3q0,31.7-.32,48.31L757.614,850.1V800.265a12.373,12.373,0,0,0-.6-4.435,2.128,2.128,0,0,0-2.237-1.409,9.436,9.436,0,0,0-3.157.655q-1.518.6-4.635,2.157Zm.16-46.063V775l7.032-3.516q5.594-2.8,5.593-14.513,0-7.785-2.2-8.853t-8.91,2.289l-1.518.759Z" fill="#fff"/>
    <path id="Path_131274" data-name="Path 131274" d="M798.208,829.8V701.965l27.169-13.585V816.218L798.208,829.8Z" fill="#fff"/>
    <path id="Path_131275" data-name="Path 131275" d="M907.205,720.253v24.155a47.3,47.3,0,0,1-9.429,29.232q-9.43,12.539-26.371,21.009-15.023,7.512-24.452,3.6t-9.429-19.8v-59.3q0-19.02,8.35-32.625T872.045,664a55.574,55.574,0,0,1,13.424-4.906,24.885,24.885,0,0,1,10.908-.118,11.828,11.828,0,0,1,7.471,5.533q2.718,4.38,2.717,11.843v22.551l-27.808,13.9V697.964q0-11.477-6.712-8.12a10.241,10.241,0,0,0-5.274,5.165,20.458,20.458,0,0,0-1.279,7.661V763.1q0,3.933,1.8,5.922t4.755.512a12.1,12.1,0,0,0,4.714-4.484q2-3.126,2-8.582V734.477l28.448-14.224Z" fill="#fff"/>
    <path id="Path_131276" data-name="Path 131276" d="M918.632,769.591V641.753l56.256-28.129v24.8L947.24,652.246V677.2l26.53-13.265v24L947.24,701.2v29.13l29.487-14.743v24.958l-58.095,29.047Z" fill="#fff"/>
    <rect id="Rectangle_5094" data-name="Rectangle 5094" width="1259" height="1008" transform="translate(258 26)" fill="none"/>
  </g>
</svg>
