<svg xmlns="http://www.w3.org/2000/svg" xmlns:xlink="http://www.w3.org/1999/xlink" width="760" height="558" viewBox="0 0 760 558">
  <defs>
    <linearGradient id="linear-gradient" x1="0.45" y1="0.5" x2="0.571" y2="0.5" gradientUnits="objectBoundingBox">
      <stop offset="0" stop-color="#f8c6aa"/>
      <stop offset="1" stop-color="#ff975d"/>
    </linearGradient>
    <linearGradient id="linear-gradient-2" x1="-3.283" y1="0.5" x2="-4.292" y2="0.5" gradientUnits="objectBoundingBox">
      <stop offset="0"/>
      <stop offset="0.294" stop-color="#fff"/>
      <stop offset="1"/>
    </linearGradient>
    <linearGradient id="linear-gradient-3" x1="-3.78" y1="0.027" x2="-3.78" y2="0.983" gradientUnits="objectBoundingBox">
      <stop offset="0" stop-color="#fff"/>
      <stop offset="1"/>
    </linearGradient>
    <linearGradient id="linear-gradient-4" x1="-11.797" y1="0.012" x2="-11.321" y2="1.377" xlink:href="#linear-gradient-3"/>
    <linearGradient id="linear-gradient-5" x1="-6.633" y1="0.5" x2="-5.633" y2="0.5" xlink:href="#linear-gradient-2"/>
    <linearGradient id="linear-gradient-6" x1="-18.883" y1="0.5" x2="-17.883" y2="0.5" xlink:href="#linear-gradient-2"/>
    <linearGradient id="linear-gradient-7" x1="-3.888" y1="0.5" x2="-2.888" y2="0.5" xlink:href="#linear-gradient-2"/>
    <linearGradient id="linear-gradient-8" x1="-24.232" y1="0.5" x2="-23.232" y2="0.5" xlink:href="#linear-gradient-3"/>
    <radialGradient id="radial-gradient" cx="0.5" cy="0.5" r="0.192" gradientTransform="matrix(1.754, -0.368, 1.931, 2.582, 29.619, -5.236)" xlink:href="#linear-gradient-3"/>
    <linearGradient id="linear-gradient-9" x1="-23.889" y1="0.455" x2="-22.893" y2="0.522" xlink:href="#linear-gradient-2"/>
    <linearGradient id="linear-gradient-10" x1="-36.586" y1="0.5" x2="-35.586" y2="0.5" xlink:href="#linear-gradient-2"/>
    <radialGradient id="radial-gradient-2" cx="0.371" cy="0.545" r="1.613" gradientTransform="translate(-2.684) scale(0.572 1)" xlink:href="#linear-gradient-3"/>
    <linearGradient id="linear-gradient-11" x1="-10.605" y1="-0.049" x2="-9.752" y2="0.848" xlink:href="#linear-gradient-3"/>
    <linearGradient id="linear-gradient-12" x1="0.45" y1="0.5" x2="0.571" y2="0.5" gradientUnits="objectBoundingBox">
      <stop offset="0" stop-color="#fbbc98"/>
      <stop offset="1" stop-color="#ff975d"/>
    </linearGradient>
    <linearGradient id="linear-gradient-13" x1="0.45" y1="0.5" x2="0.571" y2="0.5" gradientUnits="objectBoundingBox">
      <stop offset="0" stop-color="#fcbb96"/>
      <stop offset="1" stop-color="#ff975d"/>
    </linearGradient>
    <linearGradient id="linear-gradient-14" x1="0.45" y1="0.5" x2="0.571" y2="0.5" gradientUnits="objectBoundingBox">
      <stop offset="0" stop-color="#fcccb2"/>
      <stop offset="1" stop-color="#ff975d"/>
    </linearGradient>
    <linearGradient id="linear-gradient-15" y1="0.5" x2="1" y2="0.5" gradientUnits="objectBoundingBox">
      <stop offset="0" stop-color="#ff8ed9"/>
      <stop offset="0.523" stop-color="#ff59d6"/>
      <stop offset="1" stop-color="#d668be"/>
    </linearGradient>
    <linearGradient id="linear-gradient-16" x1="-13.832" y1="0.5" x2="-12.832" y2="0.5" gradientUnits="objectBoundingBox">
      <stop offset="0" stop-color="#ffff81"/>
      <stop offset="0.505" stop-color="#ffff72"/>
      <stop offset="1" stop-color="#cdff79"/>
    </linearGradient>
    <linearGradient id="linear-gradient-17" y1="0.5" x2="1" y2="0.5" gradientUnits="objectBoundingBox">
      <stop offset="0" stop-color="#ebbcfe"/>
      <stop offset="0.528" stop-color="#bfa0ff"/>
      <stop offset="1" stop-color="#8593df"/>
    </linearGradient>
    <linearGradient id="linear-gradient-18" y1="0.5" x2="1" y2="0.5" gradientUnits="objectBoundingBox">
      <stop offset="0" stop-color="#d7ff92"/>
      <stop offset="0.519" stop-color="#74ff69"/>
      <stop offset="1" stop-color="#56d489"/>
    </linearGradient>
    <linearGradient id="linear-gradient-21" y1="0.5" x2="1" y2="0.5" gradientUnits="objectBoundingBox">
      <stop offset="0" stop-color="#ffff84"/>
      <stop offset="1" stop-color="#ffe766"/>
    </linearGradient>
    <linearGradient id="linear-gradient-22" x1="3.98" y1="0.5" x2="4.98" y2="0.5" gradientUnits="objectBoundingBox">
      <stop offset="0" stop-color="#fff200"/>
      <stop offset="0.505" stop-color="#ffff72"/>
      <stop offset="1" stop-color="#f15a29"/>
    </linearGradient>
    <linearGradient id="linear-gradient-23" y1="0.5" x2="1" y2="0.5" gradientUnits="objectBoundingBox">
      <stop offset="0" stop-color="#ffff84"/>
      <stop offset="0.519" stop-color="#ffe83d"/>
      <stop offset="1" stop-color="#ffc33d"/>
    </linearGradient>
    <linearGradient id="linear-gradient-24" y1="0.5" x2="1" y2="0.5" gradientUnits="objectBoundingBox">
      <stop offset="0" stop-color="#ffffe0"/>
      <stop offset="0.244" stop-color="#fcfcc0"/>
      <stop offset="0.776" stop-color="#f7f56f"/>
      <stop offset="1" stop-color="#f5f24c"/>
    </linearGradient>
    <linearGradient id="linear-gradient-25" x1="0" y1="0.5" x2="1" y2="0.5" xlink:href="#linear-gradient-17"/>
    <linearGradient id="linear-gradient-27" x1="-8.485" y1="9.336" x2="-7.28" y2="9.336" xlink:href="#linear-gradient-24"/>
    <linearGradient id="linear-gradient-28" x1="0" y1="0.5" x2="1" y2="0.5" xlink:href="#linear-gradient-24"/>
    <linearGradient id="linear-gradient-31" x1="-19.09" y1="0.5" x2="-18.09" y2="0.5" xlink:href="#linear-gradient-18"/>
  </defs>
  <g id="img_cover_awards" transform="translate(-70 -23)">
    <rect id="Rectangle_5088" data-name="Rectangle 5088" width="760" height="558" transform="translate(70 23)" fill="none"/>
    <g id="Group_28682" data-name="Group 28682" transform="translate(10.527 -1)">
      <g id="Group_28680" data-name="Group 28680">
        <g id="Group_28679" data-name="Group 28679">
          <g id="Group_28642" data-name="Group 28642">
            <path id="Path_127928" data-name="Path 127928" d="M485.988,244.93l-49.1-28.346a14.308,14.308,0,0,0-12.9,0l-49.1,28.346c-1.773,1.025-2.661,2.375-2.661,3.725l.005,145.534c-.072,1.4.812,2.818,2.656,3.884l49.1,28.346a14.3,14.3,0,0,0,12.9,0l49.1-28.346c1.818-1.05,2.7-2.443,2.658-3.826l0-145.592C488.647,247.3,487.76,245.955,485.988,244.93Z" fill="url(#linear-gradient)"/>
            <path id="Path_127929" data-name="Path 127929" d="M485.988,244.93c3.545,2.049,3.545,5.4,0,7.448l-49.1,28.347a14.308,14.308,0,0,1-12.9,0l-49.1-28.347c-3.547-2.048-3.547-5.4,0-7.448l49.1-28.346a14.308,14.308,0,0,1,12.9,0Z" fill="#fcddcb"/>
            <path id="Path_127930" data-name="Path 127930" d="M430.44,280.565a12.192,12.192,0,0,1-5.983-1.411l-49.1-28.347c-1.415-.817-2.194-1.853-2.194-2.917s.781-2.1,2.2-2.918l49.1-28.346a13.388,13.388,0,0,1,11.969,0l49.1,28.346c1.414.817,2.194,1.853,2.194,2.917s-.78,2.1-2.2,2.918l-49.094,28.347A12.2,12.2,0,0,1,430.44,280.565Z" fill="#fbbc98"/>
          </g>
          <g id="Group_28655" data-name="Group 28655">
            <path id="Path_127931" data-name="Path 127931" d="M441.123,240.43c-6.811-4.073-18.015-4.185-25.023-.253s-7.167,10.421-.354,14.494,18.015,4.184,25.024.253S447.937,244.5,441.123,240.43Z" fill="#febc11"/>
            <g id="Group_28643" data-name="Group 28643">
              <path id="Path_127932" data-name="Path 127932" d="M410.731,250.5q0-1.5.008-3c-.008,2.58,1.656,5.167,5.007,7.17,6.812,4.072,18.015,4.184,25.024.253,3.561-2,5.353-4.658,5.361-7.324q0,1.5-.009,2.995c-.007,2.666-1.8,5.325-5.361,7.324-7.009,3.933-18.212,3.82-25.024-.253C412.387,255.663,410.722,253.077,410.731,250.5Z" fill="#febc11"/>
            </g>
            <g id="Group_28644" data-name="Group 28644">
              <path id="Path_127933" data-name="Path 127933" d="M423.547,243.041q.876-6.183,1.749-12.364a1.5,1.5,0,0,0,.893,1.445,4.978,4.978,0,0,0,4.522.045,1.529,1.529,0,0,0,.96-1.472q.84,6.188,1.677,12.374a2.352,2.352,0,0,1-1.474,2.263,7.657,7.657,0,0,1-6.952-.07A2.309,2.309,0,0,1,423.547,243.041Z" fill="#febc11"/>
            </g>
            <g id="Group_28645" data-name="Group 28645">
              <path id="Path_127934" data-name="Path 127934" d="M422.316,230.764q-.018-1.961-.04-3.922a3.088,3.088,0,0,0,1.759,2.492,9.692,9.692,0,0,0,8.793.09,3.146,3.146,0,0,0,1.883-2.547c0,.131,0,.262-.005.393l-.027,1.568q-.013.979-.03,1.96a3.124,3.124,0,0,1-1.868,2.525,9.6,9.6,0,0,1-8.719-.088A3.059,3.059,0,0,1,422.316,230.764Z" fill="#febc11"/>
            </g>
            <path id="Path_127935" data-name="Path 127935" d="M432.952,224.331a9.69,9.69,0,0,0-8.794-.089c-2.461,1.381-2.516,3.662-.123,5.092a9.692,9.692,0,0,0,8.793.09C435.29,228.042,435.345,225.762,432.952,224.331Z" fill="#febc11"/>
            <g id="Group_28646" data-name="Group 28646">
              <path id="Path_127936" data-name="Path 127936" d="M425.3,226.781l.027-9.846a1.579,1.579,0,0,0,.906,1.295,4.978,4.978,0,0,0,4.522.046,1.61,1.61,0,0,0,.969-1.323q-.014,4.923-.027,9.847a1.613,1.613,0,0,1-.97,1.323,4.983,4.983,0,0,1-4.523-.045A1.58,1.58,0,0,1,425.3,226.781Z" fill="#febc11"/>
            </g>
            <path id="Path_127937" data-name="Path 127937" d="M418.965,216.521a31.647,31.647,0,0,1-7.7-6.744,46.251,46.251,0,0,1-5.9-9.35,69.523,69.523,0,0,1-5.78-18.963,78.345,78.345,0,0,1-1.127-12.276c.043,6.656,6.182,11.291,11.689,13.781a45.568,45.568,0,0,0,19.254,3.7,43.864,43.864,0,0,0,19.017-4.223c5.042-2.523,10.364-6.961,10.437-13.089a80.237,80.237,0,0,1-2.023,16.5,72.163,72.163,0,0,1-3.129,10.378c-.681,1.712-1.49,3.378-2.308,5.03-.594,1.2-1.2,2.374-1.9,3.51-3.743,6.049-9.09,11.717-16.058,13.888a16.3,16.3,0,0,1-6.815.641,19.139,19.139,0,0,1-7.652-2.784C416.731,215.128,419.386,216.783,418.965,216.521Z" fill="#febc11"/>
            <path id="Path_127938" data-name="Path 127938" d="M407.608,156.6c11.96-6.711,31.08-6.518,42.7.431s11.354,18.023-.605,24.734-31.078,6.518-42.7-.432S395.648,163.308,407.608,156.6Z" fill="#febc11"/>
            <path id="Path_127939" data-name="Path 127939" d="M428.756,183.792c-7.688,0-14.842-1.746-20.145-4.917-4.815-2.877-7.437-6.557-7.385-10.36.054-3.884,2.869-7.587,7.928-10.426,5.2-2.917,12.09-4.524,19.4-4.524,7.686,0,14.841,1.745,20.143,4.916,4.815,2.878,7.438,6.558,7.385,10.361-.052,3.885-2.868,7.588-7.927,10.426C442.962,182.185,436.071,183.792,428.756,183.792Z" fill="#e5a300"/>
            <g id="Group_28647" data-name="Group 28647">
              <path id="Path_127940" data-name="Path 127940" d="M392.435,170.673a24.039,24.039,0,0,1-2.3-8.649c0-4.4,3.105-6.2,6.919-3.995a18.52,18.52,0,0,1,4.287,3.648,17.991,17.991,0,0,1,1.908-1.993,26.988,26.988,0,0,0-7.844-7.591c-5.356-3.092-9.7-.586-9.7,5.6a30.509,30.509,0,0,0,2.975,11.262,79.175,79.175,0,0,0,12.14,18.577q-.572-2.343-1-4.714A63.184,63.184,0,0,1,392.435,170.673Z" fill="#febc11"/>
            </g>
            <g id="Group_28648" data-name="Group 28648">
              <path id="Path_127941" data-name="Path 127941" d="M403.261,159.706a21.712,21.712,0,0,1,2.517-2.008,27.091,27.091,0,0,0-7.932-7.72,7.779,7.779,0,0,0-11.514,4.113c1.385-3.427,4.923-4.392,9.07-2A27,27,0,0,1,403.261,159.706Z" fill="#febc11"/>
            </g>
            <path id="Path_127942" data-name="Path 127942" d="M428.756,183.792c-7.688,0-14.842-1.746-20.145-4.917-4.815-2.877-7.437-6.557-7.385-10.36.054-3.884,2.869-7.587,7.928-10.426,5.2-2.917,12.09-4.524,19.4-4.524,7.686,0,14.841,1.745,20.143,4.916,4.815,2.878,7.438,6.558,7.385,10.361-.052,3.885-2.868,7.588-7.927,10.426C442.962,182.185,436.071,183.792,428.756,183.792Z" opacity="0.5" fill="url(#linear-gradient-2)" style="mix-blend-mode: overlay;isolation: isolate"/>
            <path id="Path_127943" data-name="Path 127943" d="M428.756,183.792c-7.688,0-14.842-1.746-20.145-4.917-4.815-2.877-7.437-6.557-7.385-10.36.054-3.884,2.869-7.587,7.928-10.426,5.2-2.917,12.09-4.524,19.4-4.524,7.686,0,14.841,1.745,20.143,4.916,4.815,2.878,7.438,6.558,7.385,10.361-.052,3.885-2.868,7.588-7.927,10.426C442.962,182.185,436.071,183.792,428.756,183.792Z" opacity="0.5" fill="url(#linear-gradient-3)" style="mix-blend-mode: overlay;isolation: isolate"/>
            <path id="Path_127944" data-name="Path 127944" d="M450.055,156.833c-5.688-3.4-13.324-5.273-21.5-5.273-7.78,0-15.13,1.721-20.7,4.848-5.715,3.205-8.895,7.5-8.958,12.08-.061,4.5,2.908,8.775,8.36,12.036,5.69,3.4,13.325,5.273,21.5,5.273,7.777,0,15.128-1.722,20.7-4.848,5.713-3.207,8.895-7.5,8.958-12.081C458.478,164.368,455.509,160.094,450.055,156.833Zm-1.895,22.435c-5.2,2.917-12.089,4.524-19.4,4.524-7.688,0-14.842-1.746-20.145-4.917-4.815-2.877-7.437-6.557-7.385-10.36.054-3.884,2.869-7.587,7.928-10.426,5.2-2.917,12.09-4.524,19.4-4.524,7.686,0,14.841,1.745,20.143,4.916,4.815,2.878,7.438,6.558,7.385,10.361C456.035,172.727,453.219,176.43,448.16,179.268Z" fill="#fff" opacity="0.3" style="mix-blend-mode: overlay;isolation: isolate"/>
            <g id="Group_28649" data-name="Group 28649">
              <path id="Path_127945" data-name="Path 127945" d="M403.261,159.706a21.712,21.712,0,0,1,2.517-2.008,27.091,27.091,0,0,0-7.932-7.72,7.779,7.779,0,0,0-11.514,4.113c1.385-3.427,4.923-4.392,9.07-2A27,27,0,0,1,403.261,159.706Z" fill="url(#linear-gradient-4)" style="mix-blend-mode: overlay;isolation: isolate"/>
            </g>
            <g id="Group_28650" data-name="Group 28650" opacity="0.7" style="mix-blend-mode: overlay;isolation: isolate">
              <path id="Path_127946" data-name="Path 127946" d="M452.275,158.325c4.029,3.022,6.194,6.7,6.142,10.543-.063,4.585-3.245,8.874-8.958,12.081-5.573,3.126-12.924,4.848-20.7,4.848-8.175,0-15.81-1.874-21.5-5.273-5.452-3.261-8.421-7.535-8.36-12.036.05-3.664,2.1-7.138,5.835-10.024-9.033,6.761-8.334,16.529,2.27,22.867,11.625,6.95,30.744,7.143,42.7.432C460.947,175.455,461.858,165.294,452.275,158.325Z" fill="#fff"/>
            </g>
            <g id="Group_28651" data-name="Group 28651" opacity="0.5" style="mix-blend-mode: overlay;isolation: isolate">
              <path id="Path_127947" data-name="Path 127947" d="M410.731,250.5q0-1.5.008-3c-.008,2.58,1.656,5.167,5.007,7.17,6.812,4.072,18.015,4.184,25.024.253,3.561-2,5.353-4.658,5.361-7.324q0,1.5-.009,2.995c-.007,2.666-1.8,5.325-5.361,7.324-7.009,3.933-18.212,3.82-25.024-.253C412.387,255.663,410.722,253.077,410.731,250.5Z" fill="url(#linear-gradient-5)"/>
            </g>
            <g id="Group_28652" data-name="Group 28652" opacity="0.5" style="mix-blend-mode: overlay;isolation: isolate">
              <path id="Path_127948" data-name="Path 127948" d="M422.316,230.764q-.018-1.961-.04-3.922a3.088,3.088,0,0,0,1.759,2.492,9.692,9.692,0,0,0,8.793.09,3.146,3.146,0,0,0,1.883-2.547c0,.131,0,.262-.005.393l-.027,1.568q-.013.979-.03,1.96a3.124,3.124,0,0,1-1.868,2.525,9.6,9.6,0,0,1-8.719-.088A3.059,3.059,0,0,1,422.316,230.764Z" fill="url(#linear-gradient-6)"/>
            </g>
            <g id="Group_28653" data-name="Group 28653" opacity="0.1" style="mix-blend-mode: multiply;isolation: isolate">
              <path id="Path_127949" data-name="Path 127949" d="M418.965,216.521c-.084-.054-.271-.17-.456-.285C418.633,216.312,418.78,216.4,418.965,216.521Z"/>
              <path id="Path_127950" data-name="Path 127950" d="M418.968,216.522h0Z"/>
              <path id="Path_127951" data-name="Path 127951" d="M418.968,216.522Z"/>
              <path id="Path_127952" data-name="Path 127952" d="M418.509,216.236l-.114-.072Z"/>
              <path id="Path_127953" data-name="Path 127953" d="M418.079,215.969Z"/>
              <path id="Path_127954" data-name="Path 127954" d="M418.395,216.164c-.084-.051-.163-.1-.221-.137Z"/>
              <path id="Path_127955" data-name="Path 127955" d="M458.317,172.564a120.624,120.624,0,0,1-1.95,13.187,70.439,70.439,0,0,1-3.105,10.309c-.679,1.705-1.505,3.4-2.294,4.994-.553,1.117-1.164,2.311-1.883,3.471-3.062,4.953-8.289,11.346-15.794,13.684a15.992,15.992,0,0,1-4.766.735,15.641,15.641,0,0,1-1.852-.111,18.735,18.735,0,0,1-7.456-2.716,31.3,31.3,0,0,1-7.589-6.642,45.551,45.551,0,0,1-5.834-9.256,68.313,68.313,0,0,1-5.739-18.833c-.386-2.322-.88-6.569-1.1-9.06a10.755,10.755,0,0,1-.495-3.138,78.345,78.345,0,0,0,1.127,12.276,69.523,69.523,0,0,0,5.78,18.963,46.251,46.251,0,0,0,5.9,9.35,31.647,31.647,0,0,0,7.7,6.744,19.139,19.139,0,0,0,7.652,2.784,16.3,16.3,0,0,0,6.815-.641c6.968-2.171,12.315-7.839,16.058-13.888.7-1.136,1.311-2.314,1.9-3.51.818-1.652,1.627-3.318,2.308-5.03a72.163,72.163,0,0,0,3.129-10.378,80.237,80.237,0,0,0,2.023-16.5A10.621,10.621,0,0,1,458.317,172.564Z"/>
              <path id="Path_127956" data-name="Path 127956" d="M418.11,215.987l-.031-.018Z"/>
              <path id="Path_127957" data-name="Path 127957" d="M418.174,216.027l-.064-.04C418.127,216,418.148,216.011,418.174,216.027Z"/>
            </g>
            <g id="Group_28654" data-name="Group 28654" opacity="0.51" style="mix-blend-mode: overlay;isolation: isolate">
              <path id="Path_127958" data-name="Path 127958" d="M418.965,216.521a31.647,31.647,0,0,1-7.7-6.744,46.251,46.251,0,0,1-5.9-9.35,69.523,69.523,0,0,1-5.78-18.963,78.345,78.345,0,0,1-1.127-12.276c.043,6.656,6.182,11.291,11.689,13.781a45.568,45.568,0,0,0,19.254,3.7,43.864,43.864,0,0,0,19.017-4.223c5.042-2.523,10.364-6.961,10.437-13.089a80.237,80.237,0,0,1-2.023,16.5,72.163,72.163,0,0,1-3.129,10.378c-.681,1.712-1.49,3.378-2.308,5.03-.594,1.2-1.2,2.374-1.9,3.51-3.743,6.049-9.09,11.717-16.058,13.888a16.3,16.3,0,0,1-6.815.641,19.139,19.139,0,0,1-7.652-2.784C416.731,215.128,419.386,216.783,418.965,216.521Z" fill="url(#linear-gradient-7)"/>
            </g>
            <path id="Path_127959" data-name="Path 127959" d="M427.013,218.878c-5.66-9.387-4.515-23.931-3.457-32.457a42.671,42.671,0,0,1-13.409-3.452,29.158,29.158,0,0,1-5.4-3.15c.5,6.883,3.637,25.8,19.143,38a7.412,7.412,0,0,0,2.164.929C426.3,218.784,426.763,218.86,427.013,218.878Z" fill="#fff" opacity="0.3"/>
            <path id="Path_127960" data-name="Path 127960" d="M456.832,185.858a80.23,80.23,0,0,0,2-15.652l-.022.006c-.448,4.8-4.113,8.495-8.135,10.977-.723,10.849-4,30.392-17.9,37.661.22-.059.439-.119.656-.186,6.968-2.171,12.315-7.839,16.058-13.888.7-1.136,1.311-2.314,1.9-3.51.818-1.652,1.627-3.318,2.308-5.03A72.163,72.163,0,0,0,456.832,185.858Z" opacity="0.3" style="mix-blend-mode: overlay;isolation: isolate"/>
            <path id="Path_127961" data-name="Path 127961" d="M439.192,185.615c-.032,7.026-.738,21.386-7.622,32.922,0,0,1.373-1.006,1.771-1.411,4.541-4.63,12.412-13.5,14.885-34.589A38.641,38.641,0,0,1,439.192,185.615Z" fill="#fff" opacity="0.2"/>
            <path id="Path_127962" data-name="Path 127962" d="M404.745,199.1a25.245,25.245,0,0,0,2.416,1.707c5.623,3.5,13.171,5.435,21.253,5.435,7.688,0,14.955-1.775,20.462-5a24.348,24.348,0,0,0,3.858-2.767c.339-.74.67-1.486.969-2.242a72.163,72.163,0,0,0,3.129-10.378,80.237,80.237,0,0,0,2.023-16.5c-.073,6.128-5.4,10.566-10.437,13.089a43.864,43.864,0,0,1-19.017,4.223,45.568,45.568,0,0,1-19.254-3.7c-5.507-2.49-11.646-7.125-11.689-13.781a78.345,78.345,0,0,0,1.127,12.276A70.993,70.993,0,0,0,404.745,199.1Z" fill="#fff" opacity="0.2" style="mix-blend-mode: overlay;isolation: isolate"/>
            <path id="Path_127963" data-name="Path 127963" d="M399.585,181.464c-.311-1.873-.567-3.761-.757-5.658a71.213,71.213,0,0,1-3.949-7.247,24.067,24.067,0,0,1-2.3-8.649,6.672,6.672,0,0,1,.515-2.723c-1.788.414-2.96,2.131-2.96,4.837a24.039,24.039,0,0,0,2.3,8.649,63.184,63.184,0,0,0,7.387,12.142C399.741,182.365,399.661,181.915,399.585,181.464Z" fill="#febc11"/>
            <path id="Path_127964" data-name="Path 127964" d="M399.585,181.464c-.311-1.873-.567-3.761-.757-5.658a71.213,71.213,0,0,1-3.949-7.247,24.067,24.067,0,0,1-2.3-8.649,6.672,6.672,0,0,1,.515-2.723c-1.788.414-2.96,2.131-2.96,4.837a24.039,24.039,0,0,0,2.3,8.649,63.184,63.184,0,0,0,7.387,12.142C399.741,182.365,399.661,181.915,399.585,181.464Z" fill="url(#linear-gradient-8)" style="mix-blend-mode: overlay;isolation: isolate"/>
            <path id="Path_127965" data-name="Path 127965" d="M399.822,182.815a63.184,63.184,0,0,1-7.387-12.142,24.039,24.039,0,0,1-2.3-8.649c0-4.4,3.105-6.2,6.919-3.995a18.52,18.52,0,0,1,4.287,3.648,17.991,17.991,0,0,1,1.908-1.993,26.988,26.988,0,0,0-7.844-7.591c-5.356-3.092-9.7-.586-9.7,5.6a30.509,30.509,0,0,0,2.975,11.262,79.175,79.175,0,0,0,12.14,18.577Q400.249,185.186,399.822,182.815Z" opacity="0.5" style="mix-blend-mode: overlay;isolation: isolate"/>
            <path id="Path_127966" data-name="Path 127966" d="M415.233,198.043c2.581,6.514,2.771,12.549.426,13.478s-6.339-3.6-8.92-10.112-2.773-12.548-.427-13.478S412.651,191.529,415.233,198.043Z" fill="url(#radial-gradient)" style="mix-blend-mode: screen;isolation: isolate"/>
            <path id="Path_127967" data-name="Path 127967" d="M432.073,233.659a9.968,9.968,0,0,1-7.2-.018q-.665,4.7-1.33,9.4a2.309,2.309,0,0,0,1.375,2.221,7.657,7.657,0,0,0,6.952.07,2.352,2.352,0,0,0,1.474-2.263Z" opacity="0.5" fill="url(#linear-gradient-9)" style="mix-blend-mode: overlay;isolation: isolate"/>
            <path id="Path_127968" data-name="Path 127968" d="M432.234,234.857q-.081-.6-.161-1.2a9.968,9.968,0,0,1-7.2-.018c-.057.4-.112.792-.169,1.189A9.9,9.9,0,0,0,432.234,234.857Z" opacity="0.5" style="mix-blend-mode: overlay;isolation: isolate"/>
            <path id="Path_127969" data-name="Path 127969" d="M426.617,219.3c-.435-.053-.868-.13-1.3-.219l-.021,7.7a1.58,1.58,0,0,0,.9,1.3,4.983,4.983,0,0,0,4.523.045,1.613,1.613,0,0,0,.97-1.323q.011-3.849.021-7.7A16.111,16.111,0,0,1,426.617,219.3Z" opacity="0.5" fill="url(#linear-gradient-10)" style="mix-blend-mode: overlay;isolation: isolate"/>
            <path id="Path_127970" data-name="Path 127970" d="M426.617,219.3c-.435-.053-.868-.13-1.3-.219l0,1.516c.433.089.869.167,1.3.22a16.11,16.11,0,0,0,5.092-.2q0-.759,0-1.518A16.111,16.111,0,0,1,426.617,219.3Z" opacity="0.5" style="mix-blend-mode: overlay;isolation: isolate"/>
            <path id="Path_127971" data-name="Path 127971" d="M430.021,228.413a3.732,3.732,0,0,0,.7-.29,1.613,1.613,0,0,0,.97-1.323q.011-3.849.021-7.7a16.432,16.432,0,0,1-1.693.245Z" opacity="0.2" style="mix-blend-mode: overlay;isolation: isolate"/>
            <path id="Path_127972" data-name="Path 127972" d="M431.539,245.5c.115-.055.227-.111.335-.171a2.352,2.352,0,0,0,1.474-2.263l-1.275-9.41a8.6,8.6,0,0,1-1.912.529Z" opacity="0.2" style="mix-blend-mode: overlay;isolation: isolate"/>
            <path id="Path_127973" data-name="Path 127973" d="M432.828,229.424c-.017.008-.035.016-.052.026v3.876l.005,0a3.124,3.124,0,0,0,1.868-2.525q.017-.979.03-1.96l.027-1.568c0-.131.005-.262.005-.393A3.146,3.146,0,0,1,432.828,229.424Z" opacity="0.2" style="mix-blend-mode: overlay;isolation: isolate"/>
            <path id="Path_127974" data-name="Path 127974" d="M434.184,232.124a2.336,2.336,0,0,0,.465-1.326q.017-.979.03-1.96l.027-1.568c0-.131.005-.262.005-.393a2.4,2.4,0,0,1-.527,1.413Z" opacity="0.1" style="mix-blend-mode: multiply;isolation: isolate"/>
            <path id="Path_127975" data-name="Path 127975" d="M441.123,240.43a23.031,23.031,0,0,0-8.517-2.832q.374,2.734.742,5.471a2.352,2.352,0,0,1-1.474,2.263,7.657,7.657,0,0,1-6.952-.07,2.309,2.309,0,0,1-1.375-2.221q.389-2.734.773-5.468a23.354,23.354,0,0,0-8.22,2.6c-7.007,3.932-7.167,10.421-.354,14.494s18.015,4.184,25.024.253S447.937,244.5,441.123,240.43Z" opacity="0.5" fill="url(#radial-gradient-2)" style="mix-blend-mode: overlay;isolation: isolate"/>
            <path id="Path_127976" data-name="Path 127976" d="M432.952,224.331a6.943,6.943,0,0,0-1.251-.574q-.006,1.521-.008,3.043a1.613,1.613,0,0,1-.97,1.323,4.983,4.983,0,0,1-4.523-.045,1.58,1.58,0,0,1-.9-1.3l.008-3.043a7.148,7.148,0,0,0-1.146.5c-2.461,1.381-2.516,3.662-.123,5.092a9.692,9.692,0,0,0,8.793.09C435.29,228.042,435.345,225.762,432.952,224.331Z" opacity="0.3" style="mix-blend-mode: overlay;isolation: isolate"/>
            <path id="Path_127977" data-name="Path 127977" d="M433.233,241.05c-.054-.032-.114-.06-.171-.092q.144,1.055.286,2.111a2.352,2.352,0,0,1-1.474,2.263,7.657,7.657,0,0,1-6.952-.07,2.309,2.309,0,0,1-1.375-2.221q.144-1.014.287-2.029c-2.513,1.468-2.543,3.84-.041,5.336a10.253,10.253,0,0,0,9.307.094C435.709,244.979,435.768,242.565,433.233,241.05Z" opacity="0.5" style="mix-blend-mode: overlay;isolation: isolate"/>
            <path id="Path_127978" data-name="Path 127978" d="M443.74,210.665c11.542.521,14.579-.386,18.624-4.07a9.664,9.664,0,0,0,2.47-6.433,16.433,16.433,0,0,0-7.427-12.865c-2.582-1.493-5.489-1.832-7.389-.866.189-2.035.286-3.738.337-4.923,2.486-.826,5.812-.281,8.824,1.458,5.75,3.319,10.41,11.392,10.41,18.03,0,3.4-1.52,6.88-3.194,8.4-5.27,4.8-9.3,5.51-24.845,4.6A24.844,24.844,0,0,0,443.74,210.665Z" fill="#febc11"/>
            <path id="Path_127979" data-name="Path 127979" d="M462.364,206.6a4.8,4.8,0,0,0,.518-.569c-3.28,2.258-7.019,2.8-16.517,2.369l-2.625,2.27C455.282,211.186,458.319,210.279,462.364,206.6Z" fill="#febc11"/>
            <path id="Path_127980" data-name="Path 127980" d="M461.8,180.7c-3.012-1.739-6.338-2.283-8.827-1.457l-2.622,2.269c2.486-.826,5.812-.281,8.824,1.458,5.75,3.319,10.41,11.392,10.41,18.03a12.962,12.962,0,0,1-2.688,7.873,24.244,24.244,0,0,0,2.118-1.738c1.675-1.526,3.195-5,3.195-8.4C472.214,192.088,467.553,184.015,461.8,180.7Z" fill="#febc11"/>
            <path id="Path_127981" data-name="Path 127981" d="M461.8,180.7c-3.012-1.739-6.338-2.283-8.827-1.457l-2.622,2.269c2.486-.826,5.812-.281,8.824,1.458,5.75,3.319,10.41,11.392,10.41,18.03a12.962,12.962,0,0,1-2.688,7.873,24.244,24.244,0,0,0,2.118-1.738c1.675-1.526,3.195-5,3.195-8.4C472.214,192.088,467.553,184.015,461.8,180.7Z" fill="url(#linear-gradient-11)" style="mix-blend-mode: overlay;isolation: isolate"/>
            <path id="Path_127982" data-name="Path 127982" d="M443.74,210.665c11.542.521,14.579-.386,18.624-4.07a9.664,9.664,0,0,0,2.47-6.433,16.433,16.433,0,0,0-7.427-12.865c-2.582-1.493-5.489-1.832-7.389-.866.189-2.035.286-3.738.337-4.923,2.486-.826,5.812-.281,8.824,1.458,5.75,3.319,10.41,11.392,10.41,18.03,0,3.4-1.52,6.88-3.194,8.4-5.27,4.8-9.3,5.51-24.845,4.6A24.844,24.844,0,0,0,443.74,210.665Z" opacity="0.5" style="mix-blend-mode: overlay;isolation: isolate"/>
          </g>
          <g id="Group_28656" data-name="Group 28656">
            <path id="Path_127983" data-name="Path 127983" d="M555.882,327.9l-49.1-28.347a14.308,14.308,0,0,0-12.9,0L444.79,327.9c-1.773,1.024-2.661,2.374-2.661,3.724l.005,101.825c-.071,1.4.812,2.819,2.656,3.883l49.1,28.348a14.308,14.308,0,0,0,12.9,0l49.1-28.348c1.818-1.049,2.705-2.442,2.66-3.826l0-101.882C558.543,330.276,557.656,328.926,555.882,327.9Z" fill="url(#linear-gradient-12)"/>
            <path id="Path_127984" data-name="Path 127984" d="M555.882,327.9c3.547,2.048,3.547,5.4,0,7.447l-49.1,28.347a14.309,14.309,0,0,1-12.9,0l-49.1-28.347c-3.547-2.047-3.547-5.4,0-7.447l49.1-28.347a14.308,14.308,0,0,1,12.9,0Z" fill="#fcddcb"/>
            <path id="Path_127985" data-name="Path 127985" d="M500.337,363.536a12.186,12.186,0,0,1-5.985-1.411l-49.1-28.347c-1.414-.817-2.194-1.852-2.194-2.917s.782-2.1,2.2-2.918l49.1-28.347a13.392,13.392,0,0,1,11.967,0l49.1,28.347c1.414.817,2.194,1.854,2.194,2.917s-.78,2.1-2.2,2.918l-49.1,28.347A12.169,12.169,0,0,1,500.337,363.536Z" fill="#fbbc98"/>
          </g>
          <g id="Group_28657" data-name="Group 28657">
            <path id="Path_127986" data-name="Path 127986" d="M419.962,369.506l-49.1-28.348a14.3,14.3,0,0,0-12.9,0l-49.1,28.348c-1.773,1.023-2.66,2.373-2.66,3.722l0,58.117c-.073,1.4.812,2.819,2.655,3.884l49.1,28.347a14.3,14.3,0,0,0,12.9,0l49.1-28.347c1.818-1.05,2.7-2.442,2.659-3.826V373.228C422.621,371.879,421.736,370.529,419.962,369.506Z" fill="url(#linear-gradient-13)"/>
            <path id="Path_127987" data-name="Path 127987" d="M419.962,369.506c3.546,2.047,3.546,5.4,0,7.446l-49.1,28.347a14.3,14.3,0,0,1-12.9,0l-49.1-28.347c-3.545-2.047-3.545-5.4,0-7.446l49.1-28.348a14.3,14.3,0,0,1,12.9,0Z" fill="#fcddcb"/>
            <path id="Path_127988" data-name="Path 127988" d="M364.415,405.139a12.189,12.189,0,0,1-5.983-1.411l-49.1-28.346c-1.414-.818-2.194-1.853-2.194-2.918s.781-2.1,2.2-2.917l49.1-28.348a13.392,13.392,0,0,1,11.967,0l49.1,28.348c1.416.817,2.194,1.852,2.194,2.916s-.778,2.1-2.2,2.919l-49.1,28.346A12.188,12.188,0,0,1,364.415,405.139Z" fill="#fbbc98"/>
          </g>
          <g id="Group_28658" data-name="Group 28658">
            <path id="Path_127989" data-name="Path 127989" d="M485.988,432.109l-49.1-28.346a14.3,14.3,0,0,0-12.9,0l-49.1,28.346c-1.773,1.024-2.661,2.374-2.661,3.724l.005,36.262c-.072,1.4.812,2.819,2.656,3.883l49.1,28.345a14.3,14.3,0,0,0,12.9,0l49.1-28.345c1.818-1.049,2.7-2.441,2.658-3.826l0-36.319C488.647,434.483,487.76,433.133,485.988,432.109Z" fill="url(#linear-gradient-14)"/>
            <path id="Path_127990" data-name="Path 127990" d="M485.988,432.109c3.545,2.049,3.545,5.4,0,7.447l-49.1,28.347a14.309,14.309,0,0,1-12.9,0l-49.1-28.347c-3.547-2.048-3.547-5.4,0-7.447l49.1-28.346a14.3,14.3,0,0,1,12.9,0Z" fill="#fcddcb"/>
            <path id="Path_127991" data-name="Path 127991" d="M430.44,467.743a12.17,12.17,0,0,1-5.983-1.412l-49.1-28.346c-1.415-.817-2.194-1.853-2.194-2.917s.781-2.1,2.2-2.917l49.1-28.348a13.4,13.4,0,0,1,11.969,0l49.1,28.348c1.414.816,2.194,1.852,2.194,2.916s-.78,2.1-2.2,2.918l-49.094,28.346A12.18,12.18,0,0,1,430.44,467.743Z" fill="#fbbc98"/>
          </g>
          <ellipse id="Ellipse_950" data-name="Ellipse 950" cx="53.472" cy="24.846" rx="53.472" ry="24.846" transform="translate(191.474 404.84)" opacity="0.2"/>
          <ellipse id="Ellipse_951" data-name="Ellipse 951" cx="53.472" cy="24.846" rx="53.472" ry="24.846" transform="translate(258.449 508.543)" opacity="0.2"/>
          <ellipse id="Ellipse_952" data-name="Ellipse 952" cx="53.472" cy="24.846" rx="53.472" ry="24.846" transform="translate(409.683 532.309)" opacity="0.2"/>
          <ellipse id="Ellipse_953" data-name="Ellipse 953" cx="53.472" cy="24.846" rx="53.472" ry="24.846" transform="translate(568.267 469.81)" opacity="0.2"/>
          <g id="Group_28662" data-name="Group 28662">
            <path id="Path_127992" data-name="Path 127992" d="M289.382,326.386l-3.935-2.178a16.944,16.944,0,0,1-3.268,0,31.32,31.32,0,0,1-8.11-2.723c-1.7-1.03-7.263-4.783-7.263-4.783l-2.117-15.07-6.236-24.9s6.517.184,8.576,3.615,3.592,11.426,4.8,15.6S275.1,305.99,275.1,305.99a75.361,75.361,0,0,1,7.626,4.9c2,1.7,5.085,2.821,5.994,3.862a3.276,3.276,0,0,1,.9,1.949l1.281.619Z" fill="#dbe8f5"/>
            <path id="Path_127993" data-name="Path 127993" d="M266.625,283.779c.665.847,1.091,11.56,1.091,11.862s5.384,9.624,4.719,12.589-3.811,4.6-3.811,4.6,3.873,5.507,7.2,6.475a26.688,26.688,0,0,0,7.927.605l-2.966-1.21a7,7,0,0,0,4.66-.3v1.937l4.72,1.377-.785,4.674-3.935-2.178a16.944,16.944,0,0,1-3.268,0,31.32,31.32,0,0,1-8.11-2.723c-1.7-1.03-7.263-4.783-7.263-4.783l-2.117-15.07-3.631-20.144C263.769,282.4,266.323,283.395,266.625,283.779Z" fill="#c2cfdc"/>
            <path id="Path_127994" data-name="Path 127994" d="M288.419,322.1s.7-4.072,1.587-5.263,1.394-2.335,2.881-2.037,1.64,2.234,1.64,2.234,2.981,1.442,3.575,1.689a8.4,8.4,0,0,1,3.178,2.334,2.262,2.262,0,0,1-.893,3.476,8.181,8.181,0,0,1,1.392,1.821c.374.816.506,1.88-.406,2.336a5.723,5.723,0,0,0-1.4.94,1.114,1.114,0,0,1,0,1.473,20.944,20.944,0,0,1-4.493,3.667c-1.139.589-2.641.759-2.926.246a.99.99,0,0,1,.361-1.329c.438-.342,1.311-1.007,1.311-1.007l-.229-.761a35.261,35.261,0,0,1-4.311-3.741C288.737,326.964,288.419,324.8,288.419,322.1Z" fill="#ffcda8"/>
            <path id="Path_127995" data-name="Path 127995" d="M289.69,328.18c-.953-1.216-1.271-3.377-1.271-6.078,0,0,.7-4.072,1.587-5.263.193-.259.368-.515.542-.754a.533.533,0,0,1,.1.143c.179.45.065,1.982,1.687,2.387s2.207,0,2.207,0a4.311,4.311,0,0,0-.315,3c.474,1.532,2.747,2.207,2.747,2.207l.18.677s.856,1.011,1.4.854a17.327,17.327,0,0,0,1.839-.814,9.544,9.544,0,0,1,1.229,1.517c-1.35.478-3.9,1.414-3.9,1.414a1.354,1.354,0,0,0-.136-1.531,12.656,12.656,0,0,0-2.337-1.96s-3.382-.338-3.9,0-.268.452.541,1.215.248,1.555-.2,2.862a4.117,4.117,0,0,0,.331,2.3A17.957,17.957,0,0,1,289.69,328.18Z" fill="#d9a782"/>
            <path id="Path_127996" data-name="Path 127996" d="M292.919,333.689c.438-.342,1.311-1.007,1.311-1.007l-.016-.054c.146-.1.436-.3.506-.365.088-.091.743-.9.877-1.058s.542-.833.764-.946.408.113,1.107.09a12.876,12.876,0,0,0,2.509-.717,1.114,1.114,0,0,1,0,1.473,20.944,20.944,0,0,1-4.493,3.667c-1.139.589-2.641.759-2.926.246A.99.99,0,0,1,292.919,333.689Z" fill="#d9a782"/>
            <g id="Group_28659" data-name="Group 28659">
              <path id="Path_127997" data-name="Path 127997" d="M237.876,250.517a12.839,12.839,0,0,1,9.4,1.776,13.335,13.335,0,0,1,3.858,5.082c.4.674.306,2.816.828,3.3a8.006,8.006,0,0,1,2.234,4.2c.306,2.05,2.023,7.867,1.074,8.969s-2.912,1.837-3,4.347,1.9,12.7.491,13.868-6.676,1.805-9.92.214-6.43-9.887-6.43-9.887,2.91-4.316,1.53-5.665-6.058-5.756-7.711-8.479-2.818-8.511.181-12.552S235.212,251.252,237.876,250.517Z" fill="#ffcda8"/>
              <path id="Path_127998" data-name="Path 127998" d="M237.509,273.6a23.589,23.589,0,0,0,8.815,1.928c4.869.062,7.59-1.286,8.39-1.928s-2.234-7.1-2.267-7.562.826-1.163.553-1.929-3.217-2.082-3.922-3.612c-.474-1.035,1.01-2.406,2.018-3.185.012.02.025.045.035.063.4.674.306,2.816.828,3.3a8.006,8.006,0,0,1,2.234,4.2c.306,2.05,2.023,7.867,1.074,8.969s-2.912,1.837-3,4.347,1.9,12.7.491,13.868c-.873.719-3.223,1.239-5.658,1.155.722-4.773-2.842-13.648-5.047-15.6a13.962,13.962,0,0,0-6.07-2.795c-.356-.351-.733-.729-1.124-1.125A5.5,5.5,0,0,0,237.509,273.6Z" fill="#d9a782"/>
              <path id="Path_127999" data-name="Path 127999" d="M246.293,250.246c.7.231,2.418,3.332-1.836,4.036s-7.653.857-8.02,3.858,1.164,4.53.428,5.021a2.11,2.11,0,0,0-.488,2.295c.212.612,1.058,1.99-.13,2.052s-2.626.245-2.626.245-2.625.143-2.079,2.306a11.972,11.972,0,0,1-2.76-4.358c-1.009-2.756-1.959-6.827,1.5-11.082S238.979,247.832,246.293,250.246Z" fill="#563317"/>
            </g>
            <g id="Group_28660" data-name="Group 28660">
              <path id="Path_128000" data-name="Path 128000" d="M260.147,410.164s4.208,3.336,6.851,5,7.441,7.407,5.645,9.372c-2.529,2.767-7.865.946-10.381-.508-5.662-3.273-6.639-5.16-9.363-6.258-3.7-1.491-4.764-.777-6.276-2.427l-.343-4.746h2.579s.617.178,4.2,1.548C257.729,413.932,257.231,410.381,260.147,410.164Z" fill="#001135"/>
              <path id="Path_128001" data-name="Path 128001" d="M252.9,417.769c2.724,1.1,3.7,2.985,9.363,6.258,2.516,1.454,7.852,3.275,10.381.508a1.46,1.46,0,0,0,.326-.609,1.905,1.905,0,0,1-.326,1.734c-2.529,2.766-7.865.946-10.381-.509-5.662-3.272-6.639-5.162-9.363-6.258-3.7-1.49-4.764-.778-6.276-2.428l.023-1.1C248.148,416.983,249.219,416.286,252.9,417.769Z" fill="#414e52"/>
            </g>
            <path id="Path_128002" data-name="Path 128002" d="M251.216,352.626l4.35-6.64a19.717,19.717,0,0,0,13.2-9.611s2.863,10.979,2.684,17.548-1.821,12.795-5.969,25.07-5.381,27.816-3.511,32.58c0,0-8,5.716-15.688.961,0,0,.008-7.088.871-15.647s.088-28.958.173-29.477S251.216,352.626,251.216,352.626Z" fill="#0f2841"/>
            <g id="Group_28661" data-name="Group 28661">
              <path id="Path_128003" data-name="Path 128003" d="M230.913,427.053s2.942,5.109,4.852,7.61,8.05,8.53,3.677,10.811-12.906-.552-15.186-5.995a43.745,43.745,0,0,0-3.823-7.721c-.625-1.03.183-6.543.183-6.543l1.27,1.267s.056,4.319,2.26,4.873,2.833-2.5,3.971-3.125A20.425,20.425,0,0,1,230.913,427.053Z" fill="#001135"/>
              <path id="Path_128004" data-name="Path 128004" d="M220.433,431.758a43.745,43.745,0,0,1,3.823,7.721c2.28,5.443,10.812,8.274,15.186,5.995a2.59,2.59,0,0,0,1.48-1.789,2.544,2.544,0,0,1-1.48,2.939c-4.374,2.28-12.906-.55-15.186-5.993a43.68,43.68,0,0,0-3.823-7.719,5.446,5.446,0,0,1-.226-2.313A2.8,2.8,0,0,0,220.433,431.758Z" fill="#414e52"/>
            </g>
            <path id="Path_128005" data-name="Path 128005" d="M234.043,430.171s1.215,3.018-5.131,3.826c-8.4,1.07-8.4-8.023-8.4-8.023s.254-15.718,1.458-22.96,6.841-10.862,8.15-18.706,2.314-31.886,3.417-36.31a33.525,33.525,0,0,1,3.02-7.745s7.745,9.153,19.007,5.733a97.713,97.713,0,0,1-3.822,24.743,158.1,158.1,0,0,1-12.166,28.162C236.154,405.228,234.043,430.171,234.043,430.171Z" fill="#1c354e"/>
            <path id="Path_128006" data-name="Path 128006" d="M252.586,276.727s-.311.527-.154.749c1.206,1.707,6.463,8.886-.314,11.7-7.657,3.18-15.558-7.588-15.558-7.588s-10.609,7.376-12.8,11.739,8.76,18.588,8.76,18.588,4.134,11.594,3.961,15.6-2.29,10.852.076,12.741c0,0,4.541,8.618,19.8,5.573s13.064-11.972,13.064-11.972a46.79,46.79,0,0,1-1.089-4.868c-.94-6.864.609-12.525.262-16.742a57.9,57.9,0,0,0-1.209-7.8s1.294-14.953-2.275-21.915-6.976-5.717-6.976-5.717Z" fill="#dbe8f5"/>
            <path id="Path_128007" data-name="Path 128007" d="M250.43,292.187l1.688-4.365,4.654,2.336-.758,3.309s6.7,14.709,9.011,28.146c1.613,9.375,2.379,12.673,2.379,12.673l-2.295,4.656-3.96-3.338s-1.656-28.132-7.348-41.214Z" fill="#b00052"/>
            <path id="Path_128008" data-name="Path 128008" d="M237.908,278.185s6.956,8.973,14.21,9.637l-1.325,6.628a29.816,29.816,0,0,1-15.057-13.22Z" fill="#e8f5ff"/>
            <path id="Path_128009" data-name="Path 128009" d="M257.35,291.108l-5.232-3.286s.185-5.651.146-9.244a3.416,3.416,0,0,1,.249-1.716l1.213-.135S258.083,284.809,257.35,291.108Z" fill="#e8f5ff"/>
            <path id="Path_128010" data-name="Path 128010" d="M210.24,346.889l3.5-2.731s2.787-.168,3.79-1,5.348-5.126,6.462-7.189,2.062-6.743,2.455-7.634,3.733-12.929,4.346-15.047,3.48-9.138,2.547-13.373-4.974-13.1-7.591-9.758-5.451,11.429-5.9,15.052-4.547,21.12-5.049,22.123-2.9,4.123-3.956,5.685-3.79,3.844-4.18,4.847a6.233,6.233,0,0,0-.389,2.005l-1.449.759Z" fill="#dbe8f5"/>
            <path id="Path_128011" data-name="Path 128011" d="M210.24,346.889l-2.18-2.519c1.329-1.051,3.01-2.387,3.01-2.387a17.347,17.347,0,0,0,3.781-1.95,19.846,19.846,0,0,1-2.451,1.95,3.386,3.386,0,0,0,3.453.057,22.242,22.242,0,0,0,5.407-4.9c.836-1.282,1.673-4.235,1.059-5.295s-4.4-3.454-4.4-3.454a9.765,9.765,0,0,0,3.623-4.849c1.337-3.51,3.678-13.6,4.736-15.045.974-1.334,5.349-3.327,6.908-3.463a70.6,70.6,0,0,1-2.394,8.254c-.613,2.118-3.956,14.156-4.346,15.047s-1.338,5.574-2.455,7.634-5.46,6.354-6.462,7.189-3.79,1-3.79,1Z" fill="#c2cfdc"/>
            <path id="Path_128012" data-name="Path 128012" d="M203.23,353.7a1.383,1.383,0,0,1-.3-.033c-1.016-.232-1.112-1.364-1.106-1.845l-1.33.62a2.219,2.219,0,0,1-1.973-.252c-.593-.556-.2-2.008-.056-2.468-.406-.073-1.554-.281-2.057-.438l-.049-.015c-.629-.2-.937-.339-1.061-1.464a3.735,3.735,0,0,1,.907-3.074c.612-.695,1.583-.3,2.115.071a4.379,4.379,0,0,0,.255-2.484c-.243-.673-.29-.678-.416-.693a1.006,1.006,0,0,1-.33-.09,2.523,2.523,0,0,1-1.419-1.689,1.191,1.191,0,0,1-.056-1.022c.205-.359.707-.442,1.239-.53l.078-.013a22.7,22.7,0,0,1,6.28,1.116,22.512,22.512,0,0,1,3.957,2.373l.018.017a34.759,34.759,0,0,1,3.134,3.865c.648,1.218-1.25,4.888-1.27,4.924-.084.159-.187.386-.306.649-.487,1.072-.925,1.97-1.367,2.117-.618.212-1.754-.652-1.861-.926a1.478,1.478,0,0,0-.7-.149A3.8,3.8,0,0,1,203.23,353.7Zm-1.119-2.287-.027.223c-.007.062-.169,1.542.9,1.787,1.1.263,2.4-1.345,2.414-1.361l.039-.048.062,0c.262.006.882.051.987.306.069.163,1.068.939,1.55.783.374-.125.882-1.243,1.218-1.983.121-.267.226-.5.314-.663.374-.7,1.775-3.74,1.27-4.69a35.046,35.046,0,0,0-3.09-3.8,22.452,22.452,0,0,0-3.887-2.333,23.4,23.4,0,0,0-6.151-1.1l-.078.014c-.492.081-.917.15-1.062.407a.973.973,0,0,0,.071.806c.429,1.093.821,1.342,1.29,1.553a.769.769,0,0,0,.255.07c.265.03.354.113.622.857a4.9,4.9,0,0,1-.315,2.815l-.064.156-.131-.105c-.012-.012-1.228-.977-1.908-.2a3.5,3.5,0,0,0-.846,2.881c.112,1.013.339,1.083.887,1.253l.049.016c.588.182,2.152.451,2.168.454l.146.024-.049.141c-.178.5-.533,1.895-.055,2.344.585.546,1.7.2,1.712.2Z" fill="#ff0"/>
            <path id="Path_128013" data-name="Path 128013" d="M207.835,341.875a22.827,22.827,0,0,0-3.927-2.357,22.873,22.873,0,0,0-6.215-1.11c-.874.146-1.622.231-1.166,1.4s.9,1.415,1.355,1.623.436-.188.811.855a4.837,4.837,0,0,1-.313,2.725s-1.313-1.062-2.081-.187a3.627,3.627,0,0,0-.876,2.976c.124,1.125.419,1.186,1.023,1.374s2.184.458,2.184.458-.666,1.873-.022,2.477a2.122,2.122,0,0,0,1.834.229l1.518-.708s-.2,1.651,1,1.923,2.539-1.4,2.539-1.4.79.022.875.23,1.144,1.041,1.706.854,1.25-2.041,1.6-2.707,1.812-3.787,1.27-4.806A35.48,35.48,0,0,0,207.835,341.875Z" fill="#ffcda8"/>
            <path id="Path_128014" data-name="Path 128014" d="M202.959,353.548c-1.2-.272-1-1.923-1-1.923l-1.518.708a2.122,2.122,0,0,1-1.834-.229c-.644-.6.022-2.477.022-2.477s-1.581-.27-2.184-.458-.9-.249-1.023-1.374a3.627,3.627,0,0,1,.876-2.976.982.982,0,0,1,.511-.313c.727.2,2.039.43,1.714,1.6a9.309,9.309,0,0,0-.393,2.6c.041.167.8.4.8.4s.1-2.164,1.511-1.874a1.671,1.671,0,0,1,1.311,2.144c-.167.541-.688,1.52-.523,1.708s1.061.457,1.168.249.354-2.248,1.478-2.206,1.849.79,1.644,1.436-.373,1.311-.082,1.311,1.725.313,1.788-.416.436-2.707,2.227-2.373a3.754,3.754,0,0,1,.787.236c-.233.546-.446.992-.559,1.2-.352.666-1.04,2.519-1.6,2.707s-1.624-.645-1.706-.854-.875-.23-.875-.23S204.156,353.82,202.959,353.548Z" fill="#d9a782"/>
          </g>
          <g id="Group_28666" data-name="Group 28666">
            <g id="Group_28663" data-name="Group 28663">
              <path id="Path_128015" data-name="Path 128015" d="M323.064,357.745c1.057-1.356,1.3-3.224,1.147-5.6s-2.23-5.425-2.23-5.425a26.955,26.955,0,0,0,0-2.713c-.091-.662-1.749-.361-1.749-.361s-1.6-1.507-2.591-2.532a6.122,6.122,0,0,0-2.11-1.417L304.9,347.65l-2.05,25.132s5.512,10.186,10.395,9.795,9.614-5.215,9.614-5.215-3.225-4.881-3.737-6.809.934-9.012,1.2-9.554S322.01,359.1,323.064,357.745Z" fill="#ffcda8"/>
              <path id="Path_128016" data-name="Path 128016" d="M322.855,377.362s-3.225-4.881-3.737-6.809.934-9.012,1.2-9.554a3.057,3.057,0,0,1,.353-.494l-1.439.434s-2.68,1.235-3.255-.632-1.866-4.762-1.866-4.762l-3.015,1.718s-4.816,6.751-7.931,11.534l-.324,3.985s5.512,10.186,10.395,9.795S322.855,377.362,322.855,377.362Z" fill="#d9a782"/>
            </g>
            <path id="Path_128017" data-name="Path 128017" d="M314.544,466.132c-2.845,3.5-8.9,18.476-9.126,20.9s.654,17.956,1.014,22.7a12.285,12.285,0,0,1-2.058,7.885v0a3.623,3.623,0,0,1,1.272-.3c2.126-.1,4.316,1.93,4.841,3.045s1.144,6.995,1.144,6.995l.882,1.916a79.4,79.4,0,0,1,.41-9.4c.41-2.846,1.2-9.78,1.2-9.78l2.941-14.912,4.412-22.774S317.387,462.635,314.544,466.132Z" fill="#bc8568"/>
            <path id="Path_128018" data-name="Path 128018" d="M310.487,520.355c.521,1.111,1.144,6.995,1.144,6.995l.882,1.916a79.4,79.4,0,0,1,.41-9.4c.41-2.846,1.2-9.78,1.2-9.78l2.941-14.912,4.412-22.774s-4.084-9.76-6.927-6.263a46.81,46.81,0,0,0-4.492,8.427c.373,3.391.984,9.509.923,12.666-.086,4.513.176,11.312-1.2,18.309-.992,5.052-1.212,9.282-1.809,12.4A6.417,6.417,0,0,1,310.487,520.355Z" fill="#a26c4e"/>
            <path id="Path_128019" data-name="Path 128019" d="M311.631,527.35s-.623-5.884-1.144-6.995-2.715-3.143-4.841-3.045-3.566,2-4.48,4.092.72,4.609.656,7.584a80.124,80.124,0,0,1-1.31,9.323l1.109.389s2.651-12.851,6.117-9.777c0,0,2.355,7.457,3.893,7.979s1.96-5.3,1.96-5.3Z" fill="#212b2e"/>
            <path id="Path_128020" data-name="Path 128020" d="M311.631,536.9c-1.538-.522-3.893-7.979-3.893-7.979-2.151-1.906-3.984,2.31-5.068,5.795,0,0,7.945,3.067,9.254,2.709.367-.1.465-.4.429-.787A.638.638,0,0,1,311.631,536.9Z" fill="#485255"/>
            <path id="Path_128021" data-name="Path 128021" d="M313.112,524.708s-4.52,3.854-4.063,7.056,2.451,3.992,2.747,7.032a41.113,41.113,0,0,1,.194,5.233h1.122s-.5-8.959,2.344-8.045,7.259,5.364,8.766,6.184,4.544,1.2,8.373-2,5.034-5.986,4.055-6.865-10.728-.164-10.728-.164a2.4,2.4,0,0,1,1.178,2.747c-.491,1.9-2.682,1.766-4.106-.525S315.084,525.6,313.112,524.708Z" fill="#2e383b"/>
            <path id="Path_128022" data-name="Path 128022" d="M314.672,522.871a2.261,2.261,0,0,1-1.46,1.89c2.077,1.073,8.382,8.349,9.782,10.6,1.424,2.291,3.615,2.42,4.106.525a2.37,2.37,0,0,0-1.068-2.682.477.477,0,0,1-.083-.053.241.241,0,0,1-.027-.012l.011,0c-.969-.838-2.112-7.441-2.3-11.12-.2-3.829,1.7-15.6,2.551-20.016s2.32-16.316,3.072-19.028,2.518-10.172,2.518-10.172l-16.482-.652a32.837,32.837,0,0,1,1.212,7.882c.259,5.034-2.911,8.4-4.452,14.551s.821,11.378,1.538,14.517S314.739,521.363,314.672,522.871Z" fill="#bc8568"/>
            <path id="Path_128023" data-name="Path 128023" d="M297.583,410.8l3.961,5.048-3.273,4.972-6.325-6.048Z" fill="#d9a782"/>
            <path id="Path_128024" data-name="Path 128024" d="M295.961,411.942l4.962,4.848.62-.943-3.961-5.048Z" fill="#ffcda8"/>
            <path id="Path_128025" data-name="Path 128025" d="M298.839,367.872l2.5-2.5s-8.242-.8-10.467,6.664-3.518,23.682-4.378,26.983-1.579,6.315-.43,8.682,5.884,7.394,5.884,7.394,3.876.358,5.887-4.306c0,0-3.014-6.1-3.014-7.465s3.875-14.639,3.875-14.639Z" fill="#831d82"/>
            <path id="Path_128026" data-name="Path 128026" d="M297.835,410.788s-3.014-6.1-3.014-7.465,3.875-14.639,3.875-14.639l.084-12.254-3.6-.162s-2.372-.216-2.119,3.731.181,9.976-1.181,14.5c-1.213,4.022-1.726,12.3-5.044,14.483a66.836,66.836,0,0,0,5.114,6.115S295.824,415.452,297.835,410.788Z" fill="#6a0469"/>
            <path id="Path_128027" data-name="Path 128027" d="M302.986,366.606s-5.182,2.229,1.734,6.428,14.265,2.52,16.407,2.273,3.837,2.117,3.837,2.117,9.8,6.222,11.609,10.584-.576,9.8-3.622,10.538c0,0,1.151,19.345,1.317,22.8s0,8.644.9,11.772,3.045,15.557,1.316,25.189-7.078,26.589-7.078,26.589-1.39,1.81-6.417.907-11.039-10.634-11.449-14.453c0,0,2.756-4.646,1.378-6.785s-16.439-20.335-17.674-28.73,2.713-16.793,6.09-21.9,4.036-8.808,1.73-14.57-13.026-20.745-10.01-27.742,8.28-6.257,8.28-6.257Z" fill="#831d82"/>
            <path id="Path_128028" data-name="Path 128028" d="M325.607,423.992c-.286,4.234,7.466,18.443,5.24,34.588-1.763,12.8-6.545,21.563-11.311,25.442a8.093,8.093,0,0,0,3.458,1.783c5.027.9,6.417-.907,6.417-.907s5.351-16.956,7.078-26.589-.41-22.061-1.316-25.189-.74-8.314-.9-11.772-1.317-22.8-1.317-22.8c1.536-.374,2.9-1.942,3.653-3.963-4.462-2.484-9.346-10.707-9.346-10.707l-5.956,4.3-2.96,5.1s-1.13,4.52.878,12.056S325.895,419.757,325.607,423.992Z" fill="#6a0469"/>
            <path id="Path_128029" data-name="Path 128029" d="M315.338,479.385c3.079-10.365,3.218-26.61,2.686-29-.661-2.976-9.286-5.671-16.685-9.018a12.733,12.733,0,0,1-6.2-6.4c.032.291.068.581.11.873,1.235,8.395,16.3,26.587,17.674,28.73s-1.378,6.785-1.378,6.785C311.742,473.2,313.259,476.439,315.338,479.385Z" fill="#6a0469"/>
            <path id="Path_128030" data-name="Path 128030" d="M300.076,423.61s4.962-11.3,6.627-12.811l.628.63A111.834,111.834,0,0,0,300.076,423.61Z" fill="#6a0469"/>
            <path id="Path_128031" data-name="Path 128031" d="M320.219,427.106s-.037-10.07-1.052-12.006h1.3S321.124,422.614,320.219,427.106Z" fill="#6a0469"/>
            <path id="Path_128032" data-name="Path 128032" d="M310.975,419.339l1.56-5.777,1.4.252Z" fill="#6a0469"/>
            <path id="Path_128033" data-name="Path 128033" d="M306.456,403.515a31.168,31.168,0,0,0,.451,6.381l1.107.366C307.258,408.87,306.456,403.515,306.456,403.515Z" fill="#6a0469"/>
            <path id="Path_128034" data-name="Path 128034" d="M329.754,413.308c-5.865,1.4-14.265-.152-19.607-2.69a24.5,24.5,0,0,1-5.868-3.729,6.962,6.962,0,0,1-.761,2.48c-.066.118-.137.249-.212.388a24.991,24.991,0,0,0,5.671,3.557c5.131,2.44,13.986,4.491,20.994,2.734A5.328,5.328,0,0,1,329.754,413.308Z" fill="#2e383b"/>
            <path id="Path_128035" data-name="Path 128035" d="M351.307,396.255s-.658-3.289-.921-3.848-.428-1.876,0-2.041.954.526,1.249,1.513.954,2.632.954,2.632Z" fill="#d9a782"/>
            <path id="Path_128036" data-name="Path 128036" d="M354.167,392.5s-.69-2.894-.918-3.585-.3-1.645,0-1.841,1.94,2.564,1.94,2.564l.294-1.71s-.788-2.533-.261-2.829,1.579,1.547,1.579,1.547l-.692,3.848Z" fill="#d9a782"/>
            <path id="Path_128037" data-name="Path 128037" d="M356.175,386.518c-.528-.033-1.086.624-1.25,1.414s-.229,2.829-.788,3.685-1.713,1.611-2.5,2.829a25.576,25.576,0,0,0-1.77,3.552c-.466,1.02-1.159,2.664-1.159,2.664l-3.912,4.705,4.362,4.895a51.947,51.947,0,0,1,3.2-6.483c1.118-1.538,4.21-5.945,5.46-7.228s1.544-3.257,1.875-4.869a9.054,9.054,0,0,0-.594-4.9c-.556-1.35-.985-2.434-1.347-2.434s-.822.493-.89.92a13.707,13.707,0,0,0-.064,1.383Z" fill="#ffcda8"/>
            <path id="Path_128038" data-name="Path 128038" d="M358.216,389.055a10.093,10.093,0,0,0-.922-3.261,2.094,2.094,0,0,1-.376-.711,1.028,1.028,0,0,0-.053.184,13.707,13.707,0,0,0-.064,1.383c.459.46.3,4.539,0,5.658s-.593,2.006-.3,2.237,1.282-1.711,1.451-2.041A25.788,25.788,0,0,0,358.216,389.055Z" fill="#d9a782"/>
            <path id="Path_128039" data-name="Path 128039" d="M323.167,380.5c2.582-.051,5.527-.717,7.105,5.023s4.6,20.74,8.324,26.769l6.747-7.967s4.09-.286,4.522,4.523c0,0-6.533,13.2-8.9,16s-3.518,3.516-7.9-.933S319.58,399.161,318.5,392.057,322.015,380.525,323.167,380.5Z" fill="#831d82"/>
            <g id="Group_28665" data-name="Group 28665">
              <path id="Path_128040" data-name="Path 128040" d="M318.866,356.218a3.469,3.469,0,0,0-2.884,1.527,3.314,3.314,0,0,0,0,3.789c.794,1.47-.679,4.07-3.955,5.652s-7.182-1.638-7.465-2.2-8.369-2.657-8.764-10.573,3.168-13.174,8.313-15.209,10.912-2.375,12.665,1.47,3.222,4.071,3.278,5.993a11.935,11.935,0,0,1-1.132,4.807C318.528,352.373,319.63,355.455,318.866,356.218Z" fill="#7a3a1d"/>
              <path id="Path_128041" data-name="Path 128041" d="M303.7,351.9s.422,5.414,1.83,5.44,3.631-2.152,3.631-2.152-1.8,2.78-.762,2.984a6.889,6.889,0,0,0,6.632-3.674s-3.129,6.484-6.222,9.52-6.515-1.059-6.515-1.059l-2.557-2.119s-2.844-.908-4.241-5.208c0,0,3.135,4.17,4.853,4.048s-.995-4.691-.995-4.691l2.707,2.886Z" fill="#612104"/>
              <g id="Group_28664" data-name="Group 28664">
                <path id="Path_128042" data-name="Path 128042" d="M311.083,363.038l-11.342,3.191a6.478,6.478,0,0,0,1.8,6.389c2.945,2.688,4.865,4.955,9.54,2.438S318.774,364.194,311.083,363.038Z" fill="#612104"/>
                <path id="Path_128043" data-name="Path 128043" d="M301.99,367.852a5.9,5.9,0,0,0,7.279-.72c3.657-3.263,3.19-4.269,1.675-6.713s-4.5-1.634-4.5-1.634-.941-3.424-5.484-2.207-3.192,4.912-3.192,4.912a2.787,2.787,0,0,0-.763,4.243A5.1,5.1,0,0,0,301.99,367.852Z" fill="#7a3a1d"/>
                <path id="Path_128044" data-name="Path 128044" d="M306.6,360.307a14.773,14.773,0,0,1-4.441,1.528,7.141,7.141,0,0,1-4.575-1.31,3.717,3.717,0,0,0,.18.965c1.3.005,4.825,1.6,4.825,1.6,1.425-1.93,4.664-1.685,4.664-1.685Z" fill="#612104"/>
                <path id="Path_128045" data-name="Path 128045" d="M301.89,366.554a5.61,5.61,0,0,1-1.024,1.347,4.925,4.925,0,0,0,1.124-.049,3.882,3.882,0,0,0,.377.225,7.03,7.03,0,0,0,.018-4.034A3.529,3.529,0,0,1,301.89,366.554Z" fill="#612104"/>
              </g>
            </g>
          </g>
          <g id="Group_28669" data-name="Group 28669">
            <path id="Path_128046" data-name="Path 128046" d="M444.277,403.074s-7.974-2.387-9.374-8.265-.175-10.831,3.03-13.915,6.4-6.637,10.652-6.4A15.816,15.816,0,0,1,458,378.784s2.547-.448,2.855.308a11.145,11.145,0,0,1,0,3.245,24.306,24.306,0,0,0,1.257,2.377,12.1,12.1,0,0,1,1.512,4.784c-.112,1.2-.5,4-1.455,5.091a6,6,0,0,0-1.566,2.489c-.057.532-.729,10.575.448,13.288s.922,6.238-5.428,5.9-13.371-4.393-13.343-6.658S444.277,403.074,444.277,403.074Z" fill="#ffcda8"/>
            <path id="Path_128047" data-name="Path 128047" d="M461.054,410.366c-1.177-2.713-.5-12.756-.448-13.288a5.622,5.622,0,0,1,1.447-2.35c-2.111,1.258-3.181.657-3.181.657s.447,2.477-1.091,3.121-2.813-.718-2.47-3.618-3.349-1.221-3.349-1.221l-2.489,4s1.333,11.856-1.454,16.7a22.565,22.565,0,0,0,7.607,1.906C461.976,416.6,462.227,413.079,461.054,410.366Z" fill="#d9a782"/>
            <path id="Path_128048" data-name="Path 128048" d="M475.976,465.85a10.486,10.486,0,0,0,1.087-6.457c-.45-4.07-5.032-30.186-5.032-30.186l-7.165,37.553Z" fill="#eef5f9"/>
            <path id="Path_128049" data-name="Path 128049" d="M429.989,437.784s8.553-11.425,10.053-14.992,6.76-14.3,1.064-16.023c0,0-7.132-1.376-10.451,3.13s-5.4,7.562-5.4,7.562a118.068,118.068,0,0,0-6.514,12.312s-4,13.195-1.784,15.126,24.578,10.569,24.578,10.569l1.541-8.741Z" fill="#1c354e"/>
            <g id="Group_28667" data-name="Group 28667">
              <path id="Path_128050" data-name="Path 128050" d="M437.828,550.848s-.608,5.094.719,6.036a5.342,5.342,0,0,0,5.593,0c1.554-1.165,3.051-4.765,5.43-5.43s8.237-3.545,8.7-6.926-5.767-3.766-9.475-2.491S437.828,550.848,437.828,550.848Z" fill="#001135"/>
              <path id="Path_128051" data-name="Path 128051" d="M457.821,542.857s-.01,0-.014-.01a2.087,2.087,0,0,1,.462,1.681c-.462,3.381-6.317,6.263-8.7,6.926s-3.876,4.265-5.43,5.43a5.342,5.342,0,0,1-5.593,0,1.918,1.918,0,0,1-.606-1.07c0,.053,0,.11,0,.161-.027,1.072.109,2.041.605,2.394a5.345,5.345,0,0,0,5.593,0c.972-.727,1.92-2.409,3.077-3.726v-.628a6.388,6.388,0,0,1,2.353-1.541c2.336-.807,8.765-4.073,9.227-7.456A3.757,3.757,0,0,0,457.821,542.857Z" fill="#001135"/>
            </g>
            <g id="Group_28668" data-name="Group 28668">
              <path id="Path_128052" data-name="Path 128052" d="M491.815,561.541c-.89-1.653-2.64-1.68-8.015-1.705-5.32-.03-7.518.888-9.419-.4l-11.994,3.451s-1.151,6.238-.271,7.59,3.93,2.237,7.8,1.356a48.549,48.549,0,0,1,10.978-.88C484.209,570.95,495.278,567.941,491.815,561.541Z" fill="#001135"/>
              <path id="Path_128053" data-name="Path 128053" d="M492.48,562.593a2.367,2.367,0,0,0-.425-.563c2.651,6.065-7.934,8.92-11.166,8.92a48.549,48.549,0,0,0-10.978.88c-3.865.881-6.911,0-7.8-1.356a1.944,1.944,0,0,1-.238-.71,6.594,6.594,0,0,0,0,.822,3.43,3.43,0,0,0,.236,1.811c.884,1.357,3.93,2.236,7.8,1.357.961-.221,1.918-.386,2.867-.51v-.87a61.55,61.55,0,0,1,8.111-.374C484.209,572,495.941,568.991,492.48,562.593Z" fill="#001135"/>
            </g>
            <path id="Path_128054" data-name="Path 128054" d="M443.181,454.222l-1.051.189s-2.769,4.566-3.055,8.6.5,16.356.79,16.57-.751,25.936-.825,27.3-2.989,9.584-3.35,17.435,1.3,29.612,1.3,29.612.935,2.452,5.256,0,9.118-9.742,9.118-9.742.114-10.578.6-15.789c.436-4.773,2.652-15.166,2.652-15.166s5.511-19.607,7.166-34.445-.156-16.643-.156-16.643Z" fill="#0f2841"/>
            <path id="Path_128055" data-name="Path 128055" d="M480.889,497.3c.066-8.122-1.306-29.5-4.506-34.05l-24.338-3.861s-2.848,12.858,1.036,23.642S461.1,514.7,461.1,517.119s-3.8,14.495-3.019,20.106,3.019,29.768,3.019,29.768,11.128,1.3,17.946-6.123c0,0-3.365-15.36-2.763-25.632S480.847,502.672,480.889,497.3Z" fill="#1c354e"/>
            <path id="Path_128056" data-name="Path 128056" d="M480.508,465.27c-.147-1.331-1.628-1.629-3.445-2.643s-1.521-2.5-2.41-3.427-1.4-.379-2.033.193-1.183,3.234-1.183,3.234-2.028,4.356-1.9,6.471,1.816,4.271,3,5.284,2.2,0,2.958-.548,1.989-1.143,2.285-1.862,0-1.691,1.055-2.114.72-1.648.657-2.093S480.657,466.6,480.508,465.27Z" fill="#ffcda8"/>
            <path id="Path_128057" data-name="Path 128057" d="M473.384,469.922c-.657-.912-2.372-1.38-3.813-1.615a4.359,4.359,0,0,0-.035.791c.126,2.113,1.816,4.271,3,5.284s2.2,0,2.958-.548c.25-.183.554-.369.862-.565A12.274,12.274,0,0,1,473.384,469.922Z" fill="#d9a782"/>
            <path id="Path_128058" data-name="Path 128058" d="M463.833,412.36,440.624,406.7c-12.581-.273-9.2,7.2-8.685,14.935s9,24.8,9,24.8a34.413,34.413,0,0,1-1.994,11.406c-2.075,5.229-6.613,24.324-6.613,24.324l10.744,5.261,4.684-17.886-2.722,19.241c4.815,2.982,20.932,4.668,20.932,4.668,3.565-10.122,4.75-29.106,4.75-29.106s.38-7.453,1.03-12.9,2.3-27.434,2.3-27.434C471.685,420.041,463.833,412.36,463.833,412.36Z" fill="#29425b"/>
            <path id="Path_128059" data-name="Path 128059" d="M471.451,421.907c-6.175-2.652-9.233,1.557-11.254,3.576,0,0-5.89,10.126-6.375,29.651,0,0-.741,8.982,2.727,10.682s15.86,5.987,15.86,5.987a11.705,11.705,0,0,0,.314-9.749l-5.085-3.925c.752-4.1,6.658-18.765,7.489-20.748S477.628,424.558,471.451,421.907Z" fill="#425b74"/>
            <path id="Path_128060" data-name="Path 128060" d="M443.072,403.828l1.108-1.9s2.976.829,6.876,1.983a44.03,44.03,0,0,1,11.549,5.883S444.741,405.126,443.072,403.828Z" fill="#eef5f9"/>
            <path id="Path_128061" data-name="Path 128061" d="M462.605,409.789s-9.857-3.316-12.88-4.276c-3.478-1.106-6.653-2.341-6.653-2.341l-2.443,3.027s-.416,3.577,5.6,5.563,17.606.6,17.606.6Z" fill="#425b74"/>
            <path id="Path_128062" data-name="Path 128062" d="M458.31,392.351a5.085,5.085,0,0,0,.03-2.069,16.147,16.147,0,0,1-1.847-4.168c-.532-2.127.783-1.791-.532-2.937s-1.51-.84-1.315-1.287-.392-6.8-3.775-7.889a11.477,11.477,0,0,0-11.357,2.909c-3.554,3.357-5.708,6.742-5.847,11.749s.546,11.068,10.61,14.415c0,0,4.524-.037,6.51-.735s2.575-.645,2.575-2.211.643-4.7,2.236-5.4A7.406,7.406,0,0,0,458.31,392.351Z" fill="#563317"/>
          </g>
          <g id="Group_28671" data-name="Group 28671">
            <g id="Group_28670" data-name="Group 28670">
              <path id="Path_128063" data-name="Path 128063" d="M651.652,323.392s.966-1.271.767-.393-1.059,20.967,5.943,30.27c3.34,4.435-15.966-6.683-15.966-6.683l-2.145-11.177Z" fill="#7a3a1d"/>
              <path id="Path_128064" data-name="Path 128064" d="M653.832,353.5c-3.519-5.262-4.39-16.058-4.39-16.058a18.264,18.264,0,0,0-.221,6.185c-2.076-4.861-1.016-13.74-1.016-13.74l-1.855-.9-6.1,6.428,2.145,11.177S654.088,355.925,653.832,353.5Z" fill="#6d2d10"/>
              <path id="Path_128065" data-name="Path 128065" d="M629.717,323.287a4.712,4.712,0,0,1,.742-3.032,17.592,17.592,0,0,1,5.574-5.24c2.5-1.231,9.112-1.035,12.28,1.662a8.88,8.88,0,0,1,3.306,9.151,18.035,18.035,0,0,1-4.793,8.663c-1.641,1.447-3.323,2.7-3.207,4.733s1.819,3.969,3.657,5.611-6.53,7.939-8.017,8.9-9.933,1.6-10.991-2.25,2.561-5.73,2.759-7.763a18.946,18.946,0,0,0-.293-4.537s-3.873-1.015-3.773-3.264-.044-3.188,0-4.479a14.545,14.545,0,0,1,1-5.123A25.975,25.975,0,0,1,629.717,323.287Z" fill="#ffcda8"/>
              <path id="Path_128066" data-name="Path 128066" d="M643.619,339.224a4.338,4.338,0,0,1,1.708-3.4,7.334,7.334,0,0,1-1.824-.162,14.619,14.619,0,0,1-6.121,3.168,11.5,11.5,0,0,1-8.076-.84c-.917-.451-.622-3.365-.194-4.87a26.821,26.821,0,0,0,.625-2.7s-1.038-.783-.821-1.486,2.579-2.387,3.031-4.146c.311-1.215-1.207-2.271-2.176-2.809a3.04,3.04,0,0,0-.054,1.3,25.975,25.975,0,0,0-1.76,3.03,14.545,14.545,0,0,0-1,5.123c-.043,1.291.1,2.229,0,4.479s3.773,3.264,3.773,3.264a18.946,18.946,0,0,1,.293,4.537c-.2,2.033-6.692,14.821-5.635,18.672.832,3.041,9.152-7.63,12.134-8.136a49.513,49.513,0,0,1,1.868-8.931c1.248-3.807,2.936-5.416,4.227-6.094Z" fill="#d9a782"/>
              <path id="Path_128067" data-name="Path 128067" d="M632.368,317.109a2.473,2.473,0,0,1,1.922,1.025c.893,1.1.735,1.1.735,1.1s3.866-1.362,5.248,1.875,1.384,10.046,6.161,9.421c0,0,1.03-.825,1.72-.156a1.752,1.752,0,0,1,.362,2.192c-.392.518-1.968,8.278-.585,10.445a13.894,13.894,0,0,1,.491-5.247c.829-2.746,4.02-11.5,4-15.2s-3.5-8.026-7.092-9.459C640.563,311.2,633.625,312.875,632.368,317.109Z" fill="#7a3a1d"/>
              <path id="Path_128068" data-name="Path 128068" d="M646.434,330.525a2.067,2.067,0,0,1,1.008-.414,10.027,10.027,0,0,0-1.955-.494c-1.434-.28-2.483-2.167-2.483-2.167,1.419,1.723,4.4,1.5,4.4,1.5-2.937-.071-5-3.776-6.326-7.234s-3.171-2.654-3.171-2.653a3.309,3.309,0,0,1,2.361,2.037C641.657,324.342,641.657,331.15,646.434,330.525Z" fill="#6d2d10"/>
            </g>
            <path id="Path_128069" data-name="Path 128069" d="M618.706,390.676s-.851,4.6-1.147,5.841-1.066,4.944-.61,7.02,2.185,6.044,2.58,6.257,1.333-.693,1.467-1.944.931-3.461.983-4.1a24.714,24.714,0,0,1,.295-3.221c.239-1.119.187-2.4.4-4.011a28.969,28.969,0,0,0,.189-3.578l1.383-11.476-.505-6.87-4.1-1.518s-.4,8.335-.4,11.078A38.287,38.287,0,0,1,618.706,390.676Z" fill="#ffcda8"/>
            <path id="Path_128070" data-name="Path 128070" d="M623.738,374.593l-.513-.19c-.06,3.057-.2,8.8-.446,11.186a67.469,67.469,0,0,0-.4,8.734,6.719,6.719,0,0,1-.638,4.474c-1.039,1.943-1.013,1.757-1.386,2.448s-.772.4-1.7.108-.185-1.065-.266-1.891-.292-.026-.4,1.144a12.451,12.451,0,0,0,.324,4.261,27.234,27.234,0,0,0,1.933,4.634A2.794,2.794,0,0,0,621,407.85c.133-1.252.931-3.461.983-4.1a24.714,24.714,0,0,1,.295-3.221c.239-1.119.187-2.4.4-4.011a28.969,28.969,0,0,0,.189-3.578l1.383-11.476Z" fill="#d9a782"/>
            <path id="Path_128071" data-name="Path 128071" d="M618.138,392.486l-.212,1.469,5.814.611v-1.386Z" fill="#fff"/>
            <path id="Path_128072" data-name="Path 128072" d="M619.639,370.165l-1.714,22.7,5.814.867,1.191-21.6Z" fill="#b10131"/>
            <path id="Path_128073" data-name="Path 128073" d="M642.647,348.1l-7.4,2.768-6.786,10.368,1.448-12.206h-5.269s-3.215,21.077,1.659,29.105C626.3,378.134,641.705,354.865,642.647,348.1Z" fill="#e5e5e5"/>
            <path id="Path_128074" data-name="Path 128074" d="M631.495,397.3c-2.9-1.752-6.669,0-6.669,0a82.734,82.734,0,0,0-8.51,19.091c-2.989,10.4-4.373,20.7-4.887,22.079s.114,4.139-.517,5.749-5.923,25.471-6.958,28.806-2.528,5.287-3.507,8.221-2.441,6.437-3.622,7.136c0,0-3.405,4.379-1.038,5.511s4.151-.42,6.774-3.014,7.165-8.039,7.648-9.886a6.1,6.1,0,0,0,.336-2.3l-.009-.036s-.779-.648-.164-2.04,4.054-8.4,5.967-10.858,4.9-7.068,5.542-11.54-.1-8.071.714-9.465,16.949-28.827,18.273-32.218S634.4,399.051,631.495,397.3Z" fill="#bd8668"/>
            <path id="Path_128075" data-name="Path 128075" d="M649.262,397.355c-6.845,3.164-7.878,5.52-9.374,13.282s-3.161,26.967-3.2,30.072,2.052,9.831,1.879,12.7-.977,18.6-1.293,20.786-1.006,5.519-1.236,8.02.031,8.566,0,9.458a20.344,20.344,0,0,1-1.16,3.672s.065,1.817,2.205,1.525,5.8-1.72,6.45-4.409.486-8.494.421-10.374a12.965,12.965,0,0,0-.647-4.084v-.939c-.839-1.817,6.012-14.4,7.393-19.285s-1.381-8.968-1.728-12.533,3.278-13.4,6.039-20.872,4.485-19.147,4.773-23.575S656.1,394.192,649.262,397.355Z" fill="#bd8668"/>
            <path id="Path_128076" data-name="Path 128076" d="M640.868,412.535c1.3-3.324-6.15-13.067-9.185-15.114-.423,7.545-3.1,19.136-7.053,26.806-5.057,9.8-7.209,16.562-8.863,20.278s.673,5.461.718,8.28-2.731,9.938-5.016,13.52-3.757,9.847-3.983,12.575-1.746,3.043-3.177,3.895-2.417,5.371-3.135,7.655c-.248.792-.473,1.613-.665,2.353.638-.531,1.312-1.175,2.052-1.907,2.625-2.593,7.165-8.039,7.648-9.886a6.1,6.1,0,0,0,.336-2.3l-.009-.036s-.779-.648-.164-2.04,4.054-8.4,5.967-10.858,4.9-7.068,5.542-11.54-.1-8.071.714-9.465S639.544,415.926,640.868,412.535Z" fill="#b0795b"/>
            <path id="Path_128077" data-name="Path 128077" d="M654.769,395.863c.936,2.4,1.873,6.814.754,14.008-1.872,12.054-9,27.925-9.289,30.918s3.9,11.081,3.077,15.424-7.887,17.766-6.946,21.795c.764,3.265,1.162,10.519,1.089,14.708.026-.084.057-.164.079-.25.649-2.689.486-8.494.421-10.374a12.965,12.965,0,0,0-.647-4.084v-.939c-.839-1.817,6.012-14.4,7.393-19.285s-1.381-8.968-1.728-12.533,3.278-13.4,6.039-20.872,4.485-19.147,4.773-23.575C659.98,397.754,658.16,395.769,654.769,395.863Z" fill="#b0795b"/>
            <path id="Path_128078" data-name="Path 128078" d="M612.69,431.4a53.958,53.958,0,0,0,17.335,6.219c10.4,1.891,21.014-1.413,21.014-1.413s7.85-18.1,8.76-31.572c.865-12.843-5.634-13.2-7.492-14.807s-23.922,2.6-25.474,3.757-5.95,9.821-7.243,12.926C616.482,413.974,615.039,415.86,612.69,431.4Z" fill="#022a82"/>
            <path id="Path_128079" data-name="Path 128079" d="M628.724,397.421S632,410.4,638.557,410.652c14.313.56,22.815-4.412,22.815-4.412s-.842-12.512-6.141-17.6c-2.9-2.783-7.675-2.539-6.006-8.5s7.54-20.585,7.54-20.585l-.6-12.5s-7.148-3-9.54-4.713c0,0-18.276,32.458-20.332,35.786,0,0-5.348-17.142-1.442-25.966s5.818-12.3,5.818-12.3-5.545-1.643-7.246,1.27-1.583,9.484-2.344,12.375-4.2,8.147-4.275,11.474,4.608,7.115,5.443,11,.28,11.641.64,14.717-3.983,15.9-3.983,15.9a49.938,49.938,0,0,0,5.335,1.838C625.5,408.667,628.428,402.7,628.724,397.421Z" fill="#e33363"/>
            <path id="Path_128080" data-name="Path 128080" d="M661.372,406.24s-.842-12.512-6.141-17.6c-2.9-2.783-7.675-2.539-6.006-8.5s7.54-20.585,7.54-20.585l-.129-2.694c-1.858-.121-4.306.1-5.6,1.768-2.259,2.927-3.14,11.5-4.865,14.685s-4.277,3.429-3.893,4.817c.348,1.266,10.55,21.528,10.527,31.2A34.153,34.153,0,0,0,661.372,406.24Z" fill="#ca1a4a"/>
            <path id="Path_128081" data-name="Path 128081" d="M624.855,352.168c3.9-8.823,5.818-12.3,5.818-12.3s-5.545-1.643-7.246,1.27-1.583,9.484-2.344,12.375-4.2,8.147-4.275,11.474,4.608,7.115,5.443,11,.28,11.641.64,14.717-3.983,15.9-3.983,15.9a49.938,49.938,0,0,0,5.335,1.838c1.259.217,4.185-5.749,4.481-11.029,0-5.175-2.427-13.542-2.427-19.287C626.3,378.134,620.949,360.992,624.855,352.168Z" fill="#ca1a4a"/>
            <path id="Path_128082" data-name="Path 128082" d="M647.338,342.366s-1.519,10.167-2.629,11.006a7.866,7.866,0,0,1-3.378.99l3.04,2.131S632.9,374.836,626.3,378.134c0,0,7.546-16.088,11.912-23.868s7.238-13.283,7.238-13.283Z" fill="#fd4d7d"/>
            <path id="Path_128083" data-name="Path 128083" d="M628.759,343.345s-7.827,17.5-2.462,34.789c0,0-7.232-9.421-4.2-27.753l2.207.466-.453-4.64,6.82-6.337Z" fill="#fd4d7d"/>
            <path id="Path_128084" data-name="Path 128084" d="M610.536,478.656s3.144,1,3.11,3.307-1.783,4.246-2.723,5.12c0,0-1.879,4.183-2.009,6.291l-.714.255-.193-.483s.649-3.665.325-4.507c0,0-3.567,2.334-4.441,3.728s-1.945,4.6-3.923,5.511a20.609,20.609,0,0,1-7.877,1.362c-2.82,0-6.354-.292-6.643-1.426s2.366-2.754,3.76-3.63,5.475-4.8,7.617-5.8c0,0-3.405,4.379-1.038,5.511s4.151-.42,6.774-3.014,7.165-8.039,7.648-9.886A5.231,5.231,0,0,0,610.536,478.656Z" fill="#2e383b"/>
            <path id="Path_128085" data-name="Path 128085" d="M634.878,495.35s.065,1.817,2.205,1.525,5.8-1.72,6.45-4.409.486-8.494.421-10.374a12.965,12.965,0,0,0-.647-4.084v-.939a3.467,3.467,0,0,1,2.707,2.706c.7,2.48-.472,6.791-.565,8.411l.351,5.026-.387.385s-.066,5.156-.908,6.775-6.336,7.189-8.653,6.873C634.993,507.131,633.031,500.372,634.878,495.35Z" fill="#2e383b"/>
            <path id="Path_128086" data-name="Path 128086" d="M610.536,478.656s3.144,1,3.11,3.307-1.783,4.246-2.723,5.12c0,0-1.879,4.183-2.009,6.291l-.714.255-.193-.483s.649-3.665.325-4.507c0,0-3.567,2.334-4.441,3.728s-1.945,4.6-3.923,5.511a20.609,20.609,0,0,1-7.877,1.362c-2.82,0-6.354-.292-6.643-1.426s2.366-2.754,3.76-3.63,5.475-4.8,7.617-5.8c0,0-3.405,4.379-1.038,5.511s4.151-.42,6.774-3.014,7.165-8.039,7.648-9.886A5.231,5.231,0,0,0,610.536,478.656Z" fill="#2e383b"/>
            <path id="Path_128087" data-name="Path 128087" d="M651.905,387.627c0,.264-1.667,1.136-2.327,1.373s-5.521,3.17-6.629,3.911-3.091,2-2.507,2.652,1.873-.064,2.377-.354,4.884-2.985,4.963-2.961.213.134-.3.412-5.536,3.526-6.012,3.895-1.769,1.427-1.24,1.822a2.224,2.224,0,0,0,2.246-.263c.738-.45,6.234-3.672,6.311-3.724s.383.026-.086.3-6.553,3.778-6.641,3.9-.4.648,0,.9,1.123.02,1.85-.266,5.009-2.348,5.42-2.538.841-.345.926-.183-.887.821-1.285,1.051-3.772,1.831-3.973,1.966-.474.46-.223.653a5.516,5.516,0,0,0,2.437-.349c.49-.209,1.927-.952,2.882-1.3a14.9,14.9,0,0,0,2.32-.964c.477-.3,3.565-2.145,4.366-2.493s3.791-2.522,4.3-2.869a59.17,59.17,0,0,1,5.371-2.769c1.353-.553,13.07-6.989,14.273-7.92s2.735-2.13,1.968-3.387-6.56-3.007-8.8-1.969-9.4,7.052-10.989,8.473a18.777,18.777,0,0,1-5.18,3.215c-.654.092-2.822-1.06-3.567-1.551a5.142,5.142,0,0,0-2.57-.253Z" fill="#ffcda8"/>
            <path id="Path_128088" data-name="Path 128088" d="M659.669,387.282a10.352,10.352,0,0,0,1.742-1.482,15.383,15.383,0,0,1-3.686,2.047c-.654.092-2.822-1.06-3.567-1.551a5.142,5.142,0,0,0-2.57-.253l.317,1.584c0,.264-1.667,1.136-2.327,1.373s-5.521,3.17-6.629,3.911-3.091,2-2.507,2.652,1.873-.064,2.377-.354,4.884-2.985,4.963-2.961.213.134-.3.412-5.536,3.526-6.012,3.895-1.769,1.427-1.24,1.822a2.224,2.224,0,0,0,2.246-.263c.738-.45,6.234-3.672,6.311-3.724s.383.026-.086.3-6.553,3.778-6.641,3.9-.4.648,0,.9,1.123.02,1.85-.266,5.009-2.348,5.42-2.538.841-.345.926-.183-.887.821-1.285,1.051-3.772,1.831-3.973,1.966-.474.46-.223.653a5.516,5.516,0,0,0,2.437-.349c.49-.209,1.927-.952,2.882-1.3.634-.228,1.236-.448,1.708-.657a13.924,13.924,0,0,1,.611-4.564C653.232,391.424,657.412,388.677,659.669,387.282Z" fill="#d9a782"/>
            <path id="Path_128089" data-name="Path 128089" d="M682.7,378.128a2.259,2.259,0,0,0-.75-.647c-1.66,1.41-3.938,3.265-6.41,5.046-4.838,3.486-13.038,7.667-15.334,9.143a39.126,39.126,0,0,0-4.631,4.04c.522-.292.969-.532,1.209-.637.8-.349,3.791-2.522,4.3-2.869a59.17,59.17,0,0,1,5.371-2.769c1.353-.553,13.07-6.989,14.273-7.92S683.462,379.385,682.7,378.128Z" fill="#d9a782"/>
            <path id="Path_128090" data-name="Path 128090" d="M630.851,339.9a10.377,10.377,0,0,1,.221,2.79,29.843,29.843,0,0,1-1.165,6.342s-6.789,4.376-6.826,4,5.958-11.283,5.958-11.283Z" fill="#fff"/>
            <path id="Path_128091" data-name="Path 128091" d="M643.835,339.212s-2.864,7.317-8.59,11.655c0,0,3.919,6.12,4.48,6.12s6.938-11.39,6.938-15.169Z" fill="#fff"/>
            <path id="Path_128092" data-name="Path 128092" d="M658.164,387.2l-.884.46,3.25,6.072,1.512-.8Z" fill="#fff"/>
            <path id="Path_128093" data-name="Path 128093" d="M656.169,347.061c2.1.567,9.46,6.37,13.433,9.682s16.664,14.817,17.266,16.64.2,4.876-3.711,7.384-21.237,12.815-21.237,12.815l-4-6.439s14.1-10.885,15.9-12.24c0,0-15.8-11.589-17.408-12.793s-7.574-3.413-7.176-7.274S649.846,345.355,656.169,347.061Z" fill="#e33363"/>
            <path id="Path_128094" data-name="Path 128094" d="M661.92,393.582s17.323-10.306,21.237-12.815,4.312-5.564,3.711-7.384a.472.472,0,0,0-.029-.066c-3.426,4.62-21.412,15.38-26.2,18.2Z" fill="#ca1a4a"/>
          </g>
          <g id="Group_28678" data-name="Group 28678">
            <g id="Group_28674" data-name="Group 28674">
              <g id="Group_28672" data-name="Group 28672">
                <path id="Path_128095" data-name="Path 128095" d="M491.282,327.885c-2.785,1.577-4.662,4.437-10.237,7.193-3.236,1.6-11.061,2.876-10.758-.633a3.328,3.328,0,0,1,.113-.585,4.476,4.476,0,0,0-.472,1.512c-.305,3.507,7.52,2.232,10.756.633,5.575-2.755,7.452-5.616,10.236-7.192.346-.2.759-.41,1.2-.629v.849l5.555-2.544a5.722,5.722,0,0,0,.315-1.947C497.28,325.152,493.245,326.771,491.282,327.885Z"/>
                <path id="Path_128096" data-name="Path 128096" d="M487.055,321.04c-1.384-.283-.043-3.214-5.781,2.628a8.788,8.788,0,0,1-1.345.753c-3.216,1.411-9.362,6.806-9.642,10.024-.3,3.509,7.522,2.232,10.758.633,5.575-2.756,7.452-5.616,10.237-7.193,2.111-1.2,6.618-2.979,6.817-3.466a5.34,5.34,0,0,0,.294-1.282C492.073,317.531,489.81,321.6,487.055,321.04Z" fill="#001135"/>
              </g>
              <g id="Group_28673" data-name="Group 28673">
                <path id="Path_128097" data-name="Path 128097" d="M501.992,336.87a9.15,9.15,0,0,1-.663,1.033c-1.093,1.377-8.99,11.236-4.457,13.527s12.158-1.644,13.76-4.97,1.329-5.576,3.363-7.563a10.182,10.182,0,0,0,3.108-4.7c-1.842-1.873-3.988-.594-7.709-.065C507.274,334.436,505.734,333.324,501.992,336.87Z" fill="#001135"/>
                <path id="Path_128098" data-name="Path 128098" d="M517.109,334.193a10.14,10.14,0,0,1-3.114,4.7c-2.034,1.987-1.759,4.241-3.363,7.563s-9.225,7.26-13.76,4.97a2.408,2.408,0,0,1-1.36-1.957,2.663,2.663,0,0,0,1.36,2.949c4.535,2.294,12.158-1.643,13.76-4.967,1.561-3.238,1.349-5.461,3.218-7.41l.048.631a15.642,15.642,0,0,0,3.506-4.2l-.119-2.4C517.23,334.11,517.17,334.152,517.109,334.193Z"/>
              </g>
              <path id="Path_128099" data-name="Path 128099" d="M498.756,244.333l-.5-8.69s-12.1-2.1-17.342-8.56c0,0-3.184,28.714-1.24,41.246s2.313,28.316,2.9,33.822,1.247,16.5-1.438,21.684c0,0,10.258,4.935,17.254-.366l.394-29.387Z" fill="#0f2841"/>
              <path id="Path_128100" data-name="Path 128100" d="M491.486,233.761s.649,12.719,1.847,17.03c.977,3.53,2.888,7.365,3.007,8.249,1.159,8.571,2.025,18.219,2.447,21.808.83,7.055,3.512,20.771,4.258,25.556s-1.746,31.029-1.746,31.029,7.472,2.472,16.518-3.287c0,0,1.494-26.119.58-33.1s-.92-9-1.373-13.86c-.432-4.622,2.369-18.584,2.289-30.426s-4.579-28.05-4.579-28.05S512.357,236.653,491.486,233.761Z" fill="#1c354e"/>
            </g>
            <g id="Group_28676" data-name="Group 28676">
              <path id="Path_128102" data-name="Path 128102" d="M505.9,233.783s-8.733,2.911-15.284.363-10.189-6.55-9.825-8.733,0-6.8,0-9.343,0-18.558,1.092-24.38,10.189-25.109,10.189-25.109l5.822-4.367s-1.091,8.006,2.548,8.734,17.467-.728,17.467-.728-10.917,41.119-10.917,48.033A148.29,148.29,0,0,1,505.9,233.783Z" fill="#d5dce0"/>
              <path id="Path_128103" data-name="Path 128103" d="M502.029,175.994l-3.882,2.087-1.913-1.044.744-5.051,3.461-1.038Z" fill="#b61617"/>
              <path id="Path_128104" data-name="Path 128104" d="M472.784,109.814s4.73,12.736,6.186,15.647,4,12.009,5.458,14.192c.571.856,2.183,3.274,4.731,6.55,2.223,2.859,6.388,7.1,7.41,8.136.148-.085.232-.13.232-.13l4.366,5.821-1.092,2.548s-7.641,5.822-12.008,19.286-6.914,21.47-7.278,33.478a54.052,54.052,0,0,1-.728-11.644c.25-3.995,1.728-15.529,2.912-22.925,1.455-9.1,2.547-12.009,2.547-12.009s0-.121.007-.334c0-.01-.006-.019-.007-.03-.364-2.547-6.55-13.1-8.37-15.283s-7.278-11.645-9.1-17.831c-2.072-7.043-2.745-7.4-6.186-22.2Z" fill="#1c354e"/>
              <path id="Path_128105" data-name="Path 128105" d="M516.451,157.847s-1.82,5.1-.364,8.734c0,0-8.37,7.641-15.647,4.367s1.455-12.009,1.455-12.009Z" fill="#d88f69"/>
              <path id="Path_128106" data-name="Path 128106" d="M457.136,94.53c.364-.364.728-.364,2.547,1.456s3.276,3.639,3.276,3.639l1.091-1.092s-.728-1.82-1.091-2.547-3.492-3.737-3.64-4.367,0-1.456.729-1.456,2.183,1.82,2.547,2.184,2.183,2.911,2.547,3.275a6.146,6.146,0,0,1,.728,1.819l.727-.364a17.814,17.814,0,0,0-1.455-3.638c-.728-1.092-1.87-2.45-1.87-2.45s-2.5-2.281-1.769-3.009,1.456-.364,2.547.728,2.911,2.911,2.911,2.911l-.364-1.091s-4-2.912-1.091-3.275c.722-.091,2.31,1.651,4.066,3.736a12.455,12.455,0,0,1,2.484,7.18,48.283,48.283,0,0,1-1.092,7.642c-.359,1.437-.715,2.164-.374,2.882l-5.921,1.8a2.255,2.255,0,0,0-.255-.319c-1.092-1.091-2.547-2.911-2.547-4a20.746,20.746,0,0,0-.364-4.731,25.79,25.79,0,0,0-3.639-5.094C457.136,95.622,456.772,94.894,457.136,94.53Z" fill="#f2a983"/>
              <path id="Path_128107" data-name="Path 128107" d="M584.593,166.632l-4.077-6.7.343-.267s.728-7.278,1.092-8.006a17.6,17.6,0,0,1,3.639-4.367c1.456-1.091,1.819-1.819,2.548-1.455s.727,1.819,0,2.547a15.176,15.176,0,0,0-2.184,2.911,1.758,1.758,0,0,0,0,1.456,17.924,17.924,0,0,0,3.275-1.456,29.108,29.108,0,0,0,4.73-4.73c.728-1.092,1.82-2.547,2.548-2.184s1.091,1.092.364,2.184-2.184,2.911-2.912,4a4.365,4.365,0,0,1-1.455,1.455.713.713,0,0,0,.727.728c.728,0,3.276-2.183,4-3.275s1.82-2.184,2.548-1.456.728,1.456-.364,2.911a30.175,30.175,0,0,1-4.731,4s0,.727.364.727a13.292,13.292,0,0,0,3.639-2.547c1.092-1.092,2.184-1.82,2.547-1.092s0,1.092-.727,2.547a5.74,5.74,0,0,1-2.548,2.548c-1.091.727-2.183,1.091-2.183,1.455s.728.364,1.455,0,1.092-1.455,1.82-1.819,1.092.728.728,1.455a10.918,10.918,0,0,1-3.639,3.275,70.947,70.947,0,0,1-7.278,3.275,23.28,23.28,0,0,0-3.639,1.456A5.241,5.241,0,0,0,584.593,166.632Z" fill="#f2a983"/>
              <path id="Path_128108" data-name="Path 128108" d="M459.683,95.986c1.82,1.819,3.276,3.639,3.276,3.639l1.091-1.092s-.728-1.82-1.091-2.547-3.492-3.737-3.64-4.367,0-1.456.729-1.456,2.183,1.82,2.547,2.184,2.183,2.911,2.547,3.275a6.146,6.146,0,0,1,.728,1.819l.727-.364a17.814,17.814,0,0,0-1.455-3.638c-.728-1.092-1.87-2.45-1.87-2.45s-2.5-2.281-1.769-3.009,1.456-.364,2.547.728,2.911,2.911,2.911,2.911l-.364-1.091s-4-2.912-1.091-3.275c.722-.091,2.31,1.651,4.066,3.736a12.455,12.455,0,0,1,2.484,7.18,23.852,23.852,0,0,1-.237,2.735c-.079-.115-.127-.188-.127-.188l-1.456-4.366c-.364-1.092-1.819-4-2.547-4.367s-1.455,0-1.455.728.363,3.639.727,4,.364,1.092-.727,1.456a5.005,5.005,0,0,0-2.912,1.819,6.121,6.121,0,0,1-1.7,1.942,4.036,4.036,0,0,0-.123-.486,25.79,25.79,0,0,0-3.639-5.094c-.728-.728-1.092-1.456-.728-1.82S457.864,94.166,459.683,95.986Z" fill="#d88f69"/>
              <path id="Path_128109" data-name="Path 128109" d="M516.087,164.555s-5.095,6.393-15.647,6.393l1.818,7.641s11.645-3.639,16.74-9.1Z" fill="#e2e9ed"/>
              <path id="Path_128110" data-name="Path 128110" d="M494.617,174.586s1.819-7.277,2.912-10.553l3.274-2.547s-3.638,6.186-.363,9.462Z" fill="#e2e9ed"/>
              <path id="Path_128111" data-name="Path 128111" d="M499.712,217.526c.728-11.281,8.659-36.224,12.372-41.484,4.367-6.186,5.167-10.782,5.167-10.782l6.6,4.207c2.547,0,2.829.58,7.152,1.481,8.733,1.819,25.109,2.911,25.109,2.911l22.2-13.829,6.187,10.554s-17.831,16.011-24.018,17.467c-5.725,1.347-26.409,1.447-31.767,3.186-1.567,3.236-4.983,10.273-7.169,14.644a31.406,31.406,0,0,0-2.183,20.014c1.455,6.551,8.733,23.653,8.733,23.653s-18.922,9.461-23.653,4.367S498.984,228.807,499.712,217.526Z" fill="#29425b"/>
              <path id="Path_128112" data-name="Path 128112" d="M578.549,160.434l1.583-1.131,5.094,8.37-1.593,1.434Z" fill="#e2e9ed"/>
              <path id="Path_128113" data-name="Path 128113" d="M463.729,112.53l-.407-1.625,8.37-2.547.677,1.58Z" fill="#e2e9ed"/>
              <path id="Path_128114" data-name="Path 128114" d="M515.988,166.87a45.75,45.75,0,0,1-4.632,9.535c-2.911,4.368-11.644,26.929-12.009,47.671,0,0,10.918-29.111,16.012-34.934l-3.275-5.458,4.73-2.183s2.912-10.553,1.457-15.648c0,0-1.292-2.383-2.748-2.747C515.523,163.106,516.374,165.922,515.988,166.87Z" fill="#1c354e"/>
              <path id="Path_128115" data-name="Path 128115" d="M484.428,177.861l4-1.456-1.092-4.366s6.186-7.278,13.464-11.281v.728s-9.461,10.189-12.736,20.378-6.914,22.562-7.278,32.75C480.789,214.614,481.153,189.87,484.428,177.861Z" fill="#0f2841"/>
              <path id="Path_128116" data-name="Path 128116" d="M528.095,249.548s-3.179,1.589-7.256,3.114c-2.438-10.4-6.463-28.841-6.208-36.228.364-10.553,5.459-22.561,10.553-26.928s24.745-1.819,30.567-2.183a75.272,75.272,0,0,0,8.742-1.122,15.87,15.87,0,0,1-4.012,1.85c-5.725,1.347-26.409,1.447-31.767,3.186-1.567,3.236-4.983,10.273-7.169,14.644a31.406,31.406,0,0,0-2.183,20.014C520.817,232.446,528.095,249.548,528.095,249.548Z" fill="#132436" opacity="0.5"/>
              <g id="Group_28675" data-name="Group 28675">
                <path id="Path_128117" data-name="Path 128117" d="M508.97,162.892c-1.83.306-8.369.364-10.553-.364s-2.183-1.455-2.183-3.639.364-7.278.364-8.733.728-2.184,1.456-3.639a9.3,9.3,0,0,0,.728-4c0-.728,2.547-6.55,7.641-8.369s11.281-.729,14.192,3.274,4,7.279,2.548,11.645-4.732,8.006-5.823,9.461A13.611,13.611,0,0,1,508.97,162.892Z" fill="#f2a983"/>
                <path id="Path_128118" data-name="Path 128118" d="M498.417,153.795c.307,0-1.708,4.386-1.266,8.161-.916-.613-.917-1.432-.917-3.067,0-2.183.364-7.278.364-8.733s.728-2.184,1.456-3.639a7.869,7.869,0,0,0,.7-2.967c.886.936,1.847,2.131,1.847,2.967,0,1.455-3.639,5.094-3.639,5.458S498.054,153.795,498.417,153.795Z" fill="#d88f69"/>
                <path id="Path_128119" data-name="Path 128119" d="M508.97,162.892a41.579,41.579,0,0,1-9.6-.136c1.8-.445,3.679-1.618,6.321-2.411,3.639-1.092,5.1-4.366,7.278-6.55s-.364-5.458-.364-8.733-4-4.731-4-4.731l-3.333-5.686a9.687,9.687,0,0,1,1.15-.5c5.1-1.82,11.281-.729,14.192,3.274s4,7.279,2.548,11.645-4.732,8.006-5.823,9.461A13.611,13.611,0,0,1,508.97,162.892Z" fill="#f2a983" opacity="0.15" style="mix-blend-mode: multiply;isolation: isolate"/>
                <path id="Path_128120" data-name="Path 128120" d="M520.251,154.522s-.728-2.547-2.911-2.183-2.911.364-2.911-.364,1.456-1.819.364-3.639-1.092-2.183-1.092-3.274.728-2.548-.728-3.276-8.005-1.091-9.1-1.819-3.667-3.666-1.847-5.85,8.041-3.619,13.135-2.527,9.09,5.466,9.818,11.652S520.251,154.522,520.251,154.522Z" fill="#563317"/>
                <path id="Path_128121" data-name="Path 128121" d="M514.429,151.975c0-.728,1.456-1.819.364-3.639s-1.092-2.183-1.092-3.274a4.5,4.5,0,0,1,.058-.646c1.815,1.029,6.416,3.62,9.893,5.425a18.225,18.225,0,0,1-3.4,4.681s-.728-2.547-2.911-2.183S514.429,152.7,514.429,151.975Z" fill="#634024"/>
                <path id="Path_128122" data-name="Path 128122" d="M517.34,152.7c.728-.728,2.547-1.82,3.639-.728s0,2.911-1.092,4-3.275,2.547-4,2.547-1.456-.727-.728-1.819S517.34,152.7,517.34,152.7Z" fill="#f2a983"/>
                <path id="Path_128123" data-name="Path 128123" d="M517.34,152.7c.728-.728,2.547-1.82,3.639-.728s0,2.911-1.092,4-3.275,2.547-4,2.547-1.456-.727-.728-1.819S517.34,152.7,517.34,152.7Z" fill="#f2a983" opacity="0.15" style="mix-blend-mode: multiply;isolation: isolate"/>
              </g>
              <path id="Path_128124" data-name="Path 128124" d="M499.246,175.614l-.778,2.467s-3.354,12.753-2.88,17.387c.708,6.919,11.889,15.779,14.431,21.391l-1.851,4.933-4.385-1.7s-6.224-10.455-8.881-13.272-3.97-9.5-2.3-16.084c1.625-6.411,3.631-13.7,3.631-13.7Z" fill="#e8000c"/>
            </g>
          </g>
        </g>
      </g>
      <g id="Group_28681" data-name="Group 28681">
        <path id="Path_128129" data-name="Path 128129" d="M485.621,40.315l3.005,1.8s-2.282,6.609-5.647,8.051-2.885-2.884-2.885-2.884Z" fill="#ed1c24"/>
        <path id="Path_128130" data-name="Path 128130" d="M661.335,79.138h6.131s2.522,2.7,2.163,2.79-7.813,0-7.813,0Z" fill="#a1ffe3"/>
        <path id="Path_128131" data-name="Path 128131" d="M412.674,138.561v4.686s-9.168,1.2-9.648,2.4,0-4.446,0-4.446S403.816,137.959,412.674,138.561Z" fill="url(#linear-gradient-15)"/>
        <path id="Path_128132" data-name="Path 128132" d="M545.07,34.53c-.011-.38,4.326,0,4.326,0s.359,6.73-2.163,7.571a9.371,9.371,0,0,1-5.168,0S545.31,43.062,545.07,34.53Z" fill="#fff200"/>
        <path id="Path_128133" data-name="Path 128133" d="M623.293,184.043s8.158,3.508,6.557,8.618c-.438,1.4-2.013,7-4.726,5.948a10.189,10.189,0,0,1-5.112-3.888l2.594-2.06s5.034,6.482,7.931,4.117,7.069-9.837-3.939-15.022S623.293,184.043,623.293,184.043Z" fill="url(#linear-gradient-16)"/>
        <path id="Path_128134" data-name="Path 128134" d="M575.234,113.813l3.005,1.8s-2.282,6.61-5.649,8.052-2.883-2.884-2.883-2.884Z" fill="#f15a29"/>
        <path id="Path_128135" data-name="Path 128135" d="M386.221,87.241h8.1s3.334,3.565,2.857,3.688-10.322,0-10.322,0Z" fill="#fff200"/>
        <path id="Path_128136" data-name="Path 128136" d="M520.069,41.8v4.687s-9.168,1.2-9.648,2.4,0-4.447,0-4.447S511.211,41.2,520.069,41.8Z" fill="url(#linear-gradient-17)"/>
        <path id="Path_128137" data-name="Path 128137" d="M358.087,24.9c-.018-.564,6.447,0,6.447,0s.535,10.03-3.225,11.283a13.945,13.945,0,0,1-7.7,0S358.444,37.616,358.087,24.9Z" fill="#f15a29"/>
        <path id="Path_128138" data-name="Path 128138" d="M453.146,46.594s-8.159,3.509-6.559,8.618c.438,1.4,2.014,7,4.728,5.948a10.18,10.18,0,0,0,5.109-3.89l-2.593-2.058s-5.033,6.482-7.93,4.118-7.07-9.838,3.939-15.024S453.146,46.594,453.146,46.594Z" fill="url(#linear-gradient-18)"/>
        <path id="Path_128139" data-name="Path 128139" d="M280.012,52.108s-8.16,3.509-6.559,8.618c.438,1.4,2.013,7,4.727,5.948a10.18,10.18,0,0,0,5.11-3.89L280.7,60.726s-5.033,6.482-7.93,4.117-7.07-9.837,3.939-15.023S280.012,52.108,280.012,52.108Z" fill="url(#linear-gradient-18)"/>
        <path id="Path_128140" data-name="Path 128140" d="M475.772,97l1.474.885s-1.12,3.242-2.772,3.95-1.415-1.415-1.415-1.415Z" fill="#ffffa1"/>
        <path id="Path_128141" data-name="Path 128141" d="M563.858,29.217h3.006s1.238,1.324,1.061,1.369-3.832,0-3.832,0Z" fill="#a1ffe3"/>
        <path id="Path_128142" data-name="Path 128142" d="M320.975,61.471v2.3s-4.5.59-4.733,1.179,0-2.182,0-2.182S316.63,61.176,320.975,61.471Z" fill="url(#linear-gradient-15)"/>
        <path id="Path_128143" data-name="Path 128143" d="M434.147,24.083c-.005-.187,2.122,0,2.122,0s.176,3.3-1.061,3.714a4.592,4.592,0,0,1-2.535,0S434.264,28.269,434.147,24.083Z" fill="url(#linear-gradient-21)"/>
        <path id="Path_128144" data-name="Path 128144" d="M516.447,111.218s4,1.721,3.218,4.229c-.216.685-.989,3.435-2.321,2.918a5.009,5.009,0,0,1-2.507-1.907l1.274-1.011s2.468,3.18,3.89,2.02,3.469-4.826-1.932-7.372S516.447,111.218,516.447,111.218Z" fill="url(#linear-gradient-22)"/>
        <path id="Path_128145" data-name="Path 128145" d="M487.369,48.72l1.474.884s-1.119,3.243-2.77,3.951-1.416-1.415-1.416-1.415Z" fill="url(#linear-gradient-23)"/>
        <path id="Path_128146" data-name="Path 128146" d="M408.074,45.613h3.006s1.239,1.324,1.062,1.37-3.833,0-3.833,0Z" fill="url(#linear-gradient-24)"/>
        <path id="Path_128147" data-name="Path 128147" d="M477.568,122.584v2.3s-4.5.59-4.736,1.179,0-2.182,0-2.182S473.22,122.291,477.568,122.584Z" fill="url(#linear-gradient-25)"/>
        <path id="Path_128148" data-name="Path 128148" d="M402.229,24.562c-.006-.186,2.123,0,2.123,0s.177,3.3-1.062,3.714a4.592,4.592,0,0,1-2.535,0S402.346,28.748,402.229,24.562Z" fill="#3dffee"/>
        <path id="Path_128149" data-name="Path 128149" d="M600.69,29.039s-6.037,2.6-4.854,6.378c.326,1.034,1.489,5.182,3.5,4.4a7.536,7.536,0,0,0,3.78-2.879L601.2,35.417s-3.725,4.8-5.871,3.048-5.231-7.282,2.917-11.119S600.69,29.039,600.69,29.039Z" fill="url(#linear-gradient-18)"/>
        <path id="Path_128150" data-name="Path 128150" d="M370.981,136.715l.54,1.74,1.7-.663-1.024,1.507,1.576.913-1.816.139.269,1.8-1.241-1.334-1.241,1.334.269-1.8-1.817-.139,1.576-.913-1.024-1.507,1.7.663Z" fill="#fff200" opacity="0.7"/>
        <path id="Path_128151" data-name="Path 128151" d="M567.942,61.243l.539,1.74,1.7-.663-1.024,1.507,1.577.913-1.816.139.268,1.8-1.241-1.334L566.7,66.681l.269-1.8-1.816-.139,1.576-.913-1.024-1.507,1.7.663Z" fill="#ee2a7b" opacity="0.7"/>
        <path id="Path_128152" data-name="Path 128152" d="M501.9,99.047l.308.994.97-.379-.586.861.9.522-1.038.079.153,1.03-.708-.762-.71.762.154-1.03-1.038-.079.9-.522-.585-.861.97.379Z" fill="#fff" opacity="0.7"/>
        <path id="Path_128153" data-name="Path 128153" d="M542.944,99.436l.539,1.74,1.7-.663-1.024,1.507,1.576.913-1.816.139.268,1.8-1.24-1.334-1.241,1.334.269-1.8-1.817-.139,1.576-.913-1.024-1.507,1.7.663Z" fill="#f7941e"/>
        <path id="Path_128154" data-name="Path 128154" d="M557.889,155.043l5.355,2.98s.893,3.584.533,3.489-6.826-3.8-6.826-3.8Z" fill="url(#linear-gradient-27)"/>
        <path id="Path_128155" data-name="Path 128155" d="M387.471,214.484H393.6s2.523,2.7,2.162,2.791-7.81,0-7.81,0Z" fill="url(#linear-gradient-28)"/>
        <path id="Path_128156" data-name="Path 128156" d="M336.742,103.618l.276,6.122s-2.581,2.642-2.69,2.286-.352-7.8-.352-7.8Z" fill="#ed1c24"/>
        <path id="Path_128157" data-name="Path 128157" d="M626.161,252.471l1.687-5.892s3.288-1.683,3.278-1.31-2.15,7.509-2.15,7.509Z" fill="#ed1c24"/>
        <path id="Path_128158" data-name="Path 128158" d="M313.962,156.461s-6.038,2.6-4.854,6.378c.325,1.034,1.489,5.182,3.5,4.4a7.542,7.542,0,0,0,3.781-2.879l-1.918-1.523s-3.725,4.8-5.871,3.048-5.231-7.282,2.917-11.118S313.962,156.461,313.962,156.461Z" fill="url(#linear-gradient-18)"/>
        <path id="Path_128159" data-name="Path 128159" d="M672.332,222.635s-6.037,2.6-4.853,6.378c.325,1.034,1.488,5.181,3.5,4.4a7.535,7.535,0,0,0,3.78-2.879l-1.917-1.523s-3.725,4.8-5.871,3.047-5.231-7.281,2.917-11.118S672.332,222.635,672.332,222.635Z" fill="url(#linear-gradient-18)"/>
        <path id="Path_128160" data-name="Path 128160" d="M405.074,173.053s6.038,2.6,4.854,6.378c-.326,1.034-1.489,5.182-3.5,4.4a7.542,7.542,0,0,1-3.781-2.879l1.918-1.523s3.725,4.8,5.87,3.048,5.231-7.281-2.917-11.118S405.074,173.053,405.074,173.053Z" fill="url(#linear-gradient-31)"/>
        <path id="Path_128161" data-name="Path 128161" d="M660.336,124.793c-.018-.564,6.447,0,6.447,0s.535,10.03-3.225,11.283a13.945,13.945,0,0,1-7.7,0S660.693,137.509,660.336,124.793Z" fill="#ee2a7b"/>
        <path id="Path_128162" data-name="Path 128162" d="M648.322,100.5c.008-.236-2.69,0-2.69,0s-.223,4.185,1.346,4.708a5.821,5.821,0,0,0,3.212,0S648.173,105.809,648.322,100.5Z" fill="#00aeef"/>
        <path id="Path_128163" data-name="Path 128163" d="M519.071,233.159c-.018-.565,6.447,0,6.447,0s.535,10.03-3.225,11.282a13.944,13.944,0,0,1-7.7,0S519.428,245.875,519.071,233.159Z" fill="#3dffee"/>
        <path id="Path_128164" data-name="Path 128164" d="M322.758,229.2c.012-.388-4.429,0-4.429,0s-.367,6.89,2.216,7.75a9.573,9.573,0,0,0,5.288,0S322.513,237.936,322.758,229.2Z" fill="#f15a29"/>
        <path id="Path_128165" data-name="Path 128165" d="M318.311,93.36l.539,1.74,1.7-.663-1.024,1.507,1.577.913L319.284,97l.268,1.8-1.241-1.334L317.07,98.8l.269-1.8-1.816-.139,1.576-.913-1.024-1.507,1.7.663Z" fill="#ee2a7b" opacity="0.7"/>
        <path id="Path_128166" data-name="Path 128166" d="M658.115,181.449l.539,1.74,1.7-.663-1.024,1.507,1.577.913-1.816.139.268,1.8-1.241-1.334-1.242,1.334.269-1.8-1.816-.139,1.576-.913-1.024-1.507,1.7.663Z" fill="#ee2a7b" opacity="0.7"/>
        <path id="Path_128167" data-name="Path 128167" d="M388.116,211.61l.539,1.74,1.7-.663-1.024,1.507,1.577.913-1.816.139.268,1.8-1.24-1.334-1.242,1.334.269-1.8-1.816-.139,1.576-.913-1.024-1.507,1.7.663Z" fill="#ee2a7b" opacity="0.7"/>
        <path id="Path_128168" data-name="Path 128168" d="M660.9,259.277l.539,1.74,1.7-.663-1.024,1.507,1.577.913-1.816.139.268,1.8-1.24-1.333-1.242,1.333.269-1.8-1.817-.139,1.576-.913-1.024-1.507,1.7.663Z" fill="#ee2a7b" opacity="0.7"/>
        <path id="Path_128169" data-name="Path 128169" d="M318.311,186.054l.539,1.74,1.7-.663-1.024,1.507,1.577.913-1.816.139.268,1.8-1.241-1.334-1.241,1.334.269-1.8-1.816-.139,1.576-.913-1.024-1.507,1.7.663Z" fill="#f7941e"/>
        <path id="Path_128170" data-name="Path 128170" d="M551.872,178.1l.539,1.74,1.7-.663-1.024,1.507,1.576.913-1.816.139.268,1.8-1.241-1.333-1.241,1.333.269-1.8-1.816-.139,1.576-.913-1.024-1.507,1.7.663Z" fill="#f7941e"/>
        <path id="Path_128171" data-name="Path 128171" d="M605.905,55.236l.539,1.74,1.7-.663-1.024,1.507,1.576.913-1.816.139.268,1.8-1.24-1.334-1.241,1.334.269-1.8-1.816-.139,1.576-.913-1.024-1.507,1.7.663Z" fill="#fff200"/>
      </g>
    </g>
  </g>
</svg>
