<svg xmlns="http://www.w3.org/2000/svg" xmlns:xlink="http://www.w3.org/1999/xlink" width="499.515" height="361.536" viewBox="0 0 499.515 361.536">
  <defs>
    <linearGradient id="linear-gradient" x1="-20.79" y1="-0.034" x2="-21.4" y2="0.576" gradientUnits="objectBoundingBox">
      <stop offset="0" stop-color="#fff"/>
      <stop offset="1"/>
    </linearGradient>
    <linearGradient id="linear-gradient-2" x1="-40.837" y1="0.019" x2="-41.865" y2="0.63" xlink:href="#linear-gradient"/>
  </defs>
  <g id="img_insurance" transform="translate(-7057.275 12080.342)">
    <path id="Path_99844" data-name="Path 99844" d="M1836.979,1394.414c-32.479,10.419-48.359-39.091-15.752-49.1l209.295-64.249c32.607-10.01,48.231,38.681,15.752,49.1s-16.727,59.522,15.752,49.1l129.619-41.587c32.478-10.42,52.668,37.257,15.751,49.1-18.58,5.961-13.561,4.306-14.544,4.622-32.479,10.419-16.727,59.521,15.752,49.1,38.551-12.371,22.115-8.622,60.668-20.99,31.042-9.958,46.67,34.059,19.756,47.444l-288.563,91.953c-32.5,10.356-48.22-38.647-15.752-49.1l17.656-5.685c32.469-10.454,16.727-59.52-15.752-49.1-28.762,9.742-116.984,37.586-145.855,46.844a25.783,25.783,0,0,1-15.752-49.1c27.376-9.3.215-.425,27.72-9.248,32.479-10.419,16.727-59.521-15.751-49.1Zm285.2-88.6a25.783,25.783,0,1,0-32.427-16.674A25.783,25.783,0,0,0,2122.178,1305.814Z" transform="translate(5253.969 -13279.142)" fill="#ffbc97" fill-rule="evenodd" opacity="0.22"/>
    <g id="Group_28508" data-name="Group 28508" transform="translate(7114.769 -12080.342)">
      <path id="Path_127594" data-name="Path 127594" d="M520.914,462.306h-.005l.08-.117A1.289,1.289,0,0,0,520.914,462.306Z" transform="translate(-167.4 -177.372)" fill="#be1e2d" fill-rule="evenodd"/>
      <g id="Group_28508-2" data-name="Group 28508" transform="translate(1.515 95.506)" opacity="0.3" style="mix-blend-mode: multiply;isolation: isolate">
        <path id="Path_127595" data-name="Path 127595" d="M47.278,235.26c-3.811,1.931-3.88,5.267-.156,7.4L216.1,340.811l142.213,80.021a15.366,15.366,0,0,0,13.565.143l53.207-29.4c3.735-2.069,3.724-5.474-.022-7.573L113.17,207.574a16.354,16.354,0,0,0-13.738-.317Z" transform="translate(-44.374 -205.897)"/>
      </g>
      <path id="Path_127596" data-name="Path 127596" d="M414.913,340.678a.192.192,0,0,0-.041,0l48.951-27.5a1.213,1.213,0,0,1,1.073.1l37.25,20.858a4.79,4.79,0,0,1,2.107,3.32l1.463,8.573,5.253,25.451.092,7.6a2.187,2.187,0,0,1,1.815,2.251c.129,1.954,0,2.086.051,4.049a3.152,3.152,0,0,1-.657,1.893l-1.1.629.139,11.78a2.183,2.183,0,0,1,1.819,2.246c.125,1.963.045,5.887.094,7.843a3.167,3.167,0,0,1-.661,1.893l-46.67,26.775s-3.4,1.756-6.14.552l-14.8-8.365-.053-.751c-.268-8.667-5.874-18.1-13.456-22.553-6.744-3.961-13.332-.021-13.089,7.636.014.445.044.9.083,1.347l-2.966-1.67-.419-4.77-.812-67.767C414.228,341.1,414.556,340.754,414.913,340.678Z" transform="translate(-139.522 -138.405)" fill="#ffd0b7"/>
      <g id="Group_28509" data-name="Group 28509" transform="translate(182.064 202.273)">
        <path id="Path_127597" data-name="Path 127597" d="M415.136,350.44c-.007,0-.012,0-.022,0h-.019A.192.192,0,0,1,415.136,350.44Z" transform="translate(-321.81 -350.44)" fill="#fbaa7c"/>
        <path id="Path_127598" data-name="Path 127598" d="M294.231,360.9l2.448-1.46,75.9,42.652L382,396.944l-.052-4.174-.294-24.544-.2-16.351c-.012-.991.3-1.342.651-1.431l.471,0a1.76,1.76,0,0,1,.431.17l37.25,20.858a4.8,4.8,0,0,1,2.106,3.317l6.717,34.028.089,7.724c-3.457-.092-8.339-3.126-12.862-5.363l9.383,5.273c3.746,2.105,8-.608,8-.608l3.258-1.872.089,7.424-4.222,2.424a10.058,10.058,0,0,1-3.54.956l.139,11.773c-3.563-.07-9.22-3.2-14.054-5.445-3-7.759-8.632-14.871-15.487-18.9-8.146-4.781-16.116-.86-17.206,7.567l-.4-.135.02,1.748-1.957,1.717-31.768-17.849-.006-.513-.936.533-1.711-.962a11.869,11.869,0,0,0,.059-1.638c-.267-8.653-5.866-18.076-13.438-22.523-6.732-3.954-13.312-.026-13.073,7.627.016.58.061,1.153.126,1.734l-1.2-.675-1.911-.991a12.551,12.551,0,0,0,.064-1.634c-.272-8.651-5.866-18.079-13.44-22.528-6.738-3.95-13.316-.022-13.076,7.627.016.579.061,1.157.126,1.736l-1.2-.676c-.069-.628-.115-1.252-.134-1.88C288.66,365.716,290.908,362.246,294.231,360.9Z" transform="translate(-288.804 -350.441)" fill="#fbaa7c"/>
      </g>
      <path id="Path_127599" data-name="Path 127599" d="M290.572,377.186c-.064-.579-.11-1.157-.126-1.736-.2-6.491,4.495-10.3,10.039-8.9h0a11.72,11.72,0,0,1,3.037,1.268c7.573,4.449,13.168,13.877,13.44,22.528a12.552,12.552,0,0,1-.064,1.634l1.52.79-7.224,4.049a7.976,7.976,0,0,1-7.334-.8,25.061,25.061,0,0,1-11.7-19.607c0-.078.006-.149.006-.224,0,.027-.008.05-.008.075Z" transform="translate(-107.168 -152.302)" fill="#343433"/>
      <path id="Path_127600" data-name="Path 127600" d="M336.643,391.389l4.309-2.441a11.673,11.673,0,0,1,3.034,1.27c7.573,4.447,13.172,13.87,13.438,22.523a11.885,11.885,0,0,1-.059,1.638l1.464.826-7.168,4.014a7.986,7.986,0,0,1-7.337-.8,25.069,25.069,0,0,1-11.694-19.61C332.514,395.18,334.167,392.508,336.643,391.389Z" transform="translate(-118.192 -158.23)" fill="#343433"/>
      <path id="Path_127601" data-name="Path 127601" d="M280.893,370.968l2.738,1.52-.09-7.59-2.735-1.519Z" transform="translate(-104.649 -151.548)" fill="#8897a0"/>
      <g id="Group_28510" data-name="Group 28510" transform="translate(184.991 216.117)">
        <path id="Path_127602" data-name="Path 127602" d="M292.772,377.179a25.061,25.061,0,0,0,11.7,19.607c5.865,3.446,11.592.027,11.383-6.639a25.077,25.077,0,0,0-11.7-19.606C298.288,367.1,292.562,370.515,292.772,377.179Z" transform="translate(-292.766 -369.182)" fill="#424040"/>
      </g>
      <g id="Group_28511" data-name="Group 28511" transform="translate(185.797 217.627)">
        <path id="Path_127603" data-name="Path 127603" d="M293.863,378.585a23.128,23.128,0,0,0,10.666,18.05c5.348,3.164,10.568.016,10.376-6.114a23.1,23.1,0,0,0-10.665-18.046C298.893,369.309,293.673,372.457,293.863,378.585Z" transform="translate(-293.858 -371.226)" fill="#575656"/>
      </g>
      <g id="Group_28512" data-name="Group 28512" transform="translate(188.716 221.828)">
        <path id="Path_127604" data-name="Path 127604" d="M297.813,381.949a15.792,15.792,0,0,0,7.361,12.343c3.695,2.169,7.3.013,7.166-4.18a15.785,15.785,0,0,0-7.364-12.344C301.287,375.6,297.68,377.757,297.813,381.949Z" transform="translate(-297.809 -376.913)" fill="#cdcccb"/>
      </g>
      <path id="Path_127605" data-name="Path 127605" d="M302.515,376.936c-2.093.222-3.642,2.011-3.557,4.7a14.833,14.833,0,0,0,6.895,11.6c2.788,1.635,5.512.641,6.408-1.867-.553,3.338-3.781,4.861-7.087,2.921a15.792,15.792,0,0,1-7.361-12.343C297.712,378.713,299.838,376.686,302.515,376.936Z" transform="translate(-109.093 -155.086)" fill="#424040"/>
      <g id="Group_28513" data-name="Group 28513" transform="translate(193.828 225.388)">
        <path id="Path_127606" data-name="Path 127606" d="M304.732,384.417a8.407,8.407,0,0,0,3.925,6.57,2.385,2.385,0,0,0,3.813-2.223,8.41,8.41,0,0,0-3.919-6.576A2.391,2.391,0,0,0,304.732,384.417Z" transform="translate(-304.731 -381.733)" fill="#e8e9e8"/>
      </g>
      <g id="Group_28514" data-name="Group 28514" transform="translate(196.772 228.469)">
        <path id="Path_127607" data-name="Path 127607" d="M308.717,386.748a2.647,2.647,0,0,0,1.232,2.07.754.754,0,0,0,1.2-.7,2.653,2.653,0,0,0-1.237-2.072A.751.751,0,0,0,308.717,386.748Z" transform="translate(-308.716 -385.904)" fill="#424040"/>
      </g>
      <g id="Group_28515" data-name="Group 28515" transform="translate(198.984 233.155)">
        <path id="Path_127608" data-name="Path 127608" d="M311.726,392.5a1,1,0,0,0,.275.871.289.289,0,0,0,.507-.155,1,1,0,0,0-.278-.872A.286.286,0,0,0,311.726,392.5Z" transform="translate(-311.71 -392.248)" fill="#424040"/>
      </g>
      <g id="Group_28516" data-name="Group 28516" transform="translate(195.649 226.366)">
        <path id="Path_127609" data-name="Path 127609" d="M307.195,383.374a1.017,1.017,0,0,0,.469.786.284.284,0,0,0,.455-.265.978.978,0,0,0-.47-.782A.284.284,0,0,0,307.195,383.374Z" transform="translate(-307.195 -383.057)" fill="#424040"/>
      </g>
      <g id="Group_28517" data-name="Group 28517" transform="translate(198.517 227.462)">
        <path id="Path_127610" data-name="Path 127610" d="M311.193,384.6a.664.664,0,0,0-.036.694c.1.224.333.319.455.185a.666.666,0,0,0,.037-.692C311.544,384.564,311.312,384.469,311.193,384.6Z" transform="translate(-311.078 -384.541)" fill="#424040"/>
      </g>
      <g id="Group_28518" data-name="Group 28518" transform="translate(199.814 230.891)">
        <path id="Path_127611" data-name="Path 127611" d="M312.835,389.424a.681.681,0,0,0,.519.476c.241.073.458-.047.434-.222a.689.689,0,0,0-.514-.476C313.033,389.136,312.813,389.245,312.835,389.424Z" transform="translate(-312.834 -389.182)" fill="#424040"/>
      </g>
      <g id="Group_28519" data-name="Group 28519" transform="translate(194.571 229.206)">
        <path id="Path_127612" data-name="Path 127612" d="M305.838,387.415a1.015,1.015,0,0,0,.876.28.279.279,0,0,0,.16-.5,1.012,1.012,0,0,0-.876-.283A.281.281,0,0,0,305.838,387.415Z" transform="translate(-305.736 -386.902)" fill="#424040"/>
      </g>
      <g id="Group_28520" data-name="Group 28520" transform="translate(196.312 231.856)">
        <path id="Path_127613" data-name="Path 127613" d="M308.518,391.557a.983.983,0,0,0,.564-.714.287.287,0,0,0-.419-.322.979.979,0,0,0-.567.716A.288.288,0,0,0,308.518,391.557Z" transform="translate(-308.092 -390.49)" fill="#424040"/>
      </g>
      <path id="Path_127614" data-name="Path 127614" d="M300.044,379.531l0-.006.076-.117C300.091,379.448,300.069,379.49,300.044,379.531Z" transform="translate(-109.677 -155.737)" fill="#be1e2d" fill-rule="evenodd"/>
      <path id="Path_127615" data-name="Path 127615" d="M339.9,401.822l0-.005.072-.114C339.948,401.739,339.926,401.784,339.9,401.822Z" transform="translate(-120.093 -161.564)" fill="#be1e2d" fill-rule="evenodd"/>
      <g id="Group_28521" data-name="Group 28521" transform="translate(214.432 232.581)">
        <path id="Path_127616" data-name="Path 127616" d="M332.63,399.468a25.069,25.069,0,0,0,11.694,19.611c5.868,3.444,11.592.027,11.385-6.64a25.046,25.046,0,0,0-11.7-19.607C338.148,389.384,332.42,392.809,332.63,399.468Z" transform="translate(-332.624 -391.471)" fill="#424040"/>
      </g>
      <g id="Group_28522" data-name="Group 28522" transform="translate(215.239 234.092)">
        <path id="Path_127617" data-name="Path 127617" d="M333.722,400.875a23.127,23.127,0,0,0,10.662,18.053c5.352,3.164,10.568.02,10.382-6.113A23.121,23.121,0,0,0,344.1,394.767C338.749,391.6,333.529,394.748,333.722,400.875Z" transform="translate(-333.717 -393.517)" fill="#575656"/>
      </g>
      <g id="Group_28523" data-name="Group 28523" transform="translate(218.155 238.293)">
        <path id="Path_127618" data-name="Path 127618" d="M337.668,404.236a15.8,15.8,0,0,0,7.362,12.347c3.695,2.171,7.3.013,7.169-4.182a15.791,15.791,0,0,0-7.367-12.345C341.143,397.892,337.536,400.05,337.668,404.236Z" transform="translate(-337.664 -399.203)" fill="#cdcccb"/>
      </g>
      <path id="Path_127619" data-name="Path 127619" d="M342.368,399.229c-2.09.22-3.639,2.011-3.554,4.7a14.836,14.836,0,0,0,6.9,11.6c2.788,1.64,5.511.646,6.4-1.863-.553,3.339-3.779,4.861-7.086,2.921a15.8,15.8,0,0,1-7.362-12.347C337.567,401,339.7,398.981,342.368,399.229Z" transform="translate(-119.509 -160.912)" fill="#424040"/>
      <g id="Group_28524" data-name="Group 28524" transform="translate(223.272 241.854)">
        <path id="Path_127620" data-name="Path 127620" d="M344.594,406.705a8.4,8.4,0,0,0,3.919,6.573,2.385,2.385,0,0,0,3.816-2.221,8.407,8.407,0,0,0-3.923-6.578A2.386,2.386,0,0,0,344.594,406.705Z" transform="translate(-344.592 -404.024)" fill="#e8e9e8"/>
      </g>
      <g id="Group_28525" data-name="Group 28525" transform="translate(226.211 244.935)">
        <path id="Path_127621" data-name="Path 127621" d="M348.571,409.041a2.651,2.651,0,0,0,1.235,2.068.753.753,0,0,0,1.2-.7,2.655,2.655,0,0,0-1.237-2.067A.751.751,0,0,0,348.571,409.041Z" transform="translate(-348.57 -408.196)" fill="#424040"/>
      </g>
      <g id="Group_28526" data-name="Group 28526" transform="translate(228.425 249.621)">
        <path id="Path_127622" data-name="Path 127622" d="M351.585,414.8a.97.97,0,0,0,.275.865.285.285,0,0,0,.5-.152.981.981,0,0,0-.278-.869A.284.284,0,0,0,351.585,414.8Z" transform="translate(-351.568 -414.54)" fill="#424040"/>
      </g>
      <g id="Group_28527" data-name="Group 28527" transform="translate(225.089 242.828)">
        <path id="Path_127623" data-name="Path 127623" d="M347.052,405.662a1,1,0,0,0,.473.786.284.284,0,0,0,.454-.267,1.007,1.007,0,0,0-.47-.782A.285.285,0,0,0,347.052,405.662Z" transform="translate(-347.052 -405.343)" fill="#424040"/>
      </g>
      <g id="Group_28528" data-name="Group 28528" transform="translate(227.957 243.927)">
        <path id="Path_127624" data-name="Path 127624" d="M351.047,406.892a.666.666,0,0,0-.035.691c.1.226.333.318.453.19a.655.655,0,0,0,.038-.694C351.4,406.85,351.169,406.762,351.047,406.892Z" transform="translate(-350.935 -406.832)" fill="#424040"/>
      </g>
      <g id="Group_28529" data-name="Group 28529" transform="translate(229.254 247.354)">
        <path id="Path_127625" data-name="Path 127625" d="M352.692,411.715a.691.691,0,0,0,.518.476c.244.067.461-.049.435-.222a.7.7,0,0,0-.515-.48C352.889,411.423,352.67,411.535,352.692,411.715Z" transform="translate(-352.691 -411.47)" fill="#424040"/>
      </g>
      <g id="Group_28530" data-name="Group 28530" transform="translate(224.012 245.672)">
        <path id="Path_127626" data-name="Path 127626" d="M345.694,409.709a1.038,1.038,0,0,0,.879.278.279.279,0,0,0,.158-.495,1.012,1.012,0,0,0-.875-.283A.282.282,0,0,0,345.694,409.709Z" transform="translate(-345.593 -409.193)" fill="#424040"/>
      </g>
      <g id="Group_28531" data-name="Group 28531" transform="translate(225.753 248.321)">
        <path id="Path_127627" data-name="Path 127627" d="M348.376,413.849a.985.985,0,0,0,.564-.713.289.289,0,0,0-.422-.326.994.994,0,0,0-.561.717A.287.287,0,0,0,348.376,413.849Z" transform="translate(-347.95 -412.78)" fill="#424040"/>
      </g>
      <path id="Path_127628" data-name="Path 127628" d="M340.344,388.846l-4.309,2.441c-2.443,1.107-4.081,3.717-4.013,7.272l-1.592.918c-.065-.581-.109-1.154-.126-1.734C330.1,391.254,334.8,387.444,340.344,388.846Z" transform="translate(-117.584 -158.128)" fill="#343433"/>
      <g id="Group_28532" data-name="Group 28532" transform="translate(273.382 255.779)" opacity="0.2">
        <path id="Path_127629" data-name="Path 127629" d="M414.391,422.877l.188,15.7.02,1.748-1.957,1.718-.211-17.441Z" transform="translate(-412.431 -422.877)"/>
      </g>
      <g id="Group_28538" data-name="Group 28538" transform="translate(278.824 267.373)">
        <g id="Group_28533" data-name="Group 28533" transform="translate(1.181 1.827)">
          <path id="Path_127630" data-name="Path 127630" d="M421.4,449.044a25.055,25.055,0,0,0,11.7,19.61c5.868,3.448,11.593.024,11.386-6.636a25.092,25.092,0,0,0-11.7-19.616C426.921,438.966,421.193,442.388,421.4,449.044Z" transform="translate(-421.397 -441.047)" fill="#424040"/>
        </g>
        <g id="Group_28534" data-name="Group 28534" transform="translate(1.988 3.341)">
          <path id="Path_127631" data-name="Path 127631" d="M422.5,450.457A23.12,23.12,0,0,0,433.16,468.5c5.35,3.167,10.566.02,10.38-6.109a23.111,23.111,0,0,0-10.671-18.048C427.523,441.179,422.3,444.33,422.5,450.457Z" transform="translate(-422.491 -443.097)" fill="#575656"/>
        </g>
        <path id="Path_127632" data-name="Path 127632" d="M431.147,448.8c-2.094.222-3.644,2.015-3.558,4.706a14.843,14.843,0,0,0,6.894,11.594c2.785,1.642,5.519.647,6.409-1.862-.553,3.338-3.783,4.86-7.087,2.923a15.8,15.8,0,0,1-7.361-12.348C426.339,450.576,428.471,448.557,431.147,448.8Z" transform="translate(-421.535 -441.241)" fill="#424040"/>
        <g id="Group_28535" data-name="Group 28535" transform="translate(6.05 7.567)">
          <path id="Path_127633" data-name="Path 127633" d="M434.888,465.111a14.843,14.843,0,0,1-6.894-11.594c-.086-2.679,1.45-4.467,3.53-4.7a6.006,6.006,0,0,1,2.488.826,15.78,15.78,0,0,1,7.366,12.348,6.3,6.3,0,0,1-.092,1.282C440.384,465.763,437.666,466.745,434.888,465.111Z" transform="translate(-427.99 -448.817)" fill="#cdcccb"/>
          <path id="Path_127634" data-name="Path 127634" d="M445.956,468.487c-.015.087-.037.177-.057.264C445.919,468.663,445.941,468.571,445.956,468.487Z" transform="translate(-432.671 -453.958)" fill="#cdcccb"/>
        </g>
        <g id="Group_28536" data-name="Group 28536" transform="translate(7.897 11.989)">
          <path id="Path_127635" data-name="Path 127635" d="M430.492,457.486a8.413,8.413,0,0,0,3.926,6.571,2.385,2.385,0,0,0,3.813-2.226,8.408,8.408,0,0,0-3.92-6.571A2.389,2.389,0,0,0,430.492,457.486Z" transform="translate(-430.49 -454.804)" fill="#e8e9e8"/>
        </g>
        <g id="Group_28537" data-name="Group 28537" transform="translate(6.106 7.867)">
          <path id="Path_127636" data-name="Path 127636" d="M439.456,457.151l1.729-1.716c.324.446.626.9.906,1.381l-2.191,1.012C439.762,457.594,439.613,457.372,439.456,457.151Z" transform="translate(-431.042 -450.847)" fill="#343433" fill-rule="evenodd"/>
          <path id="Path_127637" data-name="Path 127637" d="M435.741,453.256c-.114-.061-.222-.115-.337-.167l.419-3.01a1.291,1.291,0,0,1,.16.082,13.048,13.048,0,0,1,1.256.869l-1.047,2.517C436.044,453.445,435.891,453.347,435.741,453.256Z" transform="translate(-429.983 -449.447)" fill="#343433" fill-rule="evenodd"/>
          <path id="Path_127638" data-name="Path 127638" d="M440.76,459.7l2.266-.878a15.467,15.467,0,0,1,.693,1.652l-2.582.191A8.3,8.3,0,0,0,440.76,459.7Z" transform="translate(-431.383 -451.732)" fill="#343433" fill-rule="evenodd"/>
          <path id="Path_127639" data-name="Path 127639" d="M437.711,454.878l1.007-2.512a14.6,14.6,0,0,1,1.2,1.25l-1.533,1.96C438.175,455.335,437.948,455.1,437.711,454.878Z" transform="translate(-430.586 -450.045)" fill="#343433" fill-rule="evenodd"/>
          <path id="Path_127640" data-name="Path 127640" d="M430.383,453.871l-1.344-2.18a4.373,4.373,0,0,1,.261-.451,3.681,3.681,0,0,1,.37-.485l1.067,2.738A2.13,2.13,0,0,0,430.383,453.871Z" transform="translate(-428.319 -449.624)" fill="#343433" fill-rule="evenodd"/>
          <path id="Path_127641" data-name="Path 127641" d="M429.617,455.771,428.2,454.2a8.6,8.6,0,0,1,.239-.938l1.406,1.778A3.126,3.126,0,0,0,429.617,455.771Z" transform="translate(-428.101 -450.279)" fill="#343433" fill-rule="evenodd"/>
          <path id="Path_127642" data-name="Path 127642" d="M431.691,452.8l-.915-3.01a2.912,2.912,0,0,1,1.032-.461l.465,3.273A2.332,2.332,0,0,0,431.691,452.8Z" transform="translate(-428.773 -449.252)" fill="#343433" fill-rule="evenodd"/>
          <path id="Path_127643" data-name="Path 127643" d="M433.463,452.524l-.414-3.3h.022a3.92,3.92,0,0,1,1.263.232l-.272,3.156A3.116,3.116,0,0,0,433.463,452.524Z" transform="translate(-429.367 -449.224)" fill="#343433" fill-rule="evenodd"/>
          <path id="Path_127644" data-name="Path 127644" d="M441.652,462.759l2.679-.011a13.618,13.618,0,0,1,.305,1.643l-2.855-.681A7.946,7.946,0,0,0,441.652,462.759Z" transform="translate(-431.616 -452.758)" fill="#343433" fill-rule="evenodd"/>
          <path id="Path_127645" data-name="Path 127645" d="M434.276,466.593l.1,1.595c-.3-.274-.595-.557-.879-.86l.216-1.254C433.9,466.257,434.081,466.428,434.276,466.593Z" transform="translate(-429.485 -453.628)" fill="#343433" fill-rule="evenodd"/>
          <path id="Path_127646" data-name="Path 127646" d="M432.116,464.468l-.379,1.037a15.286,15.286,0,0,1-.985-1.468l.933-.2C431.82,464.058,431.965,464.268,432.116,464.468Z" transform="translate(-428.767 -453.044)" fill="#343433" fill-rule="evenodd"/>
          <path id="Path_127647" data-name="Path 127647" d="M430.6,461.775l-.9.229a14.8,14.8,0,0,1-.722-1.741l1.177.383A9.38,9.38,0,0,0,430.6,461.775Z" transform="translate(-428.303 -452.109)" fill="#343433" fill-rule="evenodd"/>
          <path id="Path_127648" data-name="Path 127648" d="M441.731,465.373l2.959.733c0,.072.01.141.01.212a3.729,3.729,0,0,1-.153,1.129l-2.994-1.391A3.317,3.317,0,0,0,441.731,465.373Z" transform="translate(-431.59 -453.444)" fill="#343433" fill-rule="evenodd"/>
          <path id="Path_127649" data-name="Path 127649" d="M429.517,457.417a7.377,7.377,0,0,0,.138,1.145l-1.251-.476a11.906,11.906,0,0,1-.34-1.911Z" transform="translate(-428.065 -451.04)" fill="#343433" fill-rule="evenodd"/>
          <path id="Path_127650" data-name="Path 127650" d="M435.891,467.751c.137.074.27.144.4.206l.929,2.193c-.075-.022-.144-.053-.22-.071-.046-.03-.1-.052-.146-.083-.312-.183-.618-.389-.915-.606l-.417-1.88C435.648,467.6,435.767,467.673,435.891,467.751Z" transform="translate(-430.015 -454.003)" fill="#343433" fill-rule="evenodd"/>
          <path id="Path_127651" data-name="Path 127651" d="M441.078,467l2.86,1.677a3.082,3.082,0,0,1-.614.674,3.44,3.44,0,0,1-.315.229l-2.285-2.147A2.643,2.643,0,0,0,441.078,467Z" transform="translate(-431.373 -453.87)" fill="#343433" fill-rule="evenodd"/>
          <path id="Path_127652" data-name="Path 127652" d="M439.9,468.115l2.13,2.1a4.672,4.672,0,0,1-.994.277l-1.486-2.221A2.326,2.326,0,0,0,439.9,468.115Z" transform="translate(-431.066 -454.161)" fill="#343433" fill-rule="evenodd"/>
          <path id="Path_127653" data-name="Path 127653" d="M438.513,468.5l1.2,2.165h-.047a6.474,6.474,0,0,1-.844-.057l-1.035-2.128A2.656,2.656,0,0,0,438.513,468.5Z" transform="translate(-430.607 -454.255)" fill="#343433" fill-rule="evenodd"/>
        </g>
        <path id="Path_127654" data-name="Path 127654" d="M429.034,438.692l0,0a.148.148,0,0,0,.022.006.3.3,0,0,1,.078.013l-.009.007a11.091,11.091,0,0,1,3.768,1.416c7.582,4.453,13.188,13.887,13.456,22.553l.053.751,1.591.9-7.127,3.991c2.011-1.3,3.3-3.744,3.2-6.957a25.093,25.093,0,0,0-11.7-19.616c-5.864-3.437-11.592-.015-11.383,6.642,0,.026,0,.053,0,.079l-1.1.629c-.04-.447-.069-.9-.083-1.339C419.609,441.592,423.856,437.845,429.034,438.692Z" transform="translate(-419.799 -438.573)" fill="#343433"/>
      </g>
      <g id="Group_28540" data-name="Group 28540" transform="translate(308.374 240.785)">
        <path id="Path_127655" data-name="Path 127655" d="M506.8,461.089,525.4,450.376a2.482,2.482,0,0,0,1.128-1.97l.006.623a2.469,2.469,0,0,1-1.124,1.965L506.8,461.71c-.626.365-1.149.074-1.16-.652l-.006-.619C505.648,461.162,506.17,461.454,506.8,461.089Z" transform="translate(-471.783 -414.554)" fill="#fff" opacity="0.5" style="mix-blend-mode: overlay;isolation: isolate"/>
        <path id="Path_127656" data-name="Path 127656" d="M537.3,406.109c2.839-1.658,6.034-3.532,6.034-3.532.778.6.2,1.157-.2,1.463l-4.381,2.514Z" transform="translate(-480.057 -402.577)" fill="#fff" opacity="0.5" style="mix-blend-mode: overlay;isolation: isolate"/>
        <g id="Group_28539" data-name="Group 28539" transform="translate(0 21.651)" opacity="0.5" style="mix-blend-mode: overlay;isolation: isolate">
          <path id="Path_127657" data-name="Path 127657" d="M478.8,437.335s-4.252,2.713-8,.608l-9.384-5.275c5.578,2.757,11.709,6.734,15.036,4.9,1.471-.808,2.26-1.248,4.465-2.493l1.042.44Z" transform="translate(-460.227 -432.092)" fill="#fff"/>
          <path id="Path_127658" data-name="Path 127658" d="M459.836,431.907l-.032-.018a.1.1,0,0,0,.03.015Z" transform="translate(-459.804 -431.889)" fill="#fff"/>
        </g>
        <path id="Path_127659" data-name="Path 127659" d="M523.218,431.794l-44.5,25.529s-4.253,2.709-8,.607l-10.579-5.943c5.877,2.727,12.966,6.771,16.039,5.035,11.041-6.262,47.122-26.684,47.122-26.684C524.076,430.937,523.614,431.487,523.218,431.794Z" transform="translate(-459.891 -409.832)" fill="#fff" opacity="0.5" style="mix-blend-mode: overlay;isolation: isolate"/>
      </g>
      <g id="Group_28542" data-name="Group 28542" transform="translate(277.465 178.509)">
        <path id="Path_127660" data-name="Path 127660" d="M537.392,414.788l1.454.338-.09-7.322-1.456-.444Z" transform="translate(-449.149 -341.551)" opacity="0.1" style="mix-blend-mode: multiply;isolation: isolate"/>
        <path id="Path_127661" data-name="Path 127661" d="M537.164,425.013l6.059-3.434.031,6.47-5.79,3.2s-.909.391-.92-.593l-.053-4.29A1.671,1.671,0,0,1,537.164,425.013Z" transform="translate(-448.937 -345.267)" opacity="0.1" style="mix-blend-mode: multiply;isolation: isolate"/>
        <path id="Path_127662" data-name="Path 127662" d="M477.174,456.969l.329.112a3.049,3.049,0,0,0,2.288-.245l7.9-4.62c.966-.559.955.7.955.7l.047,4.057,0,.205a1.618,1.618,0,0,1-.926,1.419l-7.138,4.1a4.082,4.082,0,0,1-3.38.457Z" transform="translate(-433.435 -353.237)" opacity="0.1" style="mix-blend-mode: multiply;isolation: isolate"/>
        <path id="Path_127663" data-name="Path 127663" d="M471.739,457l3.779,1.281.072,6.152a11.259,11.259,0,0,1-2.087-.763s-1.7-.538-1.9-1.4l-.68-4.362C470.7,456.687,471.739,457,471.739,457Z" transform="translate(-431.794 -354.515)" fill-rule="evenodd" opacity="0.1" style="mix-blend-mode: multiply;isolation: isolate"/>
        <path id="Path_127664" data-name="Path 127664" d="M493.168,471.284a2.89,2.89,0,0,0,1.319-2.315.847.847,0,0,0-1.358-.771,2.63,2.63,0,0,0-.249.176,3.056,3.056,0,0,1,.809-.736.986.986,0,0,1,1.577.89,3.353,3.353,0,0,1-1.532,2.689,1.16,1.16,0,0,1-.8.173A1.265,1.265,0,0,0,493.168,471.284Z" transform="translate(-437.539 -357.255)" opacity="0.2" style="mix-blend-mode: multiply;isolation: isolate"/>
        <path id="Path_127665" data-name="Path 127665" d="M486.587,474.835a2.885,2.885,0,0,0,1.319-2.312.846.846,0,0,0-1.353-.771,2.378,2.378,0,0,0-.253.177,2.981,2.981,0,0,1,.81-.738.979.979,0,0,1,1.573.891,3.339,3.339,0,0,1-1.528,2.684,1.15,1.15,0,0,1-.8.175A2.072,2.072,0,0,0,486.587,474.835Z" transform="translate(-435.82 -358.183)" opacity="0.2" style="mix-blend-mode: multiply;isolation: isolate"/>
        <path id="Path_127666" data-name="Path 127666" d="M537.634,445.527a2.886,2.886,0,0,0,1.318-2.316.846.846,0,0,0-1.353-.771,2.8,2.8,0,0,0-.253.178,3,3,0,0,1,.807-.741.985.985,0,0,1,1.577.894,3.351,3.351,0,0,1-1.533,2.69,1.152,1.152,0,0,1-.792.171A1.206,1.206,0,0,0,537.634,445.527Z" transform="translate(-449.16 -350.522)" opacity="0.2" style="mix-blend-mode: multiply;isolation: isolate"/>
        <path id="Path_127667" data-name="Path 127667" d="M543.386,442.828a2.882,2.882,0,0,0,1.32-2.312.849.849,0,0,0-1.358-.773,1.942,1.942,0,0,0-.25.182,2.993,2.993,0,0,1,.809-.744.986.986,0,0,1,1.576.895,3.356,3.356,0,0,1-1.531,2.689,1.16,1.16,0,0,1-.8.173A1.076,1.076,0,0,0,543.386,442.828Z" transform="translate(-450.664 -349.818)" opacity="0.2" style="mix-blend-mode: multiply;isolation: isolate"/>
        <path id="Path_127668" data-name="Path 127668" d="M471.436,318.267,502.378,335.5c.761.425.793,1.109.069,1.522a3.057,3.057,0,0,1-2.7-.027l-30.96-17.238Z" transform="translate(-431.242 -318.267)" opacity="0.05" style="mix-blend-mode: multiply;isolation: isolate"/>
        <path id="Path_127669" data-name="Path 127669" d="M460.583,324.364l30.828,17.166c.764.424.794,1.107.072,1.52a3.054,3.054,0,0,1-2.7-.021l-30.845-17.174Z" transform="translate(-428.407 -319.86)" opacity="0.05" style="mix-blend-mode: multiply;isolation: isolate"/>
        <path id="Path_127670" data-name="Path 127670" d="M449.56,330.553l30.919,17.222c.761.422.795,1.112.069,1.519a3.058,3.058,0,0,1-2.7-.02l-30.937-17.23Z" transform="translate(-425.525 -321.478)" opacity="0.05" style="mix-blend-mode: multiply;isolation: isolate"/>
        <path id="Path_127671" data-name="Path 127671" d="M438.88,336.55l31.1,17.318c.761.423.793,1.112.069,1.523a3.066,3.066,0,0,1-2.7-.02l-31.12-17.327Z" transform="translate(-422.734 -323.045)" opacity="0.05" style="mix-blend-mode: multiply;isolation: isolate"/>
        <path id="Path_127672" data-name="Path 127672" d="M427.318,343.052l31.02,17.275c.757.421.79,1.109.068,1.521a3.066,3.066,0,0,1-2.7-.026L424.668,344.54Z" transform="translate(-419.712 -324.744)" opacity="0.05" style="mix-blend-mode: multiply;isolation: isolate"/>
        <path id="Path_127673" data-name="Path 127673" d="M421.637,364.744c7.444,3.614,29.048,15.532,29.048,15.532s-21.391-11.267-28.787-14.792c-.873-.41-3.472-1.677-3.42,2.64l-.182,27.321s-.279-23.27-.337-27.986S420.689,364.282,421.637,364.744Z" transform="translate(-417.959 -330.254)" opacity="0.1" style="mix-blend-mode: multiply;isolation: isolate"/>
        <path id="Path_127674" data-name="Path 127674" d="M497.689,449.533l-1.75.948-7.48-18.374Z" transform="translate(-436.384 -348.019)" opacity="0.1" style="mix-blend-mode: multiply;isolation: isolate"/>
        <path id="Path_127675" data-name="Path 127675" d="M534.675,403.167l-1.907,25.242-1.443.824Z" transform="translate(-447.587 -340.455)" opacity="0.1" style="mix-blend-mode: multiply;isolation: isolate"/>
        <g id="Group_28541" data-name="Group 28541" transform="translate(64.936 93.333)">
          <path id="Path_127676" data-name="Path 127676" d="M525.9,449.028c0-.016,0-.033,0-.047l-.033-2.616c-.006-.715-.528-1.011-1.157-.645l-18.609,10.717a1.859,1.859,0,0,0-.238.166,2.439,2.439,0,0,1,.931-1.108l18.608-10.719c.633-.362,1.15-.07,1.16.654l.024,1.985A2.486,2.486,0,0,1,525.9,449.028Z" transform="translate(-505.87 -444.623)" opacity="0.2" style="mix-blend-mode: multiply;isolation: isolate"/>
        </g>
        <path id="Path_127677" data-name="Path 127677" d="M428.117,343.052l31.02,17.275c.733.406.781,1.056.137,1.471.295-.4.148-.874-.441-1.206l-31.106-17.319Z" transform="translate(-420.512 -324.744)" opacity="0.1" style="mix-blend-mode: multiply;isolation: isolate"/>
        <path id="Path_127678" data-name="Path 127678" d="M439.679,336.55l31.1,17.318c.734.411.78,1.06.139,1.471.293-.389.145-.871-.445-1.2l-31.189-17.369Z" transform="translate(-423.533 -323.045)" opacity="0.1" style="mix-blend-mode: multiply;isolation: isolate"/>
        <path id="Path_127679" data-name="Path 127679" d="M450.359,330.553l30.919,17.222c.736.408.783,1.06.139,1.469.295-.391.146-.874-.441-1.2l-31.009-17.272Z" transform="translate(-426.324 -321.478)" opacity="0.1" style="mix-blend-mode: multiply;isolation: isolate"/>
        <path id="Path_127680" data-name="Path 127680" d="M461.381,324.364,492.21,341.53c.737.409.785,1.053.14,1.473.3-.393.148-.877-.444-1.2l-30.913-17.217Z" transform="translate(-429.206 -319.86)" opacity="0.1" style="mix-blend-mode: multiply;isolation: isolate"/>
        <path id="Path_127681" data-name="Path 127681" d="M472.235,318.267,503.177,335.5c.733.41.785,1.056.137,1.472.3-.394.148-.874-.439-1.2l-31.032-17.277Z" transform="translate(-432.041 -318.267)" opacity="0.1" style="mix-blend-mode: multiply;isolation: isolate"/>
      </g>
      <path id="Path_127682" data-name="Path 127682" d="M543.9,381.568l1.343-3.085a1.508,1.508,0,0,1-.4-1.09l-.05-4.281-2.357,1.4-.139-.681,2.486-1.481-.083-6.813a4.175,4.175,0,0,1,1.867-3.292l.576-.334c1.042-.611,1.9-.126,1.918,1.073l.146,12.087a3.937,3.937,0,0,1-1.911,3.212l-.487.261a1.718,1.718,0,0,1-.967.221l-1.716,3.924Z" transform="translate(-172.99 -151.095)" fill="#343433"/>
      <path id="Path_127683" data-name="Path 127683" d="M469.136,384.262a4.037,4.037,0,0,0,1.683.332,5.051,5.051,0,0,0,1.8-.34L520,357.7l.148.726,5.1,24.725-45.334,25.416a12.034,12.034,0,0,1-4.407,1.076,4.409,4.409,0,0,1-2.122-.46l-1.178-.649L468.9,384.137Z" transform="translate(-153.808 -150.063)" fill="#0d1b3a"/>
      <path id="Path_127684" data-name="Path 127684" d="M471.112,385.508a5.583,5.583,0,0,0,2.069-.4l.029-.011.029-.016,46.582-26.108.614-.293,5.1,24.725-2.009-.726-43.832,24.575a11.61,11.61,0,0,1-4.105,1.005,3.7,3.7,0,0,1-1.8-.386l-.886-.482-2.913-22A5.175,5.175,0,0,0,471.112,385.508Z" transform="translate(-154.092 -150.32)" fill="#36464b"/>
      <path id="Path_127685" data-name="Path 127685" d="M544.593,390.135l.3,1.49-.823-.3Z" transform="translate(-173.454 -158.541)" fill="#c6d1d4"/>
      <path id="Path_127686" data-name="Path 127686" d="M541.734,379.063l1.46,7.056-.915,2.091-1.327-.481-1.348-7.4Z" transform="translate(-172.286 -155.647)" fill="#c6d1d4"/>
      <path id="Path_127687" data-name="Path 127687" d="M535.817,359.645l1.207-.674.615-.293,2.966,14.376-2.115,1.257Z" transform="translate(-171.296 -150.32)" fill="#c6d1d4"/>
      <path id="Path_127688" data-name="Path 127688" d="M526.842,361.393l3.5,19.23-.005-.01-1.857,1.029-19.877-6.19-.047-3.815Z" transform="translate(-164.172 -151.029)" fill="#c6d1d4"/>
      <path id="Path_127689" data-name="Path 127689" d="M489.467,383.925l10.309-5.781,2.251,12.2-11.551,6.6Z" transform="translate(-159.182 -155.407)" fill="#445053"/>
      <path id="Path_127690" data-name="Path 127690" d="M473.8,392.7l.029-.011.029-.016,8.816-4.943,2.283,12.375L473.4,406.7l-1.052-13.639A5.354,5.354,0,0,0,473.8,392.7Z" transform="translate(-154.708 -157.912)" fill="#445053"/>
      <g id="Group_28543" data-name="Group 28543" transform="translate(329.954 244.061)">
        <path id="Path_127691" data-name="Path 127691" d="M489.019,407.012h0v0Z" transform="translate(-489.019 -407.012)" fill="#82979e"/>
      </g>
      <path id="Path_127692" data-name="Path 127692" d="M459.726,388.486l3.3,24.394L442.724,401.8l0-.2-.017-1.36-.245-20.394-.011-.78Z" transform="translate(-146.895 -155.647)" fill="#141c1e"/>
      <path id="Path_127693" data-name="Path 127693" d="M459.456,389.357l2.955,21.823-18.375-9.948-.275-20.41Z" transform="translate(-147.237 -156.107)" fill="#263338"/>
      <path id="Path_127694" data-name="Path 127694" d="M433.758,374.822a1.764,1.764,0,0,1,.844.243l3.133,1.71.275,22.742-3.137-1.711a4.158,4.158,0,0,1-1.967-3.239l-.219-18.379C432.677,375.329,433.117,374.825,433.758,374.822Z" transform="translate(-144.343 -154.539)" fill="#141c1e"/>
      <path id="Path_127695" data-name="Path 127695" d="M447.846,419.237c0,.158-.113.218-.247.144l-4.041-2.268a.531.531,0,0,1-.25-.417l-.009-.558c0-.153.109-.222.245-.143l4.042,2.266a.546.546,0,0,1,.253.419Z" transform="translate(-147.117 -165.291)" fill="#323b3d"/>
      <path id="Path_127696" data-name="Path 127696" d="M434.212,376.813c0-.263.046-.708.414-.708l.52.162,3,1.627.244,20.4-2.462-1.335a3.523,3.523,0,0,1-1.624-2.677Z" transform="translate(-144.742 -154.874)" fill="#263338"/>
      <path id="Path_127697" data-name="Path 127697" d="M464.71,409.685l-3.255,1.855-5.777-3.131-1.1-14.2a2.65,2.65,0,0,1,1.209-2.279l3.31-1.9,3.187,1.731Z" transform="translate(-150.062 -158.514)" fill="#445053"/>
      <path id="Path_127698" data-name="Path 127698" d="M452.88,390.7l3.574-2.05,1.882,1.025-3.31,1.9a2.651,2.651,0,0,0-1.209,2.28l1.1,14.2-2.166-1.172-1.079-13.9A2.644,2.644,0,0,1,452.88,390.7Z" transform="translate(-149.304 -158.151)" fill="#202d30"/>
      <path id="Path_127699" data-name="Path 127699" d="M463.89,418.493l3.255-1.855.526,3.9Z" transform="translate(-152.498 -165.467)" fill="#5c6f75"/>
      <path id="Path_127700" data-name="Path 127700" d="M458.51,408.318l.573-.332c1.043-.607,1.909-.126,1.926,1.068l.082,6.963,5.092-3,.011.761-5.1,3,.027,2.252,6.561,6.279.01.922-6.559-6.284.014,1.2a3.947,3.947,0,0,1-1.915,3.215l-.485.261a1.229,1.229,0,0,1-1.969-1.152l-.141-11.859A4.164,4.164,0,0,1,458.51,408.318Z" transform="translate(-150.604 -163.137)" fill="#343433"/>
      <path id="Path_127701" data-name="Path 127701" d="M492.874,468.4a.847.847,0,0,1,1.358.771,2.89,2.89,0,0,1-1.319,2.315,1.258,1.258,0,0,1-.23.106,1,1,0,0,1-.779-1.067,3.345,3.345,0,0,1,.722-1.949A2.663,2.663,0,0,1,492.874,468.4Z" transform="translate(-159.819 -178.953)" fill="#fff"/>
      <path id="Path_127702" data-name="Path 127702" d="M486.3,471.961a.846.846,0,0,1,1.353.771,2.885,2.885,0,0,1-1.319,2.312,2.029,2.029,0,0,1-.23.106,1,1,0,0,1-.78-1.064,3.321,3.321,0,0,1,.723-1.949A2.378,2.378,0,0,1,486.3,471.961Z" transform="translate(-158.099 -179.883)" fill="#fff"/>
      <path id="Path_127703" data-name="Path 127703" d="M537.343,442.649a.846.846,0,0,1,1.353.771,2.886,2.886,0,0,1-1.318,2.316,1.2,1.2,0,0,1-.23.1.988.988,0,0,1-.78-1.064,3.3,3.3,0,0,1,.722-1.949A2.841,2.841,0,0,1,537.343,442.649Z" transform="translate(-171.44 -172.222)" fill="#fff"/>
      <path id="Path_127704" data-name="Path 127704" d="M543.093,439.95a.849.849,0,0,1,1.358.773,2.882,2.882,0,0,1-1.32,2.312,1.071,1.071,0,0,1-.229.109,1,1,0,0,1-.781-1.072,3.305,3.305,0,0,1,.722-1.941A1.943,1.943,0,0,1,543.093,439.95Z" transform="translate(-172.943 -171.517)" fill="#fff"/>
      <path id="Path_127705" data-name="Path 127705" d="M511.133,458.344c0,.439.323.621.708.4l11.372-6.55a1.527,1.527,0,0,0,.691-1.206l-.02-1.6c0-.439-.323-.619-.707-.4L511.8,455.548a1.512,1.512,0,0,0-.691,1.2Z" transform="translate(-164.839 -173.899)" fill="#ec691f"/>
      <path id="Path_127706" data-name="Path 127706" d="M537,427.167l.044,3.707c.011.924.861.56.861.56l5.443-3.085a.268.268,0,0,0,.036-.015l-.066-5.662-5.691,3.217A1.577,1.577,0,0,0,537,427.167Z" transform="translate(-171.606 -167.044)" fill="#fff"/>
      <path id="Path_127707" data-name="Path 127707" d="M472.551,458.238l3.187,1.049.064,5.471a11.267,11.267,0,0,1-2.087-.763s-1.1-.3-1.3-1.172l-.678-3.686C471.517,457.918,472.551,458.238,472.551,458.238Z" transform="translate(-154.54 -176.329)" fill="#e05526" fill-rule="evenodd"/>
      <path id="Path_127708" data-name="Path 127708" d="M477.164,458.1l.308.1a2.951,2.951,0,0,0,2.144-.223l7.419-4.2c.906-.516.893.627.893.627l.044,3.693,0,.047a1.473,1.473,0,0,1-.87,1.292l-6.526,3.695a4.389,4.389,0,0,1-3.35.435Z" transform="translate(-155.967 -175.139)" fill="#fff"/>
      <g id="Group_28544" data-name="Group 28544" transform="translate(330.359 244.966)">
        <path id="Path_127709" data-name="Path 127709" d="M492.182,430.049l29.658-16.844,1.414-4.967-.758,5.945-30.688,17.431-2.24-4.244Z" transform="translate(-489.568 -408.238)" fill="#0d1b3a"/>
        <path id="Path_127710" data-name="Path 127710" d="M532.1,432.38Z" transform="translate(-500.684 -414.548)" fill="#0d1b3a"/>
        <path id="Path_127711" data-name="Path 127711" d="M521.582,436.87l1.78-4.49-.571,4.487L500.357,449.6l-1.69-3.2,2.354,2.142Z" transform="translate(-491.946 -414.548)" fill="#0d1b3a"/>
        <path id="Path_127712" data-name="Path 127712" d="M498.667,451.362Z" transform="translate(-491.946 -419.509)" fill="#0d1b3a"/>
        <path id="Path_127713" data-name="Path 127713" d="M495.2,436.4l26.708-15.207,1.379-4.907-.757,5.942-27.688,15.729,2.584,2.691,23.713-13.465,1.392-4.955-.756,5.945L497.082,442.2l-4.48-8.478Z" transform="translate(-490.361 -410.342)" fill="#0d1b3a"/>
        <path id="Path_127714" data-name="Path 127714" d="M533.122,424.331Z" transform="translate(-500.951 -412.444)" fill="#0d1b3a"/>
      </g>
      <path id="Path_127715" data-name="Path 127715" d="M295.556,361.9l-2.448,1.46a8.655,8.655,0,0,0-5.11,6.3l-3.4,1.9-.09-7.59,7.369-4.138Z" transform="translate(-105.617 -150.621)" fill="#727e84"/>
      <path id="Path_127716" data-name="Path 127716" d="M290.91,359.3l-7.37,4.138-2.735-1.519,7.406-4.133Z" transform="translate(-104.649 -150.086)" fill="#434b50"/>
      <g id="Group_28545" data-name="Group 28545" transform="translate(201.921 218.008)" opacity="0.2" style="mix-blend-mode: multiply;isolation: isolate">
        <path id="Path_127717" data-name="Path 127717" d="M315.687,371.742l17.388,9.775-2.38,1.418c-3.322,1.34-5.568,4.814-5.42,9.592.019.575.062,1.161.12,1.745l-.187.108a13.575,13.575,0,0,0,.063-1.776C325.043,385.179,321.266,377.246,315.687,371.742Z" transform="translate(-315.687 -371.742)" fill="url(#linear-gradient)"/>
      </g>
      <g id="Group_28546" data-name="Group 28546" transform="translate(231.557 234.664)">
        <path id="Path_127718" data-name="Path 127718" d="M355.808,394.291l10.067,5.657.2,16.256-.936.532a13.349,13.349,0,0,0,.063-1.778C364.969,407.618,361.281,399.785,355.808,394.291Z" transform="translate(-355.808 -394.291)" opacity="0.2" fill="url(#linear-gradient-2)" style="mix-blend-mode: multiply;isolation: isolate"/>
      </g>
      <path id="Path_127719" data-name="Path 127719" d="M411.853,413.4l.083,7-1.96,1.72-6.94-3.9Z" transform="translate(-136.594 -164.62)" opacity="0.1" style="mix-blend-mode: multiply;isolation: isolate"/>
      <path id="Path_127720" data-name="Path 127720" d="M70.64,237.165l1.745-.987,71.6,40.234a19.439,19.439,0,0,1,.21,2.211c.108,3.492-1.412,6.1-3.729,7.282l-8.746,4.9a7.982,7.982,0,0,1-7.336-.8,25.328,25.328,0,0,1-11.169-15.682l-5.294,2.964a7.989,7.989,0,0,1-7.335-.8A25.291,25.291,0,0,1,89.9,262.614l-4.246,2.378a7.978,7.978,0,0,1-7.335-.8,25.054,25.054,0,0,1-11.7-19.608C66.511,240.95,68.162,238.282,70.64,237.165Z" transform="translate(-48.673 -118.305)" fill="#343433"/>
      <path id="Path_127721" data-name="Path 127721" d="M73.153,236.761,83.185,242.4a24.95,24.95,0,0,1,6.52,15.308c.206,6.663-5.515,10.084-11.383,6.638a25.053,25.053,0,0,1-11.7-19.608C66.476,239.98,69.358,236.89,73.153,236.761Z" transform="translate(-48.673 -118.457)" fill="#424040"/>
      <path id="Path_127722" data-name="Path 127722" d="M102.938,253.427l10.794,6.067a24.88,24.88,0,0,1,6.12,14.869c.208,6.666-5.517,10.082-11.386,6.642a25.094,25.094,0,0,1-11.7-19.61C96.626,256.79,99.322,253.736,102.938,253.427Z" transform="translate(-56.551 -122.813)" fill="#424040"/>
      <path id="Path_127723" data-name="Path 127723" d="M135.4,271.721l10.273,5.773a24.9,24.9,0,0,1,6.392,15.165c.208,6.666-5.514,10.084-11.382,6.64a25.071,25.071,0,0,1-11.7-19.608C128.84,274.983,131.664,271.907,135.4,271.721Z" transform="translate(-64.971 -127.594)" fill="#424040"/>
      <path id="Path_127724" data-name="Path 127724" d="M248.791,334.487l-1.813,1.319.052,4.557,5.265-3.9Z" transform="translate(-95.809 -143.997)" fill="#343433"/>
      <g id="Group_28547" data-name="Group 28547" transform="translate(18.754 119.793)">
        <path id="Path_127725" data-name="Path 127725" d="M67.717,246.137a23.1,23.1,0,0,0,10.665,18.047c5.348,3.17,10.567.025,10.378-6.111a23.105,23.105,0,0,0-10.668-18.045C72.746,236.859,67.524,240.007,67.717,246.137Z" transform="translate(-67.712 -238.777)" fill="#575656"/>
      </g>
      <g id="Group_28548" data-name="Group 28548" transform="translate(21.67 123.995)">
        <path id="Path_127726" data-name="Path 127726" d="M71.664,249.5a15.8,15.8,0,0,0,7.362,12.345c3.7,2.167,7.3.014,7.169-4.181a15.782,15.782,0,0,0-7.367-12.344C75.139,243.153,71.533,245.309,71.664,249.5Z" transform="translate(-71.66 -244.465)" fill="#cdcccb"/>
      </g>
      <path id="Path_127727" data-name="Path 127727" d="M76.365,244.487c-2.091.221-3.636,2.015-3.555,4.7a14.849,14.849,0,0,0,6.895,11.6c2.788,1.638,5.517.641,6.407-1.867-.553,3.34-3.78,4.858-7.086,2.922A15.8,15.8,0,0,1,71.664,249.5C71.562,246.261,73.691,244.241,76.365,244.487Z" transform="translate(-49.99 -120.471)" fill="#424040"/>
      <g id="Group_28549" data-name="Group 28549" transform="translate(26.785 127.555)">
        <path id="Path_127728" data-name="Path 127728" d="M78.586,251.964a8.421,8.421,0,0,0,3.923,6.576,2.387,2.387,0,0,0,3.815-2.225,8.4,8.4,0,0,0-3.922-6.574A2.387,2.387,0,0,0,78.586,251.964Z" transform="translate(-78.585 -249.285)" fill="#e8e9e8"/>
      </g>
      <g id="Group_28550" data-name="Group 28550" transform="translate(29.727 130.635)">
        <path id="Path_127729" data-name="Path 127729" d="M82.569,254.3a2.661,2.661,0,0,0,1.235,2.07.751.751,0,0,0,1.2-.7,2.64,2.64,0,0,0-1.234-2.072A.752.752,0,0,0,82.569,254.3Z" transform="translate(-82.568 -253.455)" fill="#424040"/>
      </g>
      <g id="Group_28551" data-name="Group 28551" transform="translate(31.939 135.322)">
        <path id="Path_127730" data-name="Path 127730" d="M85.579,260.057a1,1,0,0,0,.276.872.287.287,0,0,0,.5-.159.975.975,0,0,0-.276-.867A.285.285,0,0,0,85.579,260.057Z" transform="translate(-85.563 -259.8)" fill="#424040"/>
      </g>
      <g id="Group_28552" data-name="Group 28552" transform="translate(28.606 128.53)">
        <path id="Path_127731" data-name="Path 127731" d="M81.05,250.926a1.01,1.01,0,0,0,.468.784.287.287,0,0,0,.458-.264,1.007,1.007,0,0,0-.471-.786A.285.285,0,0,0,81.05,250.926Z" transform="translate(-81.05 -250.605)" fill="#424040"/>
      </g>
      <g id="Group_28553" data-name="Group 28553" transform="translate(31.472 129.628)">
        <path id="Path_127732" data-name="Path 127732" d="M85.045,252.152a.66.66,0,0,0-.037.691c.1.228.333.323.456.191a.665.665,0,0,0,.038-.692C85.4,252.113,85.168,252.021,85.045,252.152Z" transform="translate(-84.931 -252.092)" fill="#424040"/>
      </g>
      <g id="Group_28554" data-name="Group 28554" transform="translate(32.773 133.056)">
        <path id="Path_127733" data-name="Path 127733" d="M86.693,256.973a.679.679,0,0,0,.515.476c.241.073.462-.044.433-.222a.691.691,0,0,0-.513-.477C86.886,256.685,86.666,256.8,86.693,256.973Z" transform="translate(-86.691 -256.732)" fill="#424040"/>
      </g>
      <g id="Group_28555" data-name="Group 28555" transform="translate(27.528 131.374)">
        <path id="Path_127734" data-name="Path 127734" d="M79.693,254.965a1.026,1.026,0,0,0,.874.283.281.281,0,0,0,.162-.5,1.02,1.02,0,0,0-.878-.28A.278.278,0,0,0,79.693,254.965Z" transform="translate(-79.59 -254.455)" fill="#424040"/>
      </g>
      <g id="Group_28556" data-name="Group 28556" transform="translate(29.268 134.025)">
        <path id="Path_127735" data-name="Path 127735" d="M82.371,259.11a.985.985,0,0,0,.565-.716.287.287,0,0,0-.421-.318.977.977,0,0,0-.563.711A.287.287,0,0,0,82.371,259.11Z" transform="translate(-81.946 -258.044)" fill="#424040"/>
      </g>
      <path id="Path_127736" data-name="Path 127736" d="M73.9,247.085v-.006l.076-.116C73.946,247,73.922,247.043,73.9,247.085Z" transform="translate(-50.574 -121.123)" fill="#be1e2d" fill-rule="evenodd"/>
      <g id="Group_28557" data-name="Group 28557" transform="translate(41.02 132.094)">
        <path id="Path_127737" data-name="Path 127737" d="M97.861,262.788a23.129,23.129,0,0,0,10.668,18.047c5.351,3.17,10.566.024,10.377-6.109a23.108,23.108,0,0,0-10.667-18.046C102.894,253.512,97.674,256.661,97.861,262.788Z" transform="translate(-97.856 -255.43)" fill="#575656"/>
      </g>
      <g id="Group_28558" data-name="Group 28558" transform="translate(43.94 136.293)">
        <path id="Path_127738" data-name="Path 127738" d="M101.813,266.152a15.771,15.771,0,0,0,7.363,12.341c3.693,2.17,7.3.018,7.163-4.178a15.772,15.772,0,0,0-7.362-12.345C105.285,259.8,101.679,261.957,101.813,266.152Z" transform="translate(-101.809 -261.115)" fill="#cdcccb"/>
      </g>
      <path id="Path_127739" data-name="Path 127739" d="M106.512,261.136c-2.088.222-3.637,2.018-3.553,4.705a14.838,14.838,0,0,0,6.9,11.6c2.785,1.641,5.513.642,6.408-1.869-.557,3.345-3.783,4.861-7.087,2.921a15.771,15.771,0,0,1-7.363-12.341C101.71,262.914,103.838,260.893,106.512,261.136Z" transform="translate(-57.869 -124.822)" fill="#424040"/>
      <g id="Group_28559" data-name="Group 28559" transform="translate(49.055 139.856)">
        <path id="Path_127740" data-name="Path 127740" d="M108.736,268.62a8.411,8.411,0,0,0,3.919,6.571,2.389,2.389,0,0,0,3.818-2.226,8.406,8.406,0,0,0-3.922-6.57A2.386,2.386,0,0,0,108.736,268.62Z" transform="translate(-108.734 -265.939)" fill="#e8e9e8"/>
      </g>
      <g id="Group_28560" data-name="Group 28560" transform="translate(51.997 142.935)">
        <path id="Path_127741" data-name="Path 127741" d="M112.718,270.948a2.649,2.649,0,0,0,1.233,2.075.754.754,0,0,0,1.2-.7,2.653,2.653,0,0,0-1.234-2.071A.751.751,0,0,0,112.718,270.948Z" transform="translate(-112.717 -270.107)" fill="#424040"/>
      </g>
      <g id="Group_28561" data-name="Group 28561" transform="translate(54.207 147.622)">
        <path id="Path_127742" data-name="Path 127742" d="M115.725,276.707a.993.993,0,0,0,.278.871.287.287,0,0,0,.505-.157,1,1,0,0,0-.276-.867A.288.288,0,0,0,115.725,276.707Z" transform="translate(-115.709 -276.452)" fill="#424040"/>
      </g>
      <g id="Group_28562" data-name="Group 28562" transform="translate(50.874 140.831)">
        <path id="Path_127743" data-name="Path 127743" d="M111.2,267.576a1,1,0,0,0,.468.787.285.285,0,0,0,.456-.264,1,1,0,0,0-.469-.787A.285.285,0,0,0,111.2,267.576Z" transform="translate(-111.197 -267.258)" fill="#424040"/>
      </g>
      <g id="Group_28563" data-name="Group 28563" transform="translate(53.74 141.93)">
        <path id="Path_127744" data-name="Path 127744" d="M115.19,268.806a.666.666,0,0,0-.034.7c.1.227.334.315.457.183a.653.653,0,0,0,.032-.691C115.545,268.767,115.313,268.675,115.19,268.806Z" transform="translate(-115.077 -268.746)" fill="#424040"/>
      </g>
      <g id="Group_28564" data-name="Group 28564" transform="translate(55.041 145.355)">
        <path id="Path_127745" data-name="Path 127745" d="M116.839,273.624a.681.681,0,0,0,.515.479c.243.07.459-.046.437-.222a.689.689,0,0,0-.515-.479C117.032,273.335,116.816,273.449,116.839,273.624Z" transform="translate(-116.838 -273.382)" fill="#424040"/>
      </g>
      <g id="Group_28565" data-name="Group 28565" transform="translate(49.797 143.674)">
        <path id="Path_127746" data-name="Path 127746" d="M109.839,271.618a1.012,1.012,0,0,0,.878.282.278.278,0,0,0,.161-.494,1.034,1.034,0,0,0-.876-.287A.282.282,0,0,0,109.839,271.618Z" transform="translate(-109.738 -271.106)" fill="#424040"/>
      </g>
      <g id="Group_28566" data-name="Group 28566" transform="translate(51.537 146.324)">
        <path id="Path_127747" data-name="Path 127747" d="M112.52,275.762a.986.986,0,0,0,.563-.713.286.286,0,0,0-.418-.323.972.972,0,0,0-.564.713A.287.287,0,0,0,112.52,275.762Z" transform="translate(-112.095 -274.695)" fill="#424040"/>
      </g>
      <path id="Path_127748" data-name="Path 127748" d="M104.047,263.733l0-.005.075-.114C104.093,263.652,104.071,263.695,104.047,263.733Z" transform="translate(-58.453 -125.475)" fill="#be1e2d" fill-rule="evenodd"/>
      <g id="Group_28567" data-name="Group 28567" transform="translate(64.818 145.611)">
        <path id="Path_127749" data-name="Path 127749" d="M130.079,281.087a23.122,23.122,0,0,0,10.668,18.047c5.349,3.17,10.565.024,10.377-6.106a23.1,23.1,0,0,0-10.668-18.047C135.109,271.811,129.89,274.96,130.079,281.087Z" transform="translate(-130.074 -273.729)" fill="#575656"/>
      </g>
      <g id="Group_28568" data-name="Group 28568" transform="translate(67.734 149.811)">
        <path id="Path_127750" data-name="Path 127750" d="M134.025,284.45a15.793,15.793,0,0,0,7.367,12.346c3.692,2.166,7.3.014,7.163-4.183a15.768,15.768,0,0,0-7.363-12.342C137.5,278.1,133.9,280.258,134.025,284.45Z" transform="translate(-134.021 -279.415)" fill="#cdcccb"/>
      </g>
      <path id="Path_127751" data-name="Path 127751" d="M138.726,279.439c-2.09.222-3.635,2.015-3.554,4.7a14.856,14.856,0,0,0,6.9,11.6c2.788,1.638,5.516.639,6.406-1.87-.551,3.344-3.78,4.864-7.081,2.925a15.794,15.794,0,0,1-7.367-12.346C133.927,281.214,136.054,279.194,138.726,279.439Z" transform="translate(-66.288 -129.605)" fill="#424040"/>
      <g id="Group_28569" data-name="Group 28569" transform="translate(72.852 153.373)">
        <path id="Path_127752" data-name="Path 127752" d="M140.953,286.918a8.394,8.394,0,0,0,3.921,6.571,2.386,2.386,0,0,0,3.814-2.225,8.4,8.4,0,0,0-3.921-6.571A2.385,2.385,0,0,0,140.953,286.918Z" transform="translate(-140.951 -284.238)" fill="#e8e9e8"/>
      </g>
      <g id="Group_28570" data-name="Group 28570" transform="translate(75.794 156.451)">
        <path id="Path_127753" data-name="Path 127753" d="M144.935,289.253a2.639,2.639,0,0,0,1.233,2.067.753.753,0,0,0,1.2-.7,2.66,2.66,0,0,0-1.235-2.071A.753.753,0,0,0,144.935,289.253Z" transform="translate(-144.934 -288.404)" fill="#424040"/>
      </g>
      <g id="Group_28571" data-name="Group 28571" transform="translate(78.005 161.141)">
        <path id="Path_127754" data-name="Path 127754" d="M147.943,295.011a1,1,0,0,0,.276.868.29.29,0,0,0,.509-.155,1.008,1.008,0,0,0-.277-.869A.288.288,0,0,0,147.943,295.011Z" transform="translate(-147.927 -294.754)" fill="#424040"/>
      </g>
      <g id="Group_28572" data-name="Group 28572" transform="translate(74.671 154.347)">
        <path id="Path_127755" data-name="Path 127755" d="M143.414,285.874a.99.99,0,0,0,.469.787.286.286,0,0,0,.456-.265,1.008,1.008,0,0,0-.469-.785A.285.285,0,0,0,143.414,285.874Z" transform="translate(-143.414 -285.557)" fill="#424040"/>
      </g>
      <g id="Group_28573" data-name="Group 28573" transform="translate(77.537 155.445)">
        <path id="Path_127756" data-name="Path 127756" d="M147.408,287.1a.664.664,0,0,0-.035.694c.1.226.332.317.456.189a.669.669,0,0,0,.035-.7C147.762,287.066,147.53,286.972,147.408,287.1Z" transform="translate(-147.294 -287.043)" fill="#424040"/>
      </g>
      <g id="Group_28574" data-name="Group 28574" transform="translate(78.838 158.873)">
        <path id="Path_127757" data-name="Path 127757" d="M149.057,291.93a.686.686,0,0,0,.515.476c.242.063.459-.048.434-.224a.675.675,0,0,0-.515-.477C149.249,291.634,149.031,291.748,149.057,291.93Z" transform="translate(-149.055 -291.684)" fill="#424040"/>
      </g>
      <g id="Group_28575" data-name="Group 28575" transform="translate(73.592 157.191)">
        <path id="Path_127758" data-name="Path 127758" d="M142.056,289.919a1.03,1.03,0,0,0,.878.284.282.282,0,0,0,.156-.5,1.022,1.022,0,0,0-.878-.282A.281.281,0,0,0,142.056,289.919Z" transform="translate(-141.953 -289.406)" fill="#424040"/>
      </g>
      <g id="Group_28576" data-name="Group 28576" transform="translate(75.331 159.841)">
        <path id="Path_127759" data-name="Path 127759" d="M144.734,294.063a.99.99,0,0,0,.564-.716.288.288,0,0,0-.422-.322.99.99,0,0,0-.564.716A.29.29,0,0,0,144.734,294.063Z" transform="translate(-144.307 -292.994)" fill="#424040"/>
      </g>
      <path id="Path_127760" data-name="Path 127760" d="M136.265,282.033l0-.006.072-.116A1.19,1.19,0,0,0,136.265,282.033Z" transform="translate(-66.874 -130.257)" fill="#be1e2d" fill-rule="evenodd"/>
      <path id="Path_127761" data-name="Path 127761" d="M42.323,118.969,307.275,267.893l.884,73.708L43.207,192.714Z" transform="translate(-42.323 -87.672)" fill="#dfe6ea"/>
      <path id="Path_127762" data-name="Path 127762" d="M100.743,76.6l271.336,144.17-64.8,36.051L42.323,107.935Z" transform="translate(-42.323 -76.599)" fill="#e8ebee"/>
      <path id="Path_127763" data-name="Path 127763" d="M47.2,224.026l13.254,7.449.053,4.562-13.252-7.45Z" transform="translate(-43.598 -115.129)" fill="#8897a0"/>
      <path id="Path_127764" data-name="Path 127764" d="M66.958,232.323l-1.813,1.32.053,4.562,5.259-3.9Z" transform="translate(-48.287 -117.297)" fill="#343433"/>
      <path id="Path_127765" data-name="Path 127765" d="M47.2,223.586l13.254,7.449,1.813-1.32-13.31-7.372Z" transform="translate(-43.598 -114.689)" fill="#434b50"/>
      <path id="Path_127766" data-name="Path 127766" d="M166.015,290.672l59.8,33.683.052,4.557-59.8-33.684Z" transform="translate(-74.649 -132.546)" fill="#8897a0"/>
      <path id="Path_127767" data-name="Path 127767" d="M166.015,290.229l59.8,33.683,1.813-1.319-59.86-33.615Z" transform="translate(-74.649 -132.104)" fill="#434b50"/>
      <path id="Path_127768" data-name="Path 127768" d="M465.823,271.779l.4,33.387-4.784-2.675a1.213,1.213,0,0,0-1.073-.1l-48.951,27.5a.192.192,0,0,1,.041,0c-.357.075-.685.42-.673,1.434l.541,45.069-9.42,5.242-.887-73.8Z" transform="translate(-136.067 -127.609)" fill="#b8bdc1"/>
      <path id="Path_127769" data-name="Path 127769" d="M409.368,328.837l51.706-28.626c1.258-.727,2.3-.134,2.316,1.3l.1,8.585-.46-.259a1.213,1.213,0,0,0-1.073-.1l-48.951,27.5a.191.191,0,0,1,.041,0c-.357.075-.685.42-.673,1.434l.541,45.069-5.16,2.873-.647-53.838A4.964,4.964,0,0,1,409.368,328.837Z" transform="translate(-137.659 -134.958)" opacity="0.1" style="mix-blend-mode: multiply;isolation: isolate"/>
      <path id="Path_127770" data-name="Path 127770" d="M512.947,392.713a33.666,33.666,0,0,1,10.2-5.037,5.084,5.084,0,0,0,.1-.861c.047-2.624-3.187-4.1-6.43-2.868-3.644,1.38-6.281,4.512-6.335,7.481a2.882,2.882,0,0,0,1,2.241C511.981,393.357,512.5,393.021,512.947,392.713Z" transform="translate(-164.672 -156.808)" fill="#3a4448"/>
      <path id="Path_127771" data-name="Path 127771" d="M505.6,395.6l-3.218-.94-11.55,6.595,7.616,2.248,3.525-1.938,2.3-3.741s.992-.575,2.061-1.243A3.025,3.025,0,0,1,505.6,395.6Z" transform="translate(-159.539 -159.724)" fill="#5c6f75"/>
      <path id="Path_127772" data-name="Path 127772" d="M517.423,385.854c-2.672,1.013-4.606,3.317-4.645,5.49a2.146,2.146,0,0,0,.922,1.8,37.033,37.033,0,0,1,8.328-4.413,3.528,3.528,0,0,0,.1-.545c.007-.077.012-.153.014-.225C522.178,386.039,519.8,384.956,517.423,385.854Z" transform="translate(-165.275 -157.338)" fill="#263338"/>
      <path id="Path_127773" data-name="Path 127773" d="M513.763,394.982c1.183-.805,2.325-1.513,3.413-2.132l-.342-.266-3.849,1.425A2.233,2.233,0,0,0,513.763,394.982Z" transform="translate(-165.329 -159.181)" fill="#82979e"/>
      <path id="Path_127774" data-name="Path 127774" d="M516.78,390.985l.342.266c.836-.469,1.638-.874,2.421-1.245l-.166-.31,2.667-2.18a2.177,2.177,0,0,0-.741-1.052l-8.5,4.8c-.011.106-.02.216-.021.321a2.068,2.068,0,0,0,.152.821Z" transform="translate(-165.275 -157.581)" fill="#acbdc3"/>
      <path id="Path_127775" data-name="Path 127775" d="M525.573,413.843h0v0Z" transform="translate(-168.619 -164.737)" fill="#82979e"/>
      <path id="Path_127776" data-name="Path 127776" d="M497.434,399.676l2.3-3.741s2.162-1.252,3.537-2.2c4.835-3.312,8.878-4.984,12.194-5.466a39.588,39.588,0,0,1,4.33-.013l1.365-.837,3.761,2.5L480.6,414.764a11.605,11.605,0,0,1-4.106,1.005,3.73,3.73,0,0,1-1.8-.383l-.883-.48-.349-2.636a2.826,2.826,0,0,0,1.2-.258C479.082,409.8,497.434,399.676,497.434,399.676Z" transform="translate(-154.999 -157.831)" fill="#434f52" fill-rule="evenodd"/>
      <path id="Path_127777" data-name="Path 127777" d="M492.877,406.688l-7.555-2.195-11.553,6.592,7.174,2.109C484.819,411.107,489.48,408.555,492.877,406.688Z" transform="translate(-155.08 -162.293)" fill="#5c6f75"/>
      <path id="Path_127778" data-name="Path 127778" d="M474.432,419.061c1.044-.527,2.878-1.495,5.057-2.665l-6.914-2.006.654,4.929c.188-.007.382-.041.574-.063A2.355,2.355,0,0,0,474.432,419.061Z" transform="translate(-154.768 -164.88)" fill="#5c6f75"/>
      <path id="Path_127779" data-name="Path 127779" d="M523.637,389.624l.822-.756a.5.5,0,0,1,.005-.061c.007-.077.012-.153.014-.225a2.113,2.113,0,0,0-.112-.678l-2.656,2.168.166.31C522.479,390.1,523.068,389.85,523.637,389.624Z" transform="translate(-167.609 -157.958)" fill="#82979e"/>
    </g>
    <g id="Group_25166" data-name="Group 25166" transform="translate(7133.065 -11985.308)">
      <path id="Path_103700" data-name="Path 103700" d="M13.2,0H136.653a13.2,13.2,0,0,1,13.2,13.2v178a13.2,13.2,0,0,1-13.2,13.2H13.2A13.2,13.2,0,0,1,0,191.192V13.2A13.2,13.2,0,0,1,13.2,0Z" transform="translate(2.079 23.178)" fill="#1c1f25"/>
      <path id="Path_103701" data-name="Path 103701" d="M13.2,0H136.653a13.2,13.2,0,0,1,13.2,13.2v178a13.2,13.2,0,0,1-13.2,13.2H13.2A13.2,13.2,0,0,1,0,191.192V13.2A13.2,13.2,0,0,1,13.2,0Z" transform="translate(0 23.178)" fill="#2a2f37"/>
      <path id="Path_99885" data-name="Path 99885" d="M1648.435,1236.613l118.079,2.111a2.709,2.709,0,0,1,2.639,2.639c2.518,59.107,1.1,116.8,5.718,175.211a2.508,2.508,0,0,1-2.639,2.639c-41.265-4.032-80.684-3.331-121.949-5.849a2.721,2.721,0,0,1-2.639-2.64l-1.848-171.473A2.621,2.621,0,0,1,1648.435,1236.613Z" transform="translate(-1631.625 -1198.759)" fill-rule="evenodd" opacity="0.35"/>
      <path id="Path_103702" data-name="Path 103702" d="M2.639,0H118.87a2.639,2.639,0,0,1,2.639,2.639V172.4a2.639,2.639,0,0,1-2.639,2.639H2.639A2.639,2.639,0,0,1,0,172.4V2.639A2.639,2.639,0,0,1,2.639,0Z" transform="translate(14.17 37.855)" fill="#fff"/>
      <path id="Path_99886" data-name="Path 99886" d="M1918.309,881.643h12.519l1.392-.992v-2.675a12.582,12.582,0,0,1,12.545-12.545h0a12.582,12.582,0,0,1,12.545,12.545v2.675l1.5.992h13.58a6.618,6.618,0,0,1,6.6,6.6v16.133a6.618,6.618,0,0,1-6.6,6.6h-54.076a6.618,6.618,0,0,1-6.6-6.6V888.241a6.618,6.618,0,0,1,6.6-6.6Zm26.456-8.135a4.016,4.016,0,1,0,4.016,4.016A4.016,4.016,0,0,0,1944.765,873.508Z" transform="translate(-1870.422 -865.431)" fill="#d3d8dd" fill-rule="evenodd"/>
      <path id="Path_99887" data-name="Path 99887" d="M1978.983,1247.29a6.618,6.618,0,0,1-6.6,6.6h-54.076a6.618,6.618,0,0,1-6.6-6.6Z" transform="translate(-1870.422 -1208.347)" fill="#bcc1c6" fill-rule="evenodd"/>
      <path id="Path_99888" data-name="Path 99888" d="M1771.391,1968.628a2,2,0,0,1,0-4.009h92.293a2,2,0,1,1,0,4.009Zm0-37.59a2,2,0,0,1,0-4.009h92.293a2,2,0,1,1,0,4.009Zm0,25.06a2,2,0,0,1,0-4.009h92.293a2,2,0,1,1,0,4.009Zm0-12.53a2,2,0,0,1,0-4.009h92.293a2,2,0,1,1,0,4.009Zm0,37.59a2,2,0,0,1,0-4.009h92.293a2,2,0,1,1,0,4.009Z" transform="translate(-1742.613 -1834.338)" fill="#2a2f37" fill-rule="evenodd"/>
      <path id="Path_99889" data-name="Path 99889" d="M2456.249,2616.21a2.514,2.514,0,1,1,3.526-3.585l2.809,2.756,5.507-5.471a2.514,2.514,0,0,1,3.546,3.565l-7.269,7.221a2.514,2.514,0,0,1-3.536.01Z" transform="translate(-2358.751 -2431.345)" fill="#ec691f" fill-rule="evenodd"/>
      <path id="Path_99890" data-name="Path 99890" d="M2387.526,2490.953a17.177,17.177,0,1,1-12.145,5.031,17.123,17.123,0,0,1,12.145-5.031Zm0,4.68a12.5,12.5,0,1,0,8.836,3.66,12.456,12.456,0,0,0-8.836-3.66Zm6.946,5.55a9.824,9.824,0,1,0,2.877,6.946,9.793,9.793,0,0,0-2.877-6.946Zm3.309-3.31a14.5,14.5,0,1,0,4.248,10.255A14.457,14.457,0,0,0,2397.781,2497.874Z" transform="translate(-2282.287 -2325.177)" fill="#afc4ff" fill-rule="evenodd"/>
      <path id="Path_99892" data-name="Path 99892" d="M1831.216,2570.567c1.3-2.5,7.1-14.149,11.013-9.644a7.71,7.71,0,0,1,1.391,3.424c1.58-1.727,3.406-2.9,5.276-2.791,3.71.217,2.18,5.2,1.618,7.418-.184.725-.384,1.487-.591,2.256.433-.665.866-1.319,1.28-1.868.44-.583,4.6-6.411,5.563-3.648.43,1.229-.961,3.753-1.446,5.462.55-.42,1.024-.781,1.746-1.432.763-.688,5.3-5.245,5.755-1.677a2.911,2.911,0,0,1,0,.7c3.2-2.313,7.3-5.822,10.546-1.77,1.3,1.616,1.751,1.5,3.712.595a.853.853,0,1,1,.763,1.525c-2.774,1.277-3.974,1.223-5.868-1.137-3.047-3.8-8.23,3.337-10.173,3.229-1.386-.077-.833-1.657-.7-2.6-1.9,1.079-4.868,4.828-6.462,4.827-2.168,0-.763-3.41.049-5.629a32.5,32.5,0,0,0-3.122,3.939c-.376.534-2.886,5.6-4.125,3.684-.8-1.246,3.16-10.53,1.961-12.031a1.629,1.629,0,0,0-.6-.144c-1.669-.1-3.41,1.447-4.857,3.4.542,6.111-.925,14.238-3.642,13.483-1.667-.463-1.751-4.754-1.532-6.178a20.862,20.862,0,0,1,3.391-7.774,9.748,9.748,0,0,0-1.073-3.953c-2.113-3.186-7.736,7.921-8.354,9.109a.853.853,0,0,1-1.519-.775Zm11.111-1.37a18.285,18.285,0,0,0-1.561,3.615,7.146,7.146,0,0,0,.078,5.241C1841.825,2576.478,1842.348,2572.726,1842.326,2569.2Z" transform="translate(-1798.052 -2387.09)" fill="#336698" fill-rule="evenodd"/>
      <path id="Path_99893" data-name="Path 99893" d="M1872.483,1699.745h6.565a1.068,1.068,0,0,1,1.068,1.069v.109a1.069,1.069,0,0,1-1.068,1.069h-4.375v1.676h3.98a1.069,1.069,0,0,1,1.068,1.069h0a1.068,1.068,0,0,1-1.068,1.068h-3.98v2.07h4.534a1.068,1.068,0,0,1,1.068,1.068v.243a1.068,1.068,0,0,1-1.068,1.068h-6.724a1.069,1.069,0,0,1-1.068-1.068v-8.372a1.069,1.069,0,0,1,1.068-1.069Zm-83.626,0h0a1.634,1.634,0,0,1,1.634,1.634v7.242a1.634,1.634,0,0,1-1.634,1.634h0a1.634,1.634,0,0,1-1.634-1.634v-7.242a1.634,1.634,0,0,1,1.634-1.634Zm4.959,0h.961a1.361,1.361,0,0,1,1.124.595l3.543,5.2V1701.1a1.36,1.36,0,0,1,1.36-1.36h.354a1.36,1.36,0,0,1,1.36,1.36v7.789a1.36,1.36,0,0,1-1.36,1.36h-.995a1.36,1.36,0,0,1-1.124-.594l-3.526-5.18v4.414a1.36,1.36,0,0,1-1.36,1.36h-.338a1.36,1.36,0,0,1-1.36-1.36V1701.1a1.36,1.36,0,0,1,1.36-1.36Zm14.38,8.568a2.247,2.247,0,0,0,.472.047,1.56,1.56,0,0,0,1.067-.327.936.936,0,0,0,.025-1.483,4.074,4.074,0,0,0-1.663-.612,7.105,7.105,0,0,1-3.049-1.274,2.555,2.555,0,0,1-.916-2.028,2.694,2.694,0,0,1,.47-1.525,3.117,3.117,0,0,1,1.411-1.131,6.6,6.6,0,0,1,2.587-.411,5.278,5.278,0,0,1,3.083.754,2.732,2.732,0,0,1,.923,1.135.931.931,0,0,1-.792,1.313l-1.2.072a.928.928,0,0,1-.9-.532,1.251,1.251,0,0,0-.347-.463,1.629,1.629,0,0,0-1.075-.327,1.321,1.321,0,0,0-.857.243.721.721,0,0,0-.286.578.6.6,0,0,0,.227.453,2.548,2.548,0,0,0,1.092.385,13.974,13.974,0,0,1,3.049.93,3.15,3.15,0,0,1,1.344,1.165,2.96,2.96,0,0,1,.42,1.55,3.3,3.3,0,0,1-.562,1.869,3.448,3.448,0,0,1-1.562,1.291,6.339,6.339,0,0,1-2.537.444h-.215a5.571,5.571,0,0,1-3.255-.8,2.88,2.88,0,0,1-.975-1.2.983.983,0,0,1,.836-1.387l1.269-.076a.979.979,0,0,1,.952.562,1.319,1.319,0,0,0,.366.489,1.431,1.431,0,0,0,.6.288v0Zm14.806-8.568h0a1.625,1.625,0,0,1,1.625,1.625v4.635a5.016,5.016,0,0,1-.294,1.752,3.788,3.788,0,0,1-.907,1.45,3.67,3.67,0,0,1-1.3.872,6.562,6.562,0,0,1-2.276.352,15.5,15.5,0,0,1-1.68-.109,4.592,4.592,0,0,1-1.52-.427,3.71,3.71,0,0,1-1.109-.905,3.3,3.3,0,0,1-.7-1.207,6.29,6.29,0,0,1-.3-1.777v-4.635a1.625,1.625,0,0,1,1.625-1.625h0a1.625,1.625,0,0,1,1.625,1.625v4.786a1.832,1.832,0,0,0,.479,1.341,2.059,2.059,0,0,0,2.637,0,1.823,1.823,0,0,0,.47-1.341v-4.786a1.625,1.625,0,0,1,1.625-1.625Zm3.432,8.875v-7.242a1.634,1.634,0,0,1,1.634-1.634h3.793a7.736,7.736,0,0,1,2.3.26,2.47,2.47,0,0,1,1.285.956,3.221,3.221,0,0,1,.109,3.218,2.87,2.87,0,0,1-1.025,1.031,4.209,4.209,0,0,1-1.142.419,3.015,3.015,0,0,1,.849.386,3.206,3.206,0,0,1,.512.553,3.584,3.584,0,0,1,.454.654l.769,1.47a1.069,1.069,0,0,1-.947,1.564h-1.277a1.069,1.069,0,0,1-.94-.56l-1.435-2.65a2.528,2.528,0,0,0-.588-.8,1.4,1.4,0,0,0-.8-.243h-.286v2.623a1.634,1.634,0,0,1-1.634,1.634h0a1.634,1.634,0,0,1-1.634-1.634Zm3.267-4.6h1.369a4.7,4.7,0,0,0,.865-.151.844.844,0,0,0,.529-.327.991.991,0,0,0,.2-.612.937.937,0,0,0-.319-.779,1.949,1.949,0,0,0-1.218-.277H1829.7v2.145Zm14.221,4.5h-3.688l-.3.97a1.08,1.08,0,0,1-1.033.765h-.958a1.08,1.08,0,0,1-1.011-1.46l3.007-7.987a1.638,1.638,0,0,1,1.533-1.061h1.293a1.638,1.638,0,0,1,1.534,1.062l3,7.987a1.08,1.08,0,0,1-1.011,1.46h-1.043a1.08,1.08,0,0,1-1.033-.765l-.3-.97Zm-.689-2.271-1.151-3.78-1.151,3.78Zm6.652-6.5h.953a1.36,1.36,0,0,1,1.124.594l3.551,5.206V1701.1a1.36,1.36,0,0,1,1.36-1.36h.346a1.36,1.36,0,0,1,1.36,1.36v7.789a1.36,1.36,0,0,1-1.36,1.36h-.987a1.36,1.36,0,0,1-1.124-.594l-3.526-5.18v4.414a1.36,1.36,0,0,1-1.36,1.36h-.337a1.36,1.36,0,0,1-1.36-1.36V1701.1a1.36,1.36,0,0,1,1.36-1.36Zm12.76,10.182a4.4,4.4,0,0,1-1.873-1.743,5.926,5.926,0,0,1-.8-3.21,5.422,5.422,0,0,1,1.395-4.006,6.339,6.339,0,0,1,7.064-.6,3.971,3.971,0,0,1,.857.832,1.248,1.248,0,0,1-.719,1.977l-.355.079a1.259,1.259,0,0,1-1.275-.478l0,0a1.786,1.786,0,0,0-.664-.57,1.957,1.957,0,0,0-.89-.2,1.919,1.919,0,0,0-1.7.88,3.807,3.807,0,0,0-.445,2.07,3.923,3.923,0,0,0,.529,2.388,1.852,1.852,0,0,0,1.5.645,1.914,1.914,0,0,0,1.671-.771l0,0a1.258,1.258,0,0,1,1.275-.478l.355.078a1.248,1.248,0,0,1,.719,1.977,3.971,3.971,0,0,1-.857.832A6.514,6.514,0,0,1,1862.645,1709.927Z" transform="translate(-1758.63 -1636.474)" fill="#2a2f37" fill-rule="evenodd"/>
    </g>
    <g id="Group_25167" data-name="Group 25167" transform="translate(7086.501 -11902.07)">
      <path id="Path_99895" data-name="Path 99895" d="M926.738,1682.69c-14.761,9.766-32.3,15.756-49.786,18.44a3.174,3.174,0,0,0-2.69,3.213c.845,33.963,7.427,71.949,33.071,96.083a86.407,86.407,0,0,0,20.578,14.243,2.979,2.979,0,0,0,1.407.344h9.741c10.742-9.158,43.485-37.536,45.314-110.67a3.174,3.174,0,0,0-2.689-3.213c-10.9-1.669-42.624-5.741-42.625-19.516h-9.114c-1.607.009-1.747.125-3.207,1.076Z" transform="translate(-874.262 -1681.614)" fill="#ff975d" fill-rule="evenodd"/>
      <path id="Path_99896" data-name="Path 99896" d="M876.952,1872.976a3.174,3.174,0,0,0-2.69,3.214H884l2.689-3.214Z" transform="translate(-874.262 -1853.46)" fill="#ff975d" fill-rule="evenodd"/>
      <path id="Path_99897" data-name="Path 99897" d="M874.268,1904.486c.845,33.963,7.427,71.949,33.071,96.083a86.4,86.4,0,0,0,20.577,14.243,2.982,2.982,0,0,0,1.407.343h9.741c2.048-1.763,4.91-4.212,8.209-7.551-5.269-22.762-35.682-87.55-56.041-103.119Z" transform="translate(-874.267 -1881.757)" fill="#ff975d" fill-rule="evenodd"/>
      <path id="Path_99898" data-name="Path 99898" d="M1023.065,1682.224c-14.933,10.078-32.79,16.24-50.6,18.97a3.147,3.147,0,0,0-2.689,3.214c.844,33.963,7.412,71.949,33.071,96.083a86.1,86.1,0,0,0,20.577,14.244,3.091,3.091,0,0,0,2.815,0,86.315,86.315,0,0,0,20.562-14.244c25.66-24.134,32.227-62.121,33.071-96.083a3.147,3.147,0,0,0-2.674-3.214c-17.81-2.73-35.682-8.892-50.615-18.97a3.143,3.143,0,0,0-3.518,0Z" transform="translate(-960.034 -1681.678)" fill="#ffd7c1" fill-rule="evenodd"/>
      <path id="Path_99899" data-name="Path 99899" d="M1092.759,1764.687c-14.26,9.067-30.713,14.922-47.334,17.907,1.169,30.612,7.462,65.18,30.56,86.9a78.107,78.107,0,0,0,16.781,11.953,78.143,78.143,0,0,0,16.767-11.953c23.1-21.721,29.391-56.29,30.56-86.9C1123.476,1779.6,1107.017,1773.752,1092.759,1764.687Z" transform="translate(-1027.969 -1756.215)" fill="#ff975d" fill-rule="evenodd"/>
      <path id="Path_99900" data-name="Path 99900" d="M1238.711,2142.263l-19.611-28.007a3.111,3.111,0,0,1,.764-4.333l6.823-4.778a3.112,3.112,0,0,1,4.333.764l11.1,15.858,27.739-33.058a3.111,3.111,0,0,1,4.383-.384l6.381,5.354a3.111,3.111,0,0,1,.383,4.384l-37.272,44.42A3.171,3.171,0,0,1,1238.711,2142.263Z" transform="translate(-1183.426 -2046.194)" fill="#ffc4a4" fill-rule="evenodd"/>
      <path id="Path_99901" data-name="Path 99901" d="M1264.982,2142.263l-19.611-28.007a3.111,3.111,0,0,1,.764-4.333l6.823-4.778a3.112,3.112,0,0,1,4.333.764l11.1,15.858,27.739-33.058a3.111,3.111,0,0,1,4.383-.384l6.38,5.354a3.111,3.111,0,0,1,.383,4.384l-37.272,44.42A3.171,3.171,0,0,1,1264.982,2142.263Z" transform="translate(-1207.019 -2046.194)" fill="#fff" fill-rule="evenodd"/>
    </g>
  </g>
</svg>
