<svg xmlns="http://www.w3.org/2000/svg" width="512" height="512" viewBox="0 0 512 512">
  <g id="img_integrated" transform="translate(-2253 -6796)">
    <g id="Group_2075" data-name="Group 2075" transform="translate(2334 6877)">
      <g id="Group_2074" data-name="Group 2074">
        <path id="Path_4945" data-name="Path 4945" d="M179.964,217.235a5.536,5.536,0,0,0-7.375-2.628,88.157,88.157,0,0,1-14,5.238,5.533,5.533,0,0,0-3.936,4.246l-5.857,29.282a6.224,6.224,0,0,1-6.087,4.99H126.729a6.224,6.224,0,0,1-6.087-4.99l-5.857-29.282a5.537,5.537,0,0,0-3.936-4.246,87.964,87.964,0,0,1-19.443-8.056,5.537,5.537,0,0,0-5.788.217l-24.85,16.566a6.226,6.226,0,0,1-7.833-.776l-11.3-11.3a6.226,6.226,0,0,1-.776-7.833l16.566-24.85a5.534,5.534,0,0,0,.217-5.788,87.94,87.94,0,0,1-8.056-19.443,5.533,5.533,0,0,0-4.246-3.936L16.061,148.79a6.224,6.224,0,0,1-4.99-6.087V126.727a6.224,6.224,0,0,1,4.99-6.087l29.282-5.857a5.536,5.536,0,0,0,4.246-3.936A87.965,87.965,0,0,1,57.645,91.4a5.537,5.537,0,0,0-.217-5.788L40.863,60.768a6.225,6.225,0,0,1,.776-7.833l11.3-11.3a6.226,6.226,0,0,1,7.833-.776l24.85,16.566a5.536,5.536,0,0,0,5.788.217,87.965,87.965,0,0,1,19.443-8.056,5.533,5.533,0,0,0,3.936-4.246l5.857-29.282a6.224,6.224,0,0,1,6.087-4.99h15.977a6.224,6.224,0,0,1,6.087,4.99l5.857,29.282a5.537,5.537,0,0,0,3.936,4.246,87.965,87.965,0,0,1,19.443,8.056,5.537,5.537,0,0,0,5.788-.217l24.85-16.566a6.226,6.226,0,0,1,7.833.776l11.3,11.3a6.226,6.226,0,0,1,.776,7.833l-16.566,24.85a5.534,5.534,0,0,0-.217,5.788,87.966,87.966,0,0,1,8.056,19.443,5.533,5.533,0,0,0,4.246,3.936l29.282,5.857a6.224,6.224,0,0,1,4.99,6.087v15.977a6.224,6.224,0,0,1-4.99,6.087l-29.282,5.857a5.536,5.536,0,0,0-4.246,3.938,88.118,88.118,0,0,1-5.4,14.336,5.536,5.536,0,1,0,9.982,4.79,99.3,99.3,0,0,0,5.1-12.859l26.018-5.2a17.329,17.329,0,0,0,13.888-16.946V126.729a17.327,17.327,0,0,0-13.891-16.945l-26.017-5.2a99.065,99.065,0,0,0-6.461-15.593l14.719-22.078a17.327,17.327,0,0,0-2.159-21.8l-11.3-11.3a17.328,17.328,0,0,0-21.8-2.159L180.446,46.367a99.135,99.135,0,0,0-15.593-6.461l-5.2-26.017A17.324,17.324,0,0,0,142.706,0H126.729a17.327,17.327,0,0,0-16.945,13.891l-5.2,26.017a99.068,99.068,0,0,0-15.593,6.461L66.911,31.65a17.327,17.327,0,0,0-21.8,2.159l-11.3,11.3a17.328,17.328,0,0,0-2.159,21.8L46.369,88.99a99.106,99.106,0,0,0-6.461,15.593l-26.018,5.2A17.326,17.326,0,0,0,0,126.73v15.977a17.327,17.327,0,0,0,13.891,16.945l26.017,5.2a99.057,99.057,0,0,0,6.461,15.593L31.65,202.526a17.327,17.327,0,0,0,2.159,21.8l11.3,11.3a17.328,17.328,0,0,0,21.8,2.159L88.99,223.069a99.109,99.109,0,0,0,15.593,6.461l5.2,26.018a17.326,17.326,0,0,0,16.944,13.889h15.977a17.327,17.327,0,0,0,16.945-13.891l5.2-26.017a99.184,99.184,0,0,0,12.483-4.917A5.537,5.537,0,0,0,179.964,217.235Z" fill="#0d1b3a"/>
        <path id="Path_4946" data-name="Path 4946" d="M223.91,198.839a5.532,5.532,0,0,0,7.452-2.4,62.239,62.239,0,0,0-98.846-72.926,5.536,5.536,0,1,0,7.728,7.928,51.171,51.171,0,0,1,81.265,59.946A5.536,5.536,0,0,0,223.91,198.839Z" transform="translate(-41.237 -33.358)" fill="#ec691f"/>
        <path id="Path_4947" data-name="Path 4947" d="M116.253,161.986a5.535,5.535,0,0,0-7.036,3.434,62.247,62.247,0,0,0,95.326,70.691,5.537,5.537,0,1,0-6.494-8.969,51.186,51.186,0,0,1-78.363-58.121A5.534,5.534,0,0,0,116.253,161.986Z" transform="translate(-33.359 -50.957)" fill="#ec691f"/>
        <path id="Path_4948" data-name="Path 4948" d="M418.115,320.1l-16.009-3.2a66.969,66.969,0,0,0-3.511-8.473l9.058-13.586A13.289,13.289,0,0,0,406,278.113l-7.424-7.424a13.291,13.291,0,0,0-16.724-1.656l-13.586,9.058a66.876,66.876,0,0,0-8.474-3.51l-3.2-16.009a13.289,13.289,0,0,0-13-10.655h-10.5a13.29,13.29,0,0,0-13,10.655l-3.2,16.009a67.075,67.075,0,0,0-8.473,3.51l-13.586-9.058a13.29,13.29,0,0,0-16.724,1.656l-7.424,7.424a13.29,13.29,0,0,0-1.656,16.724l9.058,13.586a66.915,66.915,0,0,0-4.523,11.763,5.537,5.537,0,0,0,10.664,2.984,55.867,55.867,0,0,1,5.12-12.356,5.537,5.537,0,0,0-.217-5.788L278.246,288.7a2.187,2.187,0,0,1,.273-2.752l7.424-7.424a2.19,2.19,0,0,1,2.752-.273l16.33,10.887a5.536,5.536,0,0,0,5.788.217,55.878,55.878,0,0,1,12.357-5.12,5.533,5.533,0,0,0,3.936-4.246l3.848-19.242a2.187,2.187,0,0,1,2.139-1.753h10.5a2.188,2.188,0,0,1,2.139,1.753l3.848,19.243a5.536,5.536,0,0,0,3.936,4.246,55.87,55.87,0,0,1,12.356,5.12,5.537,5.537,0,0,0,5.788-.217l16.33-10.887a2.186,2.186,0,0,1,2.752.273l7.424,7.424a2.189,2.189,0,0,1,.273,2.752l-10.887,16.33a5.535,5.535,0,0,0-.217,5.788,55.879,55.879,0,0,1,5.12,12.356,5.533,5.533,0,0,0,4.246,3.936l19.242,3.848a2.187,2.187,0,0,1,1.753,2.139v10.5a2.188,2.188,0,0,1-1.753,2.139L396.7,349.581a5.537,5.537,0,0,0-4.246,3.936,55.868,55.868,0,0,1-5.12,12.357,5.537,5.537,0,0,0,.217,5.788l10.887,16.33a2.187,2.187,0,0,1-.273,2.752l-7.424,7.424a2.188,2.188,0,0,1-2.752.273l-16.33-10.887a5.537,5.537,0,0,0-5.788-.217,55.88,55.88,0,0,1-12.357,5.12,5.533,5.533,0,0,0-3.936,4.246l-3.848,19.242a2.187,2.187,0,0,1-2.139,1.753h-10.5a2.188,2.188,0,0,1-2.139-1.753L327.1,396.7a5.537,5.537,0,0,0-3.936-4.246,55.87,55.87,0,0,1-12.357-5.12,5.537,5.537,0,0,0-5.788.217l-16.33,10.887a2.186,2.186,0,0,1-2.752-.273l-7.424-7.424a2.189,2.189,0,0,1-.273-2.752l10.887-16.33a5.534,5.534,0,0,0,.217-5.788,55.881,55.881,0,0,1-5.12-12.356,5.533,5.533,0,0,0-4.246-3.936l-19.242-3.848a2.187,2.187,0,0,1-1.753-2.139v-10.5a2.188,2.188,0,0,1,1.753-2.139l1.178-.236a5.536,5.536,0,1,0-2.173-10.857l-1.178.236a13.291,13.291,0,0,0-10.653,13v10.5a13.29,13.29,0,0,0,10.655,13l16.009,3.2a67.066,67.066,0,0,0,3.51,8.473l-9.058,13.586a13.289,13.289,0,0,0,1.656,16.724L278.111,406a13.29,13.29,0,0,0,16.724,1.656l13.586-9.058a66.864,66.864,0,0,0,8.473,3.51l3.2,16.009a13.292,13.292,0,0,0,13,10.655h10.5a13.29,13.29,0,0,0,13-10.655l3.2-16.009a66.975,66.975,0,0,0,8.473-3.511l13.586,9.058A13.29,13.29,0,0,0,398.573,406L406,398.573a13.29,13.29,0,0,0,1.656-16.724L398.6,368.264a66.868,66.868,0,0,0,3.51-8.473l16.009-3.2a13.289,13.289,0,0,0,10.654-13v-10.5A13.288,13.288,0,0,0,418.115,320.1Z" transform="translate(-78.134 -78.135)" fill="#0d1b3a"/>
        <path id="Path_4949" data-name="Path 4949" d="M365.69,345.759A19.953,19.953,0,0,1,385.62,365.69a5.536,5.536,0,1,0,11.072,0,31,31,0,1,0-31,31,30.715,30.715,0,0,0,18.942-6.457,5.537,5.537,0,1,0-6.77-8.763,19.739,19.739,0,0,1-12.172,4.147,19.931,19.931,0,1,1,0-39.862Z" transform="translate(-105.481 -105.481)" fill="#ec691f"/>
        <path id="Path_4950" data-name="Path 4950" d="M214.923,181.193a33.73,33.73,0,1,0-33.73,33.73A33.769,33.769,0,0,0,214.923,181.193Zm-56.388,0a22.658,22.658,0,1,1,22.658,22.658A22.684,22.684,0,0,1,158.535,181.193Z" transform="translate(-46.475 -46.475)" fill="#0d1b3a"/>
      </g>
    </g>
    <g id="Path_64277" data-name="Path 64277" transform="translate(2253 6796)" fill="none">
      <path d="M256,0C397.385,0,512,114.615,512,256S397.385,512,256,512,0,397.385,0,256,114.615,0,256,0Z" stroke="none"/>
      <path d="M 256 12 C 121.4579162597656 12 12 121.4579162597656 12 256 C 12 390.5420837402344 121.4579162597656 500 256 500 C 390.5420837402344 500 500 390.5420837402344 500 256 C 500 121.4579162597656 390.5420837402344 12 256 12 M 256 0 C 397.3848571777344 0 512 114.6150817871094 512 256 C 512 397.3848571777344 397.3848571777344 512 256 512 C 114.6150817871094 512 0 397.3848571777344 0 256 C 0 114.6150817871094 114.6150817871094 0 256 0 Z" stroke="none" fill="#0d1b3a"/>
    </g>
  </g>
</svg>
