<svg xmlns="http://www.w3.org/2000/svg" xmlns:xlink="http://www.w3.org/1999/xlink" width="312.309" height="199.781" viewBox="0 0 312.309 199.781">
  <defs>
    <linearGradient id="linear-gradient" x1="-0.29" y1="0.375" x2="1.058" y2="-0.854" gradientUnits="objectBoundingBox">
      <stop offset="0" stop-color="#fff"/>
      <stop offset="0.439" stop-color="#fff" stop-opacity="0.667"/>
      <stop offset="0.628" stop-color="#fff" stop-opacity="0.263"/>
      <stop offset="1" stop-color="#fff" stop-opacity="0"/>
    </linearGradient>
    <linearGradient id="linear-gradient-2" x1="-313.847" y1="0.1" x2="-314.278" y2="0.83" gradientUnits="objectBoundingBox">
      <stop offset="0" stop-color="#333"/>
      <stop offset="1" stop-color="#193fa4"/>
    </linearGradient>
    <linearGradient id="linear-gradient-3" x1="-66.548" y1="0.382" x2="-66.635" y2="0.612" gradientUnits="objectBoundingBox">
      <stop offset="0" stop-color="#333"/>
      <stop offset="1" stop-color="#0f0f0f"/>
    </linearGradient>
    <linearGradient id="linear-gradient-4" x1="-55.872" y1="0.289" x2="-56.014" y2="0.619" gradientUnits="objectBoundingBox">
      <stop offset="0" stop-color="#333"/>
      <stop offset="1"/>
    </linearGradient>
    <linearGradient id="linear-gradient-5" x1="-144.109" y1="0.115" x2="-144.568" y2="0.908" gradientUnits="objectBoundingBox">
      <stop offset="0" stop-color="#131313"/>
      <stop offset="1"/>
    </linearGradient>
    <linearGradient id="linear-gradient-6" x1="1" y1="0.5" x2="0" y2="0.5" gradientUnits="objectBoundingBox">
      <stop offset="0" stop-color="#e6e6e6"/>
      <stop offset="1" stop-color="#e1e1e1"/>
    </linearGradient>
    <linearGradient id="linear-gradient-7" x1="56.483" y1="0.138" x2="55.531" y2="0.929" gradientUnits="objectBoundingBox">
      <stop offset="0" stop-color="#c2c1c1"/>
      <stop offset="1" stop-color="#dfdedd"/>
    </linearGradient>
    <linearGradient id="linear-gradient-8" x1="73.475" y1="0.138" x2="72.523" y2="0.929" xlink:href="#linear-gradient-7"/>
    <linearGradient id="linear-gradient-9" y1="0.5" x2="1.35" y2="0.5" gradientUnits="objectBoundingBox">
      <stop offset="0" stop-color="#ff975d"/>
      <stop offset="1" stop-color="#ffd4bc"/>
    </linearGradient>
    <linearGradient id="linear-gradient-10" y1="0.5" x2="1.35" y2="0.5" gradientUnits="objectBoundingBox">
      <stop offset="0" stop-color="#95b4f9"/>
      <stop offset="1" stop-color="#d9e5ff"/>
    </linearGradient>
    <linearGradient id="linear-gradient-11" y1="0.5" x2="1.35" y2="0.5" gradientUnits="objectBoundingBox">
      <stop offset="0" stop-color="#f9d0ba"/>
      <stop offset="1" stop-color="#fff"/>
    </linearGradient>
  </defs>
  <g id="img_fleet_manager" transform="translate(-644.903 -855)">
    <path id="Path_96787" data-name="Path 96787" d="M-3712.952-8077.454c36.9,32.716,91.538,62.781,59.046,84.656s-75.141,26.588-137.655,12.8-109.911-32.021-112.4-67.938,29.4-70.84,89.991-75.731S-3749.856-8110.17-3712.952-8077.454Z" transform="translate(4549 9027)" fill="#333" opacity="0.06"/>
    <g id="Group_18133" data-name="Group 18133" transform="translate(770.295 855)">
      <ellipse id="Ellipse_793" data-name="Ellipse 793" cx="68.015" cy="39.27" rx="68.015" ry="39.27" transform="translate(15.546 77.362)" fill="#e8566a"/>
      <path id="Path_84429" data-name="Path 84429" d="M297.085,366.386c35.035-20.228,35.036-53.023,0-73.251s-91.835-20.228-126.869,0-35.034,53.023,0,73.251S262.051,386.613,297.085,366.386Z" transform="translate(-142.342 -196.915)" fill="#cfcfcf"/>
      <path id="Path_84430" data-name="Path 84430" d="M205.759,258.068c32.633-18.841,85.542-18.841,118.174,0,16.421,9.48,24.576,21.925,24.47,34.351v14.292c-.058,12.3-8.214,24.593-24.47,33.979-32.633,18.841-85.541,18.841-118.174,0-16.189-9.346-24.343-21.574-24.469-33.824V292.182C181.288,279.835,189.443,267.488,205.759,258.068Z" transform="translate(-181.284 -175.551)" fill="#ffc29f"/>
      <path id="Path_84431" data-name="Path 84431" d="M323.926,326.3c32.633-18.841,32.634-49.388,0-68.229s-85.541-18.841-118.174,0-32.633,49.388,0,68.229S291.293,345.138,323.926,326.3Z" transform="translate(-181.278 -175.551)" fill="#fff4ee"/>
      <ellipse id="Ellipse_794" data-name="Ellipse 794" cx="68.015" cy="39.27" rx="68.015" ry="39.27" transform="translate(15.546 77.362)" fill="#fff"/>
      <path id="Path_84432" data-name="Path 84432" d="M339.164,284.977c-26.561-15.336-69.626-15.336-96.188,0-12.087,6.978-18.671,15.93-19.758,25.058-1.3-10.933,5.283-22.12,19.758-30.478,26.561-15.335,69.627-15.336,96.188,0,14.476,8.357,21.06,19.545,19.759,30.477C357.835,300.906,351.251,291.955,339.164,284.977Z" transform="translate(-207.508 -190.694)" fill="#e5c1b1"/>
      <path id="Path_84433" data-name="Path 84433" d="M225.326,369.323l34.4-32.961L316.817,316.5l-17.429,16.7,38.852,10.717c-2.038,7.429-7.779,14.584-17.22,20.475L284.356,347.6l-1.942,1.86Z" transform="translate(-187.51 -221.109)" fill="#ec691f" opacity="0.24"/>
      <path id="Path_84434" data-name="Path 84434" d="M282.89,355.428l34.4-32.961L374.381,302.6l-34.4,32.961Z" transform="translate(-245.073 -212.385)" fill="#ffa97a"/>
      <g id="Group_16579" data-name="Group 16579" transform="translate(69.619 100.727)">
        <path id="Path_84435" data-name="Path 84435" d="M385.275,358.339c6.176-3.566,6.176-9.349,0-12.915s-16.192-3.566-22.369,0-6.177,9.349,0,12.915S379.1,361.905,385.275,358.339Z" transform="translate(-358.273 -338.317)" fill="#438be3" opacity="0.2" style="mix-blend-mode: multiply;isolation: isolate"/>
        <path id="Path_84436" data-name="Path 84436" d="M385.275,352.105c6.176-3.567,6.176-9.349,0-12.915s-16.192-3.566-22.369,0-6.177,9.348,0,12.915S379.1,355.671,385.275,352.105Z" transform="translate(-358.273 -334.403)" fill="#c7deeb"/>
        <path id="Path_84437" data-name="Path 84437" d="M385.275,346.43c6.176-3.566,6.176-9.348,0-12.915s-16.192-3.567-22.369,0-6.177,9.348,0,12.915S379.1,350,385.275,346.43Z" transform="translate(-358.273 -330.84)" fill="#fff"/>
      </g>
      <g id="Group_16580" data-name="Group 16580" transform="translate(17.201 84.315)">
        <path id="Path_84438" data-name="Path 84438" d="M315.882,303.6l3.321-3.321c.188.062.379.119.565.182l-3.321,3.321C316.261,303.714,316.07,303.657,315.882,303.6Z" transform="translate(-219.94 -295.237)" fill="#d19475"/>
        <path id="Path_84439" data-name="Path 84439" d="M358.929,293.841l1.719-3.7c.182.027.362.056.543.085l-1.719,3.7C359.292,293.9,359.111,293.868,358.929,293.841Z" transform="translate(-277.383 -288.872)" fill="#d19475"/>
        <path id="Path_84440" data-name="Path 84440" d="M405.1,290.573v-3.834h.529v3.834Z" transform="translate(-339 -286.739)" fill="#d19475"/>
        <path id="Path_84441" data-name="Path 84441" d="M233.239,363.36l6.417-.993c.079.166.154.333.229.5l-6.416.993C233.394,363.692,233.319,363.526,233.239,363.36Z" transform="translate(-109.301 -334.221)" fill="#d19475"/>
        <path id="Path_84442" data-name="Path 84442" d="M250.791,339.555l5.753-1.918c.141.139.278.279.416.419l-5.753,1.918C251.07,339.833,250.933,339.694,250.791,339.555Z" transform="translate(-132.908 -318.695)" fill="#d19475"/>
        <path id="Path_84443" data-name="Path 84443" d="M523.514,319.345c-.089.051-.174.1-.262.155l-4.7-2.712c.087-.051.173-.1.261-.155s.182-.1.271-.149l4.7,2.712C523.7,319.248,523.6,319.294,523.514,319.345Z" transform="translate(-499.383 -305.414)" fill="#d19475"/>
        <path id="Path_84444" data-name="Path 84444" d="M448.327,293.924l-1.719-3.7.543-.084,1.719,3.7C448.688,293.867,448.508,293.9,448.327,293.924Z" transform="translate(-397.693 -288.872)" fill="#d19475"/>
        <path id="Path_84445" data-name="Path 84445" d="M566.937,363.856l-6.416-.993c.075-.167.15-.333.229-.5l6.418.993C567.088,363.523,567.013,363.69,566.937,363.856Z" transform="translate(-558.384 -334.219)" fill="#d19475"/>
        <path id="Path_84446" data-name="Path 84446" d="M550,339.972l-5.753-1.918c.138-.14.275-.28.416-.419l5.753,1.918C550.278,339.692,550.142,339.832,550,339.972Z" transform="translate(-535.582 -318.693)" fill="#d19475"/>
        <path id="Path_84447" data-name="Path 84447" d="M488.613,303.777l-3.322-3.322c.187-.063.378-.12.566-.182l3.321,3.321C488.99,303.656,488.8,303.714,488.613,303.777Z" transform="translate(-452.397 -295.236)" fill="#d19475"/>
        <path id="Path_84448" data-name="Path 84448" d="M227.5,388.976h6.642q0,.265,0,.529H227.5Q227.5,389.24,227.5,388.976Z" transform="translate(-101.42 -350.927)" fill="#d19475"/>
        <path id="Path_84449" data-name="Path 84449" d="M279.287,319.346c-.089-.051-.182-.1-.271-.149l4.7-2.711c.09.051.182.1.271.149s.174.1.261.155l-4.7,2.711Z" transform="translate(-170.696 -305.415)" fill="#d19475"/>
        <path id="Path_84450" data-name="Path 84450" d="M233.47,413l6.416.993c-.075.166-.15.333-.229.5l-6.417-.993C233.319,413.332,233.394,413.165,233.47,413Z" transform="translate(-109.302 -366.009)" fill="#d19475"/>
        <path id="Path_84451" data-name="Path 84451" d="M523.512,454.941c.089.051.182.1.271.149l-4.7,2.711c-.089-.051-.183-.1-.272-.149s-.173-.1-.26-.154l4.7-2.712C523.338,454.838,523.423,454.89,523.512,454.941Z" transform="translate(-499.38 -392.246)" fill="#d19475"/>
        <path id="Path_84452" data-name="Path 84452" d="M489.177,469.869l-3.321,3.322c-.188-.062-.378-.119-.565-.182l3.321-3.321C488.8,469.75,488.99,469.807,489.177,469.869Z" transform="translate(-452.397 -401.601)" fill="#d19475"/>
        <path id="Path_84453" data-name="Path 84453" d="M550.42,435.877l-5.753,1.918c-.142-.139-.279-.279-.416-.419L550,435.459C550.142,435.6,550.278,435.739,550.42,435.877Z" transform="translate(-535.582 -380.111)" fill="#d19475"/>
        <path id="Path_84454" data-name="Path 84454" d="M567.167,413.5l-6.418.993c-.078-.166-.153-.333-.229-.5l6.416-.993C567.013,413.165,567.088,413.332,567.167,413.5Z" transform="translate(-558.384 -366.01)" fill="#d19475"/>
        <path id="Path_84455" data-name="Path 84455" d="M572.914,388.976q0,.265,0,.529h-6.642q0-.265,0-.529Z" transform="translate(-566.27 -350.927)" fill="#d19475"/>
        <path id="Path_84456" data-name="Path 84456" d="M448.868,479.143l-1.719,3.7c-.182-.027-.362-.056-.543-.084l1.719-3.7Z" transform="translate(-397.69 -407.485)" fill="#d19475"/>
        <path id="Path_84457" data-name="Path 84457" d="M279.287,454.942l.261-.155,4.7,2.712c-.087.051-.173.1-.261.154s-.182.1-.271.149l-4.7-2.711C279.1,455.04,279.2,454.993,279.287,454.942Z" transform="translate(-170.696 -392.246)" fill="#d19475"/>
        <path id="Path_84458" data-name="Path 84458" d="M251.208,435.459l5.752,1.918c-.138.14-.275.279-.416.419l-5.753-1.918C250.934,435.739,251.071,435.6,251.208,435.459Z" transform="translate(-132.909 -380.111)" fill="#d19475"/>
        <path id="Path_84459" data-name="Path 84459" d="M359.474,479.059l1.719,3.7-.544.084-1.719-3.7C359.113,479.116,359.294,479.087,359.474,479.059Z" transform="translate(-277.387 -407.485)" fill="#d19475"/>
        <path id="Path_84460" data-name="Path 84460" d="M405.627,482.329v3.835H405.1v-3.835Z" transform="translate(-339.002 -409.538)" fill="#d19475"/>
        <path id="Path_84461" data-name="Path 84461" d="M316.449,469.687l3.321,3.321c-.187.063-.378.12-.565.182l-3.322-3.322C316.071,469.807,316.262,469.75,316.449,469.687Z" transform="translate(-219.942 -401.601)" fill="#d19475"/>
      </g>
      <path id="Path_84499" data-name="Path 84499" d="M330.872,337.189l14.272-8.358,26.641,7.348-14.977,14.349-8.1-3.71,3.716-1.424Z" transform="translate(-260.335 -228.851)" fill="#ab4a0a" opacity="0.2" style="mix-blend-mode: multiply;isolation: isolate"/>
      <path id="Path_88628" data-name="Path 88628" d="M15462.148-16261.5a2.537,2.537,0,0,0,1.148-1.988c0-.731-.515-1.029-1.148-.662a2.534,2.534,0,0,0-1.148,1.988c0,.519.26.819.636.819A1.029,1.029,0,0,0,15462.148-16261.5Zm4.745-2.739a2.541,2.541,0,0,0,1.146-1.989c0-.73-.514-1.027-1.146-.662a2.536,2.536,0,0,0-1.148,1.988c0,.52.259.82.636.82A1.042,1.042,0,0,0,15466.894-16264.235Zm4.743-2.739a2.534,2.534,0,0,0,1.148-1.988c0-.732-.514-1.029-1.148-.662a2.54,2.54,0,0,0-1.147,1.988c0,.519.259.818.635.818A1.037,1.037,0,0,0,15471.637-16266.975Zm4.746-2.738a2.541,2.541,0,0,0,1.147-1.989c0-.731-.515-1.029-1.147-.663a2.54,2.54,0,0,0-1.148,1.988c0,.52.259.819.636.82A1.05,1.05,0,0,0,15476.383-16269.713Zm4.743-2.74a2.546,2.546,0,0,0,1.149-1.987c0-.733-.516-1.029-1.149-.663a2.536,2.536,0,0,0-1.147,1.988c0,.52.258.819.635.819A1.042,1.042,0,0,0,15481.126-16272.453Zm4.745-2.74a2.535,2.535,0,0,0,1.148-1.986c0-.733-.515-1.029-1.148-.664a2.539,2.539,0,0,0-1.148,1.989c0,.519.259.818.635.818A1.035,1.035,0,0,0,15485.871-16275.193Z" transform="translate(-15300.603 16349.267)" stroke="rgba(0,0,0,0)" stroke-width="1" fill="url(#linear-gradient)"/>
      <g id="Group_16585" data-name="Group 16585" transform="translate(55.241 38.729)">
        <path id="Path_84462" data-name="Path 84462" d="M372.211,345.4c-.426.973-.973,2.585-1.4,3.344s-1.233,3.013-.379,3.487,3.3.379,4.033-.617.426-1.575.806-2.661a17.658,17.658,0,0,0,.237-4.17Z" transform="translate(-340.83 -276.241)" fill="#001135"/>
        <path id="Path_84463" data-name="Path 84463" d="M405.313,322.955c-.64.806-2.23,1.4-3.179,1.944s-2.679,2.3-2.466,3.225,2.111,1,3.391.593,2.657-2.063,3.534-2.3,3.084-.546,3.345-1.162a5.227,5.227,0,0,0-.877-3.416C408.539,321.46,405.313,322.955,405.313,322.955Z" transform="translate(-382.423 -258.773)" fill="#001135"/>
        <path id="Path_84464" data-name="Path 84464" d="M410.038,335.786a.671.671,0,0,1-.032.1c-.261.617-2.467.925-3.345,1.162s-2.253,1.9-3.534,2.3c-1.233.389-3.036.337-3.36-.492a.636.636,0,0,0,.388.66,4.229,4.229,0,0,0,3.19,0c1.331-.425,2.112-1.882,2.858-2.1a4.832,4.832,0,0,1,.9-.218v.39a8.236,8.236,0,0,0,2.7-.792,5.287,5.287,0,0,0,.242-1.014Z" transform="translate(-382.491 -269.408)" fill="#181818"/>
        <path id="Path_84465" data-name="Path 84465" d="M407.306,198.306s-.891,10.783-.193,12.925a18.647,18.647,0,0,1,.938,6.812,70.281,70.281,0,0,0,.626,7.774c-2.334,1.18-5.843-.481-5.843-.481a14.322,14.322,0,0,0,.564-3.539,83.854,83.854,0,0,0-1.917-11.12,53.115,53.115,0,0,1-2.287-10.013c-.144-2.7,1.108-8.569,1.108-8.569a10.249,10.249,0,0,0,4.67,2.6Z" transform="translate(-380.987 -160.325)" fill="#1a3a81"/>
        <path id="Path_84466" data-name="Path 84466" d="M375.01,193.6s-1.3,2.551-7.028,2.238a8.783,8.783,0,0,0,0,4.135c.578,1.931,1.974,7.058,2.286,8.815a52.841,52.841,0,0,0,2.07,7.774,54.717,54.717,0,0,1,2.06,9.362c.24,2.142-.273,6.138,1.565,6.4s3.393-1.047,3.3-2.462-.086-9.188-.688-11.595-1.781-3.682-2.045-6.355-.29-11.607-.265-13.325A18.934,18.934,0,0,0,375.01,193.6Z" transform="translate(-343.999 -161.464)" fill="#173067"/>
        <g id="Group_16581" data-name="Group 16581" transform="translate(11.619 8.472)">
          <path id="Path_84467" data-name="Path 84467" d="M423.558,104.519l-.767,1.382s-2.152,4.851-2.3,6.412.8,3.565,2.089,3.185,7.024-6.139,7.024-6.139l1.814-6.6a3.4,3.4,0,0,0-2.991.958c-1.394,1.345-3.084,3.2-3.084,3.2l.367-2.1Z" transform="translate(-420.477 -100.937)" fill="#e3e3e3"/>
          <path id="Path_84468" data-name="Path 84468" d="M432.02,112.288c-.633.443-.891,1.947-1.039,2.144s-2.442,2.071-2.442,2.071l.317-3.54.367-2.1-1.374-.188-.406.98-.6-.211.325.548s-2.343,5.661-1.982,9.427a1.091,1.091,0,0,0,.906.128c1.286-.38,7.024-6.139,7.024-6.139l.689-2.506C433.275,112.514,432.435,112,432.02,112.288Z" transform="translate(-423.989 -106.987)" fill="#d8d8d8"/>
          <path id="Path_84469" data-name="Path 84469" d="M427.011,99.212l.053-.141s1.549-.559,2.194-.882.63-.318.883-.678a8.517,8.517,0,0,1,1-.9c.268-.279.3-.452.15-.634s-.8.021-.99.187-.689.62-1.172.523-.506-1.046-.506-1.046a3.6,3.6,0,0,0-1.538-.245,7.164,7.164,0,0,0-1.581,1.095,21.674,21.674,0,0,1-.85,2.014,1.878,1.878,0,0,0-.169.442A6.247,6.247,0,0,0,427.011,99.212Z" transform="translate(-421.403 -95.361)" fill="#f2a983"/>
          <path id="Path_84470" data-name="Path 84470" d="M426.084,99.338l.053-.141s1.549-.559,2.194-.882.63-.318.882-.678a8.523,8.523,0,0,1,1-.9c.269-.279.3-.452.15-.634s-.8.021-.99.187-.689.62-1.172.523-.506-1.046-.506-1.046a5.779,5.779,0,0,0-.871-.235c-.51.117-.886.27-.917.471a9.14,9.14,0,0,1-1.261,3.071,1.456,1.456,0,0,0-.161.226A6.478,6.478,0,0,0,426.084,99.338Z" transform="translate(-420.477 -95.488)" fill="#d9a782"/>
        </g>
        <path id="Path_84471" data-name="Path 84471" d="M379.706,103.2l.732.069a31.184,31.184,0,0,1,3.144,2.617,11.618,11.618,0,0,1,1.645,3.107c.082,1.741-1.306,4.145-1.306,4.19a16.672,16.672,0,0,1-1.191,2.749c-.66,1.172-2.217,3.976-2.089,5.167s1.448,2.753.615,3.923-2.875,2.538-6.484,2.181-5.552-2.756-5.552-3.905.178-3.41.257-4.382.219-5.632.219-6.206-.3-3.153-.258-4.838,1.044-5.909,2.534-6.6l1.307.139s-.038,2.937,1.312,3.3S379.706,103.2,379.706,103.2Z" transform="translate(-350.324 -91.373)" fill="#e3e3e3"/>
        <path id="Path_84472" data-name="Path 84472" d="M381.039,140.8a5.665,5.665,0,0,1,.353,1.411L369.723,144.6l-.031.907a5.61,5.61,0,0,0,1.942.508c.635-.071,7.717-1.711,8.363-1.816a1.2,1.2,0,0,1,.725.145c-.942.86-2.378,2.032-2.547,4.007-.141,1.639,1.341,5.516,1.212,7.564a4.945,4.945,0,0,0,1.96-1.557c.833-1.17-.487-2.732-.615-3.923s1.429-3.995,2.089-5.167a16.676,16.676,0,0,0,1.191-2.749,6.025,6.025,0,0,0,1.2-2.589C383.8,139.8,380.871,140.384,381.039,140.8Z" transform="translate(-350.415 -120.711)" fill="#d8d8d8"/>
        <path id="Path_84473" data-name="Path 84473" d="M376.781,369.434c-.736,1-3.179,1.092-4.033.617a.833.833,0,0,1-.368-.7.836.836,0,0,0,.548,1.051,4.3,4.3,0,0,0,3.317-.309,2.614,2.614,0,0,0,1.052-1.833v0A2.651,2.651,0,0,1,376.781,369.434Z" transform="translate(-343.146 -294.057)" fill="#181818"/>
        <path id="Path_84474" data-name="Path 84474" d="M399.679,95.388a7.915,7.915,0,0,0,.113,1.967c.186.474-2.2,3.489-3.929,3.76s-2-2.354-1.862-3.167S398.177,95.388,399.679,95.388Z" transform="translate(-370.857 -86.909)" fill="#d9a782"/>
        <path id="Path_84475" data-name="Path 84475" d="M412.435,117.352l-.414-1.143,1.408-.652.821,1.571-.057.029-1.2.63a138.954,138.954,0,0,0-.975,16.592l-1.208,1.23-.829-1.72S410.171,122.979,412.435,117.352Z" transform="translate(-389.162 -102.221)" fill="#ec691f"/>
        <path id="Path_84476" data-name="Path 84476" d="M413.528,106.745l1.183.273a1.607,1.607,0,0,0,.67,1.85l-1.987,1.571S413.445,108.068,413.528,106.745Z" transform="translate(-391.113 -95.531)" fill="#f5f5f5"/>
        <path id="Path_84477" data-name="Path 84477" d="M393.162,102.21s-2.385,2.82-4.736,3.215l.969,2.7,5.044-4.277Z" transform="translate(-364.159 -92.088)" fill="#f5f5f5"/>
        <g id="Group_16582" data-name="Group 16582" transform="translate(21.575)">
          <path id="Path_84478" data-name="Path 84478" d="M394.847,64.257a4.45,4.45,0,0,0-4.732.2,4.394,4.394,0,0,0-1.93,2.655c-.126.525-.283.975-.41,1.374s.288.9.288.9c-.447.563-.1,1.9-.006,2.224a.712.712,0,0,0-.074.3.349.349,0,0,0,.252.332,7.19,7.19,0,0,1,.182,1.164,1.188,1.188,0,0,0,1.216,1.415,7.641,7.641,0,0,0,4.218-1.637,8.372,8.372,0,0,0,2.685-4.606A4.173,4.173,0,0,0,394.847,64.257Z" transform="translate(-387.75 -62.829)" fill="#ffcda8"/>
          <path id="Path_84479" data-name="Path 84479" d="M420.462,88.354h0c.177-.425.607-1.084.726-1.514.153-.556-.957-1.112-.957-1.112h0a1.736,1.736,0,0,0,.237.4C420.021,86.693,420.369,88.03,420.462,88.354Z" transform="translate(-420.157 -79.576)" fill="#d9a782"/>
          <path id="Path_84480" data-name="Path 84480" d="M394.241,61.023a4.945,4.945,0,0,0-5.5,0,4.489,4.489,0,0,0-1.411,1.654,1.579,1.579,0,0,0,1.355,2.451,13.376,13.376,0,0,0,3.214-.3c1.046.678.63,1.793.771,2.165s.294.851.53.986c.144.083.417-.154.487-.235.171-.2,1.359-1.573,1.435.127a7.747,7.747,0,0,0,.655-1.937,4.752,4.752,0,0,0,.084-.807h0A3.705,3.705,0,0,0,394.241,61.023Z" transform="translate(-386.995 -60.184)" fill="#333"/>
          <path id="Path_84481" data-name="Path 84481" d="M387.8,82.577c.141.373.294.851.53.986.144.083.417-.154.487-.235.171-.2,1.359-1.573,1.435.127a7.747,7.747,0,0,0,.655-1.937,4.752,4.752,0,0,0,.084-.807,9.541,9.541,0,0,1-3.242.855C387.808,81.993,387.731,82.385,387.8,82.577Z" transform="translate(-382.127 -75.767)"/>
          <path id="Path_84482" data-name="Path 84482" d="M420.23,101.687a6.223,6.223,0,0,0-.181-2.348c-.018-.068-.308.008-.53-.066h0a7.19,7.19,0,0,1,.182,1.164A1.338,1.338,0,0,0,420.23,101.687Z" transform="translate(-419.037 -89.859)" fill="#d9a782"/>
          <path id="Path_84483" data-name="Path 84483" d="M389.746,90.762c.153.1.51.24,1.2-.5s.682-1.445.338-1.679a.581.581,0,0,0-.855.178A18.384,18.384,0,0,0,389.746,90.762Z" transform="translate(-383.131 -81.651)" fill="#ffcda8"/>
        </g>
        <g id="Group_16583" data-name="Group 16583" transform="translate(0 6.727)">
          <path id="Path_84484" data-name="Path 84484" d="M423.027,88.2a.454.454,0,0,0-.452-.039l-.463.27-.464.27a.452.452,0,0,1,.451.039,1.43,1.43,0,0,1,.659,1.116.461.461,0,0,1-.19.43l.465-.27.464-.27a.459.459,0,0,0,.189-.43A1.427,1.427,0,0,0,423.027,88.2Z" transform="translate(-401.407 -88.115)" fill="url(#linear-gradient-2)"/>
          <path id="Path_84485" data-name="Path 84485" d="M426.142,90.438c-.359-.2-.646-.025-.641.391a1.428,1.428,0,0,0,.659,1.116c.359.2.646.025.641-.391A1.43,1.43,0,0,0,426.142,90.438Z" transform="translate(-405.45 -89.815)"/>
          <path id="Path_84486" data-name="Path 84486" d="M435.131,91.317a.339.339,0,0,0-.329-.032l-8.6,4.669a.481.481,0,0,1,.466.046,1.5,1.5,0,0,1,.693,1.173.49.49,0,0,1-.192.447l8.315-5.161a.344.344,0,0,0,.134-.315A1.056,1.056,0,0,0,435.131,91.317Z" transform="translate(-414.437 -90.499)" fill="url(#linear-gradient-3)"/>
          <path id="Path_84487" data-name="Path 84487" d="M469.478,109.468a.649.649,0,0,0-.615-.066l-9.339,4.805a.92.92,0,0,1,.872.093,2.849,2.849,0,0,1,1.316,2.226.938.938,0,0,1-.352.841l8.8-5.735a.663.663,0,0,0,.249-.594A2.011,2.011,0,0,0,469.478,109.468Z" transform="translate(-457.25 -104.237)" fill="url(#linear-gradient-4)"/>
          <path id="Path_84488" data-name="Path 84488" d="M497.852,128.743a.988.988,0,0,0-.985-.085l-1.134.659-.611.355a.988.988,0,0,1,.985.085,3.116,3.116,0,0,1,1.439,2.435,1.007,1.007,0,0,1-.414.939l1.746-1.015a1.006,1.006,0,0,0,.414-.939A3.118,3.118,0,0,0,497.852,128.743Z" transform="translate(-494.708 -118.82)" fill="url(#linear-gradient-5)"/>
          <path id="Path_84489" data-name="Path 84489" d="M503.766,132.954c-.784-.437-1.41-.054-1.4.854a3.116,3.116,0,0,0,1.439,2.435c.783.437,1.41.054,1.4-.854A3.116,3.116,0,0,0,503.766,132.954Z" transform="translate(-502.367 -122.018)" fill="#707070"/>
          <path id="Path_84490" data-name="Path 84490" d="M504.507,134.175c-.655-.365-1.177-.045-1.168.713a2.6,2.6,0,0,0,1.2,2.033c.654.365,1.177.045,1.168-.713A2.6,2.6,0,0,0,504.507,134.175Z" transform="translate(-503.105 -122.967)" fill="#dcdcdc"/>
          <path id="Path_84491" data-name="Path 84491" d="M509.685,137.419c-.153-.086-.276-.011-.274.167a.611.611,0,0,0,.282.477c.153.086.276.01.274-.168A.613.613,0,0,0,509.685,137.419Z" transform="translate(-508.826 -125.517)" fill="#f5f5f5"/>
          <path id="Path_84492" data-name="Path 84492" d="M504.26,134.177a.762.762,0,0,0-.922,0,.916.916,0,0,1,.687.126,2.6,2.6,0,0,1,1.2,2.033.921.921,0,0,1-.247.709c.3-.083.486-.38.481-.839A2.6,2.6,0,0,0,504.26,134.177Z" transform="translate(-502.858 -122.969)" fill="#f5f5f5"/>
        </g>
        <path id="Path_84493" data-name="Path 84493" d="M431.823,89.3c-.264-.263-1.3-1.226-1.614-1.237a1.283,1.283,0,0,0-.677.29,2.206,2.206,0,0,0-.688.129,11.543,11.543,0,0,0-1.151.677,1.083,1.083,0,0,0-.7.661c-.254.555-.5,1.125-.5,1.125h.656c.259,0,.743-.452.743-.452a4.277,4.277,0,0,0,1.269.376.713.713,0,0,0,.43-.247s.635.549,1,.506a.4.4,0,0,0,.366-.387s.517-.156.527-.422-.506-.665-.506-.665S432.156,89.633,431.823,89.3Z" transform="translate(-410.768 -81.348)" fill="#ffcda8"/>
        <path id="Path_84494" data-name="Path 84494" d="M418.256,156.2c-.08.646-.15,1.283-.211,1.9l.022,0,1.786-.375h0c.036-.64.077-1.277.12-1.9Z" transform="translate(-396.827 -132.793)" fill="#9d0000"/>
        <g id="Group_16584" data-name="Group 16584" transform="translate(8.795 10.855)">
          <path id="Path_84495" data-name="Path 84495" d="M456.731,105.29c-.395-.106-.586.034-.535.238a1.576,1.576,0,0,0,.165.388,4.146,4.146,0,0,0-1.247,0c-.318.12,0,.324,0,.324s-.6-.089-.611.152a.94.94,0,0,0,.127.471s-.509.026-.572.229.637.636,1.133.941a1.341,1.341,0,0,1,.624,1.247,7.8,7.8,0,0,0,.229,3.206,3.209,3.209,0,0,0,1.5,1.171,26.134,26.134,0,0,0,1.375-2.227,15.688,15.688,0,0,0,.814-2.85,8.232,8.232,0,0,0-.891-2.252A9.152,9.152,0,0,0,456.731,105.29Z" transform="translate(-454.055 -105.254)" fill="#ffcda8"/>
          <path id="Path_84496" data-name="Path 84496" d="M370.2,126.807l1.438.725a3,3,0,0,1,.688.242c.114.1,3.371,1.641,3.944,2.112a7.089,7.089,0,0,0,1.425.84,34.508,34.508,0,0,1,4.554-1.82,37.045,37.045,0,0,0,3.665-1.044c.2-.139,1.743-2.074,3.092-2.239s3.245.98,2.506,3.448-3.893,3.283-6.488,3.957-7.481,1.82-8.4,1.59-4.886-3.168-5.433-3.511a5.6,5.6,0,0,1-1.158-1.183l-1.031-.814Z" transform="translate(-365.515 -120.706)" fill="#e3e3e3"/>
          <path id="Path_84497" data-name="Path 84497" d="M423.967,136.745l1.234.662-1.247-.954.344-.827-.471.585-1.128-.78-.59,1.136,1.031.814a5.6,5.6,0,0,0,1.158,1.183c.546.344,4.517,3.283,5.433,3.511a7.894,7.894,0,0,0,2.262-.2,76.274,76.274,0,0,1-7.033-3.625C423.891,137.547,423.967,136.745,423.967,136.745Z" transform="translate(-418.619 -128.163)" fill="#d8d8d8"/>
          <path id="Path_84498" data-name="Path 84498" d="M459.253,114.649a3.98,3.98,0,0,1-1.961.422c-.4-.148-.791-1.473-1.666-1.881a10.61,10.61,0,0,1-1.453-.789.222.222,0,0,0-.11.118c-.064.2.637.636,1.133.941a1.341,1.341,0,0,1,.624,1.247,7.8,7.8,0,0,0,.229,3.206,3.209,3.209,0,0,0,1.5,1.171,26.14,26.14,0,0,0,1.375-2.227,16.024,16.024,0,0,0,.814-2.836A1.306,1.306,0,0,1,459.253,114.649Z" transform="translate(-454.058 -110.68)" fill="#d9a782"/>
        </g>
      </g>
    </g>
    <g id="Group_18135" data-name="Group 18135" transform="translate(720.183 1007.075) rotate(-31)">
      <path id="Path_65641" data-name="Path 65641" d="M832.128,800.4l19.153-19.011a.589.589,0,0,1,.823.059l1.906,1.892c.013.011.027.021.04.033l19.26,19.118a.579.579,0,0,1,.059.817l-19.153,19.011a.59.59,0,0,1-.823-.059l-1.906-1.892c-.013-.011-.027-.021-.04-.033l-19.26-19.118A.579.579,0,0,1,832.128,800.4Z" transform="translate(-831.985 -767.714)" opacity="0.09" style="mix-blend-mode: multiply;isolation: isolate"/>
      <rect id="Rectangle_3965" data-name="Rectangle 3965" width="3.117" height="3.302" transform="translate(42.587 27.614)" fill="#b9b9b9"/>
      <rect id="Rectangle_3966" data-name="Rectangle 3966" width="3.117" height="3.302" transform="translate(6.125 27.299)" fill="#363656"/>
      <path id="Path_65642" data-name="Path 65642" d="M940.036,748.456v-.008L956.4,732.2c.4-.393.9-.055,1.039.695l1.351,7.352-2.832,2.35v.008l-16.469,19.546-2.041-10.018a1.712,1.712,0,0,1,.324-1.433Z" transform="translate(-933.33 -731.395)" fill="#b9b9b9"/>
      <path id="Path_65643" data-name="Path 65643" d="M824.844,810.9,844,791.89a.579.579,0,0,0-.059-.817l-19.26-19.118a.59.59,0,0,0-.823-.059L804.7,790.908a.579.579,0,0,0,.059.817l19.26,19.118A.59.59,0,0,0,824.844,810.9Z" transform="translate(-798.435 -760.71)" fill="#b9b9b9"/>
      <path id="Path_65644" data-name="Path 65644" d="M804.917,748.254l2.262-2.245V746l16.367-16.246c.4-.393.9-.055,1.039.695l1.321,7.188a.7.7,0,0,1,.17.122l19.26,19.118a.579.579,0,0,1,.059.817L826.24,776.706a.589.589,0,0,1-.823-.059l-19.26-19.118a.673.673,0,0,1-.19-.361l0,0-1.372-7.484A1.711,1.711,0,0,1,804.917,748.254Z" transform="translate(-799.832 -729.589)" fill="url(#linear-gradient-6)"/>
      <path id="Path_65645" data-name="Path 65645" d="M918.362,775.651l2.415-2.4a.479.479,0,0,0-.049-.676l-2.015-2a.488.488,0,0,0-.682-.049l-2.415,2.4a.48.48,0,0,0,.049.677l2.015,2A.489.489,0,0,0,918.362,775.651Z" transform="translate(-892.094 -759.717)" fill="#fff"/>
      <path id="Path_65646" data-name="Path 65646" d="M950.627,794.279l2.415-2.4a.479.479,0,0,0-.049-.676l-2.015-2a.488.488,0,0,0-.682-.049l-2.415,2.4a.48.48,0,0,0,.049.677l2.015,2A.489.489,0,0,0,950.627,794.279Z" transform="translate(-929.275 -773.466)" fill="#fff"/>
      <path id="Path_65647" data-name="Path 65647" d="M982.892,812.907l2.415-2.4a.48.48,0,0,0-.049-.677l-2.015-2a.488.488,0,0,0-.682-.049l-2.415,2.4a.48.48,0,0,0,.049.677l2.015,2A.488.488,0,0,0,982.892,812.907Z" transform="translate(-966.456 -787.214)" fill="#fff"/>
      <path id="Path_65648" data-name="Path 65648" d="M1015.158,831.535l2.415-2.4a.479.479,0,0,0-.049-.676l-2.015-2a.488.488,0,0,0-.682-.049l-2.415,2.4a.479.479,0,0,0,.049.676l2.015,2A.489.489,0,0,0,1015.158,831.535Z" transform="translate(-1003.638 -800.962)" fill="#fff"/>
      <path id="Path_65649" data-name="Path 65649" d="M888.2,793.065l2.415-2.4a.48.48,0,0,0-.049-.677l-2.015-2a.488.488,0,0,0-.682-.048l-2.416,2.4a.479.479,0,0,0,.049.676l2.015,2A.488.488,0,0,0,888.2,793.065Z" transform="translate(-857.338 -772.57)" fill="#fff"/>
      <path id="Path_65650" data-name="Path 65650" d="M920.466,811.692l2.415-2.4a.48.48,0,0,0-.049-.677l-2.015-2a.488.488,0,0,0-.681-.049l-2.415,2.4a.48.48,0,0,0,.049.677l2.015,2A.488.488,0,0,0,920.466,811.692Z" transform="translate(-894.519 -786.318)" fill="#fff"/>
      <path id="Path_65651" data-name="Path 65651" d="M952.732,830.321l2.415-2.4a.48.48,0,0,0-.049-.677l-2.015-2a.489.489,0,0,0-.682-.049l-2.415,2.4a.479.479,0,0,0,.049.677l2.014,2A.488.488,0,0,0,952.732,830.321Z" transform="translate(-931.701 -800.066)" fill="#fff"/>
      <path id="Path_65652" data-name="Path 65652" d="M985,848.948l2.415-2.4a.48.48,0,0,0-.049-.677l-2.015-2a.489.489,0,0,0-.682-.049l-2.415,2.4a.48.48,0,0,0,.049.676l2.015,2A.488.488,0,0,0,985,848.948Z" transform="translate(-968.882 -813.814)" fill="#fff"/>
      <path id="Path_65653" data-name="Path 65653" d="M858.04,810.478l2.415-2.4a.48.48,0,0,0-.049-.677l-2.015-2a.488.488,0,0,0-.681-.049l-2.415,2.4a.48.48,0,0,0,.049.677l2.015,2A.488.488,0,0,0,858.04,810.478Z" transform="translate(-822.581 -785.421)" fill="#fff"/>
      <path id="Path_65654" data-name="Path 65654" d="M890.306,829.106l2.415-2.4a.48.48,0,0,0-.049-.677l-2.015-2a.488.488,0,0,0-.682-.049l-2.415,2.4a.479.479,0,0,0,.049.676l2.015,2A.488.488,0,0,0,890.306,829.106Z" transform="translate(-859.763 -799.169)" fill="#fff"/>
      <path id="Path_65655" data-name="Path 65655" d="M922.571,847.734l2.415-2.4a.48.48,0,0,0-.049-.677l-2.015-2a.489.489,0,0,0-.682-.049l-2.415,2.4a.479.479,0,0,0,.049.676l2.015,2A.488.488,0,0,0,922.571,847.734Z" transform="translate(-896.944 -812.918)" fill="#fff"/>
      <path id="Path_65656" data-name="Path 65656" d="M954.836,866.361l2.415-2.4a.48.48,0,0,0-.049-.677l-2.015-2a.488.488,0,0,0-.681-.048l-2.415,2.4a.479.479,0,0,0,.049.676l2.015,2A.488.488,0,0,0,954.836,866.361Z" transform="translate(-934.126 -826.666)" fill="#ff975d"/>
      <path id="Path_65657" data-name="Path 65657" d="M827.88,827.891l2.415-2.4a.48.48,0,0,0-.049-.676l-2.015-2a.488.488,0,0,0-.682-.048l-2.415,2.4a.48.48,0,0,0,.049.677l2.015,2A.488.488,0,0,0,827.88,827.891Z" transform="translate(-787.826 -798.273)" fill="#fff"/>
      <path id="Path_65658" data-name="Path 65658" d="M860.145,846.519l2.415-2.4a.479.479,0,0,0-.049-.676l-2.015-2a.488.488,0,0,0-.682-.049l-2.415,2.4a.48.48,0,0,0,.049.677l2.015,2A.488.488,0,0,0,860.145,846.519Z" transform="translate(-825.007 -812.021)" fill="#fff"/>
      <path id="Path_65659" data-name="Path 65659" d="M892.41,865.147l2.415-2.4a.479.479,0,0,0-.049-.676l-2.015-2a.488.488,0,0,0-.682-.049l-2.415,2.4a.48.48,0,0,0,.049.677l2.015,2A.488.488,0,0,0,892.41,865.147Z" transform="translate(-862.188 -825.769)" fill="#fff"/>
      <path id="Path_65660" data-name="Path 65660" d="M928.333,875.436l2.131-2.115a.7.7,0,0,0-.071-.981l-4.707-4.672a.708.708,0,0,0-.988-.071l-2.131,2.115a.7.7,0,0,0,.071.981l4.707,4.672A.708.708,0,0,0,928.333,875.436Z" transform="translate(-902.886 -831.32)" fill="#ff975d"/>
      <path id="Path_65661" data-name="Path 65661" d="M941.259,754.793l1.437-1.426v-.005l11.322-11.238,0,.015,4.231-4.2c.17-.168.387-.024.445.3l.832,4.536a.734.734,0,0,1-.139.615l-1.609,1.6v0l-11.322,11.238,0-.015-3.963,3.933c-.308.305-.7.043-.807-.539l-.678-3.7A1.33,1.33,0,0,1,941.259,754.793Z" transform="translate(-934.623 -735.699)" fill="#fff"/>
    </g>
    <g id="Group_18136" data-name="Group 18136" transform="translate(662.508 855)">
      <g id="Group_11303" data-name="Group 11303" transform="translate(0 38.366)" opacity="0.3" style="mix-blend-mode: multiply;isolation: isolate">
        <path id="Path_63560" data-name="Path 63560" d="M32.929,443.024c-1.744.948-1.765,2.536-.047,3.531l79.437,45.962a7.1,7.1,0,0,0,6.281.062l29.47-16.281c1.737-.96,1.751-2.554.03-3.543L68.672,427.088a7.189,7.189,0,0,0-6.3-.075Z" transform="translate(-31.607 -426.323)"/>
      </g>
      <g id="Group_11331" data-name="Group 11331" transform="translate(3.291 0)">
        <g id="Group_11304" data-name="Group 11304" transform="translate(16.612 59.014)">
          <path id="Path_63561" data-name="Path 63561" d="M79.016,474.594l1.472-.829,9.841,5.679a9.353,9.353,0,0,1,.333,2.262,3.4,3.4,0,0,1-1.537,3.144l-3.3,1.868a3.335,3.335,0,0,1-3.488-.214,11.007,11.007,0,0,1-5-8.69A3.357,3.357,0,0,1,79.016,474.594Z" transform="translate(-77.336 -473.765)" fill="#343433"/>
        </g>
        <path id="Path_63562" data-name="Path 63562" d="M107,489.075a9.352,9.352,0,0,0-.333-2.262h0l3.611,2.083a2.86,2.86,0,0,1-.924.87l-3.086,1.746A3.779,3.779,0,0,0,107,489.075Z" transform="translate(-77.066 -422.12)" fill="#343433"/>
        <path id="Path_63563" data-name="Path 63563" d="M107.055,489.075a9.352,9.352,0,0,0-.333-2.262h0l.786.453a8.983,8.983,0,0,1,.113,1.24,3.506,3.506,0,0,1-1.26,2.957A3.81,3.81,0,0,0,107.055,489.075Z" transform="translate(-77.116 -422.12)" fill="#151515"/>
        <path id="Path_63564" data-name="Path 63564" d="M186.041,538.464l.4,1.294,2.463-2.1,4.555-2.368-1.678-1.24-1.926-.5-1.261.112-1.513.993-.761,1.92Z" transform="translate(-122.117 -448.519)" fill="#1e1e1e"/>
        <path id="Path_63565" data-name="Path 63565" d="M193.519,550.471a11.009,11.009,0,0,1-5-8.69,3.359,3.359,0,0,1,1.68-3.221l3.015-1.7a3.584,3.584,0,0,1,1.419-.438,16.716,16.716,0,0,1,5.877,12.093c0,.058,0,.114,0,.172-.065.045-.131.089-.2.129l-3.3,1.869A3.336,3.336,0,0,1,193.519,550.471Z" transform="translate(-123.516 -450.138)" fill="#343433"/>
        <g id="Group_11305" data-name="Group 11305" transform="translate(65.002 88.118)">
          <path id="Path_63566" data-name="Path 63566" d="M188.519,544.16a11.009,11.009,0,0,0,5,8.69c2.542,1.533,5.056.031,5-2.916a11,11,0,0,0-5-8.691C190.98,539.712,188.464,541.215,188.519,544.16Z" transform="translate(-188.518 -540.635)" fill="#928e8e"/>
        </g>
        <g id="Group_11306" data-name="Group 11306" transform="translate(65.002 88.118)">
          <path id="Path_63567" data-name="Path 63567" d="M188.519,544.16a11.009,11.009,0,0,0,5,8.69c2.542,1.533,5.056.031,5-2.916a11,11,0,0,0-5-8.691C190.98,539.712,188.464,541.215,188.519,544.16Z" transform="translate(-188.518 -540.635)" fill="#575656"/>
        </g>
        <g id="Group_11307" data-name="Group 11307" transform="translate(65.442 89.452)">
          <path id="Path_63568" data-name="Path 63568" d="M189.529,546.619a9.121,9.121,0,0,0,4.117,7.194c2.093,1.27,4.163.026,4.117-2.413a9.116,9.116,0,0,0-4.117-7.2C191.555,542.936,189.483,544.181,189.529,546.619Z" transform="translate(-189.528 -543.701)" fill="#3a3939"/>
        </g>
        <g id="Group_11308" data-name="Group 11308" transform="translate(66.732 90.991)">
          <path id="Path_63569" data-name="Path 63569" d="M192.492,549.244a6.272,6.272,0,0,0,2.848,4.949,1.782,1.782,0,0,0,2.849-1.661,6.266,6.266,0,0,0-2.849-4.95A1.782,1.782,0,0,0,192.492,549.244Z" transform="translate(-192.492 -547.236)" fill="url(#linear-gradient-7)"/>
        </g>
        <g id="Group_11309" data-name="Group 11309" transform="translate(68.341 93.199)">
          <path id="Path_63570" data-name="Path 63570" d="M196.191,553.15a2.627,2.627,0,0,0,1.193,2.074.746.746,0,0,0,1.193-.7,2.623,2.623,0,0,0-1.193-2.073A.746.746,0,0,0,196.191,553.15Z" transform="translate(-196.19 -552.31)" fill="#928e8e"/>
        </g>
        <g id="Group_11310" data-name="Group 11310" transform="translate(68.416 93.63)">
          <path id="Path_63571" data-name="Path 63571" d="M196.363,553.954a2.039,2.039,0,0,0,.926,1.61.579.579,0,0,0,.927-.54,2.04,2.04,0,0,0-.927-1.61A.579.579,0,0,0,196.363,553.954Z" transform="translate(-196.363 -553.301)" fill="#dbdbda"/>
        </g>
        <g id="Group_11311" data-name="Group 11311" transform="translate(67.263 91.815)">
          <path id="Path_63572" data-name="Path 63572" d="M198.059,549.165l.384.192a.658.658,0,0,1,.334.537.212.212,0,0,1-.334.2l-.384-.191a.659.659,0,0,1-.334-.539A.211.211,0,0,1,198.059,549.165Z" transform="translate(-195.979 -549.13)"/>
          <path id="Path_63573" data-name="Path 63573" d="M198.059,560.242l.384.192a.658.658,0,0,1,.334.537.212.212,0,0,1-.334.206l-.384-.193a.66.66,0,0,1-.334-.538A.211.211,0,0,1,198.059,560.242Z" transform="translate(-195.979 -555.385)"/>
          <path id="Path_63574" data-name="Path 63574" d="M194.392,550.454c-.1.119-.309.061-.464-.13a.484.484,0,0,1-.091-.56l.213-.248c.1-.119.309-.061.464.13a.485.485,0,0,1,.092.561C194.519,550.3,194.477,550.354,194.392,550.454Z" transform="translate(-193.751 -549.313)"/>
          <path id="Path_63575" data-name="Path 63575" d="M202.33,559.816c.1-.119.31-.062.464.128a.484.484,0,0,1,.092.561l-.214.25c-.1.119-.31.06-.463-.131a.484.484,0,0,1-.092-.56C202.2,559.965,202.244,559.915,202.33,559.816Z" transform="translate(-198.427 -555.13)"/>
          <path id="Path_63576" data-name="Path 63576" d="M193.87,555.2c.157-.031.361.124.46.347.081.186.123.279.2.464.1.223.051.428-.106.459s-.362-.123-.46-.346l-.2-.464C193.665,555.435,193.713,555.229,193.87,555.2Z" transform="translate(-193.713 -552.555)"/>
          <path id="Path_63577" data-name="Path 63577" d="M202.864,554.79c-.157.031-.363-.124-.462-.346l-.2-.464c-.1-.222-.052-.428.1-.459s.361.124.46.347l.2.464C203.067,554.553,203.02,554.758,202.864,554.79Z" transform="translate(-198.476 -551.607)"/>
        </g>
        <g id="Group_11312" data-name="Group 11312" transform="translate(16.612 59.538)">
          <path id="Path_63578" data-name="Path 63578" d="M77.337,478.494a11.007,11.007,0,0,0,5,8.69c2.541,1.534,5.056.031,5-2.916a11,11,0,0,0-5-8.691C79.8,474.046,77.281,475.55,77.337,478.494Z" transform="translate(-77.336 -474.97)" fill="#928e8e"/>
        </g>
        <g id="Group_11313" data-name="Group 11313" transform="translate(16.612 59.538)">
          <path id="Path_63579" data-name="Path 63579" d="M77.337,478.494a11.007,11.007,0,0,0,5,8.69c2.541,1.534,5.056.031,5-2.916a11,11,0,0,0-5-8.691C79.8,474.046,77.281,475.55,77.337,478.494Z" transform="translate(-77.336 -474.97)" fill="#575656"/>
        </g>
        <g id="Group_11314" data-name="Group 11314" transform="translate(17.051 60.873)">
          <path id="Path_63580" data-name="Path 63580" d="M78.346,480.954a9.124,9.124,0,0,0,4.117,7.195c2.093,1.268,4.163.025,4.118-2.414a9.122,9.122,0,0,0-4.118-7.2C80.372,477.271,78.3,478.516,78.346,480.954Z" transform="translate(-78.345 -478.036)" fill="#3a3939"/>
        </g>
        <g id="Group_11315" data-name="Group 11315" transform="translate(18.341 62.411)">
          <path id="Path_63581" data-name="Path 63581" d="M81.309,483.579a6.27,6.27,0,0,0,2.848,4.95,1.781,1.781,0,0,0,2.848-1.661,6.267,6.267,0,0,0-2.848-4.95A1.782,1.782,0,0,0,81.309,483.579Z" transform="translate(-81.309 -481.571)" fill="url(#linear-gradient-8)"/>
        </g>
        <g id="Group_11316" data-name="Group 11316" transform="translate(19.951 64.619)">
          <path id="Path_63582" data-name="Path 63582" d="M85.008,487.485a2.629,2.629,0,0,0,1.193,2.074.746.746,0,0,0,1.193-.7A2.623,2.623,0,0,0,86.2,486.79.746.746,0,0,0,85.008,487.485Z" transform="translate(-85.007 -486.644)" fill="#928e8e"/>
        </g>
        <g id="Group_11317" data-name="Group 11317" transform="translate(20.026 65.051)">
          <path id="Path_63583" data-name="Path 63583" d="M85.18,488.29a2.041,2.041,0,0,0,.926,1.61.579.579,0,0,0,.926-.541,2.037,2.037,0,0,0-.926-1.609A.579.579,0,0,0,85.18,488.29Z" transform="translate(-85.18 -487.637)" fill="#dbdbda"/>
        </g>
        <g id="Group_11318" data-name="Group 11318" transform="translate(18.872 63.235)">
          <path id="Path_63584" data-name="Path 63584" d="M86.876,483.5l.383.192a.659.659,0,0,1,.334.538.211.211,0,0,1-.334.2l-.383-.192a.657.657,0,0,1-.334-.538A.212.212,0,0,1,86.876,483.5Z" transform="translate(-84.796 -483.465)"/>
          <path id="Path_63585" data-name="Path 63585" d="M86.876,494.577l.383.192a.659.659,0,0,1,.334.538.212.212,0,0,1-.334.205l-.384-.193a.659.659,0,0,1-.334-.538A.212.212,0,0,1,86.876,494.577Z" transform="translate(-84.796 -489.721)"/>
          <path id="Path_63586" data-name="Path 63586" d="M83.208,484.79c-.1.119-.309.06-.464-.13a.483.483,0,0,1-.091-.56l.213-.248c.1-.119.309-.061.463.129a.484.484,0,0,1,.091.561Z" transform="translate(-82.568 -483.648)"/>
          <path id="Path_63587" data-name="Path 63587" d="M91.147,494.15c.1-.119.309-.061.463.13a.484.484,0,0,1,.092.561l-.214.249c-.1.119-.309.061-.463-.13a.484.484,0,0,1-.092-.561Z" transform="translate(-87.244 -489.464)"/>
          <path id="Path_63588" data-name="Path 63588" d="M82.687,489.534c.156-.03.362.124.46.347l.205.464c.1.223.051.428-.105.459s-.362-.123-.46-.346l-.2-.465C82.482,489.771,82.53,489.565,82.687,489.534Z" transform="translate(-82.53 -486.89)"/>
          <path id="Path_63589" data-name="Path 63589" d="M91.68,489.125c-.156.031-.362-.125-.46-.347l-.2-.464c-.1-.223-.051-.428.1-.46s.362.125.46.347l.2.465C91.883,488.888,91.836,489.093,91.68,489.125Z" transform="translate(-87.293 -485.941)"/>
        </g>
        <path id="Path_63590" data-name="Path 63590" d="M63.408,459.025l41.9,24.179,8.506-4.829.205,6.5v1.657c.147.5.264.823.264.823l3.807,2.085a5.181,5.181,0,0,1,1.273.475l.135.071c.04.022.08.045.121.069.1.056.2.115.295.179.155.1.308.208.459.318l.112.083a16.668,16.668,0,0,1,6.2,11.747l-.512-.187a16,16,0,0,0-6.528-11.543,4.5,4.5,0,0,0-2.405-.813h0a2.822,2.822,0,0,0-2.053.866,5.235,5.235,0,0,0-1.234,3.8c.008.449.037.9.084,1.349l-.542-.484q-.032-.43-.04-.856a6.62,6.62,0,0,1,.628-3.1l.03-.658-1.245-.736v-1.066L69.481,463.628l-1.472.829a2.841,2.841,0,0,0-1.119,1.028c.008-.012.015-.026.023-.038l.465-3.032-2.083-1.2-1.888.916v-2.006l-5.562-3.209v-1.1Z" transform="translate(-49.717 -404.614)" fill="#263338"/>
        <path id="Path_63591" data-name="Path 63591" d="M70.577,338.174l56.093,29.589v30.881l-31.908,18.12-55.6-32.079V355.132Z" transform="translate(-39.168 -338.174)" fill="#dfe6ea"/>
        <g id="Group_11319" data-name="Group 11319" transform="translate(12.35 56.599)">
          <path id="Path_63592" data-name="Path 63592" d="M70.774,468.217l2.083,1.2-.465,3.032a3.761,3.761,0,0,0-.578,1.9l-4.269,1.891.671-6.779Z" transform="translate(-67.544 -468.217)" fill="#1e1e1e"/>
        </g>
        <g id="Group_11320" data-name="Group 11320" transform="translate(1.284 48.188)">
          <path id="Path_63593" data-name="Path 63593" d="M47.476,451.047l-4.424,2.512-.934-.539v-3.228l1.623-.9Z" transform="translate(-42.118 -448.892)" fill="#8897a0"/>
        </g>
        <path id="Path_63594" data-name="Path 63594" d="M153.259,512.138l-1.567,3.478V516.8l-1.313-.757v-.635l1.693-3.959Z" transform="translate(-101.976 -436.036)" fill="#8897a0"/>
        <path id="Path_63595" data-name="Path 63595" d="M101.373,496.731v-.926l1.09-.63,32.907,18.988v2.857l-.856.519-32.906-18.987V497.8l.191-.121v-.7Z" transform="translate(-74.299 -426.843)" fill="#8897a0"/>
        <path id="Path_63596" data-name="Path 63596" d="M178.07,538.8v2.857l-.856.519v-.752l.191-.121v-1.154l-.425.206v-.926Z" transform="translate(-116.999 -451.482)" fill="#8897a0" opacity="0.5" style="mix-blend-mode: multiply;isolation: isolate"/>
        <path id="Path_63597" data-name="Path 63597" d="M134.831,518.056l.425-.206V519l-32.907-18.987v-.7Z" transform="translate(-74.851 -429.18)" fill="#8897a0" opacity="0.2" style="mix-blend-mode: multiply;isolation: isolate"/>
        <path id="Path_63598" data-name="Path 63598" d="M102.463,495.176l32.907,18.988-1.09.629-32.907-18.987Z" transform="translate(-74.299 -426.843)" fill="#fff" opacity="0.5" style="mix-blend-mode: overlay;isolation: isolate"/>
        <path id="Path_63599" data-name="Path 63599" d="M101.911,501.05l32.906,18.988.191-.121L102.1,500.93Z" transform="translate(-74.603 -430.093)" fill="#fff" opacity="0.2" style="mix-blend-mode: overlay;isolation: isolate"/>
        <g id="Group_11321" data-name="Group 11321" transform="translate(2.218 48.716)" opacity="0.5" style="mix-blend-mode: multiply;isolation: isolate">
          <path id="Path_63600" data-name="Path 63600" d="M48.688,451.732l-4.424,2.512v-3.228l1.6-.91Z" transform="translate(-44.264 -450.105)" fill="#8897a0"/>
        </g>
        <path id="Path_63601" data-name="Path 63601" d="M112.533,488.639l-1.568,3.48v1.186l-1.313-.758v-.632l1.694-3.96Z" transform="translate(-78.975 -422.765)" fill="#8897a0"/>
        <path id="Path_63602" data-name="Path 63602" d="M113.385,489.086l-1.568,3.48v1.186l-.656-.379v-.808l1.634-3.82Z" transform="translate(-79.827 -423.212)" fill="#8897a0" opacity="0.5" style="mix-blend-mode: multiply;isolation: isolate"/>
        <path id="Path_63603" data-name="Path 63603" d="M154.111,512.585l-1.567,3.478v1.188l-.657-.379v-.81l1.634-3.818Z" transform="translate(-102.828 -436.483)" fill="#8897a0" opacity="0.5" style="mix-blend-mode: multiply;isolation: isolate"/>
        <path id="Path_63604" data-name="Path 63604" d="M70.577,338.174l56.093,29.589-31.908,18.12-55.6-30.751Z" transform="translate(-39.168 -338.174)" fill="#fff" opacity="0.5" style="mix-blend-mode: overlay;isolation: isolate"/>
        <path id="Path_63605" data-name="Path 63605" d="M42.118,449.791l.934.539,1.6-.91-.916-.528Z" transform="translate(-40.834 -400.703)" fill="#fff" opacity="0.5" style="mix-blend-mode: overlay;isolation: isolate"/>
        <path id="Path_63606" data-name="Path 63606" d="M198.812,406.158v30.881L166.9,455.159V424.278Z" transform="translate(-111.309 -376.569)" fill="#dfe6ea" opacity="0.5" style="mix-blend-mode: multiply;isolation: isolate"/>
        <path id="Path_63607" data-name="Path 63607" d="M192.065,486.193a5.541,5.541,0,0,0-1.811-.786v0l-3.818-2.092a15.3,15.3,0,0,1-.83-3.943,104.967,104.967,0,0,1,.954-13.737c.581-2.78,1.827-4.15,5.561-6.515s15.809-9.485,15.809-9.485a6.131,6.131,0,0,1,6.113-.276c3.354,1.7,9.651,5.423,10.891,6.894a48.479,48.479,0,0,1,5.791,13.925s.493.368.39,4.15-.208,6.425-.208,6.425.622-.025.363,1.815-.181,2.8-1.425,4.042a81.533,81.533,0,0,1-11.063,7.954,121.63,121.63,0,0,1-13.266,6.529c-.932.285-2.694-.181-4.17-1.088-.943-.579-1.925-1.251-2.512-1.663A16.47,16.47,0,0,0,192.065,486.193Z" transform="translate(-121.865 -400.577)" fill="#fff4ee"/>
        <path id="Path_63608" data-name="Path 63608" d="M192.065,505.069a5.541,5.541,0,0,0-1.811-.786v0l-3.818-2.092a15.3,15.3,0,0,1-.83-3.943,104.968,104.968,0,0,1,.954-13.737,7.823,7.823,0,0,1,.883-2.419c2.025,1.206,7.278,4.318,9.313,5.38a8.409,8.409,0,0,1,3.568,3.241,2.581,2.581,0,0,0,.163,1.193c.68,2,3.33,10.977,3.33,10.977s.178.992,1.862,1.164c.147.9.305,1.97.361,2.747-.222.015-.42.023-.611.042a3.506,3.506,0,0,1-2.311-1.045v1.118a3.5,3.5,0,0,0,2.311,1.046,11.061,11.061,0,0,0,2.649-.4A36.283,36.283,0,0,0,214.2,505a80.242,80.242,0,0,0,12.765-7.912c.8-.646,2.029-1.753,3.087-2.789.388-.379.752-.749,1.062-1.083,0-.006,0-.011,0-.016-.1,3.783-.208,6.425-.208,6.425s.622-.025.363,1.815-.181,2.8-1.425,4.042a81.54,81.54,0,0,1-11.063,7.954,121.621,121.621,0,0,1-13.266,6.528c-.932.285-2.694-.181-4.17-1.088-.943-.579-1.925-1.251-2.512-1.663A16.469,16.469,0,0,0,192.065,505.069Z" transform="translate(-121.865 -419.453)" fill="#dfe6ea" style="mix-blend-mode: multiply;isolation: isolate"/>
        <g id="Group_11322" data-name="Group 11322" transform="translate(105.178 77.148)">
          <path id="Path_63609" data-name="Path 63609" d="M289.872,522.45h0a.28.28,0,0,0-.141-.063A.281.281,0,0,1,289.872,522.45Z" transform="translate(-285.856 -519.359)" fill="#8897a0"/>
          <path id="Path_63610" data-name="Path 63610" d="M280.926,522.362l-.1.07.612-2.828a3.3,3.3,0,0,1,.68-1.353c.295-.245,1.744-1.813,2.44-2.566l.235-.255c-.06,1.873-.106,3.027-.106,3.027A14.263,14.263,0,0,1,280.926,522.362Z" transform="translate(-280.828 -515.431)" fill="#8897a0"/>
          <path id="Path_63611" data-name="Path 63611" d="M289.715,522.386h0Z" transform="translate(-285.84 -519.359)" fill="#8897a0"/>
        </g>
        <path id="Path_63612" data-name="Path 63612" d="M233,549.857s-4.294,1.9-5.7,1.976a5.908,5.908,0,0,1-2.964-.95s-.013.067-.031.178l-.06-.039-.08-.053.209-3.423.236.146a6,6,0,0,0,2.413.8,9.486,9.486,0,0,0,3.059-.744,11.466,11.466,0,0,1,1.252-.4,2.42,2.42,0,0,1,.486-.059.631.631,0,0,1,.663.418c.016.034.032.067.052.1a16.028,16.028,0,0,1,.6,1.971Z" transform="translate(-143.648 -456.276)" fill="#8897a0"/>
        <path id="Path_63613" data-name="Path 63613" d="M227.189,537.768c1.406-.076,5.7-1.976,5.7-1.976s6.347-3.535,8.665-4.979,5.524-3.272,7.259-4.522a14.262,14.262,0,0,0,3.765-3.9s.622-.025.363,1.815-.181,2.8-1.424,4.042a81.527,81.527,0,0,1-11.063,7.954,121.611,121.611,0,0,1-13.266,6.529,4.448,4.448,0,0,1-2.537-.3,24.248,24.248,0,0,1-.679-3.16,15,15,0,0,1,.254-2.445A5.909,5.909,0,0,0,227.189,537.768Z" transform="translate(-143.537 -442.211)" fill="#404b4d"/>
        <path id="Path_63614" data-name="Path 63614" d="M192.791,491.252l7.51,4.249a4.148,4.148,0,0,1,2.107,2.446,73.394,73.394,0,0,1,2.515,9.38c.34,2.073.645,3.229,0,3.229s-4.045-3.229-5.675-4.962-7.035-7.545-7.035-7.545a3.3,3.3,0,0,1-.748-2.073c.034-1.189.272-4.418.272-4.418S191.7,490.946,192.791,491.252Z" transform="translate(-125.18 -424.579)" fill="#141c1e"/>
        <path id="Path_63615" data-name="Path 63615" d="M220.358,480.978a101.36,101.36,0,0,0,13.356-6.967,71.969,71.969,0,0,0,10.43-7.475h0a48.2,48.2,0,0,1,5.67,13.732.24.24,0,0,1,.05.067c-.364.474-.826,1.068-1.4,1.8a32.305,32.305,0,0,1-9.855,7.646c-4.826,2.617-9.243,5.03-12.336,5.438s-3.364-1.122-3.364-1.122-2.65-8.972-3.33-10.977S220.358,480.978,220.358,480.978Z" transform="translate(-140.955 -410.669)" fill="#141c1e"/>
        <path id="Path_63616" data-name="Path 63616" d="M192.976,520.118l-2.84-1.809v-.824s-.022-.481.8,0,2.023,1.466,2.046,1.969A3.548,3.548,0,0,1,192.976,520.118Z" transform="translate(-124.43 -439.321)" fill="#404b4d"/>
        <path id="Path_63617" data-name="Path 63617" d="M190.136,517.487s-.014-.333.458-.165v.783l2.4,1.545a2.718,2.718,0,0,1-.013.47l-2.84-1.809Z" transform="translate(-124.43 -439.324)" opacity="0.5" style="mix-blend-mode: multiply;isolation: isolate"/>
        <g id="Group_11323" data-name="Group 11323" transform="translate(89.204 81.177)">
          <path id="Path_63618" data-name="Path 63618" d="M259.219,527.536c-.956.659-3.9,2.674-5.987,3.854-2.03,1.147-6.212,3.484-7.773,4.356,0,0-.624.169-.834-.185l-.457-1.046a.674.674,0,0,1,.378-.864c1.667-.88,6.285-3.321,8.239-4.43,1.892-1.075,5.456-3.454,6.891-4.422,0,0,.571-.383.443.269l-.491,1.871A1.358,1.358,0,0,1,259.219,527.536Z" transform="translate(-244.124 -524.688)" fill="#525f61"/>
        </g>
        <g id="Group_11324" data-name="Group 11324" transform="translate(89.37 81.343)">
          <path id="Path_63619" data-name="Path 63619" d="M253.84,532.788c1.8-1.017,4.448-2.755,6.433-4.089l-.037.141c-2.7,1.835-4.977,3.288-6.452,4.121-1.515.857-4.405,2.462-8.387,4.657l-.064-.147C249.46,535.224,252.321,533.648,253.84,532.788Z" transform="translate(-244.974 -527.12)" fill="#141c1e"/>
          <path id="Path_63620" data-name="Path 63620" d="M254.044,533.607c1.45-.82,3.667-2.235,6.306-4.022l-.019.073c-.007.019-.017.044-.03.072-1.617,1.11-4.331,2.931-6.313,4.051-2.228,1.258-6.719,3.769-8.177,4.583a.3.3,0,0,1-.163-.1C249.635,536.07,252.529,534.464,254.044,533.607Z" transform="translate(-245.152 -527.62)" fill="#141c1e"/>
          <path id="Path_63621" data-name="Path 63621" d="M253.645,531.966c1.771-1,4.446-2.747,6.562-4.159l-.038.146c-2,1.344-4.739,3.146-6.579,4.187-1.516.858-4.372,2.431-8.491,4.674l-.063-.142C249.229,534.41,252.122,532.83,253.645,531.966Z" transform="translate(-244.806 -526.616)" fill="#141c1e"/>
          <path id="Path_63622" data-name="Path 63622" d="M253.293,530.314c1.763-1,4.566-2.814,6.819-4.3l-.039.151c-2.256,1.5-5.04,3.309-6.836,4.328-1.538.872-4.459,2.459-8.694,4.723l-.007-.017a.455.455,0,0,1-.029-.132C249.762,532.275,252.182,530.946,253.293,530.314Z" transform="translate(-244.507 -525.601)" fill="#141c1e"/>
          <path id="Path_63623" data-name="Path 63623" d="M253.453,531.143c1.76-1,4.461-2.75,6.691-4.231l-.039.148c-2.136,1.428-4.9,3.23-6.706,4.257-1.521.862-4.409,2.44-8.594,4.7l-.061-.14C248.987,533.605,251.913,532.017,253.453,531.143Z" transform="translate(-244.641 -526.11)" fill="#141c1e"/>
          <path id="Path_63624" data-name="Path 63624" d="M254.693,534.577c1.86-1.051,4.361-2.717,6-3.837a.542.542,0,0,1-.088.077c-1.413.974-4.068,2.77-5.974,3.846-2.181,1.232-6.794,3.81-7.752,4.344a1.254,1.254,0,0,1-.131.022C248.406,538.1,252.573,535.774,254.693,534.577Z" transform="translate(-245.774 -528.272)" fill="#141c1e"/>
          <path id="Path_63625" data-name="Path 63625" d="M253.248,529.639c-1.1.626-3.5,1.941-8.677,4.689a.6.6,0,0,1,.3-.314c4.123-2.176,6.9-3.668,8.244-4.433,1.9-1.078,5.46-3.456,6.9-4.428a.554.554,0,0,1,.2-.084.468.468,0,0,1-.01.169C257.934,526.746,255.046,528.618,253.248,529.639Z" transform="translate(-244.543 -525.07)" fill="#141c1e"/>
        </g>
        <path id="Path_63626" data-name="Path 63626" d="M236.2,520.948a32.607,32.607,0,0,0,6.581-2.667,80.3,80.3,0,0,0,12.765-7.913c.8-.646,2.03-1.753,3.087-2.788V508.7c-1.057,1.035-2.289,2.142-3.087,2.789a80.241,80.241,0,0,1-12.765,7.912,36.279,36.279,0,0,1-6.121,2.549Z" transform="translate(-150.444 -433.849)" fill="#525f61"/>
        <path id="Path_63627" data-name="Path 63627" d="M228.169,537.584a11.741,11.741,0,0,0,2.189-.281l.46,1a11.056,11.056,0,0,1-2.649.4,3.5,3.5,0,0,1-2.311-1.046v-1.118A3.506,3.506,0,0,0,228.169,537.584Z" transform="translate(-144.604 -450.204)" fill="#f6921e"/>
        <path id="Path_63628" data-name="Path 63628" d="M288.815,505.055c0,.335,0,.705-.013,1.118,0,.005,0,.01,0,.016-.311.334-.675.7-1.062,1.083v-1.118C288.133,505.768,288.5,505.393,288.815,505.055Z" transform="translate(-179.553 -432.423)" fill="#f6921e"/>
        <g id="Group_11325" data-name="Group 11325" transform="translate(80.688 91.181)">
          <path id="Path_63629" data-name="Path 63629" d="M227.236,548.874c1.283.076,3.469-.963,4.355-1.146s.871.122,1.024.382a18.807,18.807,0,0,1,.6,1.968c-.255.113-4.326,1.9-5.688,1.971a5.908,5.908,0,0,1-2.964-.95l.186-3.05A6.138,6.138,0,0,0,227.236,548.874Z" transform="translate(-224.559 -547.672)" fill="#f0eff0"/>
        </g>
        <path id="Path_63630" data-name="Path 63630" d="M284.952,518.787a14.086,14.086,0,0,1-3.661,3.828l.571-2.639a3.305,3.305,0,0,1,.627-1.268c.318-.265,1.873-1.95,2.562-2.695C284.994,517.736,284.952,518.787,284.952,518.787Z" transform="translate(-175.911 -438.611)" fill="#f0eff0"/>
        <path id="Path_63631" data-name="Path 63631" d="M244.833,555.06l2.956-1.458a.716.716,0,0,1,.079-.03v.361a1.3,1.3,0,0,1-.622,1.04L244.4,556.5a.681.681,0,0,1-.119.049l-.031-.475A1.145,1.145,0,0,1,244.833,555.06Z" transform="translate(-154.989 -459.823)" fill="#141c1e"/>
        <path id="Path_63632" data-name="Path 63632" d="M272.384,539.883a1.691,1.691,0,0,1,.676-1.081l2.644-1.69-.051.3a1.849,1.849,0,0,1-.709,1.081l-2.594,1.694Z" transform="translate(-170.861 -450.528)" fill="#141c1e"/>
        <path id="Path_63633" data-name="Path 63633" d="M244.44,556.462l2.849-1.53a1.3,1.3,0,0,0,.622-1.04v-.361c.311-.109.554.066.554.424v.408a1.3,1.3,0,0,1-.622,1.04l-2.849,1.53a.421.421,0,0,1-.669-.371l0-.05A.673.673,0,0,0,244.44,556.462Z" transform="translate(-155.032 -459.782)" fill="#fff" opacity="0.5" style="mix-blend-mode: overlay;isolation: isolate"/>
        <path id="Path_63634" data-name="Path 63634" d="M272.329,539.913l2.594-1.694a1.849,1.849,0,0,0,.709-1.081l.051-.3.181-.115c.327-.209.542-.068.476.315l-.069.409a1.849,1.849,0,0,1-.71,1.081l-2.733,1.785c-.325.212-.554.07-.51-.316Z" transform="translate(-170.841 -450.253)" fill="#fff" opacity="0.5" style="mix-blend-mode: overlay;isolation: isolate"/>
        <path id="Path_63635" data-name="Path 63635" d="M226.344,538.036a18.361,18.361,0,0,1-1.785-1.218,5.909,5.909,0,0,0,2.964.95c1.406-.076,5.7-1.976,5.7-1.976s6.347-3.535,8.665-4.979,5.524-3.272,7.259-4.522a14.264,14.264,0,0,0,3.765-3.9s.21-.008.336.347c-.624,1.4-2.882,3.189-3.972,4.012-1.706,1.288-4.94,3.079-7.258,4.523s-8.665,4.978-8.665,4.978-4.294,1.9-5.7,1.976A2.746,2.746,0,0,1,226.344,538.036Z" transform="translate(-143.871 -442.211)" fill="#fff" opacity="0.5" style="mix-blend-mode: overlay;isolation: isolate"/>
        <path id="Path_63636" data-name="Path 63636" d="M256.441,547.156a.367.367,0,0,1-.006-.06v-2.241a.908.908,0,0,1,.406-.708l5.274-3.073a.417.417,0,0,1,.115-.046.438.438,0,0,1,.006.065v2.141a.921.921,0,0,1-.4.712l-5.28,3.163A.432.432,0,0,1,256.441,547.156Z" transform="translate(-161.873 -452.74)" opacity="0.2" style="mix-blend-mode: multiply;isolation: isolate"/>
        <path id="Path_63637" data-name="Path 63637" d="M256.56,547.1l5.28-3.163a.922.922,0,0,0,.4-.712v-2.141a.443.443,0,0,0-.006-.065c.168-.04.292.067.292.279v2.142a.923.923,0,0,1-.4.712l-5.28,3.163c-.2.121-.371.044-.4-.168A.434.434,0,0,0,256.56,547.1Z" transform="translate(-161.881 -452.729)" fill="#fff" opacity="0.5" style="mix-blend-mode: overlay;isolation: isolate"/>
        <path id="Path_63638" data-name="Path 63638" d="M224.225,536.818a5.909,5.909,0,0,0,2.964.95c1.406-.076,5.7-1.976,5.7-1.976s6.347-3.535,8.665-4.979,5.524-3.272,7.259-4.522a14.262,14.262,0,0,0,3.765-3.9s.622-.025.363,1.815c-.07.5-.116.929-.169,1.322a33.549,33.549,0,0,1-3.9,3.066.452.452,0,0,0-.312.092l-.181.115-2.644,1.69a1.462,1.462,0,0,0-.394.4l-1.156.725v-.833c0-.212-.124-.319-.292-.279a.415.415,0,0,0-.115.046l-5.274,3.073a.908.908,0,0,0-.406.708v1.119q-.593.339-1.194.667a.377.377,0,0,0-.489-.153.7.7,0,0,0-.079.03l-2.956,1.458a1.152,1.152,0,0,0-.554.719,34.916,34.916,0,0,1-5.156,2.009,5.976,5.976,0,0,1-3.627-.359,4.611,4.611,0,0,1-.072-.553A15,15,0,0,1,224.225,536.818Z" transform="translate(-143.537 -442.211)" fill="#fff" opacity="0.1" style="mix-blend-mode: overlay;isolation: isolate"/>
        <g id="Group_11326" data-name="Group 11326" transform="translate(86.418 91.717)">
          <path id="Path_63639" data-name="Path 63639" d="M239.643,549.59a1.855,1.855,0,0,1-.8,1.716.711.711,0,0,1-1.11-.56,1.856,1.856,0,0,1,.8-1.716A.71.71,0,0,1,239.643,549.59Z" transform="translate(-237.724 -548.905)" fill="#fff"/>
        </g>
        <g id="Group_11327" data-name="Group 11327" transform="translate(106.295 80.082)">
          <path id="Path_63640" data-name="Path 63640" d="M284.805,522.855a2.157,2.157,0,0,1-.588,1.716c-.355.307-.767.018-.817-.56a2.157,2.157,0,0,1,.588-1.716C284.343,521.989,284.755,522.278,284.805,522.855Z" transform="translate(-283.393 -522.171)" fill="#fff"/>
        </g>
        <g id="Group_11328" data-name="Group 11328" transform="translate(107.728 78.602)">
          <path id="Path_63641" data-name="Path 63641" d="M287.86,519.341a1.8,1.8,0,0,1-.489,1.427c-.3.255-.638.016-.679-.466a1.8,1.8,0,0,1,.488-1.428C287.475,518.62,287.818,518.86,287.86,519.341Z" transform="translate(-286.685 -518.771)" fill="#fff"/>
        </g>
        <g id="Group_11329" data-name="Group 11329" transform="translate(84.196 92.678)">
          <path id="Path_63642" data-name="Path 63642" d="M234.391,551.745a1.716,1.716,0,0,1-.736,1.586.657.657,0,0,1-1.025-.518,1.715,1.715,0,0,1,.737-1.586A.657.657,0,0,1,234.391,551.745Z" transform="translate(-232.619 -551.113)" fill="#fff"/>
        </g>
        <g id="Group_11330" data-name="Group 11330" transform="translate(81.957 92.965)">
          <path id="Path_63643" data-name="Path 63643" d="M229.028,552.327a1.5,1.5,0,0,1-.646,1.39.576.576,0,0,1-.9-.454,1.5,1.5,0,0,1,.646-1.39A.575.575,0,0,1,229.028,552.327Z" transform="translate(-227.475 -551.773)" fill="#fff"/>
        </g>
        <path id="Path_63644" data-name="Path 63644" d="M203.866,535.269a.592.592,0,0,1-.086.033.089.089,0,0,1-.046.006c-.016-.006-.017-.021-.027-.031l-.046-.068-.091-.134-.185-.267-.376-.532c-.252-.353-.5-.706-.762-1.055q-.765-1.052-1.571-2.077a41.335,41.335,0,0,0-3.454-3.9,33.1,33.1,0,0,0-3.958-3.4,17.43,17.43,0,0,0-4.586-2.455,20.286,20.286,0,0,1,4.426,2.67,39.827,39.827,0,0,1,3.863,3.441q1.819,1.842,3.528,3.8.849.981,1.662,2c.268.34.533.683.791,1.031l.382.525.188.265.094.133.046.067c.006.012.019.02.02.037a.1.1,0,0,1-.024.04.507.507,0,0,1-.064.067Z" transform="translate(-123.607 -441.645)" opacity="0.2" style="mix-blend-mode: multiply;isolation: isolate"/>
        <path id="Path_63645" data-name="Path 63645" d="M207.118,508.876c-.169-1.121-.374-2.237-.575-3.352s-.438-2.225-.674-3.336-.495-2.215-.778-3.315-.595-2.195-.985-3.273a4.787,4.787,0,0,0-.92-1.5,10.427,10.427,0,0,0-1.245-1.2,16.647,16.647,0,0,0-1.385-1.019,14.585,14.585,0,0,0-1.478-.873l-3.021-1.562c-1.012-.509-2.019-1.028-3.038-1.525l-.026.048c.977.574,1.966,1.129,2.95,1.692l2.97,1.656a17.87,17.87,0,0,1,2.765,1.9,10.014,10.014,0,0,1,1.19,1.162,4.541,4.541,0,0,1,.844,1.378c.39,1.051.7,2.14,1,3.228s.571,2.188.844,3.287.525,2.2.776,3.306.5,2.21.751,3.315Z" transform="translate(-126.043 -422.74)" opacity="0.2" style="mix-blend-mode: multiply;isolation: isolate"/>
        <path id="Path_63646" data-name="Path 63646" d="M219.014,559.15c.117.763.447,2.068.638,2.793l-1.634-.786c-.943-.579-1.925-1.251-2.512-1.663a15.123,15.123,0,0,0-.389-2.545Z" transform="translate(-138.539 -461.731)" fill="#141c1e"/>
        <path id="Path_63647" data-name="Path 63647" d="M290.083,490.221a2.082,2.082,0,0,0,.868.91,30.221,30.221,0,0,0,3.008-.394,2.379,2.379,0,0,0,.384-.1v-4.446a1.612,1.612,0,0,1,.288-.843l.409-.528c.158-.2.288-.161.288.1v5.116a1.156,1.156,0,0,1-.359.774l-.266.226c-.164.138-.3.109-.344-.051a2.772,2.772,0,0,1-.339.085,30,30,0,0,1-3.09.4l-.041,0-.037-.016a2.358,2.358,0,0,1-1.067-1.087c-.245-.508-.766-.645-1.689-.444l-.071-.324C288.707,489.448,289.662,489.352,290.083,490.221Z" transform="translate(-179.714 -420.92)" fill="#263338"/>
        <path id="Path_63648" data-name="Path 63648" d="M192.875,492.312h.035a1.4,1.4,0,0,1,.337.052l7.455,4.218.034.019.037.014a3.68,3.68,0,0,1,1.818,2.16,72.3,72.3,0,0,1,2.488,9.28c.048.3.1.572.141.83a12.92,12.92,0,0,1,.234,1.749,39.493,39.493,0,0,1-5.2-4.734c-1.587-1.686-6.817-7.31-7.027-7.535a2.82,2.82,0,0,1-.621-1.726C192.64,495.569,192.84,492.792,192.875,492.312Z" transform="translate(-125.826 -425.225)" fill="#263338"/>
        <path id="Path_63649" data-name="Path 63649" d="M220.645,482.737a.619.619,0,0,1,.415-.262l.082,0,.052-.029a102.917,102.917,0,0,0,13.429-7,79.879,79.879,0,0,0,10.05-7.127,47.307,47.307,0,0,1,5.275,12.941c-.377.488-.789,1.018-1.23,1.576-1.159,1.471-3.961,4.4-9.7,7.516l-.194.105c-4.634,2.513-9.01,4.885-11.97,5.277a7.218,7.218,0,0,1-.914.064c-1.608,0-1.869-.7-1.9-.786l0-.037-.007-.01c-.109-.367-2.661-9-3.336-11A1.552,1.552,0,0,1,220.645,482.737Z" transform="translate(-141.602 -411.67)" fill="#263338"/>
        <path id="Path_63650" data-name="Path 63650" d="M249.984,495.232a19.416,19.416,0,0,0-7.083,2.023,11.384,11.384,0,0,0-4.1,3.95l-11.966,6.419c.115.387.222.744.316,1.063l13.609-7.375c1.857-1.13,10.762-6.081,10.762-6.081Z" transform="translate(-145.153 -426.875)" fill="#36474c"/>
        <path id="Path_63651" data-name="Path 63651" d="M253.907,496.444l-1.979-1.212a32.8,32.8,0,0,0-7.372,2.757c-1.706.963-2.736,2.926-3.39,3.323l-13.609,7.375.437,1.474.007.01,0,.037c.027.088.288.786,1.9.786a7.219,7.219,0,0,0,.914-.064c2.96-.391,7.336-2.764,11.97-5.277l.194-.105c5.741-3.113,8.542-6.045,9.7-7.516.44-.558.852-1.088,1.23-1.576Z" transform="translate(-145.563 -426.875)" fill="#45555b"/>
        <path id="Path_63652" data-name="Path 63652" d="M221.06,497.916l.082,0,.052-.029c.034-.014,1.931-.8,4.821-2.231l-.165,3.666-4.365,2.589c-.335-1.094-.621-2.006-.79-2.5a1.552,1.552,0,0,1-.05-1.224A.62.62,0,0,1,221.06,497.916Z" transform="translate(-141.602 -427.112)" fill="#45555b" opacity="0.5"/>
        <path id="Path_63653" data-name="Path 63653" d="M245.941,484.339l.429-.267v3.586l-5.247,2.564-.541-2.792C242.241,486.536,244.057,485.5,245.941,484.339Z" transform="translate(-152.92 -420.572)" fill="#45555b" opacity="0.5"/>
        <path id="Path_63654" data-name="Path 63654" d="M246.883,498.077l-5.058-3.2,5.247-2.563,5.542,2.375Z" transform="translate(-153.622 -425.226)" fill="#36474c" opacity="0.5"/>
        <path id="Path_63655" data-name="Path 63655" d="M223.421,509.009c-.246-.817-.491-1.622-.713-2.347l4.365-2.589,6.027,2.26-7.56,4.614Z" transform="translate(-142.825 -431.869)" fill="#36474c" opacity="0.5"/>
        <path id="Path_63656" data-name="Path 63656" d="M251.71,496.22c.3.9,2,1.14,3.8.541s3.02-1.81,2.723-2.707-2-1.141-3.8-.542S251.412,495.323,251.71,496.22Z" transform="translate(-159.179 -425.718)" fill="#45555b"/>
        <path id="Path_63657" data-name="Path 63657" d="M253.325,496.73c.208.625,1.5.759,2.879.3s2.335-1.337,2.127-1.962-1.5-.76-2.878-.3S253.118,496.105,253.325,496.73Z" transform="translate(-160.101 -426.459)" fill="#36474c"/>
        <path id="Path_63658" data-name="Path 63658" d="M257.156,497.214c.07.212.506.257.974.1s.79-.453.72-.664-.506-.257-.975-.1S257.085,497,257.156,497.214Z" transform="translate(-162.275 -427.567)" fill="#45555b"/>
        <path id="Path_63659" data-name="Path 63659" d="M213.553,519.483l-5.845-3.778,4.243-2.626C212.583,515.241,213.272,517.954,213.553,519.483Z" transform="translate(-134.354 -436.954)" fill="#36474c" opacity="0.5"/>
        <path id="Path_63660" data-name="Path 63660" d="M209.483,504.377,205.24,507s-1.4-6.67-1.9-9.332l3.423,1.937.034.019.037.013a3.68,3.68,0,0,1,1.818,2.16C208.877,502.388,209.173,503.317,209.483,504.377Z" transform="translate(-131.886 -428.252)" fill="#45555b" opacity="0.5"/>
        <path id="Path_63661" data-name="Path 63661" d="M268.382,468.69c.607,1.091,4.016,7.415,4.227,12.006l-.742-.454h-1.534l-7.471-7.407A66.987,66.987,0,0,0,268.382,468.69Z" transform="translate(-165.503 -411.885)" fill="#c4d0d3"/>
        <path id="Path_63662" data-name="Path 63662" d="M263.637,468.31a47.307,47.307,0,0,1,5.275,12.941c-.377.488-.79,1.018-1.229,1.576a20.5,20.5,0,0,1-2.482,2.581c-2.76-4.527-7.617-8.133-11.08-10.3A78.2,78.2,0,0,0,263.637,468.31Z" transform="translate(-160.567 -411.67)" fill="#fff" opacity="0.2"/>
        <path id="Path_63663" data-name="Path 63663" d="M231.189,525.942l-.215,5.1s-.832.912-2.5,0V526.21A5.676,5.676,0,0,0,231.189,525.942Z" transform="translate(-146.085 -444.219)" fill="#263338"/>
      </g>
    </g>
    <g id="Group_21245" data-name="Group 21245" transform="translate(36 -29.598)">
      <g id="Group_12145" data-name="Group 12145" transform="translate(690.867 994.482)">
        <ellipse id="Ellipse_816" data-name="Ellipse 816" cx="14.44" cy="6.381" rx="14.44" ry="6.381" transform="matrix(-0.998, 0.07, -0.07, -0.998, 29.7, 27.858)" opacity="0.19"/>
        <g id="Group_18146" data-name="Group 18146" transform="translate(5.487 8.592)">
          <g id="Group_12141" data-name="Group 12141">
            <path id="Path_65630" data-name="Path 65630" d="M860.552,451.31a10.333,10.333,0,0,0,.42,3.174c.5,1.731,2.06,3.372,4.636,4.579,5.651,2.648,14.024,2.2,18.7-.993,2.18-1.49,3.172-3.314,3.038-5.106.023-.167-.151-2.391-.151-2.391a5.57,5.57,0,0,0-1.018-1.81,9.562,9.562,0,0,0-3.883-3.032c-5.651-2.648-14.024-2.2-18.7.993C861.625,448.07,860.628,449.689,860.552,451.31Z" transform="translate(-860.534 -443.399)" fill="#ffad7f"/>
            <ellipse id="Ellipse_452" data-name="Ellipse 452" cx="13.283" cy="7.515" rx="13.283" ry="7.515" transform="translate(0.123 0.41)" fill="#fff"/>
            <ellipse id="Ellipse_453" data-name="Ellipse 453" cx="13.283" cy="7.515" rx="13.283" ry="7.515" transform="translate(0.123)" fill="#ffc5a5"/>
          </g>
        </g>
        <g id="Group_12142" data-name="Group 12142" transform="translate(5.487 4.226)">
          <g id="Group_12141-2" data-name="Group 12141">
            <path id="Path_65630-2" data-name="Path 65630" d="M860.552,451.31a10.333,10.333,0,0,0,.42,3.174c.5,1.731,2.06,3.372,4.636,4.579,5.651,2.648,14.024,2.2,18.7-.993,2.18-1.49,3.172-3.314,3.038-5.106.023-.167-.151-2.391-.151-2.391a5.57,5.57,0,0,0-1.018-1.81,9.562,9.562,0,0,0-3.883-3.032c-5.651-2.648-14.024-2.2-18.7.993C861.625,448.07,860.628,449.689,860.552,451.31Z" transform="translate(-860.534 -443.399)" fill="#ffad7f"/>
            <ellipse id="Ellipse_452-2" data-name="Ellipse 452" cx="13.283" cy="7.515" rx="13.283" ry="7.515" transform="translate(0.123 0.41)" fill="#fff"/>
            <ellipse id="Ellipse_453-2" data-name="Ellipse 453" cx="13.283" cy="7.515" rx="13.283" ry="7.515" transform="translate(0.123)" fill="#ffc5a5"/>
          </g>
        </g>
        <g id="Group_12144" data-name="Group 12144" transform="translate(5.487)">
          <g id="Group_12143" data-name="Group 12143">
            <path id="Path_65631" data-name="Path 65631" d="M860.552,433.928a10.335,10.335,0,0,0,.42,3.174c.5,1.731,2.06,3.372,4.636,4.578,5.651,2.648,14.024,2.2,18.7-.993,2.18-1.49,3.172-3.314,3.038-5.106.023-.167-.151-2.391-.151-2.391a5.571,5.571,0,0,0-1.018-1.811,9.562,9.562,0,0,0-3.883-3.033c-5.651-2.648-14.024-2.2-18.7.993C861.625,430.687,860.628,432.306,860.552,433.928Z" transform="translate(-860.534 -426.016)" fill="#ffad7f"/>
            <ellipse id="Ellipse_454" data-name="Ellipse 454" cx="13.283" cy="7.515" rx="13.283" ry="7.515" transform="translate(0.123 0.41)" fill="#fff"/>
            <ellipse id="Ellipse_455" data-name="Ellipse 455" cx="13.283" cy="7.515" rx="13.283" ry="7.515" transform="translate(0.123)" fill="#ffc5a5"/>
            <ellipse id="Ellipse_456" data-name="Ellipse 456" cx="9.286" cy="5.253" rx="9.286" ry="5.253" transform="translate(4.13 2.064)" fill="#ff975d"/>
            <ellipse id="Ellipse_457" data-name="Ellipse 457" cx="11.576" cy="6.549" rx="11.576" ry="6.549" transform="translate(1.802 0.981)" fill="none" stroke="#ffebe0" stroke-miterlimit="10" stroke-width="1.146"/>
          </g>
          <path id="Path_65632" data-name="Path 65632" d="M892.71,434.477c-3.951-1.851-9.8-1.54-13.074.694a4.371,4.371,0,0,0-2.115,3.025c-.139-1.284.55-2.6,2.115-3.669,3.27-2.234,9.123-2.545,13.074-.694,2.376,1.113,3.522,2.754,3.347,4.372C895.906,436.805,894.771,435.442,892.71,434.477Z" transform="translate(-873.374 -430.562)" fill="#ec691f"/>
        </g>
      </g>
      <path id="Path_65711" data-name="Path 65711" d="M4.56,0,3.643.91l.961.958s.6.54.432,1.111-.186.524-.186.524L2.944,1.6l-.913.905L3.925,4.4a1.467,1.467,0,0,1-1,.094,5.05,5.05,0,0,1-.739-.426L1.329,3.2.279,4.245l.545.543s.353.3.163,1.22S0,9.5,0,9.5l1.406,1.4C2.17,8.356,2.717,6.22,2.456,5.629a2.652,2.652,0,0,0,2.753.084l.858.854L7,5.638l-.882-.879a1.213,1.213,0,0,0,.407-.934L7.7,4.993l.918-.91Z" transform="translate(708.808 1007.724) rotate(-142)" fill="#ec691f"/>
      <path id="Path_96786" data-name="Path 96786" d="M4.56,0,3.643.91l.961.958s.6.54.432,1.111-.186.524-.186.524L2.944,1.6l-.913.905L3.925,4.4a1.467,1.467,0,0,1-1,.094,5.05,5.05,0,0,1-.739-.426L1.329,3.2.279,4.245l.545.543s.353.3.163,1.22S0,9.5,0,9.5l1.406,1.4C2.17,8.356,2.717,6.22,2.456,5.629a2.652,2.652,0,0,0,2.753.084l.858.854L7,5.638l-.882-.879a1.213,1.213,0,0,0,.407-.934L7.7,4.993l.918-.91Z" transform="translate(708.808 1006.821) rotate(-142)" fill="#ffebe0"/>
    </g>
    <g id="Group_21246" data-name="Group 21246" transform="translate(667.334 916.075)">
      <g id="Group_11285" data-name="Group 11285" transform="translate(0 0)">
        <path id="Path_63522" data-name="Path 63522" d="M1070.4,1054.013c2.932,1.694,2.932,4.438,0,6.131a11.73,11.73,0,0,1-10.617,0c-2.932-1.693-2.932-4.437,0-6.131A11.739,11.739,0,0,1,1070.4,1054.013Z" transform="translate(-1057.588 -986.206)" fill="#438be3" opacity="0.2" style="mix-blend-mode: multiply;isolation: isolate"/>
        <path id="Path_63523" data-name="Path 63523" d="M1072.809,834.487a11.3,11.3,0,0,0-10.226,0,3.592,3.592,0,0,0-2.119,2.953v66.566a3.594,3.594,0,0,0,2.119,2.953,11.3,11.3,0,0,0,10.226,0,3.594,3.594,0,0,0,2.118-2.953V837.44A3.593,3.593,0,0,0,1072.809,834.487Z" transform="translate(-1059.593 -833.264)" fill="url(#linear-gradient-9)"/>
        <path id="Path_63524" data-name="Path 63524" d="M1072.809,834.487c2.825,1.631,2.825,4.274,0,5.906a11.309,11.309,0,0,1-10.226,0c-2.825-1.632-2.826-4.275,0-5.906A11.3,11.3,0,0,1,1072.809,834.487Z" transform="translate(-1059.593 -833.264)" fill="#ff975d"/>
      </g>
      <path id="Path_63525" data-name="Path 63525" d="M1122.745,1084.594c2.931,1.693,2.931,4.437,0,6.131a11.735,11.735,0,0,1-10.617,0c-2.932-1.694-2.932-4.438,0-6.131A11.737,11.737,0,0,1,1122.745,1084.594Z" transform="translate(-1094.061 -1007.516)" fill="#438be3" opacity="0.2" style="mix-blend-mode: multiply;isolation: isolate"/>
      <path id="Path_63526" data-name="Path 63526" d="M1125.15,920.789a11.3,11.3,0,0,0-10.226,0,3.592,3.592,0,0,0-2.118,2.952v49.673a3.593,3.593,0,0,0,2.118,2.952,11.3,11.3,0,0,0,10.227,0,3.594,3.594,0,0,0,2.118-2.952V923.742A3.592,3.592,0,0,0,1125.15,920.789Z" transform="translate(-1096.066 -893.403)" fill="url(#linear-gradient-10)"/>
      <path id="Path_63527" data-name="Path 63527" d="M1125.148,920.789c2.826,1.63,2.826,4.274,0,5.905a11.3,11.3,0,0,1-10.227,0c-2.825-1.631-2.825-4.275,0-5.905A11.3,11.3,0,0,1,1125.148,920.789Z" transform="translate(-1096.064 -893.403)" fill="#95ade2"/>
      <path id="Path_63528" data-name="Path 63528" d="M1175.926,1115.149c2.931,1.693,2.931,4.438,0,6.13a11.73,11.73,0,0,1-10.617,0c-2.933-1.693-2.933-4.437,0-6.13A11.738,11.738,0,0,1,1175.926,1115.149Z" transform="translate(-1131.119 -1028.808)" fill="#438be3" opacity="0.2" style="mix-blend-mode: multiply;isolation: isolate"/>
      <path id="Path_63529" data-name="Path 63529" d="M1178.332,981.733a11.3,11.3,0,0,0-10.226,0,3.6,3.6,0,0,0-2.118,2.953v40.46a3.594,3.594,0,0,0,2.118,2.952,11.305,11.305,0,0,0,10.227,0,3.594,3.594,0,0,0,2.118-2.952v-40.46A3.6,3.6,0,0,0,1178.332,981.733Z" transform="translate(-1133.125 -935.871)" fill="url(#linear-gradient-11)"/>
      <path id="Path_63530" data-name="Path 63530" d="M1178.331,981.733c2.825,1.631,2.825,4.275,0,5.905a11.305,11.305,0,0,1-10.227,0c-2.823-1.63-2.824-4.274,0-5.905A11.3,11.3,0,0,1,1178.331,981.733Z" transform="translate(-1133.125 -935.871)" fill="#ffc29f"/>
    </g>
  </g>
</svg>
