<svg xmlns="http://www.w3.org/2000/svg" xmlns:xlink="http://www.w3.org/1999/xlink" width="1040.299" height="776.033" viewBox="0 0 1040.299 776.033">
  <defs>
    <radialGradient id="radial-gradient" cx="0.5" cy="0.5" r="0.5" gradientUnits="objectBoundingBox">
      <stop offset="0" stop-color="#c1c1c1"/>
      <stop offset="1" stop-color="#fff"/>
    </radialGradient>
    <radialGradient id="radial-gradient-2" cx="-0.705" cy="2.717" r="0.003" gradientTransform="translate(0.118) scale(0.765 1)" gradientUnits="objectBoundingBox">
      <stop offset="0" stop-color="#fff4ee"/>
      <stop offset="1" stop-color="#fff6f1"/>
    </radialGradient>
    <clipPath id="clip-path">
      <path id="Path_97992" data-name="Path 97992" d="M65.1,11l72-5.6v8.1L65.1,19Z"/>
    </clipPath>
    <clipPath id="clip-path-2">
      <path id="Path_97993" data-name="Path 97993" d="M154.6,4.1,212.9-.4V7.7l-58.3,4.5Z"/>
    </clipPath>
  </defs>
  <g id="img_card_features2" transform="translate(-12828.701 -5962.279)">
    <ellipse id="Ellipse_877" data-name="Ellipse 877" cx="388.5" cy="46" rx="388.5" ry="46" transform="translate(12919.503 6646.438) rotate(-3)" fill="url(#radial-gradient)"/>
    <g id="img_card_features-2" transform="translate(-489.399 3150.479)">
      <g id="Group_21401" transform="translate(0 10)">
        <path id="Path_97974" d="M13587.1,3159.5l438.1-33.6c8.3-.6,15,6.5,15,15.9l-.2,290.3c0,9.4-6.7,17.6-15,18.2l-438.1,33.6c-8.3.6-15-6.5-15-15.9l.2-290.3C13572.1,3168.3,13578.8,3160.2,13587.1,3159.5Z" fill="#df8e59"/>
        <g id="Group_21400" transform="translate(-126 -26)">
          <path id="Path_97963" d="M13717.8,3190.5l438.1-33.6c8.3-.6,15,6.5,15,15.9l-.2,290.3c0,9.4-6.7,17.6-15,18.2l-438.1,33.6c-8.3.6-15-6.5-15-15.9l.2-290.3C13702.8,3199.3,13709.5,3191.2,13717.8,3190.5Z" fill="url(#radial-gradient-2)"/>
          <g id="Group_21399" opacity="0.12">
            <path id="Path_97967" d="M14157.7,3481l-67.4,5.2-34.4-40.4-37.8,46-91.1,7,129-174.6,114.3,118.2v21.5c-.1,1.2-.3,2.4-.5,3.6a18.678,18.678,0,0,1-3.2,7,22.364,22.364,0,0,1-8.9,6.5Z" fill="#001850"/>
            <path id="Path_97969" d="M14055,3445.9l-140.9-145.1,116.9-9,24,31.5,111.5-161.5a19.5,19.5,0,0,1,3.1,6.1,19.8,19.8,0,0,1,.7,3.5l-.1,100.6L14055,3445.9Zm115.8-289.6h-.4l.4-.6v.6Z" fill="#ec691f"/>
          </g>
          <g id="logo_svg" transform="translate(8234 -3360.5)">
            <path id="Path_7819" d="M5531.2,6573v51.2" fill="none" stroke="#707070" stroke-width="1"/>
            <g id="Group_11608" transform="translate(5471.906 6563.64)">
              <g id="Group_11607" transform="translate(0 27.449)">
                <g id="Group_8033">
                  <g id="Group_21415" data-name="Group 21415">
                    <g id="Mask_Group_48" clip-path="url(#clip-path)">
                      <path id="Path_7815" d="M66.9,12Zm-.2,6.6,1.4-.1V15.8l2.6-.2V14.2l-2.6.2V13.1l3.1-.2V11.4l-4.5.3Zm15.8-1.2,4.3-.3V15.6l-2.9.2V10.4l-1.4.1Zm15.7-1.2,4.8-.4V14.3l-3.4.3V13.2l2.9-.2V11.6l-2.9.2V10.6l3.3-.3V8.9l-4.7.4ZM114.4,15l4.8-.4V13.1l-3.4.3V12l2.9-.2V10.4l-2.9.2V9.4l3.3-.3V7.7l-4.7.4ZM132,13.6l1.4-.1V8.1l1.8-.1V6.5l-5,.4V8.4l1.8-.1Zm18.6-4.2a1.456,1.456,0,0,1-1.2,1.6h-.1c-.6,0-1.5-.5-1.5-2.1s.8-2.3,1.5-2.3c.6-.1,1.1.4,1.2,1.1l1.4-.1a2.327,2.327,0,0,0-2.6-2.3,3.49,3.49,0,0,0-3,3.5v.3a3.074,3.074,0,0,0,2.6,3.4h.2a2.94,2.94,0,0,0,2.7-2.9V9.4ZM163,11.2l1.5-.1.5-1.6,2-.2.5,1.5,1.5-.1L166.7,4l-1.4.1Zm2.4-6.8,1.2-.1,2.1,6.3-1.1.1-.5-1.5-2.3.2-.5,1.6-1.1.1Zm1.2,3.8-1.3.1.7-2.1h0Zm-.1-3.9-1.2.1L163.2,11l1.1-.1.5-1.6,2.3-.2.5,1.5,1.1-.1Zm13.7,5.6,1.4-.1V7.2l1-.1c.8-.1,1.1.1,1.2,1.3a2.234,2.234,0,0,0,.2,1.2l1.6-.1c-.1-.1-.3-.3-.3-1V7.9a1.683,1.683,0,0,0-.7-1.5,2.136,2.136,0,0,0,.8-1.7c0-1.5-1-1.9-2.1-1.8l-2.9.2Zm.2-6.6,2.6-.2c.5,0,2-.2,2,1.7a2.227,2.227,0,0,1-.9,1.7h0c.6.3.7.5.8,1.5v.6c0,.5.1.7.2.8l-1.1.1V8.1c-.1-1.3-.6-1.3-1.4-1.2l-1.2.1Zm1.2,1,1.2-.1c.4,0,1-.1,1,.7s-.6.9-1,.9l-1.2.2ZM183.1,7l.5.3.4,1.4a2.485,2.485,0,0,0,.1.8h1.1L185,7.7l-.2-.9-.6-.4a2.7,2.7,0,0,0,.7-.8,2.92,2.92,0,0,0,.2-.9,1.513,1.513,0,0,0-.7-1.4,1.4,1.4,0,0,0-1.4-.2l-2.6.2.9,3.9Zm15.4-3.9.9-.1c.3,0,1.6-.1,1.6,1.9S199.7,7,199.4,7l-.9.1Zm-1.3,5.3,2.3-.2c1.2-.1,2.7-.8,2.7-3.4s-1.5-3.1-2.7-3l-2.3.2Zm0-6.4,2.3-.2a2.437,2.437,0,0,1,2.7,2.4v.6A3.048,3.048,0,0,1,200,8.2c-.2,0-.3.1-.5.1l-2.3.2ZM197,8.6l2.5-.2a3.059,3.059,0,0,0,2.9-3V4.8a2.729,2.729,0,0,0-2.3-3.2h-.6l-2.5.2Z"/>
                    </g>
                  </g>
                  <g id="Group_21416" data-name="Group 21416">
                    <g id="Mask_Group_49" transform="translate(95.544)" clip-path="url(#clip-path-2)">
                      <path id="Path_7816" d="M-20.2,10.7Zm-.2,6.7,1.4-.1V14.6l2.6-.2V13l-2.6.2V11.9l3.1-.2V10.2l-4.5.3Zm15.8-1.2,4.3-.3V14.4l-2.9.2V9.2l-1.4.1ZM11.2,15l4.8-.4V13.1l-3.4.3V12l2.9-.2V10.4l-2.9.2V9.4l3.3-.3V7.7l-4.7.4Zm16.3-1.3,4.8-.4V11.8l-3.4.3V10.7l2.9-.2V9.1l-2.9.2V8.1l3.3-.3V6.4l-4.7.4Zm17.6-1.3,1.4-.1V6.9l1.8-.1V5.3l-5,.4V7.2L45.1,7ZM63.7,8.2a1.631,1.631,0,0,1-1.2,1.7h-.1c-.6,0-1.5-.5-1.5-2.1s.8-2.3,1.5-2.3c.6-.1,1.1.4,1.2,1.1L65,6.5a2.327,2.327,0,0,0-2.6-2.3,3.49,3.49,0,0,0-3,3.5V8a3.074,3.074,0,0,0,2.7,3.4h.2A2.94,2.94,0,0,0,65,8.5V8.3ZM76.1,10l1.5-.1.5-1.6,2-.2.5,1.5,1.5-.1L79.8,2.8,78.4,3Zm2.4-6.8,1.2-.1,2.1,6.3-1.1.1L80.2,8l-2.3.2-.5,1.6-1.1.1Zm1.2,3.7L78.4,7l.7-2.1h0Zm0-3.8-1.2.1L76.4,9.8l1.1-.1L78,8.1l2.3-.2.5,1.5,1.1-.1ZM93.4,8.7l1.4-.1V6l1-.1c.9-.1,1.1.1,1.2,1.3a2.233,2.233,0,0,0,.2,1.2l1.6-.1c-.1-.1-.3-.3-.3-1V6.7a1.683,1.683,0,0,0-.7-1.5,2.136,2.136,0,0,0,.8-1.7c0-1.5-1-1.9-2.1-1.8l-3,.2ZM93.6,2l2.6-.2c.5,0,2-.2,2,1.7a2.227,2.227,0,0,1-.9,1.7h0c.6.4.7.5.8,1.5v.6c0,.5.1.7.2.8l-1.1.1a1.949,1.949,0,0,1-.1-.8V6.9c-.1-1.3-.6-1.3-1.4-1.2l-1.1.1Zm1.2,1.1L96,3c.4,0,1-.1,1,.7s-.6.9-1,.9l-1.2.1Zm1.5,2.6.5.3.4,1.4a2.485,2.485,0,0,0,.1.8h1.1l-.2-1.7-.2-1-.6-.4a2.7,2.7,0,0,0,.7-.8,2.92,2.92,0,0,0,.2-.9A1.513,1.513,0,0,0,97.6,2a1.7,1.7,0,0,0-1.4-.2L93.6,2l.9,3.9Zm15.4-3.9.9-.1c.3,0,1.6-.1,1.6,1.9s-1.3,2.1-1.6,2.1l-.9.1Zm-1.3,5.3,2.3-.2c1.2-.1,2.7-.8,2.7-3.4s-1.5-3.1-2.7-3l-2.3.2Zm.1-6.4,2.3-.2A2.457,2.457,0,0,1,115.5,3v.6A3.048,3.048,0,0,1,113.3,7c-.2,0-.3.1-.5.1l-2.3.2Zm-.2,6.7,2.5-.2a3.059,3.059,0,0,0,2.9-3V3.6A2.729,2.729,0,0,0,113.4.4h-.6l-2.5.2Z"/>
                    </g>
                  </g>
                </g>
                <path id="Path_7817" d="M70.3,28.9l1,.3a2.751,2.751,0,0,1-.8,1.5,1.974,1.974,0,0,1-1.4.6,2.086,2.086,0,0,1-1.8-.7,3.408,3.408,0,0,1-.7-2.2,3.986,3.986,0,0,1,.7-2.4,2.386,2.386,0,0,1,1.8-1,1.845,1.845,0,0,1,1.6.5,1.606,1.606,0,0,1,.5,1.1l-.9.4a1.612,1.612,0,0,0-.4-.7.952.952,0,0,0-.7-.2,1.217,1.217,0,0,0-1,.6,3.166,3.166,0,0,0-.4,1.6,2.726,2.726,0,0,0,.4,1.6.951.951,0,0,0,1,.4.755.755,0,0,0,.7-.4A4.18,4.18,0,0,0,70.3,28.9Zm1.9-1a8.753,8.753,0,0,1,.2-1.6,4.053,4.053,0,0,1,.5-.9,1.344,1.344,0,0,1,.7-.6,2.663,2.663,0,0,1,1.2-.3,2.28,2.28,0,0,1,1.9.7,3.034,3.034,0,0,1,.7,2.3,4.2,4.2,0,0,1-.7,2.4,2.576,2.576,0,0,1-1.9,1,2.28,2.28,0,0,1-1.9-.7A3.034,3.034,0,0,1,72.2,27.9Zm1.1-.1a2.41,2.41,0,0,0,.4,1.5,1.606,1.606,0,0,0,1.1.5,1.382,1.382,0,0,0,1.1-.6,2.4,2.4,0,0,0,.4-1.6,2.41,2.41,0,0,0-.4-1.5,1.19,1.19,0,0,0-1.1-.4,1.382,1.382,0,0,0-1.1.6,2.6,2.6,0,0,0-.4,1.5Zm5,2.7V24.4l1.1-.1,2.2,3.9V24.1l1-.1v6.1l-1.1.1-2.2-3.8v4Zm6.9-.5-1.9-6,1.2-.1,1.4,4.4,1.3-4.6,1.1-.1-1.9,6.3Zm3.8-.3V23.6l4-.3v1l-2.9.2v1.4l2.7-.2v1l-2.7.2v1.7l3-.2v1Zm5.1-.4V23.2l1.1-.1L97.4,27V22.9l1-.1v6.1l-1.1.1-2.2-3.8v4Zm5.5-.4V22.8l1.1-.1v6.1Zm2.2-.2V22.6l4-.3v1l-2.9.2v1.4l2.7-.2v1l-2.7.2v1.7l3-.2v1Zm5.1-.4V22.2l1.1-.1,2.2,3.9V21.9l1-.1v6.1l-1.1.1-2.2-3.8v4Zm6.8-.5V22.7l-1.6.1v-1l4.3-.3v1l-1.6.1v5.1Zm2.6-1.4,1-.1v.8a2.2,2.2,0,0,1-.1.8l-.3.6a1.756,1.756,0,0,1-.5.4l-.2-.5a.781.781,0,0,0,.4-.4,1.268,1.268,0,0,0,.1-.6h-.5Zm4.1-1.1,1.1-.2a1.8,1.8,0,0,0,.4.9.778.778,0,0,0,.8.2,1.136,1.136,0,0,0,.8-.3.864.864,0,0,0,.3-.6.6.6,0,0,0-.1-.4.52.52,0,0,0-.4-.2c-.1,0-.4-.1-.9-.2a2.567,2.567,0,0,1-1.2-.5,1.656,1.656,0,0,1-.5-1.2,2.92,2.92,0,0,1,.2-.9,2.336,2.336,0,0,1,.7-.7,2.587,2.587,0,0,1,2.6.1,1.9,1.9,0,0,1,.5,1.3l-1.1.1a.908.908,0,0,0-.3-.7,1.445,1.445,0,0,0-.7-.2.908.908,0,0,0-.7.3.52.52,0,0,0-.2.4.758.758,0,0,0,.2.4,1.689,1.689,0,0,0,1,.3,5.638,5.638,0,0,1,1.2.4,1.7,1.7,0,0,1,.6.6,1.645,1.645,0,0,1,.2,1,1.929,1.929,0,0,1-.3,1,1.576,1.576,0,0,1-.7.7,2.663,2.663,0,0,1-1.2.3,2.276,2.276,0,0,1-1.6-.4,2.628,2.628,0,0,1-.7-1.5Zm5.4,1.5V20.7l4-.3v1l-2.9.2V23l2.7-.2v1l-2.7.2v1.7l3-.2v1Zm8.6-2.9,1,.3a2.751,2.751,0,0,1-.8,1.5,1.974,1.974,0,0,1-1.4.6,2.086,2.086,0,0,1-1.8-.7,3.408,3.408,0,0,1-.7-2.2,3.986,3.986,0,0,1,.7-2.4,2.386,2.386,0,0,1,1.8-1,1.845,1.845,0,0,1,1.6.5,1.606,1.606,0,0,1,.5,1.1l-1.1.4a1.612,1.612,0,0,0-.4-.7.952.952,0,0,0-.7-.2,1.217,1.217,0,0,0-1,.6,3.166,3.166,0,0,0-.4,1.6,2.726,2.726,0,0,0,.4,1.6.951.951,0,0,0,1,.4.755.755,0,0,0,.7-.4A1.326,1.326,0,0,0,134.4,23.9Zm2.1-4,1.1-.1v4.3c0,.2.2.4.3.6a1.854,1.854,0,0,0,.7.2,1.08,1.08,0,0,0,.7-.3,2.186,2.186,0,0,0,.3-.5,3.352,3.352,0,0,0,0-1V19.7l1.1-.1v3.2a9.15,9.15,0,0,1-.1,1.6,6.89,6.89,0,0,1-.3.8,2.651,2.651,0,0,1-.6.5,1.929,1.929,0,0,1-1,.3,2.462,2.462,0,0,1-1.2-.1,1.47,1.47,0,0,1-.6-.5,4.875,4.875,0,0,1-.3-.7,7.568,7.568,0,0,1-.1-1.5Zm5.5,5.7V19.5l2.3-.2a2.462,2.462,0,0,1,1.2.1,1.024,1.024,0,0,1,.6.5,1.486,1.486,0,0,1,.2.9,1.922,1.922,0,0,1-.4,1.2,1.738,1.738,0,0,1-1.1.6,2.652,2.652,0,0,1,.6.5l.6.9.7,1.1-1.3.1-.8-1.3L144,23c-.1-.1-.2-.2-.3-.2-.2,0-.4-.1-.5,0H143v2.6Zm1.1-3.6.8-.1c.3,0,.7-.1,1-.1l.3-.3a.749.749,0,0,0,.1-.5.749.749,0,0,0-.1-.5.758.758,0,0,0-.4-.2H144l-.8.1Zm4.4,3.2V19.1l4-.3v1l-2.9.2v1.4l2.7-.2v1l-2.7.2v1.7l3-.2v1Zm12.1-1.7-.6,1-.9-.6a1.794,1.794,0,0,1-.7.5,2.92,2.92,0,0,1-.9.2,1.651,1.651,0,0,1-1.5-.5,1.5,1.5,0,0,1-.4-1.1,2.016,2.016,0,0,1,.3-1.1,2.581,2.581,0,0,1,.9-.9,1.612,1.612,0,0,1-.4-.7,1.268,1.268,0,0,1-.1-.6,1.284,1.284,0,0,1,.4-1,1.606,1.606,0,0,1,1.1-.5,1.431,1.431,0,0,1,1.1.3,1.159,1.159,0,0,1,.4,1,1.445,1.445,0,0,1-.2.7,3.043,3.043,0,0,1-.8.8l.7,1.1a1.854,1.854,0,0,0,.2-.7l.9.2c-.1.3-.1.6-.2.8s-.1.3-.2.5l.4.4c.2.1.4.1.5.2Zm-2.8-3.1.3-.3a.6.6,0,0,0,.3-.6c0-.1-.1-.3-.1-.4a.6.6,0,0,0-.4-.1.758.758,0,0,0-.4.2.367.367,0,0,0-.1.3.764.764,0,0,0,.2.5Zm-.4,1.3a1.205,1.205,0,0,0-.5.5,1.421,1.421,0,0,0-.2.6,1.072,1.072,0,0,0,.2.6.735.735,0,0,0,.6.2c.2,0,.3-.1.5-.1a1.756,1.756,0,0,0,.5-.4Zm6.2,2.3V17.9l2.3-.2a2.462,2.462,0,0,1,1.2.1,1.024,1.024,0,0,1,.6.5,1.486,1.486,0,0,1,.2.9,1.922,1.922,0,0,1-.4,1.2,1.738,1.738,0,0,1-1.1.6,2.652,2.652,0,0,1,.6.5l.6.9.7,1.1-1.3.1-.8-1.3-.6-.9c-.1-.1-.2-.2-.3-.2-.2,0-.4-.1-.5,0h-.2v2.6Zm1.1-3.6.8-.1c.3,0,.7-.1,1-.1l.3-.3a.749.749,0,0,0,.1-.5.749.749,0,0,0-.1-.5.758.758,0,0,0-.4-.2h-.8l-.8.1Zm4.4,3.2V17.5l4-.3v1l-2.9.2v1.4l2.7-.2v1l-2.7.2v1.7l3-.2v1Zm5.9-.4-1.3-6,1.1-.1.8,4.1,1-4.3,1.3-.1.9,4.2.8-4.3,1.1-.1-1.3,6.2-1.1.1-1.1-4.5-1.1,4.7Zm10.8-.9-1.2.1-.5-1.4-2.1.2-.4,1.4-1.1.1,2.1-6.3,1.1-.1Zm-1.9-2.2-.7-2.2-.7,2.3Zm2.6,2.2V16.2l2.3-.2a2.462,2.462,0,0,1,1.2.1,1.024,1.024,0,0,1,.6.5,1.486,1.486,0,0,1,.2.9,1.922,1.922,0,0,1-.4,1.2,1.738,1.738,0,0,1-1.1.6,2.652,2.652,0,0,1,.6.5l.6.9.7,1.1-1.3.1-.8-1.3-.6-.9c-.1-.1-.2-.2-.3-.2-.2,0-.4-.1-.5,0h-.2v2.6Zm1.1-3.6.8-.1c.3,0,.7-.1,1-.1l.3-.3a.749.749,0,0,0,.1-.5.749.749,0,0,0-.1-.5.758.758,0,0,0-.4-.2h-.8l-.8.1Zm4.5-3,2-.2h1a2.177,2.177,0,0,1,.8.5,3.128,3.128,0,0,1,.5,1,6.752,6.752,0,0,1,.2,1.4,2.954,2.954,0,0,1-.2,1.3,2.384,2.384,0,0,1-.6,1.1,2.177,2.177,0,0,1-.8.5,2.959,2.959,0,0,1-1,.2l-2,.2Zm1,1v4.1l.8-.1a1.952,1.952,0,0,0,.7-.1,1.38,1.38,0,0,0,.4-.3l.3-.6a4.484,4.484,0,0,0,.1-1.1,4.1,4.1,0,0,0-.1-1.1l-.3-.6a2.186,2.186,0,0,0-.5-.3h-.9Zm4.5,4.7V15.3l1.1-.1v6.1Zm2.2-.1V15.2l1.1-.1,2.2,3.9V14.9l1-.1v6.1L202,21l-2.2-3.8v4Zm8-2.9v-1l2.3-.2v2.4a2.286,2.286,0,0,1-1,.7,3.258,3.258,0,0,1-1.3.4,2.059,2.059,0,0,1-1.5-.3,2.012,2.012,0,0,1-.9-1.1,4.146,4.146,0,0,1-.3-1.6,3.287,3.287,0,0,1,.4-1.7,2.94,2.94,0,0,1,1-1.2,2.836,2.836,0,0,1,1.3-.4,1.935,1.935,0,0,1,2.3,1.7l-1.1.3a1.612,1.612,0,0,0-.4-.7,1.077,1.077,0,0,0-.8-.2,1.382,1.382,0,0,0-1.1.6,2.026,2.026,0,0,0-.4,1.5,2.726,2.726,0,0,0,.4,1.6,1.606,1.606,0,0,0,1.1.5,1.854,1.854,0,0,0,.7-.2,2.092,2.092,0,0,0,.6-.4v-.8Zm3.5,2V19.2l1-.1v1.2Z"/>
                <path id="Path_97961" d="M66.4,19.9,211.7,8.8V9.9L66.4,21Z"/>
              </g>
              <g id="Group_11606" transform="translate(0.559)">
                <path id="Path_7807" d="M86.4,18.4l14.1-1.1v3.5l-4.3.3V34.4l-6,.6V21.7l-3.8.3Z" fill="#001850"/>
                <path id="Path_7810" d="M107.1,33.6l-6,.5V17.3l12.4-1a9.185,9.185,0,0,1,2.8.5,4.294,4.294,0,0,1,1.9,1.4,4.188,4.188,0,0,1,.9,2.7,4.645,4.645,0,0,1-.6,2.3,4.357,4.357,0,0,1-1.3,1.4,6.632,6.632,0,0,1-1.9.9l3.3,7.2-6.7.5L109,26.7l-1.9.1v6.8ZM107,20.2v3.4l4.1-.3a1.917,1.917,0,0,0,1.5-1.9,1.392,1.392,0,0,0-1.5-1.5Z" fill="#001850"/>
                <path id="Path_7811" d="M123.8,32.3l-4.7.4,5.8-17.3,6.2-.5L137,31.3l-5.4.4-1.2-3.1-5.6.4-1,3.3Zm3.9-11.9-1.6,4.7,3.2-.2Z" fill="#001850"/>
                <path id="Path_7813" d="M158,29.7a5.5,5.5,0,0,1-4.7-2.1,8.3,8.3,0,0,1-1.9-5.8,10.753,10.753,0,0,1,1.9-6.1,6.544,6.544,0,0,1,4.7-2.8,5.5,5.5,0,0,1,4.7,2.1,8.3,8.3,0,0,1,1.9,5.8,10.753,10.753,0,0,1-1.9,6.1A6.886,6.886,0,0,1,158,29.7Zm0-12.8a1.581,1.581,0,0,0-1.5,1.3,8.592,8.592,0,0,0-.5,3.2,6.959,6.959,0,0,0,.5,3.2,1.529,1.529,0,0,0,2.2.8,2.012,2.012,0,0,0,.9-1.1,8.592,8.592,0,0,0,.5-3.2,8.592,8.592,0,0,0-.5-3.2,1.715,1.715,0,0,0-1.6-1Z" fill="#ec691f"/>
                <path id="Path_7799" d="M164.8,12.3l4,16.5,4.1-.3,2.2-10,1.9,9.7,4.3-.3,3.8-17.1-3.8.3-1.8,9.5L177,11.4l-4.1.3-1.5,9.5L169.3,12Z" fill="#ec691f"/>
                <path id="Path_7798" d="M196.9,9.9l-11.2.9V27.6l11.2-.9v-4l-7,.5V20.1l5.8-.4V16.1l-5.8.4V14.2l7-.5Z" fill="#ec691f"/>
                <path id="Path_7814" d="M203,26.2l-4.7.4V9.8l8.7-.7a5.381,5.381,0,0,1,2.2.4,4.013,4.013,0,0,1,1.6,1.3,5.2,5.2,0,0,1,.4,5,4.177,4.177,0,0,1-1.1,1.5,5.715,5.715,0,0,1-1.6,1.1l3,7.2-4.9.4-2.3-6.7-1.6.1.3,6.8Zm-.3-13.8v3.9L206,16a1.812,1.812,0,0,0,1.2-2,1.7,1.7,0,0,0-1.2-1.9Z" fill="#ec691f"/>
                <path id="Path_7812" d="M142.8,30.8l-4.4.3V14.3l7.9-.6a4.879,4.879,0,0,1,3.6,1.3,5.234,5.234,0,0,1,1.2,3.9,5.547,5.547,0,0,1-.7,2.8,4.306,4.306,0,0,1-1.5,1.5,5.838,5.838,0,0,1-2.2.8l-4,.3.1,6.5Zm.1-13.2v3.3l2.4-.2a1.706,1.706,0,0,0,1.7-1.8,1.378,1.378,0,0,0-1.7-1.5l-2.4.2Z" fill="#ec691f"/>
                <path id="Path_64284" d="M66.2,36.8,76.9,22.3,89.2,35.1l-9.4.7-2.9-3.4-3.2,3.8Z" fill="#001850"/>
                <path id="Path_64283" d="M93.8,6.8l-17,25.6L65.1,20.3l9.7-.7,2,2.6L87,7.4Z" fill="#ec691f"/>
              </g>
            </g>
            <g id="Group_11605" transform="translate(5423 6565.316)">
              <g id="Group_11604">
                <path id="Path_97960" d="M85.3,13.2c8.5-.7,15.4,6.7,15.4,16.4S93.8,47.7,85.3,48.4,69.8,41.7,69.8,32h0C69.8,22.3,76.7,13.8,85.3,13.2Z" fill="#001a4d"/>
                <path id="Path_7818" d="M72.4,34.3l.2.2.2.2c.1,0,.1.1.2.1s.1.1.2.1l-.3.7c-.1-.1-.2-.1-.3-.2l-.3-.3-.3-.3c-.1-.1-.2-.2-.2-.3h-.3c-.1,0-.2-.1-.3-.2l-.2-.2c0-.1-.1-.2-.1-.3v-.2c0-.1.1-.1.1-.2l.1-.1h.2a.6.6,0,0,1,.4.1l.3.3c.1,0,.2,0,.2-.1a.1.1,0,0,0,.1-.1.349.349,0,0,0,.1-.2v-.4a.1.1,0,0,0-.1-.1h-.2l-.7.1a.6.6,0,0,1-.4-.1c-.1-.1-.2-.2-.2-.3-.1-.1-.1-.2-.1-.4v-.4a.756.756,0,0,1,.1-.4.349.349,0,0,1,.1-.2c.1-.1.1-.1.2-.1a.349.349,0,0,0,.2-.1l.9-.1v-.4l-1.9.1v-.7l3.3-.3v.7l-.8.1v1.1l-1.2.1c-.1,0-.2,0-.2.1a.349.349,0,0,0-.1.2v.1a.1.1,0,0,0,.1.1l.1.1h.2l.7-.1h.4a.215.215,0,0,1,.2.2.367.367,0,0,1,.1.3v.8c0,.1-.1.2-.1.4l-.3.3q-.15.3-.3.3Zm.2-5.4v-.2c0-.1,0-.1.1-.1l.1-.1H73a.1.1,0,0,1,.1.1l.1.1v.4c0,.1,0,.1-.1.1l-.1.1h-.2a.1.1,0,0,1-.1-.1l-.1-.1v-.2Zm2.7,1.4h-.6v3.8l-.7.1V30.4h-.6v-.7H74a1.483,1.483,0,0,1-.1-.7.9.9,0,0,1,.1-.5.758.758,0,0,1,.2-.4,1.38,1.38,0,0,1,.4-.3,1.268,1.268,0,0,1,.6-.1,1.483,1.483,0,0,1,.7.1c.2.1.5.2.7.3a3.394,3.394,0,0,1,.6.6,3.039,3.039,0,0,1,.5.7h-.6l-.2-.2c-.1-.1-.2-.2-.3-.2-.1-.1-.2-.2-.3-.2-.1-.1-.2-.1-.3-.2s-.2-.1-.4-.1h-.4a.367.367,0,0,0-.3.1.215.215,0,0,0-.2.2c-.1.1-.1.1-.1.2v.6c0,.1.1.2.1.3h.6Zm3.9-.3-.8.1v1l-1.3.1c-.1,0-.1,0-.2.1,0,0-.1.1,0,.1v.1a.1.1,0,0,0,.1.1l.1.1h.2l.7-.1h.4a.215.215,0,0,1,.2.2.367.367,0,0,1,.1.3v.4a.749.749,0,0,1-.1.5c-.1.2-.1.3-.2.5-.1.1-.2.3-.4.3-.2.1-.4.1-.6.2a1.268,1.268,0,0,1-.6-.1,2.092,2.092,0,0,1-.6-.4c-.2-.2-.3-.4-.5-.6-.1-.2-.2-.5-.3-.7L76,32c.1.2.1.4.2.5a1.38,1.38,0,0,0,.3.4c.1.1.3.2.4.3a.749.749,0,0,0,.5.1.367.367,0,0,0,.3-.1c.1,0,.1-.1.2-.2s.1-.1.1-.2v-.5a.1.1,0,0,0-.1-.1h-.2l-.7.2a.367.367,0,0,1-.3-.1c-.1-.1-.2-.2-.2-.3-.1-.1-.1-.2-.1-.4v-.7a.349.349,0,0,1,.1-.2c.1-.1.1-.1.2-.1a.367.367,0,0,0,.3-.1l.9-.1V30l-2.6.2v-.7l4-.3Zm-.1,0v-.7l3.6-.3v.7h-.6v3.8l-.7.1V32.5h0l-.1.1a.349.349,0,0,1-.2.1c-.1,0-.1.1-.2.1h-.2a1.268,1.268,0,0,1-.6-.1.781.781,0,0,1-.4-.4c-.1-.2-.2-.3-.3-.5a1.268,1.268,0,0,1-.1-.6c.1,0,.2-.1.3-.1s.1-.1.2-.2c0-.1.1-.1.1-.2v-.5c0-.1-.1-.2-.1-.3Zm1.6.6a.749.749,0,0,1-.1.5.781.781,0,0,1-.4.4c0,.1.1.2.1.3s.1.1.1.2c.1,0,.1.1.2.1h.2a.758.758,0,0,0,.4-.2c.1-.1.2-.3.3-.4V29.8l-1,.1c.1.1.1.2.1.4a.367.367,0,0,1,.1.3Zm5.7-1.1h-.6v3.8l-.7.1V31.3H84v.5c0,.1,0,.1-.1.1l-.1.1h-.2c-.1,0-.1-.1-.2-.1l-.2-.2c0-.1-.1-.1-.1-.2a.349.349,0,0,0-.1-.2v-.4a.1.1,0,0,1,.1-.1h.3l1.7-.1v-1l-2.5.2v-.7l3.8-.3Zm2.5,1.1h.2a.367.367,0,0,0,.3-.1c.1,0,.2-.1.3-.1V28.5l1.2-.1v.7h-.6v3.8l-.6.1V31.1h-.4v.2a.9.9,0,0,1-.1.5c-.1.1-.1.3-.2.4a1.38,1.38,0,0,1-.4.3.6.6,0,0,1-.4.1h-.4c-.1,0-.2-.1-.4-.2l-.3-.3a.758.758,0,0,1-.2-.4c-.1-.1-.1-.3-.2-.4a.9.9,0,0,1-.1-.5l.6-.3c0,.1.1.2.1.3s.1.2.1.3.1.2.2.3.1.2.2.2l.2.2c.1,0,.2.1.3,0,.1,0,.3-.1.3-.2a.6.6,0,0,0,.1-.4v-.3c0-.1-.1-.1-.1-.2-.1,0-.1-.1-.2-.1h-.6v-.7H88c.1,0,.1-.1.2-.1s.1-.1.1-.2.1-.2,0-.3a.426.426,0,0,0-.7-.3c-.1,0-.2.1-.3.1l-.2-.6c.1-.1.2-.1.4-.2.1,0,.2-.1.4-.1h.4c.1,0,.2.1.3.2s.2.2.2.3a.6.6,0,0,1,.1.4.9.9,0,0,1-.1.5,1.38,1.38,0,0,1-.3.4h0a.1.1,0,0,1,.1.1c.2.5.3.5.3.5ZM92.5,29h-.6v3.8l-.7.1V29.1h-.6v-.7l1.8-.1Zm-1.7-2.5v.1c0,.1,0,.1.1.2a.31.31,0,0,1,.1.2c0,.1.1.1.1.2.1.1.1.1.2.1h.2c.1,0,.2,0,.2-.1.1,0,.1-.1.2-.1.1-.1.1-.1.1-.2s.1-.1.1-.2,0-.1.1-.2v-.2l.5.2a.367.367,0,0,1-.1.3c0,.1-.1.2-.1.3s-.1.2-.2.3-.1.2-.2.3-.2.2-.3.2c.1.1-.1.1-.2.1a.9.9,0,0,1-.5-.1c-.1-.1-.3-.1-.4-.2s-.2-.3-.3-.4c-.1-.2-.1-.4-.2-.5ZM92.4,29v-.7L96,28v.7h-.6v3.8l-.7.1V31.5h0l-.1.1a.349.349,0,0,1-.2.1c-.1,0-.1.1-.2.1H94a1.268,1.268,0,0,1-.6-.1.781.781,0,0,1-.4-.4c-.1-.2-.2-.3-.3-.5a1.268,1.268,0,0,1-.1-.6c.1,0,.2-.1.3-.1s.1-.1.2-.2c0-.1.1-.1.1-.2v-.5c0-.1-.1-.2-.1-.3Zm1.6.6a.749.749,0,0,1-.1.5.781.781,0,0,1-.4.4c0,.1.1.2.1.3s.1.1.1.2c.1,0,.1.1.2.1h.2a.758.758,0,0,0,.4-.2c.1-.1.2-.3.3-.4V28.8l-1,.1c.1.1.1.2.1.4C93.9,29.4,94,29.5,94,29.6Zm4.8,2.7V29.7h-.2c-.1,0-.1,0-.2.1a.1.1,0,0,0-.1.1c0,.1-.1.1-.1.2v.4h-.6v-.3c0-.1,0-.2-.1-.2,0-.1-.1-.1-.1-.2a.349.349,0,0,0-.2-.1.1.1,0,0,0-.1.1l-.1.1c0,.1,0,.1-.1.2v.2a1.268,1.268,0,0,0,.1.6,1.768,1.768,0,0,0,.7.7.758.758,0,0,0,.4.2l-.3.6a.349.349,0,0,1-.2-.1c-.1-.1-.2-.1-.3-.2l-.3-.3c-.1-.1-.2-.3-.3-.4-.1-.2-.2-.3-.2-.5a1.268,1.268,0,0,1-.1-.6.9.9,0,0,1,.1-.5.52.52,0,0,1,.2-.4l.3-.3a.6.6,0,0,1,.4-.1h.3c.1,0,.1.1.2.1a.1.1,0,0,1,.1.1l.1.1h0c0-.1.1-.1.1-.2s.1-.1.2-.1.1-.1.2-.1H99v-.4l-2.9.2V28l4.1-.3v.7h-.6v3.8Z" fill="#f5f5f5"/>
                <path id="Path_7821" d="M85.2,48.4a13.664,13.664,0,0,1-12.5-6.3,15.584,15.584,0,0,1-2.2-4.7L100,35.1a17.3,17.3,0,0,1-2.2,5c-3,4.9-7.7,8-12.6,8.3ZM99.9,24.2,70.4,26.5a17.3,17.3,0,0,1,2.2-5c5.1-8.3,14.8-10.8,21.7-5.5a14.173,14.173,0,0,1,3.3,3.6,12.454,12.454,0,0,1,2.3,4.6Z" fill="#ec691f"/>
                <path id="Path_7823" d="M85.2,50.2c-9.4.7-17-7.4-17-18.1,0-7.8,4.1-15.1,10.4-18.6,8.7-4.7,18.6-.6,22.1,9,3.4,9.4-.5,20.8-8.9,25.7A16.9,16.9,0,0,1,85.2,50.2Zm.1-37.7c-8.9.7-16,9.4-16.1,19.5s7.2,17.8,16,17.1c8.9-.7,16-9.4,16.1-19.5h0c0-10.1-7.2-17.8-16-17.1Z" fill="#001a4d"/>
              </g>
              <path id="Path_64285" d="M68.5,59.8V53l1.2-.1v6.8Zm6.1-.4-1.1.1V57a3.4,3.4,0,0,0-.1-1c0-.1-.1-.3-.2-.3a.6.6,0,0,0-.4-.1.764.764,0,0,0-.5.2.55.55,0,0,0-.3.5,4.485,4.485,0,0,0-.1,1.1v2.2l-1.1.1V54.8l1.1-.1v.7a1.615,1.615,0,0,1,1.4-.9,1.7,1.7,0,0,1,.7.1,1.756,1.756,0,0,1,.5.4c.1.2.2.3.2.5,0,.3.1.6.1.9Zm5-.4-1.1.1v-.7a4.349,4.349,0,0,1-.6.7c-.2.2-.5.2-.7.3a1.612,1.612,0,0,1-1.3-.6,2.506,2.506,0,0,1-.5-1.9,3.018,3.018,0,0,1,.5-1.9,1.826,1.826,0,0,1,1.3-.8,1.76,1.76,0,0,1,1.3.6V52.3l1.1-.1Zm-3.1-2.4a1.978,1.978,0,0,0,.2,1.1.853.853,0,0,0,1.5.1,2.55,2.55,0,0,0,0-2.4.908.908,0,0,0-.7-.3,1.012,1.012,0,0,0-.7.4,2.016,2.016,0,0,0-.3,1.1Zm4.1-3.3V52.1l1.1-.1v1.2Zm0,5.6V54l1.1-.1v4.9Zm3-3.7-1-.1a2.384,2.384,0,0,1,.6-1.1,2.01,2.01,0,0,1,1.3-.4,1.986,1.986,0,0,1,1.1.1,1.205,1.205,0,0,1,.5.5,5.019,5.019,0,0,1,.2,1.2v1.5a3.751,3.751,0,0,0,.1,1,1.421,1.421,0,0,0,.2.6l-1.1.1c0-.1-.1-.2-.1-.4V58a2.651,2.651,0,0,1-.6.5,1.854,1.854,0,0,1-.7.2,1.431,1.431,0,0,1-1.1-.3,1.159,1.159,0,0,1-.4-1,2.354,2.354,0,0,1,.2-.8,1.205,1.205,0,0,1,.5-.5,3.552,3.552,0,0,1,.9-.4,3.582,3.582,0,0,0,1.1-.4v-.1c0-.2,0-.4-.2-.5a.661.661,0,0,0-.6-.1c-.2,0-.3.1-.5.2-.3.1-.4.3-.4.4Zm1.5,1c-.2.1-.5.2-.7.3s-.4.1-.6.3a.764.764,0,0,0-.2.5c0,.2.1.3.2.5a.764.764,0,0,0,.5.2.864.864,0,0,0,.6-.3c.1-.1.2-.3.3-.4,0-.2.1-.4,0-.6Zm6.1,1.9-1.2.1V55.7a3.4,3.4,0,0,0-.1-1c0-.1-.1-.3-.2-.3a.6.6,0,0,0-.4-.1.764.764,0,0,0-.5.2.55.55,0,0,0-.3.5,4.485,4.485,0,0,0-.1,1.1v2.2l-1.1.1V53.5l1.1-.1v.7a1.615,1.615,0,0,1,1.4-.9,1.7,1.7,0,0,1,.7.1,1.756,1.756,0,0,1,.5.4c.1.2.2.3.2.5,0,.3.1.6.1.9Zm.7-3.4a5.662,5.662,0,0,1,.3-1.8,2.075,2.075,0,0,1,.6-1,2.7,2.7,0,0,1,.8-.7,4.951,4.951,0,0,1,1.3-.4,2.355,2.355,0,0,1,2.1.8,3.75,3.75,0,0,1,.8,2.5,4.02,4.02,0,0,1-.8,2.6,2.756,2.756,0,0,1-2.1,1.1,2.355,2.355,0,0,1-2.1-.8,3.012,3.012,0,0,1-.9-2.3Zm1.3-.2a2.618,2.618,0,0,0,.5,1.7,1.147,1.147,0,0,0,1.2.5,1.525,1.525,0,0,0,1.2-.7,3.743,3.743,0,0,0,.5-1.8,3.287,3.287,0,0,0-.4-1.7A1.346,1.346,0,0,0,95,52a1.525,1.525,0,0,0-1.2.7A2.2,2.2,0,0,0,93.2,54.5Zm5.3-2.6V50.7l1.1-.1v1.2Zm0,5.6V52.6l1.1-.1v4.9Zm2.2-.1V50.6l1.1-.1v6.8Z" fill="#0d1b3a"/>
            </g>
          </g>
          <path id="Path_97964" d="M13773.1,3357l-11.6.9v-10.4l7.4-.6c2.7-.2,5-2.9,5-6v-9.4c0-3.1-2.2-5.5-5-5.3l-7.4.6v-10.4l11.6-.9c2.7-.2,5,2.2,5,5.3V3351C13778,3354.1,13775.8,3356.8,13773.1,3357Zm-13.3,1-16.5,1.3v-10.4l16.5-1.3V3358Zm-18.1,1.4-11.6.9c-2.7.2-4.9-2.2-5-5.3v-30.2c0-3.1,2.2-5.8,5-6l11.6-.9v10.4l-5,.4c-2.7.2-5,2.9-5,6v9.4c0,3.1,2.2,5.5,5,5.3l5-.4v10.4Zm27.2-13.4-7.4.6v-18.8l7.4-.6c2.3-.2,4.1,1.8,4.1,4.4v9.4a4.755,4.755,0,0,1-4.1,5Zm-9,.7-16.5,1.3v-18.8l16.5-1.3v18.8Zm-18.2,1.4-5,.4c-2.3.2-4.1-1.8-4.1-4.4v-9.4c0-2.6,1.9-4.9,4.1-5l5-.4v18.8Zm18.2-21.2-16.5,1.3v-10.4l16.5-1.3v10.4Z" fill="#fbd128"/>
          <path id="Path_97973" d="M13733.4,3400.8a5.348,5.348,0,0,1,4.9,2.2c1.4,1.9,2.1,5.2,2.1,9.8s-.7,8-2.1,10.1a6.274,6.274,0,0,1-4.9,2.9,5.365,5.365,0,0,1-5-2.4c-1.3-1.7-1.9-4.9-1.9-9.6,0-4.6.7-8,2.1-10.1A5.958,5.958,0,0,1,13733.4,3400.8Zm-.1,3.9a1.983,1.983,0,0,0-1.3.6,4.031,4.031,0,0,0-.9,2,31.841,31.841,0,0,0-.4,6.2,28.766,28.766,0,0,0,.4,5.9,4.114,4.114,0,0,0,1,2.1,1.574,1.574,0,0,0,1.3.4,1.983,1.983,0,0,0,1.3-.6,4.031,4.031,0,0,0,.9-2,31.33,31.33,0,0,0,.4-6.1,28.766,28.766,0,0,0-.4-5.9,4.964,4.964,0,0,0-.9-2.1A1.871,1.871,0,0,0,13733.3,3404.7Zm17.4-5.2a5.348,5.348,0,0,1,4.9,2.2c1.4,1.9,2.1,5.2,2.1,9.8s-.7,8-2.1,10.1a6.274,6.274,0,0,1-4.9,2.9,5.365,5.365,0,0,1-5-2.4c-1.3-1.7-1.9-4.9-1.9-9.6,0-4.6.7-8,2.1-10.1A5.86,5.86,0,0,1,13750.7,3399.5Zm0,3.9a1.983,1.983,0,0,0-1.3.6,4.031,4.031,0,0,0-.9,2,31.841,31.841,0,0,0-.4,6.2,28.766,28.766,0,0,0,.4,5.9,4.114,4.114,0,0,0,1,2.1,1.574,1.574,0,0,0,1.3.4,1.983,1.983,0,0,0,1.3-.6,4.031,4.031,0,0,0,.9-2,31.33,31.33,0,0,0,.4-6.1,28.766,28.766,0,0,0-.4-5.9,4.114,4.114,0,0,0-1-2.1A1.3,1.3,0,0,0,13750.7,3403.4Zm17.4-5.2a5.348,5.348,0,0,1,4.9,2.2c1.4,1.9,2.1,5.2,2.1,9.8s-.7,8-2.1,10.1a6.274,6.274,0,0,1-4.9,2.9,5.365,5.365,0,0,1-5-2.4c-1.3-1.7-1.9-4.9-1.9-9.6,0-4.6.7-8,2.1-10.1A5.73,5.73,0,0,1,13768.1,3398.2Zm0,3.8a1.983,1.983,0,0,0-1.3.6,4.031,4.031,0,0,0-.9,2,31.841,31.841,0,0,0-.4,6.2,28.766,28.766,0,0,0,.4,5.9,4.114,4.114,0,0,0,1,2.1,1.574,1.574,0,0,0,1.3.4,1.983,1.983,0,0,0,1.3-.6,4.031,4.031,0,0,0,.9-2,31.33,31.33,0,0,0,.4-6.1,28.766,28.766,0,0,0-.4-5.9,4.114,4.114,0,0,0-1-2.1A1.9,1.9,0,0,0,13768.1,3402Zm17.4-5.2a5.348,5.348,0,0,1,4.9,2.2c1.4,1.9,2.1,5.2,2.1,9.8s-.7,8-2.1,10.1a6.274,6.274,0,0,1-4.9,2.9,5.365,5.365,0,0,1-5-2.4c-1.3-1.7-1.9-4.9-1.9-9.6,0-4.6.7-8,2.1-10.1A5.958,5.958,0,0,1,13785.5,3396.8Zm0,3.9a1.983,1.983,0,0,0-1.3.6,4.031,4.031,0,0,0-.9,2,31.841,31.841,0,0,0-.4,6.2,28.766,28.766,0,0,0,.4,5.9,4.114,4.114,0,0,0,1,2.1,1.574,1.574,0,0,0,1.3.4,1.983,1.983,0,0,0,1.3-.6,4.031,4.031,0,0,0,.9-2,31.33,31.33,0,0,0,.4-6.1,28.766,28.766,0,0,0-.4-5.9,4.114,4.114,0,0,0-1-2.1A1.656,1.656,0,0,0,13785.5,3400.7Zm26.4-5.9a5.348,5.348,0,0,1,4.9,2.2c1.4,1.9,2.1,5.2,2.1,9.8s-.7,8-2.1,10.1a6.274,6.274,0,0,1-4.9,2.9,5.365,5.365,0,0,1-5-2.4c-1.3-1.7-1.9-4.9-1.9-9.6,0-4.6.7-8,2.1-10.1A5.727,5.727,0,0,1,13811.9,3394.8Zm0,3.9a1.983,1.983,0,0,0-1.3.6,4.031,4.031,0,0,0-.9,2,31.841,31.841,0,0,0-.4,6.2,28.766,28.766,0,0,0,.4,5.9,4.114,4.114,0,0,0,1,2.1,1.574,1.574,0,0,0,1.3.4,1.983,1.983,0,0,0,1.3-.6,4.031,4.031,0,0,0,.9-2,31.33,31.33,0,0,0,.4-6.1,28.766,28.766,0,0,0-.4-5.9,4.114,4.114,0,0,0-1-2.1A1.3,1.3,0,0,0,13811.9,3398.7Zm17.4-5.2a5.348,5.348,0,0,1,4.9,2.2c1.4,1.9,2.1,5.2,2.1,9.8s-.7,8-2.1,10.1a6.274,6.274,0,0,1-4.9,2.9,5.365,5.365,0,0,1-5-2.4c-1.3-1.7-1.9-4.9-1.9-9.6,0-4.6.7-8,2.1-10.1A5.729,5.729,0,0,1,13829.3,3393.5Zm0,3.9a1.983,1.983,0,0,0-1.3.6,4.031,4.031,0,0,0-.9,2,31.841,31.841,0,0,0-.4,6.2,28.766,28.766,0,0,0,.4,5.9,4.114,4.114,0,0,0,1,2.1,1.574,1.574,0,0,0,1.3.4,1.983,1.983,0,0,0,1.3-.6,4.031,4.031,0,0,0,.9-2,31.33,31.33,0,0,0,.4-6.1,28.766,28.766,0,0,0-.4-5.9,4.114,4.114,0,0,0-1-2.1A1.379,1.379,0,0,0,13829.3,3397.4Zm17.4-5.3a5.348,5.348,0,0,1,4.9,2.2c1.4,1.9,2.1,5.2,2.1,9.8s-.7,8-2.1,10.1a6.274,6.274,0,0,1-4.9,2.9,5.365,5.365,0,0,1-5-2.4c-1.3-1.7-1.9-4.9-1.9-9.6,0-4.6.7-8,2.1-10.1A5.958,5.958,0,0,1,13846.7,3392.1Zm0,3.9a1.983,1.983,0,0,0-1.3.6,4.031,4.031,0,0,0-.9,2,31.841,31.841,0,0,0-.4,6.2,28.766,28.766,0,0,0,.4,5.9,4.114,4.114,0,0,0,1,2.1,1.574,1.574,0,0,0,1.3.4,1.983,1.983,0,0,0,1.3-.6,4.031,4.031,0,0,0,.9-2,31.33,31.33,0,0,0,.4-6.1,28.766,28.766,0,0,0-.4-5.9,4.114,4.114,0,0,0-1-2.1A1.657,1.657,0,0,0,13846.7,3396Zm17.4-5.2a5.348,5.348,0,0,1,4.9,2.2c1.4,1.9,2.1,5.2,2.1,9.8s-.7,8-2.1,10.1a6.274,6.274,0,0,1-4.9,2.9,5.271,5.271,0,0,1-5-2.4c-1.3-1.7-1.9-4.9-1.9-9.6,0-4.6.7-8,2.1-10.1A5.729,5.729,0,0,1,13864.1,3390.8Zm0,3.9a1.983,1.983,0,0,0-1.3.6,4.031,4.031,0,0,0-.9,2,31.841,31.841,0,0,0-.4,6.2,28.766,28.766,0,0,0,.4,5.9,4.114,4.114,0,0,0,1,2.1,1.574,1.574,0,0,0,1.3.4,1.983,1.983,0,0,0,1.3-.6,4.031,4.031,0,0,0,.9-2,31.33,31.33,0,0,0,.4-6.1,28.766,28.766,0,0,0-.4-5.9,4.114,4.114,0,0,0-1-2.1A1.462,1.462,0,0,0,13864.1,3394.7Zm26.4-5.9a5.348,5.348,0,0,1,4.9,2.2c1.4,1.9,2.1,5.2,2.1,9.8s-.7,8-2.1,10.1a6.274,6.274,0,0,1-4.9,2.9,5.365,5.365,0,0,1-5-2.4c-1.3-1.7-1.9-4.9-1.9-9.6,0-4.6.7-8,2.1-10.1A5.727,5.727,0,0,1,13890.5,3388.8Zm0,3.9a1.983,1.983,0,0,0-1.3.6,4.031,4.031,0,0,0-.9,2,31.841,31.841,0,0,0-.4,6.2,28.766,28.766,0,0,0,.4,5.9,4.114,4.114,0,0,0,1,2.1,1.574,1.574,0,0,0,1.3.4,1.983,1.983,0,0,0,1.3-.6,4.031,4.031,0,0,0,.9-2,31.33,31.33,0,0,0,.4-6.1,28.766,28.766,0,0,0-.4-5.9,4.114,4.114,0,0,0-1-2.1A1.379,1.379,0,0,0,13890.5,3392.7Zm17.4-5.3a5.348,5.348,0,0,1,4.9,2.2c1.4,1.9,2.1,5.2,2.1,9.8s-.7,8-2.1,10.1a6.274,6.274,0,0,1-4.9,2.9,5.365,5.365,0,0,1-5-2.4c-1.3-1.7-1.9-4.9-1.9-9.6,0-4.6.7-8,2.1-10.1A5.959,5.959,0,0,1,13907.9,3387.4Zm0,3.9a1.983,1.983,0,0,0-1.3.6,4.031,4.031,0,0,0-.9,2,31.841,31.841,0,0,0-.4,6.2,28.766,28.766,0,0,0,.4,5.9,4.114,4.114,0,0,0,1,2.1,1.574,1.574,0,0,0,1.3.4,1.983,1.983,0,0,0,1.3-.6,4.031,4.031,0,0,0,.9-2,31.33,31.33,0,0,0,.4-6.1,28.766,28.766,0,0,0-.4-5.9,4.114,4.114,0,0,0-1-2.1A1.794,1.794,0,0,0,13907.9,3391.3Zm17.3-5.2a5.348,5.348,0,0,1,4.9,2.2c1.4,1.9,2.1,5.2,2.1,9.8s-.7,8-2.1,10.1a6.274,6.274,0,0,1-4.9,2.9,5.365,5.365,0,0,1-5-2.4c-1.3-1.7-1.9-4.9-1.9-9.6,0-4.6.7-8,2.1-10.1A6,6,0,0,1,13925.2,3386.1Zm0,3.9a1.983,1.983,0,0,0-1.3.6,4.031,4.031,0,0,0-.9,2,31.841,31.841,0,0,0-.4,6.2,28.766,28.766,0,0,0,.4,5.9,4.114,4.114,0,0,0,1,2.1,1.574,1.574,0,0,0,1.3.4,1.983,1.983,0,0,0,1.3-.6,4.031,4.031,0,0,0,.9-2,31.33,31.33,0,0,0,.4-6.1,28.766,28.766,0,0,0-.4-5.9,4.114,4.114,0,0,0-1-2.1A1.536,1.536,0,0,0,13925.2,3390Zm17.4-5.2a5.348,5.348,0,0,1,4.9,2.2c1.4,1.9,2.1,5.2,2.1,9.8s-.7,8-2.1,10.1a6.274,6.274,0,0,1-4.9,2.9,5.365,5.365,0,0,1-5-2.4c-1.3-1.7-1.9-4.9-1.9-9.6,0-4.6.7-8,2.1-10.1A5.729,5.729,0,0,1,13942.6,3384.8Zm0,3.9a1.983,1.983,0,0,0-1.3.6,4.031,4.031,0,0,0-.9,2,31.841,31.841,0,0,0-.4,6.2,28.766,28.766,0,0,0,.4,5.9,4.114,4.114,0,0,0,1,2.1,1.574,1.574,0,0,0,1.3.4,1.983,1.983,0,0,0,1.3-.6,4.031,4.031,0,0,0,.9-2,31.33,31.33,0,0,0,.4-6.1,28.766,28.766,0,0,0-.4-5.9,4.114,4.114,0,0,0-1-2.1A1.3,1.3,0,0,0,13942.6,3388.7Zm26.4-6a5.348,5.348,0,0,1,4.9,2.2c1.4,1.9,2.1,5.2,2.1,9.8s-.7,8-2.1,10.1a6.274,6.274,0,0,1-4.9,2.9,5.365,5.365,0,0,1-5-2.4c-1.3-1.7-1.9-4.9-1.9-9.6,0-4.6.7-8,2.1-10.1A6.55,6.55,0,0,1,13969,3382.7Zm0,3.9a1.983,1.983,0,0,0-1.3.6,4.031,4.031,0,0,0-.9,2,31.841,31.841,0,0,0-.4,6.2,28.766,28.766,0,0,0,.4,5.9,4.114,4.114,0,0,0,1,2.1,1.574,1.574,0,0,0,1.3.4,1.983,1.983,0,0,0,1.3-.6,4.031,4.031,0,0,0,.9-2,31.33,31.33,0,0,0,.4-6.1,28.766,28.766,0,0,0-.4-5.9,4.114,4.114,0,0,0-1-2.1A1.535,1.535,0,0,0,13969,3386.6Zm17.4-5.2a5.348,5.348,0,0,1,4.9,2.2c1.4,1.9,2.1,5.2,2.1,9.8s-.7,8-2.1,10.1a6.274,6.274,0,0,1-4.9,2.9,5.365,5.365,0,0,1-5-2.4c-1.3-1.7-1.9-4.9-1.9-9.6,0-4.6.7-8,2.1-10.1A5.959,5.959,0,0,1,13986.4,3381.4Zm0,3.9a1.983,1.983,0,0,0-1.3.6,4.031,4.031,0,0,0-.9,2,31.841,31.841,0,0,0-.4,6.2,28.766,28.766,0,0,0,.4,5.9,4.114,4.114,0,0,0,1,2.1,1.574,1.574,0,0,0,1.3.4,1.983,1.983,0,0,0,1.3-.6,4.031,4.031,0,0,0,.9-2,31.33,31.33,0,0,0,.4-6.1,28.766,28.766,0,0,0-.4-5.9,4.114,4.114,0,0,0-1-2.1A1.535,1.535,0,0,0,13986.4,3385.3Zm17.4-5.2a5.348,5.348,0,0,1,4.9,2.2c1.4,1.9,2.1,5.2,2.1,9.8s-.7,8-2.1,10.1a6.274,6.274,0,0,1-4.9,2.9,5.365,5.365,0,0,1-5-2.4c-1.3-1.7-1.9-4.9-1.9-9.6,0-4.6.7-8,2.1-10.1A5.728,5.728,0,0,1,14003.8,3380.1Zm0,3.9a1.983,1.983,0,0,0-1.3.6,4.031,4.031,0,0,0-.9,2,31.841,31.841,0,0,0-.4,6.2,28.766,28.766,0,0,0,.4,5.9,4.114,4.114,0,0,0,1,2.1,1.574,1.574,0,0,0,1.3.4,1.983,1.983,0,0,0,1.3-.6,4.031,4.031,0,0,0,.9-2,31.33,31.33,0,0,0,.4-6.1,28.766,28.766,0,0,0-.4-5.9,4.114,4.114,0,0,0-1-2.1A1.3,1.3,0,0,0,14003.8,3384Zm17.4-5.3a5.348,5.348,0,0,1,4.9,2.2c1.4,1.9,2.1,5.2,2.1,9.8s-.7,8-2.1,10.1a6.274,6.274,0,0,1-4.9,2.9,5.365,5.365,0,0,1-5-2.4c-1.3-1.7-1.9-4.9-1.9-9.6,0-4.6.7-8,2.1-10.1A6.213,6.213,0,0,1,14021.2,3378.7Zm0,3.9a1.983,1.983,0,0,0-1.3.6,4.031,4.031,0,0,0-.9,2,31.841,31.841,0,0,0-.4,6.2,28.766,28.766,0,0,0,.4,5.9,4.114,4.114,0,0,0,1,2.1,1.574,1.574,0,0,0,1.3.4,1.983,1.983,0,0,0,1.3-.6,4.031,4.031,0,0,0,.9-2,31.33,31.33,0,0,0,.4-6.1,28.766,28.766,0,0,0-.4-5.9,4.114,4.114,0,0,0-1-2.1A1.656,1.656,0,0,0,14021.2,3382.6Z" fill="#6d6d6d"/>
          <path id="Path_97972" d="M13731.6,3460.8l43.1-3.3c3.6-.3,6.6,2.8,6.5,7,0,4.1-2.9,7.7-6.6,8l-43.1,3.3c-3.6.3-6.6-2.8-6.5-7S13728,3461,13731.6,3460.8Z" fill="#9a9c9e"/>
          <path id="Path_97971" d="M13802.8,3455.3l43.1-3.3c3.6-.3,6.6,2.8,6.5,7,0,4.1-2.9,7.7-6.6,8l-43.1,3.3c-3.6.3-6.6-2.8-6.5-7C13796.2,3459.2,13799.2,3455.6,13802.8,3455.3Z" fill="#9a9c9e"/>
          <path id="Path_97970" d="M13873.9,3449.9l235-18c3.6-.3,6.6,2.8,6.5,7,0,4.1-2.9,7.7-6.6,8l-235,18c-3.6.3-6.6-2.8-6.5-7S13870.3,3450.1,13873.9,3449.9Z" fill="#9a9c9e"/>
        </g>
        <path id="Path_97975" d="M13576.8,3180.1l-4.4-4.6a20.615,20.615,0,0,1,5.4-11.4,14.247,14.247,0,0,1,10.1-4.5l438.3-33.6a14.13,14.13,0,0,1,6.4,1.3c2.9,1.5,6,6.1,6,6.1a9.7,9.7,0,0,0-4.7-2.2,33.045,33.045,0,0,0-7.7,0l-434,33.3s-6.2.4-10.3,4.5S13576.8,3180.1,13576.8,3180.1Z" fill="#ff975d"/>
      </g>
      <g id="Group_21406" transform="translate(-37)">
        <g id="Group_21405">
          <path id="Path_97977" d="M13442.5,3210.2c42.9-3.3,77.7,33.7,77.6,82.7s-34.8,91.3-77.8,94.6-77.7-33.7-77.6-82.7C13364.7,3255.8,13399.6,3213.5,13442.5,3210.2Z" fill="#e36410"/>
          <path id="Path_97976" d="M13450,3213.9c42.9-3.3,77.7,33.7,77.6,82.7,0,49-34.8,91.3-77.8,94.6-42.9,3.3-77.7-33.7-77.6-82.7C13372.2,3259.5,13407,3217.2,13450,3213.9Z" fill="#fef9f6"/>
        </g>
        <g id="Group_21404" transform="translate(224.054 459.769)">
          <path id="Path_96756" d="M13199.6,2872.3c-5.1.4-9.2-4-9.2-9.8v-37.9c0-5.8,4.1-10.8,9.2-11.2l55.4-4.2c5.1-.4,9.2,4,9.2,9.8v37.9c0,5.8-4.1,10.8-9.2,11.2Zm-5.5-48v37.9c0,3.5,2.5,6.1,5.5,5.9l55.4-4.2c3.1-.2,5.5-3.3,5.5-6.7v-37.9c0-3.5-2.5-6.1-5.5-5.9l-55.4,4.2c-3,.2-5.5,3.2-5.5,6.7Zm9.2,35.1a1.837,1.837,0,0,1-1.9-1.9,2.209,2.209,0,0,1,1.8-2.3h.1l48-3.7a1.792,1.792,0,0,1,1.8,2,2.175,2.175,0,0,1-1.8,2.2Zm3.7-12.9c-3.1.2-5.5-2.4-5.5-5.9v-8.4c0-3.5,2.5-6.5,5.5-6.7l7.4-.6c3.1-.2,5.5,2.4,5.5,5.9v8.4c0,3.5-2.5,6.5-5.5,6.7Zm-1.8-14.6v8.4a1.847,1.847,0,0,0,1.8,2l7.4-.6a2.176,2.176,0,0,0,1.8-2.2v-8.4a1.847,1.847,0,0,0-1.8-2l-7.4.6a2.036,2.036,0,0,0-1.8,2.2Z" fill="#0d1b3a"/>
          <g id="Group_21254" transform="translate(13101.946 2747.231)">
            <path id="Path_96803" d="M113.8,53.6l10.8-13.1L113.8,29" fill="none" stroke="#e36410" stroke-linecap="round" stroke-linejoin="round" stroke-width="4"/>
            <path id="Path_96805" d="M124.6,40.5a35.142,35.142,0,0,0-23.1,5.7A52.429,52.429,0,0,0,83.7,67" fill="none" stroke="#e36410" stroke-linecap="round" stroke-linejoin="round" stroke-width="4"/>
          </g>
          <g id="Group_21255" transform="translate(13145.177 2835.658)">
            <path id="Path_96803-2" d="M91.6,44.5,80.8,57.6,91.6,69.1" fill="none" stroke="#e36410" stroke-linecap="round" stroke-linejoin="round" stroke-width="4"/>
            <path id="Path_96805-2" d="M80.8,57.6a35.142,35.142,0,0,0,23.1-5.7,53.232,53.232,0,0,0,17.8-20.8" fill="none" stroke="#e36410" stroke-linecap="round" stroke-linejoin="round" stroke-width="4"/>
          </g>
        </g>
      </g>
      <g id="Group_21414" transform="translate(-1)">
        <g id="Group_21413">
          <path id="Path_97990" d="M14169.5,3151.6c42.9-3.3,77.7,33.7,77.6,82.7,0,49-34.8,91.3-77.8,94.6-42.9,3.3-77.7-33.7-77.6-82.7S14126.5,3154.9,14169.5,3151.6Z" fill="#e36410"/>
          <path id="Path_97989" d="M14176.9,3155.3c42.9-3.3,77.7,33.7,77.6,82.7s-34.8,91.3-77.8,94.6-77.7-33.7-77.6-82.7S14134,3158.6,14176.9,3155.3Z" fill="#fef9f6"/>
        </g>
        <g id="password_1_" transform="translate(14087 3107)">
          <path id="Path_97911" d="M139.4,100.1l-99.6,7.6c-3.9.3-7,4.1-7,8.5v24.3c0,4.4,3.1,7.7,7,7.5l62.2-4.8a2,2,0,0,0,1.6-2.1,1.55,1.55,0,0,0-1.6-1.7l-62.2,4.8c-2,.2-3.7-1.6-3.7-3.9V116a4.378,4.378,0,0,1,3.7-4.5l99.6-7.6c2-.2,3.7,1.6,3.7,3.9v18.3a1.626,1.626,0,0,0,1.7,1.7,1.964,1.964,0,0,0,1.6-2V107.5C146.4,103.1,143.2,99.8,139.4,100.1Z"/>
          <path id="Path_97912" d="M139.2,130.9v-2.5c0-8.9-6.3-15.6-14.1-15S111,121.7,111,130.6v2.5a6.667,6.667,0,0,0-3.6,5.9v20.3c0,3.3,2.3,5.8,5.2,5.6l24.9-1.9c2.9-.2,5.2-3.1,5.2-6.4V136.3A5.131,5.131,0,0,0,139.2,130.9Zm-14.1-13.7c6-.4,10.8,4.7,10.8,11.5v2.2l-21.6,1.7v-2.2C114.4,123.5,119.2,117.6,125.1,117.2Zm14.3,39.6a2.2,2.2,0,0,1-1.9,2.3L112.6,161a1.864,1.864,0,0,1-1.9-2V138.7a2.2,2.2,0,0,1,1.9-2.3l24.9-1.9a1.864,1.864,0,0,1,1.9,2Z" fill="#e36410"/>
          <path id="Path_97913" d="M59.8,121.4a1.494,1.494,0,0,0-2.3-.5h0l-3.7,2.7v-4.8a1.626,1.626,0,0,0-1.7-1.7,1.964,1.964,0,0,0-1.6,2v4.8l-3.7-2.1a1.784,1.784,0,0,0-2.3.9,1.983,1.983,0,0,0,.6,2.5l3.7,2.1L45.1,130a2.186,2.186,0,0,0-.7,2.6,1.567,1.567,0,0,0,2.3.6h.1l3.7-2.7v4.8a1.626,1.626,0,0,0,1.7,1.7,1.964,1.964,0,0,0,1.6-2v-4.8l3.7,2.1a1.627,1.627,0,0,0,2.3-.9,2,2,0,0,0-.6-2.6h0l-3.7-2.1,3.7-2.7A2.054,2.054,0,0,0,59.8,121.4Z"/>
          <path id="Path_97914" d="M81.2,119.7a1.494,1.494,0,0,0-2.3-.5h0l-3.7,2.7v-4.8a1.626,1.626,0,0,0-1.7-1.7,1.964,1.964,0,0,0-1.6,2v4.8l-3.7-2.1a1.627,1.627,0,0,0-2.3.9,2,2,0,0,0,.6,2.6l3.7,2.1-3.7,2.7a2.054,2.054,0,0,0-.6,2.6,1.494,1.494,0,0,0,2.3.5l3.7-2.7v4.8a1.626,1.626,0,0,0,1.7,1.7,1.964,1.964,0,0,0,1.6-2v-4.8l3.7,2.1a1.655,1.655,0,0,0,2.3-.8,2,2,0,0,0-.6-2.6h-.1l-3.7-2.1,3.7-2.7a2.194,2.194,0,0,0,.7-2.7Z"/>
          <path id="Path_97915" d="M102.5,118.1a1.494,1.494,0,0,0-2.3-.5h0l-3.7,2.7v-4.8c0-1.1-.7-1.9-1.6-1.8a1.9,1.9,0,0,0-1.7,2v4.9l-3.7-2.1a1.627,1.627,0,0,0-2.3.9,2,2,0,0,0,.6,2.6l3.7,2.1-3.7,2.7a2.054,2.054,0,0,0-.6,2.6,1.494,1.494,0,0,0,2.3.5l3.7-2.7V132c0,1.1.7,1.9,1.6,1.8a1.9,1.9,0,0,0,1.7-2v-4.9l3.7,2.1a1.627,1.627,0,0,0,2.3-.9,2,2,0,0,0-.6-2.6h0l-3.7-2.1,3.7-2.7a2.029,2.029,0,0,0,.6-2.6Z"/>
          <path id="Path_97916" d="M125.1,139.7c-2.9.2-5.2,3.1-5.2,6.4a5.4,5.4,0,0,0,3.6,5.4V154c0,1.1.7,1.9,1.6,1.8a1.9,1.9,0,0,0,1.7-2v-2.6a6.756,6.756,0,0,0,3.3-7.8A4.908,4.908,0,0,0,125.1,139.7Zm0,8.2a1.864,1.864,0,0,1-1.9-2,2.2,2.2,0,0,1,1.9-2.3,1.864,1.864,0,0,1,1.9,2A2.276,2.276,0,0,1,125.1,147.9Z" fill="#e36410"/>
        </g>
      </g>
      <g id="Group_21408">
        <g id="Group_21407">
          <path id="Path_97988" d="M13569.5,2962.6c42.9-3.3,77.7,33.7,77.6,82.7,0,49-34.8,91.3-77.8,94.6-42.9,3.3-77.7-33.7-77.6-82.7C13491.7,3008.3,13526.5,2965.9,13569.5,2962.6Z" fill="#e36410"/>
          <path id="Path_97987" d="M13576.9,2966.3c42.9-3.3,77.7,33.7,77.6,82.7,0,49-34.8,91.3-77.8,94.6s-77.7-33.7-77.6-82.7S13534,2969.6,13576.9,2966.3Z" fill="#fef9f6"/>
        </g>
        <g id="Group_21397" transform="translate(12812.14 816.137)">
          <path id="Path_97953" d="M809.2,2227.5a53.142,53.142,0,0,0-6.1-24.1c3.1-17.2-12.6-29.8-26.1-21-13.5-3.6-28.1.6-39.3,11.3a1.816,1.816,0,0,0-.2,2.3,1.228,1.228,0,0,0,1.9.1c9.8-9.3,22.4-13.4,34.4-11.3a26.046,26.046,0,0,0-3,3.6c-22.1-2.6-43.2,18.5-44.3,44a10.3,10.3,0,0,0-3.5.6,55.05,55.05,0,0,1,10-29.7,1.816,1.816,0,0,0-.2-2.3,1.251,1.251,0,0,0-1.9.3,58.329,58.329,0,0,0-10.8,33.4,12.188,12.188,0,0,0-4.1,9.2v15.7c0,6.9,5.2,10.6,10.8,10a4.922,4.922,0,0,0,6.8,3.4,6.654,6.654,0,0,0,3.7-6.1v-34.1c0-3.4-2.5-6-5.4-5.7a5.79,5.79,0,0,0-2.1.7c2.9-21,20.4-37.7,39.2-36.3-4,8.6-2.7,18.7,3.1,24.9v4.4c0,.9.6,1.6,1.4,1.5a1.423,1.423,0,0,0,.6-.2l3.5-1.9c6.8,2.9,14.6.7,20-5.4a39.41,39.41,0,0,1,1.9,7.7c-2.7-1.1-5.9.5-7.1,3.7a6.723,6.723,0,0,0-.4,2.4v34.1c0,3.4,2.4,6,5.4,5.7a6.221,6.221,0,0,0,2.6-.9c0,1.4,0,2.9-.1,4.3-.4,4.7-3.4,8.8-7.5,9.9a34.422,34.422,0,0,1-4.5.5c-.7-2.7-2.8-4.4-5.3-4.2l-7.6.6c-3,.3-5.5,3.3-5.4,6.8,0,3.4,2.4,6,5.4,5.8l7.6-.6a6.241,6.241,0,0,0,5.3-5.1,20.527,20.527,0,0,0,4.9-.6c5.4-1.5,9.5-6.8,10-13.1v-.1c.1-2.8,0-5.7,0-8.5,5.5-.1,10.5-5.1,10.5-11.6v-15.7a10.716,10.716,0,0,0-4.1-8.4Zm-90.3,32.1v-15.7a7.91,7.91,0,0,1,7.6-8.1v30.8A6.665,6.665,0,0,1,718.9,2259.6Zm13.1-29.1a2.472,2.472,0,0,1,2.5,2.7v34.1a2.978,2.978,0,0,1-2.5,3.1,2.472,2.472,0,0,1-2.5-2.7v-34.1a2.9,2.9,0,0,1,2.5-3.1Zm50.5,56.9-7.6.6a2.654,2.654,0,0,1-2.7-2.8,3.087,3.087,0,0,1,2.7-3.2l7.6-.6a2.654,2.654,0,0,1,2.7,2.8,3.087,3.087,0,0,1-2.7,3.2Zm23.8-61.2a10.223,10.223,0,0,0-3.5-.1,46.64,46.64,0,0,0-3-14,17.153,17.153,0,0,0,2.1-4.3,51.22,51.22,0,0,1,4.4,18.4Zm-21.2-7.9a12.233,12.233,0,0,1-6.8-1.3,1.063,1.063,0,0,0-1.2.1l-2.1,1.2v-2.7a1.656,1.656,0,0,0-.5-1.2c-10.4-10.1-3.5-30.5,10.5-31.6,20.7-.5,20.7,33,.1,35.5Zm25.3,33.7a7.861,7.861,0,0,1-7.7,8.1v-5.2a1.415,1.415,0,0,0-1.5-1.5,1.645,1.645,0,0,0-1.4,1.7v7.1a2.978,2.978,0,0,1-2.5,3.1,2.472,2.472,0,0,1-2.5-2.7v-34.1a2.978,2.978,0,0,1,2.5-3.1,2.472,2.472,0,0,1,2.5,2.7v18.3a1.415,1.415,0,0,0,1.5,1.5,1.645,1.645,0,0,0,1.4-1.7v-16.9c4-.6,7.7,2.1,7.7,7Z" fill="#0d1b3a"/>
          <path id="Path_97954" d="M777.6,2271.6a1.54,1.54,0,0,0,1.9-1,1.269,1.269,0,0,0,.1-.6v-5.3c13.6-16.2,4.1-42.2-14.9-40.7-11.8.9-21.4,12.6-21.4,26-.2,17.5,16.3,28.3,30.1,19.9Zm-4.9-4.8c-12,7.8-26.8-1.6-26.6-17,0-11.7,8.3-21.8,18.5-22.6,16.8-1.3,24.9,21.9,12.5,35.7a1.845,1.845,0,0,0-.5,1.2v3.6l-2.8-1.1a1.167,1.167,0,0,0-1.1.2Z" fill="#e36410"/>
          <path id="Path_97955" d="M760.8,2241.2l7.6-.6a1.752,1.752,0,0,0,1.4-1.8,1.394,1.394,0,0,0-1.4-1.5l-7.6.6a1.752,1.752,0,0,0-1.4,1.8A1.522,1.522,0,0,0,760.8,2241.2Z" fill="#e36410"/>
          <path id="Path_97956" d="M768.4,2255.6l-7.6.6a1.752,1.752,0,0,0-1.4,1.8,1.394,1.394,0,0,0,1.4,1.5l7.6-.6a1.752,1.752,0,0,0,1.4-1.8C769.8,2256.2,769.2,2255.5,768.4,2255.6Z" fill="#e36410"/>
          <path id="Path_97957" d="M772.5,2246.2l-15.8,1.2a1.752,1.752,0,0,0-1.4,1.8,1.394,1.394,0,0,0,1.4,1.5l15.8-1.2a1.752,1.752,0,0,0,1.4-1.8C773.9,2246.8,773.3,2246.1,772.5,2246.2Z" fill="#e36410"/>
          <path id="Path_97958" d="M785.2,2188.2c-3.4.2-6.2,3.5-6.2,7.4h0a1.415,1.415,0,0,0,1.5,1.5,1.645,1.645,0,0,0,1.4-1.7,3.756,3.756,0,0,1,3.3-3.9c1.8-.1,3.2,1.4,3.2,3.5a3.827,3.827,0,0,1-3.3,3.9,1.645,1.645,0,0,0-1.4,1.7v5.6c0,.9.6,1.6,1.4,1.5a1.645,1.645,0,0,0,1.4-1.7v-4.1a7.628,7.628,0,0,0,4.5-8.7c-.7-3.1-3-5.1-5.8-5Z" fill="#0d1b3a"/>
          <path id="Path_97959" d="M785.1,2210a1.752,1.752,0,0,0-1.4,1.8,1.394,1.394,0,0,0,1.4,1.5,1.752,1.752,0,0,0,1.4-1.8C786.4,2210.6,785.8,2209.9,785.1,2210Z"/>
        </g>
      </g>
      <g id="Group_21412">
        <g id="Group_21411">
          <path id="Path_97986" d="M14041.3,2926.4c42.9-3.3,77.7,33.7,77.6,82.7,0,49-34.8,91.3-77.8,94.6-42.9,3.3-77.7-33.7-77.6-82.7C13963.6,2972.1,13998.4,2929.7,14041.3,2926.4Z" fill="#e36410"/>
          <path id="Path_97985" d="M14048.8,2930.1c42.9-3.3,77.7,33.7,77.6,82.7,0,49-34.8,91.3-77.8,94.6s-77.7-33.7-77.6-82.7S14005.9,2933.4,14048.8,2930.1Z" fill="#fef9f6"/>
        </g>
        <g id="Group_21395" transform="translate(12976.868 1066.875)">
          <path id="Path_97941" d="M1119.9,1911.4l-17.8-19a1.19,1.19,0,0,0-1.1-.4l-40.5,3.1c-2.7.2-4.9,2.9-4.9,5.9v11.2c-18.7,2.5-33.2,21.7-32.3,43.1.8,19.9,14.8,34.8,32.3,34.4v11.2c0,3.1,2.2,5.4,4.9,5.2l55.1-4.2c2.7-.2,4.9-2.9,4.9-5.9l.1-83.2A3.653,3.653,0,0,0,1119.9,1911.4Zm-17.3-13.2,12.3,13.1-10.7.8a1.55,1.55,0,0,1-1.6-1.7h0Zm-76.2,54.9c0-18.7,12.8-35,29.2-37.3v34.3l-21.2,25.8C1029.2,1970,1026.4,1961.8,1026.4,1953.1Zm10.2,25.3,21.2-25.8,30.1-2.3c-.9,19.4-15.3,35.4-32.3,35.7a26.843,26.843,0,0,1-19-7.6Zm80.5,17.7a1.963,1.963,0,0,1-1.6,2h0l-55.1,4.2a1.55,1.55,0,0,1-1.6-1.7h0v-11.2c18.1-2.4,32.4-20.5,32.4-41.2a1.55,1.55,0,0,0-1.6-1.7h0l-30.8,2.4v-48.1a1.963,1.963,0,0,1,1.6-2l38.9-3v14.8c0,3.1,2.2,5.4,4.9,5.2l13-1Z" fill="#0d1b3a"/>
          <path id="Path_97942" d="M1063.7,1904.1a1.963,1.963,0,0,0-1.6,2v37a1.55,1.55,0,0,0,1.6,1.7l32.4-2.5a1.963,1.963,0,0,0,1.6-2C1097.7,1918.9,1082.5,1902.7,1063.7,1904.1Zm1.6,36.8v-33.2c15.7-.2,28.3,13.1,29.1,31Z" fill="#0d1b3a"/>
          <path id="Path_97943" d="M1099.3,1962.3c-8.1.6-14.6,8.6-14.6,17.8s6.5,16.1,14.6,15.5,14.6-8.6,14.6-17.8h0C1113.9,1968.7,1107.3,1961.7,1099.3,1962.3Zm0,29.6c-6.3.5-11.3-4.9-11.3-12.1,0-7.1,5.1-13.3,11.3-13.8,6.3-.5,11.3,4.9,11.3,12.1h0C1110.6,1985.3,1105.5,1991.4,1099.3,1991.9Z" fill="#e36410"/>
          <path id="Path_97944" d="M1096,1982.2l-3.7-4-2.3,2.8,4.9,5.2a1.468,1.468,0,0,0,2.3-.2h0l9.7-11.8-2.3-2.4Z" fill="#e36410"/>
          <path id="Path_97945" d="M1100.9,1923.4l13-1v3.7l-13,1Z" fill="#0d1b3a"/>
          <path id="Path_97946" d="M1100.9,1934.5l13-1v3.7l-13,1Z" fill="#0d1b3a"/>
          <path id="Path_97947" d="M1100.9,1945.6l13-1v3.7l-13,1Z" fill="#0d1b3a"/>
        </g>
      </g>
      <g id="Group_21410">
        <g id="Group_21409">
          <path id="Path_97984" d="M13805.4,2853.7c42.9-3.3,77.7,33.7,77.6,82.7,0,49-34.8,91.3-77.8,94.6-42.9,3.3-77.7-33.7-77.6-82.7S13762.5,2857,13805.4,2853.7Z" fill="#e36410"/>
          <path id="Path_97983" d="M13812.9,2857.4c42.9-3.3,77.7,33.7,77.6,82.7,0,49-34.8,91.3-77.8,94.6-42.9,3.3-77.7-33.7-77.6-82.7S13770,2860.7,13812.9,2857.4Z" fill="#fef9f6"/>
        </g>
        <g id="Group_21259" transform="translate(13240 1648.769)">
          <g id="Group_21258" transform="translate(472 1290.217)">
            <path id="Path_96806" d="M66.5,65.1c-5.4.4-9.7-4.2-9.7-10.3V15c0-6.1,4.4-11.4,9.7-11.8l58.2-4.5c5.4-.4,9.7,4.2,9.7,10.3V48.8c0,6.1-4.4,11.4-9.7,11.8ZM60.7,14.6V54.4c0,3.7,2.6,6.4,5.8,6.2l58.2-4.5c3.2-.3,5.8-3.4,5.8-7.1V9.2c0-3.7-2.6-6.4-5.8-6.2L66.6,7.6c-3.3.2-5.9,3.4-5.9,7Zm9.7,36.9c-1.1.1-1.9-.8-1.9-2.1A2.4,2.4,0,0,1,70.4,47l50.4-3.9c1.1-.1,1.9.8,1.9,2.1a2.4,2.4,0,0,1-1.9,2.4Zm3.9-13.6c-3.2.2-5.8-2.5-5.8-6.2V22.8c0-3.7,2.6-6.8,5.8-7.1l7.8-.6c3.2-.2,5.8,2.5,5.8,6.2v8.9c0,3.7-2.6,6.8-5.8,7.1ZM72.4,22.6v8.9a2.014,2.014,0,0,0,1.9,2.1l7.8-.6A2.239,2.239,0,0,0,84,30.6V21.7a2.014,2.014,0,0,0-1.9-2.1l-7.8.6a2.308,2.308,0,0,0-1.9,2.4Z" fill="#0d1b3a"/>
            <path id="Path_96809" d="M140.4,26.8h0a2.009,2.009,0,0,1-2.5,1.2c-1.8-.4-1.1-2.8-1.1-2.8l4.4-19c.8-3.6-1-7.1-4.1-7.8L80.9-14.5c-3.1-.7-6.3,1.6-7.1,5.2h0L72.2-2.6S71.8.1,69.9-.1a1.771,1.771,0,0,1-1.7-2v-.2L70-10.2c1.4-6,6.7-9.9,11.9-8.7h0L138.1-6c5.2,1.2,8.2,7,6.8,13l-4.5,19.8Z" fill="#e36410"/>
          </g>
          <g id="Group_21256" transform="translate(472 1260.231)">
            <path id="Path_96803-3" d="M88.5,4,99.8-9.8l-11.3-12" fill="none" stroke="#0d1b3a" stroke-linecap="round" stroke-linejoin="round" stroke-width="4"/>
            <path id="Path_96805-3" d="M99.8-9.8a37.536,37.536,0,0,0-24.3,6C63,4.4,56.9,18.1,56.9,18.1" fill="none" stroke="#0d1b3a" stroke-linecap="round" stroke-linejoin="round" stroke-width="4"/>
          </g>
        </g>
      </g>
      <path id="Path_97981" d="M13318.1,3444.8l3.2-.6a4.2,4.2,0,0,0,1.2,2.6,3,3,0,0,0,2.4.7,3.779,3.779,0,0,0,2.4-.9,2.5,2.5,0,0,0,.8-1.8,2.015,2.015,0,0,0-.3-1.1,1.854,1.854,0,0,0-1.2-.7c-.4-.1-1.2-.3-2.6-.6a8.539,8.539,0,0,1-3.7-1.5,4.606,4.606,0,0,1-1.5-3.6,5.19,5.19,0,0,1,.7-2.7,4.815,4.815,0,0,1,2-2,9.009,9.009,0,0,1,3.2-.9,6,6,0,0,1,4.6,1.2,5.349,5.349,0,0,1,1.6,3.9l-3.2.4a3.371,3.371,0,0,0-.9-2,3.012,3.012,0,0,0-2.1-.5,3.5,3.5,0,0,0-2.2.8,1.657,1.657,0,0,0-.5,1.2,1.607,1.607,0,0,0,.5,1.1,7.616,7.616,0,0,0,3,1,10.97,10.97,0,0,1,3.5,1.1,5.81,5.81,0,0,1,1.8,1.7,4.918,4.918,0,0,1,.6,2.9,6.409,6.409,0,0,1-.8,3,5.186,5.186,0,0,1-2.2,2.2,7.294,7.294,0,0,1-3.5.9,6.131,6.131,0,0,1-4.7-1.2A6.613,6.613,0,0,1,13318.1,3444.8Zm16.4-10.3v-3.3l3.1-.2v3.3Zm-.1,15.1v-13.3l3.1-.2v13.3Zm17.4-1.4-3.1.2v-6.8a13.193,13.193,0,0,0-.2-2.8,1.455,1.455,0,0,0-.6-.9,2.016,2.016,0,0,0-1.1-.3,1.975,1.975,0,0,0-1.4.6,2.844,2.844,0,0,0-.9,1.4,10.579,10.579,0,0,0-.2,3.1v6l-3.1.2v-13.3l2.9-.2v2a4.873,4.873,0,0,1,3.8-2.5,3.2,3.2,0,0,1,1.9.3,3.047,3.047,0,0,1,1.3,1,3.5,3.5,0,0,1,.6,1.4,19.5,19.5,0,0,1,.2,2.4Zm3.4.6,3.5.2a1.267,1.267,0,0,0,.4.9,1.737,1.737,0,0,0,1.4.3,3.224,3.224,0,0,0,1.8-.6,1.8,1.8,0,0,0,.6-.9,4.325,4.325,0,0,0,.1-1.6v-1.9a4.51,4.51,0,0,1-3.5,2.4,3.713,3.713,0,0,1-3.7-2,9.255,9.255,0,0,1-1.1-4.4,8.7,8.7,0,0,1,1.4-5.2,4.592,4.592,0,0,1,3.5-2,3.92,3.92,0,0,1,3.6,1.9V3434l2.9-.2v11.9a19.81,19.81,0,0,1-.3,3.5,4.353,4.353,0,0,1-1,1.9,6.106,6.106,0,0,1-1.6,1.2,10.961,10.961,0,0,1-2.6.6c-2,.2-3.4-.1-4.2-.8a3.212,3.212,0,0,1-1.2-2.8C13355.2,3449.1,13355.2,3449,13355.2,3448.8Zm2.8-8a4.967,4.967,0,0,0,.7,3,1.841,1.841,0,0,0,1.8.8,2.531,2.531,0,0,0,1.9-1.2,5.536,5.536,0,0,0,.8-3.1,4.967,4.967,0,0,0-.7-3,2.463,2.463,0,0,0-1.9-.9,2.342,2.342,0,0,0-1.8,1.1A5.364,5.364,0,0,0,13358,3440.8Zm11.8,6v-18.4l3.1-.2v18.4Zm13.5-5.2,3.1.4a6.248,6.248,0,0,1-1.9,3.1,5.629,5.629,0,0,1-3.2,1.3,4.557,4.557,0,0,1-4.5-1.9,7.739,7.739,0,0,1-1.1-4.5,8.245,8.245,0,0,1,1.5-5.3,5.411,5.411,0,0,1,3.8-2.2,4.526,4.526,0,0,1,4.1,1.6c1,1.2,1.5,3.2,1.4,5.9l-7.7.6a3.986,3.986,0,0,0,.7,2.4,2.086,2.086,0,0,0,1.8.7,1.844,1.844,0,0,0,1.2-.5A4,4,0,0,0,13383.3,3441.6Zm.2-3.6a3.691,3.691,0,0,0-.7-2.3,1.99,1.99,0,0,0-1.6-.7,2.376,2.376,0,0,0-1.7,1,3.218,3.218,0,0,0-.6,2.3Zm12.9,6.8v-18.4l6.8-.5a9.163,9.163,0,0,1,3.7.2,3.68,3.68,0,0,1,1.9,1.6,5.3,5.3,0,0,1,.7,2.8,5.172,5.172,0,0,1-4.3,5.4,7.466,7.466,0,0,1,1.7,1.4,16.638,16.638,0,0,1,1.8,2.8l2,3.4-3.9.3-2.3-3.8a23.2,23.2,0,0,0-1.7-2.6,2.281,2.281,0,0,0-1-.7,4.328,4.328,0,0,0-1.6-.1l-.7.1v7.7Zm3.2-10.8,2.4-.2a13.534,13.534,0,0,0,2.9-.4,2.36,2.36,0,0,0,.9-.8,3.19,3.19,0,0,0,.3-1.4,2.6,2.6,0,0,0-.4-1.5,1.563,1.563,0,0,0-1.2-.6c-.3,0-1.1,0-2.4.1l-2.5.2Zm20.3,4.8,3.1.4a6.248,6.248,0,0,1-1.9,3.1,5.916,5.916,0,0,1-3.2,1.3,4.557,4.557,0,0,1-4.5-1.9,7.739,7.739,0,0,1-1.1-4.5,8.245,8.245,0,0,1,1.5-5.3,5.411,5.411,0,0,1,3.8-2.2,4.526,4.526,0,0,1,4.1,1.6c1,1.2,1.5,3.2,1.4,5.9l-7.7.6a3.986,3.986,0,0,0,.7,2.4,2.086,2.086,0,0,0,1.8.7,1.844,1.844,0,0,0,1.2-.5A4.02,4.02,0,0,0,13419.9,3438.8Zm.2-3.6a3.691,3.691,0,0,0-.7-2.3,1.99,1.99,0,0,0-1.6-.7,2.376,2.376,0,0,0-1.7,1,3.218,3.218,0,0,0-.6,2.3Zm16.2-2.8-3,.9a2.622,2.622,0,0,0-.7-1.5,1.793,1.793,0,0,0-1.4-.4,2.233,2.233,0,0,0-1.8,1,5.47,5.47,0,0,0-.7,3.1,5.358,5.358,0,0,0,.7,3.3,2,2,0,0,0,1.9.8,2.1,2.1,0,0,0,1.4-.7,4.948,4.948,0,0,0,.8-2l3,.4a7.171,7.171,0,0,1-1.8,3.7,5.535,5.535,0,0,1-3.6,1.5,4.93,4.93,0,0,1-4.1-1.5,7.117,7.117,0,0,1-1.5-5,8.581,8.581,0,0,1,1.5-5.2,6.014,6.014,0,0,1,4.1-2.2,4.585,4.585,0,0,1,3.4.8,4.656,4.656,0,0,1,1.8,3Zm6-9.5v6.7a4.986,4.986,0,0,1,3.6-2.3,3.08,3.08,0,0,1,1.9.3,2.764,2.764,0,0,1,1.3,1.1,3.941,3.941,0,0,1,.6,1.5,22.839,22.839,0,0,1,.2,2.6v7.8l-3.1.2v-7a10.969,10.969,0,0,0-.2-2.6,1.037,1.037,0,0,0-.6-.8,1.388,1.388,0,0,0-1.1-.2,2.391,2.391,0,0,0-1.4.5,3.045,3.045,0,0,0-.9,1.3,10.89,10.89,0,0,0-.3,2.6v6.7l-3.1.2v-18.4Zm13.5,8.1-2.8-.4a5.505,5.505,0,0,1,1.6-3,5.431,5.431,0,0,1,3.4-1.2,8.19,8.19,0,0,1,3.1.3,2.543,2.543,0,0,1,1.4,1.3,8.04,8.04,0,0,1,.4,3.1v4.1a22.694,22.694,0,0,0,.1,2.6,4.918,4.918,0,0,0,.6,1.7l-3,.2a6.218,6.218,0,0,1-.3-1,.758.758,0,0,1-.1-.4,5.514,5.514,0,0,1-1.7,1.4,6.965,6.965,0,0,1-1.9.6,3.538,3.538,0,0,1-2.8-.9,3.4,3.4,0,0,1-1-2.7,4.555,4.555,0,0,1,.5-2,4.7,4.7,0,0,1,1.3-1.5,10.878,10.878,0,0,1,2.5-1,18.16,18.16,0,0,0,3-1.1v-.4a2.111,2.111,0,0,0-.4-1.4,2.492,2.492,0,0,0-1.7-.3,2.1,2.1,0,0,0-1.3.5,3.021,3.021,0,0,0-.9,1.5Zm4.1,2.5a10.642,10.642,0,0,1-1.9.7,5.1,5.1,0,0,0-1.7.7,1.611,1.611,0,0,0-.6,1.3,1.657,1.657,0,0,0,.5,1.2,1.373,1.373,0,0,0,1.2.4,3.289,3.289,0,0,0,1.6-.7,1.856,1.856,0,0,0,.7-1.2,10.324,10.324,0,0,0,.1-1.7Zm9.5,5.7-3.1.2v-13.3l2.9-.2v1.9a8.006,8.006,0,0,1,1.3-1.9,2.356,2.356,0,0,1,1.3-.5,2.876,2.876,0,0,1,2,.5l-1,3.1a2.391,2.391,0,0,0-1.4-.5,1.6,1.6,0,0,0-1.1.5,2.967,2.967,0,0,0-.7,1.5,33.979,33.979,0,0,0-.3,4.5Zm6.1.4,3.5.2a1.267,1.267,0,0,0,.4.9,2.234,2.234,0,0,0,1.4.3,3.224,3.224,0,0,0,1.8-.6,1.8,1.8,0,0,0,.6-.9,4.325,4.325,0,0,0,.1-1.6V3436a4.51,4.51,0,0,1-3.5,2.4,3.713,3.713,0,0,1-3.7-2,9.255,9.255,0,0,1-1.1-4.4,8.7,8.7,0,0,1,1.4-5.2,4.592,4.592,0,0,1,3.5-2,3.92,3.92,0,0,1,3.6,1.9v-1.9l2.9-.2v11.9a19.81,19.81,0,0,1-.3,3.5,4.353,4.353,0,0,1-1,1.9,6.106,6.106,0,0,1-1.6,1.2,10.961,10.961,0,0,1-2.6.6c-2,.2-3.4-.1-4.2-.8a3.212,3.212,0,0,1-1.2-2.8c0-.2,0-.3,0-.5Zm2.7-8a4.967,4.967,0,0,0,.7,3,1.841,1.841,0,0,0,1.8.8,2.531,2.531,0,0,0,1.9-1.2,5.422,5.422,0,0,0,.8-3,4.967,4.967,0,0,0-.7-3,2.463,2.463,0,0,0-1.9-.9,2.342,2.342,0,0,0-1.8,1.1A6.335,6.335,0,0,0,13478.2,3431.6Zm18.6,1.3,3.1.4a6.248,6.248,0,0,1-1.9,3.1,5.916,5.916,0,0,1-3.2,1.3,4.557,4.557,0,0,1-4.5-1.9,7.739,7.739,0,0,1-1.1-4.5,8.245,8.245,0,0,1,1.5-5.3,5.411,5.411,0,0,1,3.8-2.2,4.526,4.526,0,0,1,4.1,1.6c1,1.2,1.5,3.2,1.4,5.9l-7.7.6a3.986,3.986,0,0,0,.7,2.4,2.086,2.086,0,0,0,1.8.7,1.844,1.844,0,0,0,1.2-.5,3.993,3.993,0,0,0,.8-1.6Zm.2-3.6a3.691,3.691,0,0,0-.7-2.3,1.99,1.99,0,0,0-1.6-.7,2.376,2.376,0,0,0-1.7,1,3.218,3.218,0,0,0-.6,2.3Z"/>
      <path id="Path_97982" d="M13328.9,3078.2v3.3l-10.8.8a8.9,8.9,0,0,1,1.1-3.6,27.352,27.352,0,0,1,3.5-4.7,40.2,40.2,0,0,0,2.6-3.2,4.278,4.278,0,0,0,.6-2.2,2.8,2.8,0,0,0-.6-1.8,1.741,1.741,0,0,0-1.5-.5,1.9,1.9,0,0,0-1.5.8,4.752,4.752,0,0,0-.7,2.3l-3.1-.1a6.606,6.606,0,0,1,1.7-4.3,5.074,5.074,0,0,1,3.6-1.5,4.225,4.225,0,0,1,3.7,1.2,5,5,0,0,1,1.4,3.5,6.7,6.7,0,0,1-.4,2.4,8.984,8.984,0,0,1-1.2,2.4,24.271,24.271,0,0,1-2,2.5c-1,1.1-1.6,1.8-1.9,2.2a5.264,5.264,0,0,0-.6,1Zm8.7,2.6v-3.7l-6.6.5v-3.1l7-12.2,2.6-.2v11.6l2-.2v3.1l-2,.2v3.7Zm0-6.8v-6.3l-3.7,6.6Zm6.2,6.3,4.2-7.2-4-6.1,3.8-.3,2.1,3.5,2.2-3.8,3.6-.3-4,6.6,4.3,6.7-3.8.3-2.4-3.9-2.4,4.3Zm13.8-15.9v-3.3l10.5-.8v2.6a21.617,21.617,0,0,0-2.7,4.4,30.416,30.416,0,0,0-2.1,6,25.989,25.989,0,0,0-.7,5.6l-3,.2a26.773,26.773,0,0,1,1.4-7.9,27.31,27.31,0,0,1,3.5-7.3Zm19.7,7.4,3.2-.6a4.2,4.2,0,0,0,1.2,2.6,3,3,0,0,0,2.4.7,3.779,3.779,0,0,0,2.4-.9,2.5,2.5,0,0,0,.8-1.8,2.015,2.015,0,0,0-.3-1.1,1.854,1.854,0,0,0-1.2-.7c-.4-.1-1.2-.3-2.6-.6a8.539,8.539,0,0,1-3.7-1.5,4.606,4.606,0,0,1-1.5-3.6,5.19,5.19,0,0,1,.7-2.7,4.815,4.815,0,0,1,2-2,9.009,9.009,0,0,1,3.2-.9,6,6,0,0,1,4.6,1.2,5.349,5.349,0,0,1,1.6,3.9l-3.2.4a3.371,3.371,0,0,0-.9-2,3.012,3.012,0,0,0-2.1-.5,3.5,3.5,0,0,0-2.2.8,1.657,1.657,0,0,0-.5,1.2,1.607,1.607,0,0,0,.5,1.1,7.616,7.616,0,0,0,3,1,10.97,10.97,0,0,1,3.5,1.1,5.81,5.81,0,0,1,1.8,1.7,4.918,4.918,0,0,1,.6,2.9,6.409,6.409,0,0,1-.8,3,5.186,5.186,0,0,1-2.2,2.2,7.294,7.294,0,0,1-3.5.9,6.131,6.131,0,0,1-4.7-1.2,6.609,6.609,0,0,1-2.1-4.6Zm24,4.1v-2a4.9,4.9,0,0,1-1.7,1.8,4.534,4.534,0,0,1-2.2.8,3.776,3.776,0,0,1-2.1-.4,2.728,2.728,0,0,1-1.3-1.5,7.054,7.054,0,0,1-.4-2.9v-8.4l3.1-.2v6.1a18.825,18.825,0,0,0,.2,3.4,2.073,2.073,0,0,0,.6,1,2.016,2.016,0,0,0,1.1.3,1.975,1.975,0,0,0,1.4-.6,3.045,3.045,0,0,0,.9-1.3,14.532,14.532,0,0,0,.2-3.6v-5.6l3.1-.2v13.3Zm6.5-13.8,2.9-.2v2a4.985,4.985,0,0,1,1.5-1.7,4.188,4.188,0,0,1,2.1-.8,3.869,3.869,0,0,1,3.4,1.6,7.466,7.466,0,0,1,1.4,4.9,9,9,0,0,1-1.4,5.3,4.67,4.67,0,0,1-3.5,2.1,2.884,2.884,0,0,1-1.8-.3,5.532,5.532,0,0,1-1.7-1.4v6.7l-3.1.2Zm3,6.2a5.425,5.425,0,0,0,.8,3.3,2.183,2.183,0,0,0,1.9.9,2.342,2.342,0,0,0,1.8-1.1,6.156,6.156,0,0,0,.7-3.3,4.967,4.967,0,0,0-.7-3,2.138,2.138,0,0,0-1.8-.9,2.705,2.705,0,0,0-1.9,1.1,6.409,6.409,0,0,0-.8,3Zm11.3-7.3,2.9-.2v2a4.985,4.985,0,0,1,1.5-1.7,4.188,4.188,0,0,1,2.1-.8,3.869,3.869,0,0,1,3.4,1.6,7.466,7.466,0,0,1,1.4,4.9,9,9,0,0,1-1.4,5.3,4.849,4.849,0,0,1-3.5,2.1,2.884,2.884,0,0,1-1.8-.3,5.532,5.532,0,0,1-1.7-1.4v6.7l-3.1.2Zm3,6.2a5.425,5.425,0,0,0,.8,3.3,2.183,2.183,0,0,0,1.9.9,2.342,2.342,0,0,0,1.8-1.1,6.156,6.156,0,0,0,.7-3.3,4.967,4.967,0,0,0-.7-3,2.138,2.138,0,0,0-1.8-.9,2.705,2.705,0,0,0-1.9,1.1,4.711,4.711,0,0,0-.8,3Zm10.6-.8a8.525,8.525,0,0,1,.8-3.5,7.055,7.055,0,0,1,2.1-2.7,6.133,6.133,0,0,1,3.1-1.1,5,5,0,0,1,4.3,1.6,7.215,7.215,0,0,1,1.7,4.8,8.237,8.237,0,0,1-1.7,5.1,5.991,5.991,0,0,1-4.3,2.3,5.578,5.578,0,0,1-3.1-.6,4.5,4.5,0,0,1-2.2-2.3,7.721,7.721,0,0,1-.7-3.6Zm3.2,0a4.406,4.406,0,0,0,.8,3,2.248,2.248,0,0,0,2,.9,2.543,2.543,0,0,0,2-1.2,4.83,4.83,0,0,0,.8-3.1,4.14,4.14,0,0,0-.8-2.9,2.248,2.248,0,0,0-2-.9,2.543,2.543,0,0,0-2,1.2,4.4,4.4,0,0,0-.8,3Zm14.7,5.5-3.1.2v-13.3l2.9-.2v1.9a8.006,8.006,0,0,1,1.3-1.9,2.356,2.356,0,0,1,1.3-.5,2.876,2.876,0,0,1,2,.5l-1,3.1a2.391,2.391,0,0,0-1.4-.5,1.6,1.6,0,0,0-1.1.5,2.967,2.967,0,0,0-.7,1.5,33.979,33.979,0,0,0-.3,4.5Zm11.7-14.2v2.8l-2.1.2v5.4a12.146,12.146,0,0,0,.1,1.9c0,.2.1.3.3.4s.3.2.5.1a5.647,5.647,0,0,0,1.2-.4l.3,2.7a5.49,5.49,0,0,1-2.4.7,3.888,3.888,0,0,1-1.5-.2,1.889,1.889,0,0,1-1-.8,3.255,3.255,0,0,1-.4-1.3,20.162,20.162,0,0,1-.1-2.5v-5.8l-1.4.1v-2.8l1.4-.1v-2.6l3.1-2.3v4.7Z"/>
      <path id="Path_97979" d="M14154.3,3018.1v-18.4l6.8-.5a9.163,9.163,0,0,1,3.7.2,3.68,3.68,0,0,1,1.9,1.6,5.3,5.3,0,0,1,.7,2.8,5.172,5.172,0,0,1-4.3,5.4,7.466,7.466,0,0,1,1.7,1.4,16.638,16.638,0,0,1,1.8,2.8l2,3.4-3.9.3-2.3-3.8a23.2,23.2,0,0,0-1.7-2.6,2.281,2.281,0,0,0-1-.7,4.328,4.328,0,0,0-1.6-.1l-.7.1v7.7Zm3.2-10.8,2.4-.2a13.534,13.534,0,0,0,2.9-.4,2.36,2.36,0,0,0,.9-.8,3.19,3.19,0,0,0,.3-1.4,2.6,2.6,0,0,0-.4-1.5,1.563,1.563,0,0,0-1.2-.6c-.3,0-1.1,0-2.4.1l-2.5.2Zm20.3,4.8,3.1.4a6.248,6.248,0,0,1-1.9,3.1,5.916,5.916,0,0,1-3.2,1.3,4.557,4.557,0,0,1-4.5-1.9,7.739,7.739,0,0,1-1.1-4.5,8.245,8.245,0,0,1,1.5-5.3,5.411,5.411,0,0,1,3.8-2.2,4.526,4.526,0,0,1,4.1,1.6c1,1.2,1.5,3.2,1.4,5.9l-7.7.6a3.986,3.986,0,0,0,.7,2.4,2.086,2.086,0,0,0,1.8.7,1.844,1.844,0,0,0,1.2-.5A4.8,4.8,0,0,0,14177.8,3012.1Zm.1-3.6a3.691,3.691,0,0,0-.7-2.3,1.99,1.99,0,0,0-1.6-.7,2.376,2.376,0,0,0-1.7,1,3.891,3.891,0,0,0-.7,2.3Zm8.5-2.1-2.8-.4a5.505,5.505,0,0,1,1.6-3,5.431,5.431,0,0,1,3.4-1.2,8.19,8.19,0,0,1,3.1.3,2.543,2.543,0,0,1,1.4,1.3,8.04,8.04,0,0,1,.4,3.1v4.1a22.694,22.694,0,0,0,.1,2.6,4.918,4.918,0,0,0,.6,1.7l-3,.2a6.218,6.218,0,0,1-.3-1,.758.758,0,0,1-.1-.4,5.514,5.514,0,0,1-1.7,1.4,6.965,6.965,0,0,1-1.9.6,3.538,3.538,0,0,1-2.8-.9,3.4,3.4,0,0,1-1-2.7,4.555,4.555,0,0,1,.5-2,4.7,4.7,0,0,1,1.3-1.5,10.878,10.878,0,0,1,2.5-1,18.16,18.16,0,0,0,3-1.1v-.4a2.291,2.291,0,0,0-.4-1.4,2.492,2.492,0,0,0-1.7-.3,2.1,2.1,0,0,0-1.3.5,2.714,2.714,0,0,0-.9,1.5Zm4.1,2.6a10.642,10.642,0,0,1-1.9.7,5.1,5.1,0,0,0-1.7.7,1.611,1.611,0,0,0-.6,1.3,1.657,1.657,0,0,0,.5,1.2,1.373,1.373,0,0,0,1.2.4,3.289,3.289,0,0,0,1.6-.7,1.856,1.856,0,0,0,.7-1.2,10.324,10.324,0,0,0,.1-1.7Zm6.6,5.9v-18.4l3.1-.2v18.4Zm6.4-5.4V3006l6.1-.5v3.5Zm12,3.9v-15.2l-4.8.4v-3.1l12.8-1v3.1l-4.8.4v15.2Zm10.3-15.8v-3.3l3.1-.2v3.3Zm-.1,15.1v-13.3l3.1-.2v13.3Zm6.6-13.8,2.8-.2v1.8a4.836,4.836,0,0,1,3.6-2.4,3.13,3.13,0,0,1,1.9.4,2.776,2.776,0,0,1,1.3,1.5,5.511,5.511,0,0,1,1.7-1.7,4.381,4.381,0,0,1,1.9-.7,4.13,4.13,0,0,1,2.2.4,2.93,2.93,0,0,1,1.3,1.6,6.255,6.255,0,0,1,.3,2.7v8.5l-3.1.2v-7.6a5.249,5.249,0,0,0-.3-2.5,1.2,1.2,0,0,0-1.3-.6,1.844,1.844,0,0,0-1.2.5,2.472,2.472,0,0,0-.8,1.4,12.639,12.639,0,0,0-.3,2.8v6.4l-3.1.2v-7.3a10.544,10.544,0,0,0-.2-2.5,2.169,2.169,0,0,0-.5-.8,1.486,1.486,0,0,0-.9-.2,2.1,2.1,0,0,0-1.3.5,2.219,2.219,0,0,0-.8,1.3,8.633,8.633,0,0,0-.2,2.8v6.5l-3.1.2Zm27.5,6.9,3.1.4a6.248,6.248,0,0,1-1.9,3.1,5.916,5.916,0,0,1-3.2,1.3,4.557,4.557,0,0,1-4.5-1.9,7.739,7.739,0,0,1-1.1-4.5,8.245,8.245,0,0,1,1.5-5.3,5.411,5.411,0,0,1,3.8-2.2,4.526,4.526,0,0,1,4.1,1.6c1,1.2,1.5,3.2,1.4,5.9l-7.7.6a3.986,3.986,0,0,0,.7,2.4,2.086,2.086,0,0,0,1.8.7,1.844,1.844,0,0,0,1.2-.5A3.452,3.452,0,0,0,14259.8,3005.8Zm.2-3.5a3.691,3.691,0,0,0-.7-2.3,1.99,1.99,0,0,0-1.6-.7,2.376,2.376,0,0,0-1.7,1,3.218,3.218,0,0,0-.6,2.3Zm12.9,6.7v-18.4l6.8-.5a9.163,9.163,0,0,1,3.7.2,3.68,3.68,0,0,1,1.9,1.6,5.3,5.3,0,0,1,.7,2.8,5.172,5.172,0,0,1-4.3,5.4,7.466,7.466,0,0,1,1.7,1.4,16.638,16.638,0,0,1,1.8,2.8l2,3.4-3.9.3-2.3-3.8a23.2,23.2,0,0,0-1.7-2.6,2.281,2.281,0,0,0-1-.7,4.328,4.328,0,0,0-1.6-.1l-.7.1v7.7Zm3.2-10.8,2.4-.2a13.534,13.534,0,0,0,2.9-.4,2.36,2.36,0,0,0,.9-.8,3.19,3.19,0,0,0,.3-1.4,2.6,2.6,0,0,0-.4-1.5,1.563,1.563,0,0,0-1.2-.6c-.3,0-1.1,0-2.4.1l-2.5.2Zm20.3,4.8,3.1.4a6.248,6.248,0,0,1-1.9,3.1,5.916,5.916,0,0,1-3.2,1.3,4.557,4.557,0,0,1-4.5-1.9,7.739,7.739,0,0,1-1.1-4.5,8.245,8.245,0,0,1,1.5-5.3,5.411,5.411,0,0,1,3.8-2.2,4.526,4.526,0,0,1,4.1,1.6c1,1.2,1.5,3.2,1.4,5.9l-7.7.6a3.986,3.986,0,0,0,.7,2.4,2.086,2.086,0,0,0,1.8.7,1.844,1.844,0,0,0,1.2-.5A3.468,3.468,0,0,0,14296.4,3003Zm.1-3.6a3.691,3.691,0,0,0-.7-2.3,1.99,1.99,0,0,0-1.6-.7,2.376,2.376,0,0,0-1.7,1,3.218,3.218,0,0,0-.6,2.3Zm6.1-5.9,2.9-.2v2a4.985,4.985,0,0,1,1.5-1.7,4.188,4.188,0,0,1,2.1-.8,3.869,3.869,0,0,1,3.4,1.6,7.466,7.466,0,0,1,1.4,4.9,9,9,0,0,1-1.4,5.3,4.849,4.849,0,0,1-3.5,2.1,2.492,2.492,0,0,1-1.7-.3,5.532,5.532,0,0,1-1.7-1.4v6.7l-3.1.2Zm3,6.2a5.425,5.425,0,0,0,.8,3.3,2.183,2.183,0,0,0,1.9.9,2.342,2.342,0,0,0,1.8-1.1,6.156,6.156,0,0,0,.7-3.3,4.967,4.967,0,0,0-.7-3,2.138,2.138,0,0,0-1.8-.9,2.705,2.705,0,0,0-1.9,1.1,5.212,5.212,0,0,0-.8,3Zm10.6-.8a8.525,8.525,0,0,1,.8-3.5,7.055,7.055,0,0,1,2.1-2.7,6.133,6.133,0,0,1,3.1-1.1,5,5,0,0,1,4.3,1.6,7.215,7.215,0,0,1,1.7,4.8,8.237,8.237,0,0,1-1.7,5.1,5.991,5.991,0,0,1-4.3,2.3,5.578,5.578,0,0,1-3.1-.6,4.5,4.5,0,0,1-2.2-2.3,8,8,0,0,1-.7-3.6Zm3.2-.1a4.406,4.406,0,0,0,.8,3,2.248,2.248,0,0,0,2,.9,2.543,2.543,0,0,0,2-1.2,4.83,4.83,0,0,0,.8-3.1,4.14,4.14,0,0,0-.8-2.9,2.248,2.248,0,0,0-2-.9,2.543,2.543,0,0,0-2,1.2,4.544,4.544,0,0,0-.8,3Zm14.7,5.6-3.1.2v-13.3l2.9-.2v1.9a8.006,8.006,0,0,1,1.3-1.9,2.356,2.356,0,0,1,1.3-.5,2.876,2.876,0,0,1,2,.5l-1,3.1a2.391,2.391,0,0,0-1.4-.5,1.6,1.6,0,0,0-1.1.5,2.967,2.967,0,0,0-.7,1.5,33.979,33.979,0,0,0-.3,4.5Zm11.7-14.2v2.8l-2.1.2v5.4a12.146,12.146,0,0,0,.1,1.9c0,.2.1.3.3.4s.3.2.5.1a5.647,5.647,0,0,0,1.2-.4l.3,2.7a5.49,5.49,0,0,1-2.4.7,3.888,3.888,0,0,1-1.5-.2,1.889,1.889,0,0,1-1-.8,3.255,3.255,0,0,1-.4-1.3,20.162,20.162,0,0,1-.1-2.5v-5.8l-1.4.1v-2.8l1.4-.1V2988l3.1-2.3v4.7Zm1.6,9.3,3.1-.8a2.752,2.752,0,0,0,.8,1.5,2.542,2.542,0,0,0,1.7.4,3,3,0,0,0,1.8-.6,1.16,1.16,0,0,0,.4-1,1.068,1.068,0,0,0-.2-.6,4.175,4.175,0,0,0-1-.4,13.4,13.4,0,0,1-4.7-1.4,3.423,3.423,0,0,1-1.4-2.9,4.235,4.235,0,0,1,1.2-3,5.485,5.485,0,0,1,3.7-1.5,5.66,5.66,0,0,1,3.6.6,4.205,4.205,0,0,1,1.6,2.5l-2.9.8a1.769,1.769,0,0,0-.7-1.1,1.972,1.972,0,0,0-1.5-.3,3.373,3.373,0,0,0-1.7.5,1.012,1.012,0,0,0-.4.7.6.6,0,0,0,.3.6,9.623,9.623,0,0,0,2.9.8,7.11,7.11,0,0,1,3.4,1.3,3.173,3.173,0,0,1,1,2.5,4.627,4.627,0,0,1-1.3,3.2,5.507,5.507,0,0,1-4,1.6,5.745,5.745,0,0,1-3.8-.8,3.345,3.345,0,0,1-1.9-2.6Z"/>
      <path id="Path_97978" d="M13726.5,2838.4V2820l4.9-.4,2.9,12.3,2.9-12.7,4.9-.4v18.4l-3,.2V2823l-3.2,14.7-3.1.2-3.2-14.2v14.4Zm27-2.1v-2a4.9,4.9,0,0,1-1.7,1.8,4.534,4.534,0,0,1-2.2.8,3.776,3.776,0,0,1-2.1-.4,2.728,2.728,0,0,1-1.3-1.5,7.054,7.054,0,0,1-.4-2.9v-8.4l3.1-.2v6.1a18.825,18.825,0,0,0,.2,3.4,2.073,2.073,0,0,0,.6,1,2.016,2.016,0,0,0,1.1.3,1.975,1.975,0,0,0,1.4-.6,2.219,2.219,0,0,0,.8-1.3,14.532,14.532,0,0,0,.2-3.6v-5.6l3.1-.2v13.3Zm6.6-.5v-18.4l3.1-.2v18.4Zm12.1-14.2v2.8l-2.1.2v5.4a12.146,12.146,0,0,0,.1,1.9c0,.2.1.3.3.4s.3.2.5.1a5.647,5.647,0,0,0,1.2-.4l.3,2.7a5.49,5.49,0,0,1-2.4.7,3.888,3.888,0,0,1-1.5-.2,1.889,1.889,0,0,1-1-.8,3.255,3.255,0,0,1-.4-1.3,20.162,20.162,0,0,1-.1-2.5v-5.8l-1.4.1v-2.8l1.4-.1v-2.6l3.1-2.3v4.7Zm2.7-2v-3.3l3.1-.2v3.3Zm0,15.1v-13.3l3.1-.2v13.3Zm13.6-1.1v-18.4l6.8-.5a9.163,9.163,0,0,1,3.7.2,3.68,3.68,0,0,1,1.9,1.6,5.3,5.3,0,0,1,.7,2.8,5.172,5.172,0,0,1-4.3,5.4,7.466,7.466,0,0,1,1.7,1.4,16.638,16.638,0,0,1,1.8,2.8l2,3.4-3.9.3-2.3-3.8a23.2,23.2,0,0,0-1.7-2.6,2.281,2.281,0,0,0-1-.7,4.328,4.328,0,0,0-1.6-.1l-.7.1v7.7Zm3.2-10.8,2.4-.2a13.534,13.534,0,0,0,2.9-.4,2.36,2.36,0,0,0,.9-.8,3.19,3.19,0,0,0,.3-1.4,2.6,2.6,0,0,0-.4-1.5,1.563,1.563,0,0,0-1.2-.6c-.3,0-1.1,0-2.4.1l-2.5.2Zm20.3,4.8,3.1.4a6.248,6.248,0,0,1-1.9,3.1,5.916,5.916,0,0,1-3.2,1.3,4.557,4.557,0,0,1-4.5-1.9,7.739,7.739,0,0,1-1.1-4.5,8.245,8.245,0,0,1,1.5-5.3,5.411,5.411,0,0,1,3.8-2.2,4.526,4.526,0,0,1,4.1,1.6c1,1.2,1.5,3.2,1.4,5.9l-7.7.6a3.986,3.986,0,0,0,.7,2.4,2.086,2.086,0,0,0,1.8.7,1.844,1.844,0,0,0,1.2-.5A4.815,4.815,0,0,0,13812,2827.6Zm.1-3.6a3.691,3.691,0,0,0-.7-2.3,1.99,1.99,0,0,0-1.6-.7,2.376,2.376,0,0,0-1.7,1,3.218,3.218,0,0,0-.6,2.3Zm16.3-2.8-3,.9a2.622,2.622,0,0,0-.7-1.5,1.793,1.793,0,0,0-1.4-.4,2.233,2.233,0,0,0-1.8,1,5.47,5.47,0,0,0-.7,3.1,5.358,5.358,0,0,0,.7,3.3,2,2,0,0,0,1.9.8,2.1,2.1,0,0,0,1.4-.7,4.948,4.948,0,0,0,.8-2l3,.4a7.171,7.171,0,0,1-1.8,3.7,5.535,5.535,0,0,1-3.6,1.5,4.93,4.93,0,0,1-4.1-1.5,7.117,7.117,0,0,1-1.5-5,8.581,8.581,0,0,1,1.5-5.2,6.014,6.014,0,0,1,4.1-2.2,4.585,4.585,0,0,1,3.4.8A5.438,5.438,0,0,1,13828.4,2821.2Zm6-9.4v6.7a4.986,4.986,0,0,1,3.6-2.3,3.08,3.08,0,0,1,1.9.3,2.764,2.764,0,0,1,1.3,1.1,3.941,3.941,0,0,1,.6,1.5,22.839,22.839,0,0,1,.2,2.6v7.8l-3.1.2v-7a10.969,10.969,0,0,0-.2-2.6,1.037,1.037,0,0,0-.6-.8,1.388,1.388,0,0,0-1.1-.2,2.391,2.391,0,0,0-1.4.5,3.045,3.045,0,0,0-.9,1.3,10.89,10.89,0,0,0-.3,2.6v6.7l-3.1.2V2812Zm13.4,8-2.8-.4a5.505,5.505,0,0,1,1.6-3,5.431,5.431,0,0,1,3.4-1.2,8.19,8.19,0,0,1,3.1.3,2.543,2.543,0,0,1,1.4,1.3,8.04,8.04,0,0,1,.4,3.1v4.1a22.694,22.694,0,0,0,.1,2.6,4.918,4.918,0,0,0,.6,1.7l-3.1.2a6.218,6.218,0,0,1-.3-1,.758.758,0,0,1-.1-.4,5.514,5.514,0,0,1-1.7,1.4,6.965,6.965,0,0,1-1.9.6,3.538,3.538,0,0,1-2.8-.9,3.4,3.4,0,0,1-1-2.7,4.555,4.555,0,0,1,.5-2,4.7,4.7,0,0,1,1.3-1.5,10.878,10.878,0,0,1,2.5-1,18.16,18.16,0,0,0,3-1.1v-.4a2.111,2.111,0,0,0-.4-1.4,2.492,2.492,0,0,0-1.7-.3,2.1,2.1,0,0,0-1.3.5A7.431,7.431,0,0,0,13847.8,2819.8Zm4.2,2.6a10.642,10.642,0,0,1-1.9.7,5.1,5.1,0,0,0-1.7.7,1.611,1.611,0,0,0-.6,1.3,1.657,1.657,0,0,0,.5,1.2,1.373,1.373,0,0,0,1.2.4,3.289,3.289,0,0,0,1.6-.7,1.856,1.856,0,0,0,.7-1.2,10.324,10.324,0,0,0,.1-1.7Zm9.5,5.6-3.1.2v-13.3l2.9-.2v1.9a8.006,8.006,0,0,1,1.3-1.9,2.356,2.356,0,0,1,1.3-.5,2.876,2.876,0,0,1,2,.5l-1,3.1a2.391,2.391,0,0,0-1.4-.5,1.6,1.6,0,0,0-1.1.5,2.967,2.967,0,0,0-.7,1.5,33.979,33.979,0,0,0-.3,4.5Zm6.1.4,3.5.2a1.267,1.267,0,0,0,.4.9,1.737,1.737,0,0,0,1.4.3,3.224,3.224,0,0,0,1.8-.6,1.8,1.8,0,0,0,.6-.9,4.325,4.325,0,0,0,.1-1.6v-1.9a4.51,4.51,0,0,1-3.5,2.4,3.713,3.713,0,0,1-3.7-2,9.255,9.255,0,0,1-1.1-4.4,8.7,8.7,0,0,1,1.4-5.2,4.592,4.592,0,0,1,3.5-2,3.92,3.92,0,0,1,3.6,1.9v-1.9l2.9-.2v11.9a19.81,19.81,0,0,1-.3,3.5,4.353,4.353,0,0,1-1,1.9,6.106,6.106,0,0,1-1.6,1.2,10.961,10.961,0,0,1-2.6.6c-2,.2-3.4-.1-4.2-.8a3.212,3.212,0,0,1-1.2-2.8c0-.1,0-.3,0-.5Zm2.7-8a4.967,4.967,0,0,0,.7,3,1.841,1.841,0,0,0,1.8.8,2.531,2.531,0,0,0,1.9-1.2,5.422,5.422,0,0,0,.8-3,4.967,4.967,0,0,0-.7-3,2.463,2.463,0,0,0-1.9-.9,2.342,2.342,0,0,0-1.8,1.1A6.589,6.589,0,0,0,13870.3,2820.4Zm18.6,1.3,3.1.4a6.248,6.248,0,0,1-1.9,3.1,5.916,5.916,0,0,1-3.2,1.3,4.557,4.557,0,0,1-4.5-1.9,7.739,7.739,0,0,1-1.1-4.5,8.245,8.245,0,0,1,1.5-5.3,5.411,5.411,0,0,1,3.8-2.2,4.526,4.526,0,0,1,4.1,1.6c1,1.2,1.5,3.2,1.4,5.9l-7.7.6a3.986,3.986,0,0,0,.7,2.4,2.086,2.086,0,0,0,1.8.7,1.844,1.844,0,0,0,1.2-.5A3.468,3.468,0,0,0,13888.9,2821.7Zm.1-3.6a3.691,3.691,0,0,0-.7-2.3,1.99,1.99,0,0,0-1.6-.7,2.376,2.376,0,0,0-1.7,1,3.218,3.218,0,0,0-.6,2.3Z"/>
      <path id="Path_97980" d="M14061.3,3394.9v-18.4l5.2-.4a12.756,12.756,0,0,1,3.9,0,4.06,4.06,0,0,1,2.3,1.6,5.283,5.283,0,0,1,.9,3.5,9.3,9.3,0,0,1-.5,2.9,5.215,5.215,0,0,1-1.4,1.9,4.244,4.244,0,0,1-1.7,1,12.7,12.7,0,0,1-3.4.5l-2.1.2v6.9Zm3.3-15.5v5.2l1.8-.1a7.976,7.976,0,0,0,2.6-.5,1.949,1.949,0,0,0,1-1,3.31,3.31,0,0,0,.4-1.5,2.769,2.769,0,0,0-.5-1.6,1.709,1.709,0,0,0-1.3-.7,16.933,16.933,0,0,0-2.3.1Zm14.5,4.9-2.8-.4a5.505,5.505,0,0,1,1.6-3,5.431,5.431,0,0,1,3.4-1.2,8.19,8.19,0,0,1,3.1.3,2.543,2.543,0,0,1,1.4,1.3,8.04,8.04,0,0,1,.4,3.1v4.1a22.694,22.694,0,0,0,.1,2.6,4.918,4.918,0,0,0,.6,1.7l-3,.2a6.218,6.218,0,0,1-.3-1,.758.758,0,0,1-.1-.4,5.514,5.514,0,0,1-1.7,1.4,6.965,6.965,0,0,1-1.9.6,3.538,3.538,0,0,1-2.8-.9,3.4,3.4,0,0,1-1-2.7,4.555,4.555,0,0,1,.5-2,4.7,4.7,0,0,1,1.3-1.5,10.878,10.878,0,0,1,2.5-1,18.16,18.16,0,0,0,3-1.1v-.4a2.291,2.291,0,0,0-.4-1.4,2.492,2.492,0,0,0-1.7-.3,2.1,2.1,0,0,0-1.3.5A3.362,3.362,0,0,0,14079.1,3384.3Zm4.2,2.5a10.642,10.642,0,0,1-1.9.7,5.1,5.1,0,0,0-1.7.7,1.611,1.611,0,0,0-.6,1.3,1.657,1.657,0,0,0,.5,1.2,1.373,1.373,0,0,0,1.2.4,3.289,3.289,0,0,0,1.6-.7,1.856,1.856,0,0,0,.7-1.2,10.324,10.324,0,0,0,.1-1.7Zm5.5,2.2,3.1-.8a2.752,2.752,0,0,0,.8,1.5,2.542,2.542,0,0,0,1.7.4,3,3,0,0,0,1.8-.6,1.16,1.16,0,0,0,.4-1,1.068,1.068,0,0,0-.2-.6,4.175,4.175,0,0,0-1-.4,15.686,15.686,0,0,1-4.7-1.3,3.423,3.423,0,0,1-1.4-2.9,4.235,4.235,0,0,1,1.2-3,5.485,5.485,0,0,1,3.7-1.5,5.66,5.66,0,0,1,3.6.6,4.205,4.205,0,0,1,1.6,2.5l-2.9.8a1.769,1.769,0,0,0-.7-1.1,1.972,1.972,0,0,0-1.5-.3,3.373,3.373,0,0,0-1.7.5,1.012,1.012,0,0,0-.4.7.6.6,0,0,0,.3.6,9.623,9.623,0,0,0,2.9.8,7.11,7.11,0,0,1,3.4,1.3,3.173,3.173,0,0,1,1,2.5,4.627,4.627,0,0,1-1.3,3.2,5.507,5.507,0,0,1-4,1.6,5.745,5.745,0,0,1-3.8-.8,3.907,3.907,0,0,1-1.9-2.7Zm13-1,3.1-.8a2.752,2.752,0,0,0,.8,1.5,2.542,2.542,0,0,0,1.7.4,3,3,0,0,0,1.8-.6,1.16,1.16,0,0,0,.4-1,1.068,1.068,0,0,0-.2-.6,4.175,4.175,0,0,0-1-.4,13.4,13.4,0,0,1-4.7-1.4,3.423,3.423,0,0,1-1.4-2.9,4.235,4.235,0,0,1,1.2-3,5.485,5.485,0,0,1,3.7-1.5,5.66,5.66,0,0,1,3.6.6,4.205,4.205,0,0,1,1.6,2.5l-2.9.8a1.769,1.769,0,0,0-.7-1.1,1.972,1.972,0,0,0-1.5-.3,3.373,3.373,0,0,0-1.7.5,1.012,1.012,0,0,0-.4.7.6.6,0,0,0,.3.6,9.623,9.623,0,0,0,2.9.8,7.11,7.11,0,0,1,3.4,1.3,3.173,3.173,0,0,1,1,2.5,4.627,4.627,0,0,1-1.3,3.2,5.507,5.507,0,0,1-4,1.6,5.745,5.745,0,0,1-3.8-.8,3.522,3.522,0,0,1-1.9-2.6Zm16.3,2.5-3.7-13,3-.2,2.2,8.5,2-8.9,3-.2,1.9,8.6,2.2-8.9,3-.2-3.8,13.6-3,.2-2-8.4-2,8.7Zm15.2-8a8.525,8.525,0,0,1,.8-3.5,7.055,7.055,0,0,1,2.1-2.7,6.133,6.133,0,0,1,3.1-1.1,5,5,0,0,1,4.3,1.6,7.215,7.215,0,0,1,1.7,4.8,8.237,8.237,0,0,1-1.7,5.1,5.991,5.991,0,0,1-4.3,2.3,5.578,5.578,0,0,1-3.1-.6,4.5,4.5,0,0,1-2.2-2.3A6.655,6.655,0,0,1,14133.3,3382.5Zm3.1,0a4.406,4.406,0,0,0,.8,3,2.248,2.248,0,0,0,2,.9,2.543,2.543,0,0,0,2-1.2,4.83,4.83,0,0,0,.8-3.1,4.14,4.14,0,0,0-.8-2.9,2.248,2.248,0,0,0-2-.9,2.543,2.543,0,0,0-2,1.2,4.4,4.4,0,0,0-.8,3Zm14.8,5.5-3.1.2v-13.3l2.9-.2v1.9a8.006,8.006,0,0,1,1.3-1.9,2.356,2.356,0,0,1,1.3-.5,2.876,2.876,0,0,1,2,.5l-1,3.1a2.391,2.391,0,0,0-1.4-.5,1.6,1.6,0,0,0-1.1.5,2.967,2.967,0,0,0-.7,1.5,33.979,33.979,0,0,0-.3,4.5Zm17-1.3-2.9.2v-2a4.9,4.9,0,0,1-1.7,1.8,4.789,4.789,0,0,1-2,.7,3.869,3.869,0,0,1-3.4-1.6,7.92,7.92,0,0,1-1.4-5,8.7,8.7,0,0,1,1.4-5.2,4.592,4.592,0,0,1,3.5-2,3.869,3.869,0,0,1,3.4,1.6v-6.6l3.1-.2Zm-8.2-6.3a5.955,5.955,0,0,0,.5,3,2.087,2.087,0,0,0,2.1,1.2,2.465,2.465,0,0,0,1.8-1.2,5.755,5.755,0,0,0,.8-3.1,5.618,5.618,0,0,0-.7-3.2,2.2,2.2,0,0,0-1.9-.9,2.342,2.342,0,0,0-1.8,1.1A4.841,4.841,0,0,0,14160,3380.4Zm18.6,5.5v-18.4l5.2-.4a12.756,12.756,0,0,1,3.9,0,4.06,4.06,0,0,1,2.3,1.6,5.283,5.283,0,0,1,.9,3.5,9.3,9.3,0,0,1-.5,2.9,5.215,5.215,0,0,1-1.4,1.9,4.244,4.244,0,0,1-1.7,1,12.7,12.7,0,0,1-3.4.5l-2.1.2v6.9Zm3.2-15.5v5.2l1.8-.1a7.976,7.976,0,0,0,2.6-.5,1.949,1.949,0,0,0,1-1,3.31,3.31,0,0,0,.4-1.5,2.769,2.769,0,0,0-.5-1.6,1.709,1.709,0,0,0-1.3-.7,16.933,16.933,0,0,0-2.3.1Zm15.2,14.1-3.1.2v-13.3l2.9-.2v1.9a8.006,8.006,0,0,1,1.3-1.9,2.356,2.356,0,0,1,1.3-.5,2.876,2.876,0,0,1,2,.5l-1,3.1a2.391,2.391,0,0,0-1.4-.5,1.6,1.6,0,0,0-1.1.5,2.967,2.967,0,0,0-.7,1.5,33.979,33.979,0,0,0-.3,4.5Zm5.7-7.3a8.525,8.525,0,0,1,.8-3.5,7.055,7.055,0,0,1,2.1-2.7,6.133,6.133,0,0,1,3.1-1.1,5,5,0,0,1,4.3,1.6,7.215,7.215,0,0,1,1.7,4.8,7.672,7.672,0,0,1-1.7,5.1,5.991,5.991,0,0,1-4.3,2.3,5.578,5.578,0,0,1-3.1-.6,4.5,4.5,0,0,1-2.2-2.3,6.847,6.847,0,0,1-.7-3.6Zm3.1-.1a4.406,4.406,0,0,0,.8,3,2.248,2.248,0,0,0,2,.9,2.543,2.543,0,0,0,2-1.2,4.83,4.83,0,0,0,.8-3.1,4.14,4.14,0,0,0-.8-2.9,2.248,2.248,0,0,0-2-.9,2.543,2.543,0,0,0-2,1.2,4.406,4.406,0,0,0-.8,3Zm17.2-7.9v2.8l-2.1.2v5.4a12.146,12.146,0,0,0,.1,1.9c0,.2.1.3.3.4s.3.2.5.1a5.647,5.647,0,0,0,1.2-.4l.3,2.7a5.49,5.49,0,0,1-2.4.7,3.888,3.888,0,0,1-1.5-.2,1.889,1.889,0,0,1-1-.8,3.255,3.255,0,0,1-.4-1.3,20.162,20.162,0,0,1-.1-2.5v-5.8l-1.4.1v-2.8l1.4-.1V3367l3.1-2.3v4.7Zm9.4,8.3,3.1.4a6.248,6.248,0,0,1-1.9,3.1,5.629,5.629,0,0,1-3.2,1.3,4.557,4.557,0,0,1-4.5-1.9,7.739,7.739,0,0,1-1.1-4.5,8.245,8.245,0,0,1,1.5-5.3,5.411,5.411,0,0,1,3.8-2.2,4.526,4.526,0,0,1,4.1,1.6c1,1.2,1.5,3.2,1.4,5.9l-7.7.6a3.986,3.986,0,0,0,.7,2.4,2.086,2.086,0,0,0,1.8.7,1.844,1.844,0,0,0,1.2-.5,3.468,3.468,0,0,0,.8-1.6Zm.2-3.6a3.691,3.691,0,0,0-.7-2.3,1.99,1.99,0,0,0-1.6-.7,2.376,2.376,0,0,0-1.7,1,3.218,3.218,0,0,0-.6,2.3Zm16.2-2.8-3,.9a2.622,2.622,0,0,0-.7-1.5,1.793,1.793,0,0,0-1.4-.4,2.233,2.233,0,0,0-1.8,1,5.47,5.47,0,0,0-.7,3.1,5.358,5.358,0,0,0,.7,3.3,2,2,0,0,0,1.9.8,2.1,2.1,0,0,0,1.4-.7,4.948,4.948,0,0,0,.8-2l3,.4a7.171,7.171,0,0,1-1.8,3.7,5.535,5.535,0,0,1-3.6,1.5,4.93,4.93,0,0,1-4.1-1.5,7.117,7.117,0,0,1-1.5-5,7.966,7.966,0,0,1,1.5-5.2,6.014,6.014,0,0,1,4.1-2.2,4.585,4.585,0,0,1,3.4.8,4.918,4.918,0,0,1,1.8,3Zm8.3-4.5v2.8l-2.1.2v5.4a12.146,12.146,0,0,0,.1,1.9c0,.2.1.3.3.4s.3.2.5.1a5.647,5.647,0,0,0,1.2-.4l.3,2.7a5.49,5.49,0,0,1-2.4.7,3.888,3.888,0,0,1-1.5-.2,1.889,1.889,0,0,1-1-.8,3.255,3.255,0,0,1-.4-1.3,20.162,20.162,0,0,1-.1-2.5v-5.8l-1.4.1v-2.8l1.4-.1v-2.6l3.1-2.3v4.7Zm9.4,8.3,3.1.4a6.248,6.248,0,0,1-1.9,3.1,5.916,5.916,0,0,1-3.2,1.3,4.557,4.557,0,0,1-4.5-1.9,7.739,7.739,0,0,1-1.1-4.5,8.245,8.245,0,0,1,1.5-5.3,5.411,5.411,0,0,1,3.8-2.2,4.526,4.526,0,0,1,4.1,1.6c1,1.2,1.5,3.2,1.4,5.9l-7.7.6a3.986,3.986,0,0,0,.7,2.4,2.086,2.086,0,0,0,1.8.7,1.844,1.844,0,0,0,1.2-.5A3.459,3.459,0,0,0,14266.5,3374.9Zm.2-3.6a3.691,3.691,0,0,0-.7-2.3,1.99,1.99,0,0,0-1.6-.7,2.376,2.376,0,0,0-1.7,1,3.218,3.218,0,0,0-.6,2.3Zm16.8,6.5-2.9.2v-2a4.9,4.9,0,0,1-1.7,1.8,4.789,4.789,0,0,1-2,.7,3.869,3.869,0,0,1-3.4-1.6,7.92,7.92,0,0,1-1.4-5,8.7,8.7,0,0,1,1.4-5.2,4.592,4.592,0,0,1,3.5-2,3.869,3.869,0,0,1,3.4,1.6v-6.6l3.1-.2Zm-8.3-6.3a5.955,5.955,0,0,0,.5,3,2.087,2.087,0,0,0,2.1,1.2,2.465,2.465,0,0,0,1.8-1.2,5.755,5.755,0,0,0,.8-3.1,5.618,5.618,0,0,0-.7-3.2,2.2,2.2,0,0,0-1.9-.9,2.342,2.342,0,0,0-1.8,1.1A5.993,5.993,0,0,0,14275.2,3371.5Z"/>
    </g>
  </g>
</svg>
