<svg xmlns="http://www.w3.org/2000/svg" width="624" height="458" viewBox="0 0 624 458">
  <g id="img_cover_gallery" transform="translate(-10498 -1272)">
    <rect id="Rectangle_4140" data-name="Rectangle 4140" width="624" height="458" transform="translate(10498 1272)" fill="none"/>
    <ellipse id="Ellipse_707" data-name="Ellipse 707" cx="47.149" cy="12.881" rx="47.149" ry="12.881" transform="translate(10742.665 1683.451)" opacity="0.1" style="mix-blend-mode: multiply;isolation: isolate"/>
    <path id="Path_75610" data-name="Path 75610" d="M990.355,407.987,823.6,306.312c-3.995-2.436-7.63-2.653-10.259-1.039,0,0-37.846,15.977-33.851,18.413l178,104C965.433,432.527,998.294,412.828,990.355,407.987Z" transform="translate(9936 1204)" opacity="0.1" style="mix-blend-mode: multiply;isolation: isolate"/>
    <path id="Path_75611" data-name="Path 75611" d="M831.132,369.887l-85.96-52.413c-2.059-1.256-3.933-1.368-5.288-.536,0,0-19.51,8.236-17.45,9.492l91.759,53.612C818.285,382.537,835.225,372.383,831.132,369.887Z" transform="translate(9936 1204)" opacity="0.1" style="mix-blend-mode: multiply;isolation: isolate"/>
    <g id="Group_14273" data-name="Group 14273" transform="translate(9936 1204)">
      <g id="Group_14272" data-name="Group 14272" style="isolation: isolate">
        <path id="Path_75612" data-name="Path 75612" d="M996.491,233.861l-.545,192.066c-.008,3.026-1.078,5.156-2.8,6.158l10.3-5.988c1.725-1,2.795-3.132,2.8-6.158l.545-192.066Z" fill="#ced3d8"/>
        <g id="Group_14270" data-name="Group 14270">
          <path id="Path_75613" data-name="Path 75613" d="M795.282,117.693l10.3-5.988,201.208,116.168-10.3,5.988Z" fill="#eaeded"/>
        </g>
        <g id="Group_14271" data-name="Group 14271">
          <path id="Path_75614" data-name="Path 75614" d="M996.491,233.861l-.545,192.066c-.017,6.092-4.334,8.552-9.636,5.491l-182-105.077c-5.3-3.061-9.591-10.49-9.573-16.582l.544-192.066Z" fill="#eaeded"/>
        </g>
      </g>
    </g>
    <path id="Path_75615" data-name="Path 75615" d="M1046.378,273.7l-52.3-30.195c-1.72-.993-3.285-1.08-4.418-.422l-3.091,1.8.012-.005c-1.125.647-1.826,2.025-1.831,3.982l-.119,41.712a13.719,13.719,0,0,0,6.2,10.743l30.542,17.634-2.6,9.683,3.091-1.8,4.964-4.736,16.3,9.412c1.829,1.056,3.477,1.083,4.623.287-.066.046-.129.1-.2.138l3.091-1.8c1.119-.65,1.815-2.029,1.821-3.984l.118-41.713A13.721,13.721,0,0,0,1046.378,273.7Z" transform="translate(9936 1204)" opacity="0.1" style="mix-blend-mode: multiply;isolation: isolate"/>
    <g id="Group_14274" data-name="Group 14274" transform="translate(9936 1204)">
      <path id="Path_75616" data-name="Path 75616" d="M972.459,394.125l-.013,4.762L808.574,304.276l.014-4.762Z" fill="#285078"/>
    </g>
    <g id="Group_14279" data-name="Group 14279" transform="translate(9936 1204)">
      <g id="Group_14275" data-name="Group 14275">
        <path id="Path_75617" data-name="Path 75617" d="M972.536,366.753l-.067,23.543L933.938,368.05,934,344.507Z" fill="#ec691f"/>
      </g>
      <g id="Group_14276" data-name="Group 14276">
        <path id="Path_75618" data-name="Path 75618" d="M931.045,342.8l-.067,23.543L892.456,344.1l.067-23.543Z" fill="#0d1b3a"/>
      </g>
      <g id="Group_14277" data-name="Group 14277">
        <path id="Path_75619" data-name="Path 75619" d="M889.564,318.849l-.067,23.543-38.532-22.246.067-23.543Z" fill="#1a3a81"/>
      </g>
      <g id="Group_14278" data-name="Group 14278">
        <path id="Path_75620" data-name="Path 75620" d="M848.073,294.895l-.067,23.543L809.484,296.2l.067-23.543Z" fill="#ff975d"/>
      </g>
    </g>
    <g id="Group_14282" data-name="Group 14282" transform="translate(9936 1204)">
      <g id="Group_14280" data-name="Group 14280">
        <path id="Path_75621" data-name="Path 75621" d="M973.935,246.086l-.013,4.762L810.05,156.237l.013-4.762Z" fill="#285078"/>
      </g>
      <g id="Group_14281" data-name="Group 14281">
        <path id="Path_75622" data-name="Path 75622" d="M897.4,211.452l-.013,4.762-87.368-50.442.013-4.762Z" fill="#285078"/>
      </g>
    </g>
    <path id="Path_75623" data-name="Path 75623" d="M885.391,213.4l-75.206-43.42-.017,5.749,81.846,141.762L972.223,363.8Zm14.749,64.123-12.27,1.059a3.708,3.708,0,0,1-2.141-.568,9.462,9.462,0,0,1-4.3-7.435l.046-16.25c.008-2.886,2.073-3.763,4.317-2.467a7.857,7.857,0,0,1,2.145,1.911l12.223,15.19C903.024,272.514,903.011,277.277,900.14,277.521Z" transform="translate(9936 1204)" fill="#c8d9ff"/>
    <g id="Group_14283" data-name="Group 14283" transform="translate(9936 1204)">
      <path id="Path_75624" data-name="Path 75624" d="M907.849,226.364l66.208,38.225-.216,76.067Z" fill="#c8d9ff"/>
    </g>
    <g id="Group_14284" data-name="Group 14284" transform="translate(9936 1204)">
      <path id="Path_75625" data-name="Path 75625" d="M810.168,175.727l81.846,141.762-22.458-12.966L810.1,201.533Z" fill="#dfe6f5"/>
    </g>
    <g id="Group_14285" data-name="Group 14285" transform="translate(9936 1204)">
      <path id="Path_75626" data-name="Path 75626" d="M809.9,270.081l.194-68.548,59.461,102.99Z" fill="#c8d9ff"/>
    </g>
    <g id="Group_14286" data-name="Group 14286" transform="translate(9936 1204)">
      <path id="Path_75627" data-name="Path 75627" d="M907.849,226.364l65.992,114.292-.068,24.036-1.549-.895L885.391,213.4Z" fill="#dfe6f5"/>
    </g>
    <g id="Group_14287" data-name="Group 14287" transform="translate(9936 1204)">
      <path id="Path_75628" data-name="Path 75628" d="M885.8,251.86a7.862,7.862,0,0,1,2.145,1.912l12.223,15.19c2.86,3.552,2.847,8.315-.024,8.559l-12.27,1.059a3.708,3.708,0,0,1-2.141-.568,9.462,9.462,0,0,1-4.3-7.435l.046-16.25C881.487,251.441,883.552,250.564,885.8,251.86Z" fill="#eaeded"/>
    </g>
    <path id="Path_75629" data-name="Path 75629" d="M832.188,266.708l-81.339-46.961a3.108,3.108,0,0,0-3.135-.3l-5.152,2.994.009-.005a3.077,3.077,0,0,0-1.294,2.829l-.265,93.453a9.688,9.688,0,0,0,4.391,7.607l81.339,46.96a3.1,3.1,0,0,0,3.148.3l-.013.011,5.152-2.994a3.083,3.083,0,0,0,1.285-2.825l.265-93.453A9.686,9.686,0,0,0,832.188,266.708Z" transform="translate(9936 1204)" opacity="0.1" style="mix-blend-mode: multiply;isolation: isolate"/>
    <g id="Group_14294" data-name="Group 14294" transform="translate(9936 1204)">
      <g id="Group_14290" data-name="Group 14290">
        <g id="Group_14289" data-name="Group 14289" style="isolation: isolate">
          <path id="Path_75630" data-name="Path 75630" d="M826.187,269.708l-81.338-46.961a3.11,3.11,0,0,0-3.135-.3l-5.152,2.994a3.108,3.108,0,0,1,3.135.3L821.036,272.7a9.686,9.686,0,0,1,4.391,7.606l-.265,93.454a3.082,3.082,0,0,1-1.285,2.824l5.152-2.994a3.083,3.083,0,0,0,1.285-2.825l.265-93.453A9.684,9.684,0,0,0,826.187,269.708Z" fill="#c1c9e1"/>
          <g id="Group_14288" data-name="Group 14288">
            <path id="Path_75631" data-name="Path 75631" d="M821.035,272.7a9.685,9.685,0,0,1,4.392,7.606l-.265,93.454c-.008,2.8-1.993,3.92-4.42,2.518L739.4,329.32a9.688,9.688,0,0,1-4.391-7.607l.265-93.453c.008-2.8,1.993-3.92,4.42-2.519Z" fill="#c8d9ff"/>
          </g>
        </g>
      </g>
      <g id="Group_14293" data-name="Group 14293">
        <g id="Group_14291" data-name="Group 14291">
          <path id="Path_75632" data-name="Path 75632" d="M757.3,271.452l27.931,41.384,13.294-12.8,20.144,34.331-.037,12.882-77.7-44.859L741,278.265Z" fill="#ff975d"/>
        </g>
        <g id="Group_14292" data-name="Group 14292">
          <path id="Path_75633" data-name="Path 75633" d="M779.908,279.4a6.321,6.321,0,0,1,2.865,4.963c-.005,1.824-1.3,2.56-2.884,1.644a6.319,6.319,0,0,1-2.866-4.963C777.028,279.224,778.321,278.488,779.908,279.4Z" fill="#ec691f"/>
        </g>
        <path id="Path_75634" data-name="Path 75634" d="M741.115,237.046,741,278.265l16.3-6.813,27.931,41.383,13.294-12.8,20.144,34.331.149-52.46Zm38.774,48.965a6.319,6.319,0,0,1-2.866-4.963c.005-1.824,1.3-2.56,2.885-1.644a6.321,6.321,0,0,1,2.865,4.963C782.768,286.191,781.476,286.927,779.889,286.011Z" fill="#ffdac5"/>
      </g>
    </g>
    <g id="Group_14297" data-name="Group 14297" transform="translate(9936 1204)">
      <g id="Group_14296" data-name="Group 14296" style="isolation: isolate">
        <path id="Path_75635" data-name="Path 75635" d="M998.4,195.791l-182-105.077c-2.668-1.541-5.087-1.683-6.833-.668l-10.3,5.988c1.746-1.015,4.165-.872,6.833.668l182,105.077c5.3,3.061,9.591,10.49,9.573,16.582l-.048,17.065,10.3-5.988.048-17.065C1007.995,206.281,1003.706,198.852,998.4,195.791Z" fill="#c1c9e1"/>
        <g id="Group_14295" data-name="Group 14295">
          <path id="Path_75636" data-name="Path 75636" d="M988.1,201.779c5.3,3.061,9.591,10.49,9.573,16.582l-.048,17.065L796.416,119.258l.049-17.065c.017-6.092,4.334-8.552,9.636-5.491Z" fill="#dfe6f5"/>
        </g>
      </g>
    </g>
    <g id="Group_14301" data-name="Group 14301" transform="translate(9936 1204)">
      <g id="Group_14298" data-name="Group 14298">
        <path id="Path_75637" data-name="Path 75637" d="M811.329,112.527a7.65,7.65,0,0,1,3.471,6.011c-.007,2.21-1.571,3.1-3.493,1.991a7.652,7.652,0,0,1-3.471-6.011C807.843,112.308,809.407,111.417,811.329,112.527Z" fill="#b5beda"/>
      </g>
      <g id="Group_14299" data-name="Group 14299">
        <path id="Path_75638" data-name="Path 75638" d="M821.7,118.515a7.647,7.647,0,0,1,3.47,6.01c-.006,2.21-1.57,3.1-3.493,1.991a7.645,7.645,0,0,1-3.47-6.011C818.213,118.3,819.777,117.4,821.7,118.515Z" fill="#b5beda"/>
      </g>
      <g id="Group_14300" data-name="Group 14300">
        <ellipse id="Ellipse_708" data-name="Ellipse 708" cx="2.843" cy="4.908" rx="2.843" ry="4.908" transform="translate(827.135 125.688) rotate(-30.162)" fill="#b5beda"/>
      </g>
    </g>
    <g id="Group_14313" data-name="Group 14313" transform="translate(9936 1204)">
      <g id="Group_14305" data-name="Group 14305">
        <g id="Group_14304" data-name="Group 14304" style="isolation: isolate">
          <g id="Group_14302" data-name="Group 14302">
            <path id="Path_75639" data-name="Path 75639" d="M1022.229,323.2l3.091-1.8-7.3,6.967-3.091,1.8Z" fill="#ec691f"/>
          </g>
          <path id="Path_75640" data-name="Path 75640" d="M1042.532,275.238l-52.3-30.2c-1.719-.993-3.284-1.08-4.417-.422l-3.091,1.8c1.133-.658,2.7-.57,4.417.422l52.3,30.195a13.721,13.721,0,0,1,6.206,10.738l-.119,41.713c-.005,1.955-.7,3.334-1.82,3.985l3.091-1.8c1.119-.65,1.815-2.029,1.821-3.985l.118-41.712A13.719,13.719,0,0,0,1042.532,275.238Z" fill="#ff975d"/>
          <g id="Group_14303" data-name="Group 14303">
            <path id="Path_75641" data-name="Path 75641" d="M1039.441,277.034a13.721,13.721,0,0,1,6.206,10.738l-.119,41.713c-.011,3.936-2.82,5.537-6.246,3.559l-17.053-9.846-7.3,6.968,2.6-9.684-30.542-17.633a13.72,13.72,0,0,1-6.2-10.743l.118-41.713c.012-3.925,2.821-5.526,6.237-3.554Z" fill="#ffdac5"/>
          </g>
        </g>
      </g>
      <g id="Group_14312" data-name="Group 14312">
        <g id="Group_14306" data-name="Group 14306">
          <path id="Path_75642" data-name="Path 75642" d="M1032.826,286.753l-.006,1.984-42.135-24.327.006-1.984Z" fill="#e9f6f9"/>
        </g>
        <g id="Group_14307" data-name="Group 14307">
          <path id="Path_75643" data-name="Path 75643" d="M1013.139,278.976l-.006,1.984-22.458-12.966.006-1.984Z" fill="#e9f6f9"/>
        </g>
        <g id="Group_14308" data-name="Group 14308">
          <path id="Path_75644" data-name="Path 75644" d="M1013.106,290.892l-.006,1.984L990.642,279.91l.006-1.984Z" fill="#e9f6f9"/>
        </g>
        <g id="Group_14309" data-name="Group 14309">
          <path id="Path_75645" data-name="Path 75645" d="M1013.072,302.808l-.006,1.984-22.458-12.966.006-1.984Z" fill="#e9f6f9"/>
        </g>
        <g id="Group_14310" data-name="Group 14310">
          <path id="Path_75646" data-name="Path 75646" d="M1032.758,310.586l-.006,1.995-42.135-24.327.006-1.995Z" fill="#e9f6f9"/>
        </g>
        <g id="Group_14311" data-name="Group 14311">
          <path id="Path_75647" data-name="Path 75647" d="M1032.792,298.67l-.006,1.995-42.135-24.327.006-1.995Z" fill="#e9f6f9"/>
        </g>
      </g>
    </g>
    <path id="Path_75648" data-name="Path 75648" d="M873.052,354.156c-1.063-1.382-1.908,4.318-1.3,7.4l1.839,2.017a19.777,19.777,0,0,0,3.929-2.167,19.118,19.118,0,0,0,1.965-3.862s-.339-1.015-1.152-.406a14.969,14.969,0,0,0-2.032,2.235,37.529,37.529,0,0,0,3.221-5.726c.087-.275.135-1.762-.746-.881a27.79,27.79,0,0,0-2.614,4.308s1.689-3.806,1.441-4.979c-.094-.449-.76-1.324-1.437.437s-1.694,4.606-1.694,4.606a15.029,15.029,0,0,0,.948-4.446c-.02-.253-.406-1.219-1.016,0a28.653,28.653,0,0,0-1.315,4.412S873.335,354.524,873.052,354.156Z" transform="translate(9936 1204)" fill="#ff9c6f"/>
    <g id="Group_14314" data-name="Group 14314" transform="translate(9936 1204)" opacity="0.2" style="mix-blend-mode: multiply;isolation: isolate">
      <path id="Path_75649" data-name="Path 75649" d="M877.1,352.093c.248,1.173-1.442,4.979-1.442,4.979s.807-1.594,1.6-2.887a5.223,5.223,0,0,0,.347-2.092c-.065-.311-.4-.824-.831-.529A.953.953,0,0,1,877.1,352.093Z" fill="#ff9c6f"/>
      <path id="Path_75650" data-name="Path 75650" d="M874.917,352.69a14.57,14.57,0,0,1-.932,4.4c.113-.315.838-2.338,1.439-3.935a3.6,3.6,0,0,0,0-.466c-.017-.206-.277-.887-.7-.467A.987.987,0,0,1,874.917,352.69Z" fill="#ff9c6f"/>
      <path id="Path_75651" data-name="Path 75651" d="M872.546,354.156c.284.368.039,2.946.039,2.946s.256-1.153.592-2.337a1.352,1.352,0,0,0-.125-.609c-.2-.265-.4-.268-.579-.081A.737.737,0,0,1,872.546,354.156Z" fill="#ff9c6f"/>
      <path id="Path_75652" data-name="Path 75652" d="M878.563,357a1.063,1.063,0,0,1,.419.538,19.121,19.121,0,0,1-1.965,3.862,16.732,16.732,0,0,1-3.569,2.008l.145.159a19.777,19.777,0,0,0,3.929-2.167,19.118,19.118,0,0,0,1.965-3.862S879.211,356.723,878.563,357Z" fill="#ff9c6f"/>
      <path id="Path_75653" data-name="Path 75653" d="M878.942,352.62a1.705,1.705,0,0,1,.076,1.025,37.461,37.461,0,0,1-3.22,5.726,17.115,17.115,0,0,1,1.809-2.05,21.819,21.819,0,0,0,1.917-3.676C879.6,353.388,879.652,352.077,878.942,352.62Z" fill="#ff9c6f"/>
    </g>
    <path id="Path_75654" data-name="Path 75654" d="M871.905,361.406l-2.224,2.165,1.4,1.729,3.479-2.26Z" transform="translate(9936 1204)" fill="#ff9c6f"/>
    <path id="Path_75655" data-name="Path 75655" d="M871.217,483.793s14.755.836,10.335,3.867-15.512,3.536-16.228,2.9-1.663-2.357-.231-5.725Z" transform="translate(9936 1204)" fill="#285078"/>
    <path id="Path_75656" data-name="Path 75656" d="M871.217,483.793l-6.124,1.046c-.12.281-.217.546-.3.8l4.913-.84s13.4.762,10.817,3.46a9.205,9.205,0,0,0,1.033-.6C885.972,484.629,871.217,483.793,871.217,483.793Z" transform="translate(9936 1204)" fill="#537393" opacity="0.25" style="mix-blend-mode: screen;isolation: isolate"/>
    <path id="Path_75657" data-name="Path 75657" d="M836.578,487.676s14.754.836,10.334,3.867-15.759,3.252-16.474,2.62-1.416-2.073.015-5.441Z" transform="translate(9936 1204)" fill="#285078"/>
    <path id="Path_75658" data-name="Path 75658" d="M836.578,487.676l-6.125,1.046c-.106.249-.2.485-.28.713l4.384-.749s14.755.836,10.335,3.867c-.033.022-.069.043-.1.064a10.459,10.459,0,0,0,2.122-1.074C851.332,488.512,836.578,487.676,836.578,487.676Z" transform="translate(9936 1204)" fill="#537393" opacity="0.25" style="mix-blend-mode: screen;isolation: isolate"/>
    <path id="Path_75659" data-name="Path 75659" d="M849.98,357.978l-1.136,5.375-3.115.59s-.674,5.472,4.8,6.9,13.912-1.305,14.417-4.167-7.009-1.558-6.335-5.6c0,0,6.062.253,6.567-7.493s0-8.25,0-8.25-5.136-1.684-6.483.505-4.462,2.336-3.536,3.6-.694,2.21-.694,2.21l-.485-2.694s-1.852,6.062.337,7.577C854.316,356.534,855.032,359.578,849.98,357.978Z" transform="translate(9936 1204)" fill="#ff9c6f"/>
    <g id="Group_14315" data-name="Group 14315" transform="translate(9936 1204)" opacity="0.1" style="mix-blend-mode: multiply;isolation: isolate">
      <path id="Path_75660" data-name="Path 75660" d="M853.958,351.146a2.547,2.547,0,0,0,.366-.275l-.345-1.914s-.111.364-.246.934Z" fill="#ff9c6f"/>
      <path id="Path_75661" data-name="Path 75661" d="M865.177,345.337s-.149-.049-.4-.118c.114.7.234,2.621-.107,7.863-.506,7.746-6.567,7.493-6.567,7.493a2.144,2.144,0,0,0,.854,2.235,2.181,2.181,0,0,1-.349-1.73s6.062.253,6.567-7.493S865.177,345.337,865.177,345.337Z" fill="#ff9c6f"/>
      <path id="Path_75662" data-name="Path 75662" d="M864.3,365.3a1.216,1.216,0,0,1,.143.873c-.505,2.862-8.945,5.6-14.417,4.167a6.674,6.674,0,0,1-2.77-1.41,6.383,6.383,0,0,0,3.275,1.915c5.472,1.431,13.912-1.305,14.417-4.167A1.283,1.283,0,0,0,864.3,365.3Z" fill="#ff9c6f"/>
    </g>
    <path id="Path_75663" data-name="Path 75663" d="M887.108,367.989l8.167-7.156s-.506-2.947.673-4.294,3.705-6.651,3.705-6.651,1.431-.168.505,1.431-2.442,5.22-2.442,5.22,2.9.337,2.754,3.031-.9,2.441-2.165,4.041-8.345,9.319-8.345,9.319l-4.115-4.1Z" transform="translate(9936 1204)" fill="#ff9c6f"/>
    <path id="Path_75664" data-name="Path 75664" d="M897.716,356.539s1.516-3.62,2.442-5.22-.505-1.431-.505-1.431-.077.161-.207.429a1.56,1.56,0,0,1-.3,1c-.926,1.6-2.441,5.22-2.441,5.22s2.9.337,2.753,3.031-.9,2.441-2.164,4.041c-1.063,1.346-6.248,7.028-7.863,8.793l.528.526s7.083-7.719,8.345-9.319,2.021-1.347,2.165-4.041S897.716,356.539,897.716,356.539Z" transform="translate(9936 1204)" fill="#ff9c6f" opacity="0.2" style="mix-blend-mode: multiply;isolation: isolate"/>
    <path id="Path_75665" data-name="Path 75665" d="M864.756,365.563l5.809-3.66,2.526,3.239-4.167,5.249Z" transform="translate(9936 1204)" fill="#ec691f"/>
    <path id="Path_75666" data-name="Path 75666" d="M843.2,422.943l-12.75,65.779s-.642,3.147,6.331-.557c0,0,5.674-17.985,7.093-22.016,3.2-9.092,12.039-24.709,12.544-33.8,0,0,8.251,17.048,9.219,28.793.123,1.5.125.631.125.631l-.757,23.8s4.3,2.155,5.62-.379c2.526-4.841,3.263-42.958,3.263-42.958s-.161-22.3-3.575-26.515-11.117-5.351-11.117-5.351L844.55,415.3Z" transform="translate(9936 1204)" fill="#0d1b3a"/>
    <g id="Group_14316" data-name="Group 14316" transform="translate(9936 1204)" opacity="0.15" style="mix-blend-mode: screen;isolation: isolate">
      <path id="Path_75667" data-name="Path 75667" d="M866.019,485.576l.751-23.634c-.01.143-.038.188-.12-.8-.968-11.745-9.219-28.793-9.219-28.793-.031.566-.1,1.158-.188,1.771,2.11,4.657,7.617,17.558,8.4,27.022.081.99.11.945.12.8l-.752,23.634a8,8,0,0,0,3.772.824A9.252,9.252,0,0,1,866.019,485.576Z" fill="#333"/>
      <path id="Path_75668" data-name="Path 75668" d="M831.463,488.722l12.75-65.779,1.347-7.644,14.3-4.807c-.415-.082-.659-.119-.659-.119L844.55,415.3l-1.347,7.644-12.75,65.779s-.307,1.519,1.846,1.2A1.013,1.013,0,0,1,831.463,488.722Z" fill="#333"/>
    </g>
    <path id="Path_75669" data-name="Path 75669" d="M845.729,363.943s-13.976,6.4-4.546,28.287c0,0,3.115,5.346,2.609,10.566,0,0-2.273,14.186-.252,18.059s23.673,4.577,28.051-2.326-.985-27.3-1.615-32.024a24.362,24.362,0,0,0-1.937-7.45s1.6,8.966,6.314,10.313c4.327,1.236,18.579-16.954,20.9-19.957a.741.741,0,0,0,.035-.86c-.849-1.309-3.347-5.053-4.009-4.84-1.863.6-15.912,16.4-15.912,16.4s-2.067-6.491-10.654-14.742c0,0-3.427-1.663-7.026,1.6C852.27,371.881,845.392,369.331,845.729,363.943Z" transform="translate(9936 1204)" fill="#ec691f"/>
    <path id="Path_75670" data-name="Path 75670" d="M871.077,384.021c.15.743.292,1.569.414,2.484.038.283.093.625.162,1.013a5.724,5.724,0,0,0,2.7,1.85,2.308,2.308,0,0,0,1.271-.084C873.5,388.542,872.036,386.251,871.077,384.021Z" transform="translate(9936 1204)" fill="#9d6693" opacity="0.2" style="mix-blend-mode: screen;isolation: isolate"/>
    <path id="Path_75671" data-name="Path 75671" d="M875.364,380.107s13.256-13.2,16.691-15.92c-.337-.337-.615-.529-.779-.476-1.554.5-11.58,11.566-14.866,15.227C876.746,379.691,875.364,380.107,875.364,380.107Z" transform="translate(9936 1204)" fill="#9d6693" opacity="0.2" style="mix-blend-mode: screen;isolation: isolate"/>
    <path id="Path_75672" data-name="Path 75672" d="M859.2,366.968a7.326,7.326,0,0,1,4.067-1.979,6.891,6.891,0,0,0-5.582,1.979,9.6,9.6,0,0,1-5.438,2.58A9.04,9.04,0,0,0,859.2,366.968Z" transform="translate(9936 1204)" fill="#ec691f"/>
    <path id="Path_75673" data-name="Path 75673" d="M845.055,420.855c-2.02-3.873.253-18.059.253-18.059.505-5.22-2.61-10.566-2.61-10.566-7.453-17.3-.286-24.923,3.047-27.359a5.825,5.825,0,0,1-.016-.928s-13.976,6.4-4.546,28.287c0,0,3.115,5.346,2.609,10.566,0,0-2.273,14.186-.252,18.059.975,1.869,6.521,3,12.491,2.894C850.664,423.656,845.947,422.564,845.055,420.855Z" transform="translate(9936 1204)" fill="#9d6693" opacity="0.2" style="mix-blend-mode: screen;isolation: isolate"/>
    <path id="Path_75674" data-name="Path 75674" d="M864.756,347.42s1.362-.042,1.986-3.073c0,0,.708-8.671-10.068-7.072s-11.7,6.23-11.619,12.124.884,7.819,5.431,10.776,7.366-13.975,8.545-13.386S863.417,348.286,864.756,347.42Z" transform="translate(9936 1204)" fill="#f39c12"/>
    <path id="Path_75675" data-name="Path 75675" d="M863.981,338.341a7.567,7.567,0,0,1,1.411,4.744c-.624,3.03-1.987,3.072-1.987,3.072-1.338.866-4.546-.042-5.724-.631s-4,16.343-8.546,13.386a23.244,23.244,0,0,1-1.924-1.381,15.845,15.845,0,0,0,3.275,2.644c4.546,2.957,7.366-13.975,8.545-13.386s4.386,1.5,5.725.631c0,0,1.362-.042,1.986-3.073C866.742,344.347,867.057,340.422,863.981,338.341Z" transform="translate(9936 1204)" fill="#f39c12" opacity="0.2" style="mix-blend-mode: multiply;isolation: isolate"/>
    <path id="Path_75676" data-name="Path 75676" d="M851.117,432.347l-7.577,25.509S851.748,437.272,851.117,432.347Z" transform="translate(9936 1204)" fill="#333" opacity="0.1" style="mix-blend-mode: screen;isolation: isolate"/>
    <path id="Path_75677" data-name="Path 75677" d="M862.483,432.347l6.3,20.332S865.008,434.494,862.483,432.347Z" transform="translate(9936 1204)" fill="#333" opacity="0.1" style="mix-blend-mode: screen;isolation: isolate"/>
    <path id="Path_75678" data-name="Path 75678" d="M864.124,392.441s2.652,14.265.632,19.508S869.807,406.711,864.124,392.441Z" transform="translate(9936 1204)" fill="#9d6693" opacity="0.2" style="mix-blend-mode: screen;isolation: isolate"/>
    <path id="Path_75679" data-name="Path 75679" d="M773.028,168.529l-.439-5.579-.689,4.593-3.744-1.24,3.743,3.079.69,5.392.69-4.595,3.743,1.243Z" transform="translate(9936 1204)" fill="#00aced"/>
    <path id="Path_75680" data-name="Path 75680" d="M714.5,262.094l-.439-5.579-.689,4.593-3.744-1.24,3.743,3.079.69,5.392.691-4.595,3.743,1.243Z" transform="translate(9936 1204)" fill="#00aced"/>
    <path id="Path_75681" data-name="Path 75681" d="M1033.553,236.713l-.438-5.579-.689,4.593-3.744-1.24,3.743,3.079.69,5.392.691-4.595,3.743,1.243Z" transform="translate(9936 1204)" fill="#00aced"/>
    <g id="Group_14323" data-name="Group 14323" transform="translate(9936 1204)">
      <path id="Path_75683" data-name="Path 75683" d="M1040.7,476.5l-83.857-51.131c-2.009-1.225-3.838-1.335-5.16-.523,0,0-19.032,8.035-17.023,9.26l89.515,52.3C1028.164,488.841,1044.689,478.935,1040.7,476.5Z" opacity="0.1" style="mix-blend-mode: multiply;isolation: isolate"/>
      <path id="Path_75684" data-name="Path 75684" d="M1050.5,363.246l-82.412-47.581c-1.974-1.14-3.771-1.241-5.07-.486l-17.722,10.3c1.3-.755,3.1-.654,5.07.486l82.412,47.581a15.731,15.731,0,0,1,7.111,12.317l-.256,90.188c-.006,2.24-.8,3.82-2.087,4.566l17.722-10.3c1.283-.746,2.081-2.326,2.087-4.565l.256-90.189A15.731,15.731,0,0,0,1050.5,363.246Z" fill="#ced3d8"/>
      <path id="Path_75685" data-name="Path 75685" d="M1032.781,373.545a15.731,15.731,0,0,1,7.111,12.317l-.256,90.188c-.012,4.509-3.234,6.345-7.157,4.079l-82.412-47.58a15.73,15.73,0,0,1-7.111-12.317l.256-90.189c.012-4.508,3.234-6.344,7.157-4.079Z" fill="#eaeded"/>
      <path id="Path_75686" data-name="Path 75686" d="M944.465,422.746l.255-90.188c.013-4.509,3.234-6.345,7.158-4.079l82.412,47.58a13.594,13.594,0,0,1,4.069,3.837,15.086,15.086,0,0,0-5.578-6.351l-82.412-47.581c-3.923-2.265-7.145-.429-7.157,4.079l-.256,90.189a15.233,15.233,0,0,0,3.041,8.48A13.816,13.816,0,0,1,944.465,422.746Z" fill="#1079a0" opacity="0.1" style="mix-blend-mode: darken;isolation: isolate"/>
      <path id="Path_75687" data-name="Path 75687" d="M1039.6,418.844l-.052,18.447-96.68-55.819.052-18.447Z" fill="#c8d9ff"/>
      <path id="Path_75688" data-name="Path 75688" d="M989.044,374.28c-5.589-3.226-10.653-3.526-14.309-1.4l-6.889,4c3.657-2.125,8.721-1.825,14.309,1.4,11.1,6.411,20.077,21.951,20.041,34.715-.018,6.339-2.256,10.8-5.865,12.9l6.888-4c3.609-2.1,5.847-6.557,5.865-12.9C1009.12,396.232,1000.148,380.692,989.044,374.28Z" fill="#ced3d8"/>
      <path id="Path_75689" data-name="Path 75689" d="M982.977,376.684c11.428,6.6,20.661,22.59,20.624,35.724s-9.331,18.427-20.758,11.83-20.664-22.592-20.627-35.723S971.55,370.087,982.977,376.684Z" fill="#1a3a81"/>
      <g id="Group_14318" data-name="Group 14318" style="isolation: isolate">
        <path id="Path_75690" data-name="Path 75690" d="M982.847,378.89c-5.148-2.972-9.82-3.244-13.2-1.282l-.709.412c3.376-1.962,8.047-1.69,13.2,1.282,10.229,5.906,18.525,20.274,18.491,32.029-.016,5.837-2.085,9.949-5.416,11.885l.708-.412c3.332-1.936,5.4-6.048,5.417-11.885C1001.372,399.164,993.076,384.8,982.847,378.89Z" fill="#ffdac5"/>
        <g id="Group_14317" data-name="Group 14317">
          <path id="Path_75691" data-name="Path 75691" d="M982.138,379.3c10.23,5.906,18.525,20.274,18.491,32.029s-8.382,16.509-18.612,10.6-18.525-20.274-18.492-32.025S971.908,373.4,982.138,379.3Z" fill="#ffdac5"/>
        </g>
      </g>
      <g id="Group_14319" data-name="Group 14319">
        <path id="Path_75692" data-name="Path 75692" d="M981.463,387.8c6.293,3.633,11.4,12.475,11.377,19.71s-5.159,10.159-11.452,6.525-11.4-12.476-11.38-19.707S975.166,384.163,981.463,387.8Z" fill="#ff975d"/>
      </g>
      <path id="Path_75693" data-name="Path 75693" d="M982.479,383.294a1.175,1.175,0,0,1,.531.924c0,.339-.239.479-.535.308-7.77-4.486-14.113-.871-14.138,8.057,0,.34-.242.474-.538.3a1.169,1.169,0,0,1-.531-.92C967.295,382.359,974.118,378.467,982.479,383.294Z" fill="#fff"/>
      <path id="Path_75694" data-name="Path 75694" d="M981.435,397.637a6.274,6.274,0,0,1,2.846,4.928c-.006,1.807-1.291,2.536-2.864,1.628a6.278,6.278,0,0,1-2.845-4.924C978.577,397.457,979.862,396.728,981.435,397.637Z" fill="#ec691f"/>
      <path id="Path_75695" data-name="Path 75695" d="M1013.08,371.958l4.527,2.614,8.2,21.158-4.53-2.616Z" fill="#c8d9ff"/>
      <path id="Path_75696" data-name="Path 75696" d="M1028.961,381.126a3.729,3.729,0,0,1,1.689,2.927l-.035,12.533L1023.38,377.9Z" fill="#c8d9ff"/>
      <path id="Path_75697" data-name="Path 75697" d="M1028.964,379.9l-19.088-11.021c-1.525-.88-2.769-.172-2.773,1.581l-.036,12.5a6.073,6.073,0,0,0,2.756,4.773l19.088,11.02c1.525.881,2.768.176,2.773-1.58l.036-12.5A6.078,6.078,0,0,0,1028.964,379.9Zm1.651,16.688c-.019,1.053-.773,1.476-1.7.94l-19.088-11.021a3.725,3.725,0,0,1-1.687-2.925l.036-12.5c0-.067,0-.131.007-.2.092-.926.817-1.276,1.69-.772l3.208,1.852,4.527,2.614,5.773,3.333,5.581,3.221a3.729,3.729,0,0,1,1.689,2.927Z" fill="#34495e"/>
      <g id="Group_14320" data-name="Group 14320">
        <path id="Path_75698" data-name="Path 75698" d="M1023.38,377.9l7.235,18.681c-.019,1.053-.773,1.476-1.7.94l-3.111-1.8-8.2-21.158Z" fill="#dfe6f5"/>
      </g>
      <g id="Group_14321" data-name="Group 14321">
        <path id="Path_75699" data-name="Path 75699" d="M1008.175,371.077c0-.067,0-.131.007-.2l7.321,18.9-5.677-3.278a3.725,3.725,0,0,1-1.687-2.925Z" fill="#c8d9ff"/>
      </g>
      <g id="Group_14322" data-name="Group 14322">
        <path id="Path_75700" data-name="Path 75700" d="M1013.08,371.958l8.192,21.156-5.769-3.331-7.321-18.9c.092-.929.817-1.279,1.69-.775Z" fill="#dfe6f5"/>
      </g>
    </g>
  </g>
</svg>
