<svg xmlns="http://www.w3.org/2000/svg" width="512" height="512" viewBox="0 0 512 512">
  <g id="img_gift_fuel" transform="translate(-1473 -7358)">
    <g id="Ellipse_444" data-name="Ellipse 444" transform="translate(1473 7358)" fill="none" stroke="#0d1b3a" stroke-width="12">
      <circle cx="256" cy="256" r="256" stroke="none"/>
      <circle cx="256" cy="256" r="250" fill="none"/>
    </g>
    <g id="Path_59288" data-name="Path 59288" transform="translate(1557.711 7487.522)" fill="none">
      <path d="M47.525,0h247.13c26.247,0,47.525,21.02,47.525,46.95V206.58c0,25.93-21.278,46.95-47.525,46.95H47.525C21.278,253.53,0,232.509,0,206.58V46.95C0,21.02,21.278,0,47.525,0Z" stroke="none"/>
      <path d="M 47.52508544921875 8 C 25.73089599609375 8 8 25.47283935546875 8 46.949951171875 L 8 206.5797424316406 C 8 228.0568542480469 25.73089599609375 245.5296936035156 47.52508544921875 245.5296936035156 L 294.6555480957031 245.5296936035156 C 316.4497375488281 245.5296936035156 334.1805725097656 228.0568542480469 334.1805725097656 206.5797424316406 L 334.1805725097656 46.949951171875 C 334.1805725097656 25.47283935546875 316.4497375488281 8 294.6555480957031 8 L 47.52508544921875 8 M 47.52508544921875 0 L 294.6555480957031 0 C 320.9028930664063 0 342.1805725097656 21.02020263671875 342.1805725097656 46.949951171875 L 342.1805725097656 206.5797424316406 C 342.1805725097656 232.5094451904297 320.9028930664063 253.5296936035156 294.6555480957031 253.5296936035156 L 47.52508544921875 253.5296936035156 C 21.27767944335938 253.5296936035156 0 232.5094451904297 0 206.5797424316406 L 0 46.949951171875 C 0 21.02020263671875 21.27767944335938 0 47.52508544921875 0 Z" stroke="none" fill="#0d1b3a"/>
    </g>
    <path id="Path_59310" data-name="Path 59310" d="M-15493.763-8209.071h336.482" transform="translate(17054.326 15824.912)" fill="none" stroke="#0d1b3a" stroke-linecap="round" stroke-width="8"/>
    <path id="Path_59311" data-name="Path 59311" d="M0,0H244.765" transform="translate(1780.16 7736.422) rotate(-90)" fill="none" stroke="#0d1b3a" stroke-linecap="round" stroke-width="8"/>
    <g id="Group_10334" data-name="Group 10334" transform="translate(1708.902 7522.243)">
      <path id="Path_59313" data-name="Path 59313" d="M120.155,129.513S24.424,67.71,4.992,36.246,28.166-6.585,42.424,3.665s17.443,82.34,17.443,82.34" transform="translate(0 16.722) rotate(-8)" fill="none" stroke="#ec691f" stroke-linecap="round" stroke-width="8"/>
      <path id="Path_59314" data-name="Path 59314" d="M120.153,0S24.422,61.8,4.99,93.259s23.181,42.834,37.436,32.583S59.867,43.509,59.867,43.509" transform="translate(124.82 144.971) rotate(-172)" fill="none" stroke="#ec691f" stroke-linecap="round" stroke-width="8"/>
    </g>
    <g id="Group_10336" data-name="Group 10336" transform="translate(1613.615 7630.098)">
      <path id="Path_59316" data-name="Path 59316" d="M8.81,53.873,8.8,53.91l-.005-.01A19.684,19.684,0,0,0,9.86,49.656h0a14.7,14.7,0,0,0,7.95-1.332,14.4,14.4,0,0,0,8.108-11.69c.365-4.306-1.368-8.7-3.3-12.811a1.983,1.983,0,0,1,.082-1.964,2.409,2.409,0,0,1,2-1.08,1.969,1.969,0,0,1,1.036.285,2.1,2.1,0,0,1,.8.925c2.078,4.43,4.14,9.678,3.689,15.009a18.732,18.732,0,0,1-10.54,15.218,19.051,19.051,0,0,1-8.209,1.845A18.83,18.83,0,0,1,8.81,53.873ZM0,15.349A122.9,122.9,0,0,1,9.82.825a2.159,2.159,0,0,1,3.4,0c.569.724,1.147,1.485,1.769,2.328L16.369,5.1,17.59,6.816c.721,1.044,1.424,2.091,2.091,3.112a1.966,1.966,0,0,1,.127,2.086,2.4,2.4,0,0,1-2.056,1.237,1.986,1.986,0,0,1-1.688-.964c-1.48-2.268-3.009-4.475-4.544-6.558A117.719,117.719,0,0,0,2.412,19.883C1.044,17.3.1,15.529,0,15.349Z" transform="translate(47.701 10.959)" fill="#e36410"/>
      <path id="Path_59315" data-name="Path 59315" d="M22.936,84.01a29.028,29.028,0,0,1-15.315-8.7c-.3-.337-.868-.989-1.328-1.563-.658-.819-1.6-2.218-1.98-2.784-.266-.425-.517-.853-.749-1.272A2.159,2.159,0,1,1,7.341,67.6a24.7,24.7,0,0,0,46.3-11.75c0-5.977-2.636-14.028-7.838-23.927-.028-.049-.054-.1-.077-.144A211.206,211.206,0,0,0,28.978,5.717,218.771,218.771,0,0,0,14.465,27.71C7.733,39.553,4.319,49.021,4.319,55.852c0,.543.021,1.111.06,1.69A2.014,2.014,0,0,1,3.867,59.1a2.282,2.282,0,0,1-1.671.686A2.027,2.027,0,0,1,.071,57.838C.024,57.162,0,56.493,0,55.852,0,35.551,26.171,2.228,27.284.819A2.484,2.484,0,0,1,28.978,0a2.484,2.484,0,0,1,1.694.819c.264.335,2.679,3.4,5.949,8.051a201.813,201.813,0,0,1,11.037,17.4l.014.09L50.14,30.9c5.186,10.123,7.817,18.519,7.817,24.951a28.819,28.819,0,0,1-.4,4.763h.007l-.009.012-1.038,4.188,0,.018h-.008a28.674,28.674,0,0,1-4.105,7.942A29.074,29.074,0,0,1,22.936,84.01Z" transform="translate(0 0)" fill="#0d1b3a"/>
    </g>
  </g>
</svg>
