<svg xmlns="http://www.w3.org/2000/svg" xmlns:xlink="http://www.w3.org/1999/xlink" width="397.975" height="193" viewBox="0 0 397.975 193">
  <defs>
    <linearGradient id="linear-gradient" x1="0.5" y1="-1.324" x2="0.5" y2="1.711" gradientUnits="objectBoundingBox">
      <stop offset="0" stop-color="#fff"/>
      <stop offset="1" stop-color="#f9f9f9"/>
    </linearGradient>
    <filter id="Path_98163" x="256.096" y="57" width="102.779" height="52.103" filterUnits="userSpaceOnUse">
      <feOffset input="SourceAlpha"/>
      <feGaussianBlur stdDeviation="4" result="blur"/>
      <feFlood flood-opacity="0.239"/>
      <feComposite operator="in" in2="blur"/>
      <feComposite in="SourceGraphic"/>
    </filter>
    <filter id="Path_98157" x="29" y="60" width="96.779" height="46.103" filterUnits="userSpaceOnUse">
      <feOffset input="SourceAlpha"/>
      <feGaussianBlur stdDeviation="3" result="blur-2"/>
      <feFlood flood-opacity="0.161"/>
      <feComposite operator="in" in2="blur-2"/>
      <feComposite in="SourceGraphic"/>
    </filter>
    <filter id="Path_98162" x="89" y="0" width="90.33" height="45.642" filterUnits="userSpaceOnUse">
      <feOffset input="SourceAlpha"/>
      <feGaussianBlur stdDeviation="3" result="blur-3"/>
      <feFlood flood-opacity="0.161"/>
      <feComposite operator="in" in2="blur-3"/>
      <feComposite in="SourceGraphic"/>
    </filter>
    <filter id="Path_98161" x="199.159" y="0" width="96.779" height="45.181" filterUnits="userSpaceOnUse">
      <feOffset input="SourceAlpha"/>
      <feGaussianBlur stdDeviation="3" result="blur-4"/>
      <feFlood flood-opacity="0.161"/>
      <feComposite operator="in" in2="blur-4"/>
      <feComposite in="SourceGraphic"/>
    </filter>
    <filter id="Path_98156" x="278" y="117" width="119.975" height="52" filterUnits="userSpaceOnUse">
      <feOffset input="SourceAlpha"/>
      <feGaussianBlur stdDeviation="4" result="blur-5"/>
      <feFlood flood-opacity="0.239"/>
      <feComposite operator="in" in2="blur-5"/>
      <feComposite in="SourceGraphic"/>
    </filter>
    <filter id="Path_98164" x="0" y="120" width="96.319" height="45.642" filterUnits="userSpaceOnUse">
      <feOffset input="SourceAlpha"/>
      <feGaussianBlur stdDeviation="3" result="blur-6"/>
      <feFlood flood-opacity="0.161"/>
      <feComposite operator="in" in2="blur-6"/>
      <feComposite in="SourceGraphic"/>
    </filter>
    <linearGradient id="linear-gradient-7" y1="0.5" x2="1" y2="0.5" gradientUnits="objectBoundingBox">
      <stop offset="0" stop-color="#ffd7c0"/>
      <stop offset="1" stop-color="#ff9a61"/>
    </linearGradient>
    <linearGradient id="linear-gradient-8" y1="0.5" x2="1" y2="0.5" gradientUnits="objectBoundingBox">
      <stop offset="0" stop-color="#ff9f68"/>
      <stop offset="1" stop-color="#ffd4bc"/>
    </linearGradient>
    <linearGradient id="linear-gradient-9" y1="0.5" x2="1" y2="0.5" gradientUnits="objectBoundingBox">
      <stop offset="0" stop-color="#ff9c64"/>
      <stop offset="1" stop-color="#ffd3ba"/>
    </linearGradient>
    <linearGradient id="linear-gradient-10" x1="0.407" y1="-0.071" x2="0.593" y2="1.071" gradientUnits="objectBoundingBox">
      <stop offset="0" stop-color="#be4500"/>
      <stop offset="1" stop-color="#ff975d"/>
    </linearGradient>
    <linearGradient id="linear-gradient-11" x1="0.031" y1="0.667" x2="0.969" y2="0.333" gradientUnits="objectBoundingBox">
      <stop offset="0" stop-color="#ffb084"/>
      <stop offset="1" stop-color="#ffd5be"/>
    </linearGradient>
    <clipPath id="clip-path">
      <path id="Path_64908" data-name="Path 64908" d="M540.187,384.246a.032.032,0,0,1,.012-.008l.167-.1h0l-.044.025C540.277,384.194,540.23,384.219,540.187,384.246Z" transform="translate(-540.187 -384.141)" fill="#f5f5f5"/>
    </clipPath>
    <linearGradient id="linear-gradient-12" x1="0.231" y1="0.785" x2="0.769" y2="0.226" gradientUnits="objectBoundingBox">
      <stop offset="0" stop-color="#ffdbc7"/>
      <stop offset="1" stop-color="#ff975d"/>
    </linearGradient>
    <linearGradient id="linear-gradient-13" x1="-1.658" y1="0.361" x2="2.495" y2="0.641" gradientUnits="objectBoundingBox">
      <stop offset="0" stop-color="#ff9a61"/>
      <stop offset="1" stop-color="#ffd4bb"/>
    </linearGradient>
    <linearGradient id="linear-gradient-14" y1="0.5" x2="1" y2="0.5" gradientUnits="objectBoundingBox">
      <stop offset="0" stop-color="#ff9a62"/>
      <stop offset="1" stop-color="#ffd3bb"/>
    </linearGradient>
    <linearGradient id="linear-gradient-15" x1="0.058" y1="0.664" x2="1" y2="0.408" gradientUnits="objectBoundingBox">
      <stop offset="0" stop-color="#ffd2b9"/>
      <stop offset="1" stop-color="#ff9e68"/>
    </linearGradient>
  </defs>
  <g id="img_recharg_options" transform="translate(-5317 -474)">
    <path id="Path_66599" data-name="Path 66599" d="M-2258.87,951.195c-22.644-21.666-61.125-30.624-113.073-33.887s-76.221-.833-94.721,20.833-25.6,49.373,20.72,65.831,117.809,13.194,164.578,0S-2236.226,972.86-2258.87,951.195Z" transform="translate(7868.424 -348.123)" fill="#ff975d" opacity="0.06"/>
    <path id="Path_66600" data-name="Path 66600" d="M-2465.506,980.051c22.644,21.666,61.125,30.624,113.073,33.888s76.221.833,94.721-20.832,25.6-49.373-20.72-65.831-117.809-13.194-164.578,0S-2488.15,958.386-2465.506,980.051Z" transform="translate(7868.424 -348.123)" fill="#ec691f" opacity="0.06"/>
    <g id="Group_21870" data-name="Group 21870" transform="translate(2.408 18)">
      <g id="Group_21471" data-name="Group 21471" transform="translate(5582.688 525)">
        <g transform="matrix(1, 0, 0, 1, -268.1, -69)" filter="url(#Path_98163)">
          <path id="Path_98163-2" data-name="Path 98163" d="M7.371,0H71.408a7.371,7.371,0,0,1,7.371,7.371v13.36A7.371,7.371,0,0,1,71.408,28.1H7.371A7.371,7.371,0,0,1,0,20.731V7.371A7.371,7.371,0,0,1,7.371,0Z" transform="translate(268.1 69)" fill="url(#linear-gradient)"/>
        </g>
        <g id="Group_7962" data-name="Group 7962" transform="translate(6.91 5.528)">
          <path id="Path_7710" data-name="Path 7710" d="M-253.931-140l-2.573,12.863h-2.444l-4.8-8.048-1.617,8.048h-2.94L-265.727-140h2.462l4.8,8.067,1.6-8.067Zm5.531,2.389-.551,2.793h5.972l-.459,2.315h-5.99l-.588,2.977H-243l-.5,2.389h-9.959L-250.88-140h9.72l-.5,2.389Zm12.348,0-.68,3.4h5.972l-.5,2.389h-5.935l-.937,4.686h-3L-238.551-140h9.72l-.5,2.389Zm11.5.037h-4.116l.5-2.426h11.209l-.5,2.426h-4.1l-2.095,10.437h-2.977Z" transform="translate(275.442 140)" fill="#6d6e72"/>
          <path id="Path_7711" data-name="Path 7711" d="M-351.795-22.691l-.412,2.058h-.315l-.844-1.441-.288,1.441h-.379l.412-2.058h.315l.847,1.441.285-1.441Zm1.593,1.582h-1.035l-.3.476h-.409l1.338-2.058h.379l.512,2.058h-.379Zm-.071-.3-.209-.906-.567.906Zm1.485-.958h-.682l.065-.323h1.746l-.068.323h-.682l-.344,1.735h-.382Zm1.417-.323h.382l-.412,2.058h-.382Zm1.555,2.087a1.174,1.174,0,0,1-.528-.11.794.794,0,0,1-.34-.309.885.885,0,0,1-.118-.46,1.27,1.27,0,0,1,.157-.629,1.145,1.145,0,0,1,.445-.445,1.313,1.313,0,0,1,.659-.163,1.174,1.174,0,0,1,.528.11.794.794,0,0,1,.34.309.886.886,0,0,1,.118.46,1.27,1.27,0,0,1-.157.629,1.144,1.144,0,0,1-.445.445A1.313,1.313,0,0,1-345.815-20.6Zm.032-.335a.824.824,0,0,0,.442-.119.806.806,0,0,0,.3-.32.941.941,0,0,0,.1-.44.537.537,0,0,0-.166-.413.663.663,0,0,0-.469-.154.824.824,0,0,0-.442.119.8.8,0,0,0-.3.32.952.952,0,0,0-.1.44.539.539,0,0,0,.165.413A.658.658,0,0,0-345.782-20.938Zm3.651-1.752-.412,2.058h-.315l-.844-1.441-.288,1.441h-.379l.412-2.058h.315l.847,1.441.285-1.441Zm1.594,1.582h-1.035l-.3.476h-.409l1.338-2.058h.379l.512,2.058h-.379Zm-.071-.3-.209-.906-.567.906Zm1.235-1.282h.382l-.347,1.735h1.076l-.065.323h-1.458Zm2.887.32-.106.535h1l-.062.315h-1l-.112.567h1.164l-.065.32h-1.544l.412-2.058h1.5l-.065.32Zm1.655-.32h.382l-.347,1.735h1.076l-.065.323h-1.458Zm2.076.32-.106.535h1l-.062.315h-1l-.112.567h1.164l-.065.32h-1.544l.412-2.058h1.5l-.065.32Zm2.279,1.767a1.2,1.2,0,0,1-.534-.11.807.807,0,0,1-.345-.31.871.871,0,0,1-.121-.459,1.26,1.26,0,0,1,.159-.629,1.155,1.155,0,0,1,.447-.445,1.319,1.319,0,0,1,.661-.163,1.181,1.181,0,0,1,.472.088.667.667,0,0,1,.31.256l-.276.232a.612.612,0,0,0-.532-.241.851.851,0,0,0-.45.118.8.8,0,0,0-.3.319.937.937,0,0,0-.106.442.533.533,0,0,0,.168.415.682.682,0,0,0,.476.153.777.777,0,0,0,.585-.238l.223.241a.9.9,0,0,1-.362.25A1.32,1.32,0,0,1-330.477-20.6Zm1.835-1.764h-.682l.065-.323h1.746l-.068.323h-.682l-.344,1.735h-.382Zm3,.3a.792.792,0,0,1-.159.5.821.821,0,0,1-.444.284l.367.653h-.406l-.338-.6h-.512l-.118.6h-.385l.412-2.058h.8a.905.905,0,0,1,.578.163A.552.552,0,0,1-325.643-22.07Zm-.97.52a.666.666,0,0,0,.432-.125.438.438,0,0,0,.153-.36.289.289,0,0,0-.113-.248.539.539,0,0,0-.325-.084h-.438l-.165.817Zm2.155.947a1.174,1.174,0,0,1-.528-.11.794.794,0,0,1-.34-.309.885.885,0,0,1-.118-.46,1.27,1.27,0,0,1,.157-.629,1.145,1.145,0,0,1,.445-.445,1.313,1.313,0,0,1,.659-.163,1.174,1.174,0,0,1,.528.11.794.794,0,0,1,.34.309.885.885,0,0,1,.118.46,1.27,1.27,0,0,1-.157.629,1.145,1.145,0,0,1-.445.445A1.313,1.313,0,0,1-324.458-20.6Zm.032-.335a.824.824,0,0,0,.442-.119.806.806,0,0,0,.3-.32.941.941,0,0,0,.1-.44.537.537,0,0,0-.166-.413.663.663,0,0,0-.469-.154.824.824,0,0,0-.442.119.8.8,0,0,0-.3.32.952.952,0,0,0-.1.44.539.539,0,0,0,.165.413A.658.658,0,0,0-324.426-20.938Zm3.651-1.752-.412,2.058h-.315l-.844-1.441-.288,1.441h-.379l.412-2.058h.315l.847,1.441.285-1.441Zm.556,0h.382l-.412,2.058h-.382Zm1.57,2.087a1.2,1.2,0,0,1-.534-.11.807.807,0,0,1-.345-.31.87.87,0,0,1-.121-.459,1.261,1.261,0,0,1,.159-.629,1.155,1.155,0,0,1,.447-.445,1.319,1.319,0,0,1,.662-.163,1.182,1.182,0,0,1,.472.088.667.667,0,0,1,.31.256l-.276.232a.612.612,0,0,0-.532-.241.85.85,0,0,0-.45.118.8.8,0,0,0-.3.319.936.936,0,0,0-.106.442.533.533,0,0,0,.168.415.682.682,0,0,0,.476.153.777.777,0,0,0,.585-.238l.223.241a.9.9,0,0,1-.362.25A1.32,1.32,0,0,1-318.649-20.6Zm2.634-1.767-.126.626h1l-.065.323h-.994l-.159.788h-.382l.412-2.058h1.5l-.065.32Zm2.084,1.767a.86.86,0,0,1-.589-.188.654.654,0,0,1-.213-.517,1.189,1.189,0,0,1,.024-.221l.232-1.161h.382l-.232,1.155a1.137,1.137,0,0,0-.021.182.393.393,0,0,0,.118.31.493.493,0,0,0,.338.1.544.544,0,0,0,.4-.144.869.869,0,0,0,.213-.456l.229-1.152h.376l-.235,1.179a1.2,1.2,0,0,1-.347.681A.97.97,0,0,1-313.93-20.6Zm3.616-2.087-.412,2.058h-.315l-.844-1.441-.288,1.441h-.379l.412-2.058h.315l.847,1.441.285-1.441Zm.556,0h.832a1.268,1.268,0,0,1,.535.1.778.778,0,0,1,.345.3.833.833,0,0,1,.119.45,1.233,1.233,0,0,1-.16.635,1.089,1.089,0,0,1-.451.423,1.443,1.443,0,0,1-.67.15h-.961Zm.562,1.735a.949.949,0,0,0,.47-.112.772.772,0,0,0,.307-.307.9.9,0,0,0,.107-.442.507.507,0,0,0-.168-.4.724.724,0,0,0-.488-.146h-.473l-.282,1.411Zm2.129.353a1.527,1.527,0,0,1-.456-.068.957.957,0,0,1-.341-.173l.162-.3a1.008,1.008,0,0,0,.307.163,1.124,1.124,0,0,0,.363.06.714.714,0,0,0,.36-.078.238.238,0,0,0,.134-.213.169.169,0,0,0-.054-.128.422.422,0,0,0-.135-.084q-.081-.032-.225-.074a2.753,2.753,0,0,1-.323-.113.561.561,0,0,1-.212-.163.434.434,0,0,1-.088-.282.564.564,0,0,1,.113-.35.727.727,0,0,1,.316-.232,1.236,1.236,0,0,1,.467-.082,1.535,1.535,0,0,1,.379.046,1.056,1.056,0,0,1,.309.128l-.15.3a.917.917,0,0,0-.259-.118,1.086,1.086,0,0,0-.3-.041.68.68,0,0,0-.363.084.253.253,0,0,0-.134.222.175.175,0,0,0,.056.132.41.41,0,0,0,.135.084q.079.031.232.078a2.776,2.776,0,0,1,.318.109.56.56,0,0,1,.21.156.4.4,0,0,1,.087.268.569.569,0,0,1-.113.353.724.724,0,0,1-.32.232A1.279,1.279,0,0,1-307.068-20.6Zm2.752-1.764H-305l.065-.323h1.746l-.068.323h-.682l-.344,1.735h-.382Zm3,.3a.792.792,0,0,1-.159.5.821.821,0,0,1-.444.284l.368.653h-.406l-.338-.6h-.512l-.118.6h-.385l.412-2.058h.8a.905.905,0,0,1,.578.163A.552.552,0,0,1-301.318-22.07Zm-.97.52a.666.666,0,0,0,.432-.125.438.438,0,0,0,.153-.36.289.289,0,0,0-.113-.248.539.539,0,0,0-.325-.084h-.438l-.165.817Zm2.575.441h-1.035l-.3.476h-.409l1.338-2.058h.379l.512,2.058h-.379Zm-.071-.3-.209-.906-.567.906Zm3.061-1.282-.412,2.058h-.315l-.844-1.441-.288,1.441h-.379l.412-2.058h.315l.847,1.441.285-1.441Zm.817,2.087a1.527,1.527,0,0,1-.456-.068.957.957,0,0,1-.341-.173l.162-.3a1.008,1.008,0,0,0,.307.163,1.124,1.124,0,0,0,.363.06.714.714,0,0,0,.36-.078.238.238,0,0,0,.134-.213.169.169,0,0,0-.054-.128.423.423,0,0,0-.135-.084q-.081-.032-.225-.074a2.753,2.753,0,0,1-.323-.113.561.561,0,0,1-.212-.163.434.434,0,0,1-.088-.282.565.565,0,0,1,.113-.35.727.727,0,0,1,.316-.232,1.236,1.236,0,0,1,.467-.082,1.535,1.535,0,0,1,.379.046,1.056,1.056,0,0,1,.309.128l-.15.3a.918.918,0,0,0-.259-.118,1.086,1.086,0,0,0-.3-.041.68.68,0,0,0-.363.084.253.253,0,0,0-.134.222.175.175,0,0,0,.056.132.41.41,0,0,0,.135.084q.079.031.232.078a2.779,2.779,0,0,1,.318.109.56.56,0,0,1,.21.156.4.4,0,0,1,.087.268.569.569,0,0,1-.113.353.724.724,0,0,1-.32.232A1.279,1.279,0,0,1-295.9-20.6ZM-294-22.37l-.126.626h1l-.065.323h-.994l-.159.788h-.382l.412-2.058h1.5l-.065.32Zm1.87,0-.106.535h1l-.062.315h-1l-.112.567h1.164l-.065.32h-1.543l.412-2.058h1.5l-.065.32Zm3.237.3a.792.792,0,0,1-.159.5.821.821,0,0,1-.444.284l.367.653h-.406l-.338-.6h-.512l-.118.6h-.385l.412-2.058h.8a.905.905,0,0,1,.578.163A.552.552,0,0,1-288.893-22.07Zm-.97.52a.666.666,0,0,0,.432-.125.438.438,0,0,0,.153-.36.289.289,0,0,0-.113-.248.539.539,0,0,0-.325-.084h-.438l-.165.817Z" transform="translate(354.032 37.997)" fill="#6d6e72"/>
        </g>
      </g>
      <g id="Group_21469" data-name="Group 21469" transform="translate(5352.592 525)">
        <g transform="matrix(1, 0, 0, 1, -38, -69)" filter="url(#Path_98157)">
          <path id="Path_98157-2" data-name="Path 98157" d="M7.371,0H71.408a7.371,7.371,0,0,1,7.371,7.371v13.36A7.371,7.371,0,0,1,71.408,28.1H7.371A7.371,7.371,0,0,1,0,20.731V7.371A7.371,7.371,0,0,1,7.371,0Z" transform="translate(38 69)" fill="url(#linear-gradient)"/>
        </g>
        <g id="Group_7963" data-name="Group 7963" transform="translate(15.664 5.989)">
          <path id="Path_7712" data-name="Path 7712" d="M-256.308-138.438a4.676,4.676,0,0,1-.917,2.906,4.892,4.892,0,0,1-2.543,1.713l2.111,3.737h-2.958l-1.9-3.391h-2.387l-.675,3.391h-2.82l2.422-12.11h4.93a5.5,5.5,0,0,1,3.495.986A3.329,3.329,0,0,1-256.308-138.438Zm-5.778,2.733a3.3,3.3,0,0,0,2.171-.64,2.25,2.25,0,0,0,.77-1.834,1.506,1.506,0,0,0-.588-1.3,2.8,2.8,0,0,0-1.678-.433h-2.214l-.848,4.2Zm10.691-4.2h-3.875l.467-2.284h10.553l-.467,2.284h-3.858l-1.972,9.826h-2.8Zm15.5,3.581h2.56l-1,4.982a6.748,6.748,0,0,1-2.128,1.09,8.317,8.317,0,0,1-2.508.381,7.152,7.152,0,0,1-3.166-.657,4.9,4.9,0,0,1-2.085-1.851,5.137,5.137,0,0,1-.735-2.751,7.347,7.347,0,0,1,.951-3.719,6.737,6.737,0,0,1,2.681-2.6,8.181,8.181,0,0,1,3.979-.943,7.689,7.689,0,0,1,3,.536,4.87,4.87,0,0,1,2.05,1.574l-2.007,1.626a3.665,3.665,0,0,0-1.367-1.029,4.622,4.622,0,0,0-1.8-.32,4.761,4.761,0,0,0-2.439.614,4.258,4.258,0,0,0-1.635,1.687,4.976,4.976,0,0,0-.58,2.4,2.849,2.849,0,0,0,.908,2.223,3.751,3.751,0,0,0,2.6.822,4.718,4.718,0,0,0,2.007-.432Zm8.114,6.453a9.843,9.843,0,0,1-2.751-.381,6.661,6.661,0,0,1-2.111-.969l1.142-2.162a6.45,6.45,0,0,0,1.868.934,7.007,7.007,0,0,0,2.128.329,3.741,3.741,0,0,0,1.834-.381,1.156,1.156,0,0,0,.675-1.038.893.893,0,0,0-.536-.822,9.191,9.191,0,0,0-1.713-.614,17.452,17.452,0,0,1-1.92-.666,3.486,3.486,0,0,1-1.289-.96,2.526,2.526,0,0,1-.545-1.7,3.566,3.566,0,0,1,.683-2.162,4.309,4.309,0,0,1,1.938-1.436,7.813,7.813,0,0,1,2.915-.5,9.677,9.677,0,0,1,2.318.268,6.13,6.13,0,0,1,1.868.77l-1.055,2.145a4.97,4.97,0,0,0-1.522-.7,6.613,6.613,0,0,0-1.765-.234,3.658,3.658,0,0,0-1.886.415,1.228,1.228,0,0,0-.692,1.073.865.865,0,0,0,.294.666,2.22,2.22,0,0,0,.744.432q.45.164,1.263.389a14.344,14.344,0,0,1,1.9.631,3.456,3.456,0,0,1,1.272.934,2.4,2.4,0,0,1,.528,1.618,3.525,3.525,0,0,1-.692,2.171,4.45,4.45,0,0,1-1.955,1.436A7.813,7.813,0,0,1-227.781-129.875Z" transform="translate(268.4 142.4)" fill="#6d6e72"/>
          <path id="Path_7713" data-name="Path 7713" d="M-262.635-22.108a.746.746,0,0,1-.149.472.773.773,0,0,1-.418.267l.346.614h-.382l-.318-.567h-.482l-.111.567h-.363l.388-1.938h.753a.852.852,0,0,1,.544.154A.52.52,0,0,1-262.635-22.108Zm-.913.49a.627.627,0,0,0,.407-.118.413.413,0,0,0,.144-.339.273.273,0,0,0-.107-.234.508.508,0,0,0-.306-.079h-.412l-.155.769Zm1.744-.772-.1.5h.938l-.058.3h-.941l-.105.534h1.1l-.061.3h-1.453l.388-1.938h1.414l-.061.3Zm2.535,1.187h-.974l-.28.448h-.385l1.259-1.938h.357l.482,1.938h-.357Zm-.066-.282-.2-.853-.534.853Zm1.163-1.207h.36l-.327,1.633h1.013l-.061.3h-1.373Zm1.331,1.024h.761l-.058.288h-.758Zm1.614-.72h-.642l.061-.3h1.644l-.064.3h-.642l-.324,1.633h-.36Zm1.334-.3h.36l-.388,1.938h-.36Zm3,0-.388,1.938h-.34l.252-1.27-.828,1.049h-.161l-.443-1.074-.257,1.3h-.343l.388-1.938h.293l.512,1.29,1-1.29Zm.819.3-.1.5h.938l-.058.3h-.941l-.105.534h1.1l-.061.3h-1.453l.388-1.938h1.414l-.061.3Zm3.457.645h.34l-.158.781a1.118,1.118,0,0,1-.334.176,1.222,1.222,0,0,1-.389.062,1.126,1.126,0,0,1-.5-.1.77.77,0,0,1-.328-.291.81.81,0,0,1-.115-.433,1.187,1.187,0,0,1,.149-.592,1.082,1.082,0,0,1,.423-.419,1.269,1.269,0,0,1,.631-.154,1.191,1.191,0,0,1,.459.082.773.773,0,0,1,.318.237l-.26.216a.562.562,0,0,0-.224-.166.826.826,0,0,0-.31-.053.842.842,0,0,0-.433.109.76.76,0,0,0-.289.3.866.866,0,0,0-.1.421.5.5,0,0,0,.161.39.666.666,0,0,0,.459.144.8.8,0,0,0,.376-.091Zm2.491-.363a.746.746,0,0,1-.149.472.773.773,0,0,1-.418.267l.346.614h-.382l-.318-.567h-.482l-.111.567H-246l.388-1.938h.753a.852.852,0,0,1,.544.154A.52.52,0,0,1-244.123-22.108Zm-.913.49a.627.627,0,0,0,.407-.118.413.413,0,0,0,.144-.339.272.272,0,0,0-.107-.234.508.508,0,0,0-.306-.079h-.412l-.155.769Zm2.029.891a1.106,1.106,0,0,1-.5-.1.748.748,0,0,1-.32-.291.833.833,0,0,1-.111-.433,1.2,1.2,0,0,1,.148-.592,1.078,1.078,0,0,1,.419-.419,1.236,1.236,0,0,1,.62-.154,1.106,1.106,0,0,1,.5.1.748.748,0,0,1,.32.291.834.834,0,0,1,.111.433,1.2,1.2,0,0,1-.148.592,1.078,1.078,0,0,1-.419.419A1.236,1.236,0,0,1-243.008-20.727Zm.03-.316a.776.776,0,0,0,.417-.112.759.759,0,0,0,.28-.3.886.886,0,0,0,.1-.414.505.505,0,0,0-.156-.389.624.624,0,0,0-.441-.145.776.776,0,0,0-.417.112.749.749,0,0,0-.278.3.9.9,0,0,0-.1.414.508.508,0,0,0,.155.389A.619.619,0,0,0-242.977-21.043Zm1.965.316a1.437,1.437,0,0,1-.429-.064.9.9,0,0,1-.321-.163l.152-.282a.949.949,0,0,0,.289.154,1.059,1.059,0,0,0,.342.057.672.672,0,0,0,.339-.073.224.224,0,0,0,.126-.2.159.159,0,0,0-.051-.12.4.4,0,0,0-.127-.079q-.076-.03-.212-.069a2.594,2.594,0,0,1-.3-.107.528.528,0,0,1-.2-.154.409.409,0,0,1-.083-.266.531.531,0,0,1,.107-.329.685.685,0,0,1,.3-.219,1.164,1.164,0,0,1,.44-.078,1.445,1.445,0,0,1,.357.043.994.994,0,0,1,.291.12l-.141.285a.863.863,0,0,0-.244-.111,1.023,1.023,0,0,0-.282-.039.64.64,0,0,0-.342.079.238.238,0,0,0-.126.209.165.165,0,0,0,.053.125.386.386,0,0,0,.127.079q.075.029.219.073a2.615,2.615,0,0,1,.3.1.527.527,0,0,1,.2.147.378.378,0,0,1,.082.252.536.536,0,0,1-.107.332.682.682,0,0,1-.3.219A1.2,1.2,0,0,1-241.012-20.727Zm1.741,0a1.437,1.437,0,0,1-.429-.064.9.9,0,0,1-.321-.163l.152-.282a.949.949,0,0,0,.289.154,1.058,1.058,0,0,0,.342.057.672.672,0,0,0,.339-.073.224.224,0,0,0,.126-.2.159.159,0,0,0-.051-.12.4.4,0,0,0-.127-.079q-.076-.03-.212-.069a2.592,2.592,0,0,1-.3-.107.528.528,0,0,1-.2-.154.409.409,0,0,1-.083-.266.531.531,0,0,1,.107-.329.685.685,0,0,1,.3-.219,1.163,1.163,0,0,1,.44-.078,1.445,1.445,0,0,1,.357.043.994.994,0,0,1,.291.12l-.141.285a.864.864,0,0,0-.244-.111,1.023,1.023,0,0,0-.282-.039.64.64,0,0,0-.342.079.238.238,0,0,0-.126.209.164.164,0,0,0,.053.125.386.386,0,0,0,.127.079q.075.029.219.073a2.616,2.616,0,0,1,.3.1.527.527,0,0,1,.2.147.377.377,0,0,1,.082.252.536.536,0,0,1-.107.332.682.682,0,0,1-.3.219A1.2,1.2,0,0,1-239.271-20.727Zm2.505,0a1.437,1.437,0,0,1-.429-.064.9.9,0,0,1-.321-.163l.152-.282a.949.949,0,0,0,.289.154,1.058,1.058,0,0,0,.342.057.672.672,0,0,0,.339-.073.224.224,0,0,0,.126-.2.159.159,0,0,0-.051-.12.4.4,0,0,0-.127-.079q-.076-.03-.212-.069a2.591,2.591,0,0,1-.3-.107.528.528,0,0,1-.2-.154.409.409,0,0,1-.083-.266.531.531,0,0,1,.107-.329.684.684,0,0,1,.3-.219,1.163,1.163,0,0,1,.44-.078,1.445,1.445,0,0,1,.357.043.994.994,0,0,1,.291.12l-.141.285a.864.864,0,0,0-.244-.111,1.023,1.023,0,0,0-.282-.039.64.64,0,0,0-.342.079.238.238,0,0,0-.126.209.164.164,0,0,0,.053.125.386.386,0,0,0,.127.079q.075.029.219.073a2.616,2.616,0,0,1,.3.1.527.527,0,0,1,.2.147.377.377,0,0,1,.082.252.536.536,0,0,1-.107.332.682.682,0,0,1-.3.219A1.2,1.2,0,0,1-236.766-20.727Zm1.791-1.664-.1.5h.938l-.058.3h-.941l-.105.534h1.1l-.061.3h-1.453l.387-1.938h1.414l-.061.3Zm1.891,0h-.642l.061-.3h1.644l-.064.3h-.642l-.324,1.633h-.36Zm1.694,0h-.642l.061-.3h1.644l-.064.3h-.642l-.324,1.633h-.36Zm1.334-.3h.36l-.327,1.633h1.013l-.061.3h-1.373Zm1.954.3-.1.5h.938l-.058.3h-.941l-.105.534h1.1l-.061.3h-1.453l.388-1.938h1.414l-.061.3Zm3.679-.3-.388,1.938h-.34l.252-1.27-.828,1.049h-.161l-.443-1.074-.257,1.3h-.343l.388-1.938h.293l.512,1.29,1-1.29Zm.819.3-.1.5h.938l-.058.3h-.941l-.105.534h1.1l-.061.3h-1.453l.388-1.938h1.414l-.061.3Zm3.277-.3-.388,1.938h-.3l-.794-1.356-.271,1.356h-.357l.387-1.938h.3l.8,1.356.268-1.356Zm.855.3h-.642l.061-.3h1.644l-.064.3h-.642l-.324,1.633h-.36Z" transform="translate(264.848 37.31)" fill="#6d6e72"/>
        </g>
      </g>
    </g>
    <g id="Group_21869" data-name="Group 21869" transform="translate(9 26)">
      <g id="Group_21473" data-name="Group 21473" transform="translate(5406 457)">
        <g transform="matrix(1, 0, 0, 1, -98, -9)" filter="url(#Path_98162)">
          <path id="Path_98162-2" data-name="Path 98162" d="M7.371,0H64.959A7.371,7.371,0,0,1,72.33,7.371v12.9a7.371,7.371,0,0,1-7.371,7.371H7.371A7.371,7.371,0,0,1,0,20.271V7.371A7.371,7.371,0,0,1,7.371,0Z" transform="translate(98 9)" fill="url(#linear-gradient)"/>
        </g>
        <g id="Group_12456" data-name="Group 12456" transform="translate(7 4.607)">
          <path id="Path_99842" data-name="Path 99842" d="M.273.26l.807-6.205L4.338-2.211q.175.2.318.387t.265.363q0-.188.018-.4T5-2.386l.448-3.323h.877L5.516.492,2.251-3.238q-.22-.253-.353-.426A4.013,4.013,0,0,1,1.668-4q-.008.277-.082.848l-.012.086L1.15.26Zm6.621,0,.784-5.969h3.351l-.106.844H8.5l-.192,1.5h2.416l-.11.836H8.188L7.939-.6h2.424l-.118.86Zm5.484,0,.677-5.108h-1.61l.114-.86h4.077l-.118.86H14L13.32.26ZM1.309,8.834h.6a4.749,4.749,0,0,0,.61-.029,1.373,1.373,0,0,0,.353-.094.84.84,0,0,0,.379-.342,1.022,1.022,0,0,0,.139-.534.73.73,0,0,0-.292-.66,2.224,2.224,0,0,0-1.115-.192H1.55Zm.567-4.342L1.66,6.171H2a2.322,2.322,0,0,0,1.17-.208.77.77,0,0,0,.322-.7.659.659,0,0,0-.265-.6A2.07,2.07,0,0,0,2.2,4.492ZM.273,9.653l.783-5.969H2.345a4.674,4.674,0,0,1,1.021.08,1.342,1.342,0,0,1,.548.271,1.276,1.276,0,0,1,.347.471,1.518,1.518,0,0,1,.118.605,1.5,1.5,0,0,1-.289.944,1.31,1.31,0,0,1-.811.483,1.467,1.467,0,0,1,.775.479,1.292,1.292,0,0,1,.269.834,1.882,1.882,0,0,1-.186.842,1.6,1.6,0,0,1-.532.618,1.772,1.772,0,0,1-.675.265,8.069,8.069,0,0,1-1.347.077Zm4.048,0L7.779,3.448,9.96,9.653H8.99L8.5,8.243H6.128L5.341,9.653ZM6.5,7.448H8.248L7.787,5.972q-.033-.106-.069-.281t-.09-.461q-.09.212-.177.4t-.173.357ZM10.27,9.653l.807-6.205,3.258,3.735q.175.2.318.387t.265.363q0-.188.018-.4T15,7.007l.448-3.323h.877l-.807,6.2-3.266-3.73q-.22-.253-.353-.426a4.013,4.013,0,0,1-.23-.332q-.008.277-.082.848l-.012.086-.424,3.323Zm6.621,0,.783-5.969h.938l-.318,2.454,2.377-2.454h1.162l-2.8,2.821,2.422,3.147H20.312L18.192,6.84l-.367,2.813Zm5.035,0,.783-5.969h.954l-.8,5.969Zm2.312,0,.807-6.205L28.3,7.183q.175.2.318.387t.265.363q0-.188.018-.4t.059-.528l.448-3.323h.877l-.807,6.2-3.266-3.73Q26,5.9,25.863,5.729a4.013,4.013,0,0,1-.23-.332q-.008.277-.082.848l-.012.086-.424,3.323ZM36.224,5.376a2.625,2.625,0,0,0-.875-.752,2.445,2.445,0,0,0-1.969-.075,2.163,2.163,0,0,0-.736.5,2.63,2.63,0,0,0-.55.84,2.562,2.562,0,0,0-.192.978,2.065,2.065,0,0,0,.571,1.519,2.027,2.027,0,0,0,1.508.577,1.921,1.921,0,0,0,1.252-.414,1.59,1.59,0,0,0,.591-1.082H34.28l.1-.848H36.93a3.26,3.26,0,0,1-.807,2.334,2.874,2.874,0,0,1-2.193.854,2.931,2.931,0,0,1-2.147-.8A2.827,2.827,0,0,1,30.973,6.9a3.633,3.633,0,0,1,.255-1.368,3.039,3.039,0,0,1,.732-1.087,3.154,3.154,0,0,1,1.062-.671,3.588,3.588,0,0,1,1.294-.23,3.322,3.322,0,0,1,1.429.285,3.393,3.393,0,0,1,1.14.925Z" transform="translate(21.499 7.338)" fill="#6d6e72"/>
          <g id="Group_12455" data-name="Group 12455" transform="translate(0 1.393)">
            <g id="Path_66597" data-name="Path 66597" fill="none">
              <path d="M7.915,0A7.915,7.915,0,1,1,0,7.915,7.915,7.915,0,0,1,7.915,0Z" stroke="none"/>
              <path d="M 7.915432453155518 1.000002861022949 C 4.102252006530762 1.000002861022949 1.000002861022949 4.102252006530762 1.000002861022949 7.915432453155518 C 1.000002861022949 11.72861289978027 4.102252006530762 14.83086204528809 7.915432453155518 14.83086204528809 C 11.72861289978027 14.83086204528809 14.83086204528809 11.72861289978027 14.83086204528809 7.915432453155518 C 14.83086204528809 4.102252006530762 11.72861289978027 1.000002861022949 7.915432453155518 1.000002861022949 M 7.915432453155518 2.86102294921875e-06 C 12.28700256347656 2.86102294921875e-06 15.83086204528809 3.543862342834473 15.83086204528809 7.915432453155518 C 15.83086204528809 12.28700256347656 12.28700256347656 15.83086204528809 7.915432453155518 15.83086204528809 C 3.543862342834473 15.83086204528809 2.86102294921875e-06 12.28700256347656 2.86102294921875e-06 7.915432453155518 C 2.86102294921875e-06 3.543862342834473 3.543862342834473 2.86102294921875e-06 7.915432453155518 2.86102294921875e-06 Z" stroke="none" fill="#ec691f"/>
            </g>
            <g id="Path_66598" data-name="Path 66598" transform="translate(3.275)" fill="none">
              <path d="M4.367,0C6.779,0,8.734,3.544,8.734,7.915s-1.955,7.915-4.367,7.915S0,12.287,0,7.915,1.955,0,4.367,0Z" stroke="none"/>
              <path d="M 4.367135047912598 1.000002861022949 C 2.774525165557861 1.000002861022949 0.999995231628418 3.840062141418457 0.999995231628418 7.915432453155518 C 0.999995231628418 11.99080276489258 2.774525165557861 14.83086204528809 4.367135047912598 14.83086204528809 C 5.959734916687012 14.83086204528809 7.734265327453613 11.99080276489258 7.734265327453613 7.915432453155518 C 7.734265327453613 3.840062141418457 5.959734916687012 1.000002861022949 4.367135047912598 1.000002861022949 M 4.367135047912598 2.86102294921875e-06 C 6.779035091400146 2.86102294921875e-06 8.734265327453613 3.543862342834473 8.734265327453613 7.915432453155518 C 8.734265327453613 12.28700256347656 6.779035091400146 15.83086204528809 4.367135047912598 15.83086204528809 C 1.955235004425049 15.83086204528809 -4.76837158203125e-06 12.28700256347656 -4.76837158203125e-06 7.915432453155518 C -4.76837158203125e-06 3.543862342834473 1.955235004425049 2.86102294921875e-06 4.367135047912598 2.86102294921875e-06 Z" stroke="none" fill="#0d1b3a"/>
            </g>
            <path id="Path_66595" data-name="Path 66595" d="M-1357,578.719V594" transform="translate(1364.831 -578.42)" fill="none" stroke="#ec691f" stroke-width="1"/>
            <path id="Path_66596" data-name="Path 66596" d="M0,0V15.282" transform="translate(15.472 7.94) rotate(90)" fill="none" stroke="#ec691f" stroke-width="1"/>
          </g>
        </g>
      </g>
      <g id="Group_21474" data-name="Group 21474" transform="translate(5516.159 457)">
        <g transform="matrix(1, 0, 0, 1, -208.16, -9)" filter="url(#Path_98161)">
          <path id="Path_98161-2" data-name="Path 98161" d="M7.371,0H71.408a7.371,7.371,0,0,1,7.371,7.371V19.81a7.371,7.371,0,0,1-7.371,7.371H7.371A7.371,7.371,0,0,1,0,19.81V7.371A7.371,7.371,0,0,1,7.371,0Z" transform="translate(208.16 9)" fill="url(#linear-gradient)"/>
        </g>
        <g id="Group_12461" data-name="Group 12461" transform="translate(17.967 5.528)">
          <g id="Group_12459" data-name="Group 12459" transform="translate(0 0)">
            <g id="Group_12458" data-name="Group 12458" transform="translate(34.904 0.019)">
              <path id="Path_66604" data-name="Path 66604" d="M96.978,35.72l2.958,5.887L93.71,47.494l.741-2.667,3.4-3.219-1.617-3.219Z" transform="translate(-91.628 -35.72)" fill="#0e8635" fill-rule="evenodd"/>
              <path id="Path_66605" data-name="Path 66605" d="M92.678,35.72l2.958,5.887L89.41,47.494Z" transform="translate(-89.41 -35.72)" fill="#e97208" fill-rule="evenodd"/>
            </g>
            <path id="Path_66603" data-name="Path 66603" d="M49.753,47.425H47.41L50.664,35.68H53L49.753,47.425ZM30.3,46.689a1.078,1.078,0,0,1-1.036.789H17.2a.847.847,0,0,1-.736-.334.923.923,0,0,1-.1-.833l2.943-10.6h2.343l-2.629,9.469h9.363l2.629-9.469h2.338L30.3,46.689ZM48.538,36.048a.863.863,0,0,0-.75-.334H34.925l-.634,2.3h11.7l-.683,2.459H35.946v0H33.608l-1.941,7.01h2.338l1.3-4.7h10.52a1.5,1.5,0,0,0,.93-.334,1.559,1.559,0,0,0,.571-.833l1.3-4.7a.983.983,0,0,0-.092-.867Z" transform="translate(-16.311 -35.68)" fill="#66686c" fill-rule="evenodd"/>
          </g>
          <path id="Path_66617" data-name="Path 66617" d="M1.366-10.342,1.2-9.107q-.01.068-.015.124t0,.1a.4.4,0,0,0,.116.312.472.472,0,0,0,.334.108.658.658,0,0,0,.277-.054.508.508,0,0,0,.2-.164A1.15,1.15,0,0,0,2.262-9.2l.009-.062.142-1.082h.333l-.157,1.2A2.385,2.385,0,0,1,2.5-8.7a.782.782,0,0,1-.134.24.783.783,0,0,1-.32.231,1.19,1.19,0,0,1-.447.078.775.775,0,0,1-.553-.18.684.684,0,0,1-.19-.521q0-.076.012-.211T.9-9.37l.128-.972ZM2.923-8.215l.288-2.211L4.371-9.1q.062.073.113.138t.094.129q0-.067.007-.142t.021-.188l.16-1.184h.312L4.791-8.132,3.627-9.461q-.078-.09-.126-.152a1.43,1.43,0,0,1-.082-.118q0,.1-.029.3l0,.031L3.235-8.215Zm2.362,0,.279-2.126H5.9L5.62-8.215Zm.824,0,.279-2.126H7.58l-.038.3H6.679l-.068.535h.86l-.039.3H6.569l-.128.994Zm1.595,0,.279-2.126h.34L8.039-8.215Zm.824,0,.279-2.126H10l-.038.3H9.1l-.068.535H9.89l-.039.3H8.987L8.9-8.522h.864l-.042.306Zm1.99-.3h.122a2.651,2.651,0,0,0,.508-.033.7.7,0,0,0,.259-.112.7.7,0,0,0,.228-.283.922.922,0,0,0,.081-.389.8.8,0,0,0-.065-.329.606.606,0,0,0-.187-.239.584.584,0,0,0-.214-.1,1.756,1.756,0,0,0-.391-.031h-.142Zm-.372.3.279-2.126h.452a2.252,2.252,0,0,1,.523.044.866.866,0,0,1,.308.149.849.849,0,0,1,.263.336,1.122,1.122,0,0,1,.092.461,1.288,1.288,0,0,1-.072.43,1.077,1.077,0,0,1-.206.357.957.957,0,0,1-.213.184.973.973,0,0,1-.258.114,1.284,1.284,0,0,1-.2.038,2.314,2.314,0,0,1-.262.012h-.707Zm3.528-1.211h.112a.848.848,0,0,0,.428-.075.285.285,0,0,0,.114-.258.238.238,0,0,0-.1-.216.748.748,0,0,0-.37-.062h-.107Zm-.158,1.211h-.333l.279-2.126h.44a1.621,1.621,0,0,1,.366.029.526.526,0,0,1,.2.1.5.5,0,0,1,.147.188.606.606,0,0,1,.051.252.706.706,0,0,1-.059.294.568.568,0,0,1-.171.217.586.586,0,0,1-.225.107,1.814,1.814,0,0,1-.4.032h-.176Zm1.034,0,1.232-2.211.777,2.211h-.346l-.173-.5h-.847l-.28.5ZM15.326-9h.622l-.164-.526q-.012-.038-.025-.1t-.032-.164q-.032.076-.063.143t-.062.127Zm1.315-1.341H17l.354.713q.016.029.055.128l.025.06q.022-.039.051-.085t.074-.111l.485-.7h.381l-.851,1.181-.125.946h-.336l.128-.957ZM20.4-9.3v-.051q0-.064,0-.123t.009-.121a.732.732,0,0,1-.052.119q-.033.061-.1.154L19.5-8.129l-.44-1.187q-.016-.041-.035-.1t-.051-.174a1.5,1.5,0,0,1-.061.282V-9.3l-.32,1.089h-.338l.7-2.217.516,1.377q.039.1.063.175t.043.145q.038-.083.082-.164t.1-.161l.9-1.371.1,2.217h-.33Zm.645,1.082.279-2.126h1.194l-.038.3h-.864l-.068.535h.861l-.039.3h-.864l-.089.687h.864l-.042.306Zm1.618,0,.288-2.211L24.112-9.1q.062.073.113.138t.094.129q0-.067.007-.142t.021-.188l.16-1.184h.312l-.288,2.209L23.368-9.461q-.078-.09-.126-.152a1.43,1.43,0,0,1-.082-.118q0,.1-.029.3l0,.031-.151,1.184Zm2.694,0,.241-1.82h-.574l.041-.306h1.452l-.042.306h-.542l-.241,1.82Zm1.05-.366.234-.193a.724.724,0,0,0,.187.252.373.373,0,0,0,.235.078.381.381,0,0,0,.273-.1.338.338,0,0,0,.1-.257.319.319,0,0,0-.055-.19.621.621,0,0,0-.195-.159L27.107-9.2a1.336,1.336,0,0,1-.321-.224.432.432,0,0,1-.089-.151.563.563,0,0,1-.03-.186.611.611,0,0,1,.18-.457.644.644,0,0,1,.471-.176.71.71,0,0,1,.344.08.64.64,0,0,1,.243.238l-.2.187a.532.532,0,0,0-.158-.173.35.35,0,0,0-.195-.057.356.356,0,0,0-.254.092.31.31,0,0,0-.1.237q0,.174.28.325.07.036.106.058a.9.9,0,0,1,.3.259.581.581,0,0,1,.089.329.618.618,0,0,1-.195.48.754.754,0,0,1-.529.178.694.694,0,0,1-.387-.1A.725.725,0,0,1,26.408-8.581Zm2.555.366.279-2.126h.34L29.3-8.215Zm.824,0,.288-2.211L31.235-9.1q.062.073.113.138t.094.129q0-.067.007-.142t.021-.188l.16-1.184h.312l-.288,2.209L30.491-9.461q-.078-.09-.126-.152a1.429,1.429,0,0,1-.082-.118q0,.1-.029.3l0,.031L30.1-8.215Zm2.694,0,.241-1.82h-.574l.041-.306h1.452l-.042.306h-.542l-.241,1.82Zm1.178,0,.279-2.126h1.194l-.038.3H34.23l-.068.535h.861l-.039.3H34.12l-.089.687h.864l-.042.306Zm1.948,0h-.33l.279-2.126h.383a1.621,1.621,0,0,1,.366.029.526.526,0,0,1,.2.1.5.5,0,0,1,.149.189.6.6,0,0,1,.052.251.63.63,0,0,1-.144.428.654.654,0,0,1-.407.208l.588.922h-.375l-.562-.911h-.077ZM35.761-9.4h.067a.81.81,0,0,0,.427-.078.305.305,0,0,0,.113-.27.257.257,0,0,0-.1-.228.718.718,0,0,0-.371-.065h-.054Zm1.177,1.181.279-2.126h1.192l-.038.3h-.863l-.068.535h.86l-.039.3H37.4l-.128.994Zm1.326,0L39.5-10.426l.777,2.211h-.346l-.173-.5h-.847l-.28.5ZM39.041-9h.622L39.5-9.527q-.012-.038-.025-.1t-.032-.164q-.032.076-.063.143t-.062.127Zm3.182-1.2-.054.363a.833.833,0,0,0-.268-.192.776.776,0,0,0-.314-.063.853.853,0,0,0-.323.06.7.7,0,0,0-.253.174.929.929,0,0,0-.19.3.987.987,0,0,0-.066.357.733.733,0,0,0,.2.535.7.7,0,0,0,.521.206.869.869,0,0,0,.307-.055,1.062,1.062,0,0,0,.285-.164l-.074.407a1.794,1.794,0,0,1-.279.085,1.24,1.24,0,0,1-.257.028,1.017,1.017,0,0,1-.75-.284,1.006,1.006,0,0,1-.285-.746,1.312,1.312,0,0,1,.091-.486,1.152,1.152,0,0,1,.258-.4,1.065,1.065,0,0,1,.356-.237,1.132,1.132,0,0,1,.43-.081,1.368,1.368,0,0,1,.371.046A.915.915,0,0,1,42.223-10.2Zm.155,1.987.279-2.126h1.194l-.038.3H42.95l-.068.535h.861l-.039.3h-.864l-.089.687h.864l-.042.306Z" transform="translate(-0.673 24.432)" fill="#66686c"/>
        </g>
      </g>
    </g>
    <g id="Group_21871" data-name="Group 21871">
      <g id="Group_21470" data-name="Group 21470" transform="translate(5607 603)">
        <g transform="matrix(1, 0, 0, 1, -290, -129)" filter="url(#Path_98156)">
          <path id="Path_98156-2" data-name="Path 98156" d="M8.212,0H87.763c4.535,0,8.212,3.288,8.212,7.344V20.656C95.975,24.712,92.3,28,87.763,28H8.212C3.677,28,0,24.712,0,20.656V7.344C0,3.288,3.677,0,8.212,0Z" transform="translate(290 129)" fill="url(#linear-gradient)"/>
        </g>
        <g id="Group_12453" data-name="Group 12453" transform="translate(7 4.579)">
          <g id="Group_12452" data-name="Group 12452" transform="translate(0 1.422)">
            <g id="Path_7704" data-name="Path 7704" transform="matrix(0.966, 0.259, -0.259, 0.966, 3.095, 0)" fill="#ff975d">
              <path d="M 18.06112289428711 11.45939636230469 L 0.8542435765266418 11.45939636230469 C 0.6589135527610779 11.45939636230469 0.5000035762786865 11.30047607421875 0.5000035762786865 11.10514640808105 L 0.5000035762786865 0.8542462587356567 C 0.5000035762786865 0.6589162945747375 0.6589135527610779 0.4999962747097015 0.8542435765266418 0.4999962747097015 L 18.06112289428711 0.4999962747097015 C 18.25645446777344 0.4999962747097015 18.41536331176758 0.6589162945747375 18.41536331176758 0.8542462587356567 L 18.41536331176758 11.10514640808105 C 18.41536331176758 11.30047607421875 18.25645446777344 11.45939636230469 18.06112289428711 11.45939636230469 Z" stroke="none"/>
              <path d="M 1.000003814697266 0.9999961853027344 L 1.000003814697266 10.95939636230469 L 17.91536331176758 10.95939636230469 L 17.91536331176758 0.9999961853027344 L 1.000003814697266 0.9999961853027344 M 0.8542442321777344 -3.814697265625e-06 L 18.06112289428711 -3.814697265625e-06 C 18.53291320800781 -3.814697265625e-06 18.91536331176758 0.3824558258056641 18.91536331176758 0.8542461395263672 L 18.91536331176758 11.10514640808105 C 18.91536331176758 11.57693672180176 18.53291320800781 11.95939636230469 18.06112289428711 11.95939636230469 L 0.8542442321777344 11.95939636230469 C 0.3824539184570313 11.95939636230469 3.814697265625e-06 11.57693672180176 3.814697265625e-06 11.10514640808105 L 3.814697265625e-06 0.8542461395263672 C 3.814697265625e-06 0.3824558258056641 0.3824539184570313 -3.814697265625e-06 0.8542442321777344 -3.814697265625e-06 Z" stroke="none" fill="#ec691f"/>
            </g>
            <path id="Path_7705" data-name="Path 7705" d="M0,0H18.915V2.319H0Z" transform="matrix(0.966, 0.259, -0.259, 0.966, 2.558, 2.004)" fill="#ec691f"/>
            <g id="Path_7706" data-name="Path 7706" transform="matrix(0.966, 0.259, -0.259, 0.966, 3.261, 5.982)" fill="#fff">
              <path d="M 3.161039113998413 1.452556967735291 L 0.499999076128006 1.452556967735291 L 0.499999076128006 0.4999969303607941 L 3.161039113998413 0.4999969303607941 L 3.161039113998413 1.452556967735291 Z" stroke="none"/>
              <path d="M 0.3660991191864014 -3.099441528320313e-06 L 3.294939041137695 -3.099441528320313e-06 C 3.497128963470459 -3.099441528320313e-06 3.661039113998413 0.1639069318771362 3.661039113998413 0.3661069869995117 L 3.661039113998413 1.58644700050354 C 3.661039113998413 1.788646936416626 3.497128963470459 1.952556967735291 3.294939041137695 1.952556967735291 L 0.3660991191864014 1.952556967735291 C 0.1639091968536377 1.952556967735291 -9.5367431640625e-07 1.788646936416626 -9.5367431640625e-07 1.58644700050354 L -9.5367431640625e-07 0.3661069869995117 C -9.5367431640625e-07 0.1639069318771362 0.1639091968536377 -3.099441528320313e-06 0.3660991191864014 -3.099441528320313e-06 Z" stroke="none" fill="#707070"/>
            </g>
            <g id="Path_7707" data-name="Path 7707" transform="translate(1.225 2.732)" fill="#e9f6f9">
              <path d="M 18.06112289428711 11.45939636230469 L 0.8542435765266418 11.45939636230469 C 0.6589135527610779 11.45939636230469 0.5000035762786865 11.30047607421875 0.5000035762786865 11.10514640808105 L 0.5000035762786865 0.8542462587356567 C 0.5000035762786865 0.6589162945747375 0.6589135527610779 0.4999962747097015 0.8542435765266418 0.4999962747097015 L 18.06112289428711 0.4999962747097015 C 18.25645446777344 0.4999962747097015 18.41536331176758 0.6589162945747375 18.41536331176758 0.8542462587356567 L 18.41536331176758 11.10514640808105 C 18.41536331176758 11.30047607421875 18.25645446777344 11.45939636230469 18.06112289428711 11.45939636230469 Z" stroke="none"/>
              <path d="M 1.000003814697266 0.9999961853027344 L 1.000003814697266 10.95939636230469 L 17.91536331176758 10.95939636230469 L 17.91536331176758 0.9999961853027344 L 1.000003814697266 0.9999961853027344 M 0.8542442321777344 -3.814697265625e-06 L 18.06112289428711 -3.814697265625e-06 C 18.53291320800781 -3.814697265625e-06 18.91536331176758 0.3824558258056641 18.91536331176758 0.8542461395263672 L 18.91536331176758 11.10514640808105 C 18.91536331176758 11.57693672180176 18.53291320800781 11.95939636230469 18.06112289428711 11.95939636230469 L 0.8542442321777344 11.95939636230469 C 0.3824539184570313 11.95939636230469 3.814697265625e-06 11.57693672180176 3.814697265625e-06 11.10514640808105 L 3.814697265625e-06 0.8542461395263672 C 3.814697265625e-06 0.3824558258056641 0.3824539184570313 -3.814697265625e-06 0.8542442321777344 -3.814697265625e-06 Z" stroke="none" fill="#1a3a81"/>
            </g>
            <path id="Path_7708" data-name="Path 7708" d="M0,0H18.915V2.319H0Z" transform="translate(1.225 4.807)" fill="#1a3a81"/>
            <g id="Path_7709" data-name="Path 7709" transform="translate(2.934 8.468)" fill="none">
              <path d="M.366,0H3.295a.366.366,0,0,1,.366.366v1.22a.366.366,0,0,1-.366.366H.366A.366.366,0,0,1,0,1.586V.366A.366.366,0,0,1,.366,0Z" stroke="none"/>
              <path d="M 0.3660991191864014 -3.099441528320313e-06 L 3.294939041137695 -3.099441528320313e-06 C 3.497128963470459 -3.099441528320313e-06 3.661039113998413 0.1639069318771362 3.661039113998413 0.3661069869995117 L 3.661039113998413 1.58644700050354 C 3.661039113998413 1.788646936416626 3.497128963470459 1.952556967735291 3.294939041137695 1.952556967735291 L 0.3660991191864014 1.952556967735291 C 0.1639091968536377 1.952556967735291 -9.5367431640625e-07 1.788646936416626 -9.5367431640625e-07 1.58644700050354 L -9.5367431640625e-07 0.3661069869995117 C -9.5367431640625e-07 0.1639069318771362 0.1639091968536377 -3.099441528320313e-06 0.3660991191864014 -3.099441528320313e-06 Z" stroke="none" fill="#1a3a81"/>
            </g>
          </g>
          <path id="Path_99843" data-name="Path 99843" d="M5.875-6.012l-.163,1.1A2.519,2.519,0,0,0,4.9-5.5a2.349,2.349,0,0,0-.951-.191,2.581,2.581,0,0,0-.978.182,2.1,2.1,0,0,0-.767.525,2.811,2.811,0,0,0-.573.921,2.985,2.985,0,0,0-.2,1.079,2.218,2.218,0,0,0,.609,1.617,2.1,2.1,0,0,0,1.575.624,2.629,2.629,0,0,0,.929-.167,3.214,3.214,0,0,0,.864-.5L5.186-.171a5.426,5.426,0,0,1-.844.257,3.75,3.75,0,0,1-.778.086,3.078,3.078,0,0,1-2.27-.859A3.043,3.043,0,0,1,.431-2.944a3.971,3.971,0,0,1,.275-1.47,3.486,3.486,0,0,1,.78-1.2,3.223,3.223,0,0,1,1.077-.716,3.426,3.426,0,0,1,1.3-.246,4.138,4.138,0,0,1,1.123.141A2.767,2.767,0,0,1,5.875-6.012ZM7.424,0h-1L7.27-6.434h1.16a4.9,4.9,0,0,1,1.107.088,1.593,1.593,0,0,1,.6.3,1.5,1.5,0,0,1,.45.571,1.814,1.814,0,0,1,.156.76,1.906,1.906,0,0,1-.435,1.3,1.979,1.979,0,0,1-1.23.628L10.861,0H9.727l-1.7-2.755H7.793ZM7.89-3.573h.2A2.451,2.451,0,0,0,9.384-3.81a.923.923,0,0,0,.343-.817.777.777,0,0,0-.288-.69,2.174,2.174,0,0,0-1.123-.2H8.154ZM11.531,0l.845-6.434h3.611l-.114.91H13.259l-.207,1.617h2.6l-.119.9H12.925L12.657-.927H15.27L15.142,0Zm6.1-.918H18a8.022,8.022,0,0,0,1.538-.1,2.108,2.108,0,0,0,.782-.338,2.129,2.129,0,0,0,.69-.857,2.789,2.789,0,0,0,.246-1.178,2.41,2.41,0,0,0-.2-1,1.834,1.834,0,0,0-.567-.723,1.766,1.766,0,0,0-.646-.312,5.312,5.312,0,0,0-1.182-.092h-.431ZM16.507,0l.844-6.434h1.367A6.812,6.812,0,0,1,20.3-6.3a2.621,2.621,0,0,1,.932.45,2.569,2.569,0,0,1,.8,1.017,3.394,3.394,0,0,1,.277,1.4,3.9,3.9,0,0,1-.218,1.3,3.259,3.259,0,0,1-.622,1.081A2.9,2.9,0,0,1,20.82-.5a2.943,2.943,0,0,1-.78.345,3.885,3.885,0,0,1-.6.116A7,7,0,0,1,18.647,0h-2.14Zm6.624,0,.844-6.434H25L24.147,0Zm3.588,0,.729-5.506H25.713l.123-.927h4.395l-.127.927H28.464L27.735,0Zm3.337.835,3.437-7.414h.729L30.786.835Zm5.68-1.753h.369a8.022,8.022,0,0,0,1.538-.1,2.108,2.108,0,0,0,.782-.338,2.129,2.129,0,0,0,.69-.857,2.789,2.789,0,0,0,.246-1.178,2.41,2.41,0,0,0-.2-1,1.834,1.834,0,0,0-.567-.723,1.766,1.766,0,0,0-.646-.312,5.312,5.312,0,0,0-1.182-.092h-.431ZM34.611,0l.844-6.434h1.367A6.812,6.812,0,0,1,38.4-6.3a2.621,2.621,0,0,1,.932.45,2.569,2.569,0,0,1,.8,1.017,3.394,3.394,0,0,1,.277,1.4,3.9,3.9,0,0,1-.218,1.3,3.259,3.259,0,0,1-.622,1.081,2.9,2.9,0,0,1-.644.556,2.943,2.943,0,0,1-.78.345,3.885,3.885,0,0,1-.6.116A7,7,0,0,1,36.752,0h-2.14Zm6.616,0,.845-6.434h3.611l-.114.91H42.956l-.207,1.617h2.6l-.119.9H42.622L42.353-.927h2.613L44.839,0ZM47.32-.883h.646a5.119,5.119,0,0,0,.657-.031,1.48,1.48,0,0,0,.38-.1.906.906,0,0,0,.409-.369,1.1,1.1,0,0,0,.149-.576.787.787,0,0,0-.314-.712,2.4,2.4,0,0,0-1.2-.207h-.466Zm.611-4.68L47.7-3.753h.369a2.5,2.5,0,0,0,1.261-.224.83.83,0,0,0,.347-.756.71.71,0,0,0-.286-.644,2.232,2.232,0,0,0-1.107-.187ZM46.2,0l.844-6.434h1.389a5.038,5.038,0,0,1,1.1.086,1.447,1.447,0,0,1,.591.292,1.375,1.375,0,0,1,.374.508,1.636,1.636,0,0,1,.127.653,1.622,1.622,0,0,1-.312,1.017,1.412,1.412,0,0,1-.875.521,1.581,1.581,0,0,1,.835.516,1.393,1.393,0,0,1,.29.9,2.028,2.028,0,0,1-.2.907,1.725,1.725,0,0,1-.573.666,1.91,1.91,0,0,1-.727.286A8.7,8.7,0,0,1,47.614,0Zm5.258,0,.844-6.434h1.028L52.477,0Zm3.588,0,.729-5.506H54.043l.123-.927H58.56l-.127.927H56.794L56.064,0ZM5.875,3.988l-.163,1.1A2.519,2.519,0,0,0,4.9,4.5a2.349,2.349,0,0,0-.951-.191,2.581,2.581,0,0,0-.978.182,2.1,2.1,0,0,0-.767.525,2.811,2.811,0,0,0-.573.921,2.985,2.985,0,0,0-.2,1.079,2.218,2.218,0,0,0,.609,1.617,2.1,2.1,0,0,0,1.575.624,2.629,2.629,0,0,0,.929-.167,3.214,3.214,0,0,0,.864-.5l-.224,1.23a5.426,5.426,0,0,1-.844.257,3.75,3.75,0,0,1-.778.086,3.078,3.078,0,0,1-2.27-.859A3.043,3.043,0,0,1,.431,7.056a3.971,3.971,0,0,1,.275-1.47,3.486,3.486,0,0,1,.78-1.2,3.223,3.223,0,0,1,1.077-.716,3.426,3.426,0,0,1,1.3-.246,4.138,4.138,0,0,1,1.123.141A2.767,2.767,0,0,1,5.875,3.988ZM5.623,10,9.349,3.312,11.7,10H10.654l-.523-1.521H7.569L6.721,10ZM7.974,7.623H9.854l-.5-1.591q-.035-.114-.075-.3t-.1-.5q-.1.229-.191.433t-.187.385ZM13.113,10h-1l.844-6.434h1.16a4.9,4.9,0,0,1,1.107.088,1.593,1.593,0,0,1,.6.3,1.5,1.5,0,0,1,.45.571,1.814,1.814,0,0,1,.156.76A1.906,1.906,0,0,1,16,6.581a1.979,1.979,0,0,1-1.23.628L16.549,10H15.415l-1.7-2.755h-.233Zm.466-3.573h.2a2.451,2.451,0,0,0,1.292-.237.923.923,0,0,0,.343-.817.777.777,0,0,0-.288-.69A2.174,2.174,0,0,0,14,4.485h-.163Zm4.766,2.654h.369a8.022,8.022,0,0,0,1.538-.1,2.035,2.035,0,0,0,1.472-1.2,2.789,2.789,0,0,0,.246-1.178,2.41,2.41,0,0,0-.2-1,1.834,1.834,0,0,0-.567-.723,1.766,1.766,0,0,0-.646-.312,5.312,5.312,0,0,0-1.182-.092h-.431ZM17.219,10l.844-6.434H19.43a6.812,6.812,0,0,1,1.582.134,2.621,2.621,0,0,1,.932.45,2.569,2.569,0,0,1,.8,1.017,3.394,3.394,0,0,1,.277,1.4,3.9,3.9,0,0,1-.218,1.3,3.259,3.259,0,0,1-.622,1.081,2.9,2.9,0,0,1-.644.556,2.943,2.943,0,0,1-.78.345,3.885,3.885,0,0,1-.6.116,7,7,0,0,1-.793.037h-2.14Zm6.229-1.107.708-.584a2.189,2.189,0,0,0,.567.762,1.128,1.128,0,0,0,.712.235,1.154,1.154,0,0,0,.826-.3,1.021,1.021,0,0,0,.316-.778.965.965,0,0,0-.167-.573,1.878,1.878,0,0,0-.589-.481q-.088-.053-.259-.149a4.041,4.041,0,0,1-.971-.677,1.308,1.308,0,0,1-.27-.457,1.7,1.7,0,0,1-.09-.562,1.85,1.85,0,0,1,.545-1.382A1.947,1.947,0,0,1,26.2,3.413a2.148,2.148,0,0,1,1.039.242,1.937,1.937,0,0,1,.736.721l-.615.567a1.61,1.61,0,0,0-.479-.523,1.057,1.057,0,0,0-.589-.171,1.077,1.077,0,0,0-.769.277.939.939,0,0,0-.294.716q0,.527.848.984.211.11.321.176a2.727,2.727,0,0,1,.921.784,1.758,1.758,0,0,1,.27,1A1.871,1.871,0,0,1,27,9.633a2.28,2.28,0,0,1-1.6.538,2.1,2.1,0,0,1-1.171-.316A2.194,2.194,0,0,1,23.448,8.893Z" transform="translate(23.44 8)" fill="#6d6e72"/>
        </g>
      </g>
      <g id="Group_21472" data-name="Group 21472" transform="translate(5326 603)">
        <g transform="matrix(1, 0, 0, 1, -9, -129)" filter="url(#Path_98164)">
          <path id="Path_98164-2" data-name="Path 98164" d="M7.371,0H70.948a7.371,7.371,0,0,1,7.371,7.371v12.9a7.371,7.371,0,0,1-7.371,7.371H7.371A7.371,7.371,0,0,1,0,20.271V7.371A7.371,7.371,0,0,1,7.371,0Z" transform="translate(9 129)" fill="url(#linear-gradient)"/>
        </g>
        <g id="Group_12464" data-name="Group 12464" transform="translate(11.057 6.45)">
          <path id="Path_66618" data-name="Path 66618" d="M-116.511-7.937l.314-2.394h.383l-.319,2.394Zm3.532-1.218v-.057q0-.072,0-.139t.01-.136a.825.825,0,0,1-.058.134q-.037.069-.107.173l-.863,1.339-.5-1.336q-.018-.046-.039-.115t-.057-.2a1.689,1.689,0,0,1-.069.317l0,.007-.36,1.226h-.381l.786-2.5.58,1.55q.044.114.071.2t.048.163q.043-.093.092-.185t.109-.181l1.009-1.543.11,2.5h-.371Zm3.331,0v-.057q0-.072,0-.139t.01-.136a.825.825,0,0,1-.058.134q-.037.069-.107.173l-.863,1.339-.5-1.336q-.018-.046-.039-.115t-.057-.2a1.689,1.689,0,0,1-.069.317l0,.007-.36,1.226h-.381l.786-2.5.58,1.55q.044.114.071.2t.048.163q.043-.093.092-.185t.109-.181l1.009-1.543.11,2.5h-.371Zm1.1,1.218.314-2.394h1.344l-.043.338h-.972l-.077.6h.969l-.044.335h-.972l-.1.773h.972l-.047.345Zm2.612-.342h.137a2.985,2.985,0,0,0,.572-.038.784.784,0,0,0,.291-.126.792.792,0,0,0,.257-.319,1.038,1.038,0,0,0,.092-.438.9.9,0,0,0-.074-.37.682.682,0,0,0-.211-.269.657.657,0,0,0-.24-.116,1.976,1.976,0,0,0-.44-.034h-.16Zm-.419.342.314-2.394h.508a2.534,2.534,0,0,1,.589.05.975.975,0,0,1,.347.168.956.956,0,0,1,.3.379,1.263,1.263,0,0,1,.1.519,1.45,1.45,0,0,1-.081.484,1.213,1.213,0,0,1-.231.4,1.078,1.078,0,0,1-.24.207,1.1,1.1,0,0,1-.29.128,1.446,1.446,0,0,1-.223.043,2.6,2.6,0,0,1-.3.014h-.8Zm2.806,0,.314-2.394h.383l-.319,2.394Zm1,0,1.387-2.489.875,2.489h-.389l-.195-.566h-.953l-.316.566Zm.875-.885h.7l-.185-.592q-.013-.043-.028-.113t-.036-.185q-.036.085-.071.161t-.069.143Zm2.26.885.271-2.049h-.646l.046-.345h1.635l-.047.345h-.61l-.271,2.049Zm1.7,0,.314-2.394h1.344l-.043.338h-.972l-.077.6h.969l-.044.335H-97.2l-.1.773h.972l-.047.345ZM-93.614-9.3h.126a.955.955,0,0,0,.482-.084.321.321,0,0,0,.128-.29.268.268,0,0,0-.108-.244.842.842,0,0,0-.417-.07h-.121Zm-.178,1.364h-.374l.314-2.394h.5a1.824,1.824,0,0,1,.412.033.592.592,0,0,1,.224.111.558.558,0,0,1,.165.212.682.682,0,0,1,.057.284.8.8,0,0,1-.066.331.64.64,0,0,1-.192.244.659.659,0,0,1-.253.121,2.042,2.042,0,0,1-.45.036h-.2Zm1.536,0,1.387-2.489.875,2.489h-.389l-.195-.566h-.953l-.316.566Zm.875-.885h.7l-.185-.592q-.013-.043-.028-.113t-.036-.185q-.036.085-.071.161t-.069.143Zm1.851-1.509h.405l.4.8q.018.033.062.144l.028.067q.025-.044.057-.1t.083-.125l.546-.793h.428L-88.479-9l-.141,1.064H-89l.144-1.077Zm4.6,1.176v-.057q0-.072,0-.139t.01-.136a.825.825,0,0,1-.058.134q-.037.069-.107.173l-.863,1.339-.5-1.336q-.018-.046-.039-.115t-.057-.2a1.69,1.69,0,0,1-.069.317l0,.007-.36,1.226h-.381l.786-2.5.58,1.55q.044.114.071.2t.048.163q.043-.093.092-.185t.109-.181l1.009-1.543.11,2.5h-.371Zm1.1,1.218.314-2.394h1.344l-.043.338h-.972l-.077.6h.969l-.044.335h-.972l-.1.773h.972l-.047.345Zm2.193,0,.324-2.489L-80-8.927q.07.082.128.155t.106.146q0-.075.007-.159T-79.74-9l.18-1.333h.352l-.324,2.487-1.31-1.5q-.088-.1-.141-.171a1.608,1.608,0,0,1-.092-.133q0,.111-.033.34l0,.034-.17,1.333Zm3.4,0,.271-2.049H-78.6l.046-.345h1.635l-.047.345h-.61l-.271,2.049Zm2.913-.412.263-.217a.814.814,0,0,0,.211.284.42.42,0,0,0,.265.087.429.429,0,0,0,.307-.111.38.38,0,0,0,.118-.289.359.359,0,0,0-.062-.213.7.7,0,0,0-.219-.179l-.1-.056a1.5,1.5,0,0,1-.361-.252.487.487,0,0,1-.1-.17.633.633,0,0,1-.034-.209.688.688,0,0,1,.2-.514.725.725,0,0,1,.53-.2.8.8,0,0,1,.387.09.721.721,0,0,1,.274.268l-.229.211a.6.6,0,0,0-.178-.195.393.393,0,0,0-.219-.064.4.4,0,0,0-.286.1.349.349,0,0,0-.11.267q0,.2.316.366.078.041.119.065a1.015,1.015,0,0,1,.343.292.654.654,0,0,1,.1.37.7.7,0,0,1-.219.54.848.848,0,0,1-.6.2.781.781,0,0,1-.436-.118A.816.816,0,0,1-75.317-8.349Zm2.257.412.314-2.394H-71.4l-.043.338h-.972l-.077.6h.969l-.044.335h-.972l-.1.773h.972l-.047.345Zm2.564,0h-.371l.314-2.394h.432a1.824,1.824,0,0,1,.412.033.592.592,0,0,1,.224.111.557.557,0,0,1,.168.213.675.675,0,0,1,.058.283.709.709,0,0,1-.162.482.736.736,0,0,1-.458.234l.662,1.038h-.422l-.633-1.025h-.087Zm.173-1.329h.075a.912.912,0,0,0,.481-.088.344.344,0,0,0,.128-.3.289.289,0,0,0-.107-.257.809.809,0,0,0-.418-.074h-.06ZM-68.7-10.33h.374l.381,1.429q.029.11.044.177t.023.12q.038-.092.073-.168t.068-.137l.767-1.422h.4L-67.98-7.843Zm2.414,2.394.314-2.394h.383L-65.9-7.937Zm3.37-2.237-.06.409a.937.937,0,0,0-.3-.217.874.874,0,0,0-.354-.071.96.96,0,0,0-.364.068.782.782,0,0,0-.285.2,1.046,1.046,0,0,0-.213.343,1.11,1.11,0,0,0-.074.4.825.825,0,0,0,.226.6.783.783,0,0,0,.586.232.978.978,0,0,0,.346-.062,1.2,1.2,0,0,0,.321-.185L-63.169-8a2.019,2.019,0,0,1-.314.1,1.4,1.4,0,0,1-.289.032,1.145,1.145,0,0,1-.844-.32,1.132,1.132,0,0,1-.321-.84,1.477,1.477,0,0,1,.1-.547,1.3,1.3,0,0,1,.29-.447,1.2,1.2,0,0,1,.4-.267,1.275,1.275,0,0,1,.484-.092,1.54,1.54,0,0,1,.418.052A1.03,1.03,0,0,1-62.912-10.173Zm.547,2.237.314-2.394h1.344l-.043.338h-.972l-.077.6h.969l-.044.335h-.972l-.1.773h.972l-.047.345Z" transform="translate(116.511 22.732)" fill="#333"/>
          <g id="Group_12463" data-name="Group 12463" transform="translate(0 0)">
            <g id="Group_12462" data-name="Group 12462" transform="translate(48.305)">
              <path id="Path_66601" data-name="Path 66601" d="M108.5,8.786l-2.312,2.151-.076-.058c.264-.979.528-1.963.8-2.942q1.006-3.655,2.017-7.306V.607a.327.327,0,0,1,.17-.291c.161-.027.157.157.215.259.344.635.6,1.31,1.006,1.914a27.408,27.408,0,0,0,1.3,2.71.552.552,0,0,1,.094.3.54.54,0,0,1-.25.456c-1.006.935-1.981,1.887-2.96,2.83Z" transform="translate(-106.11 -0.183)" fill="#f07a25"/>
              <path id="Path_66602" data-name="Path 66602" d="M110.881,8.623c.984-.943,1.959-1.9,2.956-2.826a.54.54,0,0,0,.25-.456.507.507,0,0,0-.094-.3,26.442,26.442,0,0,1-1.3-2.71L113.38.02c.286.55.523,1,.751,1.458.577,1.149,1.14,2.307,1.739,3.448a.667.667,0,0,1-.192.948c-1.637,1.516-3.242,3.067-4.856,4.606a.846.846,0,0,1-.4.291,14.674,14.674,0,0,0,.461-2.146Z" transform="translate(-108.493 -0.02)" fill="#0c8d48"/>
            </g>
            <path id="Path_66616" data-name="Path 66616" d="M4706.036-46.546q1.253-4.467,2.482-8.943a7.878,7.878,0,0,0,.25-.952v-.022a.536.536,0,0,1,.541-.537.486.486,0,0,1,.161.027c.094.009.193.009.291.009.072,0,.152,0,.229-.009h.47c.626,0,.63,0,.469.577q-1.314,4.762-2.634,9.529c-.2.711-.205.711-.934.711-.345,0-.693-.009-1.038,0h-.05C4706.006-46.151,4705.956-46.259,4706.036-46.546Zm18.281.395,1.2-4.367h0s.02-.067.567-2.064h0l.011-.04.05.04h10.733l.659-2.316h-10.82l.4-1.46.176-.642h12.026a.7.7,0,0,1,.554.28.8.8,0,0,1,.137.693l-1.291,4.617a1.2,1.2,0,0,1-.474.625,1.325,1.325,0,0,1-.742.266h-9.891l-1.177,4.367ZM4722.6-46.2c-.223-.014-.451-.018-.675-.018s-.434,0-.648.018c-.376.022-.407-.116-.313-.443.4-1.4.778-2.817,1.163-4.226a.269.269,0,0,0,.036-.13.262.262,0,0,0-.062-.175c-.362.322-.725.635-1.078.962-1.355,1.243-2.7,2.495-4.052,3.747-.223.21-.339.246-.514-.063-1-1.748-2.012-3.483-3.022-5.223a.792.792,0,0,0-.112-.125,1.29,1.29,0,0,0-.272.676q-.637,2.267-1.239,4.547a.476.476,0,0,1-.479.461.7.7,0,0,1-.094-.009c-.451-.036-.911-.014-1.367,0-.211,0-.327-.027-.251-.3q1.422-5.131,2.83-10.271a.6.6,0,0,1,.081-.1,1.83,1.83,0,0,1,.434.59q1.918,3.193,3.827,6.39c.287.479.277.47.707.1q3.461-2.952,6.931-5.893c.465-.393.926-.792,1.432-1.221a1.066,1.066,0,0,1,.013.17,1.084,1.084,0,0,1-.125.5c-.877,3.215-1.766,6.426-2.639,9.636a.434.434,0,0,1-.434.407A.418.418,0,0,1,4722.6-46.2Zm15.776-.143s.021-.066.6-2.031h11.392l.688-2.252h-10.295a.755.755,0,0,1-.584-.276.746.746,0,0,1-.144-.681l1.362-4.544a1.191,1.191,0,0,1,.5-.615,1.465,1.465,0,0,1,.783-.262h12.649s-.021.066-.6,2.03h-11.392l-.687,2.252h10.295a.753.753,0,0,1,.585.276.749.749,0,0,1,.145.682l-1.362,4.543a1.189,1.189,0,0,1-.5.616,1.467,1.467,0,0,1-.783.262Z" transform="translate(-4706.001 57)" fill="#66686c"/>
          </g>
        </g>
      </g>
    </g>
    <g id="Group_21872" data-name="Group 21872">
      <path id="Path_64895" data-name="Path 64895" d="M447.46,212.672l-.156-.033c-.1-.021-.208-.042-.313-.058s-.207-.03-.311-.045h-.024l-.017,0c-.089-.01-.178-.02-.267-.025-.105-.009-.209-.012-.313-.017h-.315c-.107,0-.218.006-.325.016-.09.006-.181.016-.269.027l-.036,0h-.032c-.118.017-.233.036-.346.059-.09.016-.178.039-.267.059-.022.006-.046.01-.067.016s-.034.006-.051.012c-.144.039-.287.082-.425.132-.033.013-.059.026-.091.04-.065.025-.128.054-.191.082s-.154.059-.227.094-.13.071-.2.107l-.091.05c-.166.1-2.639,1.8-3.058,2.228.136-.139,1.081-.421,1.234-.542.031-.026.061-.05.092-.074a4.285,4.285,0,0,1,.474-.315c.032-.016.065-.036.1-.054.133-.072.272-.138.415-.2.064-.029.129-.059.2-.085a5.477,5.477,0,0,1,.564-.181.449.449,0,0,1,.072-.017,5.072,5.072,0,0,1,.64-.119c.012,0,.026,0,.036,0a5.832,5.832,0,0,1,.7-.041h.056a6.237,6.237,0,0,1,.737.043h.019a7.478,7.478,0,0,1,.8.137l79.259,9.263,1.256-1.295Z" transform="translate(5017.565 322.107)" fill="url(#linear-gradient-7)"/>
      <g id="Group_11916" data-name="Group 11916" transform="translate(5457.078 535.891)">
        <path id="Path_64896" data-name="Path 64896" d="M525.158,223.939c3.854.875,7.118,4.61,7.281,8.333l2.917,66.489c.164,3.723-2.834,6.041-6.687,5.166l-79.26-9.264c-3.851-.873-7.116-4.609-7.28-8.332l-2.917-66.49c-.164-3.723,2.834-6.039,6.686-5.165Z" transform="translate(-439.207 -214.491)" fill="url(#linear-gradient-8)"/>
      </g>
      <path id="Path_64897" data-name="Path 64897" d="M583.652,302.487c0-.083.006-.165.006-.248,0-.1,0-.2-.006-.307v0l-2.917-66.489c-.005-.1-.012-.2-.022-.3s-.019-.2-.032-.306c0-.021-.007-.042-.01-.063l-.01-.059c-.01-.063-.017-.125-.029-.186-.018-.1-.037-.209-.062-.313-.008-.04-.019-.079-.031-.12s-.011-.054-.017-.078-.019-.081-.03-.122c-.03-.11-.061-.222-.1-.333-.015-.048-.032-.1-.049-.146-.009-.029-.019-.057-.028-.084s-.024-.073-.036-.108c-.046-.124-.093-.248-.145-.37-.015-.036-.033-.073-.048-.111s-.031-.07-.049-.108c-.025-.058-.052-.118-.08-.178-.06-.13-.126-.256-.195-.386-.007-.012-.012-.026-.02-.039a.011.011,0,0,1,0-.01c-.093-.17-.191-.341-.3-.507a.432.432,0,0,0-.036-.049c-.092-.151-.195-.3-.3-.442-.044-.059-.081-.123-.125-.182-.007-.011-.015-.016-.023-.027-.032-.043-.063-.081-.094-.12-.11-.143-.225-.286-.343-.424-.052-.061-.107-.122-.16-.18-.1-.112-.209-.228-.316-.335-.062-.061-.123-.123-.188-.185-.107-.1-.219-.2-.332-.306l-.2-.171c-.03-.023-.056-.052-.087-.075-.062-.051-.129-.1-.192-.146-.116-.089-.23-.179-.348-.264-.034-.024-.066-.051-.1-.076-.1-.07-.2-.135-.306-.2-.047-.032-.094-.064-.142-.093-.015-.009-.029-.019-.045-.028-.141-.087-.284-.169-.428-.248-.032-.017-.065-.031-.1-.049s-.075-.039-.114-.058c-.057-.029-.114-.061-.174-.09-.116-.058-.238-.115-.362-.165l-.048-.02-.079-.033c-.074-.031-.149-.061-.222-.089-.109-.043-.218-.082-.33-.119l-.065-.021-.072-.023c-.063-.021-.125-.039-.191-.058-.1-.032-.212-.061-.319-.088-.054-.013-.107-.027-.162-.038L572.2,228.4c.228.052.455.116.677.187l.064.021c.213.069.422.148.629.234l.067.026q.3.128.594.279c.034.021.067.036.1.054.192.1.383.211.571.326.052.031.1.067.151.1.134.087.266.177.395.268s.234.174.349.264c.1.077.191.148.284.226.063.054.126.112.19.167.114.1.226.2.334.306.063.063.127.122.188.185.107.11.211.222.315.335.054.062.109.121.162.183.116.136.228.273.337.416.034.044.068.083.1.126.052.068.1.135.141.2.105.145.209.293.3.445.12.188.233.378.339.573,0,.008.008.021.014.03.1.186.194.379.28.572.016.035.032.07.046.1.086.2.16.39.229.59.012.027.018.055.028.083.068.2.127.4.176.6.007.026.012.053.019.077.049.207.09.414.123.621a.577.577,0,0,0,.007.059c.033.225.054.449.065.674l2.917,66.489c.008.191.007.375,0,.558a.193.193,0,0,1,0,.039c-.008.173-.023.341-.047.506,0,.023,0,.045-.008.069-.024.159-.054.315-.091.465-.008.036-.016.067-.026.1-.031.127-.068.248-.109.368-.012.036-.024.072-.036.106a4.371,4.371,0,0,1-.177.423c0,.008-.005.014-.008.021l-.022.038a4.358,4.358,0,0,1-.234.423c-.058.095-.123.18-.187.268-.03.043-.057.085-.088.125-.1.125-.2.245-.313.362l1.254-1.3a4.381,4.381,0,0,0,.315-.361c.027-.037.048-.073.076-.107.063-.086.128-.171.187-.262a.087.087,0,0,1,.012-.026,4.432,4.432,0,0,0,.216-.39c.011-.023.027-.044.038-.067v-.006c.062-.127.119-.257.169-.392a.409.409,0,0,0,.017-.051c.012-.032.022-.067.034-.1.023-.071.048-.138.069-.213.016-.053.028-.107.042-.161.009-.034.019-.064.025-.1s.015-.053.021-.084c.022-.1.044-.21.06-.316,0-.023.005-.043.009-.067a.648.648,0,0,0,.009-.071c.007-.058.017-.119.024-.176.01-.1.018-.206.025-.309v-.014C583.652,302.512,583.651,302.5,583.652,302.487Z" transform="translate(4970.832 316.938)" fill="url(#linear-gradient-9)"/>
      <g id="Group_11917" data-name="Group 11917" transform="translate(5459.132 537.932)">
        <path id="Path_64898" data-name="Path 64898" d="M526.37,227.043a6.8,6.8,0,0,1,5.14,5.882l2.919,66.489c.116,2.636-2,4.267-4.723,3.648l-79.26-9.264a6.8,6.8,0,0,1-5.141-5.886l-2.916-66.488c-.116-2.628,2-4.262,4.721-3.644Z" transform="translate(-442.385 -217.65)" fill="url(#linear-gradient-10)"/>
      </g>
      <g id="Group_11918" data-name="Group 11918" transform="translate(5466.329 565.737)">
        <path id="Path_64899" data-name="Path 64899" d="M536.289,270.728l1.377,31.52c.109,2.488-1.886,4.03-4.46,3.447l-73.453-7.946a6.426,6.426,0,0,1-4.856-5.558l-1.375-31.519Z" transform="translate(-453.522 -260.672)" fill="#ab4a0a"/>
      </g>
      <g id="Group_11919" data-name="Group 11919" transform="translate(5460.598 574.824)">
        <path id="Path_64900" data-name="Path 64900" d="M533.774,286.233l1.458,33.371c.116,2.636-2,4.267-4.723,3.648l-79.26-9.264a6.8,6.8,0,0,1-5.141-5.886l-1.455-33.37Z" transform="translate(-444.653 -274.732)" fill="#ff975d"/>
      </g>
      <g id="Group_11920" data-name="Group 11920" transform="translate(5457.636 539.146)">
        <path id="Path_64901" data-name="Path 64901" d="M505.934,323.5c-.006,2.49-1.772,3.5-3.939,2.243l-58.009-33.654a8.629,8.629,0,0,1-3.915-6.778l.18-63c.007-2.49,1.771-3.5,3.939-2.245l58.01,33.655a8.628,8.628,0,0,1,3.915,6.78Z" transform="translate(-440.071 -219.529)" fill="url(#linear-gradient-11)"/>
      </g>
      <g id="Group_11983" data-name="Group 11983" transform="translate(5460.583 542.935)">
        <g id="Group_11921" data-name="Group 11921" transform="translate(0.047 44.33)">
          <path id="Path_64902" data-name="Path 64902" d="M445.03,297.035a.721.721,0,0,1-.327-.569l.006-2.252c0-.211.149-.293.329-.188a.716.716,0,0,1,.326.564l-.008,2.256C445.356,297.055,445.208,297.139,445.03,297.035Z" transform="translate(-444.703 -293.981)" fill="#f5f5f5"/>
        </g>
        <g id="Group_11922" data-name="Group 11922" transform="translate(0.124 17.251)">
          <path id="Path_64903" data-name="Path 64903" d="M445.148,255.137a.729.729,0,0,1-.326-.568l.007-2.256c0-.209.148-.29.327-.186a.717.717,0,0,1,.327.566l-.006,2.255C445.476,255.156,445.328,255.242,445.148,255.137Z" transform="translate(-444.822 -252.083)" fill="#f5f5f5"/>
        </g>
        <g id="Group_11923" data-name="Group 11923" transform="translate(41.7 88.449)">
          <path id="Path_64904" data-name="Path 64904" d="M511.445,363.425a.719.719,0,0,1,.326.566c0,.207-.146.292-.328.185l-1.964-1.132a.731.731,0,0,1-.328-.566c0-.207.149-.292.328-.187Z" transform="translate(-509.151 -362.246)" fill="#f5f5f5"/>
        </g>
        <g id="Group_11924" data-name="Group 11924" transform="translate(49.557 92.985)">
          <path id="Path_64905" data-name="Path 64905" d="M523.6,370.443a.724.724,0,0,1,.328.565c0,.206-.15.29-.328.187l-1.966-1.134a.717.717,0,0,1-.325-.564c0-.206.149-.293.328-.188Z" transform="translate(-521.309 -369.264)" fill="#f5f5f5"/>
        </g>
        <g id="Group_11927" data-name="Group 11927" transform="translate(61.758 102.6)" style="isolation: isolate">
          <path id="Path_64906" data-name="Path 64906" d="M540.187,384.246a.032.032,0,0,1,.012-.008l.167-.1h0l-.044.025C540.277,384.194,540.23,384.219,540.187,384.246Z" transform="translate(-540.187 -384.141)" fill="#f5f5f5"/>
          <g id="Group_11926" data-name="Group 11926" clip-path="url(#clip-path)">
            <g id="Group_11925" data-name="Group 11925" transform="translate(-0.303 -1.982)" style="isolation: isolate">
              <path id="Path_64907" data-name="Path 64907" d="M539.718,383.3l3.576-2.078a1.847,1.847,0,0,0,.319-.147l-3.579,2.078a1.774,1.774,0,0,1-.315.147Z" transform="translate(-539.718 -381.074)" fill="#f5f5f5"/>
            </g>
          </g>
        </g>
        <g id="Group_11928" data-name="Group 11928" transform="translate(57.412 97.52)">
          <path id="Path_64909" data-name="Path 64909" d="M535.775,377.109a.568.568,0,0,1,.137.586c-.172.275-.5.317-.873.1l-1.249-.721a.715.715,0,0,1-.327-.562c0-.209.147-.294.328-.189l1.249.721c.124.071.232.056.291-.034s.173-.1.29-.037A.582.582,0,0,1,535.775,377.109Z" transform="translate(-533.463 -376.281)" fill="#f5f5f5"/>
        </g>
        <g id="Group_11929" data-name="Group 11929" transform="translate(59.337 89.202)">
          <path id="Path_64910" data-name="Path 64910" d="M536.774,363.456a.714.714,0,0,1,.327.566l-.008,2.258c0,.206-.145.292-.326.187a.723.723,0,0,1-.325-.565l0-2.257C536.446,363.433,536.595,363.352,536.774,363.456Z" transform="translate(-536.441 -363.411)" fill="#f5f5f5"/>
        </g>
        <g id="Group_11930" data-name="Group 11930" transform="translate(59.349 84.689)">
          <path id="Path_64911" data-name="Path 64911" d="M536.8,356.472a.719.719,0,0,1,.324.567l-.005,2.254c0,.21-.146.293-.329.187a.713.713,0,0,1-.326-.563l.006-2.257C536.468,356.45,536.615,356.368,536.8,356.472Z" transform="translate(-536.459 -356.427)" fill="#f5f5f5"/>
        </g>
        <g id="Group_11931" data-name="Group 11931" transform="translate(59.362 80.176)">
          <path id="Path_64912" data-name="Path 64912" d="M536.814,349.49a.715.715,0,0,1,.326.563l-.007,2.259c0,.2-.145.293-.328.189a.728.728,0,0,1-.326-.565l.006-2.257C536.487,349.469,536.633,349.386,536.814,349.49Z" transform="translate(-536.479 -349.445)" fill="#f5f5f5"/>
        </g>
        <g id="Group_11932" data-name="Group 11932" transform="translate(59.362 75.564)">
          <path id="Path_64913" data-name="Path 64913" d="M536.814,342.352a.716.716,0,0,1,.326.564l-.007,2.258c0,.206-.145.291-.328.187a.721.721,0,0,1-.326-.564l.006-2.257C536.487,342.334,536.633,342.249,536.814,342.352Z" transform="translate(-536.479 -342.308)" fill="#f5f5f5"/>
        </g>
        <g id="Group_11933" data-name="Group 11933" transform="translate(59.362 70.95)">
          <path id="Path_64914" data-name="Path 64914" d="M536.814,335.214a.715.715,0,0,1,.326.563l-.007,2.26c0,.2-.145.292-.328.186a.724.724,0,0,1-.326-.564l.006-2.259C536.487,335.193,536.633,335.11,536.814,335.214Z" transform="translate(-536.479 -335.169)" fill="#f5f5f5"/>
        </g>
        <g id="Group_11934" data-name="Group 11934" transform="translate(59.362 66.337)">
          <path id="Path_64915" data-name="Path 64915" d="M536.814,328.077a.715.715,0,0,1,.326.564l-.007,2.258c0,.206-.145.291-.328.187a.724.724,0,0,1-.326-.565l.006-2.257C536.487,328.058,536.633,327.972,536.814,328.077Z" transform="translate(-536.479 -328.032)" fill="#f5f5f5"/>
        </g>
        <g id="Group_11935" data-name="Group 11935" transform="translate(59.362 61.722)">
          <path id="Path_64916" data-name="Path 64916" d="M536.814,320.937a.721.721,0,0,1,.326.566l-.007,2.258c0,.206-.145.293-.328.186a.723.723,0,0,1-.326-.566l.006-2.254C536.487,320.917,536.633,320.832,536.814,320.937Z" transform="translate(-536.479 -320.892)" fill="#f5f5f5"/>
        </g>
        <g id="Group_11936" data-name="Group 11936" transform="translate(59.362 57.11)">
          <path id="Path_64917" data-name="Path 64917" d="M536.814,313.8a.716.716,0,0,1,.326.564l-.007,2.258c0,.208-.145.293-.328.188a.728.728,0,0,1-.326-.565l.006-2.257C536.487,313.78,536.633,313.7,536.814,313.8Z" transform="translate(-536.479 -313.756)" fill="#f5f5f5"/>
        </g>
        <g id="Group_11937" data-name="Group 11937" transform="translate(59.362 52.496)">
          <path id="Path_64918" data-name="Path 64918" d="M536.814,306.662a.716.716,0,0,1,.326.564l-.007,2.258c0,.207-.145.293-.328.187a.726.726,0,0,1-.326-.566l.006-2.256C536.487,306.641,536.633,306.557,536.814,306.662Z" transform="translate(-536.479 -306.617)" fill="#f5f5f5"/>
        </g>
        <g id="Group_11938" data-name="Group 11938" transform="translate(59.362 47.882)">
          <path id="Path_64919" data-name="Path 64919" d="M536.814,299.521a.723.723,0,0,1,.326.567l-.007,2.257c0,.206-.145.293-.328.188a.725.725,0,0,1-.326-.564l.006-2.259C536.487,299.5,536.633,299.418,536.814,299.521Z" transform="translate(-536.479 -299.478)" fill="#f5f5f5"/>
        </g>
        <g id="Group_11939" data-name="Group 11939" transform="translate(59.453 48.586)">
          <path id="Path_64920" data-name="Path 64920" d="M536.953,300.613a.7.7,0,0,1,.325.563l-.008,2.257c0,.206-.145.291-.326.189a.725.725,0,0,1-.325-.565l0-2.26C536.626,300.587,536.774,300.508,536.953,300.613Z" transform="translate(-536.62 -300.567)" fill="#f5f5f5"/>
        </g>
        <g id="Group_11940" data-name="Group 11940" transform="translate(59.464 44.07)">
          <path id="Path_64921" data-name="Path 64921" d="M536.971,293.623a.718.718,0,0,1,.326.57l-.006,2.254c0,.207-.147.291-.328.185a.715.715,0,0,1-.326-.563l.006-2.256C536.645,293.6,536.792,293.52,536.971,293.623Z" transform="translate(-536.638 -293.579)" fill="#f5f5f5"/>
        </g>
        <g id="Group_11941" data-name="Group 11941" transform="translate(0.009 57.868)">
          <path id="Path_64922" data-name="Path 64922" d="M444.97,317.982a.717.717,0,0,1-.326-.567l.006-2.252c0-.213.149-.291.329-.189a.721.721,0,0,1,.325.567l-.006,2.254C445.3,318,445.149,318.087,444.97,317.982Z" transform="translate(-444.644 -314.929)" fill="#f5f5f5"/>
        </g>
        <g id="Group_11942" data-name="Group 11942" transform="translate(0.06 39.815)">
          <path id="Path_64923" data-name="Path 64923" d="M445.049,290.048a.714.714,0,0,1-.326-.564l.007-2.258c0-.205.148-.29.328-.187a.72.72,0,0,1,.324.565l-.006,2.257C445.377,290.072,445.228,290.153,445.049,290.048Z" transform="translate(-444.723 -286.996)" fill="#f5f5f5"/>
        </g>
        <g id="Group_11943" data-name="Group 11943" transform="translate(0.136 12.737)">
          <path id="Path_64924" data-name="Path 64924" d="M445.168,248.151a.72.72,0,0,1-.328-.566l.008-2.258c0-.2.148-.288.327-.185a.716.716,0,0,1,.328.564l-.006,2.258C445.5,248.173,445.347,248.255,445.168,248.151Z" transform="translate(-444.84 -245.098)" fill="#f5f5f5"/>
        </g>
        <g id="Group_11944" data-name="Group 11944" transform="translate(0.15 8.225)">
          <path id="Path_64925" data-name="Path 64925" d="M445.188,241.171a.723.723,0,0,1-.326-.564l.006-2.259c0-.207.149-.29.328-.187a.723.723,0,0,1,.326.564l-.005,2.258C445.517,241.191,445.368,241.275,445.188,241.171Z" transform="translate(-444.862 -238.116)" fill="#f5f5f5"/>
        </g>
        <g id="Group_11945" data-name="Group 11945" transform="translate(0.176)">
          <path id="Path_64926" data-name="Path 64926" d="M445.228,227.64a.713.713,0,0,1-.326-.562l0-.993c0-.619.441-.874.984-.562l.074.043a.72.72,0,0,1,.326.566c0,.207-.147.289-.329.186l-.073-.043c-.178-.1-.328-.02-.328.187l0,.991C445.555,227.664,445.407,227.744,445.228,227.64Z" transform="translate(-444.902 -225.39)" fill="#f5f5f5"/>
        </g>
        <g id="Group_11946" data-name="Group 11946" transform="translate(37.775 86.182)">
          <path id="Path_64927" data-name="Path 64927" d="M505.37,359.918a.727.727,0,0,1,.325.566c0,.2-.147.291-.326.187l-1.967-1.136a.727.727,0,0,1-.324-.564c0-.207.149-.292.327-.188Z" transform="translate(-503.078 -358.739)" fill="#f5f5f5"/>
        </g>
        <g id="Group_11947" data-name="Group 11947" transform="translate(53.483 95.253)">
          <path id="Path_64928" data-name="Path 64928" d="M529.676,373.951a.716.716,0,0,1,.326.566c0,.206-.145.29-.328.185l-1.965-1.134a.719.719,0,0,1-.325-.564c0-.208.147-.292.328-.186Z" transform="translate(-527.384 -372.773)" fill="#f5f5f5"/>
        </g>
        <g id="Group_11948" data-name="Group 11948" transform="translate(59.323 93.716)">
          <path id="Path_64929" data-name="Path 64929" d="M536.755,370.439a.716.716,0,0,1,.325.564l-.005,2.258c0,.206-.146.291-.33.186a.722.722,0,0,1-.325-.565l.007-2.257C536.427,370.42,536.576,370.335,536.755,370.439Z" transform="translate(-536.42 -370.395)" fill="#f5f5f5"/>
        </g>
        <g id="Group_11949" data-name="Group 11949" transform="translate(44.311 25.354)">
          <path id="Path_64930" data-name="Path 64930" d="M515.809,266.363c0,.21-.146.292-.327.187l-1.965-1.135a.717.717,0,0,1-.326-.563c0-.207.148-.291.327-.188l1.965,1.134A.714.714,0,0,1,515.809,266.363Z" transform="translate(-513.191 -264.62)" fill="#f5f5f5"/>
        </g>
        <g id="Group_11950" data-name="Group 11950" transform="translate(48.24 27.622)">
          <path id="Path_64931" data-name="Path 64931" d="M521.887,269.871c0,.211-.145.293-.326.187l-1.963-1.131a.722.722,0,0,1-.326-.566c0-.208.145-.291.327-.187l1.963,1.132A.713.713,0,0,1,521.887,269.871Z" transform="translate(-519.271 -268.129)" fill="#f5f5f5"/>
        </g>
        <g id="Group_11951" data-name="Group 11951" transform="translate(59.489 35.046)">
          <path id="Path_64932" data-name="Path 64932" d="M537.011,279.661a.718.718,0,0,1,.326.564l-.006,2.259c0,.207-.145.291-.328.187a.723.723,0,0,1-.327-.563l.008-2.259C536.685,279.641,536.831,279.557,537.011,279.661Z" transform="translate(-536.676 -279.616)" fill="#f5f5f5"/>
        </g>
        <g id="Group_11952" data-name="Group 11952" transform="translate(0 62.382)">
          <path id="Path_64933" data-name="Path 64933" d="M447.183,325.071a.717.717,0,0,1,.327.567c0,.207-.147.29-.329.184l-1.573-.907a2.155,2.155,0,0,1-.978-1.693l0-1.075c0-.208.149-.29.329-.188a.721.721,0,0,1,.325.564l0,1.077a.723.723,0,0,0,.329.566Z" transform="translate(-444.63 -321.913)" fill="#f5f5f5"/>
        </g>
        <g id="Group_11953" data-name="Group 11953" transform="translate(4.188 66.629)">
          <path id="Path_64934" data-name="Path 64934" d="M453.4,329.662a.72.72,0,0,1,.326.565c0,.207-.149.29-.33.187l-1.963-1.134a.727.727,0,0,1-.328-.564c0-.208.15-.291.329-.188Z" transform="translate(-451.11 -328.484)" fill="#f5f5f5"/>
        </g>
        <g id="Group_11954" data-name="Group 11954" transform="translate(8.486 69.138)">
          <path id="Path_64935" data-name="Path 64935" d="M460.053,333.545a.726.726,0,0,1,.327.565c0,.206-.15.29-.328.187l-1.967-1.136a.724.724,0,0,1-.325-.563c0-.207.147-.292.328-.187Z" transform="translate(-457.76 -332.366)" fill="#f5f5f5"/>
        </g>
        <g id="Group_11955" data-name="Group 11955" transform="translate(12.781 71.647)">
          <path id="Path_64936" data-name="Path 64936" d="M466.7,337.427a.723.723,0,0,1,.327.564c0,.206-.149.291-.329.185l-1.964-1.133a.72.72,0,0,1-.327-.564c0-.208.149-.291.329-.188Z" transform="translate(-464.406 -336.247)" fill="#f5f5f5"/>
        </g>
        <g id="Group_11956" data-name="Group 11956" transform="translate(17.078 74.156)">
          <path id="Path_64937" data-name="Path 64937" d="M473.348,341.308a.728.728,0,0,1,.325.565c0,.207-.147.291-.328.188l-1.965-1.136a.722.722,0,0,1-.326-.565c0-.2.149-.289.33-.187Z" transform="translate(-471.054 -340.13)" fill="#f5f5f5"/>
        </g>
        <g id="Group_11957" data-name="Group 11957" transform="translate(21.374 76.664)">
          <path id="Path_64938" data-name="Path 64938" d="M479.995,345.189a.721.721,0,0,1,.326.566c0,.206-.149.29-.328.187l-1.965-1.136a.727.727,0,0,1-.327-.562c0-.208.151-.291.329-.188Z" transform="translate(-477.701 -344.011)" fill="#f5f5f5"/>
        </g>
        <g id="Group_11958" data-name="Group 11958" transform="translate(25.671 79.173)">
          <path id="Path_64939" data-name="Path 64939" d="M486.644,349.072a.723.723,0,0,1,.326.567c0,.206-.149.288-.328.185l-1.965-1.136a.726.726,0,0,1-.326-.564c0-.206.149-.291.326-.186Z" transform="translate(-484.35 -347.893)" fill="#f5f5f5"/>
        </g>
        <g id="Group_11959" data-name="Group 11959" transform="translate(29.967 81.681)">
          <path id="Path_64940" data-name="Path 64940" d="M493.291,352.953a.718.718,0,0,1,.326.567c0,.206-.149.288-.328.185l-1.964-1.134A.727.727,0,0,1,491,352c0-.2.149-.29.328-.187Z" transform="translate(-490.998 -351.774)" fill="#f5f5f5"/>
        </g>
        <g id="Group_11960" data-name="Group 11960" transform="translate(0.023 53.355)">
          <path id="Path_64941" data-name="Path 64941" d="M444.99,311a.721.721,0,0,1-.325-.565l.006-2.257c0-.207.147-.29.328-.187a.714.714,0,0,1,.324.565l-.006,2.257C445.318,311.019,445.17,311.1,444.99,311Z" transform="translate(-444.665 -307.945)" fill="#f5f5f5"/>
        </g>
        <g id="Group_11961" data-name="Group 11961" transform="translate(0.034 48.843)">
          <path id="Path_64942" data-name="Path 64942" d="M445.01,304.017a.719.719,0,0,1-.327-.564l.006-2.258c0-.208.15-.29.328-.187a.72.72,0,0,1,.327.562l-.007,2.259C445.336,304.038,445.19,304.121,445.01,304.017Z" transform="translate(-444.683 -300.964)" fill="#f5f5f5"/>
        </g>
        <g id="Group_11962" data-name="Group 11962" transform="translate(0.073 35.302)">
          <path id="Path_64943" data-name="Path 64943" d="M445.069,283.065a.719.719,0,0,1-.326-.562l.006-2.259c0-.206.149-.292.327-.187a.728.728,0,0,1,.328.564l-.007,2.258C445.4,283.087,445.249,283.17,445.069,283.065Z" transform="translate(-444.743 -280.013)" fill="#f5f5f5"/>
        </g>
        <g id="Group_11963" data-name="Group 11963" transform="translate(0.087 30.791)">
          <path id="Path_64944" data-name="Path 64944" d="M445.09,276.085a.718.718,0,0,1-.326-.566l.005-2.254c0-.211.15-.292.328-.189a.72.72,0,0,1,.326.564l-.006,2.256C445.417,276.106,445.27,276.19,445.09,276.085Z" transform="translate(-444.764 -273.032)" fill="#f5f5f5"/>
        </g>
        <g id="Group_11964" data-name="Group 11964" transform="translate(0.1 26.276)">
          <path id="Path_64945" data-name="Path 64945" d="M445.11,269.1a.716.716,0,0,1-.326-.565l.005-2.258c0-.207.149-.29.33-.187a.726.726,0,0,1,.324.564l-.006,2.259C445.437,269.123,445.289,269.2,445.11,269.1Z" transform="translate(-444.784 -266.046)" fill="#f5f5f5"/>
        </g>
        <g id="Group_11965" data-name="Group 11965" transform="translate(0.112 21.764)">
          <path id="Path_64946" data-name="Path 64946" d="M445.129,262.119a.723.723,0,0,1-.326-.565l.007-2.258c0-.206.147-.29.328-.185a.712.712,0,0,1,.324.566l-.005,2.258C445.457,262.138,445.308,262.222,445.129,262.119Z" transform="translate(-444.803 -259.065)" fill="#f5f5f5"/>
        </g>
        <g id="Group_11966" data-name="Group 11966" transform="translate(0.162 3.712)">
          <path id="Path_64947" data-name="Path 64947" d="M445.206,234.186a.714.714,0,0,1-.326-.563l.008-2.257c0-.209.147-.292.328-.19a.715.715,0,0,1,.325.566L445.535,234C445.535,234.206,445.386,234.291,445.206,234.186Z" transform="translate(-444.88 -231.133)" fill="#f5f5f5"/>
        </g>
        <g id="Group_11967" data-name="Group 11967" transform="translate(33.848 83.915)">
          <path id="Path_64948" data-name="Path 64948" d="M499.291,356.408a.716.716,0,0,1,.33.566c0,.206-.147.29-.33.184l-1.963-1.132a.712.712,0,0,1-.326-.563c0-.207.145-.293.327-.188Z" transform="translate(-497.002 -355.23)" fill="#f5f5f5"/>
        </g>
        <g id="Group_11968" data-name="Group 11968" transform="translate(2.873 1.267)">
          <path id="Path_64949" data-name="Path 64949" d="M451.691,229.091c0,.211-.145.293-.328.189l-1.963-1.132a.717.717,0,0,1-.324-.565c0-.206.145-.291.327-.186l1.962,1.132A.711.711,0,0,1,451.691,229.091Z" transform="translate(-449.076 -227.35)" fill="#f5f5f5"/>
        </g>
        <g id="Group_11969" data-name="Group 11969" transform="translate(6.799 3.534)">
          <path id="Path_64950" data-name="Path 64950" d="M457.768,232.6c0,.211-.147.291-.326.186l-1.965-1.132a.719.719,0,0,1-.326-.565c0-.207.148-.29.328-.185l1.966,1.132A.718.718,0,0,1,457.768,232.6Z" transform="translate(-455.15 -230.858)" fill="#f5f5f5"/>
        </g>
        <g id="Group_11970" data-name="Group 11970" transform="translate(45.63 90.717)">
          <path id="Path_64951" data-name="Path 64951" d="M517.523,366.932a.724.724,0,0,1,.328.568c0,.206-.147.29-.33.185l-1.962-1.132a.721.721,0,0,1-.325-.565c0-.206.145-.293.329-.188Z" transform="translate(-515.233 -365.755)" fill="#f5f5f5"/>
        </g>
        <g id="Group_11971" data-name="Group 11971" transform="translate(32.298 18.551)">
          <path id="Path_64952" data-name="Path 64952" d="M497.222,255.839c0,.21-.149.288-.328.186l-1.966-1.135a.717.717,0,0,1-.324-.564c0-.208.149-.292.329-.187l1.963,1.135A.719.719,0,0,1,497.222,255.839Z" transform="translate(-494.604 -254.094)" fill="#f5f5f5"/>
        </g>
        <g id="Group_11972" data-name="Group 11972" transform="translate(28.107 15.995)">
          <path id="Path_64953" data-name="Path 64953" d="M490.739,251.881c0,.212-.151.291-.329.188l-1.965-1.134a.716.716,0,0,1-.326-.566c0-.206.147-.291.326-.185l1.965,1.132A.729.729,0,0,1,490.739,251.881Z" transform="translate(-488.119 -250.139)" fill="#f5f5f5"/>
        </g>
        <g id="Group_11973" data-name="Group 11973" transform="translate(23.685 13.298)">
          <path id="Path_64954" data-name="Path 64954" d="M483.894,247.709c0,.212-.147.292-.328.189l-1.965-1.136a.721.721,0,0,1-.325-.565c0-.206.147-.29.328-.186l1.963,1.134A.719.719,0,0,1,483.894,247.709Z" transform="translate(-481.277 -245.966)" fill="#f5f5f5"/>
        </g>
        <g id="Group_11974" data-name="Group 11974" transform="translate(19.137 10.702)">
          <path id="Path_64955" data-name="Path 64955" d="M476.859,243.69c0,.211-.15.291-.328.188l-1.966-1.134a.719.719,0,0,1-.325-.566c0-.206.148-.29.327-.185l1.965,1.134A.723.723,0,0,1,476.859,243.69Z" transform="translate(-474.24 -241.949)" fill="#f5f5f5"/>
        </g>
        <g id="Group_11975" data-name="Group 11975" transform="translate(14.996 8.414)">
          <path id="Path_64956" data-name="Path 64956" d="M470.451,240.152c0,.209-.149.291-.327.187l-1.965-1.135a.715.715,0,0,1-.326-.563c0-.207.147-.292.327-.187l1.965,1.134A.719.719,0,0,1,470.451,240.152Z" transform="translate(-467.833 -238.409)" fill="#f5f5f5"/>
        </g>
        <g id="Group_11976" data-name="Group 11976" transform="translate(10.842 5.824)">
          <path id="Path_64957" data-name="Path 64957" d="M464.024,236.144c0,.211-.147.291-.328.188l-1.965-1.136a.718.718,0,0,1-.326-.565c0-.206.147-.29.329-.185l1.963,1.134A.718.718,0,0,1,464.024,236.144Z" transform="translate(-461.405 -234.402)" fill="#f5f5f5"/>
        </g>
        <g id="Group_11977" data-name="Group 11977" transform="translate(36.458 20.818)">
          <path id="Path_64958" data-name="Path 64958" d="M503.657,259.345c0,.211-.145.292-.328.188l-1.963-1.134a.711.711,0,0,1-.324-.565c0-.206.145-.293.328-.187l1.961,1.134A.715.715,0,0,1,503.657,259.345Z" transform="translate(-501.041 -257.602)" fill="#f5f5f5"/>
        </g>
        <g id="Group_11978" data-name="Group 11978" transform="translate(40.384 23.087)">
          <path id="Path_64959" data-name="Path 64959" d="M509.733,262.855c0,.209-.146.291-.327.188l-1.964-1.136a.711.711,0,0,1-.326-.564c0-.207.149-.291.329-.186l1.963,1.135A.716.716,0,0,1,509.733,262.855Z" transform="translate(-507.116 -261.112)" fill="#f5f5f5"/>
        </g>
        <g id="Group_11979" data-name="Group 11979" transform="translate(59.442 53.098)">
          <path id="Path_64960" data-name="Path 64960" d="M536.934,307.592a.713.713,0,0,1,.328.566l0,.754-.655-.378,0-.754C536.607,307.573,536.755,307.488,536.934,307.592Z" transform="translate(-536.604 -307.548)" fill="#f5f5f5"/>
        </g>
        <g id="Group_11980" data-name="Group 11980" transform="translate(52.166 29.888)">
          <path id="Path_64961" data-name="Path 64961" d="M527.966,273.378c0,.213-.15.292-.329.19l-1.965-1.135a.714.714,0,0,1-.326-.563c0-.208.149-.294.328-.189l1.965,1.135A.726.726,0,0,1,527.966,273.378Z" transform="translate(-525.346 -271.636)" fill="#f5f5f5"/>
        </g>
        <g id="Group_11981" data-name="Group 11981" transform="translate(59.477 39.559)">
          <path id="Path_64962" data-name="Path 64962" d="M536.993,286.642a.716.716,0,0,1,.324.565l-.005,2.257c0,.207-.145.293-.33.187a.714.714,0,0,1-.324-.564l.006-2.258C536.664,286.623,536.813,286.539,536.993,286.642Z" transform="translate(-536.658 -286.598)" fill="#f5f5f5"/>
        </g>
        <g id="Group_11982" data-name="Group 11982" transform="translate(56.094 32.156)">
          <path id="Path_64963" data-name="Path 64963" d="M534.042,276.889c0,.209-.151.29-.328.187l-1.967-1.134a.716.716,0,0,1-.324-.566c0-.206.147-.292.327-.187l1.965,1.135A.721.721,0,0,1,534.042,276.889Z" transform="translate(-531.423 -275.144)" fill="#f5f5f5"/>
        </g>
      </g>
      <g id="Group_11984" data-name="Group 11984" transform="translate(5456 537.042)">
        <path id="Path_64964" data-name="Path 64964" d="M501.31,250.687,443.3,217.032c-3.067-1.768-5.572-.341-5.583,3.182l-.177,63a12.246,12.246,0,0,0,5.545,9.606l58.011,33.654c3.069,1.773,5.572.345,5.583-3.18l.176-62.994A12.234,12.234,0,0,0,501.31,250.687Zm3.783,52.678-.054,18.979c-.006,2.49-1.772,3.5-3.939,2.243l-58.009-33.654a8.632,8.632,0,0,1-3.916-6.778l.18-62.995c.007-2.49,1.771-3.5,3.939-2.245L501.3,252.57a8.628,8.628,0,0,1,3.915,6.78l.048,19.036-.174,24.98Z" transform="translate(-437.539 -216.273)" fill="#ffa777"/>
      </g>
      <path id="Path_64965" data-name="Path 64965" d="M447.863,213.816c-.058-.032-.116-.068-.176-.1l-.226-.118-.145-.068a.316.316,0,0,0-.042-.019.4.4,0,0,1-.038-.019l-.221-.093c-.074-.03-.151-.058-.224-.086l-.041-.013-.033-.01c-.05-.017-.1-.032-.148-.048-.076-.023-.153-.045-.23-.064-.036-.01-.075-.017-.112-.025l-.048-.012c-.021,0-.045-.011-.067-.016-.081-.017-.163-.029-.243-.04l-.158-.015a.338.338,0,0,0-.039,0,.354.354,0,0,0-.048-.006c-.09,0-.178-.007-.264-.007-.037,0-.076,0-.112.005s-.06,0-.09,0l-.086,0c-.109.011-.216.026-.322.047h-.006c-.031.008-.059.019-.088.026a2.52,2.52,0,0,0-.294.08.206.206,0,0,0-.026.011,2.54,2.54,0,0,0-.427.2q-1.79,1.039-3.577,2.079a2.728,2.728,0,0,1,.427-.2,3.356,3.356,0,0,1,.324-.094c.028-.007.055-.017.085-.022a2.7,2.7,0,0,1,.414-.054l.085,0a3.456,3.456,0,0,1,.425.006.429.429,0,0,0,.047,0,4.022,4.022,0,0,1,.465.072l.047.01a4.549,4.549,0,0,1,.485.136.414.414,0,0,1,.041.012c.173.06.348.13.524.211.012.006.024.009.038.017.18.084.363.178.548.284l58.01,33.655,3.577-2.078Z" transform="translate(5017.474 321.907)" fill="url(#linear-gradient-12)"/>
      <path id="Path_64966" data-name="Path 64966" d="M545.33,275.662c0-.088-.006-.177-.013-.268,0-.044-.006-.083-.01-.126,0-.017,0-.033,0-.05s0-.061-.007-.094c-.01-.088-.019-.18-.031-.271s-.025-.183-.041-.279v-.022c-.014-.085-.028-.171-.045-.257s-.038-.195-.059-.29c-.009-.038-.017-.072-.027-.111,0-.018-.008-.037-.012-.055-.011-.043-.019-.082-.03-.126-.023-.1-.049-.2-.076-.294-.023-.079-.045-.154-.069-.231a.037.037,0,0,0-.006-.021c0-.016-.009-.027-.013-.041-.028-.1-.059-.194-.092-.29s-.065-.189-.1-.284c-.007-.02-.015-.037-.023-.057s-.008-.023-.012-.036c-.023-.061-.046-.12-.068-.179-.036-.092-.071-.181-.11-.271-.027-.07-.058-.138-.086-.2l-.01-.021c-.006-.014-.011-.029-.017-.042-.039-.089-.081-.179-.122-.269s-.095-.2-.142-.295c-.009-.017-.017-.032-.024-.048s-.016-.03-.026-.048l-.123-.239c-.053-.1-.109-.192-.162-.286-.026-.049-.053-.1-.081-.146-.01-.018-.02-.038-.032-.059-.048-.078-.1-.156-.148-.235-.076-.125-.151-.246-.231-.366l-.036-.061c-.116-.169-.231-.336-.353-.5-.081-.111-.164-.218-.247-.324-.064-.084-.134-.166-.2-.248a.158.158,0,0,1-.01-.013l-.005-.006c-.07-.085-.142-.167-.216-.25s-.143-.163-.216-.242a.191.191,0,0,1-.031-.033.324.324,0,0,1-.039-.04c-.052-.055-.1-.111-.158-.164-.076-.079-.155-.156-.233-.234-.025-.02-.048-.043-.072-.064s-.036-.033-.052-.049c-.041-.037-.079-.076-.12-.111-.082-.075-.163-.148-.246-.216-.038-.03-.072-.057-.107-.087l-.06-.047-.081-.069c-.082-.063-.164-.125-.246-.185-.058-.045-.118-.087-.18-.129l-.026-.018a.417.417,0,0,0-.035-.026c-.077-.052-.156-.1-.235-.153s-.156-.1-.235-.145c-.018-.01-.035-.023-.054-.033l-3.577,2.078c.187.109.373.227.556.353.012.008.023.019.035.027.169.119.339.246.5.379a.506.506,0,0,0,.053.042c.161.135.322.274.48.421l.047.042q.237.225.465.465c.014.013.025.028.039.042.158.168.315.346.467.527a.064.064,0,0,0,.017.019,13.023,13.023,0,0,1,.834,1.132c.076.116.15.237.224.355.062.1.127.2.185.3.029.051.057.1.083.147.1.171.19.344.28.517.009.019.02.041.031.061.106.213.208.427.3.643.005.012.01.023.015.033q.14.322.259.643c0,.014.011.029.016.041.081.222.157.445.223.666,0,.01.006.023.01.034q.093.321.171.639c0,.021.009.043.014.065.048.218.092.434.126.649a.068.068,0,0,0,0,.017c.035.22.061.437.078.651a.358.358,0,0,1,0,.05c.018.218.026.434.026.645l-.176,62.994c0,.211-.013.413-.03.609,0,.017,0,.034-.006.055-.018.178-.045.352-.076.516,0,.023-.008.045-.014.067a4.453,4.453,0,0,1-.119.461c-.008.029-.02.057-.028.086a4.011,4.011,0,0,1-.156.395c-.006.016-.012.028-.016.042a3.533,3.533,0,0,1-.224.4c-.012.019-.027.037-.041.058a3.041,3.041,0,0,1-.208.273c-.029.034-.059.067-.09.1-.065.07-.134.136-.206.2-.03.026-.059.054-.093.08a2.6,2.6,0,0,1-.321.224q1.79-1.04,3.577-2.078a2.4,2.4,0,0,0,.321-.223c.033-.027.063-.056.094-.082a2.643,2.643,0,0,0,.2-.2c.031-.032.061-.065.091-.1.073-.088.142-.18.206-.274.015-.023.028-.039.043-.059a.067.067,0,0,1,.007-.014,3.044,3.044,0,0,0,.21-.379l0-.009c.008-.018.015-.038.023-.054.039-.082.074-.165.108-.254.016-.041.03-.087.045-.133.01-.028.019-.054.027-.083s.018-.05.025-.075c.027-.094.051-.187.072-.286a.847.847,0,0,0,.022-.1c0-.021.008-.04.014-.063s.013-.07.019-.1l-.006,0h0l.006,0c.015-.088.028-.176.042-.266,0-.048.01-.1.014-.149,0-.017,0-.034,0-.052s.006-.043.008-.066c.007-.085.012-.171.016-.26s.005-.176.006-.268v-.015l.179-63C545.334,275.828,545.333,275.745,545.33,275.662Z" transform="translate(4983.561 303.073)" fill="url(#linear-gradient-13)"/>
      <g id="Group_11985" data-name="Group 11985" transform="translate(5506.022 584.912)" opacity="0.2">
        <path id="Path_64967" data-name="Path 64967" d="M526.843,291.419l33.839-1.079L558.2,312.861l-33.835,1.079c-5.851.188-10.039-4.7-9.354-10.924S520.992,291.6,526.843,291.419Z" transform="translate(-514.938 -290.34)" fill="#174b84"/>
      </g>
      <g id="Group_11989" data-name="Group 11989" transform="translate(5509.701 581.598)">
        <path id="Path_64968" data-name="Path 64968" d="M522.288,304.834c0-.139,0-.281.011-.418,0-.067.01-.135.013-.2.007-.125.017-.249.027-.37.005-.077.017-.147.025-.224.014-.116.027-.233.041-.348.012-.08.026-.16.038-.238.016-.11.033-.221.05-.328.016-.084.035-.167.052-.251.019-.1.04-.207.063-.308l.067-.263c.023-.1.047-.2.071-.288s.054-.186.08-.273.052-.176.079-.262c.085-.273.184-.544.286-.811.021-.05.04-.1.061-.152.1-.259.216-.516.334-.768l.076-.154c.085-.175.176-.346.268-.518.028-.05.054-.1.084-.156.117-.207.239-.414.365-.613.029-.043.057-.087.086-.133.1-.148.2-.3.3-.443.04-.059.081-.118.122-.174.108-.149.218-.291.33-.434l.089-.114c.145-.176.291-.35.441-.518l.11-.119c.121-.132.246-.263.371-.391l.131-.131c.174-.169.35-.333.531-.491.016-.013.033-.029.05-.043.165-.141.335-.28.506-.411.048-.038.093-.074.143-.11.228-.171.463-.337.7-.491.036-.025.072-.047.11-.07.25-.158.5-.308.762-.447l.088-.043c.185-.1.374-.187.565-.273l.164-.072c.218-.095.439-.185.663-.265l.049-.014c.211-.076.424-.14.637-.2.058-.014.117-.032.175-.047.233-.061.465-.118.7-.162l33.267-6.277-1.656-.8-33.267,6.277c-.235.045-.469.1-.7.16-.059.017-.119.033-.177.048-.211.061-.425.124-.632.2a.224.224,0,0,0-.053.017c-.224.079-.445.166-.662.259-.056.027-.109.05-.165.076-.191.085-.382.18-.569.275a.7.7,0,0,0-.063.032.069.069,0,0,0-.017.008c-.26.138-.512.288-.761.445-.04.023-.078.047-.114.072-.24.156-.474.321-.7.491l-.061.043c-.025.02-.048.044-.074.062-.175.136-.349.276-.518.421-.013.012-.029.024-.041.036-.181.156-.355.322-.529.49-.019.017-.04.035-.059.054l-.076.083c-.125.123-.246.252-.368.382-.034.043-.074.083-.112.125q-.228.252-.441.519c-.006.006-.014.018-.019.024-.023.026-.041.054-.064.082-.116.144-.226.294-.337.445-.04.056-.08.109-.118.167-.1.149-.207.3-.308.454-.019.033-.04.062-.061.093-.005.01-.012.021-.017.03-.129.2-.25.41-.366.616-.027.05-.057.1-.083.155-.093.172-.184.346-.27.524-.018.032-.036.067-.052.1-.009.014-.013.033-.022.048-.119.254-.232.511-.335.77l-.06.152c-.1.267-.2.536-.288.81a.074.074,0,0,1-.008.022c-.025.081-.048.164-.071.249s-.052.176-.078.262-.05.2-.074.3-.043.171-.063.258-.044.208-.065.312c-.016.08-.034.161-.048.248-.021.109-.037.216-.055.326-.012.078-.026.159-.036.237-.015.115-.028.23-.04.345-.008.076-.017.149-.025.227-.012.121-.017.244-.025.365-.006.071-.013.141-.015.211-.007.138-.009.273-.01.414,0,.053-.006.108-.006.162,0,.195.006.388.014.584a9.822,9.822,0,0,0,5.279,8.653l1.654.8a9.81,9.81,0,0,1-5.278-8.651c-.01-.2-.013-.389-.013-.582C522.285,304.941,522.288,304.887,522.288,304.834Z" transform="translate(-520.629 -285.213)" fill="url(#linear-gradient-14)"/>
        <g id="Group_11986" data-name="Group 11986" transform="translate(1.656 0.801)">
          <path id="Path_64970" data-name="Path 64970" d="M533.11,292.73l33.267-6.277,1.017,22.638-33.267,6.277c-5.751,1.084-10.642-3.1-10.924-9.353S527.357,293.816,533.11,292.73Z" transform="translate(-523.191 -286.453)" fill="url(#linear-gradient-15)"/>
        </g>
        <g id="Group_11987" data-name="Group 11987" transform="translate(7.96 13.075)">
          <path id="Path_64971" data-name="Path 64971" d="M537.441,305.521a4.2,4.2,0,0,1,4.953,4.24,5.906,5.906,0,0,1-4.49,6.023,4.2,4.2,0,0,1-4.953-4.241A5.907,5.907,0,0,1,537.441,305.521Z" transform="translate(-532.945 -305.443)" fill="#ff975d"/>
        </g>
        <g id="Group_11988" data-name="Group 11988" transform="translate(5.945 10.856)">
          <path id="Path_64972" data-name="Path 64972" d="M536.24,302.121c3.72-.7,6.883,2,7.065,6.044s-2.686,7.889-6.406,8.589-6.88-2-7.063-6.047S532.519,302.819,536.24,302.121Zm.56,12.448a5.906,5.906,0,0,0,4.49-6.023,4.2,4.2,0,0,0-4.953-4.24,5.907,5.907,0,0,0-4.49,6.022,4.2,4.2,0,0,0,4.953,4.241Z" transform="translate(-529.827 -302.01)" fill="#f5f5f5"/>
        </g>
      </g>
    </g>
  </g>
</svg>
