<svg xmlns="http://www.w3.org/2000/svg" xmlns:xlink="http://www.w3.org/1999/xlink" width="335.136" height="315.464" viewBox="0 0 335.136 315.464">
  <defs>
    <filter id="Ellipse_1102" x="127.979" y="109.464" width="88" height="88" filterUnits="userSpaceOnUse">
      <feOffset dy="3" input="SourceAlpha"/>
      <feGaussianBlur stdDeviation="3" result="blur"/>
      <feFlood flood-opacity="0.161"/>
      <feComposite operator="in" in2="blur"/>
      <feComposite in="SourceGraphic"/>
    </filter>
    <filter id="Path_134759" x="38.979" y="64.464" width="87" height="87.548" filterUnits="userSpaceOnUse">
      <feOffset dy="3" input="SourceAlpha"/>
      <feGaussianBlur stdDeviation="3" result="blur-2"/>
      <feFlood flood-opacity="0.161"/>
      <feComposite operator="in" in2="blur-2"/>
      <feComposite in="SourceGraphic"/>
    </filter>
    <filter id="Ellipse_1102-2" x="217.979" y="152.464" width="88" height="88" filterUnits="userSpaceOnUse">
      <feOffset dy="3" input="SourceAlpha"/>
      <feGaussianBlur stdDeviation="3" result="blur-3"/>
      <feFlood flood-opacity="0.161"/>
      <feComposite operator="in" in2="blur-3"/>
      <feComposite in="SourceGraphic"/>
    </filter>
  </defs>
  <g id="img_clear_benefits_" transform="translate(-819.021 -5398.536)">
    <path id="Path_134760" data-name="Path 134760" d="M-2800.622-3050.84c-78.489-30.49-148.685,1.885-206.727,79.131s54.155,185.536,132.947,215.988,163.778-20.4,182.223-94.179S-2722.133-3020.351-2800.622-3050.84Z" transform="translate(3842.417 8460.738)" fill="#ff975d" opacity="0.15"/>
    <path id="Path_134761" data-name="Path 134761" d="M-2911.033-2758.1c78.489,30.49,148.685-1.885,206.727-79.131s-54.155-185.536-132.947-215.988-163.778,20.4-182.223,94.179S-2989.522-2788.591-2911.033-2758.1Z" transform="translate(3842.417 8460.738)" fill="#ff975d" opacity="0.15"/>
    <g id="savings" transform="translate(5)">
      <path id="Path_134756" data-name="Path 134756" d="M6.135-2.379A2.214,2.214,0,0,1,5.3-.551,3.627,3.627,0,0,1,2.977.117,5.456,5.456,0,0,1,.551-.4V-2.086a10,10,0,0,0,1.468.545,4.343,4.343,0,0,0,1.1.158,1.562,1.562,0,0,0,.917-.229.782.782,0,0,0,.319-.68.75.75,0,0,0-.141-.448A1.574,1.574,0,0,0,3.8-3.117a10.624,10.624,0,0,0-1.11-.58,5.263,5.263,0,0,1-1.178-.709A2.662,2.662,0,0,1,.885-5.2,2.257,2.257,0,0,1,.65-6.252a2.214,2.214,0,0,1,.771-1.787,3.2,3.2,0,0,1,2.13-.65,5.03,5.03,0,0,1,1.274.158,8.76,8.76,0,0,1,1.269.445L5.508-6.674a8.573,8.573,0,0,0-1.134-.393,3.649,3.649,0,0,0-.882-.111,1.168,1.168,0,0,0-.791.24.792.792,0,0,0-.275.627.776.776,0,0,0,.111.419,1.224,1.224,0,0,0,.354.346,10.96,10.96,0,0,0,1.151.6A4.581,4.581,0,0,1,5.689-3.794,2.247,2.247,0,0,1,6.135-2.379ZM12.932,0l-.621-2.039H9.188L8.566,0H6.609L9.633-8.6h2.221L14.889,0ZM11.877-3.562q-.861-2.771-.97-3.135t-.155-.574q-.193.75-1.107,3.709Zm8.977-5h1.834L19.775,0h-1.98L14.889-8.566h1.834l1.611,5.1q.135.451.278,1.052t.179.835a15.008,15.008,0,0,1,.439-1.887ZM23.766,0V-8.566h1.816V0ZM35.338,0H33.029L29.3-6.48H29.25q.111,1.717.111,2.449V0H27.738V-8.566h2.291L33.75-2.15h.041Q33.7-3.82,33.7-4.512V-8.566h1.635Zm5.408-4.811h3.4V-.369a9.581,9.581,0,0,1-1.556.378A10.133,10.133,0,0,1,41.1.117a3.773,3.773,0,0,1-2.962-1.14,4.741,4.741,0,0,1-1.022-3.272A4.316,4.316,0,0,1,38.3-7.529a4.505,4.505,0,0,1,3.29-1.16,6.366,6.366,0,0,1,2.543.527l-.6,1.453a4.31,4.31,0,0,0-1.951-.469,2.41,2.41,0,0,0-1.887.791,3.068,3.068,0,0,0-.709,2.127,3.416,3.416,0,0,0,.571,2.13,1.976,1.976,0,0,0,1.661.735,5.876,5.876,0,0,0,1.154-.117V-3.3H40.746ZM51.24-2.379a2.214,2.214,0,0,1-.835,1.828,3.627,3.627,0,0,1-2.323.668A5.456,5.456,0,0,1,45.656-.4V-2.086a10,10,0,0,0,1.468.545,4.343,4.343,0,0,0,1.1.158,1.562,1.562,0,0,0,.917-.229.782.782,0,0,0,.319-.68.75.75,0,0,0-.141-.448,1.574,1.574,0,0,0-.413-.378,10.624,10.624,0,0,0-1.11-.58,5.263,5.263,0,0,1-1.178-.709A2.662,2.662,0,0,1,45.99-5.2a2.257,2.257,0,0,1-.234-1.055,2.214,2.214,0,0,1,.771-1.787,3.2,3.2,0,0,1,2.13-.65,5.03,5.03,0,0,1,1.274.158,8.76,8.76,0,0,1,1.269.445l-.586,1.412a8.573,8.573,0,0,0-1.134-.393,3.649,3.649,0,0,0-.882-.111,1.168,1.168,0,0,0-.791.24.792.792,0,0,0-.275.627.776.776,0,0,0,.111.419A1.224,1.224,0,0,0,48-5.546a10.961,10.961,0,0,0,1.151.6,4.581,4.581,0,0,1,1.646,1.151A2.247,2.247,0,0,1,51.24-2.379Z" transform="translate(960.449 5603)" fill="#0d1b3a"/>
      <g transform="matrix(1, 0, 0, 1, 814.02, 5398.54)" filter="url(#Ellipse_1102)">
        <circle id="Ellipse_1102-3" data-name="Ellipse 1102" cx="35" cy="35" r="35" transform="translate(136.98 115.46)" fill="#fff"/>
      </g>
      <g id="Group_31126" data-name="Group 31126" transform="translate(-786.775 177.214)">
        <path id="Path_479" data-name="Path 479" d="M102.006,28.013A14.006,14.006,0,1,0,88,14.006,14.022,14.022,0,0,0,102.006,28.013Zm0-26.679A12.672,12.672,0,1,1,89.334,14.006,12.687,12.687,0,0,1,102.006,1.334Z" transform="translate(1671.112 5350.786)" fill="#0d1b3a"/>
        <path id="Path_480" data-name="Path 480" d="M42.686,346.672v-10a.667.667,0,0,0-.667-.667H33.932a.667.667,0,0,0-.667.667v.667H30.014a.667.667,0,0,0-.667.667v1.312a5.343,5.343,0,0,0-6.441.851l-.505.505H19.6A3.982,3.982,0,0,0,16.612,342H15.406l-3.072-.614-2.525-2.525a.667.667,0,0,0-.472-.2h-2V340H9.061l2.473,2.472a.667.667,0,0,0,.341.182l3.335.667a.67.67,0,0,0,.131.013h.482l-.435,1.086a.667.667,0,0,0,.619.915h9.338V344H16.992l.13-.324A2.655,2.655,0,0,1,19.6,342h3.078a.667.667,0,0,0,.472-.2l.7-.7a4,4,0,0,1,5.5-.153v6.505l-9.33,1.866-11.678-2.6-7-7v-.391H3.726l5.14,5.14a.665.665,0,0,0,.224.148l3.335,1.334a.666.666,0,0,0,.248.048h1.334v-1.334H12.8l-3.088-1.235L4.473,338.2A.667.667,0,0,0,4,338H.667a.667.667,0,0,0-.667.667V340a.667.667,0,0,0,.2.472l7.337,7.337a.667.667,0,0,0,.327.179l12.005,2.668a.669.669,0,0,0,.275,0l9.222-1.844a.667.667,0,0,0,.651.523h3.251v.584a.667.667,0,0,0,.667.667h8.087a.667.667,0,0,0,.667-.667v-1.917H41.352v1.251H34.6V349a.664.664,0,0,0,.083-.323V338a.663.663,0,0,0-.083-.323v-.344h6.753v9.338Zm-12.005,1.334v-9.338h2.585v9.338Z" transform="translate(1751.775 5042.799)" fill="#0d1b3a"/>
        <path id="Path_481" data-name="Path 481" d="M448,464h2.668v1.334H448Z" transform="translate(1341.126 4925.471)" fill="#0d1b3a"/>
        <path id="Path_482" data-name="Path 482" d="M210,105.334V104H200v1.334h4.669a2,2,0,0,1,1.887,1.334h-5.221V108h5.221a2,2,0,0,1-1.887,1.334h-3.15a1.519,1.519,0,0,0-.781,2.821l6.256,3.754.686-1.144-6.256-3.754a.185.185,0,0,1,.1-.343h3.15A3.341,3.341,0,0,0,207.937,108h1.4v-1.334h-1.4a3.321,3.321,0,0,0-.6-1.334Z" transform="translate(1568.45 5255.457)" fill="#e36410"/>
      </g>
    </g>
    <g id="correct" transform="translate(-6 -20)">
      <path id="Path_134755" data-name="Path 134755" d="M-22.6-7.215a1.781,1.781,0,0,0-1.533.752,3.526,3.526,0,0,0-.543,2.1q0,2.8,2.076,2.8a6.5,6.5,0,0,0,2.11-.44V-.525A5.807,5.807,0,0,1-22.764-.1,3.451,3.451,0,0,1-25.525-1.2a4.718,4.718,0,0,1-.956-3.176,5.233,5.233,0,0,1,.47-2.284,3.417,3.417,0,0,1,1.349-1.5A3.959,3.959,0,0,1-22.6-8.69a5.518,5.518,0,0,1,2.422.589l-.566,1.441a9.31,9.31,0,0,0-.934-.389A2.759,2.759,0,0,0-22.6-7.215ZM-11.222-4.4a4.567,4.567,0,0,1-1.018,3.191A3.754,3.754,0,0,1-15.16-.1,3.754,3.754,0,0,1-18.08-1.211a4.585,4.585,0,0,1-1.018-3.2A4.522,4.522,0,0,1-18.077-7.6a3.8,3.8,0,0,1,2.928-1.1,3.744,3.744,0,0,1,2.917,1.109A4.579,4.579,0,0,1-11.222-4.4Zm-6.037,0a3.52,3.52,0,0,0,.526,2.11,1.833,1.833,0,0,0,1.573.709q2.1,0,2.1-2.819t-2.088-2.825a1.846,1.846,0,0,0-1.579.712A3.505,3.505,0,0,0-17.259-4.4Zm9.505-.457h.566a2.146,2.146,0,0,0,1.228-.28,1,1,0,0,0,.4-.881.918.918,0,0,0-.4-.846,2.433,2.433,0,0,0-1.253-.252h-.532Zm0,1.441V-.21H-9.508V-8.57H-7.1a4.092,4.092,0,0,1,2.5.62,2.224,2.224,0,0,1,.809,1.884,2.234,2.234,0,0,1-.4,1.312,2.663,2.663,0,0,1-1.137.9Q-3.466-1.034-2.9-.21H-4.846L-6.821-3.418ZM-.1-4.859H.461a2.146,2.146,0,0,0,1.228-.28,1,1,0,0,0,.4-.881.918.918,0,0,0-.4-.846A2.433,2.433,0,0,0,.427-7.117H-.1Zm0,1.441V-.21H-1.859V-8.57H.551a4.092,4.092,0,0,1,2.5.62,2.224,2.224,0,0,1,.809,1.884,2.234,2.234,0,0,1-.4,1.312,2.663,2.663,0,0,1-1.137.9Q4.184-1.034,4.749-.21H2.8L.829-3.418ZM10.554-.21H5.79V-8.57h4.764v1.452H7.544v1.835h2.8V-3.83h-2.8v2.156h3.01Zm5.239-7a1.781,1.781,0,0,0-1.533.752,3.526,3.526,0,0,0-.543,2.1q0,2.8,2.076,2.8a6.5,6.5,0,0,0,2.11-.44V-.525A5.807,5.807,0,0,1,15.629-.1,3.451,3.451,0,0,1,12.868-1.2a4.718,4.718,0,0,1-.956-3.176,5.233,5.233,0,0,1,.47-2.284,3.417,3.417,0,0,1,1.349-1.5,3.959,3.959,0,0,1,2.062-.523,5.518,5.518,0,0,1,2.422.589L17.649-6.66a9.31,9.31,0,0,0-.934-.389A2.759,2.759,0,0,0,15.793-7.215Zm7.061,7H21.1V-7.094H18.854V-8.57H25.1v1.475H22.854Z" transform="translate(907.761 5578.213)" fill="#0d1b3a"/>
      <g id="Group_32159" data-name="Group 32159" transform="translate(873 5489)">
        <g transform="matrix(1, 0, 0, 1, -47.98, -70.46)" filter="url(#Path_134759)">
          <path id="Path_134759-2" data-name="Path 134759" d="M34.5,0A34.775,34.775,0,1,1,0,34.774,34.638,34.638,0,0,1,34.5,0Z" transform="translate(47.98 70.46)" fill="#fff"/>
        </g>
        <g id="Group_33052" data-name="Group 33052" transform="translate(1 -3.316)">
          <path id="Path_132551" data-name="Path 132551" d="M6.339-4.944H3.76V-9.922q0-.907.039-1.659a5.516,5.516,0,0,1-.592.6L2.139-10.1.82-11.717l3.229-2.631h2.29Zm8.914-4.689a6.328,6.328,0,0,1-.836,3.656,2.944,2.944,0,0,1-2.56,1.161,2.907,2.907,0,0,1-2.54-1.212,6.253,6.253,0,0,1-.855-3.6A6.405,6.405,0,0,1,9.3-13.312a2.934,2.934,0,0,1,2.56-1.171,2.9,2.9,0,0,1,2.537,1.219A6.308,6.308,0,0,1,15.253-9.633Zm-4.264,0a8.025,8.025,0,0,0,.2,2.193q.2.6.669.6t.672-.617a8.177,8.177,0,0,0,.2-2.174,8.2,8.2,0,0,0-.2-2.19q-.2-.627-.669-.627t-.669.6A8.172,8.172,0,0,0,10.989-9.633Zm11.982,0a6.328,6.328,0,0,1-.836,3.656,2.944,2.944,0,0,1-2.56,1.161,2.907,2.907,0,0,1-2.54-1.212,6.253,6.253,0,0,1-.855-3.6,6.405,6.405,0,0,1,.836-3.679,2.934,2.934,0,0,1,2.56-1.171,2.9,2.9,0,0,1,2.537,1.219A6.308,6.308,0,0,1,22.971-9.633Zm-4.264,0a8.025,8.025,0,0,0,.2,2.193q.2.6.669.6t.672-.617a8.177,8.177,0,0,0,.2-2.174,8.2,8.2,0,0,0-.2-2.19q-.2-.627-.669-.627t-.669.6A8.172,8.172,0,0,0,18.707-9.633Zm6.9-1.884a3.339,3.339,0,0,0,.122,1.068q.122.328.367.328t.363-.322a3.416,3.416,0,0,0,.119-1.074,3.424,3.424,0,0,0-.119-1.068q-.119-.328-.363-.328t-.37.334A3.433,3.433,0,0,0,25.608-11.517Zm2.914-.026a3.362,3.362,0,0,1-.637,2.19,2.214,2.214,0,0,1-1.814.775,2.133,2.133,0,0,1-1.753-.8,3.347,3.347,0,0,1-.646-2.164,3.332,3.332,0,0,1,.63-2.177,2.168,2.168,0,0,1,1.769-.762,2.211,2.211,0,0,1,1.788.791A3.242,3.242,0,0,1,28.521-11.543Zm4.689-2.8-5.216,9.4h-1.91l5.216-9.4Zm-.45,6.573a3.339,3.339,0,0,0,.122,1.068q.122.328.367.328.277,0,.383-.376a3.9,3.9,0,0,0,.106-1.019,3.9,3.9,0,0,0-.106-1.019q-.106-.376-.383-.376-.251,0-.37.334A3.433,3.433,0,0,0,32.76-7.774ZM35.673-7.8a3.339,3.339,0,0,1-.64,2.184,2.216,2.216,0,0,1-1.811.775,2.133,2.133,0,0,1-1.753-.8A3.336,3.336,0,0,1,30.824-7.8a3.332,3.332,0,0,1,.63-2.177,2.168,2.168,0,0,1,1.769-.762,2.211,2.211,0,0,1,1.788.791A3.242,3.242,0,0,1,35.673-7.8Z" transform="translate(15.18 56.289)" fill="#0d1b3a"/>
          <path id="Path_138109" data-name="Path 138109" d="M223.306,81.558a1.4,1.4,0,0,0-1.924,2.046l5.134,3.956a1.4,1.4,0,0,0,.962.381l.09,0a1.4,1.4,0,0,0,.995-.509l7.342-8.921a1.4,1.4,0,0,0-2.169-1.785l-6.388,7.762Z" transform="translate(-194.94 -51.896)" fill="#ec691f"/>
        </g>
      </g>
    </g>
    <g id="assurance" transform="translate(5)">
      <path id="Path_134757" data-name="Path 134757" d="M6.322,0,5.7-2.039H2.578L1.957,0H0L3.023-8.6H5.244L8.279,0ZM5.268-3.562Q4.406-6.334,4.3-6.7t-.155-.574q-.193.75-1.107,3.709Zm9.146,1.184a2.214,2.214,0,0,1-.835,1.828,3.627,3.627,0,0,1-2.323.668A5.456,5.456,0,0,1,8.83-.4V-2.086a10,10,0,0,0,1.468.545,4.343,4.343,0,0,0,1.1.158,1.562,1.562,0,0,0,.917-.229.782.782,0,0,0,.319-.68.75.75,0,0,0-.141-.448,1.574,1.574,0,0,0-.413-.378,10.624,10.624,0,0,0-1.11-.58,5.263,5.263,0,0,1-1.178-.709A2.662,2.662,0,0,1,9.164-5.2,2.257,2.257,0,0,1,8.93-6.252,2.214,2.214,0,0,1,9.7-8.039a3.2,3.2,0,0,1,2.13-.65,5.03,5.03,0,0,1,1.274.158,8.76,8.76,0,0,1,1.269.445l-.586,1.412a8.573,8.573,0,0,0-1.134-.393,3.649,3.649,0,0,0-.882-.111,1.168,1.168,0,0,0-.791.24.792.792,0,0,0-.275.627.776.776,0,0,0,.111.419,1.224,1.224,0,0,0,.354.346,10.961,10.961,0,0,0,1.151.6,4.581,4.581,0,0,1,1.646,1.151A2.247,2.247,0,0,1,14.414-2.379Zm6.609,0a2.214,2.214,0,0,1-.835,1.828,3.627,3.627,0,0,1-2.323.668A5.456,5.456,0,0,1,15.439-.4V-2.086a10,10,0,0,0,1.468.545,4.343,4.343,0,0,0,1.1.158,1.562,1.562,0,0,0,.917-.229.782.782,0,0,0,.319-.68.75.75,0,0,0-.141-.448,1.574,1.574,0,0,0-.413-.378,10.624,10.624,0,0,0-1.11-.58A5.263,5.263,0,0,1,16.4-4.406a2.662,2.662,0,0,1-.627-.791,2.257,2.257,0,0,1-.234-1.055,2.214,2.214,0,0,1,.771-1.787,3.2,3.2,0,0,1,2.13-.65,5.03,5.03,0,0,1,1.274.158,8.76,8.76,0,0,1,1.269.445L20.4-6.674a8.573,8.573,0,0,0-1.134-.393,3.649,3.649,0,0,0-.882-.111,1.168,1.168,0,0,0-.791.24.792.792,0,0,0-.275.627.776.776,0,0,0,.111.419,1.224,1.224,0,0,0,.354.346,10.961,10.961,0,0,0,1.151.6,4.581,4.581,0,0,1,1.646,1.151A2.247,2.247,0,0,1,21.023-2.379Zm8.525-6.187v5.543a3.2,3.2,0,0,1-.425,1.664A2.765,2.765,0,0,1,27.9-.264,4.39,4.39,0,0,1,26,.117a3.635,3.635,0,0,1-2.566-.847,3,3,0,0,1-.914-2.317v-5.52h1.811v5.244a2.2,2.2,0,0,0,.4,1.453,1.656,1.656,0,0,0,1.318.463,1.619,1.619,0,0,0,1.292-.466,2.208,2.208,0,0,0,.4-1.462V-8.566Zm3.914,3.8h.586a2.242,2.242,0,0,0,1.271-.287,1.025,1.025,0,0,0,.41-.9.937.937,0,0,0-.419-.867,2.542,2.542,0,0,0-1.3-.258h-.551Zm0,1.477V0H31.646V-8.566h2.5a4.272,4.272,0,0,1,2.584.636A2.269,2.269,0,0,1,37.564-6a2.273,2.273,0,0,1-.416,1.345,2.753,2.753,0,0,1-1.178.923Q37.9-.844,38.49,0H36.475L34.43-3.287ZM44.813,0l-.621-2.039H41.068L40.447,0H38.49l3.023-8.6h2.221L46.77,0ZM43.758-3.562Q42.9-6.334,42.788-6.7t-.155-.574q-.193.75-1.107,3.709ZM55.447,0H53.139L49.412-6.48h-.053q.111,1.717.111,2.449V0H47.848V-8.566h2.291L53.859-2.15H53.9q-.088-1.67-.088-2.361V-8.566h1.635Zm5.795-7.178a1.851,1.851,0,0,0-1.588.771,3.585,3.585,0,0,0-.562,2.147q0,2.865,2.15,2.865a6.8,6.8,0,0,0,2.186-.451V-.322a6.069,6.069,0,0,1-2.355.439,3.592,3.592,0,0,1-2.859-1.134,4.8,4.8,0,0,1-.99-3.255,5.315,5.315,0,0,1,.486-2.341,3.515,3.515,0,0,1,1.4-1.541,4.134,4.134,0,0,1,2.136-.536,5.764,5.764,0,0,1,2.508.6l-.586,1.477a9.7,9.7,0,0,0-.967-.4A2.884,2.884,0,0,0,61.242-7.178ZM70.184,0H65.25V-8.566h4.934v1.488H67.066V-5.2h2.9v1.488h-2.9V-1.5h3.117Z" transform="translate(1041 5646)" fill="#0d1b3a"/>
      <g id="Group_32161" data-name="Group 32161" transform="translate(4 60)">
        <g transform="matrix(1, 0, 0, 1, 810.02, 5338.54)" filter="url(#Ellipse_1102-2)">
          <circle id="Ellipse_1102-4" data-name="Ellipse 1102" cx="35" cy="35" r="35" transform="translate(226.98 158.46)" fill="#fff"/>
        </g>
        <g id="Group_31129" data-name="Group 31129" transform="translate(4262 6132)">
          <path id="Path_38507" data-name="Path 38507" d="M.648,175.836l11.288,5.3a.623.623,0,0,0,.364.051l4.12-.673a7.39,7.39,0,0,1,6.438,2.1l3.448,3.491a1.041,1.041,0,0,1-.1,1.55,1.047,1.047,0,0,1-1.243.03L21.6,185.3a1.229,1.229,0,0,0-1.546.093L17.6,187.62a.622.622,0,0,0,.835.921l2.449-2.229,3.362,2.382a2.283,2.283,0,0,0,2.945-3.468l-2.734-2.768a7.827,7.827,0,0,1,4.4.183l1.457.5a1.523,1.523,0,0,0,1.234-.114l.009,0L42.3,176.752a.622.622,0,0,0-.626-1.074L30.934,181.94a.279.279,0,0,1-.223.019l-1.457-.5a9.072,9.072,0,0,0-5.8-.007,8.636,8.636,0,0,0-7.233-2.171l-3.93.642L1.176,174.711a.621.621,0,1,0-.528,1.125Z" transform="translate(-3211.29 -781.178)" fill="#0d1b3a"/>
          <path id="Path_38508" data-name="Path 38508" d="M42.632,315.4a.622.622,0,0,0-.831-.286l-5.468,2.671a.621.621,0,0,0-.234.2l-.44.62a6.258,6.258,0,0,1-2,1.815,2.184,2.184,0,0,0-.21-.287l-1.086-1.25a2.19,2.19,0,0,0-3.086-.216l-.089.078a2.18,2.18,0,0,0-.747,1.526l-.029,0a2.173,2.173,0,0,0-1.588.531l-.09.078a2.181,2.181,0,0,0-.748,1.527,2.18,2.18,0,0,0-1.616.527l-.09.078a2.181,2.181,0,0,0-.748,1.527,2.18,2.18,0,0,0-1.616.527l-.089.078a2.187,2.187,0,0,0-.216,3.086l.525.6-.209.185-.011.01a1.088,1.088,0,0,1-1.47-.019,1,1,0,0,1-.023-1.323.622.622,0,0,0-.9-.857l-.067.062a1.088,1.088,0,0,1-1.47-.019,1,1,0,0,1-.015-1.333.622.622,0,0,0-.892-.863l-.019.017a1.088,1.088,0,0,1-1.47-.019,1,1,0,0,1-.022-1.324.622.622,0,0,0-.754-.958,1,1,0,0,1-1.208-.235,1.033,1.033,0,0,1,.1-1.419l.668-.592,2.085-1.892a.622.622,0,0,0-.835-.921l-2.079,1.887-.669.593-.011.01a2.3,2.3,0,0,0-.669,1.15l0,0a10.277,10.277,0,0,1-2.954-2.512l-.354-.441a.621.621,0,0,0-.211-.169l-7.482-3.66a.622.622,0,0,0-.546,1.117L8,318.907l.268.333a11.515,11.515,0,0,0,3.31,2.814l.774.439a2.159,2.159,0,0,0,.32.485,2.244,2.244,0,0,0,1.431.753,2.244,2.244,0,0,0,.585,1.8l.016.016a2.309,2.309,0,0,0,1.777.664,2.242,2.242,0,0,0,.6,1.517l.016.016a2.312,2.312,0,0,0,1.841.659,2.241,2.241,0,0,0,.6,1.461l.016.016a2.328,2.328,0,0,0,3.2.064l.222-.2a2.171,2.171,0,0,0,1.218.478q.078.005.156.005a2.171,2.171,0,0,0,1.431-.536l.09-.078a2.181,2.181,0,0,0,.748-1.527c.061.005.122.008.183.008a2.178,2.178,0,0,0,1.433-.535l.089-.078a2.18,2.18,0,0,0,.748-1.527c.061.005.122.008.183.008a2.178,2.178,0,0,0,1.433-.535l.089-.078a2.173,2.173,0,0,0,.747-1.5c0-.01,0-.019,0-.029.06,0,.121.008.182.008a2.178,2.178,0,0,0,1.433-.535l.09-.078a2.181,2.181,0,0,0,.749-1.561,7.5,7.5,0,0,0,2.7-2.334l.348-.491,5.326-2.6A.621.621,0,0,0,42.632,315.4ZM25.053,328.68l-.09.078a.944.944,0,0,1-1.332-.093l-1.086-1.25a.944.944,0,0,1,.093-1.332l.089-.078a.945.945,0,0,1,1.332.093l1.086,1.25a.945.945,0,0,1-.093,1.332Zm2.453-2.132-.089.078a.945.945,0,0,1-1.332-.093L25,325.282a.945.945,0,0,1,.093-1.332l.09-.078a.945.945,0,0,1,1.332.093l1.086,1.25A.945.945,0,0,1,27.506,326.548Zm2.776-2.779a.938.938,0,0,1-.323.647l-.089.078a.945.945,0,0,1-1.332-.093l-1.086-1.25a.945.945,0,0,1,.093-1.332l.09-.078a.937.937,0,0,1,.618-.232l.067,0a.938.938,0,0,1,.647.323l1.086,1.25a.938.938,0,0,1,.229.686Zm2.131-1.485-.09.078a.945.945,0,0,1-1.332-.093l-1.086-1.25A.944.944,0,0,1,30,319.686l.089-.078a.945.945,0,0,1,1.332.093l1.086,1.25A.945.945,0,0,1,32.413,322.284Z" transform="translate(-3211.291 -909.097)" fill="#0d1b3a"/>
          <path id="Path_38509" data-name="Path 38509" d="M159.033,17.392l1.72.631a1.425,1.425,0,0,0,.98,0l1.72-.631a9.645,9.645,0,0,0,6.136-7.16.622.622,0,1,0-1.219-.244,8.452,8.452,0,0,1-5.345,6.237l-1.72.631a.18.18,0,0,1-.124,0l-1.72-.631a8.431,8.431,0,0,1-5.509-7.888v-5.4a.308.308,0,0,1,.249-.3l7.081-1.379,7,1.378a.308.308,0,0,1,.248.3V7.461a.622.622,0,1,0,1.243,0V2.934a1.554,1.554,0,0,0-1.251-1.521L161.4.012a.622.622,0,0,0-.239,0l-7.2,1.4a1.553,1.553,0,0,0-1.254,1.522v5.4A9.678,9.678,0,0,0,159.033,17.392Z" transform="translate(-3351.078 -621)" fill="#0d1b3a"/>
          <path id="Path_38510" data-name="Path 38510" d="M188.913,30.58a.62.62,0,0,0-.239,0l-5.463,1.064a.621.621,0,0,0-.5.61v4.119a7.183,7.183,0,0,0,4.694,6.721l1.14.418a.622.622,0,0,0,.428,0l1.14-.418a7.183,7.183,0,0,0,4.694-6.721V32.25a.622.622,0,0,0-.5-.61Zm4.648,5.793a5.936,5.936,0,0,1-3.879,5.554l-.926.34-.926-.34a5.936,5.936,0,0,1-3.879-5.554V32.766l4.841-.943,4.769.938Z" transform="translate(-3378.592 -649.035)" fill="#ec691f"/>
          <path id="Path_38511" data-name="Path 38511" d="M224.854,79.385a.622.622,0,0,0-.852.906l1,.943a.621.621,0,0,0,.426.169h.04a.622.622,0,0,0,.44-.225l3.249-3.948a.622.622,0,1,0-.96-.79l-2.827,3.435Z" transform="translate(-3416.284 -690.896)" fill="#ec691f"/>
        </g>
      </g>
    </g>
  </g>
</svg>
