<svg xmlns="http://www.w3.org/2000/svg" width="512" height="512" viewBox="0 0 512 512">
  <g id="img_dynamic_control" transform="translate(-1541 -6796)">
    <g id="Path_64277" data-name="Path 64277" transform="translate(1541 6796)" fill="none">
      <path d="M256,0C397.385,0,512,114.615,512,256S397.385,512,256,512,0,397.385,0,256,114.615,0,256,0Z" stroke="none"/>
      <path d="M 256 12 C 121.4579162597656 12 12 121.4579162597656 12 256 C 12 390.5420837402344 121.4579162597656 500 256 500 C 390.5420837402344 500 500 390.5420837402344 500 256 C 500 121.4579162597656 390.5420837402344 12 256 12 M 256 0 C 397.3848571777344 0 512 114.6150817871094 512 256 C 512 397.3848571777344 397.3848571777344 512 256 512 C 114.6150817871094 512 0 397.3848571777344 0 256 C 0 114.6150817871094 114.6150817871094 0 256 0 Z" stroke="none" fill="#0d1b3a"/>
    </g>
    <g id="Group_11601" data-name="Group 11601" transform="translate(-292.998 -830)">
      <g id="Path_64276" data-name="Path 64276" transform="translate(-18632.002 -1280)" fill="#0d1b3a">
        <path d="M 20821.09375 9290.7880859375 C 20804.888671875 9290.7880859375 20791.705078125 9277.5888671875 20791.705078125 9261.365234375 C 20791.705078125 9245.1416015625 20804.888671875 9231.943359375 20821.09375 9231.943359375 C 20837.33203125 9231.943359375 20850.54296875 9245.1416015625 20850.54296875 9261.365234375 C 20850.54296875 9277.5888671875 20837.33203125 9290.7880859375 20821.09375 9290.7880859375 Z M 20821.09375 9242.06640625 C 20810.455078125 9242.06640625 20801.798828125 9250.7236328125 20801.798828125 9261.365234375 C 20801.798828125 9272.0068359375 20810.455078125 9280.6650390625 20821.09375 9280.6650390625 C 20831.73828125 9280.6650390625 20840.396484375 9272.0068359375 20840.396484375 9261.365234375 C 20840.396484375 9250.7236328125 20831.73828125 9242.06640625 20821.09375 9242.06640625 Z M 20769.017578125 9267.103515625 L 20593.734375 9267.103515625 C 20590.572265625 9267.103515625 20588 9264.529296875 20588 9261.365234375 C 20588 9258.201171875 20590.572265625 9255.626953125 20593.734375 9255.626953125 L 20769.017578125 9255.626953125 C 20772.18359375 9255.626953125 20774.759765625 9258.201171875 20774.759765625 9261.365234375 C 20774.759765625 9264.529296875 20772.18359375 9267.103515625 20769.017578125 9267.103515625 Z M 20849.54296875 9167.6318359375 L 20764.283203125 9167.6318359375 C 20762.744140625 9167.6318359375 20761.302734375 9167.0361328125 20760.22265625 9165.9541015625 C 20759.142578125 9164.8740234375 20758.548828125 9163.4326171875 20758.548828125 9161.8974609375 C 20758.548828125 9160.359375 20759.142578125 9158.9169921875 20760.22265625 9157.8359375 C 20761.30078125 9156.7548828125 20762.744140625 9156.1591796875 20764.283203125 9156.1591796875 L 20849.54296875 9156.1591796875 C 20852.708984375 9156.1591796875 20855.28515625 9158.7333984375 20855.28515625 9161.8974609375 C 20855.28515625 9165.0595703125 20852.708984375 9167.6318359375 20849.54296875 9167.6318359375 Z M 20679.015625 9167.6318359375 L 20593.734375 9167.6318359375 C 20590.572265625 9167.6318359375 20588 9165.0595703125 20588 9161.8974609375 C 20588 9158.7333984375 20590.572265625 9156.1591796875 20593.734375 9156.1591796875 L 20679.015625 9156.1591796875 C 20682.181640625 9156.1591796875 20684.7578125 9158.7333984375 20684.7578125 9161.8974609375 C 20684.7578125 9165.0595703125 20682.181640625 9167.6318359375 20679.015625 9167.6318359375 Z M 20617.421875 9091.8447265625 C 20601.19921875 9091.8447265625 20588 9078.6455078125 20588 9062.421875 C 20588 9046.1982421875 20601.19921875 9033 20617.421875 9033 C 20633.646484375 9033 20646.845703125 9046.1982421875 20646.845703125 9062.421875 C 20646.845703125 9078.6455078125 20633.646484375 9091.8447265625 20617.421875 9091.8447265625 Z M 20617.421875 9043.123046875 C 20606.783203125 9043.123046875 20598.126953125 9051.7802734375 20598.126953125 9062.421875 C 20598.126953125 9073.0634765625 20606.783203125 9081.7216796875 20617.421875 9081.7216796875 C 20628.0625 9081.7216796875 20636.71875 9073.0634765625 20636.71875 9062.421875 C 20636.71875 9051.7802734375 20628.0625 9043.123046875 20617.421875 9043.123046875 Z M 20849.54296875 9068.16015625 L 20669.546875 9068.16015625 C 20668.0078125 9068.16015625 20666.5625 9067.5654296875 20665.4765625 9066.4853515625 C 20664.390625 9065.4033203125 20663.791015625 9063.9599609375 20663.791015625 9062.421875 C 20663.791015625 9060.8837890625 20664.390625 9059.44140625 20665.4765625 9058.359375 C 20666.5625 9057.2783203125 20668.0078125 9056.68359375 20669.546875 9056.68359375 L 20849.54296875 9056.68359375 C 20852.708984375 9056.68359375 20855.28515625 9059.2578125 20855.28515625 9062.421875 C 20855.28515625 9065.5859375 20852.708984375 9068.16015625 20849.54296875 9068.16015625 Z" stroke="none"/>
        <path d="M 20821.09375 9289.7880859375 C 20836.7578125 9289.7880859375 20849.54296875 9277.046875 20849.54296875 9261.365234375 C 20849.54296875 9245.6845703125 20836.7578125 9232.943359375 20821.09375 9232.943359375 C 20805.443359375 9232.943359375 20792.705078125 9245.6845703125 20792.705078125 9261.365234375 C 20792.705078125 9277.046875 20805.443359375 9289.7880859375 20821.09375 9289.7880859375 M 20821.09375 9241.06640625 C 20832.291015625 9241.06640625 20841.396484375 9250.17578125 20841.396484375 9261.365234375 C 20841.396484375 9272.5546875 20832.291015625 9281.6650390625 20821.09375 9281.6650390625 C 20809.912109375 9281.6650390625 20800.798828125 9272.5546875 20800.798828125 9261.365234375 C 20800.798828125 9250.17578125 20809.912109375 9241.06640625 20821.09375 9241.06640625 M 20769.017578125 9266.103515625 C 20771.62109375 9266.103515625 20773.759765625 9263.9931640625 20773.759765625 9261.365234375 C 20773.759765625 9258.73828125 20771.62109375 9256.626953125 20769.017578125 9256.626953125 L 20593.734375 9256.626953125 C 20591.138671875 9256.626953125 20589 9258.73828125 20589 9261.365234375 C 20589 9263.9931640625 20591.138671875 9266.103515625 20593.734375 9266.103515625 L 20769.017578125 9266.103515625 M 20849.54296875 9166.6318359375 C 20852.1484375 9166.6318359375 20854.28515625 9164.5185546875 20854.28515625 9161.8974609375 C 20854.28515625 9159.26953125 20852.1484375 9157.1591796875 20849.54296875 9157.1591796875 L 20764.283203125 9157.1591796875 C 20761.65234375 9157.1591796875 20759.548828125 9159.26953125 20759.548828125 9161.8974609375 C 20759.548828125 9164.5185546875 20761.65234375 9166.6318359375 20764.283203125 9166.6318359375 L 20849.54296875 9166.6318359375 M 20679.015625 9166.6318359375 C 20681.619140625 9166.6318359375 20683.7578125 9164.5185546875 20683.7578125 9161.8974609375 C 20683.7578125 9159.26953125 20681.619140625 9157.1591796875 20679.015625 9157.1591796875 L 20593.734375 9157.1591796875 C 20591.138671875 9157.1591796875 20589 9159.26953125 20589 9161.8974609375 C 20589 9164.5185546875 20591.138671875 9166.6318359375 20593.734375 9166.6318359375 L 20679.015625 9166.6318359375 M 20617.421875 9090.8447265625 C 20633.072265625 9090.8447265625 20645.845703125 9078.103515625 20645.845703125 9062.421875 C 20645.845703125 9046.7412109375 20633.072265625 9034 20617.421875 9034 C 20601.759765625 9034 20589 9046.7412109375 20589 9062.421875 C 20589 9078.103515625 20601.759765625 9090.8447265625 20617.421875 9090.8447265625 M 20617.421875 9042.123046875 C 20628.60546875 9042.123046875 20637.71875 9051.232421875 20637.71875 9062.421875 C 20637.71875 9073.615234375 20628.60546875 9082.7216796875 20617.421875 9082.7216796875 C 20606.2265625 9082.7216796875 20597.126953125 9073.615234375 20597.126953125 9062.421875 C 20597.126953125 9051.232421875 20606.2265625 9042.123046875 20617.421875 9042.123046875 M 20849.54296875 9067.16015625 C 20852.1484375 9067.16015625 20854.28515625 9065.0498046875 20854.28515625 9062.421875 C 20854.28515625 9059.794921875 20852.1484375 9057.68359375 20849.54296875 9057.68359375 L 20669.546875 9057.68359375 C 20666.916015625 9057.68359375 20664.791015625 9059.794921875 20664.791015625 9062.421875 C 20664.791015625 9065.0498046875 20666.916015625 9067.16015625 20669.546875 9067.16015625 L 20849.54296875 9067.16015625 M 20821.09375 9291.7880859375 C 20804.337890625 9291.7880859375 20790.705078125 9278.140625 20790.705078125 9261.365234375 C 20790.705078125 9244.5908203125 20804.337890625 9230.943359375 20821.09375 9230.943359375 C 20837.8828125 9230.943359375 20851.54296875 9244.5908203125 20851.54296875 9261.365234375 C 20851.54296875 9278.140625 20837.8828125 9291.7880859375 20821.09375 9291.7880859375 Z M 20821.09375 9243.06640625 C 20811.005859375 9243.06640625 20802.798828125 9251.275390625 20802.798828125 9261.365234375 C 20802.798828125 9271.4560546875 20811.005859375 9279.6650390625 20821.09375 9279.6650390625 C 20831.185546875 9279.6650390625 20839.396484375 9271.4560546875 20839.396484375 9261.365234375 C 20839.396484375 9251.275390625 20831.185546875 9243.06640625 20821.09375 9243.06640625 Z M 20769.017578125 9268.103515625 L 20593.734375 9268.103515625 C 20590.021484375 9268.103515625 20587 9265.0810546875 20587 9261.365234375 C 20587 9257.6494140625 20590.021484375 9254.626953125 20593.734375 9254.626953125 L 20769.017578125 9254.626953125 C 20772.734375 9254.626953125 20775.759765625 9257.6494140625 20775.759765625 9261.365234375 C 20775.759765625 9265.0810546875 20772.734375 9268.103515625 20769.017578125 9268.103515625 Z M 20849.54296875 9168.6318359375 L 20764.283203125 9168.6318359375 C 20762.4765625 9168.6318359375 20760.783203125 9167.931640625 20759.513671875 9166.6611328125 C 20758.24609375 9165.3916015625 20757.548828125 9163.7001953125 20757.548828125 9161.8974609375 C 20757.548828125 9160.091796875 20758.24609375 9158.3994140625 20759.513671875 9157.1298828125 C 20760.783203125 9155.859375 20762.4765625 9155.1591796875 20764.283203125 9155.1591796875 L 20849.54296875 9155.1591796875 C 20853.259765625 9155.1591796875 20856.28515625 9158.181640625 20856.28515625 9161.8974609375 C 20856.28515625 9165.6103515625 20853.259765625 9168.6318359375 20849.54296875 9168.6318359375 Z M 20679.015625 9168.6318359375 L 20593.734375 9168.6318359375 C 20590.021484375 9168.6318359375 20587 9165.6103515625 20587 9161.8974609375 C 20587 9158.181640625 20590.021484375 9155.1591796875 20593.734375 9155.1591796875 L 20679.015625 9155.1591796875 C 20682.732421875 9155.1591796875 20685.7578125 9158.181640625 20685.7578125 9161.8974609375 C 20685.7578125 9165.6103515625 20682.732421875 9168.6318359375 20679.015625 9168.6318359375 Z M 20617.421875 9092.8447265625 C 20600.646484375 9092.8447265625 20587 9079.197265625 20587 9062.421875 C 20587 9045.6474609375 20600.646484375 9032 20617.421875 9032 C 20634.197265625 9032 20647.845703125 9045.6474609375 20647.845703125 9062.421875 C 20647.845703125 9079.197265625 20634.197265625 9092.8447265625 20617.421875 9092.8447265625 Z M 20617.421875 9044.123046875 C 20607.333984375 9044.123046875 20599.126953125 9052.33203125 20599.126953125 9062.421875 C 20599.126953125 9072.5126953125 20607.333984375 9080.7216796875 20617.421875 9080.7216796875 C 20627.51171875 9080.7216796875 20635.71875 9072.5126953125 20635.71875 9062.421875 C 20635.71875 9052.33203125 20627.51171875 9044.123046875 20617.421875 9044.123046875 Z M 20849.54296875 9069.16015625 L 20669.546875 9069.16015625 C 20667.7421875 9069.16015625 20666.044921875 9068.4619140625 20664.771484375 9067.1943359375 C 20663.494140625 9065.9228515625 20662.791015625 9064.228515625 20662.791015625 9062.421875 C 20662.791015625 9060.6162109375 20663.494140625 9058.921875 20664.771484375 9057.650390625 C 20666.044921875 9056.3818359375 20667.7421875 9055.68359375 20669.546875 9055.68359375 L 20849.54296875 9055.68359375 C 20853.259765625 9055.68359375 20856.28515625 9058.7060546875 20856.28515625 9062.421875 C 20856.28515625 9066.1376953125 20853.259765625 9069.16015625 20849.54296875 9069.16015625 Z" stroke="none" fill="#0d1b3a"/>
      </g>
      <path id="Path_64274" data-name="Path 64274" d="M20617.416,9090.845a28.422,28.422,0,1,1,28.43-28.424A28.449,28.449,0,0,1,20617.416,9090.845Zm0-48.721a20.3,20.3,0,1,0,20.289,20.3A20.32,20.32,0,0,0,20617.416,9042.124Z" transform="translate(-18527.791 -1180.526)" fill="#ec691f"/>
    </g>
  </g>
</svg>
