<svg xmlns="http://www.w3.org/2000/svg" xmlns:xlink="http://www.w3.org/1999/xlink" width="1289.833" height="876.864" viewBox="0 0 1289.833 876.864">
  <defs>
    <clipPath id="clip-path">
      <path id="Path_62587" data-name="Path 62587" d="M1357.43,667.454l-.01,0Z" fill="#eee"/>
    </clipPath>
    <clipPath id="clip-path-2">
      <path id="Path_62590" data-name="Path 62590" d="M1180.219,703.043l-.01.006Z" fill="#eee"/>
    </clipPath>
    <clipPath id="clip-path-3">
      <path id="Path_62593" data-name="Path 62593" d="M1724.4,713.63h0l-.01,0Z" fill="#2b64a3"/>
    </clipPath>
    <clipPath id="clip-path-4">
      <path id="Path_62596" data-name="Path 62596" d="M1712.8,713.62a12.776,12.776,0,0,1,11.588.005A12.776,12.776,0,0,0,1712.8,713.62Z" fill="#2b64a3"/>
    </clipPath>
    <clipPath id="clip-path-5">
      <path id="Path_62599" data-name="Path 62599" d="M1712.8,713.62l-.01.007Z" fill="#2b64a3"/>
    </clipPath>
    <clipPath id="clip-path-6">
      <path id="Path_62602" data-name="Path 62602" d="M1244.182,739.993h0l.01,0Z" fill="#eee"/>
    </clipPath>
    <clipPath id="clip-path-7">
      <path id="Path_62605" data-name="Path 62605" d="M1095.287,759.126l.01,0-.01,0Z" fill="#eee"/>
    </clipPath>
    <clipPath id="clip-path-8">
      <path id="Path_62608" data-name="Path 62608" d="M1403.492,765.337h0l-.01.006Z" fill="#eee"/>
    </clipPath>
    <clipPath id="clip-path-9">
      <path id="Path_62611" data-name="Path 62611" d="M1527.576,767.352l-.01.007.01-.007Z" fill="#eee"/>
    </clipPath>
    <clipPath id="clip-path-10">
      <path id="Path_62614" data-name="Path 62614" d="M1158.922,782.477h0l-.01,0Z" fill="#eee"/>
    </clipPath>
    <clipPath id="clip-path-11">
      <path id="Path_62618" data-name="Path 62618" d="M1479.09,809.007l.01-.007Z" fill="#eee"/>
    </clipPath>
    <clipPath id="clip-path-12">
      <path id="Path_62621" data-name="Path 62621" d="M1086.67,824.444l.01.006Z" fill="#eee"/>
    </clipPath>
    <clipPath id="clip-path-13">
      <path id="Path_62624" data-name="Path 62624" d="M1211.98,890.11h0l.01,0Z" fill="#eee"/>
    </clipPath>
    <linearGradient id="linear-gradient" x1="56.483" y1="0.138" x2="55.531" y2="0.929" gradientUnits="objectBoundingBox">
      <stop offset="0" stop-color="#c2c1c1"/>
      <stop offset="1" stop-color="#dfdedd"/>
    </linearGradient>
    <linearGradient id="linear-gradient-2" x1="73.475" y1="0.138" x2="72.523" y2="0.929" xlink:href="#linear-gradient"/>
  </defs>
  <g id="img_trip_management" transform="translate(-469 -423.136)">
    <g id="Group_11551" data-name="Group 11551" transform="translate(0.479)">
      <path id="Path_62552" data-name="Path 62552" d="M1441.721,727.12c4.8,2.772,4.826,7.306.058,10.075L1340.65,795.966c-4.769,2.771-12.6,2.771-17.4,0l-71.545-41.307c-4.8-2.768-4.824-7.3-.053-10.075l101.129-58.771c4.768-2.769,12.594-2.769,17.391,0Z" fill="#eee"/>
      <path id="Path_62553" data-name="Path 62553" d="M1366.273,919.549c4.8,2.772,4.827,7.3.059,10.077l-23.117,13.433c-4.768,2.769-12.594,2.769-17.4,0l-27.047-15.616c-4.8-2.77-4.822-7.3-.056-10.075l23.115-13.432c4.769-2.772,12.6-2.772,17.4,0Z" fill="#eee"/>
      <path id="Path_62554" data-name="Path 62554" d="M1431.131,956.995c4.8,2.768,4.822,7.3.053,10.073L1408.068,980.5c-4.767,2.768-12.593,2.768-17.39,0l-27.047-15.616c-4.8-2.771-4.826-7.305-.059-10.075l23.116-13.434c4.769-2.771,12.595-2.771,17.4,0Z" fill="#eee"/>
      <path id="Path_62555" data-name="Path 62555" d="M1619.547,903.767c4.818,2.781,4.844,7.29.057,10.072L1518.475,972.61c-4.789,2.782-12.575,2.782-17.393,0l-140.473-81.1c-4.82-2.783-4.845-7.292-.056-10.075l101.129-58.77c4.789-2.783,12.572-2.783,17.39,0Z" fill="#eee"/>
      <path id="Path_62556" data-name="Path 62556" d="M1569.721,652.734c4.818,2.782,4.847,7.293.06,10.075l-93.906,54.573c-4.787,2.781-12.578,2.782-17.4,0l-71.545-41.307c-4.819-2.781-4.842-7.293-.055-10.075l93.906-54.571c4.787-2.782,12.572-2.782,17.393,0Z" fill="#eee"/>
      <path id="Path_62557" data-name="Path 62557" d="M1607.994,756.84c4.8,2.771,4.822,7.3.057,10.075l-23.117,13.432c-4.768,2.774-12.6,2.774-17.393,0L1496,739.043c-4.8-2.771-4.826-7.305-.055-10.076l23.114-13.434c4.767-2.769,12.593-2.769,17.4,0Z" fill="#eee"/>
      <path id="Path_62558" data-name="Path 62558" d="M1504.551,765.405c4.8,2.77,4.824,7.3.058,10.074l-23.117,13.434c-4.765,2.769-12.594,2.769-17.39,0L1437.055,773.3c-4.8-2.773-4.826-7.307-.061-10.076l23.117-13.433c4.766-2.771,12.594-2.771,17.4,0Z" fill="#eee"/>
      <path id="Path_62559" data-name="Path 62559" d="M1444.453,800.332c4.8,2.77,4.822,7.3.055,10.074l-164.987,95.879c-4.767,2.77-12.593,2.77-17.392,0l-27.045-15.614c-4.8-2.773-4.828-7.306-.061-10.077l164.989-95.879c4.765-2.772,12.593-2.772,17.394,0Z" fill="#eee"/>
      <path id="Path_62560" data-name="Path 62560" d="M1219.514,905.782c4.8,2.769,4.824,7.3.056,10.075l-101.131,58.769c-4.765,2.77-12.591,2.77-17.39,0L982.1,905.949c-4.8-2.769-4.825-7.3-.057-10.074L1083.172,837.1c4.765-2.768,12.592-2.768,17.388,0Z" fill="#eee"/>
      <path id="Path_62561" data-name="Path 62561" d="M787.781,580.536c4.8,2.77,4.823,7.3.057,10.074L700,641.658c-4.768,2.77-12.594,2.77-17.393,0l-71.546-41.31c-4.8-2.769-4.822-7.3-.057-10.075l87.84-51.044c4.767-2.771,12.594-2.771,17.392,0Z" fill="#eee"/>
      <path id="Path_62562" data-name="Path 62562" d="M926.873,571.467c4.8,2.771,4.826,7.3.061,10.074L761.945,677.422c-4.765,2.769-12.593,2.769-17.392,0l-27.047-15.616c-4.8-2.771-4.824-7.3-.057-10.074l164.987-95.881c4.767-2.77,12.593-2.77,17.392,0Z" fill="#eee"/>
      <path id="Path_62563" data-name="Path 62563" d="M1033.043,635.1c4.8,2.772,4.822,7.3.057,10.075L931.969,703.95c-4.766,2.771-12.594,2.771-17.391,0l-71.547-41.306c-4.8-2.771-4.824-7.3-.056-10.074L944.1,593.8c4.767-2.772,12.595-2.772,17.392,0Z" fill="#eee"/>
      <path id="Path_62564" data-name="Path 62564" d="M848.7,690.688c4.8,2.769,4.823,7.3.057,10.074L825.637,714.2c-4.766,2.77-12.592,2.77-17.391,0L781.2,698.579c-4.8-2.771-4.824-7.306-.056-10.076l23.115-13.431c4.766-2.771,12.594-2.771,17.391,0Z" fill="#eee"/>
      <path id="Path_62565" data-name="Path 62565" d="M723.924,684.1c4.8,2.769,4.822,7.3.056,10.074l-23.117,13.433c-4.765,2.77-12.591,2.77-17.39,0l-27.049-15.616c-4.8-2.771-4.824-7.306-.057-10.076l23.115-13.431c4.766-2.771,12.594-2.771,17.391,0Z" fill="#eee"/>
      <path id="Path_62566" data-name="Path 62566" d="M1150.525,700.593c4.8,2.768,4.823,7.3.057,10.073l-43.92,25.522c-4.769,2.773-12.6,2.773-17.393,0l-69.509-40.13c-4.8-2.77-4.824-7.3-.055-10.076l43.92-25.523c4.766-2.77,12.594-2.77,17.391,0Z" fill="#eee"/>
      <path id="Path_62567" data-name="Path 62567" d="M913.551,728.131c4.8,2.77,4.824,7.3.058,10.074l-23.115,13.434c-4.767,2.771-12.594,2.771-17.394,0l-27.047-15.617c-4.8-2.768-4.824-7.3-.057-10.072l23.115-13.433c4.768-2.771,12.594-2.771,17.393,0Z" fill="#eee"/>
      <path id="Path_62568" data-name="Path 62568" d="M1199.967,729.138c4.8,2.768,4.824,7.3.056,10.074l-43.92,25.523c-4.769,2.771-12.595,2.771-17.394,0l-9.016-5.207c-4.8-2.769-4.824-7.3-.054-10.075l43.92-25.523c4.767-2.77,12.593-2.77,17.392,0Z" fill="#eee"/>
      <path id="Path_62569" data-name="Path 62569" d="M853.449,763.057c4.8,2.771,4.828,7.3.061,10.075l-23.117,13.434c-4.766,2.77-12.592,2.77-17.393,0l-89.285-51.548c-4.8-2.771-4.824-7.3-.059-10.075l23.117-13.433c4.768-2.771,12.594-2.771,17.391,0Z" fill="#eee"/>
      <path id="Path_62570" data-name="Path 62570" d="M1112.4,776.657c4.817,2.78,4.844,7.293.057,10.076l-18.492,10.745c-4.787,2.782-12.574,2.782-17.393,0L957.619,728.8c-4.818-2.784-4.844-7.292-.056-10.074l18.492-10.747c4.789-2.781,12.572-2.781,17.39,0Z" fill="#eee"/>
      <path id="Path_62571" data-name="Path 62571" d="M792.662,806.64c4.8,2.771,4.826,7.3.059,10.075L769.6,830.149c-4.767,2.77-12.593,2.77-17.392,0L543.687,709.754c-4.8-2.771-4.826-7.305-.06-10.074l23.116-13.434c4.767-2.77,12.593-2.77,17.394,0Z" fill="#eee"/>
      <path id="Path_62572" data-name="Path 62572" d="M1302.74,807.887c4.8,2.771,4.826,7.3.057,10.075l-87.838,51.048c-4.768,2.77-12.6,2.77-17.4,0L1126.019,827.7c-4.8-2.769-4.822-7.3-.056-10.073l87.838-51.047c4.769-2.772,12.6-2.772,17.4,0Z" fill="#eee"/>
      <path id="Path_62573" data-name="Path 62573" d="M982.188,767.76c4.8,2.768,4.824,7.3.056,10.073L817.262,873.711c-4.772,2.772-12.6,2.772-17.4,0L772.816,858.1c-4.8-2.77-4.822-7.3-.052-10.076l164.984-95.879c4.766-2.771,12.594-2.771,17.391,0Z" fill="#eee"/>
      <path id="Path_62574" data-name="Path 62574" d="M1054.023,809.232c4.819,2.784,4.844,7.291.057,10.075L824.66,952.631c-4.787,2.783-12.572,2.783-17.39,0l-27.047-15.615c-4.821-2.784-4.85-7.293-.061-10.076l229.42-133.325c4.787-2.782,12.576-2.781,17.4,0Z" fill="#eee"/>
      <path id="Path_62575" data-name="Path 62575" d="M983.973,466.521c4.8,2.769,4.824,7.3.054,10.076l-23.113,13.431c-4.769,2.773-12.6,2.773-17.394,0l-71.545-41.307c-4.8-2.77-4.825-7.3-.055-10.074l23.113-13.433c4.77-2.772,12.6-2.772,17.395,0Z" fill="#eee"/>
      <path id="Path_62576" data-name="Path 62576" d="M926.762,499.767c4.82,2.784,4.842,7.293.056,10.076l-101.129,58.77c-4.787,2.78-12.576,2.782-17.394,0l-33.736-19.477c-4.819-2.786-4.844-7.3-.057-10.079L875.629,480.29c4.787-2.781,12.578-2.781,17.4,0Z" fill="#eee"/>
      <path id="Path_62577" data-name="Path 62577" d="M1096.031,598.5c4.8,2.771,4.822,7.306.057,10.074l-23.115,13.434c-4.768,2.769-12.594,2.769-17.393,0L984.035,580.7c-4.8-2.77-4.824-7.305-.058-10.074l23.117-13.435c4.765-2.769,12.594-2.769,17.39,0Z" fill="#eee"/>
      <path id="Path_62578" data-name="Path 62578" d="M1377.09,626.206c4.8,2.769,4.822,7.3.057,10.073l-23.118,13.435c-4.767,2.768-12.593,2.768-17.39,0l-208.528-120.4c-4.8-2.769-4.824-7.3-.056-10.073l23.115-13.434c4.767-2.77,12.594-2.77,17.39,0Z" fill="#eee"/>
      <path id="Path_62579" data-name="Path 62579" d="M1319.012,659.956c4.8,2.77,4.824,7.3.054,10.075L1242.209,714.7c-4.768,2.771-12.594,2.771-17.391,0l-118.953-68.677c-4.8-2.77-4.824-7.3-.056-10.074l76.857-44.663c4.769-2.771,12.6-2.771,17.394,0Z" fill="#eee"/>
      <path id="Path_62580" data-name="Path 62580" d="M1090.416,527.975c4.8,2.772,4.826,7.306.057,10.078l-23.114,13.432c-4.769,2.771-12.595,2.771-17.4,0L978.42,510.179c-4.8-2.771-4.824-7.3-.055-10.076l23.114-13.431c4.769-2.774,12.595-2.774,17.394,0Z" fill="#eee"/>
      <path id="Path_62581" data-name="Path 62581" d="M986.975,536.541c4.8,2.771,4.824,7.306.058,10.074l-23.115,13.434c-4.768,2.769-12.594,2.769-17.4,0l-27.046-15.614c-4.8-2.771-4.823-7.306-.057-10.076l23.115-13.432c4.768-2.771,12.594-2.771,17.393,0Z" fill="#eee"/>
      <path id="Path_62582" data-name="Path 62582" d="M1154.109,564.75c4.8,2.769,4.825,7.3.055,10.074l-23.113,13.432c-4.77,2.773-12.6,2.773-17.4,0l-22.976-13.265c-4.8-2.772-4.823-7.3-.053-10.075l23.113-13.433c4.77-2.771,12.6-2.771,17.4,0Z" fill="#eee"/>
      <path id="Path_62583" data-name="Path 62583" d="M1671.686,793.613c4.8,2.772,4.826,7.305.058,10.074l-23.115,13.434c-4.77,2.771-12.6,2.771-17.4,0l-22.974-13.263c-4.8-2.772-4.824-7.3-.057-10.078l23.117-13.433c4.766-2.77,12.594-2.771,17.393,0Z" fill="#eee"/>
      <path id="Path_62584" data-name="Path 62584" d="M1613.609,827.364c4.8,2.77,4.827,7.3.057,10.076l-23.115,13.434c-4.768,2.769-12.594,2.769-17.4,0l-71.545-41.306c-4.8-2.77-4.822-7.3-.056-10.074l23.115-13.433c4.769-2.772,12.6-2.772,17.394,0Z" fill="#eee"/>
      <g id="Group_11140" data-name="Group 11140">
        <path id="Path_62585" data-name="Path 62585" d="M1357.43,667.454l-.01,0Z" fill="#eee"/>
        <g id="Group_11139" data-name="Group 11139" clip-path="url(#clip-path)">
          <path id="Path_62586" data-name="Path 62586" d="M1357.42,667.45l.01,0-.01,0Z" fill="#eee"/>
        </g>
      </g>
      <g id="Group_11142" data-name="Group 11142">
        <path id="Path_62588" data-name="Path 62588" d="M1180.219,703.043l-.01.006Z" fill="#eee"/>
        <g id="Group_11141" data-name="Group 11141" clip-path="url(#clip-path-2)">
          <path id="Path_62589" data-name="Path 62589" d="M1180.209,703.049l.01-.006-.01.006Z" fill="#eee"/>
        </g>
      </g>
      <g id="Group_11145" data-name="Group 11145">
        <g id="Group_11144" data-name="Group 11144">
          <path id="Path_62591" data-name="Path 62591" d="M1724.4,713.63h0l-.01,0Z" fill="#2b64a3"/>
          <g id="Group_11143" data-name="Group 11143" clip-path="url(#clip-path-3)">
            <path id="Path_62592" data-name="Path 62592" d="M1724.389,713.625l.01,0-.01,0Z" fill="#2b64a3"/>
          </g>
        </g>
      </g>
      <g id="Group_11148" data-name="Group 11148">
        <g id="Group_11147" data-name="Group 11147">
          <path id="Path_62594" data-name="Path 62594" d="M1712.8,713.62a12.776,12.776,0,0,1,11.588.005A12.776,12.776,0,0,0,1712.8,713.62Z" fill="#2b64a3"/>
          <g id="Group_11146" data-name="Group 11146" clip-path="url(#clip-path-4)">
            <path id="Path_62595" data-name="Path 62595" d="M1712.8,713.62a12.776,12.776,0,0,1,11.588.005,12.776,12.776,0,0,0-11.588-.005Z" fill="#2b64a3"/>
          </g>
        </g>
      </g>
      <g id="Group_11151" data-name="Group 11151">
        <g id="Group_11150" data-name="Group 11150">
          <path id="Path_62597" data-name="Path 62597" d="M1712.8,713.62l-.01.007Z" fill="#2b64a3"/>
          <g id="Group_11149" data-name="Group 11149" clip-path="url(#clip-path-5)">
            <path id="Path_62598" data-name="Path 62598" d="M1712.791,713.627l.01-.007-.01.007Z" fill="#2b64a3"/>
          </g>
        </g>
      </g>
      <g id="Group_11153" data-name="Group 11153">
        <path id="Path_62600" data-name="Path 62600" d="M1244.182,739.993h0l.01,0Z" fill="#eee"/>
        <g id="Group_11152" data-name="Group 11152" clip-path="url(#clip-path-6)">
          <path id="Path_62601" data-name="Path 62601" d="M1244.191,739.988l-.01,0,.01,0Z" fill="#eee"/>
        </g>
      </g>
      <g id="Group_11155" data-name="Group 11155">
        <path id="Path_62603" data-name="Path 62603" d="M1095.287,759.126l.01,0-.01,0Z" fill="#eee"/>
        <g id="Group_11154" data-name="Group 11154" clip-path="url(#clip-path-7)">
          <path id="Path_62604" data-name="Path 62604" d="M1095.3,759.131l-.01,0,.01,0Z" fill="#eee"/>
        </g>
      </g>
      <g id="Group_11157" data-name="Group 11157">
        <path id="Path_62606" data-name="Path 62606" d="M1403.492,765.337h0l-.01.006Z" fill="#eee"/>
        <g id="Group_11156" data-name="Group 11156" clip-path="url(#clip-path-8)">
          <path id="Path_62607" data-name="Path 62607" d="M1403.482,765.343l.01-.006-.01.006Z" fill="#eee"/>
        </g>
      </g>
      <g id="Group_11159" data-name="Group 11159">
        <path id="Path_62609" data-name="Path 62609" d="M1527.576,767.352l-.01.007.01-.007Z" fill="#eee"/>
        <g id="Group_11158" data-name="Group 11158" clip-path="url(#clip-path-9)">
          <path id="Path_62610" data-name="Path 62610" d="M1527.566,767.359l.01-.007-.01.007Z" fill="#eee"/>
        </g>
      </g>
      <g id="Group_11161" data-name="Group 11161">
        <path id="Path_62612" data-name="Path 62612" d="M1158.922,782.477h0l-.01,0Z" fill="#eee"/>
        <g id="Group_11160" data-name="Group 11160" clip-path="url(#clip-path-10)">
          <path id="Path_62613" data-name="Path 62613" d="M1158.912,782.473l.01,0-.01,0Z" fill="#eee"/>
        </g>
      </g>
      <path id="Path_62615" data-name="Path 62615" d="M1724.389,713.625c3.211,1.853,3.228,4.861.035,6.718l-138.692,80.6a12.771,12.771,0,0,1-11.593,0l-40.719-23.508L1479.1,809a12.783,12.783,0,0,1-11.6,0l-58.166-33.581L1211.99,890.1a12.779,12.779,0,0,1-11.594,0L1086.68,824.45c-3.211-1.853-3.231-4.862-.039-6.717l54.9-31.9-46.244-26.7c-3.211-1.853-3.229-4.86-.037-6.714l84.949-49.368a12.777,12.777,0,0,1,11.6,0l46.533,26.866,101.707-59.106-155.889-90L933.068,726.724a12.77,12.77,0,0,1-11.6,0L815.9,665.775,701.77,732.1a12.777,12.777,0,0,1-11.6,0L518.214,632.819l-6.871-17.357L695.914,722.023,810.045,655.7a12.781,12.781,0,0,1,11.6,0l105.572,60.949,251.09-145.915a12.772,12.772,0,0,1,11.595,0l167.52,96.719c3.215,1.856,3.228,4.861.035,6.718l-113.264,65.82a12.778,12.778,0,0,1-11.6,0l-46.534-26.867-73.392,42.651,46.242,26.7c3.213,1.854,3.232,4.859.039,6.714l-54.9,31.9,102.082,58.937,197.347-114.686a12.78,12.78,0,0,1,11.6,0l58.166,33.582,54.322-31.568a12.773,12.773,0,0,1,11.594,0l40.719,23.508,132.912-77.24A12.766,12.766,0,0,1,1724.389,713.625Z" fill="#1a3a81" opacity="0.5"/>
      <path id="Subtraction_5" data-name="Subtraction 5" d="M20151.635-11995.451a11.774,11.774,0,0,1-5.807-1.395l-171.959-99.276-6.867-17.356,184.57,106.559,114.129-66.326a11.706,11.706,0,0,1,5.787-1.39,11.79,11.79,0,0,1,5.811,1.395l14.7,8.488-8.072,8.73-12.373-7.145-114.131,66.321A11.686,11.686,0,0,1,20151.635-11995.451Z" transform="translate(-19455.656 12728.941)" fill="#ec691f" stroke="rgba(0,0,0,0)" stroke-miterlimit="10" stroke-width="1"/>
      <g id="Group_11163" data-name="Group 11163">
        <path id="Path_62616" data-name="Path 62616" d="M1479.09,809.007l.01-.007Z" fill="#eee"/>
        <g id="Group_11162" data-name="Group 11162" clip-path="url(#clip-path-11)">
          <path id="Path_62617" data-name="Path 62617" d="M1479.1,809l-.01.007.01-.007Z" fill="#eee"/>
        </g>
      </g>
      <g id="Group_11165" data-name="Group 11165">
        <path id="Path_62619" data-name="Path 62619" d="M1086.67,824.444l.01.006Z" fill="#eee"/>
        <g id="Group_11164" data-name="Group 11164" clip-path="url(#clip-path-12)">
          <path id="Path_62620" data-name="Path 62620" d="M1086.68,824.45l-.01-.006.01.006Z" fill="#eee"/>
        </g>
      </g>
      <g id="Group_11167" data-name="Group 11167">
        <path id="Path_62622" data-name="Path 62622" d="M1211.98,890.11h0l.01,0Z" fill="#eee"/>
        <g id="Group_11166" data-name="Group 11166" clip-path="url(#clip-path-13)">
          <path id="Path_62623" data-name="Path 62623" d="M1211.99,890.105l-.01,0,.01,0Z" fill="#eee"/>
        </g>
      </g>
      <g id="Group_11547" data-name="Group 11547" transform="translate(-1137.064 37.264)">
        <path id="Path_62691" data-name="Path 62691" d="M1645.684,643.886c3.863,2.245,6.084,5.08,6.664,8.01.032.161.056.322.08.483l2.671,16.27-28.345-1.63a32.535,32.535,0,0,1-14.35-3.919c-9.131-5.307-9.083-13.91.108-19.216S1636.553,638.58,1645.684,643.886Zm-9.477,13.769c3.982-2.3,4-6.025.048-8.325a15.842,15.842,0,0,0-14.374,0c-3.984,2.3-4,6.027-.047,8.327a15.836,15.836,0,0,0,14.373,0Z" transform="translate(0 -72.473)" fill="#515151" opacity="0.5"/>
        <path id="Path_62692" data-name="Path 62692" d="M1713.883,567.406,1705,562.574a10.383,10.383,0,0,1,5.15,9.4c-.012,6.616-4.993,12.678-11.123,13.539a9.513,9.513,0,0,1-5.929-1.019l8.882,4.832a9.514,9.514,0,0,0,5.929,1.02c6.13-.862,11.111-6.923,11.124-13.539A10.384,10.384,0,0,0,1713.883,567.406Z" transform="translate(-52.833 -25.786)" fill="#2c52a7"/>
        <path id="Path_62693" data-name="Path 62693" d="M1682.82,522.451a21.954,21.954,0,0,0-13.685-2.352c-14.149,1.988-25.643,15.98-25.671,31.252a25.574,25.574,0,0,0,5.469,16.344q.283.351.58.684l19.51,22.966,8.883,4.832-19.51-22.966q-.3-.333-.58-.684a25.58,25.58,0,0,1-5.47-16.344c.029-15.273,11.521-29.264,25.671-31.253a21.957,21.957,0,0,1,13.685,2.352Z" transform="translate(-22.868)" fill="#0d1b3a"/>
        <path id="Path_62694" data-name="Path 62694" d="M1691.55,532.293c14.149-1.988,25.6,8.78,25.568,24.051a32.646,32.646,0,0,1-5.907,18.443l-19.772,28.752-19.51-22.966q-.3-.333-.58-.684a25.581,25.581,0,0,1-5.47-16.344C1665.907,548.273,1677.4,534.281,1691.55,532.293Zm-.074,39.631c6.13-.862,11.111-6.923,11.124-13.539s-4.949-11.283-11.079-10.421-11.109,6.925-11.121,13.542,4.946,11.28,11.076,10.419Z" transform="translate(-36.4 -7.362)" fill="#1b3775"/>
      </g>
      <g id="Group_11548" data-name="Group 11548" transform="translate(52 100.224)">
        <path id="Path_62691-2" data-name="Path 62691" d="M1659.366,645.245c5.182,3.01,8.161,6.814,8.937,10.744.044.216.076.432.107.648l3.582,21.822-38.017-2.186a43.636,43.636,0,0,1-19.246-5.256c-12.247-7.117-12.183-18.656.144-25.773S1647.12,638.127,1659.366,645.245Zm-12.711,18.468c5.341-3.083,5.369-8.081.064-11.166s-13.939-3.084-19.279,0-5.371,8.083-.063,11.168,13.936,3.084,19.278,0Z" transform="translate(0 -56.241)" fill="#515151" opacity="0.5"/>
        <path id="Path_62692-2" data-name="Path 62692" d="M1720.974,569.055l-11.914-6.481c4.162,2.264,6.918,6.9,6.907,12.611-.016,8.873-6.7,17-14.918,18.159a12.759,12.759,0,0,1-7.952-1.367l11.913,6.48a12.76,12.76,0,0,0,7.952,1.368c8.221-1.156,14.9-9.286,14.919-18.159C1727.892,575.95,1725.135,571.319,1720.974,569.055Z" transform="translate(-41 -20.01)" fill="#ff975d"/>
        <path id="Path_62693-2" data-name="Path 62693" d="M1696.249,523.335a29.446,29.446,0,0,0-18.354-3.154c-18.977,2.667-34.393,21.433-34.43,41.916a34.3,34.3,0,0,0,7.335,21.921q.379.47.778.918l26.167,30.8,11.914,6.481-26.168-30.8q-.4-.446-.777-.917a34.307,34.307,0,0,1-7.336-21.922c.038-20.484,15.453-39.249,34.431-41.917a29.449,29.449,0,0,1,18.354,3.155Z" transform="translate(-17.746)" fill="#e36410"/>
        <path id="Path_62694-2" data-name="Path 62694" d="M1700.31,532.373c18.977-2.667,34.329,11.775,34.292,32.258a43.785,43.785,0,0,1-7.923,24.736L1700.16,627.93l-26.168-30.8q-.4-.446-.778-.917a34.309,34.309,0,0,1-7.336-21.922C1665.917,553.806,1681.332,535.04,1700.31,532.373Zm-.1,53.154c8.221-1.156,14.9-9.286,14.919-18.159s-6.637-15.133-14.859-13.977-14.9,9.288-14.916,18.162,6.634,15.129,14.855,13.974Z" transform="translate(-28.247 -5.713)" fill="#ec691f"/>
      </g>
      <g id="Group_11546" data-name="Group 11546" transform="translate(738 205)">
        <g id="Group_11303" data-name="Group 11303" transform="translate(31.607 407.829)" opacity="0.3" style="mix-blend-mode: multiply;isolation: isolate">
          <path id="Path_63560" data-name="Path 63560" d="M34.007,456.644c-3.166,1.721-3.2,4.6-.086,6.41L178.142,546.5a12.889,12.889,0,0,0,11.4.113l53.5-29.559c3.154-1.742,3.178-4.637.055-6.433L98.9,427.711a13.052,13.052,0,0,0-11.433-.137Z" transform="translate(-31.607 -426.323)"/>
        </g>
        <g id="Group_11331" data-name="Group 11331" transform="translate(37.582 338.174)">
          <g id="Group_11304" data-name="Group 11304" transform="translate(30.16 107.143)">
            <path id="Path_63561" data-name="Path 63561" d="M80.387,475.27l2.672-1.505,17.868,10.31a16.981,16.981,0,0,1,.605,4.107,6.176,6.176,0,0,1-2.791,5.708l-5.994,3.392a6.054,6.054,0,0,1-6.332-.389,19.984,19.984,0,0,1-9.078-15.778C77.284,478.3,78.526,476.211,80.387,475.27Z" transform="translate(-77.336 -473.765)" fill="#343433"/>
          </g>
          <path id="Path_63562" data-name="Path 63562" d="M107.6,490.92a16.981,16.981,0,0,0-.605-4.107h0l6.556,3.783a5.19,5.19,0,0,1-1.678,1.58l-5.6,3.17A6.861,6.861,0,0,0,107.6,490.92Z" transform="translate(-53.247 -369.36)" fill="#343433"/>
          <path id="Path_63563" data-name="Path 63563" d="M107.621,490.92a16.981,16.981,0,0,0-.605-4.107h0l1.426.822a16.3,16.3,0,0,1,.2,2.25,6.366,6.366,0,0,1-2.287,5.369A6.918,6.918,0,0,0,107.621,490.92Z" transform="translate(-53.266 -369.36)" fill="#151515"/>
          <path id="Path_63564" data-name="Path 63564" d="M186.041,542.466l.718,2.349,4.471-3.8,8.269-4.3-3.047-2.251-3.5-.9-2.29.2-2.747,1.8-1.381,3.486Z" transform="translate(-69.984 -379.167)" fill="#1e1e1e"/>
          <path id="Path_63565" data-name="Path 63565" d="M197.6,561.928a19.987,19.987,0,0,1-9.078-15.778c-.053-2.816,1.189-4.906,3.05-5.847l5.474-3.086a6.508,6.508,0,0,1,2.577-.8,30.349,30.349,0,0,1,10.669,21.955c0,.105,0,.208,0,.312-.118.082-.239.162-.364.234l-5.994,3.393A6.057,6.057,0,0,1,197.6,561.928Z" transform="translate(-70.503 -379.769)" fill="#343433"/>
          <g id="Group_11305" data-name="Group 11305" transform="translate(118.015 159.983)">
            <path id="Path_63566" data-name="Path 63566" d="M188.52,547.035a19.987,19.987,0,0,0,9.078,15.778c4.615,2.783,9.18.057,9.079-5.294A19.978,19.978,0,0,0,197.6,541.74C192.988,538.959,188.42,541.688,188.52,547.035Z" transform="translate(-188.518 -540.635)" fill="#928e8e"/>
          </g>
          <g id="Group_11306" data-name="Group 11306" transform="translate(118.015 159.983)">
            <path id="Path_63567" data-name="Path 63567" d="M188.52,547.035a19.987,19.987,0,0,0,9.078,15.778c4.615,2.783,9.18.057,9.079-5.294A19.978,19.978,0,0,0,197.6,541.74C192.988,538.959,188.42,541.688,188.52,547.035Z" transform="translate(-188.518 -540.635)" fill="#575656"/>
          </g>
          <g id="Group_11307" data-name="Group 11307" transform="translate(118.813 162.405)">
            <path id="Path_63568" data-name="Path 63568" d="M189.53,549A16.56,16.56,0,0,0,197,562.06c3.8,2.3,7.559.047,7.475-4.381A16.551,16.551,0,0,0,197,544.616C193.208,542.313,189.447,544.573,189.53,549Z" transform="translate(-189.528 -543.701)" fill="#3a3939"/>
          </g>
          <g id="Group_11308" data-name="Group 11308" transform="translate(121.155 165.198)">
            <path id="Path_63569" data-name="Path 63569" d="M192.493,550.882a11.386,11.386,0,0,0,5.17,8.985c2.628,1.586,5.229.032,5.172-3.015a11.376,11.376,0,0,0-5.172-8.987C195.038,546.281,192.436,547.835,192.493,550.882Z" transform="translate(-192.492 -547.236)" fill="url(#linear-gradient)"/>
          </g>
          <g id="Group_11309" data-name="Group 11309" transform="translate(124.077 169.208)">
            <path id="Path_63570" data-name="Path 63570" d="M196.191,553.835a4.769,4.769,0,0,0,2.167,3.766,1.355,1.355,0,0,0,2.165-1.263,4.762,4.762,0,0,0-2.165-3.764A1.355,1.355,0,0,0,196.191,553.835Z" transform="translate(-196.191 -552.31)" fill="#928e8e"/>
          </g>
          <g id="Group_11310" data-name="Group 11310" transform="translate(124.213 169.991)">
            <path id="Path_63571" data-name="Path 63571" d="M196.363,554.486a3.7,3.7,0,0,0,1.682,2.923,1.052,1.052,0,0,0,1.682-.98,3.7,3.7,0,0,0-1.682-2.924A1.052,1.052,0,0,0,196.363,554.486Z" transform="translate(-196.363 -553.301)" fill="#dbdbda"/>
          </g>
          <g id="Group_11311" data-name="Group 11311" transform="translate(122.119 166.695)">
            <path id="Path_63572" data-name="Path 63572" d="M198.331,549.195c.279.141.417.21.7.349a1.194,1.194,0,0,1,.607.976.385.385,0,0,1-.607.371l-.7-.348a1.2,1.2,0,0,1-.606-.978A.384.384,0,0,1,198.331,549.195Z" transform="translate(-194.555 -549.13)"/>
            <path id="Path_63573" data-name="Path 63573" d="M198.331,560.272c.279.14.417.21.7.349a1.2,1.2,0,0,1,.607.975.385.385,0,0,1-.607.374c-.28-.139-.418-.21-.7-.35a1.2,1.2,0,0,1-.606-.977A.384.384,0,0,1,198.331,560.272Z" transform="translate(-194.555 -551.454)"/>
            <path id="Path_63574" data-name="Path 63574" d="M194.89,551.27c-.187.216-.562.111-.842-.236a.879.879,0,0,1-.166-1.017c.155-.179.232-.272.386-.451.187-.216.562-.111.842.235a.88.88,0,0,1,.167,1.018C195.121,551,195.044,551.089,194.89,551.27Z" transform="translate(-193.727 -549.198)"/>
            <path id="Path_63575" data-name="Path 63575" d="M202.55,559.867c.186-.216.563-.113.842.233a.879.879,0,0,1,.167,1.018c-.156.181-.234.273-.388.454-.186.216-.563.109-.841-.238a.878.878,0,0,1-.167-1.017C202.318,560.136,202.394,560.046,202.55,559.867Z" transform="translate(-195.464 -551.359)"/>
            <path id="Path_63576" data-name="Path 63576" d="M194,555.2c.284-.055.656.225.835.63.148.337.223.507.372.842.177.405.092.778-.192.834s-.657-.224-.834-.627l-.372-.843C193.627,555.632,193.714,555.258,194,555.2Z" transform="translate(-193.713 -550.402)"/>
            <path id="Path_63577" data-name="Path 63577" d="M203.449,555.829c-.285.057-.659-.226-.838-.629-.148-.337-.222-.506-.369-.843-.179-.4-.094-.778.19-.834s.656.225.834.63l.371.843C203.816,555.4,203.731,555.772,203.449,555.829Z" transform="translate(-195.482 -550.05)"/>
          </g>
          <g id="Group_11312" data-name="Group 11312" transform="translate(30.16 108.095)">
            <path id="Path_63578" data-name="Path 63578" d="M77.338,481.369a19.984,19.984,0,0,0,9.078,15.778c4.614,2.785,9.18.057,9.078-5.293a19.976,19.976,0,0,0-9.078-15.778C81.8,473.293,77.236,476.023,77.338,481.369Z" transform="translate(-77.336 -474.97)" fill="#928e8e"/>
          </g>
          <g id="Group_11313" data-name="Group 11313" transform="translate(30.16 108.095)">
            <path id="Path_63579" data-name="Path 63579" d="M77.338,481.369a19.984,19.984,0,0,0,9.078,15.778c4.614,2.785,9.18.057,9.078-5.293a19.976,19.976,0,0,0-9.078-15.778C81.8,473.293,77.236,476.023,77.338,481.369Z" transform="translate(-77.336 -474.97)" fill="#575656"/>
          </g>
          <g id="Group_11314" data-name="Group 11314" transform="translate(30.957 110.517)">
            <path id="Path_63580" data-name="Path 63580" d="M78.347,483.334A16.566,16.566,0,0,0,85.822,496.4c3.8,2.3,7.558.046,7.476-4.383a16.562,16.562,0,0,0-7.476-13.063C82.025,476.648,78.263,478.908,78.347,483.334Z" transform="translate(-78.345 -478.036)" fill="#3a3939"/>
          </g>
          <g id="Group_11315" data-name="Group 11315" transform="translate(33.299 113.311)">
            <path id="Path_63581" data-name="Path 63581" d="M81.31,485.216a11.384,11.384,0,0,0,5.171,8.987c2.628,1.585,5.228.032,5.17-3.016a11.378,11.378,0,0,0-5.17-8.987C83.854,480.617,81.252,482.171,81.31,485.216Z" transform="translate(-81.309 -481.571)" fill="url(#linear-gradient-2)"/>
          </g>
          <g id="Group_11316" data-name="Group 11316" transform="translate(36.222 117.32)">
            <path id="Path_63582" data-name="Path 63582" d="M85.008,488.171a4.772,4.772,0,0,0,2.165,3.765,1.355,1.355,0,0,0,2.167-1.264,4.762,4.762,0,0,0-2.167-3.764A1.355,1.355,0,0,0,85.008,488.171Z" transform="translate(-85.007 -486.644)" fill="#928e8e"/>
          </g>
          <g id="Group_11317" data-name="Group 11317" transform="translate(36.358 118.104)">
            <path id="Path_63583" data-name="Path 63583" d="M85.18,488.822a3.7,3.7,0,0,0,1.682,2.923,1.052,1.052,0,0,0,1.682-.981,3.7,3.7,0,0,0-1.682-2.922A1.052,1.052,0,0,0,85.18,488.822Z" transform="translate(-85.18 -487.637)" fill="#dbdbda"/>
          </g>
          <g id="Group_11318" data-name="Group 11318" transform="translate(34.264 114.807)">
            <path id="Path_63584" data-name="Path 63584" d="M87.149,483.53c.279.141.417.21.7.348a1.2,1.2,0,0,1,.606.977.384.384,0,0,1-.606.37c-.279-.14-.417-.208-.7-.348a1.193,1.193,0,0,1-.607-.977A.384.384,0,0,1,87.149,483.53Z" transform="translate(-83.372 -483.465)"/>
            <path id="Path_63585" data-name="Path 63585" d="M87.149,494.607c.279.14.417.211.7.349a1.2,1.2,0,0,1,.607.976.386.386,0,0,1-.607.373l-.7-.35a1.2,1.2,0,0,1-.606-.977A.385.385,0,0,1,87.149,494.607Z" transform="translate(-83.372 -485.789)"/>
            <path id="Path_63586" data-name="Path 63586" d="M83.706,485.606c-.186.216-.562.11-.842-.236a.877.877,0,0,1-.165-1.017c.155-.181.232-.272.387-.45.186-.217.562-.111.841.234a.879.879,0,0,1,.166,1.019C83.939,485.334,83.861,485.425,83.706,485.606Z" transform="translate(-82.544 -483.533)"/>
            <path id="Path_63587" data-name="Path 63587" d="M91.367,494.2c.186-.216.562-.111.841.235a.88.88,0,0,1,.168,1.018l-.389.453c-.186.216-.562.11-.84-.236a.878.878,0,0,1-.167-1.018C91.135,494.471,91.211,494.38,91.367,494.2Z" transform="translate(-84.281 -485.694)"/>
            <path id="Path_63588" data-name="Path 63588" d="M82.814,489.537c.284-.055.657.224.834.63.149.337.224.507.373.842.178.4.092.777-.191.834s-.657-.224-.836-.628c-.148-.337-.223-.506-.371-.844C82.444,489.967,82.531,489.593,82.814,489.537Z" transform="translate(-82.53 -484.737)"/>
            <path id="Path_63589" data-name="Path 63589" d="M92.264,490.164c-.283.056-.657-.227-.836-.63l-.371-.842c-.179-.4-.092-.778.19-.835s.657.228.835.63l.371.844C92.633,489.734,92.547,490.108,92.264,490.164Z" transform="translate(-84.299 -484.385)"/>
          </g>
          <path id="Path_63590" data-name="Path 63590" d="M67.945,461.643l76.078,43.9,15.443-8.768.372,11.793v3.007c.267.914.48,1.5.48,1.5l6.911,3.785a9.411,9.411,0,0,1,2.311.863c.082.043.164.085.245.13s.145.082.219.126c.179.1.356.209.535.326.281.183.559.378.834.577l.2.15c6.22,4.62,10.737,13.206,11.251,21.327l-.929-.34c-.653-8.172-5.475-16.8-11.853-20.957a8.169,8.169,0,0,0-4.367-1.476h0a5.124,5.124,0,0,0-3.728,1.572c-1.5,1.522-2.292,3.975-2.24,6.9.014.815.067,1.633.153,2.449l-.985-.88q-.058-.78-.073-1.554a12.019,12.019,0,0,1,1.139-5.624l.054-1.195-2.261-1.335v-1.935L78.969,470,76.3,471.5a5.159,5.159,0,0,0-2.031,1.867c.014-.022.028-.047.043-.07l.845-5.505-3.781-2.182-3.429,1.663v-3.641l-10.1-5.827v-1.994Z" transform="translate(-43.087 -362.857)" fill="#263338"/>
          <path id="Path_63591" data-name="Path 63591" d="M96.194,338.174l101.84,53.72v56.066l-57.93,32.9L39.168,422.617V368.962Z" transform="translate(-39.168 -338.174)" fill="#dfe6ea"/>
          <g id="Group_11319" data-name="Group 11319" transform="translate(22.422 102.759)">
            <path id="Path_63592" data-name="Path 63592" d="M73.408,468.217l3.781,2.182-.845,5.505a6.828,6.828,0,0,0-1.05,3.442l-7.75,3.433,1.218-12.307Z" transform="translate(-67.544 -468.217)" fill="#1e1e1e"/>
          </g>
          <g id="Group_11320" data-name="Group 11320" transform="translate(2.331 87.488)">
            <path id="Path_63593" data-name="Path 63593" d="M51.845,452.8l-8.031,4.56-1.7-.979v-5.86l2.946-1.634Z" transform="translate(-42.118 -448.892)" fill="#8897a0"/>
          </g>
          <path id="Path_63594" data-name="Path 63594" d="M155.608,512.7l-2.845,6.315v2.157l-2.384-1.375V518.64l3.074-7.187Z" transform="translate(-62.501 -374.53)" fill="#8897a0"/>
          <path id="Path_63595" data-name="Path 63595" d="M101.373,498v-1.681l1.979-1.144L163.1,529.649v5.187l-1.555.943L101.8,501.307v-1.366l.346-.219v-1.277Z" transform="translate(-52.219 -371.115)" fill="#8897a0"/>
          <path id="Path_63596" data-name="Path 63596" d="M178.959,538.8v5.187l-1.555.943v-1.365l.347-.219v-2.1l-.772.374v-1.682Z" transform="translate(-68.082 -380.268)" fill="#8897a0" opacity="0.5" style="mix-blend-mode: multiply;isolation: isolate"/>
          <path id="Path_63597" data-name="Path 63597" d="M161.321,533.342l.772-.374v2.1l-59.744-34.473v-1.277Z" transform="translate(-52.424 -371.983)" fill="#8897a0" opacity="0.2" style="mix-blend-mode: multiply;isolation: isolate"/>
          <path id="Path_63598" data-name="Path 63598" d="M103.352,495.176,163.1,529.649l-1.979,1.143-59.744-34.473Z" transform="translate(-52.219 -371.115)" fill="#fff" opacity="0.5" style="mix-blend-mode: overlay;isolation: isolate"/>
          <path id="Path_63599" data-name="Path 63599" d="M101.911,501.149l59.743,34.473L162,535.4,102.257,500.93Z" transform="translate(-52.332 -372.322)" fill="#fff" opacity="0.2" style="mix-blend-mode: overlay;isolation: isolate"/>
          <g id="Group_11321" data-name="Group 11321" transform="translate(4.027 88.447)" opacity="0.5" style="mix-blend-mode: multiply;isolation: isolate">
            <path id="Path_63600" data-name="Path 63600" d="M52.3,453.059l-8.031,4.56v-5.861l2.912-1.653Z" transform="translate(-44.264 -450.106)" fill="#8897a0"/>
          </g>
          <path id="Path_63601" data-name="Path 63601" d="M114.883,489.2l-2.847,6.318v2.154l-2.384-1.376v-1.148l3.076-7.19Z" transform="translate(-53.956 -369.6)" fill="#8897a0"/>
          <path id="Path_63602" data-name="Path 63602" d="M115.2,489.363l-2.847,6.318v2.154l-1.192-.688v-1.466l2.967-6.936Z" transform="translate(-54.273 -369.766)" fill="#8897a0" opacity="0.5" style="mix-blend-mode: multiply;isolation: isolate"/>
          <path id="Path_63603" data-name="Path 63603" d="M155.925,512.862l-2.845,6.315v2.158l-1.192-.687v-1.47l2.966-6.933Z" transform="translate(-62.818 -374.696)" fill="#8897a0" opacity="0.5" style="mix-blend-mode: multiply;isolation: isolate"/>
          <path id="Path_63604" data-name="Path 63604" d="M96.194,338.174l101.84,53.72-57.93,32.9L39.168,368.962Z" transform="translate(-39.168 -338.174)" fill="#fff" opacity="0.5" style="mix-blend-mode: overlay;isolation: isolate"/>
          <path id="Path_63605" data-name="Path 63605" d="M42.118,450.525l1.7.978,2.912-1.653-1.662-.959Z" transform="translate(-39.787 -361.404)" fill="#fff" opacity="0.5" style="mix-blend-mode: overlay;isolation: isolate"/>
          <path id="Path_63606" data-name="Path 63606" d="M224.834,406.158v56.066l-57.93,32.9V439.056Z" transform="translate(-65.969 -352.438)" fill="#dfe6ea" opacity="0.5" style="mix-blend-mode: multiply;isolation: isolate"/>
          <path id="Path_63607" data-name="Path 63607" d="M197.341,516.8a10.06,10.06,0,0,0-3.288-1.428v0l-6.932-3.8a27.77,27.77,0,0,1-1.508-7.158c-.15-3.466.679-19.891,1.733-24.94s3.316-7.535,10.1-11.828,28.7-17.221,28.7-17.221a11.13,11.13,0,0,1,11.1-.5c6.09,3.087,17.522,9.846,19.773,12.516,0,0,7.761,12.183,10.514,25.282,0,0,.895.668.708,7.535s-.378,11.666-.378,11.666,1.129-.046.658,3.294-.329,5.08-2.586,7.338-11.948,9.6-20.085,14.442a220.821,220.821,0,0,1-24.086,11.853c-1.693.518-4.89-.329-7.572-1.975-1.712-1.051-3.494-2.272-4.56-3.018C209.087,530.285,204.092,521.2,197.341,516.8Z" transform="translate(-69.89 -361.357)" fill="#f5f5f5"/>
          <path id="Path_63608" data-name="Path 63608" d="M197.341,523.81a10.058,10.058,0,0,0-3.288-1.428v0l-6.932-3.8a27.77,27.77,0,0,1-1.508-7.158c-.15-3.466.679-19.891,1.733-24.94a14.2,14.2,0,0,1,1.6-4.393c3.677,2.19,13.213,7.84,16.908,9.767a15.268,15.268,0,0,1,6.479,5.885,4.686,4.686,0,0,0,.3,2.165c1.234,3.64,6.046,19.929,6.046,19.929s.323,1.8,3.381,2.114c.267,1.625.554,3.576.656,4.987-.4.028-.763.043-1.109.076-2.1.2-4.2-1.9-4.2-1.9v2.029s2.1,2.1,4.2,1.9a20.076,20.076,0,0,0,4.81-.727,65.871,65.871,0,0,0,11.113-4.627A145.681,145.681,0,0,0,260.7,509.324c1.448-1.173,3.685-3.183,5.6-5.063.7-.688,1.365-1.359,1.929-1.966,0-.01,0-.02,0-.029-.189,6.868-.378,11.666-.378,11.666s1.129-.046.658,3.294-.329,5.08-2.586,7.338-11.948,9.6-20.085,14.441a220.813,220.813,0,0,1-24.086,11.853c-1.693.518-4.89-.329-7.572-1.975-1.712-1.051-3.494-2.272-4.56-3.019C209.087,537.3,204.092,528.209,197.341,523.81Z" transform="translate(-69.89 -368.369)" fill="#dfe6ea" style="mix-blend-mode: multiply;isolation: isolate"/>
          <g id="Group_11322" data-name="Group 11322" transform="translate(190.957 140.067)">
            <path id="Path_63609" data-name="Path 63609" d="M289.988,522.5h0a.506.506,0,0,0-.257-.114A.509.509,0,0,1,289.988,522.5Z" transform="translate(-282.696 -516.891)" fill="#8897a0"/>
            <path id="Path_63610" data-name="Path 63610" d="M281.006,528.016c-.057.042-.12.085-.178.127l1.112-5.135a6,6,0,0,1,1.235-2.456c.535-.446,3.165-3.291,4.431-4.659l.428-.462c-.109,3.4-.192,5.5-.192,5.5C286.665,523.329,283,526.577,281.006,528.016Z" transform="translate(-280.828 -515.431)" fill="#8897a0"/>
            <path id="Path_63611" data-name="Path 63611" d="M289.725,522.387a.121.121,0,0,0-.022,0Z" transform="translate(-282.69 -516.89)" fill="#8897a0"/>
          </g>
          <path id="Path_63612" data-name="Path 63612" d="M240.207,551.951s-7.8,3.45-10.349,3.587-5.382-1.725-5.382-1.725-.023.121-.057.322c-.057-.037-.1-.063-.109-.071l-.145-.1.379-6.215.428.266a10.889,10.889,0,0,0,4.382,1.454c1.5.088,3.757-.714,5.554-1.35a20.839,20.839,0,0,1,2.273-.725,4.4,4.4,0,0,1,.883-.107,1.145,1.145,0,0,1,1.2.759c.029.062.059.122.094.183a29.109,29.109,0,0,1,1.094,3.578Z" transform="translate(-77.983 -382.049)" fill="#8897a0"/>
          <path id="Path_63613" data-name="Path 63613" d="M229.817,550.313c2.552-.138,10.349-3.588,10.349-3.588s11.523-6.418,15.731-9.04,10.029-5.941,13.179-8.211c2-1.439,5.659-4.687,6.835-7.089,0,0,1.129-.046.658,3.294s-.329,5.08-2.586,7.338-11.948,9.6-20.085,14.442a220.821,220.821,0,0,1-24.086,11.853,8.075,8.075,0,0,1-4.605-.549,44.013,44.013,0,0,1-1.233-5.737,27.241,27.241,0,0,1,.461-4.438S227.263,550.45,229.817,550.313Z" transform="translate(-77.941 -376.824)" fill="#404b4d"/>
          <path id="Path_63614" data-name="Path 63614" d="M193.873,491.322l13.635,7.714a7.53,7.53,0,0,1,3.825,4.442,133.258,133.258,0,0,1,4.567,17.029c.617,3.763,1.172,5.862,0,5.862s-7.343-5.862-10.3-9.008-12.772-13.7-12.772-13.7a5.994,5.994,0,0,1-1.358-3.764c.062-2.16.495-8.021.495-8.021S191.9,490.767,193.873,491.322Z" transform="translate(-71.121 -370.273)" fill="#141c1e"/>
          <path id="Path_63615" data-name="Path 63615" d="M221.142,492.756a184.022,184.022,0,0,0,24.248-12.649c13.081-8.083,18.937-13.571,18.937-13.571h0c1.276,2.081,7.815,13.132,10.295,24.93a.438.438,0,0,1,.09.121c-.661.86-1.5,1.939-2.544,3.266-3.207,4.072-9.131,9.131-17.892,13.882s-16.782,9.132-22.4,9.873-6.108-2.036-6.108-2.036-4.811-16.289-6.046-19.928S221.142,492.756,221.142,492.756Z" transform="translate(-76.982 -365.106)" fill="#141c1e"/>
          <path id="Path_63616" data-name="Path 63616" d="M195.292,522.44l-5.156-3.285v-1.5s-.04-.874,1.455,0,3.672,2.661,3.715,3.574A6.44,6.44,0,0,1,195.292,522.44Z" transform="translate(-70.843 -375.75)" fill="#404b4d"/>
          <path id="Path_63617" data-name="Path 63617" d="M190.136,517.66s-.025-.6.831-.3v1.422l4.349,2.805a4.94,4.94,0,0,1-.024.854l-5.156-3.285Z" transform="translate(-70.843 -375.751)" opacity="0.5" style="mix-blend-mode: multiply;isolation: isolate"/>
          <g id="Group_11323" data-name="Group 11323" transform="translate(161.954 147.382)">
            <path id="Path_63618" data-name="Path 63618" d="M271.529,529.859c-1.735,1.2-7.077,4.855-10.871,7-3.686,2.082-11.278,6.326-14.112,7.909,0,0-1.132.307-1.514-.335l-.83-1.9a1.224,1.224,0,0,1,.687-1.569c3.026-1.6,11.411-6.029,14.959-8.043,3.436-1.952,9.906-6.271,12.512-8.027,0,0,1.038-.695.8.488l-.891,3.4A2.467,2.467,0,0,1,271.529,529.859Z" transform="translate(-244.124 -524.689)" fill="#525f61"/>
          </g>
          <g id="Group_11324" data-name="Group 11324" transform="translate(162.256 147.683)">
            <path id="Path_63619" data-name="Path 63619" d="M260.777,536.123c3.261-1.846,8.076-5,11.68-7.424l-.066.256c-4.91,3.332-9.036,5.969-11.714,7.482-2.75,1.556-8,4.469-15.227,8.454l-.116-.267C252.825,540.545,258.02,537.684,260.777,536.123Z" transform="translate(-244.681 -525.831)" fill="#141c1e"/>
            <path id="Path_63620" data-name="Path 63620" d="M260.891,536.886c2.632-1.489,6.658-4.058,11.449-7.3l-.034.132c-.013.034-.031.08-.054.131-2.936,2.016-7.864,5.321-11.462,7.354-4.045,2.284-12.2,6.843-14.845,8.321a.548.548,0,0,1-.3-.176C252.886,541.359,258.139,538.442,260.891,536.886Z" transform="translate(-244.747 -526.017)" fill="#141c1e"/>
            <path id="Path_63621" data-name="Path 63621" d="M260.666,535.358c3.216-1.822,8.072-4.987,11.914-7.551l-.069.265c-3.629,2.439-8.6,5.712-11.944,7.6-2.753,1.558-7.938,4.413-15.416,8.486l-.115-.258C252.649,539.795,257.9,536.927,260.666,535.358Z" transform="translate(-244.618 -525.644)" fill="#141c1e"/>
            <path id="Path_63622" data-name="Path 63622" d="M260.459,533.825c3.2-1.817,8.29-5.109,12.381-7.815l-.07.274c-4.1,2.725-9.15,6.007-12.411,7.858-2.792,1.583-8.095,4.465-15.785,8.574l-.013-.031a.824.824,0,0,1-.053-.24C254.048,537.384,258.442,534.972,260.459,533.825Z" transform="translate(-244.507 -525.267)" fill="#141c1e"/>
            <path id="Path_63623" data-name="Path 63623" d="M260.556,534.593c3.195-1.813,8.1-4.993,12.148-7.681l-.071.268c-3.878,2.592-8.89,5.865-12.176,7.729-2.762,1.565-8,4.431-15.6,8.528l-.111-.254C252.448,539.064,257.76,536.18,260.556,534.593Z" transform="translate(-244.557 -525.456)" fill="#141c1e"/>
            <path id="Path_63624" data-name="Path 63624" d="M261.17,537.707c3.377-1.908,7.918-4.932,10.9-6.967a.989.989,0,0,1-.16.141c-2.566,1.769-7.386,5.029-10.847,6.982-3.96,2.237-12.335,6.917-14.074,7.888a2.305,2.305,0,0,1-.237.04C249.757,544.11,257.322,539.88,261.17,537.707Z" transform="translate(-244.978 -526.26)" fill="#141c1e"/>
            <path id="Path_63625" data-name="Path 63625" d="M260.324,533.366c-2,1.137-6.349,3.524-15.753,8.513a1.091,1.091,0,0,1,.553-.57c7.486-3.951,12.522-6.66,14.968-8.049,3.447-1.957,9.912-6.274,12.531-8.039a1,1,0,0,1,.361-.152.848.848,0,0,1-.017.307C268.832,528.112,263.589,531.511,260.324,533.366Z" transform="translate(-244.52 -525.07)" fill="#141c1e"/>
          </g>
          <path id="Path_63626" data-name="Path 63626" d="M236.2,531.85c2.3-.547,5.837-1.8,11.948-4.842a145.786,145.786,0,0,0,23.175-14.366c1.448-1.173,3.685-3.182,5.6-5.062v2.029c-1.919,1.88-4.156,3.889-5.6,5.063a145.676,145.676,0,0,1-23.175,14.365,65.871,65.871,0,0,1-11.113,4.627Z" transform="translate(-80.507 -373.717)" fill="#525f61"/>
          <path id="Path_63627" data-name="Path 63627" d="M230.054,538.436a21.3,21.3,0,0,0,3.975-.51l.835,1.814a20.08,20.08,0,0,1-4.81.727c-2.1.2-4.2-1.9-4.2-1.9v-2.029S227.954,538.639,230.054,538.436Z" transform="translate(-78.338 -379.793)" fill="#f6921e"/>
          <path id="Path_63628" data-name="Path 63628" d="M289.693,505.055c0,.608,0,1.28-.025,2.029,0,.01,0,.019,0,.029-.564.607-1.225,1.278-1.929,1.966V507.05C288.454,506.35,289.123,505.669,289.693,505.055Z" transform="translate(-91.321 -373.187)" fill="#f6921e"/>
          <g id="Group_11325" data-name="Group 11325" transform="translate(146.494 165.543)">
            <path id="Path_63629" data-name="Path 63629" d="M229.419,549.855c2.33.138,6.3-1.748,7.907-2.081s1.582.221,1.859.693a34.143,34.143,0,0,1,1.083,3.573c-.464.2-7.854,3.444-10.326,3.578-2.554.137-5.382-1.725-5.382-1.725l.337-5.538A11.143,11.143,0,0,0,229.419,549.855Z" transform="translate(-224.559 -547.672)" fill="#f0eff0"/>
          </g>
          <path id="Path_63630" data-name="Path 63630" d="M287.938,521.049c-1.141,2.329-4.617,5.452-6.647,6.951l1.036-4.792a6,6,0,0,1,1.138-2.3c.577-.481,3.4-3.541,4.651-4.893C288.013,519.142,287.938,521.049,287.938,521.049Z" transform="translate(-89.968 -375.487)" fill="#f0eff0"/>
          <path id="Path_63631" data-name="Path 63631" d="M245.312,556.274l5.367-2.648a1.3,1.3,0,0,1,.144-.055v.656a2.365,2.365,0,0,1-1.129,1.889l-5.172,2.778a1.236,1.236,0,0,1-.217.089l-.057-.863A2.079,2.079,0,0,1,245.312,556.274Z" transform="translate(-82.196 -383.367)" fill="#141c1e"/>
          <path id="Path_63632" data-name="Path 63632" d="M272.412,542.143a3.07,3.07,0,0,1,1.228-1.962l4.8-3.068-.093.544a3.357,3.357,0,0,1-1.288,1.963l-4.71,3.076Z" transform="translate(-88.092 -379.914)" fill="#141c1e"/>
          <path id="Path_63633" data-name="Path 63633" d="M244.538,558.878l5.172-2.778a2.365,2.365,0,0,0,1.129-1.889v-.656c.564-.2,1.005.12,1.005.77v.741a2.364,2.364,0,0,1-1.128,1.888l-5.173,2.778a.765.765,0,0,1-1.214-.674l-.007-.092A1.235,1.235,0,0,0,244.538,558.878Z" transform="translate(-82.212 -383.351)" fill="#fff" opacity="0.5" style="mix-blend-mode: overlay;isolation: isolate"/>
          <path id="Path_63634" data-name="Path 63634" d="M272.342,542.594l4.71-3.076a3.357,3.357,0,0,0,1.288-1.963l.093-.544.329-.209c.594-.38.984-.122.864.573l-.126.743a3.358,3.358,0,0,1-1.289,1.963l-4.962,3.241c-.59.385-1.007.127-.926-.574Z" transform="translate(-88.085 -379.812)" fill="#fff" opacity="0.5" style="mix-blend-mode: overlay;isolation: isolate"/>
          <path id="Path_63635" data-name="Path 63635" d="M227.8,550.8a33.3,33.3,0,0,1-3.241-2.212s2.828,1.862,5.382,1.725,10.349-3.588,10.349-3.588,11.523-6.418,15.731-9.04,10.029-5.941,13.179-8.211c2-1.439,5.659-4.687,6.835-7.089,0,0,.382-.014.61.631-1.133,2.534-5.232,5.79-7.211,7.283-3.1,2.338-8.969,5.59-13.177,8.211s-15.731,9.038-15.731,9.038-7.8,3.45-10.35,3.588A4.987,4.987,0,0,1,227.8,550.8Z" transform="translate(-78.065 -376.824)" fill="#fff" opacity="0.5" style="mix-blend-mode: overlay;isolation: isolate"/>
          <path id="Path_63636" data-name="Path 63636" d="M256.445,552.153a.665.665,0,0,1-.01-.109v-4.068a1.648,1.648,0,0,1,.737-1.285l9.575-5.58a.756.756,0,0,1,.209-.083.8.8,0,0,1,.011.118v3.888a1.673,1.673,0,0,1-.733,1.293l-9.586,5.743A.787.787,0,0,1,256.445,552.153Z" transform="translate(-84.753 -380.735)" opacity="0.2" style="mix-blend-mode: multiply;isolation: isolate"/>
          <path id="Path_63637" data-name="Path 63637" d="M256.651,552.066l9.586-5.743a1.673,1.673,0,0,0,.733-1.293v-3.888a.8.8,0,0,0-.011-.118c.3-.072.53.122.53.507v3.888a1.676,1.676,0,0,1-.733,1.293l-9.586,5.742c-.369.22-.674.081-.722-.306A.787.787,0,0,0,256.651,552.066Z" transform="translate(-84.756 -380.731)" fill="#fff" opacity="0.5" style="mix-blend-mode: overlay;isolation: isolate"/>
          <path id="Path_63638" data-name="Path 63638" d="M224.435,548.588s2.828,1.862,5.382,1.725,10.349-3.588,10.349-3.588,11.523-6.418,15.731-9.04,10.029-5.941,13.179-8.211c2-1.439,5.659-4.687,6.835-7.089,0,0,1.129-.046.658,3.294-.126.9-.21,1.687-.307,2.4a60.893,60.893,0,0,1-7.077,5.567.821.821,0,0,0-.567.167l-.329.209-4.8,3.068a2.656,2.656,0,0,0-.716.731l-2.1,1.316v-1.513c0-.385-.226-.578-.53-.507a.757.757,0,0,0-.209.083l-9.575,5.58a1.648,1.648,0,0,0-.737,1.285V546.1q-1.077.615-2.167,1.211a.684.684,0,0,0-.887-.278,1.3,1.3,0,0,0-.144.055l-5.367,2.648a2.091,2.091,0,0,0-1.007,1.3,63.373,63.373,0,0,1-9.361,3.647,10.85,10.85,0,0,1-6.585-.652,8.371,8.371,0,0,1-.13-1A27.241,27.241,0,0,1,224.435,548.588Z" transform="translate(-77.941 -376.824)" fill="#fff" opacity="0.1" style="mix-blend-mode: overlay;isolation: isolate"/>
          <g id="Group_11326" data-name="Group 11326" transform="translate(156.897 166.518)">
            <path id="Path_63639" data-name="Path 63639" d="M241.207,550.148a3.368,3.368,0,0,1-1.448,3.115,1.291,1.291,0,0,1-2.016-1.017,3.37,3.37,0,0,1,1.449-3.115A1.289,1.289,0,0,1,241.207,550.148Z" transform="translate(-237.724 -548.905)" fill="#fff"/>
          </g>
          <g id="Group_11327" data-name="Group 11327" transform="translate(192.983 145.392)">
            <path id="Path_63640" data-name="Path 63640" d="M285.957,523.413a3.916,3.916,0,0,1-1.067,3.115c-.645.557-1.392.033-1.483-1.017a3.915,3.915,0,0,1,1.067-3.115C285.118,521.84,285.865,522.365,285.957,523.413Z" transform="translate(-283.393 -522.171)" fill="#fff"/>
          </g>
          <g id="Group_11328" data-name="Group 11328" transform="translate(195.585 142.706)">
            <path id="Path_63641" data-name="Path 63641" d="M288.818,519.805a3.26,3.26,0,0,1-.887,2.591c-.537.463-1.158.028-1.233-.846a3.267,3.267,0,0,1,.887-2.593C288.12,518.5,288.742,518.932,288.818,519.805Z" transform="translate(-286.685 -518.772)" fill="#fff"/>
          </g>
          <g id="Group_11329" data-name="Group 11329" transform="translate(152.862 168.262)">
            <path id="Path_63642" data-name="Path 63642" d="M235.836,552.261a3.115,3.115,0,0,1-1.337,2.879,1.192,1.192,0,0,1-1.862-.94,3.114,3.114,0,0,1,1.338-2.88A1.192,1.192,0,0,1,235.836,552.261Z" transform="translate(-232.619 -551.113)" fill="#fff"/>
          </g>
          <g id="Group_11330" data-name="Group 11330" transform="translate(148.798 168.783)">
            <path id="Path_63643" data-name="Path 63643" d="M230.3,552.78a2.727,2.727,0,0,1-1.173,2.524,1.045,1.045,0,0,1-1.633-.825,2.73,2.73,0,0,1,1.173-2.523A1.045,1.045,0,0,1,230.3,552.78Z" transform="translate(-227.475 -551.773)" fill="#fff"/>
          </g>
          <path id="Path_63644" data-name="Path 63644" d="M216.251,546.593a1.088,1.088,0,0,1-.156.061.16.16,0,0,1-.083.011c-.028-.011-.032-.038-.049-.056l-.083-.123-.165-.243-.336-.485-.683-.966c-.457-.641-.915-1.281-1.383-1.915q-1.388-1.911-2.852-3.772a75.037,75.037,0,0,0-6.27-7.09A60.111,60.111,0,0,0,197,525.842a31.651,31.651,0,0,0-8.325-4.457,36.837,36.837,0,0,1,8.035,4.847,72.3,72.3,0,0,1,7.014,6.248q3.3,3.345,6.4,6.9,1.542,1.78,3.018,3.624c.486.618.967,1.241,1.436,1.871l.694.954.341.48.17.241.084.122c.01.022.035.036.036.066a.182.182,0,0,1-.043.072.93.93,0,0,1-.116.122Z" transform="translate(-70.537 -376.614)" opacity="0.2" style="mix-blend-mode: multiply;isolation: isolate"/>
          <path id="Path_63645" data-name="Path 63645" d="M218.638,525.974c-.307-2.035-.679-4.061-1.044-6.085-.382-2.024-.795-4.04-1.224-6.056s-.9-4.022-1.412-6.019-1.08-3.985-1.788-5.942a8.69,8.69,0,0,0-1.67-2.732,18.928,18.928,0,0,0-2.261-2.187,30.235,30.235,0,0,0-2.514-1.85,26.481,26.481,0,0,0-2.683-1.585l-5.484-2.837c-1.838-.924-3.666-1.866-5.516-2.77l-.047.088c1.774,1.043,3.57,2.049,5.355,3.072l5.391,3.007a32.444,32.444,0,0,1,5.02,3.448,18.19,18.19,0,0,1,2.161,2.11,8.246,8.246,0,0,1,1.532,2.5c.709,1.907,1.264,3.885,1.813,5.86s1.037,3.972,1.532,5.967.953,4,1.41,6c.472,2,.909,4.013,1.363,6.019Z" transform="translate(-71.442 -369.59)" opacity="0.2" style="mix-blend-mode: multiply;isolation: isolate"/>
          <path id="Path_63646" data-name="Path 63646" d="M222.192,560.944c.212,1.386.812,3.755,1.158,5.071l-2.966-1.426c-1.712-1.051-3.494-2.272-4.56-3.018a27.458,27.458,0,0,0-.706-4.62Z" transform="translate(-76.084 -384.076)" fill="#141c1e"/>
          <path id="Path_63647" data-name="Path 63647" d="M291.762,494.733a3.78,3.78,0,0,0,1.576,1.653,54.839,54.839,0,0,0,5.461-.715,4.316,4.316,0,0,0,.7-.186v-8.073a2.926,2.926,0,0,1,.522-1.531l.742-.958c.288-.371.522-.292.522.178v9.288a2.1,2.1,0,0,1-.652,1.406l-.483.41c-.3.251-.547.2-.625-.093a5.039,5.039,0,0,1-.616.154,54.45,54.45,0,0,1-5.61.729l-.074,0-.066-.029A4.281,4.281,0,0,1,291.219,495c-.446-.921-1.392-1.171-3.066-.806l-.128-.589C289.264,493.33,291,493.156,291.762,494.733Z" transform="translate(-91.381 -368.914)" fill="#263338"/>
          <path id="Path_63648" data-name="Path 63648" d="M193.092,492.313l.063,0a2.545,2.545,0,0,1,.612.094l13.535,7.658.062.034.066.024a6.681,6.681,0,0,1,3.3,3.922,131.264,131.264,0,0,1,4.517,16.849c.088.536.175,1.039.255,1.506a23.453,23.453,0,0,1,.424,3.176c-1.527-.866-6.321-5.287-9.432-8.595-2.882-3.06-12.376-13.271-12.758-13.681a5.119,5.119,0,0,1-1.127-3.134C192.666,498.226,193.028,493.184,193.092,492.313Z" transform="translate(-71.362 -370.514)" fill="#263338"/>
          <path id="Path_63649" data-name="Path 63649" d="M220.729,494.5a1.125,1.125,0,0,1,.753-.476l.149-.009.095-.053a186.845,186.845,0,0,0,24.38-12.716,145.019,145.019,0,0,0,18.246-12.939c2,3.408,7.357,13.148,9.578,23.5-.685.887-1.433,1.847-2.232,2.861-2.1,2.671-7.191,7.994-17.613,13.647l-.352.191c-8.413,4.562-16.358,8.87-21.732,9.58a13.1,13.1,0,0,1-1.659.117c-2.92,0-3.394-1.267-3.442-1.427l-.009-.068-.013-.019c-.2-.666-4.831-16.347-6.058-19.963A2.817,2.817,0,0,1,220.729,494.5Z" transform="translate(-77.223 -365.478)" fill="#263338"/>
          <path id="Path_63650" data-name="Path 63650" d="M268.866,495.232s-7.5.567-12.86,3.673a20.669,20.669,0,0,0-7.451,7.171L226.83,517.73c.209.7.4,1.35.574,1.93l24.708-13.389c3.372-2.051,19.54-11.04,19.54-11.04Z" transform="translate(-78.542 -371.126)" fill="#36474c"/>
          <path id="Path_63651" data-name="Path 63651" d="M275.4,497.432l-3.594-2.2a59.542,59.542,0,0,0-13.384,5.006c-3.1,1.748-4.968,5.312-6.156,6.034l-24.708,13.389c.446,1.5.747,2.517.793,2.676l.013.019.009.068c.048.16.522,1.427,3.442,1.427a13.1,13.1,0,0,0,1.659-.117c5.374-.71,13.319-5.018,21.732-9.58l.352-.191c10.423-5.652,15.509-10.976,17.613-13.647.8-1.014,1.547-1.975,2.232-2.861Z" transform="translate(-78.694 -371.126)" fill="#45555b"/>
          <path id="Path_63652" data-name="Path 63652" d="M221.482,499.763l.149-.009.095-.053c.062-.025,3.506-1.444,8.752-4.05l-.3,6.655-7.925,4.7c-.608-1.987-1.127-3.642-1.433-4.545a2.818,2.818,0,0,1-.092-2.223A1.125,1.125,0,0,1,221.482,499.763Z" transform="translate(-77.223 -371.215)" fill="#45555b" opacity="0.5"/>
          <path id="Path_63653" data-name="Path 63653" d="M250.311,484.556l.779-.484v6.51l-9.526,4.654-.981-5.068C243.593,488.546,246.89,486.669,250.311,484.556Z" transform="translate(-81.427 -368.785)" fill="#45555b" opacity="0.5"/>
          <path id="Path_63654" data-name="Path 63654" d="M251.008,502.778l-9.183-5.813,9.525-4.654,10.063,4.312Z" transform="translate(-81.688 -370.514)" fill="#36474c" opacity="0.5"/>
          <path id="Path_63655" data-name="Path 63655" d="M224,513.035c-.447-1.483-.891-2.944-1.3-4.261l7.925-4.7,10.943,4.1-13.726,8.377Z" transform="translate(-77.677 -372.982)" fill="#36474c" opacity="0.5"/>
          <path id="Path_63656" data-name="Path 63656" d="M251.746,498.7c.54,1.63,3.632,2.069,6.9.983s5.484-3.286,4.943-4.915-3.632-2.071-6.9-.985S251.205,497.067,251.746,498.7Z" transform="translate(-83.752 -370.697)" fill="#45555b"/>
          <path id="Path_63657" data-name="Path 63657" d="M253.348,498.553c.377,1.134,2.717,1.378,5.227.544s4.239-2.427,3.862-3.561-2.716-1.38-5.226-.547S252.972,497.419,253.348,498.553Z" transform="translate(-84.095 -370.972)" fill="#36474c"/>
          <path id="Path_63658" data-name="Path 63658" d="M257.163,497.831c.127.385.919.467,1.768.186s1.434-.823,1.308-1.206-.919-.467-1.769-.185S257.036,497.447,257.163,497.831Z" transform="translate(-84.902 -371.384)" fill="#45555b"/>
          <path id="Path_63659" data-name="Path 63659" d="M218.32,524.707l-10.612-6.86,7.7-4.768C216.559,517,217.81,521.93,218.32,524.707Z" transform="translate(-74.53 -374.871)" fill="#36474c" opacity="0.5"/>
          <path id="Path_63660" data-name="Path 63660" d="M214.494,509.846l-7.7,4.768s-2.54-12.11-3.452-16.943l6.215,3.516.062.034.066.024a6.681,6.681,0,0,1,3.3,3.922C213.393,506.236,213.931,507.921,214.494,509.846Z" transform="translate(-73.613 -371.638)" fill="#45555b" opacity="0.5"/>
          <path id="Path_63661" data-name="Path 63661" d="M272.883,468.69c1.1,1.981,7.292,13.462,7.674,21.8l-1.346-.824h-2.785l-13.564-13.448A121.6,121.6,0,0,0,272.883,468.69Z" transform="translate(-86.102 -365.558)" fill="#c4d0d3"/>
          <path id="Path_63662" data-name="Path 63662" d="M271.4,468.31c2,3.408,7.357,13.148,9.578,23.5-.685.887-1.433,1.847-2.232,2.861a37.215,37.215,0,0,1-4.506,4.687c-5.011-8.219-13.828-14.766-20.116-18.707A141.983,141.983,0,0,0,271.4,468.31Z" transform="translate(-84.268 -365.478)" fill="#fff" opacity="0.2"/>
          <path id="Path_63663" data-name="Path 63663" d="M233.4,525.942l-.39,9.255s-1.51,1.655-4.531,0V526.43A10.3,10.3,0,0,0,233.4,525.942Z" transform="translate(-78.888 -377.57)" fill="#263338"/>
        </g>
      </g>
    </g>
    <g id="Group_11552" data-name="Group 11552" transform="translate(63)">
      <rect id="Rectangle_3890" data-name="Rectangle 3890" width="689.021" height="5.699" transform="translate(707 1246.143)" fill="#8c9cc0"/>
      <path id="Path_62713" data-name="Path 62713" d="M716.645,1248.1a9.313,9.313,0,1,1-9.313-9.31A9.313,9.313,0,0,1,716.645,1248.1Z" transform="translate(-0.02)" fill="#1b3775"/>
      <path id="Path_62714" data-name="Path 62714" d="M1405.938,1248.1a9.313,9.313,0,1,1-9.313-9.31A9.312,9.312,0,0,1,1405.938,1248.1Z" transform="translate(-0.313)" fill="#ec691f"/>
      <path id="Path_62715" data-name="Path 62715" d="M865.877,1248.1a8.4,8.4,0,1,1-8.4-8.4A8.4,8.4,0,0,1,865.877,1248.1Z" fill="#ec691f"/>
      <path id="Path_62716" data-name="Path 62716" d="M862.428,1248.1a4.948,4.948,0,1,1-4.949-4.946A4.951,4.951,0,0,1,862.428,1248.1Z" fill="#fff"/>
      <text id="Mumbai" transform="translate(698 1295)" fill="#1b3775" font-size="20" font-family="Montserrat-Bold, Montserrat" font-weight="700"><tspan x="0" y="0">Mumbai</tspan></text>
      <text id="_148_" data-name="148 " transform="translate(694 1181)" fill="#0d1b3a" font-size="40" font-family="Montserrat-Bold, Montserrat" font-weight="700"><tspan x="0" y="0">148 </tspan></text>
      <text id="km" transform="translate(775 1180)" fill="#0d1b3a" font-size="25" font-family="Montserrat-Medium, Montserrat" font-weight="500"><tspan x="0" y="0">km</tspan></text>
      <g id="Group_11549" data-name="Group 11549" transform="translate(94)">
        <text id="_18:30:00_" data-name="18:30:00 " transform="translate(1069 1181)" fill="#0d1b3a" font-size="40" font-family="Montserrat-Bold, Montserrat" font-weight="700"><tspan x="0" y="0">18:30:00 </tspan></text>
        <text id="mins" transform="translate(1249 1176)" fill="#0d1b3a" font-size="25" font-family="Montserrat-Medium, Montserrat" font-weight="500"><tspan x="0" y="0">mins</tspan></text>
        <text id="ETA" transform="translate(1069 1215)" fill="#0d1b3a" font-size="25" font-family="Montserrat-Medium, Montserrat" font-weight="500"><tspan x="0" y="0">ETA</tspan></text>
      </g>
      <text id="Distance" transform="translate(694 1215)" fill="#0d1b3a" font-size="25" font-family="Montserrat-Medium, Montserrat" font-weight="500"><tspan x="0" y="0">Distance</tspan></text>
      <text id="Route_:_No_deviation" data-name="Route : No deviation" transform="translate(924 1093)" fill="#0d1b3a" font-size="25" font-family="Montserrat-Medium, Montserrat" font-weight="500"><tspan x="0" y="0">Route : No deviation</tspan></text>
      <g id="Group_11550" data-name="Group 11550" transform="translate(23 -57)">
        <rect id="Rectangle_3932" data-name="Rectangle 3932" width="139" height="44" rx="22" transform="translate(959 1073)" fill="#ff5c00"/>
        <text id="Delayed" transform="translate(984 1101)" fill="#fff" font-size="18" font-family="Montserrat-SemiBold, Montserrat" font-weight="600"><tspan x="0" y="0">DELAYED</tspan></text>
      </g>
      <text id="Pune" transform="translate(1406 1295)" fill="#ec691f" font-size="20" font-family="Montserrat-Bold, Montserrat" font-weight="700"><tspan x="-54.94" y="0">Pune</tspan></text>
    </g>
  </g>
</svg>
