<svg xmlns="http://www.w3.org/2000/svg" width="512" height="512" viewBox="0 0 512 512">
  <g id="img_fleet_icon" transform="translate(-117 -7358)">
    <g id="Ellipse_444" data-name="Ellipse 444" transform="translate(117 7358)" fill="none" stroke="#0d1b3a" stroke-width="12">
      <circle cx="256" cy="256" r="256" stroke="none"/>
      <circle cx="256" cy="256" r="250" fill="none"/>
    </g>
    <g id="Group_11605" data-name="Group 11605" transform="translate(-685.467 -26.607)">
      <g id="Group_11604" data-name="Group 11604" transform="translate(888.075 7527.607)">
        <g id="Group_2170" data-name="Group 2170" transform="translate(292.85 157.669)">
          <g id="Group_2169" data-name="Group 2169">
            <path id="Path_5263" data-name="Path 5263" d="M422.176,344.692h-.056a5.3,5.3,0,1,0,.056,0Z" transform="translate(-416.879 -344.692)" fill="#ec691f"/>
          </g>
        </g>
        <path id="Path_64288" data-name="Path 64288" d="M20933.6,9224.73a27.666,27.666,0,0,1-17.789-6.457,27.917,27.917,0,0,1-6.094-7.143,27.568,27.568,0,0,1-3.4-8.924h-13.9v-10.539h13.9a27.535,27.535,0,0,1,2.059-6.378,27.821,27.821,0,0,1,3.459-5.605h-17.648a5.28,5.28,0,0,1-1.768-.3v-9.928a5.247,5.247,0,0,1,1.768-.3h11.621V9044.9a.36.36,0,0,0-.359-.361h-259.035a.364.364,0,0,0-.365.361v18h-10.535v-18a10.913,10.913,0,0,1,10.9-10.9h259.035a10.913,10.913,0,0,1,10.9,10.9v22.884h51.037a5.267,5.267,0,0,1,1.6,10.288l14.273,42.816,7.082,7.081a16.422,16.422,0,0,1,4.844,11.69v46.019a10.914,10.914,0,0,1-10.9,10.9h-22.9c0,.044,0,.091,0,.136l0,.043c0,.059,0,.119,0,.178A27.824,27.824,0,0,1,20933.6,9224.73Zm-.105-45.046a16.72,16.72,0,1,0,.141,0,.079.079,0,0,1-.035,0Zm.105-10.539a27.616,27.616,0,0,1,15.486,4.726,27.894,27.894,0,0,1,10.08,12.169h25.113a.36.36,0,0,0,.359-.361V9162.79h-5.988a5.268,5.268,0,1,1,0-10.535h5.988V9139.66a5.946,5.946,0,0,0-1.754-4.239l-.791-.786h-42.865a10.914,10.914,0,0,1-10.9-10.9v-28.155a5.278,5.278,0,0,1,5.271-5.272h28.352l-3.994-11.988h-41.25a.362.362,0,0,0-.359.366v90.465h17.143a.494.494,0,0,0,.055,0h.055Zm5.268-68.3h0v22.889a.362.362,0,0,0,.361.361h33.984l-7.748-23.25Z" transform="translate(-20635.512 -9034)" fill="#0d1b3a"/>
      </g>
      <g id="Group_2168" data-name="Group 2168" transform="translate(885.912 7720.601)">
        <g id="Group_2167" data-name="Group 2167">
          <path id="Path_5262" data-name="Path 5262" d="M157.644,344.692h-.056a5.3,5.3,0,1,0,.056,0Z" transform="translate(-152.347 -344.692)" fill="#ec691f"/>
        </g>
      </g>
      <g id="Group_2170-2" data-name="Group 2170" transform="translate(1071.739 7720.601)">
        <g id="Group_2169-2" data-name="Group 2169">
          <path id="Path_5263-2" data-name="Path 5263" d="M422.176,344.692h-.056a5.3,5.3,0,1,0,.056,0Z" transform="translate(-416.879 -344.692)" fill="#ec691f"/>
        </g>
      </g>
      <path id="Path_64290" data-name="Path 64290" d="M20946.568,9258.848a27.68,27.68,0,0,1-17.789-6.457,27.882,27.882,0,0,1-6.094-7.144,27.547,27.547,0,0,1-3.4-8.925h-131.262a27.531,27.531,0,0,1-3.4,8.925,27.92,27.92,0,0,1-14.262,11.882,27.751,27.751,0,0,1-21.836-1.117,28.15,28.15,0,0,1-9.467-7.6v-45.145h145.57a5.268,5.268,0,1,1,0,10.535H20782.5a27.706,27.706,0,0,1,5.525,11.986h131.256a27.726,27.726,0,0,1,5.52-11.986h-17.652a5.268,5.268,0,1,1,0-10.535h11.623v-124.25a.361.361,0,0,0-.361-.36h-179.357v-10.539h179.357a10.913,10.913,0,0,1,10.9,10.9V9101.9h51.043a5.268,5.268,0,0,1,1.6,10.288l14.27,42.814,7.084,7.082a16.4,16.4,0,0,1,4.84,11.689v46.019a10.911,10.911,0,0,1-10.9,10.9h-22.895c0,.045,0,.091,0,.135l0,.045c0,.058,0,.117,0,.178A27.826,27.826,0,0,1,20946.568,9258.848Zm-.107-45.047a17.291,17.291,0,1,0,.145,0h-.145Zm-185.83,0a17.26,17.26,0,1,0,.215,0Zm185.938-10.539a27.83,27.83,0,0,1,25.564,16.9h25.113a.365.365,0,0,0,.365-.362V9196.91h-6a5.27,5.27,0,0,1,0-10.539h6v-12.595a5.96,5.96,0,0,0-1.758-4.237l-.791-.79H20952.2a10.911,10.911,0,0,1-10.9-10.9v-28.156a5.275,5.275,0,0,1,5.27-5.27h28.352l-3.99-11.987h-41.256a.364.364,0,0,0-.361.365v90.464h17.145l.055,0A.549.549,0,0,1,20946.568,9203.262Zm5.27-68.3h0v22.887a.362.362,0,0,0,.359.365h33.988l-7.75-23.252Z" transform="translate(-19869.586 -1505.185)" fill="#0d1b3a"/>
      <g id="Group_2174" data-name="Group 2174" transform="translate(869.467 7675.554)">
        <g id="Group_2173" data-name="Group 2173">
          <path id="Path_5265" data-name="Path 5265" d="M196.048,280.567H35.812c-2.07,0-3.748,2.359-3.748,5.269s1.678,5.269,3.748,5.269H196.048c2.07,0,3.748-2.359,3.748-5.269S198.118,280.567,196.048,280.567Z" transform="translate(-32.064 -280.567)" fill="#ec691f"/>
        </g>
      </g>
    </g>
  </g>
</svg>
