<svg xmlns="http://www.w3.org/2000/svg" xmlns:xlink="http://www.w3.org/1999/xlink" width="533" height="284" viewBox="0 0 533 284">
  <defs>
    <filter id="Rectangle_3903" x="-3" y="-3" width="539" height="290" filterUnits="userSpaceOnUse">
      <feOffset input="SourceAlpha"/>
      <feGaussianBlur stdDeviation="1" result="blur"/>
      <feFlood flood-opacity="0.161"/>
      <feComposite operator="in" in2="blur"/>
      <feComposite in="SourceGraphic"/>
    </filter>
    <clipPath id="clip-path">
      <g transform="matrix(1, 0, 0, 1, 0, 0)" filter="url(#Rectangle_3903)">
        <rect id="Rectangle_3903-2" data-name="Rectangle 3903" width="533" height="284" rx="4" transform="translate(2129 5386)" fill="#fff" stroke="#eee" stroke-width="1"/>
      </g>
    </clipPath>
  </defs>
  <g id="img_map" transform="translate(-2129 -5386)" clip-path="url(#clip-path)">
    <path id="Path_62409" data-name="Path 62409" d="M556.536-66.574l38.253,17.881.717-1.531L557.264-68.1l.069-.144-1.524-.728-.077.157-17.985-8.407,20.239-44.125,8.23,3.741.7-1.537-8.228-3.74.339-.74-1.536-.706-.341.746-16.013-7.276,29.28-63.541-4.6-2.122-6.2,13.46-1.068-1.2c-.308.276-31.071,27.663-45.476,38.742-.151.117-.323.225-.478.34l-14.72-21.909a249.617,249.617,0,0,0,38.486-24.121l.138-.112,8.644-16.42-1.495-.787-8.477,16.1c-2.694,2.1-43.18,33.229-76.6,36.249a85.044,85.044,0,0,0-18.154,3.656,83.706,83.706,0,0,0-34.37,21.166c-3.893-4.221-6.734-7.752-7.279-9.519a14.662,14.662,0,0,1-.25-3.984c.055-3.466.129-8.209-3.781-11.483-5.4-4.523-16.692-4.8-36.608-.918q-3.269.638-6.2,1.029c1.565-20.217,17.684-47.61,17.877-47.934l-4.357-2.587c-.822,1.382-17.308,29.392-18.6,51.037-24.945,1.746-29.743-11.012-33.352-20.642a31.805,31.805,0,0,0-3.517-7.511c-3.557-4.847-17.047-12.454-29.1-18.6l3.38-6.3-4.466-2.4-3.442,6.413c-7.74-3.843-14.167-6.78-15.807-7.524l-2.091,4.617c3.682,1.669,9.337,4.33,15.492,7.39L259.06-172.544l-25.665-12.9,7.025-16.739-1.558-.654-6.98,16.632-21.913-11.013,3.415-7.909-1.551-.668-3.377,7.816-2.236-1.123-.758,1.509,2.323,1.169-27.5,63.672-26.981-13.3,8.567-18.63,8.773,3.605,12.1-15.366,8.283-25.812-1.608-.516-8.19,25.521L170.1-163.119l-7.527-3.095L180.136-204.4l-4.607-2.118L98.993-40.095l-13.94-4.069,52.078-124.947,1.563-.14,27.143-39.273-4.17-2.883-25.794,37.319-29.417,2.646-75.075-36.3-2.206,4.565,4.952,2.394L-9.046-139.7l-63.339-27.463,27.643-46.88L-46.2-214.9l-27.75,47.061-45.527-19.741-.672,1.549,45.335,19.657-7.933,13.453-36.717-16.7-.7,1.538,36.553,16.627-19.662,33.344-23.655-10.807-2.1,4.609L-45.71-86.251-64.1-46.027l-63.526-28.981-.7,1.538,48.271,22.022c-1.361,2.93-6.558,14.179-14.312,31.615l-44.54-19.05-.665,1.554,44.521,19.04q-3.483,7.844-7.581,17.207A46.384,46.384,0,0,0-105.78,9L-135.442-7.815l-.832,1.47,30.206,17.128a39.5,39.5,0,0,0,4.674,24.776l-16.648,36.417,1.537.7,16.145-35.317a53.26,53.26,0,0,0,12.5,14.123l-14.477,33.148L-147.061,64.8l-.685,1.544,44.736,19.84-8.1,18.536-18.3-7.678-.654,1.557,18.278,7.669-4.153,9.512,1.547.676,4.163-9.534,35.764,15-9.895,22.847-38.952-15.454-1.869,4.71,38.806,15.4-28.134,64.954L-141.454,203.4l-.636,1.565,26.913,10.963-7.8,18.01,4.652,2.015,7.845-18.113,11.054,4.5-20.928,17.874,1.1,1.286,21.592-18.441L-50.1,242.437l-9.4,25.416-73.562-24.135-.526,1.606,73.5,24.114-5.919,16.005-112.669-37.361-.532,1.6,112.617,37.34-6.036,16.32-74.505-25.282-.543,1.6,74.462,25.265-5.4,14.6-56.953-21.171-.589,1.584L-79.2,321.114l-6.2,16.769-42.3-14.839-.558,1.594,42.268,14.829-6.424,17.369-38.08-14.591-.6,1.577,38.1,14.6-6.619,17.9-51.964-22.19-.664,1.555L-100.2,377.9l-6.641,17.957-31.584-10.695-1.626,4.8,31.451,10.649-7.354,19.886,1.584.586,7.37-19.93,33.681,11.4-49.895,34.3,2.871,4.176,52.771-36.279,16.355,9.086-62.86,64.5,1.209,1.179L-49.686,424.7l36.161,20.09-11.048,33.186,1.6.533,10.994-33.033,40.159,15.645L13.9,491.815l4.6,2.137,14.347-30.834,21.611,10.045-1.462,4.832,1.616.491,1.394-4.6,14.321,6.657,2.137-4.6-14.974-6.96,10.6-35,5.293,1.767.534-1.6-5.337-1.079,5.548-17.627h14.7l-16,63.3,1.638.056,7.582-30.5,20.321-2.359-9.473,35.086,1.631.418,9.575-35.511,18.307,5.128-9.662,36.471,1.633.432,13.172-49.732,17.072,4.612L136.9,475.3l1.644.392,7.712-32.407,17.435,4.709-7,23.532,1.619.482,7.013-23.573,17.9,4.837-6.208,24.767,1.638.409,12.576-50.161,16.852,4.757-10.786,38.5,1.627.455,3.635-12.975,18.26,4.478-5.571,19.1,4.866,1.42,5.754-19.729,28.47-9.662,6.487,16.112,1.568-.63-6.452-16.025,42.623-14.463L305.4,457.64l-11.462,12.207L295.167,471l10.9-11.606,4.8,12.664,1.579-.6-5.1-13.435,27.674-29.475,13.3,10.27-24.96,32.813L327.4,474.7l24.938-32.786,22.35,17.251-10,13.5,1.358,1.007,9.979-13.473,12.2,9.415,1.033-1.339-12.222-9.433L403.1,423.654l23.306,18.867L402.843,475l1.366.991,12.212-16.829,21.517,14.709.953-1.4-21.477-14.681,10.31-14.207,51.5,41.691,3.19-3.94-32.979-26.7,8.584-12.9,24.685,16.761,2.779,13.426,1.654-.342-11.615-56.137,10.585-15.9,22.162-2.282,19.461,76.107,1.637-.419-19.4-75.862,21.584-2.22L548,473.345l1.654-.347-16.41-78.292,20.189-2.078,12.439,23.714,4.49-2.354-11.5-21.918,22.575-2.324-.172-1.68-23.247,2.392-38.158-72.745,35.259-27.471-1.037-1.333L518.85,316.356l-17.569-18.143,59.432-41.454-.967-1.385L500.09,297.629l-18.354-18.305h30.393l57.58-47.18-3.186-4.265L544.729,245.33l-2.34-31.341,31.682-1.634-.086-1.708-31.722,1.588L538.37,160.21l48.388-3.263-.113-1.685-48.4,3.255-2.006-26.8L555.754,118.4l7.205.253.176-5.066-28.294-.99-1.214-30.318,14.639-23.456,6.445-.859-.224-1.675-5.06.676,8.4-13.454,2.077.876.657-1.556-1.828-.773,5.034-8.064-1.433-.894-5.179,8.293L531.846,30.7l19.773-45.749.667.3.684-1.547-.679-.3,11.532-26.682-1.551-.669L550.744-17.283,536.1-23.744ZM534.558-24.427l-7.512-3.316,19.107-43.686L555-67.289Zm-4.647,56.142,1.11,27.7-17.6,2.346.055-36.989Zm3.576,85.9.7,9.364-36.2,24.714-1.531-9.873,15.575-24.955ZM458.875,400.659l9.234-12.721,2.383,11.526Zm11.962.469,2.892,13.981-16.168,24.285-17.949-12.187L457.543,402.5Zm-14.218-.236-39.674,4.083,29.091-39.267,20.927,16.7.681,3.294ZM246.9,431.638l-6.678-16.589,2.714-9.3,37.723-13.307,8.852,23.338ZM164.749,419.05,165.7,408.9l17.2-19.057,10.969,2.671-3.968,33.638Zm-31.59-8.919,11.8-8.406,19.034,7.378-.892,9.48Zm-34.667-.338,22.55-72.085,23.026,6.5L133.1,381.027l-10.176,8.1-1.258,6.778-.333.2,5.976,12.388-1.254,1.3ZM-11.326-119.518l.332-.762-7.347-3.343L-8.458-137.6l21.822,9.462L-9.715-75.382l-17.414-7.954Zm-17.34,35.481-13.345-6.095,22.678-32.087,6.126,2.787ZM109.392-155.36l.046.086-24.306,56.4-15.649-6.783,21.3-49.1,8.351-5.009,6.447-2.536,4.716,6.538v.4Zm33.337,53.449-8.121-3.5,3.088-6.715,7.742,4.116,2.323-1.167-4.208,9.378Zm-1.318,1.271,3.124,8.01-7.466,16.847-13.4-5.827,10.237-22.26Zm-5.026,26.4-18.145,40.95L104.25-39.4l18.709-40.679ZM136-56.632l6.77-4.676,3.165-8.778,6.124,2.662L134.29-26.284l-6.928-3.023,5.344-12.676-1.558-.657-5.334,12.657-6.027-2.632,18.148-40.951,6.454,2.805-3.02,8.37-6.323,4.366Zm93.215-81.633L237.3-132l-9.61,17.907-20.737-8.346,8.995-21.432ZM367.661-88.411l-12.286,7.068.843,1.466,12.056-6.937c2.588,6.746,4.694,12.131,5.786,14.905L366.1-67.031,344.663-74.3l-1.115-26.043,22.562,7.868Q366.906-90.383,367.661-88.411Zm123.444-43.176-11.559,25.926-9.688-23.65A144.6,144.6,0,0,0,491.106-131.586Zm24.081-9.21,1.439.654-19.1,44.118-16.9-7.9,12.515-28.069C501.17-133.7,509.085-136.432,515.187-140.8Zm1.548-1.153c.332-.257.665-.516,1.014-.789l-.452,1.045ZM497.482,161.26l-5,.339,4.817-3.289Zm-12.9-.411,10.507-16.832,1.352,8.734Zm-3.472,2.37-4.711,3.216-.877-50.848,15.24.534,3.93,25.339ZM407.246,333.268h-.605l1.048-53.944h21.88v24.8Zm-6.906,37.179-7.27-16.759,14.468-18.694,12.3,9.817ZM392.3,351.919l-8.057-18.57,21.207-27.042-.506,26.193-.01.417,1.283,1.022Zm-55.965,11.164,7.647-9.114-1.293-1.086-7.666,9.138-15.365-12.439,45.491-56L382.294,333.1l-32.229,41.1Zm-138.593-5.2-24.388-7.105L184.664,315.7l21.174,6.7-.393,1.267-7.313,33.943Zm-15.9,30.626-1.914,2.119-7.809-8.259L195.093,366l-1.718,5.807-8.811,3.578Zm-17.187,19.039-18.049-7,14.891-10.614,9.647,10.424Zm-30.98-24.921,2.83,3.876-12.891,8.148L124.47,390Zm-5.083-74.952-20.544-5.686,2.909-9.608,20.416,6.459Zm-17.147-16.91,14.421-47.632,20.912,6.741-14.9,47.354ZM75.805,321.791,49.019,307.615l5.263-11.844,26.812,6.974-2.011,7ZM8.581,394.463l-15.349-13.8,25.345-26.008,6.25,3.244ZM1.374,345.729l15.637,8.112L-8.023,379.529-20.776,368.06ZM8.933,187.238l-5.36,13.818-31.755-13.017,5.008-13.54ZM98.327,13.756,72.068,53.1l-5.674-2.532L82.986,6.985ZM204.725-121.5,193.464-94.664l-8.287-3.415,10.175-27Zm93.19,33.136L263.264-22.728l-1.158-.423-1.091,1.25L230.8-35.036l32.23-65.147Zm47.6,33.946-.775-18.073,19.486,6.606ZM343.869-53.4l-2.913,1.786-.25.152-.2.2-24.429-11.9,7.994-16.329,18.958,6.426Zm34.166-5.31,23.751-3.125,4.427,29.146-32.447,4.105Zm101.9-43.666,16.921,7.909L477.448-49.635l-1.741-.768-2.279,1.291-7.486-24.1,1.131-.323ZM490.4,22.979l.982,41.721-16.7,2.228-.77-44.561Zm-14.966,87.535-.723-41.885L491.426,66.4l1.051,44.709Zm-46.915,88.612-19.566,13.358.35-18.165,19.163-.352Zm1.637-5.189,6.127-.113-6.086,4.154Zm-63.94,98.512.347-13.125h19.789L374.32,311.443ZM273.9,379.241l28.129-37.407,13.116,10.617-29.272,36.032ZM157.729,346.225l11.064-35.547,14.258,4.51-11.319,35.117ZM169.3,309.067l8.229-26.439,14.512,4.692-8.466,26.261ZM57.467,284.441,41.5,277.929l17.01-31.348,18.753-6.7ZM21.1,169.563l6.14-16.13L70.2,170.375l5.188,15.851-28.3,10.7L15.463,184.377,20.5,171.144l35.618,16.139.7-1.54ZM7.935,145.821l14.59,5.754-6.048,15.892-21.306-9.653Zm38.4-56.791-24.1,19.932.3-10.33L32.42,76.516l16.262,6.342Zm7.854-4.113,2.169.758v40.2l-.465.079,13.742,42.336L27.9,151.854,53.17,85.686ZM140.2,32.24l-6.63,15.8L104.461,35.074l10.909-13.8Zm39.405-89.53,14.762-35.171,18.176,7.492L194.786-50.693ZM228.491-34.2,208.138,5.951,183.421-4.837l15.266-42.318Zm63.29-38.924,22.029,10.734-24.141,49.3-24.8-9.054ZM453.418-36.963q.292.975.586,1.954L439.49,18.52l-.43.706-28.2-9.444,2.665-4.155.17-.268-5.558-36.593ZM272.212,311.172l12.774-8.513,18.786,14.594-.2,19.309Zm-93.323-52.726,6.018-19.144,14.854,4.576-5.29,19.59Zm-58.011-73.2,2.359-7.4c.583-.647,1.862-2.065,3.631-3.968L166.3,187.8l-3.517,11.178Zm-16.237,35.532L83.3,212.81l1.237-10.637h8.625l15.085,6.569Zm4.111-14.08-15.215-7.04H84.206l-6.464-8.81,20.267-7.71,16.513,5.434ZM156.249,74.3l19.238-1.127-.05-.841.754.38,10.182-20.09,7.917,3.494-50.928,58.609ZM260.73,37.915l9.336,3.225L259.122,74.95l-16.214-5.245,4.772-17.66ZM377.8,58.207,362.616,81.875,341.54,84.687l12.707-39.82,1.43-4.083Zm32.124-46.958,28.239,9.458L422.6,46.332,398.765,28.646Zm11.794,36.533L405.87,73.868l-23.991-18.9,15.973-24.9ZM401.3,76.716l-36.486,4.865,14.319-22.324Zm-30.256,57.752,16.851,3.587-.445,54.974-13.539.249c-1.822.033-3.556.153-5.212.346l1.454-57.693Zm.928-1.53,10.507-17.3,5.119,20.629Zm-1.75-.373-7.873-1.678,17.41-26.223,2.148,8.661Zm-9.651-2.056-23.878-5.084,26.923-41.979,30.94-4.127ZM291.6,241.181l10.751-33.694,20.01,6.39-1.9,36.759ZM319.173,273.5l-32.884-13.888,4.218-13.588,28.666,9.347ZM272.056,288.47l-23.991-7.732,13.674-44.007,5.423,1.777-8.69,37.656,16.363,3.049ZM166.809,186.188l-38.683-13.653c3.431-3.665,8.163-8.575,13.007-13.179l31.077,9.67Zm-63.56-61.531L131.4,135.575,125.428,154.3,96.058,141.791Zm39.141-6.883.317.276,53.2-61.224,2.314,1.021L219.4,75.2l-23.1,25.007L176.029,80.384l-1.181,1.208,20.309,19.856c-4.256,4.588-33.423,35.871-44.072,42.971-7.32,4.878-17.347,14.843-24.221,22.058ZM232.764,68.2l8.094,2.62-11.95,44.229-30.535-9.613c.555-.6.913-.985,1.032-1.113Zm1.262-1.365,11.18-12.107L241.3,69.184Zm50.7,7.18,13.089,3.958,4.322-6.941,8.388,2.99-4.8,15.444-1.24.166-22.364-7.237Zm19.422,17.283.182.059.845-.113-13.533,43.552-23.492-7.4L281.62,84.006Zm30.782,33.751-5.849-1.312,11.892-37.266,20.45-2.728Zm-10.815-2.427-25.164-5.648,8.07-25.976,28.4-3.787ZM286.781,239.6l-23.538-7.711,15.651-50.378,23.931,7.809Zm-72.837,6.875-6.215-1.914,1.627-4.959,6.1,1.9Zm2.011-6.587-6.07-1.89,5.414-16.482,5.7,1.866Zm-9.386-21.233-4.56,16.891-14.5-4.514,5.305-16.883Zm-6.995-22.771,10.9-3.475,1.2,5.414-1.1.814-7.428,5.231L199,199.993Zm23-9.105L211.544,190.3l-4.1-7.854,2.034-8.5h6.393l-.284.438ZM237.9,119.647l-5.32,11.819-.155,2.361-23.56-8.282,4.3-13.685Zm4.5,84.969-7.987-3.03-3.137-4.635,3.552-13.589,12.582,5.118Zm-18.951-16.223,2.053,3.035-6.036.626-6.317,4.671-1.067-4.828,11.31-3.606Zm-3.348,5.294,6.476-.67,5.942,8.783-2.1,5.606-8.689,4.8h-3.953l-5.659-12.163Zm27.812-6.828-12.653-5.147,3.479-13.3,13.531,4.416Zm-8.7-20.075,7.946-24.917c.861-.33,1.686-.629,2.453-.874,5.6-1.792,9.832,4.41,10.728,5.855l-7.564,24.362Zm28.434-37.775,23.492,7.4-13.35,42.968-23.407-7.639Zm-6.661,15.76c-1.86-2.574-6.151-7.224-11.888-5.385-.513.164-1.052.351-1.6.553.248-2.8.625-8.851-.51-10.744-.776-1.3-1-4.847-1.041-7.016l20.1,6.324Zm-16.74-23.126c.006,1.772.134,6.493,1.287,8.418.793,1.322.551,7.031.2,10.553-1.231.495-2.511,1.046-3.784,1.622a11.873,11.873,0,0,0-2.279-3.971c-1.374-1.42-4.171-.952-5.8-.514l.384-5.872,5.275-11.722ZM233.116,144.8l.3-.235.328-5.024c1.675-.528,3.972-.864,4.707-.1a10.42,10.42,0,0,1,1.953,3.5c-5.142,2.4-9.773,4.928-10.076,5.092l-.234.127-1.921,3.905-3.661-.591C226.567,149.854,230.456,146.848,233.116,144.8Zm-24.754-17.645,23.952,8.421-.53,8.118c-3.113,2.394-7.775,5.994-9.355,7.3L204,141.047Zm14.782,25.812,6,.966,2.237-4.544c1.314-.708,7.91-4.235,13.748-6.7l-7.517,23.567-15.674-5.116C222.363,157.82,222.864,154.352,223.143,152.971Zm13.991,14.914L230.02,195.09l-5.126-7.575-7.454-13.6,4.081-11.124Zm-28.959,51.3,5.516,1.807L208.271,237.5l-4.647-1.447Zm-5.547-7.152,1.2-6.584,6.9-4.308,5.992,12.949h5.411l9.614-5.362,2.047-5.295,8.107,2.937-5.259,16.878Zm51.252-38.684,23.408,7.639-15.653,50.376L238.248,223.7Zm49.459,14.365L279.4,179.9l13.356-42.986,24.353,7.666Zm14.279-44.744-24.365-7.67,5.191-16.711,25.154,5.645ZM266.537,126.89l-20.378-6.415,14.049-43.4,19.806,6.408Zm-21.99-6.923-14.023-4.414,11.944-44.217L258.6,76.556Zm-71.831,47.445-30.171-9.387a97.416,97.416,0,0,1,11.35-9.39,73.257,73.257,0,0,0,7.049-5.616l17.635,5.755Zm-10.309-25.691c7.367-6.616,16.575-15.921,23.967-23.6l.723,3.581-8.012,25.464Zm26.433-19.927-1.04-5.159c3.923-4.091,7.224-7.608,9.3-9.833l14.453,4.55-13.215,42.093-17.643-5.756Zm14.643,20.9,18.06,9.751c-.237,1.032-.61,3.247-1.245,8.173l-20.356-6.643Zm16.689,19.575-3.242,9.55v1.5h-8.8l-2.471,9.871,4.273,8.05-10.959,3.276-9.4-7.437,9.985-31.444ZM189.04,188.691l8.867,6.918-.7,5.018,4.936,4.63-1.139,6.244-17.346-5.68Zm2.165,24.934-5.313,16.906-9.1-2.832,5.351-17.042Zm-14.916,15.686,9.1,2.834-1.587,5.048-9.1-2.8ZM187,232.645l14.57,4.534-1.368,5.065-14.787-4.553Zm16.184,5.038,4.56,1.418-1.629,4.965-4.3-1.324Zm2.4,7.987-3.078,9.37-3.738-1.014,2.606-9.652Zm1.615.5,6.249,1.924-5.972,19.566-6.632-2.138Zm15.4-22.26,12.542,4.109-13.7,44.139-12.354-3.982Zm14.146,4.635,23.386,7.662L246.457,280.22l-23.414-7.545Zm38.579,49.042-6.049-1.127,6.766-19.263,4.794,2.042Zm-.279-22.651-7.45,21.211-7.082-1.32,8.259-35.791,16.507,5.407-3.956,13.167Zm47.4-42.8-19.586-6.253,4.906-15.367,15.628,3.264ZM308.283,188.9l20.279-63.549,5.394,1.211L326.364,138.4l-.121.188-2.759,53.486Zm19.625-49.776,7.809-12.175,23.848,5.079-1.092,1.646-.071.106-18.38,61.747-14.862-3.1ZM349.44,43.258,342.677,64.45,317.923,55.9l11.2-36.03L351.47,37.47Zm-7.277,22.8-6.181,19.367L307.57,89.216l9.852-31.705ZM311.024,72.4l-9.6-3.422-4.358,7L285.225,72.4l7.294-23.5,23.306,8.055Zm-30.511,9.469-19.785-6.4,10.935-33.777,19.259,6.656Zm-59.965-7.917L199.2,56.469l-.535.654.342-.774-1.942-.856,32.674-37.6L253.757,38Zm-25.1-19.176-8.311-3.669,20.253-39.954,3.114,1.359c1.2.649,10.106,5.239,18.449,3.709ZM137.71,115.768l-26.407-10.3L123.29,76.9,146.9,86.927Zm-.513,1.615-.848,2.655L109.486,109.8l1.162-2.77Zm-1.362,4.267-3.925,12.312L103.9,123.1l4.929-11.743ZM94.825,141.13,58.236,125.413V91.824l49.5,18.931Zm-.975,1.557-12.674,30.2-9.617-3.792L57.908,127.384ZM80.522,174.443,76.471,184.1l-4.228-12.919Zm1.572.621,11.171,4.4L77.79,185.319ZM98.737,178l-.848-.279-2.273.859L82.747,173.5,95.4,143.349l29.508,12.564-8.85,27.762Zm81.448-28.7,17.645,5.758L182.058,205.3l-17.668-5.789Zm.354,60.83-6.382,20.328-17.7-5.724,6.416-20.393ZM174.187,236l9.1,2.8-6.009,19.123-9.062-2.919Zm24.144,19.655,3.649.99L199.236,265l-3.154-1.016Zm22.6,18.116-5.959,19.191-20.813-6.731,6.159-19.1Zm1.606.517,23.414,7.544-5.97,19.216-23.4-7.567Zm25.022,8.063,24.006,7.736-5.8,19.3-24.179-7.817Zm56.23,32.778-17.325-13.46,17.581-11.723Zm-31.4-10.167,13.135-43.726,32,13.632Zm49.981-53.781,2.821-57.057L341.26,197.5l18.72-63,1.378-2.1,7.94,1.693-.7,1.152-.118.192L367,193.854c-7.294,1.131-12.867,3.907-16.6,8.3-6.064,7.145-5.062,15.927-4.951,16.758l1.287,36.218L324.191,270.7v-19Zm24.111,11.435-.223,11.689H329.368Zm1.712-1.841,17.432-11.564L365,274.306H347.952ZM348.145,254l-1.005-35.183-.01-.1c-.012-.086-1.175-8.735,4.573-15.491,3.411-4.009,8.528-6.574,15.255-7.668l-1.173,46.392Zm20.51-58.678a52,52,0,0,1,5.286-.359l13.5-.247-.265,32.639-19.665,13.425Zm20.469-.636,18.493-.34-.372,19.3L388.87,226.2Zm.015-1.691.442-55.056,19.28-7.878-1.211,62.6Zm.187-56.777L383.714,113.6,400.5,85.966l8.268,42.312Zm-6.186-24.928-2.117-8.536,15.758-23.734,6.367-.849.073.057ZM408.3,75.781l-1.094-.861,19.737-32.5.311,30.83Zm18.972-.825.159,15.895-17.28-13.612Zm1.335-35.269,11.636-18.582,10.022.358V70.279L429.295,73.03ZM411.936,4.981l-2.854,4.447-14.2,1.144-5.149-39.478,16.73-2.116Zm-4,6.236L397.4,27.637l-.325-.242L395.1,12.251ZM395.5,28.323l.994.738L380.547,53.92l-5.761-4.538-3.662-35.2,22.294-1.8Zm-26.057-14,3.494,33.605-15.483-12.2,7.376-21.038Zm-16.2,18.1-19.336-15.23L359.3,15.136ZM316.327,55.342,293.02,47.288l13.934-44.88L327.7,18.745Zm-24.9-8.607L261.981,36.559,294.543,1.3l4.881-4.822,6.108,4.812Zm-.484-49L254.9,36.756,230.852,16.618l1.07-1.231a14.8,14.8,0,0,0,5.147-3.357c7.317-7.316,22.28-24.329,26.566-29.227L294.607-5.892ZM233.485,8.445c-6.985,6.982-20.5-.35-20.631-.423l-.105-.058-3.059-1.336,20.354-40.151,29.805,12.956C255.658-15.784,240.616,1.315,233.485,8.445Zm-27.641,2.034-20.25,39.948-19.053-8.41.174-.552L181.7-.06ZM184.829,51.937,174.9,71.513,156.8,72.574l9.224-28.938ZM147.42,85.308l-23.476-9.964,17.8-42.423,19.613,8.657ZM103.38,36.442l29.541,13.152L122.39,74.685,85.518,59.033ZM84.432,60.407l37.3,15.836-12.008,28.611L63.533,86.838ZM109.4,106.414l-1.005,2.781L58.236,90.015V86.334Zm-63.975,95.3L40.229,216.08l-31.965-13.1,5.382-13.871Zm1.571.625.054.02L76.1,191.377l6.805,9.17-1.231,11.106-10.748-4.271-7.411,18.243-21.72-8.9Zm15.885,24.849-5.916,14.566-1.978.706-.185.339-19.513-8.072,5.934-16.417Zm-3.783,13.8,12.764-31.419,9.621,3.824-2.265,20.409Zm24.013-26.95,21.066,8.373-.324,1.125-8.7,4.575-14.165,5.06Zm30.12-4.8,6.111-19.166,18.942,6.206L124.743,241l-18.889-6.086Zm26.66-12.434,21.376,7L147.28,248.261l-20.929-6.745Zm16.06,29.532,17.7,5.727-7.04,22.418-17.723-5.711ZM166.106,256.1l-6,19.117-17.731-5.731,6.011-19.1Zm1.607.519,14.666,4.725L176.421,280.5l-14.708-4.755Zm16.274,5.243,14.725,4.745-6.157,19.1-14.529-4.7Zm9.657,25.975,20.832,6.737-8.137,26.207-21.159-6.693Zm22.436,7.254,23.4,7.569-8.092,26.046-23.444-7.416Zm25.011,8.089,22.986,7.431-32.491,23.153Zm59.625,37.589-17.045,22.667-23.364-17.25,9-30.847ZM259.8,347.919l22.854,16.87-10.282,13.676-20.232-4.278ZM305.11,337.8h.142l.5-48.343,16.177-10.137H324.5L323.354,343l-5.01,5.844Zm21.075-58.479h19.981l-.71,36.467-20.373,25.4Zm21.67,0h17.022l-.343,12.981-17.347,21.678Zm18.84-5.018.654-26.6,19.774-13.164-.32,39.768Zm22.127-41.266,18.3-12.157L406.1,274.306h-17.6Zm20.016-13.665,19.747-13.146.681,68.076H407.787Zm.5-26.748,1.224-63.26,17.185-7.023.7,69.934Zm1.022-65-8.56-43.8,2.755-4.538,22.94,18.07.233,23.174ZM429.2,98.7l17.748,13.979-17.535,7.166Zm.367-6.5V74.731l20.7-2.747v36.3ZM452.15,71.759,470.1,69.3l.486,41.032-18.7-.668.265-.055ZM470.075,67.6l-17.925,2.45V21.526l17.363.653ZM440.9,19.451l.095-.155.061-.1L454.923-31.94c4.9,16.372,9.8,33.139,13.8,47.063l.092,5.366ZM471.794,7.5c-2.7-9.321-7.958-27.373-13.563-46.061L475.8-48.514l18.122,8Zm.129-55.76-14.191,8.041q-.44-1.465-.882-2.932c-3.017-10.01-5.571-18.334-7.742-25.262l15.209-4.335Zm-19,9.653-24.1,3.05-5.093-29.173L444.1-67.408C446.835-58.684,449.852-48.812,452.924-38.606ZM427.15-35.342l-19.262,2.437L403.461-62.06l18.6-2.449Zm-39.091,6.65,5.141,39.4-27.759,2.236,4.095-11.679,3.985-28.12ZM364.587.06l-4.675,13.332-27.962,2.252-2.021-1.591-1.693-35.177,40.072-5.071ZM328.172,12.669,303.055-7.114l18.957-18.742,4.518,4.366Zm-29.579-22.5-7.329-2.674L315.33-61.65l23.9,11.645Zm15.958-54.076-21.98-10.708,6.965-13.195,22.919,7.769Zm-85.3,28.2-29.8-12.955,31.307-60.416.926-1.726,29.738,10.079Zm-2.982-75.735L213.328-86.473l-18.3-7.546L206.3-120.878l20.584,8.286ZM184.581-96.5l8.229,3.391L178.061-57.963l-6.874-2.988Zm-7.174,40.091-6.2,14.764L164.838-44.1l5.752-15.266Zm1.549.674L194.03-49.18,178.766-6.87,161.6-14.364Zm-1.915,53.64L161.933,39.79l-.055.17-19.474-8.6L159.634-9.692ZM140.857,30.682,116.22,19.807l17.609-40.761,24.256,10.588ZM61.887,86.2l-6.438-2.51,7.327-6.06-.209-.255L73.115,54.581,99.9,14.448l13.877,6.125Zm9.363-31.608L60.875,77.008l-6.629,5.479L65.793,52.154ZM49.282,81.279,33.109,74.973,47.051,43.794l14.107,6.293ZM31.534,74.358l-16.456-6.42L28.962,35.725,45.508,43.1ZM-21.792,13.085-8.523,19-23.145,53.03l-13.645-5.321ZM-6.98,19.692,9.6,27.089-5.144,60.052l-16.425-6.407ZM41.931,1.368,28.089,33.485l-16.253-7.25L25.057-3.314ZM10.293,25.548-6.313,18.14,15.3-32.146l7.93,28.323.184.051Zm.855,2.23L27.42,35.036,13.5,67.325l-17.07-6.658Zm18.485,6.853L43.589,2.707H63.982L46.2,42.25ZM43.957-3.329,27.336-7.943l-.094-.337L49.048-58.548l15.878,6.563ZM26.518-10.86,18.483-39.423l.286-.522h0L30.436-66.1l17.051,6.981Zm4.61-56.922L50.9-111.868l16.356,7.094-19.1,44.031Zm-1.562-.646L14.42-74.69l19.419-44.575,15.513,6.727ZM13.744-73.142l15.131,6.255L17.767-42.119,11.622-64.061l.57-1.314-1.527-.7ZM8.426-56.681,14.57-34.735-7.857,17.451-21.12,11.534ZM-12.006-22.262l-15.924-7.264,17.72-40.508L5.566-62.83Zm-.673,1.551L-25.766,9.505l-16.2-6.93,13.363-30.552Zm-13.76,31.767L-41.369,45.526-56.9,36.717-42.647,4.122Zm-11.023,38.2,13.649,5.324L-33.937,78.147l-13.021-6.963ZM-22.238,55.2l16.4,6.4L-17.095,86.767l1.542.69L-4.258,62.21,12.5,68.747-6.552,92.793-32.443,78.947ZM-7.4,94.256l-11.213,27.511-17.709-7.853,12.259-28.569Zm1.806.046L14.148,69.388,30.843,75.9,20.918,98.094l-.067.153-.357,12.148L-2.111,129.083l-14.953-6.631ZM45.115,92.23,23.127,149.995,9.3,144.541l10.417-9.788-1.156-1.231L-6.261,156.84l-11.1-12.957ZM-6.162,159.065l22.034,9.984-5.121,13.457L-18.682,170.83ZM2.963,202.63-3.3,218.768l-31.44-13.006,5.971-16.141Zm4.69,1.922,32,13.118-5.933,16.411L1.386,220.706Zm25.5,31.12-6.254,17.3L-5.869,239.412.776,222.281Zm1.563.647,19.278,7.975L45.174,260.54l-16.718-6.92Zm9.654,25.713L36.783,276l-14.309-5.829,5.408-14.966ZM35.973,277.5l-9.985,18.4-11.457-3.76L21.9,271.764ZM25.111,297.391l-9.139,15.235-7.9-2.619,5.883-16.276Zm-10.03,16.719L5.611,329.893,1.4,328.464,7.5,311.6ZM4.722,331.376l-5.743,9.572-3.286,3.311,5.136-14.2Zm20.795,24.973-5.706-2.96,12.906-13.243ZM34.694,335.7l-16.45,16.88L2.621,344.471l.387-.39,26.827-44.708,17,9ZM30.667,297.9l10.026-18.478,16.089,6.564-9.259,20.836Zm50.9,3.22-26.585-6.916,6.878-15.479,24.152,6.921Zm4.911-17.1-23.925-6.855,6.185-13.92,22.156,5.4ZM69.432,261.68,79.465,239.1l17.558-6.272,4.893-2.559L91.356,267.027Zm35.956-25.144,18.866,6.08-9.146,30.2-18.824-4.59ZM141.867,271.1l17.73,5.733-8.329,26.531-17.782-5.626Zm19.339,6.253,14.712,4.757-8.235,26.448-14.806-4.683Zm5.976,32.817-11.075,35.584-15-4.37,11.269-35.9Zm4.145,41.778-2.949,17.527L140.1,363.3l5.6-18.827Zm-31.713,12.982L168.1,371.14l-1.505,8.942-21.5,15.321-10.33-14.147ZM137.5,387.87l6.215,8.513-15.015,10.7-5.176-10.38ZM172.277,399.1l-9.395-10.153,7.845-5.589,8.063,8.528Zm-3.737-20.408,4.42-26.271,23.034,6.709Zm38.539-54.6.369-1.188,23.442,7.414-1.572,5.066-29.147,20.768Zm56.384-6.816-16.279,55.815L227.72,368.6l2.437-27.593Zm-11.794,58.537,20.7,4.375,11.9,9.185-40.745,14.372Zm34.192,14.793L301.143,402.4l-10.258,12.224-8.63-22.749Zm1.355-1.091,29.245-36,15.3,12.387-29.535,35.2Zm88.076-76.158,12.865-34.034H406l-.5,24.821L383.48,332.234Zm56.785-34.034h17.416l-17.416,22.621Zm18.19-45.466-5.645.216v-18.1h5.645Zm0-19.768h-8.154v21.728l8.154-.271v38.759H430.955l-.343-69.559,19.655-13.85Zm-11.086-22-8.861.159-.8-70.588,19-7.782.343.287.989.514.414,0v70.078Zm12.968-77.349,18.749.672,1.165,54.446L452.15,183.605Zm40.335,1.443,17.6.616-14.024,22.467Zm1.685-5.013-1.06-44.994,18.616-2.483-.072,48.089Zm-1.1-46.693L492.1,23.042l18.951.705.739.313-.056,37.929Zm-19.188-43.8-.09-5.4,24.768-53.748,16.257,7.176L490.7,21.3ZM499.269-40l20.223-43.887L535.511-76.4,515.524-32.828ZM494.63-42.05l-15.636-6.9,19.393-44.8L514.9-86.038Zm4.43-53.259,19.1-44.136,17.65,8.021L515.607-87.573Zm-31-33.94,10.539,25.722L465.851-74.942l-.41.116L449.174-127.2a35.841,35.841,0,0,1,10.81-1.952C461.96-129.149,464.747-129.15,468.056-129.249Zm-4.24,54.887-15.21,4.344c-10.035-31.924-11.492-32.761-12.707-33.454a84.1,84.1,0,0,1-8.236-6.844l7.609-10.464a72.391,72.391,0,0,1,12.3-5.869ZM433.009-99.307c1.475,2.275,5.5,14.159,10.574,30.262l-20.139,2.651-5.366-30.743,6.6-9.082C428.538-102.8,431.623-100.239,433.009-99.307Zm-16.377,3.715,5.136,29.418-18.56,2.442-3.073-20.22Zm-18.04,12.73,2.939,19.351-23.25,3.06,1.274-8.978ZM368.554-27.928l-40.9,5.175-4.439-4.291,20.641-20.407,30.078-18.436Zm-26.721-73.01,1.114,26.058-18.13-6.145L335.628-103.1ZM323.2-81.571l-22.867-7.752,11.631-22.03,22.056,7.691Zm-24.489-8.3-19.654-6.663,3.768-12.172-1.612-.5-3.757,12.13-13.67-4.633,11.158-22.551,35.407,12.346ZM288.652-155.78,274.1-126.365,260.734-131.4l17.561-29.585ZM259.127-132l-13.369-5.038,17.035-31.734,13.986,7.03Zm-14.174-3.536,28.4,10.7-11.176,22.585-29.684-10.061Zm-39.574,12.485-23.551-9.017,9.573-22.161,22.99,9.708Zm-24.221-7.466,12.617,4.832L169.636-61.625,154.28-68.3ZM169.039-60.042,162.667-43.13l7.889,3.049L160.047-15.04,135.838-25.607,153.61-66.749ZM102.132-34.79,132.279-21.63l-17.6,40.754L83.638,5.425Zm-40.374,83.3L47.741,42.25,65.79,1.883,77.708,6.605ZM66.181-2.311H45.773L86.013-96.16l16.163,7.25Zm-.587-51.224L49.721-60.1l19.09-44,15.653,6.787Zm32.4-107.514-8.545,5.126-21.516,49.6-16.34-7.084L80.688-178.27l18.889,9.134Zm-47.951,46.97-15.532-6.735,28.71-65.9,15.946,7.71Zm-17.082-7.406L15.59-129.018l29.148-66.636,16.961,8.2Zm-.674,1.548L9.127-66.775-8.179-74.68l23.091-52.791Zm-44.035,49.2L-29.466-30.227l-17.394-7.936,17.7-40.528Zm-18.4,42.059L-43.524,1.91-61.081-5.6l13.545-31.012ZM-62.635-6.264l-14.873-6.362,14.245-31.163,14.191,6.474Zm-.676,1.548-13.231,30.3-14.639-8.3,12.968-28.37Zm1.554.664L-44.2,3.459-58.38,35.88-75.065,26.42Zm2.695,41.487L-68.8,59.7l-16.921-8.878,9.979-22.849Zm1.478.837,15.542,8.812L-51.451,68.8-67.3,60.489Zm5.46,32.085L-65.4,101.014l-16.437-7.29L-67.98,62.038ZM-54.68,89.011l11.372,5.617.747-1.516-11.446-5.653,6.375-14.72,22.077,11.806-12.306,28.682L-60.769,103.07Zm35.433,34.32-6.936,17.019-42.932-18.013,7.674-17.718Zm1.545.686,14.136,6.27L-28.741,151.1Zm-.958,20.943L-7.493,158l-12.923,12.143-19.394-7.695Zm-6.085,28.914-5,13.523-17.677-7.247,12.21-10.43Zm-24.124,7.508,18.537,7.6L-36.3,205.116l-27.189-11.247ZM-64.93,195.1l28.044,11.6-6.373,17.236L-79.7,208.857l-.745-.5Zm29.607,12.247,31.414,12.995-6.646,17.131L-41.7,224.584Zm24.156,31.7L-17,254.1-47.95,241.489l5.666-15.319Zm4.685,1.938,32.8,13.576-5.413,14.973-33.214-13.529Zm26.812,30.137-7.406,20.491-34.638-11.365,8.794-22.669Zm-7.98,22.079-5.88,16.268-35.016-11.609,6.22-16.036ZM5.9,311.064-.2,327.923l-34.278-11.632,5.388-16.826ZM-.773,329.512-6.811,346.22-40.1,333.845l5.1-15.945Zm-6.937,18.177-12.839,12.946-25.286-8.871,5.222-16.306Zm-14.157,14.274-15.741,15.871-14.763-5.655,6.021-18.806Zm-17.04,17.182L-55,395.367l-4.218-1.8,6.333-19.777Zm-17.374,17.515-5.8,5.85,2.345-7.326Zm34.312-27.4L-9.2,380.74l-18.435,18.916-21.6-2.9ZM-7.947,381.87,7.86,396.087l-3.5,7.868-29.917-4.017Zm56.279-72.708,27.017,14.3-14.014,51.48L44.461,371.4l-.347,1.653,16.777,3.526-9.185,33.74L6.1,404.188Zm31.753,16.613L97.653,331.1,73.89,409.792H57.326Zm.444-2.04,3.436-12.622,11.853-41.259,18.8,4.587L98.142,328.866Zm27.025-20.128,20.528,5.679-8.158,25.926-20.16-5.875Zm25.425-4.258,17.783,5.625L139.48,340.911l-17.933-5.224Zm61.1,91.479-10.466-2.552,2.424-11.669,8.726-3.546,2.343-7.913Zm34.29-48.542L226.083,368.1l-22.538-8.123Zm-.943,27.975,19.286,4.454-8.66,29.692-18.021-7.749ZM219.57,398.3l18,7.742-9.048,31.016-18.365-5.186Zm19.89,19.374,5.858,14.552-11.334,4.219Zm63.022-14.241,14.733,11.373L299.33,436.885l-7.759-20.449Zm1.086-1.3,29.508-35.172L346.9,378.159,318.28,413.493Zm44.65-22.917,14.11,11.424-27.544,35.585-15.166-11.7Zm3.16-3.962,31.683-40.4,8.061,18.583-25.691,33.192Zm40.511-20.047,7.28,16.777-19.753,25.966L366.746,387.7Zm31.917-7.24,20.908,16.681-39.9,53.861-21.454-17.369Zm44.688,33.494L447.04,364.349l20.622-27.837,22.251,18.5L468.986,383.85Zm-22.775-18.172-20.89-16.667,21.306-28.01,20.226,16.814Zm-24.852-19.829-12.295-9.809,21.79-28.152,11.873,9.869ZM431.4,304.815l20.232-25.49h19.013L443.258,315Zm20.752-30.508V189.742l19.794-13.148,1.231,97.712Zm25.131-56.446L500.968,217l3.625,57.3H478.244Zm-.03-2.363-.741-43,13.373-9.131.008.1,7.7-.518,3.272,51.36Zm22.024-52.665,19.15-1.289,2.959,51.73-18.838.949Zm-.107-1.686-.25-3.946,18.536-12.656.875,15.311Zm14.25-97.68,17.671-2.356.83,20.71-18.572,29.757Zm-1.856-41.336-.141-.06-18.894-.7,23.841-51.979L533.829-22.9,512.217,22.407Zm33.06-94.276L525.5-28.425l-8.43-3.72,19.97-43.543Zm11.824-49.905L536.216-77.94,520.2-85.427l20.229-43.9Zm-19.923-10.91-17.688-8.036,1.724-3.981c11-8.866,26.932-22.774,35.454-30.28ZM511.21-144.2c-6.673,4.387-16.475,7.339-29.284,8.834l-1.532-24.21a155.492,155.492,0,0,0,15.944-6.757ZM458.722-154.5A87.709,87.709,0,0,0,478.74-159l1.5,23.81a194.929,194.929,0,0,1-20.26.973,40.928,40.928,0,0,0-12.316,2.18l-5.938-19.118A83.453,83.453,0,0,1,458.722-154.5Zm-18.6,3.855,5.947,19.147a74.642,74.642,0,0,0-13.92,6.689l-.4.258-7.857,10.8c-5.471-5.052-11.757-11.135-16.69-16.376A81.735,81.735,0,0,1,440.122-150.642ZM359.1-152.286c17.536-3.423,28.431-3.481,32.385-.17,1.917,1.607,2.021,3.911,1.965,7.518a18.129,18.129,0,0,0,.474,5.552c1.659,5.4,15.963,19.695,26.971,29.759l-7.2,9.906L378.373-74.793c-4.555-11.629-20.99-53.975-25.761-71.629a24.12,24.12,0,0,1-.744-4.7C354.149-151.409,356.553-151.79,359.1-152.286Zm-50.357-22.291c3.714,9.9,9.661,25.7,38.093,23.917a28.384,28.384,0,0,0,.884,5.558c3.163,11.708,11.121,33.452,17.609,50.566L275.7-125.787l14.463-29.234.874.44.759-1.511-.883-.443,13.024-26.326a12.7,12.7,0,0,1,1.948,1.992A28.964,28.964,0,0,1,308.741-174.577Zm-30.275-23.408c9.314,4.752,18.927,10.059,24.121,14.038L289.4-157.295,263.59-170.267Zm-20.206,26.93-20.152,37.548-7.942-6.158-.517.666.328-.778L216.6-145.426l16.14-38.456Zm-27.034-13.587-16.183,38.559-22.973-9.7L209.3-195.663ZM152.732-68.975,138.618-75.11l7.746-17.479-1.949-5,5.735-12.787,5.031-2.528,10.925-24.949,13.5,6.655ZM164.588-138.6l-10.71,24.46-8.419,4.231-7.055-3.751,14.188-30.851ZM98.279-38.542,79.666,1.928,67.8-2.772,84.4-42.593Zm4.547-52.651-16.144-7L111.167-155l.861-.408.153-.838v-10.493l23.733-2.2Zm7.472-75.4v7.666l-4.06-5.5-6.06,2.494,1.12-6.446,4.876,2.11ZM35.67-200.037l7.546,3.648-29.175,66.7-21.5-9.323ZM-73.247-165.7l63.207,27.4-9.865,13.956L-81.2-152.217Zm-8.812,14.942L-20.9-122.931-43.575-90.848l-58.146-26.56Zm37.886,65.205L-30.7-79.392-48.4-38.863l-14.165-6.463Zm-34.343,34.8L-64.8-44.49l-14.263,31.2-13.748-5.88C-85.057-36.605-79.865-47.843-78.516-50.747ZM-101.083-.406Q-97-9.759-93.5-17.625l13.732,5.873-12.89,28.2-11.556-6.552A44.222,44.222,0,0,1-101.083-.406Zm-3.4,12.09,11.118,6.3-7.147,15.635A37.758,37.758,0,0,1-104.48,11.684Zm4.975,23.808,7.619-16.667,14.663,8.314-9.937,22.75A51.268,51.268,0,0,1-99.506,35.492ZM-86.4,52.372l16.92,8.879-13.9,31.787-17.405-7.719Zm-15.066,34.5,17.405,7.719L-92,112.736l-17.551-7.363Zm11.026,26.521,7.924-18.117,16.443,7.292-7.715,17.812Zm20.654,10.5,42.965,18.027-4.67,11.46L-41.6,161.736l-38.04-15.093Zm32.794,45.13L-81.9,207.368l-18.6-12.588,18.836-43.485Zm-72.82,47.273,8.635-19.933,17.948,12.149-14.756,12.6Zm13.589,5.535,14.444-12.336,1.2.813.071.047,36.661,15.172-5.669,15.329Zm47.686,21.248,30.922,12.6-8.922,23L-57.895,268.38Zm-9.946,26.893,31.335,10.279-6.215,16.021L-64.4,285.975Zm-6.506,17.595,31.094,10.309-5.38,16.793-31.754-10.774Zm-6.625,17.914,31.825,10.8-5.061,15.8-32.18-11.961Zm-6,16.227,32.248,11.988-5.251,16.4-33.189-11.643Zm-6.777,18.324,33.26,11.668-5.978,18.668L-90.831,357.44Zm-7.026,19,33.792,12.946-6.275,19.6-34.158-14.588Zm-7.228,19.544,34.226,14.615-4.922,15.374-35.9-12.155Zm35.088,32.626,12.828-12.933,21.62,2.9-18.441,18.924Zm36.535-9.75,30.671,4.12-15.313,34.459L-46.02,420.938Zm16.883,39.3,4.235-9.531,23.537,11.041.718-1.529L-5.219,429.674,5.39,405.8l45.679,6.134L30.324,456.517Zm66.078,28.217-20.955-9.392,20.7-44.136H72.355Zm43.336-137.6,20.144,6.071-22.7,72.353H75.655Zm-16.794,115.7,8.083-31.634h20.38l-8.105,29.707Zm22.056-2.087,8.158-29.547h14.981l3.72-3.351,1.408.047-9.966,37.808ZM127.98,436.6l6.452-24.353,16.369,4.622-5.79,24.33Zm18.662,5.04,5.786-24.31,18.8,5.309-7.061,23.736Zm36.991,9.993L165.8,446.812l7.057-23.718,16.746,4.729Zm7.915-25.011,7.487-63.43,2.839-2.023,23.928,8.628-17.266,61.623Zm11.465,30.771,6.693-23.889,18.348,5.182-6.763,23.19Zm23.429,4.92,6.953-23.841,12.554-4.672,7.756,19.263Zm21.091-29.1,15.651-5.825,7.924,19.771-15.8,5.362Zm25.176,13.4-7.943-19.817,25.347-9.436,7.848,20.684Zm33.973,9.66-6.658-17.556,18.531-22.874,15.127,11.676Zm29.439-29.006,27.521-35.556,12.7,10.284-26.992,35.483ZM375.7,457.811l-22.331-17.238,26.92-35.39,21.5,17.409Zm30.429-38.232,9.455-12.765,39.7-4.086-25.9,35.684Zm41.994,33.994-17.413-14.1,7.911-10.9L456.625,440.8Zm34.1,2.559-23.257-15.79,15.25-22.91Zm-7.17-43-2.519-12.175,11.405-1.175Zm-2.865-13.84-2.73-13.2,21.766-29.994,8.285,6.887,8.347,32.638ZM501,362.033l-8.791-7.31,10.029-13.82,26.055,52.614-18.746,1.927Zm29.085,31.3L503.36,339.357l12.846-17.7,36.382,69.358ZM515.32,320,490.908,353.64,468.67,335.152l21.76-29.372,6.639-4.63Zm-25.969-15.524-.114.078-21.869,29.519-20.208-16.8,28.824-37.894,19.893,20.543Zm20.987-30.168h-4.051l-3.631-57.725,18.826-1.282,2.677,47.332Zm32.793-27.849-17.355,14.026-2.61-45.606,17.535-.883Zm-2.555-34.149-17.505.882-2.96-51.759,16.574-1.117Zm-4.019-53.678-16.542,1.114-.933-16.31,15.544-10.612Zm-.757-32.747-.614-8.205,12.018.42Zm-2.649-13.35-18.015-.631,16.9-27.083Zm.358-33.257-.737-18.39,13.323-1.777Zm13.748-22.027L532.7,59.191l-1.073-26.75,24.616,10.4Zm2.817-72.979L530.29,30.043l-16.515-6.977,21.6-45.284Z" transform="translate(2188.208 5436.9)" fill="#e6e6e6"/>
  </g>
</svg>
