<svg xmlns="http://www.w3.org/2000/svg" width="512" height="512" viewBox="0 0 512 512">
  <g id="img_dg_set" transform="translate(-829 -7358)">
    <g id="Group_11606" data-name="Group 11606" transform="translate(935.045 7465.648)">
      <path id="Path_7749" data-name="Path 7749" d="M218.619,184.1a4.347,4.347,0,0,0,4.347,4.347h57.218v87.624H58.2V188.444h147.38a4.347,4.347,0,1,0,0-8.694H53.85A4.347,4.347,0,0,0,49.5,184.1v96.318a4.347,4.347,0,0,0,4.347,4.347H284.53a4.347,4.347,0,0,0,4.347-4.347V184.1a4.347,4.347,0,0,0-4.347-4.347H222.966A4.347,4.347,0,0,0,218.619,184.1Z" transform="translate(-19.053 -75.565)" fill="#0d1b3a"/>
      <path id="Path_7750" data-name="Path 7750" d="M158.5,218.088A38.433,38.433,0,0,0,129.8,204.929c-20.494,0-37.912,17.478-37.912,37.913a38.088,38.088,0,0,0,27.352,36.411,39.666,39.666,0,0,0,21.12,0A37.887,37.887,0,0,0,158.5,218.088ZM125.36,271.719,129.8,242.48l4.443,29.239A29.207,29.207,0,0,1,125.36,271.719Zm17.28-2.635s-4.763-31.334-4.772-31.384a8.207,8.207,0,0,0-16.13,0c-.009.05-4.772,31.384-4.772,31.384a29.386,29.386,0,0,1-16.381-26.242,29.031,29.031,0,0,1,4.1-14.895l2.837,2.837a4.347,4.347,0,0,0,6.147-6.147l-3.452-3.452a29.129,29.129,0,0,1,15.244-7.236v6.03a4.347,4.347,0,1,0,8.694,0v-6.031a29.131,29.131,0,0,1,15.244,7.236l-3.452,3.452a4.347,4.347,0,1,0,6.148,6.147l2.837-2.837a29.034,29.034,0,0,1,4.095,14.895A29.386,29.386,0,0,1,142.64,269.084Z" transform="translate(-36.872 -86.151)" fill="#ec691f"/>
      <path id="Path_7751" data-name="Path 7751" d="M271.761,237.158a19.233,19.233,0,1,0,19.232,19.233A19.254,19.254,0,0,0,271.761,237.158Zm0,29.77A10.538,10.538,0,1,1,282.3,256.39,10.55,10.55,0,0,1,271.761,266.928Z" transform="translate(-104.403 -99.699)" fill="#ec691f"/>
      <path id="Path_7752" data-name="Path 7752" d="M389.607,256.391a19.233,19.233,0,1,0-19.233,19.233A19.254,19.254,0,0,0,389.607,256.391Zm-29.771,0a10.538,10.538,0,1,1,10.538,10.538A10.55,10.55,0,0,1,359.836,256.391Z" transform="translate(-145.859 -99.699)" fill="#ec691f"/>
      <path id="Path_7753" data-name="Path 7753" d="M158.565,384.894a4.347,4.347,0,0,0-4.347,4.347v9.89a4.347,4.347,0,0,0,8.694,0v-9.89A4.347,4.347,0,0,0,158.565,384.894Z" transform="translate(-63.074 -161.806)" fill="#0d1b3a"/>
      <path id="Path_7754" data-name="Path 7754" d="M347.129,384.894a4.347,4.347,0,0,0-4.347,4.347v9.89a4.347,4.347,0,1,0,8.694,0v-9.89A4.347,4.347,0,0,0,347.129,384.894Z" transform="translate(-142.345 -161.806)" fill="#0d1b3a"/>
      <path id="Path_7755" data-name="Path 7755" d="M259.413,401.844a4.348,4.348,0,0,0-6.134.412,13.883,13.883,0,0,1-20.429,0,4.347,4.347,0,1,0-6.546,5.722,22.572,22.572,0,0,0,33.521,0A4.346,4.346,0,0,0,259.413,401.844Z" transform="translate(-92.926 -168.48)" fill="#0d1b3a"/>
      <path id="Path_7756" data-name="Path 7756" d="M25.561,77.916A21.4,21.4,0,0,0,4.182,99.3V253.781a21.414,21.414,0,0,0,17.032,20.934v9.731a12.327,12.327,0,0,0,12.313,12.313H67.794a12.327,12.327,0,0,0,12.313-12.313V275.16H220.168v9.286a12.327,12.327,0,0,0,12.313,12.313h34.266a12.327,12.327,0,0,0,12.313-12.313v-9.731a21.415,21.415,0,0,0,17.032-20.934V99.3a21.4,21.4,0,0,0-21.379-21.379H244.187V64.74a9.357,9.357,0,0,1,9.347-9.347h38.212a4.347,4.347,0,0,0,4.347-4.347V4.347A4.347,4.347,0,0,0,291.746,0H253.534a64.814,64.814,0,0,0-64.74,64.74V77.916h-97.2V61.9h.585a11.76,11.76,0,0,0,11.746-11.746V35.1A11.759,11.759,0,0,0,92.179,23.35H63.9a4.347,4.347,0,1,0,0,8.694H92.179A3.056,3.056,0,0,1,95.231,35.1V50.152A3.055,3.055,0,0,1,92.179,53.2H35.55A3.056,3.056,0,0,1,32.5,50.152V35.1a3.056,3.056,0,0,1,3.053-3.052H46.514a4.347,4.347,0,1,0,0-8.694H35.55A11.76,11.76,0,0,0,23.8,35.1V50.152A11.76,11.76,0,0,0,35.55,61.9h.584V77.916Zm45.851,206.53a3.623,3.623,0,0,1-3.618,3.619H33.528a3.623,3.623,0,0,1-3.619-3.619V275.16h41.5Zm198.954,0a3.623,3.623,0,0,1-3.619,3.619H232.481a3.623,3.623,0,0,1-3.618-3.619V275.16h41.5ZM287.4,99.3V253.781a12.7,12.7,0,0,1-12.685,12.685H25.561a12.7,12.7,0,0,1-12.685-12.685V99.3A12.7,12.7,0,0,1,25.561,86.61H274.714A12.7,12.7,0,0,1,287.4,99.3ZM197.488,64.74A56.11,56.11,0,0,1,253.534,8.694H287.4V46.7H253.534A18.061,18.061,0,0,0,235.493,64.74V77.916H197.488ZM44.829,61.9H82.9V77.916H44.829Z" fill="#0d1b3a"/>
    </g>
    <g id="Ellipse_444" data-name="Ellipse 444" transform="translate(829 7358)" fill="none" stroke="#0d1b3a" stroke-width="12">
      <circle cx="256" cy="256" r="256" stroke="none"/>
      <circle cx="256" cy="256" r="250" fill="none"/>
    </g>
  </g>
</svg>
