<svg xmlns="http://www.w3.org/2000/svg" xmlns:xlink="http://www.w3.org/1999/xlink" width="307" height="211" viewBox="0 0 307 211">
  <defs>
    <clipPath id="clip-path">
      <rect id="Rectangle_4798" data-name="Rectangle 4798" width="307" height="211" transform="translate(1592.207 128)" fill="#fff" opacity="0.4"/>
    </clipPath>
    <linearGradient id="linear-gradient" x1="-172.574" y1="-77.656" x2="-172.823" y2="-78.21" gradientUnits="objectBoundingBox">
      <stop offset="0" stop-color="#ec691f"/>
      <stop offset="1" stop-color="#ff975d"/>
    </linearGradient>
  </defs>
  <g id="img_create_route" transform="translate(-1592.207 -128)" clip-path="url(#clip-path)">
    <g id="img_create_route-2" data-name="img_create_route" transform="translate(1573.729 115.039)">
      <path id="Path_78315" data-name="Path 78315" d="M0,63.365l108.767,63.99,54.648-28.51L196.68,74.132l46.57-25.189,30.415-20.43,15.68-10.929L257.981,0,4.221,54.65Z" transform="matrix(0.985, -0.174, 0.174, 0.985, 33.213, 118.402)" fill="#333" opacity="0.16"/>
      <path id="Path_78135" data-name="Path 78135" d="M101.82,61.074l5.258-.489a60.2,60.2,0,0,0,6.15-18.664l-6.936-3.957q5.784,7.854-4.473,23.11M.233,5.146l-.172-.1A2.33,2.33,0,0,0,0,5.3L3.97,7.561c.025-.083.053-.169.086-.258q22.438-6.139,42.35-3.468L40.023.2A116.211,116.211,0,0,0,2.6,4.338Q1.408,4.655.233,5Z" transform="matrix(0.978, -0.208, 0.208, 0.978, 80.927, 127.515)" fill="#f2f2f2"/>
      <path id="Path_95970" data-name="Path 95970" d="M4626.186,9146.284a25.139,25.139,0,0,0,8.508.912,25.065,25.065,0,0,1-8.508-.915c-.116-.034-.229-.064-.333-.091l-51.567-16.276q3.791-1.783,7.938-3.438-4.145,1.655-7.938,3.438l-4.271-1.357q20.669-10.667,40.7-12.2c.076,0,.152-.01.236-.01l10.42,3.286c-.153-.012-.3-.017-.444-.02-.169-.008-.342-.017-.514-.021.172,0,.343.014.514.021l19.244,6.131c-.1-.094-.211-.184-.321-.267l35.976,11.343c.191.153.378.309.562.47q7.291,6.478.432,23.535l-2.3.717Zm8.7.9.078,0Zm8.106-18.2q6.529,7.141,6.56,11.452-.031-4.311-6.56-11.452ZM4684,9139.717c-.008-.112-.014-.225-.02-.332l30.618,9.665-32.735,10.2A60.19,60.19,0,0,0,4684,9139.717Zm-125.142-14.679q2.967-8.184-.379-14.039l3.312-1.04,4.006,17.138-.158.084Zm5.285-15.807,4.77-1.487,1.3,3.344,10.25-2.992-.622-1.573,13.658,4.313-2.924,1.337,6.284-.272,7,2.207a.854.854,0,0,0-.135.018,116.29,116.29,0,0,0-35.745,11.833Zm5.752,5.157,2.154,5.114,14.759-5.542-2.245-4.433Zm160.833-18-19.34-5.925.141-.042,10.134-3.67,35.852,9.719-14.97,3.419Zm-7.93-10.843,8.989-9.4,3.924,1.2q.644.2,1.3.414,7.824,2.493,15.653,4.979,10.145,3.214,20.288,6.448l6.973,2.15-19.58,4.489Zm-28.664-.935,7.856-4.539,17.839,6.066-10.288,3.352Zm8.923-5.705,8.332-9.2,18.623,5.878-9.012,9.344Zm-25.816.377,7.317-4.064,16.027,4.374-8.006,4.585Zm8.311-6.579,6.612-6.092-4.4,4.731,7.018,2.241,6.532-6.862-7.1-2,.291-.275,15.5,4.822-8.362,9.173Zm11.379,2.077,4.011.952,6.535-6.862-4.152-.96Zm-25.249,2.751,2.739-1.787-3.874-.779-2.746,1.335-2.875-.905,2.911-1.4-3.91-1.008-2.854,1.194-3.145-1,18.369-14.552,15.331,5-9.175,9.29-8.384,5.352Zm-35.533-11.216,15.125-15.592,22.521,7.115-17.948,14.689Zm-31.854-10.054,5.857-1.332q16.684-1.718,17.438,1.353,1.195,4.5,8.6,2.134,6.322-2.512,8.93-9.628l3.96,1.249-15.787,15.383Z" transform="translate(-4483.601 -8994.742)" fill="#c3c3c3" stroke="rgba(0,0,0,0)" stroke-width="1"/>
      <path id="Path_78137" data-name="Path 78137" d="M123.534,73.316l5.871,3.149,4.792-5.392L127.653,68.3l-4.119,5.011M39.606,36.284l3-4.692L28.613,28.2l-3.749,5.2,14.742,2.891M54.69,24.876,47.95,21.3l-7.463,5.281,6.385,3.64,7.818-5.342M44.36,37.449l4.093,2.279L59.346,32.2l-4.473-2.45-10.514,7.7M19.337,16.114,0,17.253.674,21.42l18.063-1.372.6-3.934M41.1,13.393,23.8,15.648l-1.679,7.107L28.5,23.92l.808-1.263,1.666-3.051,12.39-2.243L41.1,13.393M4.215,30.426l3.064,1.74,12.254.183.881-4.914L5.183,26.578l-.969,3.848M23.246,6.936,23.846,3,4.509,4.154l.674,4.167L23.246,6.936M34.1,1.164,30.844,7.511,41.455,7.5,43.685,0,34.1,1.164m101,44.079-6.2-2.965-6.826,4.509,5.564,3.5,7.463-5.048m-4.448,5.722,5.564,3.5,7.463-5.048-6.2-2.965-6.825,4.509m-14.461,5.319-4.484-2.954-10.256,6.716,4.093,2.279,10.648-6.041m.063,4.4-6.826,4.511,10.478,5.955,5-5.049-8.651-5.416M87.617,14.1l-3.54-2.01-5.932,4.167,3.714,1.764L87.617,14.1m-14.8-1.888,3.714,1.765,4.926-3.37L77.936,8.626l-5.122,3.59m6.263,7.721-3.861-1.813-7.671,5.4,3.7,1.765Z" transform="matrix(0.978, -0.208, 0.208, 0.978, 99.445, 87.21)" fill="#d7d7d7"/>
      <path id="Path_78138" data-name="Path 78138" d="M32.424,63.979q-7.254-8.038-2.01-17.841,7.2-11.764-30.33-.6L0,45.623,32.424,63.979M101,70.683q-2.94,5.231-12.929,7.854Q74.3,81.565,65.584,79.972L64.7,82.252l61.455,34.79.086-.086,22.424-24.337q.575-16.532-25.55-26.053Q108.1,60.928,101,70.683m-38.11-58.6q-.112-.208-.233-.417L42.044,0,17.375,26.777Q68.538,22.891,62.888,12.082Z" transform="matrix(0.978, -0.208, 0.208, 0.978, 11.543, 131.913)" fill="#ffe0cf"/>
      <path id="Path_78139" data-name="Path 78139" d="M126.34,73.685l-.1-2.352-.086.086L64.7,36.629,32.424,18.357,0,0V1.888Z" transform="matrix(0.978, -0.208, 0.208, 0.978, 21.028, 176.539)" fill="#d8d8d8"/>
      <path id="Path_95971" data-name="Path 95971" d="M4604.363,9213.327q-8.769-6.354-5.678-17.032,4.6-13.009-29.791,5.717l2.3-3.869q35.106-17.487,47.81-23.018,14.026-6.111,15.181-15.465c.005-.088.015-.175.029-.27l4.275,1.358a2.65,2.65,0,0,0-.125.24q-6.281,12.259-11.785,14.456-5.57,2.224-14.282,6.3-6.277,2.928-6.3,8.4.022-5.471,6.3-8.4,8.716-4.083,14.282-6.3,5.5-2.2,11.785-14.456a2.65,2.65,0,0,1,.125-.24l51.566,16.275c.1.024.215.058.331.09l48.333,15.261-14.7,24.8q-2.873-16.291-30.406-20.172-15.857-2.392-20.779,8.628-1.788,5.725-11.013,10.369-12.843,5.823-21.7,6.079l-.391,2.413Zm33.674,4.742h0Zm-.238,0a37.433,37.433,0,0,1-17.947-4.569A37.42,37.42,0,0,0,4637.8,9218.07Zm21.187-4.974.071-.031Zm3.542-11.743q3.713,2.079,3.722,4.479-.008-2.4-3.722-4.479Zm-4.854-4.619c.006.038.012.074.019.111-.007-.037-.013-.073-.019-.111Zm-75.768-16.666q49.239-14.44,41.464-23.836c-.1-.12-.208-.242-.315-.361l6.781,2.143c-.006.086-.008.174-.006.265q-.531,8.158-14.405,15.039-11.764,5.824-41.31,19.893Zm166.271-9.848q-23.231-17.763-41.557-22.876l7.1-7.6,72.438,27.184-7.366,12.952Zm-44.124-13.909a.017.017,0,0,1,0,0l-18.479-5.84-10.42-3.287q-1.926-6.064,21.042-.326a127.106,127.106,0,0,1,43.833,20.8Zm-12.765-8.776a10.231,10.231,0,0,1,1.378.266,10.231,10.231,0,0,0-1.378-.266Zm-.315-.036q-.745-.078-1.386-.082Q4690.23,9147.421,4690.974,9147.5Zm-1.5-.08c.021,0,.042,0,.063,0h0C4689.517,9147.417,4689.5,9147.417,4689.475,9147.419Zm63.273,4.868,22.839-30.99,19.339,5.924,11.817,3.5-13.455,23.679-6.977-1.349-2.987,5.759,6.4,1.861-2.762,4.873Zm15.092,1.515,11.485,3.646,3.844-5.978-9.589-3.5Zm-8.873-3.378,4.477,1.379,9.159-8.123-5-1.956Zm26.674-14.954,6.172,2.271,6.25-6.49-6.682-1.608Zm-9.259-2.3,6.171,2.271,6.25-6.487-6.682-1.614Zm-41.426,12.274,23.378-30,15.405,4.88-23.01,31.187Zm-46.437-3.334q-13.26-3.757-20.469,2.833l-6.994-2.206,12.024-2.368-.158-4.99-15.079,2.327-.148,3.965-13.657-4.312,0-.012-1.688-4.237,2.98-5.245,48.041-13.944,25.5,15.851-15.822,15.979c-.025,0-.054,0-.086,0Q4701.39,9145.752,4688.518,9142.108Zm9.9-1.914,4.477,1.376,9.092-9.625-4.883-1.466Zm-19.912.085,15.022-.239,1.961-5.214-14.4-.409Zm-27.677-10.62,1.527,3.938,17.381-5.1-.23-3.971Zm41.543.7,7,2.234,6.538-6.853-7.338-2.1Zm-18.6-7.221-.165,7.3,6.489-.187.528-1.4.993-3.332,11.653-4.77-3.043-3.412Zm41.654,14.786,25.754-27.538.256-.277,15.333,4.9-23.373,29.838Zm-7.607-17.288,12.518-14.547,1.789-2.072,3.142,1-4.263,4.577,4,.954,4.119-4.321,2.873.906-4.936,5.309,4,.951,4.817-5.03,2.39.742-.267.285-17.693,18.842Zm10.384,1.113,3.985.956,6.549-6.866-4.156-.971Zm-6.436-2.5,4.451,1.122,6.5-7.118-4.005-1.4Zm-43.277-32.156,29,9.159-5.034,16.582-46.021,13.064Zm-15.973,28.816,1.525,3.937,17.38-5.112-.233-3.973Zm28.324-9.079-1.868,6.887,10.377-2.216.622-7.8Zm156.307,13.18q-10.142-3.229-20.288-6.445-7.831-2.483-15.654-4.982c-.438-.139-.872-.278-1.3-.411l-3.926-1.2,0-.1,3.775-26.562,55.718,13.89-11.357,27.956Zm-20.023-10.564,8.774,2.722,1.529-6.238-8.805-2.164Zm-16.16-3.653,11.837,3.7,1.4-4.357-6.648-2.692.5-6.422,6.426,2.3,1.016-5.939-12.272-2.864Zm-105.292,7.461,21.171-6.144-10.708,12.51Zm4.673-16.105,19.7,6.215-1.868,2.173-22.507,6.388Zm75.237,3.39,3.159-25.451,19.036,4.735-3.557,26.49-.014.1Zm-16.878-5.257,1.6-42.182,19,6-5.1,41.009Zm-18.213-5.812,2.685-41.777,14.837,4.676-2.188,42.1Zm59.528-10.988,1.746-12.3,57.7,18.2-.022.067-3.282,8.075Zm-84.547,3.076,23.6-7.634L4738,9088.671Zm-6.163-1.936c.258-.079.517-.165.775-.25q7.452-2.588,15.377-10.461,10.865-11.18,11.823-23.071l3.759,1.18-1.866,25.477-25.908,8.377Zm69.662-6.4,1.712-13.7,19,6-1.665,12.456Z" transform="translate(-4547.801 -9025.576)" fill="#f5f5f5" stroke="rgba(0,0,0,0)" stroke-width="1"/>
      <path id="Path_78142" data-name="Path 78142" d="M.428.111C.281.069.139.033,0,0L17.548,10c-.083-.114-.169-.225-.258-.331Z" transform="matrix(0.978, -0.208, 0.208, 0.978, 137.33, 124.871)" fill="#adc1d3"/>
      <path id="Path_78144" data-name="Path 78144" d="M3.173,17.218l-.772-4.5L0,15.416l3.173,1.8M18.7,26.028l-3.065-1.74-3.137.7,6.2,1.041M85.154,10.011l-3.626-2.2L73.194,13.6l4.117,2.023,7.843-5.613M131.99,5.134l-7.682,5.393,3.726,1.764,7.818-5.355-3.861-1.8M123.522,0l-2.18,1.544-5.283,3.714,6.4,3.651,7.818-5.355L123.744.122Z" transform="matrix(0.978, -0.208, 0.208, 0.978, 89.55, 95.588)" fill="#bfbfbf"/>
      <path id="Path_78145" data-name="Path 78145" d="M65.645,85.7Q63.426,93.574,48.427,97.42,35.709,100.668,3.884,108.29L0,112.506q37.975-9.8,51.553-12.573Q66.54,96.868,69.615,87.961L65.645,85.7M161.4,53.746l1.63-1.263-23.343,1.569,7.646-13.479-2.61-1.471-8.37,15.172-47.73,3.21-1.5,1.691,49.889-3.651,21.653,20.808-18.8,12.34q-1.262-.149-13.456-6.582T105.8,80.607a.8.8,0,0,0-.134-.012l6.383,3.64c.074.008.152.02.233.036q-.625-6.335,20.649,4.056a127.131,127.131,0,0,1,38.552,29.459q.233.283.453.577l6.935,3.957c.017-.114.033-.225.05-.331q-19.031-22.2-35.892-31.016l8.529-5.955,65.2,41.652,1.066-1.188L187.121,105.4l28.785-25.563-.38-.306L214.3,78.5l-28.993,25.722-14.167-9.215,29.1-24.484-1.433-.749L169.745,94.1,153.606,83.6l30.917-21.58-2.9-1.641L160.394,75.13,149.758,65.107l15.269-11.63-3.628.269L148.325,63.758l-8.909-8.407,21.983-1.6m72.338-33.271-1.263-.711L218.957,58.819l1.263.711L228.6,35.292l17.634,8.59-8.983,25.17,1.607.919,9.215-25.195,51.614,25.17,1.018-1.494-52-25.416,4.264-11.666-1.9-1.078L246.861,42.13l-17.646-8.615,4.522-13.04M215.134,9.95l-2.083-1.19L202.157,49.482l2.646,1.4L215.134,9.95M199.509,1.1,197.562,0l-7.121,24.532L163.36,27.339l2.01,1.127,24.669-2.56-4.119,14.2,2.279,1.3Z" transform="matrix(0.978, -0.208, 0.208, 0.978, 0, 62.52)" fill="#fff"/>
      <path id="Path_78146" data-name="Path 78146" d="M20.611,58.427q4.607-7.388,2.549-13.81L0,46.761,20.611,58.427M120.838,1.777,117.7,0,85.362.514q16.678,1.79,16.777,4.95.233,4.646,7.965,3.873Q116.806,8.2,120.838,1.777Z" transform="matrix(0.978, -0.208, 0.208, 0.978, 42.946, 77.432)" fill="#ffd1b8"/>
      <path id="Path_78147" data-name="Path 78147" d="M.355,58.06q1.175-.342,2.365-.661L2.451,40.242,0,40.464l.355,17.6m99.43-34.654,1.9,1.078,20.992-10.416-2.279-1.3L99.785,23.406m.061-22.279L97.836,0,79.2,11.763l2.61,1.471L99.846,1.127m36.69,24.043,2.18-1.544.221.122.342-.208-2.646-1.4-10.906,7.18,3.074.43Z" transform="matrix(0.978, -0.208, 0.208, 0.978, 69.775, 75.638)" fill="#ebebeb"/>
      <path id="Path_78148" data-name="Path 78148" d="M.418.735l.575,3.54,10.649-.8L11.36,1.813V1.8L8.187,0,8.175.012.418.735M0,7.438l1.043,5.453L16.63,10.539l-1.274-4.8Z" transform="matrix(0.978, -0.208, 0.208, 0.978, 84.748, 112.37)" fill="#a0a0a0"/>
      <path id="Path_78149" data-name="Path 78149" d="M139.575,34.018l-2.9.05-15.355.231L103.23,54.665l-4.792,5.392-3.714,4.192-1.066,1.188-9.9,11.139-34.14,3.175-5.258.489-2.4.221-19.534,21.2L0,126l.1,2.352,42.6-46.419,42.044-3.884L122.051,35.77l38.834-.6,21.6-32.241V0L177.6,7.218l-1.018,1.494L159.66,33.7Z" transform="matrix(0.978, -0.208, 0.208, 0.978, 133.146, 96.82)" fill="#a2a2a2"/>
      <path id="Path_78150" data-name="Path 78150" d="M23.062,26.874l2.793-5.783-8.162-3.947-2.646,5.245,8.015,4.486M17.008,5.355,5.6,0,0,15.453,10.808,21.53l2.279-3.97L7.144,13.542,8.97,7.365l5.808,3.59Z" transform="matrix(0.978, -0.208, 0.208, 0.978, 249.955, 65.102)" fill="#dcdcdc"/>
      <path id="Path_78151" data-name="Path 78151" d="M9.106,3.307,6.14,4.043l3.54,2.01,3.051-1.177L9.106,3.307M3.04,0,0,.575,3.517,2.56,6.654,1.8Z" transform="matrix(0.978, -0.208, 0.208, 0.978, 177.352, 78.881)" fill="#a1a1a1"/>
      <path id="Path_78152" data-name="Path 78152" d="M38.6,2.868l-1.263-.711L27.254,9.388,12.707.43,9.633,0,.319,3.493,0,3.714,2.9,5.355l.308-.22,8-2.451,14.767,7.61-8.787,2.818,1.433.749,8.628-2.807L43.441,20.7,32.682,21.838l1.225,1.03.527.294,10.674-1.483,33.049,16.96,2.9-.05L46.469,20.735l10.747-7.329.025-.1-1.607-.919-.037.1L44.839,19.755l-16.3-9.62Z" transform="matrix(0.978, -0.208, 0.208, 0.978, 189.431, 80.183)" fill="#f8f8f8"/>
      <path id="Path_78153" data-name="Path 78153" d="M37.523,8.309,22.867,0,0,33.762l3.137,1.777c.269-.025.54-.053.81-.086q7.83-.979,17.216-7.035Q34.118,19.743,37.523,8.309Z" transform="matrix(0.978, -0.208, 0.208, 0.978, 151.055, 19.938)" fill="#ffe0cf"/>
      <path id="Path_95972" data-name="Path 95972" d="M-2817.361-8496.735l-2.712,5.565-60.361-7.31-3.537,1.18,63.309,8.016v8.725l-36.075-1.649,1.3,4.715,13.793,10.611-37.49,10.256-41.027,22.4,3.183.942,39.376-21.929,38.2-9.9,34.542,26.172,1.415-2.24-33.953-24.757,9.077-3.183,39.376,4.008.825-2.83-38.315-3.065h-3.772l-8.017,3.065-13.912-9.549v-2.475l34.779,2.475v-5.776l28.412,5.3-1.3-2.594-27.115-5.3v-4.245l2.711-5.658Z" transform="translate(2984.561 8624.673)" fill="#fff"/>
      <path id="Path_95973" data-name="Path 95973" d="M-2797.829-8457.768l9.656-2.605,5.977-16.4-82.454-25.287-22.07,3.986-5.21,1.838,24.675,18.086,67.128,21.146Z" transform="translate(2991.072 8623.847)" fill="#c3c3c3" opacity="0.28"/>
      <path id="Path_90932" data-name="Path 90932" d="M206.9,34.01,178.724,19.29,145.274,0l-9.856,3.311L126.2,9.748l-22.182,15.49-.169.118-10.5,7.354L71.749,22.62,60.376,23.764l-13.029.359L35.138,25.347,20.631,28.63,13.951,35.3l-4.68.963L0,42.108H0" transform="matrix(0.978, -0.208, 0.208, 0.978, 58.323, 109.471)" fill="none" stroke="#0d1b3a" stroke-width="1"/>
      <path id="Path_90933" data-name="Path 90933" d="M-4170.394,6592.549l11.2-6.72,20.083,6.042,49,14.354v5.54l-68.5-20.631-6.72,3.419-37.054,39.544-16.7-4.406-9.771-.384v2.778l-21.746,4.12-20.022,7.28-3.065,5.844-2.874,4.5-10.346,5.748-5.97,2.012-6.018-2.6,6.018-3.576,9.68-5.581,3.968-8.765,19.267-9.174,18.591-3.8,8.111-5.007,11.819.81s16.1,3.688,16.561,3.534S-4170.394,6592.549-4170.394,6592.549Z" transform="translate(4359.284 -6509.15)" fill="rgba(236,105,31,0.18)" stroke="#ec691f" stroke-linecap="round" stroke-linejoin="round" stroke-width="1" stroke-dasharray="2"/>
      <g id="Group_15443" data-name="Group 15443" transform="matrix(0.978, -0.208, 0.208, 0.978, 46.086, 117.288)">
        <path id="Path_78173" data-name="Path 78173" d="M17.525,1.056,17.4.967,17.259.9l.108.069c.208.136.261.165.158.089M8.9,1.892V1.872A.153.153,0,0,1,9,1.82H9.02V1.8A13.637,13.637,0,0,1,11.968.5,7.611,7.611,0,0,1,13.976.186a7.008,7.008,0,0,1,.709,0,6.155,6.155,0,0,1,1.9.443h-.017c.105.06.2.108.266.144A.158.158,0,0,0,16.9.79a.113.113,0,0,0,.053-.053.344.344,0,0,1,.089.036l.036.017.036.036a.07.07,0,0,0,.053.017L17.259.9a3.6,3.6,0,0,0-.62-.357L16.567.5a1.46,1.46,0,0,1-.161-.069A5,5,0,0,0,14.7.009q-.374-.018-.747,0a7.639,7.639,0,0,0-2.22.39,12.865,12.865,0,0,0-2.788,1.26.249.249,0,0,0-.158.089A17.327,17.327,0,0,0,6.872,3.063,22.034,22.034,0,0,0,1.65,9.19,21.778,21.778,0,0,0,0,12.9c.093-.237.194-.472.3-.709A28.617,28.617,0,0,1,1.811,9.278,20.936,20.936,0,0,1,6.977,3.2,15.511,15.511,0,0,1,8.9,1.892Z" transform="translate(5.19 2.319)" fill="#ff975d"/>
        <path id="Path_78174" data-name="Path 78174" d="M9.789,1.7v.019A15.518,15.518,0,0,0,7.87,3.027,20.934,20.934,0,0,0,2.7,9.1a28.6,28.6,0,0,0-1.509,2.912c-.108.237-.208.472-.3.709q-.018.108-.446,1.42A10.32,10.32,0,0,0,0,17.2a10.787,10.787,0,0,0,.213,2.716c.165.675.3,1.159.39,1.456A13.664,13.664,0,0,0,2.366,24.8q1.121,1.581,1.3,1.863h.019q1.987,2.86,3.195,4.565c.321.448.6.846.853,1.188q.463.693.692,1.03.428.64,1.119,1.813.018-.108,2.967-5.72t5.166-10.565q1.4-3.09,2.184-5.2A16.461,16.461,0,0,0,21.206,6.49a7.849,7.849,0,0,0-1.154-3.978A5.289,5.289,0,0,0,18.418.878c.1.077.05.048-.158-.089L18.152.72,18.064.665a.069.069,0,0,1-.053-.017L17.975.613,17.939.6A.346.346,0,0,0,17.851.56.113.113,0,0,1,17.8.613.158.158,0,0,1,17.726.6c-.069-.036-.16-.084-.266-.144h.017a6.159,6.159,0,0,0-1.9-.443,6.954,6.954,0,0,0-.709,0,7.611,7.611,0,0,0-2.007.319,13.636,13.636,0,0,0-2.948,1.3v.017H9.9a.153.153,0,0,0-.108.053M8.227,6.438a14.555,14.555,0,0,1,1.916-1.492,7.485,7.485,0,0,1,3.909-1.4,4.015,4.015,0,0,1,1.509.249h.017a.018.018,0,0,1,.019.019c-.024-.012-.043-.012-.055,0a.2.2,0,0,0-.053.034c.048.012.077.012.089,0a1.509,1.509,0,0,1,.2.072l-.125-.072A3.56,3.56,0,0,1,17.621,5.69v.019a.05.05,0,0,1,.017.036.054.054,0,0,1,.019.036,6.437,6.437,0,0,1,.5,2.182,12.863,12.863,0,0,1-1.863,6.908,15.693,15.693,0,0,1-5.116,5.7,9.611,9.611,0,0,1-1.118.64l-.5.213c-.108.048-.22.1-.338.16a2.593,2.593,0,0,0-.285.089c-.189.06-.383.113-.584.16a5.569,5.569,0,0,1-.639.105.826.826,0,0,0-.16.019H7.535a4.017,4.017,0,0,1-1.794-.268,2.69,2.69,0,0,1-.817-.515c.022.01.062.026.124.055l-.144-.072a.954.954,0,0,1,.124.053,3.51,3.51,0,0,1-1.224-1.368c-.062-.132-.122-.268-.177-.407.053.139.105.275.158.407a3.051,3.051,0,0,0,.321.659,4.063,4.063,0,0,1-.41-.659,6.057,6.057,0,0,1-.532-2.306,11.445,11.445,0,0,1,.781-4.654A19.854,19.854,0,0,1,5.03,10.61,17.173,17.173,0,0,1,8.227,6.438Z" transform="translate(4.297 2.496)" fill="#ff975d"/>
        <path id="Path_78175" data-name="Path 78175" d="M10.584.019h-.036l.089.036.144.069c.259.156.536.338.833.551a2.694,2.694,0,0,1,.711.8c.189.307.283.467.283.479a.054.054,0,0,0,.019.036,6.322,6.322,0,0,1,.46,2.148,12.493,12.493,0,0,1-1.827,6.819A15.738,15.738,0,0,1,6.179,16.6a10.21,10.21,0,0,1-1.1.623c-.156.082-.314.161-.479.23q-.18.072-.338.144A2.674,2.674,0,0,0,4,17.688H3.978a5.466,5.466,0,0,1-.568.141v.017a5.323,5.323,0,0,1-.6.108,1.19,1.19,0,0,0-.2.017A4.01,4.01,0,0,1,.889,17.7a5.759,5.759,0,0,1-.656-.285.552.552,0,0,0-.108-.053A.934.934,0,0,0,0,17.314l.144.072c-.062-.029-.1-.046-.124-.055a2.687,2.687,0,0,0,.817.515,4.018,4.018,0,0,0,1.794.268h.017a.827.827,0,0,1,.16-.019,5.586,5.586,0,0,0,.64-.105c.2-.048.4-.1.584-.161a2.577,2.577,0,0,1,.285-.089c.117-.06.23-.113.338-.16l.5-.213a9.611,9.611,0,0,0,1.119-.64,15.694,15.694,0,0,0,5.116-5.7A12.863,12.863,0,0,0,13.247,4.12a6.436,6.436,0,0,0-.5-2.182.054.054,0,0,0-.019-.036.05.05,0,0,0-.017-.036V1.847A3.561,3.561,0,0,0,10.745,0l.124.072a1.513,1.513,0,0,0-.2-.072c-.012.012-.041.012-.089,0Z" transform="translate(9.202 6.34)" fill="#ff975d"/>
        <path id="Path_78176" data-name="Path 78176" d="M11.647.2,11.631.177A4.931,4.931,0,0,0,10.316,0,6.259,6.259,0,0,1,10.9,2.876,13.414,13.414,0,0,1,8.735,9.8,14.572,14.572,0,0,1,3.48,15.111,6.962,6.962,0,0,1,0,16.177a3.511,3.511,0,0,0,1.224,1.368.546.546,0,0,1,.108.053,5.76,5.76,0,0,0,.656.285,4.012,4.012,0,0,0,1.722.266,1.182,1.182,0,0,1,.2-.017,5.33,5.33,0,0,0,.6-.108v-.017a5.452,5.452,0,0,0,.568-.141h.017a2.691,2.691,0,0,1,.268-.089q.158-.072.338-.144c.165-.07.323-.149.479-.23a10.227,10.227,0,0,0,1.1-.623,15.739,15.739,0,0,0,5.08-5.645,12.493,12.493,0,0,0,1.827-6.819,6.325,6.325,0,0,0-.46-2.149.053.053,0,0,1-.019-.036c0-.012-.093-.172-.283-.479a2.694,2.694,0,0,0-.711-.8c-.3-.213-.575-.4-.834-.551l-.144-.07Z" transform="translate(8.102 6.163)" fill="#ec691f"/>
        <path id="Path_78178" data-name="Path 78178" d="M14.885,0a9.184,9.184,0,0,0-3.054.692,16.016,16.016,0,0,0-1.918.941l-.141.069A20.327,20.327,0,0,0,2.651,9.147,23.739,23.739,0,0,0,1.14,12.218,15.207,15.207,0,0,0,.021,18.629q.2,3.409,3.6,7.439,3.427,4.013,5.808,6.678,2.36,2.644,4.4,5.025v-.017q-.69-1.175-1.118-1.813-.23-.338-.692-1.03c-.249-.343-.532-.74-.853-1.188q-1.207-1.707-3.2-4.565H7.959q-.176-.284-1.3-1.863A13.663,13.663,0,0,1,4.9,23.867c-.093-.3-.225-.781-.39-1.456A10.787,10.787,0,0,1,4.3,19.7a10.323,10.323,0,0,1,.443-3.056q.428-1.311.446-1.42a21.778,21.778,0,0,1,1.65-3.71,22.036,22.036,0,0,1,5.221-6.127A17.346,17.346,0,0,1,13.98,4.067a.25.25,0,0,1,.158-.089,12.873,12.873,0,0,1,2.788-1.26,7.64,7.64,0,0,1,2.22-.39q.374-.018.747,0a5.006,5.006,0,0,1,1.7.426L18.349.925C18.277.877,18.2.831,18.116.783A.25.25,0,0,1,18.028.73a.323.323,0,0,1-.072-.019c-.129-.069-.271-.149-.426-.23A6.44,6.44,0,0,0,14.885,0Z" transform="translate(0 0)" fill="url(#linear-gradient)"/>
      </g>
      <g id="Group_15444" data-name="Group 15444" transform="matrix(0.978, -0.208, 0.208, 0.978, 249.684, 67.388)">
        <path id="Path_78155" data-name="Path 78155" d="M10.514,1.527l-.008-.008A11.77,11.77,0,0,0,7.778.312,7.37,7.37,0,0,0,5.912.006a5.483,5.483,0,0,0-.667.009A5.817,5.817,0,0,0,3.491.433H3.5L3.257.562A.091.091,0,0,1,3.192.57a.127.127,0,0,1-.048-.04V.522c-.027.011-.056.024-.089.04A.057.057,0,0,1,3.032.57L2.984.6a.107.107,0,0,1-.04.024q-.081.049-.185.12c-.252.162-.26.162-.024,0,.037-.026.077-.053.121-.08A5.061,5.061,0,0,0,1.093,2.332,7.329,7.329,0,0,0,.023,6.041a15.368,15.368,0,0,0,1.256,6.75q.716,1.963,2.019,4.843,2.075,4.585,4.811,9.808t2.743,5.31q.652-1.094,1.046-1.673.21-.322.644-.966.347-.475.789-1.1,1.118-1.584,2.976-4.231h.008q.169-.267,1.215-1.746a12.7,12.7,0,0,0,1.626-3.17q.137-.418.361-1.352a10.587,10.587,0,0,0,.2-2.534,9.732,9.732,0,0,0-.419-2.832q-.394-1.222-.41-1.327-.137-.322-.282-.66a29.467,29.467,0,0,0-1.391-2.7,19.906,19.906,0,0,0-4.8-5.64,15.672,15.672,0,0,0-1.779-1.223l-.008-.009a.242.242,0,0,0-.1-.056h-.016m1.569,4.458a15.738,15.738,0,0,1,2.968,3.877,17.652,17.652,0,0,1,1,2.108,10.652,10.652,0,0,1,.731,4.32,5.771,5.771,0,0,1-.491,2.148,3.9,3.9,0,0,1-.386.612,3.575,3.575,0,0,0,.306-.612c.064-.166.124-.337.177-.514a4.076,4.076,0,0,1-.209.514A3.177,3.177,0,0,1,15.051,19.7c.038-.015.073-.029.105-.04l-.129.065c.1-.049.147-.067.137-.057l-.016.008a2.975,2.975,0,0,1-.764.483,3.937,3.937,0,0,1-1.666.241H12.71a.894.894,0,0,0-.161-.015,4.3,4.3,0,0,1-.588-.105,3.956,3.956,0,0,1-.547-.153l-.257-.08H11.15c-.1-.048-.207-.093-.314-.137q-.226-.1-.459-.209a10.054,10.054,0,0,1-1.03-.587,14.427,14.427,0,0,1-4.755-5.3,11.871,11.871,0,0,1-1.73-6.4,5.837,5.837,0,0,1,.451-2.036.046.046,0,0,1,.024-.024.089.089,0,0,1,.008-.04.032.032,0,0,0,.009-.024A3.281,3.281,0,0,1,5.188,3.579l-.12.064a.566.566,0,0,1,.177-.064.215.215,0,0,0,.088,0,.112.112,0,0,0-.048-.04.041.041,0,0,0-.049,0c0-.005.005-.011.016-.016h.009a3.752,3.752,0,0,1,1.408-.233A6.945,6.945,0,0,1,10.3,4.6,13.053,13.053,0,0,1,12.083,5.984Z" transform="translate(0 2.312)" fill="#0d1b3a"/>
        <path id="Path_78156" data-name="Path 78156" d="M1.382.781a2.43,2.43,0,0,0-.66.74q-.257.443-.257.458H.458a.073.073,0,0,1-.009.033A5.625,5.625,0,0,0,.015,4,11.622,11.622,0,0,0,1.721,10.33a14.407,14.407,0,0,0,4.714,5.246,8.133,8.133,0,0,0,1.014.58q.226.112.45.209c.107.048.213.093.315.137H8.205l.257.08h.009A4.8,4.8,0,0,0,9,16.726l.009.009a5.441,5.441,0,0,0,.555.1,1.078,1.078,0,0,1,.177.015,3.815,3.815,0,0,0,1.6-.241c.188-.069.391-.158.611-.266l.1-.056a3.177,3.177,0,0,0,1.126-1.263,6.506,6.506,0,0,1-3.226-.989A13.625,13.625,0,0,1,5.084,9.091a12.4,12.4,0,0,1-2.02-6.42A5.774,5.774,0,0,1,3.611,0,4.171,4.171,0,0,0,2.4.161a.019.019,0,0,0-.015.008L2.292.2c-.043.022-.086.046-.129.073A8.193,8.193,0,0,0,1.382.781Z" transform="translate(2.993 5.73)" fill="#1a3a81"/>
        <path id="Path_78157" data-name="Path 78157" d="M.866,1.361a2.429,2.429,0,0,1,.66-.74,8.15,8.15,0,0,1,.78-.507c.043-.027.086-.051.129-.073L2.525.008a.092.092,0,0,0-.041.009L2.492.008H2.483V0A.215.215,0,0,1,2.4,0a.565.565,0,0,0-.177.064L2.339,0A3.28,3.28,0,0,0,.505,1.707.032.032,0,0,1,.5,1.731a.088.088,0,0,0-.008.04.047.047,0,0,0-.024.024A5.834,5.834,0,0,0,.014,3.83a11.869,11.869,0,0,0,1.73,6.4,14.425,14.425,0,0,0,4.755,5.3,10.055,10.055,0,0,0,1.03.587q.233.114.459.209c.106.043.212.089.314.137h.008l.257.08a3.964,3.964,0,0,0,.547.153,4.322,4.322,0,0,0,.588.105.894.894,0,0,1,.161.015h.008a3.936,3.936,0,0,0,1.666-.241A2.974,2.974,0,0,0,12.3,16.1l.016-.008c.011-.011-.035.008-.137.056l.129-.065c-.033.011-.067.025-.105.04l-.1.056c-.22.107-.423.2-.611.266a3.814,3.814,0,0,1-1.6.241,1.082,1.082,0,0,0-.177-.015,5.456,5.456,0,0,1-.555-.1l-.009-.009a4.819,4.819,0,0,1-.531-.144H8.606l-.257-.08h.009c-.1-.043-.207-.089-.315-.137-.15-.065-.3-.135-.45-.209a8.126,8.126,0,0,1-1.014-.579A14.406,14.406,0,0,1,1.865,10.17,11.62,11.62,0,0,1,.159,3.838,5.628,5.628,0,0,1,.593,1.851.072.072,0,0,0,.6,1.818H.609Q.609,1.8.866,1.361Z" transform="translate(2.849 5.89)" fill="#1a3a81"/>
        <path id="Path_78158" data-name="Path 78158" d="M9.815,6.574A15.737,15.737,0,0,0,6.847,2.7,13.054,13.054,0,0,0,5.069,1.312,6.946,6.946,0,0,0,1.432,0,3.753,3.753,0,0,0,.025.234H.016C.005.24,0,.245,0,.251a.041.041,0,0,1,.049,0A.111.111,0,0,1,.1.291V.3H.105L.1.307A.092.092,0,0,1,.138.3.019.019,0,0,1,.153.291,4.168,4.168,0,0,1,1.368.13a6.913,6.913,0,0,1,3.62,1.295A12.764,12.764,0,0,1,6.751,2.8,15.664,15.664,0,0,1,9.695,6.647a16.755,16.755,0,0,1,.982,2.084,10.355,10.355,0,0,1,.731,4.264,7.905,7.905,0,0,1-.257,1.642c-.053.177-.113.348-.177.514a3.584,3.584,0,0,1-.306.612,3.9,3.9,0,0,0,.386-.612A5.771,5.771,0,0,0,11.545,13a10.652,10.652,0,0,0-.731-4.32A17.672,17.672,0,0,0,9.815,6.574Z" transform="translate(5.236 5.6)" fill="#0d1b3a"/>
        <path id="Path_78159" data-name="Path 78159" d="M7.943,1.68l.008.008h.016a.243.243,0,0,1,.1.056l.008.009A15.688,15.688,0,0,1,9.85,2.976a19.908,19.908,0,0,1,4.8,5.64,29.412,29.412,0,0,1,1.391,2.7q.145.337.282.66A21.145,21.145,0,0,0,14.79,8.535,20.185,20.185,0,0,0,9.947,2.847,15.815,15.815,0,0,0,8.168,1.624a.34.34,0,0,0-.153-.088A12.084,12.084,0,0,0,5.425.368,7.482,7.482,0,0,0,3.357.007a5.757,5.757,0,0,0-.685.008H2.665a4.613,4.613,0,0,0-1.577.4L.943.473.879.506A3.671,3.671,0,0,0,.292.827C.248.854.208.881.171.907c-.237.162-.228.162.024,0Q.3.836.381.787A.106.106,0,0,0,.421.763L.469.731A.336.336,0,0,1,.582.683V.69a.126.126,0,0,0,.048.04A.091.091,0,0,0,.694.723L.935.594H.928A5.814,5.814,0,0,1,2.681.176,5.464,5.464,0,0,1,3.349.167,7.367,7.367,0,0,1,5.215.473,11.774,11.774,0,0,1,7.943,1.68Z" transform="translate(2.563 2.151)" fill="#1a3a81"/>
        <path id="Path_78160" data-name="Path 78160" d="M10.99,1.586a1.168,1.168,0,0,1-.137-.072A12.992,12.992,0,0,0,9.067.646,8.514,8.514,0,0,0,6.235,0a5.935,5.935,0,0,0-2.455.45c-.144.069-.279.137-.4.2a.146.146,0,0,1-.073.025.147.147,0,0,1-.073.04V.726c-.075.043-.148.086-.217.129L0,2.561a4.613,4.613,0,0,1,1.577-.395h.008a5.76,5.76,0,0,1,.685-.008,7.482,7.482,0,0,1,2.067.361,12.083,12.083,0,0,1,2.59,1.168.34.34,0,0,1,.153.088A15.816,15.816,0,0,1,8.858,5,20.182,20.182,0,0,1,13.7,10.687a21.156,21.156,0,0,1,1.537,3.443q.016.1.41,1.327a9.723,9.723,0,0,1,.419,2.832,10.58,10.58,0,0,1-.2,2.534q-.225.933-.361,1.352a12.7,12.7,0,0,1-1.626,3.17q-1.047,1.48-1.215,1.746h-.008Q10.8,29.738,9.679,31.322q-.443.628-.789,1.1-.435.643-.644.966-.394.579-1.046,1.673v.016q1.9-2.206,4.1-4.666t5.382-6.2q3.171-3.741,3.355-6.91a13.884,13.884,0,0,0-1.046-5.946,20.891,20.891,0,0,0-1.4-2.856A18.829,18.829,0,0,0,10.99,1.586Z" transform="translate(3.651 0)" fill="#1a3a81"/>
      </g>
    </g>
  </g>
</svg>
