<svg xmlns="http://www.w3.org/2000/svg" xmlns:xlink="http://www.w3.org/1999/xlink" width="303.446" height="211.501" viewBox="0 0 303.446 211.501">
  <defs>
    <clipPath id="clip-path">
      <path id="Path_96748" data-name="Path 96748" d="M796.348,488.99l-.27-95.142,83.941-48.463.27,95.142Z" transform="translate(-796.078 -345.385)" fill="#ffceb4"/>
    </clipPath>
  </defs>
  <g id="img_enterprise_integration" transform="translate(-4434.726 -1946.069)">
    <path id="Path_96750" data-name="Path 96750" d="M4795.922,9226.4c-3.667-2.117-4.1-5.395-1.293-7.784l-28.833-16.646c-7.095-4.1-18.639-4.1-25.733,0-8.67,5.006-22.78,5.006-31.45,0l-14.01-8.089c-8.274-4.778-8.654-12.413-1.138-17.453a25.2,25.2,0,0,1-5.135-2.2l-13.826-7.982a8.346,8.346,0,0,1-3.921,4.2l-28.209,16.286c-5.623,3.248-14.772,3.246-20.4,0l-1.859-1.073c-4.14,1.619-9.818,1.369-13.483-.746-4.156-2.4-4.157-6.29,0-8.688a16.629,16.629,0,0,1,15.051,0c3.667,2.116,4.1,5.395,1.293,7.785l1.859,1.073a16.243,16.243,0,0,0,14.679,0l28.209-16.287c2.24-1.294,3.24-3.036,3-4.73l-49.011-28.3c-3.275-1.891-5.316-4.254-6.158-6.807-16.037,4.931-36.44,3.507-49.954-4.272-4.139,1.62-9.819,1.371-13.484-.747-4.156-2.4-4.156-6.29,0-8.688a16.634,16.634,0,0,1,15.05,0c3.667,2.117,4.1,5.395,1.293,7.785,12.641,7.273,31.943,8.4,46.653,3.391-.113-4.4,3.054-9.062,9.34-12.691l61.134-35.3c11.293-6.521,28.377-7.228,38.157-1.582l9.862,5.694,27.9-16.106c4.1-2.367,4.1-6.217,0-8.584l-33.978-19.618c-4.14,1.619-9.818,1.37-13.484-.747-4.156-2.4-4.156-6.289,0-8.687a16.633,16.633,0,0,1,15.05,0c3.666,2.116,4.1,5.395,1.294,7.784l33.979,19.617c5.674,3.278,5.676,8.609,0,11.887l-27.9,16.105,34.883,20.141,45.958-26.535c-2.8-2.391-2.373-5.669,1.293-7.785a16.64,16.64,0,0,1,15.05,0c4.155,2.4,4.155,6.29,0,8.689-3.666,2.116-9.345,2.366-13.484.747l-45.958,26.534,16.152,9.325A15.5,15.5,0,0,1,4794.8,9119c11.94-2.573,25.928-1.093,35.513,4.441l4.528,2.613c4.14-1.617,9.818-1.369,13.484.749,4.157,2.4,4.157,6.29,0,8.688a16.633,16.633,0,0,1-15.05,0c-3.667-2.116-4.1-5.4-1.295-7.786l-4.527-2.614c-8.448-4.877-20.782-6.175-31.3-3.894,2.386,5.274-.57,11.539-8.539,16.14l-61.134,35.3c-8.292,4.787-19.7,6.442-29.057,4.748-7.064,4.1-7.054,10.749.03,14.84l14.011,8.09c7.095,4.095,18.639,4.095,25.731,0,8.672-5.007,22.78-5.007,31.452,0l28.832,16.646c4.14-1.619,9.819-1.37,13.485.748,4.156,2.4,4.156,6.29,0,8.688a16.622,16.622,0,0,1-15.05,0Zm-71.217-75.891c1.144-.229,2.287-.518,3.434-.841C4726.992,9149.987,4725.849,9150.275,4724.705,9150.5Zm7.126-1.971c4.292-1.378,8.681-2.89,13.343-3.313-4.662.424-9.051,1.936-13.343,3.313Zm80.1,29.5c0-3.393,4.764-6.145,10.642-6.145s10.641,2.752,10.641,6.145-4.764,6.145-10.641,6.145S4811.935,9181.424,4811.935,9178.03ZM4627.81,9076.537c-4.155-2.4-4.155-6.29,0-8.688a16.634,16.634,0,0,1,15.05,0c4.154,2.4,4.156,6.29,0,8.688a16.632,16.632,0,0,1-15.05,0Z" transform="translate(-113.775 -7071.126)" fill="#eff4ff" stroke="rgba(0,0,0,0)" stroke-width="1"/>
    <path id="Path_96279" data-name="Path 96279" d="M347.591,183.878l-55.115-31.82c-8.092-4.672-22.226-4.086-31.571,1.309l-50.579,29.2c-9.344,5.4-10.358,13.556-2.267,18.227l55.115,31.821c8.092,4.672,22.226,4.086,31.571-1.309l50.579-29.2C354.668,196.711,355.683,188.55,347.591,183.878Zm-54.32,29.117c5.463-1.093,10.926-3.824,16.936-4.371C304.2,209.171,298.733,211.9,293.27,212.995Z" transform="translate(4314.437 1859.627)" fill="#ff975d" opacity="0.11"/>
    <g id="Group_21232" data-name="Group 21232" transform="translate(4533.68 1946.069)">
      <g id="Group_21042" data-name="Group 21042" transform="translate(72.292 71.134)">
        <path id="Path_96558" data-name="Path 96558" d="M1176.7,966.906a1.941,1.941,0,0,1,.81,1.778,6.1,6.1,0,0,1-2.765,4.789,1.957,1.957,0,0,1-1.974.192l-33.721-19.6a1.957,1.957,0,0,0,1.974-.192,6.1,6.1,0,0,0,2.765-4.789,1.941,1.941,0,0,0-.81-1.778Z" transform="translate(-1139.047 -947.309)" fill="#1a1a1a"/>
      </g>
      <g id="Group_21043" data-name="Group 21043" transform="translate(42.453 37.802)">
        <path id="Path_96559" data-name="Path 96559" d="M878.868,653.428c1.5-.863,2.3-.407,2.3.854a4.21,4.21,0,0,1-2.287,3.5l-3.293,1.9-.012-4.355Z" transform="translate(-875.575 -652.984)" fill="#1a1a1a"/>
      </g>
      <g id="Group_21044" data-name="Group 21044">
        <path id="Path_96560" data-name="Path 96560" d="M567.662,369.29l-.519.3.026,9.269,8.371,4.771.019,6.622c1.245-.4,2.183.333,2.187,1.857a6.1,6.1,0,0,1-2.765,4.789c-1.53.883-2.779.173-2.784-1.585a6.192,6.192,0,0,1,2.169-4.371l-.017-6.054-8.371-4.771-.028-9.837-3.641,2.1.018,6.439c1.245-.4,2.182.335,2.187,1.857a6.1,6.1,0,0,1-2.765,4.79c-1.53.883-2.779.171-2.784-1.587a6.2,6.2,0,0,1,2.169-4.371l-.018-6.439-3.641,2.1.069,24.52c1.245-.4,2.184.332,2.188,1.856a6.1,6.1,0,0,1-2.766,4.789c-1.53.883-2.779.173-2.784-1.585a6.191,6.191,0,0,1,2.171-4.372l-.07-24.52-3.643,2.1.052,18.467-4.964,8.6.02,7.179c1.246-.4,2.184.334,2.188,1.856a6.106,6.106,0,0,1-2.766,4.791c-1.53.883-2.779.171-2.784-1.587a6.2,6.2,0,0,1,2.171-4.373l-.022-7.747,4.964-8.6-.051-17.9-3.643,2.1.034,11.891-4.845,8.391L543,403.7c1.245-.4,2.182.333,2.187,1.857a6.1,6.1,0,0,1-2.765,4.79c-1.53.883-2.779.172-2.784-1.586a6.192,6.192,0,0,1,2.169-4.371l-.009-3.227,4.846-8.392-.032-11.325-3.643,2.1.007,2.474c1.231-.385,2.156.353,2.161,1.865a6.1,6.1,0,0,1-2.765,4.788c-1.53.883-2.779.173-2.784-1.585a6.193,6.193,0,0,1,2.2-4.394l-.007-2.461-3.643,2.1.089,31.368c1.246-.4,2.184.334,2.188,1.856a6.106,6.106,0,0,1-2.766,4.791c-1.53.883-2.779.171-2.784-1.587a6.2,6.2,0,0,1,2.171-4.372l-.089-31.368-3.643,2.1.028,9.837-4.607,7.979.032,11.29c1.245-.4,2.182.333,2.187,1.857a6.1,6.1,0,0,1-2.765,4.788c-1.53.883-2.779.173-2.784-1.585a6.192,6.192,0,0,1,2.171-4.372l-.034-11.856,4.607-7.981-.026-9.269-3.643,2.1.007,2.468c1.246-.405,2.184.332,2.188,1.856a6.1,6.1,0,0,1-2.766,4.789c-1.53.883-2.779.173-2.784-1.585a6.19,6.19,0,0,1,2.171-4.372l-.007-2.468-3.643,2.1.064,22.576L519,425.418l.01,3.38c1.246-.4,2.184.334,2.188,1.856a6.106,6.106,0,0,1-2.766,4.791c-1.53.883-2.779.171-2.784-1.587a6.2,6.2,0,0,1,2.171-4.372l-.011-3.948,4.694-8.132-.062-22.008-7.734,4.465c-7.69,4.44-13.967.862-13.992-7.974s6.21-19.638,13.9-24.078c.094-.054.188-.107.284-.16,1.108-9.315,7.608-19.74,15.456-24.271a16.956,16.956,0,0,1,4.181-1.765c3.509-8.349,9.618-15.851,16.374-19.752,9.756-5.633,17.886-2.043,19.344,7.891,7.9-3.069,13.958,1.335,13.985,10.817C584.271,351.113,576.833,364,567.662,369.29Zm-30.9,6.154c.4-.23.677-.736.5-1.091l-5.629-11.243a.585.585,0,0,0-.9-.262l-4.091,2.362a2.358,2.358,0,0,0-.9,1.321L520.2,384.2c-.178.562.1.745.5.514l3.191-1.843a2.3,2.3,0,0,0,.9-1.321l.693-2.467,6.285-3.629.7,1.661a.584.584,0,0,0,.9.284l3.393-1.959Zm9.724-9.979c4.688-2.707,6.876-6.5,6.867-9.82s-2.212-4.58-6.9-1.874l-6.985,4.033a1.488,1.488,0,0,0-.7,1.206l.041,14.445c0,.458.3.63.7.4l2.994-1.728a1.488,1.488,0,0,0,.7-1.206l-.01-3.555,3.293-1.9Zm17.633-18.792-.007-2.293c0-.459-.3-.63-.7-.4l-8.181,4.723a1.49,1.49,0,0,0-.7,1.206l.007,2.293c0,.459.3.63.7.4l1.9-1.095.023,8.254-1.9,1.095a1.489,1.489,0,0,0-.7,1.206l.006,2.293c0,.459.3.63.7.4l8.181-4.723a1.489,1.489,0,0,0,.7-1.206l-.007-2.293c0-.459-.3-.63-.7-.4l-1.9,1.095-.023-8.254,1.9-1.095a1.488,1.488,0,0,0,.7-1.206Zm-34.646,50.257c0-1-.715-1.41-1.589-.905a3.482,3.482,0,0,0-1.577,2.733c0,1,.715,1.408,1.587.9a3.483,3.483,0,0,0,1.579-2.733Zm14.476-8.358c0-1-.715-1.409-1.587-.906a3.482,3.482,0,0,0-1.578,2.734c0,1,.715,1.408,1.589.9a3.482,3.482,0,0,0,1.577-2.732Zm-14.2,32.206c0-1-.715-1.409-1.587-.906a3.483,3.483,0,0,0-1.578,2.734c0,1,.715,1.408,1.589.9a3.482,3.482,0,0,0,1.577-2.732Zm18.995-6.028c0-1-.715-1.408-1.589-.9a3.482,3.482,0,0,0-1.577,2.732c0,1,.715,1.409,1.587.906a3.483,3.483,0,0,0,1.578-2.734Zm27.81-21.955c0-1-.715-1.41-1.587-.906a3.482,3.482,0,0,0-1.578,2.734c0,1,.715,1.408,1.589.9a3.481,3.481,0,0,0,1.577-2.731ZM544,406.242c0-1-.715-1.41-1.587-.906a3.485,3.485,0,0,0-1.578,2.734c0,1,.715,1.408,1.589.9A3.482,3.482,0,0,0,544,406.242Zm14.542-4c0-1-.715-1.41-1.587-.906a3.482,3.482,0,0,0-1.578,2.734c0,1,.715,1.408,1.589.9a3.481,3.481,0,0,0,1.577-2.731Zm4.783-20.873c0-1-.715-1.408-1.587-.9a3.482,3.482,0,0,0-1.578,2.732c0,1,.715,1.41,1.589.905a3.482,3.482,0,0,0,1.577-2.733Zm-24.1,38.885c0-1-.715-1.408-1.587-.9a3.482,3.482,0,0,0-1.577,2.732c0,1,.715,1.41,1.587.906a3.482,3.482,0,0,0,1.577-2.733Zm-19.213,11.093c0-1-.715-1.408-1.587-.9a3.482,3.482,0,0,0-1.577,2.732c0,1,.715,1.41,1.587.906a3.482,3.482,0,0,0,1.577-2.733Z" transform="translate(-500.715 -319.196)" fill="#1a1a1a"/>
      </g>
      <g id="Group_21045" data-name="Group 21045" transform="translate(75.377 72.585)">
        <path id="Path_96561" data-name="Path 96561" d="M1166.287,960.122l33.721,19.6a1.108,1.108,0,0,1,.462,1.015l-33.721-19.6A1.108,1.108,0,0,0,1166.287,960.122Z" transform="translate(-1166.287 -960.122)" fill="#1a1a1a"/>
      </g>
      <g id="Group_21046" data-name="Group 21046" transform="translate(73.135 73.601)">
        <path id="Path_96562" data-name="Path 96562" d="M1180.217,991.525l-33.721-19.6a1.117,1.117,0,0,0,1.127-.11,3.482,3.482,0,0,0,1.577-2.731l33.721,19.6a3.481,3.481,0,0,1-1.577,2.731A1.117,1.117,0,0,1,1180.217,991.525Z" transform="translate(-1146.496 -969.087)" fill="#bb7d54"/>
      </g>
      <g id="Group_21047" data-name="Group 21047" transform="translate(74.844 70.947)">
        <path id="Path_96563" data-name="Path 96563" d="M1162.96,945.84l33.721,19.6a1.665,1.665,0,0,0-1.377-.078l-33.721-19.6A1.666,1.666,0,0,1,1162.96,945.84Z" transform="translate(-1161.583 -945.652)" fill="#1a1a1a"/>
      </g>
      <g id="Group_21048" data-name="Group 21048" transform="translate(72.673 72.478)">
        <path id="Path_96564" data-name="Path 96564" d="M1178.841,978.881a1.115,1.115,0,0,0-1.125.109,3.482,3.482,0,0,0-1.578,2.734,1.106,1.106,0,0,0,.462,1.013l-33.721-19.6a1.107,1.107,0,0,1-.462-1.013,3.483,3.483,0,0,1,1.578-2.734,1.115,1.115,0,0,1,1.125-.109Z" transform="translate(-1142.417 -959.177)" fill="#1a1a1a"/>
      </g>
      <g id="Group_21049" data-name="Group 21049" transform="translate(71.482 71.745)">
        <path id="Path_96565" data-name="Path 96565" d="M1166.428,978.445l-33.721-19.6a1.939,1.939,0,0,1-.81-1.777,6.191,6.191,0,0,1,2.169-4.371l33.721,19.6a6.191,6.191,0,0,0-2.169,4.371A1.94,1.94,0,0,0,1166.428,978.445Z" transform="translate(-1131.897 -952.7)" fill="#d99162"/>
      </g>
      <g id="Group_21050" data-name="Group 21050" transform="translate(74.825 64.434)">
        <path id="Path_96566" data-name="Path 96566" d="M1195.139,907.743l.019,6.622-33.721-19.6-.019-6.622Z" transform="translate(-1161.417 -888.146)" fill="#1a1a1a"/>
      </g>
      <g id="Group_21051" data-name="Group 21051" transform="translate(73.634 65.691)">
        <path id="Path_96567" data-name="Path 96567" d="M1184.635,924.9l-33.721-19.6-.017-6.054,33.721,19.6Z" transform="translate(-1150.897 -899.247)" fill="#bb7d54"/>
      </g>
      <g id="Group_21052" data-name="Group 21052" transform="translate(54.276 80.575)">
        <path id="Path_96568" data-name="Path 96568" d="M1017.618,1050.269a1.941,1.941,0,0,1,.81,1.778,6.1,6.1,0,0,1-2.766,4.789,1.958,1.958,0,0,1-1.974.192l-33.722-19.6a1.957,1.957,0,0,0,1.975-.192,6.1,6.1,0,0,0,2.766-4.789,1.941,1.941,0,0,0-.81-1.778Z" transform="translate(-979.967 -1030.672)" fill="#1a1a1a"/>
      </g>
      <g id="Group_21053" data-name="Group 21053" transform="translate(57.361 82.026)">
        <path id="Path_96569" data-name="Path 96569" d="M1007.207,1043.486l33.721,19.6a1.108,1.108,0,0,1,.463,1.015l-33.721-19.6A1.108,1.108,0,0,0,1007.207,1043.486Z" transform="translate(-1007.207 -1043.486)" fill="#bb7d54"/>
      </g>
      <g id="Group_21054" data-name="Group 21054" transform="translate(55.119 83.042)">
        <path id="Path_96570" data-name="Path 96570" d="M1021.139,1074.889l-33.721-19.6a1.116,1.116,0,0,0,1.127-.11,3.481,3.481,0,0,0,1.577-2.731l33.721,19.6a3.481,3.481,0,0,1-1.577,2.731A1.117,1.117,0,0,1,1021.139,1074.889Z" transform="translate(-987.418 -1052.452)" fill="#bb7d54"/>
      </g>
      <g id="Group_21055" data-name="Group 21055" transform="translate(56.828 80.387)">
        <path id="Path_96571" data-name="Path 96571" d="M1003.883,1029.2l33.721,19.6a1.667,1.667,0,0,0-1.378-.078l-33.721-19.6A1.667,1.667,0,0,1,1003.883,1029.2Z" transform="translate(-1002.505 -1029.014)" fill="#d99162"/>
      </g>
      <g id="Group_21056" data-name="Group 21056" transform="translate(54.658 81.919)">
        <path id="Path_96572" data-name="Path 96572" d="M1019.764,1062.244a1.114,1.114,0,0,0-1.125.109,3.483,3.483,0,0,0-1.578,2.734,1.106,1.106,0,0,0,.462,1.013L983.8,1046.5a1.106,1.106,0,0,1-.462-1.013,3.482,3.482,0,0,1,1.578-2.734,1.115,1.115,0,0,1,1.125-.109Z" transform="translate(-983.34 -1042.541)" fill="#1a1a1a"/>
      </g>
      <g id="Group_21057" data-name="Group 21057" transform="translate(44.481 93.09)">
        <path id="Path_96573" data-name="Path 96573" d="M931.13,1160.778a1.94,1.94,0,0,1,.81,1.777,6.105,6.105,0,0,1-2.766,4.791,1.956,1.956,0,0,1-1.974.192l-33.721-19.6a1.956,1.956,0,0,0,1.974-.192,6.106,6.106,0,0,0,2.766-4.791,1.94,1.94,0,0,0-.81-1.777Z" transform="translate(-893.479 -1141.181)" fill="#1a1a1a"/>
      </g>
      <g id="Group_21058" data-name="Group 21058" transform="translate(47.567 94.542)">
        <path id="Path_96574" data-name="Path 96574" d="M920.73,1154l33.721,19.6a1.106,1.106,0,0,1,.462,1.013l-33.721-19.6A1.107,1.107,0,0,0,920.73,1154Z" transform="translate(-920.73 -1153.998)" fill="#bb7d54"/>
      </g>
      <g id="Group_21059" data-name="Group 21059" transform="translate(45.326 95.555)">
        <path id="Path_96575" data-name="Path 96575" d="M934.662,1185.386l-33.721-19.6a1.115,1.115,0,0,0,1.125-.109,3.483,3.483,0,0,0,1.578-2.734l33.721,19.6a3.483,3.483,0,0,1-1.578,2.734A1.115,1.115,0,0,1,934.662,1185.386Z" transform="translate(-900.941 -1162.946)" fill="#bb7d54"/>
      </g>
      <g id="Group_21060" data-name="Group 21060" transform="translate(53.466 81.185)">
        <path id="Path_96576" data-name="Path 96576" d="M1007.348,1061.8l-33.721-19.6a1.94,1.94,0,0,1-.81-1.777,6.192,6.192,0,0,1,2.171-4.372l33.721,19.6a6.192,6.192,0,0,0-2.17,4.372A1.94,1.94,0,0,0,1007.348,1061.8Z" transform="translate(-972.817 -1036.056)" fill="#d99162"/>
      </g>
      <g id="Group_21061" data-name="Group 21061" transform="translate(66.454 59.663)">
        <path id="Path_96577" data-name="Path 96577" d="M1121.22,865.619l-33.721-19.6,8.371,4.771,33.721,19.6Z" transform="translate(-1087.499 -846.022)" fill="#1a1a1a"/>
      </g>
      <g id="Group_21062" data-name="Group 21062" transform="translate(47.033 92.903)">
        <path id="Path_96578" data-name="Path 96578" d="M917.389,1139.709l33.721,19.6a1.669,1.669,0,0,0-1.378-.079l-33.721-19.6A1.669,1.669,0,0,1,917.389,1139.709Z" transform="translate(-916.011 -1139.521)" fill="#bb7d54"/>
      </g>
      <g id="Group_21063" data-name="Group 21063" transform="translate(44.863 94.435)">
        <path id="Path_96579" data-name="Path 96579" d="M933.282,1172.756a1.117,1.117,0,0,0-1.127.11,3.482,3.482,0,0,0-1.577,2.731,1.108,1.108,0,0,0,.462,1.015l-33.721-19.6a1.107,1.107,0,0,1-.463-1.015,3.482,3.482,0,0,1,1.577-2.731,1.116,1.116,0,0,1,1.127-.11Z" transform="translate(-896.857 -1153.052)" fill="#1a1a1a"/>
      </g>
      <g id="Group_21064" data-name="Group 21064" transform="translate(65.262 60.921)">
        <path id="Path_96580" data-name="Path 96580" d="M1119.071,881.49l-8.371-4.771-33.721-19.6,8.371,4.771Z" transform="translate(-1076.978 -857.123)" fill="#1a1a1a"/>
      </g>
      <g id="Group_21065" data-name="Group 21065" transform="translate(43.67 93.699)">
        <path id="Path_96581" data-name="Path 96581" d="M920.854,1172.305l-33.721-19.6a1.941,1.941,0,0,1-.81-1.778,6.2,6.2,0,0,1,2.171-4.373l33.721,19.6a6.2,6.2,0,0,0-2.171,4.373A1.942,1.942,0,0,0,920.854,1172.305Z" transform="translate(-886.322 -1146.558)" fill="#d99162"/>
      </g>
      <g id="Group_21066" data-name="Group 21066" transform="translate(59.06 59.704)">
        <path id="Path_96582" data-name="Path 96582" d="M1059.858,865.978a1.94,1.94,0,0,1,.81,1.777,6.1,6.1,0,0,1-2.765,4.79,1.956,1.956,0,0,1-1.974.192l-33.721-19.6a1.956,1.956,0,0,0,1.974-.192,6.1,6.1,0,0,0,2.765-4.79,1.94,1.94,0,0,0-.81-1.777Z" transform="translate(-1022.209 -846.381)" fill="#1a1a1a"/>
      </g>
      <g id="Group_21067" data-name="Group 21067" transform="translate(62.144 61.156)">
        <path id="Path_96583" data-name="Path 96583" d="M1049.445,859.2l33.721,19.6a1.107,1.107,0,0,1,.462,1.013l-33.721-19.6A1.107,1.107,0,0,0,1049.445,859.2Z" transform="translate(-1049.445 -859.199)" fill="#1a1a1a"/>
      </g>
      <g id="Group_21068" data-name="Group 21068" transform="translate(59.903 62.169)">
        <path id="Path_96584" data-name="Path 96584" d="M1063.377,890.587l-33.721-19.6a1.116,1.116,0,0,0,1.126-.11,3.481,3.481,0,0,0,1.577-2.733l33.721,19.6a3.482,3.482,0,0,1-1.577,2.733A1.116,1.116,0,0,1,1063.377,890.587Z" transform="translate(-1029.656 -868.148)" fill="#bb7d54"/>
      </g>
      <g id="Group_21069" data-name="Group 21069" transform="translate(47.012 85.833)">
        <path id="Path_96585" data-name="Path 96585" d="M949.553,1096.693l.02,7.179-33.721-19.6-.02-7.178Z" transform="translate(-915.831 -1077.096)" fill="#1a1a1a"/>
      </g>
      <g id="Group_21070" data-name="Group 21070" transform="translate(61.611 59.516)">
        <path id="Path_96586" data-name="Path 96586" d="M1046.116,844.909l33.721,19.6a1.667,1.667,0,0,0-1.376-.079l-33.721-19.6A1.668,1.668,0,0,1,1046.116,844.909Z" transform="translate(-1044.74 -844.721)" fill="#bb7d54"/>
      </g>
      <g id="Group_21071" data-name="Group 21071" transform="translate(59.441 61.049)">
        <path id="Path_96587" data-name="Path 96587" d="M1062,877.957a1.115,1.115,0,0,0-1.125.109,3.482,3.482,0,0,0-1.578,2.732,1.108,1.108,0,0,0,.462,1.015l-33.721-19.6a1.108,1.108,0,0,1-.462-1.015,3.482,3.482,0,0,1,1.578-2.732,1.115,1.115,0,0,1,1.125-.109Z" transform="translate(-1025.574 -858.254)" fill="#1a1a1a"/>
      </g>
      <g id="Group_21072" data-name="Group 21072" transform="translate(66.427 50.394)">
        <path id="Path_96588" data-name="Path 96588" d="M1120.988,783.773l.026,9.269-33.721-19.6-.026-9.269Z" transform="translate(-1087.266 -764.177)" fill="#1a1a1a"/>
      </g>
      <g id="Group_21073" data-name="Group 21073" transform="translate(65.234 51.083)">
        <path id="Path_96589" data-name="Path 96589" d="M1110.481,799.693l-33.721-19.6-.028-9.837,33.721,19.6Z" transform="translate(-1076.732 -770.259)" fill="#bb7d54"/>
      </g>
      <g id="Group_21074" data-name="Group 21074" transform="translate(58.249 60.314)">
        <path id="Path_96590" data-name="Path 96590" d="M1049.583,877.508l-33.721-19.6a1.941,1.941,0,0,1-.811-1.778,6.2,6.2,0,0,1,2.169-4.371l33.721,19.6a6.2,6.2,0,0,0-2.169,4.371A1.941,1.941,0,0,0,1049.583,877.508Z" transform="translate(-1015.051 -851.762)" fill="#bb7d54"/>
      </g>
      <g id="Group_21075" data-name="Group 21075" transform="translate(61.593 53.186)">
        <path id="Path_96591" data-name="Path 96591" d="M1078.3,808.419l.018,6.439-33.721-19.6-.018-6.439Z" transform="translate(-1044.579 -788.822)" fill="#1a1a1a"/>
      </g>
      <g id="Group_21076" data-name="Group 21076" transform="translate(60.4 53.875)">
        <path id="Path_96592" data-name="Path 96592" d="M1067.784,820.94l-33.721-19.6-.018-6.439,33.721,19.6Z" transform="translate(-1034.044 -794.904)" fill="#bb7d54"/>
      </g>
      <g id="Group_21077" data-name="Group 21077" transform="translate(56.759 55.977)">
        <path id="Path_96593" data-name="Path 96593" d="M1035.613,833.065l.07,24.52-33.721-19.6-.07-24.52Z" transform="translate(-1001.892 -813.468)" fill="#1a1a1a"/>
      </g>
      <g id="Group_21078" data-name="Group 21078" transform="translate(55.567 56.665)">
        <path id="Path_96594" data-name="Path 96594" d="M1025.16,863.66l-33.721-19.6-.069-24.52,33.721,19.6Z" transform="translate(-991.369 -819.543)" fill="#bb7d54"/>
      </g>
      <g id="Group_21079" data-name="Group 21079" transform="translate(47.012 77.235)">
        <path id="Path_96595" data-name="Path 96595" d="M954.517,1020.77l-4.964,8.6-33.721-19.6,4.964-8.6Z" transform="translate(-915.831 -1001.173)" fill="#1a1a1a"/>
      </g>
      <g id="Group_21080" data-name="Group 21080" transform="translate(34.958 98.589)">
        <path id="Path_96596" data-name="Path 96596" d="M847.045,1209.326a1.94,1.94,0,0,1,.81,1.777,6.106,6.106,0,0,1-2.766,4.791,1.956,1.956,0,0,1-1.974.192l-33.721-19.6a1.956,1.956,0,0,0,1.974-.192,6.106,6.106,0,0,0,2.766-4.791,1.939,1.939,0,0,0-.81-1.777Z" transform="translate(-809.394 -1189.729)" fill="#1a1a1a"/>
      </g>
      <g id="Group_21081" data-name="Group 21081" transform="translate(35.803 101.054)">
        <path id="Path_96597" data-name="Path 96597" d="M850.576,1233.939l-33.721-19.6a1.114,1.114,0,0,0,1.125-.109,3.482,3.482,0,0,0,1.577-2.733l33.721,19.6a3.482,3.482,0,0,1-1.577,2.733A1.115,1.115,0,0,1,850.576,1233.939Z" transform="translate(-816.855 -1211.5)" fill="#bb7d54"/>
      </g>
      <g id="Group_21082" data-name="Group 21082" transform="translate(38.043 100.041)">
        <path id="Path_96598" data-name="Path 96598" d="M836.631,1202.55l33.721,19.6a1.106,1.106,0,0,1,.462,1.014l-33.721-19.6A1.106,1.106,0,0,0,836.631,1202.55Z" transform="translate(-836.631 -1202.55)" fill="#bb7d54"/>
      </g>
      <g id="Group_21083" data-name="Group 21083" transform="translate(45.819 85.953)">
        <path id="Path_96599" data-name="Path 96599" d="M939.038,1105.5l-33.721-19.6-.022-7.747,33.721,19.6Z" transform="translate(-905.294 -1078.155)" fill="#d99162"/>
      </g>
      <g id="Group_21084" data-name="Group 21084" transform="translate(45.819 77.354)">
        <path id="Path_96600" data-name="Path 96600" d="M939.016,1030.425l-33.721-19.6,4.964-8.6,33.721,19.6Z" transform="translate(-905.294 -1002.23)" fill="#bb7d54"/>
      </g>
      <g id="Group_21085" data-name="Group 21085" transform="translate(66.427 50.095)">
        <path id="Path_96601" data-name="Path 96601" d="M1121.507,781.128l-.519.3-33.721-19.6.519-.3Z" transform="translate(-1087.266 -761.531)" fill="#1a1a1a"/>
      </g>
      <g id="Group_21086" data-name="Group 21086" transform="translate(37.51 98.401)">
        <path id="Path_96602" data-name="Path 96602" d="M833.3,1188.257l33.721,19.6a1.67,1.67,0,0,0-1.378-.079l-33.721-19.6A1.67,1.67,0,0,1,833.3,1188.257Z" transform="translate(-831.923 -1188.069)" fill="#bb7d54"/>
      </g>
      <g id="Group_21087" data-name="Group 21087" transform="translate(35.341 99.934)">
        <path id="Path_96603" data-name="Path 96603" d="M849.195,1221.308a1.114,1.114,0,0,0-1.125.109,3.483,3.483,0,0,0-1.577,2.732,1.108,1.108,0,0,0,.463,1.015l-33.721-19.6a1.108,1.108,0,0,1-.463-1.015,3.482,3.482,0,0,1,1.577-2.731,1.114,1.114,0,0,1,1.125-.109Z" transform="translate(-812.771 -1201.604)" fill="#1a1a1a"/>
      </g>
      <g id="Group_21088" data-name="Group 21088" transform="translate(34.147 99.198)">
        <path id="Path_96604" data-name="Path 96604" d="M836.768,1220.853l-33.721-19.6a1.941,1.941,0,0,1-.811-1.778,6.2,6.2,0,0,1,2.171-4.373l33.721,19.6a6.2,6.2,0,0,0-2.171,4.373A1.941,1.941,0,0,0,836.768,1220.853Z" transform="translate(-802.236 -1195.105)" fill="#d99162"/>
      </g>
      <g id="Group_21089" data-name="Group 21089" transform="translate(39.734 84.58)">
        <path id="Path_96605" data-name="Path 96605" d="M889.219,1085.632a1.942,1.942,0,0,1,.81,1.779,6.1,6.1,0,0,1-2.765,4.79,1.957,1.957,0,0,1-1.974.192l-33.721-19.6a1.956,1.956,0,0,0,1.974-.192,6.1,6.1,0,0,0,2.765-4.79,1.941,1.941,0,0,0-.81-1.779Z" transform="translate(-851.569 -1066.035)" fill="#1a1a1a"/>
      </g>
      <g id="Group_21090" data-name="Group 21090" transform="translate(42.819 86.032)">
        <path id="Path_96606" data-name="Path 96606" d="M878.8,1078.853l33.721,19.6a1.108,1.108,0,0,1,.463,1.015l-33.721-19.6A1.108,1.108,0,0,0,878.8,1078.853Z" transform="translate(-878.803 -1078.853)" fill="#d99162"/>
      </g>
      <g id="Group_21091" data-name="Group 21091" transform="translate(40.578 87.047)">
        <path id="Path_96607" data-name="Path 96607" d="M892.735,1110.252l-33.721-19.6a1.117,1.117,0,0,0,1.127-.11,3.482,3.482,0,0,0,1.577-2.731l33.721,19.6a3.482,3.482,0,0,1-1.577,2.731A1.117,1.117,0,0,1,892.735,1110.252Z" transform="translate(-859.014 -1087.814)" fill="#bb7d54"/>
      </g>
      <g id="Group_21092" data-name="Group 21092" transform="translate(61.593 51.083)">
        <path id="Path_96608" data-name="Path 96608" d="M1081.942,789.856l-3.641,2.1-33.721-19.6,3.641-2.1Z" transform="translate(-1044.579 -770.259)" fill="#1a1a1a"/>
      </g>
      <g id="Group_21093" data-name="Group 21093" transform="translate(42.286 84.392)">
        <path id="Path_96609" data-name="Path 96609" d="M875.478,1064.566l33.721,19.6a1.665,1.665,0,0,0-1.376-.078l-33.721-19.6A1.665,1.665,0,0,1,875.478,1064.566Z" transform="translate(-874.102 -1064.378)" fill="#d99162"/>
      </g>
      <g id="Group_21094" data-name="Group 21094" transform="translate(40.116 85.925)">
        <path id="Path_96610" data-name="Path 96610" d="M891.36,1097.61a1.114,1.114,0,0,0-1.125.109,3.485,3.485,0,0,0-1.578,2.734,1.106,1.106,0,0,0,.462,1.013l-33.721-19.6a1.106,1.106,0,0,1-.462-1.013,3.484,3.484,0,0,1,1.578-2.734,1.115,1.115,0,0,1,1.125-.109Z" transform="translate(-854.936 -1077.907)" fill="#1a1a1a"/>
      </g>
      <g id="Group_21095" data-name="Group 21095" transform="translate(38.924 85.191)">
        <path id="Path_96611" data-name="Path 96611" d="M878.945,1097.174l-33.721-19.6a1.941,1.941,0,0,1-.81-1.778,6.191,6.191,0,0,1,2.169-4.371l33.721,19.6a6.192,6.192,0,0,0-2.169,4.371A1.941,1.941,0,0,0,878.945,1097.174Z" transform="translate(-844.413 -1071.428)" fill="#d99162"/>
      </g>
      <g id="Group_21096" data-name="Group 21096" transform="translate(42.279 81.842)">
        <path id="Path_96612" data-name="Path 96612" d="M907.757,1061.451l.008,2.66-33.721-19.6-.008-2.66Z" transform="translate(-874.035 -1041.854)" fill="#1a1a1a"/>
      </g>
      <g id="Group_21098" data-name="Group 21098" transform="translate(50.733 59.456)">
        <path id="Path_96614" data-name="Path 96614" d="M982.454,881.684l-33.721-19.6-.051-17.9,33.721,19.6Z" transform="translate(-948.681 -844.189)" fill="#bb7d54"/>
      </g>
      <g id="Group_21099" data-name="Group 21099" transform="translate(42.279 73.45)">
        <path id="Path_96615" data-name="Path 96615" d="M912.6,987.355l-4.844,8.391-33.721-19.6,4.844-8.391Z" transform="translate(-874.035 -967.759)" fill="#1a1a1a"/>
      </g>
      <g id="Group_21100" data-name="Group 21100" transform="translate(56.759 53.875)">
        <path id="Path_96616" data-name="Path 96616" d="M1039.254,814.5l-3.641,2.1-33.721-19.6,3.641-2.1Z" transform="translate(-1001.892 -794.904)" fill="#1a1a1a"/>
      </g>
      <g id="Group_21101" data-name="Group 21101" transform="translate(41.084 81.964)">
        <path id="Path_96617" data-name="Path 96617" d="M897.214,1065.756l-33.721-19.6-.009-3.227,33.721,19.6Z" transform="translate(-863.484 -1042.932)" fill="#d99162"/>
      </g>
      <g id="Group_21102" data-name="Group 21102" transform="translate(41.084 73.572)">
        <path id="Path_96618" data-name="Path 96618" d="M897.205,996.819l-33.721-19.6,4.846-8.392,33.721,19.6Z" transform="translate(-863.484 -968.83)" fill="#bb7d54"/>
      </g>
      <g id="Group_21103" data-name="Group 21103" transform="translate(25.487 99.117)">
        <path id="Path_96619" data-name="Path 96619" d="M763.414,1213.994a1.941,1.941,0,0,1,.81,1.778,6.1,6.1,0,0,1-2.765,4.788,1.957,1.957,0,0,1-1.974.192l-33.721-19.6a1.957,1.957,0,0,0,1.974-.192,6.1,6.1,0,0,0,2.765-4.789,1.941,1.941,0,0,0-.81-1.778Z" transform="translate(-725.764 -1194.397)" fill="#1a1a1a"/>
      </g>
      <g id="Group_21104" data-name="Group 21104" transform="translate(28.572 100.568)">
        <path id="Path_96620" data-name="Path 96620" d="M753,1207.21l33.721,19.6a1.109,1.109,0,0,1,.463,1.015l-33.721-19.6A1.107,1.107,0,0,0,753,1207.21Z" transform="translate(-753.005 -1207.21)" fill="#d99162"/>
      </g>
      <g id="Group_21105" data-name="Group 21105" transform="translate(26.331 101.583)">
        <path id="Path_96621" data-name="Path 96621" d="M766.937,1238.611l-33.721-19.6a1.117,1.117,0,0,0,1.127-.11,3.481,3.481,0,0,0,1.577-2.731l33.721,19.6a3.482,3.482,0,0,1-1.577,2.731A1.116,1.116,0,0,1,766.937,1238.611Z" transform="translate(-733.216 -1216.173)" fill="#bb7d54"/>
      </g>
      <g id="Group_21106" data-name="Group 21106" transform="translate(66.946 10.718)">
        <path id="Path_96622" data-name="Path 96622" d="M1137.292,433.431c2.988,1.736,4.842,5.424,4.857,10.659.03,10.54-7.408,23.423-16.579,28.718l-33.721-19.6c9.172-5.3,16.609-18.178,16.579-28.718-.015-5.235-1.87-8.922-4.857-10.659Z" transform="translate(-1091.849 -413.834)" fill="#1a1a1a"/>
      </g>
      <g id="Group_21107" data-name="Group 21107" transform="translate(62.74 39.63)">
        <path id="Path_96623" data-name="Path 96623" d="M1088.427,689.928l-33.721-19.6a1.489,1.489,0,0,0,.7-1.206l33.721,19.6A1.489,1.489,0,0,1,1088.427,689.928Z" transform="translate(-1054.706 -669.126)" fill="#1a1a1a"/>
      </g>
      <g id="Group_21108" data-name="Group 21108" transform="translate(51.924 56.665)">
        <path id="Path_96624" data-name="Path 96624" d="M996.568,839.14l-3.643,2.1-33.721-19.6,3.643-2.1Z" transform="translate(-959.204 -819.543)" fill="#1a1a1a"/>
      </g>
      <g id="Group_21109" data-name="Group 21109" transform="translate(28.039 98.93)">
        <path id="Path_96625" data-name="Path 96625" d="M749.678,1192.928l33.721,19.6a1.665,1.665,0,0,0-1.376-.078l-33.721-19.6A1.665,1.665,0,0,1,749.678,1192.928Z" transform="translate(-748.302 -1192.74)" fill="#d99162"/>
      </g>
      <g id="Group_21110" data-name="Group 21110" transform="translate(25.869 100.461)">
        <path id="Path_96626" data-name="Path 96626" d="M765.56,1225.967a1.115,1.115,0,0,0-1.125.109,3.484,3.484,0,0,0-1.578,2.734,1.107,1.107,0,0,0,.462,1.013l-33.721-19.6a1.107,1.107,0,0,1-.462-1.013,3.483,3.483,0,0,1,1.578-2.734,1.115,1.115,0,0,1,1.125-.109Z" transform="translate(-729.136 -1206.264)" fill="#1a1a1a"/>
      </g>
      <g id="Group_21111" data-name="Group 21111" transform="translate(63.43 37.337)">
        <path id="Path_96627" data-name="Path 96627" d="M1094.523,670.767l-33.721-19.6-.006-2.293,33.721,19.6Z" transform="translate(-1060.795 -648.877)" fill="#1a1a1a"/>
      </g>
      <g id="Group_21112" data-name="Group 21112" transform="translate(63.231 36.88)">
        <path id="Path_96628" data-name="Path 96628" d="M1059.039,644.842l33.721,19.6a.5.5,0,0,1,.2.457l-33.721-19.6A.5.5,0,0,0,1059.039,644.842Z" transform="translate(-1059.039 -644.842)" fill="#1a1a1a"/>
      </g>
      <g id="Group_21113" data-name="Group 21113" transform="translate(62.729 36.835)">
        <path id="Path_96629" data-name="Path 96629" d="M1088.831,664.089a.5.5,0,0,0-.5.057l-33.721-19.6a.5.5,0,0,1,.5-.057Z" transform="translate(-1054.608 -644.448)" fill="#1a1a1a"/>
      </g>
      <g id="Group_21114" data-name="Group 21114" transform="translate(24.677 99.727)">
        <path id="Path_96630" data-name="Path 96630" d="M753.144,1225.526l-33.721-19.6a1.939,1.939,0,0,1-.81-1.777,6.191,6.191,0,0,1,2.171-4.372l33.721,19.6a6.192,6.192,0,0,0-2.171,4.372A1.94,1.94,0,0,0,753.144,1225.526Z" transform="translate(-718.613 -1199.78)" fill="#d99162"/>
      </g>
      <g id="Group_21115" data-name="Group 21115" transform="translate(15.745 109.682)">
        <path id="Path_96631" data-name="Path 96631" d="M677.392,1307.274a1.94,1.94,0,0,1,.81,1.777,6.106,6.106,0,0,1-2.766,4.791,1.955,1.955,0,0,1-1.974.191l-33.721-19.6a1.957,1.957,0,0,0,1.974-.192,6.106,6.106,0,0,0,2.766-4.791,1.939,1.939,0,0,0-.81-1.777Z" transform="translate(-639.741 -1287.677)" fill="#1a1a1a"/>
      </g>
      <g id="Group_21116" data-name="Group 21116" transform="translate(16.59 112.147)">
        <path id="Path_96632" data-name="Path 96632" d="M680.923,1331.889l-33.721-19.6a1.115,1.115,0,0,0,1.125-.109,3.482,3.482,0,0,0,1.577-2.733l33.721,19.6a3.482,3.482,0,0,1-1.577,2.733A1.115,1.115,0,0,1,680.923,1331.889Z" transform="translate(-647.202 -1309.45)" fill="#bb7d54"/>
      </g>
      <g id="Group_21117" data-name="Group 21117" transform="translate(18.829 111.133)">
        <path id="Path_96633" data-name="Path 96633" d="M666.976,1300.5l33.721,19.6a1.106,1.106,0,0,1,.462,1.014l-33.721-19.6A1.107,1.107,0,0,0,666.976,1300.5Z" transform="translate(-666.976 -1300.498)" fill="#1a1a1a"/>
      </g>
      <g id="Group_21118" data-name="Group 21118" transform="translate(60.833 36.937)">
        <path id="Path_96634" data-name="Path 96634" d="M1073.486,664.946l-1.9,1.095-33.721-19.6,1.9-1.095Z" transform="translate(-1037.869 -645.349)" fill="#1a1a1a"/>
      </g>
      <g id="Group_21120" data-name="Group 21120" transform="translate(47.09 61.559)">
        <path id="Path_96636" data-name="Path 96636" d="M950.236,882.357l.034,11.891-33.721-19.6-.034-11.891Z" transform="translate(-916.515 -862.76)" fill="#1a1a1a"/>
      </g>
      <g id="Group_21121" data-name="Group 21121" transform="translate(45.898 62.247)">
        <path id="Path_96637" data-name="Path 96637" d="M939.747,899.756l-33.721-19.6-.032-11.325,33.721,19.6Z" transform="translate(-905.994 -868.834)" fill="#bb7d54"/>
      </g>
      <g id="Group_21122" data-name="Group 21122" transform="translate(39.684 66.912)">
        <path id="Path_96638" data-name="Path 96638" d="M888.771,929.619a1.941,1.941,0,0,1,.81,1.778,6.1,6.1,0,0,1-2.765,4.788,1.957,1.957,0,0,1-1.974.192l-33.721-19.6a1.958,1.958,0,0,0,1.975-.192,6.1,6.1,0,0,0,2.765-4.788,1.941,1.941,0,0,0-.81-1.778Z" transform="translate(-851.121 -910.022)" fill="#1a1a1a"/>
      </g>
      <g id="Group_21123" data-name="Group 21123" transform="translate(42.769 68.362)">
        <path id="Path_96639" data-name="Path 96639" d="M878.363,922.831l33.721,19.6a1.108,1.108,0,0,1,.463,1.015l-33.721-19.6A1.108,1.108,0,0,0,878.363,922.831Z" transform="translate(-878.363 -922.831)" fill="#bb7d54"/>
      </g>
      <g id="Group_21124" data-name="Group 21124" transform="translate(40.528 69.378)">
        <path id="Path_96640" data-name="Path 96640" d="M892.294,954.233l-33.721-19.6a1.117,1.117,0,0,0,1.127-.11,3.482,3.482,0,0,0,1.577-2.732L895,951.392a3.483,3.483,0,0,1-1.577,2.731A1.117,1.117,0,0,1,892.294,954.233Z" transform="translate(-858.573 -931.795)" fill="#bb7d54"/>
      </g>
      <g id="Group_21125" data-name="Group 21125" transform="translate(18.297 109.493)">
        <path id="Path_96641" data-name="Path 96641" d="M663.651,1286.205l33.721,19.6a1.669,1.669,0,0,0-1.378-.079l-33.721-19.6A1.669,1.669,0,0,1,663.651,1286.205Z" transform="translate(-662.273 -1286.017)" fill="#1a1a1a"/>
      </g>
      <g id="Group_21126" data-name="Group 21126" transform="translate(16.127 111.026)">
        <path id="Path_96642" data-name="Path 96642" d="M679.542,1319.256a1.115,1.115,0,0,0-1.125.109,3.482,3.482,0,0,0-1.577,2.732,1.108,1.108,0,0,0,.462,1.015l-33.721-19.6a1.108,1.108,0,0,1-.462-1.015,3.482,3.482,0,0,1,1.577-2.732,1.115,1.115,0,0,1,1.125-.109Z" transform="translate(-643.119 -1299.552)" fill="#1a1a1a"/>
      </g>
      <g id="Group_21127" data-name="Group 21127" transform="translate(42.262 66.724)">
        <path id="Path_96643" data-name="Path 96643" d="M875.239,908.551l33.721,19.6a1.655,1.655,0,0,0-1.35-.087l-33.721-19.6A1.656,1.656,0,0,1,875.239,908.551Z" transform="translate(-873.889 -908.363)" fill="#bb7d54"/>
      </g>
      <g id="Group_21128" data-name="Group 21128" transform="translate(54.559 40.836)">
        <path id="Path_96644" data-name="Path 96644" d="M1016.191,704.093l-33.721-19.6,8.181-4.723,33.721,19.6Z" transform="translate(-982.469 -679.773)" fill="#1a1a1a"/>
      </g>
      <g id="Group_21129" data-name="Group 21129" transform="translate(40.066 68.255)">
        <path id="Path_96645" data-name="Path 96645" d="M890.918,941.589a1.115,1.115,0,0,0-1.125.109,3.482,3.482,0,0,0-1.578,2.734,1.106,1.106,0,0,0,.462,1.013l-33.721-19.6a1.106,1.106,0,0,1-.462-1.013,3.483,3.483,0,0,1,1.578-2.734,1.115,1.115,0,0,1,1.125-.109Z" transform="translate(-854.494 -921.885)" fill="#1a1a1a"/>
      </g>
      <g id="Group_21130" data-name="Group 21130" transform="translate(54.057 45.559)">
        <path id="Path_96646" data-name="Path 96646" d="M1011.759,741.133l-33.721-19.6a.5.5,0,0,0,.5-.057l33.721,19.6A.5.5,0,0,1,1011.759,741.133Z" transform="translate(-978.038 -721.479)" fill="#1a1a1a"/>
      </g>
      <g id="Group_21131" data-name="Group 21131" transform="translate(14.934 110.29)">
        <path id="Path_96647" data-name="Path 96647" d="M667.116,1318.8l-33.721-19.6a1.941,1.941,0,0,1-.81-1.778,6.2,6.2,0,0,1,2.171-4.372l33.721,19.6a6.2,6.2,0,0,0-2.171,4.372A1.941,1.941,0,0,0,667.116,1318.8Z" transform="translate(-632.584 -1293.054)" fill="#ffd6bf"/>
      </g>
      <g id="Group_21132" data-name="Group 21132" transform="translate(53.858 45.16)">
        <path id="Path_96648" data-name="Path 96648" d="M976.481,718.41a.5.5,0,0,1-.2-.457L1010,737.55a.5.5,0,0,0,.2.457Z" transform="translate(-976.282 -717.953)" fill="#1a1a1a"/>
      </g>
      <g id="Group_21133" data-name="Group 21133" transform="translate(18.287 106.222)">
        <path id="Path_96649" data-name="Path 96649" d="M695.91,1276.732l.01,3.38-33.721-19.6-.01-3.38Z" transform="translate(-662.188 -1257.136)" fill="#1a1a1a"/>
      </g>
      <g id="Group_21134" data-name="Group 21134" transform="translate(18.287 98.091)">
        <path id="Path_96650" data-name="Path 96650" d="M700.6,1204.931l-4.695,8.131-33.721-19.6,4.695-8.131Z" transform="translate(-662.188 -1185.335)" fill="#1a1a1a"/>
      </g>
      <g id="Group_21135" data-name="Group 21135" transform="translate(42.255 64.35)">
        <path id="Path_96651" data-name="Path 96651" d="M907.549,907l.007,2.474-33.721-19.6-.007-2.474Z" transform="translate(-873.827 -887.406)" fill="#1a1a1a"/>
      </g>
      <g id="Group_21136" data-name="Group 21136" transform="translate(42.255 62.247)">
        <path id="Path_96652" data-name="Path 96652" d="M911.192,888.431l-3.643,2.1-33.721-19.6,3.643-2.1Z" transform="translate(-873.827 -868.834)" fill="#1a1a1a"/>
      </g>
      <g id="Group_21137" data-name="Group 21137" transform="translate(38.874 67.499)">
        <path id="Path_96653" data-name="Path 96653" d="M878.5,940.977l-33.721-19.6a1.939,1.939,0,0,1-.81-1.777,6.193,6.193,0,0,1,2.2-4.394l33.721,19.6a6.192,6.192,0,0,0-2.2,4.394A1.939,1.939,0,0,0,878.5,940.977Z" transform="translate(-843.971 -915.209)" fill="#bb7d54"/>
      </g>
      <g id="Group_21138" data-name="Group 21138" transform="translate(41.064 65.038)">
        <path id="Path_96654" data-name="Path 96654" d="M897.035,915.537l-33.721-19.6-.007-2.461,33.721,19.6Z" transform="translate(-863.307 -893.48)" fill="#bb7d54"/>
      </g>
      <g id="Group_21140" data-name="Group 21140" transform="translate(37.421 67.142)">
        <path id="Path_96656" data-name="Path 96656" d="M864.859,931.649l.089,31.368-33.721-19.6-.089-31.368Z" transform="translate(-831.137 -912.053)" fill="#1a1a1a"/>
      </g>
      <g id="Group_21141" data-name="Group 21141" transform="translate(36.229 67.829)">
        <path id="Path_96657" data-name="Path 96657" d="M854.427,969.092l-33.721-19.6-.089-31.368,33.721,19.6Z" transform="translate(-820.617 -918.127)" fill="#bb7d54"/>
      </g>
      <g id="Group_21142" data-name="Group 21142" transform="translate(32.586 67.829)">
        <path id="Path_96658" data-name="Path 96658" d="M825.814,937.724l-3.643,2.1-33.721-19.6,3.643-2.1Z" transform="translate(-788.45 -918.127)" fill="#1a1a1a"/>
      </g>
      <g id="Group_21143" data-name="Group 21143" transform="translate(32.586 69.933)">
        <path id="Path_96659" data-name="Path 96659" d="M822.172,956.3l.028,9.837-33.721-19.6-.028-9.837Z" transform="translate(-788.45 -936.698)" fill="#1a1a1a"/>
      </g>
      <g id="Group_21144" data-name="Group 21144" transform="translate(28.007 79.77)">
        <path id="Path_96660" data-name="Path 96660" d="M786.348,1043.159l-4.607,7.979-33.721-19.6,4.607-7.979Z" transform="translate(-748.02 -1023.562)" fill="#1a1a1a"/>
      </g>
      <g id="Group_21145" data-name="Group 21145" transform="translate(31.395 70.621)">
        <path id="Path_96661" data-name="Path 96661" d="M811.677,971.638l-33.721-19.6-.026-9.269,33.721,19.6Z" transform="translate(-777.93 -942.772)" fill="#bb7d54"/>
      </g>
      <g id="Group_21146" data-name="Group 21146" transform="translate(27.752 70.621)">
        <path id="Path_96662" data-name="Path 96662" d="M783.127,962.369l-3.643,2.1-33.721-19.6,3.643-2.1Z" transform="translate(-745.763 -942.772)" fill="#1a1a1a"/>
      </g>
      <g id="Group_21153" data-name="Group 21153" transform="translate(24.069 59.891)">
        <path id="Path_96669" data-name="Path 96669" d="M746.967,870.095l-33.721-19.6.693-2.467,33.721,19.6Z" transform="translate(-713.246 -848.031)" fill="#1a1a1a"/>
      </g>
      <g id="Group_21155" data-name="Group 21155" transform="translate(26.148 53.284)">
        <path id="Path_96671" data-name="Path 96671" d="M768.818,809.292l-3.492,2.016-33.721-19.6L735.1,789.7Z" transform="translate(-731.604 -789.695)" fill="#1a1a1a"/>
      </g>
      <g id="Group_21157" data-name="Group 21157" transform="translate(41.79 51.726)">
        <path id="Path_96673" data-name="Path 96673" d="M903.437,796.732l-33.721-19.6a1.488,1.488,0,0,0,.7-1.206l33.721,19.6A1.488,1.488,0,0,1,903.437,796.732Z" transform="translate(-869.716 -775.93)" fill="#1a1a1a"/>
      </g>
      <g id="Group_21159" data-name="Group 21159" transform="translate(42.476 48.171)">
        <path id="Path_96675" data-name="Path 96675" d="M909.505,767.695l-33.721-19.6-.01-3.555,33.721,19.6Z" transform="translate(-875.774 -744.543)" fill="#1a1a1a"/>
      </g>
      <g id="Group_21160" data-name="Group 21160" transform="translate(38.294 54.66)">
        <path id="Path_96676" data-name="Path 96676" d="M872.574,821.492l-33.721-19.6a.5.5,0,0,0,.5-.057l33.721,19.6A.5.5,0,0,1,872.574,821.492Z" transform="translate(-838.853 -801.838)" fill="#1a1a1a"/>
      </g>
      <g id="Group_21161" data-name="Group 21161" transform="translate(38.095 54.26)">
        <path id="Path_96677" data-name="Path 96677" d="M837.295,798.769a.5.5,0,0,1-.2-.457l33.721,19.6a.5.5,0,0,0,.2.457Z" transform="translate(-837.096 -798.312)" fill="#1a1a1a"/>
      </g>
      <g id="Group_21162" data-name="Group 21162" transform="translate(53.852 42.866)">
        <path id="Path_96678" data-name="Path 96678" d="M1009.946,717.3l.006,2.293L976.231,700l-.007-2.293Z" transform="translate(-976.225 -697.704)" fill="#1a1a1a"/>
      </g>
      <g id="Group_21163" data-name="Group 21163" transform="translate(54.548 40.566)">
        <path id="Path_96679" data-name="Path 96679" d="M1017.989,696.985l-1.9,1.095-33.721-19.6,1.9-1.095Z" transform="translate(-982.372 -677.389)" fill="#1a1a1a"/>
      </g>
      <g id="Group_21164" data-name="Group 21164" transform="translate(53.852 41.66)">
        <path id="Path_96680" data-name="Path 96680" d="M1010.642,706.652a1.489,1.489,0,0,0-.7,1.206l-33.721-19.6a1.488,1.488,0,0,1,.7-1.206Z" transform="translate(-976.225 -687.055)" fill="#1a1a1a"/>
      </g>
      <g id="Group_21165" data-name="Group 21165" transform="translate(60.81 29.778)">
        <path id="Path_96681" data-name="Path 96681" d="M1071.407,609.983l-33.721-19.6-.023-8.254,33.721,19.6Z" transform="translate(-1037.662 -582.133)" fill="#1a1a1a"/>
      </g>
      <g id="Group_21166" data-name="Group 21166" transform="translate(56.421 32.312)">
        <path id="Path_96682" data-name="Path 96682" d="M1032.628,624.1l.023,8.254-33.721-19.6-.023-8.254Z" transform="translate(-998.907 -604.508)" fill="#1a1a1a"/>
      </g>
      <g id="Group_21167" data-name="Group 21167" transform="translate(45.769 33.433)">
        <path id="Path_96683" data-name="Path 96683" d="M910.422,614.408,944.143,634a3.255,3.255,0,0,1,1.3,3.017c.009,3.323-2.179,7.113-6.867,9.82l-33.721-19.6c4.688-2.707,6.876-6.5,6.867-9.82A3.255,3.255,0,0,0,910.422,614.408Z" transform="translate(-904.85 -614.408)" fill="#1a1a1a"/>
      </g>
      <g id="Group_21168" data-name="Group 21168" transform="translate(42.476 46.27)">
        <path id="Path_96684" data-name="Path 96684" d="M909.5,749.254l-33.721-19.6,3.293-1.9,33.721,19.6Z" transform="translate(-875.774 -727.756)" fill="#1a1a1a"/>
      </g>
      <g id="Group_21169" data-name="Group 21169" transform="translate(42.466 42.601)">
        <path id="Path_96685" data-name="Path 96685" d="M912.7,714.955l-3.293,1.9-33.721-19.6,3.293-1.9Z" transform="translate(-875.685 -695.359)" fill="#1a1a1a"/>
      </g>
      <g id="Group_21170" data-name="Group 21170" transform="translate(45.758 37.922)">
        <path id="Path_96686" data-name="Path 96686" d="M940.271,673.641a1.274,1.274,0,0,1,.5,1.178,4.209,4.209,0,0,1-2.287,3.5l-33.721-19.6a4.21,4.21,0,0,0,2.288-3.5,1.274,1.274,0,0,0-.5-1.178Z" transform="translate(-904.76 -654.044)" fill="#1a1a1a"/>
      </g>
      <g id="Group_21171" data-name="Group 21171" transform="translate(42.453 40.147)">
        <path id="Path_96687" data-name="Path 96687" d="M909.309,697.64l-33.721-19.6-.012-4.355,33.721,19.6Z" transform="translate(-875.575 -673.688)" fill="#1a1a1a"/>
      </g>
      <g id="Group_21174" data-name="Group 21174" transform="translate(28.031 49.622)">
        <path id="Path_96690" data-name="Path 96690" d="M781.952,776.948l1.609,3.663-33.721-19.6-1.609-3.663Z" transform="translate(-748.231 -757.351)" fill="#1a1a1a"/>
      </g>
      <g id="Group_21177" data-name="Group 21177" transform="translate(19.481 47.337)">
        <path id="Path_96693" data-name="Path 96693" d="M712,756.774l-5.546,17.671-33.721-19.6,5.546-17.671Z" transform="translate(-672.729 -737.178)" fill="#1a1a1a"/>
      </g>
      <g id="Group_21178" data-name="Group 21178" transform="translate(62.705 27.478)">
        <path id="Path_96694" data-name="Path 96694" d="M1088.122,582.623l-33.721-19.6a1.488,1.488,0,0,0,.7-1.206l33.721,19.6A1.488,1.488,0,0,1,1088.122,582.623Z" transform="translate(-1054.401 -561.821)" fill="#1a1a1a"/>
      </g>
      <g id="Group_21179" data-name="Group 21179" transform="translate(28.007 87.749)">
        <path id="Path_96695" data-name="Path 96695" d="M781.741,1113.614l.032,11.29-33.721-19.6-.032-11.29Z" transform="translate(-748.02 -1094.017)" fill="#1a1a1a"/>
      </g>
      <g id="Group_21180" data-name="Group 21180" transform="translate(17.094 106.342)">
        <path id="Path_96696" data-name="Path 96696" d="M685.384,1281.737l-33.721-19.6-.011-3.948,33.721,19.6Z" transform="translate(-651.651 -1258.192)" fill="#ffd6bf"/>
      </g>
      <g id="Group_21181" data-name="Group 21181" transform="translate(17.094 98.211)">
        <path id="Path_96697" data-name="Path 96697" d="M685.373,1214.12l-33.721-19.6,4.694-8.132,33.721,19.6Z" transform="translate(-651.651 -1186.391)" fill="#f1b899"/>
      </g>
      <g id="Group_21182" data-name="Group 21182" transform="translate(60.81 28.683)">
        <path id="Path_96698" data-name="Path 96698" d="M1071.383,593.159l-33.721-19.6,1.9-1.094,33.721,19.6Z" transform="translate(-1037.662 -572.468)" fill="#1a1a1a"/>
      </g>
      <g id="Group_21183" data-name="Group 21183" transform="translate(63.395 25.185)">
        <path id="Path_96699" data-name="Path 96699" d="M1094.219,563.465l-33.721-19.6-.006-2.293,33.721,19.6Z" transform="translate(-1060.491 -541.575)" fill="#1a1a1a"/>
      </g>
      <g id="Group_21184" data-name="Group 21184" transform="translate(26.814 87.871)">
        <path id="Path_96700" data-name="Path 96700" d="M771.24,1126.542l-33.721-19.6-.034-11.856,33.721,19.6Z" transform="translate(-737.485 -1095.089)" fill="#d99162"/>
      </g>
      <g id="Group_21185" data-name="Group 21185" transform="translate(26.814 79.89)">
        <path id="Path_96701" data-name="Path 96701" d="M771.206,1052.2l-33.721-19.6,4.607-7.981,33.721,19.6Z" transform="translate(-737.485 -1024.617)" fill="#bb7d54"/>
      </g>
      <g id="Group_21186" data-name="Group 21186" transform="translate(63.196 24.727)">
        <path id="Path_96702" data-name="Path 96702" d="M1058.735,537.539l33.721,19.6a.5.5,0,0,1,.2.457L1058.934,538A.5.5,0,0,0,1058.735,537.539Z" transform="translate(-1058.735 -537.539)" fill="#1a1a1a"/>
      </g>
      <g id="Group_21187" data-name="Group 21187" transform="translate(62.694 24.683)">
        <path id="Path_96703" data-name="Path 96703" d="M1088.527,556.786a.5.5,0,0,0-.5.057l-33.721-19.6a.5.5,0,0,1,.5-.057Z" transform="translate(-1054.304 -537.145)" fill="#1a1a1a"/>
      </g>
      <g id="Group_21188" data-name="Group 21188" transform="translate(69.54 9.592)">
        <path id="Path_96704" data-name="Path 96704" d="M1123.881,405.023l33.721,19.6c-2.423-1.408-5.592-1.533-9.128-.158l-33.721-19.6C1118.289,403.49,1121.458,403.615,1123.881,405.023Z" transform="translate(-1114.753 -403.898)" fill="#ffece1"/>
      </g>
      <g id="Group_21189" data-name="Group 21189" transform="translate(54.525 32.312)">
        <path id="Path_96705" data-name="Path 96705" d="M1015.886,625.2l-33.721-19.6,1.9-1.095,33.721,19.6Z" transform="translate(-982.165 -604.508)" fill="#1a1a1a"/>
      </g>
      <g id="Group_21190" data-name="Group 21190" transform="translate(54.023 33.407)">
        <path id="Path_96706" data-name="Path 96706" d="M1011.455,633.828l-33.721-19.6a.5.5,0,0,0,.5-.057l33.721,19.6A.5.5,0,0,1,1011.455,633.828Z" transform="translate(-977.734 -614.174)" fill="#1a1a1a"/>
      </g>
      <g id="Group_21191" data-name="Group 21191" transform="translate(53.824 33.007)">
        <path id="Path_96707" data-name="Path 96707" d="M976.177,611.1a.5.5,0,0,1-.2-.457l33.721,19.6a.5.5,0,0,0,.2.457Z" transform="translate(-975.978 -610.648)" fill="#1a1a1a"/>
      </g>
      <g id="Group_21192" data-name="Group 21192" transform="translate(25.207 75.269)">
        <path id="Path_96708" data-name="Path 96708" d="M760.941,1003.417a1.941,1.941,0,0,1,.81,1.778,6.1,6.1,0,0,1-2.766,4.789,1.957,1.957,0,0,1-1.974.192l-33.721-19.6a1.957,1.957,0,0,0,1.974-.192,6.1,6.1,0,0,0,2.766-4.789,1.94,1.94,0,0,0-.81-1.778Z" transform="translate(-723.289 -983.82)" fill="#1a1a1a"/>
      </g>
      <g id="Group_21193" data-name="Group 21193" transform="translate(28.293 76.72)">
        <path id="Path_96709" data-name="Path 96709" d="M750.543,996.632l33.721,19.6a1.108,1.108,0,0,1,.462,1.015l-33.721-19.6A1.107,1.107,0,0,0,750.543,996.632Z" transform="translate(-750.543 -996.632)" fill="#bb7d54"/>
      </g>
      <g id="Group_21194" data-name="Group 21194" transform="translate(26.052 77.735)">
        <path id="Path_96710" data-name="Path 96710" d="M764.475,1028.03l-33.721-19.6a1.115,1.115,0,0,0,1.125-.109,3.483,3.483,0,0,0,1.579-2.733l33.721,19.6a3.483,3.483,0,0,1-1.579,2.732A1.114,1.114,0,0,1,764.475,1028.03Z" transform="translate(-730.754 -1005.592)" fill="#bb7d54"/>
      </g>
      <g id="Group_21195" data-name="Group 21195" transform="translate(53.817 30.714)">
        <path id="Path_96711" data-name="Path 96711" d="M1009.642,610l.006,2.293-33.721-19.6-.006-2.293Z" transform="translate(-975.92 -590.402)" fill="#1a1a1a"/>
      </g>
      <g id="Group_21196" data-name="Group 21196" transform="translate(54.514 24.785)">
        <path id="Path_96712" data-name="Path 96712" d="M1023.97,557.643l-8.181,4.723-33.721-19.6,8.181-4.723Z" transform="translate(-982.068 -538.046)" fill="#1a1a1a"/>
      </g>
      <g id="Group_21197" data-name="Group 21197" transform="translate(27.759 75.082)">
        <path id="Path_96713" data-name="Path 96713" d="M747.2,982.351l33.721,19.6a1.667,1.667,0,0,0-1.378-.078l-33.721-19.6A1.668,1.668,0,0,1,747.2,982.351Z" transform="translate(-745.825 -982.164)" fill="#bb7d54"/>
      </g>
      <g id="Group_21198" data-name="Group 21198" transform="translate(53.817 29.508)">
        <path id="Path_96714" data-name="Path 96714" d="M1010.337,599.349a1.489,1.489,0,0,0-.7,1.206l-33.721-19.6a1.489,1.489,0,0,1,.7-1.206Z" transform="translate(-975.92 -579.752)" fill="#1a1a1a"/>
      </g>
      <g id="Group_21199" data-name="Group 21199" transform="translate(25.59 76.613)">
        <path id="Path_96715" data-name="Path 96715" d="M763.1,1015.39a1.117,1.117,0,0,0-1.127.11,3.483,3.483,0,0,0-1.577,2.733,1.106,1.106,0,0,0,.462,1.014l-33.721-19.6a1.106,1.106,0,0,1-.462-1.014,3.482,3.482,0,0,1,1.577-2.733,1.116,1.116,0,0,1,1.127-.11Z" transform="translate(-726.673 -995.686)" fill="#1a1a1a"/>
      </g>
      <g id="Group_21200" data-name="Group 21200" transform="translate(24.397 75.879)">
        <path id="Path_96716" data-name="Path 96716" d="M750.669,1014.953l-33.721-19.6a1.939,1.939,0,0,1-.81-1.777,6.19,6.19,0,0,1,2.171-4.372l33.721,19.6a6.191,6.191,0,0,0-2.171,4.372A1.939,1.939,0,0,0,750.669,1014.953Z" transform="translate(-716.138 -989.207)" fill="#bb7d54"/>
      </g>
      <g id="Group_21201" data-name="Group 21201" transform="translate(27.752 72.724)">
        <path id="Path_96717" data-name="Path 96717" d="M779.484,980.941l.007,2.468-33.721-19.6-.007-2.468Z" transform="translate(-745.763 -961.344)" fill="#1a1a1a"/>
      </g>
      <g id="Group_21202" data-name="Group 21202" transform="translate(26.56 73.412)">
        <path id="Path_96718" data-name="Path 96718" d="M768.971,989.482l-33.721-19.6-.007-2.468,33.721,19.6Z" transform="translate(-735.242 -967.418)" fill="#bb7d54"/>
      </g>
      <g id="Group_21203" data-name="Group 21203" transform="translate(45.746 37.802)">
        <path id="Path_96719" data-name="Path 96719" d="M906.453,653.1l33.721,19.6c-.386-.224-.992-.144-1.8.324l-33.721-19.6C905.461,652.961,906.066,652.88,906.453,653.1Z" transform="translate(-904.651 -652.985)" fill="#1a1a1a"/>
      </g>
      <g id="Group_21204" data-name="Group 21204" transform="translate(22.917 73.412)">
        <path id="Path_96720" data-name="Path 96720" d="M740.44,987.015l-3.643,2.1-33.721-19.6,3.643-2.1Z" transform="translate(-703.076 -967.418)" fill="#1a1a1a"/>
      </g>
      <g id="Group_21205" data-name="Group 21205" transform="translate(22.917 75.515)">
        <path id="Path_96721" data-name="Path 96721" d="M736.8,1005.586l.064,22.576-33.721-19.6-.064-22.576Z" transform="translate(-703.076 -985.989)" fill="#1a1a1a"/>
      </g>
      <g id="Group_21206" data-name="Group 21206" transform="translate(21.726 76.203)">
        <path id="Path_96722" data-name="Path 96722" d="M726.336,1033.669l-33.721-19.6-.062-22.008,33.721,19.6Z" transform="translate(-692.553 -992.065)" fill="#bb7d54"/>
      </g>
      <g id="Group_21207" data-name="Group 21207" transform="translate(45.736 33.103)">
        <path id="Path_96723" data-name="Path 96723" d="M943.884,631.418c-1.116-.649-2.967-.38-5.605,1.143l-33.721-19.6c2.638-1.523,4.489-1.792,5.6-1.143Z" transform="translate(-904.558 -611.491)" fill="#1a1a1a"/>
      </g>
      <g id="Group_21208" data-name="Group 21208" transform="translate(76.174 57.399)">
        <path id="Path_96724" data-name="Path 96724" d="M1176.626,826.466c1.5-.863,2.3-.407,2.3.854a4.21,4.21,0,0,1-2.288,3.5l-3.293,1.9-.012-4.355Z" transform="translate(-1173.333 -826.022)" fill="#1a1a1a"/>
      </g>
      <g id="Group_21209" data-name="Group 21209" transform="translate(42.453 38.245)">
        <path id="Path_96725" data-name="Path 96725" d="M909.3,678.4l-33.721-19.6,3.293-1.9,33.721,19.6Z" transform="translate(-875.575 -656.901)" fill="#1a1a1a"/>
      </g>
      <g id="Group_21210" data-name="Group 21210" transform="translate(64.075 1.32)">
        <path id="Path_96726" data-name="Path 96726" d="M1100.212,350.451c2.847,1.654,4.817,4.819,5.466,9.24l-33.721-19.6c-.649-4.421-2.619-7.585-5.466-9.24Z" transform="translate(-1066.491 -330.854)" fill="#1a1a1a"/>
      </g>
      <g id="Group_21211" data-name="Group 21211" transform="translate(38.751 34.576)">
        <path id="Path_96727" data-name="Path 96727" d="M883.588,644.1l-6.985,4.033-33.721-19.6,6.985-4.033Z" transform="translate(-842.882 -624.502)" fill="#1a1a1a"/>
      </g>
      <g id="Group_21212" data-name="Group 21212" transform="translate(38.055 38.609)">
        <path id="Path_96728" data-name="Path 96728" d="M871.152,679.708a1.489,1.489,0,0,0-.7,1.206l-33.721-19.6a1.489,1.489,0,0,1,.7-1.206Z" transform="translate(-836.735 -660.111)" fill="#1a1a1a"/>
      </g>
      <g id="Group_21213" data-name="Group 21213" transform="translate(13.992 76.203)">
        <path id="Path_96729" data-name="Path 96729" d="M665.718,1011.661l-7.734,4.465-33.721-19.6L632,992.065Z" transform="translate(-624.263 -992.065)" fill="#1a1a1a"/>
      </g>
      <g id="Group_21214" data-name="Group 21214" transform="translate(19.549 65.522)">
        <path id="Path_96730" data-name="Path 96730" d="M707.056,917.413l-33.721-19.6a.448.448,0,0,0,.433-.065l33.721,19.6A.448.448,0,0,1,707.056,917.413Z" transform="translate(-673.335 -897.751)" fill="#1a1a1a"/>
      </g>
      <g id="Group_21215" data-name="Group 21215" transform="translate(19.426 65.007)">
        <path id="Path_96731" data-name="Path 96731" d="M672.37,893.788c-.125-.073-.167-.268-.069-.579l33.721,19.6c-.1.312-.057.507.069.579Z" transform="translate(-672.247 -893.209)" fill="#1a1a1a"/>
      </g>
      <g id="Group_21216" data-name="Group 21216" transform="translate(30.641 43.608)">
        <path id="Path_96732" data-name="Path 96732" d="M771.277,704.255,805,723.852a.723.723,0,0,1,.271.307l-33.721-19.6A.723.723,0,0,0,771.277,704.255Z" transform="translate(-771.277 -704.255)" fill="#1a1a1a"/>
      </g>
      <g id="Group_21217" data-name="Group 21217" transform="translate(30.013 43.54)">
        <path id="Path_96733" data-name="Path 96733" d="M800.081,723.317a.6.6,0,0,0-.628.045l-33.721-19.6a.6.6,0,0,1,.628-.045Z" transform="translate(-765.732 -703.652)" fill="#1a1a1a"/>
      </g>
      <g id="Group_21218" data-name="Group 21218" transform="translate(25.922 43.653)">
        <path id="Path_96734" data-name="Path 96734" d="M767.419,724.25l-4.091,2.362-33.721-19.6,4.091-2.362Z" transform="translate(-729.606 -704.654)" fill="#1a1a1a"/>
      </g>
      <g id="Group_21219" data-name="Group 21219" transform="translate(25.026 46.016)">
        <path id="Path_96735" data-name="Path 96735" d="M756.314,745.108a2.359,2.359,0,0,0-.9,1.321l-33.721-19.6a2.359,2.359,0,0,1,.9-1.321Z" transform="translate(-721.697 -725.511)" fill="#1a1a1a"/>
      </g>
      <g id="Group_21220" data-name="Group 21220" transform="translate(4.073 80.668)">
        <path id="Path_96736" data-name="Path 96736" d="M536.68,1032.455c2.537,1.475,6.049,1.271,9.919-.964l33.721,19.6c-3.87,2.234-7.381,2.438-9.919.964Z" transform="translate(-536.68 -1031.492)" fill="#1a1a1a"/>
      </g>
      <g id="Group_21221" data-name="Group 21221" transform="translate(33.721 19.597)">
        <path id="Path_96737" data-name="Path 96737" d="M865.42,542.328l-.519.3.026,9.269,8.371,4.771.019,6.622c1.245-.4,2.182.333,2.187,1.857a6.1,6.1,0,0,1-2.765,4.789c-1.53.883-2.779.173-2.784-1.585a6.191,6.191,0,0,1,2.169-4.371l-.017-6.054-8.371-4.771-.028-9.837-3.641,2.1.018,6.439c1.245-.4,2.182.334,2.187,1.856a6.1,6.1,0,0,1-2.765,4.79c-1.53.883-2.779.171-2.784-1.587a6.2,6.2,0,0,1,2.169-4.371l-.018-6.439-3.641,2.1.069,24.52c1.245-.4,2.184.332,2.188,1.856a6.1,6.1,0,0,1-2.766,4.789c-1.53.883-2.779.173-2.784-1.585a6.191,6.191,0,0,1,2.17-4.372l-.069-24.52L850.4,551l.052,18.467-4.964,8.6.02,7.179c1.246-.4,2.184.334,2.188,1.856a6.106,6.106,0,0,1-2.766,4.791c-1.53.883-2.779.171-2.784-1.587a6.2,6.2,0,0,1,2.171-4.372l-.022-7.747,4.964-8.6-.051-17.9-3.643,2.1.034,11.891-4.844,8.391.008,2.66c1.245-.4,2.182.333,2.187,1.857a6.1,6.1,0,0,1-2.765,4.79c-1.53.883-2.779.172-2.784-1.586a6.192,6.192,0,0,1,2.169-4.371l-.009-3.227,4.846-8.392-.032-11.325-3.643,2.1.007,2.474c1.232-.385,2.156.353,2.161,1.865a6.1,6.1,0,0,1-2.765,4.788c-1.53.883-2.779.173-2.784-1.585a6.193,6.193,0,0,1,2.2-4.394l-.007-2.461-3.643,2.1.089,31.368c1.246-.4,2.184.334,2.188,1.856a6.106,6.106,0,0,1-2.766,4.791c-1.53.883-2.779.171-2.784-1.587a6.2,6.2,0,0,1,2.171-4.373l-.089-31.368-3.643,2.1.028,9.837-4.607,7.979.032,11.29c1.245-.4,2.182.333,2.187,1.857a6.1,6.1,0,0,1-2.765,4.788c-1.53.883-2.779.173-2.784-1.585a6.191,6.191,0,0,1,2.171-4.372l-.034-11.856,4.607-7.981-.026-9.269-3.643,2.1.007,2.468c1.246-.405,2.184.332,2.188,1.856a6.1,6.1,0,0,1-2.766,4.789c-1.53.883-2.779.173-2.784-1.585a6.19,6.19,0,0,1,2.171-4.372l-.007-2.468-3.643,2.1.064,22.576-4.695,8.132.01,3.38c1.246-.4,2.184.334,2.188,1.856a6.106,6.106,0,0,1-2.766,4.791c-1.53.883-2.779.171-2.784-1.587a6.2,6.2,0,0,1,2.171-4.373l-.011-3.948,4.695-8.131-.062-22.008-7.734,4.465c-7.691,4.44-13.967.862-13.992-7.974s6.21-19.638,13.9-24.078c.094-.054.188-.107.284-.16,1.108-9.315,7.608-19.74,15.456-24.271a16.95,16.95,0,0,1,4.181-1.765C835.8,506.3,841.914,498.8,848.67,494.9c9.756-5.633,17.886-2.043,19.344,7.891,7.9-3.069,13.959,1.335,13.985,10.817C882.029,524.151,874.591,537.033,865.42,542.328Zm-30.9,6.154c.4-.23.677-.736.5-1.091l-5.629-11.243a.585.585,0,0,0-.9-.262l-4.091,2.362a2.358,2.358,0,0,0-.9,1.321l-5.546,17.671c-.178.562.1.745.5.514l3.192-1.843a2.3,2.3,0,0,0,.9-1.321l.693-2.467,6.285-3.628.7,1.661a.584.584,0,0,0,.9.284l3.393-1.959Zm9.724-9.979c4.688-2.707,6.876-6.5,6.867-9.82s-2.212-4.58-6.9-1.874l-6.985,4.033a1.488,1.488,0,0,0-.7,1.206l.041,14.445c0,.459.3.63.7.4l2.993-1.728a1.489,1.489,0,0,0,.7-1.206l-.01-3.555,3.293-1.9Zm17.633-18.792-.006-2.293c0-.459-.3-.63-.7-.4l-8.181,4.723a1.489,1.489,0,0,0-.7,1.206l.007,2.293c0,.459.3.63.7.4l1.9-1.095.023,8.254-1.9,1.095a1.489,1.489,0,0,0-.7,1.206l.007,2.293c0,.459.3.63.7.4l8.181-4.723a1.488,1.488,0,0,0,.7-1.206l-.007-2.293c0-.459-.3-.63-.7-.4l-1.9,1.094-.023-8.254,1.9-1.095a1.488,1.488,0,0,0,.7-1.206Zm-34.646,50.257c0-1-.715-1.41-1.589-.905a3.482,3.482,0,0,0-1.577,2.733c0,1,.715,1.408,1.587.9a3.483,3.483,0,0,0,1.579-2.732Zm14.476-8.358c0-1-.715-1.41-1.587-.906a3.483,3.483,0,0,0-1.578,2.734c0,1,.715,1.408,1.589.9a3.482,3.482,0,0,0,1.577-2.731Zm-14.2,32.206c0-1-.715-1.41-1.587-.906a3.483,3.483,0,0,0-1.578,2.734c0,1,.715,1.408,1.589.9a3.482,3.482,0,0,0,1.577-2.731Zm18.995-6.028c0-1-.715-1.408-1.589-.9a3.482,3.482,0,0,0-1.577,2.732c0,1,.715,1.409,1.587.906a3.483,3.483,0,0,0,1.578-2.734Zm27.81-21.955c0-1-.715-1.41-1.587-.906a3.483,3.483,0,0,0-1.578,2.734c0,1,.715,1.408,1.589.9a3.481,3.481,0,0,0,1.577-2.731ZM841.755,579.28c0-1-.715-1.41-1.587-.906a3.484,3.484,0,0,0-1.578,2.734c0,1,.715,1.408,1.589.9a3.482,3.482,0,0,0,1.577-2.731Zm14.542-4c0-1-.715-1.41-1.587-.906a3.483,3.483,0,0,0-1.578,2.734c0,1,.715,1.408,1.589.9a3.481,3.481,0,0,0,1.577-2.731ZM861.08,554.4c0-1-.715-1.408-1.587-.9a3.482,3.482,0,0,0-1.578,2.732c0,1,.715,1.41,1.589.905a3.482,3.482,0,0,0,1.577-2.733Zm-24.1,38.885c0-1-.715-1.408-1.587-.9a3.483,3.483,0,0,0-1.577,2.732c0,1,.715,1.41,1.587.906a3.483,3.483,0,0,0,1.577-2.733Zm-19.214,11.093c0-1-.715-1.408-1.587-.9a3.482,3.482,0,0,0-1.577,2.732c0,1,.715,1.41,1.587.906a3.481,3.481,0,0,0,1.577-2.733Z" transform="translate(-798.473 -492.234)" fill="#1a1a1a"/>
      </g>
      <g id="Group_21222" data-name="Group 21222" transform="translate(59.87 69.218)">
        <path id="Path_96738" data-name="Path 96738" d="M1031.245,930.389l1.609,3.663-3.492,2.016,1.683-5.564Z" transform="translate(-1029.362 -930.389)" fill="#1a1a1a"/>
      </g>
      <g id="Group_21223" data-name="Group 21223" transform="translate(33.822)">
        <path id="Path_96739" data-name="Path 96739" d="M829.615,320.516l33.721,19.6c-3.55-2.063-8.464-1.778-13.878,1.348-6.756,3.9-12.865,11.4-16.374,19.752l-33.721-19.6c3.509-8.349,9.618-15.851,16.374-19.752C821.151,318.738,826.064,318.453,829.615,320.516Z" transform="translate(-799.362 -319.196)" fill="#ffece1"/>
      </g>
      <g id="Group_21224" data-name="Group 21224" transform="translate(14.185 22.42)">
        <path id="Path_96740" data-name="Path 96740" d="M659.686,562.8l-33.721-19.6c1.108-9.315,7.608-19.74,15.456-24.271a16.955,16.955,0,0,1,4.181-1.765l33.721,19.6a16.949,16.949,0,0,0-4.181,1.765C667.294,543.057,660.794,553.482,659.686,562.8Z" transform="translate(-625.965 -517.164)" fill="#ffece1"/>
      </g>
      <g id="Group_21225" data-name="Group 21225" transform="translate(0 48.456)">
        <path id="Path_96741" data-name="Path 96741" d="M538.51,799.835l-33.721-19.6c-2.505-1.456-4.06-4.548-4.073-8.937-.025-8.837,6.21-19.638,13.9-24.078.094-.054.188-.107.284-.16l33.721,19.6c-.1.054-.19.106-.284.16-7.69,4.44-13.926,15.241-13.9,24.078C534.449,795.287,536,798.379,538.51,799.835Z" transform="translate(-500.715 -747.063)" fill="#ffece1"/>
      </g>
      <path id="Path_96749" data-name="Path 96749" d="M316.275-8648.585c1.2-.853,46.868-26.293,46.868-26.293l1.452,4.089-2.205,5.108,1.291,5.324.484,4.626-10.757,6.133-28.776,17.856s-9.359,3.979-9.413,3.712S316.275-8648.585,316.275-8648.585Z" transform="translate(-265.542 8716.84)" fill="#ff975d"/>
      <g id="Group_21230" data-name="Group 21230" transform="translate(33.45 2.966)">
        <g id="Group_21229" data-name="Group 21229" style="isolation: isolate">
          <g id="Group_21228" data-name="Group 21228" clip-path="url(#clip-path)">
            <g id="Group_21227" data-name="Group 21227" transform="translate(0.117 16.606)">
              <path id="Path_96742" data-name="Path 96742" d="M1033.986,935.917l-1.474,4.876,2.884-1.665-1.41-3.211Z" transform="translate(-1005.853 -885.645)" fill="#ffceb4"/>
              <path id="Path_96743" data-name="Path 96743" d="M818.222,611.7c-.985.569-1.789.111-1.792-1.021a3.929,3.929,0,0,1,1.78-3.083c.985-.569,1.788-.11,1.792,1.021a3.928,3.928,0,0,1-1.78,3.083Zm19.213-11.093c-.985.568-1.788.11-1.792-1.021a3.929,3.929,0,0,1,1.78-3.083c.985-.569,1.789-.111,1.792,1.021a3.929,3.929,0,0,1-1.78,3.083Zm9.523-5.5c-.985.569-1.789.111-1.792-1.021a3.929,3.929,0,0,1,1.78-3.083c.985-.569,1.789-.111,1.792,1.021a3.929,3.929,0,0,1-1.78,3.083Zm-18.993,6.027c-.985.569-1.789.111-1.792-1.021a3.929,3.929,0,0,1,1.78-3.083c.985-.569,1.788-.11,1.792,1.021a3.929,3.929,0,0,1-1.78,3.083Zm46.8-27.983c-.985.569-1.789.111-1.792-1.021a3.929,3.929,0,0,1,1.78-3.083c.985-.569,1.788-.111,1.792,1.021a3.929,3.929,0,0,1-1.78,3.083ZM856.753,582.6c-.985.569-1.789.111-1.792-1.021a3.929,3.929,0,0,1,1.78-3.083c.985-.569,1.788-.111,1.792,1.021a3.929,3.929,0,0,1-1.78,3.083Zm-14.542,4c-.985.569-1.79.111-1.793-1.02A3.932,3.932,0,0,1,842.2,582.5c.985-.569,1.788-.11,1.792,1.021a3.929,3.929,0,0,1-1.78,3.083Zm19.325-24.877c-.985.568-1.789.111-1.792-1.021a3.929,3.929,0,0,1,1.78-3.083c.985-.569,1.788-.11,1.792,1.021a3.929,3.929,0,0,1-1.78,3.083Zm-33.852,15.567c-.985.568-1.789.111-1.792-1.021a3.929,3.929,0,0,1,1.78-3.083c.985-.569,1.789-.111,1.792,1.021a3.929,3.929,0,0,1-1.78,3.083Zm14.477-8.358c-.985.568-1.79.111-1.793-1.02a3.932,3.932,0,0,1,1.782-3.084c.985-.569,1.788-.111,1.792,1.021a3.929,3.929,0,0,1-1.78,3.083Zm-21.672-6.589c-.282.163-.528.167-.661.01a.81.81,0,0,1-.027-.747l5.546-17.669a2.771,2.771,0,0,1,1.081-1.566l4.091-2.362a.708.708,0,0,1,1.086.292l5.627,11.243a.912.912,0,0,1-.024.774,1.616,1.616,0,0,1-.657.75l-3.393,1.959a.7.7,0,0,1-1.089-.322l-.655-1.541-6.007,3.468-.642,2.289a2.74,2.74,0,0,1-1.085,1.578l-3.191,1.843ZM839.3,551.48c-.513.3-.9.075-.9-.515l-.041-14.445a1.925,1.925,0,0,1,.9-1.555l6.985-4.033c4.437-2.562,7.092-1.818,7.1,1.989s-2.632,7.61-7.069,10.171l-3.089,1.783.009,3.32a1.928,1.928,0,0,1-.9,1.556L839.3,551.48Zm15.728-21.251c-.515.3-.9.074-.905-.516l-.007-2.293a1.926,1.926,0,0,1,.9-1.556l8.181-4.723c.513-.3.9-.075.9.515l.006,2.293a1.928,1.928,0,0,1-.9,1.557l-1.692.977.022,7.785,1.692-.977c.514-.3.9-.075.9.517l.006,2.293a1.925,1.925,0,0,1-.9,1.555l-8.181,4.723c-.515.3-.9.076-.905-.514l-.006-2.293a1.926,1.926,0,0,1,.9-1.558l1.692-.977-.022-7.785-1.692.977Zm-4.328-30.74c-6.6,3.813-12.662,11.12-16.2,19.547l-.08.191-.145.037a16.77,16.77,0,0,0-4.126,1.742c-7.595,4.385-14.154,14.684-15.256,23.958l-.027.218-.178.1c-.093.052-.187.1-.279.158-7.578,4.375-13.723,15.018-13.7,23.726s6.21,12.232,13.787,7.857l7.938-4.583.063,22.339-4.7,8.134.011,4.038-.159.133a5.765,5.765,0,0,0-2.01,4.05c0,1.63,1.161,2.289,2.579,1.47a5.653,5.653,0,0,0,2.563-4.439c0-1.376-.856-2.1-2.027-1.719l-.159.05-.01-3.664,4.695-8.133-.064-22.712,4.049-2.338.008,2.89-.161.132a5.766,5.766,0,0,0-2.011,4.052c0,1.628,1.163,2.288,2.58,1.47a5.656,5.656,0,0,0,2.563-4.439c0-1.378-.856-2.1-2.027-1.721l-.159.052-.008-2.89,4.048-2.337.027,9.6-4.607,7.979.034,11.948-.159.132a5.767,5.767,0,0,0-2.01,4.052c0,1.628,1.161,2.289,2.58,1.47a5.658,5.658,0,0,0,2.563-4.439c0-1.378-.856-2.1-2.027-1.721l-.161.053-.033-11.574,4.608-7.98-.028-9.975,4.048-2.337.09,31.79-.159.133a5.765,5.765,0,0,0-2.011,4.05c0,1.63,1.161,2.289,2.579,1.47A5.653,5.653,0,0,0,840,597.071c0-1.376-.856-2.1-2.027-1.719l-.159.05-.09-31.79,4.048-2.337.008,2.885-.16.131a5.757,5.757,0,0,0-2.035,4.073c0,1.629,1.161,2.289,2.58,1.47a5.659,5.659,0,0,0,2.563-4.439c0-1.363-.846-2.09-2-1.728l-.158.049-.008-2.895,4.049-2.338.033,11.655-4.845,8.391.009,3.318-.159.133a5.762,5.762,0,0,0-2.01,4.05c0,1.628,1.161,2.289,2.58,1.47a5.659,5.659,0,0,0,2.563-4.439c0-1.376-.856-2.1-2.027-1.719l-.161.051-.008-2.945,4.845-8.391-.034-12.029,4.049-2.338.052,18.231-4.963,8.6.022,7.838-.16.134a5.765,5.765,0,0,0-2.01,4.05c0,1.63,1.162,2.288,2.579,1.47a5.654,5.654,0,0,0,2.563-4.439c0-1.376-.856-2.1-2.027-1.719l-.159.05-.021-7.464,4.963-8.6-.053-18.6,4.049-2.338.071,24.943-.159.132a5.766,5.766,0,0,0-2.01,4.052c0,1.628,1.161,2.289,2.58,1.47a5.658,5.658,0,0,0,2.563-4.439c0-1.378-.856-2.1-2.027-1.721l-.161.053-.071-24.943,4.049-2.338.02,6.861-.159.133a5.766,5.766,0,0,0-2.01,4.05c0,1.63,1.161,2.289,2.579,1.47a5.656,5.656,0,0,0,2.563-4.439c0-1.376-.856-2.1-2.027-1.719l-.161.051-.02-6.861,4.049-2.338.028,9.975,8.371,4.771.018,6.338-.159.132a5.767,5.767,0,0,0-2.011,4.052c0,1.629,1.161,2.289,2.58,1.47a5.658,5.658,0,0,0,2.563-4.439c0-1.378-.856-2.1-2.027-1.721l-.161.053-.019-6.712-8.371-4.771-.027-9.6.723-.417c9.059-5.23,16.406-17.955,16.376-28.366-.026-9.292-5.836-13.786-13.814-10.684l-.145.055-.024-.154c-1.455-9.912-9.685-13.27-19.142-7.81Z" transform="translate(-800.302 -496.33)" fill="#ffceb4"/>
              <path id="Path_96744" data-name="Path 96744" d="M1178.666,830.774l-3.089,1.783.011,3.889,3.089-1.783a3.769,3.769,0,0,0,2.086-3.152c0-1.218-.788-1.493-2.1-.737Z" transform="translate(-1132.715 -792.036)" fill="#ffceb4"/>
              <path id="Path_96745" data-name="Path 96745" d="M1027.7,935.257l1.474-4.875,1.41,3.211-2.884,1.665Zm1.712-5.582-.471.272-1.856,6.133,4.1-2.367-1.773-4.038Z" transform="translate(-1001.04 -880.109)" fill="#ffceb4"/>
              <path id="Path_96746" data-name="Path 96746" d="M815.027,606.917c-.761.439-1.382.085-1.384-.789a3.035,3.035,0,0,1,1.375-2.382c.761-.439,1.382-.085,1.384.789a3.035,3.035,0,0,1-1.375,2.382Zm-.01-3.637a3.929,3.929,0,0,0-1.78,3.083c0,1.132.807,1.59,1.792,1.021a3.929,3.929,0,0,0,1.78-3.083c0-1.132-.807-1.59-1.792-1.021Zm19.224-7.455c-.76.439-1.381.085-1.384-.789a3.036,3.036,0,0,1,1.375-2.382c.761-.439,1.382-.085,1.384.789a3.035,3.035,0,0,1-1.375,2.382Zm-.01-3.637a3.929,3.929,0,0,0-1.78,3.083c0,1.132.807,1.59,1.792,1.021a3.929,3.929,0,0,0,1.78-3.083c0-1.132-.807-1.59-1.792-1.021Zm9.533-1.861c-.761.439-1.382.085-1.384-.789a3.035,3.035,0,0,1,1.375-2.382c.76-.439,1.382-.085,1.384.789a3.035,3.035,0,0,1-1.375,2.382Zm-.01-3.638a3.929,3.929,0,0,0-1.78,3.083c0,1.132.807,1.59,1.792,1.021a3.929,3.929,0,0,0,1.78-3.083c0-1.132-.807-1.59-1.792-1.021Zm-18.983,9.665c-.761.439-1.382.085-1.384-.789a3.035,3.035,0,0,1,1.375-2.382c.761-.439,1.382-.085,1.384.789a3.035,3.035,0,0,1-1.375,2.382Zm-.01-3.638a3.929,3.929,0,0,0-1.78,3.083c0,1.132.807,1.59,1.792,1.021a3.93,3.93,0,0,0,1.78-3.083c0-1.132-.807-1.59-1.792-1.021Zm46.815-24.345c-.761.439-1.382.085-1.384-.789a3.036,3.036,0,0,1,1.375-2.382c.761-.439,1.381-.085,1.384.789a3.035,3.035,0,0,1-1.375,2.382Zm-.01-3.637a3.929,3.929,0,0,0-1.78,3.083c0,1.132.807,1.59,1.792,1.021a3.929,3.929,0,0,0,1.78-3.083c0-1.132-.807-1.59-1.792-1.021Zm-18.005,13.078c-.761.439-1.382.085-1.384-.789a3.036,3.036,0,0,1,1.375-2.382c.76-.439,1.382-.085,1.384.789a3.035,3.035,0,0,1-1.375,2.382Zm-.01-3.637a3.928,3.928,0,0,0-1.78,3.083c0,1.132.807,1.59,1.792,1.021a3.929,3.929,0,0,0,1.78-3.083c0-1.132-.807-1.59-1.792-1.021Zm-14.531,7.642c-.761.439-1.382.085-1.384-.789a3.035,3.035,0,0,1,1.375-2.382c.761-.439,1.38-.084,1.382.79a3.032,3.032,0,0,1-1.374,2.381Zm-.01-3.638a3.932,3.932,0,0,0-1.782,3.084c0,1.132.808,1.589,1.793,1.02a3.929,3.929,0,0,0,1.78-3.083c0-1.132-.807-1.59-1.792-1.021Zm19.335-21.24c-.761.439-1.382.085-1.384-.789a3.035,3.035,0,0,1,1.375-2.382c.761-.439,1.382-.085,1.384.789a3.035,3.035,0,0,1-1.375,2.382Zm-.01-3.638a3.929,3.929,0,0,0-1.78,3.083c0,1.132.807,1.59,1.792,1.021a3.929,3.929,0,0,0,1.78-3.083c0-1.132-.807-1.59-1.792-1.021ZM824.49,572.5c-.761.439-1.381.087-1.384-.787a3.035,3.035,0,0,1,1.375-2.382c.761-.439,1.382-.085,1.384.789a3.032,3.032,0,0,1-1.375,2.38Zm-.01-3.636a3.929,3.929,0,0,0-1.78,3.083c0,1.132.807,1.59,1.792,1.021a3.929,3.929,0,0,0,1.78-3.083c0-1.132-.807-1.59-1.792-1.021Zm14.488-4.723c-.761.439-1.382.087-1.384-.787a3.036,3.036,0,0,1,1.375-2.382c.761-.439,1.38-.084,1.383.79a3.029,3.029,0,0,1-1.374,2.379Zm-.01-3.636a3.932,3.932,0,0,0-1.782,3.084c0,1.132.809,1.589,1.793,1.02a3.929,3.929,0,0,0,1.78-3.083c0-1.132-.807-1.59-1.792-1.021Zm-21.662-2.951c-.143.083-.262.093-.319.026s-.03-.211,0-.318l5.545-17.669a1.919,1.919,0,0,1,.711-1.076l4.091-2.362a.468.468,0,0,1,.713.229l5.629,11.242a.362.362,0,0,1,0,.314.752.752,0,0,1-.316.341l-3.393,1.959a.464.464,0,0,1-.709-.245l-.755-1.781-6.564,3.79-.741,2.642a1.856,1.856,0,0,1-.708,1.066l-3.192,1.843Zm10.031-21.867-4.091,2.362a2.771,2.771,0,0,0-1.081,1.566l-5.546,17.669a.81.81,0,0,0,.027.747c.132.157.379.153.661-.01l3.191-1.843a2.74,2.74,0,0,0,1.085-1.578l.642-2.288,6.007-3.468.655,1.541a.7.7,0,0,0,1.089.322l3.393-1.959a1.617,1.617,0,0,0,.657-.75.912.912,0,0,0,.024-.775l-5.627-11.243a.708.708,0,0,0-1.086-.292Zm8.783,11c-.286.165-.5.046-.5-.283l-.041-14.445a1.042,1.042,0,0,1,.493-.854l6.985-4.033c4.182-2.415,6.686-1.758,6.7,1.757s-2.481,7.053-6.664,9.468l-3.5,2.019.011,3.789a1.042,1.042,0,0,1-.493.854l-2.994,1.728Zm6.939-20.081-6.985,4.033a1.925,1.925,0,0,0-.9,1.555l.041,14.445c0,.59.391.812.9.515l2.994-1.728a1.928,1.928,0,0,0,.9-1.556l-.009-3.32,3.089-1.783c4.437-2.561,7.08-6.364,7.069-10.171s-2.666-4.551-7.1-1.989Zm8.789-1.171c-.288.166-.5.046-.5-.283l-.007-2.293a1.04,1.04,0,0,1,.493-.854l8.181-4.723c.286-.165.5-.046.5.283l.006,2.293a1.042,1.042,0,0,1-.493.854l-2.1,1.212.025,8.722,2.1-1.212c.286-.165.5-.046.5.283l.007,2.293a1.042,1.042,0,0,1-.493.854l-8.181,4.723c-.288.166-.5.046-.5-.283l-.006-2.293a1.04,1.04,0,0,1,.493-.854l2.1-1.212-.025-8.722-2.1,1.211Zm8.17-8.62-8.181,4.723a1.926,1.926,0,0,0-.9,1.556l.007,2.293c0,.59.391.813.905.516l1.692-.977.022,7.785-1.692.977a1.926,1.926,0,0,0-.9,1.558l.006,2.293c0,.59.391.812.905.514l8.181-4.723a1.925,1.925,0,0,0,.9-1.555l-.006-2.293c0-.592-.391-.813-.9-.517l-1.692.977-.022-7.785,1.692-.977a1.928,1.928,0,0,0,.9-1.557l-.006-2.293c0-.59-.391-.811-.9-.515Zm-28.781-1.913.08-.191c3.542-8.427,9.6-15.734,16.2-19.547,9.458-5.46,17.688-2.1,19.142,7.81l.024.154.145-.055c7.978-3.1,13.788,1.392,13.814,10.684.03,10.411-7.318,23.136-16.376,28.366l-.723.417.027,9.6,8.371,4.771.019,6.712.161-.053c1.171-.38,2.023.343,2.027,1.721a5.658,5.658,0,0,1-2.563,4.439c-1.419.819-2.575.158-2.58-1.47a5.766,5.766,0,0,1,2.011-4.052l.159-.132-.018-6.338-8.371-4.771L862.751,543l-4.049,2.338.019,6.861.161-.051c1.171-.38,2.023.343,2.027,1.719a5.656,5.656,0,0,1-2.563,4.439c-1.419.819-2.575.16-2.579-1.47a5.765,5.765,0,0,1,2.01-4.05l.159-.134-.02-6.861-4.049,2.338.071,24.942.161-.053c1.171-.38,2.023.343,2.027,1.721a5.659,5.659,0,0,1-2.563,4.439c-1.419.819-2.575.158-2.58-1.47a5.767,5.767,0,0,1,2.01-4.052l.159-.132-.071-24.943-4.049,2.338.053,18.6-4.963,8.6.021,7.464.159-.05c1.171-.38,2.023.343,2.027,1.719a5.653,5.653,0,0,1-2.563,4.439c-1.417.818-2.575.16-2.58-1.47a5.766,5.766,0,0,1,2.011-4.05l.16-.134-.022-7.838,4.963-8.6-.052-18.231-4.049,2.338.034,12.029-4.845,8.391.008,2.945.161-.051c1.171-.381,2.023.343,2.027,1.719a5.659,5.659,0,0,1-2.563,4.439c-1.419.819-2.575.158-2.58-1.47a5.762,5.762,0,0,1,2.011-4.05l.159-.133-.009-3.318,4.845-8.391-.033-11.655-4.049,2.338.008,2.895.158-.05c1.158-.362,2,.365,2,1.728a5.658,5.658,0,0,1-2.563,4.439c-1.419.819-2.575.158-2.58-1.47a5.757,5.757,0,0,1,2.035-4.073l.16-.131-.008-2.885-4.048,2.337.09,31.79.159-.05c1.171-.38,2.023.343,2.027,1.719a5.653,5.653,0,0,1-2.563,4.439c-1.418.819-2.575.16-2.579-1.47a5.766,5.766,0,0,1,2.011-4.05l.159-.134-.09-31.79-4.048,2.337.028,9.975-4.608,7.98.033,11.574.161-.053c1.171-.38,2.023.343,2.027,1.721a5.658,5.658,0,0,1-2.563,4.439c-1.419.819-2.575.158-2.58-1.47a5.767,5.767,0,0,1,2.011-4.052l.159-.132-.034-11.948,4.607-7.979-.027-9.6-4.048,2.337.008,2.89.159-.052c1.171-.38,2.023.343,2.027,1.721a5.656,5.656,0,0,1-2.563,4.439c-1.417.818-2.575.158-2.58-1.47a5.766,5.766,0,0,1,2.011-4.052l.161-.133-.008-2.89-4.049,2.338.064,22.712-4.695,8.133.01,3.664.159-.05c1.171-.38,2.023.343,2.027,1.719a5.653,5.653,0,0,1-2.563,4.439c-1.419.819-2.575.16-2.579-1.47a5.765,5.765,0,0,1,2.01-4.05l.159-.133-.011-4.038,4.7-8.134-.063-22.339-7.938,4.583c-7.578,4.375-13.763.85-13.787-7.857s6.12-19.351,13.7-23.726c.093-.053.187-.106.279-.158l.178-.1.027-.219c1.1-9.273,7.661-19.573,15.256-23.958a16.771,16.771,0,0,1,4.126-1.741l.145-.037Zm16.283-20.205c-6.693,3.864-12.837,11.244-16.466,19.768a17.342,17.342,0,0,0-4.09,1.749A31.636,31.636,0,0,0,816.564,526.7a35.012,35.012,0,0,0-5.24,13.893l-.11.063c-7.8,4.5-14.13,15.463-14.1,24.428s6.395,12.593,14.2,8.089l7.53-4.347L818.9,590.5l-4.695,8.132.011,3.863a6.674,6.674,0,0,0-2.169,4.553c.005,1.888,1.346,2.65,2.987,1.7A6.547,6.547,0,0,0,818,603.613c0-1.53-.915-2.365-2.187-2.038l-.009-3.1,4.695-8.132-.064-22.44,3.235-1.868.006,2.052a6.677,6.677,0,0,0-2.169,4.554c.005,1.886,1.346,2.65,2.987,1.7a6.552,6.552,0,0,0,2.969-5.141c0-1.532-.916-2.364-2.189-2.039l-.006-2.052,3.235-1.868.025,8.94-4.607,7.981.033,11.77a6.677,6.677,0,0,0-2.17,4.555c.005,1.886,1.346,2.65,2.989,1.7a6.552,6.552,0,0,0,2.968-5.141c0-1.532-.915-2.364-2.189-2.039L825.523,580l4.608-7.98-.027-9.7,3.235-1.868.088,30.954a6.672,6.672,0,0,0-2.168,4.553c.005,1.888,1.346,2.65,2.987,1.7a6.547,6.547,0,0,0,2.968-5.141c0-1.531-.915-2.365-2.187-2.038l-.088-30.954,3.235-1.868.006,2.044a6.664,6.664,0,0,0-2.2,4.578c.005,1.886,1.346,2.65,2.989,1.7a6.552,6.552,0,0,0,2.968-5.141c0-1.542-.884-2.362-2.161-2.046l-.006-2.061,3.235-1.868.031,11-4.845,8.391.009,3.141a6.679,6.679,0,0,0-2.17,4.555c.005,1.886,1.346,2.65,2.989,1.7a6.552,6.552,0,0,0,2.968-5.141c0-1.53-.915-2.365-2.189-2.039l-.007-2.38,4.846-8.394-.033-11.755,3.235-1.868.05,17.569-4.964,8.6.022,7.662a6.673,6.673,0,0,0-2.168,4.553c.005,1.888,1.346,2.65,2.987,1.7a6.548,6.548,0,0,0,2.968-5.141c0-1.531-.915-2.365-2.187-2.038l-.02-6.9,4.9-8.5.06-.1-.052-18.33,3.235-1.868.068,24.1a6.68,6.68,0,0,0-2.17,4.555c.005,1.886,1.346,2.65,2.989,1.7a6.552,6.552,0,0,0,2.968-5.141c0-1.532-.915-2.364-2.187-2.039l-.068-24.1,3.235-1.868.017,6.025a6.672,6.672,0,0,0-2.17,4.553c.005,1.888,1.346,2.65,2.989,1.7a6.55,6.55,0,0,0,2.968-5.141c0-1.53-.915-2.365-2.189-2.037l-.017-6.025,3.236-1.868.027,9.7,8.372,4.77.016,5.774a6.68,6.68,0,0,0-2.17,4.555c.005,1.886,1.346,2.65,2.989,1.7a6.553,6.553,0,0,0,2.968-5.141c0-1.53-.915-2.365-2.189-2.039l-.019-6.536-8.371-4.771-.025-8.94.317-.183c9.283-5.359,16.812-18.4,16.781-29.068-.013-4.61-1.466-8.245-4.091-10.24-2.564-1.947-6.081-2.218-9.92-.766-.744-4.809-3.086-8.26-6.605-9.732-3.594-1.5-8.181-.823-12.917,1.912Z" transform="translate(-797.109 -492.014)" fill="#ffceb4"/>
              <path id="Path_96747" data-name="Path 96747" d="M1172.384,832.422l-.011-3.889,3.089-1.783c1.309-.756,2.093-.481,2.1.737a3.769,3.769,0,0,1-2.086,3.152l-3.089,1.783Zm3.077-6.141-3.5,2.019.014,4.824,3.5-2.019a4.682,4.682,0,0,0,2.49-3.853c0-1.466-.987-1.847-2.5-.971Z" transform="translate(-1129.511 -788.013)" fill="#ffceb4"/>
            </g>
          </g>
        </g>
      </g>
    </g>
  </g>
</svg>
