<svg xmlns="http://www.w3.org/2000/svg" width="784.646" height="557" viewBox="0 0 784.646 557">
  <g id="img_cover_easy-fuel" transform="translate(-915.787 -438.056)">
    <path id="Path_59204" data-name="Path 59204" d="M-20605.377,8897.953c-276.318,76.59-478.643,139.416-560.111,36.171s57.031-154.058,171.162-253.923,142.291-64.574,318.369-39.045S-20329.055,8821.365-20605.377,8897.953Z" transform="translate(22139.217 -7993.189)" fill="#fff6f1"/>
    <g id="Group_10310" data-name="Group 10310" transform="translate(915.787 438.056)">
      <g id="Group_10289" data-name="Group 10289" transform="translate(273.314 364.311)">
        <path id="Path_59029" data-name="Path 59029" d="M2922.046,1886.3c-5.379-3.057-42.042,2.688-48.2,6.3l-124.251,77.817c-3.206,1.879-4.9,4.243-5.047,6.51l-.028-.017.014.39c0,.1,0,.209.012.313l.3,8.255.009.007c-.808,2.533.282,5.079,3.385,6.843l70.119,50.319c8.082,4.827,26.042,2.9,29.823,2.722a26.246,26.246,0,0,0,2.841-.292,24.441,24.441,0,0,0,5.456-1.506,19.6,19.6,0,0,0,2.447-1.206l157.013-94.57a8.162,8.162,0,0,0-.251-14.128Z" transform="translate(-2719.316 -1862.53)" fill="#b899a6" opacity="0.19" style="mix-blend-mode: multiply;isolation: isolate"/>
        <path id="Path_59030" data-name="Path 59030" d="M2939.373,1921.6l-89.787-51.042c-5.379-3.058-14.735-2.607-20.9,1.006l-155.68,91.275c1.359-3.841,2.74-7.943,2.74-7.943l-13.495,7.723.061,10.211,0,0c-.056,2.026,1.143,3.96,3.649,5.384l89.788,51.042c5.378,3.058,14.734,2.607,20.9-1.006l161.3-94.57C2944.116,1930.068,2944.752,1924.66,2939.373,1921.6Z" transform="translate(-2662.247 -1850.802)" fill="#0d1b3a"/>
        <path id="Path_59031" data-name="Path 59031" d="M2939.268,2357.6c.01,1.553-1.083,2.187-2.443,1.414a5.4,5.4,0,0,1-2.48-4.213c-.01-1.554,1.083-2.187,2.443-1.414A5.4,5.4,0,0,1,2939.268,2357.6Z" transform="translate(-2851.01 -2186.942)"/>
        <path id="Path_59032" data-name="Path 59032" d="M3188.784,1891.568l-11.669.589-81.7-46.445c-5.378-3.058-14.735-2.607-20.9,1.006l-2.738,4.654a23.719,23.719,0,0,0-9.979,2.956l-63.529,107.995.75,51.694a23.982,23.982,0,0,0,10.743-3l161.3-94.57a15.407,15.407,0,0,0,1.7-1.153l11.013-6.457c3.555-2.084,5.267-4.765,5.05-7.248Z" transform="translate(-2895.36 -1833.563)" fill="#010919"/>
        <path id="Path_59033" data-name="Path 59033" d="M2795.724,2279.049l-12.492-7.1a2.305,2.305,0,0,1-.97-1.825h0c0-.7.424-1.032.954-.731l12.492,7.1a2.3,2.3,0,0,1,.97,1.825h0C2796.683,2279.021,2796.253,2279.35,2795.724,2279.049Z" transform="translate(-2745.503 -2128.82)"/>
        <path id="Path_59034" data-name="Path 59034" d="M2952.009,1863.707l-89.788-51.042c-5.378-3.058-14.734-2.607-20.9,1.006l-161.3,94.571a15.435,15.435,0,0,0-1.7,1.153l-11.013,6.457c-6.163,3.613-6.8,9.02-1.42,12.078l89.788,51.042c5.379,3.057,14.734,2.607,20.9-1.006l161.3-94.57a15.564,15.564,0,0,0,1.656-1.115l11.06-6.494C2956.751,1872.173,2957.387,1866.765,2952.009,1863.707Z" transform="translate(-2662.235 -1810.637)" fill="#1b305d"/>
        <path id="Path_59035" data-name="Path 59035" d="M2964.406,1875.349l-5.751-3.27c-.02-.012-.037-.026-.057-.037l-82.989-47.177a4.758,4.758,0,0,0-4.757.032l-38.006,22.283a4.765,4.765,0,0,0-.887.4l-135.638,79.525a4.757,4.757,0,0,0,.055,8.239l5.751,3.27c.02.012.037.026.056.037l82.989,47.177a4.757,4.757,0,0,0,4.757-.031l38.007-22.283a4.762,4.762,0,0,0,.887-.4l135.639-79.525A4.757,4.757,0,0,0,2964.406,1875.349Z" transform="translate(-2684.25 -1820.076)" fill="#69758f"/>
        <g id="Group_10288" data-name="Group 10288" transform="translate(252.842 76.64)">
          <g id="Group_10286" data-name="Group 10286" transform="translate(11.994)">
            <path id="Path_59036" data-name="Path 59036" d="M3527.021,2068.167h0a1.277,1.277,0,0,0,2.056,1.016l6.613-3.906a3.415,3.415,0,0,0,1.511-3.122h0a1.277,1.277,0,0,0-2.056-1.016l-6.613,3.905A3.417,3.417,0,0,0,3527.021,2068.167Z" transform="translate(-3527 -2060.888)" fill="#e9f6f9"/>
          </g>
          <g id="Group_10287" data-name="Group 10287" transform="translate(0 7.23)">
            <path id="Path_59037" data-name="Path 59037" d="M3487.858,2091.774h0a1.277,1.277,0,0,0,2.056,1.016l6.613-3.905a3.416,3.416,0,0,0,1.51-3.122h0a1.277,1.277,0,0,0-2.056-1.016l-6.613,3.905A3.416,3.416,0,0,0,3487.858,2091.774Z" transform="translate(-3487.837 -2084.496)" fill="#e9f6f9"/>
          </g>
        </g>
      </g>
      <g id="Group_10292" data-name="Group 10292" transform="translate(343.672 393.43)">
        <path id="Path_59038" data-name="Path 59038" d="M2904.6,1966.357l87.578-50.932c2.373-1.38,6.564-1.219,9.314.357l8.866,5.081a8.741,8.741,0,0,1,1.223.568l53.781,30.825c2.75,1.576,3.058,3.995.686,5.375l-72.89,42.515c-2.373,1.38-25.191,10.648-27.941,9.072l-4.927-6.094a8.768,8.768,0,0,1-1.223-.567l-53.781-30.825C2902.54,1970.156,2902.231,1967.737,2904.6,1966.357Z" transform="translate(-2899.628 -1911.801)" opacity="0.08"/>
        <g id="Group_10291" data-name="Group 10291">
          <path id="Path_59039" data-name="Path 59039" d="M3050.671,1947.728l-54.488-31.23c-2.91-1.668-7.344-1.838-9.855-.377l-88.742,51.609-1.681-1.435-3.62,3.765-.255,1.912c-.29,1.264.514,2.675,2.354,3.729l56.908,32.617c2.909,1.667,7.344,1.837,9.854.377l92.669-53.892a2.975,2.975,0,0,0,1.682-2.338h0v-.02c0-.016,0-.031,0-.047l.221-2.652Z" transform="translate(-2891.974 -1912.245)" fill="#fff"/>
          <path id="Path_59040" data-name="Path 59040" d="M2987.285,1906.711l-92.669,53.893c-2.51,1.46-2.184,4.019.726,5.687l56.907,32.617c2.91,1.668,7.345,1.838,9.855.377l92.669-53.893c2.511-1.46,2.184-4.019-.726-5.687l-56.907-32.617C2994.23,1905.42,2989.8,1905.251,2987.285,1906.711Z" transform="translate(-2892.635 -1905.718)" fill="snow"/>
          <path id="Path_59041" data-name="Path 59041" d="M2987.285,1906.711l-92.669,53.893c-2.51,1.46-2.184,4.019.726,5.687l56.907,32.617c2.91,1.668,7.345,1.838,9.855.377l92.669-53.893c2.511-1.46,2.184-4.019-.726-5.687l-56.907-32.617C2994.23,1905.42,2989.8,1905.251,2987.285,1906.711Z" transform="translate(-2892.635 -1905.718)" fill="#e9f6f9"/>
          <path id="Path_59042" data-name="Path 59042" d="M3326.266,2028.947l-16.464,9.575c-.794.461-.69,1.271.229,1.8h0a3.475,3.475,0,0,0,3.115.119l16.464-9.575c.793-.462.69-1.27-.229-1.8h0A3.474,3.474,0,0,0,3326.266,2028.947Z" transform="translate(-3181.471 -1990.99)" fill="#fff"/>
          <path id="Path_59043" data-name="Path 59043" d="M3184.444,1924.556l-15.76,9.166c-.987.574-.859,1.581.285,2.236h0a4.325,4.325,0,0,0,3.875.149l15.76-9.166c.987-.574.859-1.581-.285-2.236h0A4.322,4.322,0,0,0,3184.444,1924.556Z" transform="translate(-3083.48 -1918.516)" fill="#fff"/>
          <path id="Path_59044" data-name="Path 59044" d="M3225.681,1947.6l-13.552,7.882c-1.594.927-1.387,2.552.461,3.611l2.62,1.5a6.981,6.981,0,0,0,6.259.24l13.552-7.881c1.594-.927,1.387-2.552-.461-3.612l-2.62-1.5A6.983,6.983,0,0,0,3225.681,1947.6Z" transform="translate(-3113.336 -1934.338)" fill="#ff975d"/>
          <path id="Path_59045" data-name="Path 59045" d="M3114.433,2092.177l-41.283,24.009c-.794.461-.69,1.27.229,1.8h0a3.475,3.475,0,0,0,3.116.119l41.283-24.009c.794-.462.69-1.271-.229-1.8h0A3.476,3.476,0,0,0,3114.433,2092.177Z" transform="translate(-3017.294 -2034.856)" fill="#fff"/>
          <g id="Group_10290" data-name="Group 10290" transform="translate(43.59 23.385)">
            <path id="Path_59046" data-name="Path 59046" d="M3048.826,2114.643l-13.712,7.974c-1.2.7-1.045,1.922.347,2.719h0a5.255,5.255,0,0,0,4.712.18l13.712-7.975c1.2-.7,1.044-1.922-.347-2.719h0A5.256,5.256,0,0,0,3048.826,2114.643Z" transform="translate(-3034.306 -2073.716)" fill="#fff"/>
            <path id="Path_59047" data-name="Path 59047" d="M3124.537,2070.613l-13.712,7.974c-1.2.7-1.044,1.922.347,2.719h0a5.258,5.258,0,0,0,4.712.181l13.712-7.975c1.2-.7,1.044-1.922-.347-2.719h0A5.255,5.255,0,0,0,3124.537,2070.613Z" transform="translate(-3086.831 -2043.17)" fill="#fff"/>
            <path id="Path_59048" data-name="Path 59048" d="M3200.247,2026.583l-13.712,7.975c-1.2.7-1.044,1.922.347,2.719h0a5.256,5.256,0,0,0,4.712.181l13.712-7.975c1.2-.7,1.044-1.922-.347-2.719h0A5.255,5.255,0,0,0,3200.247,2026.583Z" transform="translate(-3139.354 -2012.624)" fill="#fff"/>
            <path id="Path_59049" data-name="Path 59049" d="M3275.958,1982.552l-13.712,7.974c-1.2.7-1.044,1.922.347,2.719h0a5.255,5.255,0,0,0,4.712.18l13.712-7.975c1.2-.7,1.045-1.922-.346-2.719h0A5.257,5.257,0,0,0,3275.958,1982.552Z" transform="translate(-3191.878 -1982.078)" fill="#fff"/>
          </g>
          <ellipse id="Ellipse_395" data-name="Ellipse 395" cx="9.308" cy="5.374" rx="9.308" ry="5.374" transform="translate(16.967 48.855) rotate(-0.491)" fill="#0d1b3a"/>
          <path id="Subtraction_2" data-name="Subtraction 2" d="M9.212,10.749h0a14.2,14.2,0,0,1-5.354-.986l12.836-7.7A5.378,5.378,0,0,1,18.1,3.555a3.385,3.385,0,0,1,.517,1.74,3.5,3.5,0,0,1-.714,2.1,6.378,6.378,0,0,1-1.98,1.726,13.382,13.382,0,0,1-6.568,1.63ZM1.084,7.941h0a4.34,4.34,0,0,1-.8-1.182A3.266,3.266,0,0,1,0,5.455a3.5,3.5,0,0,1,.714-2.1,6.4,6.4,0,0,1,1.98-1.725A13.385,13.385,0,0,1,9.262,0H9.4a14.975,14.975,0,0,1,4.328.619L1.084,7.94Z" transform="translate(17.013 48.774)" fill="#ec691f" stroke="rgba(0,0,0,0)" stroke-miterlimit="10" stroke-width="1"/>
        </g>
      </g>
      <path id="Path_59050" data-name="Path 59050" d="M1934.5,1694.263l300.579-170.584c13.967-7.927,12.377-21.251-3.551-29.761l-97.514-52.1c-15.928-8.51-40.164-8.982-54.131-1.056L1779.3,1611.352c-13.967,7.926-12.377,21.251,3.552,29.76l97.513,52.1C1896.3,1701.718,1920.534,1702.19,1934.5,1694.263Z" transform="translate(-1769.787 -1185.81)" fill="#b899a6" opacity="0.19" style="mix-blend-mode: multiply;isolation: isolate"/>
      <path id="Path_59051" data-name="Path 59051" d="M2524.677,1404.48l-19.685,2.072-.07,7.923-87.885-45.426-69.455,17.362.692,28.61a13.731,13.731,0,0,0,7.749,12.409L2181.4,1486.476c15.826,8.18,76.352,94.663,92.326,85.918l232.934-129.88a32.857,32.857,0,0,0,17.507-21.473Z" transform="translate(-2055.341 -1139.975)" fill="#0d1b3a"/>
      <path id="Path_59052" data-name="Path 59052" d="M1862.587,1963.892l-50.322-27.037c-5.215-2.7-17.659-7.73-16.427-28.265l-.992-6.772,69.22-27.08,124.682,64.446-43.112,23.6C1929.661,1971.532,1895.424,1979.209,1862.587,1963.892Z" transform="translate(-1787.171 -1490.796)" fill="#0d1b3a"/>
      <path id="Path_59053" data-name="Path 59053" d="M2338.879,1866.137c.015-1.766-20.423-70.192-64.018-36.9-19.07,14.564-62.271,74-45.254,83.8S2338.879,1866.137,2338.879,1866.137Z" transform="translate(-2086.088 -1452.903)" fill="#0d1b3a"/>
      <path id="Path_59054" data-name="Path 59054" d="M2395.874,2031.267l.185-.1c5.378-2.872,9.634-.567,9.505,5.152-.127,5.653-4.5,12.527-9.8,15.472l-.185.1c-5.378,2.872-9.635.582-9.506-5.137C2386.2,2041.1,2390.578,2034.213,2395.874,2031.267Z" transform="translate(-2197.335 -1598.461)" fill="#233113"/>
      <path id="Path_59055" data-name="Path 59055" d="M2373.29,1993.046c10.989-5.889,19.679-1.2,19.42,10.482-.27,11.53-9.182,25.573-19.994,31.587q-.2.11-.4.216c-10.975,5.866-19.665,1.173-19.406-10.505.27-11.521,9.168-25.55,19.955-31.551Q2373.079,1993.158,2373.29,1993.046Zm-.531,31.393c5.3-2.946,9.669-9.819,9.8-15.472.129-5.719-4.128-8.024-9.506-5.152l-.185.1c-5.3,2.946-9.67,9.835-9.8,15.488-.129,5.719,4.128,8.009,9.506,5.137l.185-.1" transform="translate(-2174.327 -1571.108)" fill="#e0e0e0"/>
      <g id="Group_10294" data-name="Group 10294" transform="translate(165.308 402.667)">
        <path id="Path_59056" data-name="Path 59056" d="M2343.555,1940.1c18.324-9.8,32.807-1.968,32.352,17.5-.01.459-.029.918-.056,1.381a52.442,52.442,0,0,1-3.437,15.319c-5.481,14.544-16.816,28.712-29.8,35.934-.229.127-.456.251-.685.374-12.712,6.812-23.586,5.121-28.9-3.066a23.424,23.424,0,0,1-3.407-11.471q-.084-1.427-.05-2.951c.436-19.243,15.292-42.633,33.318-52.663C2343.115,1940.343,2343.333,1940.224,2343.555,1940.1Zm-.908,57.114c10.812-6.014,19.725-20.057,19.994-31.587.259-11.678-8.431-16.37-19.42-10.482q-.211.113-.421.229c-10.787,6-19.686,20.03-19.955,31.551-.259,11.678,8.431,16.37,19.406,10.5q.2-.106.4-.216" transform="translate(-2309.567 -1935.879)"/>
      </g>
      <path id="Path_59057" data-name="Path 59057" d="M2296.747,2080.3l-18.229-9.342,5.356-37.5,9.616,22.531Z" transform="translate(-2122.718 -1600.908)"/>
      <path id="Path_59058" data-name="Path 59058" d="M3809.443,1685.159l90.947-14.9a22.087,22.087,0,0,0,8.341-3.2l11.417-7.311a7.831,7.831,0,0,0-.427-13.445l-64.54-35.76Z" transform="translate(-3184.795 -1307.517)" fill="#b899a6" opacity="0.19" style="mix-blend-mode: multiply;isolation: isolate"/>
      <path id="Path_59120" data-name="Path 59120" d="M2897.564,1140.9l95.582,51.566c9,4.857,18.727,13.88,25.121,5.731l2.812-5.062c6.394-8.149,4.322-25.445-4.681-30.3l-98.17-49.527c-9-4.857-19.013-4.2-25.407,3.947h0C2886.427,1125.4,2888.562,1136.045,2897.564,1140.9Z" transform="translate(-2546.332 -960.434)" fill="#ffc09c"/>
      <path id="Path_59121" data-name="Path 59121" d="M3209.779,1291.217l15.857,17.135-40.015-21.272Z" transform="translate(-2752.019 -1083.109)" fill="#ffc09c"/>
      <path id="Path_59122" data-name="Path 59122" d="M2016.719,1506.943a25.126,25.126,0,0,1,.252-8.983c2.264-8.24,16.51-17.991,22.374-3.123a68.792,68.792,0,0,1,3.965,14.182c1.241,7.921.389,14.658-3.672,17.294C2034.279,1529.811,2019.012,1521.576,2016.719,1506.943Z" transform="translate(-1940.894 -1221.886)" fill="#ffc09c"/>
      <path id="Path_59123" data-name="Path 59123" d="M2976.424,1296.868l-57.368-28.742c-12.371-6.2-10.7-17.912,3.724-26.03h0c14.419-8.118,36.339-9.689,48.71-3.49l57.367,28.743c12.372,6.2,10.7,17.911-3.724,26.03h0C3010.716,1301.5,2988.8,1303.067,2976.424,1296.868Z" transform="translate(-2561.342 -1046.85)" fill="#ffc09c"/>
      <path id="Path_59124" data-name="Path 59124" d="M1870.951,1905.666l-69.369-37c-10.43-5.391-10.317-18.19.21-23.954l60.794-33.283,71.311,36.859c23.276,12.031,22.994,44.218-.5,57.08h0C1917.422,1914.11,1886.777,1913.846,1870.951,1905.666Z" transform="translate(-1786.465 -1446.873)" fill="#ffc09c"/>
      <path id="Path_59125" data-name="Path 59125" d="M3082.976,1646.113l.166-.091c4.847-2.588,8.683-.51,8.567,4.644-.114,5.094-4.057,11.289-8.829,13.944l-.167.091c-4.847,2.588-8.683.524-8.567-4.63C3074.261,1654.976,3078.2,1648.768,3082.976,1646.113Z" transform="translate(-2674.682 -1331.352)"/>
      <path id="Path_59126" data-name="Path 59126" d="M3062.623,1608.956c9.9-5.307,17.735-1.078,17.5,9.446-.243,10.391-8.276,23.047-18.019,28.467-.119.066-.237.131-.356.195-9.891,5.287-17.723,1.058-17.489-9.467.242-10.383,8.263-23.027,17.984-28.435C3062.37,1609.092,3062.5,1609.023,3062.623,1608.956Zm-.478,28.292c4.772-2.655,8.714-8.85,8.828-13.944.116-5.154-3.72-7.231-8.567-4.643l-.166.091c-4.772,2.655-8.715,8.863-8.829,13.958-.116,5.154,3.72,7.218,8.567,4.63l.167-.091" transform="translate(-2653.947 -1304.82)" fill="#e0e0e0"/>
      <g id="Group_10297" data-name="Group 10297" transform="translate(378.345 287.599)">
        <path id="Path_59127" data-name="Path 59127" d="M3035.825,1563.956c16.514-8.836,29.566-1.774,29.156,15.774-.009.413-.026.827-.05,1.245a47.244,47.244,0,0,1-3.1,13.806c-4.94,13.108-15.155,25.876-26.856,32.385-.206.115-.411.226-.617.337-11.456,6.139-21.256,4.615-26.041-2.763a21.1,21.1,0,0,1-3.071-10.338q-.076-1.286-.045-2.659c.392-17.342,13.781-38.422,30.027-47.461C3035.428,1564.17,3035.625,1564.063,3035.825,1563.956Zm-.818,51.472c9.743-5.42,17.776-18.076,18.019-28.467.233-10.524-7.6-14.753-17.5-9.447q-.19.1-.379.207c-9.721,5.408-17.741,18.052-17.984,28.435-.234,10.524,7.6,14.753,17.489,9.467.119-.063.237-.129.356-.194" transform="translate(-3005.194 -1560.148)"/>
      </g>
      <path id="Path_59128" data-name="Path 59128" d="M2172.583,1470.553c3.482-5.173,58.159-45.543,63.578-50.834,6.572-6.412,61.908-78.3,61.908-78.3l68.574-39.729.055-.354s54.666-38.208,110.9-30.806c9.52,1.253,19.539,5.393,19.46,14.319l-.6,68.773-16.432,8.261c-10.9-15.928-50.381,1.53-57.5,34.293l-64.977,37.931L2273.1,1482.2c-.626-6.038-12.536-15.05-31.872-6.393-17.662,7.907-28.911,24.547-33.084,44.99l-16.688,8.188c-5.5,2.39-11.956,5.146-28.217,6.849-.044-.348.383-38.558.383-38.558C2163.345,1486.778,2165.316,1481.365,2172.583,1470.553Z" transform="translate(-2042.743 -1070.967)" fill="#ffc09c"/>
      <path id="Path_59129" data-name="Path 59129" d="M1870.924,1618.371c-5.421,5.121-13.395,10.414-18.846,14.82-11.188,9.033-19.556,15.117-29.286,24.32-2.047,1.937-4.155,4.011-6.362,6.281q-1.14,1.174-2.252,2.4s-12.919,15.178-15.8,24q-.576,1.41-1.079,2.826-.557,1.567-1.023,3.133-.54,1.814-.956,3.616c-.354,1.532-.638,3.053-.854,4.552-.379,2.648-.667,16.636-.6,19.1l108.237,35.127,9.2-27.273c.741-.814,1.613-12.617,2.374-13.4,2.207-2.269.548,2.482,2.6.546,9.73-9.2,21.56-20.782,32.748-29.814,5.451-4.406,13.06-10.364,20.03-15.595Z" transform="translate(-1786.487 -1312.942)" fill="#ffc09c"/>
      <path id="Path_59130" data-name="Path 59130" d="M3236.409,1408.374l-.315,35.857,11.939-5.985a21.386,21.386,0,0,0,9.366-9.112h0a19.394,19.394,0,0,0,2.228-10.318l-1.472-21.989Z" transform="translate(-2787.035 -1159.246)" fill="#ffc09c"/>
      <path id="Path_59131" data-name="Path 59131" d="M2474.8,1548.7l90.994-54.311,8.193-59.851s-52.742,27.982-72.3,51.144c-10.67,12.635-23.858,36.614-32.448,53.086C2465.877,1545.222,2470.185,1551.42,2474.8,1548.7Z" transform="translate(-2254.2 -1185.408)" fill="#233113"/>
      <path id="Path_59132" data-name="Path 59132" d="M2481.732,1758.057a27.6,27.6,0,0,1,8.623,3.414c7.093,4.926,10.846,20.964-5.945,20.859a79.28,79.28,0,0,1-15.364-1.538c-8.19-1.719-14.391-4.864-15.321-9.385C2452.479,1765.433,2466.6,1754.883,2481.732,1758.057Z" transform="translate(-2244.214 -1409.444)" fill="#ffebdf"/>
      <path id="Path_59133" data-name="Path 59133" d="M2938.654,1366.742s-36.129-27.7-68.269-16.786c-10.748,3.651-39.678,20.18-39.678,20.18l-6.995,57.723Z" transform="translate(-2500.946 -1124.962)" fill="#233113"/>
      <path id="Path_59134" data-name="Path 59134" d="M3275.724,1387.219h0c4.876-1.311,8.659-5.251,8.407-8.755l-.35-4.865c-.252-3.5-4.448-5.3-9.324-3.988h0c-4.876,1.311-8.66,5.25-8.408,8.755l.35,4.865C3266.652,1386.734,3270.848,1388.529,3275.724,1387.219Z" transform="translate(-2807.808 -1140.067)" fill="#fff"/>
      <path id="Path_59135" data-name="Path 59135" d="M1840.552,1989.524l52.7,28.326-1.31-21.464-52.7-28.326Z" transform="translate(-1817.971 -1555.538)" fill="#fff"/>
      <path id="Path_59136" data-name="Path 59136" d="M2992.943,1736.885l-16.763-8.74,13.828-13.165Z" transform="translate(-2606.719 -1379.963)"/>
      <path id="Path_59137" data-name="Path 59137" d="M2163.26,1099.44c26.712,10.45,71.785,35.156,102.489,54.884-16.341-2.039-48.92-2.845-65.892.9-21.035,4.648-121.107,63.389-139.079,81.233a193.833,193.833,0,0,0-14.274,15.518c-12.728,15.922-43.149,56.554-43.149,56.554s-41.239,24.188-53.934,37.242a103.97,103.97,0,0,0-11.625,14.346c-7.266,10.813-11.091,23.38-10.811,33.875l-97.249-54.082c-.28-10.494,3.545-23.062,10.811-33.875a104.012,104.012,0,0,1,11.625-14.346c12.7-13.053,30.089-26.938,43.632-37.872,3.524-2.849,31.326-39.48,51.731-66.617a177.479,177.479,0,0,1,11.852-14.08c21-22.614,94.747-58.427,125.666-72.741,7.818-3.62,18.064-7.793,26.641-7.472C2127.329,1093.5,2149.837,1097.271,2163.26,1099.44Z" transform="translate(-1811.367 -948.392)" fill="#ffebdf"/>
      <path id="Path_59138" data-name="Path 59138" d="M2070.387,1454.419l52.775-69.625c25.372,16.007,59.275,32.063,96.639,51.849l-54.391,71.756C2124.442,1495.828,2092.271,1478.125,2070.387,1454.419Z" transform="translate(-1978.328 -1150.898)" fill="#233113"/>
      <path id="Path_59139" data-name="Path 59139" d="M2868.961,1158.072c-36.9-22.632-64.893-34.954-94.213-48.882l42.9,4.745c29.591,11.032,57.23,25.956,80.684,44.153Z" transform="translate(-2466.977 -959.698)" fill="#233113"/>
      <path id="Path_59140" data-name="Path 59140" d="M2226.847,1422.721l-103.393,11.8,36.006-47.5Z" transform="translate(-2015.143 -1152.445)" fill="#3c4530"/>
      <path id="Path_59141" data-name="Path 59141" d="M1812.151,1812.206a5.175,5.175,0,0,0,7.211-4.26l1.756-26.972c-5.378,7.062-10.392,14.844-13.225,21.118a7.545,7.545,0,0,0,4.223,10.1Z" transform="translate(-1795.762 -1425.747)" fill="#fff"/>
      <path id="Path_59142" data-name="Path 59142" d="M2087.726,1963.657l43.6-19.466c4.313-1.926,8.728,2.319,6.662,6.448-3.769,7.532-10,16.824-19.252,21.515-15.424,7.821-26.586,5.126-32.574-.5A4.869,4.869,0,0,1,2087.726,1963.657Z" transform="translate(-1988.24 -1538.647)" fill="#fff"/>
      <path id="Path_59143" data-name="Path 59143" d="M1846.687,1897.592c12.7,19.43,41.882,31.06,68.622,38.09" transform="translate(-1823.136 -1506.651)" fill="none" stroke="#3b1b04" stroke-linecap="round" stroke-linejoin="round" stroke-width="6.727"/>
      <path id="Path_59147" data-name="Path 59147" d="M3617.038,916.664,3532.1,867.626l52.7-26.6,81.618,47.122Z" transform="translate(-2992.39 -773.662)" fill="#c9d9b7"/>
      <path id="Path_59148" data-name="Path 59148" d="M3531.029,927.877l-.474,234.366,85.41,49.311V976.915Z" transform="translate(-2991.317 -833.912)" fill="#e9f6f9"/>
      <path id="Path_59149" data-name="Path 59149" d="M3809.443,1023.409l49.386-28.513v234.639l-49.386,28.513Z" transform="translate(-3184.795 -880.407)" fill="#bbced2"/>
      <path id="Path_59150" data-name="Path 59150" d="M3575.009,1215.292l-.127.118-.35,36.788,18.151,7.608-.546-34.814C3584.98,1220.959,3578.718,1217.417,3575.009,1215.292Z" transform="translate(-3021.826 -1033.306)" fill="#899ea2"/>
      <path id="Path_59151" data-name="Path 59151" d="M3625.838,1478.272l-34.276-19.331v-34.207l34.276,19.331Z" transform="translate(-3033.64 -1178.606)" fill="#bbced2"/>
      <path id="Path_59152" data-name="Path 59152" d="M3248.014,1453.279l-6.093-3.687c-4.809-2.911-8.418-10.307-8.021-16.436l.193-2.98c.4-6.129,4.659-8.762,9.467-5.852l6.094,3.688c4.809,2.911,8.418,10.307,8.021,16.436l-.193,2.98C3257.083,1453.557,3252.823,1456.19,3248.014,1453.279Z" transform="translate(-2785.492 -1177.499)" fill="#ff975d"/>
      <path id="Path_59153" data-name="Path 59153" d="M3342.238,1515.178c-15.8,7.481-14.072,43.666-19.626,75.475-3.44,19.7-26.4,29.713-37.457,15.251-23.709-31.005-21.586-51.138-68.862-90.036" transform="translate(-2773.298 -1241.352)" fill="none" stroke="#000" stroke-linecap="round" stroke-linejoin="round" stroke-width="8"/>
      <path id="Path_59154" data-name="Path 59154" d="M3238.881,1459.9l-6.093-3.688c-4.809-2.911-8.418-10.307-8.021-16.435l.194-2.98c.4-6.129,4.658-8.762,9.467-5.852l6.093,3.688c4.809,2.911,8.418,10.307,8.021,16.436l-.193,2.98C3247.951,1460.178,3243.69,1462.812,3238.881,1459.9Z" transform="translate(-2779.156 -1182.093)" fill="#d56f36"/>
      <path id="Path_59155" data-name="Path 59155" d="M3168.572,1461.584l-15.226,7.922c-1.8.937-3.273-.5-3.273-3.189v-13.745c0-2.691,1.473-5.659,3.273-6.6l15.226-7.922c1.8-.937,3.273.5,3.273,3.189v13.745C3171.846,1457.679,3170.373,1460.647,3168.572,1461.584Z" transform="translate(-2727.358 -1187.648)" fill="#0d1b3a"/>
      <path id="Path_59156" data-name="Path 59156" d="M3180.346,1496.91l-12.747-9.352a6.149,6.149,0,0,1-1.1-8.907h0a6.931,6.931,0,0,1,9.349-1.238l12.747,9.352a6.149,6.149,0,0,1,1.1,8.907h0A6.932,6.932,0,0,1,3180.346,1496.91Z" transform="translate(-2737.765 -1214.265)" fill="#333"/>
      <path id="Path_59157" data-name="Path 59157" d="M3809.443,1115.422v19.8l49.386-33.99v-28.181Z" transform="translate(-3184.795 -934.627)" fill="#899ea2"/>
      <path id="Path_59158" data-name="Path 59158" d="M3532.1,1045.378V1070.5l84.936,45.519.952-20.16Z" transform="translate(-2992.39 -915.428)" fill="#bbced2"/>
      <path id="Path_59159" data-name="Path 59159" d="M3617.143,1288.991l-42.61-24.181,10.282-31.338,42.7,23.771Z" transform="translate(-3021.827 -1045.919)" fill="#fff"/>
      <path id="Path_59160" data-name="Path 59160" d="M3598.868,1242.1l42.544,24.277,2.982-9.13-42.7-23.771Z" transform="translate(-3038.709 -1045.919)" fill="#bbced2"/>
      <path id="Path_98154" data-name="Path 98154" d="M8,0h.247a8,8,0,0,1,8,8v.241a8,8,0,0,1-8,8H8a8,8,0,0,1-8-8V8A8,8,0,0,1,8,0Z" transform="matrix(0.756, -0.655, 0.655, 0.756, 560.353, 271.25)" fill="#233113"/>
      <path id="Path_59161" data-name="Path 59161" d="M3598.457,918.646l-96.682-50.489,59.992-33.687,92.9,48.78Z" transform="translate(-2971.351 -769.112)" fill="#e9f6f9"/>
      <path id="Path_59162" data-name="Path 59162" d="M3501.775,944.468v40.054l96.682,51.774V995.232Z" transform="translate(-2971.351 -845.423)" fill="#899ea2"/>
      <path id="Path_59163" data-name="Path 59163" d="M3817.469,1030.043l56.216-35.4V1032.3l-56.216,38.813Z" transform="translate(-3190.363 -880.234)" fill="#bbced2"/>
      <path id="Path_59164" data-name="Path 59164" d="M3639.641,1308.382l.006,0L3637.688,1295l-8.666,9.214-.006.006-.031.032h0a5.328,5.328,0,0,0-1.293,2.445,7.21,7.21,0,0,0,3.858,7.747c3.284,1.654,6.875.326,7.935-2.881A6.157,6.157,0,0,0,3639.641,1308.382Z" transform="translate(-3058.6 -1088.605)" fill="#ff975d"/>
      <g id="Group_10299" data-name="Group 10299" transform="translate(543.835 122.115)">
        <path id="Path_59165" data-name="Path 59165" d="M3584.678,1024.183l-8.163-4.386-30.95,24.166,8.8,4.711Z" transform="translate(-3545.565 -1019.797)" fill="#fff"/>
        <path id="Path_59166" data-name="Path 59166" d="M3636.548,1051.554l-31.314,24.268,15.475,8.287,33.057-23.292Z" transform="translate(-3586.961 -1041.828)" fill="#fff"/>
      </g>
      <g id="Group_10307" data-name="Group 10307" transform="translate(655.331 129.509)">
        <path id="Path_59167" data-name="Path 59167" d="M4159.375,1886.994c-7.721-5.643-19.74-8.128-30.726-6.99a23.692,23.692,0,0,1-17.2-5.241q-.42-.335-.87-.664c-10.865-7.941-30.238-9.629-43.271-3.771s-14.791,17.044-3.926,24.984c7.722,5.643,19.74,8.128,30.727,6.99a23.693,23.693,0,0,1,17.2,5.241q.421.335.87.664c10.864,7.941,30.238,9.629,43.271,3.771S4170.241,1894.935,4159.375,1886.994Z" transform="translate(-4043.508 -1610.23)" fill="#b899a6" opacity="0.19" style="mix-blend-mode: multiply;isolation: isolate"/>
        <path id="Path_59168" data-name="Path 59168" d="M4315.226,1910.008l.686,10a60.947,60.947,0,0,0,1.62,8.542,7.611,7.611,0,0,0,6.07,4.843c3.05.386,9.267-4.647,7.179-11.463-1.819-5.941-4.067-13.447-4.067-13.447C4322.377,1910.208,4318.64,1911.9,4315.226,1910.008Z" transform="translate(-4223.169 -1639.122)" fill="#0d1b3a"/>
        <path id="Path_59169" data-name="Path 59169" d="M4096.377,1875.128l18.874-11.682c2.336-.716,7.091-.154,10.148.988a3.106,3.106,0,0,1,1.949,3.391l-.479,3.124c-.535,4.528-1.079,5.076-4.163,6.022l-18.314,5.615c-3.083.946-7.28.163-9.325-1.74l-.58-.539C4092.443,1878.4,4093.293,1876.074,4096.377,1875.128Z" transform="translate(-4069.259 -1607.656)" fill="#0d1b3a"/>
        <path id="Path_59170" data-name="Path 59170" d="M4178.373,1834.154c-.353,4.7-11.864,4.441-11.512-.259l1.146-15.276,11.512.259Z" transform="translate(-4120.235 -1576.778)" fill="#ff975d"/>
        <path id="Path_59171" data-name="Path 59171" d="M4168.226,1525.467c-4.3,4.467-12.48,3.734-14.4.038l-3.786-57.141,1.373-77.068,40.042-7.49-17.783,85.026C4176.469,1487.493,4173.349,1505.682,4168.226,1525.467Z" transform="translate(-4108.57 -1275.128)" fill="#0d1b3a"/>
        <g id="Group_10304" data-name="Group 10304" transform="translate(0 61.884)">
          <path id="Path_59172" data-name="Path 59172" d="M4060.723,1231.01l-9.316,23.552a7.857,7.857,0,0,1-12.059,4.126l-9.507-6.735-1.13,12.815,13.818,9.885a10.638,10.638,0,0,0,15.435-3.386c5.482-9.627,12.841-22.617,12.848-22.993C4070.824,1247.677,4060.723,1231.01,4060.723,1231.01Z" transform="translate(-4024.399 -1231.01)" fill="#ffae81"/>
          <path id="Path_59173" data-name="Path 59173" d="M4041,1291.86l-13.423-4.691a2.785,2.785,0,0,1-1.78-2.189l-3.95-26.047c-.151-1,.4-1.629,1.234-1.415l13.9,3.57a2.784,2.784,0,0,1,1.78,2.189l3.931,25.924a1.587,1.587,0,0,1-.591,1.467Z" transform="translate(-4019.62 -1249.371)" fill="#bfcfae"/>
          <path id="Path_59174" data-name="Path 59174" d="M4026.985,1268.364s-3.648,17.533-3.8,16.538l-5.112-25.782,1.524-1.534a.968.968,0,0,1,.873-.146l13.9,3.57a2.271,2.271,0,0,1,1.123.774Z" transform="translate(-4017.02 -1249.317)" fill="#c9d9b7"/>
          <g id="Group_10301" data-name="Group 10301" transform="translate(0.822 9.458)">
            <g id="Group_10300" data-name="Group 10300">
              <path id="Path_59175" data-name="Path 59175" d="M4036.907,1295.168l-13.867-3.579a2.764,2.764,0,0,1-1.749-2.2l-3.949-26.047c-.151-1,.385-1.624,1.218-1.41l13.861,3.581a2.758,2.758,0,0,1,1.742,2.2l3.949,26.047C4038.262,1294.757,4037.74,1295.381,4036.907,1295.168Z" transform="translate(-4017.316 -1261.891)" fill="#fff"/>
            </g>
          </g>
          <path id="Path_59176" data-name="Path 59176" d="M4035.681,1296.8l-13.448-3.471a2.681,2.681,0,0,1-1.7-2.131l-3.83-25.26c-.146-.965.374-1.575,1.181-1.367l13.441,3.473a2.677,2.677,0,0,1,1.69,2.134l3.83,25.26C4036.995,1296.406,4036.488,1297.012,4035.681,1296.8Z" transform="translate(-4016.054 -1254.267)" fill="#233113"/>
          <path id="Path_59177" data-name="Path 59177" d="M4020.216,1307.371h0a3.985,3.985,0,0,1-4.541-3.309l-.994-6.337a3.984,3.984,0,0,1,3.309-4.541h0a3.984,3.984,0,0,1,4.54,3.309l.995,6.337A3.985,3.985,0,0,1,4020.216,1307.371Z" transform="translate(-4014.633 -1274.11)" fill="#ffae81"/>
          <g id="Group_10303" data-name="Group 10303" transform="translate(13.408 14.73)">
            <g id="Group_10302" data-name="Group 10302">
              <path id="Path_59178" data-name="Path 59178" d="M4059.869,1283.931h0a1.653,1.653,0,0,1-1-1.239l-.446-2.834c-.085-.538.225-.861.689-.717h0a1.656,1.656,0,0,1,1,1.24l.445,2.834C4060.643,1283.752,4060.333,1284.075,4059.869,1283.931Z" transform="translate(-4058.413 -1279.106)" fill="#fff"/>
            </g>
          </g>
        </g>
        <path id="Path_59179" data-name="Path 59179" d="M4123.473,1156.308s-23.388,25.381-21.834,29.51,13.653,17.857,20.925,14.139S4129.287,1161.437,4123.473,1156.308Z" transform="translate(-4074.942 -1117.301)" fill="#ec691f"/>
        <path id="Path_59180" data-name="Path 59180" d="M4323.918,1873.911c.406,4.7-11,6.286-11.4,1.59l-1.318-15.262,11.4-1.59Z" transform="translate(-4220.373 -1604.549)" fill="#ff975d"/>
        <path id="Path_59181" data-name="Path 59181" d="M4273.489,1553.193c-3.527,5.1-11.72,5.687-14.208,2.348l-9.961-52.066-11.569-83.426,35.947-10.407-.088,60.531C4278.8,1502.406,4276.644,1526.844,4273.489,1553.193Z" transform="translate(-4169.42 -1293.051)" fill="#0d1b3a"/>
        <path id="Path_59182" data-name="Path 59182" d="M4222.336,1167.825c-6.434,5.448-12.969,12.12-20.182,26.992-.64,10.69,5.236,15.137,11.182,19.934l21.74-21.758-8.18-16.66Z" transform="translate(-4144.692 -1125.291)" fill="#4432db"/>
        <path id="Path_59183" data-name="Path 59183" d="M4150.072,1212.807c.96-17.793,2.589-31.842,1.135-54.153,1.657-30.694,13.867-41.428,32.824-33.329l7.875,2.553c22.661,13.832,34.548,13.841,29.04,38.316l-7.117,55.127C4212.325,1249.193,4146.817,1245.494,4150.072,1212.807Z" transform="translate(-4108.513 -1094.002)" fill="#ff975d"/>
        <path id="Path_59184" data-name="Path 59184" d="M4329.088,1257.486l-1.356,13.16a66.2,66.2,0,0,0,4.926,32.68l4.37,10.282,3.418-29.723Z" transform="translate(-4231.603 -1187.493)" fill="#ab4a0a"/>
        <rect id="Rectangle_3841" data-name="Rectangle 3841" width="11.186" height="15.219" rx="5.593" transform="translate(114.27 147.731) rotate(-16.481)" fill="#ffae81"/>
        <path id="Path_59185" data-name="Path 59185" d="M4335.772,1244.847c9.466,9.177,7.518,7.613,15.058,33.938.946,1.993,2.863,41.588,2.863,41.588l9.074-.952s2.75-28.185,3.116-39.666a21.131,21.131,0,0,0-1.616-8.825l-14.9-35.712Z" transform="translate(-4237.423 -1172.045)" fill="#ffae81"/>
        <path id="Path_59186" data-name="Path 59186" d="M4320.867,1201.017l10.3,31.071c1.546,2.481,21.434-5.056,20.646-9.187-.437-2.285-5.292-12.4-8.965-25.874-3.477-12.752-7.233-17.323-12.471-20.118C4319.524,1171.119,4315.364,1186.784,4320.867,1201.017Z" transform="translate(-4225.4 -1130.736)" fill="#ec691f"/>
        <g id="Group_10306" data-name="Group 10306" transform="translate(63.732 28.786)">
          <g id="Group_10305" data-name="Group 10305">
            <path id="Path_59187" data-name="Path 59187" d="M4228.926,1122.937s-14.176,19.256.378,24.791,20.737-15.625,20.737-15.625S4235.966,1122.742,4228.926,1122.937Z" transform="translate(-4222.736 -1122.934)" fill="#fff"/>
          </g>
        </g>
        <path id="Path_59188" data-name="Path 59188" d="M4241.488,1082.067s1.9,2.852,3.078,3.409,17.076-6.986,15.169-20.2c-1.207-8.371-17.079-5.871-17.079-5.871Z" transform="translate(-4172.014 -1049.83)" fill="#45312b"/>
        <path id="Path_59189" data-name="Path 59189" d="M4238.893,1115.093l-.929.16a5.8,5.8,0,0,1-6.688-4.721l-3.051-17.69a5.806,5.806,0,0,1,4.721-6.688l.929-.16a5.805,5.805,0,0,1,6.688,4.72l5.431,16.568C4246.534,1110.42,4242.03,1114.552,4238.893,1115.093Z" transform="translate(-4162.754 -1068.463)" fill="#ffae81"/>
        <path id="Path_59190" data-name="Path 59190" d="M4233.794,1123.534a15.851,15.851,0,0,0,12.542-7.152s-4.757,11.129-11.689,12.1Z" transform="translate(-4166.676 -1089.603)" fill="#45312b"/>
        <ellipse id="Ellipse_396" data-name="Ellipse 396" cx="14.87" cy="8.428" rx="14.87" ry="8.428" transform="translate(56.798 35.032) rotate(-88.031)" fill="#ffae81"/>
        <path id="Path_59191" data-name="Path 59191" d="M4229.665,1068.544c-3.045,6.429-14.839,9.71-18.367,4.606s.239-16.482,3.284-22.911,8.374-7.5,11.9-2.4S4232.71,1062.115,4229.665,1068.544Z" transform="translate(-4150.081 -1039.815)" fill="#ffae81"/>
        <path id="Path_59192" data-name="Path 59192" d="M4238.589,1042.46s-2.4,12.974,7.759,16.627c0,0,12.157-5.938,4.451-19.125-6.792-11.623-19.5-4.023-19.5-4.023Z" transform="translate(-4164.942 -1032.102)" fill="#45312b"/>
        <path id="Path_59193" data-name="Path 59193" d="M4201.431,1066.631s1.776-5.509,8.759-7.4l-5.153-3.583S4199.453,1056.516,4201.431,1066.631Z" transform="translate(-4143.929 -1047.465)" fill="#45312b"/>
        <path id="Path_59194" data-name="Path 59194" d="M4219.34,1047.356c-2.06-3.217-6.92-3.521-14-1.512a6.108,6.108,0,0,1-3.3.1c-5.062-1.415-5.4-7.84-5.4-7.84-.812-4.336,2.139-6.064,6.476-6.878l11.292-2.117c6.392-1.234,12.113,4.346,12.927,8.682l.242.721C4228.39,1042.853,4223.677,1046.543,4219.34,1047.356Z" transform="translate(-4140.806 -1028.939)" fill="#45312b"/>
        <circle id="Ellipse_397" data-name="Ellipse 397" cx="3.132" cy="3.132" r="3.132" transform="translate(75.69 27.053) rotate(-68.017)" fill="#ed6f53"/>
      </g>
      <ellipse id="Ellipse_398" data-name="Ellipse 398" cx="8.753" cy="26.817" rx="8.753" ry="26.817" transform="translate(579.327 101.786) rotate(-67.291)" fill="#bbced2"/>
      <g id="Group_10309" data-name="Group 10309" transform="translate(552.159 0)">
        <g id="Group_10308" data-name="Group 10308" transform="translate(0)">
          <path id="Path_59195" data-name="Path 59195" d="M3702.2,739.6c1.929-.59,14.534-8.571,15.992-10.385,5.176-4.781,8.156-13.018,7.824-23.928-.729-23.938-17.095-51.621-36.553-61.832-9.07-4.759-16.405-5.994-22.922-2.471-3.625,1.712-13.442,7.07-13.442,7.07-1.82,1.794,1.672,2.979.486,5.633-2.6,4.739-3.977,11.025-3.746,18.612.729,23.938,17.1,51.621,36.554,61.832C3694.591,738.428,3696.395,742.229,3702.2,739.6Z" transform="translate(-3626.214 -633.474)" fill="#e36410"/>
          <ellipse id="Ellipse_399" data-name="Ellipse 399" cx="30.374" cy="52.003" rx="30.374" ry="52.003" transform="translate(1.446 27.303) rotate(-26.708)" fill="#fff"/>
          <ellipse id="Ellipse_400" data-name="Ellipse 400" cx="30.374" cy="52.003" rx="30.374" ry="52.003" transform="translate(0 28.112) rotate(-26.708)" fill="#ff975d"/>
          <ellipse id="Ellipse_401" data-name="Ellipse 401" cx="21.234" cy="36.355" rx="21.234" ry="36.355" transform="translate(14.484 38.34) rotate(-26.708)" fill="#fff"/>
          <path id="Path_59196" data-name="Path 59196" d="M3655.878,733c.626,17.361,12.332,37.055,26.145,43.988,5.506,2.764,10.515,3.08,14.509,1.364-4.281,3.017-10.173,3.224-16.781-.092-13.812-6.933-25.518-26.627-26.145-43.988-.377-10.441,3.339-17.658,9.366-20.247C3658.3,717.316,3655.551,723.946,3655.878,733Z" transform="translate(-3628.825 -685.554)" fill="#ec691f"/>
          <path id="Path_59203" data-name="Path 59203" d="M.025,8.7H11.539a4.626,4.626,0,0,0-.671-1.539A3.935,3.935,0,0,0,9.553,5.984a7.143,7.143,0,0,0-2.1-.756,14.523,14.523,0,0,0-2.973-.265H0L.025,0H24.394V4.962H17.537a6.58,6.58,0,0,1,1.2,1.672,6.455,6.455,0,0,1,.62,2.07H24.47v4.962H19.207a8.019,8.019,0,0,1-1.038,2.494,8.973,8.973,0,0,1-1.86,2.11,11.659,11.659,0,0,1-2.581,1.619,14,14,0,0,1-3.2,1.022v.106A9.394,9.394,0,0,1,12.185,22a10.988,10.988,0,0,1,1.442,1.3A16.656,16.656,0,0,1,15.006,25q.683.955,1.493,2.149l7.237,10.906h-8.68L9.287,28.58q-.835-1.38-1.582-2.415A8.967,8.967,0,0,0,6.111,24.44a6.172,6.172,0,0,0-1.873-1.048,7.246,7.246,0,0,0-2.391-.358H.025v-5.6H4.454a10.514,10.514,0,0,0,2.455-.279A8.436,8.436,0,0,0,9,16.373a6.178,6.178,0,0,0,1.569-1.194,4.154,4.154,0,0,0,.924-1.513H.025Z" transform="matrix(0.996, 0.087, -0.087, 0.996, 36.855, 41.901)" fill="#ec691f"/>
        </g>
        <line id="Line_45" data-name="Line 45" y1="3.998" x2="8.157" transform="translate(46.043 7.677)" fill="none" stroke="#ab4a0a" stroke-linecap="round" stroke-linejoin="round" stroke-width="2.269"/>
        <line id="Line_46" data-name="Line 46" y1="3.998" x2="8.157" transform="translate(58.427 13.868)" fill="none" stroke="#ab4a0a" stroke-linecap="round" stroke-linejoin="round" stroke-width="2.269"/>
        <line id="Line_47" data-name="Line 47" y1="3.998" x2="8.157" transform="translate(68.772 22.847)" fill="none" stroke="#ab4a0a" stroke-linecap="round" stroke-linejoin="round" stroke-width="2.269"/>
        <line id="Line_48" data-name="Line 48" y1="3.998" x2="8.157" transform="translate(77.424 35.425)" fill="none" stroke="#ab4a0a" stroke-linecap="round" stroke-linejoin="round" stroke-width="2.269"/>
        <line id="Line_49" data-name="Line 49" y1="3.998" x2="8.157" transform="translate(85.598 52.238)" fill="none" stroke="#ab4a0a" stroke-linecap="round" stroke-linejoin="round" stroke-width="2.269"/>
        <line id="Line_50" data-name="Line 50" y1="3.998" x2="8.157" transform="translate(88.979 66.509)" fill="none" stroke="#ab4a0a" stroke-linecap="round" stroke-linejoin="round" stroke-width="2.269"/>
        <line id="Line_51" data-name="Line 51" y1="3.998" x2="8.157" transform="translate(88.887 85.131)" fill="none" stroke="#ab4a0a" stroke-linecap="round" stroke-linejoin="round" stroke-width="2.269"/>
      </g>
      <path id="Path_59200" data-name="Path 59200" d="M3311.7,1391.166s5.018-1.506,4.855-6.8-1.637-6.607-1.637-6.607" transform="translate(-2839.485 -1146.016)" fill="none" stroke="#233113" stroke-linecap="round" stroke-linejoin="round" stroke-width="3.116"/>
      <path id="Path_59201" data-name="Path 59201" d="M1821.469,1780.973s-11.986,13.9-13.736,22.7" transform="translate(-1796.111 -1425.747)" fill="none" stroke="#233113" stroke-linecap="round" stroke-linejoin="round" stroke-width="3.116"/>
    </g>
  </g>
</svg>
