<svg xmlns="http://www.w3.org/2000/svg" xmlns:xlink="http://www.w3.org/1999/xlink" width="626.486" height="581.748" viewBox="0 0 626.486 581.748">
  <defs>
    <linearGradient id="linear-gradient" x1="4.343" y1="7.91" x2="5.172" y2="7.91" gradientUnits="objectBoundingBox">
      <stop offset="0" stop-color="#c397f2"/>
      <stop offset="0.274" stop-color="#cd88db"/>
      <stop offset="0.845" stop-color="#e964a1"/>
      <stop offset="1" stop-color="#f25a91"/>
    </linearGradient>
    <filter id="Path_75600" x="250.436" y="367.063" width="82.413" height="63.737" filterUnits="userSpaceOnUse">
      <feOffset dy="3" input="SourceAlpha"/>
      <feGaussianBlur stdDeviation="3" result="blur"/>
      <feFlood flood-opacity="0.161"/>
      <feComposite operator="in" in2="blur"/>
      <feComposite in="SourceGraphic"/>
    </filter>
    <clipPath id="clip-path">
      <path id="Path_75597" data-name="Path 75597" d="M-21910,16076.461l44.6-24.632-1.406-11.789-43.2,25.337Z" transform="translate(21910 -16040.04)" fill="none" stroke="#707070" stroke-width="1"/>
    </clipPath>
    <linearGradient id="linear-gradient-2" y1="0.5" x2="1" y2="0.5" gradientUnits="objectBoundingBox">
      <stop offset="0.035" stop-color="#be9800"/>
      <stop offset="0.298" stop-color="#fc0"/>
      <stop offset="0.898" stop-color="#fc0"/>
      <stop offset="1" stop-color="#e0b300"/>
    </linearGradient>
    <linearGradient id="linear-gradient-3" x1="0.058" y1="0.52" x2="1" y2="0.404" gradientUnits="objectBoundingBox">
      <stop offset="0" stop-color="#f1f1f1"/>
      <stop offset="0.046" stop-color="#f5f5f5"/>
      <stop offset="0.522" stop-color="#f5f5f5"/>
      <stop offset="0.723" stop-color="#e0e0e0"/>
      <stop offset="0.824" stop-color="#d9d9d9"/>
      <stop offset="1" stop-color="#d2d2d2"/>
    </linearGradient>
    <linearGradient id="linear-gradient-4" x1="-10.243" y1="57.869" x2="-9.534" y2="57.869" gradientUnits="objectBoundingBox">
      <stop offset="0" stop-color="#c397f2"/>
      <stop offset="1" stop-color="#f5f5ff"/>
    </linearGradient>
    <linearGradient id="linear-gradient-5" x1="-6.119" y1="36.936" x2="-5.428" y2="36.936" xlink:href="#linear-gradient-4"/>
  </defs>
  <g id="img_money_safe" transform="translate(-12153 -162)">
    <path id="vector_bg_2" d="M412.829,36.615C243.485-35.243,53.138-1.778,8.416,140.933S105.75,398.969,233.134,457.107s240.095,59.1,284.818-83.616S582.171,108.473,412.829,36.615Z" transform="matrix(-0.985, -0.174, 0.174, -0.985, 12693.72, 743.748)" fill="#ffe4d5" opacity="0.54"/>
    <path id="vector_bg_1" d="M412.829,36.615C243.485-35.243,53.138-1.778,8.416,140.933S105.75,398.969,233.134,457.107s240.095,59.1,284.818-83.616S582.171,108.473,412.829,36.615Z" transform="translate(12192 206)" fill="#ffe4d5" opacity="0.54"/>
   
    <g id="Group_13999" data-name="Group 13999" transform="translate(11849 37.824)">
      <g id="Group_13998" data-name="Group 13998">
        <g id="Group_13997" data-name="Group 13997" style="isolation: isolate">
          <g id="Group_13996" data-name="Group 13996">
            <path id="Path_74838" data-name="Path 74838" d="M561.823,327.042a3.919,3.919,0,0,0-3.554,0,1.089,1.089,0,0,0,.009,2.06,3.915,3.915,0,0,0,3.558,0,1.089,1.089,0,0,0-.013-2.06Z" fill="#6ae1c1"/>
          </g>
        </g>
      </g>
    </g>
    <g id="pin" transform="translate(9490 -961.611)">
      <g id="Group_14262" data-name="Group 14262" transform="translate(-7277.861 170.895)">
        <path id="Path_75599" data-name="Path 75599" d="M769.509,391.525a11.553,11.553,0,0,0-3.428,3.08c-.353.61-7.035,12.193-13.544,15.949a20.131,20.131,0,0,1-5.771,2.414,3.391,3.391,0,0,0-1.061.4,6.552,6.552,0,0,0-2.816,5.564l-.028,36.247c-.011,19.04,23.819,15.6,26.621,13.989,2.832-1.634,26.643-25.474,26.657-44.5l.042-36.254c0-2.391-1.2-3.271-2.835-2.326a5.415,5.415,0,0,0-1.035.8,31.762,31.762,0,0,1-5.649,4.127c-6.6,3.781-13.314-.162-13.667-.369A5.307,5.307,0,0,0,769.509,391.525Z" transform="translate(9454 911)" fill="#1a3a81"/>
        <path id="Path_74901" data-name="Path 74901" d="M769.509,391.525a11.553,11.553,0,0,0-3.428,3.08c-.353.61-7.035,12.193-13.544,15.949a20.131,20.131,0,0,1-5.771,2.414,3.391,3.391,0,0,0-1.061.4,6.552,6.552,0,0,0-2.816,5.564l-.028,36.247c-.011,19.04,23.819,15.6,26.621,13.989,2.832-1.634,26.643-25.474,26.657-44.5l.042-36.254c0-2.391-1.2-3.271-2.835-2.326a5.415,5.415,0,0,0-1.035.8,31.762,31.762,0,0,1-5.649,4.127c-6.6,3.781-13.314-.162-13.667-.369A5.307,5.307,0,0,0,769.509,391.525Z" transform="translate(9458.873 913.436)" fill="#ff975d"/>
        <path id="Path_74902" data-name="Path 74902" d="M760.932,470.617c-3.376,0-8.214-.52-12.089-2.993-4.108-2.623-6.189-6.822-6.185-12.48l.028-36.247a6.735,6.735,0,0,1,2.9-5.7,3.539,3.539,0,0,1,1.112-.421,20.116,20.116,0,0,0,5.72-2.4c6.243-3.6,12.754-14.628,13.475-15.873a11.667,11.667,0,0,1,3.5-3.155,5.446,5.446,0,0,1,3.6-.9l.049.019a15.589,15.589,0,0,0,7.4,1.979,12.117,12.117,0,0,0,6.1-1.611,31.778,31.778,0,0,0,5.616-4.1,5.6,5.6,0,0,1,1.069-.822,1.854,1.854,0,0,1,2.35.048,3.391,3.391,0,0,1,.728,2.42l-.042,36.254c-.014,19.077-23.88,42.992-26.739,44.641C768.58,469.816,765.2,470.617,760.932,470.617Zm11.455-79.9a5.994,5.994,0,0,0-2.836.914,11.346,11.346,0,0,0-3.377,3.036c-.724,1.253-7.277,12.348-13.594,15.993a20.481,20.481,0,0,1-5.822,2.433,3.272,3.272,0,0,0-1.01.382,6.4,6.4,0,0,0-2.734,5.423l-.029,36.247c0,5.54,2.028,9.646,6.034,12.2,3.809,2.431,8.581,2.941,11.913,2.941,4.022,0,7.479-.753,8.429-1.3,2.84-1.64,26.561-25.405,26.575-44.358l.041-36.254a3.089,3.089,0,0,0-.633-2.189c-.46-.463-1.157-.459-1.956,0a5.215,5.215,0,0,0-1,.774,32.171,32.171,0,0,1-5.681,4.15,12.437,12.437,0,0,1-6.264,1.654,15.959,15.959,0,0,1-7.543-2.009A2.67,2.67,0,0,0,772.388,390.716Z" transform="translate(9458.91 913.473)" fill="url(#linear-gradient)"/>
        <g id="Group_14090" data-name="Group 14090" transform="translate(10212.638 1315.379)" opacity="0.3" style="mix-blend-mode: overlay;isolation: isolate">
          <path id="Path_74903" data-name="Path 74903" d="M774.016,409.563a7.752,7.752,0,0,0-2.28,2.046c-.233.406-4.679,8.112-9.009,10.612a13.442,13.442,0,0,1-3.84,1.605,2.279,2.279,0,0,0-.706.268,4.357,4.357,0,0,0-1.873,3.7l-.019,24.116c-.007,12.668,15.848,10.377,17.712,9.309,1.884-1.088,17.725-16.949,17.734-29.607l.028-24.119c0-1.591-.8-2.178-1.886-1.549a3.733,3.733,0,0,0-.689.531,21.142,21.142,0,0,1-3.757,2.747c-4.392,2.514-8.858-.11-9.094-.246A3.534,3.534,0,0,0,774.016,409.563Z" transform="translate(-756.288 -405.697)" fill="#dfe6f5"/>
        </g>
        <g id="Group_14091" data-name="Group 14091" transform="translate(10217.988 1320.728)" opacity="0.3" style="mix-blend-mode: overlay;isolation: isolate">
          <path id="Path_74904" data-name="Path 74904" d="M780.6,416.15a7.648,7.648,0,0,0-2.281,2.049c-.234.406-4.68,8.109-9.01,10.608a13.451,13.451,0,0,1-3.84,1.609,2.14,2.14,0,0,0-.7.267,4.359,4.359,0,0,0-1.874,3.7l-.017,24.115c-.009,12.669,15.846,10.376,17.71,9.31,1.885-1.088,17.725-16.949,17.734-29.608l.028-24.119c0-1.593-.8-2.177-1.886-1.549a3.654,3.654,0,0,0-.689.531,21.175,21.175,0,0,1-3.758,2.746c-4.392,2.516-8.857-.107-9.093-.245A3.522,3.522,0,0,0,780.6,416.15Z" transform="translate(-762.877 -412.284)" fill="#dfe6f5"/>
        </g>
        <g id="Group_14261" data-name="Group 14261" transform="translate(10200.296 1325.78)">
          <g transform="matrix(1, 0, 0, 1, -259.44, -373.06)" filter="url(#Path_75600)">
            <path id="Path_75600-2" data-name="Path 75600" d="M8.983,0h53.6a3.248,3.248,0,0,1,3.248,3.248l-5.735,8.309a3.248,3.248,0,0,1-3.248,3.248H3.248A3.248,3.248,0,0,1,0,11.558L5.032,2.842C5.032,1.048,7.189,0,8.983,0Z" transform="translate(259.44 405.98) rotate(-30)" fill="#fff"/>
          </g>
          <g id="Mask_Group_56" data-name="Mask Group 56" transform="translate(11.295 4.463)" clip-path="url(#clip-path)">
            <path id="Path_75596" data-name="Path 75596" d="M358.7,132.751l.893-.934a.612.612,0,0,1,.2-.244l.406,1.137-.2.2a16.876,16.876,0,0,1-1.868,1.5.118.118,0,0,1,.081.041,5.944,5.944,0,0,1,1.34.975l-.974,1.381a12.593,12.593,0,0,1-1.1-1.421,1.27,1.27,0,0,0-.162.406,16.7,16.7,0,0,1-.934,2.274h-.122l-.853-.244a22.828,22.828,0,0,1,1.381-2.6q-1.136.365-2.071.609l.406-1.543a9.348,9.348,0,0,1,1.665-.2h.244q-.122-1.5-.122-2.152v-.081l1.137-.731a19.132,19.132,0,0,1-.2,2.477v.041A5.3,5.3,0,0,1,358.7,132.751Zm8.486-5.157a1.849,1.849,0,0,1,.284-.365l.406,1.137a13.036,13.036,0,0,1-2.071,1.705,5.235,5.235,0,0,1,1.421,1.015l-.975,1.34-.162-.162a7.089,7.089,0,0,1-.934-1.218v.041q-.082.2-.2.447a19.97,19.97,0,0,1-.893,2.193l-.975-.244a22.689,22.689,0,0,1,1.381-2.6q-.731.244-1.421.447l-.65.162.406-1.584h.162q.771-.122,1.34-.162h.406q-.082-1.1-.081-1.787a2.762,2.762,0,0,1-.041-.447l1.137-.731a18.02,18.02,0,0,1-.162,2.152,1.906,1.906,0,0,1-.041.365Q366.294,128.447,367.188,127.594Zm4.669-4.3,1.177-.69q-.04.975-.2,2.477a27.12,27.12,0,0,1,1.949-2.071l.406,1.178a20.8,20.8,0,0,1-2.071,1.705,5.236,5.236,0,0,1,1.421,1.015l-.975,1.3a6.534,6.534,0,0,1-.974-1.056c-.054-.081-.122-.176-.2-.284a21.3,21.3,0,0,1-1.056,2.68l-.974-.244q.974-1.949,1.34-2.6-.569.2-1.137.365c-.27.081-.555.162-.853.244l.325-1.584a3.559,3.559,0,0,1,.487-.041,9.808,9.808,0,0,1,1.462-.162Q371.857,123.9,371.857,123.29Zm1.177,16.039q-.04.975-.2,2.477a27.12,27.12,0,0,1,1.949-2.071l.406,1.178a20.8,20.8,0,0,1-2.071,1.705,5.236,5.236,0,0,1,1.421,1.015l-.975,1.3a6.535,6.535,0,0,1-.974-1.056c-.054-.081-.122-.176-.2-.284a21.3,21.3,0,0,1-1.056,2.68l-.974-.244q.974-1.949,1.34-2.6-.569.2-1.137.365c-.27.081-.555.162-.853.244l.325-1.584a3.559,3.559,0,0,1,.487-.041,9.809,9.809,0,0,1,1.462-.162q-.122-1.624-.122-2.233Zm-25.54.731.365-1.543a14.362,14.362,0,0,1,1.665-.244h.2q-.122-1.422-.122-2.111v-.122l1.218-.69a15.314,15.314,0,0,1-.244,2.436,27.709,27.709,0,0,1,1.99-2.03l.365,1.178a7.358,7.358,0,0,1-.69.609,12.449,12.449,0,0,1-1.34,1.1l.041.041a5.79,5.79,0,0,1,1.34.934l-.975,1.34a.036.036,0,0,1-.041-.041,6.449,6.449,0,0,1-1.1-1.3,1.6,1.6,0,0,1-.122.325q-.529,1.462-.934,2.355l-1.015-.244q1.015-1.989,1.381-2.6Q348.428,139.816,347.495,140.06Zm-2.883.325.406,1.1a13.038,13.038,0,0,1-2.071,1.705,5.236,5.236,0,0,1,1.421,1.015l-.974,1.381a9.015,9.015,0,0,1-1.1-1.421,25.184,25.184,0,0,1-1.1,2.68l-.975-.244a29.174,29.174,0,0,1,1.381-2.6q-1.137.406-2.071.65l.406-1.584a9.643,9.643,0,0,1,1.908-.162q-.122-1.624-.122-2.274l1.137-.731a20.217,20.217,0,0,1-.2,2.517Q343.556,141.4,344.612,140.385Zm22.86,3.573.406,1.137a13.037,13.037,0,0,1-2.071,1.705,5.237,5.237,0,0,1,1.421,1.015l-.975,1.34-.162-.162a7.088,7.088,0,0,1-.934-1.218v.041q-.082.2-.2.447a19.969,19.969,0,0,1-.893,2.193l-.975-.244a22.691,22.691,0,0,1,1.381-2.6q-.731.244-1.421.447l-.65.162.406-1.584h.162q.771-.122,1.34-.162h.406q-.082-1.1-.081-1.787a2.762,2.762,0,0,1-.041-.447l1.137-.731a18.019,18.019,0,0,1-.162,2.152,1.906,1.906,0,0,1-.041.365q.771-.853,1.665-1.705A1.85,1.85,0,0,1,367.472,143.958Zm-36.95,22.657a18.328,18.328,0,0,1-2.111,1.705,5.725,5.725,0,0,1,1.462,1.015l-1.015,1.381a10.694,10.694,0,0,1-1.137-1.421,21.3,21.3,0,0,1-1.056,2.68l-.974-.244q.934-1.909,1.3-2.6-1.056.365-1.99.65l.406-1.584a9.643,9.643,0,0,1,1.908-.162q-.162-1.624-.162-2.314l1.178-.69a25.129,25.129,0,0,1-.162,2.517,27.12,27.12,0,0,1,1.949-2.071Zm3.9-5.076,1.218-.69a15.314,15.314,0,0,1-.244,2.436,22.963,22.963,0,0,1,1.99-1.99l.365,1.137a18.857,18.857,0,0,1-2.03,1.705,6.025,6.025,0,0,1,1.381.974l-.974,1.381a8.528,8.528,0,0,1-1.137-1.381q-.609,1.705-1.056,2.68l-.975-.244q.975-1.949,1.34-2.6a18.839,18.839,0,0,1-1.99.65l.365-1.584a13.766,13.766,0,0,1,1.868-.2Q334.42,162.23,334.42,161.539Zm-7.106-10.232q-.162-1.624-.162-2.314l1.178-.69a25.129,25.129,0,0,1-.162,2.517,27.118,27.118,0,0,1,1.949-2.071l.406,1.137a18.325,18.325,0,0,1-2.111,1.705,5.725,5.725,0,0,1,1.462,1.015l-1.015,1.381a10.694,10.694,0,0,1-1.137-1.421,21.3,21.3,0,0,1-1.056,2.68L325.69,155q.934-1.909,1.3-2.6-1.056.365-1.99.65l.406-1.584A9.647,9.647,0,0,1,327.314,151.307Zm10.07-6.74.365,1.137a18.853,18.853,0,0,1-2.03,1.705,6.025,6.025,0,0,1,1.381.975l-.974,1.381a8.528,8.528,0,0,1-1.137-1.381q-.609,1.705-1.056,2.68l-.975-.244q.975-1.949,1.34-2.6a18.838,18.838,0,0,1-1.99.65l.365-1.584a13.767,13.767,0,0,1,1.868-.2q-.122-1.584-.122-2.274l1.218-.69a15.314,15.314,0,0,1-.244,2.436A22.965,22.965,0,0,1,337.384,144.567Zm4.345,12.79,1.137-.731a20.217,20.217,0,0,1-.2,2.517q.893-1.015,1.949-2.03l.406,1.1a13.037,13.037,0,0,1-2.071,1.705,5.235,5.235,0,0,1,1.421,1.015l-.974,1.381a9.015,9.015,0,0,1-1.1-1.421,25.187,25.187,0,0,1-1.1,2.68l-.975-.244a29.176,29.176,0,0,1,1.381-2.6q-1.137.406-2.071.65l.406-1.584a9.643,9.643,0,0,1,1.908-.162Q341.729,158.007,341.729,157.357Zm12.993-4.791.406-1.543a9.348,9.348,0,0,1,1.665-.2h.244q-.122-1.5-.122-2.152v-.081l1.137-.731a19.132,19.132,0,0,1-.2,2.477v.041a5.3,5.3,0,0,1,.853-.893l.893-.934a.612.612,0,0,1,.2-.244l.406,1.137-.2.2a16.876,16.876,0,0,1-1.868,1.5.118.118,0,0,1,.081.041,5.944,5.944,0,0,1,1.34.974l-.974,1.381a12.593,12.593,0,0,1-1.1-1.421,1.27,1.27,0,0,0-.162.406,16.7,16.7,0,0,1-.934,2.274h-.122l-.853-.244a22.828,22.828,0,0,1,1.381-2.6Q355.657,152.322,354.722,152.566Zm-5.116.325v-.122l1.218-.69a15.313,15.313,0,0,1-.244,2.436,27.715,27.715,0,0,1,1.99-2.03l.365,1.178a7.361,7.361,0,0,1-.69.609,12.449,12.449,0,0,1-1.34,1.1l.041.041a5.79,5.79,0,0,1,1.34.934l-.975,1.34a.036.036,0,0,1-.041-.041,6.449,6.449,0,0,1-1.1-1.3,1.6,1.6,0,0,1-.122.325q-.529,1.462-.934,2.355l-1.015-.244q1.015-1.989,1.381-2.6-1.056.365-1.99.609l.365-1.543a14.356,14.356,0,0,1,1.665-.244h.2Q349.606,153.581,349.606,152.891Z" transform="translate(-325 -122.145)" fill="#333" fill-rule="evenodd"/>
          </g>
        </g>
      </g>
      <path id="Path_75608" data-name="Path 75608" d="M-11.606-6.8h.9a2.986,2.986,0,0,0,1.881-.5A1.738,1.738,0,0,0-8.2-8.745a1.782,1.782,0,0,0-.523-1.415,2.45,2.45,0,0,0-1.639-.457h-1.239Zm6.152-2.039a3.927,3.927,0,0,1-1.3,3.173,5.544,5.544,0,0,1-3.687,1.1h-1.169V0h-2.725V-12.85h4.1a5.459,5.459,0,0,1,3.555,1.006A3.669,3.669,0,0,1-5.454-8.842ZM-3.028,0V-12.85H-.3V0ZM14.331,0H10.868L5.278-9.721H5.2q.167,2.575.167,3.674V0H2.931V-12.85H6.368l5.581,9.624h.062q-.132-2.5-.132-3.542V-12.85h2.452ZM-47.316,11.2h.9a2.986,2.986,0,0,0,1.881-.5,1.738,1.738,0,0,0,.624-1.446,1.782,1.782,0,0,0-.523-1.415,2.45,2.45,0,0,0-1.639-.457h-1.239Zm6.152-2.039a3.927,3.927,0,0,1-1.3,3.173,5.544,5.544,0,0,1-3.687,1.1h-1.169V18h-2.725V5.15h4.1a5.459,5.459,0,0,1,3.555,1.006A3.669,3.669,0,0,1-41.164,9.158Zm5.15,1.7h.879a3.362,3.362,0,0,0,1.907-.431,1.537,1.537,0,0,0,.615-1.354,1.406,1.406,0,0,0-.628-1.3,3.813,3.813,0,0,0-1.947-.387h-.826Zm0,2.215V18h-2.725V5.15h3.744a6.408,6.408,0,0,1,3.876.954A3.4,3.4,0,0,1-29.861,9a3.409,3.409,0,0,1-.624,2.017A4.129,4.129,0,0,1-32.251,12.4q2.9,4.333,3.779,5.6H-31.5l-3.067-4.931Zm20.821-1.512a6.973,6.973,0,0,1-1.582,4.9,5.865,5.865,0,0,1-4.535,1.714,5.865,5.865,0,0,1-4.535-1.714,7,7,0,0,1-1.582-4.922,6.9,6.9,0,0,1,1.586-4.9,5.932,5.932,0,0,1,4.548-1.692,5.85,5.85,0,0,1,4.531,1.705A6.99,6.99,0,0,1-15.192,11.558Zm-9.378,0a5.368,5.368,0,0,0,.817,3.243,2.86,2.86,0,0,0,2.443,1.09q3.261,0,3.261-4.333t-3.243-4.342A2.879,2.879,0,0,0-23.744,8.31,5.345,5.345,0,0,0-24.57,11.558Zm17,6.442H-10.3V7.418h-3.489V5.15h9.7V7.418H-7.572ZM5.3,18H-2.1V5.15H5.3V7.383H.62V10.2H4.97v2.232H.62V15.75H5.3ZM13.434,7.233a2.776,2.776,0,0,0-2.382,1.156,5.377,5.377,0,0,0-.844,3.221q0,4.3,3.226,4.3a10.2,10.2,0,0,0,3.278-.677v2.285a9.1,9.1,0,0,1-3.533.659,5.389,5.389,0,0,1-4.289-1.7A7.2,7.2,0,0,1,7.4,11.593a7.973,7.973,0,0,1,.729-3.511,5.272,5.272,0,0,1,2.1-2.312,6.2,6.2,0,0,1,3.2-.8,8.646,8.646,0,0,1,3.762.905l-.879,2.215a14.549,14.549,0,0,0-1.45-.6A4.326,4.326,0,0,0,13.434,7.233ZM24.4,18H21.678V7.418H18.189V5.15h9.7V7.418H24.4ZM37.27,18h-7.4V5.15h7.4V7.383H32.594V10.2h4.351v2.232H32.594V15.75H37.27Zm13.342-6.548a6.328,6.328,0,0,1-1.806,4.86A7.365,7.365,0,0,1,43.589,18H39.951V5.15h4.034a6.793,6.793,0,0,1,4.887,1.661A6.11,6.11,0,0,1,50.612,11.452Zm-2.83.07q0-4.14-3.656-4.14h-1.45V15.75h1.169Q47.782,15.75,47.782,11.522Z" transform="translate(2953.041 1576.436)" fill="#333"/>
      <style>
      @keyframes downUp{
        0%{
          transform: translate(9556px, -978.611px);
        }
        50%{
          transform: translate(9556px, -988.611px);
        }
        100%{
          transform: translate(9556px, -978.611px);
        }
      }
      #pin{
        animation : downUp 2s infinite;
      }
    </style>
    </g>
    <g id="auto_pin" transform="translate(9556 -978.611)">
      <g id="Group_14259" data-name="Group 14259" transform="translate(2516 1180.669)">
        <g id="Group_14256" data-name="Group 14256" transform="translate(245 -210)">
          <path id="Path_75545" data-name="Path 75545" d="M195.5,296.25a1.617,1.617,0,0,0-.7,1.3,1.871,1.871,0,0,0,1.15,1.6,4.989,4.989,0,0,0,2.8.65,5.506,5.506,0,0,0,2.75-.65,1.871,1.871,0,0,0,1.15-1.6,1.66,1.66,0,0,0-.6-1.25v-7l7.9-4.55,7.95-4.6,4.4-2.55a9.991,9.991,0,0,1,2.15-.9,10.418,10.418,0,0,1,1.2-.3v3.85a1.617,1.617,0,0,0-.7,1.3,1.871,1.871,0,0,0,1.15,1.6,4.989,4.989,0,0,0,2.8.65,5.506,5.506,0,0,0,2.75-.65,1.873,1.873,0,0,0,1.15-1.6,1.66,1.66,0,0,0-.6-1.25v-3.45a8.289,8.289,0,0,1,1.65.75,4.876,4.876,0,0,1,2.2,2.25,2.805,2.805,0,0,1,.2,1.05q0,1.95-2.35,3.35L204.6,301.2a13.134,13.134,0,0,1-11.6,0,4.807,4.807,0,0,1-2.2-2.3,2.785,2.785,0,0,1-.2-1.05q0-1.95,2.4-3.35l1.3-.725,1.2-.675v3.15Z" transform="translate(-114 8)" fill="#ffe270" fill-rule="evenodd"/>
          <path id="Path_75546" data-name="Path 75546" d="M236.45,305.675v8.275q0,1.95-2.4,3.35l-5.35,3.075L204.75,334.2a11.214,11.214,0,0,1-5.75,1.4l-.95-.05a10.582,10.582,0,0,1-4.85-1.35,11.716,11.716,0,0,1-2.4-1.75V298.9a4.807,4.807,0,0,0,2.2,2.3,13.134,13.134,0,0,0,11.6,0l29.3-16.95q2.351-1.4,2.35-3.35a2.805,2.805,0,0,0-.2-1.05l.4-.2ZM217.8,311.6a.15.15,0,0,1,.1.05v7.4l.1-.1,1.2.55,4.45-2.5v-8.15a1.976,1.976,0,0,1,.25-.45,8.165,8.165,0,0,0,1.2-4.05,2.817,2.817,0,0,0-1.25-2.7,2.928,2.928,0,0,0-1.05-.3.634.634,0,0,1-.25-.15,2.816,2.816,0,0,0-2.9.25,8.548,8.548,0,0,0-2.95,3.1,8.165,8.165,0,0,0-1.2,4.05,2.822,2.822,0,0,0,1.25,2.65A2.458,2.458,0,0,0,217.8,311.6Z" transform="translate(-114 8)" fill-rule="evenodd" fill="url(#linear-gradient-2)"/>
          <path id="Path_75547" data-name="Path 75547" d="M202.05,296.3a1.66,1.66,0,0,1,.6,1.25,1.871,1.871,0,0,1-1.15,1.6,5.506,5.506,0,0,1-2.75.65,4.989,4.989,0,0,1-2.8-.65,1.871,1.871,0,0,1-1.15-1.6,1.617,1.617,0,0,1,.7-1.3,3.392,3.392,0,0,0,.95,2.1,3.193,3.193,0,0,0,2.35.95,3.134,3.134,0,0,0,2.3-.95A3.351,3.351,0,0,0,202.05,296.3Zm30.15-16a1.66,1.66,0,0,1,.6,1.25,1.873,1.873,0,0,1-1.15,1.6,5.506,5.506,0,0,1-2.75.65,4.989,4.989,0,0,1-2.8-.65,1.871,1.871,0,0,1-1.15-1.6,1.617,1.617,0,0,1,.7-1.3,3.068,3.068,0,0,0,.95,2.1,3.133,3.133,0,0,0,2.3.95,3.262,3.262,0,0,0,3.3-3Z" transform="translate(-114 8)" fill="#b08c00" fill-rule="evenodd"/>
          <path id="Path_75548" data-name="Path 75548" d="M218,318.95l-.1.1V311.6h-.1a2.458,2.458,0,0,1-1.05-.35,2.822,2.822,0,0,1-1.25-2.65,8.165,8.165,0,0,1,1.2-4.05,8.548,8.548,0,0,1,2.95-3.1,2.816,2.816,0,0,1,2.9-.25.634.634,0,0,0,.25.15,3.066,3.066,0,0,1,.95,2.55,7.541,7.541,0,0,1-1.2,4.05q-.1.2-.25.45v8.1Z" transform="translate(-114 8)" fill="#8f7200" fill-rule="evenodd"/>
          <path id="Path_75549" data-name="Path 75549" d="M222.8,301.35a2.928,2.928,0,0,1,1.05.3,2.817,2.817,0,0,1,1.25,2.7,8.165,8.165,0,0,1-1.2,4.05,1.976,1.976,0,0,0-.25.45V317l-4.45,2.5-1.2-.55,4.3-2.45v-8.1q.15-.25.25-.45a7.541,7.541,0,0,0,1.2-4.05A3.066,3.066,0,0,0,222.8,301.35Zm-4.9,10.3a.15.15,0,0,0-.1-.05h.1Z" transform="translate(-114 8)" fill="#d1a000" fill-rule="evenodd"/>
          <path id="Path_75594" data-name="Path 75594" d="M-22018.965,16209.2v-14.213s2.682-17.456,13.432-21.992c9.664-4.733,10.285,4.142,10.285,4.142v16.68s-.053,2.452,3.324,2.452c3.242-.035,3.471-2.452,3.471-2.452V16175.1s-2.682-16.009-20.236-7.823c-14.328,7.367-16.174,26.541-16.174,26.541l-.234,15.26s.184,3.214,3.027,3.214S-22018.965,16209.2-22018.965,16209.2Z" transform="translate(22107 -15905)" fill="url(#linear-gradient-3)"/>
        </g>
        <path id="Path_75527" data-name="Path 75527" d="M310.05,159.106V133.1a5.481,5.481,0,0,1,2.924-5.071l28.154-16.255,17.732-10.25q1.462-.809,2.209-.4l3.344,1.96q-.711-.4-2.162.4l-45.886,26.505a5.481,5.481,0,0,0-2.924,5.071v25.821a2.612,2.612,0,0,0,.591,2.022l-3.453-1.991A2.638,2.638,0,0,1,310.05,159.106Z" transform="translate(21.475 2)" fill="#0d1b3a" fill-rule="evenodd"/>
        <path id="Path_75528" data-name="Path 75528" d="M343.2,149.471l-24.779,14.31q-1.462.84-2.209.4a.478.478,0,0,1-.124-.093,2.612,2.612,0,0,1-.591-2.022V136.25a5.481,5.481,0,0,1,2.924-5.071l45.886-26.505q1.45-.8,2.162-.4h.047q.716.4.715,2.115v25.821a5.481,5.481,0,0,1-2.924,5.071Zm15.352-36.709h-.093l-35.309,20.377a6.881,6.881,0,0,0-2.675,2.893,8.179,8.179,0,0,0-1.12,3.982v.715a3.679,3.679,0,0,0,1.182,3.111,2.363,2.363,0,0,0,2.862-.062l36.367-20.968a7.6,7.6,0,0,0,2.893-3.2,10.045,10.045,0,0,0,1.151-4.511,6.028,6.028,0,0,0-.28-1.96h-.093a3.483,3.483,0,0,0-.778-1.182,2.472,2.472,0,0,0-2.893.062Zm-39.2,40.411v.373a3.679,3.679,0,0,0,1.182,3.111,2.363,2.363,0,0,0,2.862-.062l36.367-20.968a7.6,7.6,0,0,0,2.893-3.2,10.045,10.045,0,0,0,1.151-4.511,6.028,6.028,0,0,0-.28-1.96h-.093a3.483,3.483,0,0,0-.778-1.182,2.472,2.472,0,0,0-2.893.062l-1.213.747h-.093l-35.309,20.377a6.881,6.881,0,0,0-2.675,2.893,8.179,8.179,0,0,0-1.12,3.982Z" transform="translate(19.416 0.809)" fill="#1a3a81" fill-rule="evenodd"/>
        <path id="Path_75529" data-name="Path 75529" d="M321.7,144.838a2.866,2.866,0,0,0,1.12,2.4,2.347,2.347,0,0,0,2.675-.218l35.247-20.283a7.109,7.109,0,0,0,2.675-2.924,8.179,8.179,0,0,0,1.12-3.982,2.931,2.931,0,0,0-1.12-2.675,2.207,2.207,0,0,0-2.52.093l1.213-.747a2.472,2.472,0,0,1,2.893-.062,3.483,3.483,0,0,1,.778,1.182h.093a6.029,6.029,0,0,1,.28,1.96A10.045,10.045,0,0,1,365,124.088a7.6,7.6,0,0,1-2.893,3.2L325.744,148.26a2.363,2.363,0,0,1-2.862.062,3.679,3.679,0,0,1-1.182-3.111Zm39.2-14.777,1.213-.747a2.472,2.472,0,0,1,2.893-.062,3.483,3.483,0,0,1,.778,1.182h.093a6.028,6.028,0,0,1,.28,1.96A10.045,10.045,0,0,1,365,136.905a7.6,7.6,0,0,1-2.893,3.2l-36.367,20.968a2.363,2.363,0,0,1-2.862.062,3.679,3.679,0,0,1-1.182-3.111v-.373a2.866,2.866,0,0,0,1.12,2.4,2.347,2.347,0,0,0,2.675-.218l35.247-20.283a7.109,7.109,0,0,0,2.675-2.924,8.179,8.179,0,0,0,1.12-3.982,2.931,2.931,0,0,0-1.12-2.675A2.207,2.207,0,0,0,360.9,130.061Z" transform="translate(17.072 -3.673)" fill="#577dd4" fill-rule="evenodd"/>
        <path id="Path_75531" data-name="Path 75531" d="M350.821,130.377l.684-.716a.469.469,0,0,1,.156-.187l.311.871-.156.156a12.932,12.932,0,0,1-1.431,1.151.091.091,0,0,1,.062.031,4.554,4.554,0,0,1,1.027.747l-.747,1.058a9.646,9.646,0,0,1-.84-1.089.974.974,0,0,0-.124.311,12.794,12.794,0,0,1-.716,1.742h-.093l-.653-.187a17.492,17.492,0,0,1,1.058-1.991q-.871.28-1.587.467l.311-1.182a7.161,7.161,0,0,1,1.275-.156h.187q-.093-1.151-.093-1.649v-.062l.871-.56a14.652,14.652,0,0,1-.156,1.9v.031A4.057,4.057,0,0,1,350.821,130.377Zm6.5-3.951a1.417,1.417,0,0,1,.218-.28l.311.871a9.987,9.987,0,0,1-1.587,1.307,4.011,4.011,0,0,1,1.089.778l-.747,1.027-.124-.124a5.435,5.435,0,0,1-.716-.933v.031q-.063.156-.156.342a15.3,15.3,0,0,1-.684,1.68l-.747-.187a17.377,17.377,0,0,1,1.058-1.991q-.56.187-1.089.342l-.5.124.311-1.213h.124q.591-.093,1.027-.124h.311q-.063-.84-.062-1.369a2.118,2.118,0,0,1-.031-.342l.871-.56a13.8,13.8,0,0,1-.124,1.649,1.459,1.459,0,0,1-.031.28Q356.638,127.08,357.323,126.426Zm3.578-3.3.9-.529q-.031.747-.156,1.9a20.783,20.783,0,0,1,1.493-1.587l.311.9a15.927,15.927,0,0,1-1.587,1.307,4.012,4.012,0,0,1,1.089.778l-.747,1a5.007,5.007,0,0,1-.747-.809c-.042-.062-.093-.135-.156-.218a16.328,16.328,0,0,1-.809,2.053l-.747-.187q.747-1.493,1.027-1.991-.436.156-.871.28c-.207.062-.426.124-.653.187L359.5,125a2.728,2.728,0,0,1,.373-.031,7.514,7.514,0,0,1,1.12-.124Q360.9,123.6,360.9,123.129Zm.9,12.288q-.031.747-.156,1.9a20.783,20.783,0,0,1,1.493-1.587l.311.9a15.929,15.929,0,0,1-1.587,1.307,4.012,4.012,0,0,1,1.089.778l-.747,1a5.008,5.008,0,0,1-.747-.809c-.042-.062-.093-.135-.156-.218a16.328,16.328,0,0,1-.809,2.053l-.747-.187q.747-1.493,1.027-1.991-.436.156-.871.28c-.207.062-.426.124-.653.187l.249-1.213a2.726,2.726,0,0,1,.373-.031,7.515,7.515,0,0,1,1.12-.124q-.093-1.244-.093-1.711Zm-19.568.56.28-1.182a11,11,0,0,1,1.275-.187h.156q-.093-1.089-.093-1.618V132.9l.933-.529a11.731,11.731,0,0,1-.187,1.867,21.231,21.231,0,0,1,1.524-1.555l.28.9a5.629,5.629,0,0,1-.529.467,9.537,9.537,0,0,1-1.027.84l.031.031a4.435,4.435,0,0,1,1.027.716l-.747,1.027a.028.028,0,0,1-.031-.031,4.941,4.941,0,0,1-.84-1,1.226,1.226,0,0,1-.093.249q-.405,1.12-.716,1.8l-.778-.187q.777-1.524,1.058-1.991Q342.95,135.79,342.235,135.977Zm-2.209.249.311.84a9.989,9.989,0,0,1-1.587,1.307,4.012,4.012,0,0,1,1.089.778l-.747,1.058a6.906,6.906,0,0,1-.84-1.089,19.3,19.3,0,0,1-.84,2.053l-.747-.187a22.361,22.361,0,0,1,1.058-1.991q-.871.311-1.587.5l.311-1.213a7.389,7.389,0,0,1,1.462-.124q-.093-1.244-.093-1.742l.871-.56a15.489,15.489,0,0,1-.156,1.929Q339.217,137,340.026,136.226Zm17.514,2.738.311.871a9.988,9.988,0,0,1-1.587,1.307,4.012,4.012,0,0,1,1.089.778l-.747,1.027-.124-.124a5.434,5.434,0,0,1-.716-.933v.031q-.063.156-.156.342a15.3,15.3,0,0,1-.684,1.68l-.747-.187a17.378,17.378,0,0,1,1.058-1.991q-.56.187-1.089.342l-.5.124.311-1.213h.124q.591-.093,1.027-.124h.311q-.063-.84-.062-1.369a2.118,2.118,0,0,1-.031-.342l.871-.56a13.8,13.8,0,0,1-.124,1.649,1.459,1.459,0,0,1-.031.28q.591-.653,1.276-1.307A1.417,1.417,0,0,1,357.54,138.963Zm-28.309,17.359a14.037,14.037,0,0,1-1.618,1.307,4.386,4.386,0,0,1,1.12.778l-.778,1.058a8.192,8.192,0,0,1-.871-1.089,16.319,16.319,0,0,1-.809,2.053l-.747-.187q.716-1.462,1-1.991-.809.28-1.524.5l.311-1.213a7.386,7.386,0,0,1,1.462-.124q-.124-1.244-.124-1.773l.9-.529a19.249,19.249,0,0,1-.124,1.929,20.786,20.786,0,0,1,1.493-1.587Zm2.987-3.889.933-.529a11.735,11.735,0,0,1-.187,1.867,17.591,17.591,0,0,1,1.524-1.524l.28.871a14.447,14.447,0,0,1-1.555,1.307,4.616,4.616,0,0,1,1.058.747l-.747,1.058a6.532,6.532,0,0,1-.871-1.058q-.467,1.307-.809,2.053l-.747-.187q.747-1.493,1.027-1.991a14.432,14.432,0,0,1-1.524.5l.28-1.213a10.548,10.548,0,0,1,1.431-.156Q332.217,152.963,332.217,152.434Zm-5.444-7.84q-.124-1.244-.124-1.773l.9-.529a19.249,19.249,0,0,1-.124,1.929,20.783,20.783,0,0,1,1.493-1.587l.311.871a14.036,14.036,0,0,1-1.618,1.307,4.385,4.385,0,0,1,1.12.778l-.778,1.058a8.193,8.193,0,0,1-.871-1.089,16.321,16.321,0,0,1-.809,2.053l-.747-.187q.716-1.462,1-1.991-.809.28-1.524.5l.311-1.213A7.389,7.389,0,0,1,326.773,144.594Zm7.715-5.164.28.871a14.445,14.445,0,0,1-1.555,1.307,4.617,4.617,0,0,1,1.058.747l-.747,1.058a6.533,6.533,0,0,1-.871-1.058q-.467,1.307-.809,2.053l-.747-.187q.747-1.493,1.027-1.991a14.428,14.428,0,0,1-1.524.5l.28-1.213a10.547,10.547,0,0,1,1.431-.156q-.093-1.213-.093-1.742l.933-.529a11.735,11.735,0,0,1-.187,1.867A17.591,17.591,0,0,1,334.488,139.43Zm3.329,9.8.871-.56a15.489,15.489,0,0,1-.156,1.929q.684-.777,1.493-1.555l.311.84a9.989,9.989,0,0,1-1.587,1.307,4.011,4.011,0,0,1,1.089.778l-.747,1.058a6.906,6.906,0,0,1-.84-1.089,19.3,19.3,0,0,1-.84,2.053l-.747-.187a22.358,22.358,0,0,1,1.058-1.991q-.871.311-1.587.5l.311-1.213a7.389,7.389,0,0,1,1.462-.124Q337.817,149.728,337.817,149.23Zm9.955-3.671.311-1.182a7.162,7.162,0,0,1,1.275-.156h.187q-.093-1.151-.093-1.649v-.062l.871-.56a14.652,14.652,0,0,1-.156,1.9v.031a4.057,4.057,0,0,1,.653-.684l.684-.716a.469.469,0,0,1,.156-.187l.311.871-.156.156a12.93,12.93,0,0,1-1.431,1.151.091.091,0,0,1,.062.031,4.554,4.554,0,0,1,1.027.747l-.747,1.058a9.646,9.646,0,0,1-.84-1.089.974.974,0,0,0-.124.311,12.793,12.793,0,0,1-.716,1.742h-.093l-.653-.187a17.492,17.492,0,0,1,1.058-1.991Q348.488,145.372,347.772,145.559Zm-3.92.249v-.093l.933-.529a11.731,11.731,0,0,1-.187,1.867,21.234,21.234,0,0,1,1.524-1.555l.28.9a5.627,5.627,0,0,1-.529.467,9.535,9.535,0,0,1-1.027.84l.031.031a4.436,4.436,0,0,1,1.027.715l-.747,1.027a.028.028,0,0,1-.031-.031,4.941,4.941,0,0,1-.84-1,1.226,1.226,0,0,1-.093.249q-.405,1.12-.716,1.8l-.778-.187q.777-1.524,1.058-1.991-.809.28-1.524.467l.28-1.182a11,11,0,0,1,1.275-.187h.156Q343.852,146.336,343.852,145.807Z" transform="translate(15.826 -6.167)" fill="#333" fill-rule="evenodd"/>
      </g>
      <path id="Path_75606" data-name="Path 75606" d="M-34.189,0l-.932-3.059h-4.685L-40.737,0h-2.936l4.535-12.9h3.331L-31.254,0Zm-1.582-5.344q-1.292-4.157-1.455-4.7t-.233-.861q-.29,1.125-1.661,5.563Zm16.594-7.506v8.314a4.793,4.793,0,0,1-.637,2.5A4.147,4.147,0,0,1-21.656-.4,6.585,6.585,0,0,1-24.5.176a5.453,5.453,0,0,1-3.85-1.27A4.505,4.505,0,0,1-29.725-4.57V-12.85h2.716v7.866a3.3,3.3,0,0,0,.6,2.18,2.485,2.485,0,0,0,1.978.694,2.429,2.429,0,0,0,1.938-.7A3.312,3.312,0,0,0-21.894-5V-12.85ZM-11.074,0H-13.8V-10.582h-3.489V-12.85h9.7v2.268h-3.489ZM6.056-6.442a6.973,6.973,0,0,1-1.582,4.9A5.865,5.865,0,0,1-.062.176,5.865,5.865,0,0,1-4.6-1.538,7,7,0,0,1-6.179-6.46a6.9,6.9,0,0,1,1.586-4.9A5.932,5.932,0,0,1-.044-13.052a5.85,5.85,0,0,1,4.531,1.705A6.99,6.99,0,0,1,6.056-6.442Zm-9.378,0A5.368,5.368,0,0,0-2.5-3.2,2.86,2.86,0,0,0-.062-2.109Q3.2-2.109,3.2-6.442T-.044-10.784A2.879,2.879,0,0,0-2.5-9.69,5.345,5.345,0,0,0-3.322-6.442ZM16.119-6.8h.9A2.986,2.986,0,0,0,18.9-7.3a1.738,1.738,0,0,0,.624-1.446A1.782,1.782,0,0,0,19-10.16a2.45,2.45,0,0,0-1.639-.457H16.119Zm6.152-2.039a3.927,3.927,0,0,1-1.3,3.173,5.544,5.544,0,0,1-3.687,1.1H16.119V0H13.395V-12.85h4.1a5.459,5.459,0,0,1,3.555,1.006A3.669,3.669,0,0,1,22.271-8.842ZM24.7,0V-12.85h2.725V0ZM42.056,0H38.593L33-9.721h-.079q.167,2.575.167,3.674V0H30.656V-12.85h3.437l5.581,9.624h.062Q39.6-5.73,39.6-6.768V-12.85h2.452ZM-28.389,5.15h4a7.706,7.706,0,0,1,3.968.778A2.708,2.708,0,0,1-19.187,8.4a3.117,3.117,0,0,1-.541,1.89,2.159,2.159,0,0,1-1.437.888v.088a2.831,2.831,0,0,1,1.762,1.02,3.317,3.317,0,0,1,.541,1.986,3.273,3.273,0,0,1-1.27,2.742,5.493,5.493,0,0,1-3.45.984h-4.808Zm2.725,5.089h1.582a2.892,2.892,0,0,0,1.6-.343,1.279,1.279,0,0,0,.5-1.134A1.135,1.135,0,0,0-22.522,7.7a3.474,3.474,0,0,0-1.709-.321h-1.433Zm0,2.162V15.75h1.775a2.633,2.633,0,0,0,1.661-.431A1.59,1.59,0,0,0-21.691,14q0-1.6-2.285-1.6Zm9.369,5.6V5.15h2.725v10.6h5.212V18ZM5.537,11.558a6.973,6.973,0,0,1-1.582,4.9A5.865,5.865,0,0,1-.58,18.176a5.865,5.865,0,0,1-4.535-1.714A7,7,0,0,1-6.7,11.54a6.9,6.9,0,0,1,1.586-4.9A5.932,5.932,0,0,1-.562,4.948,5.85,5.85,0,0,1,3.968,6.653,6.99,6.99,0,0,1,5.537,11.558Zm-9.378,0A5.368,5.368,0,0,0-3.023,14.8,2.86,2.86,0,0,0-.58,15.891q3.261,0,3.261-4.333T-.562,7.216A2.879,2.879,0,0,0-3.015,8.31,5.345,5.345,0,0,0-3.841,11.558Zm17.5-4.324a2.776,2.776,0,0,0-2.382,1.156,5.377,5.377,0,0,0-.844,3.221q0,4.3,3.226,4.3a10.2,10.2,0,0,0,3.278-.677v2.285a9.1,9.1,0,0,1-3.533.659,5.389,5.389,0,0,1-4.289-1.7,7.2,7.2,0,0,1-1.485-4.882,7.973,7.973,0,0,1,.729-3.511,5.272,5.272,0,0,1,2.1-2.312,6.2,6.2,0,0,1,3.2-.8,8.646,8.646,0,0,1,3.762.905l-.879,2.215a14.549,14.549,0,0,0-1.45-.6A4.326,4.326,0,0,0,13.658,7.233ZM30.006,18H26.912l-3.366-5.414-1.151.826V18H19.67V5.15h2.725v5.88l1.072-1.512,3.48-4.368h3.023l-4.482,5.687Z" transform="translate(2783 1285.663)" fill="#333"/>
       <style>
      @keyframes upDown{
        0%{
          transform: translate(9556px, -978.611px);
        }
        50%{
          transform: translate(9556px, -990px);
        }
        100%{
          transform: translate(9556px, -978.611px);
        }
      }
      #auto_pin{
        animation : upDown 2s infinite;
      }
    </style>
    </g>
    <g id="hotlist" transform="translate(9571 -944.611)">
      <g id="Group_14260" data-name="Group 14260" transform="translate(-7287 222.277)">
        <path id="Path_75593" data-name="Path 75593" d="M22109.127-15484.544h0c-1.41-.158-2.127-1.546-2.127-4.124v-34.151a10.649,10.649,0,0,1,1.352-5.426,10.744,10.744,0,0,1,4.051-3.876l36.625-21.148,16.523-9.521.8-.451,69.645-40.23a6.353,6.353,0,0,1,2.973-1.032,2.136,2.136,0,0,1,2.1,1.811,2.34,2.34,0,0,0-.242-.012,6.329,6.329,0,0,0-2.98,1.037l-123.6,71.351a10.1,10.1,0,0,0-5.4,9.3v34.146a8.313,8.313,0,0,0,.273,2.326Zm7.93-6.774c-1.295,0-1.953-1.145-1.953-3.4v-25.2a8.486,8.486,0,0,1,1.1-4.352,8.848,8.848,0,0,1,3.295-3.146l21.8-12.6a5.292,5.292,0,0,1,2.473-.862c1.279,0,1.928,1.114,1.928,3.313v25.2a8.842,8.842,0,0,1-1.1,4.464,8.8,8.8,0,0,1-3.3,3.187l-21.8,12.552A5.2,5.2,0,0,1,22117.057-15491.318Zm9.592-21.7-.7.852c-.615.75-1.064,1.3-1.395,1.694a13.408,13.408,0,0,0-1.949,2.7c-.4.955-.818,2.167-1.252,3.6-.307.819-.678,2.045-1.1,3.645a1.878,1.878,0,0,0-.1,1.454.52.52,0,0,0,.465.318.97.97,0,0,0,.486-.167c2.176-1.179,5.119-2.845,8.75-4.952,4.324-2.536,7.17-4.187,8.7-5.047a14.522,14.522,0,0,0,1.4-.9,2.856,2.856,0,0,0,.8-1.6,6.665,6.665,0,0,0-.6-1.949l-.9-1.6c-.23-.518-.459-1.01-.7-1.5a1.479,1.479,0,0,0-1.148-.7c-.41-.034-.965-.068-1.65-.1-.371.017-.7.025-.963.025s-.5-.009-.687-.025a21.312,21.312,0,0,1-1.8,2,9.463,9.463,0,0,1-1.9,1.6,4.826,4.826,0,0,1-1.9.6,4.357,4.357,0,0,1-.971.089C22127.275-15512.979,22126.986-15512.991,22126.648-15513.017Zm6.113-15.732a3.545,3.545,0,0,0-.908.133,7.832,7.832,0,0,0-3.105,1.8,11.2,11.2,0,0,0-1.645,2.152,8.48,8.48,0,0,0-.951,2.546,9.956,9.956,0,0,0-.3,4.355,3.481,3.481,0,0,0,1.744,2.749,2.184,2.184,0,0,0,.908.19,3.849,3.849,0,0,0,1.74-.5,7.31,7.31,0,0,0,2.754-2.7,12.52,12.52,0,0,0,2-5.447,7.289,7.289,0,0,0-.7-4.5A1.746,1.746,0,0,0,22132.762-15528.749Zm18.689,12.781,0,0h0v-4.848l67.75-39.1v4.851l-67.75,39.1Zm.146-9.5,0,0h0v-4.848l78.5-45.3v4.8l-78.5,45.352Zm0-9.454,0,0h0v-4.848l78.5-45.295v4.846l-78.5,45.3Z" transform="translate(-11839.051 16662.068)" fill="#1a3a81" stroke="rgba(0,0,0,0)" stroke-width="1"/>
        <path id="Path_75532" data-name="Path 75532" d="M215.5,444.675,199,454.2l-30.225,17.45L164.2,474.3q-4.185,2.4-5.125-.775a8.347,8.347,0,0,1-.275-2.325V437.05a10.065,10.065,0,0,1,5.4-9.3L287.8,356.4a5.78,5.78,0,0,1,3.225-1.025q2.125.221,2.125,4.125v34.525a10.055,10.055,0,0,1-5.35,8.925L216.325,444.2Zm64.55-62.225-78.5,45.3v4.85l78.5-45.35Zm0-9.45-78.5,45.3v4.85l78.5-45.3Zm-10.9,25.15-67.75,39.1v4.85L269.15,403Zm-77.9,19.9-21.8,12.6a8.173,8.173,0,0,0-4.4,7.5v25.2q0,5.1,4.4,2.55l21.8-12.55a8.294,8.294,0,0,0,4.4-7.65V420.5Q195.65,415.5,191.25,418.05Z" transform="translate(10111 704)" fill="#dfe6f5" fill-rule="evenodd"/>
      </g>
      <path id="Path_75605" data-name="Path 75605" d="M-25.348,0h-2.716V-5.546h-5.089V0h-2.725V-12.85h2.725v5.036h5.089V-12.85h2.716Zm14.906-6.442a6.973,6.973,0,0,1-1.582,4.9A5.865,5.865,0,0,1-16.559.176a5.865,5.865,0,0,1-4.535-1.714A7,7,0,0,1-22.676-6.46a6.9,6.9,0,0,1,1.586-4.9,5.932,5.932,0,0,1,4.548-1.692,5.85,5.85,0,0,1,4.531,1.705A6.99,6.99,0,0,1-10.441-6.442Zm-9.378,0A5.368,5.368,0,0,0-19-3.2a2.86,2.86,0,0,0,2.443,1.09q3.261,0,3.261-4.333t-3.243-4.342A2.879,2.879,0,0,0-18.993-9.69,5.345,5.345,0,0,0-19.819-6.442ZM-2.821,0H-5.546V-10.582H-9.035V-12.85h9.7v2.268H-2.821ZM2.646,0V-12.85H5.37v10.6h5.212V0ZM12.814,0V-12.85h2.725V0ZM26.358-3.568A3.322,3.322,0,0,1,25.106-.826a5.441,5.441,0,0,1-3.485,1A8.184,8.184,0,0,1,17.982-.6V-3.129a15,15,0,0,0,2.2.817,6.515,6.515,0,0,0,1.648.237,2.343,2.343,0,0,0,1.375-.343,1.172,1.172,0,0,0,.479-1.02,1.125,1.125,0,0,0-.211-.672,2.36,2.36,0,0,0-.62-.567,15.936,15.936,0,0,0-1.666-.87,7.894,7.894,0,0,1-1.767-1.063,3.992,3.992,0,0,1-.94-1.187,3.386,3.386,0,0,1-.352-1.582,3.321,3.321,0,0,1,1.156-2.681,4.8,4.8,0,0,1,3.195-.976,7.544,7.544,0,0,1,1.912.237,13.14,13.14,0,0,1,1.9.668l-.879,2.118a12.859,12.859,0,0,0-1.7-.589,5.474,5.474,0,0,0-1.323-.167,1.752,1.752,0,0,0-1.187.36,1.189,1.189,0,0,0-.413.94,1.164,1.164,0,0,0,.167.628,1.836,1.836,0,0,0,.532.519,16.441,16.441,0,0,0,1.727.9,6.872,6.872,0,0,1,2.47,1.727A3.371,3.371,0,0,1,26.358-3.568ZM33.645,0H30.92V-10.582H27.431V-12.85h9.7v2.268H33.645Z" transform="translate(2987 1317.277)" fill="#333"/>
      <style>
      @keyframes rightLeft{
        0%{
          transform: translate(9556px, -978.611px);
        }
        50%{
          transform: translate(9580px, -978.611px);
        }
        100%{
          transform: translate(9556px, -978.611px);
        }
      }
      #hotlist{
        animation : rightLeft 2s infinite;
      }
    </style>
    </g>
    <g id="multicontrol" transform="translate(9503 -918.611)">
      <g id="Group_14265" data-name="Group 14265" transform="translate(-7050.414 361.525)">
        <g id="Group_14263" data-name="Group 14263" transform="translate(10179.7 1067.455)">
          <path id="Path_75513" data-name="Path 75513" d="M801.245,304.52c.034-.229.073-.456.122-.689.012-.058.025-.12.039-.182.023-.106.047-.216.073-.322.017-.072.036-.141.055-.212.028-.1.055-.207.085-.311.015-.053.031-.109.05-.169.077-.261.161-.525.255-.784.014-.044.032-.087.047-.127.081-.222.168-.446.261-.668a.3.3,0,0,1,.023-.057c.089-.221.187-.435.289-.647.023-.053.049-.107.074-.158.087-.178.175-.357.266-.533.017-.034.032-.065.049-.1.1-.2.215-.4.326-.592.028-.052.058-.1.087-.147.088-.154.181-.306.275-.459.033-.049.064-.1.1-.157.117-.186.24-.371.367-.555.027-.042.058-.083.087-.123.109-.159.222-.315.336-.47.033-.046.069-.094.106-.139.147-.194.295-.388.451-.575.021-.03.045-.054.066-.081.16-.2.326-.388.495-.576.021-.021.04-.047.061-.066.21-.231.422-.454.641-.673.03-.029.061-.061.089-.09.13-.127.261-.251.4-.376a.228.228,0,0,0,.031-.033c.145-.127.289-.255.436-.381.032-.029.065-.055.1-.082.191-.162.381-.313.575-.459l.061-.048c.2-.155.408-.3.613-.433.041-.03.084-.057.127-.087q.3-.2.613-.379l.117-.062c.214-.125.435-.241.655-.347.178-.087.352-.163.527-.234.049-.018.1-.039.151-.06.129-.05.26-.1.389-.146.048-.012.094-.032.142-.047.118-.037.236-.073.356-.1.032-.01.063-.017.1-.028.149-.039.292-.072.441-.1.085-.017.167-.032.252-.044.039-.007.08-.013.119-.018.121-.017.243-.031.366-.042.182-.015.361-.016.535-.013.036,0,.071,0,.107.005a4.582,4.582,0,0,1,.461.036.687.687,0,0,1,.083.014c.119.02.238.043.353.068l.107.027a4.127,4.127,0,0,1,.4.12l.018.01a3.25,3.25,0,0,1,.348.152c.033.015.067.036.1.054a2.859,2.859,0,0,1,.278.162c.032.019.065.039.1.059l-4.221-2.9a.259.259,0,0,1-.042-.027c-.018-.012-.036-.02-.052-.031-.092-.058-.183-.112-.278-.163-.02-.011-.037-.024-.056-.036a.2.2,0,0,1-.047-.016,3.267,3.267,0,0,0-.346-.151c-.007,0-.012-.01-.016-.01l-.005,0q-.19-.067-.392-.122c-.016,0-.029-.01-.047-.013a.433.433,0,0,1-.06-.012c-.117-.027-.238-.051-.359-.068a.4.4,0,0,0-.057-.011l-.021,0c-.151-.022-.3-.035-.461-.042a.231.231,0,0,1-.047,0,.351.351,0,0,1-.06,0,5.066,5.066,0,0,0-.535.016h0c-.122.008-.244.021-.366.038-.046.007-.091.017-.138.021-.07.012-.139.022-.213.036-.007,0-.016.005-.019.007-.147.028-.295.062-.443.1-.032.005-.062.018-.092.026-.119.033-.239.066-.361.108a.221.221,0,0,0-.049.012c-.03.014-.062.023-.093.037-.13.044-.26.092-.392.145-.048.018-.1.037-.146.057-.175.072-.351.147-.528.233-.22.109-.44.227-.659.35-.037.018-.074.039-.109.061-.209.119-.416.248-.623.383-.036.026-.076.052-.115.078-.21.14-.416.283-.621.44-.017.011-.032.025-.051.037-.2.153-.395.309-.588.472-.018.016-.037.029-.057.045l-.033.027c-.148.128-.293.256-.44.39a.152.152,0,0,1-.022.024c-.137.123-.274.257-.408.388a.18.18,0,0,0-.037.034.514.514,0,0,0-.047.048c-.219.216-.431.441-.64.67l-.018.017c-.019.023-.037.042-.054.062-.167.187-.33.377-.489.569-.016.018-.031.034-.044.051a.214.214,0,0,1-.018.024c-.155.192-.308.384-.455.58a.335.335,0,0,0-.042.052c-.02.03-.038.052-.058.082-.118.157-.233.317-.346.481l-.059.079a.179.179,0,0,0-.021.033c-.128.186-.252.373-.372.561-.009.018-.021.031-.031.051s-.04.067-.062.1c-.092.149-.183.3-.272.451-.021.034-.044.067-.062.1s-.022.041-.033.062c-.113.194-.219.387-.322.583a.149.149,0,0,0-.012.026.732.732,0,0,0-.038.074c-.092.177-.181.352-.267.532-.013.03-.028.056-.041.085l-.032.07c-.1.216-.2.43-.286.65,0,0-.005.006-.008.012s-.012.031-.019.047c-.092.222-.177.446-.259.667-.008.028-.023.054-.032.082s-.011.031-.016.044c-.093.258-.178.523-.255.786-.008.024-.017.047-.023.065-.009.038-.018.072-.027.1-.029.1-.058.208-.086.31-.017.071-.036.142-.054.213-.024.11-.05.217-.074.324-.011.047-.023.1-.033.142,0,.014-.005.024-.007.039-.048.228-.086.456-.118.684q-.011.069-.02.142c-.032.232-.058.461-.077.688-.18,2.519.575,4.359,1.944,5.3l4.225,2.9c-1.373-.94-2.128-2.779-1.945-5.293.016-.231.042-.462.073-.7C801.233,304.608,801.24,304.568,801.245,304.52Z" transform="translate(-786.503 -288.439)" fill="url(#linear-gradient-4)"/>
          <path id="Path_75514" data-name="Path 75514" d="M810.991,292.757c4.6-2.211,8.03.1,7.661,5.162s-4.391,10.967-8.991,13.182-8.029-.1-7.66-5.168S806.391,294.969,810.991,292.757Z" transform="translate(-787.351 -289.021)" fill="#1a3a81"/>
          <path id="Path_75515" data-name="Path 75515" d="M806.942,323.806c8.721-4.2,15.043,2.712,14.121,15.425l-31.582,15.2C790.4,341.712,798.22,328,806.942,323.806Z" transform="translate(-785.261 -294.149)" fill="#1a3a81"/>
          <path id="Path_75516" data-name="Path 75516" d="M788.9,351.388c.023-.169.05-.336.078-.507.037-.242.073-.487.114-.729.03-.177.066-.358.1-.535.044-.232.086-.466.133-.7q.1-.52.222-1.038c.01-.047.025-.094.033-.141.073-.311.151-.629.23-.941.028-.1.053-.207.082-.309.077-.283.152-.57.235-.853.021-.079.041-.154.062-.23.046-.152.093-.3.139-.457.087-.284.175-.566.265-.854.052-.157.106-.316.159-.478.088-.262.177-.526.271-.788.069-.187.136-.375.2-.56s.133-.364.2-.546c.075-.2.153-.393.232-.59s.143-.365.218-.542c.088-.213.182-.425.267-.638.06-.135.12-.269.178-.406.107-.244.217-.485.329-.726.05-.106.1-.214.149-.321.033-.074.07-.143.106-.221.227-.473.462-.947.7-1.4.052-.1.1-.2.154-.3.246-.466.5-.927.761-1.377.057-.1.117-.2.176-.3.208-.352.418-.7.634-1.046.067-.112.137-.221.2-.331.261-.406.526-.812.8-1.2.03-.043.059-.083.087-.124.246-.353.493-.7.744-1.034.079-.107.159-.212.238-.313.228-.3.462-.6.7-.888.071-.09.144-.184.214-.271.057-.064.11-.132.163-.194.167-.2.331-.387.5-.579.058-.071.12-.137.182-.206.183-.207.367-.407.55-.605.045-.043.086-.089.129-.133.224-.236.451-.466.676-.688.113-.109.227-.216.341-.322.137-.129.27-.26.408-.386.117-.108.237-.209.356-.311.142-.126.282-.251.423-.368.051-.044.1-.08.148-.121.2-.167.4-.326.6-.483.04-.032.08-.062.121-.092.226-.175.458-.341.691-.5.052-.039.107-.073.157-.112.216-.144.433-.291.649-.424l.076-.049c.235-.149.476-.286.711-.418l.171-.1c.242-.128.483-.254.725-.372s.51-.236.763-.342c.081-.031.157-.058.232-.088q.269-.1.526-.2c.094-.03.184-.062.274-.09.137-.044.273-.086.409-.122.09-.025.186-.052.278-.077.137-.032.271-.065.4-.092.094-.022.185-.041.277-.056s.16-.029.241-.042c.116-.02.234-.035.347-.05.082-.011.164-.018.242-.027.122-.012.237-.024.354-.027.063,0,.128-.006.192-.009.132-.006.261-.007.389-.009.05,0,.1,0,.154,0,.172.007.345.017.514.032l.111.01c.137.013.27.031.4.051l.156.026c.127.023.251.05.377.077.039.009.082.018.12.024.162.041.321.084.478.138.032.009.063.019.094.031.123.039.25.086.371.136.052.018.1.038.152.059.111.047.217.095.323.145.046.023.095.042.139.066.136.071.271.142.406.217a.135.135,0,0,0,.038.023c.156.091.311.191.461.294q-2.107-1.452-4.22-2.9c-.031-.016-.056-.037-.083-.053-.124-.087-.252-.166-.383-.241a.079.079,0,0,0-.018-.012c-.122-.072-.242-.137-.366-.2-.018-.008-.038-.02-.057-.027-.046-.024-.09-.042-.133-.062-.107-.053-.217-.1-.331-.147a1.06,1.06,0,0,0-.147-.062,1.049,1.049,0,0,0-.1-.042c-.089-.034-.181-.066-.271-.093-.031-.01-.062-.025-.093-.035-.141-.045-.282-.084-.427-.122a.446.446,0,0,1-.048-.01c-.04-.012-.082-.018-.123-.029-.123-.027-.249-.052-.376-.072-.05-.009-.1-.02-.151-.024s-.079-.017-.118-.022c-.093-.013-.192-.022-.291-.032l-.106-.013c-.155-.014-.311-.027-.469-.028h-.046c-.052,0-.1,0-.153,0-.129,0-.257,0-.388.006-.067,0-.13.008-.2.012s-.112,0-.167.01l-.178.017c-.082.01-.167.015-.246.026-.118.013-.231.033-.346.048-.082.017-.161.025-.243.046-.029,0-.059.006-.089.012-.06.013-.125.031-.187.043-.136.029-.27.061-.4.09-.095.027-.187.05-.282.076-.137.041-.269.08-.406.125-.048.013-.094.025-.143.041s-.084.032-.127.047c-.175.058-.351.126-.53.2-.077.028-.152.057-.231.088-.251.1-.508.217-.763.341s-.486.245-.727.376c-.057.029-.113.062-.168.092-.241.137-.476.273-.713.421-.025.012-.048.03-.074.042-.217.141-.434.283-.651.433-.052.034-.1.07-.157.107-.234.161-.466.328-.695.505-.037.027-.074.058-.111.085-.207.157-.414.324-.615.493-.046.037-.093.073-.139.112s-.062.052-.092.078c-.116.1-.23.2-.344.3s-.231.2-.345.3c-.137.123-.273.256-.411.384-.112.11-.229.216-.343.325-.016.019-.033.034-.051.052q-.314.307-.625.633c-.041.046-.079.087-.122.132-.144.156-.291.311-.436.47-.04.047-.077.092-.119.135-.061.07-.123.143-.185.209q-.251.287-.5.583c-.052.064-.106.126-.158.192a.9.9,0,0,0-.078.093c-.051.057-.094.118-.142.176-.234.292-.465.584-.694.886-.044.057-.09.112-.136.169s-.068.1-.1.148c-.251.34-.5.684-.745,1.039-.022.031-.045.062-.066.094-.006.005-.009.015-.017.021q-.4.586-.789,1.2l-.088.127c-.042.071-.085.145-.128.216q-.32.513-.628,1.034c-.042.072-.085.14-.124.21-.017.029-.033.062-.053.091-.26.454-.515.919-.763,1.382-.018.037-.041.073-.057.106-.032.062-.06.126-.093.186-.239.466-.476.937-.7,1.415-.022.048-.05.092-.072.141-.01.025-.023.051-.034.077-.052.107-.1.217-.15.324-.111.241-.221.481-.329.726-.057.129-.111.259-.168.389s-.125.286-.185.428c-.032.077-.062.155-.095.232-.072.177-.142.353-.214.529-.076.2-.156.394-.229.591s-.14.369-.21.555c-.041.112-.083.217-.122.33-.026.072-.051.146-.076.221-.094.262-.184.523-.273.788-.052.162-.108.326-.161.487-.093.288-.18.576-.268.863-.033.112-.069.225-.1.336-.009.032-.018.067-.028.1-.025.085-.048.169-.071.256q-.117.413-.227.823c-.027.113-.057.223-.087.331-.076.3-.15.6-.22.9-.012.058-.027.117-.042.176-.067.3-.133.6-.2.907-.009.036-.014.077-.022.116-.051.243-.095.485-.139.729-.032.169-.066.339-.093.51-.044.252-.081.5-.118.751-.026.162-.052.322-.076.485-.037.282-.072.559-.1.839-.018.13-.036.262-.047.4-.045.406-.082.819-.111,1.229l4.22,2.9c.03-.408.068-.814.111-1.226.017-.145.036-.29.054-.433C788.83,351.92,788.859,351.653,788.9,351.388Z" transform="translate(-784.414 -293.567)" fill="url(#linear-gradient-5)"/>
        </g>
        <g id="Group_14264" data-name="Group 14264" transform="translate(10136.414 1053.439)">
          <path id="Path_75513-2" data-name="Path 75513" d="M801.605,305.854c.037-.248.079-.493.132-.746.013-.063.027-.13.042-.2.025-.115.051-.234.079-.349.019-.078.039-.152.06-.23.03-.113.06-.225.092-.337.016-.058.033-.118.054-.183.083-.283.175-.569.276-.849.015-.048.035-.095.051-.138.087-.241.182-.482.282-.723a.328.328,0,0,1,.025-.062c.1-.239.2-.471.313-.7.025-.058.053-.116.08-.171.094-.193.189-.387.289-.577.019-.037.035-.07.053-.1.112-.216.233-.428.353-.641.031-.057.063-.106.094-.159.1-.167.2-.332.3-.5.036-.053.069-.111.107-.17.126-.2.26-.4.4-.6.029-.046.063-.09.095-.133.118-.172.241-.341.364-.509.036-.05.075-.1.115-.151.16-.21.319-.42.488-.622.023-.032.049-.059.071-.087.173-.213.353-.42.536-.624.023-.023.043-.051.066-.071.227-.25.457-.491.694-.729.032-.032.066-.066.1-.1.141-.137.282-.272.43-.407a.254.254,0,0,0,.033-.036c.157-.138.313-.276.473-.413.034-.032.07-.059.106-.089.207-.175.413-.339.623-.5l.066-.052c.221-.168.442-.323.664-.469.044-.032.091-.062.137-.094q.327-.214.664-.41l.127-.068c.232-.135.471-.262.71-.376.193-.094.381-.177.571-.253.053-.02.108-.042.163-.065.14-.054.281-.106.421-.158.052-.014.1-.035.154-.05.128-.041.255-.079.385-.114.035-.011.068-.019.1-.031.161-.042.317-.078.477-.107.092-.018.181-.034.273-.048.042-.007.087-.014.129-.02.131-.018.263-.033.4-.045.2-.016.391-.017.579-.014.039,0,.077,0,.116.005a4.959,4.959,0,0,1,.5.039.743.743,0,0,1,.09.015c.129.022.258.047.382.074l.115.029a4.454,4.454,0,0,1,.428.13l.019.011a3.523,3.523,0,0,1,.377.165c.036.016.072.039.109.059a3.071,3.071,0,0,1,.3.176c.034.021.07.042.1.064l-4.571-3.139a.276.276,0,0,1-.045-.03c-.02-.013-.039-.022-.057-.033-.1-.063-.2-.121-.3-.177-.022-.012-.04-.026-.06-.039a.216.216,0,0,1-.051-.017,3.525,3.525,0,0,0-.374-.163c-.007,0-.013-.011-.017-.011l-.005,0q-.206-.073-.425-.132c-.017,0-.032-.011-.05-.014a.47.47,0,0,1-.065-.014c-.127-.03-.258-.055-.389-.074a.436.436,0,0,0-.061-.012l-.023,0c-.163-.023-.33-.038-.5-.046a.253.253,0,0,1-.051,0,.384.384,0,0,1-.065,0,5.468,5.468,0,0,0-.58.017h0c-.132.008-.264.023-.4.041-.05.007-.1.019-.15.023-.076.014-.151.023-.231.039-.007,0-.017.005-.021.007-.16.031-.319.067-.48.109-.034.005-.067.02-.1.028-.129.035-.259.071-.39.117a.238.238,0,0,0-.053.013c-.032.015-.068.025-.1.04-.141.048-.281.1-.425.157-.052.019-.106.04-.159.062-.189.078-.38.16-.572.253-.238.118-.477.245-.713.379-.04.02-.08.042-.118.066-.226.129-.451.269-.674.415-.039.028-.082.057-.124.085-.227.152-.451.307-.673.476-.018.012-.034.027-.055.04-.213.166-.427.335-.637.511-.02.017-.041.032-.061.049s-.023.02-.036.029c-.161.139-.317.278-.477.422a.165.165,0,0,1-.023.026c-.149.133-.3.278-.442.42a.2.2,0,0,0-.04.037.55.55,0,0,0-.05.052c-.237.234-.466.478-.694.726l-.02.019c-.021.025-.04.046-.059.068-.18.2-.357.409-.529.616-.017.02-.033.037-.048.055a.252.252,0,0,1-.019.026c-.168.207-.334.416-.492.629a.365.365,0,0,0-.045.056c-.022.032-.041.057-.063.088-.128.17-.253.344-.374.521l-.064.086a.2.2,0,0,0-.023.036c-.139.2-.272.4-.4.608-.01.02-.023.033-.033.055-.025.037-.043.072-.068.108-.1.161-.2.324-.295.489-.023.037-.048.072-.068.109-.012.021-.024.044-.035.067-.123.21-.237.419-.349.631a.157.157,0,0,0-.014.028.826.826,0,0,0-.042.08c-.1.191-.2.381-.289.576-.014.032-.031.06-.044.092s-.023.049-.034.076c-.108.234-.215.465-.31.7,0,0-.005.006-.009.014s-.013.033-.021.051c-.1.24-.192.483-.281.722-.009.031-.025.059-.034.088s-.012.033-.017.048c-.1.28-.193.566-.276.851-.008.026-.018.051-.025.07-.01.042-.019.078-.029.114-.032.11-.063.225-.093.335-.019.077-.039.154-.059.231-.026.119-.054.235-.08.351-.012.051-.024.1-.035.154,0,.015-.005.026-.007.042-.052.247-.093.494-.128.74q-.012.074-.022.154c-.034.252-.063.5-.083.745-.195,2.728.622,4.72,2.1,5.736l4.575,3.137c-1.487-1.018-2.3-3.009-2.107-5.732.017-.25.046-.5.079-.753C801.592,305.948,801.6,305.905,801.605,305.854Z" transform="translate(-785.641 -288.439)" fill="url(#linear-gradient-4)"/>
          <path id="Path_75514-2" data-name="Path 75514" d="M811.739,292.827c4.98-2.394,8.7.105,8.3,5.59s-4.755,11.877-9.737,14.275-8.694-.113-8.3-5.6S806.757,295.222,811.739,292.827Z" transform="translate(-786.138 -288.781)" fill="#ff975d"/>
          <path id="Path_75515-2" data-name="Path 75515" d="M808.39,323.908c9.445-4.545,16.29,2.937,15.292,16.7l-34.2,16.456C790.479,343.3,798.944,328.453,808.39,323.908Z" transform="translate(-784.912 -291.791)" fill="#ff975d"/>
          <path id="Path_75516-2" data-name="Path 75516" d="M789.268,354.066c.025-.183.054-.364.085-.549.04-.262.078-.528.124-.789.032-.192.071-.388.106-.579.048-.251.093-.5.144-.758q.112-.563.24-1.124c.011-.051.027-.1.036-.152.079-.337.163-.681.249-1.019.03-.111.058-.224.088-.335.083-.307.165-.618.254-.923.023-.086.044-.167.068-.249.05-.164.1-.33.151-.5.095-.308.189-.613.287-.924.057-.17.115-.343.172-.518.1-.284.192-.57.294-.853.075-.2.147-.406.221-.607s.144-.394.221-.592c.081-.214.166-.426.251-.638.078-.2.155-.395.236-.587.1-.231.2-.46.289-.691.065-.146.13-.291.193-.44.116-.264.235-.525.356-.786.054-.115.106-.232.161-.347.036-.08.076-.155.115-.239.246-.512.5-1.025.762-1.521.057-.108.11-.218.167-.324.266-.5.542-1,.824-1.492.062-.113.127-.219.19-.326.225-.381.453-.76.686-1.133.073-.122.148-.239.221-.359.283-.44.569-.879.861-1.3.032-.047.064-.09.094-.134.266-.382.534-.753.805-1.12.086-.115.172-.229.258-.339.247-.328.5-.65.755-.961.077-.1.156-.2.232-.293.061-.069.119-.142.177-.21.18-.212.358-.419.542-.627.063-.077.13-.148.2-.224.2-.225.4-.441.6-.656.049-.047.093-.1.14-.144.243-.255.488-.5.732-.745.123-.118.245-.234.37-.349.148-.14.292-.281.442-.418.127-.117.257-.226.385-.337.153-.136.306-.271.458-.4.055-.048.106-.087.161-.131.216-.181.434-.354.653-.523.043-.035.087-.068.131-.1.244-.189.5-.369.748-.545.056-.042.115-.079.17-.122.234-.156.469-.315.7-.459.029-.018.056-.035.082-.053.254-.161.515-.309.77-.453l.185-.1c.261-.139.523-.275.785-.4.278-.136.553-.255.826-.371.087-.033.169-.063.252-.1q.291-.112.57-.212c.1-.032.2-.067.3-.1.148-.048.3-.093.443-.132.1-.027.2-.057.3-.083.149-.034.294-.07.438-.1.1-.023.2-.044.3-.06s.173-.032.261-.045c.125-.022.253-.038.376-.054.089-.012.178-.02.262-.029.132-.013.257-.026.383-.03.069-.005.139-.006.207-.01.143-.006.282-.008.421-.01.054,0,.112,0,.167,0,.187.007.373.018.556.035l.12.011c.148.014.292.033.436.055l.169.028c.138.025.271.054.409.083.042.01.088.019.13.026.176.044.347.091.518.15.034.01.069.021.1.033.133.042.271.093.4.147.057.02.109.041.165.064.12.051.234.1.35.157.05.025.1.046.151.071.147.077.294.154.44.234a.147.147,0,0,0,.041.025c.169.1.336.207.5.318q-2.282-1.572-4.569-3.138c-.033-.017-.06-.041-.09-.058-.134-.094-.273-.179-.415-.261a.087.087,0,0,0-.02-.013c-.132-.078-.262-.148-.4-.217-.02-.008-.041-.022-.062-.029-.05-.026-.1-.046-.144-.068-.116-.058-.235-.111-.358-.159a13.206,13.206,0,0,0-.273-.113c-.1-.037-.2-.071-.293-.1-.033-.011-.067-.027-.1-.038-.152-.049-.306-.091-.463-.132a.49.49,0,0,1-.052-.011c-.043-.013-.088-.02-.133-.032-.133-.03-.27-.056-.408-.078-.054-.01-.111-.022-.163-.026s-.086-.018-.128-.024c-.1-.014-.208-.024-.316-.035l-.115-.014c-.168-.015-.336-.029-.508-.031h-.05c-.056,0-.111,0-.166,0-.14,0-.279,0-.42.006-.072,0-.141.009-.213.013s-.121,0-.181.011l-.193.019c-.089.011-.18.016-.267.028-.128.014-.25.036-.374.052-.088.019-.175.027-.263.05-.032,0-.064.006-.1.014-.065.014-.135.033-.2.047-.147.032-.292.066-.438.1-.1.029-.2.054-.306.082-.148.044-.291.087-.44.135-.052.014-.1.027-.155.044s-.091.034-.137.051c-.189.063-.381.136-.574.214-.083.031-.164.062-.25.1-.272.114-.55.235-.826.369s-.527.265-.787.407c-.061.032-.123.068-.182.1-.261.148-.516.3-.772.456-.027.013-.052.032-.08.045-.235.152-.47.307-.705.469-.056.037-.114.076-.17.116-.253.174-.505.355-.752.547-.041.03-.08.063-.12.092-.224.17-.448.351-.666.534-.05.04-.1.079-.151.121-.033.03-.067.057-.1.085-.125.1-.249.218-.372.327s-.25.217-.373.33c-.149.133-.3.278-.445.416-.121.119-.248.234-.372.352-.017.021-.036.037-.055.057q-.34.333-.676.685c-.044.05-.086.095-.133.143-.156.169-.316.336-.473.509-.043.051-.083.1-.129.146-.066.076-.133.155-.2.226q-.272.311-.54.631c-.057.069-.115.136-.171.208a.968.968,0,0,0-.085.1c-.055.061-.1.128-.153.19-.253.317-.5.632-.751.96-.048.061-.1.122-.147.183s-.074.107-.114.161c-.271.368-.54.74-.807,1.125-.023.033-.049.067-.071.1-.006.005-.01.016-.018.023q-.437.634-.855,1.3l-.1.138c-.046.077-.092.157-.139.234q-.346.556-.68,1.12c-.045.078-.092.152-.134.227-.019.032-.036.067-.058.1-.281.491-.557,1-.826,1.5-.019.04-.044.079-.062.115-.034.068-.065.136-.1.2-.259.505-.516,1.015-.763,1.532-.023.052-.054.1-.078.152-.011.027-.024.055-.037.084-.056.116-.108.234-.162.351-.12.261-.239.521-.356.786-.062.14-.12.28-.182.421s-.135.31-.2.464c-.035.083-.068.168-.1.251-.078.191-.154.382-.232.573-.082.212-.169.427-.248.64s-.151.4-.227.6c-.044.121-.09.235-.133.357-.028.078-.055.158-.082.239-.1.284-.2.566-.3.853-.057.176-.117.354-.175.528-.1.312-.195.624-.29.934-.036.122-.075.243-.112.364-.01.034-.02.072-.031.106-.027.092-.052.183-.077.277q-.127.448-.245.891c-.03.123-.062.242-.095.359-.082.327-.162.652-.238.978-.014.063-.029.126-.046.19-.072.322-.144.652-.212.982-.01.039-.015.083-.023.125-.055.263-.1.525-.151.789-.035.183-.071.367-.1.553-.048.272-.088.543-.128.813-.028.175-.057.349-.082.525-.041.306-.078.605-.111.908-.019.141-.039.284-.051.428-.049.44-.089.886-.12,1.331l4.569,3.136c.032-.442.074-.882.12-1.327.018-.157.039-.314.059-.469C789.2,354.642,789.228,354.352,789.268,354.066Z" transform="translate(-784.414 -291.45)" fill="url(#linear-gradient-5)"/>
        </g>
      </g>
      <path id="Path_75604" data-name="Path 75604" d="M-49.944,0l-3.094-10.081h-.079q.167,3.076.167,4.1V0h-2.435V-12.85h3.709l3.041,9.826h.053l3.226-9.826h3.709V0h-2.54V-6.082q0-.431.013-.993t.119-2.988h-.079L-47.448,0Zm21.99-12.85v8.314a4.793,4.793,0,0,1-.637,2.5A4.147,4.147,0,0,1-30.432-.4,6.585,6.585,0,0,1-33.28.176a5.453,5.453,0,0,1-3.85-1.27A4.505,4.505,0,0,1-38.5-4.57V-12.85h2.716v7.866a3.3,3.3,0,0,0,.6,2.18,2.485,2.485,0,0,0,1.978.694,2.429,2.429,0,0,0,1.938-.7A3.312,3.312,0,0,0-30.669-5V-12.85ZM-24.807,0V-12.85h2.725v10.6h5.212V0ZM-9.681,0h-2.725V-10.582H-15.9V-12.85h9.7v2.268H-9.681Zm5.467,0V-12.85H-1.49V0ZM6.42,0V-12.85H9.145v10.6h5.212V0ZM23.99,0h-7.4V-12.85h7.4v2.232H19.314V-7.8h4.351v2.232H19.314V-2.25H23.99ZM34-12.85h2.751L32.383,0H29.413L25.053-12.85H27.8L30.221-5.2q.2.677.417,1.578t.268,1.252a22.513,22.513,0,0,1,.659-2.83ZM45.769,0h-7.4V-12.85h7.4v2.232H41.093V-7.8h4.351v2.232H41.093V-2.25h4.676ZM48.45,0V-12.85h2.725v10.6h5.212V0Zm-84.99,7.233a2.776,2.776,0,0,0-2.382,1.156,5.377,5.377,0,0,0-.844,3.221q0,4.3,3.226,4.3a10.2,10.2,0,0,0,3.278-.677v2.285a9.1,9.1,0,0,1-3.533.659,5.389,5.389,0,0,1-4.289-1.7,7.2,7.2,0,0,1-1.485-4.882,7.973,7.973,0,0,1,.729-3.511,5.272,5.272,0,0,1,2.1-2.312,6.2,6.2,0,0,1,3.2-.8,8.646,8.646,0,0,1,3.762.905l-.879,2.215a14.549,14.549,0,0,0-1.45-.6A4.326,4.326,0,0,0-36.541,7.233Zm17.675,4.324a6.973,6.973,0,0,1-1.582,4.9,5.865,5.865,0,0,1-4.535,1.714,5.865,5.865,0,0,1-4.535-1.714A7,7,0,0,1-31.1,11.54a6.9,6.9,0,0,1,1.586-4.9,5.932,5.932,0,0,1,4.548-1.692,5.85,5.85,0,0,1,4.531,1.705A6.99,6.99,0,0,1-18.866,11.558Zm-9.378,0a5.368,5.368,0,0,0,.817,3.243,2.86,2.86,0,0,0,2.443,1.09q3.261,0,3.261-4.333t-3.243-4.342A2.879,2.879,0,0,0-27.417,8.31,5.345,5.345,0,0,0-28.244,11.558ZM-4.8,18H-8.266l-5.59-9.721h-.079q.167,2.575.167,3.674V18H-16.2V5.15h3.437l5.581,9.624h.062q-.132-2.5-.132-3.542V5.15H-4.8Zm8.191,0H.664V7.418H-2.826V5.15h9.7V7.418H3.388Zm8.191-7.146h.879a3.362,3.362,0,0,0,1.907-.431,1.537,1.537,0,0,0,.615-1.354,1.406,1.406,0,0,0-.628-1.3,3.813,3.813,0,0,0-1.947-.387H11.58Zm0,2.215V18H8.855V5.15H12.6a6.408,6.408,0,0,1,3.876.954A3.4,3.4,0,0,1,17.732,9a3.409,3.409,0,0,1-.624,2.017A4.129,4.129,0,0,1,15.341,12.4q2.9,4.333,3.779,5.6H16.1L13.03,13.069ZM32.4,11.558a6.973,6.973,0,0,1-1.582,4.9,5.865,5.865,0,0,1-4.535,1.714,5.865,5.865,0,0,1-4.535-1.714,7,7,0,0,1-1.582-4.922,6.9,6.9,0,0,1,1.586-4.9A5.932,5.932,0,0,1,26.3,4.948a5.85,5.85,0,0,1,4.531,1.705A6.99,6.99,0,0,1,32.4,11.558Zm-9.378,0A5.368,5.368,0,0,0,23.84,14.8a2.86,2.86,0,0,0,2.443,1.09q3.261,0,3.261-4.333T26.3,7.216A2.879,2.879,0,0,0,23.849,8.31,5.345,5.345,0,0,0,23.023,11.558ZM35.064,18V5.15h2.725v10.6H43V18Z" transform="translate(3125.385 1510.436)" fill="#333"/>
      <style>
      @keyframes rightLeft{
        0%{
          transform: translate(9556px, -978.611px);
        }
        50%{
          transform: translate(9580px, -978.611px);
        }
        100%{
          transform: translate(9556px, -978.611px);
        }
      }
      #multicontrol{
        animation : rightLeft 2s infinite;
      }
    </style>
    </g>
    <g id="chip" transform="translate(-37 -33.569)">
      <path id="Path_75607" data-name="Path 75607" d="M-14.177-10.767a2.776,2.776,0,0,0-2.382,1.156A5.377,5.377,0,0,0-17.4-6.39q0,4.3,3.226,4.3A10.2,10.2,0,0,0-10.9-2.769V-.483a9.1,9.1,0,0,1-3.533.659,5.389,5.389,0,0,1-4.289-1.7,7.2,7.2,0,0,1-1.485-4.882,7.973,7.973,0,0,1,.729-3.511,5.272,5.272,0,0,1,2.1-2.312,6.2,6.2,0,0,1,3.2-.8,8.646,8.646,0,0,1,3.762.905l-.879,2.215a14.549,14.549,0,0,0-1.45-.6A4.326,4.326,0,0,0-14.177-10.767ZM2.364,0H-.352V-5.546H-5.44V0H-8.165V-12.85H-5.44v5.036H-.352V-12.85H2.364ZM5.607,0V-12.85H8.332V0Zm8.684-6.8h.9a2.986,2.986,0,0,0,1.881-.5,1.738,1.738,0,0,0,.624-1.446,1.782,1.782,0,0,0-.523-1.415,2.45,2.45,0,0,0-1.639-.457H14.291Zm6.152-2.039a3.927,3.927,0,0,1-1.3,3.173,5.544,5.544,0,0,1-3.687,1.1H14.291V0H11.566V-12.85h4.1a5.459,5.459,0,0,1,3.555,1.006A3.669,3.669,0,0,1,20.443-8.842ZM-27.3,5.15h4a7.706,7.706,0,0,1,3.968.778A2.708,2.708,0,0,1-18.1,8.4a3.117,3.117,0,0,1-.541,1.89,2.159,2.159,0,0,1-1.437.888v.088a2.831,2.831,0,0,1,1.762,1.02,3.317,3.317,0,0,1,.541,1.986,3.273,3.273,0,0,1-1.27,2.742,5.493,5.493,0,0,1-3.45.984H-27.3Zm2.725,5.089h1.582a2.892,2.892,0,0,0,1.6-.343,1.279,1.279,0,0,0,.5-1.134A1.135,1.135,0,0,0-21.432,7.7a3.474,3.474,0,0,0-1.709-.321h-1.433Zm0,2.162V15.75H-22.8a2.633,2.633,0,0,0,1.661-.431A1.59,1.59,0,0,0-20.6,14q0-1.6-2.285-1.6ZM-7.339,18l-.932-3.059h-4.685L-13.887,18h-2.936l4.535-12.9h3.331L-4.4,18Zm-1.582-5.344q-1.292-4.157-1.455-4.7t-.233-.861q-.29,1.125-1.661,5.563ZM4.8,14.432a3.322,3.322,0,0,1-1.252,2.742,5.441,5.441,0,0,1-3.485,1A8.184,8.184,0,0,1-3.577,17.4V14.871a15,15,0,0,0,2.2.817,6.515,6.515,0,0,0,1.648.237,2.343,2.343,0,0,0,1.375-.343,1.172,1.172,0,0,0,.479-1.02,1.125,1.125,0,0,0-.211-.672,2.36,2.36,0,0,0-.62-.567,15.936,15.936,0,0,0-1.666-.87,7.894,7.894,0,0,1-1.767-1.063,3.992,3.992,0,0,1-.94-1.187,3.386,3.386,0,0,1-.352-1.582A3.321,3.321,0,0,1-2.272,5.941,4.8,4.8,0,0,1,.923,4.966,7.544,7.544,0,0,1,2.834,5.2a13.14,13.14,0,0,1,1.9.668L3.858,7.989a12.859,12.859,0,0,0-1.7-.589A5.474,5.474,0,0,0,.835,7.233a1.752,1.752,0,0,0-1.187.36,1.189,1.189,0,0,0-.413.94A1.164,1.164,0,0,0-.6,9.163a1.836,1.836,0,0,0,.532.519,16.441,16.441,0,0,0,1.727.9,6.872,6.872,0,0,1,2.47,1.727A3.371,3.371,0,0,1,4.8,14.432ZM14.528,18h-7.4V5.15h7.4V7.383H9.853V10.2H14.2v2.232H9.853V15.75h4.676ZM27.87,11.452a6.328,6.328,0,0,1-1.806,4.86A7.365,7.365,0,0,1,20.848,18H17.209V5.15h4.034A6.793,6.793,0,0,1,26.13,6.812,6.11,6.11,0,0,1,27.87,11.452Zm-2.83.07q0-4.14-3.656-4.14h-1.45V15.75H21.1Q25.04,15.75,25.04,11.522Z" transform="translate(12311.299 522.824)" fill="#333"/>
      <g id="Group_31611" data-name="Group 31611" transform="translate(12274 446.569)">
        <path id="Path_133888" data-name="Path 133888" d="M6.195,52.431l61.946-4a6.2,6.2,0,0,0,6.195-6.195V6.195A6.2,6.2,0,0,0,68.14,0L6.195,4A6.2,6.2,0,0,0,0,10.195V46.236A6.2,6.2,0,0,0,6.195,52.431Z" transform="translate(0 0)" fill="#e8ad29"/>
        <path id="Path_133882" data-name="Path 133882" d="M6.195,52.431l61.946-4a6.2,6.2,0,0,0,6.195-6.195V6.195A6.2,6.2,0,0,0,68.14,0L6.195,4A6.2,6.2,0,0,0,0,10.195V46.236A6.2,6.2,0,0,0,6.195,52.431Z" transform="translate(2 2)" fill="#fbc02d"/>
        <path id="Path_133883" data-name="Path 133883" d="M.016,48.663l2.25-.156L2.253.052H0Z" transform="translate(22.272 4.877)" fill="#e8ad29"/>
        <path id="Path_133884" data-name="Path 133884" d="M0,48.431H2.253V0H0Z" transform="translate(53.809 3)" fill="#e8ad29"/>
        <path id="Path_133885" data-name="Path 133885" d="M6,74.335H8.253L2.253,0H0Z" transform="translate(2 21.768) rotate(-90)" fill="#e8ad29"/>
        <path id="Path_133886" data-name="Path 133886" d="M5,74.335H7.253L2.253,0H0Z" transform="translate(2 40.915) rotate(-90)" fill="#e8ad29"/>
      </g>
      <style>
      @keyframes lr{
        0%{
          transform: translate(-37px, -33.569px);
        }
        50%{
          transform: translate(-60px, -33.569px);
        }
        100%{
          transform: translate(-37px, -33.569px);
        }
      }
      #chip{
        animation : lr 2s infinite;
      }
    </style>
    </g>
  </g>
</svg>
