<svg xmlns="http://www.w3.org/2000/svg" xmlns:xlink="http://www.w3.org/1999/xlink" width="293" height="211" viewBox="0 0 293 211">
  <defs>
    <clipPath id="clip-path">
      <rect id="Rectangle_4795" data-name="Rectangle 4795" width="293" height="211" transform="translate(4248 131)" fill="#fff" stroke="#707070" stroke-width="1"/>
    </clipPath>
    <linearGradient id="linear-gradient" x1="56.483" y1="0.138" x2="55.531" y2="0.929" gradientUnits="objectBoundingBox">
      <stop offset="0" stop-color="#c2c1c1"/>
      <stop offset="1" stop-color="#dfdedd"/>
    </linearGradient>
    <linearGradient id="linear-gradient-2" x1="73.475" y1="0.138" x2="72.523" y2="0.929" xlink:href="#linear-gradient"/>
  </defs>
  <g id="img_b2b" transform="translate(-4248 -131)" clip-path="url(#clip-path)">
    <g id="Group_20658" data-name="Group 20658" transform="translate(4248 131)">
      <g id="Group_20652" data-name="Group 20652">
        <path id="Path_95525" data-name="Path 95525" d="M83.715,95.8a132,132,0,0,1-26.723-10.01c-4.282-2.133-8.524-4.509-12.607-7.061-4.045-2.528-7.97-5.252-11.667-8.095a131.173,131.173,0,0,1-10.4-8.876,106.545,106.545,0,0,1-8.8-9.4A65.072,65.072,0,0,1,2.029,32.969C-.175,26.692-.586,21.034.809,16.152A18.571,18.571,0,0,1,4.061,9.759,21,21,0,0,1,9.625,4.871,29.907,29.907,0,0,1,17.3,1.61,45.775,45.775,0,0,1,26.9.1,81.555,81.555,0,0,1,51.056,2.8,125.116,125.116,0,0,1,66.613,7.826,144.454,144.454,0,0,1,81.726,14.85a150.5,150.5,0,0,1,14.165,8.632A139.7,139.7,0,0,1,108.6,33.333c-6.273,5.978-7.629,14.721-3.919,25.285s12.057,21.731,24.139,32.3A24.292,24.292,0,0,1,121.25,95.7a38.834,38.834,0,0,1-10.244,2.533,62.647,62.647,0,0,1-12.613.1A94.585,94.585,0,0,1,83.715,95.8Z" transform="translate(4.725 164.592) rotate(-30)" fill="#ffbe9a"/>
        <path id="Path_95528" data-name="Path 95528" d="M83.715,95.8a132,132,0,0,1-26.723-10.01c-4.282-2.133-8.524-4.509-12.607-7.061-4.045-2.528-7.97-5.252-11.667-8.095a131.173,131.173,0,0,1-10.4-8.876,106.545,106.545,0,0,1-8.8-9.4A65.072,65.072,0,0,1,2.029,32.969C-.175,26.692-.586,21.034.809,16.152A18.571,18.571,0,0,1,4.061,9.759,21,21,0,0,1,9.625,4.871,29.907,29.907,0,0,1,17.3,1.61,45.775,45.775,0,0,1,26.9.1,81.555,81.555,0,0,1,51.056,2.8,125.116,125.116,0,0,1,66.613,7.826,144.454,144.454,0,0,1,81.726,14.85a150.5,150.5,0,0,1,14.165,8.632A139.7,139.7,0,0,1,108.6,33.333c-6.273,5.978-7.629,14.721-3.919,25.285s12.057,21.731,24.139,32.3A24.292,24.292,0,0,1,121.25,95.7a38.834,38.834,0,0,1-10.244,2.533,62.647,62.647,0,0,1-12.613.1A94.585,94.585,0,0,1,83.715,95.8Z" transform="translate(4.725 150.607) rotate(-30)" fill="#fff6f1"/>
        <path id="Path_95524" data-name="Path 95524" d="M83.711,93.289a132,132,0,0,1-26.723-10.01c-4.282-2.133-8.524-4.509-12.607-7.061-4.045-2.528-7.97-5.252-11.667-8.095a131.173,131.173,0,0,1-10.4-8.876,106.547,106.547,0,0,1-8.8-9.4A65.073,65.073,0,0,1,2.025,30.458,31.635,31.635,0,0,1,.038,18.276,19.537,19.537,0,0,1,3.09,8.6c.269.27.507.511.729.738a77.532,77.532,0,0,0,23.226,2.084A43.62,43.62,0,0,0,36.239,9.74a28.787,28.787,0,0,0,7.336-3.347,20.609,20.609,0,0,0,5.292-4.9c.358-.48.7-.983,1.007-1.5.4.095.792.191,1.177.287A132,132,0,0,1,77.775,10.3c4.282,2.133,8.524,4.509,12.607,7.061,4.045,2.528,7.97,5.252,11.667,8.095a131.182,131.182,0,0,1,10.4,8.876,106.542,106.542,0,0,1,8.8,9.4,65.071,65.071,0,0,1,11.492,19.383c2.2,6.278,2.615,11.936,1.22,16.817a18.571,18.571,0,0,1-3.252,6.393,21,21,0,0,1-5.564,4.888,29.9,29.9,0,0,1-7.679,3.261,45.776,45.776,0,0,1-9.6,1.513A81.559,81.559,0,0,1,83.711,93.289Z" transform="translate(136.287 129.681) rotate(-30)" fill="#ffbe9a"/>
        <path id="Path_95527" data-name="Path 95527" d="M83.711,93.289a132,132,0,0,1-26.723-10.01c-4.282-2.133-8.524-4.509-12.607-7.061-4.045-2.528-7.97-5.252-11.667-8.095a131.173,131.173,0,0,1-10.4-8.876,106.547,106.547,0,0,1-8.8-9.4A65.073,65.073,0,0,1,2.025,30.458,31.635,31.635,0,0,1,.038,18.276,19.537,19.537,0,0,1,3.09,8.6c.269.27.507.511.729.738a77.532,77.532,0,0,0,23.226,2.084A43.62,43.62,0,0,0,36.239,9.74a28.787,28.787,0,0,0,7.336-3.347,20.609,20.609,0,0,0,5.292-4.9c.358-.48.7-.983,1.007-1.5.4.095.792.191,1.177.287A132,132,0,0,1,77.775,10.3c4.282,2.133,8.524,4.509,12.607,7.061,4.045,2.528,7.97,5.252,11.667,8.095a131.182,131.182,0,0,1,10.4,8.876,106.542,106.542,0,0,1,8.8,9.4,65.071,65.071,0,0,1,11.492,19.383c2.2,6.278,2.615,11.936,1.22,16.817a18.571,18.571,0,0,1-3.252,6.393,21,21,0,0,1-5.564,4.888,29.9,29.9,0,0,1-7.679,3.261,45.776,45.776,0,0,1-9.6,1.513A81.559,81.559,0,0,1,83.711,93.289Z" transform="translate(136.287 115.696) rotate(-30)" fill="#fff6f1"/>
        <path id="Path_95526" data-name="Path 95526" d="M85.932,96.329h0C69.257,79.3,44.612,65.152,21.614,59.406c-.739-.185-1.485-.363-2.217-.53A92.833,92.833,0,0,1,8.777,46.022,57.869,57.869,0,0,1,2.029,32.969C-.175,26.692-.586,21.034.809,16.153A18.57,18.57,0,0,1,4.061,9.759,21,21,0,0,1,9.625,4.871,29.9,29.9,0,0,1,17.3,1.61,45.775,45.775,0,0,1,26.9.1,81.556,81.556,0,0,1,51.056,2.8a131.994,131.994,0,0,1,26.723,10.01c4.282,2.133,8.524,4.509,12.607,7.061,4.045,2.528,7.97,5.252,11.667,8.095a131.182,131.182,0,0,1,10.4,8.876,106.547,106.547,0,0,1,8.8,9.4,65.073,65.073,0,0,1,11.492,19.383c2.159,6.148,2.6,11.707,1.3,16.523a18.61,18.61,0,0,1-3.063,6.334,20.609,20.609,0,0,1-5.292,4.9,28.791,28.791,0,0,1-7.336,3.347,43.623,43.623,0,0,1-9.195,1.683,77.524,77.524,0,0,1-23.226-2.084Z" transform="translate(0 81.37) rotate(-30)" fill="#ffbe9a"/>
        <path id="Path_95529" data-name="Path 95529" d="M85.932,96.329h0C69.257,79.3,44.612,65.152,21.614,59.406c-.739-.185-1.485-.363-2.217-.53A92.833,92.833,0,0,1,8.777,46.022,57.869,57.869,0,0,1,2.029,32.969C-.175,26.692-.586,21.034.809,16.153A18.57,18.57,0,0,1,4.061,9.759,21,21,0,0,1,9.625,4.871,29.9,29.9,0,0,1,17.3,1.61,45.775,45.775,0,0,1,26.9.1,81.556,81.556,0,0,1,51.056,2.8a131.994,131.994,0,0,1,26.723,10.01c4.282,2.133,8.524,4.509,12.607,7.061,4.045,2.528,7.97,5.252,11.667,8.095a131.182,131.182,0,0,1,10.4,8.876,106.547,106.547,0,0,1,8.8,9.4,65.073,65.073,0,0,1,11.492,19.383c2.159,6.148,2.6,11.707,1.3,16.523a18.61,18.61,0,0,1-3.063,6.334,20.609,20.609,0,0,1-5.292,4.9,28.791,28.791,0,0,1-7.336,3.347,43.623,43.623,0,0,1-9.195,1.683,77.524,77.524,0,0,1-23.226-2.084Z" transform="translate(0 67.385) rotate(-30)" fill="#fff6f1"/>
        <path id="Path_95530" data-name="Path 95530" d="M-312.971-8871.734v13.969s18.608-5.726,37.788-5.839,38.933,5.381,38.933,5.381v-14.312s-19.753-4.782-38.933-4.581S-312.971-8871.734-312.971-8871.734Z" transform="translate(359.182 8980.377)" fill="#ff975d"/>
        <path id="Path_95531" data-name="Path 95531" d="M-235.762-8837.422v14.009l-4.273-.8-3.715-1.092a36.413,36.413,0,0,0,4.807-5.659A32.826,32.826,0,0,0-235.762-8837.422Z" transform="translate(397.522 9002.367)" fill="#ffbe9a"/>
        <path id="Path_95532" data-name="Path 95532" d="M-334.383-8839.9v13.756l2.872-5.087a18.936,18.936,0,0,1-1.805-3.855A30.807,30.807,0,0,1-334.383-8839.9Z" transform="translate(347.322 9000.997)" fill="#ffbe9a"/>
        <path id="Path_95533" data-name="Path 95533" d="M-337.415-8880.312v-14.313a18,18,0,0,0,.821,5.909,35.833,35.833,0,0,0,3.16,6.647Z" transform="translate(345.637 8970.686)" fill="#ffbe9a"/>
        <path id="Path_95534" data-name="Path 95534" d="M-240.524-8894.414v14.984l-1.867-6.719a13.953,13.953,0,0,0,1.263-3.471A34,34,0,0,0-240.524-8894.414Z" transform="translate(398.275 8970.801)" fill="#ffbe9a"/>
        <path id="Path_95535" data-name="Path 95535" d="M-153.863-8864.022v14.528l-1.277-8.5a14.017,14.017,0,0,0,.68-2.113A27.4,27.4,0,0,0-153.863-8864.022Z" transform="translate(446.602 8987.635)" fill="#ffbe9a"/>
        <path id="Path_95536" data-name="Path 95536" d="M-250.527-8865.269v14.028l5.921,1.174a25.754,25.754,0,0,1-4.321-6.935A28.377,28.377,0,0,1-250.527-8865.269Z" transform="translate(393.769 8986.945)" fill="#ffbe9a"/>
      </g>
      <g id="Group_20654" data-name="Group 20654" transform="translate(28.69 0.084)">
        <g id="Group_11303" data-name="Group 11303" transform="translate(0 37.167)" opacity="0.3" style="mix-blend-mode: multiply;isolation: isolate">
          <path id="Path_63560" data-name="Path 63560" d="M32.887,442.5c-1.69.918-1.71,2.457-.046,3.42L109.8,490.449a6.878,6.878,0,0,0,6.085.06l28.549-15.772c1.683-.93,1.7-2.474.029-3.432l-76.945-44.24a6.964,6.964,0,0,0-6.1-.073Z" transform="translate(-31.607 -426.323)" opacity="0.5"/>
        </g>
        <g id="Group_11331" data-name="Group 11331" transform="translate(3.188)">
          <g id="Group_11304" data-name="Group 11304" transform="translate(16.093 57.17)">
            <path id="Path_63561" data-name="Path 63561" d="M78.964,474.568l1.426-.8,9.534,5.5a9.06,9.06,0,0,1,.323,2.191,3.3,3.3,0,0,1-1.489,3.046l-3.2,1.81a3.23,3.23,0,0,1-3.379-.207,10.663,10.663,0,0,1-4.844-8.419A3.252,3.252,0,0,1,78.964,474.568Z" transform="translate(-77.336 -473.765)" fill="#343433"/>
          </g>
          <path id="Path_63562" data-name="Path 63562" d="M106.982,489a9.063,9.063,0,0,0-.323-2.191h0l3.5,2.018a2.772,2.772,0,0,1-.9.843l-2.99,1.692A3.661,3.661,0,0,0,106.982,489Z" transform="translate(-77.978 -424.141)" fill="#343433"/>
          <path id="Path_63563" data-name="Path 63563" d="M107.033,489a9.06,9.06,0,0,0-.323-2.191h0l.761.438a8.706,8.706,0,0,1,.109,1.2,3.4,3.4,0,0,1-1.22,2.865A3.691,3.691,0,0,0,107.033,489Z" transform="translate(-78.029 -424.141)" fill="#151515"/>
          <path id="Path_63564" data-name="Path 63564" d="M186.041,538.311l.383,1.253,2.386-2.03,4.412-2.294-1.626-1.2-1.866-.482-1.222.109-1.466.962-.737,1.86Z" transform="translate(-124.114 -451.176)" fill="#1e1e1e"/>
          <path id="Path_63565" data-name="Path 63565" d="M193.363,550.032a10.665,10.665,0,0,1-4.844-8.419,3.254,3.254,0,0,1,1.627-3.12l2.921-1.646a3.465,3.465,0,0,1,1.375-.425,16.2,16.2,0,0,1,5.693,11.715c0,.056,0,.111,0,.166-.063.044-.127.087-.194.125l-3.2,1.81A3.232,3.232,0,0,1,193.363,550.032Z" transform="translate(-125.546 -452.833)" fill="#343433"/>
          <g id="Group_11305" data-name="Group 11305" transform="translate(62.972 85.365)">
            <path id="Path_63566" data-name="Path 63566" d="M188.519,544.05a10.665,10.665,0,0,0,4.844,8.419c2.462,1.485,4.9.031,4.845-2.825a10.66,10.66,0,0,0-4.845-8.419C190.9,539.741,188.466,541.2,188.519,544.05Z" transform="translate(-188.518 -540.635)" fill="#928e8e"/>
          </g>
          <g id="Group_11306" data-name="Group 11306" transform="translate(62.972 85.365)">
            <path id="Path_63567" data-name="Path 63567" d="M188.519,544.05a10.665,10.665,0,0,0,4.844,8.419c2.462,1.485,4.9.031,4.845-2.825a10.66,10.66,0,0,0-4.845-8.419C190.9,539.741,188.466,541.2,188.519,544.05Z" transform="translate(-188.518 -540.635)" fill="#575656"/>
          </g>
          <g id="Group_11307" data-name="Group 11307" transform="translate(63.398 86.658)">
            <path id="Path_63568" data-name="Path 63568" d="M189.529,546.528a8.837,8.837,0,0,0,3.989,6.969c2.027,1.23,4.033.025,3.989-2.337a8.832,8.832,0,0,0-3.989-6.971C191.492,542.96,189.485,544.166,189.529,546.528Z" transform="translate(-189.528 -543.701)" fill="#3a3939"/>
          </g>
          <g id="Group_11308" data-name="Group 11308" transform="translate(64.647 88.148)">
            <path id="Path_63569" data-name="Path 63569" d="M192.492,549.181a6.075,6.075,0,0,0,2.759,4.794,1.726,1.726,0,0,0,2.76-1.608,6.071,6.071,0,0,0-2.76-4.8A1.726,1.726,0,0,0,192.492,549.181Z" transform="translate(-192.492 -547.236)" fill="url(#linear-gradient)"/>
          </g>
          <g id="Group_11309" data-name="Group 11309" transform="translate(66.207 90.288)">
            <path id="Path_63570" data-name="Path 63570" d="M196.191,553.123a2.545,2.545,0,0,0,1.156,2.01.723.723,0,0,0,1.155-.674,2.541,2.541,0,0,0-1.155-2.009A.723.723,0,0,0,196.191,553.123Z" transform="translate(-196.191 -552.31)" fill="#928e8e"/>
          </g>
          <g id="Group_11310" data-name="Group 11310" transform="translate(66.279 90.706)">
            <path id="Path_63571" data-name="Path 63571" d="M196.363,553.933a1.975,1.975,0,0,0,.9,1.56.561.561,0,0,0,.9-.523,1.977,1.977,0,0,0-.9-1.56A.561.561,0,0,0,196.363,553.933Z" transform="translate(-196.363 -553.301)" fill="#dbdbda"/>
          </g>
          <g id="Group_11311" data-name="Group 11311" transform="translate(65.162 88.947)">
            <path id="Path_63572" data-name="Path 63572" d="M198.048,549.164l.372.187a.637.637,0,0,1,.324.521.205.205,0,0,1-.324.2l-.372-.186a.638.638,0,0,1-.323-.522A.2.2,0,0,1,198.048,549.164Z" transform="translate(-196.033 -549.13)"/>
            <path id="Path_63573" data-name="Path 63573" d="M198.048,560.241l.372.187a.637.637,0,0,1,.324.52.206.206,0,0,1-.324.2l-.372-.187a.639.639,0,0,1-.323-.521A.2.2,0,0,1,198.048,560.241Z" transform="translate(-196.033 -555.536)"/>
            <path id="Path_63574" data-name="Path 63574" d="M194.373,550.423c-.1.115-.3.059-.449-.125a.469.469,0,0,1-.089-.543l.206-.241c.1-.115.3-.059.449.126a.47.47,0,0,1,.089.543C194.5,550.278,194.455,550.326,194.373,550.423Z" transform="translate(-193.752 -549.317)"/>
            <path id="Path_63575" data-name="Path 63575" d="M202.322,559.814c.1-.115.3-.06.449.125a.469.469,0,0,1,.089.543l-.207.242c-.1.115-.3.058-.449-.127a.469.469,0,0,1-.089-.543C202.2,559.958,202.239,559.909,202.322,559.814Z" transform="translate(-198.541 -555.274)"/>
            <path id="Path_63576" data-name="Path 63576" d="M193.865,555.2c.152-.03.35.12.446.336.079.18.119.27.2.449.094.216.049.415-.1.445s-.351-.119-.445-.335l-.2-.45C193.667,555.427,193.713,555.228,193.865,555.2Z" transform="translate(-193.713 -552.637)"/>
            <path id="Path_63577" data-name="Path 63577" d="M202.842,554.75c-.152.03-.352-.121-.447-.336l-.2-.45c-.1-.215-.05-.415.1-.445s.35.12.445.336l.2.45C203.038,554.521,202.992,554.72,202.842,554.75Z" transform="translate(-198.591 -551.667)"/>
          </g>
          <g id="Group_11312" data-name="Group 11312" transform="translate(16.093 57.678)">
            <path id="Path_63578" data-name="Path 63578" d="M77.337,478.384a10.663,10.663,0,0,0,4.844,8.419c2.462,1.486,4.9.03,4.844-2.825a10.659,10.659,0,0,0-4.844-8.419C79.72,474.075,77.283,475.532,77.337,478.384Z" transform="translate(-77.336 -474.97)" fill="#928e8e"/>
          </g>
          <g id="Group_11313" data-name="Group 11313" transform="translate(16.093 57.678)">
            <path id="Path_63579" data-name="Path 63579" d="M77.337,478.384a10.663,10.663,0,0,0,4.844,8.419c2.462,1.486,4.9.03,4.844-2.825a10.659,10.659,0,0,0-4.844-8.419C79.72,474.075,77.283,475.532,77.337,478.384Z" transform="translate(-77.336 -474.97)" fill="#575656"/>
          </g>
          <g id="Group_11314" data-name="Group 11314" transform="translate(16.519 58.971)">
            <path id="Path_63580" data-name="Path 63580" d="M78.346,480.863a8.84,8.84,0,0,0,3.989,6.97c2.027,1.229,4.033.024,3.989-2.339a8.837,8.837,0,0,0-3.989-6.97C80.309,477.3,78.3,478.5,78.346,480.863Z" transform="translate(-78.345 -478.036)" fill="#3a3939"/>
          </g>
          <g id="Group_11315" data-name="Group 11315" transform="translate(17.768 60.462)">
            <path id="Path_63581" data-name="Path 63581" d="M81.309,483.516a6.075,6.075,0,0,0,2.759,4.8,1.726,1.726,0,0,0,2.759-1.609,6.071,6.071,0,0,0-2.759-4.8A1.727,1.727,0,0,0,81.309,483.516Z" transform="translate(-81.309 -481.571)" fill="url(#linear-gradient-2)"/>
          </g>
          <g id="Group_11316" data-name="Group 11316" transform="translate(19.328 62.601)">
            <path id="Path_63582" data-name="Path 63582" d="M85.008,487.459a2.546,2.546,0,0,0,1.155,2.009.723.723,0,0,0,1.156-.674,2.541,2.541,0,0,0-1.156-2.009A.723.723,0,0,0,85.008,487.459Z" transform="translate(-85.008 -486.645)" fill="#928e8e"/>
          </g>
          <g id="Group_11317" data-name="Group 11317" transform="translate(19.4 63.019)">
            <path id="Path_63583" data-name="Path 63583" d="M85.18,488.269a1.977,1.977,0,0,0,.9,1.56.561.561,0,0,0,.9-.524,1.974,1.974,0,0,0-.9-1.559A.561.561,0,0,0,85.18,488.269Z" transform="translate(-85.18 -487.637)" fill="#dbdbda"/>
          </g>
          <g id="Group_11318" data-name="Group 11318" transform="translate(18.283 61.26)">
            <path id="Path_63584" data-name="Path 63584" d="M86.866,483.5l.371.186a.637.637,0,0,1,.323.521.2.2,0,0,1-.323.2l-.371-.186a.637.637,0,0,1-.324-.521A.205.205,0,0,1,86.866,483.5Z" transform="translate(-84.85 -483.465)"/>
            <path id="Path_63585" data-name="Path 63585" d="M86.866,494.576l.371.186a.638.638,0,0,1,.324.521.206.206,0,0,1-.324.2l-.372-.187a.638.638,0,0,1-.323-.521A.205.205,0,0,1,86.866,494.576Z" transform="translate(-84.85 -489.871)"/>
            <path id="Path_63586" data-name="Path 63586" d="M83.189,484.759c-.1.115-.3.059-.449-.126a.468.468,0,0,1-.088-.543l.207-.24c.1-.115.3-.059.449.125a.469.469,0,0,1,.089.544Z" transform="translate(-82.569 -483.653)"/>
            <path id="Path_63587" data-name="Path 63587" d="M91.139,494.148c.1-.115.3-.059.449.126a.47.47,0,0,1,.089.543l-.207.242c-.1.115-.3.059-.448-.126a.469.469,0,0,1-.089-.543Z" transform="translate(-87.358 -489.609)"/>
            <path id="Path_63588" data-name="Path 63588" d="M82.682,489.534c.151-.029.35.12.445.336l.2.45c.095.216.049.414-.1.445s-.351-.119-.446-.335l-.2-.45C82.484,489.763,82.53,489.564,82.682,489.534Z" transform="translate(-82.53 -486.973)"/>
            <path id="Path_63589" data-name="Path 63589" d="M91.657,489.085c-.151.03-.351-.121-.446-.336l-.2-.45c-.1-.216-.049-.415.1-.446s.35.121.446.336l.2.45C91.854,488.855,91.809,489.055,91.657,489.085Z" transform="translate(-87.408 -486.001)"/>
          </g>
          <path id="Path_63590" data-name="Path 63590" d="M63.235,458.925l40.594,23.424,8.24-4.679.2,6.293v1.6c.143.488.256.8.256.8l3.688,2.02a5.02,5.02,0,0,1,1.233.46l.131.069.117.067c.1.055.19.112.285.174.15.1.3.2.445.308l.109.08a16.147,16.147,0,0,1,6,11.38l-.5-.181a15.5,15.5,0,0,0-6.325-11.182,4.36,4.36,0,0,0-2.33-.788h0a2.734,2.734,0,0,0-1.989.839,5.072,5.072,0,0,0-1.2,3.684c.008.435.036.872.082,1.307l-.525-.469q-.031-.416-.039-.829a6.414,6.414,0,0,1,.608-3l.029-.637-1.206-.712V487.92l-42.03-24.536-1.426.8a2.753,2.753,0,0,0-1.084,1c.008-.012.015-.025.023-.037l.451-2.938-2.018-1.164-1.829.888V459.99l-5.389-3.109v-1.064Z" transform="translate(-49.971 -406.214)" fill="#263338"/>
          <path id="Path_63591" data-name="Path 63591" d="M69.6,338.174l54.341,28.665v29.916L93.026,414.309,39.168,383.232V354.6Z" transform="translate(-39.168 -338.174)" fill="#dfe6ea"/>
          <g id="Group_11319" data-name="Group 11319" transform="translate(11.964 54.831)">
            <path id="Path_63592" data-name="Path 63592" d="M70.673,468.217l2.018,1.164-.451,2.938a3.642,3.642,0,0,0-.56,1.836l-4.135,1.832.65-6.567Z" transform="translate(-67.544 -468.217)" fill="#1e1e1e"/>
          </g>
          <g id="Group_11320" data-name="Group 11320" transform="translate(1.244 46.683)">
            <path id="Path_63593" data-name="Path 63593" d="M47.308,450.98l-4.286,2.433-.905-.523v-3.127l1.572-.872Z" transform="translate(-42.118 -448.892)" fill="#8897a0"/>
          </g>
          <path id="Path_63594" data-name="Path 63594" d="M153.169,512.116l-1.518,3.369v1.151l-1.272-.734v-.615l1.64-3.835Z" transform="translate(-103.488 -438.392)" fill="#8897a0"/>
          <path id="Path_63595" data-name="Path 63595" d="M101.373,496.683v-.9l1.056-.61,31.879,18.395v2.768l-.83.5L101.6,498.448v-.729l.185-.117v-.681Z" transform="translate(-75.145 -428.978)" fill="#8897a0"/>
          <path id="Path_63596" data-name="Path 63596" d="M178.036,538.8v2.768l-.83.5v-.728l.185-.117V540.11l-.412.2v-.9Z" transform="translate(-118.873 -454.21)" fill="#8897a0" opacity="0.5" style="mix-blend-mode: multiply;isolation: isolate"/>
          <path id="Path_63597" data-name="Path 63597" d="M133.816,517.471l.412-.2v1.118l-31.879-18.395v-.681Z" transform="translate(-75.71 -431.371)" fill="#8897a0" opacity="0.2" style="mix-blend-mode: multiply;isolation: isolate"/>
          <path id="Path_63598" data-name="Path 63598" d="M102.429,495.176l31.879,18.395-1.056.61-31.879-18.394Z" transform="translate(-75.145 -428.978)" fill="#fff" opacity="0.5" style="mix-blend-mode: overlay;isolation: isolate"/>
          <path id="Path_63599" data-name="Path 63599" d="M101.911,501.047l31.878,18.394.185-.117L102.1,500.93Z" transform="translate(-75.456 -432.306)" fill="#fff" opacity="0.2" style="mix-blend-mode: overlay;isolation: isolate"/>
          <g id="Group_11321" data-name="Group 11321" transform="translate(2.149 47.195)" opacity="0.5" style="mix-blend-mode: multiply;isolation: isolate">
            <path id="Path_63600" data-name="Path 63600" d="M48.55,451.682l-4.286,2.433v-3.127l1.554-.882Z" transform="translate(-44.264 -450.106)" fill="#8897a0"/>
          </g>
          <path id="Path_63601" data-name="Path 63601" d="M112.443,488.618l-1.519,3.372v1.149l-1.272-.734v-.613l1.641-3.837Z" transform="translate(-79.933 -424.802)" fill="#8897a0"/>
          <path id="Path_63602" data-name="Path 63602" d="M113.316,489.076l-1.519,3.371V493.6l-.636-.367v-.782l1.583-3.7Z" transform="translate(-80.806 -425.259)" fill="#8897a0" opacity="0.5" style="mix-blend-mode: multiply;isolation: isolate"/>
          <path id="Path_63603" data-name="Path 63603" d="M154.042,512.574l-1.518,3.369v1.151l-.636-.367v-.784l1.583-3.7Z" transform="translate(-104.361 -438.85)" fill="#8897a0" opacity="0.5" style="mix-blend-mode: multiply;isolation: isolate"/>
          <path id="Path_63604" data-name="Path 63604" d="M69.6,338.174l54.341,28.665L93.026,384.393,39.168,354.6Z" transform="translate(-39.168 -338.174)" fill="#fff" opacity="0.5" style="mix-blend-mode: overlay;isolation: isolate"/>
          <path id="Path_63605" data-name="Path 63605" d="M42.118,449.764l.905.522,1.554-.882-.887-.512Z" transform="translate(-40.874 -402.209)" fill="#fff" opacity="0.5" style="mix-blend-mode: overlay;isolation: isolate"/>
          <path id="Path_63606" data-name="Path 63606" d="M197.815,406.158v29.917L166.9,453.629V423.712Z" transform="translate(-113.046 -377.493)" fill="#dfe6ea" opacity="0.5" style="mix-blend-mode: multiply;isolation: isolate"/>
          <path id="Path_63607" data-name="Path 63607" d="M191.863,485.021a5.365,5.365,0,0,0-1.754-.762v0l-3.7-2.026a14.818,14.818,0,0,1-.8-3.82,101.7,101.7,0,0,1,.925-13.308c.563-2.693,1.77-4.021,5.388-6.312s15.315-9.189,15.315-9.189a5.94,5.94,0,0,1,5.922-.267c3.25,1.647,9.349,5.254,10.551,6.678a46.966,46.966,0,0,1,5.61,13.49s.477.356.378,4.021-.2,6.225-.2,6.225.6-.024.351,1.758-.175,2.711-1.38,3.915a78.986,78.986,0,0,1-10.717,7.706,117.838,117.838,0,0,1-12.852,6.325,5.974,5.974,0,0,1-4.04-1.054c-.914-.561-1.864-1.212-2.433-1.611A15.955,15.955,0,0,0,191.863,485.021Z" transform="translate(-123.856 -402.079)" fill="#ffdac5"/>
          <path id="Path_63608" data-name="Path 63608" d="M191.863,504.351a5.366,5.366,0,0,0-1.754-.762v0l-3.7-2.026a14.819,14.819,0,0,1-.8-3.82,101.7,101.7,0,0,1,.925-13.308,7.58,7.58,0,0,1,.855-2.344c1.962,1.168,7.05,4.184,9.022,5.212a8.146,8.146,0,0,1,3.457,3.14,2.5,2.5,0,0,0,.158,1.155c.659,1.942,3.226,10.634,3.226,10.634s.172.961,1.8,1.128c.142.867.3,1.908.35,2.661-.215.015-.407.023-.592.041a3.4,3.4,0,0,1-2.239-1.013v1.083a3.394,3.394,0,0,0,2.239,1.013,10.719,10.719,0,0,0,2.566-.388,35.126,35.126,0,0,0,5.93-2.469,77.723,77.723,0,0,0,12.366-7.665c.772-.626,1.966-1.7,2.99-2.7.376-.367.728-.725,1.029-1.049,0-.006,0-.01,0-.016-.1,3.665-.2,6.225-.2,6.225s.6-.025.351,1.758-.175,2.711-1.38,3.915a79,79,0,0,1-10.717,7.706,117.838,117.838,0,0,1-12.852,6.325,5.975,5.975,0,0,1-4.04-1.054c-.914-.561-1.864-1.212-2.433-1.611A15.955,15.955,0,0,0,191.863,504.351Z" transform="translate(-123.856 -421.41)" fill="#dfe6ea" style="mix-blend-mode: multiply;isolation: isolate"/>
          <g id="Group_11322" data-name="Group 11322" transform="translate(101.893 74.738)">
            <path id="Path_63609" data-name="Path 63609" d="M289.868,522.448h0a.27.27,0,0,0-.137-.061A.271.271,0,0,1,289.868,522.448Z" transform="translate(-285.977 -519.454)" fill="#8897a0"/>
            <path id="Path_63610" data-name="Path 63610" d="M280.923,522.146l-.095.068.593-2.74a3.2,3.2,0,0,1,.659-1.311c.285-.238,1.689-1.756,2.364-2.486l.228-.247c-.058,1.814-.1,2.932-.1,2.932A13.811,13.811,0,0,1,280.923,522.146Z" transform="translate(-280.828 -515.431)" fill="#8897a0"/>
            <path id="Path_63611" data-name="Path 63611" d="M289.715,522.386h0Z" transform="translate(-285.961 -519.453)" fill="#8897a0"/>
          </g>
          <path id="Path_63612" data-name="Path 63612" d="M232.725,549.777s-4.16,1.841-5.522,1.914a5.723,5.723,0,0,1-2.872-.921s-.012.065-.03.172l-.058-.038-.078-.051.2-3.316.229.142a5.806,5.806,0,0,0,2.338.776,9.186,9.186,0,0,0,2.964-.721,11.165,11.165,0,0,1,1.213-.387,2.345,2.345,0,0,1,.471-.057.612.612,0,0,1,.642.405c.016.033.031.065.05.1a15.556,15.556,0,0,1,.584,1.909Z" transform="translate(-146.163 -459.12)" fill="#8897a0"/>
          <path id="Path_63613" data-name="Path 63613" d="M227.089,537.287c1.362-.073,5.522-1.914,5.522-1.914s6.148-3.425,8.394-4.824,5.351-3.17,7.032-4.381a13.819,13.819,0,0,0,3.647-3.782s.6-.024.351,1.758-.175,2.711-1.38,3.915a78.962,78.962,0,0,1-10.717,7.706,117.812,117.812,0,0,1-12.852,6.325,4.308,4.308,0,0,1-2.457-.293,23.5,23.5,0,0,1-.658-3.061,14.53,14.53,0,0,1,.246-2.368A5.723,5.723,0,0,0,227.089,537.287Z" transform="translate(-146.049 -444.715)" fill="#404b4d"/>
          <path id="Path_63614" data-name="Path 63614" d="M192.749,491.249l7.276,4.116a4.018,4.018,0,0,1,2.041,2.37,71.1,71.1,0,0,1,2.437,9.087c.329,2.008.625,3.128,0,3.128s-3.918-3.128-5.5-4.807-6.815-7.309-6.815-7.309a3.2,3.2,0,0,1-.725-2.008c.033-1.153.264-4.28.264-4.28S191.7,490.953,192.749,491.249Z" transform="translate(-127.25 -426.659)" fill="#141c1e"/>
          <path id="Path_63615" data-name="Path 63615" d="M220.328,480.527a98.2,98.2,0,0,0,12.938-6.749,69.714,69.714,0,0,0,10.1-7.241h0a46.7,46.7,0,0,1,5.493,13.3.23.23,0,0,1,.048.065c-.353.459-.8,1.035-1.358,1.742a31.3,31.3,0,0,1-9.547,7.407c-4.675,2.535-8.955,4.873-11.951,5.268s-3.259-1.087-3.259-1.087-2.567-8.692-3.226-10.634S220.328,480.527,220.328,480.527Z" transform="translate(-143.406 -412.414)" fill="#141c1e"/>
          <path id="Path_63616" data-name="Path 63616" d="M192.887,520.029l-2.751-1.753v-.8s-.022-.466.776,0,1.959,1.42,1.982,1.907A3.426,3.426,0,0,1,192.887,520.029Z" transform="translate(-126.482 -441.757)" fill="#404b4d"/>
          <path id="Path_63617" data-name="Path 63617" d="M190.136,517.48s-.013-.322.444-.16v.758l2.321,1.5a2.64,2.64,0,0,1-.013.456l-2.751-1.753Z" transform="translate(-126.482 -441.759)" opacity="0.5" style="mix-blend-mode: multiply;isolation: isolate"/>
          <g id="Group_11323" data-name="Group 11323" transform="translate(86.417 78.642)">
            <path id="Path_63618" data-name="Path 63618" d="M258.747,527.447c-.926.638-3.776,2.591-5.8,3.734-1.967,1.111-6.018,3.375-7.53,4.22,0,0-.6.163-.808-.179l-.443-1.014a.653.653,0,0,1,.366-.837c1.615-.852,6.089-3.217,7.982-4.292,1.833-1.042,5.286-3.346,6.676-4.283,0,0,.554-.371.429.261l-.475,1.813A1.316,1.316,0,0,1,258.747,527.447Z" transform="translate(-244.124 -524.689)" fill="#525f61"/>
          </g>
          <g id="Group_11324" data-name="Group 11324" transform="translate(86.579 78.802)">
            <path id="Path_63619" data-name="Path 63619" d="M253.575,532.66c1.74-.985,4.309-2.669,6.232-3.961l-.035.137c-2.62,1.778-4.821,3.185-6.25,3.993-1.467.83-4.268,2.385-8.125,4.511l-.062-.142C249.331,535.02,252.1,533.494,253.575,532.66Z" transform="translate(-244.985 -527.169)" fill="#141c1e"/>
            <path id="Path_63620" data-name="Path 63620" d="M253.782,533.481c1.4-.794,3.553-2.165,6.109-3.9l-.018.071c-.007.018-.016.042-.029.07-1.567,1.075-4.2,2.839-6.116,3.924-2.158,1.218-6.509,3.651-7.921,4.44a.292.292,0,0,1-.158-.094C249.51,535.867,252.314,534.311,253.782,533.481Z" transform="translate(-245.167 -527.681)" fill="#141c1e"/>
            <path id="Path_63621" data-name="Path 63621" d="M253.376,531.836c1.716-.972,4.307-2.661,6.357-4.029l-.037.141c-1.936,1.3-4.591,3.048-6.373,4.057-1.469.831-4.236,2.355-8.226,4.528l-.061-.138C249.1,534.2,251.9,532.673,253.376,531.836Z" transform="translate(-244.813 -526.653)" fill="#141c1e"/>
            <path id="Path_63622" data-name="Path 63622" d="M253.019,530.18c1.708-.969,4.423-2.726,6.606-4.17l-.038.146c-2.186,1.454-4.882,3.205-6.622,4.193-1.49.845-4.319,2.382-8.423,4.575l-.007-.016a.445.445,0,0,1-.028-.128C249.6,532.079,251.943,530.792,253.019,530.18Z" transform="translate(-244.507 -525.614)" fill="#141c1e"/>
            <path id="Path_63623" data-name="Path 63623" d="M253.181,531.011c1.7-.968,4.321-2.664,6.482-4.1l-.038.143c-2.069,1.383-4.743,3.129-6.5,4.124-1.474.835-4.271,2.364-8.325,4.551l-.059-.136C248.855,533.4,251.689,531.858,253.181,531.011Z" transform="translate(-244.644 -526.135)" fill="#141c1e"/>
            <path id="Path_63624" data-name="Path 63624" d="M254.445,534.458c1.8-1.018,4.225-2.632,5.815-3.718a.538.538,0,0,1-.086.075c-1.369.944-3.941,2.683-5.788,3.726-2.113,1.194-6.582,3.691-7.51,4.209a1.265,1.265,0,0,1-.127.022C248.354,537.874,252.391,535.617,254.445,534.458Z" transform="translate(-245.804 -528.349)" fill="#141c1e"/>
            <path id="Path_63625" data-name="Path 63625" d="M252.977,529.5c-1.068.607-3.388,1.88-8.406,4.542a.582.582,0,0,1,.3-.3c3.995-2.108,6.682-3.553,7.987-4.295,1.839-1.044,5.289-3.348,6.686-4.289a.536.536,0,0,1,.193-.081.448.448,0,0,1-.009.164C257.517,526.693,254.719,528.507,252.977,529.5Z" transform="translate(-244.544 -525.07)" fill="#141c1e"/>
          </g>
          <path id="Path_63626" data-name="Path 63626" d="M236.2,520.53a31.606,31.606,0,0,0,6.376-2.584,77.791,77.791,0,0,0,12.366-7.666c.772-.626,1.966-1.7,2.99-2.7v1.083c-1.024,1-2.218,2.075-2.99,2.7a77.738,77.738,0,0,1-12.366,7.665,35.2,35.2,0,0,1-5.93,2.469Z" transform="translate(-153.123 -436.152)" fill="#525f61"/>
          <path id="Path_63627" data-name="Path 63627" d="M228.1,537.552a11.357,11.357,0,0,0,2.121-.272l.446.968a10.715,10.715,0,0,1-2.567.388,3.393,3.393,0,0,1-2.239-1.013v-1.083A3.4,3.4,0,0,0,228.1,537.552Z" transform="translate(-147.143 -452.901)" fill="#f6921e"/>
          <path id="Path_63628" data-name="Path 63628" d="M288.782,505.055c0,.325,0,.683-.013,1.083,0,.005,0,.01,0,.016-.3.324-.654.682-1.029,1.049V506.12C288.121,505.746,288.478,505.383,288.782,505.055Z" transform="translate(-182.932 -434.692)" fill="#f6921e"/>
          <g id="Group_11325" data-name="Group 11325" transform="translate(78.168 88.332)">
            <path id="Path_63629" data-name="Path 63629" d="M227.152,548.837c1.243.074,3.361-.933,4.219-1.11s.844.118.992.37a18.2,18.2,0,0,1,.578,1.907c-.247.109-4.191,1.838-5.51,1.909a5.723,5.723,0,0,1-2.872-.92l.18-2.955A5.946,5.946,0,0,0,227.152,548.837Z" transform="translate(-224.559 -547.673)" fill="#f0eff0"/>
          </g>
          <path id="Path_63630" data-name="Path 63630" d="M284.838,518.7a13.653,13.653,0,0,1-3.547,3.709l.553-2.557a3.2,3.2,0,0,1,.607-1.228c.308-.257,1.815-1.889,2.482-2.611C284.878,517.683,284.838,518.7,284.838,518.7Z" transform="translate(-179.203 -441.029)" fill="#f0eff0"/>
          <path id="Path_63631" data-name="Path 63631" d="M244.814,555.014l2.864-1.413a.7.7,0,0,1,.077-.029v.35a1.261,1.261,0,0,1-.6,1.007l-2.76,1.482a.665.665,0,0,1-.116.048l-.03-.46A1.109,1.109,0,0,1,244.814,555.014Z" transform="translate(-157.777 -462.752)" fill="#141c1e"/>
          <path id="Path_63632" data-name="Path 63632" d="M272.383,539.8a1.638,1.638,0,0,1,.655-1.047l2.561-1.637-.05.29a1.791,1.791,0,0,1-.687,1.047l-2.513,1.641Z" transform="translate(-174.031 -453.233)" fill="#141c1e"/>
          <path id="Path_63633" data-name="Path 63633" d="M244.437,556.369l2.76-1.482a1.262,1.262,0,0,0,.6-1.008v-.35c.3-.106.536.064.536.411v.4a1.261,1.261,0,0,1-.6,1.007l-2.76,1.482a.408.408,0,0,1-.648-.359l0-.049A.655.655,0,0,0,244.437,556.369Z" transform="translate(-157.821 -462.709)" fill="#fff" opacity="0.5" style="mix-blend-mode: overlay;isolation: isolate"/>
          <path id="Path_63634" data-name="Path 63634" d="M272.328,539.811l2.514-1.642a1.791,1.791,0,0,0,.687-1.047l.05-.29.175-.111c.317-.2.525-.066.461.306l-.067.4a1.793,1.793,0,0,1-.688,1.047l-2.648,1.73c-.315.205-.537.068-.494-.306Z" transform="translate(-174.011 -452.952)" fill="#fff" opacity="0.5" style="mix-blend-mode: overlay;isolation: isolate"/>
          <path id="Path_63635" data-name="Path 63635" d="M226.289,537.547a17.764,17.764,0,0,1-1.73-1.18,5.723,5.723,0,0,0,2.872.92c1.362-.073,5.522-1.914,5.522-1.914s6.148-3.425,8.394-4.824,5.351-3.17,7.032-4.381a13.819,13.819,0,0,0,3.647-3.782s.2-.008.326.337c-.6,1.352-2.792,3.089-3.848,3.886-1.653,1.247-4.786,2.983-7.031,4.381s-8.394,4.823-8.394,4.823-4.16,1.841-5.523,1.914A2.663,2.663,0,0,1,226.289,537.547Z" transform="translate(-146.391 -444.715)" fill="#fff" opacity="0.5" style="mix-blend-mode: overlay;isolation: isolate"/>
          <path id="Path_63636" data-name="Path 63636" d="M256.44,546.965a.365.365,0,0,1-.005-.058v-2.171a.879.879,0,0,1,.393-.685l5.109-2.977a.406.406,0,0,1,.111-.044.434.434,0,0,1,.006.063v2.074a.892.892,0,0,1-.391.69l-5.115,3.065A.427.427,0,0,1,256.44,546.965Z" transform="translate(-164.827 -455.498)" opacity="0.2" style="mix-blend-mode: multiply;isolation: isolate"/>
          <path id="Path_63637" data-name="Path 63637" d="M256.556,546.91l5.115-3.064a.893.893,0,0,0,.391-.69v-2.074a.413.413,0,0,0-.006-.063c.162-.039.283.065.283.27v2.075a.9.9,0,0,1-.391.69l-5.115,3.064c-.2.118-.36.043-.385-.163A.422.422,0,0,0,256.556,546.91Z" transform="translate(-164.835 -455.487)" fill="#fff" opacity="0.5" style="mix-blend-mode: overlay;isolation: isolate"/>
          <path id="Path_63638" data-name="Path 63638" d="M224.217,536.367a5.723,5.723,0,0,0,2.872.92c1.362-.073,5.522-1.914,5.522-1.914s6.148-3.425,8.394-4.824,5.351-3.17,7.032-4.381a13.819,13.819,0,0,0,3.647-3.782s.6-.024.351,1.758c-.067.481-.112.9-.164,1.281a32.527,32.527,0,0,1-3.776,2.97.439.439,0,0,0-.3.089l-.175.111-2.561,1.637a1.426,1.426,0,0,0-.382.39l-1.12.7v-.807c0-.205-.121-.309-.283-.27a.392.392,0,0,0-.111.044l-5.109,2.977a.88.88,0,0,0-.393.685v1.084q-.575.328-1.157.646a.365.365,0,0,0-.474-.148.657.657,0,0,0-.077.029l-2.864,1.413a1.117,1.117,0,0,0-.537.7,33.8,33.8,0,0,1-4.995,1.946,5.789,5.789,0,0,1-3.514-.348,4.456,4.456,0,0,1-.07-.536A14.53,14.53,0,0,1,224.217,536.367Z" transform="translate(-146.049 -444.715)" fill="#fff" opacity="0.1" style="mix-blend-mode: overlay;isolation: isolate"/>
          <g id="Group_11326" data-name="Group 11326" transform="translate(83.719 88.852)">
            <path id="Path_63639" data-name="Path 63639" d="M239.583,549.568a1.8,1.8,0,0,1-.772,1.662.689.689,0,0,1-1.076-.543,1.8,1.8,0,0,1,.773-1.662A.688.688,0,0,1,239.583,549.568Z" transform="translate(-237.724 -548.905)" fill="#fff"/>
          </g>
          <g id="Group_11327" data-name="Group 11327" transform="translate(102.974 77.58)">
            <path id="Path_63640" data-name="Path 63640" d="M284.761,522.834a2.089,2.089,0,0,1-.569,1.662c-.344.3-.743.018-.791-.543a2.09,2.09,0,0,1,.569-1.662C284.313,521.994,284.712,522.274,284.761,522.834Z" transform="translate(-283.393 -522.171)" fill="#fff"/>
          </g>
          <g id="Group_11328" data-name="Group 11328" transform="translate(104.362 76.147)">
            <path id="Path_63641" data-name="Path 63641" d="M287.823,519.323a1.74,1.74,0,0,1-.474,1.383c-.287.247-.618.015-.658-.451a1.743,1.743,0,0,1,.473-1.383C287.451,518.625,287.783,518.857,287.823,519.323Z" transform="translate(-286.685 -518.772)" fill="#fff"/>
          </g>
          <g id="Group_11329" data-name="Group 11329" transform="translate(81.566 89.783)">
            <path id="Path_63642" data-name="Path 63642" d="M234.335,551.726a1.662,1.662,0,0,1-.713,1.536.636.636,0,0,1-.993-.5,1.662,1.662,0,0,1,.714-1.537A.636.636,0,0,1,234.335,551.726Z" transform="translate(-232.619 -551.113)" fill="#fff"/>
          </g>
          <g id="Group_11330" data-name="Group 11330" transform="translate(79.397 90.061)">
            <path id="Path_63643" data-name="Path 63643" d="M228.98,552.31a1.455,1.455,0,0,1-.626,1.347.558.558,0,0,1-.871-.44,1.457,1.457,0,0,1,.626-1.346A.558.558,0,0,1,228.98,552.31Z" transform="translate(-227.475 -551.773)" fill="#fff"/>
          </g>
          <path id="Path_63644" data-name="Path 63644" d="M203.391,534.836a.629.629,0,0,1-.084.032.086.086,0,0,1-.044.006c-.015-.006-.017-.02-.026-.03l-.044-.066-.088-.13-.179-.259-.364-.515c-.244-.342-.488-.683-.738-1.021q-.741-1.02-1.522-2.013a39.943,39.943,0,0,0-3.346-3.783,32.046,32.046,0,0,0-3.835-3.294,16.886,16.886,0,0,0-4.442-2.378,19.652,19.652,0,0,1,4.288,2.586,38.585,38.585,0,0,1,3.742,3.334q1.763,1.785,3.417,3.68.823.95,1.61,1.934c.259.33.516.662.766,1l.37.509.182.256.091.129.045.065c.005.012.019.019.019.036a.1.1,0,0,1-.023.038.505.505,0,0,1-.062.065Z" transform="translate(-125.64 -444.136)" opacity="0.2" style="mix-blend-mode: multiply;isolation: isolate"/>
          <path id="Path_63645" data-name="Path 63645" d="M206.677,508.221c-.164-1.086-.362-2.167-.557-3.247s-.424-2.156-.653-3.231-.479-2.146-.753-3.212-.576-2.126-.954-3.171a4.639,4.639,0,0,0-.891-1.458,10.11,10.11,0,0,0-1.206-1.167,16.129,16.129,0,0,0-1.342-.987,14.16,14.16,0,0,0-1.432-.846l-2.926-1.513c-.981-.493-1.956-1-2.943-1.478l-.025.047c.947.556,1.9,1.093,2.857,1.639l2.877,1.6a17.318,17.318,0,0,1,2.679,1.84,9.7,9.7,0,0,1,1.153,1.126,4.4,4.4,0,0,1,.818,1.335c.378,1.018.675,2.073.968,3.127s.553,2.12.818,3.184.508,2.133.752,3.2.485,2.141.727,3.212Z" transform="translate(-128.135 -424.776)" opacity="0.2" style="mix-blend-mode: multiply;isolation: isolate"/>
          <path id="Path_63646" data-name="Path 63646" d="M218.893,559.081c.113.74.433,2,.618,2.706l-1.583-.761c-.914-.561-1.864-1.212-2.433-1.611a14.642,14.642,0,0,0-.376-2.465Z" transform="translate(-140.931 -464.706)" fill="#141c1e"/>
          <path id="Path_63647" data-name="Path 63647" d="M290.019,490.048a2.02,2.02,0,0,0,.841.882,29.315,29.315,0,0,0,2.914-.382,2.323,2.323,0,0,0,.372-.1v-4.307a1.56,1.56,0,0,1,.279-.817l.4-.512c.153-.2.279-.156.279.095v4.956a1.121,1.121,0,0,1-.348.75l-.258.219c-.159.134-.292.106-.333-.05a2.633,2.633,0,0,1-.329.082,29.146,29.146,0,0,1-2.994.39l-.039,0-.036-.016a2.286,2.286,0,0,1-1.034-1.053c-.238-.491-.743-.625-1.636-.43l-.068-.314C288.686,489.3,289.611,489.207,290.019,490.048Z" transform="translate(-183.098 -422.912)" fill="#263338"/>
          <path id="Path_63648" data-name="Path 63648" d="M192.866,492.312h.034a1.356,1.356,0,0,1,.326.05l7.222,4.086.033.018.035.013a3.563,3.563,0,0,1,1.761,2.093,70.048,70.048,0,0,1,2.41,8.991c.047.286.093.554.136.8a12.508,12.508,0,0,1,.226,1.695,38.27,38.27,0,0,1-5.033-4.586c-1.538-1.633-6.6-7.081-6.807-7.3a2.732,2.732,0,0,1-.6-1.672C192.639,495.467,192.832,492.777,192.866,492.312Z" transform="translate(-127.912 -427.321)" fill="#263338"/>
          <path id="Path_63649" data-name="Path 63649" d="M220.642,482.286a.6.6,0,0,1,.4-.254l.08,0,.051-.028a99.673,99.673,0,0,0,13.009-6.785,77.4,77.4,0,0,0,9.736-6.9,45.826,45.826,0,0,1,5.111,12.537c-.366.473-.765.986-1.191,1.527-1.123,1.425-3.837,4.266-9.4,7.282l-.188.1c-4.489,2.434-8.728,4.733-11.6,5.112a6.942,6.942,0,0,1-.885.063c-1.558,0-1.811-.676-1.837-.761l0-.036-.007-.01c-.105-.355-2.578-8.722-3.232-10.652A1.5,1.5,0,0,1,220.642,482.286Z" transform="translate(-144.068 -413.44)" fill="#263338"/>
          <path id="Path_63650" data-name="Path 63650" d="M249.26,495.232a18.807,18.807,0,0,0-6.862,1.96,11.027,11.027,0,0,0-3.976,3.826l-11.592,6.219c.112.375.215.721.306,1.03l13.184-7.144c1.8-1.095,10.426-5.891,10.426-5.891Z" transform="translate(-147.705 -429.01)" fill="#36474c"/>
          <path id="Path_63651" data-name="Path 63651" d="M253.084,496.406l-1.918-1.174a31.772,31.772,0,0,0-7.142,2.671c-1.653.933-2.651,2.834-3.285,3.22l-13.184,7.144c.238.8.4,1.343.423,1.428l.007.01,0,.036c.026.086.279.761,1.837.761a6.987,6.987,0,0,0,.885-.062c2.867-.379,7.107-2.678,11.6-5.112l.188-.1c5.562-3.016,8.276-5.856,9.4-7.282.426-.541.826-1.054,1.191-1.527Z" transform="translate(-148.125 -429.01)" fill="#45555b"/>
          <path id="Path_63652" data-name="Path 63652" d="M221.044,497.846l.08,0,.051-.028c.033-.014,1.871-.771,4.67-2.161l-.16,3.551-4.229,2.508c-.325-1.06-.6-1.943-.765-2.425a1.5,1.5,0,0,1-.049-1.186A.6.6,0,0,1,221.044,497.846Z" transform="translate(-144.068 -429.253)" fill="#45555b" opacity="0.5"/>
          <path id="Path_63653" data-name="Path 63653" d="M245.774,484.33l.416-.258v3.474l-5.083,2.483-.524-2.7C242.189,486.459,243.949,485.458,245.774,484.33Z" transform="translate(-155.659 -422.556)" fill="#45555b" opacity="0.5"/>
          <path id="Path_63654" data-name="Path 63654" d="M246.725,497.9l-4.9-3.1,5.083-2.483,5.369,2.3Z" transform="translate(-156.377 -427.321)" fill="#36474c" opacity="0.5"/>
          <path id="Path_63655" data-name="Path 63655" d="M223.4,508.856c-.239-.792-.475-1.571-.691-2.274l4.229-2.508,5.839,2.189-7.324,4.47Z" transform="translate(-145.321 -434.124)" fill="#36474c" opacity="0.5"/>
          <path id="Path_63656" data-name="Path 63656" d="M251.708,496.125c.288.87,1.938,1.1,3.684.524s2.926-1.753,2.638-2.623-1.938-1.105-3.684-.525S251.42,495.256,251.708,496.125Z" transform="translate(-162.068 -427.826)" fill="#45555b"/>
          <path id="Path_63657" data-name="Path 63657" d="M253.324,496.661c.2.6,1.45.735,2.789.29s2.262-1.3,2.061-1.9-1.449-.737-2.788-.292S253.124,496.055,253.324,496.661Z" transform="translate(-163.012 -428.584)" fill="#36474c"/>
          <path id="Path_63658" data-name="Path 63658" d="M257.155,497.191c.068.205.49.249.943.1s.765-.439.7-.643-.49-.249-.944-.1S257.087,496.986,257.155,497.191Z" transform="translate(-165.238 -429.72)" fill="#45555b"/>
          <path id="Path_63659" data-name="Path 63659" d="M213.371,519.284l-5.663-3.66,4.11-2.544C212.431,515.173,213.1,517.8,213.371,519.284Z" transform="translate(-136.645 -439.332)" fill="#36474c" opacity="0.5"/>
          <path id="Path_63660" data-name="Path 63660" d="M209.291,504.168l-4.11,2.544s-1.355-6.462-1.842-9.041l3.316,1.876.033.018.035.013a3.565,3.565,0,0,1,1.761,2.093C208.7,502.241,208.991,503.141,209.291,504.168Z" transform="translate(-134.118 -430.421)" fill="#45555b" opacity="0.5"/>
          <path id="Path_63661" data-name="Path 63661" d="M268.209,468.69c.588,1.057,3.891,7.183,4.1,11.631l-.719-.44H270.1l-7.238-7.176A64.926,64.926,0,0,0,268.209,468.69Z" transform="translate(-168.544 -413.66)" fill="#c4d0d3"/>
          <path id="Path_63662" data-name="Path 63662" d="M263.34,468.31a45.824,45.824,0,0,1,5.111,12.537c-.366.473-.765.986-1.191,1.527a19.855,19.855,0,0,1-2.4,2.5c-2.674-4.385-7.379-7.879-10.734-9.982A75.78,75.78,0,0,0,263.34,468.31Z" transform="translate(-163.489 -413.44)" fill="#fff" opacity="0.2"/>
          <path id="Path_63663" data-name="Path 63663" d="M231.1,525.942l-.208,4.939s-.806.884-2.418,0V526.2A5.5,5.5,0,0,0,231.1,525.942Z" transform="translate(-148.658 -446.772)" fill="#263338"/>
        </g>
      </g>
      <g id="Group_20657" data-name="Group 20657" transform="translate(30.133 122.408)">
        <path id="Path_95546" data-name="Path 95546" d="M4574.932,9063.238c-1.379-.06-2.427-.691-2.427-1.424v-.2a29.758,29.758,0,0,1-6.113-1.348l-.278.147a4.554,4.554,0,0,1-3.616.1c-.405-.183-.8-.378-1.187-.58s-.747-.414-1.093-.629c-.9-.559-.8-1.4.183-1.914l.278-.148a8.553,8.553,0,0,1-2.539-3.24h-.388c-1.385,0-2.579-.553-2.686-1.286a5.783,5.783,0,0,1,0-1.709c.107-.732,1.3-1.284,2.686-1.284h.388a8.538,8.538,0,0,1,2.539-3.24l-.278-.147c-.979-.519-1.083-1.358-.183-1.916.347-.215.71-.424,1.093-.628s.781-.4,1.187-.58a4.558,4.558,0,0,1,3.616.1l.278.147a29.823,29.823,0,0,1,6.113-1.347v-.2c0-.734,1.047-1.367,2.427-1.425.532-.022,1.071-.033,1.614-.033s1.081.011,1.613.033c1.379.058,2.427.69,2.427,1.425v.2a29.823,29.823,0,0,1,6.113,1.347l.278-.147a4.557,4.557,0,0,1,3.615-.1q.608.274,1.187.58t1.094.628c.9.558.8,1.4-.183,1.916l-.278.147a8.533,8.533,0,0,1,2.539,3.24h.389c1.384,0,2.578.552,2.685,1.284a5.783,5.783,0,0,1,0,1.709c-.107.733-1.3,1.286-2.685,1.286h-.389a8.555,8.555,0,0,1-2.539,3.24l.278.148c.979.518,1.083,1.355.183,1.914q-.52.322-1.094.629c-.386.2-.781.4-1.187.58a4.552,4.552,0,0,1-3.615-.1l-.278-.147a29.758,29.758,0,0,1-6.113,1.348v.2c0,.732-1.047,1.364-2.427,1.424-.532.021-1.071.033-1.613.033S4575.464,9063.26,4574.932,9063.238Zm-9.157-11.382c0,3.152,4.821,5.709,10.771,5.709s10.771-2.557,10.771-5.709-4.822-5.707-10.771-5.707S4565.775,9048.705,4565.775,9051.856Zm46.556,10.74-7.265-.3c-1.114-.047-1.644-.75-.894-1.189l4.883-2.866a2.041,2.041,0,0,1,2.251.214l.186.249c11.959-2.3,20.879-7.965,22.737-14.74.107-.385.745-.658,1.472-.618l2.678.151c.752.042,1.306.407,1.2.8-2.095,7.823-12.333,14.373-26.092,17.059l.2.267c.355.473-.312.978-1.249.978Zm-2.045-12.8c-1.382-.058-2.427-.689-2.427-1.423v-.206a29.77,29.77,0,0,1-6.112-1.344l-.281.147a4.573,4.573,0,0,1-3.615.1c-.405-.186-.8-.378-1.184-.581s-.75-.414-1.1-.628c-.9-.559-.8-1.4.183-1.916l.281-.147a8.506,8.506,0,0,1-2.539-3.24h-.388c-1.386,0-2.578-.554-2.687-1.285a5.777,5.777,0,0,1,0-1.708c.11-.732,1.3-1.285,2.688-1.285h.388a8.5,8.5,0,0,1,2.539-3.241l-.281-.147c-.979-.519-1.082-1.358-.183-1.916.347-.214.71-.425,1.1-.629s.779-.395,1.184-.579a4.56,4.56,0,0,1,3.615.1l.281.148a29.64,29.64,0,0,1,6.112-1.346v-.207c0-.732,1.045-1.365,2.427-1.422.532-.021,1.069-.034,1.613-.034s1.079.013,1.611.034c1.382.057,2.427.689,2.427,1.422v.207a29.648,29.648,0,0,1,6.112,1.346l.281-.148a4.555,4.555,0,0,1,3.613-.1c.408.185.8.376,1.187.579s.75.415,1.1.629c.9.558.8,1.4-.184,1.916l-.28.147a8.527,8.527,0,0,1,2.541,3.241h.385c1.384,0,2.579.553,2.688,1.285a5.821,5.821,0,0,1,0,1.708c-.11.731-1.3,1.285-2.688,1.285h-.385a8.532,8.532,0,0,1-2.541,3.24l.28.147c.979.519,1.082,1.357.184,1.916-.347.214-.711.424-1.1.628s-.779.4-1.187.581a4.567,4.567,0,0,1-3.613-.1l-.281-.147a29.777,29.777,0,0,1-6.112,1.344v.206c0,.733-1.045,1.365-2.427,1.423q-.8.034-1.611.034T4610.285,9049.795Zm-9.16-11.381c0,3.152,4.824,5.709,10.773,5.709s10.771-2.557,10.771-5.709-4.824-5.706-10.771-5.706S4601.125,9035.264,4601.125,9038.414Zm-48.233,7.843-2.678-.151c-.751-.043-1.309-.405-1.2-.8,2.095-7.822,12.33-14.373,26.091-17.059l-.2-.266c-.369-.491.364-1.017,1.357-.975l7.265.3c1.113.047,1.643.751.893,1.19l-4.882,2.865a2.034,2.034,0,0,1-2.25-.214l-.188-.248c-11.957,2.3-20.877,7.964-22.737,14.74-.1.357-.663.621-1.328.621C4552.988,9046.261,4552.94,9046.26,4552.893,9046.257Z" transform="translate(-4549 -9005.726)" opacity="0.09"/>
        <g id="Group_20656" data-name="Group 20656">
          <path id="Path_95540" data-name="Path 95540" d="M50.52,265.048a2.555,2.555,0,0,0-2.686-2.077h-.388a14.87,14.87,0,0,0-2.54-5.235l.279-.239a2.058,2.058,0,0,0,.184-3.1q-.52-.521-1.1-1.016t-1.186-.938a3.012,3.012,0,0,0-3.614.157l-.279.239a20.549,20.549,0,0,0-6.113-2.175v-.332a2.46,2.46,0,0,0-2.426-2.3q-.8-.054-1.613-.055t-1.613.055a2.46,2.46,0,0,0-2.426,2.3v.332a20.547,20.547,0,0,0-6.113,2.175l-.279-.239A3.012,3.012,0,0,0,15,252.447q-.609.446-1.186.938t-1.1,1.016a2.058,2.058,0,0,0,.184,3.1l.279.239a14.872,14.872,0,0,0-2.54,5.235H10.25a2.555,2.555,0,0,0-2.686,2.077q-.063.684-.064,1.382t.064,1.381a2.555,2.555,0,0,0,2.686,2.077h.388a14.871,14.871,0,0,0,2.54,5.235l-.279.239a2.058,2.058,0,0,0-.184,3.1q.52.521,1.1,1.016t1.186.938a3.012,3.012,0,0,0,3.614-.157l.279-.239A20.549,20.549,0,0,0,25,282.189v.332a2.459,2.459,0,0,0,2.426,2.3q.8.054,1.613.055t1.613-.055a2.459,2.459,0,0,0,2.426-2.3v-.332a20.547,20.547,0,0,0,6.113-2.175l.279.239a3.011,3.011,0,0,0,3.614.157q.609-.445,1.186-.938t1.1-1.016a2.058,2.058,0,0,0-.184-3.1l-.279-.239a14.872,14.872,0,0,0,2.54-5.235h.388a2.555,2.555,0,0,0,2.686-2.077q.063-.684.064-1.381T50.52,265.048ZM29.042,275.653c-5.949,0-10.771-4.13-10.771-9.223s4.822-9.224,10.771-9.224,10.771,4.13,10.771,9.224S34.991,275.653,29.042,275.653Z" transform="translate(-1.497 -225.187)" fill="#1a3a81"/>
          <g id="Group_20655" data-name="Group 20655">
            <path id="Path_95538" data-name="Path 95538" d="M282.408,309.71l7.265.49c.994.067,1.725-.783,1.356-1.576l-.2-.43c13.76-4.34,24-14.926,26.091-27.568a1.212,1.212,0,0,0-1.2-1.3l-2.677-.244a1.319,1.319,0,0,0-1.471,1c-1.859,10.953-10.78,20.1-22.737,23.823l-.187-.4a1.459,1.459,0,0,0-2.25-.346l-4.883,4.633C280.765,308.5,281.294,309.635,282.408,309.71Z" transform="translate(-226.342 -251.603)" fill="#ab4a0a"/>
            <path id="Path_95539" data-name="Path 95539" d="M291,24.565a2.555,2.555,0,0,0-2.686-2.077h-.388a14.87,14.87,0,0,0-2.54-5.235l.28-.239a2.058,2.058,0,0,0,.184-3.1q-.52-.521-1.1-1.016t-1.186-.938a3.012,3.012,0,0,0-3.614.157l-.279.239a20.549,20.549,0,0,0-6.113-2.175V9.854a2.46,2.46,0,0,0-2.426-2.3q-.8-.054-1.613-.055t-1.613.055a2.46,2.46,0,0,0-2.426,2.3v.332a20.547,20.547,0,0,0-6.113,2.175l-.279-.239a3.012,3.012,0,0,0-3.614-.157q-.609.446-1.186.938t-1.1,1.016a2.058,2.058,0,0,0,.184,3.1l.28.239a14.872,14.872,0,0,0-2.54,5.235h-.388a2.555,2.555,0,0,0-2.686,2.077q-.063.684-.064,1.381t.064,1.381a2.555,2.555,0,0,0,2.686,2.077h.388a14.871,14.871,0,0,0,2.54,5.235l-.28.239a2.058,2.058,0,0,0-.184,3.1q.52.521,1.1,1.016t1.186.938a3.012,3.012,0,0,0,3.614-.157l.279-.239a20.549,20.549,0,0,0,6.113,2.175v.332a2.459,2.459,0,0,0,2.426,2.3q.8.054,1.613.055t1.613-.055a2.459,2.459,0,0,0,2.426-2.3v-.332a20.547,20.547,0,0,0,6.113-2.175l.279.239a3.011,3.011,0,0,0,3.614.157q.609-.446,1.186-.938t1.1-1.016a2.058,2.058,0,0,0-.184-3.1l-.28-.239a14.871,14.871,0,0,0,2.54-5.235h.388A2.555,2.555,0,0,0,291,27.327q.063-.684.064-1.381T291,24.565Zm-21.478,10.6c-5.949,0-10.771-4.13-10.771-9.223s4.822-9.223,10.771-9.223,10.771,4.13,10.771,9.223S275.474,35.169,269.526,35.169Z" transform="translate(-206.628 -6.428)" fill="#ab4a0a"/>
            <path id="Path_95537" data-name="Path 95537" d="M52.284,16.881l-7.265-.49c-.994-.067-1.725.783-1.356,1.576l.2.43c-13.76,4.34-24,14.926-26.092,27.568a1.212,1.212,0,0,0,1.2,1.3l2.677.244a1.319,1.319,0,0,0,1.471-1c1.859-10.953,10.78-20.1,22.737-23.823l.187.4a1.459,1.459,0,0,0,2.25.346L53.177,18.8C53.926,18.092,53.4,16.956,52.284,16.881Z" transform="translate(-17.757 -15.316)" fill="#1a3a81"/>
            <path id="Path_95538-2" data-name="Path 95538" d="M282.408,309.71l7.265.49c.994.067,1.725-.783,1.356-1.576l-.2-.43c13.76-4.34,24-14.926,26.091-27.568a1.212,1.212,0,0,0-1.2-1.3l-2.677-.244a1.319,1.319,0,0,0-1.471,1c-1.859,10.953-10.78,20.1-22.737,23.823l-.187-.4a1.459,1.459,0,0,0-2.25-.346l-4.883,4.633C280.765,308.5,281.294,309.635,282.408,309.71Z" transform="translate(-226.342 -252.674)" fill="#ff975d"/>
            <path id="Path_95539-2" data-name="Path 95539" d="M291,24.565a2.555,2.555,0,0,0-2.686-2.077h-.388a14.87,14.87,0,0,0-2.54-5.235l.28-.239a2.058,2.058,0,0,0,.184-3.1q-.52-.521-1.1-1.016t-1.186-.938a3.012,3.012,0,0,0-3.614.157l-.279.239a20.549,20.549,0,0,0-6.113-2.175V9.854a2.46,2.46,0,0,0-2.426-2.3q-.8-.054-1.613-.055t-1.613.055a2.46,2.46,0,0,0-2.426,2.3v.332a20.547,20.547,0,0,0-6.113,2.175l-.279-.239a3.012,3.012,0,0,0-3.614-.157q-.609.446-1.186.938t-1.1,1.016a2.058,2.058,0,0,0,.184,3.1l.28.239a14.872,14.872,0,0,0-2.54,5.235h-.388a2.555,2.555,0,0,0-2.686,2.077q-.063.684-.064,1.381t.064,1.381a2.555,2.555,0,0,0,2.686,2.077h.388a14.871,14.871,0,0,0,2.54,5.235l-.28.239a2.058,2.058,0,0,0-.184,3.1q.52.521,1.1,1.016t1.186.938a3.012,3.012,0,0,0,3.614-.157l.279-.239a20.549,20.549,0,0,0,6.113,2.175v.332a2.459,2.459,0,0,0,2.426,2.3q.8.054,1.613.055t1.613-.055a2.459,2.459,0,0,0,2.426-2.3v-.332a20.547,20.547,0,0,0,6.113-2.175l.279.239a3.011,3.011,0,0,0,3.614.157q.609-.446,1.186-.938t1.1-1.016a2.058,2.058,0,0,0-.184-3.1l-.28-.239a14.871,14.871,0,0,0,2.54-5.235h.388A2.555,2.555,0,0,0,291,27.327q.063-.684.064-1.381T291,24.565Zm-21.478,10.6c-5.949,0-10.771-4.13-10.771-9.223s4.822-9.223,10.771-9.223,10.771,4.13,10.771,9.223S275.474,35.169,269.526,35.169Z" transform="translate(-206.628 -7.499)" fill="#ff975d"/>
            <path id="Path_95537-2" data-name="Path 95537" d="M52.284,16.881l-7.265-.49c-.994-.067-1.725.783-1.356,1.576l.2.43c-13.76,4.34-24,14.926-26.092,27.568a1.212,1.212,0,0,0,1.2,1.3l2.677.244a1.319,1.319,0,0,0,1.471-1c1.859-10.953,10.78-20.1,22.737-23.823l.187.4a1.459,1.459,0,0,0,2.25.346L53.177,18.8C53.926,18.092,53.4,16.956,52.284,16.881Z" transform="translate(-17.757 -16.387)" fill="#9faac4"/>
          </g>
          <path id="Path_95540-2" data-name="Path 95540" d="M50.52,265.048a2.555,2.555,0,0,0-2.686-2.077h-.388a14.87,14.87,0,0,0-2.54-5.235l.279-.239a2.058,2.058,0,0,0,.184-3.1q-.52-.521-1.1-1.016t-1.186-.938a3.012,3.012,0,0,0-3.614.157l-.279.239a20.549,20.549,0,0,0-6.113-2.175v-.332a2.46,2.46,0,0,0-2.426-2.3q-.8-.054-1.613-.055t-1.613.055a2.46,2.46,0,0,0-2.426,2.3v.332a20.547,20.547,0,0,0-6.113,2.175l-.279-.239A3.012,3.012,0,0,0,15,252.447q-.609.446-1.186.938t-1.1,1.016a2.058,2.058,0,0,0,.184,3.1l.279.239a14.872,14.872,0,0,0-2.54,5.235H10.25a2.555,2.555,0,0,0-2.686,2.077q-.063.684-.064,1.382t.064,1.381a2.555,2.555,0,0,0,2.686,2.077h.388a14.871,14.871,0,0,0,2.54,5.235l-.279.239a2.058,2.058,0,0,0-.184,3.1q.52.521,1.1,1.016t1.186.938a3.012,3.012,0,0,0,3.614-.157l.279-.239A20.549,20.549,0,0,0,25,282.189v.332a2.459,2.459,0,0,0,2.426,2.3q.8.054,1.613.055t1.613-.055a2.459,2.459,0,0,0,2.426-2.3v-.332a20.547,20.547,0,0,0,6.113-2.175l.279.239a3.011,3.011,0,0,0,3.614.157q.609-.445,1.186-.938t1.1-1.016a2.058,2.058,0,0,0-.184-3.1l-.279-.239a14.872,14.872,0,0,0,2.54-5.235h.388a2.555,2.555,0,0,0,2.686-2.077q.063-.684.064-1.381T50.52,265.048ZM29.042,275.653c-5.949,0-10.771-4.13-10.771-9.223s4.822-9.224,10.771-9.224,10.771,4.13,10.771,9.224S34.991,275.653,29.042,275.653Z" transform="translate(-1.497 -226.258)" fill="#9faac4"/>
        </g>
      </g>
      <path id="Path_95541" data-name="Path 95541" d="M-119.433-8781.508l32.414,16.14,36.075-5.2,21.3-14.955-43.539-16.839-16.388,6.438Z" transform="translate(314.306 8902.961)" opacity="0.1"/>
      <g id="Group_20653" data-name="Group 20653" transform="translate(190.886 33.062)">
        <path id="Path_64192" data-name="Path 64192" d="M158.8,170.981l10.756-5.378L137.231,149.44l-10.756,5.378Z" transform="translate(-122.304 -108.063)" fill="#f5b48f"/>
        <path id="Path_64193" data-name="Path 64193" d="M137.216,238.9l-10.756,5.38V202.652l10.756-5.38Z" transform="translate(-89.958 -139.733)" fill="#ccc"/>
        <path id="Path_64194" data-name="Path 64194" d="M245.831,111.075l-1.653.826V61.234l1.653-.826Z" transform="translate(-238.349 -49.114)" fill="#e5a784"/>
        <path id="Path_64195" data-name="Path 64195" d="M157.938,56.713V53.131L190.265,69.3v3.582Z" transform="translate(-153.643 -44.297)" fill="#f5f5f5"/>
        <path id="Path_64196" data-name="Path 64196" d="M190.62,223.459l-32.327-16.167V165.664l32.327,16.167Z" transform="translate(-154.118 -118.805)" fill="#aaa"/>
        <path id="Path_64197" data-name="Path 64197" d="M191.854,203.568l-29.021-14.513V171.282L191.854,185.8Z" transform="translate(-156.886 -122.525)" fill="#0d1b3a"/>
        <path id="Path_64198" data-name="Path 64198" d="M191.854,252.243,162.833,237.73v-6.316l29.021,14.513Z" transform="translate(-156.886 -162.337)" fill="#ec691f"/>
        <g id="Group_11578" data-name="Group 11578" transform="translate(11.527 54.963)">
          <path id="Path_64199" data-name="Path 64199" d="M221.854,192.29l-5.283-2.642v14.358l5.283,2.642Z" transform="translate(-216.571 -189.648)" fill="#6fe777"/>
          <path id="Path_64200" data-name="Path 64200" d="M203.241,201.59l-5.283-2.642v14.358l5.283,2.642Z" transform="translate(-191.669 -195.804)" fill="#505050"/>
          <path id="Path_64201" data-name="Path 64201" d="M184.629,210.9l-5.283-2.642V222.62l5.283,2.642Z" transform="translate(-166.768 -201.972)" fill="#e4e71a"/>
          <path id="Path_64202" data-name="Path 64202" d="M223.336,229.271l-2.194-1.1V225.98l2.194,1.1Z" transform="translate(-219.598 -213.703)" fill="#fff"/>
          <path id="Path_64203" data-name="Path 64203" d="M204.724,238.578l-2.194-1.1v-2.194l2.194,1.1Z" transform="translate(-194.697 -219.865)" fill="#fff"/>
          <path id="Path_64204" data-name="Path 64204" d="M186.112,247.891l-2.194-1.1V244.6l2.194,1.1Z" transform="translate(-169.796 -226.032)" fill="#fff"/>
        </g>
        <path id="Path_64205" data-name="Path 64205" d="M250.722,104.627l-1.653-.826V53.131l1.653.826Z" transform="translate(-244.893 -44.297)" fill="#aaa"/>
        <path id="Path_64206" data-name="Path 64206" d="M159.946,150.025l-1.653-.826V98.529l1.653.826Z" transform="translate(-123.443 -74.355)" fill="#aaa"/>
        <path id="Path_64207" data-name="Path 64207" d="M155.053,154.63l-1.653.827V104.786l1.653-.826Z" transform="translate(-116.897 -77.95)" fill="#ccc"/>
        <g id="Group_11579" data-name="Group 11579" transform="translate(13.072 74.609)">
          <path id="Path_64208" data-name="Path 64208" d="M222.82,259.421h0a1.847,1.847,0,0,1-.978-1.467v-9.56c0-.538.439-.758.978-.489h0a1.847,1.847,0,0,1,.978,1.467v9.56C223.8,259.471,223.358,259.691,222.82,259.421Z" transform="translate(-221.842 -247.79)" fill="#331710"/>
          <path id="Path_64209" data-name="Path 64209" d="M224.041,254.926c0,.4-.325.564-.727.363a1.368,1.368,0,0,1-.727-1.09c0-.4.325-.564.727-.363A1.368,1.368,0,0,1,224.041,254.926Z" transform="translate(-222.337 -251.736)" fill="#6fe777"/>
          <path id="Path_64210" data-name="Path 64210" d="M224.041,263.544c0,1.807-.325,3.11-.727,2.909s-.727-1.829-.727-3.636.325-3.11.727-2.909S224.041,261.737,224.041,263.544Z" transform="translate(-222.337 -255.8)" fill="#472016"/>
        </g>
        <g id="Group_11580" data-name="Group 11580" transform="translate(19.361 77.755)">
          <path id="Path_64211" data-name="Path 64211" d="M204.21,268.731h0a1.847,1.847,0,0,1-.978-1.467V257.7c0-.538.439-.758.978-.489h0a1.847,1.847,0,0,1,.978,1.467v9.561C205.188,268.779,204.748,269,204.21,268.731Z" transform="translate(-203.232 -257.099)" fill="#331710"/>
          <path id="Path_64212" data-name="Path 64212" d="M205.429,264.234c0,.4-.325.564-.727.363a1.368,1.368,0,0,1-.727-1.09c0-.4.325-.564.727-.363A1.368,1.368,0,0,1,205.429,264.234Z" transform="translate(-203.724 -261.044)" fill="#291213"/>
          <ellipse id="Ellipse_443" data-name="Ellipse 443" cx="3.294" cy="0.722" rx="3.294" ry="0.722" transform="matrix(-0.026, -1, 1, -0.026, 0.341, 10.692)" fill="#472016"/>
        </g>
        <g id="Group_11581" data-name="Group 11581" transform="translate(25.768 80.959)">
          <path id="Path_64213" data-name="Path 64213" d="M185.247,278.215h0a1.847,1.847,0,0,1-.978-1.467v-9.561c0-.538.439-.758.978-.489h0a1.847,1.847,0,0,1,.978,1.467v9.56C186.225,278.264,185.785,278.484,185.247,278.215Z" transform="translate(-184.269 -266.583)" fill="#331710"/>
          <path id="Path_64214" data-name="Path 64214" d="M186.465,273.718c0,.4-.325.564-.727.364a1.368,1.368,0,0,1-.727-1.09c0-.4.325-.564.727-.363A1.368,1.368,0,0,1,186.465,273.718Z" transform="translate(-184.76 -270.528)" fill="#e4e71a"/>
          <path id="Path_64215" data-name="Path 64215" d="M186.465,282.336c0,1.807-.325,3.11-.727,2.909s-.727-1.829-.727-3.636.325-3.11.727-2.909S186.465,280.529,186.465,282.336Z" transform="translate(-184.76 -274.592)" fill="#472016"/>
        </g>
        <path id="Path_64216" data-name="Path 64216" d="M227,145.422a5.544,5.544,0,0,1-2.227-2.066,10.44,10.44,0,0,1-1.24-5.847V68.3l.839.419v69.248l0,.019a9.458,9.458,0,0,0,1.024,5.117A3.93,3.93,0,0,0,227,144.584c1.74.87,2.779-1.635,2.779-4.561l.839.419C230.616,143.171,229.653,146.75,227,145.422Z" transform="translate(-216.147 -54.34)" fill="#331710"/>
        <path id="Path_64217" data-name="Path 64217" d="M170.847,179.717c-2.655-1.328-3.619-5.87-3.619-8.6l.839.419c0,2.926,1.04,6.472,2.779,7.341a1.626,1.626,0,0,0,1.606.126c1.3-.776,1.027-4.061,1.024-4.094l0-.04V105.643l.839.419v69.209c.027.332.266,3.707-1.24,4.608A2.272,2.272,0,0,1,170.847,179.717Z" transform="translate(-140.858 -79.064)" fill="#331710"/>
        <path id="Path_64218" data-name="Path 64218" d="M207.556,157.819a4.7,4.7,0,0,1-1.812-1.634c-1.3-1.951-1.294-4.671-1.291-5.978v-.157c0-17.439.575-68.373.581-68.885l.839.429c-.006.512-.581,51.441-.581,68.876v.158c0,1.194-.007,3.679,1.046,5.261a3.1,3.1,0,0,0,1.218,1.092c.969.484,1.46-1.272,1.46-5.221l.839.419C209.855,155.536,209.582,158.832,207.556,157.819Z" transform="translate(-188.951 -62.858)" fill="#331710"/>
        <path id="Path_64219" data-name="Path 64219" d="M155.506,47.011V42.863L192.95,61.589v4.149Z" transform="translate(-155.506 -37.499)" fill="#1a3a81"/>
        <path id="Path_64220" data-name="Path 64220" d="M134.43,86.509l-10.756,5.379V87.74l10.756-5.379Z" transform="translate(-86.23 -63.65)" fill="#0d1b3a"/>
        <path id="Path_64221" data-name="Path 64221" d="M134.4,26.988l-10.757,5.378,37.444,18.722,10.756-5.378Z" transform="translate(-123.633 -26.988)" fill="#3658a2"/>
      </g>
    </g>
  </g>
</svg>
