<svg xmlns="http://www.w3.org/2000/svg" width="512" height="512" viewBox="0 0 512 512">
  <g id="img_high_end" transform="translate(-999 -7330)">
    <g id="Ellipse_444" data-name="Ellipse 444" transform="translate(999 7330)" fill="none" stroke="#0d1b3a" stroke-width="12">
      <circle cx="256" cy="256" r="256" stroke="none"/>
      <circle cx="256" cy="256" r="250" fill="none"/>
    </g>
    <g id="Group_11589" data-name="Group 11589" transform="translate(1103 7433.745)">
      <path id="Path_64264" data-name="Path 64264" d="M18966.191,1792.152a4.451,4.451,0,0,1-3.73-5.064,35.569,35.569,0,0,0-38.164-40.808,4.448,4.448,0,0,1-.746-8.865,44.466,44.466,0,0,1,47.707,51.007,4.446,4.446,0,0,1-4.391,3.781A4.59,4.59,0,0,1,18966.191,1792.152ZM18949.9,1792a4.45,4.45,0,0,1-3.734-5.064,20.759,20.759,0,0,0-22.27-23.817,4.447,4.447,0,0,1-.744-8.862,29.655,29.655,0,0,1,31.813,34.013,4.443,4.443,0,0,1-5.064,3.73Zm-15.785-.47a4.451,4.451,0,0,1-3.73-5.064,6.118,6.118,0,0,0-6.559-7.018,4.448,4.448,0,0,1-.748-8.865,15.011,15.011,0,0,1,16.1,17.218,4.448,4.448,0,0,1-4.389,3.781A4.55,4.55,0,0,1,18934.113,1791.535Z" transform="translate(-18698.547 -1707.92)" fill="#ec691f"/>
      <path id="Path_64262" data-name="Path 64262" d="M341.481,305.483a13.338,13.338,0,1,0,13.339-13.338A13.354,13.354,0,0,0,341.481,305.483Zm13.338-4.442a4.442,4.442,0,1,1-4.442,4.442A4.447,4.447,0,0,1,354.819,301.041Z" transform="translate(-138.762 -118.611)" fill="#ec691f"/>
      <path id="Path_64263" data-name="Path 64263" d="M244.5.255A59.553,59.553,0,0,0,187.422,43.07H31.225A31.26,31.26,0,0,0,0,74.293V221.347a4.448,4.448,0,0,0,8.9,0V96.09a31.125,31.125,0,0,0,22.328,9.428H206.671a59.483,59.483,0,0,0,56.746,10.569V158.57H214.4a28.3,28.3,0,0,0,0,56.605h49.014V280.53A14.49,14.49,0,0,1,248.944,295H23.369A14.49,14.49,0,0,1,8.9,280.53V241.6a4.448,4.448,0,0,0-8.9,0v38.928A23.4,23.4,0,0,0,23.369,303.9H248.944a23.4,23.4,0,0,0,23.369-23.369V214.966A12.738,12.738,0,0,0,282.8,202.449V171.3a12.738,12.738,0,0,0-10.489-12.516v-46.5a59.527,59.527,0,0,0,18.873-15.768A4.448,4.448,0,0,0,284.2,91a50.326,50.326,0,1,1,8.741-16.8,4.448,4.448,0,0,0,8.524,2.545A59.493,59.493,0,0,0,244.5.255ZM273.906,171.3v31.153a3.835,3.835,0,0,1-3.831,3.83H214.4a19.407,19.407,0,1,1,0-38.813h55.673a3.835,3.835,0,0,1,3.831,3.83ZM197.938,96.622H31.225a22.328,22.328,0,0,1,0-44.656H185.553a59.66,59.66,0,0,0,.366,17.88H38.586a4.448,4.448,0,1,0,0,8.9H188.176a59.4,59.4,0,0,0,9.762,17.881Z" fill="#0d1b3a"/>
    </g>
  </g>
</svg>
