<svg xmlns="http://www.w3.org/2000/svg" width="437.659" height="350.743" viewBox="0 0 437.659 350.743">
  <g id="img_rfid_based_fuel" transform="translate(-1204 -5065.729)">
    <ellipse id="Ellipse_972" data-name="Ellipse 972" cx="218.829" cy="126.613" rx="218.829" ry="126.613" transform="translate(1204 5163.246)" fill="#fff1e9"/>
    <g id="Group_30915" data-name="Group 30915" transform="translate(30.033 45)">
      <g id="Group_30907" data-name="Group 30907" transform="translate(1200.967 5020.729)">
        <g id="Group_29536" data-name="Group 29536" transform="translate(4.38 142.789)">
          <path id="Path_131086" data-name="Path 131086" d="M338.053,272.623l1.959,2.293a14.616,14.616,0,0,1,2.9,7.535l-1.43,12c0,2.116-1.284,2.185-2.881.147l-2.009-2.342a10.417,10.417,0,0,1-2.185-6.486l.764-12.992C335.172,270.653,336.456,270.585,338.053,272.623Z" transform="translate(-334.408 -270.059)" fill="#484038"/>
          <g id="Group_29535" data-name="Group 29535" transform="translate(2.965)">
            <path id="Path_131087" data-name="Path 131087" d="M339.1,303.774l-5.392-6.187,2.36-26.559,9.991,7.839-.577,1.058-8.208-6.868-2.36,23.876,4.842,5.83Z" transform="translate(-333.713 -271.028)" fill="#3e362e"/>
          </g>
        </g>
        <path id="Path_131088" data-name="Path 131088" d="M523.459,266.335l35.9,17.9L618.5,322.9,431.134,431.076l-55.081,4.6L330.61,414.262l-27.51-20.7Z" transform="translate(-298.862 -169.532)" opacity="0.12" style="mix-blend-mode: multiply;isolation: isolate"/>
        <path id="Path_131089" data-name="Path 131089" d="M366.773,274.906l-46.451,26.819v17.711l46.451-26.818Z" transform="translate(-215.879 -94.122)" fill="#1d1309"/>
        <path id="Path_131090" data-name="Path 131090" d="M372.239,299.3l-51.113,29.509V305.155l51.113-29.509Z" transform="translate(-207.575 -100.732)" fill="#1d1309"/>
        <g id="Group_29542" data-name="Group 29542" transform="translate(191.964 148.241)">
          <g id="Group_29540" data-name="Group 29540" transform="translate(0)">
            <path id="Path_131091" data-name="Path 131091" d="M344.831,278.328l-8.338,14.677-1.284,2.264-9.151,13.766s-4.9-2.851-8.711-5.075c-.392-.216-.774-.441-1.117-.637l-.059-.029c-2.048-1.421-3.3-4.155-3.3-7.927a19.92,19.92,0,0,1,.255-3.116,28.522,28.522,0,0,1,4.076-10.386,25.327,25.327,0,0,1,8.426-8.524c3.145-1.812,6.026-2.175,8.26-1.3.362.235.8.5,1.293.813C338.668,274.928,344.831,278.328,344.831,278.328Z" transform="translate(-312.869 -271.585)" fill="#151b1f"/>
            <path id="Path_131092" data-name="Path 131092" d="M338.276,284.529l-2.606,1.509-8.426,4.859-13.659-7.878a28.523,28.523,0,0,1,4.076-10.386l19.292,11.14Z" transform="translate(-313.33 -262.354)" fill="#5b5e5d"/>
            <path id="Path_131093" data-name="Path 131093" d="M314.7,293.86c0-8.084,5.712-17.95,12.757-22.016Z" transform="translate(-313.414 -269.304)" fill="#242726"/>
            <g id="Group_29537" data-name="Group 29537" transform="translate(2.469 1.429)">
              <path id="Path_131094" data-name="Path 131094" d="M326.33,273.488c3.792-2.195,7.192-2.264,9.533-.6l.392.265c-2.273-1.088-5.311-.8-8.642,1.117-7.055,4.076-12.767,13.933-12.767,22.026,0,3.753,1.244,6.447,3.263,7.868l-.8-.46c-2.312-1.313-3.743-4.154-3.743-8.2C313.563,287.411,319.275,277.554,326.33,273.488Z" transform="translate(-313.563 -271.731)" fill="#260e08"/>
            </g>
            <g id="Group_29538" data-name="Group 29538" transform="translate(4.782 2.775)">
              <path id="Path_131095" data-name="Path 131095" d="M326.094,273.622c3.792-2.185,7.2-2.263,9.533-.6l.392.265c-2.273-1.088-5.31-.8-8.642,1.117-7.054,4.076-12.767,13.933-12.767,22.026,0,3.753,1.244,6.447,3.263,7.877l-.8-.47c-2.312-1.313-3.743-4.155-3.743-8.2C313.327,287.555,319.039,277.688,326.094,273.622Z" transform="translate(-313.327 -271.868)" fill="#260e08"/>
            </g>
            <g id="Group_29539" data-name="Group 29539" transform="translate(7.094 4.121)">
              <path id="Path_131096" data-name="Path 131096" d="M325.858,273.755c3.792-2.185,7.2-2.253,9.534-.6l.392.265c-2.273-1.087-5.311-.8-8.642,1.117-7.055,4.076-12.767,13.933-12.767,22.026,0,3.753,1.245,6.447,3.263,7.878l-.8-.47c-2.312-1.313-3.743-4.154-3.743-8.2C313.091,287.688,318.8,277.831,325.858,273.755Z" transform="translate(-313.091 -272.005)" fill="#260e08"/>
            </g>
          </g>
          <path id="Path_131097" data-name="Path 131097" d="M338.062,281.186c0,8.093-5.712,17.95-12.757,22.016s-12.767.813-12.767-7.28,5.712-17.94,12.767-22.006S338.062,273.1,338.062,281.186Z" transform="translate(-302.857 -266.526)" fill="#585b5d"/>
          <path id="Path_131098" data-name="Path 131098" d="M337.6,281.079c0,7.936-5.6,17.6-12.512,21.585s-12.512.794-12.512-7.133,5.6-17.587,12.512-21.585S337.6,273.152,337.6,281.079Z" transform="translate(-302.757 -265.919)" fill="#3a3e40"/>
          <path id="Path_131099" data-name="Path 131099" d="M326.291,295.979c-7.045,4.076-12.757.813-12.757-7.27,0-5.2,2.361-11.131,5.918-15.785-3.772,4.723-6.31,10.9-6.31,16.274,0,8.093,5.712,11.356,12.767,7.28a24.057,24.057,0,0,0,6.839-6.232A23.592,23.592,0,0,1,326.291,295.979Z" transform="translate(-303.461 -259.802)" fill="#260e08"/>
          <path id="Path_131100" data-name="Path 131100" d="M333.3,279.748c0,6.5-4.585,14.423-10.249,17.7s-10.258.647-10.258-5.85,4.585-14.423,10.258-17.7S333.3,273.242,333.3,279.748Z" transform="translate(-300.605 -263.638)" fill="#575e66"/>
          <path id="Path_131101" data-name="Path 131101" d="M328.726,278.353c0,4.967-3.508,11.033-7.838,13.531s-7.848.5-7.848-4.468,3.508-11.032,7.848-13.531S328.726,273.386,328.726,278.353Z" transform="translate(-298.441 -260.852)" fill="#6c7277"/>
          <path id="Path_131102" data-name="Path 131102" d="M328.726,278.353c0,4.967-3.508,11.033-7.838,13.531s-7.848.5-7.848-4.468,3.508-11.032,7.848-13.531S328.726,273.386,328.726,278.353Zm-.8.274c0-4.625-3.272-6.5-7.309-4.164a16.1,16.1,0,0,0-7.3,12.6c0,4.635,3.263,6.5,7.3,4.164A16.076,16.076,0,0,0,327.923,278.627Z" transform="translate(-298.441 -260.852)" fill="#a5a9b2"/>
          <path id="Path_131103" data-name="Path 131103" d="M326.168,277.528a14.222,14.222,0,0,1-6.457,11.131c-3.292,1.9-6.006.627-6.4-2.8a8.469,8.469,0,0,1-.049-.882,14.018,14.018,0,0,1,3.263-8.319,11.88,11.88,0,0,1,3.184-2.812C323.278,271.787,326.168,273.443,326.168,277.528Z" transform="translate(-298.077 -259.488)" fill="#2c3d4f"/>
          <path id="Path_131104" data-name="Path 131104" d="M318.779,275.421a6.851,6.851,0,0,1,6.623-.167c-.892-2.351-3.272-3.027-6.075-1.411a14.355,14.355,0,0,0-6.026,8.25A14,14,0,0,1,318.779,275.421Z" transform="translate(-297.684 -259.487)" fill="#0f2237"/>
          <path id="Path_131105" data-name="Path 131105" d="M323.168,276.636a10.818,10.818,0,0,1-4.909,8.466c-2.116,1.215-3.919.725-4.605-1.029a8.485,8.485,0,0,1-.049-.882,14.018,14.018,0,0,1,3.263-8.319,8.036,8.036,0,0,1,1.391-1.039C320.973,272.276,323.168,273.52,323.168,276.636Z" transform="translate(-298.418 -257.704)" fill="#260e08"/>
          <path id="Path_131106" data-name="Path 131106" d="M313.636,280.923l.01.294a3.5,3.5,0,0,0,.372,1.48v.01c.666,1.254,2.107,1.558,3.782.588a9.165,9.165,0,0,0,4.164-7.182,2.734,2.734,0,0,0-1.411-2.753l-.1-.049a2.756,2.756,0,0,0-2.048.137,4.9,4.9,0,0,0-.608.294,9.265,9.265,0,0,0-3.86,5.222,7.763,7.763,0,0,0-.265,1.293C313.655,280.481,313.636,280.707,313.636,280.923Z" transform="translate(-297.518 -257.63)" fill="#3d454b"/>
          <g id="Group_29541" data-name="Group 29541" transform="translate(16.382 15.74)">
            <path id="Path_131107" data-name="Path 131107" d="M313.609,280.939l.01.294a3.466,3.466,0,0,0,.372,1.48v.01c.666,1.254,2.107,1.558,3.782.588a9.15,9.15,0,0,0,4.164-7.182,2.743,2.743,0,0,0-1.411-2.753l-.1-.049a2.808,2.808,0,0,0-2.048.137,4.9,4.9,0,0,0-.608.294,9.3,9.3,0,0,0-3.86,5.223,7.656,7.656,0,0,0-.264,1.3C313.629,280.5,313.609,280.724,313.609,280.939Z" transform="translate(-313.609 -273.191)" fill="#7e8386"/>
            <path id="Path_131108" data-name="Path 131108" d="M314.84,278.516l-1,1.994.763.488,3.851-7.188-.762-.488Z" transform="translate(-312.422 -272.045)" fill="#3d454b"/>
            <path id="Path_131109" data-name="Path 131109" d="M315.481,277.127l-1.717,3.432.835.366,3.784-6.987-.768-.567Z" transform="translate(-311.581 -271.607)" fill="#c6c9ca"/>
            <path id="Path_131110" data-name="Path 131110" d="M313.872,276.985a1.455,1.455,0,0,0,.411,1.127,7.757,7.757,0,0,0,1.205.745l2.714-4.664a6.573,6.573,0,0,1-.921-.559,1.263,1.263,0,0,0-1.489.049A4.215,4.215,0,0,0,313.872,276.985Z" transform="translate(-312.451 -271.216)" fill="#6c7277"/>
            <path id="Path_131111" data-name="Path 131111" d="M313.817,277.053c0,1.215.862,1.705,1.921,1.1a4.237,4.237,0,0,0,1.911-3.312c0-1.215-.853-1.7-1.911-1.1A4.248,4.248,0,0,0,313.817,277.053Z" transform="translate(-311.358 -270.647)" fill="#c6c9ca"/>
            <path id="Path_131112" data-name="Path 131112" d="M313.918,275.142a.6.6,0,0,0,.176.47,3.09,3.09,0,0,0,.51.324l1.156-1.979a2.3,2.3,0,0,1-.392-.235.542.542,0,0,0-.637.02A1.771,1.771,0,0,0,313.918,275.142Z" transform="translate(-310.459 -269.344)" fill="#6c7277"/>
            <path id="Path_131113" data-name="Path 131113" d="M313.9,275.166c0,.519.363.725.813.47a1.805,1.805,0,0,0,.813-1.411c0-.51-.363-.715-.813-.461A1.8,1.8,0,0,0,313.9,275.166Z" transform="translate(-309.995 -269.103)" fill="#d6d8d9"/>
          </g>
        </g>
        <path id="Path_131114" data-name="Path 131114" d="M358.641,297.605l-8.241-6.23-24.844,17.434-1.6-19.323,20.623-11.867,7.926-.1,8.072,5.955Z" transform="translate(-245.325 -71.171)" fill="#1d1309"/>
        <g id="Group_29548" data-name="Group 29548" transform="translate(76.013 214.993)">
          <g id="Group_29546" data-name="Group 29546" transform="translate(0)">
            <path id="Path_131115" data-name="Path 131115" d="M356.664,285.143l-8.328,14.678-1.283,2.253-9.161,13.776s-4.889-2.861-8.711-5.076c-.392-.215-.764-.441-1.107-.637l-.059-.029c-2.058-1.421-3.312-4.155-3.312-7.936a18.939,18.939,0,0,1,.265-3.116,28.314,28.314,0,0,1,4.076-10.386,25.322,25.322,0,0,1,8.427-8.525c3.145-1.813,6.016-2.165,8.25-1.293.373.235.813.5,1.293.8C350.511,281.743,356.664,285.143,356.664,285.143Z" transform="translate(-324.703 -278.397)" fill="#151b1f"/>
            <path id="Path_131116" data-name="Path 131116" d="M350.109,291.351l-2.606,1.5-8.436,4.87-13.649-7.887a28.312,28.312,0,0,1,4.076-10.386l19.292,11.15Z" transform="translate(-325.153 -269.173)" fill="#151b1f"/>
            <path id="Path_131117" data-name="Path 131117" d="M326.531,300.673c0-8.093,5.712-17.95,12.767-22.016Z" transform="translate(-325.247 -276.115)" fill="#242726"/>
            <g id="Group_29543" data-name="Group 29543" transform="translate(2.469 1.432)">
              <path id="Path_131118" data-name="Path 131118" d="M338.163,280.3c3.792-2.195,7.2-2.263,9.543-.6l.392.264c-2.273-1.1-5.31-.813-8.652,1.117-7.045,4.066-12.767,13.933-12.767,22.016,0,3.762,1.245,6.457,3.273,7.878l-.813-.46c-2.312-1.323-3.743-4.155-3.743-8.2C325.4,294.224,331.118,284.367,338.163,280.3Z" transform="translate(-325.396 -278.544)" fill="#260e08"/>
            </g>
            <g id="Group_29544" data-name="Group 29544" transform="translate(4.791 2.774)">
              <path id="Path_131119" data-name="Path 131119" d="M337.917,280.438c3.792-2.195,7.2-2.263,9.543-.6l.392.264c-2.273-1.1-5.31-.813-8.652,1.117-7.045,4.066-12.767,13.933-12.767,22.016,0,3.763,1.245,6.457,3.273,7.878l-.813-.461c-2.312-1.323-3.733-4.154-3.733-8.2C325.16,294.361,330.872,284.5,337.917,280.438Z" transform="translate(-325.16 -278.681)" fill="#260e08"/>
            </g>
            <g id="Group_29545" data-name="Group 29545" transform="translate(7.104 4.117)">
              <path id="Path_131120" data-name="Path 131120" d="M337.681,280.575c3.8-2.195,7.2-2.264,9.543-.6l.392.265c-2.273-1.088-5.311-.813-8.652,1.117-7.045,4.076-12.767,13.933-12.767,22.016,0,3.762,1.244,6.457,3.272,7.877l-.813-.46c-2.312-1.323-3.733-4.154-3.733-8.2C324.924,294.5,330.636,284.641,337.681,280.575Z" transform="translate(-324.924 -278.818)" fill="#260e08"/>
            </g>
          </g>
          <ellipse id="Ellipse_957" data-name="Ellipse 957" cx="10.389" cy="17.995" rx="10.389" ry="17.995" transform="matrix(-0.863, -0.505, 0.505, -0.863, 22.334, 42.809)" fill="#585b5d"/>
          <path id="Path_131121" data-name="Path 131121" d="M349.424,287.892c0,7.926-5.595,17.587-12.5,21.575s-12.513.8-12.513-7.133,5.595-17.588,12.513-21.575S349.424,279.965,349.424,287.892Z" transform="translate(-314.582 -272.73)" fill="#3a3e40"/>
          <path id="Path_131122" data-name="Path 131122" d="M338.135,302.8c-7.054,4.066-12.767.813-12.767-7.28,0-5.193,2.361-11.13,5.928-15.785-3.782,4.723-6.32,10.9-6.32,16.285,0,8.093,5.722,11.346,12.767,7.28a23.911,23.911,0,0,0,6.839-6.231A23.576,23.576,0,0,1,338.135,302.8Z" transform="translate(-315.295 -266.622)" fill="#260e08"/>
          <path id="Path_131123" data-name="Path 131123" d="M345.144,286.561c0,6.5-4.6,14.423-10.259,17.685s-10.258.657-10.258-5.849,4.6-14.413,10.258-17.686S345.144,280.055,345.144,286.561Z" transform="translate(-312.438 -270.448)" fill="#575e66"/>
          <path id="Path_131124" data-name="Path 131124" d="M340.57,285.171c0,4.968-3.518,11.023-7.849,13.531s-7.848.5-7.848-4.478,3.518-11.023,7.848-13.531S340.57,280.194,340.57,285.171Z" transform="translate(-310.274 -267.667)" fill="#6c7277"/>
          <path id="Path_131125" data-name="Path 131125" d="M340.57,285.171c0,4.968-3.518,11.023-7.849,13.531s-7.848.5-7.848-4.478,3.518-11.023,7.848-13.531S340.57,280.194,340.57,285.171Zm-.814.274c0-4.634-3.272-6.5-7.3-4.164a16.091,16.091,0,0,0-7.309,12.6c0,4.625,3.272,6.5,7.309,4.164A16.107,16.107,0,0,0,339.756,285.446Z" transform="translate(-310.274 -267.667)" fill="#a5a9b2"/>
          <path id="Path_131126" data-name="Path 131126" d="M338,284.333a14.233,14.233,0,0,1-6.457,11.13c-3.3,1.9-6.016.637-6.408-2.8a8.336,8.336,0,0,1-.039-.872,14.045,14.045,0,0,1,3.263-8.328,11.7,11.7,0,0,1,3.184-2.8C335.1,278.6,338,280.248,338,284.333Z" transform="translate(-309.9 -266.3)" fill="#2c3d4f"/>
          <path id="Path_131127" data-name="Path 131127" d="M330.623,282.234a6.781,6.781,0,0,1,6.614-.167c-.882-2.351-3.273-3.028-6.075-1.411a14.405,14.405,0,0,0-6.025,8.25A13.966,13.966,0,0,1,330.623,282.234Z" transform="translate(-309.518 -266.298)" fill="#0f2237"/>
          <path id="Path_131128" data-name="Path 131128" d="M335,283.443a10.847,10.847,0,0,1-4.909,8.475c-2.117,1.215-3.919.725-4.615-1.039a8.336,8.336,0,0,1-.039-.872,14.045,14.045,0,0,1,3.263-8.328,7.947,7.947,0,0,1,1.391-1.029C332.8,279.083,335,280.337,335,283.443Z" transform="translate(-310.241 -264.519)" fill="#260e08"/>
          <path id="Path_131129" data-name="Path 131129" d="M325.469,287.74l.01.284a3.66,3.66,0,0,0,.362,1.49h.01c.657,1.254,2.1,1.558,3.772.6a9.19,9.19,0,0,0,4.174-7.182,2.764,2.764,0,0,0-1.411-2.763l-.108-.039a2.754,2.754,0,0,0-2.048.127,4.418,4.418,0,0,0-.607.3,9.284,9.284,0,0,0-3.86,5.213,7.1,7.1,0,0,0-.255,1.3A5.09,5.09,0,0,0,325.469,287.74Z" transform="translate(-309.341 -264.445)" fill="#3d454b"/>
          <g id="Group_29547" data-name="Group 29547" transform="translate(16.392 15.739)">
            <path id="Path_131130" data-name="Path 131130" d="M325.442,287.755l.01.294a3.654,3.654,0,0,0,.363,1.479l.01.009c.656,1.254,2.1,1.548,3.772.588a9.19,9.19,0,0,0,4.174-7.182,2.749,2.749,0,0,0-1.411-2.753l-.108-.049a2.758,2.758,0,0,0-2.048.137,5.659,5.659,0,0,0-.608.294,9.309,9.309,0,0,0-3.86,5.222,6.852,6.852,0,0,0-.254,1.293A5.136,5.136,0,0,0,325.442,287.755Z" transform="translate(-325.442 -280.004)" fill="#7e8386"/>
            <path id="Path_131131" data-name="Path 131131" d="M326.674,285.328l-1,1.995.763.488,3.85-7.188-.763-.489Z" transform="translate(-324.26 -278.858)" fill="#3d454b"/>
            <path id="Path_131132" data-name="Path 131132" d="M327.314,283.94l-1.716,3.432.834.366,3.785-6.988-.768-.567Z" transform="translate(-323.419 -278.419)" fill="#c6c9ca"/>
            <path id="Path_131133" data-name="Path 131133" d="M325.705,283.8a1.445,1.445,0,0,0,.4,1.117,8.045,8.045,0,0,0,1.205.754L330.036,281a6.23,6.23,0,0,1-.921-.549,1.29,1.29,0,0,0-1.5.039A4.237,4.237,0,0,0,325.705,283.8Z" transform="translate(-324.284 -278.027)" fill="#6c7277"/>
            <path id="Path_131134" data-name="Path 131134" d="M325.65,283.866c0,1.215.862,1.705,1.92,1.088a4.216,4.216,0,0,0,1.921-3.3c0-1.215-.862-1.705-1.921-1.1A4.233,4.233,0,0,0,325.65,283.866Z" transform="translate(-323.2 -277.457)" fill="#c6c9ca"/>
            <path id="Path_131135" data-name="Path 131135" d="M325.752,281.96a.607.607,0,0,0,.167.47,3.583,3.583,0,0,0,.509.323l1.156-1.979a4.371,4.371,0,0,1-.392-.235.525.525,0,0,0-.627.01A1.8,1.8,0,0,0,325.752,281.96Z" transform="translate(-322.293 -276.158)" fill="#6c7277"/>
            <path id="Path_131136" data-name="Path 131136" d="M325.728,281.983c0,.519.363.725.813.461a1.8,1.8,0,0,0,.813-1.4c0-.509-.372-.725-.813-.46A1.772,1.772,0,0,0,325.728,281.983Z" transform="translate(-321.828 -275.917)" fill="#d6d8d9"/>
          </g>
        </g>
        <g id="Group_29550" data-name="Group 29550" transform="translate(1.499 81.171)">
          <g id="Group_29549" data-name="Group 29549">
            <path id="Path_131137" data-name="Path 131137" d="M372.1,271.193l-46.452,26.818v17.712L372.1,288.9Z" transform="translate(-274.919 -207.966)" fill="#322920"/>
            <path id="Path_131138" data-name="Path 131138" d="M399.477,268.195,318.7,314.829v.813l80.773-46.635Z" transform="translate(-234.218 -234.339)" fill="#322920"/>
            <path id="Path_131139" data-name="Path 131139" d="M393.042,322.1l-1.031-8.272-63.023-36.386,1.031,8.27Z" transform="translate(-328.545 -153.02)" fill="#8595ad"/>
            <path id="Path_131140" data-name="Path 131140" d="M329.092,276.121l.441,12.9,20.879,14.266a108.314,108.314,0,0,0,12.816,7.525l29.335,14.589-.441-12.894-4.527-2.616L333.58,278.708Z" transform="translate(-329.092 -164.604)" fill="#6e7275"/>
            <path id="Path_131141" data-name="Path 131141" d="M344.651,277.183c0,8.132-5.752,18.048-12.836,22.144s-12.845.813-12.845-7.319,5.751-18.058,12.845-22.144S344.651,269.041,344.651,277.183Z" transform="translate(-182.003 -235.184)" fill="#3a3e40"/>
            <path id="Path_131142" data-name="Path 131142" d="M362.55,289.654l-1.352.784L358.67,280.18c-1.313-3.037-6.046-2.8-9.6-.745l-5.732,3.3a18.565,18.565,0,0,0-6.966,8.034l-1.254,2.656-.313.686a22.909,22.909,0,0,0-1.881,5.634l-.411,7.25-2.057,1.186,1-6.359s2.087-11.483,8.348-17.656a67.152,67.152,0,0,1,12.09-9.475s8.309-1.558,8.956.833S362.55,289.654,362.55,289.654Z" transform="translate(-312.404 -181.557)" fill="#322920"/>
            <path id="Path_131143" data-name="Path 131143" d="M341.64,273.583v21.1l-1.94,1.127-2.528-10.259c-.99-2.283-3.89-2.714-6.781-1.93v-3.557Z" transform="translate(-290.906 -186.934)" fill="#322920"/>
            <path id="Path_131144" data-name="Path 131144" d="M357.93,286.5l-31.475,18.172V290.1l31.475-18.172Z" transform="translate(-268.615 -201.456)" fill="#322920"/>
            <path id="Path_131145" data-name="Path 131145" d="M386.393,301.69,323.37,265.3v81.147l63.023,36.386Z" transform="translate(-266.852 -259.77)" fill="#d7d2c8"/>
            <path id="Path_131146" data-name="Path 131146" d="M323.37,268.228l63.023,36.322v52.57L323.37,320.733Z" transform="translate(-266.852 -234.052)" fill="#897998" style="mix-blend-mode: multiply;isolation: isolate"/>
            <path id="Path_131147" data-name="Path 131147" d="M313.54,277.247l14.384-8.3v-3.62l-14.384,8.3Z" transform="translate(-112.076 -259.617)" fill="#322920"/>
            <path id="Path_131148" data-name="Path 131148" d="M331.432,277.527l-5.231,3.021-11.726-2.4V274.53l16.958-9.79Z" transform="translate(-124.737 -264.739)" fill="#8595ad"/>
          </g>
        </g>
        <g id="Group_29553" data-name="Group 29553" transform="translate(63.926 36.386)">
          <g id="Group_29552" data-name="Group 29552">
            <path id="Path_131149" data-name="Path 131149" d="M394.336,270.895l-80.773,46.634v10.745l80.773-46.634Z" transform="translate(-241.134 -165.8)" fill="#2d241b"/>
            <path id="Path_131150" data-name="Path 131150" d="M371.578,276.1l3.694,36.292v29.982l-1.94,1.117L370.8,333.243c-.98-2.283-3.88-2.724-6.771-1.931a11.884,11.884,0,0,0-2.832,1.176l-5.722,3.3a18.558,18.558,0,0,0-6.976,8.044l-1.254,2.655c-.1.216-.206.441-.313.676a23.457,23.457,0,0,0-1.881,5.634l-.411,7.26-2.058,1.186-13.57,7.094-3-1.029-.892-7.1-.147-1.176-.441-12.894-.578-1.381,2.263-11.1,8.74-39.114,2.117-3.782L369.05,272.3l1.607,1.852Z" transform="translate(-323.944 -153.445)" fill="#6e7275"/>
            <path id="Path_131151" data-name="Path 131151" d="M348.663,279.94a23.467,23.467,0,0,0-1.881,5.634l-.411,7.26-2.058,1.186-13.57,7.094-3-1.029-.892-7.1c.657-.529,1.342-1.068,2.058-1.636Z" transform="translate(-325.67 -86.22)" fill="#261d14"/>
            <path id="Path_131152" data-name="Path 131152" d="M345.716,285.643l-15.632,8.283-3-1.035,2.144-2.617,16.486-9.518Z" transform="translate(-325.016 -79.032)" fill="#84878a"/>
            <path id="Path_131153" data-name="Path 131153" d="M323.691,311.907l3.292,2.195.059.823,1.264.99,1.626-3.067a22.458,22.458,0,0,1,1.872-5.634c.108-.235.216-.46.313-.676l1.254-2.655a18.621,18.621,0,0,1,6.976-8.044l5.722-3.3a11.622,11.622,0,0,1,3.017-1.225l.245-.059.215-.049a7.878,7.878,0,0,1,3.547-.01l3.135-3.684h.01l6.535-7.682-2.636-2.988-16.568,8.926s-10.259,7.084-14.06,12.12c-2.528,3.341-4.34,8.73-5.271,11.973C323.769,311.505,323.691,311.907,323.691,311.907Z" transform="translate(-308.811 -113.494)" fill="#d5dae2"/>
            <path id="Path_131154" data-name="Path 131154" d="M324.545,346.14l6.26-4.828L375.275,312.4l-3.69-36.3-.921-1.944-1.607-1.858L337.081,290.76l-2.116,3.785-8.735,39.107-2.269,11.105Z" transform="translate(-323.947 -153.448)" fill="#84878a"/>
            <path id="Path_131155" data-name="Path 131155" d="M370.505,272.529l-33.669,20.9-7.775,36.489-1.552,4.39-1.356,8.983-1.065.822-.586-1.38,2.268-11.106,1.206-1.922,7.529-37.185Z" transform="translate(-324.488 -151.421)" fill="#e0e4ea"/>
            <path id="Path_131156" data-name="Path 131156" d="M347.684,274.028c1.176-.656,2.254-.02,2.45,1.44.5,3.9,2.038,14.109,1.019,15.667-.842,1.293-11.728,11.042-15.657,17.088-.627.96-10.141,6.349-10.141,6.349l.558-8.25s3.743-19.626,4.733-21.967C331.439,282.464,342.412,277,347.684,274.028Z" transform="translate(-313.825 -140.507)" fill="#322920"/>
            <path id="Path_131157" data-name="Path 131157" d="M325.443,312.18a77.634,77.634,0,0,0,8.417-5.261c2.744-4.2,8.6-9.994,12.492-13.835,1.441-1.421,2.93-2.9,3.145-3.223.706-1.225-.539-10.484-.951-13.531-.078-.578-.147-1.1-.206-1.538s-.264-.931-.656-.931a1.028,1.028,0,0,0-.48.147c-1.205.686-2.724,1.5-4.331,2.361-4.105,2.214-11.758,6.329-12.326,7.535-.774,1.852-3.616,16.265-4.664,21.742Z" transform="translate(-312.915 -139.712)" fill="#4d5258"/>
            <path id="Path_131158" data-name="Path 131158" d="M458.22,260.169,308.042,346.874v81.147l150.178-86.7Z" transform="translate(-250.929 -260.169)" fill="#84878a"/>
            <path id="Path_131159" data-name="Path 131159" d="M450.2,260.975,308.473,342.8V410.7L450.2,328.868Z" transform="translate(-247.136 -253.072)" fill="#6e7275"/>
            <path id="Path_131160" data-name="Path 131160" d="M447.318,327.844v-65.2l2.886-1.666v67.893L308.473,410.7v-2.69Z" transform="translate(-247.136 -253.072)" fill="#909e9b"/>
            <path id="Path_131161" data-name="Path 131161" d="M307.108,280.961l14.385-8.3v-3.62l-14.385,8.3Z" transform="translate(-105.048 -182.16)" fill="#322920"/>
            <path id="Path_131162" data-name="Path 131162" d="M325,281.241l-5.231,3.02-11.727-2.4v-3.617L325,268.453Z" transform="translate(-117.709 -187.281)" fill="#2d241b"/>
            <g id="Group_29551" data-name="Group 29551" transform="translate(6.071 127.623)" style="mix-blend-mode: multiply;isolation: isolate">
              <path id="Path_131163" data-name="Path 131163" d="M325.988,344.916l7.731-4.85L335.345,336c.01-.108.862-11.287,22.643-24.289l.01-.01,2.773-1.823-.019-.245-3.165-36.439-.558.3L334.14,286.235l-2.214,7.447L330.74,298l-4.86,24.642-.96,12.169Zm7.065-5.409-6.389,4.007-.921-8.711.95-12.051,4.85-24.564,1.176-4.272,2.116-7.123,22.046-12.267,3.027,34.93L357.557,311c-21.527,12.865-22.937,23.789-23.026,24.877Z" transform="translate(-324.92 -273.194)" fill="#ababab"/>
            </g>
            <path id="Path_131164" data-name="Path 131164" d="M333.975,281.322l-2.11,1.218-2.135,1.934-1.185,4.923,1.5,1.391,3.569-1.835,1.333-1.513Z" transform="translate(-328.545 -74.058)" fill="#84878a"/>
            <path id="Path_131165" data-name="Path 131165" d="M324.02,311.9l2.048-1.185.078-1.313.343-5.947a22.45,22.45,0,0,1,1.872-5.634c.108-.235.216-.461.313-.676l1.254-2.655a18.621,18.621,0,0,1,6.976-8.044l5.722-3.3a13.072,13.072,0,0,1,1.225-.617h.019a10.851,10.851,0,0,1,1.773-.607l.245-.059.215-.049a7.878,7.878,0,0,1,3.547-.01,3.682,3.682,0,0,1,2.577,2.1l2.528,10.249,1.352-.774s-1.058-11.738-1.7-14.129c-.157-.588-.774-.931-1.607-1.127h-.01l-.059-.009c-2.538-.559-7.055.255-7.26.294l-.01.01a67.012,67.012,0,0,0-12.1,9.475c-6.261,6.173-8.338,17.656-8.338,17.656Z" transform="translate(-305.368 -104.097)" fill="#261d14"/>
            <path id="Path_131166" data-name="Path 131166" d="M323.691,285.121v3.547l.186-.039.245-.059.215-.049a7.876,7.876,0,0,1,3.547-.01,3.683,3.683,0,0,1,2.577,2.1l2.528,10.249,4.576-2.6V277.145L323.7,285.111Z" transform="translate(-283.601 -110.81)" fill="#261d14"/>
          </g>
        </g>
        <path id="Path_131167" data-name="Path 131167" d="M329.589,280.157l14.991,10.8a107.446,107.446,0,0,0,17.107,10.072L383.714,311.4l-.1-3.831L329.6,276.385Z" transform="translate(-323.612 -81.111)" fill="#a5a9b2"/>
        <path id="Path_131168" data-name="Path 131168" d="M328.966,284.065l.01.01.578,1.372,18.793,13.541a108.1,108.1,0,0,0,17.1,10.072l26.974,12.7.166.078L392,320.455l2.263-11.1-63.315-34.293Z" transform="translate(-328.055 -92.759)" fill="#d7d2c8"/>
        <path id="Path_131169" data-name="Path 131169" d="M329.154,275.981l.578,1.372,18.793,13.541a108.081,108.081,0,0,0,17.1,10.072l26.974,12.7-.421-1.3s-26.534-11.522-36.3-17.891C346.193,288.15,329.419,276.167,329.154,275.981Z" transform="translate(-328.233 -84.665)" fill="#6e7275"/>
        <path id="Path_131170" data-name="Path 131170" d="M330.848,278.013l20.115,13.59a108.236,108.236,0,0,0,11.542,6.8l30.57,15.53,2.381-1.675L398,314.139l-2.116,1.225-2.136,1.931-1.185,4.918,1.5,1.391-29.737-15.295a152.71,152.71,0,0,1-16.373-9.778L330.143,286.3l-1.5-1.391.01-5.389,2.136-1.93Z" transform="translate(-328.644 -70.491)" fill="#efede0"/>
        <path id="Path_131171" data-name="Path 131171" d="M458.22,256.455l63.023,36.386L371.065,379.546,308.042,343.16Z" transform="translate(-250.026 -256.455)" fill="#efede0"/>
        <path id="Path_131172" data-name="Path 131172" d="M358.692,269.02l55.633,32.128-31.971,18.46-2.117,3.782-7.613-3a166.645,166.645,0,0,1-47.775-28.9l-.255-.216,2.117-3.792Z" transform="translate(-305.293 -145.909)" fill="#e9e5e2"/>
        <g id="Group_29560" data-name="Group 29560" transform="translate(31.923 128.118)">
          <g id="Group_29554" data-name="Group 29554" transform="translate(36.729 21.097)">
            <path id="Path_131173" data-name="Path 131173" d="M357.157,271.743l-31.534,17.048-.17.252,1.262.764,30.713-17.545Z" transform="translate(-325.453 -271.168)" fill="#c0c8d4"/>
            <path id="Path_131174" data-name="Path 131174" d="M356.021,271.684,325.48,289.307l.82.5,30.713-17.545Z" transform="translate(-325.31 -271.684)" fill="#f7f6f5"/>
          </g>
          <g id="Group_29555" data-name="Group 29555" transform="translate(29.383 16.878)">
            <path id="Path_131175" data-name="Path 131175" d="M357.907,271.312l-31.534,17.049-.17.252,1.262.763,30.713-17.544Z" transform="translate(-326.203 -270.738)" fill="#c0c8d4"/>
            <path id="Path_131176" data-name="Path 131176" d="M356.771,271.254,326.23,288.877l.82.5,30.714-17.544Z" transform="translate(-326.06 -271.254)" fill="#f7f6f5"/>
          </g>
          <g id="Group_29556" data-name="Group 29556" transform="translate(22.038 12.659)">
            <path id="Path_131177" data-name="Path 131177" d="M358.656,270.881,327.123,287.93l-.17.252,1.262.763L358.927,271.4Z" transform="translate(-326.952 -270.307)" fill="#c0c8d4"/>
            <path id="Path_131178" data-name="Path 131178" d="M357.521,270.823,326.98,288.446l.82.5L358.513,271.4Z" transform="translate(-326.81 -270.823)" fill="#f7f6f5"/>
          </g>
          <g id="Group_29557" data-name="Group 29557" transform="translate(14.691 8.439)">
            <path id="Path_131179" data-name="Path 131179" d="M359.407,270.451,327.874,287.5l-.172.252,1.263.763,30.713-17.544Z" transform="translate(-327.702 -269.876)" fill="#c0c8d4"/>
            <path id="Path_131180" data-name="Path 131180" d="M358.27,270.392,327.73,288.015l.82.5,30.713-17.544Z" transform="translate(-327.557 -270.392)" fill="#f7f6f5"/>
          </g>
          <g id="Group_29558" data-name="Group 29558" transform="translate(7.347 4.22)">
            <path id="Path_131181" data-name="Path 131181" d="M360.155,270.02l-31.533,17.049-.17.252,1.261.763,30.714-17.544Z" transform="translate(-328.452 -269.446)" fill="#c0c8d4"/>
            <path id="Path_131182" data-name="Path 131182" d="M359.02,269.962l-30.541,17.623.82.5,30.713-17.545Z" transform="translate(-328.309 -269.962)" fill="#f7f6f5"/>
          </g>
          <g id="Group_29559" data-name="Group 29559">
            <path id="Path_131183" data-name="Path 131183" d="M360.906,269.59l-31.533,17.048-.171.252,1.263.764,30.713-17.544Z" transform="translate(-329.201 -269.015)" fill="#c0c8d4"/>
            <path id="Path_131184" data-name="Path 131184" d="M359.769,269.531l-30.54,17.623.82.5,30.713-17.545Z" transform="translate(-329.058 -269.531)" fill="#f7f6f5"/>
          </g>
        </g>
        <path id="Path_131185" data-name="Path 131185" d="M356.575,269.02l-29.952,18.371a118.674,118.674,0,0,0,23.162,16.7c12.62,6.653,30.081,14.05,30.081,14.05l32.343-16.99-31.971,18.46-3.135.8L345.553,305.7,325.4,290.311l-.8-2.832Z" transform="translate(-303.176 -145.909)" fill="#f7f6f5"/>
        <path id="Path_131186" data-name="Path 131186" d="M329.975,270.9l.255.225A166.515,166.515,0,0,0,378,300.034l7.613,3-2.117,3.782-7.613-3a166.642,166.642,0,0,1-47.775-28.9l-.255-.216Z" transform="translate(-308.556 -129.333)" fill="#f7f6f5"/>
        <path id="Path_131187" data-name="Path 131187" d="M344.486,271.291l.255.216a166.641,166.641,0,0,0,47.775,28.9l7.613,3-7.534,37.184-1.205,1.93-35.116-14.276-28.2-20.017,1.479-1.519Z" transform="translate(-325.183 -125.928)" fill="#c2cad6"/>
        <path id="Path_131188" data-name="Path 131188" d="M393.363,308.788l-35.538-16.853-27.5-17.029-1.479,1.519,14,9.945A149.775,149.775,0,0,0,373.169,303l18.989,7.721Z" transform="translate(-325.952 -94.123)" fill="#322920"/>
        <path id="Path_131189" data-name="Path 131189" d="M343.007,271.291l-14.933,35.42,12.042,8.132a193.813,193.813,0,0,0,31.011,17.039l19.988,8.71,7.534-37.184-7.613-3a166.641,166.641,0,0,1-47.775-28.9Z" transform="translate(-323.704 -125.928)" fill="#322920"/>
        <path id="Path_131190" data-name="Path 131190" d="M334.92,306.552,350.1,271.291l.645.744-15.27,34.872-1.427,1.581-.359-.255Z" transform="translate(-330.797 -125.933)" fill="#e0e4ea"/>
        <path id="Path_131191" data-name="Path 131191" d="M328.178,305.077l11.444,7.721a192.769,192.769,0,0,0,30.864,16.96l18.989,8.28,1.43-7.074,4.517-22.32,1.215-5.987-6.918-2.734a166.871,166.871,0,0,1-34.577-18.577q-5.423-3.792-10.543-8.025c-.754-.617-1.5-1.244-2.244-1.881l-2.88,6.829Z" transform="translate(-322.711 -124.617)" fill="#4d5258"/>
        <path id="Path_131192" data-name="Path 131192" d="M332.413,298.283l4.938-2.851,4.35-5.007,5.213-5.438,5.908-5.33q-5.423-3.792-10.543-8.025l-1.92,1.911-7.3,16.823-.372,2.508Z" transform="translate(-320.391 -122.928)" fill="#9fb8b9"/>
        <path id="Path_131193" data-name="Path 131193" d="M328.8,281.086l.01.48.1,2.783.333,9.632,1.705-1.156a2.552,2.552,0,0,0,1.127-2.283l-.6-10.317a.56.56,0,0,0-.891-.421Z" transform="translate(-264.272 -52.008)" fill="#322920"/>
        <path id="Path_131194" data-name="Path 131194" d="M329.126,279.693v2.919l4.072,1.736h0l-.094-2.784-.018.012Z" transform="translate(-268.563 -52.011)" fill="#ffb639"/>
        <path id="Path_131195" data-name="Path 131195" d="M328.921,280.612l.1,2.782,1.342-.842a1.412,1.412,0,0,0,.657-1.293l-.069-.823a.684.684,0,0,0-1.088-.5Z" transform="translate(-264.382 -51.054)" fill="#ff4800"/>
        <path id="Path_131196" data-name="Path 131196" d="M335.165,276.176l.111,3.253,3.84,2.291V278.8Z" transform="translate(-333.646 -82.949)" fill="#ffb639"/>
        <path id="Path_131197" data-name="Path 131197" d="M329.307,281.239l.079,2.734a1.617,1.617,0,0,0,.931,1.411l2.988,1.372a1.1,1.1,0,0,0,1.558-.96v-.078l-.079-2.734a1.616,1.616,0,0,0-.931-1.411l-2.871-1.323-.118-.049A1.1,1.1,0,0,0,329.307,281.239Z" transform="translate(-271.998 -48.448)" fill="#8595ad"/>
        <path id="Path_131198" data-name="Path 131198" d="M329.95,280.931l.088,2.743a1.566,1.566,0,0,0,.921,1.4l2.988,1.381a1.1,1.1,0,0,0,1.558-.97v-.069l-.078-2.743a1.585,1.585,0,0,0-.931-1.4l-2.871-1.323-.108-.049A1.106,1.106,0,0,0,329.95,280.931Z" transform="translate(-278.941 -51.07)" fill="#8595ad"/>
        <path id="Path_131199" data-name="Path 131199" d="M334.3,278.409V280.9a1.6,1.6,0,0,0,.7,1.323L337.587,284a1.1,1.1,0,0,0,1.724-.872l.01-.039V280.6a1.621,1.621,0,0,0-.7-1.322l-2.6-1.783-.049-.039A1.106,1.106,0,0,0,334.3,278.409Z" transform="translate(-325.417 -73.072)" fill="#8595ad"/>
        <path id="Path_131200" data-name="Path 131200" d="M334.89,277.993V280.5a1.608,1.608,0,0,0,.686,1.313l2.6,1.783a1.1,1.1,0,0,0,1.724-.872v-2.538a1.592,1.592,0,0,0-.7-1.313l-2.587-1.783-.059-.039A1.1,1.1,0,0,0,334.89,277.993Z" transform="translate(-331.735 -76.644)" fill="#8595ad"/>
        <path id="Path_131201" data-name="Path 131201" d="M329.307,280.191l.078,2.734a1.589,1.589,0,0,0,.931,1.411l2.871,1.323v-.078l-.079-2.734a1.616,1.616,0,0,0-.931-1.411l-2.871-1.323Z" transform="translate(-270.323 -48.311)" fill="#e0e4ea"/>
        <path id="Path_131202" data-name="Path 131202" d="M329.95,279.883l.078,2.743a1.59,1.59,0,0,0,.931,1.4l2.871,1.323v-.069l-.078-2.743a1.585,1.585,0,0,0-.931-1.4l-2.871-1.323Z" transform="translate(-277.265 -50.933)" fill="#e0e4ea"/>
        <path id="Path_131203" data-name="Path 131203" d="M334.3,277.354v2.5a1.6,1.6,0,0,0,.686,1.313l2.6,1.783.049.039.01-.039V280.46a1.621,1.621,0,0,0-.7-1.323l-2.6-1.783-.049-.039Z" transform="translate(-323.741 -72.928)" fill="#e0e4ea"/>
        <path id="Path_131204" data-name="Path 131204" d="M334.89,276.938v2.508a1.592,1.592,0,0,0,.7,1.313l2.587,1.783.059.039v-2.538a1.591,1.591,0,0,0-.7-1.313l-2.587-1.783-.059-.039Z" transform="translate(-330.069 -76.5)" fill="#e0e4ea"/>
        <path id="Path_131205" data-name="Path 131205" d="M394.186,315.561l-29.11-15.216a228.181,228.181,0,0,1-21.928-13.071l-14.06-9.484-.01,5.389,26.9,18L393,320.479Z" transform="translate(-329.078 -68.758)" fill="#d7d2c8"/>
        <path id="Path_131206" data-name="Path 131206" d="M357.1,297.032c-9.171-5.251-28.022-18.214-28.022-18.214v-1.029l14.06,9.484a228.2,228.2,0,0,0,21.928,13.071l29.11,15.216-1.185,4.918.441-4.4S366.271,302.284,357.1,297.032Z" transform="translate(-329.068 -68.758)" fill="#f7f6f5"/>
        <path id="Path_131207" data-name="Path 131207" d="M392.969,315.64l1.5,1.391L364.73,301.737a152.7,152.7,0,0,1-16.373-9.778L330.545,279.73l-1.5-1.391,26.9,18Z" transform="translate(-329.046 -63.919)" fill="#6e7275"/>
        <path id="Path_131208" data-name="Path 131208" d="M335.713,282.87l.8.419v-5.595l-1.071-1.061Z" transform="translate(-333.771 -78.923)" fill="#aab5c6"/>
        <path id="Path_131209" data-name="Path 131209" d="M366.014,298.152v3.263L354.1,295.673a108.261,108.261,0,0,1-17.2-10.357l-6.085-4.487-.2-3.341,5.918,4.409a107.288,107.288,0,0,0,18.685,11.189Z" transform="translate(-316.054 -71.406)" fill="#655e57"/>
        <path id="Path_131210" data-name="Path 131210" d="M338.713,282.257,338.7,284.3l-6.565-3.792,0-1.981Z" transform="translate(-303.561 -62.228)" fill="#dcdb48"/>
        <path id="Path_131211" data-name="Path 131211" d="M366,298.651v1.215l-11.924-5.742a107.564,107.564,0,0,1-17.2-10.367L330.8,279.28l-.2-1.293,5.918,4.409a108.351,108.351,0,0,0,18.685,11.2Z" transform="translate(-315.848 -67.016)" fill="#a5a9b2"/>
        <path id="Path_131212" data-name="Path 131212" d="M323.691,318.61l2.048-1.186.078-1.313.343-5.947a22.457,22.457,0,0,1,1.872-5.634c.108-.235.216-.461.313-.676L329.6,301.2a18.621,18.621,0,0,1,6.976-8.044l5.722-3.3a13.05,13.05,0,0,1,1.225-.617h.019l1.587-.794,7.27-3.625,6.6-3.292v-4.38l-13.864,7.966-.01.01a67.012,67.012,0,0,0-12.1,9.475c-6.261,6.173-8.338,17.656-8.338,17.656Z" transform="translate(-241.113 -74.424)" fill="#84878a"/>
        <path id="Path_131213" data-name="Path 131213" d="M328.178,278.269l8.789,6.81a192.121,192.121,0,0,0,30.874,16.96l16.284,6.6,1.215-5.987-6.918-2.734a166.871,166.871,0,0,1-34.577-18.577q-5.423-3.792-10.543-8.025c-.754-.617-1.5-1.244-2.244-1.881Z" transform="translate(-311.413 -124.617)" fill="#322920"/>
        <path id="Path_131214" data-name="Path 131214" d="M329.557,280.721l.627.255,1.254-.676a.514.514,0,0,1,.754.412,43.481,43.481,0,0,1,.186,5.908,6.592,6.592,0,0,1-1.911,1.234c-.049-.029-1.342-.4-1.342-.989,0-.461-.157-4.076-.235-5.673A.48.48,0,0,1,329.557,280.721Z" transform="translate(-265.497 -47.205)" fill="#aab5c6"/>
        <path id="Path_131215" data-name="Path 131215" d="M360.13,274.156l-35.7,20.389,2.116-3.785L358.524,272.3Z" transform="translate(-249.487 -117.062)" fill="#f7f6f5"/>
        <path id="Path_131216" data-name="Path 131216" d="M329.8,274.233l1.656,16.04a1.751,1.751,0,0,1-.852,1.558l-2.91,1.7a1.077,1.077,0,0,1-1.627-.862l-.01-.078-1.656-16.04a1.745,1.745,0,0,1,.852-1.548l2.8-1.646.108-.059A1.083,1.083,0,0,1,329.8,274.233Z" transform="translate(-220.501 -109.607)" fill="#322920"/>
        <path id="Path_131217" data-name="Path 131217" d="M326.606,292.567a.473.473,0,0,0,.254-.069l2.92-1.7a1.154,1.154,0,0,0,.549-1.009l-1.646-16.04-.01-.02a.5.5,0,0,0-.49-.519.483.483,0,0,0-.245.078l-.118.059-2.8,1.646A1.172,1.172,0,0,0,324.46,276l1.656,16.01v.049l.01.029v.01a.5.5,0,0,0,.48.47Z" transform="translate(-219.973 -109.08)" fill="#4d5258"/>
        <path id="Path_131218" data-name="Path 131218" d="M323.691,272.3l.906,2.257.7,2.034,3.44,36.57.127,4.2,2.446,2.962v4.455l1.233-.614v-4.375l-2.636-2.989v-4.4l-3.69-36.3-.921-1.944Z" transform="translate(-214.654 -117.062)" fill="#c1c9d5" style="mix-blend-mode: multiply;isolation: isolate"/>
        <path id="Path_131219" data-name="Path 131219" d="M458.22,256.455,312.807,343.16l58.258,33.42,150.178-83.739L371.065,379.546,308.042,343.16Z" transform="translate(-250.026 -256.455)" fill="#f7f6f5"/>
        <path id="Path_131220" data-name="Path 131220" d="M328.763,277.548l11.444,7.721a192.776,192.776,0,0,0,30.864,16.96l18.989,8.28,1.43-7.074L357.265,287.14l-19.214-12.571Z" transform="translate(-323.296 -97.088)" fill="#737f82"/>
        <path id="Path_131221" data-name="Path 131221" d="M336.767,274.162l-.962.978-2.583-1.3-1.215-.1-.734,1.683.232,1.126,3.275,2.421,5.871,2.819.885-.28.693-2.032-.832-1.238-3.471-1.9.948-.944-1.146-1.049Z" transform="translate(-298.633 -104.314)" fill="#737f82"/>
        <g id="Group_29562" data-name="Group 29562" transform="translate(71.508 182.564)">
          <path id="Path_131222" data-name="Path 131222" d="M329.674,275.746l1.95.186c1.587.323,2.88,2.3,2.88,4.429v12.307c0,2.126-1.293,3.586-2.88,3.262l-2.665-.451c-1.587-.323-2.165-2.038-2.165-4.154V279.009C326.793,276.883,328.086,275.423,329.674,275.746Z" transform="translate(-318.515 -269.689)" fill="#484038"/>
          <g id="Group_29561" data-name="Group 29561" transform="translate(0)">
            <path id="Path_131223" data-name="Path 131223" d="M339.466,303.635l-12.3-4.956.608-1.042,10.483,3.9V279.789l-7.182-3.625.543-1.076,7.844,3.959Z" transform="translate(-327.17 -275.088)" fill="#3e362e"/>
          </g>
        </g>
      </g>
      <g id="Group_32156" data-name="Group 32156" transform="translate(1349.211 5101.169)">
        <g id="Group_30906" data-name="Group 30906" transform="translate(34.328 0)">
          <path id="Path_64191" data-name="Path 64191" d="M148.134,259.461s-45.416,12.865-32.254,28.527,43.172,30.662,72.507,36.613,54.32-15.076,44.27-32.784S148.134,259.461,148.134,259.461Z" transform="translate(-63.468 -82.957)" fill="#333" opacity="0.06"/>
          <path id="Path_64192" data-name="Path 64192" d="M199.109,197.842l24.169-12.084L150.644,149.44l-24.169,12.084Z" transform="translate(-61.808 -56.469)" fill="#e5e5e5"/>
          <path id="Path_64193" data-name="Path 64193" d="M150.629,290.807,126.46,302.895V209.36l24.169-12.088Z" transform="translate(10.852 -67.985)" fill="#afafaf"/>
          <path id="Path_64194" data-name="Path 64194" d="M247.891,174.256l-3.713,1.857V62.264l3.713-1.857Z" transform="translate(-175.787 -35.033)" fill="#afafaf"/>
          <path id="Path_64195" data-name="Path 64195" d="M157.938,61.178V53.131l72.638,36.325V97.5Z" transform="translate(-92.994 -33.282)" fill="#f5f5f5"/>
          <path id="Path_64196" data-name="Path 64196" d="M230.931,295.525,158.293,259.2V165.664l72.638,36.326Z" transform="translate(-93.618 -60.374)" fill="#d3d3d3"/>
          <path id="Path_64197" data-name="Path 64197" d="M228.042,243.826l-65.209-32.611V171.282l65.209,32.611Z" transform="translate(-94.176 -61.727)" fill="#fff"/>
          <path id="Path_64198" data-name="Path 64198" d="M228.042,278.217l-65.209-32.612V231.413l65.209,32.611Z" transform="translate(-94.176 -76.204)" fill="#ff975d"/>
          <g id="Group_11578" data-name="Group 11578" transform="translate(81.195 123.498)">
            <path id="Path_64199" data-name="Path 64199" d="M228.441,195.585l-11.871-5.937v32.26l11.871,5.937Z" transform="translate(-216.571 -189.648)" fill="#6fe777"/>
            <path id="Path_64200" data-name="Path 64200" d="M209.829,204.885l-11.871-5.937V231.21l11.871,5.937Z" transform="translate(-183.826 -191.883)" fill="#505050"/>
            <path id="Path_64201" data-name="Path 64201" d="M191.217,214.2l-11.871-5.937v32.261l11.871,5.937Z" transform="translate(-151.083 -194.128)" fill="#e4e71a"/>
            <path id="Path_64202" data-name="Path 64202" d="M226.072,233.375l-4.93-2.464v-4.93l4.93,2.465Z" transform="translate(-217.672 -198.394)" fill="#fff"/>
            <path id="Path_64203" data-name="Path 64203" d="M207.46,242.682l-4.93-2.465v-4.93l4.93,2.464Z" transform="translate(-184.929 -200.634)" fill="#fff"/>
            <path id="Path_64204" data-name="Path 64204" d="M188.848,251.994l-4.93-2.465V244.6l4.93,2.463Z" transform="translate(-152.185 -202.879)" fill="#fff"/>
          </g>
          <path id="Path_64205" data-name="Path 64205" d="M252.782,168.839l-3.713-1.857V53.131l3.713,1.857Z" transform="translate(-184.391 -33.282)" fill="#d3d3d3"/>
          <path id="Path_64206" data-name="Path 64206" d="M162.006,214.237l-3.713-1.857V98.529l3.713,1.857Z" transform="translate(-24.693 -44.211)" fill="#d3d3d3"/>
          <path id="Path_64207" data-name="Path 64207" d="M157.113,217.813,153.4,219.67V105.816l3.713-1.857Z" transform="translate(-16.086 -45.519)" fill="#afafaf"/>
          <g id="Group_11579" data-name="Group 11579" transform="translate(84.667 167.643)">
            <path id="Path_64208" data-name="Path 64208" d="M224.04,273.925h0a4.151,4.151,0,0,1-2.2-3.3V249.147c0-1.21.986-1.7,2.2-1.1h0a4.15,4.15,0,0,1,2.2,3.3v21.481C226.237,274.036,225.248,274.53,224.04,273.925Z" transform="translate(-221.842 -247.79)" fill="#331710"/>
            <path id="Path_64209" data-name="Path 64209" d="M225.854,256.393c0,.9-.731,1.267-1.633.816a3.073,3.073,0,0,1-1.633-2.45c0-.9.731-1.267,1.633-.816a3.073,3.073,0,0,1,1.633,2.45Z" transform="translate(-222.023 -249.224)" fill="#6fe777"/>
            <path id="Path_64210" data-name="Path 64210" d="M225.854,268.1c0,4.061-.731,6.987-1.633,6.536s-1.633-4.109-1.633-8.17.731-6.987,1.633-6.536S225.854,264.042,225.854,268.1Z" transform="translate(-222.023 -250.702)" fill="#472016"/>
          </g>
          <g id="Group_11580" data-name="Group 11580" transform="translate(98.797 174.71)">
            <path id="Path_64211" data-name="Path 64211" d="M205.429,283.235h0a4.15,4.15,0,0,1-2.2-3.3V258.456c0-1.208.986-1.7,2.2-1.1h0a4.15,4.15,0,0,1,2.2,3.3v21.482C207.628,283.345,206.638,283.839,205.429,283.235Z" transform="translate(-203.232 -257.099)" fill="#331710"/>
            <path id="Path_64212" data-name="Path 64212" d="M207.242,265.7c0,.9-.731,1.267-1.633.816a3.073,3.073,0,0,1-1.633-2.45c0-.9.731-1.267,1.633-.816A3.073,3.073,0,0,1,207.242,265.7Z" transform="translate(-203.411 -258.533)" fill="#291213"/>
            <ellipse id="Ellipse_443" data-name="Ellipse 443" cx="7.401" cy="1.622" rx="7.401" ry="1.622" transform="matrix(-0.026, -1, 1, -0.026, 0.765, 24.024)" fill="#472016"/>
          </g>
          <g id="Group_11581" data-name="Group 11581" transform="translate(113.195 181.911)">
            <path id="Path_64213" data-name="Path 64213" d="M186.467,292.718h0a4.151,4.151,0,0,1-2.2-3.3V267.94c0-1.208.986-1.7,2.2-1.1h0a4.15,4.15,0,0,1,2.2,3.3v21.481C188.665,292.828,187.676,293.323,186.467,292.718Z" transform="translate(-184.269 -266.583)" fill="#331710"/>
            <path id="Path_64214" data-name="Path 64214" d="M188.278,275.184c0,.9-.731,1.268-1.633.817a3.073,3.073,0,0,1-1.633-2.45c0-.9.731-1.267,1.633-.816A3.073,3.073,0,0,1,188.278,275.184Z" transform="translate(-184.446 -268.017)" fill="#e4e71a"/>
            <path id="Path_64215" data-name="Path 64215" d="M188.278,286.9c0,4.061-.731,6.987-1.633,6.536s-1.633-4.109-1.633-8.17.731-6.987,1.633-6.536S188.278,282.834,188.278,286.9Z" transform="translate(-184.446 -269.494)" fill="#472016"/>
          </g>
          <path id="Path_64216" data-name="Path 64216" d="M303.177,289.529a12.456,12.456,0,0,1-5-4.643c-3.383-5.406-19.121-11.934-33.931-6.548-7.124,2.591-13.7-.714-18.776-4.98A93.507,93.507,0,0,1,235.414,263.1l-8.792-12.048-3.121-5.2,2.325-1.337,3.079,5.122S248.3,283.227,263.074,276.7c15.628-4.75,27.759.7,27.759.7-.007.066,5.811,2.253,8.735,6.921a8.831,8.831,0,0,0,3.609,3.327c3.91,1.956,6.245-3.675,6.245-10.248l1.885.942C311.307,284.471,309.142,292.513,303.177,289.529Z" transform="translate(-223.501 -84.874)" fill="#331710"/>
          <path id="Path_64217" data-name="Path 64217" d="M175.359,272.083c-5.965-2.983-8.132-13.19-8.132-19.323l1.885.942c0,6.574,2.336,14.541,6.245,16.5,1.494.748,2.675.839,3.609.283,2.924-1.744,2.307-9.125,2.3-9.2l0-.089V105.643l1.885.942V262.093c.062.745.6,8.33-2.785,10.353C179.07,273.219,177.387,273.1,175.359,272.083Z" transform="translate(-52.682 -45.922)" fill="#331710"/>
          <path id="Path_64218" data-name="Path 64218" d="M211.426,253.4a10.558,10.558,0,0,1-4.071-3.673c-2.919-4.385-2.907-10.5-2.9-13.432v-.352c0-39.185,1.292-153.629,1.3-154.78l1.885.964c-.013,1.151-1.306,115.585-1.306,154.759v.356c-.005,2.683-.016,8.266,2.351,11.821a6.972,6.972,0,0,0,2.737,2.453c2.178,1.088,3.282-2.858,3.282-11.731l1.885.942C216.592,248.272,215.978,255.678,211.426,253.4Z" transform="translate(-114.325 -40.031)" fill="#331710"/>
          <path id="Path_64219" data-name="Path 64219" d="M155.506,52.184V42.863L239.64,84.939v9.322Z" transform="translate(-100.211 -30.81)" fill="#d3d3d3"/>
          <path id="Path_64220" data-name="Path 64220" d="M147.842,91.682,123.673,103.77V94.448l24.169-12.087Z" transform="translate(15.755 -40.32)" fill="#afafaf"/>
          <path id="Path_64221" data-name="Path 64221" d="M147.814,26.988,123.643,39.072l84.135,42.067,24.169-12.084Z" transform="translate(-68.326 -26.988)" fill="#e5e5e5"/>
        </g>
        <g id="Group_30910" data-name="Group 30910" transform="translate(38.506 160.583) rotate(150)">
          <g id="Group_30905" data-name="Group 30905" transform="translate(0 0)">
            <path id="Path_132307" data-name="Path 132307" d="M3.379,19.936,1.123,17.2l3.386-3.6,1.478-3.105,1.3-6.981L3.927,4.928,1.443,6.363,0,5.409,1.725,2.616,7.229,0,9.195,1.223l.514,1.049L8.916,9.961l-1.285,4.09L6.454,16.428Z" transform="translate(3.412 0.306)" fill="#ffcaa7"/>
            <path id="Path_132308" data-name="Path 132308" d="M4.854,3.723V1.4A1.206,1.206,0,0,0,4.144.41,3.794,3.794,0,0,0,.711.41,1.206,1.206,0,0,0,0,1.4V3.723Z" transform="translate(0 0)"/>
            <ellipse id="Ellipse_970" data-name="Ellipse 970" cx="2.427" cy="1.401" rx="2.427" ry="1.401" transform="translate(0 2.322)" fill="#b3b3b3"/>
            <path id="Path_132309" data-name="Path 132309" d="M3.642,2.793V1.051A.905.905,0,0,0,3.108.308a2.846,2.846,0,0,0-2.575,0A.905.905,0,0,0,0,1.051V2.793Z" transform="translate(0.607 2.922)"/>
            <path id="Path_132310" data-name="Path 132310" d="M1.255,15.992a.946.946,0,0,0,.711-.855V1.376A1.206,1.206,0,0,0,1.255.385,3.254,3.254,0,0,0,0,0V16.255A4.29,4.29,0,0,0,1.255,15.992Z" transform="translate(2.889 3.671)" fill="#c16c3d"/>
            <g id="Group_30904" data-name="Group 30904" transform="translate(4.303 4.227)">
              <path id="Path_132311" data-name="Path 132311" d="M.835,13a.6.6,0,0,0,.478.106.592.592,0,0,0,.456-.7s-.07-.257-.219-1.423a23.99,23.99,0,0,1,1-10.154.173.173,0,0,0-.058-.2L1.653,0A15.2,15.2,0,0,0,.428,6.007L0,12.374Z" transform="translate(0.385 0.04)" fill="#1a1a1a"/>
              <path id="Path_132312" data-name="Path 132312" d="M.029,8.2A24.065,24.065,0,0,1,1.756.116.181.181,0,0,1,2.1.234a24,24,0,0,0-1,10.161c.15,1.166.219,1.423.219,1.423a.592.592,0,0,1-1.158.245A22.15,22.15,0,0,1,.029,8.2Z" transform="translate(0 0)" fill="#333"/>
            </g>
            <path id="Path_132313" data-name="Path 132313" d="M.711,15.732a3.278,3.278,0,0,0,2.178.548V.025A3.7,3.7,0,0,0,.711.41,1.206,1.206,0,0,0,0,1.4v13.2A1.532,1.532,0,0,0,.711,15.732Z" transform="translate(0 3.645)" fill="#ffad78"/>
            <path id="Path_132314" data-name="Path 132314" d="M.929,12.1V0A2.4,2.4,0,0,0,.582.163.968.968,0,0,0,0,.932v12.03A3.87,3.87,0,0,1,.929,12.1Z" transform="translate(0.257 4.115)" fill="#ffa163" opacity="0.75"/>
            <path id="Path_132315" data-name="Path 132315" d="M2.738,0S-.329.525.029,2.877c0,0,1.917,2.83,2.473,3.548s1.842,1.038,3.175-.262c1.731-1.63.68-2.728.68-2.728Z" transform="translate(0.15 15.939)" fill="#ffbf95"/>
            <path id="Path_132316" data-name="Path 132316" d="M.018,1.392c.257.38,1.925,2.834,2.43,3.485A1.4,1.4,0,0,0,3.566,5.4a1.894,1.894,0,0,0,.793-.188L.386,0A1.8,1.8,0,0,0,.018,1.392Z" transform="translate(0.408 17.329)" fill="#ff9650"/>
            <path id="Path_132317" data-name="Path 132317" d="M1.936,18.713,0,15.633l3.919-2.42,1.646-3.4.924-7.8-4,1.689L0,5.14V3.34L2.441,2.016,6.489.321,7.752,0l.514,1.049L7.474,8.737l-1.285,4.09L5.011,15.2Z" transform="translate(2.889 0.306)" fill="#ffa163"/>
            <path id="Path_132318" data-name="Path 132318" d="M6.015,4.354l-2.859-4C1.855-.93-.972,1.576.338,2.909L3.188,6.94A2.252,2.252,0,0,0,5,7.647,2.516,2.516,0,0,0,6.015,4.354Z" transform="translate(3.073 19.577)" fill="#999"/>
            <path id="Path_132319" data-name="Path 132319" d="M.264,1.335l.015.015,2.85,4.033a2.4,2.4,0,0,0,.289.258,2.16,2.16,0,0,1-.034-1.419L.222,0A1.876,1.876,0,0,0,.1.229.963.963,0,0,0,.264,1.335Z" transform="translate(3.331 20.97)" fill="#fff" opacity="0.5" style="mix-blend-mode: overlay;isolation: isolate"/>
            <path id="Path_132320" data-name="Path 132320" d="M1.966,2.658C1.966,1.981.948,1.329,0,1.435L2.484,0Z" transform="translate(2.889 4.01)" fill="#ab4a0a"/>
            <path id="Path_132321" data-name="Path 132321" d="M1.966,4.732C2,4.067.848,3.4,0,3.508L3.075,0,2.822,3.754Z" transform="translate(4.825 15.51)" fill="#ffcaa7"/>
            <path id="Path_132322" data-name="Path 132322" d="M.718,2.863l6.728,2.75,1.07-2.788L1.789.075A1.03,1.03,0,0,0,1.556.011,1.473,1.473,0,0,0,.037,1.287,1.352,1.352,0,0,0,.718,2.863Z" transform="translate(6.933 24.214)" fill="#b3b3b3"/>
            <path id="Path_132323" data-name="Path 132323" d="M.543.775,6.348,3.152a1.222,1.222,0,0,1-.118-.664L0,0A.956.956,0,0,0,.543.775Z" transform="translate(7.205 26.063)" fill="#fff" opacity="0.5" style="mix-blend-mode: overlay;isolation: isolate"/>
            <path id="Path_132324" data-name="Path 132324" d="M.037,1.287A1.473,1.473,0,0,1,1.556.011a1.289,1.289,0,0,1,.914,1.64A1.473,1.473,0,0,1,.951,2.927,1.289,1.289,0,0,1,.037,1.287Z" transform="translate(13.66 26.964)" fill="#e6e6e6"/>
            <path id="Path_132325" data-name="Path 132325" d="M1.144,0a.773.773,0,0,1,.649.351,1.283,1.283,0,0,1,.168.992A1.264,1.264,0,0,1,.849,2.424.774.774,0,0,1,.2,2.074a1.284,1.284,0,0,1-.168-.991A1.264,1.264,0,0,1,1.144,0Z" transform="translate(13.917 27.221)"/>
          </g>
          <path id="Path_132334" data-name="Path 132334" d="M2.525,5.455l-.4.077A5.886,5.886,0,0,1,.672,5.357,1.226,1.226,0,0,1,0,4.54s.259-1.8.344-2.407S1.8.43,1.8.43L3.1,0,4.371.243l.451.646L4.669,1.917l-.415-.574L4,1.026A1.918,1.918,0,0,0,2.644.889,3.88,3.88,0,0,0,1.285,1.917a2.16,2.16,0,0,0-.364.933,1.1,1.1,0,0,0,.321.741Z" transform="translate(3.424 20.639)" fill="#1a3a81"/>
          <path id="Path_132333" data-name="Path 132333" d="M2.733,6.589a.812.812,0,0,1-.189-.475,3.454,3.454,0,0,1,.08-1.5A9.565,9.565,0,0,1,3.3,2.821a4.852,4.852,0,0,1,.482-.514,3.775,3.775,0,0,1,.532-.381L2.912,0a5.891,5.891,0,0,0-.556.436,5.211,5.211,0,0,0-.473.491,5.675,5.675,0,0,0-.338.691c-.159.392-.293.876-.293.876a.1.1,0,0,1-.088,0,.383.383,0,0,1-.111-.1L.334,1.376,0,2.6l.03.467.293.69Z" transform="translate(1.091 19.294)" fill="#0d1b3a"/>
          <path id="Path_132335" data-name="Path 132335" d="M1.4,2.3,0,.359.789,0a5.123,5.123,0,0,1,1.4.261,1.961,1.961,0,0,1,.84.645L4.255,2.624a1.566,1.566,0,0,0-1.339-.709A1.838,1.838,0,0,0,1.4,2.3Z" transform="translate(4.001 18.935)" fill="#071127"/>
        </g>
        <g id="Group_30912" data-name="Group 30912" transform="translate(0 122.255)">
          <path id="Path_132336" data-name="Path 132336" d="M-2244.881-3322.649s-4.93-4.247-9.708-4.247-9.4,4.247-9.4,4.247" transform="translate(2274.08 3339.329)" fill="none" stroke="#0d1b3a" stroke-linecap="round" stroke-linejoin="round" stroke-width="1"/>
          <path id="Path_132337" data-name="Path 132337" d="M-2234.622-3320.37s-7.576-6.527-14.918-6.527-14.453,6.527-14.453,6.527" transform="translate(2268.95 3333.822)" fill="none" stroke="#0d1b3a" stroke-linecap="round" stroke-linejoin="round" stroke-width="1"/>
          <path id="Path_132338" data-name="Path 132338" d="M-2224.707-3318.167s-10.133-8.729-19.955-8.729-19.331,8.729-19.331,8.729" transform="translate(2263.993 3326.896)" fill="none" stroke="#0d1b3a" stroke-linecap="round" stroke-linejoin="round" stroke-width="1"/>
        </g>
      </g>
    </g>
  </g>
</svg>
