<svg xmlns="http://www.w3.org/2000/svg" xmlns:xlink="http://www.w3.org/1999/xlink" width="209" height="144.158" viewBox="0 0 209 144.158">
  <defs>
    <linearGradient id="linear-gradient" x1="-0.755" y1="0.016" x2="-1.033" y2="0.175" gradientUnits="objectBoundingBox">
      <stop offset="0" stop-color="#fff"/>
      <stop offset="1" stop-color="#333"/>
    </linearGradient>
    <linearGradient id="linear-gradient-2" y1="0.5" x2="1.35" y2="0.5" gradientUnits="objectBoundingBox">
      <stop offset="0" stop-color="#ec691f"/>
      <stop offset="1" stop-color="#ff975d"/>
    </linearGradient>
    <linearGradient id="linear-gradient-3" y1="0.5" x2="1.35" y2="0.5" gradientUnits="objectBoundingBox">
      <stop offset="0" stop-color="#0d1b3a"/>
      <stop offset="1" stop-color="#1a3a81"/>
    </linearGradient>
    <linearGradient id="linear-gradient-4" y1="0.5" x2="1.35" y2="0.5" gradientUnits="objectBoundingBox">
      <stop offset="0" stop-color="#5e81cf"/>
      <stop offset="1" stop-color="#fff"/>
    </linearGradient>
  </defs>
  <g id="img_cover_fleet_analytics" transform="translate(-2145.73 -1347)">
    <path id="Path_78288" data-name="Path 78288" d="M675.152,533.781l.014,0v-8.222l-77.9-40.715a10.686,10.686,0,0,0-10.688,0L508.708,524.2v9.365l.006,0a7.767,7.767,0,0,0,3.864,7.572l74,42.726a10.686,10.686,0,0,0,10.688,0l74-42.726A7.755,7.755,0,0,0,675.152,533.781Z" transform="translate(1658.064 905.869)" fill="#aaa"/>
    <path id="Path_78289" data-name="Path 78289" d="M671.253,510.751l-74,42.727a10.688,10.688,0,0,1-10.688,0l-74-42.727a7.827,7.827,0,0,1,0-13.557l74-42.726a10.687,10.687,0,0,1,10.688,0l74,42.726A7.827,7.827,0,0,1,671.253,510.751Z" transform="translate(1658.086 926.892)" fill="#f5f5f5"/>
    <path id="Path_78295" data-name="Path 78295" d="M918.052,769.886a2.243,2.243,0,0,0,1.323,1.849l58.288,33.652a6.981,6.981,0,0,0,6.335,0,2.224,2.224,0,0,0,1.3-1.821q-.005,1.772-.01,3.546a2.222,2.222,0,0,1-1.3,1.821,6.979,6.979,0,0,1-6.335,0L919.365,775.28a2.242,2.242,0,0,1-1.323-1.848Q918.046,771.659,918.052,769.886Z" transform="translate(1310.836 636.069)" fill="#fff"/>
    <path id="Path_78296" data-name="Path 78296" d="M918.052,769.886a2.243,2.243,0,0,0,1.323,1.849l58.288,33.652a6.981,6.981,0,0,0,6.335,0,2.224,2.224,0,0,0,1.3-1.821q-.005,1.772-.01,3.546a2.222,2.222,0,0,1-1.3,1.821,6.979,6.979,0,0,1-6.335,0L919.365,775.28a2.242,2.242,0,0,1-1.323-1.848Q918.046,771.659,918.052,769.886Z" transform="translate(1310.836 636.069)" fill="#ccc" style="mix-blend-mode: multiply;isolation: isolate"/>
    <g id="Group_15464" data-name="Group 15464" transform="translate(2228.888 1403.374)">
      <path id="Path_63344" data-name="Path 63344" d="M984.075,775.8c1.755,1.013,1.766,2.656.022,3.669a6.981,6.981,0,0,1-6.335,0l-58.288-33.652c-1.755-1.013-1.766-2.656-.022-3.67a6.981,6.981,0,0,1,6.335,0Z" transform="translate(-918.151 -741.386)" fill="#fff"/>
    </g>
    <g id="Group_15465" data-name="Group 15465" transform="translate(2231.719 1398.837)" style="isolation: isolate">
      <g id="Group_11240" data-name="Group 11240" transform="translate(57.862 33.406)">
        <path id="Path_63345" data-name="Path 63345" d="M1591.119,1060.188l-.015,5.319-2.723,1.582.015-5.319Z" transform="translate(-1588.381 -1060.188)" fill="#bbb"/>
      </g>
      <g id="Group_11241" data-name="Group 11241" transform="translate(0 1.582)">
        <path id="Path_63346" data-name="Path 63346" d="M1007.289,742.164l-.015,5.319-57.862-33.406.015-5.319Z" transform="translate(-949.412 -708.758)" fill="#ccc"/>
      </g>
      <g id="Group_11242" data-name="Group 11242" transform="translate(0.015)">
        <path id="Path_63347" data-name="Path 63347" d="M1010.163,724.688l-2.724,1.583-57.861-33.406,2.723-1.582Z" transform="translate(-949.578 -691.282)" fill="#d9e8f9"/>
      </g>
    </g>
    <path id="Path_78297" data-name="Path 78297" d="M924.574,119.838l1.533-.891a1.086,1.086,0,0,1,1.1.105l61.53,35.525a3.4,3.4,0,0,1,1.538,2.663l-.135,47.5a1.078,1.078,0,0,1-.451.987l-3.066,1.781a1.079,1.079,0,0,0,.451-.987l.135-47.5a3.4,3.4,0,0,0-1.538-2.663l-61.53-35.525a1.087,1.087,0,0,0-1.1-.105Z" transform="translate(1306.29 1228.157)" fill="#fff"/>
    <path id="Path_78317" data-name="Path 78317" d="M1614.631,515.206l3.066-1.745a3.318,3.318,0,0,1,1.538,2.608l-.135,46.522a1.048,1.048,0,0,1-.451.967l-3.066,1.745a1.049,1.049,0,0,0,.451-.967l.135-46.522A3.318,3.318,0,0,0,1614.631,515.206Z" transform="translate(677.326 870.365)" opacity="0.3" fill="url(#linear-gradient)" style="mix-blend-mode: multiply;isolation: isolate"/>
    <g id="Group_15466" data-name="Group 15466" transform="translate(2228.745 1348.782)">
      <path id="Path_63350" data-name="Path 63350" d="M918.251,138.727c-.848-.49-1.545-.093-1.548.882l-.135,47.5a3.4,3.4,0,0,0,1.538,2.663l61.53,35.525c.848.49,1.545.093,1.548-.882l.135-47.5a3.4,3.4,0,0,0-1.538-2.663Z" transform="translate(-916.569 -138.517)" fill="#333"/>
    </g>
    <g id="Group_15467" data-name="Group 15467" transform="translate(2229.113 1350.577)">
      <path id="Path_63350-2" data-name="Path 63350" d="M918.217,138.718c-.831-.471-1.513-.089-1.516.847l-.132,45.631a3.255,3.255,0,0,0,1.506,2.558l60.266,34.126c.831.47,1.513.089,1.516-.847l.132-45.631a3.255,3.255,0,0,0-1.506-2.559Z" transform="translate(-916.569 -138.517)" fill="#fff"/>
    </g>
    <g id="Group_15468" data-name="Group 15468" transform="translate(2233.652 1384.431)">
      <path id="Path_63351" data-name="Path 63351" d="M973.353,538.931a5.5,5.5,0,0,0,2.486,4.307c1.374.793,2.487.151,2.487-1.435a5.5,5.5,0,0,0-2.486-4.307v-.676a6.788,6.788,0,0,1,3.071,5.32c0,1.958-1.375,2.753-3.071,1.773a6.789,6.789,0,0,1-3.071-5.32Z" transform="translate(-972.768 -536.401)" fill="#ff975d"/>
      <path id="Path_63352" data-name="Path 63352" d="M975.839,532.608v.676c-1.373-.793-2.487-.15-2.487,1.435l-.585-.338C972.768,532.423,974.143,531.629,975.839,532.608Z" transform="translate(-972.768 -532.189)" fill="#999"/>
    </g>
    <g id="Group_15469" data-name="Group 15469" transform="translate(2233.652 1393.984)">
      <path id="Path_63353" data-name="Path 63353" d="M1009.171,647.308a5.5,5.5,0,0,0-2.487-4.307h0v-.675a6.358,6.358,0,0,1,2.485,2.9c1,2.16.692,4.2-.68,4.562l-.344-.745C1008.767,648.875,1009.171,648.263,1009.171,647.308Z" transform="translate(-1003.613 -641.906)" fill="#999"/>
      <path id="Path_63354" data-name="Path 63354" d="M975.838,638.113v.675c-1.373-.792-2.486-.15-2.486,1.436a5.5,5.5,0,0,0,2.486,4.306,1.96,1.96,0,0,0,1.461.3l.344.745a2.341,2.341,0,0,1-1.806-.365,6.789,6.789,0,0,1-3.071-5.32C972.766,637.928,974.141,637.134,975.838,638.113Z" transform="translate(-972.766 -637.694)" fill="#ec691f"/>
    </g>
    <path id="Path_78318" data-name="Path 78318" d="M1488.314,843.345c1.054.608.915-.936,1.875-.382.9.518.759,2.034,1.87,2.675a.927.927,0,0,0,.99-.1v8.236l-6.8-3.926V838.2C1487.282,838.8,1487.26,842.736,1488.314,843.345Z" transform="translate(793.902 573.938)" fill="#ffc398"/>
    <path id="Path_78319" data-name="Path 78319" d="M1493.049,888.856a2.5,2.5,0,0,0-.99-1.344c-.9-.518-.743.782-1.869.132s-.8-1.88-1.729-2.416-.814.239-1.316-.051-.9-1.646-.9-1.646v7.543l6.8,3.926Z" transform="translate(793.902 532.714)" fill="#ff8f64"/>
    <path id="Path_78320" data-name="Path 78320" d="M1395.92,836.4a2.587,2.587,0,0,0,1.59.333,2.855,2.855,0,0,1,1.882.582,1.1,1.1,0,0,0,1.333-.078v9.9l-6.861-3.961v-6.992C1395.156,836.929,1395.257,836.048,1395.92,836.4Z" transform="translate(877.921 575.775)" fill="#58b9fb"/>
    <path id="Path_78321" data-name="Path 78321" d="M1400.725,852.932v-7.537a4.012,4.012,0,0,0-1.606-1.331c-1.217-.642-.963.717-1.794.237s-1.022-.893-2.1-1.513-1.365.2-1.365.2v5.98Z" transform="translate(877.921 569.979)" fill="#3680d8"/>
    <path id="Path_78322" data-name="Path 78322" d="M1301.417,751.626c.6.344.812,2.44,1.468,2.819s.324-.682,1.219-.166.607,1.028,1.2,1.373.444-.8,1.327-.306.9,1.955.9,1.955v7.908l-6.714-3.876v-9.242S1300.821,751.282,1301.417,751.626Z" transform="translate(962.538 652.753)" fill="#ff975d"/>
    <path id="Path_78323" data-name="Path 78323" d="M1307.535,786.978v-6.745a3.681,3.681,0,0,0-1.763-1.96c-1.456-.84-1.275.459-2.3-.134s-.954-1.683-2.649-2.662V783.1Z" transform="translate(962.538 630.983)" fill="#e36410"/>
    <path id="Path_78324" data-name="Path 78324" d="M1525.684,997.84l3.229,1.864v-1.283l-3.229-1.864Z" transform="translate(758.038 429.924)" fill="#ff8f64"/>
    <path id="Path_78325" data-name="Path 78325" d="M1486.248,975.07l3.229,1.864v-1.283l-3.229-1.864Z" transform="translate(793.902 450.632)" fill="#ffc398"/>
    <path id="Path_78326" data-name="Path 78326" d="M1433.638,944.7l3.229,1.864v-1.283l-3.229-1.864Z" transform="translate(841.749 478.255)" fill="#3680d8"/>
    <path id="Path_78327" data-name="Path 78327" d="M1394.2,921.928l3.229,1.864v-1.283l-3.229-1.864Z" transform="translate(877.615 498.962)" fill="#58b9fb"/>
    <path id="Path_78328" data-name="Path 78328" d="M1339.779,890.51l3.229,1.864v-1.283l-3.229-1.864Z" transform="translate(927.108 527.535)" fill="#ec691f"/>
    <path id="Path_78329" data-name="Path 78329" d="M1300.34,867.74l3.229,1.864v-1.283l-3.229-1.864Z" transform="translate(962.977 548.242)" fill="#ff975d"/>
    <path id="Path_78298" data-name="Path 78298" d="M962.882,352.522c3.169,1.83,2.823,4.72,5.138,6.057,3.664,2.115,2.651-11.026,5.984-9.1,4.135,2.387,1.541,13.464,8.515,17.49,5,2.886,4.309-5.781,8.27-3.494s4.149,9.918,7.12,11.633,3.761-8.063,5.841-6.862c2.531,1.461,3.287,22.366,8.849,25.577l-56.085-32.38C959.251,363.023,959.713,350.693,962.882,352.522Z" transform="translate(1275.668 1018.583)" fill="#333" opacity="0.24"/>
    <path id="Path_78299" data-name="Path 78299" d="M968.147,454.486c4.171,2.408,6.251,11.114,8.978,12.689,4.384,2.531,6.722-8.7,9.577-7.049,2.631,1.519,2.112,4.54,4.893,6.146,2.388,1.379,2.753-5.594,5.307-4.119,5.268,3.042,6.7,21.735,15.695,26.931L956.513,456.7C962.55,460.19,963.976,452.078,968.147,454.486Z" transform="translate(1275.668 923.321)" fill="#e36410"/>
    <path id="Path_78300" data-name="Path 78300" d="M963.628,430.223c2.81,1.622,2.819,4.933,6.994,7.343,6.275,3.623,6.34-10.062,11.373-7.156,4.51,2.6,5.944,19.2,10.078,21.589,4.76,2.748,5.038-.333,9.688,2.352s9.042,11.7,10.837,12.739l-56.085-32.38C960.352,436.927,959.675,427.941,963.628,430.223Z" transform="translate(1275.668 945.314)" fill="#ff975d"/>
    <path id="Path_78301" data-name="Path 78301" d="M972.211,486.269c2.555,1.475,2.919,4.234,5.307,5.613,2.782,1.606,2.263.128,4.893,1.647,2.855,1.649,5.193,7.46,9.577,9.991,2.728,1.575,4.807.113,8.978,2.521s5.6,6.4,11.634,9.886l-56.085-32.38C965.516,488.744,966.943,483.228,972.211,486.269Z" transform="translate(1275.665 896.478)" fill="#1a3a81"/>
    <path id="Path_78302" data-name="Path 78302" d="M1069.963,598.387l13.35,7.708v-.877l-13.35-7.708Z" transform="translate(1172.491 792.836)" fill="#999"/>
    <path id="Path_78303" data-name="Path 78303" d="M1069.963,619.836l13.35,7.708v-.877l-13.35-7.708Z" transform="translate(1172.491 773.329)" fill="#999"/>
    <path id="Path_78330" data-name="Path 78330" d="M1435.582,467.77l13.35,7.708V474.6l-13.35-7.708Z" transform="translate(839.98 911.624)" fill="#999"/>
    <path id="Path_78331" data-name="Path 78331" d="M1435.582,489.219l13.35,7.708v-.877l-13.35-7.708Z" transform="translate(839.98 892.117)" fill="#999"/>
    <path id="Path_78305" data-name="Path 78305" d="M1069.963,641.287l13.35,7.708v-.877l-13.35-7.708Z" transform="translate(1172.491 753.82)" fill="#999"/>
    <path id="Path_78306" data-name="Path 78306" d="M1069.963,662.736l13.35,7.708v-.877l-13.35-7.708Z" transform="translate(1172.491 734.313)" fill="#999"/>
    <path id="Path_78307" data-name="Path 78307" d="M1069.963,723l13.35,7.708v-.877l-13.35-7.707Z" transform="translate(1172.491 679.509)" fill="#999"/>
    <path id="Path_78308" data-name="Path 78308" d="M1069.963,744.447l13.35,7.708v-.877l-13.35-7.708Z" transform="translate(1172.491 660.002)" fill="#999"/>
    <g id="Group_15470" data-name="Group 15470" transform="translate(2250.3 1442.146)">
      <path id="Path_63488" data-name="Path 63488" d="M1386.867,1151.191l-.007,2.574-.782,2.918.007-2.574Z" transform="translate(-1372.717 -1151.106)" fill="#ab4a0a"/>
      <path id="Path_63492" data-name="Path 63492" d="M1283.246,1174.96l-.007,2.574-3.621-2.09.007-2.574Z" transform="translate(-1275.898 -1170.821)" fill="#ab4a0a"/>
      <path id="Path_63493" data-name="Path 63493" d="M1325.628,1183.035l-.007,2.574a10.99,10.99,0,0,0-6.02,1.135l.007-2.574A10.989,10.989,0,0,1,1325.628,1183.035Z" transform="translate(-1312.26 -1180.031)" fill="#ec691f"/>
      <path id="Path_63494" data-name="Path 63494" d="M1290.122,1150.339l-.782,2.919a10.99,10.99,0,0,0-6.02,1.135l-3.621-2.09A17.927,17.927,0,0,1,1290.122,1150.339Z" transform="translate(-1275.972 -1150.255)" fill="#e36410"/>
      <path id="Path_63495" data-name="Path 63495" d="M1435.481,1200.327q0,1.287-.007,2.574a3.588,3.588,0,0,0-2.042-2.942l.007-2.574A3.588,3.588,0,0,1,1435.481,1200.327Z" transform="translate(-1415.783 -1193.117)" fill="#0d1b3a"/>
      <path id="Path_63496" data-name="Path 63496" d="M1294.959,1202.856q0-1.287.007-2.574a3.564,3.564,0,0,1,2.009-2.9l-.007,2.574A3.562,3.562,0,0,0,1294.959,1202.856Z" transform="translate(-1289.85 -1193.113)" fill="#8390bf"/>
      <path id="Path_63497" data-name="Path 63497" d="M1238.536,1231.9q0-1.287.007-2.574c-.005,1.87,1.255,3.714,3.662,5.1a14.368,14.368,0,0,0,3.008,1.277l-.007,2.574A14.343,14.343,0,0,1,1242.2,1237C1239.791,1235.614,1238.531,1233.77,1238.536,1231.9Z" transform="translate(-1238.536 -1222.166)" fill="#8390bf"/>
      <path id="Path_63498" data-name="Path 63498" d="M1314.505,1270.721l-.007,2.574-2.3,2.633.007-2.574Z" transform="translate(-1305.528 -1259.812)" fill="#6a77a6"/>
      <path id="Path_63499" data-name="Path 63499" d="M1245.735,1176.386c-2.727,1.655-2.678,4.279.142,5.907a8.426,8.426,0,0,0,1.71.734l-2.3,2.633a14.365,14.365,0,0,1-3.008-1.277c-3.819-2.2-4.752-5.555-2.322-8.335a8.4,8.4,0,0,1,2.157-1.752Z" transform="translate(-1238.609 -1172.119)" fill="#a9b6e5"/>
      <path id="Path_63500" data-name="Path 63500" d="M1333.152,1230.017q0,1.287-.007,2.574c-.005,1.826-1.2,3.65-3.6,5.041-3.818,2.219-9.391,2.748-14.239,1.361l.007-2.574c4.848,1.387,10.421.858,14.239-1.361C1331.949,1233.667,1333.147,1231.843,1333.152,1230.017Z" transform="translate(-1308.358 -1222.794)" fill="#0d1b3a"/>
      <path id="Path_63501" data-name="Path 63501" d="M1329.684,1174.3c4.737,2.8,4.724,7.309-.055,10.086-3.817,2.218-9.39,2.748-14.239,1.361l2.3-2.632a11.482,11.482,0,0,0,8.319-.818c2.8-1.628,2.821-4.253.076-5.906Z" transform="translate(-1308.431 -1172.125)" fill="#1a3a81"/>
    </g>
    <g id="Group_15471" data-name="Group 15471" transform="translate(2233.695 1412.349)">
      <g id="Group_11285" data-name="Group 11285" transform="translate(0 0)">
        <path id="Path_63522" data-name="Path 63522" d="M1061.416,1053.123a.967.967,0,0,1,0,1.831,3.5,3.5,0,0,1-3.171,0,.967.967,0,0,1,0-1.831A3.506,3.506,0,0,1,1061.416,1053.123Z" transform="translate(-1057.588 -1032.869)" fill="#438be3" opacity="0.2" style="mix-blend-mode: multiply;isolation: isolate"/>
        <path id="Path_63523" data-name="Path 63523" d="M1064.152,833.629a3.376,3.376,0,0,0-3.054,0,1.073,1.073,0,0,0-.633.882v19.883a1.073,1.073,0,0,0,.633.882,3.375,3.375,0,0,0,3.054,0,1.073,1.073,0,0,0,.633-.882V834.511A1.073,1.073,0,0,0,1064.152,833.629Z" transform="translate(-1060.204 -833.264)" fill="url(#linear-gradient-2)"/>
        <path id="Path_63524" data-name="Path 63524" d="M1064.152,833.629a.931.931,0,0,1,0,1.764,3.377,3.377,0,0,1-3.054,0,.931.931,0,0,1,0-1.764A3.376,3.376,0,0,1,1064.152,833.629Z" transform="translate(-1060.204 -833.264)" fill="#e36410"/>
      </g>
      <g id="Group_11286" data-name="Group 11286" transform="translate(4.74 7.815)">
        <path id="Path_63525" data-name="Path 63525" d="M1113.757,1083.7a.967.967,0,0,1,0,1.831,3.5,3.5,0,0,1-3.171,0,.967.967,0,0,1,0-1.831A3.506,3.506,0,0,1,1113.757,1083.7Z" transform="translate(-1109.929 -1068.495)" fill="#438be3" opacity="0.2" style="mix-blend-mode: multiply;isolation: isolate"/>
        <path id="Path_63526" data-name="Path 63526" d="M1116.493,919.932a3.376,3.376,0,0,0-3.054,0,1.073,1.073,0,0,0-.633.882v14.837a1.073,1.073,0,0,0,.633.882,3.375,3.375,0,0,0,3.055,0,1.073,1.073,0,0,0,.633-.882V920.814A1.073,1.073,0,0,0,1116.493,919.932Z" transform="translate(-1112.546 -919.567)" fill="url(#linear-gradient-3)"/>
        <path id="Path_63527" data-name="Path 63527" d="M1116.491,919.932a.931.931,0,0,1,0,1.764,3.377,3.377,0,0,1-3.055,0,.931.931,0,0,1,0-1.764A3.376,3.376,0,0,1,1116.491,919.932Z" transform="translate(-1112.544 -919.567)" fill="#1a3a81"/>
      </g>
      <g id="Group_11287" data-name="Group 11287" transform="translate(9.555 13.334)">
        <path id="Path_63528" data-name="Path 63528" d="M1166.938,1114.259a.967.967,0,0,1,0,1.831,3.5,3.5,0,0,1-3.171,0,.966.966,0,0,1,0-1.831A3.506,3.506,0,0,1,1166.938,1114.259Z" transform="translate(-1163.11 -1101.803)" fill="#438be3" opacity="0.2" style="mix-blend-mode: multiply;isolation: isolate"/>
        <path id="Path_63529" data-name="Path 63529" d="M1169.675,980.876a3.376,3.376,0,0,0-3.054,0,1.074,1.074,0,0,0-.633.882v12.085a1.073,1.073,0,0,0,.633.882,3.377,3.377,0,0,0,3.055,0,1.073,1.073,0,0,0,.632-.882V981.758A1.073,1.073,0,0,0,1169.675,980.876Z" transform="translate(-1165.727 -980.511)" fill="url(#linear-gradient-4)"/>
        <path id="Path_63530" data-name="Path 63530" d="M1169.674,980.876a.931.931,0,0,1,0,1.764,3.376,3.376,0,0,1-3.055,0,.931.931,0,0,1,0-1.764A3.376,3.376,0,0,1,1169.674,980.876Z" transform="translate(-1165.726 -980.511)" fill="#96aee3"/>
      </g>
    </g>
    <path id="Path_78309" data-name="Path 78309" d="M3405.108,3178.414" transform="translate(-1209.652 -1704.98)" fill="none" stroke="#707070" stroke-width="1"/>
    <path id="Path_78314" data-name="Path 78314" d="M-3831.713,11082.328s-3.711,2.2-4.09,4.09,2.5,6.74,6.816,7.876,13.631-3.938,13.631-3.938,6.134-6.663,3.029-5.83-4.7,2.726-5.226,1.893-7.8-3.862-8.406-4.09A48.474,48.474,0,0,0-3831.713,11082.328Z" transform="translate(6037.774 -9650.271)" fill="#333" opacity="0.24"/>
    <g id="Group_15474" data-name="Group 15474" transform="translate(2198.666 1383.784)">
      <g id="Group_11271" data-name="Group 11271" transform="translate(4.239 49.7)">
        <path id="Path_63467" data-name="Path 63467" d="M523.448,1285.9s-.18,1.5.212,1.78a1.579,1.579,0,0,0,1.651,0c.457-.342.9-1.4,1.6-1.6s2.428-1.045,2.564-2.043-1.7-1.111-2.793-.734S523.448,1285.9,523.448,1285.9Z" transform="translate(-523.407 -1283.107)" fill="#1a3a81"/>
        <path id="Path_63468" data-name="Path 63468" d="M529.875,1286.706s0,0,0,0a.612.612,0,0,1,.134.5c-.136,1-1.862,1.847-2.564,2.043s-1.143,1.259-1.6,1.6a1.579,1.579,0,0,1-1.651,0,.559.559,0,0,1-.179-.315c0,.017,0,.031,0,.048-.008.316.032.6.179.705a1.579,1.579,0,0,0,1.651,0,9.782,9.782,0,0,0,.906-1.1V1290a1.857,1.857,0,0,1,.694-.455c.689-.239,2.585-1.2,2.721-2.2A1.1,1.1,0,0,0,529.875,1286.706Z" transform="translate(-523.938 -1286.265)" fill="#1a3a81"/>
      </g>
      <g id="Group_11272" data-name="Group 11272" transform="translate(10.804 52.976)">
        <path id="Path_63469" data-name="Path 63469" d="M584.822,1310.55c-.222-.412-.657-.417-2-.424s-1.873.222-2.345-.1l-2.986.86s-.287,1.553-.067,1.89a1.943,1.943,0,0,0,1.94.337,12.044,12.044,0,0,1,2.734-.22C582.927,1312.893,585.683,1312.144,584.822,1310.55Z" transform="translate(-577.344 -1310.025)" fill="#1a3a81"/>
        <path id="Path_63470" data-name="Path 63470" d="M585.13,1315.487a.573.573,0,0,0-.106-.139c.66,1.51-1.975,2.22-2.78,2.22a12.044,12.044,0,0,0-2.734.22,1.943,1.943,0,0,1-1.94-.337.5.5,0,0,1-.06-.177,1.732,1.732,0,0,0,0,.2.841.841,0,0,0,.06.451,1.939,1.939,0,0,0,1.94.338c.24-.055.479-.1.715-.127v-.216a15.213,15.213,0,0,1,2.019-.094C583.07,1317.83,585.992,1317.081,585.13,1315.487Z" transform="translate(-577.487 -1314.7)" fill="#1a3a81"/>
      </g>
      <path id="Path_63471" data-name="Path 63471" d="M519.556,1106.971a2.358,2.358,0,0,0,2.522-.6,7.9,7.9,0,0,0,1.174-2.888s.1-3.124.426-5.371c.113-.791.27-2.93.627-5.091.468-2.837,1.027-6.291,1.027-6.291l-1.947-6.818-3.593-1.549a15.127,15.127,0,0,0-.561,4.048,13.919,13.919,0,0,0,.561,2.539s.414,7.355.207,8.769a36.063,36.063,0,0,0-.566,4.955C519.435,1100.3,519.556,1106.971,519.556,1106.971Z" transform="translate(-515.481 -1053.58)" fill="#0d1b3a"/>
      <path id="Path_63472" data-name="Path 63472" d="M550.146,1090.267l.306,1.452s1.413,6.016,1.756,8.729a20.335,20.335,0,0,1-.024,5.821c-.215,1.639-.711,10.376-.711,10.376a4.751,4.751,0,0,1-2.763,1.833c-1.718.308-2.056,0-2.056,0s0-5.127.147-7c.138-1.764.189-5.325.3-6.511s-.728-4.4-1.061-5.664a13.737,13.737,0,0,0-.749-2.139,6.5,6.5,0,0,1-2.459-3.931,5.988,5.988,0,0,1,.519-3.541A21.171,21.171,0,0,0,550.146,1090.267Z" transform="translate(-536.187 -1063.53)" fill="#061d50"/>
      <g id="Group_11273" data-name="Group 11273" transform="translate(0 8.956)">
        <path id="Path_63473" data-name="Path 63473" d="M491.854,949.087l-.363-.727s-1.818.315-2.23,1.648a31.442,31.442,0,0,0-.605,5.961c-.049,1.527-.412,4.7.993,4.58a31.907,31.907,0,0,0,4.459-1.067Z" transform="translate(-488.578 -948.36)" fill="#e6f6ff"/>
        <path id="Path_63474" data-name="Path 63474" d="M498.964,993.786l2.385-.119,1.216,5.608a33.244,33.244,0,0,1-4.358,1.057A27.9,27.9,0,0,0,498.964,993.786Z" transform="translate(-497.036 -988.152)" fill="#c7deeb"/>
      </g>
      <g id="Group_11274" data-name="Group 11274" transform="translate(9.996 5.749)">
        <path id="Path_63475" data-name="Path 63475" d="M572.154,922.009a6.724,6.724,0,0,1,1.416.357c.45.216.666.929.985,1.474s.911,1.377.911,1.377l-1.23,1.1c-.2-.29-1.013-.328-1.753-.469s-.81-.384-1.007-.9a4.8,4.8,0,0,0-.768-1.148Z" transform="translate(-570.708 -922.009)" fill="#ffcda8"/>
        <path id="Path_63476" data-name="Path 63476" d="M572.586,922.085a1.419,1.419,0,0,1-.019.264,5.706,5.706,0,0,0-.148,1.678c.087.517.876,1.153,1.393,1.4.261.126.619.3.908.453l-.484.433c-.2-.29-1.013-.328-1.753-.469s-.81-.384-1.007-.9a4.8,4.8,0,0,0-.768-1.148l1.446-1.793S572.34,922.036,572.586,922.085Z" transform="translate(-570.708 -922.009)" fill="#d9a782"/>
      </g>
      <g id="Group_11276" data-name="Group 11276" transform="translate(4.393 0)">
        <path id="Path_63477" data-name="Path 63477" d="M532.2,880.547a2.258,2.258,0,0,1-.125,1.169.424.424,0,0,0,.076.481,1.57,1.57,0,0,1,.076.929c-.123.485-.314,1.662-.417,1.987s-.509.461-.923.509-.652.032-.652.572.1,1.894.729,2.318c0,0-1.269.7-1.715.862a20.009,20.009,0,0,1-3.7-.66l.092-2.162a1.726,1.726,0,0,0,.448-1.391,27.4,27.4,0,0,0-.977-2.7,3.244,3.244,0,0,1,.962-3.657,4.042,4.042,0,0,1,3.6-1.041C530.662,877.934,531.808,878.493,532.2,880.547Z" transform="translate(-524.886 -877.323)" fill="#ffcda8"/>
        <path id="Path_63478" data-name="Path 63478" d="M552.949,916.839c-.373-1.792,1.615-2.516,1.615-2.516l.235,1.322.15,1.282s.006.571,1.042.626a1.47,1.47,0,0,1-.747.257c-.414.048-.652.032-.652.572s.1,1.894.729,2.318c0,0-1.269.7-1.715.862a2.9,2.9,0,0,1-.955-.066A15.04,15.04,0,0,0,552.949,916.839Z" transform="translate(-549.246 -909.51)" fill="#d9a782"/>
        <path id="Path_63479" data-name="Path 63479" d="M528.151,874.823c2.324-.249,3.364.628,3.652,1.152a.454.454,0,0,1-.267.7.619.619,0,0,0-.131.469c.04.477.231,1.025.04,1.343a3.174,3.174,0,0,0-.318,1.526.933.933,0,0,1-.14.66l-.527-.252s-.606.109-.733.522-.437,1.836-1.43,1.885a6.972,6.972,0,0,1-2.55-.746c-.235-.732-.7-1.516-.852-2.164a6.489,6.489,0,0,1-.177-.989.4.4,0,0,1-.015-.065A3.605,3.605,0,0,1,528.151,874.823Z" transform="translate(-524.674 -874.779)" fill="#102044"/>
        <g id="Group_11275" data-name="Group 11275" transform="translate(0.343 5.534)">
          <path id="Path_63480" data-name="Path 63480" d="M574.126,921.961c-.016.027-.027.042-.027.042l-.338-.162A.682.682,0,0,1,574.126,921.961Z" transform="translate(-568.129 -921.646)" fill="#8c5228"/>
          <path id="Path_63481" data-name="Path 63481" d="M527.492,920.247c.8.394,3,1.293,4.854.4a.575.575,0,0,0-.144.231c-.127.413-.437,1.836-1.43,1.885a6.974,6.974,0,0,1-2.55-.746C528.034,921.425,527.7,920.8,527.492,920.247Z" transform="translate(-527.492 -920.247)" fill="#0d1b3a"/>
        </g>
        <path id="Path_63482" data-name="Path 63482" d="M568.935,922c-.047.254-.142.509-.334.254a1.969,1.969,0,0,1-.221-1.232c.047-.453.46-.763.508-.247S568.935,922,568.935,922Z" transform="translate(-563.048 -914.945)" fill="#ffcda8"/>
      </g>
      <path id="Path_63483" data-name="Path 63483" d="M502.167,948.6s.024.654,1.211,1.26a14.094,14.094,0,0,0,4.143.7,5.1,5.1,0,0,1,2.622,2.775,31.543,31.543,0,0,1,.674,6.942,51.168,51.168,0,0,0,.315,5.279c.169,1.118.515,2.44.515,2.44a6.126,6.126,0,0,1-5.292.957,15.88,15.88,0,0,1-5.716-2.732s.194-.856.654-2.212.945-3.053.7-3.441-3.053-5.431-3.587-7.512c-.945-3.684,1.527-4.7,1.527-4.7Z" transform="translate(-497.025 -939.404)" fill="#e6f6ff"/>
      <path id="Path_63484" data-name="Path 63484" d="M572.67,1008.652c.045-1.441,1.756-1.838,1.756-1.838l1.525-.349a48.176,48.176,0,0,1,.276,4.85,51.179,51.179,0,0,0,.315,5.279c.169,1.118.515,2.44.515,2.44a5.751,5.751,0,0,1-3.511,1.157c.057-1.531.2-3.874.268-5.349C573.921,1012.592,572.625,1010.093,572.67,1008.652Z" transform="translate(-562.434 -990.438)" fill="#c7deeb"/>
      <path id="Path_63485" data-name="Path 63485" d="M569.307,949.622c-1.809,1.162-.916,3.6.673,4.958s6.388,1.914,7.405,1.7,2.2-1.454.775-3.441-4.822-6.664-4.822-6.664-1.357.484-1.6,1.6l2.083,4.168a20.2,20.2,0,0,0-3.269-2.305A1.392,1.392,0,0,0,569.307,949.622Z" transform="translate(-558.601 -937.482)" fill="#e6f6ff"/>
      <g id="Group_11277" data-name="Group 11277" transform="translate(13.139 9.35)">
        <path id="Path_63486" data-name="Path 63486" d="M611.706,991.974a2.975,2.975,0,0,1-.268-.219C611.606,991.889,611.706,991.974,611.706,991.974Z" transform="translate(-609.623 -986.868)" fill="#c47508"/>
        <path id="Path_63487" data-name="Path 63487" d="M596.525,952.541a1.866,1.866,0,0,1,.551-.938c.433.905,1.5,3.117,2.018,3.933.653,1.036,3.49,2.881,3.49,2.881a40.576,40.576,0,0,1-3.976-1.708Z" transform="translate(-596.525 -951.602)" fill="#c7deeb"/>
      </g>
    </g>
    <rect id="Rectangle_5461" data-name="Rectangle 5461" width="209" height="144" transform="translate(2145.73 1347)" fill="none"/>
  </g>
</svg>
