<svg xmlns="http://www.w3.org/2000/svg" width="360.659" height="327.378" viewBox="0 0 360.659 327.378">
  <g id="img_cover_rfid_1" transform="translate(-500 -5020.094)">
    <ellipse id="Ellipse_971" data-name="Ellipse 971" cx="180.329" cy="104.113" rx="180.329" ry="104.113" transform="translate(500 5139.246)" fill="#f9f9f9"/>
    <g id="Group_30874" data-name="Group 30874" transform="translate(212.07 3788.861)">
      <path id="Path_132258" data-name="Path 132258" d="M732.724,616.52l-64.66-37.673a1.592,1.592,0,0,0-1.647.027l-1.135.711-36.416-21.328-16.685,9.633,10.351,6.063-10.973,4.633c-6.609-.8-13.762.274-18.894,3.236l-34.822,20.105c-7.99,4.613-8.029,12.226-.053,16.864,8.076,4.7,21.217,4.707,29.316.031l34.822-20.105c6.13-3.539,7.6-8.744,4.428-13.088l7.926-4.794,14.992,8.78a1.593,1.593,0,0,0,.044,2.726l62.359,36.33c5.812,3.356,15.234,3.356,21.046,0S738.535,619.875,732.724,616.52Z" transform="translate(-140.82 891.423)" fill="#333" opacity="0.3" style="mix-blend-mode: multiply;isolation: isolate"/>
      <g id="Group_30874-2" data-name="Group 30874" transform="translate(287.93 1349.773)">
        <path id="Path_132260" data-name="Path 132260" d="M471.967,306.7v58.315c0,16.948-5.336,29.362-15.024,34.956s-23.107,4.007-37.785-4.466l-40.883-23.6a94.488,94.488,0,0,0-94.229,0L241.93,396.218v19l50.342-29.065a78,78,0,0,1,77.775,0l40.883,23.6c19.982,11.537,39.245,13.125,54.239,4.466s23.251-26.131,23.251-49.2V306.7Z" transform="translate(-241.93 -306.702)" fill="#333"/>
      </g>
      <g id="Group_30877" data-name="Group 30877" transform="translate(409.434 1289.325)">
        <path id="Path_132261" data-name="Path 132261" d="M792.715,312.8c1.545-.11,1.968-2.94,1.763-7.289l-5.71.805C787.552,309.568,789.705,311.368,792.715,312.8Z" transform="translate(-692.881 -245.536)" fill="#d4eeff"/>
        <g id="Group_30875" data-name="Group 30875" transform="translate(93.379 47.212)">
          <path id="Path_132262" data-name="Path 132262" d="M801.952,287.741l-2.22,3.885-1.59,2.8a12.683,12.683,0,0,1-6.736-.732l-3.381.253h-.05l-.555.05-4.441.126,1.085-6.156,5.425-2.3a14.5,14.5,0,0,1,1.387-3.532,7.741,7.741,0,0,0,1.59-4.821c0-2.9-.233-3.943.4-3.943,3.477,0,2.038,8.471,2.038,8.471,2.6-.2,6.259-.58,6.59.772Z" transform="translate(-782.978 -273.376)" fill="#ffb294"/>
          <path id="Path_132263" data-name="Path 132263" d="M807.845,298.491l-.454,8.276-1.59,2.8a12.683,12.683,0,0,1-6.736-.732l-3.381.253a.591.591,0,0,1,.176-.076,7.315,7.315,0,0,0,4.163-6.535C800.094,296.757,805.6,299.229,807.845,298.491Z" transform="translate(-790.638 -288.516)" fill="#ffb294" opacity="0.4" style="mix-blend-mode: multiply;isolation: isolate"/>
          <path id="Path_132264" data-name="Path 132264" d="M816.511,296.652a9.666,9.666,0,0,1-5.353,1.607c-3.1.033-2.72,2.54-1.552,2.8-1.02.354-1.86.63-1.707,1.7s1.128,1.4,2.251,1.333c-1.181.381-1.109,2.721,1.672,2.46,0,0-1.469.616-.417,1.726.434.458,1.7.544,3.5-.18l1.009-.336C818.506,305.005,816.511,296.652,816.511,296.652Z" transform="translate(-797.991 -287.408)" fill="#ffb294"/>
        </g>
        <path id="Path_132265" data-name="Path 132265" d="M717.34,241.751l-26.47-3.18c-2.157-7.711-3.165-14.5-8.273-26.649-4.622-10.693-11.182-13.4-19.208-10.057l6.359,26.043c3.906,8.247,8.057,18.713,14.56,23.66,3.957,2.448,30.94-.527,33.679-1.694C716.918,249.28,714.393,245.13,717.34,241.751Z" transform="translate(-617.506 -182.243)" fill="#fff"/>
        <path id="Path_132266" data-name="Path 132266" d="M591.131,644.077c-1.153,3.692-1.385,4.766-.9,7.5a40.15,40.15,0,0,1,1.7,4.1c.708,2.472.6,6.6,4.28,9.072,4.384,3.464,12.859,3.623,15.526-.07,0-1.8-1.194-5.777-3.415-9l-4.3-8,.275-7.5-12.361-2.714Z" transform="translate(-573.259 -445.658)"/>
        <path id="Path_132267" data-name="Path 132267" d="M650.791,595.14c-1.152,1.572-1.085,5.163-.739,9.217,1.172,4.081,5.053,3.7,8.377,4.155,6.418.888,9.686,5.646,18.2,5.484,5.062-.1,8.419-1.241,9.426-4.467.131-1.48-.758-2.966-2.579-4.456-11.727-5.012-11.719-5.015-12-5.192-.3-.2-5.571-3.9-5.678-4.3s-2.163-9.266-2.163-9.266l-12.5.219Z" transform="translate(-609.332 -414.814)"/>
        <path id="Path_132268" data-name="Path 132268" d="M641.333,363.388l9,49.33c-1.356,15.025-6.549,29.845-5.157,44.361,1.1,6.019,13.535,5.115,15.911.684-.808-11.286,5.809-28.011,8.3-46.522.547-18.312.328-37.156-3.4-51.683Z" transform="translate(-604.21 -278.118)" fill="#00568f"/>
        <path id="Path_132269" data-name="Path 132269" d="M645.031,363.565a46.074,46.074,0,0,1-1.526,4.947c-.056.16-.123.3-.172.437-1.932,4.86-4.43,7.432-8.078,9.413-.867.467-1.821.917-2.849,1.354-5.961,2.547-12.8,2.873-19.127,2.362l-.252-.018q-1.329-.1-2.6-.259c-2.049-.246-3.993-.541-5.82-.874-.209-.726-.382-1.421-.517-2.1-1.317-6.072-.6-10.077.228-15.657.092-.6.178-1.23.27-1.883l-.092-.412c13.356,4.811,31.635.985,40.008-11.025A110.854,110.854,0,0,0,645.031,363.565Z" transform="translate(-581.32 -272.267)" fill="#0071bc"/>
        <path id="Path_132270" data-name="Path 132270" d="M635.835,391.622c-3.4,14.451-12.8,14.907-12.932,18.462-.369,10.889-2.338,24.584-4.2,36.895-5.764,17.767-11.024,34.784-12.255,46.018-2.123,2.676-8.509,3.667-12.4,2.116a6.325,6.325,0,0,1-1.477-.794,3.869,3.869,0,0,1-1.649-3.2c.086-14.291,2.713-28.737,6.737-43.275L596.584,401.5c0-.031-.154-6.527-.154-6.527l13.412-2.609,25.193-4.9C635.176,389.358,636.4,389.192,635.835,391.622Z" transform="translate(-573.821 -294.94)" fill="#0071bc"/>
        <path id="Path_132271" data-name="Path 132271" d="M610.931,387.628a8.834,8.834,0,0,0-1.089,2.282c-.732,3.989,2.871,12.532-.954,16.536-8.864,9.279-5.931,22.918-4.461,38.544-8.816,12.452-11.6,28.534-10.379,47.667a6.325,6.325,0,0,1-1.477-.793,3.869,3.869,0,0,1-1.649-3.2c.086-14.291,2.713-28.737,6.737-43.275l-1.077-46.344c-1.31-6.072-.591-10.077.234-15.657Z" transform="translate(-573.821 -292.484)" fill="#227fbc" opacity="0.3" style="mix-blend-mode: multiply;isolation: isolate"/>
        <path id="Path_132272" data-name="Path 132272" d="M635.754,230.171s-.777,21.391-.768,36.574c-.658,12.359-14.489,18.338-26.08,17.56-5.9-.4-11.234-2.559-13.931-6.536l-2.212-9.626-.548-2.395-1.627-7.057-.256-2.414-.192-1.764-.1-.9-2.468-22.625q1.536-1.783,3.181-3.492c.329-.347.667-.695,1.005-1.033.832-.859,1.691-1.709,2.569-2.541.329-.32.667-.631,1.006-.942a108.4,108.4,0,0,1,13.959-10.988h18.6C632.162,216,634.5,222.4,635.754,230.171Z" transform="translate(-571.8 -189.158)" fill="#0071bc"/>
        <path id="Path_132273" data-name="Path 132273" d="M642.854,231.021c-4.077,5.192-11.948,8.7-21.775,11.344-1.261-10.595-6.189-18.977-13.968-19.389a108.408,108.408,0,0,1,13.959-10.988h14.754C640.258,217.428,642.6,225.235,642.854,231.021Z" transform="translate(-583.58 -189.158)" fill="#f1f1f1"/>
        <path id="Path_132274" data-name="Path 132274" d="M605.186,287.567c-2.971,1.563-8.885,1.189-12.972.147l-1.627-7.057-.256-2.414-.192-1.764-.1-.9-2.468-22.625q1.536-1.783,3.181-3.492c.329-.347.667-.695,1.005-1.033,4.15.594,9.315,2.779,11.052,9.571C606.256,271.369,606.292,280.565,605.186,287.567Z" transform="translate(-571.8 -211.122)" fill="#f1f1f1"/>
        <path id="Path_132275" data-name="Path 132275" d="M613.11,336.551c-5.925-.394-11.252-2.553-13.947-6.527l-2.215-9.622-2.172-9.45-.258-2.418.8-4.417,10.2-5.445C604.331,314.508,606.041,327.845,613.11,336.551Z" transform="translate(-575.988 -241.414)" fill="#227fbc" opacity="0.3" style="mix-blend-mode: multiply;isolation: isolate"/>
        <path id="Path_132276" data-name="Path 132276" d="M597.243,377.221l-11.686-17.663a14.714,14.714,0,0,0-9.161,9.7c5.7,4.944,11.022,9.108,16.428,14C596.626,381.024,597.595,378.8,597.243,377.221Z" transform="translate(-565.064 -278.118)" fill="#ffb294"/>
        <path id="Path_132277" data-name="Path 132277" d="M617.763,397.235c-.154,1.159-5.3,9.875-7.36,11.576l2.307,2.922s7.266-10.29,7.921-12.381Z" transform="translate(-585.564 -300.831)" fill="#0071bc"/>
        <g id="Group_30876" data-name="Group 30876" transform="translate(29.528 0)">
          <path id="Path_132278" data-name="Path 132278" d="M644.1,222.085c-7.6,2.242-13.7-7.5-12.826-12.607.711-5.256,1.121-8.117,1.121-8.117l14.7,3.626s.159,1.378.245,3.327C647.674,215.713,646,221.526,644.1,222.085Z" transform="translate(-627.626 -182.751)" fill="#ffb294"/>
          <path id="Path_132279" data-name="Path 132279" d="M651.837,235.569c-6.894.855-12.275-20.126-12.275-20.126l14.762,1.572C654.7,225.461,656.348,235.01,651.837,235.569Z" transform="translate(-632.67 -191.24)" fill="#ffb294" opacity="0.5" style="mix-blend-mode: multiply;isolation: isolate"/>
          <path id="Path_132280" data-name="Path 132280" d="M628.972,175.669s1.593,6.363,4.441,9.112a17.208,17.208,0,0,0,9.112,4.212c1.728.088,3.089-.062,4.212-1.379s1.812-13.426,1.812-13.426c-.033-4.679-.111-6.09-.666-8.694-.819-3.837-3.6-12.339-14.776-10.807a10.777,10.777,0,0,0-9.433,9.419c-.558,3.774,2.464,10.491,2.464,10.491Z" transform="translate(-623.051 -154.504)" fill="#ffb294"/>
          <path id="Path_132281" data-name="Path 132281" d="M625.17,175.377l5.309,2.833.4-3.176c-.022-1.518.94-2.035,2.453-1.922a11.775,11.775,0,0,0,11.873-9.43c1.559.615,1.823,2.329,2.009,2.673,3.716-7.485-6.471-12.075-13.316-11.845-8.313.279-11.678,5.858-11.69,10.784C622.2,169.771,625.17,175.377,625.17,175.377Z" transform="translate(-622.209 -154.502)"/>
        </g>
        <path id="Path_132282" data-name="Path 132282" d="M579.347,316.043,563.629,292.5l13.76-17.259-13.76-15.431s-15.769,26.7-15.768,32.69c0,5.431,3.914,12.943,27.4,30.3C577.462,320.43,577.814,318.787,579.347,316.043Z" transform="translate(-547.861 -217.988)" fill="#f1f1f1"/>
        <path id="Path_132283" data-name="Path 132283" d="M628.791,195.91a1.831,1.831,0,0,0-2.243.34,1.759,1.759,0,0,0-.276,1.317,4.531,4.531,0,0,0,.464,1.3,22.656,22.656,0,0,0,1.169,2.1,2.553,2.553,0,0,0,1.408,1.277c.649.154,1.428.6,1.778.035a5.444,5.444,0,0,0-2.3-6.359Z" transform="translate(-595.116 -179.327)" fill="#ffb294"/>
      </g>
      <g id="Group_30905" data-name="Group 30905" transform="translate(513.785 1231.233)">
        <path id="Path_132307" data-name="Path 132307" d="M875.882,143.91l-12.489,15.176L882.14,179l8.182,17.193,7.184,38.653-18.591-7.839-13.755-7.944-7.988,5.281,9.553,15.465L897.2,254.3l10.885-6.774,2.846-5.81-4.387-42.568L899.428,176.5l-6.522-13.162Z" transform="translate(-838.28 -90.422)" fill="#ffcaa7"/>
        <path id="Path_132308" data-name="Path 132308" d="M836.484,374.206v12.856c0,1.986-1.312,3.972-3.936,5.487-5.248,3.03-13.758,3.03-19.006,0-2.625-1.515-3.937-3.5-3.937-5.487V374.206Z" transform="translate(-809.605 -229.253)"/>
        <ellipse id="Ellipse_970" data-name="Ellipse 970" cx="13.44" cy="7.759" rx="13.44" ry="7.759" transform="translate(0 137.193)" fill="#b3b3b3"/>
        <path id="Path_132309" data-name="Path 132309" d="M838.224,346.441v9.644c0,1.49-.985,2.979-2.953,4.116a15.759,15.759,0,0,1-14.258,0c-1.968-1.137-2.953-2.626-2.953-4.116v-9.644Z" transform="translate(-814.702 -212.515)"/>
        <path id="Path_132310" data-name="Path 132310" d="M856.826,149.772c2.625,1.015,3.936,2.751,3.936,4.737V230.7c0,1.986-1.312,3.972-3.936,5.487a18.022,18.022,0,0,1-6.949,2.132v-90A23.753,23.753,0,0,1,856.826,149.772Z" transform="translate(-833.883 -93.078)" fill="#c16c3d"/>
        <g id="Group_30904" data-name="Group 30904" transform="translate(23.828 69.303)">
          <path id="Path_132311" data-name="Path 132311" d="M879.589,184.386a3.313,3.313,0,0,1,2.647-.585,3.277,3.277,0,0,1,2.527,3.885s-.386,1.424-1.214,7.881a132.832,132.832,0,0,0,5.515,56.221.959.959,0,0,1-.321,1.114s-4.624,3.47-4.624,3.47c-4.471-11.088-7.019-22.176-6.786-33.263l-2.369-35.255Z" transform="translate(-872.834 -183.73)" fill="#1a1a1a"/>
          <path id="Path_132312" data-name="Path 132312" d="M869.761,216.458c1.091,18.553,3.932,30.156,9.564,44.756a1,1,0,0,0,1.893-.652,132.893,132.893,0,0,1-5.528-56.264c.828-6.457,1.214-7.881,1.214-7.881a3.277,3.277,0,0,0-6.413-1.358A122.647,122.647,0,0,0,869.761,216.458Z" transform="translate(-869.6 -188.993)" fill="#333"/>
        </g>
        <path id="Path_132313" data-name="Path 132313" d="M813.542,151.278c3.277-2.516,7.826-3.3,12.058-3.035v90a20.492,20.492,0,0,1-12.058-2.132c-2.625-1.515-3.937-3.5-3.937-5.487V157.515C809.6,155.529,810.917,153.293,813.542,151.278Z" transform="translate(-809.605 -93.005)" fill="#ffad78"/>
        <path id="Path_132314" data-name="Path 132314" d="M818.333,192.82v66.989a13.332,13.332,0,0,1-1.92-.9c-2.08-1.2-3.225-2.711-3.225-4.254V188.043A21.426,21.426,0,0,0,818.333,192.82Z" transform="translate(-811.765 -117.027)" fill="#ffa163" opacity="0.75"/>
        <path id="Path_132315" data-name="Path 132315" d="M826.864,144.653s-16.986-2.9-15-15.929c0,0,10.613-15.671,13.7-19.643s10.2-5.746,17.579,1.452c9.583,9.025,3.765,15.1,3.765,15.1Z" transform="translate(-810.869 -67.337)" fill="#ffbf95"/>
        <path id="Path_132316" data-name="Path 132316" d="M815.39,131.409c1.425-2.1,10.659-15.691,13.457-19.3a7.728,7.728,0,0,1,6.186-2.913,10.489,10.489,0,0,1,4.389,1.041L817.43,139.116A9.959,9.959,0,0,1,815.39,131.409Z" transform="translate(-813.033 -69.497)" fill="#ff9650"/>
        <path id="Path_132317" data-name="Path 132317" d="M860.6,160.967,849.877,178.02l21.7,13.4,9.115,18.824,5.114,43.173-22.173-9.35-13.755-7.945v9.966l13.518,7.328,22.411,9.385,7,1.779,2.846-5.81L891.26,216.2l-7.115-22.648-6.522-13.162Z" transform="translate(-833.883 -100.704)" fill="#ffa163"/>
        <path id="Path_132318" data-name="Path 132318" d="M885.758,64.8l-15.83,22.132c-7.2,7.127-22.855-6.747-15.6-14.128l15.778-22.322c3.716-3.894,6.747-3.644,10.049-3.913C886.2,50.834,889.641,58.632,885.758,64.8Z" transform="translate(-835.436 -31.738)" fill="#999"/>
        <path id="Path_132319" data-name="Path 132319" d="M857.506,78.951l.081-.082L873.37,56.54a13.3,13.3,0,0,1,1.6-1.426,11.957,11.957,0,0,0-.189,7.858L857.268,86.346a10.377,10.377,0,0,1-.648-1.266A5.332,5.332,0,0,1,857.506,78.951Z" transform="translate(-837.599 -36.892)" fill="#fff" opacity="0.5" style="mix-blend-mode: overlay;isolation: isolate"/>
        <path id="Path_132320" data-name="Path 132320" d="M860.762,333.142c0,3.75-5.638,7.359-10.885,6.774l13.755,7.944Z" transform="translate(-833.883 -204.498)" fill="#ab4a0a"/>
        <path id="Path_132321" data-name="Path 132321" d="M887.758,143.91c.182,3.679-6.192,7.346-10.885,6.774L893.9,170.109l-1.4-20.788Z" transform="translate(-850.157 -90.422)" fill="#ffcaa7"/>
        <path id="Path_132322" data-name="Path 132322" d="M910.234,25.513s37.251-15.229,37.251-15.229l5.927,15.435L916.16,40.946a5.7,5.7,0,0,1-1.29.353c-3.719.557-7.483-2.6-8.407-7.062C905.651,30.322,907.3,26.712,910.234,25.513Z" transform="translate(-867.87 -9.867)" fill="#b3b3b3"/>
        <path id="Path_132323" data-name="Path 132323" d="M913.062,31.966,945.205,18.8a6.77,6.77,0,0,0-.653,3.674l-34.5,13.781A5.3,5.3,0,0,1,913.062,31.966Z" transform="translate(-870.16 -15.003)" fill="#fff" opacity="0.5" style="mix-blend-mode: overlay;isolation: isolate"/>
        <path id="Path_132324" data-name="Path 132324" d="M1000.258,18.376c.924,4.458,4.688,7.62,8.407,7.062s5.985-4.622,5.061-9.079-4.688-7.62-8.407-7.063S999.334,13.919,1000.258,18.376Z" transform="translate(-924.414 -9.233)" fill="#e6e6e6"/>
        <path id="Path_132325" data-name="Path 132325" d="M1009.967,26.239a4.279,4.279,0,0,0,3.593-1.941,7.105,7.105,0,0,0,.932-5.49c-.708-3.416-3.355-5.992-6.157-5.992a4.283,4.283,0,0,0-3.592,1.942,7.1,7.1,0,0,0-.931,5.49C1004.519,23.664,1007.165,26.239,1009.967,26.239Z" transform="translate(-926.573 -11.393)"/>
      </g>
      <path id="Path_132326" data-name="Path 132326" d="M654.254,209.065c-7,0-14.3-13.566-14.3-13.566l18.385-1.383C658.78,204.077,659.093,209.065,654.254,209.065Z" transform="translate(-193.944 1110.942)" fill="#ffb294" opacity="0.5" style="mix-blend-mode: multiply;isolation: isolate"/>
      <path id="Path_132327" data-name="Path 132327" d="M633.061,171.97a16.293,16.293,0,0,1-10.171-3.744s-3.79-12.011,6.508-15.932c16.839-6.411,19.436,10.161,19.436,10.161C647.654,167.657,641.183,170.225,633.061,171.97Z" transform="translate(-183.248 1137.042)" fill="#0071bc"/>
      <path id="Path_132328" data-name="Path 132328" d="M658.615,185.869a31.614,31.614,0,0,1-9.818,3.579c.1.06.189.123.292.183,5.622,3.246,12.883,6.628,20.253,2.374,8.072-4.659,1.51-8.447-4.112-11.693-.119-.069-.245-.129-.367-.2A16.236,16.236,0,0,1,658.615,185.869Z" transform="translate(-199.276 1119.382)" fill="#00568f"/>
      <path id="Path_132329" data-name="Path 132329" d="M899,129" transform="translate(-350.108 1150.197)" fill="#fff"/>
      <path id="Path_132334" data-name="Path 132334" d="M-23037.66,11340.664l-2.2-.428s-5.219-.006-8.074.979-3.713,4.521-3.713,4.521,1.434,10,1.91,13.328,8.076,9.428,8.076,9.428l7.2,2.387,7-1.352,2.5-3.58-.836-5.689-2.307,3.183-1.432,1.75a10.61,10.61,0,0,1-7.479.757c-3.75-1.234-7.518-5.689-7.518-5.689s-1.971-2.855-2.031-5.172a6.179,6.179,0,0,1,1.791-4.1Z" transform="translate(23584.396 -10088.35)" fill="#505050"/>
      <path id="Path_132333" data-name="Path 132333" d="M-23069.051,11344.258a4.5,4.5,0,0,0-1.041,2.632,19.294,19.294,0,0,0,.432,8.311,53.141,53.141,0,0,0,3.73,9.924,26.059,26.059,0,0,0,2.691,2.846,19.87,19.87,0,0,0,2.934,2.106l-7.758,10.661a32.821,32.821,0,0,1-3.078-2.411,29.584,29.584,0,0,1-2.611-2.721,29.314,29.314,0,0,1-1.887-3.827c-.875-2.169-1.615-4.848-1.615-4.848a.527.527,0,0,0-.488,0,2.206,2.206,0,0,0-.613.544l-3.969,5.654-1.852-6.8.16-2.586,1.629-3.816Z" transform="translate(23604.006 -10090.773)" fill="#333"/>
      <path id="Path_132335" data-name="Path 132335" d="M-23035.871,11406.311l-7.77,10.772,4.361,1.987a28.377,28.377,0,0,0,7.756-1.447,10.923,10.923,0,0,0,4.656-3.569l6.773-9.516s-1.551,3.361-7.395,3.931S-23035.871,11406.311-23035.871,11406.311Z" transform="translate(23579.568 -10127.113)" fill="#212121"/>
    </g>
  </g>
</svg>
