<svg xmlns="http://www.w3.org/2000/svg" xmlns:xlink="http://www.w3.org/1999/xlink" width="440" height="327.689" viewBox="0 0 440 327.689">
  <defs>
    <radialGradient id="radial-gradient" cx="0.5" cy="0.5" r="0.311" gradientTransform="matrix(1.61, 0.034, -0.088, 1.605, -1.505, 0.43)" gradientUnits="objectBoundingBox">
      <stop offset="0" stop-color="#0028a1"/>
      <stop offset="0.232" stop-color="#1f40b8"/>
      <stop offset="0.941" stop-color="#7d8aff"/>
    </radialGradient>
    <radialGradient id="radial-gradient-2" cy="0.5" r="0.349" gradientTransform="matrix(1.593, 0.375, -0.853, 1.228, -3.423, -0.925)" xlink:href="#radial-gradient"/>
    <radialGradient id="radial-gradient-3" cy="0.5" r="0.502" gradientTransform="matrix(0.098, 0.991, -0.985, 0.179, -0.482, -3.049)" xlink:href="#radial-gradient"/>
  </defs>
  <g id="img_cover_testimonial" transform="translate(-749 -45)">
    <rect id="Rectangle_4141" data-name="Rectangle 4141" width="440" height="324" transform="translate(749 45)" fill="#fff"/>
    <g id="Group_14325" data-name="Group 14325" transform="translate(901.748 61.581)">
      <path id="Path_75701" data-name="Path 75701" d="M1140.753,598.292l46.973-28.213a6.267,6.267,0,0,0-.091-10.718l-139.288-82.815-18.307,57.906Z" transform="translate(-1013.128 -292.517)" fill="#a8c4e5" opacity="0.4" style="mix-blend-mode: multiply;isolation: isolate"/>
      <path id="Path_75702" data-name="Path 75702" d="M1127.833,380.341l-97.9-64.927c-6.123-3.535-11.087-13.019-11.087-21.183V80.549c0-8.164,4.964-11.916,11.087-8.381l102.219,59.016c6.123,3.535,11.087,13.019,11.087,21.183V365.039c0,5.372-2.009,7.612-5.389,9.563Z" transform="translate(-1007.006 -70.627)" fill="#1a3a81"/>
      <path id="Path_75703" data-name="Path 75703" d="M1060.762,179.352s-52.412,122.579-52.412,114.415L999.741,77.69l12.848-6.784c1.885-.888,4.263-.7,6.848.8l102.218,59.016a21.741,21.741,0,0,1,7.7,8.587Z" transform="translate(-996.558 -70.372)" fill="#1a3a81"/>
      <path id="Path_75704" data-name="Path 75704" d="M1110.03,385.945l-101.967-59.016c-6.123-3.535-10.835-13.019-10.835-21.183V92.063c0-8.164,4.834-11.916,10.957-8.381L1110.1,142.7c6.123,3.535,10.779,13.02,10.779,21.184V377.563C1120.874,385.727,1116.154,389.48,1110.03,385.945Z" transform="translate(-995.183 -76.924)" fill="#e6f0ff"/>
      <path id="Path_75705" data-name="Path 75705" d="M1105.517,387.616,1003.55,328.6c-6.123-3.535-10.835-13.019-10.835-21.184V93.735c0-8.164,4.834-11.916,10.957-8.381l101.91,59.016c6.123,3.535,10.779,13.019,10.779,21.183V379.235C1116.361,387.4,1111.641,391.151,1105.517,387.616Z" transform="translate(-992.715 -77.838)" fill="#0d1b3a"/>
      <path id="Path_75706" data-name="Path 75706" d="M1113.415,378.842,1014,321.443a3.341,3.341,0,0,1-1.671-2.894V138.1a3.342,3.342,0,0,1,5.012-2.894l99.419,57.4a3.341,3.341,0,0,1,1.671,2.894V375.948A3.342,3.342,0,0,1,1113.415,378.842Z" transform="translate(-1003.441 -105.581)" fill="#7d8aff"/>
      <path id="Path_75707" data-name="Path 75707" d="M1127.044,176.272l-31.529-18.2a4.832,4.832,0,0,1-2.011-3.843h0c0-1.475.9-2.159,2.011-1.521l31.529,18.2a4.834,4.834,0,0,1,2.012,3.843h0C1129.056,176.227,1128.151,176.911,1127.044,176.272Z" transform="translate(-1047.839 -115.271)" fill="#4a3eb5"/>
      <g id="Group_14324" data-name="Group 14324" transform="translate(99.744 223.301)">
        <path id="Path_75708" data-name="Path 75708" d="M1212.863,563.225" transform="translate(-1212.863 -563.225)" fill="none" stroke="#fff" stroke-miterlimit="10" stroke-width="2.657"/>
      </g>
    </g>
    <ellipse id="Ellipse_709" data-name="Ellipse 709" cx="30.699" cy="49.458" rx="30.699" ry="49.458" transform="translate(909.53 111.229) rotate(-5.055)" fill="url(#radial-gradient)"/>
    <ellipse id="Ellipse_710" data-name="Ellipse 710" cx="24.168" cy="41.529" rx="24.168" ry="41.529" transform="translate(952.416 219.046) rotate(-20.797)" fill="url(#radial-gradient-2)"/>
    <ellipse id="Ellipse_711" data-name="Ellipse 711" cx="41.543" cy="30.647" rx="41.543" ry="30.647" transform="matrix(0.134, -0.991, 0.991, 0.134, 896.545, 286.276)" fill="url(#radial-gradient-3)"/>
    <path id="Path_75816" data-name="Path 75816" d="M1005.454,296.5l24.986,33.625c.765,1.03,3.547.344,3.929-.969l5.785-19.907Z" transform="translate(-97.934 -132.467)" fill="#e36410"/>
    <path id="Path_75817" data-name="Path 75817" d="M1049.059,415.823l19.052-9.583a3.405,3.405,0,0,1,4.734,3.956l-11.889,23.346-3.054-2.629-5.58-8.564Z" transform="translate(-121.783 -192.305)" fill="#1a3a81"/>
    <path id="Path_75818" data-name="Path 75818" d="M1195.47,515.2l-16.484,13.532a3.405,3.405,0,0,1-5.487-2.82l6.474-25.386,3.557,1.894,7.324,7.131Z" transform="translate(-189.84 -244.049)" fill="#4432db"/>
    <g id="Group_14332" data-name="Group 14332" transform="translate(839.267 54.298)">
      <path id="Path_75819" data-name="Path 75819" d="M979.623,178.312,891.441,127.4c-6.976-4.027-12.63-14.832-12.63-24.133v-37.9c0-9.3,5.655-13.576,12.63-9.549l88.182,50.912c6.976,4.027,12.63,14.832,12.63,24.133v37.9C992.254,178.064,986.6,182.339,979.623,178.312Z" transform="translate(-867.937 -54.298)" fill="#ec691f"/>
      <path id="Path_75820" data-name="Path 75820" d="M865.241,63.823l10.257-7.3,105.74,123.148L970,187.585Z" transform="translate(-860.515 -55.513)" fill="#ec691f"/>
      <path id="Path_75821" data-name="Path 75821" d="M955.623,195.195l-88.182-50.912c-6.976-4.027-12.63-14.832-12.63-24.133v-37.9c0-9.3,5.654-13.576,12.63-9.549l88.182,50.912c6.976,4.027,12.63,14.832,12.63,24.133v37.9C968.254,194.947,962.6,199.222,955.623,195.195Z" transform="translate(-854.811 -63.531)" fill="#ff975d"/>
    </g>
    <g id="Group_14352" data-name="Group 14352" transform="translate(839.425 77.348)">
      <g id="Group_14333" data-name="Group 14333" transform="translate(0 0)">
        <ellipse id="Ellipse_714" data-name="Ellipse 714" cx="14.178" cy="23.059" rx="14.178" ry="23.059" transform="translate(0 18.117) rotate(-39.71)" fill="#fff"/>
      </g>
      <g id="Group_14334" data-name="Group 14334" transform="translate(17.182 30.735)">
        <path id="Path_75822" data-name="Path 75822" d="M893.083,173.008a21.573,21.573,0,0,1,.9,8.66c4.108,4.006,10.024,7.208,16.072,7.444,0,0-.14-6.3.976-6.81l-.025-.65-2.678-2.113-1.517,4.033s-1.023,2.1-4.607-.18-4.2-3.012-4.431-4.509-1.162-5.228-1.162-5.228Z" transform="translate(-893.083 -173.008)" fill="#2c1f9c"/>
      </g>
      <g id="Group_14335" data-name="Group 14335" transform="translate(28.458 31.751)">
        <path id="Path_75823" data-name="Path 75823" d="M918.574,180.2l-.04,0a.359.359,0,0,1-.3-.317l-.257-4.384a.226.226,0,0,1,.272-.24.359.359,0,0,1,.3.317l.257,4.384A.222.222,0,0,1,918.574,180.2Z" transform="translate(-917.972 -175.25)" fill="#2c1f9c"/>
      </g>
      <g id="Group_14336" data-name="Group 14336" transform="translate(23.36 29.407)">
        <path id="Path_75824" data-name="Path 75824" d="M907.065,174.751a.3.3,0,0,1-.076-.01.352.352,0,0,1-.268-.344l.3-4.113a.232.232,0,0,1,.308-.2.353.353,0,0,1,.269.345l-.3,4.113A.222.222,0,0,1,907.065,174.751Z" transform="translate(-906.72 -170.076)" fill="#2c1f9c"/>
      </g>
      <g id="Group_14337" data-name="Group 14337" transform="translate(18.134 18.155)">
        <path id="Path_75825" data-name="Path 75825" d="M897.541,150.828a.335.335,0,0,1-.188-.061,5.87,5.87,0,0,1-2.045-3.58c-.224-1.023-.139-1.631.261-1.858a1.188,1.188,0,0,1,1.115.157.312.312,0,0,1,.136.393.265.265,0,0,1-.386.058c-.085-.053-.364-.191-.508-.108-.073.042-.292.263-.054,1.346a5.231,5.231,0,0,0,1.746,3.152.309.309,0,0,1,.124.4A.228.228,0,0,1,897.541,150.828Z" transform="translate(-895.186 -145.241)" fill="#2c1f9c"/>
      </g>
      <g id="Group_14338" data-name="Group 14338" transform="translate(28.747 33.595)">
        <path id="Path_75826" data-name="Path 75826" d="M929.253,191.421a.362.362,0,0,1-.338-.273,9.939,9.939,0,0,0-4.094-5.832c-4.717-3.5-6.1-5.51-6.156-5.595a.249.249,0,0,1,.062-.374.33.33,0,0,1,.4.134h0c.013.019,1.39,2.009,5.98,5.411a10.62,10.62,0,0,1,4.368,6.239.226.226,0,0,1-.218.29Z" transform="translate(-918.61 -179.321)" fill="#2c1f9c"/>
      </g>
      <g id="Group_14339" data-name="Group 14339" transform="translate(12.816 30.354)">
        <path id="Path_75827" data-name="Path 75827" d="M883.792,175.842a.31.31,0,0,1-.089-.013.35.35,0,0,1-.254-.353c.335-2.735,1.946-3.781,4.785-3.111,4.52,1.067,5.9.458,5.911.452a.336.336,0,0,1,.4.143.247.247,0,0,1-.067.369c-.058.03-1.5.71-6.276-.419-2.551-.6-3.879.267-4.181,2.736A.221.221,0,0,1,883.792,175.842Z" transform="translate(-883.447 -172.168)" fill="#2c1f9c"/>
      </g>
      <g id="Group_14340" data-name="Group 14340" transform="translate(16.893 30.454)">
        <path id="Path_75828" data-name="Path 75828" d="M893.693,181.11a.281.281,0,0,1-.057-.006.357.357,0,0,1-.288-.331l.018-3.581a14.617,14.617,0,0,0-.9-4.472.23.23,0,0,1,.162-.328.355.355,0,0,1,.375.225,14.932,14.932,0,0,1,.94,4.686l-.018,3.582A.222.222,0,0,1,893.693,181.11Z" transform="translate(-892.445 -172.387)" fill="#2c1f9c"/>
      </g>
      <g id="Group_14341" data-name="Group 14341" transform="translate(33.865 39.221)">
        <path id="Path_75829" data-name="Path 75829" d="M930.25,199.541a.316.316,0,0,1-.057-.005.357.357,0,0,1-.288-.331l.018-3.582a7.641,7.641,0,0,1,.995-3.784.272.272,0,0,1,.391-.038.306.306,0,0,1,.117.4,7.3,7.3,0,0,0-.926,3.537l-.018,3.582A.222.222,0,0,1,930.25,199.541Z" transform="translate(-929.905 -191.737)" fill="#2c1f9c"/>
      </g>
      <g id="Group_14342" data-name="Group 14342" transform="translate(20.421 31.102)">
        <path id="Path_75830" data-name="Path 75830" d="M909.316,185.221a9.118,9.118,0,0,1-3.447-1.216c-2.926-1.429-4.448-3.307-4.653-5.74a19.333,19.333,0,0,0-.965-4.122.229.229,0,0,1,.17-.323.355.355,0,0,1,.371.232,19.6,19.6,0,0,1,1,4.275c.184,2.18,1.574,3.875,4.251,5.183,1.716.839,2.814,1.331,3.593,1.086a1.884,1.884,0,0,0,1.083-1.344c.719-2.1,1.242-3.4,1.247-3.415a.254.254,0,0,1,.37-.1.325.325,0,0,1,.174.386c-.005.013-.524,1.3-1.239,3.393a2.276,2.276,0,0,1-1.367,1.618A1.966,1.966,0,0,1,909.316,185.221Z" transform="translate(-900.233 -173.818)" fill="#2c1f9c"/>
      </g>
      <g id="Group_14343" data-name="Group 14343" transform="translate(19.31 10.753)">
        <path id="Path_75831" data-name="Path 75831" d="M912.719,157.125a.362.362,0,0,1-.321-.222,29.816,29.816,0,0,1-1.718-8.707,6.512,6.512,0,0,1-.538.876,3.205,3.205,0,0,1-1.322.908c-2.231.927-5.682-.742-7.856-3.8a16.17,16.17,0,0,1-1.49-2.451,19.172,19.172,0,0,1-1.582-6.832c-.425-2.621.38-3.641,2.01-4.6,1.419-.839.654-3.042.646-3.064a.229.229,0,0,1,.146-.315.347.347,0,0,1,.372.174,19.547,19.547,0,0,0,3.119,3.843c.212.2.456.432.722.679,2.458,2.289,6.571,6.119,6.332,10.951a31.145,31.145,0,0,0,1.69,12.223.231.231,0,0,1-.152.334A.277.277,0,0,1,912.719,157.125ZM901.34,130.442a2.41,2.41,0,0,1-1.073,2.348c-1.532.906-2.192,1.757-1.8,4.145a.2.2,0,0,1,0,.033,18.549,18.549,0,0,0,1.526,6.621,15.487,15.487,0,0,0,1.425,2.338c1.994,2.8,5.11,4.351,7.093,3.527a2.792,2.792,0,0,0,1.146-.776,9.587,9.587,0,0,0,.969-1.811c-.016-.781-.007-1.6.035-2.439.225-4.549-3.741-8.241-6.11-10.448-.27-.251-.517-.481-.732-.689A21.675,21.675,0,0,1,901.34,130.442Z" transform="translate(-897.779 -128.906)" fill="#2c1f9c"/>
      </g>
      <g id="Group_14344" data-name="Group 14344" transform="translate(34.315 27.525)">
        <path id="Path_75832" data-name="Path 75832" d="M934.186,180.389a.364.364,0,0,1-.32-.22c-.149-.352-3.645-8.7-2.851-14.057a.235.235,0,0,1,.326-.174.347.347,0,0,1,.247.357c-.772,5.209,2.772,13.667,2.808,13.751a.232.232,0,0,1-.149.336A.271.271,0,0,1,934.186,180.389Z" transform="translate(-930.898 -165.922)" fill="#2c1f9c"/>
      </g>
      <g id="Group_14345" data-name="Group 14345" transform="translate(22.061 10.057)">
        <path id="Path_75833" data-name="Path 75833" d="M916.75,143.5a.3.3,0,0,1-.068-.008.355.355,0,0,1-.277-.339c.3-6.736-3.233-12.169-6.88-14.054-3.894-2.013-5.141-.8-5.154-.791a.3.3,0,0,1-.4-.026.283.283,0,0,1-.056-.394c.058-.063,1.47-1.516,5.8.724,3.849,1.99,7.583,7.668,7.269,14.672A.222.222,0,0,1,916.75,143.5Z" transform="translate(-903.853 -127.369)" fill="#2c1f9c"/>
      </g>
      <g id="Group_14346" data-name="Group 14346" transform="translate(18.198 9.904)">
        <path id="Path_75834" data-name="Path 75834" d="M896.092,135.506h0a.361.361,0,0,1-.338-.282c-1.545-7.97,1.583-8.2,1.931-8.192a3.141,3.141,0,0,1,1.988.963.272.272,0,0,1,.019.393.3.3,0,0,1-.408-.059h0a2.462,2.462,0,0,0-1.488-.735h0c-.128,0-2.936.092-1.474,7.633A.225.225,0,0,1,896.092,135.506Z" transform="translate(-895.326 -127.031)" fill="#2c1f9c"/>
      </g>
      <g id="Group_14347" data-name="Group 14347" transform="translate(18.791 23.054)">
        <path id="Path_75835" data-name="Path 75835" d="M896.979,164.423a.339.339,0,0,1-.185-.058.31.31,0,0,1-.129-.395c1.383-2.381,1.073-7.617,1.069-7.67a.227.227,0,0,1,.271-.241.361.361,0,0,1,.306.317c.014.221.322,5.439-1.13,7.939A.227.227,0,0,1,896.979,164.423Z" transform="translate(-896.634 -156.056)" fill="#2c1f9c"/>
      </g>
      <g id="Group_14348" data-name="Group 14348" transform="translate(28.517 19.714)">
        <path id="Path_75836" data-name="Path 75836" d="M921.9,153.3a.362.362,0,0,1-.3-.187,16.372,16.372,0,0,0-3.368-3.956.261.261,0,1,1,.33-.391,16.831,16.831,0,0,1,3.535,4.159.24.24,0,0,1-.1.359A.262.262,0,0,1,921.9,153.3Z" transform="translate(-918.102 -148.684)" fill="#2c1f9c"/>
      </g>
      <g id="Group_14349" data-name="Group 14349" transform="translate(22.512 11.458)">
        <path id="Path_75837" data-name="Path 75837" d="M909.841,138.208a.338.338,0,0,1-.2-.069q-.375-.275-.792-.56a9.265,9.265,0,0,1-4-6.883.227.227,0,0,1,.278-.232.359.359,0,0,1,.3.322,8.743,8.743,0,0,0,3.69,6.353q.429.292.814.575a.3.3,0,0,1,.107.4A.228.228,0,0,1,909.841,138.208Z" transform="translate(-904.847 -130.46)" fill="#2c1f9c"/>
      </g>
      <g id="Group_14350" data-name="Group 14350" transform="translate(14.035 21.118)">
        <path id="Path_75838" data-name="Path 75838" d="M886.482,162.105a.3.3,0,0,1-.068-.008.355.355,0,0,1-.276-.339c.06-1.322,1.142-2.086,2.1-2.76a6.03,6.03,0,0,0,1.294-1.093c.862-1.118,1.231-5.868,1.234-5.916a.231.231,0,0,1,.309-.2.353.353,0,0,1,.268.345c-.015.2-.384,4.938-1.325,6.159a6.323,6.323,0,0,1-1.385,1.18c-.917.647-1.864,1.316-1.914,2.415A.222.222,0,0,1,886.482,162.105Z" transform="translate(-886.137 -151.781)" fill="#2c1f9c"/>
      </g>
      <g id="Group_14351" data-name="Group 14351" transform="translate(23.161 40.311)">
        <path id="Path_75839" data-name="Path 75839" d="M912.42,197.535a.324.324,0,0,1-.054,0,12.031,12.031,0,0,1-5.984-2.932.277.277,0,0,1-.033-.395.3.3,0,0,1,.407.045,11.526,11.526,0,0,0,5.606,2.729.357.357,0,0,1,.29.328A.222.222,0,0,1,912.42,197.535Z" transform="translate(-906.28 -194.143)" fill="#2c1f9c"/>
      </g>
    </g>
    <g id="Group_14353" data-name="Group 14353" transform="translate(968.778 180.09)">
      <path id="Path_75840" data-name="Path 75840" d="M1265.472,455.951,1177.29,405.04c-6.976-4.027-12.63-14.832-12.63-24.133V343c0-9.3,5.655-13.576,12.63-9.548l88.182,50.912c6.976,4.027,12.63,14.832,12.63,24.133v37.9C1278.1,455.7,1272.447,459.978,1265.472,455.951Z" transform="translate(-1153.785 -331.938)" fill="#4432db"/>
      <path id="Path_75841" data-name="Path 75841" d="M1151.089,341.462l10.257-7.3,105.74,123.148-11.238,7.918Z" transform="translate(-1146.364 -333.152)" fill="#4432db"/>
      <path id="Path_75842" data-name="Path 75842" d="M1241.471,472.834l-88.182-50.912c-6.976-4.027-12.63-14.832-12.63-24.133v-37.9c0-9.3,5.655-13.576,12.63-9.548l88.182,50.911c6.976,4.027,12.63,14.832,12.63,24.133v37.905C1254.1,472.587,1248.447,476.861,1241.471,472.834Z" transform="translate(-1140.659 -341.171)" fill="#6271f0"/>
    </g>
    <g id="Group_14371" data-name="Group 14371" transform="translate(969.003 207.131)">
      <g id="Group_14354" data-name="Group 14354">
        <ellipse id="Ellipse_715" data-name="Ellipse 715" cx="14.178" cy="23.059" rx="14.178" ry="23.059" transform="matrix(0.769, -0.639, 0.639, 0.769, 0, 18.117)" fill="#fff"/>
      </g>
      <g id="Group_14355" data-name="Group 14355" transform="translate(17.81 9.634)">
        <path id="Path_75843" data-name="Path 75843" d="M1181.331,420.481l-.573-.333s-.226-1.6-.231-1.659-1-6.93,5.043-5.378,9.533,7.007,9.533,7.007a8.986,8.986,0,0,1,.719,7.608l-.775-.546s.821-4.637-2.4-6.331l-2.294-.232a11.327,11.327,0,0,1-5.34-3.179C1182.26,414.725,1181.222,417.74,1181.331,420.481Z" transform="translate(-1180.464 -412.883)" fill="#2c1f9c"/>
      </g>
      <g id="Group_14356" data-name="Group 14356" transform="translate(18.569 16.986)">
        <path id="Path_75844" data-name="Path 75844" d="M1191.936,443.936c-2.115,0-4.727-1.567-6.5-4.052a16.126,16.126,0,0,1-1.49-2.451,16.889,16.889,0,0,1-1.568-5.937c0-.058-.055-.5-.1-.883-.1-.828-.14-1.187-.142-1.271a.228.228,0,0,1,.284-.227.359.359,0,0,1,.294.327c0,.083.081.738.138,1.216.064.538.1.845.105.918a16.265,16.265,0,0,0,1.51,5.716,15.451,15.451,0,0,0,1.425,2.339c1.993,2.8,5.11,4.35,7.093,3.527a2.8,2.8,0,0,0,1.146-.777,8.825,8.825,0,0,0,1.435-4.889c0-.05.029-.21.117-.734.049-.3.117-.7.123-.76a.232.232,0,0,1,.305-.2.351.351,0,0,1,.271.333c0,.055-.031.233-.129.817-.047.281-.106.631-.111.684a9.121,9.121,0,0,1-1.528,5.14,3.211,3.211,0,0,1-1.322.908A3.527,3.527,0,0,1,1191.936,443.936Z" transform="translate(-1182.139 -429.11)" fill="#2c1f9c"/>
      </g>
      <g id="Group_14357" data-name="Group 14357" transform="translate(31.702 24.003)">
        <path id="Path_75845" data-name="Path 75845" d="M1211.649,449.186a1.092,1.092,0,0,1-.257-.028.351.351,0,0,1-.265-.346.23.23,0,0,1,.31-.2c.033.007.94.189,1.418-1.452a1.829,1.829,0,0,0-.079-1.48,1.322,1.322,0,0,0-.638-.541.347.347,0,0,1-.238-.361.235.235,0,0,1,.327-.167,2.088,2.088,0,0,1,1.028.85,2.354,2.354,0,0,1,.159,1.946C1212.958,448.977,1212.085,449.186,1211.649,449.186Z" transform="translate(-1211.126 -444.599)" fill="#2c1f9c"/>
      </g>
      <g id="Group_14358" data-name="Group 14358" transform="translate(17.149 16.861)">
        <path id="Path_75846" data-name="Path 75846" d="M1181.359,434.421a.332.332,0,0,1-.187-.061,5.873,5.873,0,0,1-2.046-3.58c-.224-1.023-.139-1.631.261-1.858a1.187,1.187,0,0,1,1.115.157.312.312,0,0,1,.136.393.264.264,0,0,1-.384.058h0c-.086-.054-.366-.192-.51-.109-.073.042-.291.263-.054,1.346a5.316,5.316,0,0,0,1.748,3.153.307.307,0,0,1,.121.395A.227.227,0,0,1,1181.359,434.421Z" transform="translate(-1179.005 -428.835)" fill="#2c1f9c"/>
      </g>
      <g id="Group_14359" data-name="Group 14359" transform="translate(22.398 28.467)">
        <path id="Path_75847" data-name="Path 75847" d="M1196.067,463.531a4.588,4.588,0,0,1-1.926-.56c-3.913-1.918-3.543-4.688-3.539-4.715l.306-3.592a.241.241,0,0,1,.323-.2.366.366,0,0,1,.275.36l-.308,3.609c-.015.11-.289,2.356,3.125,4.03,1.018.5,1.749.617,2.174.351.581-.365.434-1.372.432-1.382l-.268-3.819a.235.235,0,0,1,.279-.252.374.374,0,0,1,.319.326l.265,3.794c.005.029.2,1.313-.635,1.84A1.509,1.509,0,0,1,1196.067,463.531Z" transform="translate(-1190.591 -454.45)" fill="#2c1f9c"/>
      </g>
      <g id="Group_14360" data-name="Group 14360" transform="translate(20.743 17.218)">
        <path id="Path_75848" data-name="Path 75848" d="M1189.386,431.351l-2.165-1.057a.557.557,0,0,1-.283-.46h0a.185.185,0,0,1,.286-.182l2.165,1.057a.556.556,0,0,1,.283.46h0A.185.185,0,0,1,1189.386,431.351Z" transform="translate(-1186.938 -429.623)" fill="#2c1f9c"/>
      </g>
      <g id="Group_14361" data-name="Group 14361" transform="translate(27.972 20.749)">
        <path id="Path_75849" data-name="Path 75849" d="M1205.342,439.144l-2.165-1.057a.556.556,0,0,1-.283-.46h0a.185.185,0,0,1,.286-.182l2.165,1.057a.557.557,0,0,1,.283.46h0A.185.185,0,0,1,1205.342,439.144Z" transform="translate(-1202.894 -437.415)" fill="#2c1f9c"/>
      </g>
      <g id="Group_14362" data-name="Group 14362" transform="translate(28.549 32.397)">
        <path id="Path_75850" data-name="Path 75850" d="M1214.3,476.676a.363.363,0,0,1-.336-.269,14.353,14.353,0,0,0-4.044-6.866c-3.012-2.935-5.64-5.951-5.667-5.981a.266.266,0,0,1,0-.39.311.311,0,0,1,.409.078c.026.03,2.635,3.023,5.624,5.936a15.053,15.053,0,0,1,4.238,7.2.226.226,0,0,1-.213.294Z" transform="translate(-1204.167 -463.124)" fill="#2c1f9c"/>
      </g>
      <g id="Group_14363" data-name="Group 14363" transform="translate(12.357 29.339)">
        <path id="Path_75851" data-name="Path 75851" d="M1168.774,460.411a.32.32,0,0,1-.134-.031.334.334,0,0,1-.2-.378,4.289,4.289,0,0,1,4.413-3.213h.178a46.566,46.566,0,0,0,5.815-.41.357.357,0,0,1,.368.239.229.229,0,0,1-.178.318,47.345,47.345,0,0,1-5.894.415h-.178a3.817,3.817,0,0,0-3.968,2.906A.223.223,0,0,1,1168.774,460.411Z" transform="translate(-1168.43 -456.376)" fill="#2c1f9c"/>
      </g>
      <g id="Group_14364" data-name="Group 14364" transform="translate(23.155 36.205)">
        <path id="Path_75852" data-name="Path 75852" d="M1197.39,474.439h0a6.139,6.139,0,0,1-2.517-.737,9.7,9.7,0,0,1-2.5-1.713.278.278,0,0,1-.041-.4.3.3,0,0,1,.406.037,8.961,8.961,0,0,0,2.312,1.578,5.522,5.522,0,0,0,2.236.668.362.362,0,0,1,.338.284A.224.224,0,0,1,1197.39,474.439Z" transform="translate(-1192.261 -471.529)" fill="#2c1f9c"/>
      </g>
      <g id="Group_14365" data-name="Group 14365" transform="translate(19.253 17.654)">
        <path id="Path_75853" data-name="Path 75853" d="M1188.83,436.042a1.093,1.093,0,0,1-.473-.119l-2.176-1.063a.331.331,0,0,1-.189-.382.25.25,0,0,1,.363-.112l2.177,1.063a.314.314,0,0,0,.273.032.208.208,0,0,0,.093-.2l.007-1.452a1,1,0,0,0-.532-.774L1184.6,431.2a.321.321,0,0,0-.273-.033.207.207,0,0,0-.093.2l-.008,1.452a1,1,0,0,0,.532.774l.476.232a.331.331,0,0,1,.189.382.25.25,0,0,1-.362.112l-.476-.232a1.7,1.7,0,0,1-.937-1.379l.007-1.452a.638.638,0,0,1,.33-.595.888.888,0,0,1,.787.048l3.77,1.841a1.694,1.694,0,0,1,.937,1.379l-.007,1.452a.639.639,0,0,1-.33.6A.689.689,0,0,1,1188.83,436.042Z" transform="translate(-1183.65 -430.585)" fill="#2c1f9c"/>
      </g>
      <g id="Group_14366" data-name="Group 14366" transform="translate(26.64 21.261)">
        <path id="Path_75854" data-name="Path 75854" d="M1205.133,444a1.088,1.088,0,0,1-.474-.119l-1.5-.735a.331.331,0,0,1-.189-.382.25.25,0,0,1,.362-.112l1.5.734a.316.316,0,0,0,.273.033.208.208,0,0,0,.093-.2l.007-1.452a1,1,0,0,0-.532-.774l-3.77-1.841a.316.316,0,0,0-.273-.032.207.207,0,0,0-.093.2l-.007,1.452a1,1,0,0,0,.532.774l1.212.592a.33.33,0,0,1,.189.381.25.25,0,0,1-.362.112l-1.212-.592a1.693,1.693,0,0,1-.937-1.379l.007-1.452a.639.639,0,0,1,.33-.6.89.89,0,0,1,.787.048l3.77,1.841a1.694,1.694,0,0,1,.937,1.379l-.007,1.452a.638.638,0,0,1-.33.6A.689.689,0,0,1,1205.133,444Z" transform="translate(-1199.953 -438.547)" fill="#2c1f9c"/>
      </g>
      <g id="Group_14367" data-name="Group 14367" transform="translate(27.406 17.086)">
        <path id="Path_75855" data-name="Path 75855" d="M1206.821,436.47a.315.315,0,0,1-.11-.02.344.344,0,0,1-.23-.366,7.146,7.146,0,0,0-.43-3.613,3.8,3.8,0,0,0-3.024-2.5,5.316,5.316,0,0,1-1.092-.087.357.357,0,0,1-.291-.328.227.227,0,0,1,.287-.224,4.642,4.642,0,0,0,.968.077c1.378-.03,3.067,1.314,3.691,2.958a7.57,7.57,0,0,1,.459,3.923A.222.222,0,0,1,1206.821,436.47Z" transform="translate(-1201.645 -429.331)" fill="#2c1f9c"/>
      </g>
      <g id="Group_14368" data-name="Group 14368" transform="translate(18.5 13.072)">
        <path id="Path_75856" data-name="Path 75856" d="M1182.4,424.948h-.01a.361.361,0,0,1-.331-.29,5.768,5.768,0,0,1,.526-3.511,1.5,1.5,0,0,1,1.325-.675h.026a3.659,3.659,0,0,1,2.424,1.2,11.126,11.126,0,0,0,2.994,2.195c.2.1.4.185.588.261a.341.341,0,0,1,.221.37.241.241,0,0,1-.344.146c-.208-.082-.422-.178-.638-.283a11.873,11.873,0,0,1-3.2-2.341,3.007,3.007,0,0,0-1.942-.987,1.057,1.057,0,0,0-.948.471,5.342,5.342,0,0,0-.464,3.171A.224.224,0,0,1,1182.4,424.948Z" transform="translate(-1181.988 -420.472)" fill="#2c1f9c"/>
      </g>
      <g id="Group_14369" data-name="Group 14369" transform="translate(17.524 9.367)">
        <path id="Path_75857" data-name="Path 75857" d="M1195.649,427.817a.324.324,0,0,1-.12-.024.34.34,0,0,1-.218-.371,9.676,9.676,0,0,0-1.218-8.2,16.333,16.333,0,0,0-9.145-6.219c-1.133-.228-2.677-.3-3.593.632-1.656,1.69-.621,6.38-.61,6.427a.225.225,0,0,1-.219.289.36.36,0,0,1-.345-.273c-.046-.2-1.106-5.006.719-6.87.842-.859,2.245-1.12,4.056-.754a16.887,16.887,0,0,1,9.6,6.527,10.232,10.232,0,0,1,1.318,8.669A.223.223,0,0,1,1195.649,427.817Z" transform="translate(-1179.834 -412.294)" fill="#2c1f9c"/>
      </g>
      <g id="Group_14370" data-name="Group 14370" transform="translate(24.577 20.61)">
        <path id="Path_75858" data-name="Path 75858" d="M1197.815,438.73a.356.356,0,0,1-.268-.134c-.949-1.156-1.68-.906-1.711-.894a.345.345,0,0,1-.395-.17.24.24,0,0,1,.094-.357c.047-.019,1.15-.438,2.436,1.127a.261.261,0,0,1-.016.387A.241.241,0,0,1,1197.815,438.73Z" transform="translate(-1195.4 -437.109)" fill="#2c1f9c"/>
      </g>
    </g>
    <g id="Group_14372" data-name="Group 14372" transform="translate(828.914 172.778)">
      <path id="Path_75859" data-name="Path 75859" d="M956.774,439.811,868.591,388.9c-6.976-4.027-12.63-14.832-12.63-24.133v-37.9c0-9.3,5.655-13.576,12.63-9.548l88.182,50.912c6.976,4.027,12.63,14.832,12.63,24.132v37.905C969.4,439.564,963.749,443.839,956.774,439.811Z" transform="translate(-845.087 -315.798)" fill="#1a3a81"/>
      <path id="Path_75860" data-name="Path 75860" d="M842.391,325.322l10.257-7.3,105.74,123.148-11.238,7.918Z" transform="translate(-837.666 -317.012)" fill="#1a3a81"/>
      <path id="Path_75861" data-name="Path 75861" d="M932.774,456.694l-88.182-50.912c-6.976-4.027-12.63-14.832-12.63-24.133v-37.9c0-9.3,5.655-13.576,12.63-9.549l88.182,50.912c6.976,4.027,12.63,14.832,12.63,24.133v37.905C945.4,456.446,939.749,460.721,932.774,456.694Z" transform="translate(-831.961 -325.031)" fill="#224ba7"/>
    </g>
    <g id="Group_14389" data-name="Group 14389" transform="translate(826.39 197.377)">
      <g id="Group_14373" data-name="Group 14373">
        <ellipse id="Ellipse_716" data-name="Ellipse 716" cx="14.292" cy="23.244" rx="14.292" ry="23.244" transform="matrix(0.769, -0.639, 0.639, 0.769, 0, 18.262)" fill="#fff"/>
      </g>
      <g id="Group_14374" data-name="Group 14374" transform="translate(12.55 30.336)">
        <path id="Path_75862" data-name="Path 75862" d="M860.582,437.265s-5.126-.462-6.493,2.513c7.395,11.7,21.306,16.653,26.1,12.9a10.837,10.837,0,0,0-.984-2.459,31.225,31.225,0,0,0-4.572-5.823l-3.225-3.326c.825,4.233-.37,5.842-4.207,4.015-3.269-1.611-4.606-4.326-4.2-8.038Z" transform="translate(-854.089 -437.048)" fill="#ffce43"/>
      </g>
      <g id="Group_14375" data-name="Group 14375" transform="translate(18.448 16.431)">
        <path id="Path_75863" data-name="Path 75863" d="M876.979,422.207c-2.132,0-4.766-1.58-6.548-4.085a16.326,16.326,0,0,1-1.5-2.47,17.03,17.03,0,0,1-1.579-5.984c0-.057-.038-.478-.079-.99-.094-1.162-.161-1.992-.163-2.087a.23.23,0,0,1,.286-.229.361.361,0,0,1,.3.329c0,.1.1,1.274.161,2.053.042.518.077.944.08,1a16.4,16.4,0,0,0,1.523,5.762,15.594,15.594,0,0,0,1.436,2.357c2.009,2.824,5.15,4.385,7.15,3.556a2.817,2.817,0,0,0,1.155-.782,8.9,8.9,0,0,0,1.446-4.929c0-.04.038-.479.077-.969.049-.616.106-1.312.108-1.374a.232.232,0,0,1,.3-.209.357.357,0,0,1,.279.34c0,.053-.044.587-.109,1.394-.039.482-.073.915-.076.956a9.2,9.2,0,0,1-1.54,5.186,3.231,3.231,0,0,1-1.332.915A3.558,3.558,0,0,1,876.979,422.207Z" transform="translate(-867.107 -406.357)" fill="#2c1f9c"/>
      </g>
      <g id="Group_14376" data-name="Group 14376" transform="translate(31.682 24.409)">
        <path id="Path_75864" data-name="Path 75864" d="M896.844,428.59a1.074,1.074,0,0,1-.259-.028.355.355,0,0,1-.268-.349.234.234,0,0,1,.313-.2c.034.006.947.192,1.43-1.464a1.839,1.839,0,0,0-.079-1.491,1.339,1.339,0,0,0-.644-.546.35.35,0,0,1-.24-.364.237.237,0,0,1,.33-.169,2.111,2.111,0,0,1,1.036.857,2.375,2.375,0,0,1,.161,1.961C898.163,428.379,897.282,428.59,896.844,428.59Z" transform="translate(-896.316 -423.966)" fill="#2c1f9c"/>
      </g>
      <g id="Group_14377" data-name="Group 14377" transform="translate(17.012 17.21)">
        <path id="Path_75865" data-name="Path 75865" d="M866.312,413.708a.339.339,0,0,1-.189-.061,5.92,5.92,0,0,1-2.062-3.609c-.226-1.031-.14-1.644.263-1.873a1.2,1.2,0,0,1,1.125.158.315.315,0,0,1,.137.4.267.267,0,0,1-.387.059h0c-.087-.055-.368-.194-.514-.11-.073.042-.294.266-.055,1.357a5.362,5.362,0,0,0,1.762,3.178.31.31,0,0,1,.122.4A.231.231,0,0,1,866.312,413.708Z" transform="translate(-863.938 -408.077)" fill="#2c1f9c"/>
      </g>
      <g id="Group_14378" data-name="Group 14378" transform="translate(22.304 28.908)">
        <path id="Path_75866" data-name="Path 75866" d="M881.137,443.05a4.621,4.621,0,0,1-1.941-.565c-3.944-1.934-3.572-4.725-3.568-4.753l.309-3.621a.242.242,0,0,1,.325-.2.368.368,0,0,1,.277.362l-.31,3.637c-.015.111-.291,2.375,3.15,4.062,1.027.5,1.764.623,2.192.354.586-.368.437-1.384.436-1.394l-.27-3.849a.238.238,0,0,1,.281-.255.377.377,0,0,1,.322.329l.266,3.824c.006.029.2,1.323-.64,1.855A1.522,1.522,0,0,1,881.137,443.05Z" transform="translate(-875.617 -433.897)" fill="#2c1f9c"/>
      </g>
      <g id="Group_14379" data-name="Group 14379" transform="translate(28.504 32.869)">
        <path id="Path_75867" data-name="Path 75867" d="M899.437,456.007a.366.366,0,0,1-.337-.264,14.454,14.454,0,0,0-4-6.634c-3.036-2.959-5.686-6-5.712-6.029a.268.268,0,0,1,0-.393.314.314,0,0,1,.412.079c.026.03,2.656,3.047,5.669,5.983a15.366,15.366,0,0,1,4.195,6.954.228.228,0,0,1-.206.3Z" transform="translate(-889.301 -442.64)" fill="#2c1f9c"/>
      </g>
      <g id="Group_14380" data-name="Group 14380" transform="translate(12.309 29.788)">
        <path id="Path_75868" data-name="Path 75868" d="M853.9,439.544a.335.335,0,0,1-.151-.039.33.33,0,0,1-.18-.387,4.29,4.29,0,0,1,4.318-2.864h.179a46.861,46.861,0,0,0,5.861-.414.36.36,0,0,1,.371.241.23.23,0,0,1-.179.32,47.709,47.709,0,0,1-5.941.419H858a3.814,3.814,0,0,0-3.879,2.582A.226.226,0,0,1,853.9,439.544Z" transform="translate(-853.557 -435.838)" fill="#2c1f9c"/>
      </g>
      <g id="Group_14381" data-name="Group 14381" transform="translate(21.156 30.055)">
        <path id="Path_75869" data-name="Path 75869" d="M880.191,445.831a6.2,6.2,0,0,1-2.526-.748c-1.7-.831-5.512-3.31-4.373-8.475a.251.251,0,0,1,.356-.159.357.357,0,0,1,.236.384c-1,4.555,2.044,6.8,3.951,7.729.6.291,2.147,1.049,3.085.464.8-.5,1.044-1.864.721-4.052a.233.233,0,0,1,.255-.279.378.378,0,0,1,.342.309c.355,2.4.043,3.929-.927,4.535A2.086,2.086,0,0,1,880.191,445.831Z" transform="translate(-873.083 -436.427)" fill="#2c1f9c"/>
      </g>
      <g id="Group_14382" data-name="Group 14382" transform="translate(23.059 38.208)">
        <path id="Path_75870" data-name="Path 75870" d="M882.454,457.356h0a6.193,6.193,0,0,1-2.537-.743,9.812,9.812,0,0,1-2.523-1.726.282.282,0,0,1-.042-.4.3.3,0,0,1,.41.037,9.045,9.045,0,0,0,2.33,1.59,5.576,5.576,0,0,0,2.255.674.364.364,0,0,1,.34.285A.226.226,0,0,1,882.454,457.356Z" transform="translate(-877.285 -454.423)" fill="#2c1f9c"/>
      </g>
      <g id="Group_14383" data-name="Group 14383" transform="translate(26.576 18.781)">
        <path id="Path_75871" data-name="Path 75871" d="M892.367,417.684h0a.365.365,0,0,1-.324-.233s-.555-1.158-4.6-3.62A12.387,12.387,0,0,1,885.15,412a.279.279,0,0,1-.034-.4.3.3,0,0,1,.411.045,11.616,11.616,0,0,0,2.149,1.714,21.428,21.428,0,0,1,4.325,3.2,39.654,39.654,0,0,0-.369-4.023.226.226,0,0,1,.248-.267.365.365,0,0,1,.329.3,37.183,37.183,0,0,1,.392,4.877A.223.223,0,0,1,892.367,417.684Z" transform="translate(-885.047 -411.545)" fill="#2c1f9c"/>
      </g>
      <g id="Group_14384" data-name="Group 14384" transform="translate(22.142 8.926)">
        <path id="Path_75872" data-name="Path 75872" d="M886.307,398.97a.365.365,0,0,1-.333-.249,15.341,15.341,0,0,0-7.27-8.035,2.248,2.248,0,0,0-2.05-.117,2.361,2.361,0,0,0-.624,2.736,21.465,21.465,0,0,0,2.612,4.665.257.257,0,0,1-.039.384.326.326,0,0,1-.41-.114,21.742,21.742,0,0,1-2.7-4.828c-.005-.01-.86-2.131.759-3.319a2.65,2.65,0,0,1,2.6.08,16.2,16.2,0,0,1,7.683,8.48.229.229,0,0,1-.187.315A.217.217,0,0,1,886.307,398.97Z" transform="translate(-875.26 -389.793)" fill="#2c1f9c"/>
      </g>
      <g id="Group_14385" data-name="Group 14385" transform="translate(16.907 8.27)">
        <path id="Path_75873" data-name="Path 75873" d="M864.38,396.771c-.213,0-.341-.01-.349-.01a.366.366,0,0,1-.257-.148.294.294,0,0,1-.053-.27,8.686,8.686,0,0,0,.482-2.581v-.038c-.064-1.46.035-4.054,1.416-5.016a2.4,2.4,0,0,1,2.148-.212,7.785,7.785,0,0,1,1.878.934l.277.171a.319.319,0,0,1,.149.395.264.264,0,0,1-.384.07l-.282-.174a7.1,7.1,0,0,0-1.7-.857,1.864,1.864,0,0,0-1.684.155c-1.254.874-1.278,3.522-1.23,4.62l0,.039a8.062,8.062,0,0,1-.379,2.36c1.221-.008,4.543-.341,4.747-3.709a.233.233,0,0,1,.308-.2.356.356,0,0,1,.274.345C869.5,396.474,865.585,396.771,864.38,396.771Z" transform="translate(-863.707 -388.345)" fill="#2c1f9c"/>
      </g>
      <g id="Group_14386" data-name="Group 14386" transform="translate(32.995 24.354)">
        <path id="Path_75874" data-name="Path 75874" d="M899.561,424.884a.357.357,0,0,1-.253-.115.274.274,0,0,1-.018-.4l.554-.473a.308.308,0,0,1,.411.06.274.274,0,0,1,.018.4l-.554.473A.24.24,0,0,1,899.561,424.884Z" transform="translate(-899.213 -423.844)" fill="#2c1f9c"/>
      </g>
      <g id="Group_14387" data-name="Group 14387" transform="translate(19.454 10.674)">
        <path id="Path_75875" data-name="Path 75875" d="M869.674,396.809a.335.335,0,0,1-.166-.047.322.322,0,0,1-.159-.393c1.208-2.6,2.782-2.713,2.849-2.717a.372.372,0,0,1,.353.269.227.227,0,0,1-.209.3c-.027,0-1.376.14-2.454,2.462A.227.227,0,0,1,869.674,396.809Z" transform="translate(-869.327 -393.652)" fill="#2c1f9c"/>
      </g>
      <g id="Group_14388" data-name="Group 14388" transform="translate(30.408 18.387)">
        <path id="Path_75876" data-name="Path 75876" d="M896.989,416.963a.366.366,0,0,1-.338-.265,18.165,18.165,0,0,0-3.078-5.6.258.258,0,0,1,.032-.386.323.323,0,0,1,.411.108,18.465,18.465,0,0,1,3.2,5.842.228.228,0,0,1-.207.3Z" transform="translate(-893.504 -410.674)" fill="#2c1f9c"/>
      </g>
    </g>
    <g id="Group_14390" data-name="Group 14390" transform="translate(876.466 219.961)">
      <path id="Path_75877" data-name="Path 75877" d="M942.392,420.988l.842,2.443a1.858,1.858,0,0,0,.609.86l1.882,1.4c.664.494.929,1.583.449,1.843l-1.362.737a.639.639,0,0,0-.232.687l.321,2.336c.113.824-.58,1-1.174.3l-1.684-1.987a1.057,1.057,0,0,0-.753-.435l-1.684.043c-.594.016-1.287-.963-1.174-1.656l.322-1.965a1.516,1.516,0,0,0-.233-.956l-1.362-2.31c-.48-.814-.215-1.6.448-1.325l1.882.773a.449.449,0,0,0,.609-.156l.842-1.471C941.238,419.631,942.1,420.126,942.392,420.988Z" transform="translate(-936.914 -419.938)" fill="#ffce43"/>
      <path id="Path_75878" data-name="Path 75878" d="M966.757,435.675l.842,2.443a1.856,1.856,0,0,0,.609.859l1.882,1.4c.664.494.928,1.583.448,1.843l-1.361.737a.641.641,0,0,0-.233.687l.321,2.337c.114.824-.58,1-1.174.3l-1.684-1.988a1.056,1.056,0,0,0-.753-.435l-1.683.044c-.594.015-1.288-.964-1.174-1.657l.322-1.965a1.517,1.517,0,0,0-.233-.956l-1.362-2.31c-.48-.814-.215-1.6.449-1.325l1.882.773a.449.449,0,0,0,.609-.156l.842-1.471C965.6,434.319,966.46,434.813,966.757,435.675Z" transform="translate(-950.24 -427.971)" fill="#ffce43"/>
      <path id="Path_75879" data-name="Path 75879" d="M991.121,450.362l.841,2.443a1.856,1.856,0,0,0,.609.859l1.882,1.4c.664.494.929,1.583.449,1.843l-1.362.737a.641.641,0,0,0-.233.688l.322,2.337c.113.824-.581,1-1.174.3l-1.683-1.988a1.055,1.055,0,0,0-.753-.435l-1.684.043c-.594.015-1.288-.964-1.174-1.657l.321-1.965a1.514,1.514,0,0,0-.232-.956l-1.362-2.309c-.48-.815-.215-1.6.449-1.325l1.882.773a.45.45,0,0,0,.609-.156l.841-1.471C989.967,449.006,990.824,449.5,991.121,450.362Z" transform="translate(-963.565 -436.004)" fill="#ffce43"/>
      <path id="Path_75880" data-name="Path 75880" d="M1015.485,465.049l.842,2.443a1.859,1.859,0,0,0,.609.86l1.882,1.4c.664.494.929,1.583.448,1.843l-1.362.737a.64.64,0,0,0-.232.688l.321,2.337c.113.824-.58,1-1.174.3l-1.684-1.988a1.055,1.055,0,0,0-.753-.435l-1.684.043c-.594.015-1.287-.964-1.174-1.657l.322-1.965a1.517,1.517,0,0,0-.233-.956l-1.362-2.309c-.48-.815-.215-1.6.449-1.325l1.882.772a.45.45,0,0,0,.609-.156l.842-1.471C1014.331,463.693,1015.188,464.188,1015.485,465.049Z" transform="translate(-976.89 -444.037)" fill="#ffce43"/>
      <path id="Path_75881" data-name="Path 75881" d="M1039.85,479.736l.842,2.443a1.857,1.857,0,0,0,.609.86l1.882,1.4c.664.494.928,1.583.448,1.843l-1.361.737a.64.64,0,0,0-.233.687l.321,2.337c.114.824-.58,1-1.174.3l-1.684-1.987a1.053,1.053,0,0,0-.753-.435l-1.683.043c-.594.015-1.288-.964-1.174-1.656l.322-1.965a1.517,1.517,0,0,0-.233-.956l-1.362-2.309c-.48-.815-.215-1.6.448-1.325l1.882.773a.45.45,0,0,0,.609-.156l.842-1.471C1038.7,478.38,1039.553,478.875,1039.85,479.736Z" transform="translate(-990.216 -452.069)" fill="#ffce43"/>
    </g>
    <path id="Path_75893" data-name="Path 75893" d="M1261.258,435.786l.842,2.443a1.859,1.859,0,0,0,.609.86l1.882,1.4c.664.494.929,1.583.449,1.843l-1.362.737a.64.64,0,0,0-.233.687l.321,2.337c.114.824-.58,1-1.174.3l-1.683-1.987a1.057,1.057,0,0,0-.753-.435l-1.683.044c-.594.015-1.288-.964-1.174-1.656l.322-1.965a1.519,1.519,0,0,0-.233-.956l-1.361-2.309c-.48-.815-.215-1.6.449-1.325l1.882.773a.45.45,0,0,0,.609-.156l.842-1.471C1260.1,434.429,1260.961,434.924,1261.258,435.786Z" transform="translate(-234.843 -208.07)" fill="#ffce43"/>
    <path id="Path_75894" data-name="Path 75894" d="M1285.622,450.473l.841,2.443a1.857,1.857,0,0,0,.609.859l1.882,1.4c.664.494.929,1.583.449,1.843l-1.362.737a.641.641,0,0,0-.233.687l.322,2.337c.113.824-.581,1-1.174.3l-1.683-1.987a1.057,1.057,0,0,0-.753-.435l-1.684.044c-.594.015-1.287-.964-1.174-1.657l.321-1.965a1.513,1.513,0,0,0-.232-.956l-1.362-2.31c-.48-.814-.215-1.6.449-1.325l1.882.773a.449.449,0,0,0,.609-.156l.841-1.471C1284.468,449.116,1285.325,449.611,1285.622,450.473Z" transform="translate(-248.168 -216.103)" fill="#ffce43"/>
    <path id="Path_75895" data-name="Path 75895" d="M1309.986,465.16l.842,2.443a1.858,1.858,0,0,0,.609.859l1.882,1.4c.664.494.929,1.583.448,1.843l-1.362.737a.64.64,0,0,0-.232.687l.321,2.337c.113.824-.58,1-1.174.3l-1.684-1.988a1.057,1.057,0,0,0-.753-.435l-1.683.044c-.594.015-1.288-.964-1.174-1.657l.322-1.965a1.518,1.518,0,0,0-.233-.956l-1.362-2.31c-.48-.814-.215-1.6.448-1.325l1.882.773a.449.449,0,0,0,.609-.156l.842-1.471C1308.832,463.8,1309.689,464.3,1309.986,465.16Z" transform="translate(-261.493 -224.136)" fill="#ffce43"/>
    <path id="Path_75896" data-name="Path 75896" d="M1334.351,479.847l.842,2.443a1.854,1.854,0,0,0,.609.859l1.882,1.4c.664.494.929,1.583.448,1.843l-1.361.737a.641.641,0,0,0-.233.688l.321,2.336c.114.824-.58,1-1.174.3L1334,488.468a1.055,1.055,0,0,0-.753-.435l-1.683.043c-.594.015-1.288-.964-1.174-1.657l.322-1.965a1.518,1.518,0,0,0-.233-.956l-1.362-2.309c-.48-.815-.215-1.6.449-1.325l1.882.773a.449.449,0,0,0,.609-.156l.842-1.471C1333.2,478.491,1334.054,478.986,1334.351,479.847Z" transform="translate(-274.819 -232.169)" fill="#ffce43"/>
    <path id="Path_75897" data-name="Path 75897" d="M1358.715,494.534l.841,2.443a1.858,1.858,0,0,0,.609.86l1.882,1.4c.664.494.929,1.583.448,1.843l-1.362.737a.641.641,0,0,0-.233.688l.322,2.337c.113.824-.58,1-1.174.3l-1.683-1.988a1.054,1.054,0,0,0-.753-.435l-1.684.044c-.594.015-1.288-.964-1.174-1.657l.321-1.965a1.515,1.515,0,0,0-.232-.956l-1.362-2.309c-.48-.815-.215-1.6.448-1.325l1.882.772a.45.45,0,0,0,.609-.156l.841-1.471C1357.561,493.178,1358.418,493.673,1358.715,494.534Z" transform="translate(-288.144 -240.201)" fill="#4432db"/>
    <g id="Group_14391" data-name="Group 14391" transform="translate(887.505 101.115)">
      <path id="Path_75898" data-name="Path 75898" d="M966.757,158.68l.842,2.443a1.857,1.857,0,0,0,.609.86l1.882,1.4c.664.494.928,1.583.448,1.843l-1.361.737a.64.64,0,0,0-.233.687l.321,2.337c.114.824-.58,1-1.174.3l-1.684-1.987a1.056,1.056,0,0,0-.753-.435l-1.683.043c-.594.015-1.288-.963-1.174-1.656l.322-1.965a1.516,1.516,0,0,0-.233-.956l-1.362-2.31c-.48-.814-.215-1.6.449-1.325l1.882.773a.45.45,0,0,0,.609-.156l.842-1.471C965.6,157.323,966.46,157.818,966.757,158.68Z" transform="translate(-961.279 -157.63)" fill="#ffce43"/>
      <path id="Path_75899" data-name="Path 75899" d="M991.121,173.367l.841,2.443a1.856,1.856,0,0,0,.609.859l1.882,1.4c.664.494.929,1.583.449,1.843l-1.362.737a.641.641,0,0,0-.233.687l.322,2.337c.113.824-.581,1-1.174.3l-1.683-1.988a1.057,1.057,0,0,0-.753-.435l-1.684.044c-.594.015-1.288-.964-1.174-1.657l.321-1.965a1.513,1.513,0,0,0-.232-.956l-1.362-2.31c-.48-.814-.215-1.6.449-1.325l1.882.773a.45.45,0,0,0,.609-.156l.841-1.471C989.967,172.011,990.824,172.505,991.121,173.367Z" transform="translate(-974.604 -165.663)" fill="#ffce43"/>
      <path id="Path_75900" data-name="Path 75900" d="M1015.485,188.054l.842,2.443a1.858,1.858,0,0,0,.609.859l1.882,1.4c.664.494.929,1.583.448,1.843l-1.362.737a.64.64,0,0,0-.232.688l.321,2.336c.113.824-.58,1-1.174.3l-1.684-1.988a1.055,1.055,0,0,0-.753-.435l-1.684.044c-.594.015-1.287-.964-1.174-1.657l.322-1.965a1.517,1.517,0,0,0-.233-.956l-1.362-2.309c-.48-.815-.215-1.6.449-1.325l1.882.773a.449.449,0,0,0,.609-.156l.842-1.471C1014.331,186.7,1015.188,187.193,1015.485,188.054Z" transform="translate(-987.929 -173.696)" fill="#ffce43"/>
      <path id="Path_75901" data-name="Path 75901" d="M1039.85,202.741l.842,2.443a1.853,1.853,0,0,0,.609.859l1.882,1.4c.664.494.928,1.583.448,1.843l-1.361.737a.64.64,0,0,0-.233.688l.321,2.337c.114.824-.58,1-1.174.3l-1.684-1.988a1.054,1.054,0,0,0-.753-.435l-1.683.044c-.594.015-1.288-.964-1.174-1.657l.322-1.965a1.517,1.517,0,0,0-.233-.956l-1.362-2.309c-.48-.815-.215-1.6.448-1.325l1.882.773a.449.449,0,0,0,.609-.156l.842-1.471C1038.7,201.385,1039.553,201.88,1039.85,202.741Z" transform="translate(-1001.255 -181.729)" fill="#ffce43"/>
      <path id="Path_75902" data-name="Path 75902" d="M1064.214,217.428l.841,2.443a1.858,1.858,0,0,0,.609.86l1.882,1.4c.664.494.929,1.583.448,1.843l-1.362.737a.641.641,0,0,0-.233.688l.322,2.337c.113.824-.581,1-1.174.3l-1.683-1.987a1.054,1.054,0,0,0-.753-.435l-1.684.044c-.594.015-1.288-.964-1.174-1.656l.321-1.965a1.514,1.514,0,0,0-.232-.956l-1.362-2.309c-.48-.815-.215-1.6.448-1.325l1.882.772a.45.45,0,0,0,.609-.156l.841-1.471C1063.06,216.072,1063.917,216.567,1064.214,217.428Z" transform="translate(-1014.58 -189.761)" fill="#e655be"/>
    </g>
    <path id="Path_75903" data-name="Path 75903" d="M1343.42,484.686l-1.882-1.4a1.852,1.852,0,0,1-.609-.859l-.842-2.443a1.754,1.754,0,0,0-.726-.937v9.233a1.475,1.475,0,0,1,.377.324l1.683,1.988c.594.7,1.288.523,1.174-.3l-.322-2.336a.64.64,0,0,1,.233-.688l1.362-.737C1344.349,486.27,1344.084,485.18,1343.42,484.686Z" transform="translate(-280.555 -232.305)" fill="#4432db"/>
    <path id="Path_75906" data-name="Path 75906" d="M989.59,512.936,946.577,488.1a4.142,4.142,0,0,1-1.729-3.3h0c0-1.274.774-1.859,1.729-1.307l43.013,24.833a4.141,4.141,0,0,1,1.729,3.3h0C991.319,512.9,990.545,513.488,989.59,512.936Z" transform="translate(-64.787 -234.622)" fill="#fff"/>
    <path id="Path_75907" data-name="Path 75907" d="M964.879,479.386l-18.3-10.567a4.141,4.141,0,0,1-1.729-3.3h0c0-1.274.774-1.859,1.729-1.308l18.3,10.567a4.141,4.141,0,0,1,1.729,3.3h0C966.608,479.352,965.834,479.938,964.879,479.386Z" transform="translate(-64.787 -224.075)" fill="#fff"/>
    <path id="Path_75908" data-name="Path 75908" d="M1020.622,511.57l-16.87-9.74a4.141,4.141,0,0,1-1.73-3.3h0c0-1.274.774-1.859,1.73-1.308l16.87,9.74a4.143,4.143,0,0,1,1.729,3.3h0C1022.351,511.536,1021.577,512.121,1020.622,511.57Z" transform="translate(-96.057 -242.129)" fill="#fff"/>
    <path id="Path_75909" data-name="Path 75909" d="M1302.217,527.859,1259.2,503.025a4.141,4.141,0,0,1-1.729-3.3h0c0-1.274.774-1.859,1.729-1.308l43.012,24.833a4.142,4.142,0,0,1,1.729,3.3h0C1303.946,527.825,1303.172,528.41,1302.217,527.859Z" transform="translate(-235.77 -242.783)" fill="#fff"/>
    <path id="Path_75910" data-name="Path 75910" d="M1277.506,494.309l-18.3-10.567a4.142,4.142,0,0,1-1.729-3.3h0c0-1.273.774-1.859,1.729-1.307l18.3,10.566a4.143,4.143,0,0,1,1.729,3.3h0C1279.235,494.275,1278.461,494.86,1277.506,494.309Z" transform="translate(-235.77 -232.237)" fill="#fff"/>
    <path id="Path_75911" data-name="Path 75911" d="M1333.249,526.492l-16.87-9.74a4.141,4.141,0,0,1-1.73-3.3h0c0-1.274.774-1.859,1.73-1.308l16.87,9.74a4.141,4.141,0,0,1,1.729,3.3h0C1334.978,526.458,1334.2,527.043,1333.249,526.492Z" transform="translate(-267.04 -250.29)" fill="#fff"/>
    <path id="Path_75912" data-name="Path 75912" d="M1005.783,249.411l-43.012-24.833a4.141,4.141,0,0,1-1.73-3.3h0c0-1.274.774-1.859,1.73-1.308l43.012,24.833a4.142,4.142,0,0,1,1.729,3.3h0C1007.513,249.377,1006.738,249.962,1005.783,249.411Z" transform="translate(-73.644 -90.494)" fill="#fff"/>
    <path id="Path_75913" data-name="Path 75913" d="M981.072,215.86l-18.3-10.566a4.141,4.141,0,0,1-1.73-3.3h0c0-1.274.774-1.859,1.73-1.308l18.3,10.567a4.142,4.142,0,0,1,1.729,3.3h0C982.8,215.827,982.028,216.412,981.072,215.86Z" transform="translate(-73.644 -79.947)" fill="#fff"/>
    <path id="Path_75914" data-name="Path 75914" d="M1036.816,248.044l-16.87-9.74a4.143,4.143,0,0,1-1.729-3.3h0c0-1.274.774-1.859,1.729-1.308l16.87,9.74a4.141,4.141,0,0,1,1.729,3.3h0C1038.545,248.01,1037.771,248.6,1036.816,248.044Z" transform="translate(-104.914 -98.001)" fill="#fff"/>
  </g>
</svg>
