<svg xmlns="http://www.w3.org/2000/svg" xmlns:xlink="http://www.w3.org/1999/xlink" width="805" height="635.648" viewBox="0 0 805 635.648">
  <defs>
    <linearGradient id="linear-gradient" y1="0.5" x2="1" y2="0.5" gradientUnits="objectBoundingBox">
      <stop offset="0" stop-color="#25a9f2"/>
      <stop offset="1" stop-color="#3ecdf9"/>
    </linearGradient>
    <linearGradient id="linear-gradient-3" x1="-13.593" y1="0.378" x2="14.593" y2="0.622" xlink:href="#linear-gradient"/>
  </defs>
  <g id="img_holistic_approach" transform="translate(15606.25 -17100.727)">
    <path id="Path_88468" data-name="Path 88468" d="M1117.848,435.994a6.606,6.606,0,0,1-.26.807c38.413,26.33,59.385,59.209,59.51,94,.164,38.763-25.753,75.139-72.979,102.424-47.29,27.3-110.479,42.339-177.93,42.339s-131.152-15.048-179.353-42.374c-49-27.793-76.06-64.867-76.193-104.394-.12-28.115,13.475-54.962,38.943-77.995a6.452,6.452,0,0,1-.418-.717C683.444,473.3,669.707,500.4,669.828,528.8c.137,39.829,27.343,77.156,76.606,105.1,48.322,27.394,112.16,42.478,179.755,42.478s130.925-15.074,178.338-42.445c47.489-27.44,73.549-64.067,73.385-103.134C1177.786,495.669,1156.614,462.5,1117.848,435.994Z" transform="translate(-16107 17060)" fill="#ff975d"/>
    <g id="Group_17946" data-name="Group 17946" transform="translate(-16107 17060)" opacity="0.5">
      <g id="Group_17945" data-name="Group 17945" style="isolation: isolate">
        <g id="Group_17931" data-name="Group 17931">
          <path id="Path_88469" data-name="Path 88469" d="M797.479,216.832l24.534-14.256-8.815,6.085-24.532,14.257Z" fill="#d19475"/>
        </g>
        <g id="Group_17932" data-name="Group 17932">
          <path id="Path_88470" data-name="Path 88470" d="M769.2,152.6l24.532-14.258,12.981,9.088-24.533,14.258Z" fill="#e0ac92"/>
        </g>
        <g id="Group_17933" data-name="Group 17933">
          <path id="Path_88471" data-name="Path 88471" d="M827.044,229.546l24.536-14.258,3.959,16.633L831,246.178Z" fill="#e0ac92"/>
        </g>
        <g id="Group_17934" data-name="Group 17934">
          <path id="Path_88472" data-name="Path 88472" d="M801.24,178.4l24.533-14.256a5.248,5.248,0,0,0-.721.5c-3.875,3.206-3.194,11.618,1.527,18.785a21.7,21.7,0,0,0,6.976,6.9c2.871,1.654,5.722,2.021,7.86.778L816.88,205.375c-2.136,1.243-4.988.876-7.855-.78a21.724,21.724,0,0,1-6.982-6.9c-4.718-7.167-5.4-15.579-1.525-18.786A5.68,5.68,0,0,1,801.24,178.4Z" fill="#d19475"/>
        </g>
        <g id="Group_17935" data-name="Group 17935">
          <path id="Path_88473" data-name="Path 88473" d="M787.961,155.582l24.531-14.258a14.507,14.507,0,0,1,3.128-1.348l-24.531,14.258A14.4,14.4,0,0,0,787.961,155.582Z" fill="url(#linear-gradient)"/>
        </g>
        <g id="Group_17936" data-name="Group 17936">
          <path id="Path_88474" data-name="Path 88474" d="M854.717,213.932l-24.534,14.26a14.357,14.357,0,0,0,1.9-1.327,16.381,16.381,0,0,0,3.869-4.784l24.531-14.257a16.321,16.321,0,0,1-3.867,4.782A13.716,13.716,0,0,1,854.717,213.932Z" fill="#d19475"/>
        </g>
        <g id="Group_17937" data-name="Group 17937">
          <path id="Path_88475" data-name="Path 88475" d="M787.122,137.605l24.532-14.256,14.361,1.992L801.482,139.6Z" fill="#d19475"/>
        </g>
        <g id="Group_17938" data-name="Group 17938">
          <path id="Path_88476" data-name="Path 88476" d="M801.482,139.6l24.533-14.256,5.259,16.781L806.74,156.381Z" fill="#e0ac92"/>
        </g>
        <g id="Group_17939" data-name="Group 17939">
          <path id="Path_88477" data-name="Path 88477" d="M806.74,156.381l24.534-14.258q1.214.587,2.433,1.292a51.33,51.33,0,0,1,11.472,9.264l-24.535,14.258a51.3,51.3,0,0,0-11.47-9.265Q807.953,156.969,806.74,156.381Z" fill="#d19475"/>
        </g>
        <g id="Group_17940" data-name="Group 17940">
          <path id="Path_88478" data-name="Path 88478" d="M833.615,186.558,858.15,172.3a60.042,60.042,0,0,1,5,18.035l-24.536,14.257A59.868,59.868,0,0,0,833.615,186.558Z" fill="#d19475"/>
        </g>
        <g id="Group_17941" data-name="Group 17941">
          <path id="Path_88479" data-name="Path 88479" d="M851.407,215.145l24.535-14.258-2.488,16.024-24.533,14.258Z" fill="#d19475"/>
        </g>
        <g id="Group_17942" data-name="Group 17942">
          <path id="Path_88480" data-name="Path 88480" d="M838.614,204.593l24.536-14.257,12.792,10.551-24.535,14.258Z" fill="#e0ac92"/>
        </g>
        <path id="Path_88481" data-name="Path 88481" d="M838.614,204.593a59.868,59.868,0,0,0-5-18.035l7.732-7.676-11.88-18.012-8.823,6.067a51.3,51.3,0,0,0-11.47-9.265q-1.221-.7-2.434-1.291L801.482,139.6l-14.36-1.993,3.967,16.629a14.155,14.155,0,0,0-5.04,2.683,15.98,15.98,0,0,0-3.868,4.776L769.2,152.6l-2.49,16.023,12.8,10.562a59.9,59.9,0,0,0,4.994,18.027l-7.724,7.672,11.886,18.03,8.812-6.086A51.261,51.261,0,0,0,808.95,226.1c.811.469,1.626.9,2.434,1.291l5.25,16.779,14.371,2-3.961-16.632a14.323,14.323,0,0,0,5.04-2.681,16.381,16.381,0,0,0,3.869-4.784l12.968,9.088,2.486-16.024Zm-21.007.274c-2.193,1.819-5.379,1.577-8.582-.272a21.724,21.724,0,0,1-6.982-6.9c-4.718-7.167-5.4-15.579-1.525-18.786,2.2-1.815,5.381-1.576,8.591.275a21.7,21.7,0,0,1,6.981,6.9C820.806,193.253,821.488,201.664,817.607,204.867Z" fill="#ff975d"/>
        <g id="Group_17943" data-name="Group 17943">
          <path id="Path_88482" data-name="Path 88482" d="M829.467,160.87,854,146.612l11.881,18.013-24.533,14.257Z" fill="#d19475"/>
        </g>
        <g id="Group_17944" data-name="Group 17944">
          <path id="Path_88483" data-name="Path 88483" d="M841.347,178.882l24.533-14.257-7.73,7.675-24.535,14.258Z" fill="#e0ac92"/>
        </g>
      </g>
    </g>
    <path id="Path_88484" data-name="Path 88484" d="M896.4,238.729l-87.433-50.811a.383.383,0,0,0-.088-.024V88.072a.423.423,0,1,0-.846,0V188.21l-87.5,50.519a.421.421,0,0,0-.2.429.417.417,0,0,0,.387.573.424.424,0,0,0,.214-.057L808.664,189.1a.432.432,0,0,0,.186-.274l87.123,50.63a.422.422,0,1,0,.423-.73Z" transform="translate(-16107 17060)" fill="#ff975d"/>
    <g id="Group_17962" data-name="Group 17962" transform="translate(-16107 17060)">
      <g id="Group_17961" data-name="Group 17961" style="isolation: isolate">
        <g id="Group_17947" data-name="Group 17947">
          <path id="Path_88485" data-name="Path 88485" d="M780.538,223.891l24.534-14.256-8.815,6.085-24.532,14.257Z" fill="#d19475"/>
        </g>
        <g id="Group_17948" data-name="Group 17948">
          <path id="Path_88486" data-name="Path 88486" d="M752.26,159.663l24.532-14.258,12.981,9.088L765.24,168.752Z" fill="#e0ac92"/>
        </g>
        <g id="Group_17949" data-name="Group 17949">
          <path id="Path_88487" data-name="Path 88487" d="M810.1,236.6l24.536-14.258L838.6,238.98l-24.534,14.257Z" fill="#e0ac92"/>
        </g>
        <g id="Group_17950" data-name="Group 17950">
          <path id="Path_88488" data-name="Path 88488" d="M784.3,185.464l24.533-14.256a5.328,5.328,0,0,0-.721.5c-3.875,3.206-3.194,11.619,1.527,18.786a21.69,21.69,0,0,0,6.976,6.9c2.87,1.655,5.722,2.022,7.86.779l-24.535,14.259c-2.136,1.243-4.988.876-7.855-.78a21.734,21.734,0,0,1-6.982-6.9c-4.718-7.167-5.4-15.579-1.525-18.786A5.482,5.482,0,0,1,784.3,185.464Z" fill="#ffc29f"/>
        </g>
        <g id="Group_17951" data-name="Group 17951">
          <path id="Path_88489" data-name="Path 88489" d="M771.019,162.641l24.532-14.258a14.507,14.507,0,0,1,3.128-1.348l-24.532,14.258A14.438,14.438,0,0,0,771.019,162.641Z" fill="url(#linear-gradient)"/>
        </g>
        <g id="Group_17952" data-name="Group 17952">
          <path id="Path_88490" data-name="Path 88490" d="M837.775,220.991,813.242,235.25a14.238,14.238,0,0,0,1.9-1.327,16.363,16.363,0,0,0,3.869-4.783l24.531-14.258a16.33,16.33,0,0,1-3.867,4.783A13.9,13.9,0,0,1,837.775,220.991Z" fill="#ffc29f"/>
        </g>
        <g id="Group_17953" data-name="Group 17953">
          <path id="Path_88491" data-name="Path 88491" d="M770.181,144.664l24.532-14.256,14.361,1.992-24.533,14.256Z" fill="#fbd4bf"/>
        </g>
        <g id="Group_17954" data-name="Group 17954">
          <path id="Path_88492" data-name="Path 88492" d="M784.541,146.657,809.074,132.4l5.259,16.781L789.8,163.439Z" fill="#e0ac92"/>
        </g>
        <g id="Group_17955" data-name="Group 17955">
          <path id="Path_88493" data-name="Path 88493" d="M789.8,163.439l24.534-14.257q1.214.586,2.433,1.292a51.351,51.351,0,0,1,11.472,9.264L803.7,174a51.32,51.32,0,0,0-11.471-9.266Q791.013,164.028,789.8,163.439Z" fill="#ffc29f"/>
        </g>
        <g id="Group_17956" data-name="Group 17956">
          <path id="Path_88494" data-name="Path 88494" d="M816.674,193.617l24.535-14.258a60.044,60.044,0,0,1,5,18.036l-24.536,14.257A59.862,59.862,0,0,0,816.674,193.617Z" fill="#ffc29f"/>
        </g>
        <g id="Group_17957" data-name="Group 17957">
          <path id="Path_88495" data-name="Path 88495" d="M834.466,222.2,859,207.946l-2.488,16.024-24.533,14.258Z" fill="#fbd4bf"/>
        </g>
        <g id="Group_17958" data-name="Group 17958">
          <path id="Path_88496" data-name="Path 88496" d="M821.673,211.652l24.536-14.257L859,207.946,834.466,222.2Z" fill="#e0ac92"/>
        </g>
        <path id="Path_88497" data-name="Path 88497" d="M821.673,211.652a59.862,59.862,0,0,0-5-18.035l7.732-7.676-11.881-18.012L803.7,174a51.32,51.32,0,0,0-11.471-9.266q-1.219-.7-2.433-1.291l-5.258-16.782-14.36-1.993,3.966,16.629a14.173,14.173,0,0,0-5.04,2.683,15.994,15.994,0,0,0-3.867,4.776l-12.98-9.089-2.491,16.023,12.8,10.562a59.869,59.869,0,0,0,4.994,18.027l-7.724,7.672,11.886,18.03,8.812-6.086a51.261,51.261,0,0,0,11.471,9.273c.811.469,1.626.9,2.434,1.291l5.25,16.778,14.371,2L810.1,236.6a14.287,14.287,0,0,0,5.041-2.681,16.363,16.363,0,0,0,3.869-4.783l12.967,9.088,2.487-16.024Zm-21.007.274c-2.193,1.819-5.379,1.577-8.582-.272a21.734,21.734,0,0,1-6.982-6.9c-4.718-7.167-5.4-15.579-1.525-18.786,2.194-1.816,5.381-1.576,8.591.275a21.687,21.687,0,0,1,6.98,6.9C803.865,200.312,804.547,208.723,800.666,211.926Z" fill="#fff4ee"/>
        <g id="Group_17959" data-name="Group 17959">
          <path id="Path_88498" data-name="Path 88498" d="M812.525,167.929l24.533-14.258,11.881,18.013-24.533,14.257Z" fill="#fbd4bf"/>
        </g>
        <g id="Group_17960" data-name="Group 17960">
          <path id="Path_88499" data-name="Path 88499" d="M824.406,185.941l24.533-14.257-7.73,7.675-24.535,14.258Z" fill="#e0ac92"/>
        </g>
      </g>
    </g>
    <path id="Path_88500" data-name="Path 88500" d="M896.4,138.3a.413.413,0,0,0-.4,0L808.936,87.707a.42.42,0,0,0-.424,0L720.89,138.295a.415.415,0,0,0-.39.009.43.43,0,0,0-.208.367V239.336a.426.426,0,0,0,.211.367l87.732,50.571h0a.429.429,0,0,0,.424,0h0L896.4,239.7a.42.42,0,0,0,.213-.367V138.671A.422.422,0,0,0,896.4,138.3ZM808.724,88.561l86.423,50.222-86.7,49.974-86.7-49.979ZM721.137,139.4l86.889,50.086v99.688l-86.889-50.085Zm174.629,99.689-86.9,50.085V189.488l86.9-50.086Z" transform="translate(-16107 17060)" fill="#ff975d"/>
    <g id="Group_17991" data-name="Group 17991" transform="translate(-16107 17090)" opacity="0.6">
      <g id="Group_17966" data-name="Group 17966">
        <path id="Path_88505" data-name="Path 88505" d="M968.676,211.067,968.6,237.5l-.483,10.771.075-26.431Z" fill="url(#linear-gradient-3)"/>
      </g>
      <g id="Group_17967" data-name="Group 17967">
        <path id="Path_88506" data-name="Path 88506" d="M894.243,229.758l-.077,26.431-7.2-10.081.073-26.432Z" fill="#ffc29f"/>
      </g>
      <g id="Group_17968" data-name="Group 17968">
        <path id="Path_88507" data-name="Path 88507" d="M1023.75,226.164l-.076,26.432-9.717,9.184.075-26.433Z" fill="#ffc29f"/>
      </g>
      <g id="Group_17969" data-name="Group 17969">
        <path id="Path_88508" data-name="Path 88508" d="M859.9,251.733l-.075,26.432-15-6.7.074-26.433Z" fill="#ffc29f"/>
      </g>
      <g id="Group_17970" data-name="Group 17970">
        <path id="Path_88509" data-name="Path 88509" d="M1058.51,255.166l-.075,26.431-16.509,5.165.074-26.431Z" fill="#ffb185"/>
      </g>
      <g id="Group_17971" data-name="Group 17971">
        <path id="Path_88510" data-name="Path 88510" d="M993.266,278.208l-.077,26.431c.021-6.917-4.679-13.707-13.365-18.721a51.132,51.132,0,0,0-8.928-4.008c-21.571-7.418-49.378-3.318-62.109,9.151-4.256,4.17-6.285,8.746-6.3,13.271l.074-26.431c.014-4.525,2.045-9.1,6.3-13.273,12.73-12.467,40.535-16.567,62.107-9.148a51.224,51.224,0,0,1,8.93,4.006C988.586,264.5,993.284,271.289,993.266,278.208Z" fill="#ffc29f"/>
      </g>
      <g id="Group_17972" data-name="Group 17972">
        <path id="Path_88511" data-name="Path 88511" d="M849.044,280.7l-.075,26.432-18.676-1.461.076-26.431Z" fill="#ffc29f"/>
      </g>
      <g id="Group_17973" data-name="Group 17973">
        <path id="Path_88512" data-name="Path 88512" d="M1065.453,276.874l-.075,26.431-1.816,13.426.074-26.433Z" fill="#fbd4bf"/>
      </g>
      <g id="Group_17974" data-name="Group 17974">
        <path id="Path_88513" data-name="Path 88513" d="M1063.636,290.3l-.074,26.433-18.88-.314.074-26.431Z" fill="#ffb185"/>
      </g>
      <g id="Group_17975" data-name="Group 17975">
        <path id="Path_88514" data-name="Path 88514" d="M853.82,295.773l-.076,26.432a36.885,36.885,0,0,1-4.775-15.075l.075-26.431A36.852,36.852,0,0,0,853.82,295.773Z" fill="#ffc29f"/>
      </g>
      <g id="Group_17976" data-name="Group 17976">
        <path id="Path_88515" data-name="Path 88515" d="M1044.756,289.985l-.074,26.431a43.091,43.091,0,0,1-6.011,10.921c-.878,1.18-1.834,2.339-2.835,3.47l.074-26.433c1-1.131,1.956-2.288,2.834-3.469A43.093,43.093,0,0,0,1044.756,289.985Z" fill="#ffc29f"/>
      </g>
      <g id="Group_17977" data-name="Group 17977">
        <path id="Path_88516" data-name="Path 88516" d="M864.613,309.018l-.076,26.43-17.273,4.1.074-26.432Z" fill="#e0ac92"/>
      </g>
      <g id="Group_17978" data-name="Group 17978">
        <path id="Path_88517" data-name="Path 88517" d="M847.338,313.121l-.074,26.432-10.026-12.182.074-26.431Z" fill="#fbd4bf"/>
      </g>
      <g id="Group_17979" data-name="Group 17979">
        <path id="Path_88518" data-name="Path 88518" d="M881.793,320.76l-.073,26.432q-1.885-.981-3.672-2.013a78.286,78.286,0,0,1-13.511-9.731l.076-26.43a78.133,78.133,0,0,0,13.51,9.729Q879.91,319.777,881.793,320.76Z" fill="#ffc29f"/>
      </g>
      <g id="Group_17980" data-name="Group 17980">
        <path id="Path_88519" data-name="Path 88519" d="M1037.75,322.157l-.074,26.43-16.094-5.735.075-26.432Z" fill="#e0ac92"/>
      </g>
      <g id="Group_17981" data-name="Group 17981">
        <path id="Path_88520" data-name="Path 88520" d="M1050.918,311.072l-.076,26.431-13.166,11.084.074-26.43Z" fill="#ffa97a"/>
      </g>
      <g id="Group_17982" data-name="Group 17982">
        <path id="Path_88521" data-name="Path 88521" d="M1021.657,316.42l-.075,26.432a103.635,103.635,0,0,1-20.063,9.927l.073-26.433A103.454,103.454,0,0,0,1021.657,316.42Z" fill="#ffc29f"/>
      </g>
      <g id="Group_17983" data-name="Group 17983">
        <path id="Path_88522" data-name="Path 88522" d="M927.623,334.269l-.076,26.433a157.264,157.264,0,0,1-18.98-3.525c-2.073-.516-4.093-1.082-6.065-1.668l.074-26.433c1.973.587,3.993,1.155,6.066,1.67A156.925,156.925,0,0,0,927.623,334.269Z" fill="#ffc29f"/>
      </g>
      <g id="Group_17984" data-name="Group 17984">
        <path id="Path_88523" data-name="Path 88523" d="M978.834,332.631l-.073,26.43a164.567,164.567,0,0,1-26.057,2.8l.076-26.432A164.437,164.437,0,0,0,978.834,332.631Z" fill="#ffc29f"/>
      </g>
      <g id="Group_17985" data-name="Group 17985">
        <path id="Path_88524" data-name="Path 88524" d="M902.576,329.076l-.074,26.434-11.337,8.533.077-26.431Z" fill="#e0ac92"/>
      </g>
      <g id="Group_17986" data-name="Group 17986">
        <path id="Path_88525" data-name="Path 88525" d="M891.242,337.611l-.077,26.431L872,356.372l.074-26.433Z" fill="#ffa97a"/>
      </g>
      <g id="Group_17987" data-name="Group 17987">
        <path id="Path_88526" data-name="Path 88526" d="M987.784,342.19l-.076,26.43-8.947-9.56.073-26.43Z" fill="#e0ac92"/>
      </g>
      <g id="Group_17988" data-name="Group 17988">
        <path id="Path_88527" data-name="Path 88527" d="M1008.782,336.427l-.075,26.434-21,5.76.076-26.43Z" fill="#ffa97a"/>
      </g>
      <path id="Path_88528" data-name="Path 88528" d="M1044.756,289.985l18.88.313,1.817-13.424-18.676-1.469A36.783,36.783,0,0,0,1042,260.331l16.51-5.165-10-12.184-17.28,4.11a79.031,79.031,0,0,0-13.539-9.74q-1.785-1.027-3.656-2.005l9.718-9.183-19.164-7.666-11.341,8.531q-2.969-.888-6.054-1.67a156.255,156.255,0,0,0-19-3.521l.482-10.771-23.184-1.1-2.449,10.709a164.087,164.087,0,0,0-26.052,2.8l-8.954-9.561-21,5.76,7.2,10.083a103.321,103.321,0,0,0-20.086,9.931l-16.076-5.734L844.9,245.032l15,6.7c-1,1.13-1.948,2.284-2.828,3.466a43.522,43.522,0,0,0-6.01,10.921l-18.882-.314-1.815,13.432,18.675,1.461a36.852,36.852,0,0,0,4.776,15.074l-16.509,5.168,10.027,12.18,17.275-4.1a78.133,78.133,0,0,0,13.51,9.729q1.787,1.03,3.67,2.013l-9.723,9.18,19.172,7.671,11.334-8.535c1.973.587,3.993,1.155,6.066,1.67a156.925,156.925,0,0,0,18.981,3.523l-.482,10.773,23.185,1.1,2.454-10.709a164.437,164.437,0,0,0,26.054-2.8l8.95,9.56,21-5.764-7.19-10.081a103.454,103.454,0,0,0,20.065-9.926l16.093,5.737,13.168-11.085-15.008-6.7c1-1.131,1.956-2.288,2.834-3.469A43.093,43.093,0,0,0,1044.756,289.985Zm-57.793,1.5c-12.731,12.467-40.541,16.562-62.1,9.145a51.039,51.039,0,0,1-8.939-4.011c-14.363-8.293-17.819-21.443-7.057-31.986,12.73-12.467,40.535-16.567,62.107-9.148a51.224,51.224,0,0,1,8.93,4.006C994.266,267.78,997.729,280.934,986.963,291.48Z" fill="#fff4ee"/>
      <g id="Group_17989" data-name="Group 17989">
        <path id="Path_88529" data-name="Path 88529" d="M952.78,335.431l-.076,26.432-2.452,10.709.074-26.432Z" fill="#e0ac92"/>
      </g>
      <g id="Group_17990" data-name="Group 17990">
        <path id="Path_88530" data-name="Path 88530" d="M950.326,346.14l-.074,26.432-23.187-1.1.076-26.431Z" fill="#ffa97a"/>
      </g>
    </g>
    <g id="Group_18122" data-name="Group 18122" transform="translate(-16107 17253)">
      <g id="Group_17966-2" data-name="Group 17966">
        <path id="Path_88505-2" data-name="Path 88505" d="M968.676,211.067,968.6,237.5l-.483,10.771.075-26.431Z" fill="url(#linear-gradient-3)"/>
      </g>
      <g id="Group_17967-2" data-name="Group 17967">
        <path id="Path_88506-2" data-name="Path 88506" d="M894.243,229.758l-.077,26.431-7.2-10.081.073-26.432Z" fill="#ffc29f"/>
      </g>
      <g id="Group_17968-2" data-name="Group 17968">
        <path id="Path_88507-2" data-name="Path 88507" d="M1023.75,226.164l-.076,26.432-9.717,9.184.075-26.433Z" fill="#ffc29f"/>
      </g>
      <g id="Group_17969-2" data-name="Group 17969">
        <path id="Path_88508-2" data-name="Path 88508" d="M859.9,251.733l-.075,26.432-15-6.7.074-26.433Z" fill="#ffc29f"/>
      </g>
      <g id="Group_17970-2" data-name="Group 17970">
        <path id="Path_88509-2" data-name="Path 88509" d="M1058.51,255.166l-.075,26.431-16.509,5.165.074-26.431Z" fill="#ffb185"/>
      </g>
      <g id="Group_17971-2" data-name="Group 17971">
        <path id="Path_88510-2" data-name="Path 88510" d="M993.266,278.208l-.077,26.431c.021-6.917-4.679-13.707-13.365-18.721a51.132,51.132,0,0,0-8.928-4.008c-21.571-7.418-49.378-3.318-62.109,9.151-4.256,4.17-6.285,8.746-6.3,13.271l.074-26.431c.014-4.525,2.045-9.1,6.3-13.273,12.73-12.467,40.535-16.567,62.107-9.148a51.224,51.224,0,0,1,8.93,4.006C988.586,264.5,993.284,271.289,993.266,278.208Z" fill="#ffc29f"/>
      </g>
      <g id="Group_17972-2" data-name="Group 17972">
        <path id="Path_88511-2" data-name="Path 88511" d="M849.044,280.7l-.075,26.432-18.676-1.461.076-26.431Z" fill="#ffc29f"/>
      </g>
      <g id="Group_17973-2" data-name="Group 17973">
        <path id="Path_88512-2" data-name="Path 88512" d="M1065.453,276.874l-.075,26.431-1.816,13.426.074-26.433Z" fill="#fbd4bf"/>
      </g>
      <g id="Group_17974-2" data-name="Group 17974">
        <path id="Path_88513-2" data-name="Path 88513" d="M1063.636,290.3l-.074,26.433-18.88-.314.074-26.431Z" fill="#ffb185"/>
      </g>
      <g id="Group_17975-2" data-name="Group 17975">
        <path id="Path_88514-2" data-name="Path 88514" d="M853.82,295.773l-.076,26.432a36.885,36.885,0,0,1-4.775-15.075l.075-26.431A36.852,36.852,0,0,0,853.82,295.773Z" fill="#ffc29f"/>
      </g>
      <g id="Group_17976-2" data-name="Group 17976">
        <path id="Path_88515-2" data-name="Path 88515" d="M1044.756,289.985l-.074,26.431a43.091,43.091,0,0,1-6.011,10.921c-.878,1.18-1.834,2.339-2.835,3.47l.074-26.433c1-1.131,1.956-2.288,2.834-3.469A43.093,43.093,0,0,0,1044.756,289.985Z" fill="#ffc29f"/>
      </g>
      <g id="Group_17977-2" data-name="Group 17977">
        <path id="Path_88516-2" data-name="Path 88516" d="M864.613,309.018l-.076,26.43-17.273,4.1.074-26.432Z" fill="#e0ac92"/>
      </g>
      <g id="Group_17978-2" data-name="Group 17978">
        <path id="Path_88517-2" data-name="Path 88517" d="M847.338,313.121l-.074,26.432-10.026-12.182.074-26.431Z" fill="#fbd4bf"/>
      </g>
      <g id="Group_17979-2" data-name="Group 17979">
        <path id="Path_88518-2" data-name="Path 88518" d="M881.793,320.76l-.073,26.432q-1.885-.981-3.672-2.013a78.286,78.286,0,0,1-13.511-9.731l.076-26.43a78.133,78.133,0,0,0,13.51,9.729Q879.91,319.777,881.793,320.76Z" fill="#ffc29f"/>
      </g>
      <g id="Group_17980-2" data-name="Group 17980">
        <path id="Path_88519-2" data-name="Path 88519" d="M1037.75,322.157l-.074,26.43-16.094-5.735.075-26.432Z" fill="#e0ac92"/>
      </g>
      <g id="Group_17981-2" data-name="Group 17981">
        <path id="Path_88520-2" data-name="Path 88520" d="M1050.918,311.072l-.076,26.431-13.166,11.084.074-26.43Z" fill="#ffa97a"/>
      </g>
      <g id="Group_17982-2" data-name="Group 17982">
        <path id="Path_88521-2" data-name="Path 88521" d="M1021.657,316.42l-.075,26.432a103.635,103.635,0,0,1-20.063,9.927l.073-26.433A103.454,103.454,0,0,0,1021.657,316.42Z" fill="#ffc29f"/>
      </g>
      <g id="Group_17983-2" data-name="Group 17983">
        <path id="Path_88522-2" data-name="Path 88522" d="M927.623,334.269l-.076,26.433a157.264,157.264,0,0,1-18.98-3.525c-2.073-.516-4.093-1.082-6.065-1.668l.074-26.433c1.973.587,3.993,1.155,6.066,1.67A156.925,156.925,0,0,0,927.623,334.269Z" fill="#ffc29f"/>
      </g>
      <g id="Group_17984-2" data-name="Group 17984">
        <path id="Path_88523-2" data-name="Path 88523" d="M978.834,332.631l-.073,26.43a164.567,164.567,0,0,1-26.057,2.8l.076-26.432A164.437,164.437,0,0,0,978.834,332.631Z" fill="#ffc29f"/>
      </g>
      <g id="Group_17985-2" data-name="Group 17985">
        <path id="Path_88524-2" data-name="Path 88524" d="M902.576,329.076l-.074,26.434-11.337,8.533.077-26.431Z" fill="#e0ac92"/>
      </g>
      <g id="Group_17986-2" data-name="Group 17986">
        <path id="Path_88525-2" data-name="Path 88525" d="M891.242,337.611l-.077,26.431L872,356.372l.074-26.433Z" fill="#ffa97a"/>
      </g>
      <g id="Group_17987-2" data-name="Group 17987">
        <path id="Path_88526-2" data-name="Path 88526" d="M987.784,342.19l-.076,26.43-8.947-9.56.073-26.43Z" fill="#e0ac92"/>
      </g>
      <g id="Group_17988-2" data-name="Group 17988">
        <path id="Path_88527-2" data-name="Path 88527" d="M1008.782,336.427l-.075,26.434-21,5.76.076-26.43Z" fill="#ffa97a"/>
      </g>
      <path id="Path_88528-2" data-name="Path 88528" d="M1044.756,289.985l18.88.313,1.817-13.424-18.676-1.469A36.783,36.783,0,0,0,1042,260.331l16.51-5.165-10-12.184-17.28,4.11a79.031,79.031,0,0,0-13.539-9.74q-1.785-1.027-3.656-2.005l9.718-9.183-19.164-7.666-11.341,8.531q-2.969-.888-6.054-1.67a156.255,156.255,0,0,0-19-3.521l.482-10.771-23.184-1.1-2.449,10.709a164.087,164.087,0,0,0-26.052,2.8l-8.954-9.561-21,5.76,7.2,10.083a103.321,103.321,0,0,0-20.086,9.931l-16.076-5.734L844.9,245.032l15,6.7c-1,1.13-1.948,2.284-2.828,3.466a43.522,43.522,0,0,0-6.01,10.921l-18.882-.314-1.815,13.432,18.675,1.461a36.852,36.852,0,0,0,4.776,15.074l-16.509,5.168,10.027,12.18,17.275-4.1a78.133,78.133,0,0,0,13.51,9.729q1.787,1.03,3.67,2.013l-9.723,9.18,19.172,7.671,11.334-8.535c1.973.587,3.993,1.155,6.066,1.67a156.925,156.925,0,0,0,18.981,3.523l-.482,10.773,23.185,1.1,2.454-10.709a164.437,164.437,0,0,0,26.054-2.8l8.95,9.56,21-5.764-7.19-10.081a103.454,103.454,0,0,0,20.065-9.926l16.093,5.737,13.168-11.085-15.008-6.7c1-1.131,1.956-2.288,2.834-3.469A43.093,43.093,0,0,0,1044.756,289.985Zm-57.793,1.5c-12.731,12.467-40.541,16.562-62.1,9.145a51.039,51.039,0,0,1-8.939-4.011c-14.363-8.293-17.819-21.443-7.057-31.986,12.73-12.467,40.535-16.567,62.107-9.148a51.224,51.224,0,0,1,8.93,4.006C994.266,267.78,997.729,280.934,986.963,291.48Z" fill="#fff4ee"/>
      <g id="Group_17989-2" data-name="Group 17989">
        <path id="Path_88529-2" data-name="Path 88529" d="M952.78,335.431l-.076,26.432-2.452,10.709.074-26.432Z" fill="#e0ac92"/>
      </g>
      <g id="Group_17990-2" data-name="Group 17990">
        <path id="Path_88530-2" data-name="Path 88530" d="M950.326,346.14l-.074,26.432-23.187-1.1.076-26.431Z" fill="#ffa97a"/>
      </g>
    </g>
    <path id="Path_88532" data-name="Path 88532" d="M1217.761,487.853l-87.436-50.584c-.026-.017-.057-.013-.087-.024V337.872a.423.423,0,0,0-.846,0v99.689l-87.5,50.29a.417.417,0,0,0-.207.427.426.426,0,0,0,.025.36.418.418,0,0,0,.365.21.435.435,0,0,0,.213-.056l87.737-50.344a.4.4,0,0,0,.187-.27l87.123,50.4a.427.427,0,0,0,.579-.15A.42.42,0,0,0,1217.761,487.853Z" transform="translate(-16107 17060)" fill="#ff975d"/>
    <g id="Group_18120" data-name="Group 18120" transform="translate(-16107 17088)" opacity="0.6">
      <g id="Group_18022" data-name="Group 18022">
        <g id="Group_18021" data-name="Group 18021" style="isolation: isolate">
          <g id="Group_18008" data-name="Group 18008">
            <path id="Path_88547" data-name="Path 88547" d="M1163.5,390.278l-.08,28.247-6.578,9.905.081-28.248Z" fill="#ffc29f"/>
          </g>
          <g id="Group_18009" data-name="Group 18009">
            <path id="Path_88548" data-name="Path 88548" d="M1096.544,403.835l-.08,28.247-10.064-8.941.079-28.247Z" fill="#ffc29f"/>
          </g>
          <g id="Group_18010" data-name="Group 18010">
            <path id="Path_88549" data-name="Path 88549" d="M1145.445,418.693l-.083,28.249a5.259,5.259,0,0,0-.084-.962c-.384-2.143-2.049-4.032-4.507-5.445a23.264,23.264,0,0,0-12.621-2.593c-8.005.466-13.954,4.355-13.967,8.892l.083-28.248c.011-4.538,5.961-8.425,13.963-8.893a23.3,23.3,0,0,1,12.623,2.594c2.461,1.412,4.122,3.3,4.507,5.447A5.411,5.411,0,0,1,1145.445,418.693Z" fill="#ffc29f"/>
          </g>
          <g id="Group_18011" data-name="Group 18011">
            <path id="Path_88550" data-name="Path 88550" d="M1189.361,421.335l-.081,28.249-18.168,1.642.081-28.248Z" fill="#ffb185"/>
          </g>
          <g id="Group_18012" data-name="Group 18012">
            <path id="Path_88551" data-name="Path 88551" d="M1091.061,427.829l-.082,28.248-18.435.528.08-28.247Z" fill="#ffb185"/>
          </g>
          <g id="Group_18013" data-name="Group 18013">
            <path id="Path_88552" data-name="Path 88552" d="M1072.624,428.358l-.08,28.247-2.279-12.426.082-28.248Z" fill="#fbd4bf"/>
          </g>
          <g id="Group_18014" data-name="Group 18014">
            <path id="Path_88553" data-name="Path 88553" d="M1171.193,422.978l-.081,28.248c-1.2,3.864-4,7.439-8.042,10.458l.081-28.247C1167.2,430.417,1169.994,426.842,1171.193,422.978Z" fill="#ffc29f"/>
          </g>
          <g id="Group_18015" data-name="Group 18015">
            <path id="Path_88554" data-name="Path 88554" d="M1102.775,437.087l-.081,28.249q-1.309-.642-2.527-1.341a28.745,28.745,0,0,1-9.189-7.918l.082-28.248a28.8,28.8,0,0,0,9.185,7.918Q1101.466,436.449,1102.775,437.087Z" fill="#ffc29f"/>
          </g>
          <g id="Group_18016" data-name="Group 18016">
            <path id="Path_88555" data-name="Path 88555" d="M1144.12,441.439l-.081,28.246a70.394,70.394,0,0,1-9.9,1.3,72.59,72.59,0,0,1-9.854-.1l.081-28.25a72.592,72.592,0,0,0,9.855.1A70.678,70.678,0,0,0,1144.12,441.439Z" fill="#ffc29f"/>
          </g>
          <g id="Group_18017" data-name="Group 18017">
            <path id="Path_88556" data-name="Path 88556" d="M1173.226,442.379l-.08,28.25-17.51,7.314.08-28.246Z" fill="#ffa97a"/>
          </g>
          <g id="Group_18018" data-name="Group 18018">
            <path id="Path_88557" data-name="Path 88557" d="M1155.716,449.7l-.08,28.246-11.6-8.258.081-28.247Z" fill="#e0ac92"/>
          </g>
          <g id="Group_18019" data-name="Group 18019">
            <path id="Path_88558" data-name="Path 88558" d="M1124.367,442.635l-.081,28.25-8.378,9.465.08-28.249Z" fill="#e0ac92"/>
          </g>
          <path id="Path_88559" data-name="Path 88559" d="M1171.193,422.978l18.168-1.643-2.281-12.413-18.427.519a28.871,28.871,0,0,0-9.195-7.915q-1.221-.7-2.534-1.344l6.577-9.9-19.789-5.1-8.37,9.464a71.656,71.656,0,0,0-9.844-.092,69.232,69.232,0,0,0-9.905,1.286l-11.6-8.257-17.512,7.319,10.066,8.94c-4.027,3.026-6.829,6.6-8.028,10.461l-18.169,1.635,2.277,12.427,18.436-.529a28.8,28.8,0,0,0,9.185,7.918q1.221.7,2.53,1.34l-6.574,9.9,19.787,5.109,8.379-9.466a72.592,72.592,0,0,0,9.855.1,70.678,70.678,0,0,0,9.9-1.3l11.6,8.258,17.51-7.318-10.075-8.942C1167.2,430.417,1169.994,426.842,1171.193,422.978Zm-39.716,4.6a23.254,23.254,0,0,1-12.615-2.587c-2.458-1.414-4.122-3.307-4.515-5.451-.886-4.936,5.32-9.348,13.882-9.848a23.3,23.3,0,0,1,12.623,2.594c2.461,1.412,4.122,3.3,4.507,5.447C1146.252,422.672,1140.036,427.08,1131.477,427.579Z" fill="#fff4ee"/>
          <g id="Group_18020" data-name="Group 18020">
            <path id="Path_88560" data-name="Path 88560" d="M1115.988,452.1l-.08,28.249-19.79-5.11.083-28.248Z" fill="#ffa97a"/>
          </g>
        </g>
      </g>
    </g>
    <g id="Group_18023" data-name="Group 18023" transform="translate(-16107 17060)">
      <g id="Group_18022-2" data-name="Group 18022">
        <g id="Group_18021-2" data-name="Group 18021" style="isolation: isolate">
          <g id="Group_18008-2" data-name="Group 18008">
            <path id="Path_88547-2" data-name="Path 88547" d="M1163.5,390.278l-.08,28.247-6.578,9.905.081-28.248Z" fill="#ffc29f"/>
          </g>
          <g id="Group_18009-2" data-name="Group 18009">
            <path id="Path_88548-2" data-name="Path 88548" d="M1096.544,403.835l-.08,28.247-10.064-8.941.079-28.247Z" fill="#ffc29f"/>
          </g>
          <g id="Group_18010-2" data-name="Group 18010">
            <path id="Path_88549-2" data-name="Path 88549" d="M1145.445,418.693l-.083,28.249a5.259,5.259,0,0,0-.084-.962c-.384-2.143-2.049-4.032-4.507-5.445a23.264,23.264,0,0,0-12.621-2.593c-8.005.466-13.954,4.355-13.967,8.892l.083-28.248c.011-4.538,5.961-8.425,13.963-8.893a23.3,23.3,0,0,1,12.623,2.594c2.461,1.412,4.122,3.3,4.507,5.447A5.411,5.411,0,0,1,1145.445,418.693Z" fill="#ffc29f"/>
          </g>
          <g id="Group_18011-2" data-name="Group 18011">
            <path id="Path_88550-2" data-name="Path 88550" d="M1189.361,421.335l-.081,28.249-18.168,1.642.081-28.248Z" fill="#ffb185"/>
          </g>
          <g id="Group_18012-2" data-name="Group 18012">
            <path id="Path_88551-2" data-name="Path 88551" d="M1091.061,427.829l-.082,28.248-18.435.528.08-28.247Z" fill="#ffb185"/>
          </g>
          <g id="Group_18013-2" data-name="Group 18013">
            <path id="Path_88552-2" data-name="Path 88552" d="M1072.624,428.358l-.08,28.247-2.279-12.426.082-28.248Z" fill="#fbd4bf"/>
          </g>
          <g id="Group_18014-2" data-name="Group 18014">
            <path id="Path_88553-2" data-name="Path 88553" d="M1171.193,422.978l-.081,28.248c-1.2,3.864-4,7.439-8.042,10.458l.081-28.247C1167.2,430.417,1169.994,426.842,1171.193,422.978Z" fill="#ffc29f"/>
          </g>
          <g id="Group_18015-2" data-name="Group 18015">
            <path id="Path_88554-2" data-name="Path 88554" d="M1102.775,437.087l-.081,28.249q-1.309-.642-2.527-1.341a28.745,28.745,0,0,1-9.189-7.918l.082-28.248a28.8,28.8,0,0,0,9.185,7.918Q1101.466,436.449,1102.775,437.087Z" fill="#ffc29f"/>
          </g>
          <g id="Group_18016-2" data-name="Group 18016">
            <path id="Path_88555-2" data-name="Path 88555" d="M1144.12,441.439l-.081,28.246a70.394,70.394,0,0,1-9.9,1.3,72.59,72.59,0,0,1-9.854-.1l.081-28.25a72.592,72.592,0,0,0,9.855.1A70.678,70.678,0,0,0,1144.12,441.439Z" fill="#ffc29f"/>
          </g>
          <g id="Group_18017-2" data-name="Group 18017">
            <path id="Path_88556-2" data-name="Path 88556" d="M1173.226,442.379l-.08,28.25-17.51,7.314.08-28.246Z" fill="#ffa97a"/>
          </g>
          <g id="Group_18018-2" data-name="Group 18018">
            <path id="Path_88557-2" data-name="Path 88557" d="M1155.716,449.7l-.08,28.246-11.6-8.258.081-28.247Z" fill="#e0ac92"/>
          </g>
          <g id="Group_18019-2" data-name="Group 18019">
            <path id="Path_88558-2" data-name="Path 88558" d="M1124.367,442.635l-.081,28.25-8.378,9.465.08-28.249Z" fill="#e0ac92"/>
          </g>
          <path id="Path_88559-2" data-name="Path 88559" d="M1171.193,422.978l18.168-1.643-2.281-12.413-18.427.519a28.871,28.871,0,0,0-9.195-7.915q-1.221-.7-2.534-1.344l6.577-9.9-19.789-5.1-8.37,9.464a71.656,71.656,0,0,0-9.844-.092,69.232,69.232,0,0,0-9.905,1.286l-11.6-8.257-17.512,7.319,10.066,8.94c-4.027,3.026-6.829,6.6-8.028,10.461l-18.169,1.635,2.277,12.427,18.436-.529a28.8,28.8,0,0,0,9.185,7.918q1.221.7,2.53,1.34l-6.574,9.9,19.787,5.109,8.379-9.466a72.592,72.592,0,0,0,9.855.1,70.678,70.678,0,0,0,9.9-1.3l11.6,8.258,17.51-7.318-10.075-8.942C1167.2,430.417,1169.994,426.842,1171.193,422.978Zm-39.716,4.6a23.254,23.254,0,0,1-12.615-2.587c-2.458-1.414-4.122-3.307-4.515-5.451-.886-4.936,5.32-9.348,13.882-9.848a23.3,23.3,0,0,1,12.623,2.594c2.461,1.412,4.122,3.3,4.507,5.447C1146.252,422.672,1140.036,427.08,1131.477,427.579Z" fill="#fff4ee"/>
          <g id="Group_18020-2" data-name="Group 18020">
            <path id="Path_88560-2" data-name="Path 88560" d="M1115.988,452.1l-.08,28.249-19.79-5.11.083-28.248Z" fill="#ffa97a"/>
          </g>
        </g>
      </g>
    </g>
    <path id="Path_88561" data-name="Path 88561" d="M1217.763,387.879a.42.42,0,0,0-.4-.005l-87.06-50.365a.42.42,0,0,0-.425,0l-87.623,50.361a.414.414,0,0,0-.6.374V488.457a.419.419,0,0,0,.212.364l87.734,50.341,0,0a.394.394,0,0,0,.209.059.407.407,0,0,0,.212-.059v0l87.739-50.341a.424.424,0,0,0,.213-.364V388.244A.424.424,0,0,0,1217.763,387.879Zm-87.677-49.52,86.426,50-86.7,49.749-86.7-49.752ZM1042.5,388.973l86.893,49.859v99.241L1042.5,488.211Zm174.633,99.238-86.9,49.862V438.832l86.9-49.859Z" transform="translate(-16107 17060)" fill="#ff975d"/>
    <g id="Group_18119" data-name="Group 18119" transform="translate(-16107 17102)">
      <g id="Group_18055" data-name="Group 18055" opacity="0.6">
        <g id="Group_18054" data-name="Group 18054" style="isolation: isolate">
          <g id="Group_18041" data-name="Group 18041">
            <path id="Path_88576" data-name="Path 88576" d="M781.911,360.287l-.116,40.986-9.5,14.373.117-40.988Z" fill="#ffc29f"/>
          </g>
          <g id="Group_18042" data-name="Group 18042">
            <path id="Path_88577" data-name="Path 88577" d="M685.195,379.958l-.116,40.986-14.538-12.973.114-40.986Z" fill="#ffc29f"/>
          </g>
          <g id="Group_18043" data-name="Group 18043">
            <path id="Path_88578" data-name="Path 88578" d="M755.83,401.517l-.12,40.989a7.645,7.645,0,0,0-.121-1.4c-.556-3.11-2.959-5.851-6.51-7.9-4.635-2.676-11.225-4.172-18.23-3.762-11.563.677-20.156,6.319-20.176,12.9l.12-40.987c.017-6.585,8.61-12.225,20.17-12.9,7.006-.408,13.6,1.09,18.233,3.765,3.554,2.049,5.953,4.792,6.51,7.9A7.872,7.872,0,0,1,755.83,401.517Z" fill="#ffc29f"/>
          </g>
          <g id="Group_18044" data-name="Group 18044">
            <path id="Path_88579" data-name="Path 88579" d="M819.265,405.35l-.117,40.988-26.243,2.382.117-40.987Z" fill="#ffb185"/>
          </g>
          <g id="Group_18045" data-name="Group 18045">
            <path id="Path_88580" data-name="Path 88580" d="M677.274,414.772l-.118,40.988-26.628.766.116-40.986Z" fill="#ffb185"/>
          </g>
          <g id="Group_18046" data-name="Group 18046">
            <path id="Path_88581" data-name="Path 88581" d="M650.643,415.54l-.116,40.986-3.292-18.03.119-40.988Z" fill="#fbd4bf"/>
          </g>
          <g id="Group_18047" data-name="Group 18047">
            <path id="Path_88582" data-name="Path 88582" d="M793.022,407.734l-.117,40.987c-1.731,5.608-5.772,10.794-11.616,15.174l.117-40.986C787.25,418.527,791.29,413.341,793.022,407.734Z" fill="#ffc29f"/>
          </g>
          <g id="Group_18048" data-name="Group 18048">
            <path id="Path_88583" data-name="Path 88583" d="M694.2,428.206l-.117,40.989q-1.891-.932-3.651-1.945a41.563,41.563,0,0,1-13.272-11.49l.118-40.988a41.645,41.645,0,0,0,13.267,11.49Q692.3,427.279,694.2,428.206Z" fill="#ffc29f"/>
          </g>
          <g id="Group_18049" data-name="Group 18049">
            <path id="Path_88584" data-name="Path 88584" d="M753.916,434.52l-.117,40.986a101.506,101.506,0,0,1-14.3,1.879,104.643,104.643,0,0,1-14.233-.138l.117-40.99a104.312,104.312,0,0,0,14.234.142A101.468,101.468,0,0,0,753.916,434.52Z" fill="#ffc29f"/>
          </g>
          <g id="Group_18050" data-name="Group 18050">
            <path id="Path_88585" data-name="Path 88585" d="M795.958,435.885l-.116,40.991L770.55,487.487l.116-40.985Z" fill="#ffa97a"/>
          </g>
          <g id="Group_18051" data-name="Group 18051">
            <path id="Path_88586" data-name="Path 88586" d="M770.666,446.5l-.116,40.985L753.8,475.506l.117-40.986Z" fill="#e0ac92"/>
          </g>
          <g id="Group_18052" data-name="Group 18052">
            <path id="Path_88587" data-name="Path 88587" d="M725.384,436.257l-.117,40.99-12.1,13.734.116-40.989Z" fill="#e0ac92"/>
          </g>
          <path id="Path_88588" data-name="Path 88588" d="M793.022,407.734l26.243-2.384-3.3-18.011-26.617.753a41.772,41.772,0,0,0-13.282-11.485q-1.762-1.02-3.66-1.949l9.5-14.371-28.584-7.4-12.091,13.732a103.338,103.338,0,0,0-14.219-.133,99.578,99.578,0,0,0-14.307,1.866l-16.76-11.98-25.294,10.619L685.2,379.958c-5.818,4.39-9.865,9.57-11.6,15.179l-26.244,2.371,3.289,18.032,26.631-.768a41.645,41.645,0,0,0,13.267,11.49q1.762,1.017,3.655,1.944l-9.5,14.372,28.581,7.414,12.1-13.735a104.312,104.312,0,0,0,14.234.142,101.468,101.468,0,0,0,14.3-1.879l16.75,11.982,25.292-10.617-14.552-12.976C787.25,418.527,791.29,413.341,793.022,407.734Zm-57.367,6.676c-7.008.413-13.592-1.081-18.223-3.754-3.55-2.052-5.954-4.8-6.522-7.91-1.28-7.161,7.685-13.563,20.053-14.289,7.006-.408,13.6,1.09,18.233,3.765,3.554,2.049,5.953,4.792,6.51,7.9C756.995,407.289,748.017,413.686,735.655,414.41Z" fill="#fff4ee"/>
          <g id="Group_18053" data-name="Group 18053">
            <path id="Path_88589" data-name="Path 88589" d="M713.281,449.992l-.116,40.989-28.586-7.414.12-40.988Z" fill="#ffa97a"/>
          </g>
        </g>
      </g>
    </g>
    <path id="Path_88590" data-name="Path 88590" d="M849.785,519.017,735.678,452.706V321.466a.422.422,0,1,0-.844,0V452.74l-63.985,36.942-50.488,29.1a.429.429,0,0,0-.133.121l-.19.111a.426.426,0,0,0-.155.578.431.431,0,0,0,.368.212.443.443,0,0,0,.211-.057l51.506-29.734,63.37-36.529,114.023,66.261a.427.427,0,0,0,.578-.153A.42.42,0,0,0,849.785,519.017Z" transform="translate(-16107 17060)" fill="#ff975d"/>
    <g id="Group_18056" data-name="Group 18056" transform="translate(-16107 17060)">
      <g id="Group_18055-2" data-name="Group 18055">
        <g id="Group_18054-2" data-name="Group 18054" style="isolation: isolate">
          <g id="Group_18041-2" data-name="Group 18041">
            <path id="Path_88576-2" data-name="Path 88576" d="M781.911,360.287l-.116,40.986-9.5,14.373.117-40.988Z" fill="#ffc29f"/>
          </g>
          <g id="Group_18042-2" data-name="Group 18042">
            <path id="Path_88577-2" data-name="Path 88577" d="M685.195,379.958l-.116,40.986-14.538-12.973.114-40.986Z" fill="#ffc29f"/>
          </g>
          <g id="Group_18043-2" data-name="Group 18043">
            <path id="Path_88578-2" data-name="Path 88578" d="M755.83,401.517l-.12,40.989a7.645,7.645,0,0,0-.121-1.4c-.556-3.11-2.959-5.851-6.51-7.9-4.635-2.676-11.225-4.172-18.23-3.762-11.563.677-20.156,6.319-20.176,12.9l.12-40.987c.017-6.585,8.61-12.225,20.17-12.9,7.006-.408,13.6,1.09,18.233,3.765,3.554,2.049,5.953,4.792,6.51,7.9A7.872,7.872,0,0,1,755.83,401.517Z" fill="#ffc29f"/>
          </g>
          <g id="Group_18044-2" data-name="Group 18044">
            <path id="Path_88579-2" data-name="Path 88579" d="M819.265,405.35l-.117,40.988-26.243,2.382.117-40.987Z" fill="#ffb185"/>
          </g>
          <g id="Group_18045-2" data-name="Group 18045">
            <path id="Path_88580-2" data-name="Path 88580" d="M677.274,414.772l-.118,40.988-26.628.766.116-40.986Z" fill="#ffb185"/>
          </g>
          <g id="Group_18046-2" data-name="Group 18046">
            <path id="Path_88581-2" data-name="Path 88581" d="M650.643,415.54l-.116,40.986-3.292-18.03.119-40.988Z" fill="#fbd4bf"/>
          </g>
          <g id="Group_18047-2" data-name="Group 18047">
            <path id="Path_88582-2" data-name="Path 88582" d="M793.022,407.734l-.117,40.987c-1.731,5.608-5.772,10.794-11.616,15.174l.117-40.986C787.25,418.527,791.29,413.341,793.022,407.734Z" fill="#ffc29f"/>
          </g>
          <g id="Group_18048-2" data-name="Group 18048">
            <path id="Path_88583-2" data-name="Path 88583" d="M694.2,428.206l-.117,40.989q-1.891-.932-3.651-1.945a41.563,41.563,0,0,1-13.272-11.49l.118-40.988a41.645,41.645,0,0,0,13.267,11.49Q692.3,427.279,694.2,428.206Z" fill="#ffc29f"/>
          </g>
          <g id="Group_18049-2" data-name="Group 18049">
            <path id="Path_88584-2" data-name="Path 88584" d="M753.916,434.52l-.117,40.986a101.506,101.506,0,0,1-14.3,1.879,104.643,104.643,0,0,1-14.233-.138l.117-40.99a104.312,104.312,0,0,0,14.234.142A101.468,101.468,0,0,0,753.916,434.52Z" fill="#ffc29f"/>
          </g>
          <g id="Group_18050-2" data-name="Group 18050">
            <path id="Path_88585-2" data-name="Path 88585" d="M795.958,435.885l-.116,40.991L770.55,487.487l.116-40.985Z" fill="#ffa97a"/>
          </g>
          <g id="Group_18051-2" data-name="Group 18051">
            <path id="Path_88586-2" data-name="Path 88586" d="M770.666,446.5l-.116,40.985L753.8,475.506l.117-40.986Z" fill="#e0ac92"/>
          </g>
          <g id="Group_18052-2" data-name="Group 18052">
            <path id="Path_88587-2" data-name="Path 88587" d="M725.384,436.257l-.117,40.99-12.1,13.734.116-40.989Z" fill="#e0ac92"/>
          </g>
          <path id="Path_88588-2" data-name="Path 88588" d="M793.022,407.734l26.243-2.384-3.3-18.011-26.617.753a41.772,41.772,0,0,0-13.282-11.485q-1.762-1.02-3.66-1.949l9.5-14.371-28.584-7.4-12.091,13.732a103.338,103.338,0,0,0-14.219-.133,99.578,99.578,0,0,0-14.307,1.866l-16.76-11.98-25.294,10.619L685.2,379.958c-5.818,4.39-9.865,9.57-11.6,15.179l-26.244,2.371,3.289,18.032,26.631-.768a41.645,41.645,0,0,0,13.267,11.49q1.762,1.017,3.655,1.944l-9.5,14.372,28.581,7.414,12.1-13.735a104.312,104.312,0,0,0,14.234.142,101.468,101.468,0,0,0,14.3-1.879l16.75,11.982,25.292-10.617-14.552-12.976C787.25,418.527,791.29,413.341,793.022,407.734Zm-57.367,6.676c-7.008.413-13.592-1.081-18.223-3.754-3.55-2.052-5.954-4.8-6.522-7.91-1.28-7.161,7.685-13.563,20.053-14.289,7.006-.408,13.6,1.09,18.233,3.765,3.554,2.049,5.953,4.792,6.51,7.9C756.995,407.289,748.017,413.686,735.655,414.41Z" fill="#fff4ee"/>
          <g id="Group_18053-2" data-name="Group 18053">
            <path id="Path_88589-2" data-name="Path 88589" d="M713.281,449.992l-.116,40.989-28.586-7.414.12-40.988Z" fill="#ffa97a"/>
          </g>
        </g>
      </g>
    </g>
    <path id="Path_88591" data-name="Path 88591" d="M849.8,386.391a.424.424,0,0,0-.422,0l-.047.028L735.483,320.256a.424.424,0,0,0-.425,0L620.477,386.411l-.034-.02a.421.421,0,0,0-.634.366V518.338a.425.425,0,0,0,.209.367l114.679,66.1,0,0a.437.437,0,0,0,.421,0l0,0,114.683-66.1a.425.425,0,0,0,.211-.367V386.757A.427.427,0,0,0,849.8,386.391ZM735.268,321.11l113.222,65.8L734.91,452.373,621.32,386.9ZM620.653,387.49l113.835,65.616v130.6L620.653,518.093Zm228.518,130.6-113.84,65.616v-130.6l113.84-65.616Z" transform="translate(-16107 17060)" fill="#ff975d"/>
    <g id="Group_18070" data-name="Group 18070" transform="translate(-16107 17060)">
      <g id="Group_18067" data-name="Group 18067">
        <g id="Group_18061" data-name="Group 18061">
          <g id="Group_18060" data-name="Group 18060">
            <g id="Group_18058" data-name="Group 18058">
              <path id="Path_88592" data-name="Path 88592" d="M740.183,262.534a.649.649,0,0,1-.319-.085l-29.485-17a.63.63,0,0,1-.316-.549V211.07a.633.633,0,1,1,1.266,0v33.467L739.547,260.8V228.067a.634.634,0,0,1,1.269,0V261.9a.635.635,0,0,1-.633.634Z" fill="#ff975d"/>
            </g>
            <g id="Group_18059" data-name="Group 18059">
              <path id="Path_88593" data-name="Path 88593" d="M681.205,262.534a.647.647,0,0,1-.317-.085.637.637,0,0,1-.317-.549V228.067a.634.634,0,0,1,1.268,0V260.8l28.224-16.266V211.07a.633.633,0,1,1,1.266,0V244.9a.631.631,0,0,1-.319.549l-29.489,17A.635.635,0,0,1,681.205,262.534Z" fill="#ff975d"/>
            </g>
          </g>
        </g>
        <g id="Group_18066" data-name="Group 18066">
          <g id="Group_18064" data-name="Group 18064">
            <g id="Group_18062" data-name="Group 18062">
              <path id="Path_88594" data-name="Path 88594" d="M710.693,279.54a.624.624,0,0,1-.314-.085l-29.489-17a.634.634,0,0,1-.319-.548V228.075a.634.634,0,0,1,1.268,0v33.468l28.22,16.267V245.073a.634.634,0,0,1,1.268,0v33.833a.637.637,0,0,1-.634.634Z" fill="#ff975d"/>
            </g>
            <g id="Group_18063" data-name="Group 18063">
              <path id="Path_88595" data-name="Path 88595" d="M710.693,279.54a.622.622,0,0,1-.315-.086.634.634,0,0,1-.319-.548V245.073a.634.634,0,0,1,.32-.549l29.485-17a.635.635,0,0,1,.952.547V261.91a.631.631,0,0,1-.318.548l-29.49,17A.628.628,0,0,1,710.693,279.54Zm.634-34.1v32.37l28.22-16.267V229.172Z" fill="#ff975d"/>
            </g>
          </g>
          <g id="Group_18065" data-name="Group 18065">
            <path id="Path_88596" data-name="Path 88596" d="M710.595,245.858a.652.652,0,0,1-.322-.085L680.89,228.7a.632.632,0,0,1,0-1.1l29.576-17.078a.636.636,0,0,1,.637,0L740.492,227.6a.633.633,0,0,1,0,1.1l-29.578,17.078A.643.643,0,0,1,710.595,245.858Zm-28.122-17.709,28.122,16.344,28.315-16.347L710.785,211.8Z" fill="#ff975d"/>
          </g>
        </g>
      </g>
      <g id="Group_18069" data-name="Group 18069">
        <path id="Path_88597" data-name="Path 88597" d="M696.246,253.887a.346.346,0,0,0,.145-.347,1.27,1.27,0,0,0-.547-.931.36.36,0,0,0-.367-.04h0l-113.589,67.3a.357.357,0,0,0-.139.343,1.257,1.257,0,0,0,.553.93.357.357,0,0,0,.361.042l113.592-67.3Z" fill="#ff975d"/>
        <g id="Group_18126" data-name="Group 18126" transform="translate(-390.359 -385)">
          <path id="Path_88624" data-name="Path 88624" d="M10.18,0A10.18,10.18,0,1,1,0,10.18,10.18,10.18,0,0,1,10.18,0Z" transform="translate(1076 628)" fill="#ff975d" opacity="0.4"/>
          <path id="Path_88625" data-name="Path 88625" d="M5.967,0A5.967,5.967,0,1,1,0,5.967,5.967,5.967,0,0,1,5.967,0Z" transform="translate(1080.212 632.212)" fill="#ff975d" opacity="0.4"/>
        </g>
      </g>
    </g>
    <path id="Path_88598" data-name="Path 88598" d="M670.644,283.591a4.425,4.425,0,0,1-3.822,1.981,8.656,8.656,0,0,1-4.22-1.294c-4.576-2.639-8.505-8.615-9.473-14.234l1.847,1.065-2.41-6.22-2.437,3.423,1.775,1.024c.754,6.187,5.081,12.995,10.171,15.934a9.782,9.782,0,0,0,4.784,1.446,5.537,5.537,0,0,0,4.719-2.458l.223-.327-.769-.91Z" transform="translate(-16107 17060)" fill="#ff975d"/>
    <path id="Path_88599" data-name="Path 88599" d="M672.836,277.161c-.752-6.187-5.082-13-10.172-15.933a9.77,9.77,0,0,0-4.783-1.45,5.542,5.542,0,0,0-4.786,2.56l-.212.325.766.919.388-.591a4.432,4.432,0,0,1,3.875-2.069,8.7,8.7,0,0,1,4.229,1.3c4.573,2.639,8.5,8.614,9.47,14.231l-1.845-1.066,2.411,6.224,2.434-3.426Z" transform="translate(-16107 17060)" fill="#ff975d"/>
    <g id="Group_18076" data-name="Group 18076" transform="translate(-16107 17060)">
      <path id="Path_88624-2" data-name="Path 88624" d="M14.5,0A14.5,14.5,0,1,1,0,14.5,14.5,14.5,0,0,1,14.5,0Z" transform="translate(1076 628)" fill="#ff975d" opacity="0.4"/>
      <path id="Path_88625-2" data-name="Path 88625" d="M8.5,0A8.5,8.5,0,1,1,0,8.5,8.5,8.5,0,0,1,8.5,0Z" transform="translate(1082 634)" fill="#ff975d" opacity="0.4"/>
    </g>
    <g id="Group_18123" data-name="Group 18123" transform="translate(-16136 16969)">
      <path id="Path_88624-3" data-name="Path 88624" d="M14.5,0A14.5,14.5,0,1,1,0,14.5,14.5,14.5,0,0,1,14.5,0Z" transform="translate(1076 628)" fill="#ff975d" opacity="0.4"/>
      <path id="Path_88625-3" data-name="Path 88625" d="M8.5,0A8.5,8.5,0,1,1,0,8.5,8.5,8.5,0,0,1,8.5,0Z" transform="translate(1082 634)" fill="#ff975d" opacity="0.4"/>
    </g>
    <g id="Group_18100" data-name="Group 18100" transform="translate(-16107 17060)">
      <g id="Group_18093" data-name="Group 18093">
        <g id="Group_18087" data-name="Group 18087">
          <g id="Group_18085" data-name="Group 18085">
            <g id="Group_18084" data-name="Group 18084">
              <path id="Path_88600" data-name="Path 88600" d="M981.163,194.5a.633.633,0,0,1-.316-1.184l29.119-16.654V143.517a.633.633,0,1,1,1.266,0v33.514a.626.626,0,0,1-.318.549l-29.438,16.837A.621.621,0,0,1,981.163,194.5Z" fill="#ff975d"/>
            </g>
          </g>
          <g id="Group_18086" data-name="Group 18086">
            <path id="Path_88601" data-name="Path 88601" d="M1040.031,194.431a.625.625,0,0,1-.316-.085L1010.5,177.611l-29.02,16.735a.634.634,0,1,1-.634-1.1l29.335-16.918a.638.638,0,0,1,.633,0l29.533,16.917a.634.634,0,0,1-.316,1.183Z" fill="#ff975d"/>
          </g>
        </g>
        <g id="Group_18092" data-name="Group 18092">
          <g id="Group_18090" data-name="Group 18090">
            <g id="Group_18088" data-name="Group 18088">
              <path id="Path_88602" data-name="Path 88602" d="M1010.632,211.683a.63.63,0,0,1-.633-.633V177.218a.634.634,0,0,1,.316-.549l29.489-17a.634.634,0,0,1,.95.55v33.831a.635.635,0,0,1-.318.549l-29.487,17A.64.64,0,0,1,1010.632,211.683Zm.636-34.1v32.368l28.219-16.266V161.316Z" fill="#ff975d"/>
            </g>
            <g id="Group_18089" data-name="Group 18089">
              <path id="Path_88603" data-name="Path 88603" d="M1010.632,211.683a.643.643,0,0,1-.317-.084l-29.487-17a.633.633,0,0,1-.319-.549V160.222a.634.634,0,0,1,.95-.55l29.49,17a.637.637,0,0,1,.319.549V211.05a.635.635,0,0,1-.636.633Zm-28.855-18L1010,209.953V177.585l-28.222-16.269Z" fill="#ff975d"/>
            </g>
          </g>
          <g id="Group_18091" data-name="Group 18091">
            <path id="Path_88604" data-name="Path 88604" d="M1010.731,178a.626.626,0,0,1-.315-.085l-29.579-17.078a.633.633,0,0,1,0-1.1l29.387-17.078a.631.631,0,0,1,.633,0l29.581,17.078a.631.631,0,0,1,0,1.1l-29.385,17.077A.636.636,0,0,1,1010.731,178Zm-28.314-17.713,28.314,16.347,28.123-16.344-28.315-16.347Z" fill="#ff975d"/>
          </g>
        </g>
      </g>
      <path id="Path_88605" data-name="Path 88605" d="M1011.115,160.876c-14.142,0-27.5-3.158-37.616-8.893-10.345-5.866-16.058-13.716-16.085-22.1-.035-8.229,5.436-15.933,15.406-21.693,9.937-5.734,23.192-8.893,37.326-8.893s27.5,3.159,37.607,8.893c10.35,5.867,16.065,13.719,16.1,22.108.034,8.227-5.441,15.93-15.415,21.693C1038.512,157.72,1025.258,160.876,1011.115,160.876Zm-.969-61.033c-14.04,0-27.2,3.133-37.05,8.821-9.795,5.656-15.169,13.191-15.136,21.217.027,8.18,5.641,15.861,15.809,21.628,10.033,5.687,23.3,8.82,37.346,8.82s27.2-3.13,37.047-8.812c9.8-5.662,15.174-13.2,15.141-21.218-.03-8.184-5.647-15.868-15.82-21.635C1037.451,102.976,1024.192,99.843,1010.146,99.843Z" fill="#ff975d"/>
      <rect id="Rectangle_4566" data-name="Rectangle 4566" width="1.282" height="120.3" transform="translate(1009.99 40.727)" fill="#ff975d"/>
      <path id="Path_88606" data-name="Path 88606" d="M1010.954,131.449c-9.456,0-18.389-2.113-25.154-5.948-6.934-3.933-10.763-9.2-10.782-14.831-.025-5.525,3.644-10.7,10.33-14.559,6.643-3.836,15.508-5.948,24.959-5.948s18.381,2.112,25.147,5.948c6.937,3.933,10.769,9.2,10.789,14.836.025,5.524-3.647,10.694-10.333,14.558C1029.27,129.337,1020.41,131.449,1010.954,131.449Zm-.647-40.739c-9.356,0-18.122,2.086-24.686,5.875-6.508,3.761-10.08,8.761-10.056,14.083.019,5.427,3.749,10.526,10.505,14.357,6.684,3.789,15.522,5.875,24.884,5.875s18.127-2.084,24.682-5.868c6.51-3.762,10.083-8.763,10.06-14.084-.02-5.429-3.753-10.529-10.511-14.362C1028.5,92.8,1019.664,90.71,1010.307,90.71Z" fill="#ff975d"/>
      <g id="Group_18129" data-name="Group 18129" transform="translate(-77.527 -479.527)">
        <path id="Path_88624-4" data-name="Path 88624" d="M12.027,0A12.027,12.027,0,1,1,0,12.027,12.027,12.027,0,0,1,12.027,0Z" transform="translate(1076 628)" fill="#ff975d" opacity="0.4"/>
        <path id="Path_88625-4" data-name="Path 88625" d="M7.051,0A7.051,7.051,0,1,1,0,7.051,7.051,7.051,0,0,1,7.051,0Z" transform="translate(1080.977 632.977)" fill="#ff975d" opacity="0.4"/>
      </g>
      <g id="Group_18130" data-name="Group 18130" transform="translate(-19.733 -502.733)">
        <path id="Path_88624-5" data-name="Path 88624" d="M7.233,0A7.233,7.233,0,1,1,0,7.233,7.233,7.233,0,0,1,7.233,0Z" transform="translate(1076 628)" fill="#ff975d" opacity="0.4"/>
        <path id="Path_88625-5" data-name="Path 88625" d="M4.24,0A4.24,4.24,0,1,1,0,4.24,4.24,4.24,0,0,1,4.24,0Z" transform="translate(1078.993 630.993)" fill="#ff975d" opacity="0.4"/>
      </g>
      <g id="Group_18131" data-name="Group 18131" transform="translate(-91.844 -538.844)">
        <path id="Path_88624-6" data-name="Path 88624" d="M5.676,0A5.676,5.676,0,1,1,0,5.676,5.676,5.676,0,0,1,5.676,0Z" transform="translate(1076 628)" fill="#ff975d" opacity="0.4"/>
        <path id="Path_88625-6" data-name="Path 88625" d="M3.327,0A3.327,3.327,0,1,1,0,3.327,3.327,3.327,0,0,1,3.327,0Z" transform="translate(1078.349 630.349)" fill="#ff975d" opacity="0.4"/>
      </g>
    </g>
    <path id="Path_88607" data-name="Path 88607" d="M842.307,620.523A5.524,5.524,0,0,0,847.079,623a10.825,10.825,0,0,0,5.274-1.613c5.711-3.3,10.616-10.76,11.825-17.775l-2.3,1.328,3.005-7.763,3.045,4.271-2.217,1.282c-.937,7.723-6.344,16.222-12.7,19.894a12.207,12.207,0,0,1-5.974,1.8,6.906,6.906,0,0,1-5.889-3.067l-.28-.409.959-1.135Z" transform="translate(-16107 17060)" fill="#ff975d"/>
    <g id="Group_18114" data-name="Group 18114" transform="translate(-16107 17060)">
      <g id="Group_18110" data-name="Group 18110">
        <g id="Group_18104" data-name="Group 18104">
          <g id="Group_18103" data-name="Group 18103">
            <g id="Group_18101" data-name="Group 18101">
              <path id="Path_88608" data-name="Path 88608" d="M764.479,589.185a.623.623,0,0,1-.317-.089.631.631,0,0,1-.317-.546V554.715a.634.634,0,0,1,1.267,0v32.737l28.221-16.265V537.719a.633.633,0,1,1,1.266,0v33.834a.63.63,0,0,1-.316.548L764.795,589.1A.625.625,0,0,1,764.479,589.185Z" fill="#ff975d"/>
            </g>
            <g id="Group_18102" data-name="Group 18102">
              <path id="Path_88609" data-name="Path 88609" d="M823.455,589.185a.613.613,0,0,1-.315-.089L793.651,572.1a.627.627,0,0,1-.318-.548V537.719a.633.633,0,1,1,1.266,0v33.468l28.222,16.265V554.715a.634.634,0,0,1,1.268,0V588.55a.642.642,0,0,1-.634.635Z" fill="#ff975d"/>
            </g>
          </g>
        </g>
        <g id="Group_18109" data-name="Group 18109">
          <g id="Group_18107" data-name="Group 18107">
            <g id="Group_18105" data-name="Group 18105">
              <path id="Path_88610" data-name="Path 88610" d="M793.967,606.187a.633.633,0,0,1-.634-.631V571.722a.634.634,0,0,1,1.269,0v32.736l28.219-16.264V554.725a.634.634,0,0,1,1.268,0v33.833a.641.641,0,0,1-.317.55l-29.489,17A.634.634,0,0,1,793.967,606.187Z" fill="#ff975d"/>
            </g>
            <g id="Group_18106" data-name="Group 18106">
              <path id="Path_88611" data-name="Path 88611" d="M793.967,606.187a.628.628,0,0,1-.315-.084l-29.49-17a.643.643,0,0,1-.317-.55V554.725a.634.634,0,0,1,.95-.549l29.488,17a.631.631,0,0,1,.319.549v33.834a.63.63,0,0,1-.318.547A.64.64,0,0,1,793.967,606.187Zm-28.855-17.993,28.221,16.264V572.087l-28.221-16.265Z" fill="#ff975d"/>
            </g>
          </g>
          <g id="Group_18108" data-name="Group 18108">
            <path id="Path_88612" data-name="Path 88612" d="M794.066,572.51a.633.633,0,0,1-.316-.088l-29.579-17.077a.628.628,0,0,1-.317-.549.637.637,0,0,1,.315-.546l29.388-17.079a.637.637,0,0,1,.635,0l29.578,17.077a.635.635,0,0,1,0,1.1l-29.387,17.077A.639.639,0,0,1,794.066,572.51ZM765.753,554.8l28.313,16.346L822.189,554.8l-28.312-16.349Z" fill="#ff975d"/>
          </g>
        </g>
      </g>
      <g id="Group_18113" data-name="Group 18113">
        <path id="Path_88613" data-name="Path 88613" d="M808.415,580.538a.352.352,0,0,1-.148-.35,1.271,1.271,0,0,1,.551-.929.372.372,0,0,1,.366-.042h0l113.591,67.3a.357.357,0,0,1,.139.346,1.259,1.259,0,0,1-.553.927.361.361,0,0,1-.362.042l-113.589-67.3Z" fill="#ff975d"/>
        <g id="Group_18124" data-name="Group 18124" transform="translate(-279 -60)">
          <path id="Path_88624-7" data-name="Path 88624" d="M11.155,0A11.155,11.155,0,1,1,0,11.155,11.155,11.155,0,0,1,11.155,0Z" transform="translate(1076 628)" fill="#ff975d" opacity="0.4"/>
          <path id="Path_88625-7" data-name="Path 88625" d="M6.539,0A6.539,6.539,0,1,1,0,6.539,6.539,6.539,0,0,1,6.539,0Z" transform="translate(1080.616 632.616)" fill="#ff975d" opacity="0.4"/>
        </g>
      </g>
    </g>
    <path id="Path_88614" data-name="Path 88614" d="M839.571,612.5c.942-7.727,6.348-16.228,12.7-19.9a12.226,12.226,0,0,1,5.977-1.81,6.922,6.922,0,0,1,5.974,3.2l.263.4-.956,1.15-.483-.738a5.529,5.529,0,0,0-4.839-2.581,10.842,10.842,0,0,0-5.28,1.62c-5.71,3.295-10.615,10.755-11.824,17.769l2.3-1.331-3.013,7.771-3.037-4.278Z" transform="translate(-16107 17060)" fill="#ff975d"/>
    <path id="Path_88441" data-name="Path 88441" d="M1063.71,292.909l-18.651-.313-.074,26.147-7.16,6.026-16.092-5.738a101.479,101.479,0,0,1-19.84,9.928l-.034,12-14,3.841-8.943-9.561a165,165,0,0,1-26.062,2.805l-2.448,10.7-22.948-1.1V336.879a149.248,149.248,0,0,1-18.516-3.522c-2.073-.515-4.318-1.082-6.291-1.668l-11.337,8.534-9.255-3.7.038-13.145q-1.875-.977-3.655-2a80.375,80.375,0,0,1-13.754-9.74l-16.708,4.1V283.311l-17.764-1.461V500.226l7.01.577-.061,21.133,10.815,12.174,16.708-4.1a78.189,78.189,0,0,0,7.457,6v14.929l19.169,7.669,11.337-8.538c1.973.589,3.765,1.158,5.837,1.674a156.525,156.525,0,0,0,18.97,3.52v10.775l22.948,1.1,2.448-10.707c8.9-.254,26.062-2.806,26.062-2.806l8.943,9.563,21-5.762V544.3a95.113,95.113,0,0,0,12.876-6.888l16.092,5.736,13.167-11.083V511.078l12.718.21,1.819-13.427V279.486Z" transform="translate(-16107.217 17060)" fill="#ff975d" opacity="0.29"/>
    <g id="Group_17965" data-name="Group 17965" transform="translate(-16107.244 17060)" opacity="0.63">
      <path id="Path_88501" data-name="Path 88501" d="M947.873,412.3c-64.861,0-117.629-30.582-117.629-68.172s52.768-68.174,117.629-68.174S1065.5,306.535,1065.5,344.127,1012.732,412.3,947.873,412.3Zm0-135.452c-64.368,0-116.734,30.181-116.734,67.28S883.505,411.4,947.873,411.4s116.733-30.182,116.733-67.278S1012.239,276.847,947.873,276.847Z" fill="#ff975d"/>
      <path id="Path_88502" data-name="Path 88502" d="M947.873,444.429c-64.861,0-117.629-30.582-117.629-68.172s52.768-68.175,117.629-68.175S1065.5,338.665,1065.5,376.257,1012.732,444.429,947.873,444.429Zm0-135.452c-64.368,0-116.734,30.182-116.734,67.28s52.366,67.278,116.734,67.278,116.733-30.181,116.733-67.278S1012.239,308.977,947.873,308.977Z" fill="#ff975d"/>
      <path id="Path_88503" data-name="Path 88503" d="M947.873,476.562c-64.861,0-117.629-30.585-117.629-68.176s52.768-68.173,117.629-68.173S1065.5,370.8,1065.5,408.386,1012.732,476.562,947.873,476.562Zm0-135.455c-64.368,0-116.734,30.181-116.734,67.279s52.366,67.279,116.734,67.279,116.733-30.182,116.733-67.279S1012.239,341.107,947.873,341.107Z" fill="#ff975d"/>
      <g id="Group_17964" data-name="Group 17964">
        <path id="Path_88504" data-name="Path 88504" d="M947.873,508.69c-64.861,0-117.629-30.581-117.629-68.173s52.768-68.173,117.629-68.173S1065.5,402.925,1065.5,440.517,1012.732,508.69,947.873,508.69Zm0-135.453c-64.368,0-116.734,30.182-116.734,67.28S883.505,507.8,947.873,507.8s116.733-30.181,116.733-67.278S1012.239,373.237,947.873,373.237Z" fill="#ff975d"/>
      </g>
    </g>
    <g id="Group_18121" data-name="Group 18121" transform="translate(-16107 17064)">
      <g id="Group_17966-3" data-name="Group 17966">
        <path id="Path_88505-3" data-name="Path 88505" d="M968.676,211.067,968.6,237.5l-.483,10.771.075-26.431Z" fill="url(#linear-gradient-3)"/>
      </g>
      <g id="Group_17967-3" data-name="Group 17967">
        <path id="Path_88506-3" data-name="Path 88506" d="M894.243,229.758l-.077,26.431-7.2-10.081.073-26.432Z" fill="#ffc29f"/>
      </g>
      <g id="Group_17968-3" data-name="Group 17968">
        <path id="Path_88507-3" data-name="Path 88507" d="M1023.75,226.164l-.076,26.432-9.717,9.184.075-26.433Z" fill="#ffc29f"/>
      </g>
      <g id="Group_17969-3" data-name="Group 17969">
        <path id="Path_88508-3" data-name="Path 88508" d="M859.9,251.733l-.075,26.432-15-6.7.074-26.433Z" fill="#ffc29f"/>
      </g>
      <g id="Group_17970-3" data-name="Group 17970">
        <path id="Path_88509-3" data-name="Path 88509" d="M1058.51,255.166l-.075,26.431-16.509,5.165.074-26.431Z" fill="#ffb185"/>
      </g>
      <g id="Group_17971-3" data-name="Group 17971">
        <path id="Path_88510-3" data-name="Path 88510" d="M993.266,278.208l-.077,26.431c.021-6.917-4.679-13.707-13.365-18.721a51.132,51.132,0,0,0-8.928-4.008c-21.571-7.418-49.378-3.318-62.109,9.151-4.256,4.17-6.285,8.746-6.3,13.271l.074-26.431c.014-4.525,2.045-9.1,6.3-13.273,12.73-12.467,40.535-16.567,62.107-9.148a51.224,51.224,0,0,1,8.93,4.006C988.586,264.5,993.284,271.289,993.266,278.208Z" fill="#ffc29f"/>
      </g>
      <g id="Group_17972-3" data-name="Group 17972">
        <path id="Path_88511-3" data-name="Path 88511" d="M849.044,280.7l-.075,26.432-18.676-1.461.076-26.431Z" fill="#ffc29f"/>
      </g>
      <g id="Group_17973-3" data-name="Group 17973">
        <path id="Path_88512-3" data-name="Path 88512" d="M1065.453,276.874l-.075,26.431-1.816,13.426.074-26.433Z" fill="#fbd4bf"/>
      </g>
      <g id="Group_17974-3" data-name="Group 17974">
        <path id="Path_88513-3" data-name="Path 88513" d="M1063.636,290.3l-.074,26.433-18.88-.314.074-26.431Z" fill="#ffb185"/>
      </g>
      <g id="Group_17975-3" data-name="Group 17975">
        <path id="Path_88514-3" data-name="Path 88514" d="M853.82,295.773l-.076,26.432a36.885,36.885,0,0,1-4.775-15.075l.075-26.431A36.852,36.852,0,0,0,853.82,295.773Z" fill="#ffc29f"/>
      </g>
      <g id="Group_17976-3" data-name="Group 17976">
        <path id="Path_88515-3" data-name="Path 88515" d="M1044.756,289.985l-.074,26.431a43.091,43.091,0,0,1-6.011,10.921c-.878,1.18-1.834,2.339-2.835,3.47l.074-26.433c1-1.131,1.956-2.288,2.834-3.469A43.093,43.093,0,0,0,1044.756,289.985Z" fill="#ffc29f"/>
      </g>
      <g id="Group_17977-3" data-name="Group 17977">
        <path id="Path_88516-3" data-name="Path 88516" d="M864.613,309.018l-.076,26.43-17.273,4.1.074-26.432Z" fill="#e0ac92"/>
      </g>
      <g id="Group_17978-3" data-name="Group 17978">
        <path id="Path_88517-3" data-name="Path 88517" d="M847.338,313.121l-.074,26.432-10.026-12.182.074-26.431Z" fill="#fbd4bf"/>
      </g>
      <g id="Group_17979-3" data-name="Group 17979">
        <path id="Path_88518-3" data-name="Path 88518" d="M881.793,320.76l-.073,26.432q-1.885-.981-3.672-2.013a78.286,78.286,0,0,1-13.511-9.731l.076-26.43a78.133,78.133,0,0,0,13.51,9.729Q879.91,319.777,881.793,320.76Z" fill="#ffc29f"/>
      </g>
      <g id="Group_17980-3" data-name="Group 17980">
        <path id="Path_88519-3" data-name="Path 88519" d="M1037.75,322.157l-.074,26.43-16.094-5.735.075-26.432Z" fill="#e0ac92"/>
      </g>
      <g id="Group_17981-3" data-name="Group 17981">
        <path id="Path_88520-3" data-name="Path 88520" d="M1050.918,311.072l-.076,26.431-13.166,11.084.074-26.43Z" fill="#ffa97a"/>
      </g>
      <g id="Group_17982-3" data-name="Group 17982">
        <path id="Path_88521-3" data-name="Path 88521" d="M1021.657,316.42l-.075,26.432a103.635,103.635,0,0,1-20.063,9.927l.073-26.433A103.454,103.454,0,0,0,1021.657,316.42Z" fill="#ffc29f"/>
      </g>
      <g id="Group_17983-3" data-name="Group 17983">
        <path id="Path_88522-3" data-name="Path 88522" d="M927.623,334.269l-.076,26.433a157.264,157.264,0,0,1-18.98-3.525c-2.073-.516-4.093-1.082-6.065-1.668l.074-26.433c1.973.587,3.993,1.155,6.066,1.67A156.925,156.925,0,0,0,927.623,334.269Z" fill="#ffc29f"/>
      </g>
      <g id="Group_17984-3" data-name="Group 17984">
        <path id="Path_88523-3" data-name="Path 88523" d="M978.834,332.631l-.073,26.43a164.567,164.567,0,0,1-26.057,2.8l.076-26.432A164.437,164.437,0,0,0,978.834,332.631Z" fill="#ffc29f"/>
      </g>
      <g id="Group_17985-3" data-name="Group 17985">
        <path id="Path_88524-3" data-name="Path 88524" d="M902.576,329.076l-.074,26.434-11.337,8.533.077-26.431Z" fill="#e0ac92"/>
      </g>
      <g id="Group_17986-3" data-name="Group 17986">
        <path id="Path_88525-3" data-name="Path 88525" d="M891.242,337.611l-.077,26.431L872,356.372l.074-26.433Z" fill="#ffa97a"/>
      </g>
      <g id="Group_17987-3" data-name="Group 17987">
        <path id="Path_88526-3" data-name="Path 88526" d="M987.784,342.19l-.076,26.43-8.947-9.56.073-26.43Z" fill="#e0ac92"/>
      </g>
      <g id="Group_17988-3" data-name="Group 17988">
        <path id="Path_88527-3" data-name="Path 88527" d="M1008.782,336.427l-.075,26.434-21,5.76.076-26.43Z" fill="#ffa97a"/>
      </g>
      <path id="Path_88528-3" data-name="Path 88528" d="M1044.756,289.985l18.88.313,1.817-13.424-18.676-1.469A36.783,36.783,0,0,0,1042,260.331l16.51-5.165-10-12.184-17.28,4.11a79.031,79.031,0,0,0-13.539-9.74q-1.785-1.027-3.656-2.005l9.718-9.183-19.164-7.666-11.341,8.531q-2.969-.888-6.054-1.67a156.255,156.255,0,0,0-19-3.521l.482-10.771-23.184-1.1-2.449,10.709a164.087,164.087,0,0,0-26.052,2.8l-8.954-9.561-21,5.76,7.2,10.083a103.321,103.321,0,0,0-20.086,9.931l-16.076-5.734L844.9,245.032l15,6.7c-1,1.13-1.948,2.284-2.828,3.466a43.522,43.522,0,0,0-6.01,10.921l-18.882-.314-1.815,13.432,18.675,1.461a36.852,36.852,0,0,0,4.776,15.074l-16.509,5.168,10.027,12.18,17.275-4.1a78.133,78.133,0,0,0,13.51,9.729q1.787,1.03,3.67,2.013l-9.723,9.18,19.172,7.671,11.334-8.535c1.973.587,3.993,1.155,6.066,1.67a156.925,156.925,0,0,0,18.981,3.523l-.482,10.773,23.185,1.1,2.454-10.709a164.437,164.437,0,0,0,26.054-2.8l8.95,9.56,21-5.764-7.19-10.081a103.454,103.454,0,0,0,20.065-9.926l16.093,5.737,13.168-11.085-15.008-6.7c1-1.131,1.956-2.288,2.834-3.469A43.093,43.093,0,0,0,1044.756,289.985Zm-57.793,1.5c-12.731,12.467-40.541,16.562-62.1,9.145a51.039,51.039,0,0,1-8.939-4.011c-14.363-8.293-17.819-21.443-7.057-31.986,12.73-12.467,40.535-16.567,62.107-9.148a51.224,51.224,0,0,1,8.93,4.006C994.266,267.78,997.729,280.934,986.963,291.48Z" fill="#fff4ee"/>
      <g id="Group_17989-3" data-name="Group 17989">
        <path id="Path_88529-3" data-name="Path 88529" d="M952.78,335.431l-.076,26.432-2.452,10.709.074-26.432Z" fill="#e0ac92"/>
      </g>
      <g id="Group_17990-3" data-name="Group 17990">
        <path id="Path_88530-3" data-name="Path 88530" d="M950.326,346.14l-.074,26.432-23.187-1.1.076-26.431Z" fill="#ffa97a"/>
      </g>
    </g>
    <path id="Path_88531" data-name="Path 88531" d="M1143.689,274.671a.437.437,0,0,0-.421,0l-.229.136L948.7,159.959a.416.416,0,0,0-.428,0L752.684,274.794l-.206-.122a.441.441,0,0,0-.423,0,.426.426,0,0,0-.211.368V503.27a.427.427,0,0,0,.206.364L947.658,618.289h0v.007a.452.452,0,0,0,.212.054.442.442,0,0,0,.211-.054v-.007h0l195.609-114.655a.42.42,0,0,0,.211-.364V275.039A.423.423,0,0,0,1143.689,274.671ZM948.482,160.814,1142.2,275.3,947.87,389.206,753.519,275.284ZM752.688,275.777,947.447,389.938V617.19L752.688,503.026Zm195.6,341.413V389.938L1143.036,275.79l.023.012V503.026Z" transform="translate(-16107 17060)" fill="#ff975d"/>
    <g id="Group_18125" data-name="Group 18125" transform="translate(-16577 16871)">
      <path id="Path_88624-8" data-name="Path 88624" d="M14.5,0A14.5,14.5,0,1,1,0,14.5,14.5,14.5,0,0,1,14.5,0Z" transform="translate(1076 628)" fill="#ff975d" opacity="0.4"/>
      <path id="Path_88625-8" data-name="Path 88625" d="M8.5,0A8.5,8.5,0,1,1,0,8.5,8.5,8.5,0,0,1,8.5,0Z" transform="translate(1082 634)" fill="#ff975d" opacity="0.4"/>
    </g>
    <g id="Group_18127" data-name="Group 18127" transform="translate(-16414.289 16531)">
      <path id="Path_88624-9" data-name="Path 88624" d="M7.645,0A7.645,7.645,0,1,1,0,7.645,7.645,7.645,0,0,1,7.645,0Z" transform="translate(1076 628)" fill="#ff975d" opacity="0.4"/>
      <path id="Path_88625-9" data-name="Path 88625" d="M4.481,0A4.481,4.481,0,1,1,0,4.481,4.481,4.481,0,0,1,4.481,0Z" transform="translate(1079.163 631.163)" fill="#ff975d" opacity="0.4"/>
    </g>
    <g id="Group_18128" data-name="Group 18128" transform="translate(-16122 16654)">
      <path id="Path_88624-10" data-name="Path 88624" d="M14.5,0A14.5,14.5,0,1,1,0,14.5,14.5,14.5,0,0,1,14.5,0Z" transform="translate(1076 628)" fill="#ff975d" opacity="0.4"/>
      <path id="Path_88625-10" data-name="Path 88625" d="M8.5,0A8.5,8.5,0,1,1,0,8.5,8.5,8.5,0,0,1,8.5,0Z" transform="translate(1082 634)" fill="#ff975d" opacity="0.4"/>
    </g>
    <g id="Group_18132" data-name="Group 18132" transform="translate(-15973.637 16885.363)">
      <path id="Path_88624-11" data-name="Path 88624" d="M8.137,0A8.137,8.137,0,1,1,0,8.137,8.137,8.137,0,0,1,8.137,0Z" transform="translate(1076 628)" fill="#ff975d" opacity="0.4"/>
      <path id="Path_88625-11" data-name="Path 88625" d="M4.77,0A4.77,4.77,0,1,1,0,4.77,4.77,4.77,0,0,1,4.77,0Z" transform="translate(1079.367 631.367)" fill="#ff975d" opacity="0.4"/>
    </g>
    <rect id="Rectangle_4573" data-name="Rectangle 4573" width="805" height="635" transform="translate(-15606.25 17101)" fill="none"/>
  </g>
</svg>
