<svg xmlns="http://www.w3.org/2000/svg" xmlns:xlink="http://www.w3.org/1999/xlink" width="203.075" height="211" viewBox="0 0 203.075 211">
  <defs>
    <linearGradient id="linear-gradient" x1="-0.448" y1="-5.087" x2="-0.448" y2="-6.562" gradientUnits="objectBoundingBox">
      <stop offset="0" stop-color="#fadae3"/>
      <stop offset="1" stop-color="#efb8c2"/>
    </linearGradient>
    <linearGradient id="linear-gradient-2" y1="0.5" x2="1" y2="0.5" gradientUnits="objectBoundingBox">
      <stop offset="0"/>
      <stop offset="1" stop-color="#333"/>
    </linearGradient>
    <linearGradient id="linear-gradient-3" x1="0.515" y1="-0.005" x2="0.485" y2="1.005" gradientUnits="objectBoundingBox">
      <stop offset="0" stop-color="#fff8f3"/>
      <stop offset="1" stop-color="#ffe4d5"/>
    </linearGradient>
    <linearGradient id="linear-gradient-4" x1="-0.191" y1="0.607" x2="1.194" y2="0.442" xlink:href="#linear-gradient"/>
    <linearGradient id="linear-gradient-5" x1="0.157" y1="1.093" x2="1.033" y2="1.093" gradientUnits="objectBoundingBox">
      <stop offset="0" stop-color="#355c90"/>
      <stop offset="1" stop-color="#012847"/>
    </linearGradient>
    <linearGradient id="linear-gradient-6" x1="4.765" y1="-0.032" x2="5.765" y2="-0.297" gradientUnits="objectBoundingBox">
      <stop offset="0" stop-color="#e2c7ce"/>
      <stop offset="1" stop-color="#dfacb6"/>
    </linearGradient>
    <linearGradient id="linear-gradient-7" x1="-6.312" y1="1.611" x2="-5.46" y2="1.611" xlink:href="#linear-gradient"/>
    <linearGradient id="linear-gradient-8" x1="-1.803" y1="-5.578" x2="-1.245" y2="-5.578" xlink:href="#linear-gradient"/>
    <linearGradient id="linear-gradient-9" x1="-1.96" y1="0.282" x2="-0.971" y2="0.282" xlink:href="#linear-gradient"/>
    <linearGradient id="linear-gradient-10" y1="0.5" x2="1" y2="0.5" gradientUnits="objectBoundingBox">
      <stop offset="0" stop-color="#afcbeb"/>
      <stop offset="1" stop-color="#73a5d9"/>
    </linearGradient>
    <linearGradient id="linear-gradient-11" x1="0.487" y1="0.217" x2="1.563" y2="0.217" xlink:href="#linear-gradient-10"/>
    <linearGradient id="linear-gradient-12" x1="0" y1="0.5" x2="1" y2="0.5" xlink:href="#linear-gradient-5"/>
    <linearGradient id="linear-gradient-13" x1="-0.451" y1="0.332" x2="0.537" y2="0.286" xlink:href="#linear-gradient"/>
    <linearGradient id="linear-gradient-14" x1="3.627" y1="1.154" x2="4.577" y2="1.068" xlink:href="#linear-gradient-5"/>
    <linearGradient id="linear-gradient-15" x1="0.035" y1="0.999" x2="0.978" y2="0.999" xlink:href="#linear-gradient-5"/>
    <linearGradient id="linear-gradient-16" x1="1" y1="0.5" x2="0" y2="0.5" gradientUnits="objectBoundingBox">
      <stop offset="0" stop-color="#75acde"/>
      <stop offset="1" stop-color="#3e6dac"/>
    </linearGradient>
    <linearGradient id="linear-gradient-17" x1="0.005" y1="0.497" x2="0.994" y2="0.502" xlink:href="#linear-gradient"/>
    <linearGradient id="linear-gradient-18" y1="0.5" x2="1" y2="0.5" gradientUnits="objectBoundingBox">
      <stop offset="0" stop-color="#ffa877"/>
      <stop offset="1" stop-color="#ffb084"/>
    </linearGradient>
    <linearGradient id="linear-gradient-19" x1="0.53" y1="-0.002" x2="0.47" y2="1.002" gradientUnits="objectBoundingBox">
      <stop offset="0" stop-color="#ffdecb"/>
      <stop offset="1" stop-color="#ff975d"/>
    </linearGradient>
    <linearGradient id="linear-gradient-21" x1="0.523" y1="1.013" x2="0.477" y2="-0.013" gradientUnits="objectBoundingBox">
      <stop offset="0" stop-color="#b6b7bb"/>
      <stop offset="1" stop-color="#556484"/>
    </linearGradient>
    <linearGradient id="linear-gradient-33" x1="0.498" y1="1.201" x2="0.498" y2="-0.217" gradientUnits="objectBoundingBox">
      <stop offset="0" stop-color="#fff"/>
      <stop offset="1" stop-color="#ffe2d2"/>
    </linearGradient>
    <linearGradient id="linear-gradient-34" y1="0.5" x2="1" y2="0.5" gradientUnits="objectBoundingBox">
      <stop offset="0" stop-color="#ec691f"/>
      <stop offset="1" stop-color="#ab4a0a"/>
    </linearGradient>
    <linearGradient id="linear-gradient-35" y1="0.5" x2="1" y2="0.5" gradientUnits="objectBoundingBox">
      <stop offset="0" stop-color="#ffe3d4"/>
      <stop offset="1" stop-color="#ff975d"/>
    </linearGradient>
    <linearGradient id="linear-gradient-36" y1="0.5" x2="1" y2="0.5" gradientUnits="objectBoundingBox">
      <stop offset="0" stop-color="#ff975d"/>
      <stop offset="1" stop-color="#ffcfb4"/>
    </linearGradient>
    <linearGradient id="linear-gradient-37" y1="0.5" x2="1" y2="0.5" gradientUnits="objectBoundingBox">
      <stop offset="0" stop-color="#ffefe6"/>
      <stop offset="0.879" stop-color="#ffa16c"/>
      <stop offset="1" stop-color="#ff975d"/>
    </linearGradient>
    <linearGradient id="linear-gradient-39" x1="0" y1="0.5" x2="1" y2="0.5" xlink:href="#linear-gradient-16"/>
    <linearGradient id="linear-gradient-70" y1="0.5" x2="1" y2="0.5" gradientUnits="objectBoundingBox">
      <stop offset="0" stop-color="#fec1a0"/>
      <stop offset="1" stop-color="#ffe9dc"/>
    </linearGradient>
    <linearGradient id="linear-gradient-72" y1="0.5" x2="1" y2="0.5" gradientUnits="objectBoundingBox">
      <stop offset="0" stop-color="#ab4a0a"/>
      <stop offset="1" stop-color="#e36410"/>
    </linearGradient>
    <linearGradient id="linear-gradient-73" y1="0.5" x2="1" y2="0.5" gradientUnits="objectBoundingBox">
      <stop offset="0" stop-color="#f4ff5d"/>
      <stop offset="1" stop-color="#ff975d"/>
    </linearGradient>
    <linearGradient id="linear-gradient-79" y1="0.5" x2="1" y2="0.5" gradientUnits="objectBoundingBox">
      <stop offset="0" stop-color="#ffd7c1"/>
      <stop offset="1" stop-color="#ffd4bb"/>
    </linearGradient>
    <linearGradient id="linear-gradient-80" y1="0.5" x2="1" y2="0.5" gradientUnits="objectBoundingBox">
      <stop offset="0" stop-color="#ff975d"/>
      <stop offset="0.466" stop-color="#d87336"/>
      <stop offset="1" stop-color="#ab4a0a"/>
    </linearGradient>
    <linearGradient id="linear-gradient-81" y1="0.5" x2="1" y2="0.5" gradientUnits="objectBoundingBox">
      <stop offset="0" stop-color="#f8d2bd"/>
      <stop offset="1" stop-color="#ff975d"/>
    </linearGradient>
    <linearGradient id="linear-gradient-82" x1="-82.319" y1="12.188" x2="-81.277" y2="12.188" gradientUnits="objectBoundingBox">
      <stop offset="0" stop-color="#e1f1fc"/>
      <stop offset="1" stop-color="#b7d5f1"/>
    </linearGradient>
    <linearGradient id="linear-gradient-83" x1="4.822" y1="-2.792" x2="5.951" y2="-4.33" xlink:href="#linear-gradient-5"/>
    <linearGradient id="linear-gradient-84" x1="-97.545" y1="29.918" x2="-96.576" y2="29.918" xlink:href="#linear-gradient-82"/>
    <linearGradient id="linear-gradient-85" x1="12.954" y1="-1.571" x2="14.658" y2="-2.577" xlink:href="#linear-gradient-5"/>
    <linearGradient id="linear-gradient-86" x1="0" y1="0.5" x2="1" y2="0.5" xlink:href="#linear-gradient-6"/>
    <linearGradient id="linear-gradient-87" x1="-3.081" y1="3.297" x2="-2.06" y2="3.297" xlink:href="#linear-gradient"/>
    <linearGradient id="linear-gradient-88" x1="-16.27" y1="17.789" x2="-17.289" y2="17.789" xlink:href="#linear-gradient"/>
    <linearGradient id="linear-gradient-89" x1="0" y1="0.5" x2="1" y2="0.5" xlink:href="#linear-gradient-82"/>
    <linearGradient id="linear-gradient-90" x1="0.3" y1="1.196" x2="0.693" y2="-0.197" xlink:href="#linear-gradient-5"/>
    <linearGradient id="linear-gradient-92" x1="0.061" y1="-0.146" x2="0.827" y2="0.946" xlink:href="#linear-gradient-82"/>
    <linearGradient id="linear-gradient-93" x1="8.769" y1="-36.554" x2="9.543" y2="-37.655" xlink:href="#linear-gradient-5"/>
    <linearGradient id="linear-gradient-94" x1="10.144" y1="-2.743" x2="9.33" y2="0.654" xlink:href="#linear-gradient"/>
    <linearGradient id="linear-gradient-95" x1="-1.08" y1="0.5" x2="1" y2="0.5" xlink:href="#linear-gradient-82"/>
    <linearGradient id="linear-gradient-96" x1="-48.716" y1="-3.405" x2="-48.902" y2="-2.721" xlink:href="#linear-gradient-5"/>
    <linearGradient id="linear-gradient-97" x1="-20.395" y1="-0.892" x2="-20.589" y2="-0.16" xlink:href="#linear-gradient"/>
    <linearGradient id="linear-gradient-107" y1="0.5" x2="1" y2="0.5" gradientUnits="objectBoundingBox">
      <stop offset="0" stop-color="#fff7f2"/>
      <stop offset="1" stop-color="#ff975d"/>
    </linearGradient>
  </defs>
  <g id="img_simple_use" transform="translate(-566.256 10686.989)">
    <path id="Path_98359" data-name="Path 98359" d="M313.137,1753.718s-69.893-4.541-71.881,7.987c11.7,34.529,200.074,17.021,202.979,6.3C446.841,1758.394,395.664,1738.406,313.137,1753.718Z" transform="translate(325 -12258.061)" opacity="0.5" fill="url(#linear-gradient)"/>
    <g id="Group_21563" data-name="Group 21563" transform="translate(575.454 -10686.989)">
      <path id="Path_98555" data-name="Path 98555" d="M5.49,0H69.713A5.491,5.491,0,0,1,75.2,5.491V128.854a5.49,5.49,0,0,1-5.49,5.49H5.49A5.49,5.49,0,0,1,0,128.854V5.49A5.49,5.49,0,0,1,5.49,0Z" transform="translate(119.05 186.651) rotate(180)" fill="url(#linear-gradient-2)"/>
      <path id="Path_98360" data-name="Path 98360" d="M933.119,715.842c0,.183-.23.331-.514.331H909.288c-.284,0-.514-.148-.514-.331h0c0-.184.229-.332.514-.332h23.317c.284,0,.514.148.514.332Z" transform="translate(-839.499 -659.845)" fill="#707070"/>
      <path id="Path_98554" data-name="Path 98554" d="M0,0H71.886V118.47H0Z" transform="translate(45.505 60.293)" fill="url(#linear-gradient-3)"/>
      <path id="Path_98361" data-name="Path 98361" d="M1550.126,1038.092s-1.226,1.109-1.4,5.722c.526.467,2.161,1.109,2.161.934S1552.462,1037.1,1550.126,1038.092Z" transform="translate(-1404.217 -944.424)" fill="url(#linear-gradient-4)"/>
      <path id="Path_98362" data-name="Path 98362" d="M1388.1,1012.6c.652,3.382,2.687,8.453,7.55,16.016,4.213,4.665,8.988,2.131,10.689-.182s3.3-8.79,3.4-12.427c-1.709-1.916-3.021-1.708-3.021-1.708s-2.635,5.578-3.663,5.674c-.76.07-1.514-7.13-5.145-11.767C1394.522,1003.871,1387.066,1007.233,1388.1,1012.6Z" transform="translate(-1262.389 -916.38)" fill="url(#linear-gradient-5)"/>
      <path id="Path_98363" data-name="Path 98363" d="M1385.611,971.715a20,20,0,0,0,2.313-2.937c.159-.243,3.207-6.844,3.988-7.034a9.575,9.575,0,0,1,4.145.371c.368.187-.793,2.891-.9,4.3-.248,3.194,1.244,4.618,1.519,5.575C1397.328,974.263,1387.493,975.406,1385.611,971.715Z" transform="translate(-1260.278 -877.054)" fill="url(#linear-gradient-6)"/>
      <path id="Path_98364" data-name="Path 98364" d="M1485.2,1762.675l.848,5.813a1.273,1.273,0,0,0,.434,1.958,7.094,7.094,0,0,0,4.7.063c1.162-.707-3.022-2-3.022-2l-1.079-7.185Z" transform="translate(-1348.161 -1582.708)" fill="url(#linear-gradient-7)"/>
      <path id="Path_98365" data-name="Path 98365" d="M1488.33,1821.155s5.276,1.862,5.442,3.081c.265,1.948-7.721.339-8.582-.821-.826-1.113.526-2.349.526-2.349S1486.58,1822.147,1488.33,1821.155Z" transform="translate(-1347.915 -1635.432)" fill="#252e5f"/>
      <path id="Path_98366" data-name="Path 98366" d="M1510.943,1824.547a2.62,2.62,0,0,0-.854.884C1510.033,1825.788,1511.716,1824.48,1510.943,1824.547Z" transform="translate(-1370.122 -1638.502)" fill="#ededed"/>
      <path id="Path_98367" data-name="Path 98367" d="M1520.1,1828.734a2.588,2.588,0,0,0-.844.883C1519.206,1829.974,1520.87,1828.67,1520.1,1828.734Z" transform="translate(-1378.215 -1642.197)" fill="#ededed"/>
      <path id="Path_98368" data-name="Path 98368" d="M1529.651,1832.1a2.194,2.194,0,0,0-.718.781C1528.891,1833.2,1530.311,1832.051,1529.651,1832.1Z" transform="translate(-1386.751 -1645.169)" fill="#ededed"/>
      <path id="Path_98369" data-name="Path 98369" d="M1347.892,1576.437l-5.746,1.217a1.273,1.273,0,0,0-1.926.558,7.1,7.1,0,0,0,.237,4.7c.779,1.114,1.807-3.144,1.807-3.144l7.1-1.536Z" transform="translate(-1219.954 -1419.562)" fill="url(#linear-gradient-8)"/>
      <path id="Path_98370" data-name="Path 98370" d="M1335.15,1583.507s-.833,5.532-2,5.925c-1.863.629-1.789-7.519-.813-8.583.937-1.021,2.406.074,2.406.074S1333.846,1581.975,1335.15,1583.507Z" transform="translate(-1212.672 -1423.071)" fill="#252e5f"/>
      <path id="Path_98371" data-name="Path 98371" d="M1351.165,1605.593a2.622,2.622,0,0,0-1.029-.672C1349.775,1604.933,1351.376,1606.338,1351.165,1605.593Z" transform="translate(-1228.927 -1444.697)" fill="#ededed"/>
      <path id="Path_98372" data-name="Path 98372" d="M1348.791,1615.376a2.583,2.583,0,0,0-1.026-.662C1347.4,1614.728,1349,1616.116,1348.791,1615.376Z" transform="translate(-1226.834 -1453.339)" fill="#ededed"/>
      <path id="Path_98373" data-name="Path 98373" d="M1348.083,1625.238a2.192,2.192,0,0,0-.9-.558C1346.86,1624.7,1348.256,1625.876,1348.083,1625.238Z" transform="translate(-1226.324 -1462.133)" fill="#ededed"/>
      <path id="Path_98374" data-name="Path 98374" d="M1432.411,884.641c-.38.2-5.556,2.328-3.946,9.149.2,1.577,6.03,8.042,8.084.453C1438.257,887.937,1436.632,882.459,1432.411,884.641Z" transform="translate(-1297.821 -808.663)" fill="url(#linear-gradient-9)"/>
      <path id="Path_98375" data-name="Path 98375" d="M1386.32,1301.823s4.656,32.053,11.429,58.461c3.036.337,3.678-.21,3.678-.21s-.23-56.923-.745-57.914S1386.32,1301.823,1386.32,1301.823Z" transform="translate(-1260.904 -1177.044)" fill="url(#linear-gradient-10)"/>
      <path id="Path_98376" data-name="Path 98376" d="M1366.144,1279.064s14.58,20.639,16.036,24.266a6.692,6.692,0,0,1-4.96,8.616c-3.669.774-10.1.931-22.428,1.482-.1-1.986-.2-3.367-.2-3.367s11.221-5.565,16.337-5.891c.111-.007-24.349-12.833-17.354-28.823C1357.06,1271.456,1366.144,1279.064,1366.144,1279.064Z" transform="translate(-1230.9 -1152.89)" fill="url(#linear-gradient-11)"/>
      <path id="Path_98377" data-name="Path 98377" d="M1329.585,998.438s-.829,1.215-3.861,6.657c-4.455,8-5.949,33.22-.432,38.3,1.137.612,12.53.247,19.974-3.694,2.365-2.978.517-27.2-5.763-37.5a1.066,1.066,0,0,0-1.088-.478C1336.4,1002.059,1331.326,999.63,1329.585,998.438Z" transform="translate(-1203.911 -909.512)" fill="url(#linear-gradient-12)"/>
      <path id="Path_98378" data-name="Path 98378" d="M1550.9,1049.584s.023-3.548,1.2-3.778.7-2.975,2.666-1.723-.189,5.343-1.212,6.036c-.164.111-1.767,2.981-1.927,2.978a4.5,4.5,0,0,1-2.219-1.139C1549.27,1051.759,1550.9,1049.584,1550.9,1049.584Z" transform="translate(-1404.812 -949.504)" fill="url(#linear-gradient-13)"/>
      <path id="Path_98379" data-name="Path 98379" d="M1347.379,995.253s-7.286-3.7-12.394,2.539c-1.608,2-2.863,3.173-3.511,3.044s-1.541-8.078,3.039-10.273C1338.175,989.663,1345.568,992.489,1347.379,995.253Z" transform="translate(-1212.037 -902.413)" fill="url(#linear-gradient-14)"/>
      <path id="Path_98380" data-name="Path 98380" d="M1390.242,1028.564c.409,3.488,2.036,8.819,6.218,16.941,3.746,5.124,8.494,3,10.277.817s6.788-9.928,7.123-13.6a6.519,6.519,0,0,0-3.737-2.511s-6.6,9.167-7.591,9.167c-.734,0,.605-9.3-2.582-14.344C1396.972,1020.322,1389.595,1023.03,1390.242,1028.564Z" transform="translate(-1264.33 -930.847)" fill="url(#linear-gradient-15)"/>
      <path id="Path_98381" data-name="Path 98381" d="M1559.716,998.3l-2.078,6.99a.46.46,0,0,0,.2.523l3.066,1.875a.46.46,0,0,0,.681-.26l2.513-8.379a.46.46,0,0,0-.377-.588l-3.5-.485A.46.46,0,0,0,1559.716,998.3Z" transform="translate(-1412.065 -909.102)" fill="#252e5f"/>
      <path id="Path_98382" data-name="Path 98382" d="M1564.8,1001.219l-1.748,5.88a.27.27,0,0,0,.118.306l2.694,1.647a.269.269,0,0,0,.4-.152l2.13-7.1a.269.269,0,0,0-.221-.344l-3.075-.426A.27.27,0,0,0,1564.8,1001.219Z" transform="translate(-1416.851 -911.796)" fill="url(#linear-gradient-16)"/>
      <path id="Path_98383" data-name="Path 98383" d="M1420.759,871.753l.791-.476s-.321-4.037,2.2-3.16c3.061,1.067,5.409.719,6.4-2.256.357-1.327-1.689-.343-1.689-.343s2.556-1.107,1.421-3.469c-1.095-1.274-1.328.332-3.349.7-3.075.553-5.7-1.219-7.991,1.927s-2.115,5.994-.007,10.007c.3-.679.694-2.065.694-2.065s-.679-2.92,1.107-2.661C1421.006,870.049,1420.759,871.753,1420.759,871.753Z" transform="translate(-1287.874 -788.731)" fill="#252e5f"/>
      <path id="Path_98384" data-name="Path 98384" d="M1581.33,1041.706s-.569-.219-.7.7a5.191,5.191,0,0,1-1.694,3.481c-.948.671.237,2.1.635,1.949a5.13,5.13,0,0,0,1.978-2.934C1581.592,1043.72,1581.87,1041.837,1581.33,1041.706Z" transform="translate(-1430.559 -947.674)" fill="url(#linear-gradient-17)"/>
      <path id="Path_98385" data-name="Path 98385" d="M1686.623,1567.27a8.706,8.706,0,0,0,.482,2.111c.153.434.313.863.473,1.293q.133.358.266.717a4.8,4.8,0,0,1,.546,1.784c.052.4.08.812.107,1.21.016.229.031.457.051.686a6.192,6.192,0,0,1-.233,1.475,8.527,8.527,0,0,0-.5,1.331,7.07,7.07,0,0,0-.264,1.414,5.514,5.514,0,0,0,.062,1.44,3.6,3.6,0,0,0,.535,1.341,3.4,3.4,0,0,0,1.027.995,4.3,4.3,0,0,0,1.307.539,5.885,5.885,0,0,0,1.076.145c.084,0,.172,0,.259,0,0,.185.005.362.008.521l.018,1.136c.006.439.013.838.02,1.2l-.039,1.983.372-.057-.033-1.935c0-.365,0-.763,0-1.2v-1.136c0-.165,0-.34,0-.521a10.58,10.58,0,0,0,1.107-.1,10.181,10.181,0,0,0,2.713-.688,6.791,6.791,0,0,0,1.249-.689,5.5,5.5,0,0,0,1.054-.992A5.189,5.189,0,0,0,1699,1580c.028-.081.052-.16.076-.24l.1-.342c.01-.041.02-.083.028-.125a3.765,3.765,0,0,0,.076-.74,4.14,4.14,0,0,0-.265-1.447,7.727,7.727,0,0,0-.628-1.29.2.2,0,0,0-.026-.035l-.251-.255-.229-.262a5,5,0,0,1-.4-.565,3.769,3.769,0,0,1-.3-.621,3.342,3.342,0,0,1-.2-1.356,3.989,3.989,0,0,1,.1-.689,4.963,4.963,0,0,1,.219-.665,5.75,5.75,0,0,1,.307-.639,10.874,10.874,0,0,1,1.739-2.262l.511-.512a2.77,2.77,0,0,0,.455-.631,2.733,2.733,0,0,0,.262-.735,2.86,2.86,0,0,0,.047-.392,2.664,2.664,0,0,0-.011-.352l0-.031h0v-.01s0,0,0-.007l-.046-.4-.1-.411-.143-.393-.172-.375-.191-.36-.2-.35-.609-1.025-.18-.347-.157-.355-.123-.365-.077-.373c0-.037-.005-.084-.009-.132-.006-.081-.013-.161-.014-.242,0-.039.007-.087.012-.135.005-.08.011-.161.022-.241l.086-.359c.234-.464.516-.917.789-1.354.1-.155.193-.31.289-.467a8.9,8.9,0,0,0,.958-1.964,4.3,4.3,0,0,0,.2-1.1v-.272l-.036-.29a1.546,1.546,0,0,0-.092-.39c-.017-.051-.034-.1-.048-.154a2.752,2.752,0,0,0-1.586-1.491,4.584,4.584,0,0,0-1.037-.278c-.207-.023-.373-.036-.527-.043a4.268,4.268,0,0,0-.55.007,5.48,5.48,0,0,0-1.062.172,5.75,5.75,0,0,0-1,.4,7.052,7.052,0,0,0-1.756,1.254,8.055,8.055,0,0,0-1.331,1.718,9.168,9.168,0,0,0-.49.978,7.611,7.611,0,0,0-.338,1.043c-.053.206-.1.416-.138.619-.03.146-.06.292-.093.436a8.468,8.468,0,0,1-.316,1.011,10.6,10.6,0,0,1-.965,1.891,20.773,20.773,0,0,1-1.242,1.733l-.668.836c-.077.093-.151.191-.226.29l-.1.136c-.03.048-.056.088-.082.128a3,3,0,0,0-.2.352A3.935,3.935,0,0,0,1686.623,1567.27Zm7.381-11.708.073.306c.064.23.129.428.2.608a6.207,6.207,0,0,0,.249.58c.089.187.189.374.3.557s.2.325.3.473l-.245.736c-.025.081-.052.16-.079.24-.05.149-.1.3-.144.453l-.2.72q-.065.242-.134.488c-.092.331-.185.668-.272,1.012l-.53,2.371-.021-.006a.243.243,0,0,1-.049-.02l-.035-.016a1.03,1.03,0,0,1-.177-.131,2.769,2.769,0,0,1-.328-.373,7.477,7.477,0,0,1-.539-.857c-.149-.26-.28-.519-.405-.77l-.042-.084c-.126-.253-.249-.517-.365-.784l-.047-.11c-.088-.2-.17-.392-.237-.565-.079-.2-.145-.383-.2-.531a3.662,3.662,0,0,1-.131-.464.065.065,0,0,0-.015-.032q.083-.259.158-.55c.036-.151.067-.3.1-.447.042-.2.086-.405.138-.6a7.387,7.387,0,0,1,.332-1,8.647,8.647,0,0,1,.478-.944,7.759,7.759,0,0,1,1.289-1.654,6.817,6.817,0,0,1,.533-.459,2.335,2.335,0,0,0-.039.251c0,.043-.008.075-.012.107a1.7,1.7,0,0,0-.017.229l0,.314c0,.081.007.16.014.24l.007.083a2.857,2.857,0,0,0,.042.322c.007.035.013.072.018.108C1693.977,1555.425,1693.988,1555.494,1694,1555.562Zm3.919-3.12-.166.2c-.055.072-.113.154-.178.245l-.121.169c-.077.107-.152.229-.23.359-.044.071-.089.146-.139.223-.1.151-.191.323-.287.505-.041.079-.083.16-.128.241l-.289.561-.157.342c-.262.533-.5,1.151-.757,1.806l-.162.417-.052.156c-.135-.229-.268-.486-.4-.78-.034-.07-.064-.141-.093-.211l-.028-.065c-.04-.093-.078-.185-.113-.279l-.025-.063c-.028-.072-.057-.144-.079-.219l-.1-.291-.083-.291c-.018-.061-.03-.123-.043-.185l-.024-.109a2.345,2.345,0,0,1-.051-.291c-.005-.043-.012-.085-.019-.127-.009-.058-.019-.116-.023-.174l-.021-.306a1.215,1.215,0,0,1,0-.179c0-.042,0-.083,0-.124a1.935,1.935,0,0,1,.016-.294l.019-.165a6.674,6.674,0,0,1,.919-.556,5.463,5.463,0,0,1,.958-.38,5.246,5.246,0,0,1,1-.157A4.571,4.571,0,0,1,1697.923,1552.443Zm2.364,4.059c-.323.155-.674.309-1.071.47-.21.086-.424.165-.637.243-.2.072-.408.143-.645.217-.079.027-.156.049-.234.072l-.149.043c-.089.026-.177.052-.267.073l-.331.082-.33.066c-.074.017-.146.026-.219.036l-.112.016a3.187,3.187,0,0,1-.328.038c-.04,0-.081.005-.122.009a1.762,1.762,0,0,1-.208.01h-.148l.086-.265.158-.416c.246-.649.478-1.263.731-1.789l.213-.475.219-.42c.044-.083.087-.165.128-.245.092-.178.178-.345.272-.489.05-.08.1-.156.138-.229.076-.126.147-.246.218-.347l.119-.169c.062-.09.118-.171.169-.239l.264-.312a3.887,3.887,0,0,1,.862.243,2.463,2.463,0,0,1,1.419,1.324c.011.044.028.1.046.151a1.259,1.259,0,0,1,.075.325l.035.261,0,.258a3.989,3.989,0,0,1-.184,1.011C1700.4,1556.207,1700.347,1556.354,1700.287,1556.5Zm-1.873,3.3a.211.211,0,0,0-.009.021l-.1.413c-.015.1-.021.194-.028.287,0,.047-.007.094-.011.139,0,.1.008.2.016.292,0,.045.007.091.01.137.023.132.05.253.076.374l.009.043.019.057c-.214.162-.69.515-1.334.942-.26.17-.5.321-.731.461-.3.18-.574.335-.835.473l-.453.225c-.053.022-.109.046-.166.072-.1.044-.2.089-.3.126a4.039,4.039,0,0,1-.707.206l.49-2.262c.078-.318.163-.633.246-.943.049-.185.1-.368.146-.55l.191-.719c.041-.149.089-.3.137-.441.026-.082.052-.162.078-.243l.226-.7.258,0a2.043,2.043,0,0,0,.231-.018c.04,0,.079-.009.119-.011a3.486,3.486,0,0,0,.35-.049l.109-.018c.078-.013.158-.026.235-.046l.334-.076.335-.092c.091-.024.182-.052.272-.081l.151-.048c.08-.025.161-.05.241-.08.375-.127.772-.284,1.284-.508.316-.14.6-.274.866-.407a11.786,11.786,0,0,1-.644,1.171q-.143.232-.288.463C1698.95,1558.855,1698.66,1559.317,1698.414,1559.8Zm1.749,7c-.5.322-1.042.654-1.665,1.011-.306.177-.612.344-.952.528-.306.161-.634.333-.967.494-.162.083-.325.16-.489.235l-.176.081c-.1.05-.209.1-.317.144l-.5.213c-.107.044-.216.085-.325.126l-.179.068c-.16.064-.317.116-.506.177l-.135.044c-.123.04-.249.083-.375.111l-.188.049c-.11.029-.22.059-.332.081l-.12.022.225-1.759c.023-.17.045-.342.066-.513.05-.4.1-.808.177-1.2l.288-1.691c.017-.1.034-.2.05-.294s.037-.213.057-.32a4.059,4.059,0,0,0,.875-.26c.109-.041.216-.091.318-.14l.166-.077.46-.24c.307-.172.589-.341.841-.5.233-.151.47-.31.726-.488.594-.419,1.041-.769,1.271-.952.017.052.034.1.052.157l.057.133c.036.083.071.165.108.247l.186.362.2.352.608,1.028.183.347.161.353.13.364.09.371.047.458a2,2,0,0,1,.006.264,2.467,2.467,0,0,1-.042.334A2.362,2.362,0,0,1,1700.163,1566.807Zm-3.191,4.418a5.44,5.44,0,0,0-.236.719,4.4,4.4,0,0,0-.114.76,3.586,3.586,0,0,0,.036.768,3.3,3.3,0,0,0,.065.331c-.308.235-.644.479-1.028.742-.408.281-.792.528-1.174.755-.15.092-.3.178-.455.264l-.149.084-.306.161c-.067.037-.134.068-.2.1l-.109.052c-.12.059-.219.1-.31.14-.038.015-.077.031-.115.047a2.034,2.034,0,0,1-.2.079l-.119.04-.117.039.1-1.805.344-3.9.009-.071.224-.044c.118-.026.234-.058.349-.091.061-.017.123-.035.185-.051.133-.033.264-.079.39-.123l.135-.047c.186-.062.353-.12.519-.189l.178-.071c.11-.044.221-.087.33-.135l.5-.222c.109-.047.216-.1.323-.152l.173-.083c.166-.079.33-.16.493-.245.328-.166.652-.345.965-.517.354-.2.648-.369.949-.552.524-.315.994-.611,1.426-.9-.006.012-.011.027-.017.039a2.383,2.383,0,0,1-.4.547l-.513.509a14.568,14.568,0,0,0-.975,1.1c-.155.2-.3.4-.439.6-.167.248-.288.443-.393.636A6.222,6.222,0,0,0,1696.972,1571.225Zm-4.761,10.619.167,0h.019a2.021,2.021,0,0,0,.32-.018c.055-.006.111-.012.166-.016l.251-.023c.058-.007.113-.018.167-.028l.085-.016.172-.032c.108-.019.216-.039.323-.066l.482-.129c.105-.028.209-.063.312-.1.055-.019.11-.039.165-.056l.237-.08.235-.094.162-.064c.1-.041.2-.081.3-.127l.453-.207.448-.226c.106-.052.209-.11.313-.167l.129-.072c.147-.08.292-.164.436-.25.279-.163.564-.343.849-.533.156-.1.3-.2.439-.3-.006.03-.013.059-.019.089l-.013.057-.049.157-.041.135c-.019.067-.04.135-.062.2a4.781,4.781,0,0,1-.648,1.179,5.144,5.144,0,0,1-.974.934,6.467,6.467,0,0,1-1.18.665,8.855,8.855,0,0,1-1.288.437,12.3,12.3,0,0,1-1.341.256,10.417,10.417,0,0,1-1.066.107c0-.145.006-.293.013-.443Zm.1-3.212.112-2,.01,0c.077-.024.149-.052.22-.078l.118-.043c.073-.025.146-.058.217-.09l.111-.049c.1-.041.2-.09.324-.153l.106-.053c.071-.035.141-.07.21-.11l.418-.236c.163-.1.332-.2.494-.3.38-.241.761-.5,1.165-.795.356-.259.672-.5.961-.731.022.072.046.144.072.217a4.131,4.131,0,0,0,.328.682,5.361,5.361,0,0,0,.429.611l.243.278.241.245a7.3,7.3,0,0,1,.588,1.209,3.789,3.789,0,0,1,.242,1.316,3.392,3.392,0,0,1-.033.428c-.181.125-.374.252-.586.386-.287.182-.574.352-.852.506-.143.082-.288.162-.434.236l-.135.071c-.1.053-.2.106-.3.153l-.448.213-.451.2c-.1.043-.194.079-.292.115l-.166.063-.23.087-.231.073-.168.054c-.1.032-.2.064-.3.089l-.476.118c-.1.023-.2.04-.3.056-.058.009-.116.018-.173.029l-.084.015c-.051.008-.1.017-.152.023l-.24.018c-.054,0-.111.007-.168.011a1.534,1.534,0,0,1-.3.008l-.168-.006Zm-.433-8.983c-.267-.241-.5-.472-.726-.705l-.085-.089c-.088-.092-.176-.184-.258-.281-.045-.052-.09-.1-.135-.154-.068-.075-.135-.15-.2-.229l-.322-.4-.3-.409c-.066-.086-.125-.178-.182-.268-.033-.052-.066-.1-.1-.155l-.138-.213-.12-.219c-.028-.053-.058-.107-.089-.16a2.491,2.491,0,0,1-.146-.285l-.214-.47c-.037-.1-.073-.2-.109-.3l-.061-.175a2.422,2.422,0,0,1-.106-.369l-.028-.12c-.01-.043-.021-.086-.032-.13a2.092,2.092,0,0,1-.069-.363l-.062-.517.09-.112a20.843,20.843,0,0,0,1.267-1.744,10.778,10.778,0,0,0,1-1.928c.018-.047.036-.1.054-.145.012.064.027.138.048.221.039.166.091.354.157.559s.146.448.247.708c.107.277.222.551.341.816s.258.543.444.883a7.067,7.067,0,0,0,.587.89,3.057,3.057,0,0,0,.385.412,1.412,1.412,0,0,0,.253.171.713.713,0,0,0,.188.063c-.015.081-.031.161-.045.242-.016.1-.034.193-.052.289l-.3,1.691c-.079.4-.134.822-.187,1.225-.022.168-.044.336-.068.5l-.248,1.836C1692.3,1570.027,1692.061,1569.816,1691.876,1569.65Zm-3.725,7.816a2.006,2.006,0,0,0,.141.655,3.86,3.86,0,0,0,.344.672,7.8,7.8,0,0,0,.912,1.164,12.248,12.248,0,0,0,1.056,1.016c.2.168.385.318.572.458.1.074.2.146.3.215.052.035.1.069.159.1.029.017.057.033.088.049l.057.026.038.012.013,0-.018,1.174c0,.155-.006.307-.006.457-.1,0-.208,0-.309,0h0a5.509,5.509,0,0,1-.963-.125,4.051,4.051,0,0,1-1.235-.5,3.116,3.116,0,0,1-.961-.912,3.373,3.373,0,0,1-.51-1.246,5.33,5.33,0,0,1-.07-1.378,6.864,6.864,0,0,1,.244-1.372C1688.048,1577.775,1688.1,1577.619,1688.15,1577.466Zm.275-5.089q.105.183.2.352c.27.445.594.966.945,1.472s.695.96,1.059,1.391c.158.185.368.425.6.648a3.493,3.493,0,0,0,.344.294l.029.02a.872.872,0,0,0,.4.171l-.108,1.895c-.019.462-.026.916-.032,1.355l-.023,1.475-.023-.013c-.045-.029-.092-.061-.139-.094-.1-.067-.19-.14-.283-.211-.174-.135-.353-.283-.549-.452-.344-.292-.7-.619-1.049-.971a9.259,9.259,0,0,1-.925-1.082,4.178,4.178,0,0,1-.361-.605,1.7,1.7,0,0,1-.184-.661.1.1,0,0,0-.083-.086.1.1,0,0,0-.027.005c.083-.225.174-.445.274-.656a6.342,6.342,0,0,0,.234-1.56c-.02-.235-.035-.463-.05-.692-.026-.4-.053-.815-.105-1.221A6.65,6.65,0,0,0,1688.425,1572.377Zm-1.208-7.152a2.828,2.828,0,0,1,.194-.331c.027-.04.053-.081.079-.122l.1-.13c.072-.095.145-.189.221-.281l.418-.516.016.33a2.277,2.277,0,0,0,.047.4c.008.044.016.087.023.13l.014.079a2.9,2.9,0,0,0,.1.448l.051.171c.033.111.065.222.1.331l.2.491a2.576,2.576,0,0,0,.15.313c.028.053.056.107.083.161l.121.234.138.228c.033.052.065.1.1.156.058.1.118.2.186.291l.3.423.326.409c.075.1.157.186.237.274l.107.119c.087.1.181.2.274.292l.085.086c.211.216.451.442.757.71.247.212.516.438.814.649a.15.15,0,0,0,.044.022l-.375,3.883-.111,1.934a.746.746,0,0,1-.256-.14,3.031,3.031,0,0,1-.3-.273c-.215-.218-.411-.455-.559-.637-.348-.434-.68-.9-1-1.343l-.027-.038c-.29-.41-.65-.922-.98-1.423s-.645-.976-.942-1.457a.072.072,0,0,0-.025-.023l-.173-.469c-.159-.429-.318-.858-.469-1.291a8.5,8.5,0,0,1-.467-2.061A3.716,3.716,0,0,1,1687.217,1565.225Z" transform="translate(-1525.894 -1398.104)" fill="#a7b7a2"/>
      <path id="Path_98386" data-name="Path 98386" d="M1737.224,1580.826a10.521,10.521,0,0,0-5.892-.723c.592-.8,1.161-1.536,1.689-2.194,2.7.462,4.583-.367,5.717-.36a10.6,10.6,0,0,0-5.216-.257c.536-.652,1.017-1.214,1.426-1.678,2.1-.8,2.581-2.564,3.267-3.109a5.036,5.036,0,0,0-3.692,3.222q-.719.753-1.387,1.5a9.112,9.112,0,0,0-2.036-4.286c.394.909.364,2.719,1.648,4.724q-.95,1.079-1.8,2.142a9.272,9.272,0,0,0-3.006-4.889c.619.993.881,3.146,2.725,5.242q-1.006,1.276-1.88,2.523a11.845,11.845,0,0,0-3.777-6.012c.781,1.226,1.148,3.861,3.469,6.46q-1,1.466-1.838,2.884a13.886,13.886,0,0,0-4.391-6.9c.912,1.42,1.357,4.461,4.056,7.478-.635,1.113-1.193,2.2-1.686,3.256a.283.283,0,0,1,.088-.248,14.408,14.408,0,0,0-5.851-6.542c1.206,1.321,2.2,4.47,5.614,7.115a40.136,40.136,0,0,0-1.539,3.888,19.252,19.252,0,0,0-6.713-6.919c1.387,1.415,2.721,4.561,6.519,7.513a35.505,35.505,0,0,0-1.089,4.348,18.889,18.889,0,0,0-6.532-5.628c1.354,1.159,2.83,3.768,6.438,6.167a30.634,30.634,0,0,0-.4,3.914,19.467,19.467,0,0,0-5.665-4.111c1.182.861,2.607,2.716,5.64,4.536a.368.368,0,0,0-.017.084h.027a23.4,23.4,0,0,0,.174,3.412l.095-.014a29.405,29.405,0,0,1,.039-3.4c2.647-.036,4.456-1.6,5.579-1.846a7.272,7.272,0,0,0-5.528,1.207,33,33,0,0,1,.541-3.664c3.949.186,6.533-1.306,8.176-1.479a13.924,13.924,0,0,0-8.053.894,39.051,39.051,0,0,1,1.172-4.155c3.924.492,6.626-.783,8.285-.821a14.007,14.007,0,0,0-8.068.2c.458-1.278.971-2.52,1.521-3.717,3.9.908,6.75-.114,8.417.011a14.071,14.071,0,0,0-8.158-.566c.514-1.084,1.057-2.13,1.615-3.133,3.609.94,6.308.108,7.875.291a13.374,13.374,0,0,0-7.526-.909c.57-1,1.152-1.945,1.733-2.842,3.158.862,5.518.13,6.878.289a11.5,11.5,0,0,0-6.572-.757c.556-.843,1.108-1.637,1.644-2.377C1733.842,1581.339,1735.984,1580.682,1737.224,1580.826Z" transform="translate(-1551.046 -1416.092)" fill="#89a182"/>
      <path id="Path_98387" data-name="Path 98387" d="M1605.968,1671.562a7.416,7.416,0,0,0,3.07,1.443,4.763,4.763,0,0,0,1.519.053q.1-.013.189-.03a4.1,4.1,0,0,0,1.562-.635q.085.4.16.808c.076.34.123.687.169,1.022.023.162.045.322.07.482.062.377.1.755.134,1.121l.1,1.024c.013.147.019.293.026.437,0,.081.007.162.011.24.006.134.013.266.02.4.147.017.295.033.442.052-.006-.155-.011-.31-.016-.47,0-.079-.006-.158-.008-.238,0-.149-.008-.3-.02-.454l-.068-.808c-.037-.446-.075-.907-.153-1.372-.025-.158-.047-.318-.069-.478-.047-.343-.1-.7-.174-1.046s-.137-.7-.211-1.034a5.434,5.434,0,0,0,.9-.972,7.189,7.189,0,0,0,.858-1.6,9.2,9.2,0,0,0,.452-1.758,10.46,10.46,0,0,0,.1-1.813,11.139,11.139,0,0,0-.221-1.8c-.051-.258-.121-.515-.188-.763l-.033-.121c-.03-.088-.058-.178-.087-.267-.062-.2-.126-.4-.209-.59l-.168-.425-.192-.407c-.09-.206-.2-.4-.307-.6-.038-.07-.077-.139-.115-.209-.1-.173-.2-.34-.308-.5-.057-.089-.115-.179-.173-.273l-.141-.194c-.127-.177-.26-.361-.4-.536a13.945,13.945,0,0,0-1.225-1.34,14.643,14.643,0,0,0-1.386-1.173,16.763,16.763,0,0,0-1.512-1.007l-.277-.157c-.17-.1-.34-.194-.515-.287l-.813-.4-.126-.056c-.5-.221-1.022-.45-1.547-.639-.544-.2-1.108-.381-1.725-.557a29.555,29.555,0,0,0-3.477-.749l-.017-.023-.01.018-.035-.005a.159.159,0,0,0-.12.031.158.158,0,0,0-.027.223l.023.03-.009.015.023,0a10.755,10.755,0,0,1,.909,1.317,6.344,6.344,0,0,1,.642,1.51,7.83,7.83,0,0,1,.242,1.63c.028.483.02.978.012,1.457l-.047,1.9c-.012.554-.024,1.127,0,1.7a12.087,12.087,0,0,0,.2,1.7,12.325,12.325,0,0,0,.428,1.657A11.815,11.815,0,0,0,1605.968,1671.562Zm-1.062-1.332a10.74,10.74,0,0,1-1.021-1.315,11.6,11.6,0,0,1-.831-1.442c-.069-.137-.133-.276-.195-.417a6.826,6.826,0,0,1,.638-.444c.092-.059.189-.113.284-.165.054-.031.109-.06.16-.09.1-.052.2-.1.3-.147l.163-.08.476-.2c.1-.039.208-.073.314-.108l.175-.058a2.8,2.8,0,0,1,.311-.085c.062-.014.123-.028.184-.045a3.94,3.94,0,0,1,.5-.1l.119-.019a2.95,2.95,0,0,1,.386-.043l.508-.028.516.024a2.268,2.268,0,0,1,.387.042l.112.017c.061.012.122.02.183.029a2.077,2.077,0,0,1,.317.061l.5.139a2.209,2.209,0,0,1,.364.128l.108.044.44.181c.132.3.253.584.366.867l.307.767.273.781c.031.093.064.187.1.279,0,.011.007.023.012.034l-.13-.038-.151-.035c-.093-.023-.186-.045-.282-.065l-.157-.029c-.092-.018-.185-.036-.279-.046l-.049-.006c-.129-.017-.261-.034-.393-.041a5.159,5.159,0,0,0-1.767.16c-.129.035-.264.08-.425.14-.113.046-.261.108-.405.184a4.6,4.6,0,0,0-.747.482,4.889,4.889,0,0,0-.641.609c-.092.1-.184.214-.279.339-.033.041-.065.084-.1.128a1.583,1.583,0,0,1-.117.146Q1605.153,1670.508,1604.906,1670.23Zm7.34,2.033a3.934,3.934,0,0,1-1.527.606,4.482,4.482,0,0,1-1.647-.04,6.222,6.222,0,0,1-1.56-.555,7.88,7.88,0,0,1-1.394-.9c-.2-.161-.4-.329-.581-.5a1.727,1.727,0,0,0,.134-.156c.03-.04.061-.08.1-.12.1-.12.19-.225.283-.323a4.725,4.725,0,0,1,.636-.567,4.375,4.375,0,0,1,.726-.437c.129-.063.264-.115.39-.163.156-.054.284-.093.4-.123a4.893,4.893,0,0,1,1.681-.112c.123.009.249.028.369.047l.052.008c.091.012.183.033.272.052l.143.03c.088.021.175.045.262.069l.148.04.345.111c.008.026.017.053.025.08l.233.786c.2.705.382,1.424.539,2.147Zm2.612-6.324a10.092,10.092,0,0,1-.09,1.781,9.025,9.025,0,0,1-.437,1.727,6.236,6.236,0,0,1-1.644,2.466c-.153-.683-.32-1.331-.508-1.95l-.242-.789c-.005-.017-.011-.034-.016-.052.1-.052.211-.11.323-.177.164-.1.335-.211.541-.36.182-.142.345-.278.494-.416.061-.052.115-.109.169-.165l.063-.065c.076-.075.147-.157.218-.24.111-.122.211-.255.306-.383l.1-.128.062-.1a4.429,4.429,0,0,0,.271-.454,4.856,4.856,0,0,0,.275-.583c.042-.1.075-.194.107-.293C1614.849,1665.822,1614.854,1665.878,1614.858,1665.939Zm-1.341-3.955c.007-.037.015-.074.023-.11a2.336,2.336,0,0,0,.061-.379l.009-.1c.044.083.087.168.126.254l.193.4.17.417c.082.185.146.381.208.571.03.09.059.18.089.266l.034.116c.069.244.14.5.192.749a10.1,10.1,0,0,1,.191,1.221l0,0c-.038.077-.073.156-.107.234a3.486,3.486,0,0,1-.161.333l-.148.276c-.031.058-.066.113-.1.168-.021.032-.041.064-.06.1l-.016.025a2.505,2.505,0,0,1-.156.231l-.18.249-.1.121c-.1.117-.2.238-.312.356-.065.071-.134.145-.207.209-.033.03-.065.061-.1.092s-.084.081-.13.12c-.145.131-.3.259-.474.389-.147.11-.323.238-.506.349-.087.054-.17.1-.251.149l-.047-.13c-.034-.093-.068-.185-.1-.28l-.286-.79-.318-.772c-.11-.27-.23-.548-.359-.835l.024-.017.047-.033.113-.084c.079-.06.157-.12.23-.184.192-.159.382-.332.564-.516.147-.149.337-.349.511-.567l.014-.017a3.617,3.617,0,0,0,.222-.286l.077-.107c.049-.068.1-.135.143-.205l.2-.322c.044-.071.083-.145.121-.218l.062-.116a2.644,2.644,0,0,0,.166-.35c.016-.041.034-.081.051-.122a2.07,2.07,0,0,0,.091-.233l.116-.36A2.216,2.216,0,0,0,1613.517,1661.984Zm-2.8-4.06c0-.065-.013-.127-.022-.189.133.117.268.232.4.353a13.767,13.767,0,0,1,1.21,1.31c.125.158.247.323.365.484.057.078.113.155.169.228.057.091.116.18.175.269.1.158.211.32.3.485l.118.21.051.091-.062.305a2.273,2.273,0,0,1-.088.35c-.016.048-.03.1-.044.145-.021.072-.04.139-.065.2l-.137.345a1.849,1.849,0,0,1-.1.209c-.021.04-.041.08-.059.119-.051.1-.107.215-.172.321l-.066.113c-.039.068-.078.137-.121.2l-.207.3c-.045.064-.093.125-.141.187l-.081.105c-.051.069-.106.134-.162.2l-.071.084c-.169.207-.353.4-.5.538-.2.2-.367.359-.535.5-.071.062-.143.121-.217.18l-.116.09c-.265-.567-.571-1.175-.935-1.856-.218-.385-.456-.8-.71-1.221l.148-.177c.074-.089.148-.179.219-.271.146-.188.284-.379.41-.568a6.943,6.943,0,0,0,.648-1.243,5.521,5.521,0,0,0,.363-1.355,4.537,4.537,0,0,0,.045-.7C1610.734,1658.157,1610.728,1658.039,1610.718,1657.924Zm-4.632-1.918c0-.057-.005-.113-.01-.17,0-.029,0-.059-.006-.087a1.973,1.973,0,0,0-.034-.264l-.013-.081a1.444,1.444,0,0,0-.035-.176c-.008-.028-.015-.057-.022-.086-.014-.056-.028-.112-.048-.169l-.075-.183c.227.095.452.192.673.288l.933.448c.169.09.335.183.5.277l.281.156a16.83,16.83,0,0,1,1.491.983c.278.205.547.424.81.648h0a5.516,5.516,0,0,1-.105,1.338,6.322,6.322,0,0,1-.172.646,5.76,5.76,0,0,1-.239.623,8.348,8.348,0,0,1-.645,1.174c-.115.181-.244.366-.382.551l-.275.354c-.253-.409-.519-.821-.8-1.214-.2-.3-.409-.587-.615-.865-.1-.13-.192-.259-.289-.393l-.242-.309c-.231-.3-.449-.575-.678-.843-.091-.11-.182-.215-.273-.323a9.348,9.348,0,0,0,.268-1.81C1606.094,1656.333,1606.09,1656.146,1606.086,1656.006Zm-2.8-2.091c.61.17,1.168.347,1.708.542.205.073.41.153.614.235l.041.1.057.239c.01.05.016.1.024.152,0,.03.008.06.013.092a1.1,1.1,0,0,1,.014.158c0,.027,0,.055,0,.081a6.563,6.563,0,0,1-.022.985c-.009.143-.024.3-.046.493l-.018.156c-.013.113-.025.226-.042.339-.025.191-.052.363-.079.528-.432-.49-.862-.945-1.272-1.371-.674-.673-1.2-1.171-1.662-1.568-.483-.424-.941-.8-1.359-1.122-.4-.311-.719-.537-.936-.685A28.72,28.72,0,0,1,1603.282,1653.915Zm-1.693,2a6.717,6.717,0,0,0-.684-1.583c-.111-.2-.232-.386-.357-.566.157.116.336.253.537.412.413.323.861.7,1.334,1.125.453.4.971.9,1.629,1.569.361.383.739.792,1.118,1.226l-.184-.085c-.053-.026-.109-.047-.164-.068l-.088-.034-.085-.033c-.055-.022-.11-.044-.166-.061l-.251-.081c-.055-.019-.113-.034-.169-.049l-.1-.027c-.083-.023-.166-.045-.249-.062a6.812,6.812,0,0,0-1.055-.15,6.2,6.2,0,0,0-.813,0A7.945,7.945,0,0,0,1601.589,1655.912Zm.237,5.1.043-1.7c.012-.6.017-1.164-.017-1.716a6.053,6.053,0,0,1,.785.041,6.855,6.855,0,0,1,1.017.193c.08.018.157.042.246.07l.089.027c.052.015.1.031.156.051l.246.089c.051.017.1.039.15.061l.085.036.086.037a1.465,1.465,0,0,1,.148.068l.232.116c.1.051.2.11.3.168l.151.088a.153.153,0,0,0,.039.015.159.159,0,0,0,.058,0h0c.06.073.121.143.18.218.219.262.428.534.649.822.084.11.168.219.25.325.093.131.188.261.283.392.2.276.407.559.6.858.188.272.371.552.548.834a1.605,1.605,0,0,0-.216-.093l-.436-.166a2.708,2.708,0,0,0-.369-.119l-.087-.024c-.053-.013-.106-.028-.158-.043-.1-.027-.2-.056-.3-.075l-.46-.078a2.192,2.192,0,0,0-.328-.037l-.145-.011-.072-.005a2.962,2.962,0,0,0-.4-.014l-.163,0c-.1,0-.2,0-.308.01l-.468.048c-.1.016-.2.034-.3.053l-.161.029c-.1.019-.2.045-.3.071l-.159.041c-.1.025-.2.058-.291.089l-.158.052c-.156.056-.308.117-.437.17a6.156,6.156,0,0,0-.619.31C1601.813,1661.888,1601.816,1661.461,1601.826,1661.015Zm.095,2.723c-.011-.079-.021-.157-.032-.233-.031-.3-.053-.568-.066-.826,0-.062,0-.125,0-.187a5.853,5.853,0,0,1,.682-.323c.128-.048.278-.1.429-.154.054-.014.107-.031.16-.046.092-.028.187-.057.28-.077l.162-.036c.094-.022.19-.045.285-.059l.166-.025c.079-.013.157-.025.236-.035l.506-.04c.1-.005.194,0,.291,0h.167a2.977,2.977,0,0,1,.378.021l.07.007c.048.006.1.01.145.014a2.086,2.086,0,0,1,.3.041l.448.087c.094.02.188.049.279.076.053.016.1.032.156.047l.088.025a2.389,2.389,0,0,1,.341.118l.426.174a1.772,1.772,0,0,1,.26.125c.047.026.094.052.141.075l.258.138c.28.469.542.933.78,1.361.324.619.6,1.166.834,1.678l-.125-.048-.109-.042a2.466,2.466,0,0,0-.4-.128l-.509-.13a2.331,2.331,0,0,0-.345-.06c-.06-.008-.121-.015-.183-.025l-.113-.016a2.548,2.548,0,0,0-.417-.037l-.532-.013-.522.039a2.85,2.85,0,0,0-.408.054l-.121.021a4.09,4.09,0,0,0-.517.111c-.058.017-.115.032-.173.047a3.084,3.084,0,0,0-.333.1l-.173.063c-.107.038-.214.076-.321.12l-.481.215-.165.086c-.1.052-.2.1-.3.16l-.158.094c-.1.057-.2.115-.288.178a6.993,6.993,0,0,0-.606.443c-.138-.327-.26-.659-.372-.977a13.267,13.267,0,0,1-.412-1.614C1601.972,1664.13,1601.946,1663.931,1601.921,1663.738Z" transform="translate(-1449.146 -1487)" fill="#89a182"/>
      <path id="Path_98388" data-name="Path 98388" d="M1698.371,1858.464l-1.343,9.75a.8.8,0,0,1-.821.639h-7.2a.8.8,0,0,1-.82-.627l-1.565-10.021a.769.769,0,0,1,.845-.823l10.107.269A.764.764,0,0,1,1698.371,1858.464Z" transform="translate(-1525.896 -1667.479)" fill="#ffa979"/>
      <path id="Path_98557" data-name="Path 98557" d="M.459,0H11.852a.459.459,0,0,1,.459.459v.656a.46.46,0,0,1-.46.46H.459A.459.459,0,0,1,0,1.116V.459A.459.459,0,0,1,.459,0Z" transform="translate(172.776 191.282) rotate(180)" fill="#fff4ed"/>
      <path id="Path_98556" data-name="Path 98556" d="M.421,0h13.2a.421.421,0,0,1,.421.421V.566a.421.421,0,0,1-.421.421H.422A.422.422,0,0,1,0,.565V.421A.421.421,0,0,1,.421,0Z" transform="translate(173.609 189.835) rotate(180)" fill="#ff975d"/>
      <path id="Path_98389" data-name="Path 98389" d="M767.234,854.428a8.38,8.38,0,1,1-8.38-8.381A8.38,8.38,0,0,1,767.234,854.428Z" transform="translate(-699.807 -775.036)" fill="url(#linear-gradient-18)"/>
      <path id="Path_98390" data-name="Path 98390" d="M763.917,867.194a7.706,7.706,0,1,1,7.706-7.706A7.714,7.714,0,0,1,763.917,867.194Zm0-15.02a7.314,7.314,0,1,0,7.314,7.314A7.323,7.323,0,0,0,763.917,852.174Z" transform="translate(-704.871 -780.097)" fill="#fff"/>
      <path id="Path_98571" data-name="Path 98571" d="M0,0H3.544V6.15H0Z" transform="translate(108.243 98.878)" fill="url(#linear-gradient-19)"/>
      <path id="Path_98570" data-name="Path 98570" d="M0,0H3.544V9.829H0Z" transform="translate(103.85 95.198)" fill="url(#linear-gradient-19)"/>
      <path id="Path_98569" data-name="Path 98569" d="M0,0H3.534V4.6H0Z" transform="translate(99.458 105.027)" fill="url(#linear-gradient-21)"/>
      <path id="Path_98568" data-name="Path 98568" d="M0,0H3.534V9.71H0Z" transform="translate(95.065 105.027)" fill="url(#linear-gradient-21)"/>
      <path id="Path_98567" data-name="Path 98567" d="M0,0H3.546V8.495H0Z" transform="translate(90.662 96.533)" fill="url(#linear-gradient-19)"/>
      <path id="Path_98566" data-name="Path 98566" d="M0,0H3.544V11.266H0Z" transform="translate(86.27 93.761)" fill="url(#linear-gradient-19)"/>
      <path id="Path_98565" data-name="Path 98565" d="M0,0H3.545V2.072H0Z" transform="translate(81.876 105.027)" fill="url(#linear-gradient-21)"/>
      <path id="Path_98564" data-name="Path 98564" d="M0,0H3.536V3.955H0Z" transform="translate(77.484 101.072)" fill="url(#linear-gradient-19)"/>
      <path id="Path_98563" data-name="Path 98563" d="M0,0H3.534V9.049H0Z" transform="translate(73.092 95.978)" fill="url(#linear-gradient-19)"/>
      <path id="Path_98562" data-name="Path 98562" d="M0,0H3.546V5.4H0Z" transform="translate(68.69 105.027)" fill="url(#linear-gradient-21)"/>
      <path id="Path_98561" data-name="Path 98561" d="M0,0H3.547V6.15H0Z" transform="translate(64.297 98.878)" fill="url(#linear-gradient-19)"/>
      <path id="Path_98560" data-name="Path 98560" d="M0,0H3.544V8.363H0Z" transform="translate(59.905 105.027)" fill="url(#linear-gradient-21)"/>
      <path id="Path_98559" data-name="Path 98559" d="M0,0H3.533V5.253H0Z" transform="translate(55.513 99.775)" fill="url(#linear-gradient-19)"/>
      <path id="Path_98558" data-name="Path 98558" d="M0,0H3.543V12.295H0Z" transform="translate(51.109 92.733)" fill="url(#linear-gradient-19)"/>
      <path id="Path_98395" data-name="Path 98395" d="M964.085,874.4H949.9a.515.515,0,1,0,0,1.03h14.184a.515.515,0,1,0,0-1.03Z" transform="translate(-875.328 -800.052)" fill="#a4a4a4"/>
      <path id="Path_98396" data-name="Path 98396" d="M961.39,903.164H949.805a.524.524,0,0,0,0,1.031H961.39a.524.524,0,0,0,0-1.031Z" transform="translate(-875.328 -825.439)" fill="#a4a4a4"/>
      <path id="Path_98397" data-name="Path 98397" d="M1140.716,874.4h-14.184a.515.515,0,1,0,0,1.03h14.184a.515.515,0,1,0,0-1.03Z" transform="translate(-1031.195 -800.052)" fill="#a4a4a4"/>
      <path id="Path_98398" data-name="Path 98398" d="M964.085,931.383H949.9a.515.515,0,1,0,0,1.03h14.184a.515.515,0,1,0,0-1.03Z" transform="translate(-875.328 -850.34)" fill="#a4a4a4"/>
      <path id="Path_98399" data-name="Path 98399" d="M1113.944,931.383h-3.369a.515.515,0,1,0,0,1.03h3.369a.515.515,0,1,0,0-1.03Z" transform="translate(-1017.113 -850.34)" fill="#a4a4a4"/>
      <path id="Path_98400" data-name="Path 98400" d="M1184.26,931.383h-3.369a.515.515,0,1,0,0,1.03h3.369a.515.515,0,1,0,0-1.03Z" transform="translate(-1079.163 -850.34)" fill="#a4a4a4"/>
      <path id="Path_98401" data-name="Path 98401" d="M1106.947,903.164h-9.568a.515.515,0,1,0,0,1.031h9.568a.515.515,0,1,0,0-1.031Z" transform="translate(-1005.469 -825.439)" fill="#a4a4a4"/>
      <path id="Path_98402" data-name="Path 98402" d="M770.383,1317.009H756.2a.515.515,0,1,0,0,1.03h14.184a.515.515,0,1,0,0-1.03Z" transform="translate(-704.397 -1190.632)" fill="#a4a4a4"/>
      <path id="Path_98403" data-name="Path 98403" d="M767.687,1345.779H756.1a.524.524,0,0,0,0,1.031h11.585a.524.524,0,0,0,0-1.031Z" transform="translate(-704.397 -1216.02)" fill="#a4a4a4"/>
      <path id="Path_98404" data-name="Path 98404" d="M947.017,1317.009H932.833a.515.515,0,1,0,0,1.03h14.184a.515.515,0,1,0,0-1.03Z" transform="translate(-860.267 -1190.632)" fill="#a4a4a4"/>
      <path id="Path_98405" data-name="Path 98405" d="M770.383,1374H756.2a.515.515,0,1,0,0,1.031h14.184a.515.515,0,1,0,0-1.031Z" transform="translate(-704.397 -1240.923)" fill="#a4a4a4"/>
      <path id="Path_98406" data-name="Path 98406" d="M920.242,1374h-3.369a.515.515,0,1,0,0,1.031h3.369a.515.515,0,1,0,0-1.031Z" transform="translate(-846.183 -1240.923)" fill="#a4a4a4"/>
      <path id="Path_98407" data-name="Path 98407" d="M913.247,1345.779h-9.568a.515.515,0,1,0,0,1.031h9.568a.515.515,0,1,0,0-1.031Z" transform="translate(-834.54 -1216.02)" fill="#a4a4a4"/>
      <path id="Path_98408" data-name="Path 98408" d="M1378.889,251.531H1318.1a7.2,7.2,0,0,0-7.2,7.2v32.586a7.2,7.2,0,0,0,7.2,7.2h60.792a7.2,7.2,0,0,0,7.2-7.2V258.73A7.2,7.2,0,0,0,1378.889,251.531Z" transform="translate(-1194.349 -250.412)" fill="#ff975d" opacity="0.5"/>
      <path id="Path_98409" data-name="Path 98409" d="M1305.929,242.011h60.791a7.2,7.2,0,0,1,7.2,7.2V281.8a7.2,7.2,0,0,1-7.2,7.2h-60.791a7.2,7.2,0,0,1-7.2-7.2V249.21A7.2,7.2,0,0,1,1305.929,242.011Z" transform="translate(-1183.611 -242.011)" fill="#fff"/>
      <path id="Path_98410" data-name="Path 98410" d="M1366.72,341.859h-60.791a7.2,7.2,0,0,1-7.2-7.2v-.824l.124-.379q.217-.656.437-1.305c.149-.438.3-.872.45-1.305s.308-.873.463-1.3.314-.873.473-1.3.323-.873.486-1.3.333-.874.5-1.3.341-.875.514-1.306.351-.873.529-1.3.363-.874.545-1.3.375-.875.564-1.3.385-.875.58-1.3.4-.875.6-1.306c.125-.265.249-.532.373-.794l.248-.511c.215-.438.434-.874.658-1.3s.468-.878.709-1.3c.251-.448.509-.883.77-1.3.283-.456.57-.893.862-1.306.331-.468.667-.905,1.006-1.305a10.757,10.757,0,0,1,1.3-1.3c1.613-1.337,3.28-1.614,4.871,0a6.819,6.819,0,0,1,.63.739c.128.176.256.367.381.566.25.4.495.835.737,1.305.213.414.422.851.631,1.306.2.423.387.862.581,1.3s.374.868.562,1.3.377.875.567,1.3c.2.447.4.884.6,1.3.219.459.44.9.667,1.306a12.116,12.116,0,0,0,.818,1.3,4.112,4.112,0,0,0,1.4,1.3,1.679,1.679,0,0,0,1.277.117,2.087,2.087,0,0,0,.289-.117,4.036,4.036,0,0,0,1.41-1.3,11.2,11.2,0,0,0,.8-1.3c.216-.406.425-.843.629-1.306.185-.417.367-.854.544-1.3.167-.424.33-.86.493-1.3.155-.429.309-.865.462-1.3s.3-.87.445-1.3.293-.875.439-1.306.3-.878.445-1.305c.084-.242.167-.481.251-.716.07-.2.14-.392.212-.589.159-.44.321-.877.487-1.305.173-.446.351-.884.531-1.3.2-.46.4-.9.611-1.3a11.482,11.482,0,0,1,.765-1.305,5.546,5.546,0,0,1,.731-.878,2.733,2.733,0,0,1,.576-.428,1.756,1.756,0,0,1,1.708,0,4.866,4.866,0,0,1,1.5,1.305,12.969,12.969,0,0,1,.835,1.161c.03.047.059.1.09.144.263.417.525.854.783,1.3.244.427.487.865.729,1.3s.478.873.719,1.305.493.881.744,1.3c.269.456.542.894.82,1.305.166.246.333.484.5.708s.334.413.5.6a5.062,5.062,0,0,0,1.741,1.3,3.309,3.309,0,0,0,2.552,0,5.02,5.02,0,0,0,.52-.233,9.443,9.443,0,0,0,1.563-1.071c.479-.4.953-.839,1.424-1.306.428-.422.855-.864,1.281-1.305s.858-.883,1.288-1.3c.179-.176.358-.348.538-.514.306-.283.615-.542.926-.791a13.749,13.749,0,0,1,1.928-1.3,10.211,10.211,0,0,1,2.514-1.009,9.568,9.568,0,0,1,6.946,1.009,14.572,14.572,0,0,1,2.005,1.3,18.811,18.811,0,0,1,1.511,1.305q.634.608,1.257,1.3.551.617,1.091,1.305c.326.417.651.85.971,1.306.059.083.118.167.176.252v21.829A7.2,7.2,0,0,1,1366.72,341.859Z" transform="translate(-1183.611 -294.874)" fill="#fff2ec"/>
      <path id="Path_98411" data-name="Path 98411" d="M1361.278,262.414h12.84a1.34,1.34,0,0,1,0,2.681h-12.84a1.34,1.34,0,0,1,0-2.681Z" transform="translate(-1237.624 -260.015)" fill="#a4a4a4"/>
      <path id="Path_98412" data-name="Path 98412" d="M995.894,314.112l0,0c-.073-.047-.147-.093-.222-.136l-.026-.015c-.069-.04-.138-.078-.209-.115l-.047-.025c-.065-.033-.13-.066-.2-.1l-.066-.03c-.061-.028-.123-.055-.185-.08l-.085-.034c-.057-.023-.115-.045-.174-.066l-.1-.034-.164-.054-.118-.033c-.051-.015-.1-.03-.155-.043s-.089-.021-.133-.031l-.146-.032-.148-.026c-.045-.008-.09-.017-.136-.023s-.11-.015-.166-.021-.082-.011-.123-.015c-.063-.006-.127-.01-.191-.015-.034,0-.068-.006-.1-.008q-.147-.008-.3-.008h-53.13q-.15,0-.3.008l-.1.008c-.064,0-.128.008-.19.015l-.125.015c-.055.007-.11.013-.164.021s-.092.015-.137.024l-.147.026c-.049.01-.1.021-.148.033l-.13.03c-.053.014-.1.029-.157.043l-.115.033c-.056.017-.112.036-.167.054l-.1.033c-.06.021-.119.044-.179.068l-.08.031c-.064.026-.127.054-.189.083l-.062.028c-.067.031-.134.065-.2.1l-.042.021c-.072.038-.143.077-.213.118l-.021.013a5.89,5.89,0,0,0-2.927,5.092v45.968a5.893,5.893,0,0,0,5.893,5.894H992.7a5.894,5.894,0,0,0,5.894-5.894V319.064A5.888,5.888,0,0,0,995.894,314.112Z" transform="translate(-861.473 -304.805)" fill="#ff975d" opacity="0.5"/>
      <path id="Path_98553" data-name="Path 98553" d="M5.894,0h53.13a5.894,5.894,0,0,1,5.894,5.894V51.862a5.894,5.894,0,0,1-5.894,5.894H5.894A5.894,5.894,0,0,1,0,51.862V5.894A5.894,5.894,0,0,1,5.894,0Z" transform="translate(70.942 7.224)" fill="#fff"/>
      <path id="Path_98413" data-name="Path 98413" d="M987.98,309.017a5.888,5.888,0,0,0-5.876-5.554h-53.13a5.888,5.888,0,0,0-5.876,5.554Z" transform="translate(-852.139 -296.239)" fill="#ffac7d"/>
      <path id="Path_98414" data-name="Path 98414" d="M980.794,318.328a1.166,1.166,0,1,1-1.166-1.167A1.167,1.167,0,0,1,980.794,318.328Z" transform="translate(-900.993 -308.326)" fill="#fff"/>
      <path id="Path_98415" data-name="Path 98415" d="M1012.825,318.328a1.166,1.166,0,1,1-1.166-1.167A1.167,1.167,0,0,1,1012.825,318.328Z" transform="translate(-929.259 -308.326)" fill="#fff"/>
      <path id="Path_98416" data-name="Path 98416" d="M1044.851,318.328a1.167,1.167,0,1,1-1.166-1.167A1.167,1.167,0,0,1,1044.851,318.328Z" transform="translate(-957.52 -308.326)" fill="#fff"/>
      <path id="Path_98417" data-name="Path 98417" d="M989.482,375.229a2.846,2.846,0,1,1-2.846-2.8A2.823,2.823,0,0,1,989.482,375.229Z" transform="translate(-905.461 -357.334)" fill="#ff975d"/>
      <path id="Path_98418" data-name="Path 98418" d="M1064.71,383.913a.394.394,0,0,1-.395.394h-7.478a.393.393,0,0,1-.393-.394h0a.393.393,0,0,1,.393-.394h7.478a.394.394,0,0,1,.395.394Z" transform="translate(-969.809 -366.883)" fill="#a4a4a4"/>
      <path id="Path_98419" data-name="Path 98419" d="M1150.672,383.913a.394.394,0,0,1-.394.394h-6.452a.393.393,0,0,1-.394-.394h0a.393.393,0,0,1,.394-.394h6.452a.394.394,0,0,1,.394.394Z" transform="translate(-1046.57 -366.883)" fill="#a4a4a4"/>
      <path id="Path_98420" data-name="Path 98420" d="M1069.748,402.641a.394.394,0,0,1-.394.394h-12.515a.394.394,0,0,1-.393-.394h0a.394.394,0,0,1,.393-.395h12.515a.394.394,0,0,1,.394.395Z" transform="translate(-969.809 -383.409)" fill="#a4a4a4"/>
      <path id="Path_98552" data-name="Path 98552" d="M0,0H.319V30.957H0Z" transform="translate(79.133 31.435)" fill="#ccc"/>
      <path id="Path_98551" data-name="Path 98551" d="M0,0H48.535V.32H0Z" transform="translate(79.133 62.073)" fill="#ccc"/>
      <path id="Path_98550" data-name="Path 98550" d="M0,0H17.027V.377H0Z" transform="translate(79.303 62.024) rotate(-55.17)" fill="#1a3a81"/>
      <path id="Path_98421" data-name="Path 98421" d="M1125.96,602.114l-.265-.269,11.623-11.348.263.269Z" transform="translate(-1030.919 -549.529)" fill="#1a3a81"/>
      <path id="Path_98422" data-name="Path 98422" d="M1266.333,551.482l-.265-.269,11.623-11.348.263.269Z" transform="translate(-1154.789 -504.849)" fill="#1a3a81"/>
      <path id="Path_98423" data-name="Path 98423" d="M1081.51,655.025l-.212.313-6.234-4.245.212-.312Z" transform="translate(-986.24 -602.726)" fill="#1a3a81"/>
      <path id="Path_98424" data-name="Path 98424" d="M1227.815,595.831l-.266.267-5.331-5.335.267-.266Z" transform="translate(-1116.095 -549.529)" fill="#1a3a81"/>
      <path id="Path_98425" data-name="Path 98425" d="M1070.282,645.181a1.039,1.039,0,1,1-1.04-1.04A1.041,1.041,0,0,1,1070.282,645.181Z" transform="translate(-980.185 -596.867)" fill="#1a3a81"/>
      <path id="Path_98426" data-name="Path 98426" d="M1120.944,679.138a1.04,1.04,0,1,1-1.04-1.04A1.039,1.039,0,0,1,1120.944,679.138Z" transform="translate(-1024.891 -626.832)" fill="#1a3a81"/>
      <path id="Path_98427" data-name="Path 98427" d="M1217.913,584.385a1.04,1.04,0,1,1-1.039-1.039A1.039,1.039,0,0,1,1217.913,584.385Z" transform="translate(-1110.461 -543.219)" fill="#1a3a81"/>
      <path id="Path_98428" data-name="Path 98428" d="M1261.145,628.353a1.04,1.04,0,1,1-1.039-1.039A1.04,1.04,0,0,1,1261.145,628.353Z" transform="translate(-1148.61 -582.018)" fill="#1a3a81"/>
      <path id="Path_98429" data-name="Path 98429" d="M1358.669,533.535a1.04,1.04,0,1,1-1.04-1.04A1.04,1.04,0,0,1,1358.669,533.535Z" transform="translate(-1234.669 -498.346)" fill="#1a3a81"/>
      <path id="Path_98430" data-name="Path 98430" d="M1048.967,509.4H1038.11a1.358,1.358,0,1,0,0,2.715h10.858a1.358,1.358,0,1,0,0-2.715Z" transform="translate(-952.431 -477.963)" fill="#a4a4a4"/>
      <path id="Path_98549" data-name="Path 98549" d="M0,0H64.917V5.2H0Z" transform="translate(70.942 23.492)" fill="url(#linear-gradient-33)"/>
      <path id="Path_98582" data-name="Path 98582" d="M0,0H23.757V6.05H0Z" transform="translate(84.829 165.09)" fill="url(#linear-gradient-34)"/>
      <path id="Path_98581" data-name="Path 98581" d="M0,0H16.9V1.986H0Z" transform="translate(88.258 167.122)" fill="#fff"/>
      <path id="Path_98580" data-name="Path 98580" d="M0,0H20.054V1.657H0Z" transform="translate(66.265 148.045)" fill="#a4a4a4"/>
      <path id="Path_98579" data-name="Path 98579" d="M0,0H13.128V1.2H0Z" transform="translate(66.265 152.925)" fill="#a4a4a4"/>
      <path id="Path_98578" data-name="Path 98578" d="M0,0H17.785V1.2H0Z" transform="translate(82.907 152.925)" fill="#a4a4a4"/>
      <path id="Path_98577" data-name="Path 98577" d="M0,0H17.784V1.2H0Z" transform="translate(66.265 159.921)" fill="#a4a4a4"/>
      <path id="Path_98576" data-name="Path 98576" d="M0,0H17.469V1.2H0Z" transform="translate(87.972 159.921)" fill="#a4a4a4"/>
      <path id="Path_98575" data-name="Path 98575" d="M0,0H12.628V1.2H0Z" transform="translate(66.265 156.331)" fill="#a4a4a4"/>
      <path id="Path_98574" data-name="Path 98574" d="M0,0H22.845V1.2H0Z" transform="translate(82.39 156.331)" fill="#a4a4a4"/>
      <path id="Path_98573" data-name="Path 98573" d="M0,0H13.637V1.657H0Z" transform="translate(93.873 148.045)" fill="#a4a4a4"/>
      <path id="Path_98431" data-name="Path 98431" d="M646.265,1385.452l-.021-.448-.442-.084c-2.942-.556-6.6-1.489-7.655-1.76a97.216,97.216,0,0,1-10.887-3.4l-.219-.087-.216.087a97.236,97.236,0,0,1-10.89,3.4c-1.054.271-4.711,1.2-7.658,1.763l-.438.081-.026.449c-.067,1.329-.209,2.763-.36,4.282-1.067,10.719-2.525,25.4,19.277,39.473l.31.2.309-.2c21.8-14.069,20.344-28.752,19.277-39.473C646.475,1388.217,646.334,1386.782,646.265,1385.452Z" transform="translate(-573.152 -1245.929)" fill="url(#linear-gradient-35)"/>
      <path id="Path_98432" data-name="Path 98432" d="M629.244,1380.975a97.829,97.829,0,0,1-10.812,3.37c-1.054.271-4.711,1.2-7.657,1.764l-.439.081-.025.448c-.067,1.329-.21,2.764-.36,4.281-1.066,10.72-2.524,25.4,19.278,39.474l.015.009Z" transform="translate(-575.355 -1247.078)" fill="url(#linear-gradient-36)"/>
      <path id="Path_98433" data-name="Path 98433" d="M629.048,1366.4a42.627,42.627,0,0,1-.351-6.7l.013-.228h-.229c-2.325,0-17.046-3.565-21.618-5.865l-.095-.045-.1.045c-4.566,2.3-19.287,5.865-21.615,5.865h-.23l.015.228a43.09,43.09,0,0,1-.349,6.7c-1.1,11.049-2.756,27.747,22.166,42.967l.114.07.112-.07C631.8,1394.152,630.145,1377.454,629.048,1366.4Zm-21.975,39.611-.306.2-.308-.2c-21.662-13.98-20.214-28.569-19.154-39.222.148-1.508.291-2.933.357-4.253l.025-.446.436-.08c2.927-.556,6.561-1.483,7.609-1.753a96.479,96.479,0,0,0,10.819-3.379l.215-.087.218.087a96.439,96.439,0,0,0,10.817,3.379c1.047.27,4.683,1.2,7.607,1.75l.438.083.022.444c.067,1.322.209,2.748.359,4.255C627.288,1377.448,628.738,1392.036,607.073,1406.016Z" transform="translate(-552.879 -1222.896)" fill="#fff"/>
      <path id="Path_98434" data-name="Path 98434" d="M715.677,1509.554a1.236,1.236,0,0,0-1.747,0l-12.379,12.379-5.331-5.33a1.235,1.235,0,0,0-1.747,1.746l6.191,6.191a1.272,1.272,0,0,0,1.774,0l13.239-13.239A1.236,1.236,0,0,0,715.677,1509.554Z" transform="translate(-650.073 -1360.223)" fill="#fff"/>
      <path id="Path_98435" data-name="Path 98435" d="M462.8,1820.568v1.164c-2.069-1.32-6.755-2.212-12.2-2.161-5.383.051-10.007,1.01-12.086,2.345v-1.223h-1.174v2.906h.01c.207,2.052,6.1,3.645,13.322,3.577,7.343-.069,13.28-1.828,13.26-3.928v-2.68Z" transform="translate(-423.488 -1634.11)" fill="url(#linear-gradient-37)"/>
      <path id="Path_98436" data-name="Path 98436" d="M463.931,1799.383c.02,2.1-5.917,3.859-13.26,3.928s-13.312-1.578-13.332-3.678,5.917-3.859,13.26-3.928S463.911,1797.283,463.931,1799.383Z" transform="translate(-423.486 -1613.051)" fill="#fee3d3"/>
      <path id="Path_98437" data-name="Path 98437" d="M464.355,1848.36a27.262,27.262,0,0,1-9.115-1.609v2.8a27.23,27.23,0,0,0,9.115,1.61Z" transform="translate(-439.282 -1658.098)" fill="#333" opacity="0.16"/>
      <path id="Path_98438" data-name="Path 98438" d="M478.98,1801.258c.012,1.659-4.877,3.041-10.922,3.086s-10.954-1.263-10.967-2.922,4.877-3.041,10.922-3.086S478.968,1799.6,478.98,1801.258Z" transform="translate(-440.916 -1615.373)" fill="url(#linear-gradient-12)"/>
      <path id="Path_98439" data-name="Path 98439" d="M478.98,1803.728c.012,1.659-4.877,3.041-10.922,3.086s-10.954-1.263-10.967-2.923,4.877-3.041,10.922-3.086S478.968,1802.069,478.98,1803.728Z" transform="translate(-440.916 -1617.552)" fill="url(#linear-gradient-39)"/>
      <path id="Path_98440" data-name="Path 98440" d="M467.74,1795.044v1.164c-2.069-1.32-6.755-2.212-12.2-2.161-5.383.05-10.007,1.01-12.086,2.345v-1.223h-1.174v2.906h.01c.207,2.052,6.1,3.645,13.322,3.577,7.343-.069,13.28-1.828,13.26-3.928v-2.68Z" transform="translate(-427.847 -1611.588)" fill="url(#linear-gradient-37)"/>
      <path id="Path_98441" data-name="Path 98441" d="M468.871,1773.858c.02,2.1-5.917,3.859-13.26,3.928s-13.312-1.578-13.332-3.678,5.917-3.859,13.26-3.928S468.851,1771.758,468.871,1773.858Z" transform="translate(-427.845 -1590.527)" fill="#fee3d3"/>
      <path id="Path_98442" data-name="Path 98442" d="M469.3,1822.836a27.265,27.265,0,0,1-9.115-1.609v2.8a27.234,27.234,0,0,0,9.115,1.61Z" transform="translate(-443.641 -1635.574)" fill="#333" opacity="0.16"/>
      <path id="Path_98443" data-name="Path 98443" d="M483.92,1775.733c.012,1.659-4.877,3.041-10.922,3.086s-10.954-1.263-10.967-2.923,4.877-3.041,10.922-3.086S483.908,1774.074,483.92,1775.733Z" transform="translate(-445.275 -1592.849)" fill="url(#linear-gradient-12)"/>
      <path id="Path_98444" data-name="Path 98444" d="M483.92,1778.2c.012,1.659-4.877,3.041-10.922,3.086s-10.954-1.263-10.967-2.922,4.877-3.041,10.922-3.086S483.908,1776.546,483.92,1778.2Z" transform="translate(-445.275 -1595.03)" fill="url(#linear-gradient-39)"/>
      <path id="Path_98445" data-name="Path 98445" d="M462.8,1769.52v1.164c-2.069-1.321-6.755-2.212-12.2-2.161-5.383.051-10.007,1.01-12.086,2.345v-1.223H437.34v2.906h.01c.207,2.052,6.1,3.645,13.322,3.577,7.343-.069,13.28-1.828,13.26-3.928v-2.68Z" transform="translate(-423.486 -1589.064)" fill="url(#linear-gradient-37)"/>
      <path id="Path_98446" data-name="Path 98446" d="M463.93,1748.334c.02,2.1-5.917,3.859-13.26,3.928s-13.312-1.578-13.332-3.678,5.917-3.859,13.26-3.928S463.91,1746.234,463.93,1748.334Z" transform="translate(-423.485 -1568.003)" fill="#fee3d3"/>
      <path id="Path_98447" data-name="Path 98447" d="M464.354,1797.312a27.267,27.267,0,0,1-9.115-1.609v2.8a27.233,27.233,0,0,0,9.115,1.61Z" transform="translate(-439.281 -1613.051)" fill="#333" opacity="0.16"/>
      <path id="Path_98448" data-name="Path 98448" d="M478.979,1750.209c.012,1.659-4.877,3.041-10.922,3.086s-10.954-1.263-10.967-2.923,4.877-3.041,10.922-3.086S478.967,1748.55,478.979,1750.209Z" transform="translate(-440.915 -1570.325)" fill="url(#linear-gradient-12)"/>
      <path id="Path_98449" data-name="Path 98449" d="M478.979,1752.681c.012,1.659-4.877,3.041-10.922,3.086s-10.954-1.263-10.967-2.922,4.877-3.041,10.922-3.086S478.967,1751.022,478.979,1752.681Z" transform="translate(-440.915 -1572.507)" fill="url(#linear-gradient-39)"/>
      <path id="Path_98450" data-name="Path 98450" d="M466.267,1742.557v1.164c-2.069-1.32-6.755-2.212-12.2-2.161-5.383.051-10.007,1.01-12.086,2.345v-1.223h-1.174v2.906h.01c.207,2.052,6.1,3.645,13.322,3.577,7.343-.069,13.28-1.828,13.26-3.928v-2.68Z" transform="translate(-426.548 -1565.271)" fill="url(#linear-gradient-37)"/>
      <path id="Path_98451" data-name="Path 98451" d="M467.4,1721.372c.02,2.1-5.917,3.859-13.26,3.928s-13.312-1.577-13.332-3.677,5.917-3.859,13.26-3.928S467.379,1719.272,467.4,1721.372Z" transform="translate(-426.545 -1544.211)" fill="#fee3d3"/>
      <path id="Path_98452" data-name="Path 98452" d="M467.823,1770.349a27.264,27.264,0,0,1-9.115-1.609v2.8a27.234,27.234,0,0,0,9.115,1.61Z" transform="translate(-442.342 -1589.258)" fill="#333" opacity="0.16"/>
      <path id="Path_98453" data-name="Path 98453" d="M482.447,1723.247c.012,1.659-4.877,3.041-10.922,3.086s-10.954-1.263-10.967-2.923,4.877-3.041,10.922-3.086S482.435,1721.588,482.447,1723.247Z" transform="translate(-443.976 -1546.533)" fill="url(#linear-gradient-12)"/>
      <path id="Path_98454" data-name="Path 98454" d="M482.447,1725.719c.012,1.659-4.877,3.041-10.922,3.086s-10.954-1.264-10.967-2.923,4.877-3.041,10.922-3.086S482.435,1724.06,482.447,1725.719Z" transform="translate(-443.976 -1548.714)" fill="url(#linear-gradient-39)"/>
      <path id="Path_98455" data-name="Path 98455" d="M467.98,1716.14v1.164c-2.069-1.32-6.755-2.213-12.2-2.161-5.383.051-10.007,1.01-12.086,2.345v-1.223h-1.174v2.906h.01c.207,2.052,6.1,3.645,13.322,3.577,7.343-.069,13.28-1.828,13.26-3.928v-2.68Z" transform="translate(-428.058 -1541.959)" fill="url(#linear-gradient-37)"/>
      <path id="Path_98456" data-name="Path 98456" d="M469.111,1694.955c.02,2.1-5.917,3.859-13.26,3.928s-13.312-1.578-13.332-3.678,5.917-3.859,13.26-3.928S469.091,1692.855,469.111,1694.955Z" transform="translate(-428.057 -1520.9)" fill="#fee3d3"/>
      <path id="Path_98457" data-name="Path 98457" d="M469.535,1743.933a27.274,27.274,0,0,1-9.115-1.609v2.8a27.25,27.25,0,0,0,9.115,1.61Z" transform="translate(-443.853 -1565.947)" fill="#333" opacity="0.16"/>
      <path id="Path_98458" data-name="Path 98458" d="M484.161,1696.832c.012,1.659-4.877,3.041-10.922,3.086s-10.954-1.263-10.967-2.923,4.877-3.041,10.922-3.086S484.149,1695.172,484.161,1696.832Z" transform="translate(-445.488 -1523.223)" fill="url(#linear-gradient-12)"/>
      <path id="Path_98459" data-name="Path 98459" d="M484.161,1699.3c.012,1.659-4.877,3.041-10.922,3.086s-10.954-1.263-10.967-2.922,4.877-3.041,10.922-3.086S484.149,1697.642,484.161,1699.3Z" transform="translate(-445.488 -1525.402)" fill="url(#linear-gradient-39)"/>
      <path id="Path_98495" data-name="Path 98495" d="M472.92,1690.616v1.164c-2.069-1.32-6.755-2.213-12.2-2.161-5.383.051-10.007,1.01-12.086,2.345v-1.223h-1.174v2.906h.01c.207,2.052,6.1,3.645,13.322,3.577,7.343-.069,13.28-1.828,13.26-3.928v-2.68Z" transform="translate(-432.418 -1519.437)" fill="url(#linear-gradient-37)"/>
      <path id="Path_98496" data-name="Path 98496" d="M474.051,1669.432c.02,2.1-5.917,3.859-13.26,3.928s-13.312-1.578-13.332-3.678,5.917-3.859,13.26-3.928S474.031,1667.332,474.051,1669.432Z" transform="translate(-432.416 -1498.377)" fill="#fee3d3"/>
      <path id="Path_98497" data-name="Path 98497" d="M474.475,1718.409a27.265,27.265,0,0,1-9.115-1.609v2.8a27.237,27.237,0,0,0,9.115,1.61Z" transform="translate(-448.212 -1543.424)" fill="#333" opacity="0.16"/>
      <path id="Path_98498" data-name="Path 98498" d="M489.1,1671.308c.012,1.659-4.877,3.041-10.922,3.086s-10.954-1.263-10.967-2.922,4.877-3.041,10.922-3.086S489.088,1669.649,489.1,1671.308Z" transform="translate(-449.847 -1500.7)" fill="url(#linear-gradient-12)"/>
      <path id="Path_98499" data-name="Path 98499" d="M489.1,1673.776c.012,1.659-4.877,3.041-10.922,3.086s-10.954-1.263-10.967-2.923,4.877-3.041,10.922-3.086S489.088,1672.117,489.1,1673.776Z" transform="translate(-449.847 -1502.878)" fill="url(#linear-gradient-39)"/>
      <path id="Path_98500" data-name="Path 98500" d="M467.979,1665.092v1.164c-2.069-1.32-6.755-2.212-12.2-2.161-5.383.051-10.007,1.01-12.086,2.345v-1.223H442.52v2.906h.01c.207,2.052,6.1,3.645,13.322,3.577,7.343-.069,13.28-1.828,13.26-3.928v-2.681Z" transform="translate(-428.057 -1496.913)" fill="url(#linear-gradient-37)"/>
      <path id="Path_98501" data-name="Path 98501" d="M469.11,1643.907c.02,2.1-5.917,3.859-13.26,3.928s-13.312-1.578-13.332-3.678,5.917-3.859,13.26-3.928S469.09,1641.807,469.11,1643.907Z" transform="translate(-428.056 -1475.853)" fill="#fee3d3"/>
      <path id="Path_98502" data-name="Path 98502" d="M469.534,1692.884a27.266,27.266,0,0,1-9.115-1.609v2.8a27.237,27.237,0,0,0,9.115,1.61Z" transform="translate(-443.852 -1520.899)" fill="#333" opacity="0.16"/>
      <path id="Path_98503" data-name="Path 98503" d="M484.159,1645.783c.012,1.659-4.877,3.041-10.922,3.086s-10.954-1.263-10.967-2.922,4.877-3.041,10.922-3.086S484.147,1644.124,484.159,1645.783Z" transform="translate(-445.486 -1478.176)" fill="url(#linear-gradient-12)"/>
      <path id="Path_98504" data-name="Path 98504" d="M484.159,1648.252c.012,1.659-4.877,3.041-10.922,3.086s-10.954-1.263-10.967-2.922,4.877-3.041,10.922-3.086S484.147,1646.593,484.159,1648.252Z" transform="translate(-445.486 -1480.354)" fill="url(#linear-gradient-39)"/>
      <path id="Path_98505" data-name="Path 98505" d="M471.447,1638.13v1.164c-2.069-1.32-6.755-2.213-12.2-2.161-5.383.051-10.007,1.01-12.086,2.346v-1.223h-1.174v2.906H446c.207,2.052,6.1,3.645,13.322,3.577,7.343-.069,13.28-1.828,13.26-3.928v-2.68Z" transform="translate(-431.119 -1473.12)" fill="url(#linear-gradient-37)"/>
      <path id="Path_98506" data-name="Path 98506" d="M472.578,1616.945c.02,2.1-5.917,3.859-13.26,3.928s-13.312-1.578-13.332-3.678,5.917-3.859,13.26-3.928S472.559,1614.844,472.578,1616.945Z" transform="translate(-431.117 -1452.06)" fill="#fee3d3"/>
      <path id="Path_98507" data-name="Path 98507" d="M473,1665.923a27.264,27.264,0,0,1-9.115-1.609v2.8a27.234,27.234,0,0,0,9.115,1.61Z" transform="translate(-446.913 -1497.108)" fill="#333" opacity="0.16"/>
      <path id="Path_98508" data-name="Path 98508" d="M487.627,1618.821c.012,1.659-4.877,3.041-10.922,3.086s-10.954-1.263-10.967-2.922,4.877-3.041,10.922-3.086S487.615,1617.162,487.627,1618.821Z" transform="translate(-448.547 -1454.383)" fill="url(#linear-gradient-12)"/>
      <path id="Path_98509" data-name="Path 98509" d="M487.627,1621.29c.012,1.659-4.877,3.041-10.922,3.086s-10.954-1.263-10.967-2.923,4.877-3.041,10.922-3.086S487.615,1619.631,487.627,1621.29Z" transform="translate(-448.547 -1456.562)" fill="url(#linear-gradient-39)"/>
      <path id="Path_98510" data-name="Path 98510" d="M467.98,1608.861v1.164c-2.069-1.32-6.755-2.212-12.2-2.161-5.383.051-10.007,1.01-12.086,2.345v-1.223h-1.174v2.906h.01c.207,2.052,6.1,3.645,13.322,3.577,7.343-.069,13.28-1.828,13.26-3.928v-2.68Z" transform="translate(-428.058 -1447.292)" fill="url(#linear-gradient-37)"/>
      <path id="Path_98511" data-name="Path 98511" d="M469.111,1587.675c.02,2.1-5.917,3.859-13.26,3.928s-13.312-1.577-13.332-3.677,5.917-3.859,13.26-3.928S469.091,1585.575,469.111,1587.675Z" transform="translate(-428.057 -1426.231)" fill="#ffddca"/>
      <path id="Path_98512" data-name="Path 98512" d="M469.535,1636.652a27.265,27.265,0,0,1-9.115-1.609v2.8a27.231,27.231,0,0,0,9.115,1.61Z" transform="translate(-443.853 -1471.278)" opacity="0.3" fill="url(#linear-gradient-12)"/>
      <path id="Path_98513" data-name="Path 98513" d="M484.161,1589.55c.012,1.659-4.877,3.041-10.922,3.086s-10.954-1.263-10.967-2.923,4.877-3.041,10.922-3.086S484.149,1587.891,484.161,1589.55Z" transform="translate(-445.488 -1428.553)" fill="url(#linear-gradient-12)"/>
      <path id="Path_98514" data-name="Path 98514" d="M484.161,1592.021c.012,1.659-4.877,3.041-10.922,3.086s-10.954-1.263-10.967-2.922,4.877-3.041,10.922-3.086S484.149,1590.362,484.161,1592.021Z" transform="translate(-445.488 -1430.734)" fill="url(#linear-gradient-39)"/>
      <path id="Path_98515" data-name="Path 98515" d="M476.871,1581.9v1.164c-2.069-1.32-6.755-2.212-12.2-2.161-5.383.051-10.007,1.01-12.086,2.345v-1.223h-1.174v2.906h.01c.207,2.052,6.1,3.645,13.322,3.577,7.343-.069,13.28-1.828,13.26-3.928v-2.68Z" transform="translate(-435.904 -1423.499)" fill="url(#linear-gradient-37)"/>
      <path id="Path_98516" data-name="Path 98516" d="M478,1560.713c.02,2.1-5.917,3.859-13.26,3.928s-13.312-1.577-13.332-3.678,5.917-3.859,13.26-3.928S477.982,1558.613,478,1560.713Z" transform="translate(-435.902 -1402.439)" fill="#fee3d3"/>
      <path id="Path_98517" data-name="Path 98517" d="M478.426,1609.69a27.263,27.263,0,0,1-9.115-1.609v2.8a27.239,27.239,0,0,0,9.115,1.61Z" transform="translate(-451.699 -1447.486)" opacity="0.3" fill="url(#linear-gradient-12)"/>
      <path id="Path_98518" data-name="Path 98518" d="M493.051,1562.588c.012,1.659-4.877,3.041-10.922,3.086s-10.954-1.263-10.967-2.922,4.877-3.041,10.922-3.086S493.039,1560.929,493.051,1562.588Z" transform="translate(-453.333 -1404.761)" fill="url(#linear-gradient-12)"/>
      <path id="Path_98519" data-name="Path 98519" d="M493.051,1565.059c.012,1.659-4.877,3.041-10.922,3.086s-10.954-1.263-10.967-2.922,4.877-3.041,10.922-3.086S493.039,1563.4,493.051,1565.059Z" transform="translate(-453.333 -1406.942)" fill="url(#linear-gradient-39)"/>
      <path id="Path_98520" data-name="Path 98520" d="M476.619,1552.628v1.164c-2.069-1.32-6.755-2.212-12.2-2.161-5.383.051-10.007,1.01-12.086,2.345v-1.223H451.16v2.906h.01c.207,2.052,6.1,3.645,13.322,3.577,7.343-.069,13.28-1.828,13.26-3.928v-2.681Z" transform="translate(-435.682 -1397.67)" fill="url(#linear-gradient-37)"/>
      <path id="Path_98521" data-name="Path 98521" d="M477.75,1531.442c.02,2.1-5.917,3.859-13.26,3.928s-13.312-1.577-13.332-3.678,5.917-3.859,13.26-3.928S477.73,1529.342,477.75,1531.442Z" transform="translate(-435.68 -1376.609)" fill="url(#linear-gradient-70)"/>
      <path id="Path_98522" data-name="Path 98522" d="M478.174,1580.42a27.266,27.266,0,0,1-9.115-1.609v2.8a27.24,27.24,0,0,0,9.115,1.61Z" transform="translate(-451.477 -1421.657)" opacity="0.3" fill="url(#linear-gradient-12)"/>
      <path id="Path_98523" data-name="Path 98523" d="M492.8,1533.318c.012,1.659-4.877,3.041-10.922,3.086s-10.954-1.263-10.967-2.923,4.877-3.041,10.922-3.086S492.787,1531.659,492.8,1533.318Z" transform="translate(-453.111 -1378.932)" fill="url(#linear-gradient-72)"/>
      <path id="Path_98524" data-name="Path 98524" d="M492.8,1535.787c.012,1.659-4.877,3.041-10.922,3.086s-10.954-1.263-10.967-2.922,4.877-3.041,10.922-3.086S492.787,1534.128,492.8,1535.787Z" transform="translate(-453.111 -1381.111)" fill="url(#linear-gradient-73)"/>
      <path id="Path_98583" data-name="Path 98583" d="M467.979,1665.092v1.164c-2.069-1.32-6.755-2.212-12.2-2.161-5.383.051-10.007,1.01-12.086,2.345v-1.223H442.52v2.906h.01c.207,2.052,6.1,3.645,13.322,3.577,7.343-.069,13.28-1.828,13.26-3.928v-2.681Z" transform="translate(-392.084 -1477.633)" fill="url(#linear-gradient-37)"/>
      <path id="Path_98584" data-name="Path 98584" d="M469.11,1643.907c.02,2.1-5.917,3.859-13.26,3.928s-13.312-1.578-13.332-3.678,5.917-3.859,13.26-3.928S469.09,1641.807,469.11,1643.907Z" transform="translate(-392.083 -1456.573)" fill="#fee3d3"/>
      <path id="Path_98585" data-name="Path 98585" d="M471.447,1638.13v1.164c-2.069-1.32-6.755-2.213-12.2-2.161-5.383.051-10.007,1.01-12.086,2.346v-1.223h-1.174v2.906H446c.207,2.052,6.1,3.645,13.322,3.577,7.343-.069,13.28-1.828,13.26-3.928v-2.68Z" transform="translate(-395.145 -1453.84)" fill="url(#linear-gradient-37)"/>
      <path id="Path_98586" data-name="Path 98586" d="M472.578,1616.945c.02,2.1-5.917,3.859-13.26,3.928s-13.312-1.578-13.332-3.678,5.917-3.859,13.26-3.928S472.559,1614.844,472.578,1616.945Z" transform="translate(-395.143 -1432.781)" fill="#fee3d3"/>
      <path id="Path_98587" data-name="Path 98587" d="M467.98,1608.861v1.164c-2.069-1.32-6.755-2.212-12.2-2.161-5.383.051-10.007,1.01-12.086,2.345v-1.223h-1.174v2.906h.01c.207,2.052,6.1,3.645,13.322,3.577,7.343-.069,13.28-1.828,13.26-3.928v-2.68Z" transform="translate(-392.085 -1428.012)" fill="url(#linear-gradient-37)"/>
      <path id="Path_98588" data-name="Path 98588" d="M469.111,1587.675c.02,2.1-5.917,3.859-13.26,3.928s-13.312-1.577-13.332-3.677,5.917-3.859,13.26-3.928S469.091,1585.575,469.111,1587.675Z" transform="translate(-392.084 -1406.952)" fill="#ffddca"/>
      <path id="Path_98589" data-name="Path 98589" d="M476.871,1581.9v1.164c-2.069-1.32-6.755-2.212-12.2-2.161-5.383.051-10.007,1.01-12.086,2.345v-1.223h-1.174v2.906h.01c.207,2.052,6.1,3.645,13.322,3.577,7.343-.069,13.28-1.828,13.26-3.928v-2.68Z" transform="translate(-399.931 -1404.219)" fill="url(#linear-gradient-37)"/>
      <path id="Path_98590" data-name="Path 98590" d="M478,1560.713c.02,2.1-5.917,3.859-13.26,3.928s-13.312-1.577-13.332-3.678,5.917-3.859,13.26-3.928S477.982,1558.613,478,1560.713Z" transform="translate(-399.929 -1383.159)" fill="#fee3d3"/>
      <path id="Path_98591" data-name="Path 98591" d="M476.619,1552.628v1.164c-2.069-1.32-6.755-2.212-12.2-2.161-5.383.051-10.007,1.01-12.086,2.345v-1.223H451.16v2.906h.01c.207,2.052,6.1,3.645,13.322,3.577,7.343-.069,13.28-1.828,13.26-3.928v-2.681Z" transform="translate(-399.708 -1378.391)" fill="url(#linear-gradient-37)"/>
      <path id="Path_98592" data-name="Path 98592" d="M477.75,1531.442c.02,2.1-5.917,3.859-13.26,3.928s-13.312-1.577-13.332-3.678,5.917-3.859,13.26-3.928S477.73,1529.342,477.75,1531.442Z" transform="translate(-399.707 -1357.329)" fill="url(#linear-gradient-79)"/>
      <path id="Path_98593" data-name="Path 98593" d="M492.8,1533.318c.012,1.659-4.877,3.041-10.922,3.086s-10.954-1.263-10.967-2.923,4.877-3.041,10.922-3.086S492.787,1531.659,492.8,1533.318Z" transform="translate(-417.137 -1359.652)" fill="url(#linear-gradient-80)"/>
      <path id="Path_98594" data-name="Path 98594" d="M492.8,1535.787c.012,1.659-4.877,3.041-10.922,3.086s-10.954-1.263-10.967-2.922,4.877-3.041,10.922-3.086S492.787,1534.128,492.8,1535.787Z" transform="translate(-417.137 -1361.831)" fill="url(#linear-gradient-81)"/>
      <path id="Path_98530" data-name="Path 98530" d="M413.322,1750.707l2.025,4.9a1.15,1.15,0,0,1,.567,1.72,6.4,6.4,0,0,1-3.619,2.218c-1.227-.012,1.42-2.95,1.42-2.95l-2.479-6.074Z" transform="translate(-400.451 -1573.181)" fill="url(#linear-gradient-82)"/>
      <path id="Path_98531" data-name="Path 98531" d="M407.98,1793.767s-3.234,3.88-2.8,4.9c.694,1.634,6.148-3.3,6.281-4.6.127-1.245-1.493-1.58-1.493-1.58S409.8,1793.729,407.98,1793.767Z" transform="translate(-395.071 -1610.217)" fill="#252e5f"/>
      <path id="Path_98532" data-name="Path 98532" d="M331.209,1505.933c-.639-2.364-1.306-4.773-1.994-7.188,5.473-1.713,19.424-6.289,19.424-6.289a20.164,20.164,0,0,0-1.8-4.434c-1.305-2.4-9.26-4.112-12.119-3.723-2.484.338-5.548,2.271-7.8,3.37-3.743,1.83-9.1,6-6.917,10.478,3.746,7.353,7.893,15.839,11.758,23.13.275-.034,2.618-1.135,2.864-1.254C333.921,1517.168,332.748,1511.626,331.209,1505.933Z" transform="translate(-319.497 -1338.206)" fill="url(#linear-gradient-83)"/>
      <path id="Path_98533" data-name="Path 98533" d="M528.152,1882.032l2.319,4.769a1.149,1.149,0,0,1,.67,1.682,6.4,6.4,0,0,1-3.478,2.434c-1.226.063,1.238-3.031,1.238-3.031l-2.844-5.912Z" transform="translate(-501.775 -1689.18)" fill="url(#linear-gradient-84)"/>
      <path id="Path_98534" data-name="Path 98534" d="M528.141,1923.137s-2.993,4.07-2.5,5.064c.791,1.589,5.935-3.669,5.99-4.972.051-1.25-1.586-1.486-1.586-1.486S529.951,1922.988,528.141,1923.137Z" transform="translate(-501.36 -1724.274)" fill="#252e5f"/>
      <path id="Path_98535" data-name="Path 98535" d="M431.888,1530.7c-.782-2.321-1.594-4.685-2.427-7.054,4.32-5.108,13.971-23.21,13.971-23.21-.623-1.93-3.217-4.118-4.589-4.864-2.4-1.306-3.9,1.158-6.733,1.719-2.459.489-6.234,9.054-7.651,10.974-2.814,3.812-5.986,10.784-5.346,12.566a17.976,17.976,0,0,0,1.116,2.776c4.185,7.112,9.326,15.806,13.626,22.849.273-.05,2.09-1.6,2.328-1.731C435.306,1541.922,433.769,1536.291,431.888,1530.7Z" transform="translate(-407.328 -1347.872)" fill="url(#linear-gradient-85)"/>
      <path id="Path_98536" data-name="Path 98536" d="M499.123,1122.505l-.415,9.842s-3.828,3.378-6.038,3.2c-2.568-.21,1.444-13.251,1.444-13.251Z" transform="translate(-471.554 -1018.808)" fill="url(#linear-gradient-86)"/>
      <path id="Path_98537" data-name="Path 98537" d="M489.542,1046.786c.388.245,5.716,2.993,3.373,10.125-.685,3.494-5.458,7.963-8.137-.452C483.191,1051.476,485.237,1044.071,489.542,1046.786Z" transform="translate(-464.875 -951.664)" fill="url(#linear-gradient-87)"/>
      <path id="Path_98538" data-name="Path 98538" d="M459.59,1023.589a.852.852,0,0,1,.908-.874,5.881,5.881,0,0,0,3.964-1.395c3.711-2.876,6.018-1.938,7.714,1.136a7.413,7.413,0,0,1,.646,4.458l.015.028a15.748,15.748,0,0,1-.851,3.255,9.287,9.287,0,0,1-1.036-1.8c-2.146-5.255-3.324-.083-7.352-.511A4.082,4.082,0,0,1,459.59,1023.589Z" transform="translate(-443.12 -928.178)" fill="#252e5f"/>
      <path id="Path_98539" data-name="Path 98539" d="M555.9,1094.948s1.617-1.973,1.642-.075c.019,1.506-1.076,1.688-1.076,1.688Z" transform="translate(-528.108 -993.883)" fill="url(#linear-gradient-88)"/>
      <path id="Path_98540" data-name="Path 98540" d="M443.471,1181.273c-1.214-2.095-6.148-4.285-9.232-3.917a4.737,4.737,0,0,1-4.859,1.124c-2.225-.639-2.4-1.284-2.4-1.519,0-.782-5.982,1.306-7.531,2.582-1.832,1.509-2.333,17.924-.545,33.6.319.625,21.091,7.19,23.6,5.874C444.995,1217.71,444.7,1183.394,443.471,1181.273Z" transform="translate(-406.237 -1066.897)" fill="url(#linear-gradient-89)"/>
      <path id="Path_98541" data-name="Path 98541" d="M448.641,1488.895c-.257-.138-23.868-6.081-23.892-6a5.624,5.624,0,0,0-.276.911c.319.626,23.446,6.618,23.893,5.879C448.589,1489.316,448.933,1489.05,448.641,1488.895Z" transform="translate(-412.133 -1337.016)" fill="url(#linear-gradient-90)"/>
      <path id="Path_98542" data-name="Path 98542" d="M493.041,1191.892l1.181-2.216-1.974-1.23-1.883,1.291.86,2.276-1.983,22.817,2.1,5.016,3.385-4.738Z" transform="translate(-469.287 -1077.183)" fill="url(#linear-gradient-39)"/>
      <path id="Path_98543" data-name="Path 98543" d="M484.466,1173.272s1.172,2.956,6.82.374a16.044,16.044,0,0,1,2.518.544s-2.733,3.006-4.555,3.523c-.182-.3-2.665-2.323-2.665-2.323l-2.778,1.777a7.775,7.775,0,0,1-.957-3.394A4.322,4.322,0,0,1,484.466,1173.272Z" transform="translate(-463.645 -1063.793)" fill="url(#linear-gradient-92)"/>
      <path id="Path_98572" data-name="Path 98572" d="M0,0H2.509V1.765H0Z" transform="translate(20.686 147.699) rotate(12.601)" fill="url(#linear-gradient-93)"/>
      <path id="Path_98544" data-name="Path 98544" d="M462.034,1361.429c.259-.028.52-.057.787-.089.241-.028,4.522-3.546,4.4-.75-.116,2.613-3.286,3.271-3.286,3.271a11.728,11.728,0,0,1-1.9.838Z" transform="translate(-445.277 -1228.138)" fill="url(#linear-gradient-94)"/>
      <path id="Path_98545" data-name="Path 98545" d="M377.084,1220.254c-.31-.363-1,.812-5.956,1.858-.077-.106-.16-4.524-.137-8.317.275-2.833.663-9.025,1.508-12.216.4-1.523-.341-.76-1.3-.257-2.472,1.305-6.931,6.929-6.525,19.782a11.008,11.008,0,0,0,.538,3.543l-.029.006c.037.079.078.16.118.239s.061.15.092.212a2.383,2.383,0,0,0,.174.294,8.613,8.613,0,0,0,1.192,1.714c2.369,2.333,6.425,1.192,12.117-3.356A20.426,20.426,0,0,0,377.084,1220.254Z" transform="translate(-359.343 -1087.978)" fill="url(#linear-gradient-95)"/>
      <path id="Path_98546" data-name="Path 98546" d="M468.464,1318.255l3.779,8.213c.2.432-.11,1.615-.5,1.611l-4.665-.672a.472.472,0,0,1-.415-.319l-3.621-8.61c-.189-.45.1-1.009.494-.97l4.559.45A.477.477,0,0,1,468.464,1318.255Z" transform="translate(-446.111 -1191.071)" fill="url(#linear-gradient-96)"/>
      <path id="Path_98547" data-name="Path 98547" d="M525.658,1237.024c1.461,1.547,6.557,19.543,1.7,20.773-10.239,2.591-16.429-1.13-16.429-1.13s-3.169-.658-3.286-3.271c-.124-2.8,4.157.722,4.4.75,7.229.858,11.584.275,11.286-1.286-.806-4.223-.568-13.929-1.908-17.1C520.573,1233.765,523.4,1234.634,525.658,1237.024Z" transform="translate(-485.522 -1117.958)" fill="url(#linear-gradient-97)"/>
      <path id="Path_98548" data-name="Path 98548" d="M556.115,1223.253c.265-14.077-4.7-20.172-7.421-21.565-1.052-.539-1.52-.139-1.353,1.278,1.157,9.831,1.62,18.139,2.294,20.937-5.643.849-10.728.315-10.915.815-.365.975-.214.7-.945,3.107,7.555,2.559,16.04,3.1,17.609-.182A11.516,11.516,0,0,0,556.115,1223.253Z" transform="translate(-512.114 -1088.665)" fill="url(#linear-gradient-89)"/>
      <path id="Path_98462" data-name="Path 98462" d="M789.258,1857.823a27.26,27.26,0,0,1-9.115-1.609v2.8a27.239,27.239,0,0,0,9.115,1.61Z" transform="translate(-725.99 -1666.449)" fill="#f95900" opacity="0.16"/>
      <path id="Path_98467" data-name="Path 98467" d="M789.258,1829.091a27.26,27.26,0,0,1-9.115-1.609v2.8a27.24,27.24,0,0,0,9.115,1.61Z" transform="translate(-725.99 -1641.094)" fill="#f95900" opacity="0.16"/>
      <path id="Path_98472" data-name="Path 98472" d="M784.316,1803.567a27.264,27.264,0,0,1-9.115-1.609v2.8a27.234,27.234,0,0,0,9.115,1.61Z" transform="translate(-721.628 -1618.571)" fill="#f95900" opacity="0.16"/>
      <path id="Path_98477" data-name="Path 98477" d="M787.785,1776.6a27.261,27.261,0,0,1-9.116-1.609v2.8a27.238,27.238,0,0,0,9.116,1.61Z" transform="translate(-724.689 -1594.778)" fill="#f95900" opacity="0.16"/>
      <path id="Path_98482" data-name="Path 98482" d="M784.064,1743.933a27.273,27.273,0,0,1-9.115-1.609v2.8a27.25,27.25,0,0,0,9.115,1.61Z" transform="translate(-721.406 -1565.947)" fill="#f95900" opacity="0.16"/>
      <g id="Group_21561" data-name="Group 21561" transform="translate(88.718 183.247)">
        <path id="Path_98596" data-name="Path 98596" d="M476.619,1552.628v1.164c-2.069-1.32-6.755-2.212-12.2-2.161-5.383.051-10.007,1.01-12.086,2.345v-1.223H451.16v2.906h.01c.207,2.052,6.1,3.645,13.322,3.577,7.343-.069,13.28-1.828,13.26-3.928v-2.681Z" transform="translate(-451.16 -1548.823)" fill="url(#linear-gradient-37)"/>
        <path id="Path_98597" data-name="Path 98597" d="M477.75,1531.442c.02,2.1-5.917,3.859-13.26,3.928s-13.312-1.577-13.332-3.678,5.917-3.859,13.26-3.928S477.73,1529.342,477.75,1531.442Z" transform="translate(-451.159 -1527.762)" fill="url(#linear-gradient-79)"/>
        <path id="Path_98599" data-name="Path 98599" d="M492.8,1533.318c.012,1.659-4.877,3.041-10.922,3.086s-10.954-1.263-10.967-2.923,4.877-3.041,10.922-3.086S492.787,1531.659,492.8,1533.318Z" transform="translate(-468.589 -1530.085)" fill="url(#linear-gradient-80)"/>
        <path id="Path_98598" data-name="Path 98598" d="M492.8,1535.787c.012,1.659-4.877,3.041-10.922,3.086s-10.954-1.263-10.967-2.922,4.877-3.041,10.922-3.086S492.787,1534.128,492.8,1535.787Z" transform="translate(-468.589 -1532.264)" fill="url(#linear-gradient-81)"/>
        <path id="Path_98595" data-name="Path 98595" d="M784.064,1743.933a27.273,27.273,0,0,1-9.115-1.609v2.8a27.25,27.25,0,0,0,9.115,1.61Z" transform="translate(-772.858 -1736.38)" fill="#f95900" opacity="0.16"/>
      </g>
      <g id="Group_21560" data-name="Group 21560" transform="translate(82.37 179.015)">
        <path id="Path_98596-2" data-name="Path 98596" d="M476.619,1552.628v1.164c-2.069-1.32-6.755-2.212-12.2-2.161-5.383.051-10.007,1.01-12.086,2.345v-1.223H451.16v2.906h.01c.207,2.052,6.1,3.645,13.322,3.577,7.343-.069,13.28-1.828,13.26-3.928v-2.681Z" transform="translate(-451.16 -1548.823)" fill="url(#linear-gradient-37)"/>
        <path id="Path_98597-2" data-name="Path 98597" d="M477.75,1531.442c.02,2.1-5.917,3.859-13.26,3.928s-13.312-1.577-13.332-3.678,5.917-3.859,13.26-3.928S477.73,1529.342,477.75,1531.442Z" transform="translate(-451.159 -1527.762)" fill="url(#linear-gradient-79)"/>
        <path id="Path_98599-2" data-name="Path 98599" d="M492.8,1533.318c.012,1.659-4.877,3.041-10.922,3.086s-10.954-1.263-10.967-2.923,4.877-3.041,10.922-3.086S492.787,1531.659,492.8,1533.318Z" transform="translate(-468.589 -1530.085)" fill="url(#linear-gradient-80)"/>
        <path id="Path_98598-2" data-name="Path 98598" d="M492.8,1535.787c.012,1.659-4.877,3.041-10.922,3.086s-10.954-1.263-10.967-2.922,4.877-3.041,10.922-3.086S492.787,1534.128,492.8,1535.787Z" transform="translate(-468.589 -1532.264)" fill="url(#linear-gradient-81)"/>
        <path id="Path_98595-2" data-name="Path 98595" d="M784.064,1743.933a27.273,27.273,0,0,1-9.115-1.609v2.8a27.25,27.25,0,0,0,9.115,1.61Z" transform="translate(-772.858 -1736.38)" fill="#f95900" opacity="0.16"/>
      </g>
      <g id="Group_21562" data-name="Group 21562" transform="matrix(0.174, 0.985, -0.985, 0.174, 46.759, 166.227)">
        <path id="Path_98596-3" data-name="Path 98596" d="M25.459,1V2.163C23.389.843,18.7-.049,13.26,0,7.877.053,3.253,1.012,1.174,2.347V1.124H0V4.031H.01c.207,2.052,6.1,3.645,13.322,3.577,7.343-.069,13.28-1.828,13.26-3.928V1Z" transform="translate(0 2.806)" fill="url(#linear-gradient-107)"/>
        <path id="Path_98597-3" data-name="Path 98597" d="M26.592,3.68c.02,2.1-5.917,3.859-13.26,3.928S.02,6.03,0,3.93,5.917.071,13.26,0,26.572,1.58,26.592,3.68Z" transform="translate(0 0)" fill="url(#linear-gradient-79)"/>
        <path id="Path_98599-3" data-name="Path 98599" d="M21.888,2.924C21.9,4.583,17.011,5.965,10.967,6.01S.012,4.746,0,3.087,4.877.046,10.922,0,21.876,1.264,21.888,2.924Z" transform="translate(2.322 0.309)" fill="url(#linear-gradient-80)"/>
        <path id="Path_98598-3" data-name="Path 98598" d="M21.888,2.924C21.9,4.583,17.011,5.965,10.967,6.01S.012,4.746,0,3.087,4.877.046,10.922,0,21.876,1.264,21.888,2.924Z" transform="translate(2.322 0.6)" fill="url(#linear-gradient-81)"/>
        <path id="Path_98595-3" data-name="Path 98595" d="M9.115,1.609A27.271,27.271,0,0,1,0,0V2.8a27.248,27.248,0,0,0,9.115,1.61Z" transform="translate(2.091 5.944)" fill="#f95900" opacity="0.16"/>
      </g>
      <path id="Path_98600" data-name="Path 98600" d="M9.8-73.729l-.591.875H7.979a1.932,1.932,0,0,1,.313.485,2.342,2.342,0,0,1,.177.627H9.8l-.591.875H8.47a2.333,2.333,0,0,1-.281.8,2.121,2.121,0,0,1-.553.627,2.606,2.606,0,0,1-.813.411,3.511,3.511,0,0,1-1.055.148l3.595,3.825H7.79L4.319-68.793v-.875h.869a3.516,3.516,0,0,0,.757-.077,2.229,2.229,0,0,0,.621-.231,1.572,1.572,0,0,0,.452-.375,1.282,1.282,0,0,0,.251-.517H4.023l.591-.875H7.263a1.381,1.381,0,0,0-.582-.81,2.144,2.144,0,0,0-1.215-.3H4.023l.591-.875Z" transform="translate(52.115 149.116)" fill="#fff"/>
    </g>
  </g>
</svg>
