<svg xmlns="http://www.w3.org/2000/svg" width="512" height="512" viewBox="0 0 512 512">
  <g id="img_working_capital" transform="translate(-2965 -6796)">
    <g id="Path_64277" data-name="Path 64277" transform="translate(2965 6796)" fill="none">
      <path d="M256,0C397.385,0,512,114.615,512,256S397.385,512,256,512,0,397.385,0,256,114.615,0,256,0Z" stroke="none"/>
      <path d="M 256 12 C 121.4579162597656 12 12 121.4579162597656 12 256 C 12 390.5420837402344 121.4579162597656 500 256 500 C 390.5420837402344 500 500 390.5420837402344 500 256 C 500 121.4579162597656 390.5420837402344 12 256 12 M 256 0 C 397.3848571777344 0 512 114.6150817871094 512 256 C 512 397.3848571777344 397.3848571777344 512 256 512 C 114.6150817871094 512 0 397.3848571777344 0 256 C 0 114.6150817871094 114.6150817871094 0 256 0 Z" stroke="none" fill="#0d1b3a"/>
    </g>
    <g id="Group_11602" data-name="Group 11602" transform="translate(580 -503)">
      <path id="Path_64279" data-name="Path 64279" d="M21.844,290.381H56.908a5.844,5.844,0,0,0,5.844-5.844h3.931a94.122,94.122,0,0,0,54.508,17.532h29.22V319.6a5.844,5.844,0,0,0-5.844,5.844v52.6a5.844,5.844,0,0,0,5.844,5.844h81.815a5.844,5.844,0,0,0,5.844-5.844v-52.6a5.844,5.844,0,0,0-5.844-5.844h-1.644a75,75,0,0,0,5.931-17.532h30.776a94.135,94.135,0,0,0,52.726-16.308,5.845,5.845,0,0,0,5.713,4.62h35.064a5.844,5.844,0,0,0,5.844-5.844V214.41a5.844,5.844,0,0,0-5.844-5.844H325.728a5.844,5.844,0,0,0-5.844,5.844V226.1h-4.423a65.205,65.205,0,0,0-43.4,16.391,23.484,23.484,0,0,0-10.621-13.244V167.659a58.534,58.534,0,0,0-43.055-56.37l.527-.791a44.3,44.3,0,0,0,7.465-24.654A5.844,5.844,0,0,0,220.538,80H162.1a5.844,5.844,0,0,0-5.844,5.844,44.3,44.3,0,0,0,7.465,24.655l.527.791a58.534,58.534,0,0,0-43.055,56.37v57.749a4.7,4.7,0,0,1-2.614,4.229,16.33,16.33,0,0,0-7.818,8.371A65.217,65.217,0,0,0,73.018,226.1H62.751V214.41a5.844,5.844,0,0,0-5.844-5.844H21.844A5.844,5.844,0,0,0,16,214.41v70.127a5.844,5.844,0,0,0,5.844,5.844Zm309.728-70.127h23.376v58.439H331.572ZM226.381,372.2H156.254V331.289h70.127ZM162.1,319.6v-52.6h40.889a45.41,45.41,0,0,0-11.669,30.522v6.847h11.688v-6.847a33.836,33.836,0,0,1,9.976-24.084,5.843,5.843,0,0,0,1.712-4.132V249.474a5.844,5.844,0,1,1,11.688,0v37.369a63.518,63.518,0,0,1-9.071,32.758Zm153.363-81.815h4.423V272.85h0a5.844,5.844,0,0,0-3.506,1.169,82.327,82.327,0,0,1-49.089,16.363H237.977c.055-1.177.092-2.355.092-3.539l35.063-8.149V267.006H242.9c-2.661,0-4.826-2.622-4.826-5.844h0a6.366,6.366,0,0,1,1.6-4.324,4.44,4.44,0,0,1,3.231-1.519h30.235v0a5.813,5.813,0,0,0,4.131-1.7A53.661,53.661,0,0,1,315.461,237.786ZM173.443,104.015a32.657,32.657,0,0,1-4.979-12.327h45.707a32.653,32.653,0,0,1-4.979,12.327l-3.515,5.273c-.886-.04-1.776-.068-2.671-.068H179.63c-.9,0-1.785.028-2.671.068ZM123.8,240.091a16.326,16.326,0,0,0,9.074-14.682v-57.75a46.8,46.8,0,0,1,46.751-46.751h23.376a46.8,46.8,0,0,1,46.751,46.751V226.1H238.069v11.688h11.688a11.685,11.685,0,0,1,10.1,5.842H242.9a15.7,15.7,0,0,0-5.515,1,17.53,17.53,0,0,0-34.376,4.848v5.844H155.259a17.56,17.56,0,0,0-16.537-11.688h0l-17.478,0a4.7,4.7,0,0,1,2.563-3.543Zm-50.787-2.3a53.661,53.661,0,0,1,38.2,15.824,5.844,5.844,0,0,0,4.133,1.712h0l23.372,0a5.844,5.844,0,0,1,0,11.688H109.5v11.688H150.41v11.687h-29.22A82.327,82.327,0,0,1,72.1,274.018,5.843,5.843,0,0,0,68.6,272.85H62.751V237.786Zm-45.33-17.532H51.064v58.439H27.688Z" transform="translate(2450 7346.751)" fill="#0d1b3a"/>
      <rect id="Rectangle_3948" data-name="Rectangle 3948" width="18" height="11" transform="translate(2542 7474)" fill="#0d1b3a"/>
      <rect id="Rectangle_3949" data-name="Rectangle 3949" width="18" height="11" transform="translate(2723 7474)" fill="#0d1b3a"/>
      <rect id="Rectangle_3950" data-name="Rectangle 3950" width="17.532" height="11.688" transform="translate(2695.039 7417.362) rotate(-45)" fill="#0d1b3a"/>
      <rect id="Rectangle_3951" data-name="Rectangle 3951" width="12" height="18" transform="translate(2635 7380)" fill="#0d1b3a"/>
      <rect id="Rectangle_3952" data-name="Rectangle 3952" width="11.688" height="17.532" transform="translate(2566.936 7413.23) rotate(-44.998)" fill="#0d1b3a"/>
      <path id="Path_64280" data-name="Path 64280" d="M-50.9-147.628h27.251a12.633,12.633,0,0,0-1.537-3.914,9.354,9.354,0,0,0-3.015-3.015,15.264,15.264,0,0,0-4.812-1.913,30.436,30.436,0,0,0-6.813-.667H-50.958l.058-9.509H3.2v9.509H-14.2a16.138,16.138,0,0,1,2.754,4.233,17.958,17.958,0,0,1,1.421,5.276H3.254v9.451H-10.313a20.578,20.578,0,0,1-6.175,10.959,25.707,25.707,0,0,1-12.321,6.262v.232a22.661,22.661,0,0,1,3.653,2.145,24.414,24.414,0,0,1,3.247,2.841,36.576,36.576,0,0,1,3.1,3.711q1.537,2.087,3.276,4.7L.123-83.5H-15.3l-13.22-21.4q-1.913-3.131-3.624-5.479a20.424,20.424,0,0,0-3.653-3.914,13.68,13.68,0,0,0-4.291-2.348,17.346,17.346,0,0,0-5.479-.783H-50.9v-10.089h11.017a19.873,19.873,0,0,0,5.624-.783,17.219,17.219,0,0,0,4.783-2.2,14.934,14.934,0,0,0,3.595-3.363,12.344,12.344,0,0,0,2.116-4.32H-50.9Z" transform="translate(2665.279 7652.095)" fill="#ec691f"/>
    </g>
  </g>
</svg>
