<svg xmlns="http://www.w3.org/2000/svg" xmlns:xlink="http://www.w3.org/1999/xlink" width="175.315" height="168.851" viewBox="0 0 175.315 168.851">
  <defs>
    <linearGradient id="linear-gradient" x1="0.214" y1="1.049" x2="1.022" y2="0.084" gradientUnits="objectBoundingBox">
      <stop offset="0" stop-color="#fb934b"/>
      <stop offset="0.496" stop-color="#ea7a3d"/>
      <stop offset="0.798" stop-color="#e57139"/>
    </linearGradient>
    <linearGradient id="linear-gradient-2" x1="0.053" y1="0.891" x2="0.745" y2="-0.015" gradientUnits="objectBoundingBox">
      <stop offset="0" stop-color="#e57139"/>
      <stop offset="0.394" stop-color="#ee864b"/>
      <stop offset="1" stop-color="#ffaf6d"/>
    </linearGradient>
  </defs>
  <g id="img_safe_hand" transform="translate(-4668.055 -1760.23)">
    <path id="Path_97995" data-name="Path 97995" d="M277.818,900.865c0,12.455-8.775,27.654-19.562,33.88a17.137,17.137,0,0,1-8.333,2.575c-6.024,0-9.765-4.99-9.765-13.023,0-12.455,8.775-27.654,19.562-33.882a17.128,17.128,0,0,1,8.331-2.575C274.075,887.839,277.818,892.831,277.818,900.865Z" transform="translate(4452.913 918.58)" fill="#162739"/>
    <path id="Path_97996" data-name="Path 97996" d="M312.831,975.193c-6.148,0-10.121-5.126-10.121-13.06,0-11.653,8.212-25.876,18.305-31.705a16.762,16.762,0,0,1,8.172-2.5c6.148,0,10.121,5.126,10.121,13.06,0,11.657-8.212,25.88-18.305,31.706A16.764,16.764,0,0,1,312.831,975.193Z" transform="translate(4397.506 883.07)" fill="#b3b3b3"/>
    <path id="Path_97997" data-name="Path 97997" d="M348.143,951.132c0,11.238-7.917,24.954-17.651,30.573a15.47,15.47,0,0,1-7.518,2.323c-5.436,0-8.813-4.5-8.813-11.752,0-11.238,7.919-24.951,17.651-30.573a15.478,15.478,0,0,1,7.518-2.323C344.766,939.38,348.143,943.883,348.143,951.132Z" transform="translate(4387.363 872.927)" fill="#b3b3b3"/>
    <g id="Group_21417" data-name="Group 21417" transform="translate(4697.776 1808.221)">
      <path id="Path_97998" data-name="Path 97998" d="M425.688,1008.846c-1.547,2.069-3.011,3.21-4.594,3.575-.834,3.2-3.676,9.266-12.972,5.5-3.683-1.495-6.868-2.808-9.648-4.028,3.832,15.478-12.575,11.221-26.979,4.562a35.122,35.122,0,0,0-4.058-1.566l0,0-19.15-6.877c-.952,1.8-2.486,2.933-4.359,2.361-.242-.082-8.069-2.492-11.814-4.192-6.13-2.78-7.195-2.434-12.832-4.579s-7.724-4.039-12.164-10.726-12.335-16.13-13.577-17.813-1.128-3.73-.235-11.5c.583-5.048.253-6.9-1.011-11.323-.864-3.026-4.566-6.252-10.94-9.7,2.882-5.468,3.044-11.44,4.623-15.67,6.229-16.691,6.255-22.9,11.951-23.255.453-.028,13.823,7.2,27.38,12.245,10.786,4.014,18.129,5.811,36.014,22.4,10.52,9.755,11.121,11.987,29.61,22.99,4.413,2.624,27.467,12.519,28.588,23.521.1.965.138,5.361-2.9,6.633C416.615,991.4,431.239,1001.414,425.688,1008.846Z" transform="translate(-281.352 -903.614)" fill="#ffdcce"/>
      <path id="Path_97999" data-name="Path 97999" d="M670.252,1129.434l-15.938,17.5c3.487-11.146-16.506-35.962-19.43-37.236a71.112,71.112,0,0,1,11.491,22.718,55.052,55.052,0,0,1,1.986,18.259,8.21,8.21,0,0,1-2.209,5.258c-4.081,4.363-4.523,4.494-4.766,5.9a133.556,133.556,0,0,0,32.025-34.434A7.321,7.321,0,0,0,670.252,1129.434Z" transform="translate(-594.499 -1086.153)" fill="#ffc8b1"/>
      <path id="Path_98000" data-name="Path 98000" d="M647.518,1528.088c-2.32-10.711-11.781-15.829-14.012-17.353-2.363-1.611-7.2-3.12-8.257-4.662s-4.152-6.176-4.551-6.863l0,0c.013-.016-1.128-3.437-1.128-3.437s-.7,3.514-.237,4.284c1.383,2.29,3.9,6.257,4.707,8.1a14.622,14.622,0,0,0-5.831,3.052c1.87-1.283,5.953-1.645,7.72-1.745,9.371,2.993,19.894,11.6,19.871,21.9,0,2.069-1.589,4.273-3.54,5.5C646.065,1538.077,648.478,1532.254,647.518,1528.088Z" transform="translate(-579.729 -1428.126)" fill="#ffc8b1"/>
      <path id="Path_98001" data-name="Path 98001" d="M335.364,1005.865c-6.13-2.78-7.195-2.434-12.832-4.579s-7.724-4.039-12.164-10.726-12.335-16.13-13.577-17.813c-1.208-1.634-1.132-3.619-.307-10.871h0c.013-.121.726-8.8-.192-13.769-.939-5.091-1.557-25.977,22.02-35.033-10.823-4.557-20.009-9.484-20.383-9.46-5.7.352-5.722,6.564-11.951,23.255-1.579,4.229-1.741,10.2-4.622,15.67,6.374,3.447,10.076,6.672,10.94,9.7,1.264,4.423,1.594,6.277,1.011,11.324,0,.026,0,.053,0,.079l-.006,0c-.883,7.7-.993,9.741.245,11.415s9.134,11.123,13.577,17.812,6.521,8.581,12.164,10.726,6.7,1.8,12.832,4.579c3.635,1.65,11.112,3.968,11.773,4.179a8.463,8.463,0,0,0,2.562-2.529C344.386,1009.174,338.47,1007.276,335.364,1005.865Z" transform="translate(-281.356 -903.614)" fill="#ffc8b1"/>
      <path id="Path_98002" data-name="Path 98002" d="M1415.986,1521.776c-.8-.361-1.812-.834-2.923-1.367,2.262-1.628,2.218-5.326,2.129-6.2-.38-3.746-3.276-7.431-7.114-10.739,4.954,3.766,9,8.15,9.454,12.628C1417.613,1516.888,1417.654,1519.986,1415.986,1521.776Z" transform="translate(-1279.367 -1434.944)" fill="#ffc8b1"/>
      <path id="Path_98003" data-name="Path 98003" d="M1333.287,1781.169c-1.546,2.068-3.01,3.209-4.594,3.577-.835,3.2-3.677,9.265-12.973,5.5-3.47-1.407-6.5-2.656-9.161-3.815a17.862,17.862,0,0,0-.556-3.681c2.778,1.221,5.965,2.534,9.646,4.028,9.3,3.767,12.138-2.3,12.973-5.5,1.584-.368,3.049-1.508,4.594-3.577a6.21,6.21,0,0,0,1.063-2.158A6.268,6.268,0,0,1,1333.287,1781.169Z" transform="translate(-1188.952 -1675.938)" fill="#ffc8b1"/>
      <path id="Path_98004" data-name="Path 98004" d="M1118.9,1598.063a5.12,5.12,0,0,1-1.268.478s3.218-6.5-11.593-13.817c-6.777-3.349-12.823-6.032-17.72-8.158-5.8-2.521-17.2-8.413-19.965-9.385a.957.957,0,0,1,.637-1.8c2.7.931,14.062,6.933,19.8,9.525,5,2.255,11.17,5.062,18.068,8.455C1119.585,1589.615,1119.373,1596,1118.9,1598.063Z" transform="translate(-977.886 -1489.733)" fill="#ffc8b1"/>
      <path id="Path_98005" data-name="Path 98005" d="M983.345,1669.354c-.544-.231-1.071-.462-1.586-.687,0,0-.554-5.447-14.8-11.45-13.469-5.676-22.21-9.5-26.728-12.76a.9.9,0,0,1,1.052-1.452c4.5,3.267,13.26,7.1,26.777,12.8,6.825,2.878,10.612,5.642,12.705,7.742A8.746,8.746,0,0,1,983.345,1669.354Z" transform="translate(-864.638 -1558.389)" fill="#ffc8b1"/>
      <path id="Path_98006" data-name="Path 98006" d="M1165.533,1509.168a3.847,3.847,0,0,1-1.356.951s-14.005-6.45-20.489-9.707c-5.8-2.913-12.563-7.1-17.887-9.6a.828.828,0,1,1,.761-1.469c4.58,2.616,21.232,11.741,25.469,13.481C1154.811,1503.964,1162.089,1507.615,1165.533,1509.168Z" transform="translate(-1028.914 -1422.336)" fill="#ffc8b1"/>
      <path id="Path_98007" data-name="Path 98007" d="M709.283,1765.11c-4.1-1.3-8.709-2.859-11.283-4.027-1.417-.642-2.563-1.119-3.559-1.5-.131-2.47.612-7.32,8.9-5.608C711.812,1755.73,711.406,1761.3,709.283,1765.11Z" transform="translate(-647.241 -1656.521)" fill="#fff0eb"/>
      <path id="Path_98008" data-name="Path 98008" d="M697.792,1770.184c-1.324-.6-2.406-1.046-3.352-1.4a5.658,5.658,0,0,1,1.728-4.78A9.464,9.464,0,0,1,697.792,1770.184Z" transform="translate(-647.24 -1665.714)" fill="#ffdcce"/>
      <path id="Path_98009" data-name="Path 98009" d="M877.526,1747.259a35.4,35.4,0,0,0-4.058-1.566l0,0-19.168-6.884a24.656,24.656,0,0,0-1.654-12.4c2.144,4.463,5.428,7.261,7.423,9.288,4.829,4.893,17.072,7.9,25.309,10.884,9.622,3.483,18.33,4.484,19.483-2.176C907.066,1757.843,891.371,1753.661,877.526,1747.259Z" transform="translate(-787.383 -1632.42)" fill="#ffc8b1"/>
      <path id="Path_98010" data-name="Path 98010" d="M1029.923,1893.641c-.214-.069-.43-.136-.646-.2.216.063.43.13.644.2Z" transform="translate(-943.838 -1780.368)" fill="#eb8c65"/>
      <path id="Path_98011" data-name="Path 98011" d="M828.972,1855.611l.13.041-.149-.046Z" transform="translate(-766.398 -1746.856)" fill="#eb8c65"/>
      <path id="Path_98012" data-name="Path 98012" d="M858.612,1846.1c-.026.03-.05.06-.076.088a.55.55,0,0,1-.05.054C858.53,1846.191,858.571,1846.143,858.612,1846.1Z" transform="translate(-792.558 -1738.432)" fill="#eb8c65"/>
    </g>
    <path id="Path_98013" data-name="Path 98013" d="M311.211,973.778c0-.012-.007-.027-.012-.04h.007c-4.475-.822-7.187-5.109-7.187-11.6,0-11.238,7.918-24.954,17.65-30.574a15.467,15.467,0,0,1,7.518-2.323,7.993,7.993,0,0,1,7.636,5.243c-.007-.016-.012-.032-.019-.048q.81.344,1.636.686c-1.488-4.5-4.8-7.19-9.253-7.19a16.773,16.773,0,0,0-8.172,2.5c-10.093,5.83-18.3,20.052-18.3,31.707,0,7.382,3.442,12.332,8.875,12.984Q311.415,974.487,311.211,973.778Z" transform="translate(4397.506 883.068)" fill="#e6e6e6"/>
    <path id="Path_98014" data-name="Path 98014" d="M109.033,814.013a9.349,9.349,0,0,0-4.475-1.079,16.771,16.771,0,0,0-8.172,2.5c-10.093,5.83-18.3,20.052-18.3,31.707,0,5.529,1.932,9.7,5.186,11.712-1.474-.847-34.155-21.338-34.155-21.338L79.965,798.1Z" transform="translate(4622.135 998.065)" fill="#fff"/>
    <path id="Path_98015" data-name="Path 98015" d="M266.619,881.984l-.141-.069-.01,0-2.182-1.264c-3.557-5.591-10.134-4.909-15.918-1.567-10.786,6.227-19.561,21.427-19.561,33.881,0,7.358,3.562,13.427,10.51,12.99.992.573,1.639.943,1.822,1.049.084.052.17.1.257.151l-.054.012c-8.128,1.632-14-3.8-14-14.2,0-12.938,9.086-28.678,20.294-35.147C256.315,872.8,263.717,874.814,266.619,881.984Z" transform="translate(4464.262 929.917)" fill="#2c4861"/>
    <path id="Subtraction_29" data-name="Subtraction 29" d="M28.864,64.354,4.112,50.059a12.061,12.061,0,0,1-2.017-2.731A16.84,16.84,0,0,1,.2,41.446a22.181,22.181,0,0,1-.16-4.22A29.177,29.177,0,0,1,.8,32.1a40.84,40.84,0,0,1,1.985-6.07,59.44,59.44,0,0,1,3.5-7.054,64.862,64.862,0,0,1,3.656-5.662A48.62,48.62,0,0,1,13.555,8.89a37.169,37.169,0,0,1,3.5-3.336,29.271,29.271,0,0,1,3.314-2.4,22.039,22.039,0,0,1,5.8-2.567A16.324,16.324,0,0,1,30.41,0,9.989,9.989,0,0,1,32.6.209l25.073,14.5a10.419,10.419,0,0,0-5.265-1.34,15.055,15.055,0,0,0-4.333.681,22.6,22.6,0,0,0-4.73,2.091C32.155,22.6,23.051,38.365,23.051,51.287c0,6.162,2.056,10.8,5.788,13.047a.09.09,0,0,0,.025.017v0Z" transform="translate(4668.556 1791.589)" fill="#32526e" stroke="rgba(0,0,0,0)" stroke-miterlimit="10" stroke-width="1"/>
    <path id="Subtraction_30" data-name="Subtraction 30" d="M34.282,50.939a11.265,11.265,0,0,1-2.894-.366A9.831,9.831,0,0,1,28.839,49.5a.093.093,0,0,0,.025.017v0L4.111,35.222a11.167,11.167,0,0,1-1.463-1.815A15.189,15.189,0,0,1,.926,29.8a19.274,19.274,0,0,1-.919-5.545,24.946,24.946,0,0,1,.174-3.542,31.318,31.318,0,0,1,.774-4.078L25.221,30.044A41.9,41.9,0,0,1,27.866,21.9a47.96,47.96,0,0,1,4.268-7.719,43.767,43.767,0,0,1,5.525-6.654,32.435,32.435,0,0,1,6.417-4.953A17.279,17.279,0,0,1,52.282,0l5.2,2.846a9.865,9.865,0,0,0-2.5-.308,16.768,16.768,0,0,0-8.172,2.5c-8.58,4.956-16.107,16.333-17.9,27.053l3.161,1.747.03.017a28.584,28.584,0,0,0-.449,4.927c0,5.4,1.89,9.669,5.186,11.712.074.046.152.091.227.134l.029.017-.029.007h0l-.023,0A14.093,14.093,0,0,1,34.282,50.939Z" transform="translate(4668.556 1806.426)" stroke="rgba(0,0,0,0)" stroke-miterlimit="10" stroke-width="1" opacity="0.11"/>
    <path id="Path_134762" data-name="Path 134762" d="M849.291-6638.776s-3.8,2.644-.685,7.921,11.23,23.408,29.361,10.689,25.978-16.236,23.543-17.048-17.184-7.848-17.184-7.848Z" transform="translate(3889.558 8498.648)" opacity="0.14"/>
    <g id="Group_32162" data-name="Group 32162" transform="translate(4742.381 1760.23)">
      <g id="Falling_coin" data-name="Falling coin" transform="translate(0 0)">
        <g id="Group_10400" data-name="Group 10400">
          <g id="Group_10398" data-name="Group 10398">
            <path id="Path_59855" data-name="Path 59855" d="M1718.973,573.049c0-15.754,11.06-34.91,24.7-42.786s24.705-1.491,24.705,14.262-11.063,34.909-24.7,42.786S1718.973,588.8,1718.973,573.049Z" transform="translate(-1703.254 -512.943)" fill="#ffaf6d"/>
            <path id="Path_59856" data-name="Path 59856" d="M1742.854,518.878c-17.414,10.055-31.532,34.506-31.532,54.613s14.118,28.257,31.532,18.205,31.531-34.507,31.531-54.613S1760.268,508.825,1742.854,518.878Zm0,64.934c-13.639,7.877-24.7,1.491-24.7-14.263s11.054-34.908,24.7-42.785,24.7-1.491,24.7,14.263S1756.5,575.935,1742.854,583.812Z" transform="translate(-1700.325 -508.228)" fill="#ffd56e"/>
            <path id="Path_59857" data-name="Path 59857" d="M1767.323,530.636c3.869,2.8,6.22,8.063,6.22,15.323,0,15.752-11.063,34.908-24.7,42.786-6.286,3.628-12.017,4.223-16.375,2.278,4.524,3.278,11.126,3.186,18.481-1.062,13.645-7.876,24.7-27.033,24.7-42.785C1775.652,538.678,1772.427,532.913,1767.323,530.636Z" transform="translate(-1708.42 -514.377)" fill="url(#linear-gradient)"/>
            <path id="Path_59858" data-name="Path 59858" d="M1747.82,506.7c-5.74-3.619-13.826-3.278-22.785,1.9-17.414,10.054-31.531,34.505-31.531,54.614,0,10.2,3.636,17.314,9.488,20.544h-.006l10.045,5.768c-5.287-3.459-8.53-10.335-8.53-19.963,0-20.107,14.118-44.558,31.532-54.613,8.519-4.919,16.243-5.469,21.922-2.405l-10.135-5.849Z" transform="translate(-1693.504 -504.293)" fill="url(#linear-gradient-2)"/>
          </g>
        </g>
      </g>
      <path id="Path_64177" data-name="Path 64177" d="M12.159,4.357a13.3,13.3,0,0,1,.928,2.862l2.6.009.016,4.315L13.6,11.536l0,.676a21.032,21.032,0,0,1-.954,6.807,8.752,8.752,0,0,1-2.772,4.253l4.163,13.167-4.312-.015L5.989,24.506l-4.882-.017-.025-6.758,4.609.016A3.1,3.1,0,0,0,8.6,16.041a9.418,9.418,0,0,0,.962-4.519L.043,11.489.027,7.174l8.946.031q-1-2.915-3.48-2.871L.016,4.315,0,0,15.662.054l.016,4.315Z" transform="translate(37.174 29.142) rotate(-3)" fill="#ffd56e"/>
      <path id="Path_64178" data-name="Path 64178" d="M-21523.025,7788.692l1.547,1.342.3,6.689-1.451-1.3Z" transform="translate(21560.717 -7743.201)" fill="#f28f53"/>
      <path id="Path_64179" data-name="Path 64179" d="M-21511,7810.151l1.488,1.312-.518-1.367-3.828-10.3h-.992" transform="translate(21558.309 -7746.469)" fill="#f28f53"/>
      <path id="Path_64180" data-name="Path 64180" d="M-21514.891,7781.22l-.146.92a8.182,8.182,0,0,1-1.2,3.118,2.853,2.853,0,0,1-2.174.945l-4.605.253,1.564,1.341,4.584-.261a2.9,2.9,0,0,0,2.365-1.081,9.492,9.492,0,0,0,1.143-3.654v-1.677Z" transform="translate(21560.713 -7740.973)" fill="#ea7a3d"/>
      <path id="Path_64181" data-name="Path 64181" d="M-21514.852,7774.524l-1.486-1.367-8.943.451,1.5,1.335Z" transform="translate(21561.379 -7738.629)" fill="#ea793d"/>
      <path id="Path_64182" data-name="Path 64182" d="M-21525.051,7778.1l-.23-4.322,1.5,1.356.234,4.29Z" transform="translate(21561.379 -7738.813)" fill="#f28f53"/>
      <path id="Path_64184" data-name="Path 64184" d="M-21524.639,7777.953l-.254-4.312,1.523,1.334.23,4.29Z" transform="translate(21560.561 -7745.829)" fill="#f28f53"/>
      <path id="Path_64185" data-name="Path 64185" d="M-21510.2,7762.579l-15.625.738,1.486,1.346,15.627-.75Z" transform="translate(21561.541 -7735.516)" fill="#ea793d"/>
      <path id="Path_64186" data-name="Path 64186" d="M-21505.361,7772.76l.486,1.412,2.59-.132-1.51-1.368Z" transform="translate(21555.518 -7738.486)" fill="#ea793d"/>
    </g>
  </g>
</svg>
