<svg xmlns="http://www.w3.org/2000/svg" xmlns:xlink="http://www.w3.org/1999/xlink" width="2156.668" height="2159.121" viewBox="0 0 2156.668 2159.121">
  <defs>
    <linearGradient id="linear-gradient" y1="0.5" x2="1" y2="0.5" gradientUnits="objectBoundingBox">
      <stop offset="0" stop-color="#d9e2f9"/>
      <stop offset="1" stop-color="#eef2fc"/>
    </linearGradient>
    <linearGradient id="linear-gradient-2" x1="49.966" y1="0.5" x2="50.966" y2="0.5" xlink:href="#linear-gradient"/>
    <linearGradient id="linear-gradient-3" y1="0.5" x2="1" y2="0.5" gradientUnits="objectBoundingBox">
      <stop offset="0" stop-color="#e1e8fb"/>
      <stop offset="0.481" stop-color="#e3eafb"/>
      <stop offset="0.812" stop-color="#ecf1fc"/>
      <stop offset="1" stop-color="#f6f8fd"/>
    </linearGradient>
  </defs>
  <g id="img_dashboard" transform="translate(11756.084 -18717.689)">
    <path id="Path_94434" data-name="Path 94434" d="M1635.815,1525.423c0,.79,0,1.659-.079,2.448a27.974,27.974,0,0,1-7.738,17.372c-4.422,4.737-10.423,7.58-16.74,9.081a123.657,123.657,0,0,0-37.822,16.108,119.3,119.3,0,0,0-18.4,14.37,70.974,70.974,0,0,1-48.562,19.109h-.553c-17.766,0-36.164-4.264-50.456-11.607-13.818-7.186-22.583-15.4-25.425-29.137a53.217,53.217,0,0,1-.948-10.423,33.241,33.241,0,0,1,1.342-9.317c5.449-19.9,27.558-34.112,47.614-41.929,16.661-6.475,35.454-13.581,45.166-16.187,30.558-8.37,53.3-10.9,75.724-1.579,3,1.342,6.08,2.764,9.159,4.5,2.448,1.421,4.738,2.842,6.791,4.027,12.318,8.291,17.45,15.555,19.5,21.4C1636.21,1518.712,1635.815,1522.818,1635.815,1525.423Z" transform="translate(-11904 18571)" fill="#f5f5f5"/>
    <path id="Path_94435" data-name="Path 94435" d="M1609.435,1546.641c5.506-1.3,9.8-3.585,12.754-6.747a20.26,20.26,0,0,0,5.691-12.784c.053-.549.039-1.142.039-1.689l.008-.8c-4.415,4.7-10.383,7.447-16.669,9.018a121.77,121.77,0,0,0-37.822,16.109,119.242,119.242,0,0,0-18.4,14.371,70.973,70.973,0,0,1-48.562,19.108h-.553c-17.766,0-36.164-4.264-50.456-11.686-7.8-4.013-13.878-8.432-18.252-13.959a38.977,38.977,0,0,0,.564,3.991c2.1,10.188,8.081,16.842,21.3,23.713,13.279,6.824,30.351,10.733,46.845,10.733h.539a62.832,62.832,0,0,0,43.128-16.925,126.917,126.917,0,0,1,19.571-15.3A132.085,132.085,0,0,1,1609.435,1546.641Z" transform="translate(-11904 18571)" fill="#ffbf9b"/>
    <path id="Path_94436" data-name="Path 94436" d="M1358.031,1486.292l-12.853.018L938.91,1252.878a29.328,29.328,0,0,0-29.336.037l-122.44,70.918-11.637.016.02,14.626a14.681,14.681,0,0,0,7.35,13.249l411.885,236.58a29.327,29.327,0,0,0,29.329-.041l126.67-73.37a14.52,14.52,0,0,0,7.3-12.9Z" transform="translate(-11904 18571)" opacity="0.16"/>
    <path id="Path_94437" data-name="Path 94437" d="M1209.416,1586.978a24.1,24.1,0,0,1-12.054-3.211L785.471,1347.192a9.279,9.279,0,0,1-4.66-8.524l.2-5.43c-.27,0-.276-4.168-.276-4.168l7.8-.011L912.2,1257.444a24.111,24.111,0,0,1,24.1-.034l407.486,234.13,9.036-.012.006,4.091c-.088-.015-.017,6.456-.017,6.456a9.3,9.3,0,0,1-4.677,8.291l-126.671,73.368A24.1,24.1,0,0,1,1209.416,1586.978Z" transform="translate(-11904 18571)" fill="#ffbf9b"/>
    <path id="Path_94438" data-name="Path 94438" d="M782.809,1309.476l126.741-73.41a29.33,29.33,0,0,1,29.337-.036L1350.7,1472.646a14.665,14.665,0,0,1,.031,25.4l-126.669,73.37a29.331,29.331,0,0,1-29.33.042L782.844,1334.875A14.664,14.664,0,0,1,782.809,1309.476Z" transform="translate(-11904 18571)" fill="#f5f5f5"/>
    <path id="Path_94439" data-name="Path 94439" d="M827.908,1323.856l-14.38-8.251c-2.169-1.245-2.441-3.036-.608-4l12.155-6.405c1.833-.966,5.077-.74,7.245.5l14.381,8.252c2.169,1.243,2.441,3.035.608,4l-12.156,6.405C833.32,1325.326,830.076,1325.1,827.908,1323.856Z" transform="translate(-11904 18571)" fill="#f5c4a8"/>
    <path id="Path_94440" data-name="Path 94440" d="M887.095,1357.816l-14.381-8.251c-2.168-1.244-2.441-3.036-.607-4l12.155-6.405c1.833-.966,5.077-.74,7.246.5l14.379,8.252c2.17,1.243,2.441,3.036.608,4l-12.155,6.4C892.507,1359.286,889.263,1359.06,887.095,1357.816Z" transform="translate(-11904 18571)" fill="#f5c4a8"/>
    <path id="Path_94441" data-name="Path 94441" d="M857.5,1340.836l-14.38-8.252c-2.169-1.244-2.44-3.035-.608-4l12.155-6.405c1.833-.966,5.077-.74,7.246.5l14.38,8.251c2.169,1.245,2.44,3.036.608,4l-12.155,6.4C862.914,1342.306,859.67,1342.08,857.5,1340.836Z" transform="translate(-11904 18571)" fill="#f5c4a8"/>
    <path id="Path_94442" data-name="Path 94442" d="M1058.048,1455.889l-14.381-8.251c-2.168-1.244-2.44-3.036-.607-4l12.155-6.405c1.833-.966,5.077-.74,7.246.505l14.38,8.25c2.169,1.245,2.441,3.037.608,4l-12.156,6.4C1063.46,1457.359,1060.216,1457.134,1058.048,1455.889Z" transform="translate(-11904 18571)" fill="#f5c4a8"/>
    <path id="Path_94443" data-name="Path 94443" d="M916.614,1374.753l-14.381-8.251c-2.168-1.244-2.44-3.036-.607-4l12.155-6.405c1.833-.967,5.076-.741,7.246.5l14.379,8.251c2.169,1.244,2.441,3.036.608,4l-12.155,6.4C922.026,1376.224,918.782,1376,916.614,1374.753Z" transform="translate(-11904 18571)" fill="#f5c4a8"/>
    <path id="Path_94444" data-name="Path 94444" d="M1115.881,1489.147,1101.5,1480.9c-2.169-1.244-2.441-3.035-.608-4l12.155-6.406c1.833-.965,5.077-.74,7.245.505l14.381,8.251c2.168,1.245,2.44,3.036.607,4l-12.155,6.405C1121.294,1490.616,1118.05,1490.391,1115.881,1489.147Z" transform="translate(-11904 18571)" fill="#f5c4a8"/>
    <path id="Path_94445" data-name="Path 94445" d="M1144.8,1505.775l-14.381-8.251c-2.168-1.244-2.44-3.036-.607-4l12.155-6.405c1.833-.965,5.076-.74,7.245.5l14.38,8.252c2.169,1.244,2.441,3.036.608,4l-12.155,6.406C1150.211,1507.245,1146.967,1507.019,1144.8,1505.775Z" transform="translate(-11904 18571)" fill="#f5c4a8"/>
    <path id="Path_94446" data-name="Path 94446" d="M1202.632,1539.033l-14.38-8.251c-2.169-1.245-2.441-3.036-.608-4l12.155-6.4c1.833-.966,5.078-.74,7.246.5l14.38,8.251c2.169,1.245,2.441,3.036.608,4l-12.155,6.405C1208.045,1540.5,1204.8,1540.277,1202.632,1539.033Z" transform="translate(-11904 18571)" fill="#f5c4a8"/>
    <path id="Path_94447" data-name="Path 94447" d="M1173.716,1522.4l-14.381-8.251c-2.168-1.244-2.441-3.036-.608-4l12.155-6.405c1.833-.966,5.078-.74,7.246.5l14.38,8.251c2.169,1.245,2.441,3.037.608,4l-12.155,6.4C1179.128,1523.874,1175.884,1523.648,1173.716,1522.4Z" transform="translate(-11904 18571)" fill="#f5c4a8"/>
    <path id="Path_94448" data-name="Path 94448" d="M1086.965,1472.518l-14.38-8.251c-2.169-1.245-2.441-3.036-.608-4l12.155-6.405c1.833-.966,5.077-.74,7.245.5l14.381,8.251c2.168,1.245,2.44,3.037.607,4l-12.155,6.405C1092.377,1473.988,1089.134,1473.762,1086.965,1472.518Z" transform="translate(-11904 18571)" fill="#f5c4a8"/>
    <path id="Path_94449" data-name="Path 94449" d="M1028.111,1438.989l-96.776-55.529c-2.192-1.257-2.467-3.068-.615-4.045l12.286-6.473c1.852-.976,5.132-.749,7.323.51l96.777,55.528c2.192,1.257,2.466,3.069.614,4.045l-12.285,6.474C1033.582,1440.474,1030.3,1440.247,1028.111,1438.989Z" transform="translate(-11904 18571)" fill="#f5c4a8"/>
    <path id="Path_94450" data-name="Path 94450" d="M926.546,1271.88l-14.381-8.251c-2.168-1.244-2.44-3.036-.607-4l12.155-6.4c1.834-.967,5.078-.741,7.246.5l14.38,8.251c2.169,1.244,2.44,3.036.608,4l-12.156,6.405C931.958,1273.351,928.714,1273.125,926.546,1271.88Z" transform="translate(-11904 18571)" fill="#f5c4a8"/>
    <path id="Path_94451" data-name="Path 94451" d="M985.724,1305.835l-14.381-8.25c-2.168-1.245-2.44-3.037-.607-4l12.155-6.406c1.834-.966,5.077-.739,7.246.5l14.38,8.252c2.169,1.244,2.44,3.035.607,4l-12.155,6.405C991.136,1307.305,987.892,1307.079,985.724,1305.835Z" transform="translate(-11904 18571)" fill="#f5c4a8"/>
    <path id="Path_94452" data-name="Path 94452" d="M955.737,1288.63l-14.381-8.252c-2.168-1.244-2.44-3.035-.608-4l12.156-6.405c1.833-.965,5.077-.74,7.245.505l14.381,8.25c2.168,1.245,2.44,3.037.607,4l-12.155,6.405C961.149,1290.1,957.905,1289.873,955.737,1288.63Z" transform="translate(-11904 18571)" fill="#f5c4a8"/>
    <path id="Path_94453" data-name="Path 94453" d="M1015.711,1323.041l-14.381-8.251c-2.168-1.245-2.44-3.036-.607-4l12.155-6.406c1.833-.965,5.077-.74,7.245.5l14.381,8.252c2.168,1.244,2.44,3.035.607,4l-12.155,6.406C1021.123,1324.511,1017.88,1324.286,1015.711,1323.041Z" transform="translate(-11904 18571)" fill="#f5c4a8"/>
    <path id="Path_94454" data-name="Path 94454" d="M1045.7,1340.247,1031.317,1332c-2.168-1.244-2.44-3.036-.608-4l12.156-6.4c1.834-.967,5.077-.741,7.246.5l14.38,8.251c2.168,1.244,2.44,3.036.607,4l-12.155,6.405C1051.11,1341.718,1047.866,1341.492,1045.7,1340.247Z" transform="translate(-11904 18571)" fill="#f5c4a8"/>
    <path id="Path_94455" data-name="Path 94455" d="M1075.685,1357.453l-14.38-8.251c-2.169-1.244-2.441-3.036-.608-4l12.156-6.405c1.832-.967,5.076-.741,7.245.5l14.38,8.251c2.169,1.244,2.441,3.036.607,4l-12.154,6.4C1081.1,1358.923,1077.854,1358.7,1075.685,1357.453Z" transform="translate(-11904 18571)" fill="#f5c4a8"/>
    <path id="Path_94456" data-name="Path 94456" d="M1105.672,1374.659l-14.38-8.251c-2.169-1.244-2.441-3.036-.608-4L1102.84,1356c1.832-.966,5.076-.74,7.245.5l14.38,8.252c2.169,1.244,2.441,3.035.608,4l-12.155,6.4C1111.085,1376.129,1107.84,1375.9,1105.672,1374.659Z" transform="translate(-11904 18571)" fill="#f5c4a8"/>
    <path id="Path_94457" data-name="Path 94457" d="M1135.659,1391.866l-14.38-8.252c-2.169-1.244-2.44-3.036-.608-4l12.156-6.405c1.832-.965,5.076-.739,7.245.5l14.38,8.251c2.169,1.245,2.441,3.037.608,4l-12.155,6.406C1141.071,1393.335,1137.827,1393.109,1135.659,1391.866Z" transform="translate(-11904 18571)" fill="#f5c4a8"/>
    <path id="Path_94458" data-name="Path 94458" d="M1165.646,1409.071l-14.38-8.25c-2.168-1.245-2.441-3.037-.608-4l12.156-6.405c1.832-.965,5.076-.74,7.245.5l14.38,8.251c2.169,1.245,2.441,3.036.608,4l-12.155,6.405C1171.059,1410.541,1167.814,1410.316,1165.646,1409.071Z" transform="translate(-11904 18571)" fill="#f5c4a8"/>
    <path id="Path_94459" data-name="Path 94459" d="M1195.633,1426.278l-14.38-8.252c-2.169-1.244-2.441-3.035-.608-4l12.156-6.4c1.833-.966,5.077-.741,7.245.5l14.381,8.251c2.168,1.244,2.44,3.036.607,4l-12.156,6.406C1201.045,1427.747,1197.8,1427.521,1195.633,1426.278Z" transform="translate(-11904 18571)" fill="#f5c4a8"/>
    <path id="Path_94460" data-name="Path 94460" d="M1225.62,1443.483l-14.38-8.251c-2.168-1.244-2.44-3.036-.608-4l12.156-6.4c1.832-.967,5.076-.741,7.245.5l14.381,8.252c2.168,1.244,2.44,3.035.607,4l-12.155,6.4C1231.033,1444.954,1227.789,1444.728,1225.62,1443.483Z" transform="translate(-11904 18571)" fill="#f5c4a8"/>
    <path id="Path_94461" data-name="Path 94461" d="M1255.607,1460.689l-14.38-8.251c-2.168-1.244-2.44-3.036-.607-4l12.155-6.406c1.833-.965,5.076-.74,7.245.5l14.38,8.252c2.169,1.244,2.441,3.036.608,4l-12.155,6.405C1261.02,1462.159,1257.776,1461.934,1255.607,1460.689Z" transform="translate(-11904 18571)" fill="#f5c4a8"/>
    <path id="Path_94462" data-name="Path 94462" d="M1300.144,1485.793l-27.1-15.548c-2.074-1.19-2.335-2.9-.581-3.828l11.626-6.127c1.753-.923,4.856-.707,6.93.483l27.1,15.549c2.074,1.19,2.334,2.9.581,3.827l-11.627,6.126C1305.321,1487.2,1302.218,1486.984,1300.144,1485.793Z" transform="translate(-11904 18571)" fill="#f5c4a8"/>
    <path id="Path_94463" data-name="Path 94463" d="M976.687,1327.793l-14.381-8.251c-2.167-1.244-2.44-3.036-.607-4l12.155-6.406c1.833-.965,5.077-.74,7.245.5l14.381,8.252c2.168,1.244,2.441,3.035.608,4l-12.156,6.4C982.1,1329.263,978.856,1329.037,976.687,1327.793Z" transform="translate(-11904 18571)" fill="#f5c4a8"/>
    <path id="Path_94464" data-name="Path 94464" d="M946.666,1310.567l-14.381-8.251c-2.168-1.244-2.44-3.035-.608-4l12.156-6.4c1.832-.965,5.076-.74,7.245.5l14.38,8.251c2.169,1.244,2.441,3.036.608,4l-12.156,6.406C952.078,1312.037,948.834,1311.812,946.666,1310.567Z" transform="translate(-11904 18571)" fill="#f5c4a8"/>
    <path id="Path_94465" data-name="Path 94465" d="M1006.709,1345.019l-14.381-8.251c-2.169-1.244-2.44-3.036-.607-4l12.155-6.405c1.833-.966,5.077-.74,7.245.5l14.38,8.252c2.169,1.244,2.441,3.035.608,4l-12.155,6.4C1012.121,1346.489,1008.877,1346.263,1006.709,1345.019Z" transform="translate(-11904 18571)" fill="#f5c4a8"/>
    <path id="Path_94466" data-name="Path 94466" d="M1036.731,1362.245l-14.381-8.251c-2.169-1.245-2.441-3.037-.607-4l12.154-6.4c1.833-.966,5.077-.74,7.245.5l14.381,8.251c2.169,1.244,2.44,3.036.607,4l-12.155,6.405C1042.142,1363.715,1038.9,1363.489,1036.731,1362.245Z" transform="translate(-11904 18571)" fill="#f5c4a8"/>
    <path id="Path_94467" data-name="Path 94467" d="M1066.752,1379.471l-14.381-8.252c-2.168-1.244-2.44-3.035-.608-4l12.155-6.405c1.834-.966,5.078-.74,7.246.5l14.381,8.251c2.168,1.244,2.44,3.036.607,4L1074,1379.975C1072.164,1380.941,1068.921,1380.715,1066.752,1379.471Z" transform="translate(-11904 18571)" fill="#f5c4a8"/>
    <path id="Path_94468" data-name="Path 94468" d="M1096.774,1396.7l-14.382-8.252c-2.168-1.244-2.44-3.036-.607-4l12.155-6.405c1.833-.966,5.077-.741,7.246.5l14.38,8.252c2.168,1.244,2.44,3.036.608,4l-12.156,6.406C1102.186,1398.166,1098.942,1397.941,1096.774,1396.7Z" transform="translate(-11904 18571)" fill="#f5c4a8"/>
    <path id="Path_94469" data-name="Path 94469" d="M1126.8,1413.922l-14.381-8.251c-2.168-1.244-2.44-3.036-.608-4l12.156-6.4c1.832-.965,5.077-.74,7.245.5l14.381,8.251c2.168,1.245,2.44,3.036.607,4l-12.155,6.405C1132.207,1415.392,1128.964,1415.167,1126.8,1413.922Z" transform="translate(-11904 18571)" fill="#f5c4a8"/>
    <path id="Path_94470" data-name="Path 94470" d="M1156.816,1431.148l-14.38-8.251c-2.169-1.245-2.441-3.036-.608-4l12.155-6.405c1.833-.966,5.078-.74,7.246.5l14.381,8.252c2.168,1.244,2.44,3.035.607,4l-12.155,6.405C1162.228,1432.618,1158.985,1432.392,1156.816,1431.148Z" transform="translate(-11904 18571)" fill="#f5c4a8"/>
    <path id="Path_94471" data-name="Path 94471" d="M1186.838,1448.374l-14.381-8.252c-2.168-1.243-2.44-3.035-.607-4l12.155-6.405c1.833-.966,5.077-.74,7.246.5l14.379,8.251c2.169,1.245,2.441,3.036.608,4l-12.155,6.405C1192.25,1449.844,1189.006,1449.618,1186.838,1448.374Z" transform="translate(-11904 18571)" fill="#f5c4a8"/>
    <path id="Path_94472" data-name="Path 94472" d="M1216.86,1465.6l-14.381-8.25c-2.168-1.245-2.441-3.037-.607-4l12.154-6.405c1.833-.966,5.078-.74,7.246.5l14.38,8.251c2.169,1.244,2.441,3.036.608,4l-12.156,6.4C1222.272,1467.07,1219.028,1466.844,1216.86,1465.6Z" transform="translate(-11904 18571)" fill="#f5c4a8"/>
    <path id="Path_94473" data-name="Path 94473" d="M1246.881,1482.826l-14.38-8.252c-2.168-1.244-2.441-3.036-.608-4l12.155-6.4c1.833-.966,5.077-.741,7.246.5l14.38,8.251c2.168,1.244,2.441,3.036.608,4l-12.156,6.4C1252.293,1484.3,1249.05,1484.069,1246.881,1482.826Z" transform="translate(-11904 18571)" fill="#f5c4a8"/>
    <path id="Path_94474" data-name="Path 94474" d="M1276.535,1499.84l-14.38-8.251c-2.168-1.244-2.44-3.036-.608-4l12.156-6.4c1.832-.967,5.076-.741,7.245.5l14.38,8.25c2.169,1.245,2.441,3.037.608,4l-12.155,6.405C1281.947,1501.31,1278.7,1501.085,1276.535,1499.84Z" transform="translate(-11904 18571)" fill="#f5c4a8"/>
    <path id="Path_94475" data-name="Path 94475" d="M916.474,1292.8l-27.1-15.55c-2.075-1.19-2.334-2.9-.581-3.827l11.626-6.127c1.753-.923,4.856-.708,6.93.483l27.1,15.548c2.074,1.19,2.334,2.9.581,3.828l-11.627,6.126C921.65,1294.2,918.548,1293.984,916.474,1292.8Z" transform="translate(-11904 18571)" fill="#f5c4a8"/>
    <path id="Path_94476" data-name="Path 94476" d="M959.266,1344.941l-14.38-8.251c-2.169-1.245-2.44-3.036-.608-4l12.156-6.405c1.832-.966,5.077-.74,7.245.5l14.381,8.251c2.168,1.244,2.44,3.036.607,4l-12.155,6.4C964.679,1346.411,961.435,1346.185,959.266,1344.941Z" transform="translate(-11904 18571)" fill="#f5c4a8"/>
    <path id="Path_94477" data-name="Path 94477" d="M929.264,1327.726l-14.381-8.252c-2.168-1.243-2.44-3.036-.607-4l12.155-6.405c1.833-.966,5.077-.741,7.245.5l14.381,8.251c2.168,1.244,2.44,3.036.608,4l-12.156,6.405C934.676,1329.2,931.432,1328.97,929.264,1327.726Z" transform="translate(-11904 18571)" fill="#f5c4a8"/>
    <path id="Path_94478" data-name="Path 94478" d="M989.269,1362.156l-14.38-8.251c-2.169-1.244-2.441-3.036-.608-4l12.155-6.4c1.834-.966,5.077-.741,7.246.5l14.38,8.252c2.168,1.243,2.44,3.035.608,4l-12.156,6.405C994.682,1363.626,991.438,1363.4,989.269,1362.156Z" transform="translate(-11904 18571)" fill="#f5c4a8"/>
    <path id="Path_94479" data-name="Path 94479" d="M1019.272,1379.371l-14.38-8.252c-2.169-1.243-2.441-3.035-.608-4l12.156-6.405c1.833-.966,5.076-.74,7.245.5l14.38,8.251c2.169,1.245,2.441,3.036.607,4l-12.155,6.405C1024.684,1380.841,1021.44,1380.615,1019.272,1379.371Z" transform="translate(-11904 18571)" fill="#f5c4a8"/>
    <path id="Path_94480" data-name="Path 94480" d="M1049.274,1396.586l-14.379-8.251c-2.169-1.245-2.441-3.036-.608-4l12.156-6.405c1.832-.966,5.076-.74,7.245.5l14.38,8.251c2.169,1.244,2.441,3.036.607,4l-12.155,6.4C1054.687,1398.055,1051.443,1397.83,1049.274,1396.586Z" transform="translate(-11904 18571)" fill="#f5c4a8"/>
    <path id="Path_94481" data-name="Path 94481" d="M1079.278,1413.8l-14.381-8.251c-2.168-1.244-2.44-3.036-.607-4l12.155-6.405c1.833-.966,5.076-.74,7.245.5l14.381,8.251c2.168,1.244,2.44,3.036.608,4l-12.156,6.405C1084.69,1415.271,1081.446,1415.045,1079.278,1413.8Z" transform="translate(-11904 18571)" fill="#f5c4a8"/>
    <path id="Path_94482" data-name="Path 94482" d="M1109.28,1431.016l-14.38-8.251c-2.169-1.245-2.441-3.036-.608-4l12.155-6.4c1.834-.966,5.077-.74,7.246.5l14.38,8.251c2.169,1.244,2.441,3.036.608,4l-12.155,6.405C1114.693,1432.486,1111.449,1432.26,1109.28,1431.016Z" transform="translate(-11904 18571)" fill="#f5c4a8"/>
    <path id="Path_94483" data-name="Path 94483" d="M1139.283,1448.231l-14.38-8.251c-2.169-1.244-2.441-3.036-.608-4l12.155-6.405c1.834-.966,5.077-.74,7.246.5l14.38,8.251c2.169,1.244,2.441,3.036.608,4l-12.156,6.405C1144.695,1449.7,1141.451,1449.476,1139.283,1448.231Z" transform="translate(-11904 18571)" fill="#f5c4a8"/>
    <path id="Path_94484" data-name="Path 94484" d="M1169.286,1465.446l-14.38-8.252c-2.169-1.244-2.441-3.035-.608-4l12.155-6.405c1.833-.966,5.077-.74,7.245.5l14.381,8.251c2.168,1.245,2.441,3.036.607,4l-12.154,6.4C1174.7,1466.915,1171.455,1466.69,1169.286,1465.446Z" transform="translate(-11904 18571)" fill="#f5c4a8"/>
    <path id="Path_94485" data-name="Path 94485" d="M1199.289,1482.661l-14.381-8.251c-2.168-1.245-2.44-3.036-.607-4l12.155-6.4c1.833-.966,5.077-.74,7.245.5l14.38,8.251c2.169,1.244,2.441,3.036.608,4l-12.155,6.405C1204.7,1484.13,1201.457,1483.905,1199.289,1482.661Z" transform="translate(-11904 18571)" fill="#f5c4a8"/>
    <path id="Path_94486" data-name="Path 94486" d="M897.668,1309.226l-32.7-18.76c-2.091-1.2-2.353-2.927-.586-3.858l11.719-6.176c1.768-.931,4.9-.714,6.987.486l32.7,18.76c2.091,1.2,2.353,2.928.586,3.859l-11.72,6.175C902.887,1310.643,899.759,1310.426,897.668,1309.226Z" transform="translate(-11904 18571)" fill="#f5c4a8"/>
    <path id="Path_94487" data-name="Path 94487" d="M1250.424,1511.63l-32.7-18.76c-2.091-1.2-2.354-2.927-.586-3.859l11.72-6.175c1.766-.931,4.894-.713,6.985.486l32.7,18.761c2.09,1.2,2.352,2.927.585,3.858l-11.719,6.176C1255.643,1513.048,1252.515,1512.83,1250.424,1511.63Z" transform="translate(-11904 18571)" fill="#f5c4a8"/>
    <path id="Path_94488" data-name="Path 94488" d="M949.648,1366.7l-14.381-8.251c-2.169-1.244-2.44-3.036-.607-4l12.155-6.4c1.833-.966,5.077-.74,7.246.5l14.38,8.251c2.169,1.245,2.441,3.036.607,4l-12.154,6.405C955.06,1368.168,951.816,1367.942,949.648,1366.7Z" transform="translate(-11904 18571)" fill="#f5c4a8"/>
    <path id="Path_94489" data-name="Path 94489" d="M919.667,1349.5l-14.379-8.251c-2.17-1.244-2.441-3.036-.608-4l12.155-6.405c1.833-.966,5.077-.74,7.245.5l14.381,8.252c2.168,1.243,2.44,3.035.607,4L926.913,1350C925.08,1350.966,921.836,1350.741,919.667,1349.5Z" transform="translate(-11904 18571)" fill="#f5c4a8"/>
    <path id="Path_94490" data-name="Path 94490" d="M979.628,1383.9l-14.38-8.251c-2.169-1.244-2.441-3.036-.608-4l12.156-6.405c1.833-.966,5.077-.74,7.245.505l14.38,8.251c2.169,1.244,2.441,3.036.608,4l-12.155,6.405C985.041,1385.37,981.8,1385.145,979.628,1383.9Z" transform="translate(-11904 18571)" fill="#f5c4a8"/>
    <path id="Path_94491" data-name="Path 94491" d="M1009.608,1401.1l-14.38-8.251c-2.169-1.244-2.441-3.036-.607-4l12.155-6.405c1.833-.966,5.077-.739,7.245.5l14.38,8.252c2.169,1.244,2.441,3.035.608,4l-12.156,6.4C1015.02,1402.572,1011.777,1402.347,1009.608,1401.1Z" transform="translate(-11904 18571)" fill="#f5c4a8"/>
    <path id="Path_94492" data-name="Path 94492" d="M1039.589,1418.3l-14.38-8.251c-2.169-1.244-2.441-3.036-.608-4l12.155-6.4c1.833-.967,5.077-.741,7.245.5l14.38,8.251c2.169,1.244,2.441,3.036.608,4l-12.155,6.4C1045,1419.775,1041.757,1419.549,1039.589,1418.3Z" transform="translate(-11904 18571)" fill="#f5c4a8"/>
    <path id="Path_94493" data-name="Path 94493" d="M1069.569,1435.507l-14.38-8.252c-2.169-1.244-2.441-3.035-.607-4l12.154-6.4c1.833-.966,5.077-.74,7.246.5l14.38,8.251c2.169,1.244,2.441,3.036.608,4l-12.156,6.405C1074.981,1436.976,1071.738,1436.751,1069.569,1435.507Z" transform="translate(-11904 18571)" fill="#f5c4a8"/>
    <path id="Path_94494" data-name="Path 94494" d="M1099.55,1452.708l-14.382-8.25c-2.167-1.245-2.44-3.037-.607-4l12.156-6.405c1.833-.966,5.076-.74,7.245.5l14.38,8.252c2.169,1.244,2.441,3.036.608,4l-12.155,6.4C1104.962,1454.179,1101.718,1453.953,1099.55,1452.708Z" transform="translate(-11904 18571)" fill="#f5c4a8"/>
    <path id="Path_94495" data-name="Path 94495" d="M1129.529,1469.911l-14.38-8.252c-2.169-1.244-2.441-3.035-.607-4l12.154-6.4c1.834-.966,5.078-.74,7.246.5l14.381,8.251c2.168,1.244,2.44,3.036.607,4l-12.155,6.405C1134.942,1471.381,1131.7,1471.155,1129.529,1469.911Z" transform="translate(-11904 18571)" fill="#f5c4a8"/>
    <path id="Path_94496" data-name="Path 94496" d="M1159.51,1487.113l-14.381-8.251c-2.168-1.245-2.44-3.036-.607-4l12.155-6.406c1.833-.965,5.077-.739,7.246.505l14.38,8.251c2.168,1.244,2.441,3.036.608,4l-12.156,6.4C1164.922,1488.583,1161.678,1488.357,1159.51,1487.113Z" transform="translate(-11904 18571)" fill="#f5c4a8"/>
    <path id="Path_94497" data-name="Path 94497" d="M888.6,1331.694l-49.2-28.231c-2.229-1.279-2.509-3.121-.624-4.114l12.495-6.585c1.884-.992,5.219-.76,7.448.519l49.2,28.231c2.23,1.279,2.51,3.121.625,4.114l-12.495,6.584C894.166,1333.2,890.831,1332.973,888.6,1331.694Z" transform="translate(-11904 18571)" fill="#f5c4a8"/>
    <path id="Path_94498" data-name="Path 94498" d="M1225.72,1525.125l-49.2-28.231c-2.229-1.279-2.509-3.12-.625-4.113l12.495-6.584c1.885-.994,5.219-.761,7.449.518l49.2,28.231c2.23,1.279,2.509,3.12.625,4.113l-12.495,6.585C1231.284,1526.636,1227.949,1526.4,1225.72,1525.125Z" transform="translate(-11904 18571)" fill="#f5c4a8"/>
    <path id="Path_94499" data-name="Path 94499" d="M1343.187,1072.737,1214.759,1010.2v133.6l128.428,74.463Z" transform="translate(-11904 18571)" fill="#e4e4e4"/>
    <path id="Path_94500" data-name="Path 94500" d="M1446.214,1328.42c0-9.268-3.453-16.075-14.8-22.606l-69.175-39.819a38.02,38.02,0,0,1-19.051-32.953v-14.565l-128.43-74.463v4.207a19.01,19.01,0,0,1-28.5,16.476L1155.7,1147.1c-17.632-10.149-44.024-12.022-58.949-4.185L1016.2,1185.1c-6.807,3.575-10.037,8.57-9.883,13.889v19.176c.025,6.433,5.35,13.379,15.1,18.99l275.242,158.713c17.63,10.149,44.023,12.022,58.949,4.184l80.547-42.183C1448.9,1350.05,1446.214,1339.559,1446.214,1328.42Z" transform="translate(-11904 18571)" fill="#f5f5f5"/>
    <path id="Path_94501" data-name="Path 94501" d="M1434.925,1339.273l-81.543,42.639c-16.046,8.391-35.264,6.267-50.966-2.75l-279.224-160.347a21.238,21.238,0,0,1-9.023-9.615,22.624,22.624,0,0,1-1.421-4.2v13.581c.016,2.68,2.952,7.488,11.2,12.235l275.331,158.145c17.663,10.144,39.276,12.339,57.346,2.938l74.036-38.517c6.189-3.794,6.73-7.56,6.5-15.619A23.983,23.983,0,0,1,1434.925,1339.273Z" transform="translate(-11904 18571)" fill="#ffbf9b"/>
    <path id="Path_94502" data-name="Path 94502" d="M1782.7,1296.16V723.242a114.324,114.324,0,0,0-57.163-99.586L912.729,154.382a56.421,56.421,0,0,0-53.877-1.635c-5.8,3.089-33.652,18.421-31.867,17.439a56.552,56.552,0,0,0-30.2,50.347V791.75a114.325,114.325,0,0,0,56.829,98.814l812.972,471.36c30.939,18,57.168,2.16,89.019-17.5A56.517,56.517,0,0,0,1782.7,1296.16Z" transform="translate(-11904 18571)" fill="#f5f5f5"/>
    <path id="Path_94503" data-name="Path 94503" d="M1757.037,1327.24a43.037,43.037,0,0,0,14.243-32.085V722.222a101.778,101.778,0,0,0-50.713-88.392l-812.8-469.263a43.128,43.128,0,0,0-33.612-4.337,61.284,61.284,0,0,1,12.371,5.471L1699.3,634.964c42.385,22.991,59.709,53.1,59.709,103.941v572.933A62.511,62.511,0,0,1,1757.037,1327.24Z" transform="translate(-11904 18571)" fill="#ffbf9b"/>
    <path id="Path_94504" data-name="Path 94504" d="M870.838,245.113V800.094l809.214,470.018V713.152Z" transform="translate(-11904 18571)" fill="#f7f9ff"/>
    <path id="Path_94505" data-name="Path 94505" d="M1609.732,854.016v-1.2a10.389,10.389,0,0,0-5.194-9l-80.527-47.629a4.155,4.155,0,0,0-6.234,3.6v1.23a10.389,10.389,0,0,0,5.2,9l80.526,47.6A4.156,4.156,0,0,0,1609.732,854.016Z" transform="translate(-11904 18571)" fill="#647db4"/>
    <path id="Path_94506" data-name="Path 94506" d="M1547.452,852.442v-1.2a10.388,10.388,0,0,0-5.194-9l-18.247-10.61a4.155,4.155,0,0,0-6.234,3.6v1.231a10.388,10.388,0,0,0,5.2,9l18.246,10.578A4.156,4.156,0,0,0,1547.452,852.442Z" transform="translate(-11904 18571)" fill="#ff975d"/>
    <path id="Path_94507" data-name="Path 94507" d="M1610.236,891.487v-1.2a10.389,10.389,0,0,0-5.194-9l-43.224-26.1a4.155,4.155,0,0,0-6.233,3.6v1.23a10.39,10.39,0,0,0,5.2,9L1604,895.085A4.155,4.155,0,0,0,1610.236,891.487Z" transform="translate(-11904 18571)" fill="#1a3a81"/>
    <path id="Path_94508" data-name="Path 94508" d="M1609.73,741.378a.8.8,0,0,1-.4-.111l-91.953-52.723a.815.815,0,0,1,.809-1.416l91.952,52.723a.818.818,0,0,1-.4,1.527Z" transform="translate(-11904 18571)" fill="#707070"/>
    <path id="Path_94509" data-name="Path 94509" d="M1609.73,764.6a.79.79,0,0,1-.4-.112l-48.944-28.058a.815.815,0,0,1,.809-1.416l48.943,28.058a.819.819,0,0,1-.4,1.528Z" transform="translate(-11904 18571)" fill="#707070"/>
    <path id="Path_94510" data-name="Path 94510" d="M1549.274,729.94a.8.8,0,0,1-.4-.111l-31.5-18.058a.815.815,0,0,1,.809-1.416l31.5,18.058a.818.818,0,0,1-.4,1.527Z" transform="translate(-11904 18571)" fill="#707070"/>
    <path id="Path_94511" data-name="Path 94511" d="M1609.73,787.825a.8.8,0,0,1-.4-.111l-91.953-52.723a.815.815,0,0,1,.809-1.416l91.952,52.723a.818.818,0,0,1-.4,1.527Z" transform="translate(-11904 18571)" fill="#707070"/>
    <path id="Path_94512" data-name="Path 94512" d="M1573.437,790.236a.8.8,0,0,1-.4-.111l-55.66-31.913a.815.815,0,1,1,.809-1.415l55.66,31.912a.818.818,0,0,1-.405,1.527Z" transform="translate(-11904 18571)" fill="#707070"/>
    <path id="Path_94513" data-name="Path 94513" d="M1609.73,811.047a.8.8,0,0,1-.4-.112l-24.472-14.03a.815.815,0,1,1,.809-1.415l24.471,14.029a.819.819,0,0,1-.4,1.528Z" transform="translate(-11904 18571)" fill="#707070"/>
    <path id="Path_94514" data-name="Path 94514" d="M1364.54,636.682q-21.781-14.022-43.566-28.041c-9.607,31.2.986,66.6,16.741,93.946l31.455-18.053s-3.866-7.7-4.366-8.929a66.74,66.74,0,0,1-2.913-8.9C1359.474,657.029,1359,645.436,1364.54,636.682Z" transform="translate(-11904 18571)" fill="#d5dff9"/>
    <path id="Path_94515" data-name="Path 94515" d="M1471.163,702.417c-.914-20.227-7.606-43.031-20.174-64.823l-18.294,10.479-13.243,7.6c12.788,22.17,11.871,46.558-2.015,54.529-15.642,8.977-37.009-6.147-48.236-25.612-.031-.057-31.486,18-31.486,18,16.616,28.813,43.039,53.368,69.2,61.146,13.71,4.071,27.354,3.53,39.468-3.423C1463.972,750.209,1472.329,728.416,1471.163,702.417Z" transform="translate(-11904 18571)" fill="#ff975d"/>
    <path id="Path_94516" data-name="Path 94516" d="M1342.356,579.939c-.1.056-.183.127-.281.184a43.364,43.364,0,0,0-14.051,13.317c-.111.165-.222.331-.331.5a55.451,55.451,0,0,0-5.679,11.479c-.227.624-.905,2.786-1.04,3.223l43.566,28.041a19.358,19.358,0,0,1,6.709-6.563c13.875-7.963,35.444,3.478,48.2,25.555l13.243-7.6,18.294-10.479C1422.256,587.814,1373.623,561.993,1342.356,579.939Z" transform="translate(-11904 18571)" fill="#1a3a81"/>
    <path id="Path_94517" data-name="Path 94517" d="M1418.654,753.134c-23.581,0-53.019-17.341-74.407-54.422-15.461-26.8-21.056-56.293-14.963-78.883,3.36-12.476,10.156-21.952,19.647-27.4,27.325-15.68,69.694,6.462,94.446,49.373,15.461,26.807,21.056,56.3,14.964,78.885-3.36,12.479-10.157,21.952-19.647,27.4A39.938,39.938,0,0,1,1418.654,753.134Zm-49.835-161.5a35.167,35.167,0,0,0-17.738,4.536c-8.474,4.866-14.571,13.433-17.632,24.778-5.8,21.508-.362,49.771,14.542,75.6,20.545,35.633,60.257,64.035,88.553,47.791,8.474-4.866,14.57-13.433,17.631-24.779,5.8-21.507.363-49.77-14.542-75.6C1421.074,611.774,1392.475,591.638,1368.819,591.638Z" transform="translate(-11904 18571)" fill="#fff"/>
    <path id="Path_94518" data-name="Path 94518" d="M1313.192,778.758V999.486a31.119,31.119,0,0,0,15.588,27l262.8,151.718a12.417,12.417,0,0,0,18.656-10.762V946.587a31.092,31.092,0,0,0-15.591-26.938L1331.911,768A12.453,12.453,0,0,0,1313.192,778.758Z" transform="translate(-11904 18571)" fill="url(#linear-gradient)"/>
    <path id="Path_94519" data-name="Path 94519" d="M1370.792,949.848V1021.3c-10.93-6.323-19.6-11.382-25.023-14.544V935.394Z" transform="translate(-11904 18571)" fill="#1a3a81"/>
    <path id="Path_94520" data-name="Path 94520" d="M1451.642,1028.8v39.295c-8.492-4.878-16.893-9.755-25.022-14.544v-39.205Z" transform="translate(-11904 18571)" fill="#1a3a81"/>
    <path id="Path_94521" data-name="Path 94521" d="M1493.647,977.219V1092.4c-8.129-4.7-16.532-9.575-25.023-14.454V962.765Z" transform="translate(-11904 18571)" fill="#ff975d"/>
    <path id="Path_94522" data-name="Path 94522" d="M1535.561,1040.905v75.7c-7.767-4.517-16.168-9.4-25.023-14.545v-75.609Z" transform="translate(-11904 18571)" fill="#1a3a81"/>
    <path id="Path_94523" data-name="Path 94523" d="M1577.658,986.072V1140.9c-4.426-2.62-13.279-7.678-25.113-14.453V971.618Z" transform="translate(-11904 18571)" fill="#ff975d"/>
    <path id="Path_94524" data-name="Path 94524" d="M1409.726,841.357v202.528c-8.943-5.239-17.343-10.117-25.113-14.543V826.9Z" transform="translate(-11904 18571)" fill="#ff975d"/>
    <path id="Path_94525" data-name="Path 94525" d="M1543.372,1120.728a.82.82,0,0,1-.82-.82V1011.627a.82.82,0,1,1,1.639,0v108.281A.82.82,0,0,1,1543.372,1120.728Z" transform="translate(-11904 18571)" fill="#211155"/>
    <path id="Path_94526" data-name="Path 94526" d="M1501.821,1098.843a.821.821,0,0,1-.82-.82V1045.6a.82.82,0,0,1,1.64,0v52.419A.821.821,0,0,1,1501.821,1098.843Z" transform="translate(-11904 18571)" fill="#211155"/>
    <path id="Path_94527" data-name="Path 94527" d="M1460.27,1074.541a.82.82,0,0,1-.819-.82V950.65a.819.819,0,1,1,1.639,0v123.071A.82.82,0,0,1,1460.27,1074.541Z" transform="translate(-11904 18571)" fill="#211155"/>
    <path id="Path_94528" data-name="Path 94528" d="M1418.714,1049.926a.821.821,0,0,1-.82-.82V983.3a.82.82,0,0,1,1.64,0v65.8A.821.821,0,0,1,1418.714,1049.926Z" transform="translate(-11904 18571)" fill="#211155"/>
    <path id="Path_94529" data-name="Path 94529" d="M1377.163,1026.109a.82.82,0,0,1-.82-.82V870.459a.82.82,0,0,1,1.639,0v154.83A.82.82,0,0,1,1377.163,1026.109Z" transform="translate(-11904 18571)" fill="#211155"/>
    <path id="Path_94530" data-name="Path 94530" d="M1052.005,445.96v-2.272a19.689,19.689,0,0,0-9.843-17.05L922.552,356.4a7.875,7.875,0,0,0-11.813,6.819v2.332a19.689,19.689,0,0,0,9.847,17.053l119.607,70.177A7.876,7.876,0,0,0,1052.005,445.96Z" transform="translate(-11904 18571)" fill="#ff975d"/>
    <path id="Path_94531" data-name="Path 94531" d="M1232.915,553.86v-2.273a19.687,19.687,0,0,0-9.843-17.049l-129.838-77.852a7.875,7.875,0,0,0-11.814,6.819v2.332a19.687,19.687,0,0,0,9.847,17.053L1221.1,560.681A7.875,7.875,0,0,0,1232.915,553.86Z" transform="translate(-11904 18571)" fill="#1a3a81"/>
    <path id="Path_94532" data-name="Path 94532" d="M1085.444,831.42v-2.273a19.689,19.689,0,0,0-9.842-17.05L921.154,722.279a7.875,7.875,0,0,0-11.813,6.82v2.332a19.686,19.686,0,0,0,9.847,17.052l154.444,89.758A7.876,7.876,0,0,0,1085.444,831.42Z" transform="translate(-11904 18571)" fill="#647db4"/>
    <path id="Path_94533" data-name="Path 94533" d="M925.84,448.478a10.3,10.3,0,0,1-5.067-1.538c-6.259-3.609-10.931-12.513-10.879-20.709.032-4.476,1.518-7.882,4.067-9.346,2.155-1.235,4.939-.995,7.824.671,6.408,3.7,11.2,12.746,11.144,21.038-.031,4.407-1.447,7.632-3.991,9.091A6.162,6.162,0,0,1,925.84,448.478Zm-8.835-30.747a4.423,4.423,0,0,0-2.23.575c-2.033,1.165-3.215,4.055-3.241,7.935-.053,7.654,4.268,15.946,10.059,19.283,2.555,1.474,4.816,1.719,6.53.74,1.991-1.139,3.146-3.939,3.167-7.68.053-7.622-4.481-16.238-10.325-19.613A8.062,8.062,0,0,0,917.005,417.731Z" transform="translate(-11904 18571)" fill="#707070"/>
    <path id="Path_94534" data-name="Path 94534" d="M964.507,471.8a10.272,10.272,0,0,1-5.062-1.538c-6.259-3.613-10.937-12.518-10.884-20.708.032-4.477,1.517-7.883,4.066-9.347,2.177-1.24,4.95-1,7.824.666,6.408,3.7,11.2,12.746,11.145,21.044-.032,4.407-1.448,7.632-3.992,9.09A6.161,6.161,0,0,1,964.507,471.8Zm-8.83-30.746a4.443,4.443,0,0,0-2.236.574c-2.033,1.166-3.214,4.056-3.241,7.936-.053,7.648,4.274,15.94,10.064,19.283,2.534,1.468,4.8,1.729,6.526.739,1.99-1.139,3.145-3.938,3.167-7.679.053-7.628-4.482-16.244-10.326-19.619A8.109,8.109,0,0,0,955.677,441.059Z" transform="translate(-11904 18571)" fill="#707070"/>
    <path id="Path_94535" data-name="Path 94535" d="M1003.189,493.723a10.291,10.291,0,0,1-5.067-1.539c-6.259-3.619-10.937-12.517-10.884-20.709.032-4.476,1.517-7.882,4.071-9.34,2.151-1.245,4.94-1,7.824.665,6.408,3.694,11.2,12.741,11.145,21.039-.032,4.407-1.448,7.632-3.992,9.091A6.156,6.156,0,0,1,1003.189,493.723Zm-8.835-30.747a4.436,4.436,0,0,0-2.235.574c-2.034,1.166-3.215,4.062-3.242,7.936-.053,7.648,4.274,15.935,10.064,19.283,2.555,1.474,4.817,1.719,6.531.739,1.99-1.139,3.145-3.938,3.167-7.68.053-7.627-4.482-16.243-10.325-19.612A8.067,8.067,0,0,0,994.354,462.976Z" transform="translate(-11904 18571)" fill="#707070"/>
    <path id="Path_94536" data-name="Path 94536" d="M925.84,802.1a10.3,10.3,0,0,1-5.067-1.539c-6.259-3.613-10.931-12.517-10.879-20.708.032-4.476,1.518-7.882,4.067-9.346,2.155-1.23,4.939-.995,7.824.67,6.408,3.694,11.2,12.742,11.144,21.039-.031,4.407-1.447,7.633-3.991,9.091A6.162,6.162,0,0,1,925.84,802.1Zm-8.835-30.747a4.423,4.423,0,0,0-2.23.575c-2.033,1.165-3.215,4.056-3.241,7.935-.053,7.648,4.268,15.941,10.059,19.283,2.555,1.469,4.816,1.714,6.53.74,1.991-1.139,3.146-3.939,3.167-7.68.053-7.627-4.481-16.244-10.325-19.613A8.062,8.062,0,0,0,917.005,771.353Z" transform="translate(-11904 18571)" fill="#707070"/>
    <path id="Path_94537" data-name="Path 94537" d="M964.507,825.427a10.272,10.272,0,0,1-5.062-1.538c-6.259-3.614-10.937-12.518-10.884-20.709.032-4.476,1.517-7.882,4.066-9.345,2.177-1.241,4.95-1,7.824.664,6.408,3.7,11.2,12.747,11.145,21.045-.032,4.4-1.448,7.627-3.992,9.085A6.149,6.149,0,0,1,964.507,825.427Zm-8.83-30.747a4.443,4.443,0,0,0-2.236.575c-2.033,1.166-3.214,4.056-3.241,7.936-.053,7.648,4.274,15.94,10.064,19.283,2.534,1.468,4.8,1.729,6.526.739,1.99-1.139,3.145-3.938,3.167-7.68.053-7.627-4.482-16.244-10.326-19.618A8.111,8.111,0,0,0,955.677,794.68Z" transform="translate(-11904 18571)" fill="#707070"/>
    <path id="Path_94538" data-name="Path 94538" d="M1003.189,847.344a10.29,10.29,0,0,1-5.067-1.538c-6.259-3.619-10.937-12.518-10.884-20.709.032-4.476,1.517-7.882,4.071-9.345,2.156-1.235,4.945-1,7.824.665,6.408,3.7,11.2,12.747,11.145,21.044-.032,4.4-1.448,7.627-3.992,9.085A6.146,6.146,0,0,1,1003.189,847.344ZM994.354,816.6a4.427,4.427,0,0,0-2.235.575c-2.034,1.165-3.215,4.06-3.242,7.935-.053,7.648,4.274,15.935,10.064,19.282,2.555,1.47,4.8,1.73,6.536.735,1.985-1.139,3.14-3.933,3.162-7.675.053-7.626-4.482-16.243-10.325-19.618A8.117,8.117,0,0,0,994.354,816.6Z" transform="translate(-11904 18571)" fill="#707070"/>
    <path id="Path_94539" data-name="Path 94539" d="M1142.2,459.357a.811.811,0,0,1-.41-.112L910.331,324.751a.819.819,0,0,1-.3-1.117.83.83,0,0,1,1.118-.3l231.455,134.494a.819.819,0,0,1-.41,1.528Z" transform="translate(-11904 18571)" fill="#707070"/>
    <path id="Path_94540" data-name="Path 94540" d="M984.406,705.213a.793.793,0,0,1-.4-.112l-73.666-42.237a.815.815,0,0,1,.809-1.415l73.666,42.237a.818.818,0,0,1-.4,1.527Z" transform="translate(-11904 18571)" fill="#707070"/>
    <path id="Path_94541" data-name="Path 94541" d="M1164.751,807.5a.8.8,0,0,1-.4-.112L996.988,711.43a.815.815,0,0,1,.809-1.416l167.359,95.955a.819.819,0,0,1-.405,1.528Z" transform="translate(-11904 18571)" fill="#707070"/>
    <path id="Path_94542" data-name="Path 94542" d="M1231.067,844.811a.8.8,0,0,1-.405-.112l-51.141-29.32a.813.813,0,0,1-.3-1.112.822.822,0,0,1,1.112-.3l51.142,29.32a.818.818,0,0,1-.4,1.528Z" transform="translate(-11904 18571)" fill="#707070"/>
    <path id="Path_94543" data-name="Path 94543" d="M1136.57,811.76a.8.8,0,0,1-.4-.112L910.336,682.168a.815.815,0,0,1,.809-1.416l225.83,129.48a.819.819,0,0,1-.405,1.528Z" transform="translate(-11904 18571)" fill="#707070"/>
    <path id="Path_94544" data-name="Path 94544" d="M1232.914,490.55a.811.811,0,0,1-.41-.112L910.331,303.377a.818.818,0,0,1,.82-1.416l322.172,187.062a.819.819,0,0,1-.409,1.527Z" transform="translate(-11904 18571)" fill="#707070"/>
    <path id="Path_94545" data-name="Path 94545" d="M1232.915,731.8v6.312l-26.973,33.8-86.275-180.934-51.436,101.4-39.767-66.824-54.2-18.241-31.12-81.779-33.8,16.684v-4.409l35.877-17.721,32.072,84.028,53.856,18.152,36.827,61.9,51.782-102.181,86.967,182.578Z" transform="translate(-11904 18571)" fill="#ff975d"/>
    <path id="Path_94546" data-name="Path 94546" d="M1130.792,581.023c-5.6-9.717-15.095-14.755-21.2-11.253s-6.5,14.218-.9,23.936c4.933,8.553,14.323,15.2,21.2,11.254C1135.993,601.457,1136.4,590.741,1130.792,581.023Z" transform="translate(-11904 18571)" fill="#647db4"/>
    <path id="Path_94547" data-name="Path 94547" d="M1074.4,684.767c-3.114-5.4-8.386-8.2-11.776-6.252s-3.613,7.9-.5,13.3c2.74,4.752,7.957,8.444,11.776,6.252C1077.293,696.119,1077.517,690.166,1074.4,684.767Z" transform="translate(-11904 18571)" fill="#ff975d"/>
    <path id="Path_94548" data-name="Path 94548" d="M1212.23,764.881c-3.114-5.4-8.386-8.2-11.775-6.252s-3.614,7.9-.5,13.3c2.74,4.751,7.957,8.444,11.775,6.252C1215.12,776.233,1215.344,770.28,1212.23,764.881Z" transform="translate(-11904 18571)" fill="#ff975d"/>
    <path id="Path_94549" data-name="Path 94549" d="M1036.91,620.378c-3.735-6.477-10.062-9.837-14.13-7.5s-4.337,9.479-.6,15.957c3.288,5.7,9.548,10.132,14.13,7.5C1040.378,634,1040.647,626.857,1036.91,620.378Z" transform="translate(-11904 18571)" fill="#1a3a81"/>
    <path id="Path_94550" data-name="Path 94550" d="M982.213,600.432c-3.114-5.4-8.386-8.2-11.776-6.252s-3.614,7.9-.5,13.3c2.74,4.751,7.957,8.443,11.775,6.252C985.1,611.784,985.326,605.831,982.213,600.432Z" transform="translate(-11904 18571)" fill="#ff975d"/>
    <path id="Path_94551" data-name="Path 94551" d="M949.8,519.741c-3.114-5.4-8.386-8.2-11.776-6.252s-3.613,7.9-.5,13.3c2.741,4.751,7.957,8.443,11.776,6.252C952.693,531.093,952.917,525.139,949.8,519.741Z" transform="translate(-11904 18571)" fill="#1a3a81"/>
    <path id="Path_94552" data-name="Path 94552" d="M1183.955,1758.272a39.653,39.653,0,0,0-19.965-36.291L594.421,1392.9a80.351,80.351,0,0,0-80.108,0L167.845,1592.926a39.755,39.755,0,0,0-19.838,37.431l-.05,22.237a39.564,39.564,0,0,0,19.921,32.975l569.766,328.954a80.107,80.107,0,0,0,80.109,0l346.254-199.916a39.536,39.536,0,0,0,19.836-31.526Z" transform="translate(-11904 18571)" fill="#f5f5f5"/>
    <path id="Path_94553" data-name="Path 94553" d="M1159.94,1792.369,805.427,1992.638c-16.962,9.573-38.073,8.833-54.986-.827l-581.786-332.3a39.621,39.621,0,0,1-13.275-12.469l.1,2.479a32.685,32.685,0,0,0,16.569,27.438l570.159,326.069a73.8,73.8,0,0,0,73.109.093l341.22-193.979a32.8,32.8,0,0,0,16.5-26.227l.151-1.769c0-.261.026-.535,0-1.181A39.7,39.7,0,0,1,1159.94,1792.369Z" transform="translate(-11904 18571)" fill="#ffbf9b"/>
    <path id="Path_94554" data-name="Path 94554" d="M219.651,1602.15,539.4,1416.959a30.715,30.715,0,0,1,30.9.1l547.809,321.769a13.691,13.691,0,0,1-.081,23.668L798.253,1947.669a30.714,30.714,0,0,1-30.894-.107L219.571,1625.817A13.691,13.691,0,0,1,219.651,1602.15Z" transform="translate(-11904 18571)" fill="#f7f9ff"/>
    <path id="Path_94555" data-name="Path 94555" d="M551.906,1473.326c59.9,0,108.47,24.178,108.47,54.008H551.9l-40.964-50.011A206.71,206.71,0,0,1,551.906,1473.326Z" transform="translate(-11904 18571)" fill="#ff70e9"/>
    <path id="Path_94556" data-name="Path 94556" d="M510.935,1477.323l40.964,50.011L470.3,1563.041c-8.526-4.842-15.362-10.437-19.985-16.581-4.468-5.912-6.9-12.31-6.9-18.98C443.421,1504.87,471.336,1485.371,510.935,1477.323Z" transform="translate(-11904 18571)" fill="#647db4"/>
    <path id="Path_94557" data-name="Path 94557" d="M470.212,1562.882c.818.481,1.66.962,2.526,1.419,19.794,10.487,47.887,17.028,79.058,17.028,59.913,0,108.474-24.171,108.474-53.995H551.8Z" transform="translate(-11904 18571)" fill="#1a3a81"/>
    <path id="Path_94558" data-name="Path 94558" d="M294.486,1631.878a1.363,1.363,0,0,1-.681-2.544l122.748-70.669a1.364,1.364,0,1,1,1.362,2.363L295.168,1631.7A1.37,1.37,0,0,1,294.486,1631.878Z" transform="translate(-11904 18571)" fill="#5a43db"/>
    <path id="Path_94559" data-name="Path 94559" d="M378.711,1614.453a1.363,1.363,0,0,1-.681-2.544l65.331-37.618a1.364,1.364,0,1,1,1.362,2.364l-65.331,37.617A1.363,1.363,0,0,1,378.711,1614.453Z" transform="translate(-11904 18571)" fill="#5a43db"/>
    <path id="Path_94560" data-name="Path 94560" d="M321.294,1647.5a1.363,1.363,0,0,1-.681-2.544l42.046-24.2a1.364,1.364,0,0,1,1.363,2.363l-42.046,24.206A1.378,1.378,0,0,1,321.294,1647.5Z" transform="translate(-11904 18571)" fill="#5a43db"/>
    <path id="Path_94561" data-name="Path 94561" d="M348.1,1663.136a1.363,1.363,0,0,1-.681-2.544l122.747-70.669a1.364,1.364,0,0,1,1.363,2.363l-122.748,70.669A1.378,1.378,0,0,1,348.1,1663.136Z" transform="translate(-11904 18571)" fill="#5a43db"/>
    <path id="Path_94562" data-name="Path 94562" d="M374.911,1678.767a1.363,1.363,0,0,1-.681-2.544l74.3-42.78a1.364,1.364,0,0,1,1.362,2.363l-74.3,42.78A1.353,1.353,0,0,1,374.911,1678.767Z" transform="translate(-11904 18571)" fill="#5a43db"/>
    <path id="Path_94563" data-name="Path 94563" d="M464.991,1626.9a1.363,1.363,0,0,1-.681-2.544l32.667-18.809a1.364,1.364,0,0,1,1.363,2.363l-32.668,18.809A1.371,1.371,0,0,1,464.991,1626.9Z" transform="translate(-11904 18571)" fill="#5a43db"/>
    <path id="Path_94564" data-name="Path 94564" d="M672.323,1794.51,644.8,1810.479l-26.651-15.641-2.452-1.472-48.286-28.34,27.63-15.914,22.619,13.3,4.522,2.671,2.507,1.417,4.851,2.888Z" transform="translate(-11904 18571)" fill="#647db4"/>
    <path id="Path_94565" data-name="Path 94565" d="M716.727,1769.116l-27.518,15.929-119.269-70.054,27.691-15.814Z" transform="translate(-11904 18571)" fill="#ff975d"/>
    <path id="Path_94566" data-name="Path 94566" d="M761.089,1743.709l-27.519,15.929-98.542-57.893,27.689-15.814Z" transform="translate(-11904 18571)" fill="#647db4"/>
    <path id="Path_94567" data-name="Path 94567" d="M805.508,1718.36l-27.518,15.929L584.642,1620.959l27.691-15.872Z" transform="translate(-11904 18571)" fill="#ff975d"/>
    <path id="Path_94568" data-name="Path 94568" d="M849.87,1692.954l-27.519,15.929-55.609-32.657,27.634-15.872Z" transform="translate(-11904 18571)" fill="#647db4"/>
    <path id="Path_94569" data-name="Path 94569" d="M894.288,1667.547l-27.519,15.929L746.53,1612.852l27.634-15.872Z" transform="translate(-11904 18571)" fill="#ff975d"/>
    <path id="Path_94570" data-name="Path 94570" d="M794.948,1609.155c-.163.163-26.651,16.187-26.651,16.187l.109.326,4.688,17.495,1.417,5.287a1.325,1.325,0,0,1-.655,1.526l-5.068,2.779-21.582,11.936a1.549,1.549,0,0,1-.982.109l-49.867-11.39-2.725-.655-3.6-.817-4.251,2.834-20.329,13.571-1.036,12.644-.49,5.667-.382,4.36-2.125,25.561a.972.972,0,0,1-.218.545.774.774,0,0,1-.436.49l-9.483,5.777-6.1,3.706c-.055.054-.654,4.252-.654,4.252l-3.651,24.687-.164.492a1.411,1.411,0,0,1-.491.49l-9.865,5.995-5.668,3.488c-.162.108-1.128,4.478-1.128,4.478l-5.412,23.862-2.452-1.471,5.123-22.727,1.2-5.177a.588.588,0,0,1,.162-.382.777.777,0,0,1,.437-.491l5.122-3.106,10.411-6.432c.109-.054,3.651-23.979,3.651-23.979l.708-4.96a1.744,1.744,0,0,1,.163-.49,3.624,3.624,0,0,1,.491-.436l5.505-3.379,10.082-6.158,2.071-24.689.327-4.143.491-5.939,1.145-13.408a.964.964,0,0,1,.218-.544,1.179,1.179,0,0,1,.381-.492l19.729-13.133,5.341-3.6.544-.328a1.538,1.538,0,0,1,1.09-.217l7.794,1.8,48.45,11.063,19.675-10.791,5.614-3.107-1.253-4.741-4.961-18.311a1.143,1.143,0,0,1,.164-1.037,1.3,1.3,0,0,1,.436-.49l26.324-15.914,1.036-.6a1.327,1.327,0,0,1,1.58,2.125Z" transform="translate(-11904 18571)" fill="#27145a"/>
    <path id="Path_94571" data-name="Path 94571" d="M698.011,1650.344c0,2.829-3.66,5.121-8.175,5.121s-8.175-2.292-8.175-5.121,3.66-5.12,8.175-5.12S698.011,1647.517,698.011,1650.344Z" transform="translate(-11904 18571)" fill="#1a3a81"/>
    <path id="Path_94572" data-name="Path 94572" d="M780.9,1648.3c0,2.828-3.659,5.12-8.175,5.12s-8.175-2.292-8.175-5.12,3.66-5.12,8.175-5.12S780.9,1645.473,780.9,1648.3Z" transform="translate(-11904 18571)" fill="#ff70e9"/>
    <path id="Path_94573" data-name="Path 94573" d="M802.242,1608.172c0,2.828-3.66,5.12-8.175,5.12s-8.175-2.292-8.175-5.12,3.66-5.12,8.175-5.12S802.242,1605.344,802.242,1608.172Z" transform="translate(-11904 18571)" fill="#1a3a81"/>
    <path id="Path_94574" data-name="Path 94574" d="M670.761,1685.931c0,2.828-3.66,5.121-8.175,5.121s-8.175-2.293-8.175-5.121,3.66-5.12,8.175-5.12S670.761,1683.1,670.761,1685.931Z" transform="translate(-11904 18571)" fill="#1a3a81"/>
    <ellipse id="Ellipse_862" data-name="Ellipse 862" cx="8.175" cy="5.12" rx="8.175" ry="5.12" transform="translate(-11267.705 20292.098)" fill="#1a3a81"/>
    <path id="Path_94575" data-name="Path 94575" d="M631.752,1765.865c0,2.828-3.675,5.11-8.191,5.11s-8.158-2.282-8.158-5.11,3.66-5.12,8.175-5.12S631.752,1763.037,631.752,1765.865Z" transform="translate(-11904 18571)" fill="#1a3a81"/>
    <path id="Path_94576" data-name="Path 94576" d="M842.631,1877.89a2.924,2.924,0,0,1-1.083,1.063l-28.288,16.192a2.969,2.969,0,1,1-2.942-5.159l28.287-16.192a2.971,2.971,0,0,1,4.026,4.1Z" transform="translate(-11904 18571)" fill="#ff975d"/>
    <path id="Path_94577" data-name="Path 94577" d="M858.209,1830.759a1.514,1.514,0,0,1-.538.531l-77.527,44.69a1.486,1.486,0,0,1-1.48-2.577l77.527-44.69a1.485,1.485,0,0,1,2.018,2.046Z" transform="translate(-11904 18571)" fill="#a2b7eb"/>
    <path id="Path_94578" data-name="Path 94578" d="M1024,1735.146a1.513,1.513,0,0,1-.538.531l-140.787,81.174a1.486,1.486,0,0,1-1.479-2.578L1021.98,1733.1a1.485,1.485,0,0,1,2.017,2.047Z" transform="translate(-11904 18571)" fill="#a2b7eb"/>
    <path id="Path_94579" data-name="Path 94579" d="M873.969,1782.576a2.925,2.925,0,0,1-1.083,1.063l-125.465,71.977a2.97,2.97,0,1,1-2.943-5.159l125.465-71.977a2.97,2.97,0,0,1,4.026,4.1Z" transform="translate(-11904 18571)" fill="#ff975d"/>
    <path id="Path_94580" data-name="Path 94580" d="M989.446,1715.759a2.927,2.927,0,0,1-1.083,1.064l-96.118,55.814a2.97,2.97,0,0,1-2.943-5.16l96.118-55.814a2.971,2.971,0,0,1,4.026,4.1Z" transform="translate(-11904 18571)" fill="#647db4"/>
    <path id="Path_94581" data-name="Path 94581" d="M979.973,1799.213a2.927,2.927,0,0,1-1.083,1.064L859.6,1868.522a2.97,2.97,0,1,1-2.943-5.159l119.289-68.245a2.97,2.97,0,0,1,4.026,4.095Z" transform="translate(-11904 18571)" fill="#647db4"/>
    <path id="Path_94582" data-name="Path 94582" d="M1053.819,1756.755a2.934,2.934,0,0,1-1.083,1.064l-54.487,31.455a2.97,2.97,0,0,1-2.943-5.159l54.487-31.456a2.971,2.971,0,0,1,4.026,4.1Z" transform="translate(-11904 18571)" fill="#ff975d"/>
    <path id="Path_94583" data-name="Path 94583" d="M957.8,1695.853a1.5,1.5,0,0,1-.548.538l-155.546,89.243a1.486,1.486,0,0,1-1.457-2.591L955.793,1693.8a1.486,1.486,0,0,1,2.006,2.054Z" transform="translate(-11904 18571)" fill="#a2b7eb"/>
    <path id="Path_94584" data-name="Path 94584" d="M773.65,1801.507a1.534,1.534,0,0,1-.549.538l-23.226,13.11a1.487,1.487,0,0,1-1.458-2.592l23.227-13.11a1.486,1.486,0,0,1,2.006,2.054Z" transform="translate(-11904 18571)" fill="#a2b7eb"/>
    <path id="Path_94585" data-name="Path 94585" d="M738.876,1821.663a1.424,1.424,0,0,1-.534.525l-25.118,14.558a1.484,1.484,0,0,1-2.027-.541,1.458,1.458,0,0,1,.541-2.027l25.118-14.557a1.485,1.485,0,0,1,2.02,2.042Z" transform="translate(-11904 18571)" fill="#a2b7eb"/>
    <path id="Path_94586" data-name="Path 94586" d="M707.787,1844.524c0,2.828-3.661,5.12-8.175,5.12s-8.175-2.292-8.175-5.12,3.66-5.12,8.175-5.12S707.787,1841.7,707.787,1844.524Z" transform="translate(-11904 18571)" fill="#1a3a81"/>
    <ellipse id="Ellipse_863" data-name="Ellipse 863" cx="8.175" cy="5.12" rx="8.175" ry="5.12" transform="translate(-11180.027 20429.645)" fill="#ff70e9"/>
    <ellipse id="Ellipse_864" data-name="Ellipse 864" cx="8.175" cy="5.12" rx="8.175" ry="5.12" transform="translate(-11147.49 20448.887)" fill="#1a3a81"/>
    <path id="Path_94587" data-name="Path 94587" d="M805.4,1902.247c0,2.828-3.66,5.121-8.175,5.121s-8.175-2.293-8.175-5.121,3.66-5.119,8.175-5.119S805.4,1899.42,805.4,1902.247Z" transform="translate(-11904 18571)" fill="#647db4"/>
    <path id="Path_94588" data-name="Path 94588" d="M652.359,587.487,490.623,494.634a26.837,26.837,0,0,0-25.649-.7l-.843.422c-.367.2-.732.4-1.09.614l-17.882,9.558a26.933,26.933,0,0,0-15.568,24.569V938.511a54.371,54.371,0,0,0,26.858,46.9l161.684,93.819a26.84,26.84,0,0,0,24.248,1.631,28.359,28.359,0,0,0,3.886-2.059l18.556-9.846a27.053,27.053,0,0,0,14.7-24.056V634.638A54.243,54.243,0,0,0,652.359,587.487Z" transform="translate(-11904 18571)" fill="#eee"/>
    <path id="Path_94589" data-name="Path 94589" d="M649.561,592.359,487.826,499.5a21.108,21.108,0,0,0-10.612-2.877,21.85,21.85,0,0,0-9.728,2.329l-3.828,2.17a27.2,27.2,0,0,1,9.076,3.22l170,97.823a36.873,36.873,0,0,1,18.514,31.977l.715,420.453a27.189,27.189,0,0,1-2.482,11.108l2.714-1.75a21.36,21.36,0,0,0,11.708-19.065V634.639A48.736,48.736,0,0,0,649.561,592.359Z" transform="translate(-11904 18571)" fill="#ffbf9b"/>
    <path id="Path_94590" data-name="Path 94590" d="M446.37,940.894V539.8a10.819,10.819,0,0,1,16.257-9.354l159,92.425a26.438,26.438,0,0,1,13.151,22.856v402.508a10.82,10.82,0,0,1-16.32,9.318l-159.089-93.9A26.437,26.437,0,0,1,446.37,940.894Z" transform="translate(-11904 18571)" fill="#fff"/>
    <path id="Path_94591" data-name="Path 94591" d="M446.37,943.715V542.625a10.819,10.819,0,0,1,16.257-9.354l159,92.424a26.44,26.44,0,0,1,13.151,22.857V1051.06a10.82,10.82,0,0,1-16.32,9.318l-159.089-93.9A26.437,26.437,0,0,1,446.37,943.715Z" transform="translate(-11904 18571)" fill="#fff"/>
    <path id="Path_94592" data-name="Path 94592" d="M457.863,793.891v121.9a17.183,17.183,0,0,0,8.616,14.908l145.135,83.8a6.846,6.846,0,0,0,10.29-5.94l.012-121.979a17.172,17.172,0,0,0-8.61-14.878L468.2,787.946A6.878,6.878,0,0,0,457.863,793.891Z" transform="translate(-11904 18571)" fill="url(#linear-gradient-2)"/>
    <path id="Path_94593" data-name="Path 94593" d="M621.893,940.162l.011,68.4a6.838,6.838,0,0,1-10.29,5.94L466.479,930.7a17.06,17.06,0,0,1-8.616-14.908V869.765c3.6,1.656,6.224,6.337,8.507,11.989.114.286.229.571.342.8,1.6,4.053,3.025,8.564,4.624,12.674.115.343.286.686.4,1.028.115.285.229.628.343.972.057.17.172.341.228.513a17.879,17.879,0,0,0,.8,1.827l.629,1.427c2.226,4.625,4.852,7.993,8.45,8.335,4.225.343,7.535-3.71,10.847-8.221.286-.343.514-.742.8-1.084.4-.457.741-.971,1.084-1.427a1.734,1.734,0,0,0,.286-.4,5.423,5.423,0,0,0,.513-.685c.172-.229.4-.457.572-.686a24.81,24.81,0,0,1,2.511-2.911l.515-.4c1.94-1.884,4.11-3.083,6.565-2.969,5.938.285,10.22,8.165,13.931,17.528.113.171.171.456.285.685.743,2,1.542,4.111,2.285,6.223q.171.428.341.857c.114.285.229.627.343.913.058.171.114.285.171.457q.344.94.687,1.884c.17.456.341.971.512,1.427,3.655,9.877,7.251,18.384,12.162,18.555a5.038,5.038,0,0,0,2.8-.856,5.515,5.515,0,0,0,1.141-.856,11.09,11.09,0,0,0,1.37-1.428,2.911,2.911,0,0,1,.4-.457,8.142,8.142,0,0,1,.626-.856c.172-.285.4-.628.572-.971.229-.4.515-.8.8-1.256.114-.229.228-.4.343-.685,7.822-14.33,13.816-44.647,22.722-44.475,8.052.114,12.219,25.177,18.728,44.818.114.457.285.913.4,1.313,4,11.647,8.733,21.181,15.87,22.038a11.106,11.106,0,0,0,7.137-1.827c.457-.228.914-.57,1.372-.856C615.042,949.7,618.867,944.786,621.893,940.162Z" transform="translate(-11904 18571)" fill="#4e90f9"/>
    <path id="Path_94594" data-name="Path 94594" d="M621.893,956.261v2.113c-3.026,3.026-6.793,6.565-11.3,7.764a12.923,12.923,0,0,1-2.855.343c-7.022,0-11.19-6.508-15.245-12.789-2.74-4.225-5.309-8.278-8.564-10.22-4.623-2.74-9.933-2.054-14.615,1.827a29.089,29.089,0,0,0-3.655,3.769c-3.081,3.654-6.622,7.707-10.732,7.707a3.263,3.263,0,0,1-.743-.057c-3.939-.628-6.052-5.138-7.307-7.879a88.8,88.8,0,0,1-4.511-13.073.44.44,0,0,1-.056-.287c-.058-.114-.229-.627-.229-.627-3.141-10.734-6.053-20.611-12.332-21.24-2.742-.456-5.139,1.6-6.4,2.855-.115.057-.172.171-.286.286a21.949,21.949,0,0,0-3.311,4.282c-2.284,3.539-4.853,7.537-8.393,7.537-4.625-.515-6.68-7.48-8.05-12.105-.229-.8-.457-1.484-.629-2.055L502,912.356c-1.656-5.023-3.369-10.22-6.736-14.1-2.855-3.311-6.624-4.681-10.277-3.767a23.29,23.29,0,0,0-3.655,1.313c-2.284,1.027-4.624,2.054-7.364,1.655a17.348,17.348,0,0,1-1.885-.227c-.172-.058-.4-.115-.572-.172-4.51-.914-8.962-4.054-13.244-9.364l-.4-.456v-2.227a1.048,1.048,0,0,1,.684.285l1.029,1.313c3.825,4.8,7.764,7.651,11.76,8.621a2.145,2.145,0,0,0,.571.172,12.2,12.2,0,0,0,2.227.343c2.342.285,4.4-.572,6.509-1.485a19.073,19.073,0,0,1,3.939-1.427,11.556,11.556,0,0,1,11.7,4c3.825,4.454,5.6,9.82,7.365,15.016l.684,2c.172.571.4,1.313.629,2.112,1.142,3.94,3.083,10.506,6.508,10.906,2.512,0,4.8-3.6,6.852-6.737a23.513,23.513,0,0,1,3.882-4.968c1.6-1.6,4.509-3.768,7.707-3.254,7.308.742,10.391,10.848,13.589,21.752.057.172.114.343.172.515s.228.627.228.627a.656.656,0,0,0,.115.4,77.2,77.2,0,0,0,4.452,12.96c1.084,2.4,2.911,6.394,5.937,6.908,3.541.458,6.908-3.539,9.992-7.079a38.025,38.025,0,0,1,3.768-4.054c5.367-4.339,11.361-5.081,16.614-1.941,3.654,2.17,6.451,6.566,9.135,10.791,4.453,6.908,8.678,13.417,16.272,11.7,4.339-1.142,8.106-4.967,11.133-7.993A.731.731,0,0,1,621.893,956.261Z" transform="translate(-11904 18571)" fill="#5a43db"/>
    <path id="Path_94595" data-name="Path 94595" d="M495.161,840.055c0,2.356-1.391,3.407-3.321,2.3a7.472,7.472,0,0,1-3.265-6.1c0-2.072,1.05-3.208,2.584-2.725V739.888l1.419.795v93.779A7.75,7.75,0,0,1,495.161,840.055Z" transform="translate(-11904 18571)" fill="#1a3a81"/>
    <path id="Path_94596" data-name="Path 94596" d="M543.874,864.954c0,2.356-1.42,3.407-3.351,2.3a7.483,7.483,0,0,1-3.264-6.133c0-2.073,1.051-3.18,2.583-2.7V767.995l1.419.795v90.571A7.782,7.782,0,0,1,543.874,864.954Z" transform="translate(-11904 18571)" fill="#ffbc3f"/>
    <path id="Path_94597" data-name="Path 94597" d="M592.572,889.853c0,2.356-1.42,3.407-3.35,2.3a7.481,7.481,0,0,1-3.265-6.133c0-2.072,1.05-3.208,2.612-2.7V796.1l1.42.823v87.3A7.986,7.986,0,0,1,592.572,889.853Z" transform="translate(-11904 18571)" fill="#4e90f9"/>
    <path id="Path_94598" data-name="Path 94598" d="M500.432,718.366c-.042,6.211-3.715,9.02-8.746,6.116-4.925-2.844-8.424-9.793-8.381-16.005s3.608-9.228,8.535-6.384C496.87,705,500.475,712.154,500.432,718.366Z" transform="translate(-11904 18571)" fill="#1a3a81"/>
    <path id="Path_94599" data-name="Path 94599" d="M597.828,774.757c-.043,6.212-3.715,9.021-8.746,6.117-4.925-2.844-8.424-9.793-8.381-16.005s3.608-9.228,8.534-6.384C594.265,761.39,597.871,768.546,597.828,774.757Z" transform="translate(-11904 18571)" fill="#ff975d"/>
    <path id="Path_94600" data-name="Path 94600" d="M549.137,746.436c-.042,6.212-3.715,9.021-8.746,6.117-4.925-2.844-8.424-9.794-8.381-16.005s3.609-9.228,8.535-6.384C545.575,733.069,549.18,740.225,549.137,746.436Z" transform="translate(-11904 18571)" fill="#ffbc3f"/>
    <path id="Path_94601" data-name="Path 94601" d="M602.4,659.857a2.733,2.733,0,0,1-1.358-.362L477.4,588.608a2.725,2.725,0,0,1,2.714-4.727l123.642,70.888a2.725,2.725,0,0,1-1.357,5.088Z" transform="translate(-11904 18571)" fill="#d0dbf8"/>
    <path id="Path_94602" data-name="Path 94602" d="M602.4,684.009a1.354,1.354,0,0,1-.677-.181L535.91,646.1a1.361,1.361,0,0,1-.506-1.858,1.346,1.346,0,0,1,1.857-.505l65.81,37.729a1.362,1.362,0,0,1-.675,2.544Z" transform="translate(-11904 18571)" fill="#5a43db"/>
    <path id="Path_94603" data-name="Path 94603" d="M521.108,637.408a1.363,1.363,0,0,1-.676-.181l-42.354-24.286a1.361,1.361,0,0,1,1.352-2.363l42.355,24.285a1.363,1.363,0,0,1-.677,2.545Z" transform="translate(-11904 18571)" fill="#5a43db"/>
    <path id="Path_94604" data-name="Path 94604" d="M602.4,710.892a2.733,2.733,0,0,1-1.358-.362L477.4,639.638a2.725,2.725,0,0,1,2.714-4.727L603.753,705.8a2.725,2.725,0,0,1-1.357,5.088Z" transform="translate(-11904 18571)" fill="#d0dbf8"/>
    <path id="Path_94605" data-name="Path 94605" d="M553.59,707.066a1.361,1.361,0,0,1-.676-.181l-74.836-42.909a1.359,1.359,0,0,1-.505-1.857,1.343,1.343,0,0,1,1.857-.506l74.836,42.909a1.362,1.362,0,0,1-.676,2.544Z" transform="translate(-11904 18571)" fill="#5a43db"/>
    <path id="Path_94606" data-name="Path 94606" d="M602.4,735.045a1.364,1.364,0,0,1-.677-.181L568.812,716a1.361,1.361,0,1,1,1.352-2.363L603.071,732.5a1.362,1.362,0,0,1-.675,2.544Z" transform="translate(-11904 18571)" fill="#5a43db"/>
    <path id="Path_94607" data-name="Path 94607" d="M2239.356,1966.325l64.173-435.884c4.749-31.246-6.745-58.749-30.113-72.057l-534.241-304.273c-11.727-6.679-26.153-4.9-38.713,2.253l-2.553,1.456-13.322,8.7c-16.281,7.272-30.473,23.625-33.374,43.33l-63.983,434.591c-4.559,30.97,6.852,58.2,29.959,71.49l534.128,305.85c11.588,6.665,25.853,5.024,38.345-1.92a4.605,4.605,0,0,1-.021.638c-.466.251,23.385-14.758,23.385-14.758C2226.162,1997.4,2236.813,1983.063,2239.356,1966.325Z" transform="translate(-11904 18571)" fill="#eee"/>
    <path id="Path_94608" data-name="Path 94608" d="M2296.612,1531.025c4.344-28.555-6.232-53.848-27.591-66.009l-534.239-304.275a27.278,27.278,0,0,0-16.262-3.35,33.259,33.259,0,0,0-14.4,4.408,32.479,32.479,0,0,1,15.78,4.151l535.786,304.914c26.446,14.549,33.036,34.95,27.325,72.087l-64.173,435.883a54.414,54.414,0,0,1-7.714,20.445c11.4-7.488,19.36-19.518,21.305-32.331Z" transform="translate(-11904 18571)" fill="#ffbf9b"/>
    <path id="Path_94609" data-name="Path 94609" d="M1988,1363.237c-2.39-9.473-9.851-17.11-16.666-17.058s-10.4,7.774-8.011,17.247c2.1,8.338,8.99,17.117,16.665,17.058C1986.8,1380.432,1990.392,1372.71,1988,1363.237Z" transform="translate(-11904 18571)" fill="#a2b7eb"/>
    <path id="Path_94610" data-name="Path 94610" d="M1987.3,1361.35c-1.53-6.064-6.306-10.953-10.668-10.92s-6.658,4.977-5.129,11.041c1.347,5.337,5.755,10.957,10.668,10.919C1986.534,1372.356,1988.83,1367.414,1987.3,1361.35Z" transform="translate(-11904 18571)" fill="#27145a"/>
    <path id="Path_94611" data-name="Path 94611" d="M1620.792,1624.219l56.066-380.816a12.683,12.683,0,0,1,18.851-9.159l543.747,311.32a18.223,18.223,0,0,1,8.974,18.468l-56.165,381.494a12.684,12.684,0,0,1-18.863,9.153l-543.652-312A18.225,18.225,0,0,1,1620.792,1624.219Z" transform="translate(-11904 18571)" fill="#fff"/>
    <path id="Path_94612" data-name="Path 94612" d="M2185.524,2038.927a39.654,39.654,0,0,0-19.956-36.3l-123.028-71.166-192.653-90.209L1697.4,1731.989l-101.323-58.584a80.349,80.349,0,0,0-80.107-.02l-346.518,199.944a39.751,39.751,0,0,0-19.847,37.425c-.156,0-.162,22.283-.162,22.283a39.91,39.91,0,0,0,20.019,32.935l569.684,329.095a80.106,80.106,0,0,0,80.109.02l346.3-199.83a39.537,39.537,0,0,0,19.844-31.521l.065-.676c.021-.365.09-.726.1-1.091.033-.994-.016-1.986-.055-2.98Z" transform="translate(-11904 18571)" fill="#f5f5f5"/>
    <path id="Path_94613" data-name="Path 94613" d="M2165.551,2072,1817.12,2272.381a76.2,76.2,0,0,1-76.055-.045L1169.438,1942.7a39.613,39.613,0,0,1-13.272-12.473v1.163a32.686,32.686,0,0,0,16.562,27.442l561.806,324.541a89.017,89.017,0,0,0,89.923.178l337.84-196.441a32.8,32.8,0,0,0,16.5-26.223s.022-.64,0-1.286A39.71,39.71,0,0,1,2165.551,2072Z" transform="translate(-11904 18571)" fill="#ffbf9b"/>
    <path id="Path_94614" data-name="Path 94614" d="M1439.566,1809.135l130.546-75.328a30.181,30.181,0,0,1,30.188.012l466.844,269.4a15.092,15.092,0,0,1-.01,26.136l-130.472,75.287a30.18,30.18,0,0,1-30.182-.008l-466.921-269.36A15.09,15.09,0,0,1,1439.566,1809.135Z" transform="translate(-11904 18571)" fill="#ffc4a4"/>
    <path id="Path_94615" data-name="Path 94615" d="M1470.323,1831.852l-16.791-9.671c-2.533-1.458-2.847-3.552-.7-4.678l14.219-7.463c2.144-1.126,5.935-.855,8.468.6l16.791,9.671c2.533,1.459,2.847,3.554.7,4.679l-14.219,7.462C1476.646,1833.581,1472.855,1833.311,1470.323,1831.852Z" transform="translate(-11904 18571)" fill="#efeff2"/>
    <path id="Path_94616" data-name="Path 94616" d="M1539.435,1871.657l-16.792-9.67c-2.532-1.459-2.846-3.553-.7-4.679l14.219-7.463c2.144-1.125,5.935-.855,8.467.6l16.792,9.672c2.532,1.458,2.847,3.553.7,4.678l-14.219,7.463C1545.758,1873.387,1541.967,1873.117,1539.435,1871.657Z" transform="translate(-11904 18571)" fill="#efeff2"/>
    <path id="Path_94617" data-name="Path 94617" d="M1504.879,1851.755l-16.792-9.671c-2.532-1.459-2.847-3.554-.7-4.679l14.22-7.462c2.144-1.126,5.935-.855,8.467.6l16.792,9.671c2.532,1.458,2.847,3.553.7,4.678l-14.219,7.464C1511.2,1853.483,1507.411,1853.214,1504.879,1851.755Z" transform="translate(-11904 18571)" fill="#efeff2"/>
    <path id="Path_94618" data-name="Path 94618" d="M1748.469,1992.055l-16.791-9.672c-2.532-1.458-2.847-3.553-.7-4.678l14.22-7.463c2.144-1.125,5.935-.855,8.467.6l16.792,9.671c2.532,1.459,2.847,3.554.7,4.679l-14.219,7.463C1754.793,1993.783,1751,1993.513,1748.469,1992.055Z" transform="translate(-11904 18571)" fill="#efeff2"/>
    <path id="Path_94619" data-name="Path 94619" d="M1573.9,1891.511l-16.792-9.672c-2.533-1.458-2.847-3.553-.7-4.678l14.219-7.463c2.144-1.126,5.935-.855,8.467.6l16.792,9.671c2.533,1.458,2.847,3.553.7,4.678l-14.22,7.463C1580.227,1893.239,1576.436,1892.969,1573.9,1891.511Z" transform="translate(-11904 18571)" fill="#efeff2"/>
    <path id="Path_94620" data-name="Path 94620" d="M1816.279,2031.11l-16.792-9.671c-2.532-1.459-2.846-3.554-.7-4.678L1813,2009.3c2.145-1.126,5.936-.856,8.468.6l16.793,9.671c2.532,1.459,2.846,3.553.7,4.678l-14.219,7.463C1822.6,2032.838,1818.812,2032.569,1816.279,2031.11Z" transform="translate(-11904 18571)" fill="#efeff2"/>
    <path id="Path_94621" data-name="Path 94621" d="M1850.444,2050.855l-16.792-9.672c-2.532-1.458-2.847-3.553-.7-4.678l14.219-7.463c2.143-1.125,5.935-.855,8.467.6l16.792,9.671c2.532,1.459,2.847,3.554.7,4.679l-14.219,7.462C1856.767,2052.583,1852.976,2052.313,1850.444,2050.855Z" transform="translate(-11904 18571)" fill="#efeff2"/>
    <path id="Path_94622" data-name="Path 94622" d="M1908.484,2083.6l-16.792-9.672c-2.532-1.458-2.847-3.554-.7-4.678l14.219-7.463c2.144-1.126,5.935-.855,8.467.6l16.792,9.672c2.532,1.458,2.847,3.553.7,4.678l-14.219,7.463C1914.807,2085.329,1911.016,2085.059,1908.484,2083.6Z" transform="translate(-11904 18571)" fill="#efeff2"/>
    <path id="Path_94623" data-name="Path 94623" d="M1782.374,2011.583l-16.791-9.672c-2.532-1.459-2.847-3.553-.7-4.678l14.219-7.463c2.145-1.126,5.936-.855,8.468.6l16.792,9.671c2.532,1.459,2.846,3.554.7,4.679l-14.219,7.462C1788.7,2013.311,1784.907,2013.041,1782.374,2011.583Z" transform="translate(-11904 18571)" fill="#efeff2"/>
    <path id="Path_94624" data-name="Path 94624" d="M1709.241,1969.59,1596.236,1904.5c-2.559-1.475-2.877-3.591-.71-4.729l14.372-7.543c2.167-1.138,6-.864,8.558.61l113.006,65.086c2.558,1.475,2.877,3.592.709,4.729L1717.8,1970.2C1715.632,1971.337,1711.8,1971.064,1709.241,1969.59Z" transform="translate(-11904 18571)" fill="#efeff2"/>
    <path id="Path_94625" data-name="Path 94625" d="M1890.89,2058.494l-11.922-6.867c-2.263-1.3-2.544-3.175-.627-4.181l1.141-.6c1.916-1.005,5.3-.764,7.567.54l11.922,6.866c2.264,1.3,2.545,3.176.628,4.182l-1.14.6C1896.542,2060.038,1893.154,2059.8,1890.89,2058.494Z" transform="translate(-11904 18571)" fill="#efeff2"/>
    <path id="Path_94626" data-name="Path 94626" d="M1876.47,2066.063l-11.922-6.868c-2.263-1.3-2.545-3.175-.628-4.18l1.141-.6c1.916-1.006,5.3-.764,7.567.539l11.922,6.867c2.264,1.3,2.545,3.175.628,4.181l-1.139.6C1882.122,2067.608,1878.734,2067.367,1876.47,2066.063Z" transform="translate(-11904 18571)" fill="#efeff2"/>
    <path id="Path_94627" data-name="Path 94627" d="M1585.71,1771.293l-16.792-9.671c-2.532-1.459-2.846-3.553-.7-4.679l14.219-7.462c2.144-1.126,5.935-.856,8.467.6l16.792,9.671c2.532,1.459,2.847,3.553.7,4.679l-14.219,7.462C1592.033,1773.022,1588.242,1772.752,1585.71,1771.293Z" transform="translate(-11904 18571)" fill="#efeff2"/>
    <path id="Path_94628" data-name="Path 94628" d="M1654.811,1811.093l-16.793-9.672c-2.531-1.458-2.846-3.552-.7-4.678l14.22-7.463c2.144-1.125,5.935-.855,8.467.6l16.792,9.671c2.532,1.459,2.846,3.553.7,4.678l-14.219,7.462C1661.134,1812.822,1657.343,1812.552,1654.811,1811.093Z" transform="translate(-11904 18571)" fill="#efeff2"/>
    <path id="Path_94629" data-name="Path 94629" d="M1619.8,1790.925,1603,1781.254c-2.533-1.459-2.848-3.553-.7-4.679l14.219-7.462c2.145-1.125,5.936-.856,8.468.6l16.791,9.671c2.532,1.459,2.847,3.553.7,4.679l-14.219,7.462C1626.118,1792.654,1622.327,1792.384,1619.8,1790.925Z" transform="translate(-11904 18571)" fill="#efeff2"/>
    <path id="Path_94630" data-name="Path 94630" d="M1689.826,1831.26l-16.792-9.671c-2.532-1.459-2.847-3.553-.7-4.678l14.219-7.463c2.144-1.125,5.935-.855,8.467.6l16.792,9.671c2.532,1.459,2.847,3.553.7,4.679l-14.219,7.463C1696.149,1832.989,1692.358,1832.719,1689.826,1831.26Z" transform="translate(-11904 18571)" fill="#efeff2"/>
    <path id="Path_94631" data-name="Path 94631" d="M1724.842,1851.428l-16.792-9.671c-2.532-1.459-2.847-3.553-.7-4.679l14.219-7.462c2.144-1.126,5.935-.855,8.467.6l16.792,9.672c2.532,1.457,2.846,3.552.7,4.677l-14.219,7.464C1731.165,1853.156,1727.374,1852.887,1724.842,1851.428Z" transform="translate(-11904 18571)" fill="#efeff2"/>
    <path id="Path_94632" data-name="Path 94632" d="M1759.857,1871.6l-16.792-9.672c-2.532-1.458-2.846-3.553-.7-4.678l14.219-7.463c2.144-1.125,5.935-.855,8.467.6l16.792,9.672c2.533,1.458,2.847,3.553.7,4.678l-14.219,7.463C1766.18,1873.324,1762.389,1873.054,1759.857,1871.6Z" transform="translate(-11904 18571)" fill="#efeff2"/>
    <path id="Path_94633" data-name="Path 94633" d="M1794.873,1891.764l-16.792-9.672c-2.532-1.458-2.847-3.553-.7-4.679l14.219-7.462c2.144-1.125,5.935-.856,8.467.6l16.792,9.672c2.532,1.458,2.847,3.552.7,4.678l-14.219,7.462C1801.2,1893.492,1797.405,1893.222,1794.873,1891.764Z" transform="translate(-11904 18571)" fill="#efeff2"/>
    <path id="Path_94634" data-name="Path 94634" d="M1829.888,1911.931l-16.792-9.672c-2.532-1.458-2.846-3.553-.7-4.677l14.219-7.464c2.144-1.125,5.935-.855,8.467.6l16.793,9.672c2.532,1.458,2.846,3.552.7,4.678l-14.22,7.463C1836.211,1913.66,1832.42,1913.389,1829.888,1911.931Z" transform="translate(-11904 18571)" fill="#efeff2"/>
    <path id="Path_94635" data-name="Path 94635" d="M1864.9,1932.1l-16.791-9.672c-2.532-1.458-2.847-3.553-.7-4.678l14.219-7.463c2.145-1.125,5.936-.855,8.468.6l16.791,9.672c2.533,1.458,2.848,3.552.7,4.678l-14.219,7.463C1871.226,1933.827,1867.435,1933.557,1864.9,1932.1Z" transform="translate(-11904 18571)" fill="#efeff2"/>
    <path id="Path_94636" data-name="Path 94636" d="M1899.919,1952.266l-16.792-9.671c-2.532-1.459-2.846-3.553-.7-4.678l14.22-7.463c2.145-1.126,5.936-.856,8.468.6l16.791,9.671c2.532,1.458,2.847,3.553.7,4.678l-14.219,7.464C1906.242,1953.995,1902.451,1953.725,1899.919,1952.266Z" transform="translate(-11904 18571)" fill="#efeff2"/>
    <path id="Path_94637" data-name="Path 94637" d="M1934.934,1972.434l-16.791-9.672c-2.532-1.458-2.847-3.552-.7-4.678l14.219-7.463c2.145-1.125,5.936-.855,8.468.6l16.791,9.671c2.532,1.458,2.847,3.553.7,4.678l-14.219,7.463C1941.258,1974.162,1937.467,1973.892,1934.934,1972.434Z" transform="translate(-11904 18571)" fill="#efeff2"/>
    <path id="Path_94638" data-name="Path 94638" d="M1969.95,1992.6l-16.792-9.672c-2.532-1.458-2.847-3.553-.7-4.678l14.219-7.463c2.144-1.126,5.936-.855,8.468.6l16.791,9.672c2.532,1.457,2.847,3.553.7,4.678l-14.22,7.462C1976.273,1994.33,1972.482,1994.06,1969.95,1992.6Z" transform="translate(-11904 18571)" fill="#efeff2"/>
    <path id="Path_94639" data-name="Path 94639" d="M2021.956,2022.028l-31.643-18.225c-2.422-1.4-2.723-3.4-.672-4.475l13.6-7.138c2.051-1.076,5.677-.818,8.1.577l31.643,18.225c2.422,1.4,2.722,3.4.672,4.475l-13.6,7.137C2028,2023.682,2024.377,2023.423,2021.956,2022.028Z" transform="translate(-11904 18571)" fill="#efeff2"/>
    <path id="Path_94640" data-name="Path 94640" d="M1644.207,1836.74l-16.792-9.672c-2.533-1.458-2.847-3.553-.7-4.679l14.219-7.462c2.145-1.125,5.935-.855,8.468.6l16.791,9.672c2.532,1.458,2.847,3.553.7,4.677l-14.219,7.464C1650.53,1838.468,1646.739,1838.2,1644.207,1836.74Z" transform="translate(-11904 18571)" fill="#efeff2"/>
    <path id="Path_94641" data-name="Path 94641" d="M1609.151,1816.549l-16.792-9.672c-2.532-1.458-2.847-3.553-.7-4.678l14.219-7.463c2.144-1.125,5.934-.855,8.467.6l16.791,9.672c2.533,1.458,2.847,3.553.7,4.678l-14.219,7.463C1615.474,1818.278,1611.683,1818.007,1609.151,1816.549Z" transform="translate(-11904 18571)" fill="#efeff2"/>
    <path id="Path_94642" data-name="Path 94642" d="M1679.262,1856.931l-16.792-9.673c-2.532-1.457-2.846-3.552-.7-4.677l14.219-7.463c2.145-1.125,5.935-.856,8.467.6l16.792,9.671c2.532,1.459,2.847,3.553.7,4.679l-14.22,7.463C1685.585,1858.659,1681.794,1858.389,1679.262,1856.931Z" transform="translate(-11904 18571)" fill="#efeff2"/>
    <path id="Path_94643" data-name="Path 94643" d="M1714.319,1877.121l-16.793-9.671c-2.532-1.459-2.846-3.553-.7-4.679l14.219-7.462c2.144-1.126,5.935-.856,8.467.6l16.792,9.673c2.532,1.457,2.846,3.552.7,4.678l-14.22,7.463C1720.641,1878.849,1716.85,1878.58,1714.319,1877.121Z" transform="translate(-11904 18571)" fill="#efeff2"/>
    <path id="Path_94644" data-name="Path 94644" d="M1749.374,1897.312l-16.792-9.671c-2.532-1.459-2.846-3.554-.7-4.679l14.22-7.463c2.144-1.125,5.935-.855,8.467.6l16.792,9.671c2.532,1.459,2.846,3.553.7,4.678l-14.219,7.463C1755.7,1899.04,1751.906,1898.77,1749.374,1897.312Z" transform="translate(-11904 18571)" fill="#efeff2"/>
    <path id="Path_94645" data-name="Path 94645" d="M1784.43,1917.5l-16.792-9.672c-2.532-1.458-2.847-3.552-.7-4.678l14.22-7.463c2.144-1.125,5.935-.855,8.467.6l16.791,9.671c2.533,1.459,2.847,3.553.7,4.678l-14.219,7.463C1790.752,1919.231,1786.962,1918.961,1784.43,1917.5Z" transform="translate(-11904 18571)" fill="#efeff2"/>
    <path id="Path_94646" data-name="Path 94646" d="M1819.485,1937.693l-16.791-9.671c-2.532-1.458-2.847-3.553-.7-4.678l14.219-7.462c2.144-1.126,5.935-.857,8.467.6l16.792,9.671c2.532,1.459,2.847,3.554.7,4.679l-14.219,7.463C1825.808,1939.422,1822.017,1939.153,1819.485,1937.693Z" transform="translate(-11904 18571)" fill="#efeff2"/>
    <path id="Path_94647" data-name="Path 94647" d="M1854.541,1957.885l-16.791-9.672c-2.532-1.459-2.847-3.553-.7-4.678l14.219-7.463c2.144-1.125,5.935-.855,8.467.6l16.792,9.671c2.532,1.459,2.846,3.554.7,4.679l-14.219,7.463C1860.864,1959.613,1857.073,1959.343,1854.541,1957.885Z" transform="translate(-11904 18571)" fill="#efeff2"/>
    <path id="Path_94648" data-name="Path 94648" d="M1889.6,1978.076l-16.792-9.672c-2.532-1.458-2.847-3.553-.7-4.678l14.219-7.463c2.144-1.125,5.935-.855,8.467.6l16.792,9.672c2.532,1.458,2.846,3.553.7,4.677l-14.219,7.464C1895.92,1979.8,1892.129,1979.534,1889.6,1978.076Z" transform="translate(-11904 18571)" fill="#efeff2"/>
    <path id="Path_94649" data-name="Path 94649" d="M1924.653,1998.266l-16.792-9.672c-2.532-1.457-2.847-3.552-.7-4.678l14.218-7.463c2.144-1.125,5.935-.855,8.467.6l16.792,9.671c2.532,1.459,2.847,3.553.7,4.679l-14.22,7.462C1930.976,1999.995,1927.185,1999.725,1924.653,1998.266Z" transform="translate(-11904 18571)" fill="#efeff2"/>
    <path id="Path_94650" data-name="Path 94650" d="M1959.709,2018.457l-16.792-9.671c-2.532-1.459-2.847-3.553-.7-4.679l14.219-7.462c2.144-1.126,5.935-.855,8.467.6l16.792,9.672c2.532,1.458,2.847,3.553.7,4.679l-14.219,7.462C1966.032,2020.185,1962.241,2019.915,1959.709,2018.457Z" transform="translate(-11904 18571)" fill="#efeff2"/>
    <path id="Path_94651" data-name="Path 94651" d="M1994.335,2038.4l-16.792-9.672c-2.532-1.458-2.847-3.553-.7-4.678l14.219-7.463c2.144-1.125,5.935-.855,8.468.6l16.791,9.671c2.532,1.459,2.846,3.553.7,4.678L2002.8,2039C2000.658,2040.129,1996.867,2039.86,1994.335,2038.4Z" transform="translate(-11904 18571)" fill="#efeff2"/>
    <path id="Path_94652" data-name="Path 94652" d="M1573.9,1795.717l-31.643-18.225c-2.422-1.395-2.722-3.4-.671-4.474l13.6-7.138c2.051-1.077,5.677-.819,8.1.576l31.642,18.226c2.422,1.394,2.723,3.4.672,4.474l-13.6,7.138C1579.945,1797.37,1576.319,1797.112,1573.9,1795.717Z" transform="translate(-11904 18571)" fill="#efeff2"/>
    <path id="Path_94653" data-name="Path 94653" d="M1623.813,1856.748l-16.792-9.671c-2.532-1.459-2.847-3.554-.7-4.678l14.22-7.463c2.144-1.126,5.935-.856,8.467.6l16.792,9.671c2.532,1.458,2.847,3.553.7,4.679l-14.219,7.462C1630.136,1858.476,1626.345,1858.206,1623.813,1856.748Z" transform="translate(-11904 18571)" fill="#efeff2"/>
    <path id="Path_94654" data-name="Path 94654" d="M1588.779,1836.57l-16.791-9.672c-2.533-1.458-2.848-3.553-.7-4.678l14.219-7.463c2.145-1.126,5.935-.855,8.468.6l16.791,9.671c2.532,1.458,2.847,3.553.7,4.678l-14.219,7.463C1595.1,1838.3,1591.311,1838.028,1588.779,1836.57Z" transform="translate(-11904 18571)" fill="#efeff2"/>
    <path id="Path_94655" data-name="Path 94655" d="M1658.847,1876.927l-16.792-9.673c-2.532-1.457-2.847-3.552-.7-4.677l14.219-7.464c2.145-1.125,5.936-.855,8.468.6l16.792,9.672c2.532,1.458,2.847,3.553.7,4.678l-14.219,7.463C1665.169,1878.655,1661.379,1878.385,1658.847,1876.927Z" transform="translate(-11904 18571)" fill="#efeff2"/>
    <path id="Path_94656" data-name="Path 94656" d="M1693.881,1897.1l-16.792-9.671c-2.532-1.458-2.847-3.553-.7-4.679l14.219-7.462c2.143-1.125,5.934-.856,8.466.6l16.793,9.671c2.532,1.459,2.846,3.553.7,4.679l-14.219,7.462C1700.2,1898.833,1696.413,1898.563,1693.881,1897.1Z" transform="translate(-11904 18571)" fill="#efeff2"/>
    <path id="Path_94657" data-name="Path 94657" d="M1728.914,1917.283l-16.791-9.672c-2.532-1.458-2.847-3.553-.7-4.678l14.219-7.463c2.145-1.126,5.936-.855,8.468.6l16.792,9.672c2.532,1.458,2.846,3.552.7,4.678l-14.219,7.463C1735.237,1919.012,1731.446,1918.741,1728.914,1917.283Z" transform="translate(-11904 18571)" fill="#efeff2"/>
    <path id="Path_94658" data-name="Path 94658" d="M1763.948,1937.461l-16.791-9.671c-2.533-1.459-2.847-3.554-.7-4.679l14.219-7.463c2.144-1.125,5.935-.855,8.467.6l16.792,9.671c2.532,1.458,2.847,3.553.7,4.679l-14.219,7.462C1770.271,1939.189,1766.48,1938.919,1763.948,1937.461Z" transform="translate(-11904 18571)" fill="#efeff2"/>
    <path id="Path_94659" data-name="Path 94659" d="M1798.982,1957.638l-16.792-9.671c-2.532-1.458-2.846-3.552-.7-4.677l14.219-7.464c2.145-1.125,5.936-.855,8.468.6l16.791,9.672c2.534,1.458,2.847,3.553.7,4.678l-14.219,7.463C1805.305,1959.367,1801.514,1959.1,1798.982,1957.638Z" transform="translate(-11904 18571)" fill="#efeff2"/>
    <path id="Path_94660" data-name="Path 94660" d="M1834.016,1977.817l-16.792-9.671c-2.532-1.458-2.847-3.553-.7-4.679l14.219-7.463c2.144-1.124,5.935-.855,8.467.6l16.792,9.671c2.532,1.459,2.847,3.553.7,4.678l-14.221,7.463C1840.339,1979.546,1836.548,1979.275,1834.016,1977.817Z" transform="translate(-11904 18571)" fill="#efeff2"/>
    <path id="Path_94661" data-name="Path 94661" d="M1869.05,1997.995l-16.792-9.671c-2.532-1.459-2.847-3.553-.7-4.679l14.219-7.462c2.143-1.126,5.934-.856,8.466.6l16.793,9.671c2.532,1.459,2.846,3.553.7,4.679l-14.219,7.462C1875.373,1999.723,1871.582,1999.454,1869.05,1997.995Z" transform="translate(-11904 18571)" fill="#efeff2"/>
    <path id="Path_94662" data-name="Path 94662" d="M1904.083,2018.174l-16.791-9.672c-2.532-1.458-2.847-3.553-.7-4.678l14.219-7.463c2.144-1.125,5.935-.856,8.468.6l16.791,9.671c2.533,1.458,2.846,3.552.7,4.678l-14.219,7.463C1910.406,2019.9,1906.615,2019.632,1904.083,2018.174Z" transform="translate(-11904 18571)" fill="#efeff2"/>
    <path id="Path_94663" data-name="Path 94663" d="M1551.886,1814.887l-38.179-21.989c-2.441-1.407-2.745-3.427-.677-4.511l13.709-7.2c2.068-1.084,5.722-.824,8.164.582l38.179,21.99c2.442,1.406,2.745,3.425.677,4.51l-13.709,7.2C1557.983,1816.554,1554.328,1816.294,1551.886,1814.887Z" transform="translate(-11904 18571)" fill="#efeff2"/>
    <path id="Path_94664" data-name="Path 94664" d="M1963.8,2052.13l-38.18-21.989c-2.441-1.406-2.744-3.425-.677-4.511l13.709-7.195c2.067-1.085,5.723-.824,8.164.582l38.179,21.989c2.442,1.407,2.745,3.426.677,4.511l-13.709,7.195C1969.89,2053.8,1966.235,2053.537,1963.8,2052.13Z" transform="translate(-11904 18571)" fill="#efeff2"/>
    <path id="Path_94665" data-name="Path 94665" d="M1612.529,1882.159l-16.793-9.671c-2.531-1.458-2.846-3.553-.7-4.678l14.22-7.463c2.144-1.125,5.935-.855,8.467.6l16.792,9.671c2.532,1.459,2.847,3.553.7,4.678l-14.22,7.463C1618.852,1883.888,1615.061,1883.618,1612.529,1882.159Z" transform="translate(-11904 18571)" fill="#efeff2"/>
    <path id="Path_94666" data-name="Path 94666" d="M1577.521,1862l-16.792-9.671c-2.532-1.459-2.846-3.553-.7-4.678l14.219-7.464c2.144-1.125,5.935-.855,8.467.6l16.792,9.671c2.532,1.458,2.846,3.553.7,4.679l-14.219,7.462C1583.845,1863.725,1580.054,1863.455,1577.521,1862Z" transform="translate(-11904 18571)" fill="#efeff2"/>
    <path id="Path_94667" data-name="Path 94667" d="M1647.537,1902.323l-16.792-9.671c-2.532-1.46-2.847-3.554-.7-4.679l14.219-7.464c2.144-1.124,5.935-.855,8.467.6l16.792,9.671c2.532,1.459,2.846,3.553.7,4.679L1656,1902.925C1653.86,1904.051,1650.069,1903.781,1647.537,1902.323Z" transform="translate(-11904 18571)" fill="#efeff2"/>
    <path id="Path_94668" data-name="Path 94668" d="M1682.544,1922.485l-16.791-9.671c-2.532-1.458-2.847-3.553-.7-4.678l14.219-7.463c2.144-1.125,5.935-.855,8.467.6l16.792,9.671c2.532,1.459,2.846,3.554.7,4.678l-14.219,7.463C1688.867,1924.214,1685.076,1923.944,1682.544,1922.485Z" transform="translate(-11904 18571)" fill="#efeff2"/>
    <path id="Path_94669" data-name="Path 94669" d="M1717.552,1942.649l-16.792-9.672c-2.532-1.458-2.846-3.553-.7-4.678l14.219-7.463c2.145-1.125,5.936-.856,8.468.6l16.791,9.671c2.532,1.458,2.847,3.552.7,4.677l-14.219,7.464C1723.875,1944.377,1720.084,1944.107,1717.552,1942.649Z" transform="translate(-11904 18571)" fill="#efeff2"/>
    <path id="Path_94670" data-name="Path 94670" d="M1752.56,1962.811l-16.792-9.671c-2.532-1.458-2.847-3.553-.7-4.678l14.22-7.463c2.143-1.125,5.934-.855,8.467.6l16.792,9.671c2.532,1.459,2.846,3.554.7,4.679l-14.22,7.462C1758.882,1964.54,1755.092,1964.27,1752.56,1962.811Z" transform="translate(-11904 18571)" fill="#efeff2"/>
    <path id="Path_94671" data-name="Path 94671" d="M1787.567,1982.975l-16.792-9.672c-2.532-1.458-2.846-3.553-.7-4.678l14.22-7.463c2.144-1.125,5.935-.855,8.467.6l16.792,9.671c2.532,1.458,2.846,3.552.7,4.677l-14.219,7.464C1793.89,1984.7,1790.1,1984.433,1787.567,1982.975Z" transform="translate(-11904 18571)" fill="#efeff2"/>
    <path id="Path_94672" data-name="Path 94672" d="M1822.574,2003.138l-16.792-9.672c-2.532-1.458-2.846-3.553-.7-4.678l14.219-7.463c2.144-1.126,5.935-.856,8.467.6l16.792,9.672c2.532,1.458,2.847,3.553.7,4.678l-14.219,7.463C1828.9,2004.866,1825.106,2004.6,1822.574,2003.138Z" transform="translate(-11904 18571)" fill="#efeff2"/>
    <path id="Path_94673" data-name="Path 94673" d="M1857.582,2023.3l-16.791-9.671c-2.533-1.459-2.848-3.554-.7-4.679l14.219-7.463c2.144-1.125,5.935-.855,8.467.6l16.792,9.671c2.532,1.458,2.846,3.553.7,4.678l-14.219,7.463C1863.905,2025.029,1860.114,2024.759,1857.582,2023.3Z" transform="translate(-11904 18571)" fill="#efeff2"/>
    <path id="Path_94674" data-name="Path 94674" d="M1541.247,1841.129l-57.452-33.09c-2.6-1.5-2.927-3.652-.723-4.81l14.617-7.67c2.2-1.157,6.1-.88,8.7.619l57.453,33.091c2.6,1.5,2.926,3.652.721,4.809l-14.617,7.672C1547.747,1842.906,1543.849,1842.629,1541.247,1841.129Z" transform="translate(-11904 18571)" fill="#efeff2"/>
    <path id="Path_94675" data-name="Path 94675" d="M1934.894,2067.856l-57.452-33.09c-2.6-1.5-2.927-3.652-.722-4.809l14.617-7.672c2.2-1.157,6.1-.879,8.7.62L1957.493,2056c2.6,1.5,2.926,3.652.722,4.809l-14.616,7.671C1941.394,2069.633,1937.5,2069.355,1934.894,2067.856Z" transform="translate(-11904 18571)" fill="#efeff2"/>
    <path id="Path_94676" data-name="Path 94676" d="M2042.405,1931.419l-15.222,8.007c-6.17,3.283-16.984,2.479-24.273-1.689L1683.325,1753.65c-7.21-4.168-8.089-10.176-2-13.379l15.943-8.328Z" transform="translate(-11904 18571)" fill="#ffbc97"/>
    <path id="Path_94677" data-name="Path 94677" d="M1987.785,1601.636l-23.9,156.638c-1.209,7.915,1.821,14.984,7.964,18.52l167.139,96.835c5.264,3.084,13.158-1.6,14.2-8.406l23.919-156.731c1.2-7.869-1.831-14.938-7.973-18.474l-167.1-96.791C1996.718,1590.145,1988.823,1594.831,1987.785,1601.636Z" transform="translate(-11904 18571)" fill="url(#linear-gradient-3)"/>
    <path id="Path_94678" data-name="Path 94678" d="M1885.732,1572.954l-23.9,156.63c-1.207,7.915,1.81,14.992,7.952,18.528l167.135,96.838c5.264,3.084,13.156-1.595,14.195-8.4l23.931-156.741c1.2-7.869-1.83-14.938-7.973-18.474l-167.1-96.791C1894.665,1561.464,1886.77,1566.15,1885.732,1572.954Z" transform="translate(-11904 18571)" fill="#f6f8fd"/>
    <path id="Path_94679" data-name="Path 94679" d="M2064.515,1748.673l-13.4,87.878c-1.035,6.782-8.914,11.471-14.195,8.4l-167.135-96.838c-6.123-3.533-9.165-10.576-7.952-18.528l9.022-59.084c4.244,1.789,6.638,7.627,8.386,14.709.127.363.162.732.25,1.051,1.265,5.163,2.191,10.764,3.448,15.974.075.413.194.822.276,1.189.031.091.017.184.048.275.1.55.243,1.1.388,1.645a20.511,20.511,0,0,0,.61,2.282l.551,1.776c1.947,5.772,4.6,9.879,9.053,10.034,5.27.152,10.305-5.336,15.319-11.287.44-.49.8-1.02,1.234-1.509.554-.636,1.106-1.271,1.614-1.9.159-.149.28-.341.44-.49.28-.341.553-.636.833-.977a55.455,55.455,0,0,1,4.613-4.814l.684-.6c2.858-2.579,5.848-4.239,8.911-4.28,7.449-.068,11.3,9.67,14.155,21.46.1.273.145.548.24.82.613,2.56,1.127,5.172,1.694,7.734.074.413.2.777.275,1.189.115.735.267,1.236.366,1.787.155.778.309,1.557.471,2.289.131.641.268,1.236.406,1.83,2.662,12.451,5.5,23.13,11.736,22.948a6.493,6.493,0,0,0,3.671-1.329,10.574,10.574,0,0,0,1.637-1.163,17.824,17.824,0,0,0,2.029-1.928c.28-.34.56-.682.893-1.072a8.762,8.762,0,0,1,.615-.731c.172-.242.392-.487.573-.776.515-.679,1.082-1.408,1.6-2.135.181-.288.408-.579.6-.915,12.665-19.01,26.2-58.374,37.451-58.853,10.194-.415,10.538,31.408,14.918,56.226a13.524,13.524,0,0,0,.264,1.561c2.726,14.719,6.895,26.571,15.694,27.21,2.981.2,6.209-.923,9.387-2.918a17.911,17.911,0,0,0,1.915-1.179C2053.943,1761.441,2059.795,1754.793,2064.515,1748.673Z" transform="translate(-11904 18571)" fill="#ff975d"/>
    <path id="Path_94680" data-name="Path 94680" d="M2060.876,1772.528l-.294,1.918c-4.073,3.67-8.745,7.376-13.833,9.02a17.685,17.685,0,0,1-3.608.63c-8.887.524-12.9-7.582-16.85-15.461-2.642-5.407-5.2-10.493-9.125-12.858-5.513-3.336-12.693-2.031-19.7,3.527a63.369,63.369,0,0,0-5.513,5.331c-4.673,4.911-9.945,10.46-15.056,10.762a6.826,6.826,0,0,1-.959.01c-4.706-.557-6.5-6.43-7.483-9.571a94.176,94.176,0,0,1-3.234-16.774,2.721,2.721,0,0,0-.091-.6l-.043-.322-.074-.413c-1.909-13.793-3.679-26.713-11.983-27.012-3.492-.442-7.175,2.464-9.088,4.245a40.808,40.808,0,0,0-5.639,6.451c-3.594,4.708-7.694,10.049-12.021,10.305-5.563-.322-6.817-9.147-7.613-14.987-.113-1.059-.253-1.931-.369-2.666-.187-.87-.327-1.743-.468-2.615-1.123-6.1-2.217-12.384-5.359-17.205a10.378,10.378,0,0,0-.634-.936,11.211,11.211,0,0,0-12.9-4.292,42.31,42.31,0,0,0-5.014,2.057c-3.093,1.435-6.246,2.965-9.667,2.657a6.443,6.443,0,0,1-1-.034,16.886,16.886,0,0,1-2.015-.252c-5.13-.763-9.835-4.008-13.947-9.653l.328-2.151c4.171,6.15,8.934,9.623,14.156,10.382a4.378,4.378,0,0,0,1.154.21c.538.061,1.084.075,1.722.084,3.059.283,5.907-1.044,8.909-2.473a37.386,37.386,0,0,1,5.258-2.164c5.593-1.675,10.864-.039,14.018,4.41.3.446.484.714.625.984,3.43,5.035,4.581,11.549,5.72,17.832.134.919.32,1.789.468,2.615.116.734.249,1.653.407,2.711.72,5.149,1.911,13.792,6.521,14.077,3.5-.207,7.319-5.207,10.679-9.576a38.258,38.258,0,0,1,5.857-6.7l.479-.445c2.211-1.938,6.057-4.715,9.825-4.288,9.026.349,10.965,13.352,12.847,27.332a2.239,2.239,0,0,1,.1.551l.148.825a3.4,3.4,0,0,0,.1.551,94.971,94.971,0,0,0,3.171,16.592c.917,2.959,2.554,8.378,6.591,8.835,4.687.373,9.974-5.27,14.694-10.184a57.173,57.173,0,0,1,5.634-5.523c7.572-5.964,15.356-7.35,21.334-3.762,4.176,2.535,6.9,7.982,9.56,13.3,4.394,8.872,8.6,17.2,19.032,14.313C2051.814,1780.479,2056.7,1776.3,2060.876,1772.528Z" transform="translate(-11904 18571)" fill="#1a3a81"/>
    <path id="Path_94681" data-name="Path 94681" d="M1963.859,1624.369a.908.908,0,0,1-.446-.122l-67.562-38.814a.892.892,0,0,1,.893-1.544l67.562,38.815a.893.893,0,0,1-.447,1.665Z" transform="translate(-11904 18571)" fill="#5a43db"/>
    <path id="Path_94682" data-name="Path 94682" d="M1960.952,1643.4a.909.909,0,0,1-.446-.121l-35.96-20.66a.892.892,0,0,1,.894-1.544l35.959,20.661a.892.892,0,0,1-.447,1.664Z" transform="translate(-11904 18571)" fill="#5a43db"/>
    <path id="Path_94683" data-name="Path 94683" d="M1916.534,1617.877a.912.912,0,0,1-.447-.122l-23.143-13.3a.891.891,0,1,1,.893-1.543l23.144,13.3a.893.893,0,0,1-.447,1.666Z" transform="translate(-11904 18571)" fill="#5a43db"/>
    <path id="Path_94684" data-name="Path 94684" d="M1958.052,1662.423a.913.913,0,0,1-.447-.122l-67.562-38.82a.892.892,0,0,1,.893-1.544l67.562,38.821a.893.893,0,0,1-.446,1.665Z" transform="translate(-11904 18571)" fill="#5a43db"/>
    <path id="Path_94685" data-name="Path 94685" d="M1928.48,1666.124a.9.9,0,0,1-.447-.122l-40.891-23.491a.892.892,0,1,1,.894-1.543l40.891,23.491a.893.893,0,0,1-.447,1.665Z" transform="translate(-11904 18571)" fill="#5a43db"/>
    <path id="Path_94686" data-name="Path 94686" d="M1955.145,1681.447a.908.908,0,0,1-.446-.122L1936.718,1671a.891.891,0,0,1,.888-1.544l17.986,10.328a.893.893,0,0,1-.447,1.665Z" transform="translate(-11904 18571)" fill="#5a43db"/>
    <path id="Path_94687" data-name="Path 94687" d="M1709.536,1559.591l-11.188,73.314c-8.22-4.774-14.736-8.6-18.81-10.987l11.178-73.238Z" transform="translate(-11904 18571)" fill="#ff975d"/>
    <path id="Path_94688" data-name="Path 94688" d="M1743.885,1600.885l-7.817,53.811c-6.392-3.681-12.731-7.206-18.834-10.828l7.831-53.894Z" transform="translate(-11904 18571)" fill="#ff975d"/>
    <path id="Path_94689" data-name="Path 94689" d="M1769.282,1568.836,1754.53,1665.5c-6.115-3.546-12.072-7.126-18.462-10.806l14.393-96.771Z" transform="translate(-11904 18571)" fill="#1a3a81"/>
    <path id="Path_94690" data-name="Path 94690" d="M1786.459,1589.479l-13.086,86.783c-5.838-3.412-12.188-6.87-18.843-10.76l13.254-86.85Z" transform="translate(-11904 18571)" fill="#ff975d"/>
    <path id="Path_94691" data-name="Path 94691" d="M1817.127,1657.611l-6.051,40.878c-5.881-3.425-12.23-7.075-18.852-10.957l6.178-40.769Z" transform="translate(-11904 18571)" fill="#ff975d"/>
    <path id="Path_94692" data-name="Path 94692" d="M1816.66,1525.98l-24.436,161.552c-3.321-1.983-9.942-6.161-18.851-11.27l24.392-161.19Z" transform="translate(-11904 18571)" fill="#1a3a81"/>
    <path id="Path_94693" data-name="Path 94693" d="M1734.475,1529.2l-17.241,114.67c-6.716-3.961-13.034-7.627-18.886-10.963l17.232-114.615Z" transform="translate(-11904 18571)" fill="#1a3a81"/>
    <path id="Path_94694" data-name="Path 94694" d="M1682.806,1599.918l-3.268,22c-6.716-3.961-12.828-7.776-18.68-11.112l3.053-21.8Z" transform="translate(-11904 18571)" fill="#1a3a81"/>
    <path id="Path_94695" data-name="Path 94695" d="M1853.265,1481.145a2.922,2.922,0,0,1-1.467-.389l-124.171-70.428a2.97,2.97,0,1,1,2.936-5.163l124.17,70.428a2.97,2.97,0,0,1-1.468,5.552Z" transform="translate(-11904 18571)" fill="#ff975d"/>
    <path id="Path_94696" data-name="Path 94696" d="M1817.77,1422.6a1.5,1.5,0,0,1-.731-.192l-83.535-47.075a1.486,1.486,0,0,1,1.463-2.588l83.534,47.076a1.485,1.485,0,0,1-.731,2.779Z" transform="translate(-11904 18571)" fill="#a2b7eb"/>
    <path id="Path_94697" data-name="Path 94697" d="M1864.074,1410.323a2.927,2.927,0,0,1-1.468-.389l-124.17-70.428a2.97,2.97,0,0,1,2.935-5.164l124.171,70.428a2.971,2.971,0,0,1-1.468,5.553Z" transform="translate(-11904 18571)" fill="#ff975d"/>
    <path id="Path_94698" data-name="Path 94698" d="M1869.249,1374.932a1.491,1.491,0,0,1-.742-.2l-52.594-30.221a1.487,1.487,0,0,1,1.485-2.576l52.594,30.221a1.486,1.486,0,0,1-.743,2.774Z" transform="translate(-11904 18571)" fill="#a2b7eb"/>
    <path id="Path_94699" data-name="Path 94699" d="M1805.487,1338.293a1.519,1.519,0,0,1-.742-.2l-23.126-13.287a1.486,1.486,0,1,1,1.485-2.575l23.126,13.286a1.486,1.486,0,0,1-.743,2.773Z" transform="translate(-11904 18571)" fill="#a2b7eb"/>
    <path id="Path_94700" data-name="Path 94700" d="M1770.41,1318.672a1.429,1.429,0,0,1-.725-.192l-25.337-14.174a1.484,1.484,0,0,1-.569-2.019,1.458,1.458,0,0,1,2.019-.569l25.337,14.174a1.486,1.486,0,0,1-.725,2.78Z" transform="translate(-11904 18571)" fill="#a2b7eb"/>
    <path id="Path_94701" data-name="Path 94701" d="M1735.873,1296.393c-.743,4.667-3.78,6.937-7.166,4.975-3.316-1.921-5.1-6.988-4.363-11.655s3.726-7.088,7.042-5.167C1734.772,1286.508,1736.617,1291.726,1735.873,1296.393Z" transform="translate(-11904 18571)" fill="#ff975d"/>
    <path id="Path_94702" data-name="Path 94702" d="M1730.456,1331.894c-.744,4.667-3.781,6.938-7.167,4.976-3.316-1.921-5.1-6.988-4.362-11.656s3.725-7.088,7.041-5.167C1729.354,1322.009,1731.2,1327.227,1730.456,1331.894Z" transform="translate(-11904 18571)" fill="#1a3a81"/>
    <path id="Path_94703" data-name="Path 94703" d="M1725.038,1367.4c-.744,4.667-3.781,6.937-7.167,4.975-3.316-1.921-5.1-6.988-4.362-11.655s3.725-7.089,7.041-5.167C1723.936,1357.511,1725.781,1362.728,1725.038,1367.4Z" transform="translate(-11904 18571)" fill="#ff975d"/>
    <path id="Path_94704" data-name="Path 94704" d="M1719.62,1402.9c-.744,4.667-3.781,6.937-7.167,4.975-3.316-1.921-5.1-6.988-4.362-11.655s3.726-7.088,7.041-5.167C1718.518,1393.012,1720.363,1398.23,1719.62,1402.9Z" transform="translate(-11904 18571)" fill="#cd86ff"/>
    <path id="Path_94705" data-name="Path 94705" d="M2170.444,1549.578a2.929,2.929,0,0,1-1.468-.389l-124.17-70.428a2.97,2.97,0,0,1,2.936-5.164l124.17,70.428a2.971,2.971,0,0,1-1.468,5.553Z" transform="translate(-11904 18571)" fill="#ff975d"/>
    <path id="Path_94706" data-name="Path 94706" d="M2124.6,1559.232a1.51,1.51,0,0,1-.731-.192l-83.534-47.081a1.486,1.486,0,1,1,1.462-2.588l83.534,47.081a1.486,1.486,0,0,1-.731,2.78Z" transform="translate(-11904 18571)" fill="#a2b7eb"/>
    <path id="Path_94707" data-name="Path 94707" d="M2159.636,1620.4a2.917,2.917,0,0,1-1.468-.389L2034,1549.583a2.97,2.97,0,0,1,2.936-5.163l124.171,70.428a2.971,2.971,0,0,1-1.468,5.552Z" transform="translate(-11904 18571)" fill="#ff975d"/>
    <path id="Path_94708" data-name="Path 94708" d="M2082.884,1612.608a1.52,1.52,0,0,1-.743-.2l-52.594-30.216a1.487,1.487,0,0,1,1.486-2.576l52.593,30.216a1.485,1.485,0,0,1-.742,2.773Z" transform="translate(-11904 18571)" fill="#a2b7eb"/>
    <path id="Path_94709" data-name="Path 94709" d="M2117.178,1632.311a1.523,1.523,0,0,1-.743-.2l-23.126-13.286a1.487,1.487,0,1,1,1.486-2.576l23.126,13.286a1.486,1.486,0,0,1-.743,2.773Z" transform="translate(-11904 18571)" fill="#a2b7eb"/>
    <path id="Path_94710" data-name="Path 94710" d="M2154.466,1652.821a1.426,1.426,0,0,1-.725-.192l-25.337-14.168a1.485,1.485,0,0,1-.568-2.019,1.458,1.458,0,0,1,2.019-.568l25.337,14.167a1.485,1.485,0,0,1-.726,2.78Z" transform="translate(-11904 18571)" fill="#a2b7eb"/>
    <path id="Path_94711" data-name="Path 94711" d="M2036.576,1469.583c-.744,4.667-3.781,6.938-7.167,4.975-3.316-1.921-5.106-6.987-4.362-11.655s3.725-7.088,7.041-5.166C2035.474,1459.7,2037.319,1464.916,2036.576,1469.583Z" transform="translate(-11904 18571)" fill="#ff975d"/>
    <path id="Path_94712" data-name="Path 94712" d="M2031.158,1505.085c-.744,4.667-3.781,6.937-7.167,4.975-3.316-1.921-5.106-6.988-4.362-11.655s3.725-7.088,7.041-5.167C2030.056,1495.2,2031.9,1500.418,2031.158,1505.085Z" transform="translate(-11904 18571)" fill="#cd86ff"/>
    <path id="Path_94713" data-name="Path 94713" d="M2025.74,1540.586c-.744,4.667-3.781,6.937-7.167,4.975-3.316-1.921-5.1-6.988-4.362-11.655s3.726-7.088,7.041-5.167C2024.638,1530.7,2026.483,1535.919,2025.74,1540.586Z" transform="translate(-11904 18571)" fill="#ff975d"/>
    <path id="Path_94714" data-name="Path 94714" d="M2020.322,1576.087c-.743,4.667-3.781,6.937-7.167,4.976-3.315-1.921-5.1-6.988-4.362-11.655s3.726-7.089,7.042-5.167C2019.221,1566.2,2021.065,1571.42,2020.322,1576.087Z" transform="translate(-11904 18571)" fill="#1a3a81"/>
    <path id="Path_94715" data-name="Path 94715" d="M1392.453,2004.208l116.388-67.453a20.591,20.591,0,0,1,20.774.071l206.61,121.633a10.3,10.3,0,0,1-.042,17.772l-115.737,67.4a20.594,20.594,0,0,1-20.786-.033L1392.406,2022A10.3,10.3,0,0,1,1392.453,2004.208Z" transform="translate(-11904 18571)" fill="#ffbc97"/>
  </g>
</svg>
