<svg xmlns="http://www.w3.org/2000/svg" xmlns:xlink="http://www.w3.org/1999/xlink" width="297.674" height="263.332" viewBox="0 0 297.674 263.332">
  <defs>
    <linearGradient id="linear-gradient" x1="0.868" y1="0.164" x2="0.473" y2="0.481" gradientUnits="objectBoundingBox">
      <stop offset="0" stop-color="#eef5f9"/>
      <stop offset="0.36" stop-color="#eef5f9"/>
      <stop offset="1" stop-color="#ff975d"/>
    </linearGradient>
    <radialGradient id="radial-gradient" cx="0.5" cy="0.5" r="0.508" gradientTransform="translate(0.037 0.007) scale(0.98 0.987)" gradientUnits="objectBoundingBox">
      <stop offset="0" stop-color="#fff"/>
      <stop offset="0.485" stop-color="#fdfefe"/>
      <stop offset="0.659" stop-color="#f6fcfc"/>
      <stop offset="0.783" stop-color="#eaf8fa"/>
      <stop offset="0.884" stop-color="#d9f3f6"/>
      <stop offset="0.969" stop-color="#c3edf1"/>
      <stop offset="1" stop-color="#baeaef"/>
    </radialGradient>
    <radialGradient id="radial-gradient-2" cx="0.5" cy="0.5" r="0.436" gradientTransform="matrix(0.939, 0.82, -1.203, 0.512, -0.453, -3.237)" gradientUnits="objectBoundingBox">
      <stop offset="0" stop-color="#baeaef"/>
      <stop offset="0.084" stop-color="#a6e3ef"/>
      <stop offset="0.409" stop-color="#5fccef"/>
      <stop offset="0.68" stop-color="#2bbcef"/>
      <stop offset="0.882" stop-color="#0bb1ef"/>
      <stop offset="0.995" stop-color="#00aeef"/>
    </radialGradient>
  </defs>
  <g id="img_driver_benefits_1" transform="translate(-8816.974 -278.191)">
    <path id="Path_103687" data-name="Path 103687" d="M4684.552-7907.428c66.725-42.68,121.317-84.565,101.591-173.726s-25.952-58.2-150.883-76.343-99.787,81.152-137.057,141.866S4617.827-7864.748,4684.552-7907.428Z" transform="translate(4324.419 8437.87)" fill="#f5f5f5"/>
    <g id="Group_1626" transform="translate(8839.84 300.113)">
      <g id="Group_10307" transform="translate(-0.031 7.78)">
        <path id="Path_59167" d="M71.877,155.645c-4.852-3.5-12.412-5.078-19.3-4.4a14.968,14.968,0,0,1-10.833-3.272,1.981,1.981,0,0,1-.564-.451c-6.77-4.965-18.957-6.093-27.194-2.37s-9.253,10.72-2.482,15.685c4.852,3.5,12.412,5.078,19.3,4.4a14.968,14.968,0,0,1,10.833,3.272,1.981,1.981,0,0,1,.564.451c6.77,4.965,18.957,6.093,27.194,2.37S78.76,160.61,71.877,155.645Z" transform="translate(0.939 18.355)" fill="#b899a6" opacity="0.19"/>
        <path id="Path_59168" d="M51.3,151l.451,6.319a45.675,45.675,0,0,0,1.016,5.416,4.525,4.525,0,0,0,3.837,3.047c1.918.226,5.868-2.934,4.514-7.222-1.128-3.724-2.6-8.463-2.6-8.463C55.814,151.116,53.444,152.131,51.3,151Z" transform="translate(6.621 19.273)" fill="#0d1b3a"/>
        <path id="Path_59169" d="M15.313,149.852l11.848-7.335a12.632,12.632,0,0,1,6.432.677,1.979,1.979,0,0,1,1.241,2.144l-.339,1.918c-.339,2.821-.677,3.16-2.6,3.837l-11.51,3.5a6.475,6.475,0,0,1-5.868-1.128l-.339-.339C12.831,151.883,13.395,150.416,15.313,149.852Z" transform="translate(1.76 18.28)" fill="#0d1b3a"/>
        <path id="Path_59170" d="M33.222,144.5c-.226,2.934-7.447,2.821-7.222-.113l.677-9.591,7.222.113Z" transform="translate(3.372 17.309)" fill="#ff975d"/>
        <path id="Path_59171" d="M34.5,149.531c-2.708,2.821-7.9,2.37-9.027,0L23.1,113.648,24,65.239,49.166,60.5,37.995,113.986C39.687,125.721,37.769,137.118,34.5,149.531Z" transform="translate(3.001 7.769)" fill="#0d1b3a"/>
        <g id="Group_10304" transform="translate(0 38.894)">
          <path id="Path_59172" d="M22.485,0,16.618,14.782a4.948,4.948,0,0,1-6.206,3.272,4.277,4.277,0,0,1-1.467-.677L3.077,13.2,2.4,21.214l8.689,6.206a6.7,6.7,0,0,0,9.366-1.58c.113-.226.226-.339.339-.564,3.5-6.093,8.124-14.218,8.124-14.443C28.917,10.494,22.485,0,22.485,0Z" transform="translate(0.343)" fill="#ffae81"/>
          <path id="Path_59177" d="M3.5,19.818h0A2.439,2.439,0,0,1,.681,17.787L0,13.725A2.439,2.439,0,0,1,2.035,10.9h0a2.439,2.439,0,0,1,2.821,2.031l.79,3.949A2.726,2.726,0,0,1,3.5,19.818Z" transform="translate(0.031 1.396)" fill="#ffae81"/>
          <g id="Group_10303" transform="translate(8.465 9.23)">
            <g id="Group_10302" transform="translate(0 0)">
              <path id="Path_59178" d="M.9,3.05h0a.849.849,0,0,1-.564-.79L0,.455C0,.116.113-.109.451,0h0a1.193,1.193,0,0,1,.677.79L1.354,2.6C1.354,2.937,1.241,3.163.9,3.05Z" transform="translate(0 0.026)" fill="#fff"/>
            </g>
          </g>
        </g>
        <path id="Path_59179" d="M28.571,21.7S13.9,37.61,14.8,40.206s8.576,11.171,13.2,8.914S32.295,24.972,28.571,21.7Z" transform="translate(1.93 2.787)" fill="#ec691f"/>
        <path id="Path_59180" d="M58.612,151.091c.226,2.934-6.883,3.949-7.222,1.016l-.79-9.591,7.222-1.016Z" transform="translate(6.531 18.169)" fill="#ff975d"/>
        <path id="Path_59181" d="M60.542,155.172c-2.257,3.16-7.335,3.611-8.914,1.467l-6.206-32.724L38.2,71.445,60.768,64.9v38.027C63.815,123.238,62.461,138.584,60.542,155.172Z" transform="translate(4.939 8.334)" fill="#0d1b3a"/>
        <path id="Path_59182" d="M44.642,23.7C40.58,27.085,36.518,31.373,32,40.626c-.451,6.77,3.272,9.479,7,12.525L52.654,39.5,47.463,29Z" transform="translate(4.139 3.044)" fill="#4432db"/>
        <path id="Path_59183" d="M23.108,72.651c.564-11.171,1.58-19.973.677-34.078,1.016-19.3,8.689-26.066,20.65-20.988l4.965,1.58C63.618,27.853,71.065,27.853,67.68,43.2L63.166,77.841C62.264,95.444,21.077,93.188,23.108,72.651Z" transform="translate(2.992 2.05)" fill="#ff975d"/>
        <path id="Path_59184" d="M54.426,39l-.9,8.237A42.516,42.516,0,0,0,56.57,67.774l2.708,6.432,2.144-18.731Z" transform="translate(6.881 5.008)" fill="#ab4a0a"/>
        <path id="Rectangle_3841" d="M66.886,81.417h0a3.615,3.615,0,0,1,4.4,2.37l.677,2.482a3.615,3.615,0,0,1-2.37,4.4h0a3.615,3.615,0,0,1-4.4-2.37l-.677-2.482A3.563,3.563,0,0,1,66.886,81.417Z" transform="translate(8.3 10.436)" fill="#ffae81"/>
        <path id="Path_59185" d="M54.8,41.181c5.981,5.755,4.739,4.739,9.479,21.327.564,1.241,1.805,26.179,1.805,26.179l5.755-.564s1.693-17.716,1.918-24.938a13.035,13.035,0,0,0-1.016-5.529L63.376,35.2Z" transform="translate(7.071 4.52)" fill="#ffae81"/>
        <path id="Path_59186" d="M53.377,40.908l6.432,19.521c1.016,1.58,13.428-3.16,12.977-5.755-.226-1.467-3.272-7.786-5.642-16.249C65,30.414,62.629,27.593,59.357,25.787,52.474,22.176,49.879,31.994,53.377,40.908Z" transform="translate(6.689 3.213)" fill="#ec691f"/>
        <g id="Group_10306" transform="translate(40.03 18.091)">
          <g id="Group_10305" transform="translate(0 0)">
            <path id="Path_59187" d="M3.843,0s-8.914,12.074.226,15.572S17.046,5.755,17.046,5.755,8.357-.113,3.843,0Z" transform="translate(0.053 0.001)" fill="#fff"/>
          </g>
        </g>
        <path id="Path_59188" d="M38.7,19.656A8.717,8.717,0,0,0,40.618,21.8c.79.339,10.72-4.4,9.479-12.751-.79-5.3-10.72-3.724-10.72-3.724Z" transform="translate(5.004 0.656)" fill="#45312b"/>
        <path id="Path_59189" d="M43.163,28.086,42.6,28.2a3.607,3.607,0,0,1-4.175-2.934L36.506,14.094A3.607,3.607,0,0,1,39.44,9.919L40,9.806a3.607,3.607,0,0,1,4.175,2.934l3.385,10.381C48.016,25.152,45.195,27.747,43.163,28.086Z" transform="translate(4.715 1.253)" fill="#ffae81"/>
        <path id="Path_59190" d="M37.4,19.414A9.979,9.979,0,0,0,45.3,14.9s-2.934,7-7.335,7.56Z" transform="translate(4.837 1.914)" fill="#45312b"/>
        <ellipse id="Ellipse_396" cx="9.366" cy="5.303" rx="9.366" ry="5.303" transform="matrix(0.034, -0.999, 0.999, 0.034, 35.728, 22.051)" fill="#ffae81"/>
        <path id="Path_59191" d="M45.709,17.713c-1.918,4.062-9.366,6.093-11.51,2.934S34.312,10.265,36.23,6.2s5.3-4.739,7.447-1.467S47.627,13.651,45.709,17.713Z" transform="translate(4.314 0.342)" fill="#ffae81"/>
        <path id="Path_59192" d="M41.514,6.446s-1.467,8.124,4.852,10.494c0,0,7.673-3.724,2.821-12.074C44.9-2.468,37,2.271,37,2.271Z" transform="translate(4.785 0.099)" fill="#45312b"/>
        <path id="Path_59193" d="M32.03,11.485a7.884,7.884,0,0,1,5.529-4.626L34.287,4.6C34.287,4.489,30.789,5.053,32.03,11.485Z" transform="translate(4.113 0.59)" fill="#45312b"/>
        <path id="Path_59194" d="M45.329,11.623c-1.241-2.031-4.4-2.257-8.8-.9a4.144,4.144,0,0,1-2.031.113c-3.16-.9-3.385-4.965-3.385-4.965-.564-2.708,1.354-3.837,4.062-4.288L42.282.113c4.062-.79,7.56,2.708,8.124,5.416l.113.451C51.084,8.8,48.15,11.058,45.329,11.623Z" transform="translate(4.016 0.001)" fill="#45312b"/>
        <circle id="Ellipse_397" cx="1.918" cy="1.918" r="1.918" transform="translate(48.217 13.993)" fill="#ed6f53"/>
      </g>
      <g id="baseball-cap" transform="translate(31.674 -0.062) rotate(10)">
        <path id="Path_3" d="M1.074.339c.113,0,.113-.113.226-.113A3.3,3.3,0,0,1,2.315,0,9.448,9.448,0,0,1,6.828,1.58a.7.7,0,0,1,.226.79.111.111,0,0,1-.113.113l-.226.226c-.677.677-3.047,3.047-4.4,3.047C.622,5.755.058,3.724.058,2.934A2.54,2.54,0,0,1,1.074.339Z" transform="translate(0 12.718)" fill="#546e7a"/>
        <path id="Path_4" d="M.226,3.724,5.529.113C5.642.113,5.755,0,5.868,0c3.5,0,12.187,2.144,15.685,3.837a4.058,4.058,0,0,1,1.354.9.545.545,0,0,1,0,.79c-.113.226-4.175,4.739-8.463,4.739-2.821,0-5.191-1.58-7.447-3.16-.564-.451-1.241-.79-1.805-1.241A6.94,6.94,0,0,0,1.241,4.514a.678.678,0,0,0-.451.113A.647.647,0,0,1,0,4.4.829.829,0,0,1,.226,3.724Z" transform="translate(0.961 9.22)" fill="#cfd8dc"/>
        <path id="Path_5" d="M0,.451A.619.619,0,0,1,.677,0,11.314,11.314,0,0,1,6.319,2.6,9.18,9.18,0,0,1,8.8,9.366,22.651,22.651,0,0,1,8.237,14.1a.75.75,0,0,1-.564.451H4.852c-.113,0-.339-.113-.451-.113a9.924,9.924,0,0,0-1.128-.677.8.8,0,0,1-.339-.677C4.4,9.027,4.514,5.868,3.5,3.724A4.982,4.982,0,0,0,.339,1.241.879.879,0,0,1,0,.451Z" transform="translate(18.677 0.419)" fill="#ec691f"/>
        <path id="Path_6" d="M0,9.672,1.918,3.578a4.45,4.45,0,0,1,2.37-2.6A15.041,15.041,0,0,1,13.2.419a6.151,6.151,0,0,1,3.837,3.047c1.241,2.37,1.128,5.868-.451,10.268a.5.5,0,0,1-.677.339H15.8C12.412,12.493,3.949,10.462.564,10.462A.533.533,0,0,1,0,9.9V9.672Z" transform="translate(6.264 0)" fill="#ff975d"/>
      </g>
    </g>
    <g id="Group_25163" data-name="Group 25163" transform="translate(0 144.761)">
      <g id="Group_25151" data-name="Group 25151" transform="translate(8944.681 287.239)">
        <path id="Path_102309" data-name="Path 102309" d="M3601.619,1028.535l-34.472-17.626a.553.553,0,0,0-.751.113h0l-1.979,1.338,1.515,5.164-1.63,52.708a2.645,2.645,0,0,0,.943,2.2l30.025,17.328,2.9,3.92,2.008-1.318-.007-.018c.295-.121.5-.525.522-1.111l1.871-60.5A2.648,2.648,0,0,0,3601.619,1028.535Z" transform="translate(-3562.313 -1010.812)" fill="#ffbf9b"/>
        <path id="Path_102310" data-name="Path 102310" d="M3573.713,1109.277l-34.327-18.987a2.578,2.578,0,0,1-.941-2.174l1.832-59.223c.028-.894.5-1.38,1.041-1.078l34.367,17.714a2.578,2.578,0,0,1,.941,2.174l-1.872,60.5C3574.726,1109.094,3574.258,1109.579,3573.713,1109.277Z" transform="translate(-3538.444 -1026.425)" fill="#fff0e8"/>
        <path id="Path_102312" data-name="Path 102312" d="M3694.676,1072.468l-.3-.155a5.874,5.874,0,0,0-2.54-4.417l-8.544-4.45c-1.29-.672-2.381.1-2.6,1.739l-.3-.155c-1.433-.746-2.621.294-2.641,2.311h0c-.02,2.017,1.136,4.278,2.568,5.025l14.279,7.438c1.433.746,2.621-.294,2.641-2.311h0C3697.264,1075.475,3696.108,1073.214,3694.676,1072.468Z" transform="translate(-3667.044 -1059.176)" fill="#ec691f"/>
        <path id="Path_102319" data-name="Path 102319" d="M3682.232,1081.545l-.3-.155a5.874,5.874,0,0,0-2.54-4.417l-8.543-4.45c-1.29-.672-2.382.1-2.6,1.739l-.3-.155c-1.433-.746-2.621.294-2.641,2.311h0c-.021,2.017,1.136,4.278,2.568,5.024l14.279,7.438c1.433.746,2.621-.294,2.641-2.311h0C3684.82,1084.552,3683.665,1082.291,3682.232,1081.545Z" transform="translate(-3655.557 -1067.555)" fill="#ffbf9b"/>
        <line id="Line_144" data-name="Line 144" x2="12.032" y2="6.529" transform="translate(13.37 8.534)" fill="none" stroke="#fff" stroke-linecap="round" stroke-linejoin="round" stroke-width="2"/>
      </g>
      <path id="Path_102311" data-name="Path 102311" d="M3606.274,1166.559l-31.7-17.531,1.684-54.428L3608,1110.91Z" transform="translate(5372.881 -800.918)" fill="#fff"/>
      <line id="Line_138" data-name="Line 138" x2="9.223" y2="5.062" transform="translate(8961.642 339.903)" fill="none" stroke="#646464" stroke-linecap="round" stroke-linejoin="round" stroke-width="2"/>
      <line id="Line_139" data-name="Line 139" x2="15.484" y2="8.459" transform="translate(8961.431 344.296)" fill="none" stroke="#646464" stroke-linecap="round" stroke-linejoin="round" stroke-width="2"/>
      <path id="Path_102313" data-name="Path 102313" d="M3620.1,1612.8l-5.974-3.29.246-8.043,5.974,3.289Z" transform="translate(5336.375 -1268.819)" fill="#ffbf9b"/>
      <path id="Path_102314" data-name="Path 102314" d="M3632.388,1655.489l1.284,3.161,1.874-2.338" transform="translate(5319.515 -1318.683)" fill="none" stroke="#fff" stroke-linecap="round" stroke-linejoin="round" stroke-width="2"/>
      <line id="Line_140" data-name="Line 140" x2="9.223" y2="5.062" transform="translate(8962.08 325.727)" fill="none" stroke="#646464" stroke-linecap="round" stroke-linejoin="round" stroke-width="2"/>
      <line id="Line_141" data-name="Line 141" x2="15.484" y2="8.459" transform="translate(8961.869 330.121)" fill="none" stroke="#646464" stroke-linecap="round" stroke-linejoin="round" stroke-width="2"/>
      <path id="Path_102315" data-name="Path 102315" d="M3625.8,1428.437l-5.974-3.29.245-8.043,5.975,3.29Z" transform="translate(5331.111 -1098.627)" fill="#ffbf9b"/>
      <path id="Path_102316" data-name="Path 102316" d="M3638.092,1471.122l1.285,3.162,1.874-2.338" transform="translate(5314.25 -1148.492)" fill="none" stroke="#fff" stroke-linecap="round" stroke-linejoin="round" stroke-width="2"/>
      <line id="Line_142" data-name="Line 142" x2="9.223" y2="5.062" transform="translate(8962.519 311.552)" fill="none" stroke="#646464" stroke-linecap="round" stroke-linejoin="round" stroke-width="2"/>
      <line id="Line_143" data-name="Line 143" x2="15.484" y2="8.459" transform="translate(8962.308 315.946)" fill="none" stroke="#646464" stroke-linecap="round" stroke-linejoin="round" stroke-width="2"/>
      <path id="Path_102317" data-name="Path 102317" d="M3631.5,1244.072l-5.974-3.29.245-8.043,5.974,3.29Z" transform="translate(5325.846 -928.437)" fill="#ffbf9b"/>
      <path id="Path_102318" data-name="Path 102318" d="M3643.8,1286.757l1.284,3.162,1.875-2.338" transform="translate(5308.985 -978.302)" fill="none" stroke="#fff" stroke-linecap="round" stroke-linejoin="round" stroke-width="2"/>
    </g>
    <g id="Group_25160" data-name="Group 25160" transform="translate(8940.022 290)">
      <path id="Path_103344" data-name="Path 103344" d="M2131.688,511.423v-5.744l1.427-.824V510.6c0,2.633,1.856,3.7,4.137,2.388a9.157,9.157,0,0,0,4.137-7.165V465.645a12.316,12.316,0,0,1,5.563-9.636,3.94,3.94,0,0,1,3.879-.414h0l-25.791-14.884c-1.015-.647-2.447-.59-4.033.325a12.314,12.314,0,0,0-5.563,9.636V490.85a9.157,9.157,0,0,1-4.137,7.165l20.538,14.833A6.113,6.113,0,0,1,2131.688,511.423Z" transform="translate(-2090.669 -440.278)" fill="#fff"/>
      <path id="Path_103345" data-name="Path 103345" d="M2131.688,511.423v-5.744l1.427-.824V510.6c0,2.633,1.856,3.7,4.137,2.388a9.157,9.157,0,0,0,4.137-7.165V465.645a12.316,12.316,0,0,1,5.563-9.636,3.94,3.94,0,0,1,3.879-.414h0l-25.791-14.884c-1.015-.647-2.447-.59-4.033.325a12.314,12.314,0,0,0-5.563,9.636V490.85a9.157,9.157,0,0,1-4.137,7.165l20.538,14.833A6.113,6.113,0,0,1,2131.688,511.423Z" transform="translate(-2090.669 -440.278)" opacity="0.2" fill="url(#linear-gradient)" style="mix-blend-mode: multiply;isolation: isolate"/>
      <g id="Group_25057" data-name="Group 25057" transform="translate(41.019 14.973)">
        <path id="Path_103346" data-name="Path 103346" d="M2353.557,673.559c-3.067,1.771-5.563.331-5.563-3.212V664.6l1.427-.824v5.745c0,2.633,1.856,3.705,4.136,2.388a9.157,9.157,0,0,0,4.137-7.165V624.57a12.316,12.316,0,0,1,5.563-9.636c3.068-1.771,5.564-.33,5.564,3.212v6.43l-1.427.824v-6.43c0-2.634-1.856-3.705-4.138-2.388a9.157,9.157,0,0,0-4.136,7.165v40.178A12.313,12.313,0,0,1,2353.557,673.559Z" transform="translate(-2347.994 -614.176)" fill="#fff"/>
      </g>
      <g id="Group_25058" data-name="Group 25058" transform="translate(41.019 14.973)" opacity="0.3" style="mix-blend-mode: multiply;isolation: isolate">
        <path id="Path_103347" data-name="Path 103347" d="M2353.557,673.559c-3.067,1.771-5.563.331-5.563-3.212V664.6l1.427-.824v5.745c0,2.633,1.856,3.705,4.136,2.388a9.157,9.157,0,0,0,4.137-7.165V624.57a12.316,12.316,0,0,1,5.563-9.636c3.068-1.771,5.564-.33,5.564,3.212v6.43l-1.427.824v-6.43c0-2.634-1.856-3.705-4.138-2.388a9.157,9.157,0,0,0-4.136,7.165v40.178A12.313,12.313,0,0,1,2353.557,673.559Z" transform="translate(-2347.994 -614.176)" fill="#ff975d"/>
      </g>
      <path id="Path_103348" data-name="Path 103348" d="M2487.563,636.128a9.039,9.039,0,0,0-3.551,4.381l7.688,4.437v-6.43C2491.7,635.882,2489.844,634.811,2487.563,636.128Z" transform="translate(-2431.281 -618.75)" fill="#fff"/>
      <path id="Path_103349" data-name="Path 103349" d="M2487.563,636.128a9.039,9.039,0,0,0-3.551,4.381l7.688,4.437v-6.43C2491.7,635.882,2489.844,634.811,2487.563,636.128Z" transform="translate(-2431.281 -618.75)" fill="#ec691f" opacity="0.5" style="mix-blend-mode: multiply;isolation: isolate"/>
      <g id="Group_25059" data-name="Group 25059" transform="translate(25.725 23.028)">
        <path id="Path_103350" data-name="Path 103350" d="M2210.908,717.14l-13.063-7.591v-1.828l13.063,7.592Z" transform="translate(-2195.479 -707.721)" fill="#438be3" opacity="0.2" style="mix-blend-mode: multiply;isolation: isolate"/>
        <path id="Path_103351" data-name="Path 103351" d="M2183.428,723.131l-13.063-7.592,1.183-.624,13.063,7.592Z" transform="translate(-2170.365 -714.296)" fill="#438be3"/>
        <path id="Path_103352" data-name="Path 103352" d="M2323.26,804.912l-1.183.624v-1.827l1.183-.624Z" transform="translate(-2309.014 -794.873)" fill="#1159b1"/>
        <path id="Path_103353" data-name="Path 103353" d="M2183.428,731.578l-13.063-7.591v-1.828l13.063,7.592Z" transform="translate(-2170.365 -720.915)" fill="#2a72ca"/>
      </g>
      <g id="Group_25060" data-name="Group 25060" transform="translate(25.725 29.708)">
        <path id="Path_103354" data-name="Path 103354" d="M2210.908,794.725l-13.063-7.591v-1.828l13.063,7.592Z" transform="translate(-2195.479 -785.306)" fill="#438be3" opacity="0.2" style="mix-blend-mode: multiply;isolation: isolate"/>
        <path id="Path_103355" data-name="Path 103355" d="M2183.428,800.718l-13.063-7.592,1.183-.623,13.063,7.592Z" transform="translate(-2170.365 -791.883)" fill="#438be3"/>
        <path id="Path_103356" data-name="Path 103356" d="M2323.26,882.5l-1.183.624v-1.827l1.183-.624Z" transform="translate(-2309.014 -872.459)" fill="#1159b1"/>
        <path id="Path_103357" data-name="Path 103357" d="M2183.428,809.163l-13.063-7.591v-1.828l13.063,7.592Z" transform="translate(-2170.365 -798.5)" fill="#2a72ca"/>
      </g>
      <g id="Group_25061" data-name="Group 25061" transform="translate(25.725 36.389)">
        <path id="Path_103358" data-name="Path 103358" d="M2210.908,872.312l-13.063-7.591v-1.828l13.063,7.592Z" transform="translate(-2195.479 -862.892)" fill="#438be3" opacity="0.2" style="mix-blend-mode: multiply;isolation: isolate"/>
        <path id="Path_103359" data-name="Path 103359" d="M2183.428,878.305l-13.063-7.592,1.183-.623,13.063,7.592Z" transform="translate(-2170.365 -869.47)" fill="#438be3"/>
        <path id="Path_103360" data-name="Path 103360" d="M2323.26,960.084l-1.183.624v-1.827l1.183-.624Z" transform="translate(-2309.014 -950.046)" fill="#1159b1"/>
        <path id="Path_103361" data-name="Path 103361" d="M2183.428,886.749l-13.063-7.591V877.33l13.063,7.592Z" transform="translate(-2170.365 -876.086)" fill="#2a72ca"/>
      </g>
      <g id="Group_25062" data-name="Group 25062" transform="translate(25.725 43.07)">
        <path id="Path_103362" data-name="Path 103362" d="M2210.908,949.9l-13.063-7.591V940.48l13.063,7.592Z" transform="translate(-2195.479 -940.48)" fill="#438be3" opacity="0.2" style="mix-blend-mode: multiply;isolation: isolate"/>
        <path id="Path_103363" data-name="Path 103363" d="M2183.428,955.89l-13.063-7.592,1.183-.624,13.063,7.592Z" transform="translate(-2170.365 -947.055)" fill="#438be3"/>
        <path id="Path_103364" data-name="Path 103364" d="M2323.26,1037.671l-1.183.624v-1.827l1.183-.624Z" transform="translate(-2309.014 -1027.633)" fill="#1159b1"/>
        <path id="Path_103365" data-name="Path 103365" d="M2183.428,964.336l-13.063-7.591v-1.828l13.063,7.592Z" transform="translate(-2170.365 -953.674)" fill="#2a72ca"/>
      </g>
      <g id="Group_25071" data-name="Group 25071" transform="translate(25.725 16.475)">
        <path id="Path_103372" data-name="Path 103372" d="M2210.908,641.035l-13.063-7.591v-1.828l13.063,7.592Z" transform="translate(-2195.479 -631.615)" fill="#438be3" opacity="0.2" style="mix-blend-mode: multiply;isolation: isolate"/>
        <path id="Path_103373" data-name="Path 103373" d="M2183.428,647.027l-13.063-7.592,1.183-.624,13.063,7.592Z" transform="translate(-2170.365 -638.192)" fill="#438be3"/>
        <path id="Path_103374" data-name="Path 103374" d="M2323.26,728.806l-1.183.624V727.6l1.183-.624Z" transform="translate(-2309.014 -718.767)" fill="#1159b1"/>
        <path id="Path_103375" data-name="Path 103375" d="M2183.428,655.472l-13.063-7.591v-1.828l13.063,7.592Z" transform="translate(-2170.365 -644.81)" fill="#2a72ca"/>
      </g>
      <g id="Group_25159" data-name="Group 25159" transform="translate(41.177 24.791)">
        <g id="Group_25063" data-name="Group 25063" transform="translate(1.915 6.553)" opacity="0.11" style="mix-blend-mode: multiply;isolation: isolate">
          <path id="Path_103366" data-name="Path 103366" d="M2379.715,805.313l1.152,2-3.341,1.9-2.463-4.249,1.16-.661,1.3,2.257Z" transform="translate(-2375.063 -804.303)"/>
        </g>
        <g id="Group_25064" data-name="Group 25064" transform="translate(0 7.077)">
          <path id="Path_103367" data-name="Path 103367" d="M2352.822,811.642l1.025-.6,1.16-.661-1.025.6Z" transform="translate(-2352.822 -810.385)" fill="#fff"/>
        </g>
        <g id="Group_25065" data-name="Group 25065" transform="translate(1.16 7.077)">
          <path id="Path_103368" data-name="Path 103368" d="M2366.293,810.981l1.025-.6,1.3,2.257-1.025.6Z" transform="translate(-2366.293 -810.385)" fill="#f5b48f"/>
        </g>
        <g id="Group_25066" data-name="Group 25066" transform="translate(4.652 8.087)">
          <path id="Path_103369" data-name="Path 103369" d="M2406.844,822.712l1.025-.6,1.152,2-1.025.6Z" transform="translate(-2406.844 -822.117)" fill="#f5b48f"/>
        </g>
        <g id="Group_25067" data-name="Group 25067" transform="translate(2.463 8.087)">
          <path id="Path_103370" data-name="Path 103370" d="M2381.429,823.959l1.025-.6,2.188-1.247-1.025.6Z" transform="translate(-2381.429 -822.117)" fill="#fff"/>
        </g>
        <g id="Group_25068" data-name="Group 25068" transform="translate(0 7.672)">
          <path id="Path_103371" data-name="Path 103371" d="M2357.474,818.313l1.152,2-3.341,1.9-2.463-4.249,1.16-.661,1.3,2.257Z" transform="translate(-2352.822 -817.303)" fill="#ff975d"/>
        </g>
        <g id="Group_25072" data-name="Group 25072" transform="translate(1.915 0)" opacity="0.11" style="mix-blend-mode: multiply;isolation: isolate">
          <path id="Path_103376" data-name="Path 103376" d="M2379.715,729.209l1.152,2-3.341,1.9-2.463-4.249,1.16-.661,1.3,2.257Z" transform="translate(-2375.063 -728.199)"/>
        </g>
        <g id="Group_25073" data-name="Group 25073" transform="translate(0 0.524)">
          <path id="Path_103377" data-name="Path 103377" d="M2352.822,735.536l1.025-.6,1.16-.661-1.025.6Z" transform="translate(-2352.822 -734.279)" fill="#fff"/>
        </g>
        <g id="Group_25074" data-name="Group 25074" transform="translate(1.16 0.524)">
          <path id="Path_103378" data-name="Path 103378" d="M2366.293,734.875l1.025-.6,1.3,2.257-1.025.6Z" transform="translate(-2366.293 -734.279)" fill="#f5b48f"/>
        </g>
        <g id="Group_25075" data-name="Group 25075" transform="translate(4.652 1.534)">
          <path id="Path_103379" data-name="Path 103379" d="M2406.844,746.607l1.025-.6,1.152,2-1.025.6Z" transform="translate(-2406.844 -746.011)" fill="#f5b48f"/>
        </g>
        <g id="Group_25076" data-name="Group 25076" transform="translate(2.463 1.534)">
          <path id="Path_103380" data-name="Path 103380" d="M2381.429,747.854l1.025-.6,2.188-1.247-1.025.6Z" transform="translate(-2381.429 -746.011)" fill="#fff"/>
        </g>
        <g id="Group_25077" data-name="Group 25077" transform="translate(0 1.119)">
          <path id="Path_103381" data-name="Path 103381" d="M2357.474,742.209l1.152,2-3.341,1.9-2.463-4.249,1.16-.661,1.3,2.257Z" transform="translate(-2352.822 -741.198)" fill="#ff975d"/>
        </g>
        <g id="Group_25080" data-name="Group 25080" transform="translate(1.915 13.189)" opacity="0.11" style="mix-blend-mode: multiply;isolation: isolate">
          <path id="Path_103382" data-name="Path 103382" d="M2379.715,882.382l1.152,2-3.341,1.9-2.463-4.249,1.16-.661,1.3,2.257Z" transform="translate(-2375.063 -881.372)"/>
        </g>
        <g id="Group_25081" data-name="Group 25081" transform="translate(0 13.713)">
          <path id="Path_103383" data-name="Path 103383" d="M2352.822,888.71l1.025-.6,1.16-.661-1.025.6Z" transform="translate(-2352.822 -887.453)" fill="#fff"/>
        </g>
        <g id="Group_25082" data-name="Group 25082" transform="translate(1.16 13.713)">
          <path id="Path_103384" data-name="Path 103384" d="M2366.293,888.049l1.025-.6,1.3,2.257-1.025.6Z" transform="translate(-2366.293 -887.453)" fill="#f5b48f"/>
        </g>
        <g id="Group_25083" data-name="Group 25083" transform="translate(4.652 14.723)">
          <path id="Path_103385" data-name="Path 103385" d="M2406.844,899.78l1.025-.6,1.152,2-1.025.6Z" transform="translate(-2406.844 -899.185)" fill="#f5b48f"/>
        </g>
        <g id="Group_25084" data-name="Group 25084" transform="translate(2.463 14.723)">
          <path id="Path_103386" data-name="Path 103386" d="M2381.429,901.027l1.025-.6,2.188-1.247-1.025.6Z" transform="translate(-2381.429 -899.185)" fill="#fff"/>
        </g>
        <g id="Group_25085" data-name="Group 25085" transform="translate(0 14.308)">
          <path id="Path_103387" data-name="Path 103387" d="M2357.474,895.382l1.152,2-3.341,1.9-2.463-4.249,1.16-.661,1.3,2.257Z" transform="translate(-2352.822 -894.371)" fill="#ff975d"/>
        </g>
        <g id="Group_25088" data-name="Group 25088" transform="translate(1.915 19.825)" opacity="0.11" style="mix-blend-mode: multiply;isolation: isolate">
          <path id="Path_103388" data-name="Path 103388" d="M2379.715,959.451l1.152,2-3.341,1.9-2.463-4.249,1.16-.661,1.3,2.257Z" transform="translate(-2375.063 -958.44)"/>
        </g>
        <g id="Group_25089" data-name="Group 25089" transform="translate(0 20.348)">
          <path id="Path_103389" data-name="Path 103389" d="M2352.822,965.778l1.025-.6,1.16-.661-1.025.6Z" transform="translate(-2352.822 -964.522)" fill="#fff"/>
        </g>
        <g id="Group_25090" data-name="Group 25090" transform="translate(1.16 20.348)">
          <path id="Path_103390" data-name="Path 103390" d="M2366.293,965.117l1.025-.6,1.3,2.257-1.025.6Z" transform="translate(-2366.293 -964.522)" fill="#f5b48f"/>
        </g>
        <g id="Group_25091" data-name="Group 25091" transform="translate(4.652 21.359)">
          <path id="Path_103391" data-name="Path 103391" d="M2406.844,976.849l1.025-.6,1.152,2-1.025.6Z" transform="translate(-2406.844 -976.253)" fill="#f5b48f"/>
        </g>
        <g id="Group_25092" data-name="Group 25092" transform="translate(2.463 21.359)">
          <path id="Path_103392" data-name="Path 103392" d="M2381.429,978.1l1.025-.6,2.188-1.247-1.025.6Z" transform="translate(-2381.429 -976.253)" fill="#fff"/>
        </g>
        <g id="Group_25093" data-name="Group 25093" transform="translate(0 20.944)">
          <path id="Path_103393" data-name="Path 103393" d="M2357.474,972.451l1.152,2-3.341,1.9-2.463-4.249,1.16-.661,1.3,2.257Z" transform="translate(-2352.822 -971.44)" fill="#ff975d"/>
        </g>
        <g id="Group_25096" data-name="Group 25096" transform="translate(1.915 26.461)" opacity="0.11" style="mix-blend-mode: multiply;isolation: isolate">
          <path id="Path_103394" data-name="Path 103394" d="M2379.715,1036.519l1.152,2-3.341,1.9-2.463-4.249,1.16-.661,1.3,2.257Z" transform="translate(-2375.063 -1035.509)"/>
        </g>
        <g id="Group_25097" data-name="Group 25097" transform="translate(0 26.984)">
          <path id="Path_103395" data-name="Path 103395" d="M2352.822,1042.848l1.025-.6,1.16-.661-1.025.6Z" transform="translate(-2352.822 -1041.591)" fill="#fff"/>
        </g>
        <g id="Group_25098" data-name="Group 25098" transform="translate(1.16 26.984)">
          <path id="Path_103396" data-name="Path 103396" d="M2366.293,1042.186l1.025-.6,1.3,2.257-1.025.6Z" transform="translate(-2366.293 -1041.591)" fill="#f5b48f"/>
        </g>
        <g id="Group_25099" data-name="Group 25099" transform="translate(4.652 27.995)">
          <path id="Path_103397" data-name="Path 103397" d="M2406.844,1053.918l1.025-.6,1.152,2-1.025.6Z" transform="translate(-2406.844 -1053.322)" fill="#f5b48f"/>
        </g>
        <g id="Group_25100" data-name="Group 25100" transform="translate(2.463 27.995)">
          <path id="Path_103398" data-name="Path 103398" d="M2381.429,1055.165l1.025-.6,2.188-1.247-1.025.6Z" transform="translate(-2381.429 -1053.322)" fill="#fff"/>
        </g>
        <g id="Group_25101" data-name="Group 25101" transform="translate(0 27.58)">
          <path id="Path_103399" data-name="Path 103399" d="M2357.474,1049.519l1.152,2-3.341,1.9-2.463-4.249,1.16-.661,1.3,2.257Z" transform="translate(-2352.822 -1048.509)" fill="#ff975d"/>
        </g>
      </g>
      <g id="Group_25105" data-name="Group 25105" transform="translate(0 3.667)">
        <path id="Path_103400" data-name="Path 103400" d="M1890.269,485.736s-5.366,3.379-15.662-2.874l-3,1.748,4.453,8.684-1.456,5.51c0,3.593-.884,19.548,13.765,37.292,14.649-.83,17.56-11.7,17.56-19.207,0-3.593,0-15.943,0-15.943A43.886,43.886,0,0,1,1890.269,485.736Z" transform="translate(-1871.608 -482.862)" fill="#ff975d"/>
        <path id="Path_103401" data-name="Path 103401" d="M1887.266,554.742c14.649-.83,15.662-13.953,15.662-17.546s0-15.943,0-15.943a43.888,43.888,0,0,1-15.663-15.211s-5.365,3.379-15.662-2.874c0,0,0,12.35,0,15.943S1872.617,537,1887.266,554.742Z" transform="translate(-1871.604 -501.42)" fill="#ffe0ce"/>
        <path id="Path_103402" data-name="Path 103402" d="M2049.787,576.233a3.123,3.123,0,0,1-.351.176,37.722,37.722,0,0,0,13.464,13.076s0,10.617,0,13.706c0,2.451-.55,10.06-7.069,13.455,6.851-3.3,7.42-11.136,7.42-13.631V589.309A37.723,37.723,0,0,1,2049.787,576.233Z" transform="translate(-2034.124 -568.193)" fill="#ff975d"/>
        <path id="Path_103403" data-name="Path 103403" d="M1906.511,550.183c-1.234.541-5.677,1.864-13.109-2.649l-.351.175C1901.806,553.026,1906.412,550.245,1906.511,550.183Z" transform="translate(-1891.204 -541.965)" fill="#ff975d"/>
        <g id="Group_25104" data-name="Group 25104" transform="translate(3.7 14.1)">
          <path id="Path_103404" data-name="Path 103404" d="M1937.32,667.864c0,7.252-5.091,10.191-11.371,6.565s-11.371-12.443-11.371-19.695,5.091-10.191,11.371-6.565S1937.32,660.613,1937.32,667.864Z" transform="translate(-1914.578 -646.617)" fill="#fff"/>
          <path id="Path_103405" data-name="Path 103405" d="M1937.32,667.864c0,7.252-5.091,10.191-11.371,6.565s-11.371-12.443-11.371-19.695,5.091-10.191,11.371-6.565S1937.32,660.613,1937.32,667.864Z" transform="translate(-1914.578 -646.617)" fill="#ff975d" opacity="0.2" style="mix-blend-mode: multiply;isolation: isolate"/>
          <path id="Path_103406" data-name="Path 103406" d="M1950.888,688.337c0,6.352-4.459,8.926-9.96,5.751s-9.96-10.9-9.96-17.25,4.459-8.926,9.96-5.75S1950.888,681.985,1950.888,688.337Z" transform="translate(-1929.557 -667.737)" fill="#ff975d"/>
          <path id="Path_103407" data-name="Path 103407" d="M1941.509,698.82c-5.5-3.176-9.96-10.9-9.96-17.251,0-3.042,1.024-5.217,2.694-6.31-2.012.943-3.276,3.253-3.276,6.635,0,6.352,4.459,14.075,9.96,17.25,2.866,1.655,5.448,1.748,7.265.559C1946.426,700.533,1944.081,700.305,1941.509,698.82Z" transform="translate(-1929.557 -672.794)" fill="#fff"/>
          <path id="Path_103408" data-name="Path 103408" d="M1971.808,721.575V716.3l-4.175-2.41-.591.336v4.6l-3.976-2.3-.592.336v4.821l4.568,2.637V729.6l4.175,2.41.591-.335v-4.6l3.977,2.3.591-.335v-4.821Z" transform="translate(-1958.35 -708.097)" fill="#d9e8f9"/>
          <path id="Path_103409" data-name="Path 103409" d="M1975.785,728.11l-4.568-2.637V720.2l-4.175-2.41v5.274l-4.568-2.637v4.821l4.568,2.637v5.275l4.175,2.41v-5.275l4.568,2.637Z" transform="translate(-1958.35 -711.659)" fill="#fff" opacity="0.81"/>
        </g>
      </g>
      <g id="Group_25106" data-name="Group 25106" transform="translate(15.076 49.603)">
        <path id="Path_103410" data-name="Path 103410" d="M2072.639,1046.646V1040.9l-25.943-14.974v5.745c0,1.82.659,3.085,1.715,3.645l25.608,14.76A4.089,4.089,0,0,1,2072.639,1046.646Z" transform="translate(-2046.695 -1025.104)" fill="#fff"/>
        <path id="Path_103411" data-name="Path 103411" d="M2072.639,1046.646V1040.9l-25.943-14.974v5.745c0,1.82.659,3.085,1.715,3.645l25.608,14.76A4.089,4.089,0,0,1,2072.639,1046.646Z" transform="translate(-2046.695 -1025.104)" fill="#ff975d" opacity="0.2" style="mix-blend-mode: multiply;isolation: isolate"/>
        <path id="Path_103412" data-name="Path 103412" d="M2074.065,1031.335l-1.427.824-25.943-14.974,1.427-.824Z" transform="translate(-2046.695 -1016.362)" fill="#fff"/>
      </g>
    </g>
    <path id="Path_103689" data-name="Path 103689" d="M1.078,0V-8.566H2.895V0Zm9.879,0H9.17V-3.826A1.838,1.838,0,0,0,8.918-4.89a.917.917,0,0,0-.8-.354,1.207,1.207,0,0,0-1.084.5A3.107,3.107,0,0,0,6.7-3.082V0H4.91V-6.551H6.275l.24.838h.1a1.889,1.889,0,0,1,.823-.718,2.8,2.8,0,0,1,1.192-.243,2.291,2.291,0,0,1,1.734.618,2.481,2.481,0,0,1,.592,1.784Zm6.41-1.945a1.8,1.8,0,0,1-.7,1.535,3.46,3.46,0,0,1-2.095.527,6.579,6.579,0,0,1-1.219-.1,4.61,4.61,0,0,1-.943-.284V-1.74a6.23,6.23,0,0,0,1.122.393,4.543,4.543,0,0,0,1.1.158q.973,0,.973-.562a.469.469,0,0,0-.129-.343,1.869,1.869,0,0,0-.445-.3q-.316-.167-.844-.39a5.3,5.3,0,0,1-1.11-.586,1.649,1.649,0,0,1-.516-.618,2.041,2.041,0,0,1-.161-.858A1.556,1.556,0,0,1,13.075-6.2a3.3,3.3,0,0,1,1.919-.478,5.447,5.447,0,0,1,2.3.516l-.539,1.289q-.492-.211-.92-.346a2.889,2.889,0,0,0-.873-.135q-.791,0-.791.428a.5.5,0,0,0,.255.416,6.932,6.932,0,0,0,1.116.521,5.186,5.186,0,0,1,1.125.58,1.716,1.716,0,0,1,.527.621A1.909,1.909,0,0,1,17.367-1.945ZM23.4,0l-.24-.838h-.094a1.885,1.885,0,0,1-.814.706,2.781,2.781,0,0,1-1.2.249A2.287,2.287,0,0,1,19.313-.5a2.487,2.487,0,0,1-.586-1.778V-6.551h1.787v3.826a1.838,1.838,0,0,0,.252,1.063.917.917,0,0,0,.8.354,1.207,1.207,0,0,0,1.084-.5,3.107,3.107,0,0,0,.334-1.661V-6.551h1.787V0Zm6.9-6.674a2.882,2.882,0,0,1,.6.053l-.135,1.676A2.047,2.047,0,0,0,30.246-5a1.9,1.9,0,0,0-1.333.439,1.589,1.589,0,0,0-.478,1.23V0H26.648V-6.551H28l.264,1.1h.088a2.463,2.463,0,0,1,.823-.888A2.03,2.03,0,0,1,30.3-6.674ZM36.258,0l-.346-.891h-.047a2.639,2.639,0,0,1-.929.788,3,3,0,0,1-1.245.22,2.013,2.013,0,0,1-1.485-.539,2.07,2.07,0,0,1-.542-1.535A1.729,1.729,0,0,1,32.394-3.5a4.227,4.227,0,0,1,2.2-.548l1.137-.035v-.287a.891.891,0,0,0-1.02-1,4.646,4.646,0,0,0-1.846.475l-.592-1.207a5.326,5.326,0,0,1,2.508-.592,3.124,3.124,0,0,1,2.021.574,2.122,2.122,0,0,1,.7,1.746V0ZM35.73-3.035l-.691.023a2.214,2.214,0,0,0-1.16.281.883.883,0,0,0-.381.785q0,.756.867.756a1.373,1.373,0,0,0,.993-.357A1.255,1.255,0,0,0,35.73-2.5ZM45.393,0H43.605V-3.826a1.838,1.838,0,0,0-.252-1.063.917.917,0,0,0-.8-.354,1.207,1.207,0,0,0-1.084.5,3.107,3.107,0,0,0-.334,1.661V0H39.346V-6.551h1.365l.24.838h.1a1.889,1.889,0,0,1,.823-.718,2.8,2.8,0,0,1,1.192-.243,2.291,2.291,0,0,1,1.734.618,2.481,2.481,0,0,1,.592,1.784Zm4.5.117q-3.059,0-3.059-3.357a3.581,3.581,0,0,1,.832-2.552,3.121,3.121,0,0,1,2.385-.882,4.546,4.546,0,0,1,2.039.445l-.527,1.383q-.422-.17-.785-.278a2.53,2.53,0,0,0-.727-.108q-1.395,0-1.395,1.98,0,1.922,1.395,1.922a3.18,3.18,0,0,0,.955-.138,3.448,3.448,0,0,0,.879-.431V-.369a2.88,2.88,0,0,1-.876.381A4.926,4.926,0,0,1,49.893.117ZM56.115-5.4a1.134,1.134,0,0,0-.891.36,1.668,1.668,0,0,0-.369,1.022h2.508a1.49,1.49,0,0,0-.346-1.022A1.17,1.17,0,0,0,56.115-5.4Zm.252,5.52a3.381,3.381,0,0,1-2.473-.873A3.306,3.306,0,0,1,53-3.229a3.636,3.636,0,0,1,.823-2.546,2.931,2.931,0,0,1,2.276-.9,2.885,2.885,0,0,1,2.162.791A2.993,2.993,0,0,1,59.039-3.7v.867H54.814a1.72,1.72,0,0,0,.451,1.189,1.587,1.587,0,0,0,1.184.428,4.913,4.913,0,0,0,1.119-.123,5.6,5.6,0,0,0,1.1-.393V-.346a4.2,4.2,0,0,1-1,.349A6.317,6.317,0,0,1,56.367.117Z" transform="translate(8996 477.566)"/>
    <path id="Path_103690" data-name="Path 103690" d="M6.012,0H1.078V-8.566H6.012v1.488H2.895V-5.2h2.9v1.488h-2.9V-1.5H6.012Zm.709-6.551H8.678L9.914-2.865a5.114,5.114,0,0,1,.217,1.137h.035a5.023,5.023,0,0,1,.252-1.137l1.213-3.686h1.916L10.775.838A3.2,3.2,0,0,1,9.688,2.373a2.743,2.743,0,0,1-1.649.51,4.148,4.148,0,0,1-.908-.1V1.365a3.055,3.055,0,0,0,.7.076,1.27,1.27,0,0,0,.829-.29A1.88,1.88,0,0,0,9.217.275l.105-.322ZM17.2-5.4a1.134,1.134,0,0,0-.891.36,1.668,1.668,0,0,0-.369,1.022h2.508A1.49,1.49,0,0,0,18.1-5.042,1.17,1.17,0,0,0,17.2-5.4Zm.252,5.52a3.381,3.381,0,0,1-2.473-.873,3.306,3.306,0,0,1-.891-2.473,3.636,3.636,0,0,1,.823-2.546,2.931,2.931,0,0,1,2.276-.9,2.885,2.885,0,0,1,2.162.791A2.993,2.993,0,0,1,20.121-3.7v.867H15.9a1.72,1.72,0,0,0,.451,1.189,1.587,1.587,0,0,0,1.184.428,4.913,4.913,0,0,0,1.119-.123,5.6,5.6,0,0,0,1.1-.393V-.346a4.2,4.2,0,0,1-1,.349A6.317,6.317,0,0,1,17.449.117ZM28.471-7.178a1.851,1.851,0,0,0-1.588.771A3.585,3.585,0,0,0,26.32-4.26q0,2.865,2.15,2.865a6.8,6.8,0,0,0,2.186-.451V-.322A6.069,6.069,0,0,1,28.3.117a3.592,3.592,0,0,1-2.859-1.134,4.8,4.8,0,0,1-.99-3.255,5.315,5.315,0,0,1,.486-2.341,3.515,3.515,0,0,1,1.4-1.541,4.134,4.134,0,0,1,2.136-.536,5.764,5.764,0,0,1,2.508.6l-.586,1.477a9.7,9.7,0,0,0-.967-.4A2.884,2.884,0,0,0,28.471-7.178ZM38.385,0H36.6V-3.826q0-1.418-1.055-1.418a1.2,1.2,0,0,0-1.084.51,3.113,3.113,0,0,0-.334,1.652V0H32.338V-9.117h1.787V-7.26q0,.217-.041,1.02l-.041.527h.094a2.07,2.07,0,0,1,1.9-.961,2.321,2.321,0,0,1,1.752.621,2.467,2.467,0,0,1,.6,1.781Zm4.553-5.4a1.134,1.134,0,0,0-.891.36,1.668,1.668,0,0,0-.369,1.022h2.508a1.49,1.49,0,0,0-.346-1.022A1.17,1.17,0,0,0,42.938-5.4Zm.252,5.52a3.381,3.381,0,0,1-2.473-.873,3.306,3.306,0,0,1-.891-2.473,3.636,3.636,0,0,1,.823-2.546,2.931,2.931,0,0,1,2.276-.9,2.885,2.885,0,0,1,2.162.791A2.993,2.993,0,0,1,45.861-3.7v.867H41.637a1.72,1.72,0,0,0,.451,1.189,1.587,1.587,0,0,0,1.184.428,4.913,4.913,0,0,0,1.119-.123,5.6,5.6,0,0,0,1.1-.393V-.346a4.2,4.2,0,0,1-1,.349A6.317,6.317,0,0,1,43.189.117Zm6.785,0q-3.059,0-3.059-3.357a3.581,3.581,0,0,1,.832-2.552,3.121,3.121,0,0,1,2.385-.882,4.546,4.546,0,0,1,2.039.445l-.527,1.383q-.422-.17-.785-.278a2.53,2.53,0,0,0-.727-.108q-1.395,0-1.395,1.98,0,1.922,1.395,1.922a3.18,3.18,0,0,0,.955-.138,3.448,3.448,0,0,0,.879-.431V-.369a2.88,2.88,0,0,1-.876.381A4.926,4.926,0,0,1,49.975.117ZM55.2-3.562l.779-1,1.834-1.992H59.83l-2.6,2.842L59.988,0H57.926L56.039-2.654l-.768.615V0H53.484V-9.117h1.787v4.066l-.094,1.488ZM65.566,0l-.24-.838h-.094a1.885,1.885,0,0,1-.814.706,2.781,2.781,0,0,1-1.2.249A2.287,2.287,0,0,1,61.477-.5a2.487,2.487,0,0,1-.586-1.778V-6.551h1.787v3.826a1.838,1.838,0,0,0,.252,1.063.917.917,0,0,0,.8.354,1.207,1.207,0,0,0,1.084-.5,3.107,3.107,0,0,0,.334-1.661V-6.551h1.787V0ZM72.41.117A2.173,2.173,0,0,1,70.6-.721h-.094Q70.6.1,70.6.229V2.883H68.813V-6.551h1.453l.252.85H70.6a2.067,2.067,0,0,1,1.857-.973,2.126,2.126,0,0,1,1.816.9,4.146,4.146,0,0,1,.656,2.49,4.917,4.917,0,0,1-.308,1.822,2.556,2.556,0,0,1-.876,1.178A2.245,2.245,0,0,1,72.41.117Zm-.527-5.361a1.128,1.128,0,0,0-.967.407A2.338,2.338,0,0,0,70.6-3.492V-3.3a2.76,2.76,0,0,0,.313,1.512,1.119,1.119,0,0,0,.993.457q1.2,0,1.2-1.98a2.828,2.828,0,0,0-.3-1.45A1.01,1.01,0,0,0,71.883-5.244Z" transform="translate(9029 402.117)"/>
    <path id="Path_103691" data-name="Path 103691" d="M8.1,0H6.287V-3.7H2.895V0H1.078V-8.566H2.895v3.357H6.287V-8.566H8.1Zm4.734-5.4a1.134,1.134,0,0,0-.891.36,1.668,1.668,0,0,0-.369,1.022H14.08a1.49,1.49,0,0,0-.346-1.022A1.17,1.17,0,0,0,12.832-5.4Zm.252,5.52a3.381,3.381,0,0,1-2.473-.873,3.306,3.306,0,0,1-.891-2.473,3.636,3.636,0,0,1,.823-2.546,2.931,2.931,0,0,1,2.276-.9,2.885,2.885,0,0,1,2.162.791A2.993,2.993,0,0,1,15.756-3.7v.867H11.531a1.72,1.72,0,0,0,.451,1.189,1.587,1.587,0,0,0,1.184.428,4.913,4.913,0,0,0,1.119-.123,5.6,5.6,0,0,0,1.1-.393V-.346a4.2,4.2,0,0,1-1,.349A6.317,6.317,0,0,1,13.084.117ZM21.369,0l-.346-.891h-.047a2.639,2.639,0,0,1-.929.788A3,3,0,0,1,18.8.117a2.013,2.013,0,0,1-1.485-.539,2.07,2.07,0,0,1-.542-1.535A1.729,1.729,0,0,1,17.5-3.5a4.227,4.227,0,0,1,2.2-.548l1.137-.035v-.287a.891.891,0,0,0-1.02-1,4.646,4.646,0,0,0-1.846.475l-.592-1.207a5.326,5.326,0,0,1,2.508-.592,3.124,3.124,0,0,1,2.021.574,2.122,2.122,0,0,1,.7,1.746V0Zm-.527-3.035-.691.023a2.214,2.214,0,0,0-1.16.281.883.883,0,0,0-.381.785q0,.756.867.756a1.373,1.373,0,0,0,.993-.357,1.255,1.255,0,0,0,.372-.949ZM26.244,0H24.457V-9.117h1.787Zm4.635-1.307A3.874,3.874,0,0,0,32-1.512v1.33a4.011,4.011,0,0,1-1.641.3A2.008,2.008,0,0,1,28.8-.425a2.359,2.359,0,0,1-.489-1.626V-5.209h-.855v-.756l.984-.6.516-1.383H30.1v1.395h1.834v1.342H30.1v3.158a.7.7,0,0,0,.214.563A.844.844,0,0,0,30.879-1.307ZM39.375,0H37.588V-3.826q0-1.418-1.055-1.418a1.2,1.2,0,0,0-1.084.51,3.113,3.113,0,0,0-.334,1.652V0H33.328V-9.117h1.787V-7.26q0,.217-.041,1.02l-.041.527h.094a2.07,2.07,0,0,1,1.9-.961,2.321,2.321,0,0,1,1.752.621,2.467,2.467,0,0,1,.6,1.781Zm8.736-7.178a1.851,1.851,0,0,0-1.588.771,3.585,3.585,0,0,0-.562,2.147q0,2.865,2.15,2.865A6.8,6.8,0,0,0,50.3-1.846V-.322a6.069,6.069,0,0,1-2.355.439,3.592,3.592,0,0,1-2.859-1.134,4.8,4.8,0,0,1-.99-3.255,5.315,5.315,0,0,1,.486-2.341,3.515,3.515,0,0,1,1.4-1.541,4.134,4.134,0,0,1,2.136-.536,5.764,5.764,0,0,1,2.508.6l-.586,1.477a9.7,9.7,0,0,0-.967-.4A2.884,2.884,0,0,0,48.111-7.178ZM58.025,0H56.238V-3.826q0-1.418-1.055-1.418a1.2,1.2,0,0,0-1.084.51,3.113,3.113,0,0,0-.334,1.652V0H51.979V-9.117h1.787V-7.26q0,.217-.041,1.02l-.041.527h.094a2.07,2.07,0,0,1,1.9-.961,2.321,2.321,0,0,1,1.752.621,2.467,2.467,0,0,1,.6,1.781Zm4.553-5.4a1.134,1.134,0,0,0-.891.36,1.668,1.668,0,0,0-.369,1.022h2.508a1.49,1.49,0,0,0-.346-1.022A1.17,1.17,0,0,0,62.578-5.4ZM62.83.117a3.381,3.381,0,0,1-2.473-.873,3.306,3.306,0,0,1-.891-2.473,3.636,3.636,0,0,1,.823-2.546,2.931,2.931,0,0,1,2.276-.9,2.885,2.885,0,0,1,2.162.791A2.993,2.993,0,0,1,65.5-3.7v.867H61.277a1.72,1.72,0,0,0,.451,1.189,1.587,1.587,0,0,0,1.184.428,4.913,4.913,0,0,0,1.119-.123,5.6,5.6,0,0,0,1.1-.393V-.346a4.2,4.2,0,0,1-1,.349A6.317,6.317,0,0,1,62.83.117Zm6.785,0q-3.059,0-3.059-3.357a3.581,3.581,0,0,1,.832-2.552,3.121,3.121,0,0,1,2.385-.882,4.546,4.546,0,0,1,2.039.445l-.527,1.383q-.422-.17-.785-.278a2.53,2.53,0,0,0-.727-.108q-1.395,0-1.395,1.98,0,1.922,1.395,1.922a3.18,3.18,0,0,0,.955-.138,3.448,3.448,0,0,0,.879-.431V-.369a2.88,2.88,0,0,1-.876.381A4.926,4.926,0,0,1,69.615.117Zm5.227-3.68.779-1,1.834-1.992h2.016l-2.6,2.842L79.629,0H77.566L75.68-2.654l-.768.615V0H73.125V-9.117h1.787v4.066l-.094,1.488ZM85.207,0l-.24-.838h-.094a1.885,1.885,0,0,1-.814.706,2.781,2.781,0,0,1-1.2.249A2.287,2.287,0,0,1,81.117-.5a2.487,2.487,0,0,1-.586-1.778V-6.551h1.787v3.826a1.838,1.838,0,0,0,.252,1.063.917.917,0,0,0,.8.354,1.207,1.207,0,0,0,1.084-.5,3.107,3.107,0,0,0,.334-1.661V-6.551h1.787V0Zm6.844.117A2.173,2.173,0,0,1,90.24-.721h-.094q.094.82.094.949V2.883H88.453V-6.551h1.453l.252.85h.082A2.067,2.067,0,0,1,92.1-6.674a2.126,2.126,0,0,1,1.816.9,4.146,4.146,0,0,1,.656,2.49,4.917,4.917,0,0,1-.308,1.822,2.556,2.556,0,0,1-.876,1.178A2.245,2.245,0,0,1,92.051.117Zm-.527-5.361a1.128,1.128,0,0,0-.967.407,2.338,2.338,0,0,0-.316,1.345V-3.3a2.76,2.76,0,0,0,.313,1.512,1.119,1.119,0,0,0,.993.457q1.2,0,1.2-1.98a2.828,2.828,0,0,0-.3-1.45A1.01,1.01,0,0,0,91.523-5.244Z" transform="translate(9007 331.118)"/>
    <g id="Group_30585" data-name="Group 30585" transform="translate(7713.974 -1009.572)">
      <path id="Path_131279" data-name="Path 131279" d="M1349.026,1417.265c0,8.931-9.02,11.332-20.146,5.362s-47.093-26.2-39.419-30.772c9.734-5.794,28.292-7.539,39.419-1.569S1349.026,1408.334,1349.026,1417.265Z" transform="translate(-60.714)" fill="#fbb040"/>
      <path id="Path_131280" data-name="Path 131280" d="M1285.776,1472.656c-.232-.386-13.438,10.894-30.014,2.6s-30.014-32.625-30.014-32.625a28.031,28.031,0,0,1,30.014-2.6C1272.338,1448.321,1286.1,1473.2,1285.776,1472.656Z" transform="translate(0 -48.718)" fill="#895415"/>
      <path id="Path_131281" data-name="Path 131281" d="M1316.972,1497.718a.749.749,0,0,0-.189.113,30.741,30.741,0,0,1-16.213,5.056q-1.132,0-2.264-.113a27.47,27.47,0,0,1-9.873-2.843,46.456,46.456,0,0,1-10.414-7.459c-9.873-9.106-17.307-21.47-18.929-24.262a27.418,27.418,0,0,1,15.986-5.169,1.233,1.233,0,0,1,.214.012,28.207,28.207,0,0,1,12.427,3.082c9.018,4.516,17.294,14.188,22.816,21.785C1313.79,1492.435,1316.092,1496.208,1316.972,1497.718Z" transform="translate(-32.313 -74.107)" fill="#c18e52"/>
      <path id="Path_131282" data-name="Path 131282" d="M1667.177,1487.985c-1.057,7.447-5.434,13.963-12.226,14.658l-.39.037a16.6,16.6,0,0,1-4.075-.261,19.723,19.723,0,0,1-5.76-1.874,32.152,32.152,0,0,1-10.062-8.068c-4.566-5.4-7.559-12.089-7.559-18.01,0-5.312,1.258-9.582,4.83-11.022a28.508,28.508,0,0,1,12.427,3.041C1653.38,1470.943,1661.656,1480.488,1667.177,1487.985Z" transform="translate(-388.958 -74.499)" fill="url(#radial-gradient)"/>
      <ellipse id="Ellipse_959" data-name="Ellipse 959" cx="8.444" cy="13.854" rx="8.444" ry="13.854" transform="matrix(0.788, -0.615, 0.615, 0.788, 1240.583, 1403.205)" fill="url(#radial-gradient-2)"/>
      <ellipse id="Ellipse_960" data-name="Ellipse 960" cx="3.86" cy="6.333" rx="3.86" ry="6.333" transform="translate(1248.824 1406.312) rotate(-37.98)" fill="#231f20"/>
      <ellipse id="Ellipse_961" data-name="Ellipse 961" cx="1.469" cy="2.438" rx="1.469" ry="2.438" transform="matrix(0.765, -0.645, 0.645, 0.765, 1256.517, 1406.259)" fill="#fff"/>
      <g id="Group_30621" data-name="Group 30621" transform="translate(1246.261 1398.321)" opacity="0.39">
        <g id="Group_30587" data-name="Group 30587" transform="translate(9.271 1.076)">
          <g id="Group_30585-2" data-name="Group 30585">
            <path id="Path_131283" data-name="Path 131283" d="M2190.033,1805.047a.436.436,0,0,1-.232-.348v-2.859c0-.129.1-.18.232-.116a.436.436,0,0,1,.232.348v2.859C2190.265,1805.06,2190.16,1805.111,2190.033,1805.047Z" transform="translate(-2189.801 -1801.697)" fill="#fff"/>
          </g>
          <g id="Group_30586" data-name="Group 30586" transform="translate(0 15.684)">
            <path id="Path_131284" data-name="Path 131284" d="M2190.033,2312.7a.437.437,0,0,1-.232-.348v-2.857c0-.129.1-.18.232-.116a.436.436,0,0,1,.232.348v2.857C2190.265,2312.708,2190.16,2312.76,2190.033,2312.7Z" transform="translate(-2189.801 -2309.348)" fill="#fff"/>
          </g>
        </g>
        <g id="Group_30590" data-name="Group 30590" transform="translate(6.872 0.193)">
          <g id="Group_30588" data-name="Group 30588">
            <path id="Path_131285" data-name="Path 131285" d="M2113.119,1776.735a.455.455,0,0,1-.223-.284l-.74-3.131c-.034-.14.04-.23.164-.2a.443.443,0,0,1,.283.307l.74,3.131c.033.14-.04.23-.164.2A.271.271,0,0,1,2113.119,1776.735Z" transform="translate(-2112.148 -1773.113)" fill="#fff"/>
          </g>
          <g id="Group_30589" data-name="Group 30589" transform="translate(4.059 17.178)">
            <path id="Path_131286" data-name="Path 131286" d="M2244.486,2332.735a.457.457,0,0,1-.224-.284l-.74-3.131c-.033-.14.04-.23.164-.2a.433.433,0,0,1,.283.307l.74,3.131c.033.14-.04.23-.164.2A.267.267,0,0,1,2244.486,2332.735Z" transform="translate(-2243.515 -2329.113)" fill="#fff"/>
          </g>
        </g>
        <g id="Group_30593" data-name="Group 30593" transform="translate(4.636)">
          <g id="Group_30591" data-name="Group 30591">
            <path id="Path_131287" data-name="Path 131287" d="M2041.433,1770.545a.461.461,0,0,1-.2-.216l-1.43-3.19c-.063-.142-.025-.265.085-.274a.386.386,0,0,1,.317.244l1.43,3.19c.063.142.025.264-.085.274A.236.236,0,0,1,2041.433,1770.545Z" transform="translate(-2039.772 -1766.864)" fill="#fff"/>
          </g>
          <g id="Group_30592" data-name="Group 30592" transform="translate(7.841 17.504)">
            <path id="Path_131288" data-name="Path 131288" d="M2295.229,2337.084a.463.463,0,0,1-.2-.216l-1.43-3.19c-.063-.142-.025-.264.085-.274a.39.39,0,0,1,.317.244l1.429,3.19c.063.142.025.264-.085.274A.235.235,0,0,1,2295.229,2337.084Z" transform="translate(-2293.568 -2333.403)" fill="#fff"/>
          </g>
        </g>
        <g id="Group_30596" data-name="Group 30596" transform="translate(2.715 0.514)">
          <g id="Group_30594" data-name="Group 30594">
            <path id="Path_131289" data-name="Path 131289" d="M1979.869,1787.03a.441.441,0,0,1-.164-.149l-2.022-3.032c-.091-.136-.091-.282,0-.328s.236.026.328.162l2.022,3.032c.091.136.091.283,0,.328A.184.184,0,0,1,1979.869,1787.03Z" transform="translate(-1977.615 -1783.508)" fill="#fff"/>
          </g>
          <g id="Group_30595" data-name="Group 30595" transform="translate(11.09 16.634)">
            <path id="Path_131290" data-name="Path 131290" d="M2338.805,2325.416a.446.446,0,0,1-.164-.151l-2.022-3.034c-.09-.136-.09-.282,0-.328s.238.03.328.166l2.022,3.034c.09.136.09.282,0,.328A.186.186,0,0,1,2338.805,2325.416Z" transform="translate(-2336.552 -2321.89)" fill="#fff"/>
          </g>
        </g>
        <g id="Group_30599" data-name="Group 30599" transform="translate(1.242 1.697)">
          <g id="Group_30597" data-name="Group 30597">
            <path id="Path_131291" data-name="Path 131291" d="M1932.644,1824.934a.434.434,0,0,1-.116-.089l-2.475-2.668c-.111-.121-.148-.281-.085-.359s.207-.043.317.073l2.475,2.668c.111.121.149.281.085.36A.159.159,0,0,1,1932.644,1824.934Z" transform="translate(-1929.936 -1821.775)" fill="#fff"/>
          </g>
          <g id="Group_30598" data-name="Group 30598" transform="translate(13.582 14.635)">
            <path id="Path_131292" data-name="Path 131292" d="M2372.258,2298.626a.429.429,0,0,1-.116-.089l-2.475-2.667c-.11-.119-.148-.281-.085-.36s.208-.041.317.073l2.475,2.667c.11.119.148.281.085.36A.159.159,0,0,1,2372.258,2298.626Z" transform="translate(-2369.551 -2295.47)" fill="#fff"/>
          </g>
        </g>
        <g id="Group_30602" data-name="Group 30602" transform="translate(0.316 3.469)">
          <g id="Group_30600" data-name="Group 30600">
            <path id="Path_131293" data-name="Path 131293" d="M1902.956,1881.755a.358.358,0,0,1-.06-.037l-2.761-2.122a.387.387,0,0,1-.164-.366c.033-.107.16-.119.283-.023l2.761,2.122a.387.387,0,0,1,.164.366C1903.152,1881.784,1903.058,1881.806,1902.956,1881.755Z" transform="translate(-1899.963 -1879.141)" fill="#fff"/>
          </g>
          <g id="Group_30601" data-name="Group 30601" transform="translate(15.148 11.637)">
            <path id="Path_131294" data-name="Path 131294" d="M2393.259,2258.388a.391.391,0,0,1-.06-.037l-2.761-2.12a.387.387,0,0,1-.164-.366c.033-.107.162-.116.283-.023l2.761,2.12a.387.387,0,0,1,.164.366C2393.456,2258.417,2393.361,2258.439,2393.259,2258.388Z" transform="translate(-2390.266 -2255.777)" fill="#fff"/>
          </g>
        </g>
        <g id="Group_30605" data-name="Group 30605" transform="translate(0 5.711)">
          <g id="Group_30603" data-name="Group 30603">
            <path id="Path_131295" data-name="Path 131295" d="M1892.825,1953.618l-2.858-1.429a.436.436,0,0,1-.232-.348c0-.129.1-.18.232-.116l2.858,1.429a.436.436,0,0,1,.232.348C1893.057,1953.631,1892.953,1953.682,1892.825,1953.618Z" transform="translate(-1889.735 -1951.698)" fill="#fff"/>
          </g>
          <g id="Group_30604" data-name="Group 30604" transform="translate(15.683 7.843)">
            <path id="Path_131296" data-name="Path 131296" d="M2400.446,2207.483l-2.858-1.429a.436.436,0,0,1-.232-.348c0-.129.1-.18.232-.116l2.858,1.429a.435.435,0,0,1,.232.348C2400.678,2207.5,2400.574,2207.547,2400.446,2207.483Z" transform="translate(-2397.356 -2205.563)" fill="#fff"/>
          </g>
        </g>
        <g id="Group_30608" data-name="Group 30608" transform="translate(0.316 8.268)">
          <g id="Group_30606" data-name="Group 30606">
            <path id="Path_131297" data-name="Path 131297" d="M1900.194,2034.952a.455.455,0,0,1-.224-.284c-.033-.14.04-.23.164-.2l2.761.642a.436.436,0,0,1,.283.307c.034.14-.04.23-.164.2l-2.761-.642A.267.267,0,0,1,1900.194,2034.952Z" transform="translate(-1899.963 -2034.461)" fill="#fff"/>
          </g>
          <g id="Group_30607" data-name="Group 30607" transform="translate(15.148 3.518)">
            <path id="Path_131298" data-name="Path 131298" d="M2390.5,2148.819a.456.456,0,0,1-.224-.284c-.033-.14.04-.23.164-.2l2.761.64a.43.43,0,0,1,.283.306c.034.14-.04.23-.164.2l-2.761-.64A.276.276,0,0,1,2390.5,2148.819Z" transform="translate(-2390.266 -2148.328)" fill="#fff"/>
          </g>
        </g>
        <g id="Group_30611" data-name="Group 30611" transform="translate(1.242 9.727)">
          <g id="Group_30609" data-name="Group 30609" transform="translate(0 1.05)">
            <path id="Path_131299" data-name="Path 131299" d="M1930.175,2116.346a.46.46,0,0,1-.2-.216c-.063-.142-.025-.266.085-.274l2.475-.191a.389.389,0,0,1,.317.244c.063.142.025.266-.085.274l-2.475.191A.235.235,0,0,1,1930.175,2116.346Z" transform="translate(-1929.943 -2115.665)" fill="#fff"/>
          </g>
          <g id="Group_30610" data-name="Group 30610" transform="translate(13.582)">
            <path id="Path_131300" data-name="Path 131300" d="M2369.777,2082.37a.46.46,0,0,1-.2-.217c-.063-.142-.026-.265.085-.274l2.475-.193a.387.387,0,0,1,.317.244c.063.142.026.265-.085.274l-2.475.192A.232.232,0,0,1,2369.777,2082.37Z" transform="translate(-2369.545 -2081.687)" fill="#fff"/>
          </g>
        </g>
        <g id="Group_30614" data-name="Group 30614" transform="translate(2.715 7.07)">
          <g id="Group_30612" data-name="Group 30612" transform="translate(0 5.544)">
            <path id="Path_131301" data-name="Path 131301" d="M1977.847,2176.642a.441.441,0,0,1-.164-.149c-.091-.136-.091-.282,0-.328l2.022-1.012c.09-.046.236.026.328.162s.091.282,0,.328l-2.022,1.012A.185.185,0,0,1,1977.847,2176.642Z" transform="translate(-1977.615 -2175.14)" fill="#fff"/>
          </g>
          <g id="Group_30613" data-name="Group 30613" transform="translate(11.09)">
            <path id="Path_131302" data-name="Path 131302" d="M2336.783,1997.208a.443.443,0,0,1-.164-.151c-.09-.136-.09-.282,0-.328l2.022-1.01c.091-.045.238.03.328.166s.09.282,0,.328l-2.022,1.01A.186.186,0,0,1,2336.783,1997.208Z" transform="translate(-2336.552 -1995.707)" fill="#fff"/>
          </g>
        </g>
        <g id="Group_30617" data-name="Group 30617" transform="translate(4.636 4.637)">
          <g id="Group_30615" data-name="Group 30615" transform="translate(0 9.661)">
            <path id="Path_131303" data-name="Path 131303" d="M2040,2231.889a.433.433,0,0,1-.116-.089c-.11-.12-.148-.281-.085-.359l1.43-1.76c.064-.08.208-.041.317.073s.148.281.085.36l-1.43,1.76A.159.159,0,0,1,2040,2231.889Z" transform="translate(-2039.772 -2229.639)" fill="#fff"/>
          </g>
          <g id="Group_30616" data-name="Group 30616" transform="translate(7.841)">
            <path id="Path_131304" data-name="Path 131304" d="M2293.8,1919.192a.434.434,0,0,1-.116-.089c-.11-.12-.148-.281-.085-.359l1.43-1.76c.064-.08.208-.043.317.073s.148.281.085.359l-1.429,1.76A.159.159,0,0,1,2293.8,1919.192Z" transform="translate(-2293.568 -1916.941)" fill="#fff"/>
          </g>
        </g>
        <g id="Group_30620" data-name="Group 30620" transform="translate(6.872 2.595)">
          <g id="Group_30618" data-name="Group 30618" transform="translate(0 13.118)">
            <path id="Path_131305" data-name="Path 131305" d="M2112.38,2278.316a.324.324,0,0,1-.06-.037.387.387,0,0,1-.164-.366l.74-2.391c.033-.106.165-.115.283-.023a.388.388,0,0,1,.164.366l-.74,2.392C2112.576,2278.346,2112.482,2278.368,2112.38,2278.316Z" transform="translate(-2112.148 -2275.435)" fill="#fff"/>
          </g>
          <g id="Group_30619" data-name="Group 30619" transform="translate(4.059)">
            <path id="Path_131306" data-name="Path 131306" d="M2243.746,1853.729a.372.372,0,0,1-.06-.037.388.388,0,0,1-.164-.366l.74-2.391c.033-.107.161-.113.284-.023a.387.387,0,0,1,.164.366l-.74,2.391C2243.943,1853.758,2243.849,1853.78,2243.746,1853.729Z" transform="translate(-2243.515 -1850.848)" fill="#fff"/>
          </g>
        </g>
      </g>
    </g>
  </g>
</svg>
