<svg xmlns="http://www.w3.org/2000/svg" xmlns:xlink="http://www.w3.org/1999/xlink" width="1043.414" height="989.682" viewBox="0 0 1043.414 989.682">
  <defs>
    <linearGradient id="linear-gradient" y1="0.5" x2="1" y2="0.5" gradientUnits="objectBoundingBox">
      <stop offset="0" stop-color="#fff"/>
      <stop offset="0.184" stop-color="#e6f0f3"/>
      <stop offset="0.575" stop-color="#a8c9d4"/>
      <stop offset="1" stop-color="#5e9cb0"/>
    </linearGradient>
  </defs>
  <g id="img_reward_channel_partner" transform="translate(-5153.125 -2028.336)">
    <ellipse id="Ellipse_949" data-name="Ellipse 949" cx="521.707" cy="301.216" rx="521.707" ry="301.216" transform="translate(5153.125 2415.587)" fill="#fff6f1"/>
    <g id="Group_28591" data-name="Group 28591" transform="translate(4800 1582)">
      <g id="Group_28587" data-name="Group 28587">
        <path id="Path_127799" data-name="Path 127799" d="M1273.661,1091.649v.293h-.008c-.847,56.092-33.451,112.041-97.849,158.257a393.443,393.443,0,0,1-33.934,21.722,499.088,499.088,0,0,1-78.4,35.9c-146.1,52.773-333.674,52.773-479.767-.016a498.587,498.587,0,0,1-78.368-35.882C418.66,1222.3,374.756,1157.473,373.56,1092.433h-.031l-.024-42.1v-4.7l132.194-.182,34.742-.048,127.942-.174,24.874-.032h.008l127.182-.174,134.19-.182,23.995-.032,128.489-.174,37.671-.056,128.853-.174h.016v5.948C1273.669,1062.823,1273.677,1090.643,1273.661,1091.649Z" fill="#ffdfce"/>
        <path id="Path_127800" data-name="Path 127800" d="M1273.661,1045.377v-.071c0-.3-.008-.6-.016-.9q-.083-3.5-.332-7.008c-4.4-62.419-48.22-124.093-131.459-171.751-82.272-47.1-188.468-72.152-296.193-75.161l9.7,5.6c-62.149-5.631-127.95,5.377-175.837,33.031a168.289,168.289,0,0,0-22.783,15.64c-22.823,18.737-35.05,40.467-36.69,62.411a66.905,66.905,0,0,0-.039,9.757l-.04,12.353L928.813,797.28l-221.824,1.645c-73.878,11.3-143.709,33.538-201.67,66.719-86.9,49.748-130.832,114.78-131.814,179.987v4.7c1.085,65.119,45.028,130.056,131.814,179.741,175.624,100.55,460.278,100.637,636.084.254.15-.08.3-.167.451-.254,86.778-49.685,130.722-114.614,131.807-179.725v-.4C1273.693,1048.418,1273.693,1046.9,1273.661,1045.377Z" fill="#fff5ef"/>
        <path id="Path_127801" data-name="Path 127801" d="M1146.112,1023.664c.012-.96-32.447-78.793-32.447-78.793l-587.4,21.372-23.722,64.945s8.711,73.252,86.315,119.456c128.6,76.564,340.892,76.62,469.456,0C1155.516,1092.715,1146.112,1023.664,1146.112,1023.664Z" fill="#ffdfce"/>
        <path id="Path_127802" data-name="Path 127802" d="M1107.121,1044.633c-14.334,24.161-38.2,46.85-71.613,66.125a334.632,334.632,0,0,1-56.7,25.69c-115.311,40.348-267.6,31.787-367.211-25.69-33.055-19.069-56.773-41.488-71.154-65.357-15.371-25.492-20.091-52.647-14.167-79.16,5.258-23.52,18.887-46.541,40.9-67.447l52.8,30.48.04-12.353a66.905,66.905,0,0,1,.039-9.757c1.64-21.944,13.867-43.674,36.69-62.411C728.8,816.846,817.192,808.927,898.522,821c32.255,4.783,63.4,12.718,91.973,23.8a323.978,323.978,0,0,1,45.013,21.381c39.136,22.578,65.19,49.852,78.146,78.677h.008a.389.389,0,0,1,.024.056.79.79,0,0,1,.071.166,2.2,2.2,0,0,1,.111.246q1.212,2.7,2.241,5.408C1128.1,981.787,1125.1,1014.358,1107.121,1044.633Z" fill="#fff5ef"/>
        <path id="Path_127803" data-name="Path 127803" d="M1027.3,948.011v7.777h-.008c-.444,29.76-20.313,59.441-59.648,82.153q-6.308,3.636-13.011,6.9c-26.854,13.051-58.174,21.469-90.785,25.238-58.879,6.827-121.955-1.473-170.587-24.882q-7.08-3.42-13.74-7.254c-36.23-20.922-55.949-47.752-59.18-75.121a67.9,67.9,0,0,1-.467-6.81h-.008l.1-26.736.04-12.353.039-9.757,407.252,5.124v1.41C1027.3,918.916,1027.311,937.4,1027.3,948.011Z" fill="#ffdfce"/>
        <path id="Path_127804" data-name="Path 127804" d="M1027.3,913.7a68.154,68.154,0,0,1-1.07,10.722,76.767,76.767,0,0,1-8.7,23.948c-9.582,17.224-26.212,33.419-49.891,47.1-47.9,27.646-113.7,38.653-175.845,33.023-33.823-3.073-66.56-11.071-94.745-23.995-6.066-2.78-11.926-5.789-17.533-9.028C662.277,985.5,648.767,974.2,639,962.139a86.111,86.111,0,0,1-16.67-31.5,70.22,70.22,0,0,1-2.32-13.716,65.5,65.5,0,0,1,.008-9.25c.008-.166.015-.34.031-.507,1.64-21.944,13.867-43.674,36.69-62.411a168.289,168.289,0,0,1,22.783-15.64c47.887-27.654,113.688-38.662,175.837-33.031a309.9,309.9,0,0,1,72.2,15.015,227.977,227.977,0,0,1,40.086,18.016,168.035,168.035,0,0,1,22.847,15.7c18.175,14.943,29.626,31.787,34.338,49.122A69.073,69.073,0,0,1,1027.3,913.7Z" fill="#fff5ef"/>
      </g>
      <g id="Group_28590" data-name="Group 28590">
        <path id="Path_127805" data-name="Path 127805" d="M1333.513,1278.485s-43.18,52.08-133.557,91.923c-88.291,38.924-170.715,52.179-170.715,52.179l-332.183-418.1-77.037-96.82c.008-.166.015-.34.031-.507,1.64-21.944,13.867-43.674,36.69-62.411a168.289,168.289,0,0,1,22.783-15.64c47.887-27.654,113.688-38.662,175.837-33.031a309.9,309.9,0,0,1,72.2,15.015l98.672,113.323Z" fill="#ffdfce"/>
        <g id="Group_28589" data-name="Group 28589">
          <path id="Path_127806" data-name="Path 127806" d="M1273.661,1044.4h-.016c.008.3.016.6.016.9Z" fill="#bfd7de"/>
          <path id="Path_127807" data-name="Path 127807" d="M1113.686,944.923a.734.734,0,0,1,.048.112l-.069-.164h0C1113.671,944.886,1113.678,944.9,1113.686,944.923Z" fill="#bfd7de"/>
          <g id="Group_28588" data-name="Group 28588">
            <path id="Path_127808" data-name="Path 127808" d="M821.916,1161.4l36.3,45.62c73.329-4.483,144.537-23.263,200.1-56.379,54.39-32.415,75.4-68.31,83.351-93.643l-25.946-29.8a123.013,123.013,0,0,1-8.6,17.433c-14.334,24.161-38.2,46.85-71.613,66.125a334.632,334.632,0,0,1-56.7,25.69C930.766,1153.257,876.309,1161.57,821.916,1161.4Z" fill="#ff975d"/>
            <path id="Path_127809" data-name="Path 127809" d="M967.648,995.463c-47.9,27.646-113.7,38.653-175.845,33.023-33.823-3.073-66.56-11.071-94.745-23.995l46.535,58.481c38.108,9.38,80.155,11.755,120.259,7.1,32.611-3.769,63.931-12.187,90.785-25.238q6.7-3.255,13.011-6.9c39.335-22.712,59.2-52.393,59.648-82.153h.008v-7.777c0-6.177,0-15.018,0-22.36l-1.072-1.231a76.767,76.767,0,0,1-8.7,23.948C1007.957,965.592,991.327,981.787,967.648,995.463Z" fill="#ff975d"/>
            <path id="Path_127810" data-name="Path 127810" d="M1063.47,1307.819a499.088,499.088,0,0,0,78.4-35.9A393.443,393.443,0,0,0,1175.8,1250.2c31.03-22.269,54.675-46.8,70.946-72.515l-16.618-19.086c-21.482,25.851-50.9,50.079-88.278,71.478-.15.087-.3.174-.451.254-60.333,34.449-133.485,57.063-210.65,67.848l29.52,37.1A643.362,643.362,0,0,0,1063.47,1307.819Z" fill="#ff975d"/>
          </g>
        </g>
      </g>
    </g>
    <g id="Group_28618" data-name="Group 28618" transform="translate(4800 1582)">
      <g id="Group_28597" data-name="Group 28597" style="mix-blend-mode: overlay;isolation: isolate">
        <g id="Group_28592" data-name="Group 28592">
          <path id="Path_127811" data-name="Path 127811" d="M799.556,528.542a8.984,8.984,0,0,1-8.213-12.6l24.892-56.527a8.979,8.979,0,0,1,16.436,7.237l-24.893,56.527A8.982,8.982,0,0,1,799.556,528.542Z" fill="#fff"/>
        </g>
        <g id="Group_28593" data-name="Group 28593">
          <path id="Path_127812" data-name="Path 127812" d="M821.428,546.67a8.979,8.979,0,0,1-6.079-15.59l53.406-49.1A8.979,8.979,0,0,1,880.909,495.2L827.5,544.3A8.948,8.948,0,0,1,821.428,546.67Z" fill="#fff"/>
        </g>
        <g id="Group_28594" data-name="Group 28594">
          <path id="Path_127813" data-name="Path 127813" d="M737.794,564.2a8.954,8.954,0,0,1-6.7-3l-41.052-45.941A8.979,8.979,0,0,1,703.435,503.3l41.051,45.941a8.979,8.979,0,0,1-6.692,14.962Z" fill="#fff"/>
        </g>
        <g id="Group_28595" data-name="Group 28595">
          <path id="Path_127814" data-name="Path 127814" d="M660.48,613.24a8.98,8.98,0,0,1-1.959-17.742l56.545-12.7A8.98,8.98,0,0,1,719,600.326l-56.545,12.7A9.048,9.048,0,0,1,660.48,613.24Z" fill="#fff"/>
        </g>
        <g id="Group_28596" data-name="Group 28596">
          <path id="Path_127815" data-name="Path 127815" d="M768.333,534.683a8.98,8.98,0,0,1-8.936-8.211l-6.047-70.388a8.979,8.979,0,1,1,17.893-1.537l6.047,70.388a8.98,8.98,0,0,1-8.178,9.715C768.851,534.672,768.59,534.683,768.333,534.683Z" fill="#fff"/>
        </g>
      </g>
      <path id="Path_127816" data-name="Path 127816" d="M896.642,847.7,705.359,958.139,533.385,863.591l219.664-73.107Z" opacity="0.08" style="mix-blend-mode: multiply;isolation: isolate"/>
      <g id="Group_28604" data-name="Group 28604">
        <g id="Group_28603" data-name="Group 28603" style="isolation: isolate">
          <g id="Group_28598" data-name="Group 28598">
            <path id="Path_127817" data-name="Path 127817" d="M836.938,672.786l-26.566-15.438,118.22-68.254,26.566,15.438Z" fill="#ffe45e"/>
          </g>
          <g id="Group_28599" data-name="Group 28599">
            <path id="Path_127818" data-name="Path 127818" d="M705.359,958.139,678.793,942.7l36.166-150.288,26.566,15.438Z" fill="#fbaf21"/>
          </g>
          <g id="Group_28600" data-name="Group 28600">
            <path id="Path_127819" data-name="Path 127819" d="M763.875,714.969,737.31,699.531l36.166-150.288,26.566,15.438Z" fill="#fbaf21"/>
          </g>
          <g id="Group_28601" data-name="Group 28601">
            <path id="Path_127820" data-name="Path 127820" d="M645.652,783.226l-26.566-15.438L737.31,699.531l26.566,15.438Z" fill="#ffe45e"/>
          </g>
          <g id="Group_28602" data-name="Group 28602">
            <path id="Path_127821" data-name="Path 127821" d="M955.158,604.532,859.743,739.6l36.9,108.1-95.868-24.629L705.359,958.139l36.166-150.288-95.872-24.625,118.223-68.256,36.166-150.288,36.9,108.1Z" fill="#fbd753"/>
          </g>
        </g>
      </g>
      <path id="Path_127822" data-name="Path 127822" d="M915.888,598.758a2.782,2.782,0,0,0-1.71-1.14c.03-.08.06-.17.09-.25l-35.92,20.74c-1.44,1.09-2.9,2.111-4.13,2.951-1.71.83-3.41,1.609-5.08,2.359l-40.97,23.66-2.16-6.34c-1.1.42-2.8,1.24-4.81,2.27a20.055,20.055,0,0,0,2.71-8.39,38.686,38.686,0,0,0-.28-11.14c-.31-1.9-1.14-2.25-1.2-3.58-.07-1.41.69-2.98.58-3.73a34.5,34.5,0,0,0-2.87-10.26c2.23-4.63-2.38-15.41-4.21-12.91-.74,1.01-2.82,1.431-5.65,1.67-9.45.79-27.21-.43-31.05,11.7-4.67,14.75,9.76,28.95,13.52,30.89.06.07.13.14.2.22.79,2.491,2.42,7.77,2.89,10.07-.04,0-.08.02-.07.08a6.825,6.825,0,0,1-.11,1.971c-.09-.25-.17-.29-.33-.011-2.92,4.92-5.29,10.54-4.84,11.16-8.56,6.33-16.21,12.471-16.78,14.141q-.45.284-.9.63A125.736,125.736,0,0,0,759.7,687.9a279.818,279.818,0,0,1-21.63,20.72c-3.81.12-9.87.271-17.1.34l-31.49,18.19c4.09.661,10.32,1.3,13.98,1.7a274.811,274.811,0,0,0,37.3,1.239,19.8,19.8,0,0,0,7.48-1.89,5.044,5.044,0,0,0,2.19-1.059c2.99-2.4,12.42-9.981,15.81-13.061,2.2-1.99,4.8-4.359,7.44-6.82a92.079,92.079,0,0,0,4.3,8.53c9.15,16.13,1.2,57.44,2.46,59.141a12,12,0,0,0,1.39,1.54c.79,9.179,2.13,21.679,3,28.849,1.4,11.47.41,13.491,2.23,34.321-.12,1.019-.24,2.149-.38,3.38v.009c-.97,8.571-2.39,21.27-2.67,24.46-.71,8.14,1.96,16.961,2.71,28.9a174.768,174.768,0,0,0,2.6,22.09s-.008,5.243,9.465,10.091c1.575.806,3.18,1.555,4.785,2.3-.1-.049,5.216,2.223,2.442,1.171,3.972,1.507,7.949,2.988,11.92,4.488a17.767,17.767,0,0,0-1.022-1.79c-.23-.36-.48-.73-.78-1.119a48.023,48.023,0,0,1-3.95-5.4l-.1-.2a15.184,15.184,0,0,1-1.1-2.66c.69-2.031.05-4.9-.2-6.26-1.56-8.471-3.57-8.871-2.99-23.181.97-23.979,2.67-41.27,4.26-56.06.02-.11,1.22-7.419,1.85-12.41.04-.309.08-.639.13-.979.65-4.761,1.95-11.981,3.29-19.561,2.48,9.611,4.5,13.47,5.35,17.89.3,1.54.5,2.881.62,4.051a29.018,29.018,0,0,1,.17,4.29c0,.009.01.009.01.019-.16,4.63-.33,10.17-.34,12.84-.02,10.5,2.45,21.09,4.48,31.39.94,4.731-1.24,18.461.03,20.6a4.7,4.7,0,0,0,3.771,3.175c8.806,1.064,17.855,2.363,26.655,3.576,3.049.42,6.03.874,8.987,1.563a16.75,16.75,0,0,1,2.114-1.483c-.511-.217-1.034-.414-1.557-.581-.08-.02-.14-.039-.21-.059a32.448,32.448,0,0,0-3.26-1.2c-1.96-.779-4.09-1.74-6-2.66-1.07-.619-2.1-1.19-2.98-1.67-3.03-7.9-5.16-16.91-6.01-30.43-.42-6.58-1.11-19.18-1.17-26.19-.02-2.429-.06-4.77-.09-6.86q-.015-.705-.03-1.38a266.956,266.956,0,0,0-1.2-33.31c-.95-9.32-2.69-21.209-4.56-31.52a2.962,2.962,0,0,0,.88-1.45c.14-.56-1.26-10.77-2.27-18.02a1.394,1.394,0,0,0,.5-.19,34.085,34.085,0,0,0-1.12-6.54c-.21-.789-.46-1.69-.73-2.81-1.12-7.63-2.92-19.44-2.92-25.259v-.281c.04-3.78,3.27-28.439,3.66-34.49a149.983,149.983,0,0,0,.08-17.569c6.07-2.491,12.27-5.851,14.98-7.17,11.51-5.62,22.76-11.04,29.19-16.271a45.154,45.154,0,0,0,9.18-8.24c6.22-8.04,11.33-13.319,17.31-22,1.1-1.59,3.13-4.96,4.53-7.319C916.248,599.858,916.258,599.4,915.888,598.758Z" fill="url(#linear-gradient)" style="mix-blend-mode: multiply;isolation: isolate"/>
      <g id="Group_28617" data-name="Group 28617">
        <g id="Group_28607" data-name="Group 28607">
          <g id="Group_28605" data-name="Group 28605">
            <path id="Path_127823" data-name="Path 127823" d="M822.3,921.86c1.538,2.879,3.4,4.929,5.923,9.823,1.423,2.755,1.844,7.516-3.722,8.273a14.945,14.945,0,0,1-10.726-3.089c-4.224-3.343-6.017-5.9-9.228-13.508-.384-.91-1.959-2.167-2.941-4.175-1.118-2.289-3.5-8.707,3.232-10.574,7.453-2.067,11.919,4.627,13.11,6.4A49.829,49.829,0,0,1,822.3,921.86Z" fill="#0e0e0e"/>
            <path id="Path_127824" data-name="Path 127824" d="M827.755,929.783a11.484,11.484,0,0,0-1.654-2.871c-2.448-3.242-4.274-4.816-5.423-9.174-1.77-6.7-3.107-5.385-3.945-7.234-.862-1.894-4.855-6.324-11.877-3.832-3.012,1.07-3.837,2.607-4.01,3.922-.7,1.942.031,3.957.133,4.625.306,2.013,3.483,6.56,3.838,7.48,2.4,6.207,5.615,10.007,9.777,12.807,2.379,1.6,6.309,4.223,11.112,2.694C830.142,936.787,828.965,932.347,827.755,929.783Z" fill="#2f2f36"/>
            <path id="Path_127825" data-name="Path 127825" d="M819.176,923.721c1.839-.611,3.547-1.1,2.974-2.211a25.111,25.111,0,0,1-2.865-7.779c-.083-.374-2.317-1.346-4.616.1Z" fill="#141417"/>
            <path id="Path_127826" data-name="Path 127826" d="M812.742,934.139c2.98,2.221,5.308,3.88,7.628,4.344a9.79,9.79,0,0,0,6.482-.783c1.874-1.041,4.02-4.286-.751-10.788-.227-.309-8.867,2.221-11.432,4.806Z" fill="#141417"/>
            <path id="Path_127827" data-name="Path 127827" d="M813.814,914.691c-.552-.166-2.258-.48-3.25.57s-2.382,1.6-3.136,1.064c-2.488-1.763-4.862-8.475-5.325-8.107a6.551,6.551,0,0,0-1.563,5.028c.5,4.566,4.69,10.092,4.537,10.108a7.364,7.364,0,0,1,3.8.99,13.011,13.011,0,0,0,1.71,1.026,4.971,4.971,0,0,0,2.661.165c.764-.173,2.87-.735,5.429-1.609Z" fill="#141417"/>
          </g>
          <g id="Group_28606" data-name="Group 28606">
            <path id="Path_127828" data-name="Path 127828" d="M854.993,904.169c5.973,2.151,8.02,3.368,15.984,4.292,2.372.275,10.4.657,12.781-2.316.43-.538.264-2.935.112-3.49-.6-2.143-4.5-2.4-6.074-2.989-6.653-2.481-11.483-2.651-18.211-3.941-1.243-.24-7.966-1.7-10.875-1.882-1.936-.118-9.125,1.586-9.253,2.044-1.29,4.647,2.993,5.556,5.562,6.142C847.473,902.588,850.261,902.467,854.993,904.169Z" fill="#0e0e0e"/>
            <path id="Path_127829" data-name="Path 127829" d="M877.574,897.535c-.141-.044-.269-.078-.408-.12-.406-.156-.834-.315-1.3-.479a94.454,94.454,0,0,1-13.74-6.461c-1.916-2.057-8.793,1.474-12.436.276-4.814-1.585-9.793-3.093-11.111-1.645a.418.418,0,0,0-.061.477,23.936,23.936,0,0,0-.247,3.614,13.956,13.956,0,0,0,1.066,3.6l0,0c.209,1.929,3.508,2.652,5.454,3.094,2.453.558,5.241.436,9.971,2.14,5.975,2.151,8.018,3.368,15.984,4.291,2.372.275,10.977,1.034,12.781-2.315C885.027,901.241,881.276,898.69,877.574,897.535Z" fill="#2f2f36"/>
            <path id="Path_127830" data-name="Path 127830" d="M838.5,889.241s-1.438,3.38,1.141,8.441c.25.492,1.627,1.278,3.437,1.8a76.759,76.759,0,0,0,9.171,1.763c3.158-3.932,7.46-1.3,8.468-2.362a22.037,22.037,0,0,1,5.535-4.206c.656-.234-7.3-4.891-7.853-4.711a16.687,16.687,0,0,1-2.586.366c-1.8.255-3.561,1.119-5.283.608a63.128,63.128,0,0,0-9.313-2.381C839.883,888.41,838.784,888.694,838.5,889.241Z" fill="#141417"/>
            <path id="Path_127831" data-name="Path 127831" d="M862.368,890.461a3.963,3.963,0,0,0-1.655-.6c-.554-.026-1.005-.037-1.005-.037,5.3,2.745,6.651,4.432,7.24,4.418.389-.01,1.131-.423,1.539-.406C865.421,892.038,862.593,890.6,862.368,890.461Z" fill="#141417"/>
            <path id="Path_127832" data-name="Path 127832" d="M880.922,899.006a68.726,68.726,0,0,0-6.833-2.74c-1.554-.072-4.848,3.425-5.963,5.426-.765,1.373-1.6,4.145-1.011,4.13.214-.005,7.543,1.3,11.121.778,2.913-.427,4.6-1.506,5.2-2.422C885.128,901.414,881.148,899.148,880.922,899.006Z" fill="#141417"/>
          </g>
          <path id="Path_127833" data-name="Path 127833" d="M865.356,892.544c-3.155-8.045-5.364-17.165-6.242-31.027-.42-6.588-1.108-19.183-1.166-26.194-.026-2.985-.071-5.806-.12-8.246h0a266.147,266.147,0,0,0-1.2-33.309c-1.654-16.314-5.756-40.519-8.688-50.312-1.572-5.272-2.278-1.045-6.62,1.172-2.55,1.3-17.01,6.235-18.486,8.721-.424.707-.574,6.162.07,12.51.758,7.487.129,13.321.978,18.2,3.937,22.546,7.544,27.705,8.764,34.042a36.407,36.407,0,0,1,.787,8.333c0,.008.009.016.01.025-.162,4.63-.335,10.166-.34,12.839-.021,10.5,2.444,21.084,4.481,31.387.933,4.73-1.242,18.46.03,20.6.625,1.041,8.926,5.18,12.9,5.268C859.34,896.737,865.883,893.888,865.356,892.544Z" fill="#192859"/>
          <path id="Path_127834" data-name="Path 127834" d="M831.335,767.324c.638-2.232.6-7.2.5-8.919-.768-12.933-17.8-5.969-17.8-5.969a44.718,44.718,0,0,0-13.2.1c-2.293.435-9.949-1.188-9.693,7.838.191,6.683,2.4,27.95,3.651,38.234,1.395,11.477.407,13.491,2.233,34.327-.922,8.114-2.738,24.2-3.053,27.842-.708,8.142,1.96,16.966,2.713,28.9a173.917,173.917,0,0,0,2.6,22.095,18.7,18.7,0,0,0,4.21,4.747c3.906,3.17,10.264,4.99,14.876,4.294,4.079-.613,2.758-6.33,2.371-8.427-1.559-8.461-3.574-8.869-2.994-23.178.976-23.976,2.673-41.269,4.268-56.056.018-.112,1.212-7.423,1.849-12.412C825.628,806.976,834.006,767.523,831.335,767.324Z" fill="#2d4991"/>
        </g>
        <g id="Group_28616" data-name="Group 28616">
          <g id="Group_28609" data-name="Group 28609">
            <path id="Path_127835" data-name="Path 127835" d="M925.854,592.052a2.792,2.792,0,0,0-1.707-1.146c-2.567-.839-6.23-1.919-7.99-3.754-1.832-1.913-1.745-3.744-3.254-3.9-.52-.054-.95-.23-1.31.208-2.784,3.385-5.125,7.621-6.557,9.662-4.233,6.03-7.432,9.212-12.163,14.28a55.218,55.218,0,0,1-8.688,6.947c-6.7,3.241-13.15,5.881-19.437,8.318-11.544,4.476-18.229,7.194-24.625,9.8-5.959,2.43-6.692,2.958-9.506,5.449-4.073,3.606-6.018,9.814-5.238,12.054,1.355,3.909,6.836,7.534,12.612,8.5,6.548,1.1,22.336-7.658,27.137-10,11.51-5.618,22.756-11.041,29.186-16.268a45.133,45.133,0,0,0,9.182-8.246c6.226-8.035,11.328-13.32,17.309-21.993,1.1-1.6,3.129-4.965,4.531-7.328C926.219,593.151,926.233,592.7,925.854,592.052Z" fill="#192859"/>
            <g id="Group_28608" data-name="Group 28608">
              <path id="Path_127836" data-name="Path 127836" d="M917.915,588.609c4.549,2.906,5.257,2.631,5.257,2.631a7.625,7.625,0,0,1,1.722-2.4c.891-1.48-10.364-6.657-10.816-5.907-.272.691-.428,1.306-.525,1.48C913.138,585.155,915.241,586.9,917.915,588.609Z" fill="#cacaca"/>
              <path id="Path_127837" data-name="Path 127837" d="M931.915,560.169c-3.583-1.021-5.246,8.2-11.625,11.722.359-2.563.688-4.429.136-5.948a2.173,2.173,0,0,0-1.972-1.505l-2.924,8.215a7.8,7.8,0,0,0-.668,1.877c-.078,1.735,1.628,3.626,1.411,5.27a6.283,6.283,0,0,1-2.133,3.765c-.684.751,8.041,7.166,9.031,5.593,2.018-3.2,8.463-8.22,9.9-10.693,2.173-3.733,4.442-8.755,3.008-10.911C934.307,564.892,933.607,560.651,931.915,560.169Z" fill="#ebc3aa"/>
              <path id="Path_127838" data-name="Path 127838" d="M917.347,589.554c4.548,2.906,6.39,2.525,6.39,2.525.41-1.173,1.157-3.242,1.157-3.242-3.566-.812-9.041-3.675-10.816-5.907-.813,1.08-1.249,1.642-1.346,1.816C912.316,585.492,914.673,587.845,917.347,589.554Z" fill="#f3f5ff"/>
            </g>
          </g>
          <g id="Group_28615" data-name="Group 28615">
            <path id="Path_127839" data-name="Path 127839" d="M849.771,673.206a121.723,121.723,0,0,0-.7-24.689,19.483,19.483,0,0,0-1.2-4.129,20.674,20.674,0,0,0-3.892-5.929,13.678,13.678,0,0,0-6.886-4.173c-1.911-.384-17.825,8.037-24.917,12.485-11.672,7.321-28.656,20.07-28.53,21.619a5.82,5.82,0,0,0-.633,1.152c-1.552,3.475-4.552,12.239,6.066,38.55,8.161,20.224,2,43.9,3.446,45.448,2.838,3.041,12.544,3.243,12.544,3.243,19.657-.232,37.351-5.371,44.568-12.01.7-.647-.073-2.913-.767-6.988-1.025-6.054-3.748-13-3.169-29.966C845.821,704.038,849.388,679.259,849.771,673.206Z" fill="#d2d5dc"/>
            <g id="Group_28610" data-name="Group 28610">
              <path id="Path_127840" data-name="Path 127840" d="M831.335,767.324c.638-2.232.6-7.2.5-8.919-.768-12.933-17.8-5.969-17.8-5.969a44.718,44.718,0,0,0-13.2.1c-2.293.435-9.949-1.188-9.693,7.838.07,2.448.412,6.858.878,11.965,3.939,3.542,10.219,4.98,14.178,5.323,13.264,1.147,24.677-.54,25.024-1.3C831.939,770.991,832.136,767.384,831.335,767.324Z" fill="#192859"/>
              <path id="Path_127841" data-name="Path 127841" d="M812.994,653.974a52.29,52.29,0,0,1-7.58-3.548c-10.746,7.74-21.9,16.415-21.776,17.964a5.82,5.82,0,0,0-.633,1.152c-1.552,3.475-10.016,13.157,4.945,39.541,9.145,16.127,1.2,57.44,2.46,59.136C794,773.06,801.644,774.9,806.2,775.3c13.273,1.148,17.982.762,26.9-2.059,3-.949,10.719-13.737,10.086-22.675-1.41-19.9-4.652-43.8-6.525-62.926C835.468,675.458,821.628,660.779,812.994,653.974Z" fill="#2d4991"/>
              <path id="Path_127842" data-name="Path 127842" d="M850.065,673.212a124.7,124.7,0,0,0-.618-24.7,22.685,22.685,0,0,0-1.307-4.466c-.683-1.953-2.109-5.32-3.273-6.516-1.556-1.6-4.117-3.809-7.74-3.809-1.619,0-12.858,6.189-20.651,10.659,4.131-.915,7.745-1.616,11.9,3.958,9.521,12.761,7.567,32.008,8.282,39.3,1.892,19.323,4.159,40.965,5.751,62.422.231,3.121,6.1,14.663,8.421,13.172,1.6-1.026,1.98-1.864,2.12-2.433.186-.757-2.428-19.044-3.11-23.971-.961-6.96-3.505-22.416-3.432-29.128C846.453,703.918,849.682,679.265,850.065,673.212Z" fill="#2d4991"/>
            </g>
            <g id="Group_28612" data-name="Group 28612">
              <path id="Path_127843" data-name="Path 127843" d="M800.258,675.421c-.093-2.712-2.633-7.088-4.932-7.927-2.87-1.052-7.208-2.725-12.546,1.316a126.231,126.231,0,0,0-13.113,12.379,278.716,278.716,0,0,1-21.625,20.718c-5.636.178-16.184.44-28.13.392-10.677-.045-19.864-.183-19.864-.183-.877-.037-1.633,1.414-2.795,5.912-.407,1.576-1.6,11.617-.533,11.887,3.315.836,12.076,1.713,16.711,2.225a275.189,275.189,0,0,0,37.3,1.246,19.7,19.7,0,0,0,7.479-1.892,5.126,5.126,0,0,0,2.191-1.058c2.987-2.4,12.423-9.985,15.815-13.059,6.261-5.678,15.817-14.4,20.036-19.718A18.843,18.843,0,0,0,800.258,675.421Z" fill="#2d4991"/>
              <g id="Group_28611" data-name="Group 28611">
                <path id="Path_127844" data-name="Path 127844" d="M699.236,710.68c-.856,5.329-1.948,5.629-1.948,5.629a13.324,13.324,0,0,1-2.747-.1c-1.186-1.193,1.443-12.015,2.784-12.005a18.217,18.217,0,0,1,2.124.706C699.938,705.562,699.739,707.547,699.236,710.68Z" fill="#cacaca"/>
                <path id="Path_127845" data-name="Path 127845" d="M680.918,699.94a9.851,9.851,0,0,0,5.39.445c-.239-.246-2.941-1.515-3.2-1.7-2.383-1.723-2.368-2.364-2.638-3.771-.282-1.485,1.392-.22,4.135.6a19.38,19.38,0,0,1,4.7,1.856,13.334,13.334,0,0,1,2.145,2.219c2.228,2.16,2.938,4.621,5.554,5.4a8.9,8.9,0,0,0,1.112.272c.54.1-.485,10.39-1.838,9.916-2.374-.833-4.186.33-5.705.322-1.963-.011-4.734-.593-9.752-1.992-1.572-.437-4.637-3.476-5.854-5.38a47.017,47.017,0,0,1-3.346-8.73C670.946,696.407,678.013,698.69,680.918,699.94Z" fill="#facfb6"/>
                <path id="Path_127846" data-name="Path 127846" d="M700.1,711.054c-.856,5.329-2.107,6.242-2.107,6.242-1.038-.258-3.449-1.084-3.449-1.084,1.513-2.448,3.27-9.195,2.784-12.005,1.347.111,2.537.251,2.731.294C700.889,704.687,700.6,707.921,700.1,711.054Z" fill="#f3f5ff"/>
              </g>
            </g>
            <path id="Path_127847" data-name="Path 127847" d="M841.782,678.479c.792-12.591.764-21.965.318-24.532,0,0-7.793,6.2-7.837,5.352-.294-.694,5.966-5.752,5.067-7.157-1.258-1.966-5.667-13.666-14.61-13.905-1.618-.044-5.484,1.021-8.244,6.138,15.06,2.175,17.752,18.517,18.945,30.7,2.175,22.213,1.523,15.773,3.269,33.018C839.7,696.622,841.4,684.532,841.782,678.479Z" fill="#192859"/>
            <path id="Path_127848" data-name="Path 127848" d="M817.265,639.308a12.163,12.163,0,0,0-6.722-1.1c.611,3.518-.37,4.589.251,4.952,4.233,2.473,14.945,8.661,14.945,8.661,2.988,2.222,2.981,3.567,5.635,4.662a20.546,20.546,0,0,0-2.674-9.3C828.321,646.331,821.612,641.425,817.265,639.308Z" fill="#f3f5ff"/>
            <g id="Group_28614" data-name="Group 28614">
              <g id="Group_28613" data-name="Group 28613">
                <path id="Path_127849" data-name="Path 127849" d="M806.179,647.875s8.591,6.626,16.4,3.116a6.389,6.389,0,0,0,3.873-4.912l-.587-8.258-23.368-8.4s2.9,9.053,3.388,11.775A49.2,49.2,0,0,1,806.179,647.875Z" fill="#ebc3aa"/>
                <path id="Path_127850" data-name="Path 127850" d="M829.813,598.64c1.43,2.457,2.505,6.373,3.168,10.82.108.752-.65,2.317-.584,3.736.062,1.325.888,1.674,1.206,3.572,1.689,10.138-.63,19.35-4.511,21.637-2.569,1.513-6.483,2.155-10.936,1.492-2.716-.4-6.473-2.565-9.4-4.038-2.691-1.349-4.955-4.374-7.528-6.783-12.129-11.376-8.527-24.723.9-30.857S825.161,590.671,829.813,598.64Z" fill="#facfb6"/>
                <path id="Path_127851" data-name="Path 127851" d="M799.709,600.064c1.372-.209,2.493-.328,3.107-.432,2.8-.467,8.349,4.745,9.664,14.991.035.272-1.2,2.834-1.05,3.731.134.8,1.675,2.777,1.887,3.532,2.155,7.83,1.3,14.367,9.478,18.231a22.439,22.439,0,0,1-4.639-.22c-2.716-.4-6.473-2.565-9.4-4.038-2.691-1.349-4.955-4.374-7.528-6.783C790.2,618.734,792.174,606.765,799.709,600.064Z" fill="#ebc3aa"/>
                <path id="Path_127852" data-name="Path 127852" d="M802.126,598.219c9.429-6.13,21.881-2.27,27.01.094a3.52,3.52,0,0,1,1.5,2.038,17.727,17.727,0,0,1-8.312,3.947c-1.763.393-4.368.641-5.062.806-.629.153,1.171.36,1.171.36s-5.777.4-6.633.552c-2.934.506-3.933.911-4.141,1.084-1.829,1.53-.053,2.366-.633,3.839-.715,1.808-3.085,2.48-2.365,4.582a45.975,45.975,0,0,1,1.25,5.017s-4.309,1.346-4.438.944c-.619-1.928-1.128-7.452-4.561-6.961C792.389,615.166,792.7,604.353,802.126,598.219Z" fill="#ebc3aa"/>
                <path id="Path_127853" data-name="Path 127853" d="M825.9,586.292c2.119-2.9,8,12.109,2.561,14.6-4.921,2.255-3.79,1.786-9.174,3.032-.783.181-6.553.409-6.553.409s2.847.4,2.17.537c-3.029.615-5.638,1.089-7.455,1.541-.491.124-.365.764-.205,1.41.034.144-1.455-.119-1.455-.119a9.2,9.2,0,0,1,1.624.889,2.57,2.57,0,0,1-.095,1.373c-.712,1.812-3.552,2.4-2.83,4.5.642,1.857,2.119,7.087,2.119,7.087l-4.676-.482s-1.246-7.987-4.478-6.83c-5.6,2,6.923,17.169,5.258,16.309-3.755-1.945-18.182-16.145-13.514-30.892C794.192,583.889,822.7,590.681,825.9,586.292Z"/>
              </g>
            </g>
            <path id="Path_127854" data-name="Path 127854" d="M810.574,645.433a14.217,14.217,0,0,1-4.689-4.569.082.082,0,0,0-.151.054c.351,3.384-2.329,6.667-1.731,7.016,4.233,2.474,18.552,10.757,21.207,11.445-1.09-2.343-1.116-2.836-2.614-9.509C822.393,648.965,814.921,647.55,810.574,645.433Z" fill="#f5f7ff"/>
            <path id="Path_127855" data-name="Path 127855" d="M828.558,647.792a7.4,7.4,0,0,0-5.962,2.078c-.154,1.716.612,4.187,1.129,4.617.47.394,2,1.171,2.53,2.25a25.086,25.086,0,0,1,1.514,6.063c1.2,9.124,4.906,25.2,4.906,25.2,1.883,1.09,3.962.985,3.808-2.056-.322-6.338-1.4-17.532-2.764-22.7-.447-1.689-3.518-6.016-3.789-7.228C829.726,655.113,830.363,649.945,828.558,647.792Z" fill="#ab1c00"/>
            <path id="Path_127856" data-name="Path 127856" d="M811.142,650.021c-6.1-3.792-5.126-8.356-5.847-7.137-3,5.05-5.42,10.844-4.8,11.208,4.234,2.473,8.511,3.977,14.576,12.5,0,0,8.327-1.412,8.939-.732.5.558-8.668,3.113-8.668,3.113,10.646,8.138,15.227,16.546,23.376,39.715-1.745-17.247,0,0-2.175-22.215C835.352,674.292,821.248,655.8,811.142,650.021Z" fill="#192859"/>
            <path id="Path_127857" data-name="Path 127857" d="M828.364,740.684l-23.242.234s-.285,6.854.368,8.365c1.215,2.813,22.348,2.382,22.88-.836C828.67,746.638,828.715,741.576,828.364,740.684Z" fill="#192859"/>
            <path id="Path_127858" data-name="Path 127858" d="M849.715,742.52c.187.4.928.4,1.46.074a33.275,33.275,0,0,0-1.117-6.537c-.212-.8-.461-1.692-.731-2.815l-1.511,1.447S849.016,741.03,849.715,742.52Z" fill="#192859"/>
            <path id="Path_127859" data-name="Path 127859" d="M848.949,676.363l.264-2.448c-1.927,1.221-4.065,2.416-6.1,3.51v2.381S847.792,677.184,848.949,676.363Z" fill="#192859"/>
            <path id="Path_127860" data-name="Path 127860" d="M845.022,738.415a3.266,3.266,0,0,1-.957,2.792c-.71.617-1.431.371-1.612-.553a3.26,3.26,0,0,1,.958-2.792C844.12,737.244,844.841,737.492,845.022,738.415Z" fill="#192859"/>
            <path id="Path_127861" data-name="Path 127861" d="M843.145,719.133a3.267,3.267,0,0,1-.957,2.792c-.71.617-1.431.371-1.613-.553a3.266,3.266,0,0,1,.958-2.792C842.242,717.962,842.964,718.209,843.145,719.133Z" fill="#192859"/>
          </g>
        </g>
      </g>
    </g>
    <g id="Group_28628" data-name="Group 28628" transform="translate(4800 1582)">
      <g id="Group_28620" data-name="Group 28620">
        <path id="Path_127862" data-name="Path 127862" d="M613.8,1092.237c-8.219,2.533-29.232,7.875-36.3,9.377-6.248,1.331-12.811,2.9-14.2,2.962-4.505.186-8.376-.2-10.528-1.951-2.8-2.275-2.067-5.539-1.813-7.276.459-3.153,4.516-5.822,8.321-6.843,3.411-.916,8.57-2.126,13.247-3.4,8.642-2.344,14.928-4.54,26.9-7.614a13.822,13.822,0,0,1,3.273-.433c3.613-4.137,17.617-20.246,21.658-26.025,1.066-1.523,6.61-8.607,6.61-8.607a13.157,13.157,0,0,1,6.31,2.289,52.9,52.9,0,0,1,6.161,6.08,324.816,324.816,0,0,1-24.023,34.655c-2.413,3.021-4.647,5.645-5.373,6.492A.493.493,0,0,1,613.8,1092.237Z" fill="#182654"/>
        <g id="Group_28619" data-name="Group 28619">
          <path id="Path_127863" data-name="Path 127863" d="M636.432,1047.618c4.236,2.873,5.2,2.164,5.2,2.164a18.584,18.584,0,0,0,1.683-2.01c.171-1.156-9.235-7.393-10.1-5.879a2.424,2.424,0,0,0-.713,1.827C632.606,1044.66,633.941,1045.93,636.432,1047.618Z" fill="#e4e4e4"/>
          <path id="Path_127864" data-name="Path 127864" d="M642.533,1026.287c-.771.977-3.518,5.1-4.8,5.812a26.64,26.64,0,0,1,.224-3.07c.913-2.594.583-3.416-.213-4.519-.842-1.159-1.056.819-2.276,3.246a18.432,18.432,0,0,0-1.769,4.448,12.619,12.619,0,0,0,.139,2.922c.043,2.942,1.282,5.032.121,7.348a8.371,8.371,0,0,1-.533.943c-.282.438,7.671,6.482,8.041,5.174.836-2.964,2.273-3.072,3.331-4.049,2.193-2.02,2.8-3.72,5.094-8.093.72-1.37,2.96-6.095,2.436-8.173s-1.455-4.9-2.172-5.684C648.8,1021.1,644.863,1023.33,642.533,1026.287Z" fill="#facfb6"/>
          <path id="Path_127865" data-name="Path 127865" d="M636.145,1048.255c4.235,2.873,5.68,2.6,5.68,2.6.5-.884,1.491-3.085,1.491-3.085-2.671-.546-8.472-3.718-10.1-5.879-.8,1-1.476,1.914-1.572,2.076C631.233,1044.665,633.653,1046.567,636.145,1048.255Z" fill="#f3f5ff"/>
        </g>
      </g>
      <g id="Group_28621" data-name="Group 28621">
        <path id="Path_127866" data-name="Path 127866" d="M600.87,1367.565c4.567-2.86,5.935-4.313,12.827-6.214,2.054-.568,9.829-3.25,12.841-.185,2.659,2.708-1.467,7.011-2.971,7.986-5.052,3.27-9.4,4.042-15.01,6.15-1.041.391-2.775,2.65-5.327,3.327-4.709,1.25-8.881,2.318-12.722-.648-4.254-3.288-1.226-7.416.882-8.313C593.394,1368.813,597.253,1369.833,600.87,1367.565Z" fill="#0e0e0e"/>
        <path id="Path_127867" data-name="Path 127867" d="M588.734,1371.658l1.3-9.667.019,0c.066-1.559,2.366-2.515,3.783-3.12a83.738,83.738,0,0,1,8.226-3.348c2.315-.775,4.633,3.222,11.527,1.321,2.054-.568,8.867-1.941,12.27.687a2.553,2.553,0,0,1,1.095,1.959l.186-.012a11.373,11.373,0,0,1,.249,1.111c.153,1.76-.02,3.591-3.948,6.28-4.967,3.4-9.4,4.041-15.01,6.149a83.213,83.213,0,0,1-9.158,3.21,9.309,9.309,0,0,1-8.689-1.744c-1.451-1.122-1.917-2.049-1.838-2.829Z" fill="#313138"/>
        <path id="Path_127868" data-name="Path 127868" d="M626.33,1357.457a5.728,5.728,0,0,1-.715,7.665c-1.186.991-3.215,2.424-3.228,2.432s.174-5.1-2.977-7.894a14.164,14.164,0,0,0-5.027-3.014C617.085,1356.034,623.75,1353.949,626.33,1357.457Z" fill="#141417"/>
        <path id="Path_127869" data-name="Path 127869" d="M612.852,1359.219c2.054,2.793,1.509,7.031-.715,7.665-7.574,2.159-4.17,6.692-4.182,6.7s-11.83,6.454-17.266,1.346a5.28,5.28,0,0,1-1.955-3.472,48.8,48.8,0,0,1,1.418-9.977c.569-2.195,12.105-6.009,12.105-6.009C603.187,1355.472,610.271,1355.711,612.852,1359.219Z" fill="#141417"/>
      </g>
      <g id="Group_28622" data-name="Group 28622">
        <path id="Path_127870" data-name="Path 127870" d="M564.255,1342.53c4.2-3.382,5.38-4.986,12-7.692,1.973-.807,10.01-5.032,12.728-1.7,2.944,3.6-.528,7.263-2,8.281-5.549,3.831-9.09,4.913-14.257,8.318a39.155,39.155,0,0,1-4.812,3.5c-4.133,2.252-9.007,4.122-12.906,1.233-3.172-2.349-1.729-8.308-1.729-8.308C555.282,1345.316,560.931,1345.211,564.255,1342.53Z" fill="#0e0e0e"/>
        <path id="Path_127871" data-name="Path 127871" d="M553.775,1347.584l1.144-10.15s5.235-5.179,9.093-7.005c2.207-1.044,4.983,2.65,11.6-.056,1.973-.806,8.575-2.978,12.265-.771a2.551,2.551,0,0,1,1.32,1.814l.183-.034s.318.792.379,1.075c.361,1.728.406,3.567-3.176,6.7-4.528,3.964-8.853,5.127-14.175,7.885a82.955,82.955,0,0,1-8.712,4.273,9.31,9.31,0,0,1-8.835-.7C553.289,1349.676,553.775,1347.584,553.775,1347.584Z" fill="#313138"/>
        <path id="Path_127872" data-name="Path 127872" d="M588.167,1329.715a5.217,5.217,0,0,1,.368,7.456c-1.06,1.125-2.9,2.787-2.916,2.8s-.432-5.084-3.892-7.485a14.152,14.152,0,0,0-5.349-2.4C578.988,1329.157,584.721,1326.717,588.167,1329.715Z" fill="#141417"/>
        <path id="Path_127873" data-name="Path 127873" d="M575.162,1332.823c2.371,2.529,2.333,6.8.2,7.695-7.264,3.041-3.347,7.138-3.359,7.148s-10.98,7.811-16.984,3.383a3.755,3.755,0,0,1-1.661-2.757c-.428-2.772.738-9.126.982-10.911.3-2.247,9.859-7.023,9.859-7.023C565.121,1330.248,572.184,1329.644,575.162,1332.823Z" fill="#141417"/>
      </g>
      <g id="Group_28623" data-name="Group 28623">
        <path id="Path_127874" data-name="Path 127874" d="M553.984,1321.5c-1.351-10.834-3.295-25.466-2.5-36.354.274-3.756,2.528-16.52,3.786-23.471.9-9.446,1.191-19.877.543-35.713-.419-10.278-1.61-13.24-2.462-21.367-.781-7.466.768-15.6,2.449-18.375,1.556-2.569,7.763-1.725,10.806-1.578,5.068.242,15.6,4.832,16.529,11.147,1.533,10.514,2.609,12.325,2.695,27.229.09,15.156-3.521,36.177-6.693,48.023h0l-.005.014c-.621,2.317-1.225,4.283-1.781,5.783a45.507,45.507,0,0,0-1.187,6.681c-.619,6.592-1.383,18.158-1.585,25.226-.3,10.406,2.7,14.471,4.558,27.06.219,1.485-7.741,8.959-13.71,10.467-9.345,2.362-12.2-2-12.2-3.267C553.227,1340.586,554.6,1326.467,553.984,1321.5Z" fill="#182654"/>
        <path id="Path_127875" data-name="Path 127875" d="M569.012,1192.431s29.989,3.086,34.445,5.332c1.252.631,5.056,22.532,5.491,27.521.964,11.1,1,27.548.417,42.049-.1,2.475-.29,4.652-.475,6.35h0c.149,16.526-2.064,34.244.639,59.044,1.025,9.413,3.2,14.035,5.945,28.786,0,0-.544,5.205-13.443,8.973-12.02,3.512-13.832-4.233-13.832-4.233s1.883-16.1-.675-30.106c-2.232-12.23-4.673-22.56-4.941-31.049-.133-4.282,1.488-22.027,2.03-27.805-1.817-12.778-4.517-34.51-5.569-39.894a114.328,114.328,0,0,0-6.962-22.805c-.007-.016-.011-.032-.017-.048-.5-.987-1.023-2.029-1.569-3.186C567.856,1205.77,569.012,1192.431,569.012,1192.431Z" fill="#2d478c"/>
      </g>
      <g id="Group_28625" data-name="Group 28625">
        <path id="Path_127876" data-name="Path 127876" d="M568.761,1198.7c7.952.677,30.947,2.754,36.4,4.56.612,2.732,1.276,6.157,1.878,9.529a50.358,50.358,0,0,1-15.4,3.728,69.537,69.537,0,0,1-19.132-.865c-.143-.354-.281-.706-.428-1.061-.007-.016-.011-.032-.017-.048-.5-.987-1.023-2.029-1.569-3.186C569.054,1208.306,568.745,1202.944,568.761,1198.7Z" fill="#182654"/>
        <path id="Path_127877" data-name="Path 127877" d="M555.067,1167.486c.416-8.943,1.176-12.1-1.941-33.715-1.633-11.318-4.37-30.788-2.016-35.771,0,0,1.957-4.426,5.234-6.631a7.5,7.5,0,0,1,5.113-1.415c2.018-.005,4.877,1.764,6.469,2.459,4.752,2.073,13.908,6.431,18.546,9.023,5.155,2.884,18.226,10.544,23.266,13.748,1.994,1.268,2.6,1.5,2.733,3.032h.031s-.008.061-.02.15c.013.2.022.423.022.678a.3.3,0,0,1-.143.227c-1.319,9.9-3.977,32.742-5.035,43.264-.313,3.079-.5,12.624-.209,21.4.209,6.36,1.294,25.677,1.294,25.677a53.975,53.975,0,0,1-18.932,4.517,72.36,72.36,0,0,1-23.448-2.306c-6.6-1.716-14.317-6.57-14.317-6.57s.279-13.608,1.43-23.31C553.329,1180.393,554.906,1170.948,555.067,1167.486Z" fill="#2d478c"/>
        <path id="Path_127878" data-name="Path 127878" d="M606.985,1178.715c.019,2.133.061,4.326.132,6.474.032.976.085,2.116.151,3.341-5.69.581-11.974.342-12.422-1.305-.457-1.677-.988-6.447-.744-7.323Z" fill="#182654"/>
        <g id="Group_28624" data-name="Group 28624">
          <path id="Path_127879" data-name="Path 127879" d="M572.077,1099.345l.412-9.961,16.771.958-1.827,11.7h0a3.594,3.594,0,0,1-2.288,2.827,11.3,11.3,0,0,1-10.207-.583C573.575,1103.388,572.014,1100.41,572.077,1099.345Z" fill="#facfb6"/>
          <path id="Path_127880" data-name="Path 127880" d="M558.538,1070.978c.223,10.828,16.219,27.623,25.819,22.608,6.286-3.284,15.559.508,15.253-5.068a20.2,20.2,0,0,1,1.583-6.652c.608-1.349-.2-1.941.122-3.36.351-1.527,2.882-2.153,2.845-3.7-.022-1.265-4.287-5.464-4.659-6.372-.3-.731,1.53-3.343,1.145-4.044-3.881-7.078-5.248-12.583-13.075-12.424C576.739,1052.19,558.322,1060.147,558.538,1070.978Z" fill="#facfb6"/>
          <path id="Path_127881" data-name="Path 127881" d="M561.806,1063.073c5.744-6.595,17.8-10.942,25.765-11.1,5.421-.11,7.415,1.92,9.62,5.884a8.635,8.635,0,0,1-.521,1.246,6.122,6.122,0,0,1-1.441.8l.973-.075s-.611.967-.748,1.136c-3.493,4.311-10.622,7.072-16.158,7.186C569.647,1068.339,562.3,1067.031,561.806,1063.073Z" fill="#ebc3aa"/>
          <path id="Path_127882" data-name="Path 127882" d="M562.028,1059.135c1.821-3.978,7.093-8.495,14.957-8.655,9.933-.2,6.733-5.877,10.827-4.783,10.745,2.87,10.7,10.325,8.543,13.1a28.9,28.9,0,0,1-2.836,1.842l1.638-.473s-1.536,1.467-1.991,1.833c-.418.337-.859.654-1.3.966.124.083.251.166.368.251,2.851,2.067-2.329,5.6-.3,7.872,1.351,1.518.6,6.7.6,6.7l-2.3.432s-.892-6.5-3.264-5.775c-4.2,1.281-2.869,8.233-3.4,10.966-1.912,9.924-10.271,8.907-12.7,7.574-7.052-3.881-12.167-12.185-12.327-20.007C558.441,1066.138,559.7,1061.783,562.028,1059.135Z"/>
        </g>
        <path id="Path_127883" data-name="Path 127883" d="M584.05,1104.37a7.035,7.035,0,0,0,4.613-1.465l-.505-4.932a24.521,24.521,0,0,1-8.577-.162c-7.115-1.532-7.247-4.685-7.247-4.685l-2.339,6.289c0,.966,3.316,2.432,5.406,3.514C577.236,1103.878,580.667,1104.438,584.05,1104.37Z" fill="#f5f7ff"/>
        <path id="Path_127884" data-name="Path 127884" d="M584.146,1106.941a40.941,40.941,0,0,0,8.97-1.293c.341-.087.852.186,1.428.429a7.131,7.131,0,0,0-1.1-1.563c-1.749-1.49-4.817-3.712-4.817-3.712a23.09,23.09,0,0,1-8.978.161c-7.115-1.533-8.35-5.351-8.35-5.351l-3.586,2.32c0,1.489,1.153,4.444,5.237,6.834C575.453,1106.231,578.357,1107.251,584.146,1106.941Z" fill="#182654"/>
      </g>
      <g id="Group_28627" data-name="Group 28627">
        <path id="Path_127885" data-name="Path 127885" d="M648.115,1101.307c-6.048,6.113-16.252,13.294-21.559,18.192a114.882,114.882,0,0,1-11.857,9.813c-3.883,2.292-6.827,3.519-9.548,2.995-3.546-.68-5.995-1.658-7.21-4.152s.055-7.192,3.564-10.839c3.665-3.809,6.719-6.532,11.6-11.305,8.093-7.914,14.988-13.091,20.169-17.7a7.049,7.049,0,0,1,1.115-.813c.058-.459.108-.9.147-1.3.895-9.349,3.28-32.161,3.9-38.08.094-.892.056-1.351.25-1.643a1.5,1.5,0,0,1,.95-.557c1.66-.362,3.043-.039,6.192-.313a21.758,21.758,0,0,1,5.821.449,4.77,4.77,0,0,1,1.665.249c.295.244.367,1.064.348,1.5-.322,7.207-.747,37.363-1.595,45.133C651.3,1100.012,648.115,1101.307,648.115,1101.307Z" fill="#182654"/>
        <g id="Group_28626" data-name="Group 28626">
          <path id="Path_127886" data-name="Path 127886" d="M645.578,1047.476c5.118-.008,5.492-1,5.492-1a17.041,17.041,0,0,1,.19-2.889c-1-1.222-11.535-.8-11.656.822a4.933,4.933,0,0,0,.249,2.026C639.9,1047.237,642.569,1047.481,645.578,1047.476Z" fill="#e4e4e4"/>
          <path id="Path_127887" data-name="Path 127887" d="M640.986,1031.87a18.384,18.384,0,0,0-1.117,6.283,17.186,17.186,0,0,1,.954,6.112c-.027.7,0,2.012-.006,2.137-.024.539,10.448.529,9.927-.777-1.411-3.532-.293-3.483.316-7.273.221-1.375.373-4.09,1.136-5.143,1.535-2.12,2.032-2.757,1.327-3.567-.507-.585-1.192.356-1.867,1.08-.536.577-.844.964-1.258,1.481-.169.209-1.479,3.466-1.6,3.32-.216-.264,1.111-3.215,1.233-3.375.366-.478.84-.942,1.359-1.649.821-1.12,2.117-1.905,1.546-3.129-.687-1.475-2.771,1.386-3.711,2.385-.662.7-.771.911-1.129,1.241-.15.139-1.858,3.785-1.948,3.6a17.615,17.615,0,0,1,1.632-3.706c.408-.453.731-.952,1.472-1.73,1.227-1.293,2.856-3.029,2.272-4.014-.732-1.239-2.478.716-3.691,2.029-.479.52-1.257,1.132-1.74,1.734-.256.318-2.718,4.614-2.753,4.563-.222-.325,2.225-4.619,2.408-4.829.357-.407.895-.79,1.638-1.574,1.515-1.6,1.76-1.908,1.532-2.434s-1.025-.877-2.935.69c-.614.5-1.485,1.294-2.143,1.95A28.94,28.94,0,0,0,640.986,1031.87Z" fill="#facfb6"/>
          <path id="Path_127888" data-name="Path 127888" d="M645.6,1048.019c5.119-.01,6.247-1.417,6.247-1.417a27.453,27.453,0,0,0-.589-3.019c-2.518,1.052-9.1,1.695-11.656.822-.1,1.279-.142,2.413-.131,2.6C639.522,1047.815,642.594,1048.023,645.6,1048.019Z" fill="#f3f5ff"/>
        </g>
      </g>
    </g>
    <g id="Group_28641" data-name="Group 28641" transform="translate(4800 1582)">
      <g id="Group_28631" data-name="Group 28631">
        <g id="Group_28629" data-name="Group 28629">
          <path id="Path_127889" data-name="Path 127889" d="M1369.97,1096.613c-.588,3.021-1.694,5.383-2.615,10.494-.519,2.877.422,7.284,5.647,6.424a14.09,14.09,0,0,0,8.81-5.757c2.881-4.183,3.787-6.986,4.572-14.732.093-.926,1.165-2.495,1.493-4.576.374-2.374.739-8.817-5.843-8.634-7.289.2-9.458,7.474-10.042,9.4A46.987,46.987,0,0,0,1369.97,1096.613Z" fill="#0f0f0f"/>
          <path id="Path_127890" data-name="Path 127890" d="M1387.342,1084.719a7.888,7.888,0,0,0-1.163-4.2c-.52-1.138-1.689-2.294-4.7-2.423-7.019-.3-9.389,4.8-9.641,6.745-.242,1.9-1.812,1.083-1.55,7.613.173,4.246-1.036,6.17-2.343,9.771a10.906,10.906,0,0,0-.668,2.854c-.415,2.623-.344,7.164,4.152,7.209,4.752.046,7.567-3.4,9.267-5.507,2.975-3.679,4.817-7.993,5.262-14.252C1386.022,1091.6,1387.623,1086.618,1387.342,1084.719Z" fill="#2a2a30"/>
          <path id="Path_127891" data-name="Path 127891" d="M1373.3,1097.424c-1.828-.04-3.5-.007-3.294-1.168a23.651,23.651,0,0,0,.426-7.8c-.029-.36,1.715-1.855,4.187-1.191Z" fill="#141417"/>
          <path id="Path_127892" data-name="Path 127892" d="M1381.985,1105.03c-2.07,2.828-3.707,4.968-5.67,6.029a9.225,9.225,0,0,1-6.059,1.091c-1.977-.419-4.81-2.748-2.313-9.93.119-.342,8.606-.456,11.635,1.162Z" fill="#141417"/>
          <path id="Path_127893" data-name="Path 127893" d="M1375.629,1087.8a3.192,3.192,0,0,1,3.086-.387c1.181.668,2.59.78,3.121.09,1.754-2.278,2.032-8.985,2.552-8.782a6.179,6.179,0,0,1,2.8,4.1c.813,4.254-1.428,10.4-1.286,10.367a6.954,6.954,0,0,0-3.147,1.944,12.341,12.341,0,0,1-1.257,1.4,4.69,4.69,0,0,1-2.352.886c-.736.056-2.79.134-5.339.055Z" fill="#141417"/>
        </g>
        <g id="Group_28630" data-name="Group 28630">
          <path id="Path_127894" data-name="Path 127894" d="M1311.089,1082.02c-5.708,1.8-7.681,2.874-15.219,3.448-2.246.17-9.827.23-11.955-2.66-.385-.522-.14-2.774.025-3.291.644-2,4.326-2.1,5.833-2.59,6.361-2.09,10.918-2.069,17.3-3.034,1.18-.179,7.569-1.308,10.316-1.367,1.829-.039,8.538,1.835,8.642,2.27,1.042,4.427-3.028,5.123-5.469,5.58C1318.233,1080.811,1315.611,1080.593,1311.089,1082.02Z" fill="#0f0f0f"/>
          <path id="Path_127895" data-name="Path 127895" d="M1327.151,1068.893a.394.394,0,0,0-.039-.452c-1.188-1.414-5.935-.178-10.529,1.135-3.477.993-9.825-2.59-11.706-.724a89.131,89.131,0,0,1-13.186,5.575c-.436.135-.833.267-1.217.4-.14.037-.269.065-.411.1-3.532.949-7.16,3.213-5.857,5.881,1.574,3.223,9.709,2.829,11.954,2.658,7.54-.572,9.51-1.643,15.22-3.447,4.519-1.428,7.142-1.209,9.473-1.644,1.85-.344,4.985-.9,5.254-2.712h0a13.168,13.168,0,0,0,1.139-3.357A22.575,22.575,0,0,0,1327.151,1068.893Z" fill="#2a2a30"/>
          <path id="Path_127896" data-name="Path 127896" d="M1327.185,1068.571s1.229,3.238-1.389,7.91a6.406,6.406,0,0,1-3.306,1.563,72.067,72.067,0,0,1-8.706,1.319c-2.828-3.822-6.98-1.5-7.889-2.54a20.761,20.761,0,0,0-5.059-4.169c-.608-.245,7.065-4.336,7.574-4.146a15.6,15.6,0,0,0,2.424.441c1.687.307,3.312,1.188,4.954.77a59.608,59.608,0,0,1,8.863-1.9C1325.912,1067.736,1326.936,1068.045,1327.185,1068.571Z" fill="#141417"/>
          <path id="Path_127897" data-name="Path 127897" d="M1304.652,1068.83a3.73,3.73,0,0,1,1.582-.5c.522,0,.948,0,.948,0-5.1,2.388-6.431,3.927-6.986,3.891-.366-.023-1.049-.44-1.435-.439C1301.717,1070.2,1304.434,1068.956,1304.652,1068.83Z" fill="#141417"/>
          <path id="Path_127898" data-name="Path 127898" d="M1286.853,1076.189a64.66,64.66,0,0,1,6.54-2.327c1.467-.01,4.439,3.407,5.416,5.335.669,1.321,1.353,3.964.8,3.929-.2-.014-7.155.945-10.506.318-2.729-.512-4.277-1.591-4.808-2.477C1282.8,1078.3,1286.635,1076.314,1286.853,1076.189Z" fill="#141417"/>
        </g>
        <path id="Path_127899" data-name="Path 127899" d="M1345.734,934.321c-1.33-2.379-14.84-7.379-17.211-8.67-4.039-2.2-4.6-6.2-6.211-1.267-3,9.159-7.46,31.873-9.418,47.209a247.607,247.607,0,0,0-1.938,30.293h0c0,.374-.006.734-.009,1.072a.335.335,0,0,0,.054.162c.072,2.313.175,7.643-.129,13.927-.315,6.6-1.433,18.444-2.075,24.635-1.344,13.027-3.765,21.536-7.038,29-.546,1.247,5.511,4.175,13.835,4.325,3.749.066,11.724-3.524,12.351-4.482,1.279-1.967-.258-14.983.8-19.4,2.3-9.631,5.021-19.51,5.393-29.4.18-4.768-1.073-16.956-1.073-16.956-.025-1.6,1.028-5.936,1.843-9.65,1.3-5.943,8.032-16.756,11.5-31.187a159.1,159.1,0,0,0,3.608-17.812C1350.777,940.143,1346.116,935,1345.734,934.321Z" fill="#192859"/>
        <path id="Path_127900" data-name="Path 127900" d="M1385.468,1060.632c-1.813-11.128-1.212-19.8-3.571-27.135-1.07-3.33-6.246-18.11-8.759-25.267.934-16.66.125-18.919,1.112-29.135.936-9.723,2.527-29.82,2.552-36.124.032-8.514-7.148-6.806-9.319-7.163a42.2,42.2,0,0,0-12.441.212s-16.215-6.167-16.637,6.04c-.057,1.621,6.981,45.637,8.956,58.572.629,4.117,1.4,8.271,1.586,9.271l-.033.008c4.9,14.163,10.548,30.6,17.094,54.709,3.534,13.033,1.768,13.83,2.11,21.935.085,2.008.07,7.541,3.948,7.249,4.385-.329,9.848-3.336,12.774-7.069a17.637,17.637,0,0,0,2.874-5.247A164,164,0,0,0,1385.468,1060.632Z" fill="#2c478c"/>
      </g>
      <g id="Group_28638" data-name="Group 28638">
        <g id="Group_28633" data-name="Group 28633">
          <path id="Path_127901" data-name="Path 127901" d="M1337.521,814.072c-1.737-1.408-7.864-1.673-12.367.782-3.111,1.7-4,1.649-9.668,7.778-4.419,4.784-7.126,8.8-14.794,17.6-3.354,3.849-6.862,7.749-10.713,11.676a65.276,65.276,0,0,1-11.649-.421c-6.415-1.249-10.619-1.907-17.187-4.166-2.223-.765-6.355-2.7-10.353-3.745-.517-.135-.748.238-1.116.567-1.065.953.015,2.3-.324,4.778-.328,2.374-2.526,5.226-4.021,7.287a2.635,2.635,0,0,0-.668,1.82c.067.7.33,1.041,1.826,1.687,2.379,1.028,5.791,2.476,7.515,3.085,9.367,3.309,16.186,4.519,25.386,7.205,6.408,1.871,15.88,1.054,17.047.944a.209.209,0,0,0,.133.022c7.175-2.216,14.59-11.643,30.5-28.421,4.569-4.819,8.252-9.413,12.375-18.826C1341.658,818.667,1340.553,816.526,1337.521,814.072Z" fill="#192859"/>
          <g id="Group_28632" data-name="Group 28632">
            <path id="Path_127902" data-name="Path 127902" d="M1248.815,851.006c-1.864,4.736-2.556,4.918-2.556,4.918a7.2,7.2,0,0,0-2.645-.882c-1.5-.636,4.226-10.817,4.986-10.494.59.376,1.049.759,1.219.838C1250.549,845.725,1249.91,848.222,1248.815,851.006Z" fill="#ccc"/>
            <path id="Path_127903" data-name="Path 127903" d="M1222.386,837.048c2.17-2.762,9.565,3.516,16.385,2.675-1.693-1.757-4-3.163-4.42-4.628a2.05,2.05,0,0,1,.672-2.24l6.779,4.651a7.335,7.335,0,0,1,1.55,1.064c1.019,1.281.764,3.668,1.84,4.8a5.921,5.921,0,0,0,3.712,1.693c.937.194-2.171,9.921-3.8,9.268-3.309-1.323-11.009-1.589-13.473-2.683-3.725-1.646-8.237-4.224-8.336-6.663C1223.175,841.977,1221.361,838.352,1222.386,837.048Z" fill="#edc5ac"/>
            <path id="Path_127904" data-name="Path 127904" d="M1249.771,851.412c-1.863,4.736-3.479,5.465-3.479,5.465-.963-.669-2.678-1.835-2.678-1.835,2.273-2.593,4.866-7.808,4.986-10.494,1.218.373,1.862.561,2.033.64C1251.362,845.527,1250.867,848.628,1249.771,851.412Z" fill="#f5f7ff"/>
          </g>
        </g>
        <g id="Group_28637" data-name="Group 28637">
          <path id="Path_127905" data-name="Path 127905" d="M1321.528,852.018a114.676,114.676,0,0,1,.665-23.278,18.377,18.377,0,0,1,1.134-3.893,19.482,19.482,0,0,1,3.671-5.59,12.056,12.056,0,0,1,6.451-3.153c1.8-.362,16.847,6.8,23.534,10.99,11.005,6.9,27.019,18.923,26.9,20.383a5.518,5.518,0,0,1,.6,1.086c1.463,3.277,4.292,11.54-5.72,36.348-7.7,19.069-1.89,41.4-3.249,42.851-2.675,2.867-11.827,3.058-11.827,3.058-18.533-.219-35.217-5.065-42.021-11.324-.663-.61.068-2.747.723-6.589.966-5.708,3.533-12.253,2.987-28.253C1325.253,881.088,1321.889,857.726,1321.528,852.018Z" fill="#d5d7de"/>
          <g id="Group_28634" data-name="Group 28634">
            <path id="Path_127906" data-name="Path 127906" d="M1339.027,932.177c.725-12.193,16.782-5.627,16.782-5.627a42.161,42.161,0,0,1,12.442.094c2.162.411,7.769-1.12,7.527,7.391-.066,2.308,1.529,6.161.785,11.281-3.714,3.34-9.635,4.7-13.368,5.019-12.506,1.081-23.894-.656-24.222-1.372C1338.3,943.9,1338.931,933.8,1339.027,932.177Z" fill="#192859"/>
            <path id="Path_127907" data-name="Path 127907" d="M1356.2,833.885a49.266,49.266,0,0,0,7.147-3.344c10.133,7.3,20.651,15.476,20.532,16.936a5.518,5.518,0,0,1,.6,1.086c1.463,3.277,9.443,12.406-4.663,37.282-8.623,15.206-1.129,54.158-2.319,55.757-3.388,4.565-10.593,6.3-14.892,6.674-12.514,1.083-16.954.719-25.359-1.941-2.827-.894-10.107-12.952-9.51-21.379,1.329-18.765,4.387-41.3,6.152-59.33C1335.014,854.142,1348.064,840.3,1356.2,833.885Z" fill="#2c478c"/>
            <path id="Path_127908" data-name="Path 127908" d="M1321.251,852.024a117.505,117.505,0,0,1,.583-23.293,21.5,21.5,0,0,1,1.232-4.211c.645-1.842,1.99-5.016,3.086-6.144,1.468-1.506,4.186-3.895,7.6-3.895,1.527,0,11.82,6.139,19.167,10.353-3.9-.862-7.3-1.523-11.222,3.733-8.977,12.031-7.136,30.178-7.81,37.059-1.783,18.219-3.921,38.623-5.422,58.855-.218,2.943-5.752,13.825-7.939,12.419-1.505-.968-1.868-1.758-2-2.294-.176-.714,2.289-17.956,2.931-22.6.907-6.563,3.306-21.135,3.237-27.464C1324.657,880.975,1321.613,857.731,1321.251,852.024Z" fill="#2c478c"/>
          </g>
          <path id="Path_127909" data-name="Path 127909" d="M1329.061,856.99c-.746-11.872-.72-20.71-.3-23.13,0,0,7.348,5.847,7.389,5.047.277-.655-5.624-5.425-4.777-6.749,1.186-1.854,5.343-12.885,13.775-13.111,1.526-.041,5.171.964,7.773,5.787-14.2,2.051-16.738,17.46-17.862,28.945-2.051,20.944-1.436,14.872-3.083,31.132C1331.022,874.1,1329.422,862.7,1329.061,856.99Z" fill="#192859"/>
          <path id="Path_127910" data-name="Path 127910" d="M1352.177,820.057a11.463,11.463,0,0,1,6.338-1.041c-.576,3.316.349,4.326-.237,4.669-3.991,2.331-14.091,8.166-14.091,8.166-2.817,2.095-2.81,3.363-5.312,4.395a19.353,19.353,0,0,1,2.521-8.771C1341.753,826.679,1348.078,822.053,1352.177,820.057Z" fill="#f5f7ff"/>
          <g id="Group_28636" data-name="Group 28636">
            <g id="Group_28635" data-name="Group 28635">
              <path id="Path_127911" data-name="Path 127911" d="M1362.63,828.135s-8.1,6.247-15.461,2.938a6.025,6.025,0,0,1-3.651-4.631l.553-7.787,22.033-7.924s-2.738,8.535-3.194,11.1A46.424,46.424,0,0,0,1362.63,828.135Z" fill="#edc5ac"/>
              <path id="Path_127912" data-name="Path 127912" d="M1340.346,781.713c-1.348,2.316-2.362,6.009-2.986,10.2-.1.709.612,2.185.55,3.523-.059,1.249-.838,1.578-1.137,3.367-1.593,9.559.594,18.244,4.253,20.4,2.422,1.426,6.113,2.032,10.31,1.407,2.561-.381,6.1-2.418,8.865-3.807,2.537-1.273,4.672-4.124,7.1-6.4,11.436-10.726,8.04-23.311-.848-29.094S1344.732,774.2,1340.346,781.713Z" fill="#fbd1b8"/>
              <path id="Path_127913" data-name="Path 127913" d="M1368.73,783.055c-1.293-.2-2.35-.308-2.93-.407-2.643-.44-7.871,4.475-9.111,14.135-.033.256,1.129,2.672.99,3.517-.127.757-1.58,2.619-1.78,3.331-2.031,7.382-1.226,13.546-8.936,17.189a21.156,21.156,0,0,0,4.373-.207c2.561-.381,6.1-2.418,8.865-3.807,2.537-1.273,4.672-4.124,7.1-6.4C1377.694,800.659,1375.834,789.373,1368.73,783.055Z" fill="#edc5ac"/>
              <path id="Path_127914" data-name="Path 127914" d="M1366.451,781.316c-8.89-5.779-20.631-2.14-25.467.089a3.327,3.327,0,0,0-1.416,1.921,16.709,16.709,0,0,0,7.838,3.722c1.661.37,4.118.605,4.772.76.593.144-1.1.339-1.1.339s5.447.381,6.254.521c2.767.476,3.709.858,3.9,1.022,1.725,1.442.051,2.23.6,3.619.675,1.7,2.909,2.339,2.23,4.321a43.311,43.311,0,0,0-1.178,4.73s4.062,1.269,4.184.89c.584-1.818,1.064-7.026,4.3-6.563C1375.631,797.295,1375.339,787.1,1366.451,781.316Z" fill="#edc5ac"/>
              <path id="Path_127915" data-name="Path 127915" d="M1342.331,771.838c-3.348.517-5.842,9.65-.712,12,4.64,2.127,3.574,1.684,8.65,2.859.738.171,6.179.386,6.179.386s-2.685.377-2.046.506c2.855.58,5.315,1.027,7.028,1.453.463.117.344.72.194,1.329-.033.136,1.372-.112,1.372-.112a8.608,8.608,0,0,0-1.532.839,2.42,2.42,0,0,0,.09,1.294c.672,1.708,3.349,2.265,2.668,4.246-.605,1.752-1.379,5.174-1.379,5.174l3.79,1.055s1.175-7.531,4.222-6.441c5.278,1.888-6.527,16.188-4.958,15.378,3.541-1.834,17.143-15.223,12.742-29.128C1373.932,767.8,1346.993,771.119,1342.331,771.838Z"/>
            </g>
          </g>
          <path id="Path_127916" data-name="Path 127916" d="M1358.486,825.832a13.662,13.662,0,0,0,4.614-4.619c-.577,3.316,2.167,6.636,1.581,6.978-3.991,2.332-17.492,10.142-19.995,10.79,1.028-2.208,1.052-2.673,2.464-8.965C1347.342,829.162,1354.388,827.828,1358.486,825.832Z" fill="#f7f9ff"/>
          <path id="Path_127917" data-name="Path 127917" d="M1341.53,828.056a6.973,6.973,0,0,1,5.62,1.96c.146,1.618-.576,3.948-1.063,4.353-.444.371-1.885,1.1-2.386,2.121a23.655,23.655,0,0,0-1.427,5.717c-1.13,8.6-4.626,23.758-4.626,23.758-1.775,1.028-3.736.929-3.591-1.939.3-5.976,1.32-16.53,2.607-21.4.421-1.592,3.316-5.671,3.572-6.814C1340.428,834.959,1339.828,830.086,1341.53,828.056Z" fill="#c1272d"/>
          <path id="Path_127918" data-name="Path 127918" d="M1357.95,830.158c5.754-3.575,4.833-7.878,5.513-6.729,2.826,4.762,5.11,10.225,4.525,10.568-3.992,2.331-8.025,3.749-13.743,11.784,0,0-7.851-1.331-8.429-.69-.475.526,8.173,2.935,8.173,2.935-10.037,7.673-14.357,15.6-22.04,37.446,1.646-16.261,0,0,2.051-20.946C1335.123,853.042,1348.422,835.606,1357.95,830.158Z" fill="#192859"/>
          <path id="Path_127919" data-name="Path 127919" d="M1341.712,915.64l21.914.221s.269,6.463-.347,7.887c-1.145,2.653-21.071,2.246-21.572-.788C1341.424,921.254,1341.381,916.482,1341.712,915.64Z" fill="#192859"/>
          <path id="Path_127920" data-name="Path 127920" d="M1321.581,917.371c-.175.375-.874.381-1.376.07a31.362,31.362,0,0,1,1.053-6.163c.2-.752.434-1.6.689-2.655l1.424,1.364A60.808,60.808,0,0,1,1321.581,917.371Z" fill="#192859"/>
          <path id="Path_127921" data-name="Path 127921" d="M1322.3,854.995l-.248-2.308c1.817,1.151,3.832,2.278,5.747,3.309v2.245S1323.394,855.769,1322.3,854.995Z" fill="#192859"/>
          <path id="Path_127922" data-name="Path 127922" d="M1326.007,913.5a3.072,3.072,0,0,0,.9,2.632c.669.583,1.349.35,1.52-.521a3.077,3.077,0,0,0-.9-2.632C1326.857,912.4,1326.177,912.63,1326.007,913.5Z" fill="#192859"/>
          <path id="Path_127923" data-name="Path 127923" d="M1327.777,895.321a3.076,3.076,0,0,0,.9,2.632c.67.582,1.35.35,1.521-.521a3.078,3.078,0,0,0-.9-2.633C1328.627,894.217,1327.947,894.45,1327.777,895.321Z" fill="#192859"/>
        </g>
      </g>
      <g id="Group_28640" data-name="Group 28640">
        <path id="Path_127924" data-name="Path 127924" d="M1378.763,909.188c.106-.095.163-.153.163-.153l-.008-.018c.708-.8,3.583-4.207,4.184-7.822,1.749-10.506,2.917-17.847,4.362-27.381,1.009-6.66.072-13.654.018-17.586a12.5,12.5,0,0,0-5.917-11.043c-1.955-1.226-6.683-.584-8.755.916a17.762,17.762,0,0,0-6.791,10.066c-1.518,6.218-2.48,18.378-3.084,26.324-.088,1.158-.165,2.839-.232,4.736-4.068-1.842-9.416-4.279-15.791-7.218-9.141-4.216-16.968-7.929-16.968-7.929-.739-.375-1.954.574-4.711,3.978-.966,1.193-5.917,9.34-5.109,9.989,2.517,2.014,9.689,6.194,13.466,8.447a259.348,259.348,0,0,0,31.506,15.661c8.383,3.123,12.79-.192,13.664-.965h0Z" fill="#192859"/>
        <g id="Group_28639" data-name="Group 28639">
          <path id="Path_127925" data-name="Path 127925" d="M1325.9,879.109c-2.819,4.236-3.874,4.067-3.874,4.067a12.606,12.606,0,0,1-2.318-1.158c-.55-1.488,5.939-9.743,7.085-9.209,1,.979,1.506,1.253,1.546,1.436C1328.5,874.993,1327.553,876.618,1325.9,879.109Z" fill="#ccc"/>
          <path id="Path_127926" data-name="Path 127926" d="M1314.384,862.729a9.291,9.291,0,0,0,4.45,2.49c-.109-.3-1.93-2.45-2.076-2.713-1.371-2.411-1.107-2.955-.788-4.267.339-1.385,1.28.356,3.314,2.131a18.3,18.3,0,0,1,3.3,3.428,12.541,12.541,0,0,1,.971,2.744c1.067,2.724.713,5.113,2.651,6.808a8.321,8.321,0,0,0,.847.669c.425.3-4.481,8.722-5.456,7.787-1.711-1.643-3.721-1.355-5.021-1.955-1.679-.778-3.828-2.362-7.586-5.526-1.177-.99-2.618-4.795-2.917-6.905a44.392,44.392,0,0,1,.546-8.8C1307.213,855.8,1312.381,860.52,1314.384,862.729Z" fill="#fbd1b8"/>
          <path id="Path_127927" data-name="Path 127927" d="M1326.488,879.766c-2.818,4.237-4.249,4.53-4.249,4.53-.79-.626-2.535-2.278-2.535-2.278,2.255-1.508,6.4-6.609,7.085-9.209,1.113.622,2.079,1.207,2.228,1.32C1329.659,874.614,1328.146,877.275,1326.488,879.766Z" fill="#f5f7ff"/>
        </g>
      </g>
    </g>
  </g>
</svg>
