<svg xmlns="http://www.w3.org/2000/svg" xmlns:xlink="http://www.w3.org/1999/xlink" width="1158.284" height="792.387" viewBox="0 0 1158.284 792.387">
  <defs>
    <linearGradient id="linear-gradient" y1="0.24" x2="0.62" y2="0.244" gradientUnits="objectBoundingBox">
      <stop offset="0" stop-color="#ffe7d9"/>
      <stop offset="0.791" stop-color="#ffdeca"/>
      <stop offset="0.858" stop-color="#ffc3a1"/>
      <stop offset="0.887" stop-color="#ffbb94"/>
      <stop offset="1" stop-color="#ffb388"/>
    </linearGradient>
  </defs>
  <g id="img_fully_tursted" transform="translate(-12465.861 -1800.438)">
    <path id="Path_131362" data-name="Path 131362" d="M9473.638-6450.68c-171.082-85.116-266.359-25.75-428.4,60.082s-297.656,140.19-219.765,283.242,267.752,205.995,481.258,197.412,332.428-77.248,372.765-231.744S9644.721-6365.564,9473.638-6450.68Z" transform="translate(3663 8502)" fill="#f5f5f5"/>
    <g id="Group_30643" data-name="Group 30643">
      <path id="Path_131358" data-name="Path 131358" d="M8921.3-6226.222l-83.105,49.177,273.16,207.964" transform="translate(3884 8390.074)" fill="none" stroke="#ec691f" stroke-linecap="round" stroke-linejoin="round" stroke-width="2" stroke-dasharray="8"/>
      <path id="Path_131359" data-name="Path 131359" d="M8884.892-6226.222l-46.7,31.868,110.817,81.425" transform="translate(4057.41 8521.074)" fill="none" stroke="#ec691f" stroke-linecap="round" stroke-linejoin="round" stroke-width="2" stroke-dasharray="8"/>
      <path id="Path_131360" data-name="Path 131360" d="M8838.2-6182.642l63.105-43.58,122.849,89.869" transform="translate(3949 8577.672)" fill="none" stroke="#ec691f" stroke-linecap="round" stroke-linejoin="round" stroke-width="2" stroke-dasharray="8"/>
      <g id="Group_30636" data-name="Group 30636" transform="translate(12771.211 1846.476)">
        <path id="Path_64191" data-name="Path 64191" d="M232.708,259.461s62.389,17.673,44.308,39.189-59.307,42.122-99.605,50.3-74.621-20.71-60.815-45.036S232.708,259.461,232.708,259.461Z" transform="translate(-113.487 -16.993)" fill="#f5f5f5"/>
        <path id="Path_64192" data-name="Path 64192" d="M159.676,215.931l-33.2-16.6,99.779-49.89,33.2,16.6Z" transform="translate(-112.761 -21.723)" fill="#e5e5e5"/>
        <path id="Path_64193" data-name="Path 64193" d="M126.46,325.764l33.2,16.6V213.878l-33.2-16.606Z" transform="translate(-112.761 -19.667)" fill="#afafaf"/>
        <path id="Path_64194" data-name="Path 64194" d="M244.178,216.8l5.1,2.551V62.958l-5.1-2.551Z" transform="translate(-107.701 -25.55)" fill="#afafaf"/>
        <path id="Path_64195" data-name="Path 64195" d="M257.722,64.186V53.131l-99.784,49.9v11.056Z" transform="translate(-111.409 -25.864)" fill="#f5f5f5"/>
        <path id="Path_64196" data-name="Path 64196" d="M158.293,344.057l99.784-49.9V165.664l-99.784,49.9Z" transform="translate(-111.394 -21.025)" fill="#d3d3d3"/>
        <path id="Path_64197" data-name="Path 64197" d="M162.833,270.937l89.579-44.8V171.282l-89.579,44.8Z" transform="translate(-111.199 -20.784)" fill="#fff"/>
        <path id="Path_64198" data-name="Path 64198" d="M162.833,295.709l89.579-44.8v-19.5l-89.579,44.8Z" transform="translate(-111.199 -18.198)" fill="#ff975d"/>
        <g id="Group_11578" data-name="Group 11578" transform="translate(68.858 169.653)">
          <path id="Path_64199" data-name="Path 64199" d="M216.571,197.8l16.307-8.155v44.317l-16.307,8.155Z" transform="translate(-177.745 -189.648)" fill="#6fe777"/>
          <path id="Path_64200" data-name="Path 64200" d="M197.958,207.1l16.307-8.155v44.319l-16.307,8.155Z" transform="translate(-178.546 -189.243)" fill="#505050"/>
          <path id="Path_64201" data-name="Path 64201" d="M179.346,216.417l16.307-8.155V252.58l-16.307,8.155Z" transform="translate(-179.346 -188.846)" fill="#e4e71a"/>
          <path id="Path_64202" data-name="Path 64202" d="M221.142,236.138l6.773-3.385V225.98l-6.773,3.386Z" transform="translate(-177.549 -188.084)" fill="#fff"/>
          <path id="Path_64203" data-name="Path 64203" d="M202.53,245.446l6.773-3.386v-6.773l-6.773,3.385Z" transform="translate(-178.35 -187.683)" fill="#fff"/>
          <path id="Path_64204" data-name="Path 64204" d="M183.918,254.758l6.773-3.386V244.6l-6.773,3.383Z" transform="translate(-179.15 -187.286)" fill="#fff"/>
        </g>
        <path id="Path_64205" data-name="Path 64205" d="M249.069,212.082l5.1-2.551V53.131l-5.1,2.551Z" transform="translate(-107.491 -25.864)" fill="#d3d3d3"/>
        <path id="Path_64206" data-name="Path 64206" d="M158.293,257.48l5.1-2.551V98.529l-5.1,2.551Z" transform="translate(-111.394 -23.912)" fill="#d3d3d3"/>
        <path id="Path_64207" data-name="Path 64207" d="M153.4,260.364l5.1,2.551V106.51l-5.1-2.551Z" transform="translate(-111.604 -23.678)" fill="#afafaf"/>
        <g id="Group_11579" data-name="Group 11579" transform="translate(113.182 230.295)">
          <path id="Path_64208" data-name="Path 64208" d="M224.861,283.693h0a5.7,5.7,0,0,0,3.02-4.529v-29.51c0-1.662-1.355-2.341-3.02-1.509h0a5.7,5.7,0,0,0-3.019,4.529v29.509C221.843,283.844,223.2,284.524,224.861,283.693Z" transform="translate(-221.842 -247.79)" fill="#331710"/>
          <path id="Path_64209" data-name="Path 64209" d="M222.588,257.38c0,1.238,1,1.741,2.243,1.122a4.222,4.222,0,0,0,2.243-3.366c0-1.239-1-1.741-2.243-1.122a4.222,4.222,0,0,0-2.243,3.366Z" transform="translate(-221.812 -247.533)" fill="#6fe777"/>
          <path id="Path_64210" data-name="Path 64210" d="M222.588,271.173c0,5.579,1,9.6,2.243,8.979s2.243-5.645,2.243-11.223-1-9.6-2.243-8.979S222.588,265.595,222.588,271.173Z" transform="translate(-221.812 -247.269)" fill="#472016"/>
        </g>
        <g id="Group_11580" data-name="Group 11580" transform="translate(93.771 240.004)">
          <path id="Path_64211" data-name="Path 64211" d="M206.252,293h0a5.7,5.7,0,0,0,3.019-4.529V258.963c0-1.66-1.355-2.341-3.019-1.509h0a5.7,5.7,0,0,0-3.02,4.529v29.511C203.232,293.153,204.591,293.832,206.252,293Z" transform="translate(-203.232 -257.099)" fill="#331710"/>
          <path id="Path_64212" data-name="Path 64212" d="M203.976,266.689c0,1.239,1,1.741,2.243,1.122a4.222,4.222,0,0,0,2.243-3.366c0-1.238-1-1.741-2.243-1.122A4.221,4.221,0,0,0,203.976,266.689Z" transform="translate(-203.2 -256.842)" fill="#291213"/>
          <ellipse id="Ellipse_443" data-name="Ellipse 443" cx="10.166" cy="2.229" rx="10.166" ry="2.229" transform="translate(0.531 32.889) rotate(-88.534)" fill="#472016"/>
        </g>
        <g id="Group_11581" data-name="Group 11581" transform="translate(73.993 249.896)">
          <path id="Path_64213" data-name="Path 64213" d="M187.288,302.486h0a5.7,5.7,0,0,0,3.02-4.529V268.446c0-1.66-1.355-2.34-3.02-1.508h0a5.7,5.7,0,0,0-3.019,4.529v29.509C184.269,302.637,185.627,303.317,187.288,302.486Z" transform="translate(-184.269 -266.583)" fill="#331710"/>
          <path id="Path_64214" data-name="Path 64214" d="M185.012,276.172c0,1.239,1,1.742,2.243,1.122a4.221,4.221,0,0,0,2.243-3.366c0-1.239-1-1.741-2.243-1.122A4.221,4.221,0,0,0,185.012,276.172Z" transform="translate(-184.237 -266.326)" fill="#e4e71a"/>
          <path id="Path_64215" data-name="Path 64215" d="M185.012,289.966c0,5.579,1,9.6,2.243,8.979s2.243-5.645,2.243-11.223-1-9.6-2.243-8.979S185.012,284.387,185.012,289.966Z" transform="translate(-184.237 -266.061)" fill="#472016"/>
        </g>
        <path id="Path_64216" data-name="Path 64216" d="M234.669,306.352a17.112,17.112,0,0,0,6.875-6.378c4.647-7.426,3.91-17.107,3.826-18.048V68.3l-2.589,1.294V283.34l.005.058c.009.09.857,9.384-3.16,15.8a12.132,12.132,0,0,1-4.958,4.57c-5.371,2.686-8.579-5.048-8.579-14.078l-2.589,1.294C223.5,299.4,226.474,310.45,234.669,306.352Z" transform="translate(-108.592 -25.211)" fill="#331710"/>
        <path id="Path_64217" data-name="Path 64217" d="M178.018,334.286c8.195-4.1,11.171-18.12,11.171-26.544l-2.589,1.294c0,9.03-3.209,19.976-8.579,22.661-2.053,1.028-3.675,1.153-4.958.388-4.017-2.4-3.169-12.535-3.16-12.637l.005-.123V105.643l-2.589,1.294V320.562c-.085,1.024-.821,11.443,3.826,14.223C172.92,335.846,175.233,335.679,178.018,334.286Z" transform="translate(-111.014 -23.603)" fill="#331710"/>
        <path id="Path_64218" data-name="Path 64218" d="M211.549,317.77a14.5,14.5,0,0,0,5.592-5.045c4.01-6.023,3.994-14.418,3.985-18.452v-.483c0-53.829-1.775-211.044-1.792-212.625l-2.589,1.324c.018,1.581,1.794,158.782,1.794,212.6v.489c.007,3.686.023,11.356-3.229,16.239a9.578,9.578,0,0,1-3.76,3.369c-2.992,1.5-4.508-3.926-4.508-16.115l-2.589,1.294C204.452,310.725,205.3,320.9,211.549,317.77Z" transform="translate(-109.409 -24.658)" fill="#331710"/>
        <path id="Path_64219" data-name="Path 64219" d="M271.082,55.668v-12.8l-115.576,57.8V113.47Z" transform="translate(-111.513 -26.306)" fill="#d3d3d3"/>
        <path id="Path_64220" data-name="Path 64220" d="M123.673,95.166l33.2,16.6V98.965l-33.2-16.6Z" transform="translate(-112.881 -24.608)" fill="#afafaf"/>
        <path id="Path_64221" data-name="Path 64221" d="M239.219,26.988l33.2,16.6L156.845,101.376l-33.2-16.6Z" transform="translate(-112.883 -26.988)" fill="#e5e5e5"/>
      </g>
      <path id="Path_131357" data-name="Path 131357" d="M8838.2-6177.044l83.105-49.177,277.081,211.333" transform="translate(3786 8447.074)" fill="none" stroke="#ec691f" stroke-linecap="round" stroke-linejoin="round" stroke-width="2" stroke-dasharray="8"/>
      <g id="Group_30637" data-name="Group 30637" transform="translate(12912.211 1977.476)">
        <path id="Path_64191-2" data-name="Path 64191" d="M232.708,259.461s62.389,17.673,44.308,39.189-59.307,42.122-99.605,50.3-74.621-20.71-60.815-45.036S232.708,259.461,232.708,259.461Z" transform="translate(-113.487 -16.993)" fill="#f5f5f5"/>
        <path id="Path_64192-2" data-name="Path 64192" d="M159.676,215.931l-33.2-16.6,99.779-49.89,33.2,16.6Z" transform="translate(-112.761 -21.723)" fill="#e5e5e5"/>
        <path id="Path_64193-2" data-name="Path 64193" d="M126.46,325.764l33.2,16.6V213.878l-33.2-16.606Z" transform="translate(-112.761 -19.667)" fill="#afafaf"/>
        <path id="Path_64194-2" data-name="Path 64194" d="M244.178,216.8l5.1,2.551V62.958l-5.1-2.551Z" transform="translate(-107.701 -25.55)" fill="#afafaf"/>
        <path id="Path_64195-2" data-name="Path 64195" d="M257.722,64.186V53.131l-99.784,49.9v11.056Z" transform="translate(-111.409 -25.864)" fill="#f5f5f5"/>
        <path id="Path_64196-2" data-name="Path 64196" d="M158.293,344.057l99.784-49.9V165.664l-99.784,49.9Z" transform="translate(-111.394 -21.025)" fill="#d3d3d3"/>
        <path id="Path_64197-2" data-name="Path 64197" d="M162.833,270.937l89.579-44.8V171.282l-89.579,44.8Z" transform="translate(-111.199 -20.784)" fill="#fff"/>
        <path id="Path_64198-2" data-name="Path 64198" d="M162.833,295.709l89.579-44.8v-19.5l-89.579,44.8Z" transform="translate(-111.199 -18.198)" fill="#ff975d"/>
        <g id="Group_11578-2" data-name="Group 11578" transform="translate(68.858 169.653)">
          <path id="Path_64199-2" data-name="Path 64199" d="M216.571,197.8l16.307-8.155v44.317l-16.307,8.155Z" transform="translate(-177.745 -189.648)" fill="#6fe777"/>
          <path id="Path_64200-2" data-name="Path 64200" d="M197.958,207.1l16.307-8.155v44.319l-16.307,8.155Z" transform="translate(-178.546 -189.243)" fill="#505050"/>
          <path id="Path_64201-2" data-name="Path 64201" d="M179.346,216.417l16.307-8.155V252.58l-16.307,8.155Z" transform="translate(-179.346 -188.846)" fill="#e4e71a"/>
          <path id="Path_64202-2" data-name="Path 64202" d="M221.142,236.138l6.773-3.385V225.98l-6.773,3.386Z" transform="translate(-177.549 -188.084)" fill="#fff"/>
          <path id="Path_64203-2" data-name="Path 64203" d="M202.53,245.446l6.773-3.386v-6.773l-6.773,3.385Z" transform="translate(-178.35 -187.683)" fill="#fff"/>
          <path id="Path_64204-2" data-name="Path 64204" d="M183.918,254.758l6.773-3.386V244.6l-6.773,3.383Z" transform="translate(-179.15 -187.286)" fill="#fff"/>
        </g>
        <path id="Path_64205-2" data-name="Path 64205" d="M249.069,212.082l5.1-2.551V53.131l-5.1,2.551Z" transform="translate(-107.491 -25.864)" fill="#d3d3d3"/>
        <path id="Path_64206-2" data-name="Path 64206" d="M158.293,257.48l5.1-2.551V98.529l-5.1,2.551Z" transform="translate(-111.394 -23.912)" fill="#d3d3d3"/>
        <path id="Path_64207-2" data-name="Path 64207" d="M153.4,260.364l5.1,2.551V106.51l-5.1-2.551Z" transform="translate(-111.604 -23.678)" fill="#afafaf"/>
        <g id="Group_11579-2" data-name="Group 11579" transform="translate(113.182 230.295)">
          <path id="Path_64208-2" data-name="Path 64208" d="M224.861,283.693h0a5.7,5.7,0,0,0,3.02-4.529v-29.51c0-1.662-1.355-2.341-3.02-1.509h0a5.7,5.7,0,0,0-3.019,4.529v29.509C221.843,283.844,223.2,284.524,224.861,283.693Z" transform="translate(-221.842 -247.79)" fill="#331710"/>
          <path id="Path_64209-2" data-name="Path 64209" d="M222.588,257.38c0,1.238,1,1.741,2.243,1.122a4.222,4.222,0,0,0,2.243-3.366c0-1.239-1-1.741-2.243-1.122a4.222,4.222,0,0,0-2.243,3.366Z" transform="translate(-221.812 -247.533)" fill="#6fe777"/>
          <path id="Path_64210-2" data-name="Path 64210" d="M222.588,271.173c0,5.579,1,9.6,2.243,8.979s2.243-5.645,2.243-11.223-1-9.6-2.243-8.979S222.588,265.595,222.588,271.173Z" transform="translate(-221.812 -247.269)" fill="#472016"/>
        </g>
        <g id="Group_11580-2" data-name="Group 11580" transform="translate(93.771 240.004)">
          <path id="Path_64211-2" data-name="Path 64211" d="M206.252,293h0a5.7,5.7,0,0,0,3.019-4.529V258.963c0-1.66-1.355-2.341-3.019-1.509h0a5.7,5.7,0,0,0-3.02,4.529v29.511C203.232,293.153,204.591,293.832,206.252,293Z" transform="translate(-203.232 -257.099)" fill="#331710"/>
          <path id="Path_64212-2" data-name="Path 64212" d="M203.976,266.689c0,1.239,1,1.741,2.243,1.122a4.222,4.222,0,0,0,2.243-3.366c0-1.238-1-1.741-2.243-1.122A4.221,4.221,0,0,0,203.976,266.689Z" transform="translate(-203.2 -256.842)" fill="#291213"/>
          <ellipse id="Ellipse_443-2" data-name="Ellipse 443" cx="10.166" cy="2.229" rx="10.166" ry="2.229" transform="translate(0.531 32.889) rotate(-88.534)" fill="#472016"/>
        </g>
        <g id="Group_11581-2" data-name="Group 11581" transform="translate(73.993 249.896)">
          <path id="Path_64213-2" data-name="Path 64213" d="M187.288,302.486h0a5.7,5.7,0,0,0,3.02-4.529V268.446c0-1.66-1.355-2.34-3.02-1.508h0a5.7,5.7,0,0,0-3.019,4.529v29.509C184.269,302.637,185.627,303.317,187.288,302.486Z" transform="translate(-184.269 -266.583)" fill="#331710"/>
          <path id="Path_64214-2" data-name="Path 64214" d="M185.012,276.172c0,1.239,1,1.742,2.243,1.122a4.221,4.221,0,0,0,2.243-3.366c0-1.239-1-1.741-2.243-1.122A4.221,4.221,0,0,0,185.012,276.172Z" transform="translate(-184.237 -266.326)" fill="#e4e71a"/>
          <path id="Path_64215-2" data-name="Path 64215" d="M185.012,289.966c0,5.579,1,9.6,2.243,8.979s2.243-5.645,2.243-11.223-1-9.6-2.243-8.979S185.012,284.387,185.012,289.966Z" transform="translate(-184.237 -266.061)" fill="#472016"/>
        </g>
        <path id="Path_64216-2" data-name="Path 64216" d="M234.669,306.352a17.112,17.112,0,0,0,6.875-6.378c4.647-7.426,3.91-17.107,3.826-18.048V68.3l-2.589,1.294V283.34l.005.058c.009.09.857,9.384-3.16,15.8a12.132,12.132,0,0,1-4.958,4.57c-5.371,2.686-8.579-5.048-8.579-14.078l-2.589,1.294C223.5,299.4,226.474,310.45,234.669,306.352Z" transform="translate(-108.592 -25.211)" fill="#331710"/>
        <path id="Path_64217-2" data-name="Path 64217" d="M178.018,334.286c8.195-4.1,11.171-18.12,11.171-26.544l-2.589,1.294c0,9.03-3.209,19.976-8.579,22.661-2.053,1.028-3.675,1.153-4.958.388-4.017-2.4-3.169-12.535-3.16-12.637l.005-.123V105.643l-2.589,1.294V320.562c-.085,1.024-.821,11.443,3.826,14.223C172.92,335.846,175.233,335.679,178.018,334.286Z" transform="translate(-111.014 -23.603)" fill="#331710"/>
        <path id="Path_64218-2" data-name="Path 64218" d="M211.549,317.77a14.5,14.5,0,0,0,5.592-5.045c4.01-6.023,3.994-14.418,3.985-18.452v-.483c0-53.829-1.775-211.044-1.792-212.625l-2.589,1.324c.018,1.581,1.794,158.782,1.794,212.6v.489c.007,3.686.023,11.356-3.229,16.239a9.578,9.578,0,0,1-3.76,3.369c-2.992,1.5-4.508-3.926-4.508-16.115l-2.589,1.294C204.452,310.725,205.3,320.9,211.549,317.77Z" transform="translate(-109.409 -24.658)" fill="#331710"/>
        <path id="Path_64219-2" data-name="Path 64219" d="M271.082,55.668v-12.8l-115.576,57.8V113.47Z" transform="translate(-111.513 -26.306)" fill="#d3d3d3"/>
        <path id="Path_64220-2" data-name="Path 64220" d="M123.673,95.166l33.2,16.6V98.965l-33.2-16.6Z" transform="translate(-112.881 -24.608)" fill="#afafaf"/>
        <path id="Path_64221-2" data-name="Path 64221" d="M239.219,26.988l33.2,16.6L156.845,101.376l-33.2-16.6Z" transform="translate(-112.883 -26.988)" fill="#e5e5e5"/>
      </g>
      <g id="Group_30635" data-name="Group 30635" transform="translate(12486.211 2002.476)">
        <path id="Path_64191-3" data-name="Path 64191" d="M232.708,259.461s62.389,17.673,44.308,39.189-59.307,42.122-99.605,50.3-74.621-20.71-60.815-45.036S232.708,259.461,232.708,259.461Z" transform="translate(-113.487 -16.993)" fill="#f5f5f5"/>
        <path id="Path_64192-3" data-name="Path 64192" d="M159.676,215.931l-33.2-16.6,99.779-49.89,33.2,16.6Z" transform="translate(-112.761 -21.723)" fill="#e5e5e5"/>
        <path id="Path_64193-3" data-name="Path 64193" d="M126.46,325.764l33.2,16.6V213.878l-33.2-16.606Z" transform="translate(-112.761 -19.667)" fill="#afafaf"/>
        <path id="Path_64194-3" data-name="Path 64194" d="M244.178,216.8l5.1,2.551V62.958l-5.1-2.551Z" transform="translate(-107.701 -25.55)" fill="#afafaf"/>
        <path id="Path_64195-3" data-name="Path 64195" d="M257.722,64.186V53.131l-99.784,49.9v11.056Z" transform="translate(-111.409 -25.864)" fill="#f5f5f5"/>
        <path id="Path_64196-3" data-name="Path 64196" d="M158.293,344.057l99.784-49.9V165.664l-99.784,49.9Z" transform="translate(-111.394 -21.025)" fill="#d3d3d3"/>
        <path id="Path_64197-3" data-name="Path 64197" d="M162.833,270.937l89.579-44.8V171.282l-89.579,44.8Z" transform="translate(-111.199 -20.784)" fill="#fff"/>
        <path id="Path_64198-3" data-name="Path 64198" d="M162.833,295.709l89.579-44.8v-19.5l-89.579,44.8Z" transform="translate(-111.199 -18.198)" fill="#ff975d"/>
        <g id="Group_11578-3" data-name="Group 11578" transform="translate(68.858 169.653)">
          <path id="Path_64199-3" data-name="Path 64199" d="M216.571,197.8l16.307-8.155v44.317l-16.307,8.155Z" transform="translate(-177.745 -189.648)" fill="#6fe777"/>
          <path id="Path_64200-3" data-name="Path 64200" d="M197.958,207.1l16.307-8.155v44.319l-16.307,8.155Z" transform="translate(-178.546 -189.243)" fill="#505050"/>
          <path id="Path_64201-3" data-name="Path 64201" d="M179.346,216.417l16.307-8.155V252.58l-16.307,8.155Z" transform="translate(-179.346 -188.846)" fill="#e4e71a"/>
          <path id="Path_64202-3" data-name="Path 64202" d="M221.142,236.138l6.773-3.385V225.98l-6.773,3.386Z" transform="translate(-177.549 -188.084)" fill="#fff"/>
          <path id="Path_64203-3" data-name="Path 64203" d="M202.53,245.446l6.773-3.386v-6.773l-6.773,3.385Z" transform="translate(-178.35 -187.683)" fill="#fff"/>
          <path id="Path_64204-3" data-name="Path 64204" d="M183.918,254.758l6.773-3.386V244.6l-6.773,3.383Z" transform="translate(-179.15 -187.286)" fill="#fff"/>
        </g>
        <path id="Path_64205-3" data-name="Path 64205" d="M249.069,212.082l5.1-2.551V53.131l-5.1,2.551Z" transform="translate(-107.491 -25.864)" fill="#d3d3d3"/>
        <path id="Path_64206-3" data-name="Path 64206" d="M158.293,257.48l5.1-2.551V98.529l-5.1,2.551Z" transform="translate(-111.394 -23.912)" fill="#d3d3d3"/>
        <path id="Path_64207-3" data-name="Path 64207" d="M153.4,260.364l5.1,2.551V106.51l-5.1-2.551Z" transform="translate(-111.604 -23.678)" fill="#afafaf"/>
        <g id="Group_11579-3" data-name="Group 11579" transform="translate(113.182 230.295)">
          <path id="Path_64208-3" data-name="Path 64208" d="M224.861,283.693h0a5.7,5.7,0,0,0,3.02-4.529v-29.51c0-1.662-1.355-2.341-3.02-1.509h0a5.7,5.7,0,0,0-3.019,4.529v29.509C221.843,283.844,223.2,284.524,224.861,283.693Z" transform="translate(-221.842 -247.79)" fill="#331710"/>
          <path id="Path_64209-3" data-name="Path 64209" d="M222.588,257.38c0,1.238,1,1.741,2.243,1.122a4.222,4.222,0,0,0,2.243-3.366c0-1.239-1-1.741-2.243-1.122a4.222,4.222,0,0,0-2.243,3.366Z" transform="translate(-221.812 -247.533)" fill="#6fe777"/>
          <path id="Path_64210-3" data-name="Path 64210" d="M222.588,271.173c0,5.579,1,9.6,2.243,8.979s2.243-5.645,2.243-11.223-1-9.6-2.243-8.979S222.588,265.595,222.588,271.173Z" transform="translate(-221.812 -247.269)" fill="#472016"/>
        </g>
        <g id="Group_11580-3" data-name="Group 11580" transform="translate(93.771 240.004)">
          <path id="Path_64211-3" data-name="Path 64211" d="M206.252,293h0a5.7,5.7,0,0,0,3.019-4.529V258.963c0-1.66-1.355-2.341-3.019-1.509h0a5.7,5.7,0,0,0-3.02,4.529v29.511C203.232,293.153,204.591,293.832,206.252,293Z" transform="translate(-203.232 -257.099)" fill="#331710"/>
          <path id="Path_64212-3" data-name="Path 64212" d="M203.976,266.689c0,1.239,1,1.741,2.243,1.122a4.222,4.222,0,0,0,2.243-3.366c0-1.238-1-1.741-2.243-1.122A4.221,4.221,0,0,0,203.976,266.689Z" transform="translate(-203.2 -256.842)" fill="#291213"/>
          <ellipse id="Ellipse_443-3" data-name="Ellipse 443" cx="10.166" cy="2.229" rx="10.166" ry="2.229" transform="translate(0.531 32.889) rotate(-88.534)" fill="#472016"/>
        </g>
        <g id="Group_11581-3" data-name="Group 11581" transform="translate(73.993 249.896)">
          <path id="Path_64213-3" data-name="Path 64213" d="M187.288,302.486h0a5.7,5.7,0,0,0,3.02-4.529V268.446c0-1.66-1.355-2.34-3.02-1.508h0a5.7,5.7,0,0,0-3.019,4.529v29.509C184.269,302.637,185.627,303.317,187.288,302.486Z" transform="translate(-184.269 -266.583)" fill="#331710"/>
          <path id="Path_64214-3" data-name="Path 64214" d="M185.012,276.172c0,1.239,1,1.742,2.243,1.122a4.221,4.221,0,0,0,2.243-3.366c0-1.239-1-1.741-2.243-1.122A4.221,4.221,0,0,0,185.012,276.172Z" transform="translate(-184.237 -266.326)" fill="#e4e71a"/>
          <path id="Path_64215-3" data-name="Path 64215" d="M185.012,289.966c0,5.579,1,9.6,2.243,8.979s2.243-5.645,2.243-11.223-1-9.6-2.243-8.979S185.012,284.387,185.012,289.966Z" transform="translate(-184.237 -266.061)" fill="#472016"/>
        </g>
        <path id="Path_64216-3" data-name="Path 64216" d="M234.669,306.352a17.112,17.112,0,0,0,6.875-6.378c4.647-7.426,3.91-17.107,3.826-18.048V68.3l-2.589,1.294V283.34l.005.058c.009.09.857,9.384-3.16,15.8a12.132,12.132,0,0,1-4.958,4.57c-5.371,2.686-8.579-5.048-8.579-14.078l-2.589,1.294C223.5,299.4,226.474,310.45,234.669,306.352Z" transform="translate(-108.592 -25.211)" fill="#331710"/>
        <path id="Path_64217-3" data-name="Path 64217" d="M178.018,334.286c8.195-4.1,11.171-18.12,11.171-26.544l-2.589,1.294c0,9.03-3.209,19.976-8.579,22.661-2.053,1.028-3.675,1.153-4.958.388-4.017-2.4-3.169-12.535-3.16-12.637l.005-.123V105.643l-2.589,1.294V320.562c-.085,1.024-.821,11.443,3.826,14.223C172.92,335.846,175.233,335.679,178.018,334.286Z" transform="translate(-111.014 -23.603)" fill="#331710"/>
        <path id="Path_64218-3" data-name="Path 64218" d="M211.549,317.77a14.5,14.5,0,0,0,5.592-5.045c4.01-6.023,3.994-14.418,3.985-18.452v-.483c0-53.829-1.775-211.044-1.792-212.625l-2.589,1.324c.018,1.581,1.794,158.782,1.794,212.6v.489c.007,3.686.023,11.356-3.229,16.239a9.578,9.578,0,0,1-3.76,3.369c-2.992,1.5-4.508-3.926-4.508-16.115l-2.589,1.294C204.452,310.725,205.3,320.9,211.549,317.77Z" transform="translate(-109.409 -24.658)" fill="#331710"/>
        <path id="Path_64219-3" data-name="Path 64219" d="M271.082,55.668v-12.8l-115.576,57.8V113.47Z" transform="translate(-111.513 -26.306)" fill="#d3d3d3"/>
        <path id="Path_64220-3" data-name="Path 64220" d="M123.673,95.166l33.2,16.6V98.965l-33.2-16.6Z" transform="translate(-112.881 -24.608)" fill="#afafaf"/>
        <path id="Path_64221-3" data-name="Path 64221" d="M239.219,26.988l33.2,16.6L156.845,101.376l-33.2-16.6Z" transform="translate(-112.883 -26.988)" fill="#e5e5e5"/>
      </g>
      <g id="Group_30640" data-name="Group 30640" transform="translate(12938.171 2385)">
        <path id="Path_100710" data-name="Path 100710" d="M1345.8,884.568l-.1,32.843c-.006,1.836-1.214,3.672-3.631,5.076l-110.892,64.448c-4.858,2.82-12.766,2.826-17.66,0L1101.9,922.494c-2.459-1.422-3.691-3.288-3.685-5.154l.094-32.825c0,1.866,1.233,3.726,3.685,5.136L1213.62,954.1c4.893,2.826,12.8,2.819,17.659,0l110.892-64.448C1344.588,888.248,1345.8,886.411,1345.8,884.568Z" transform="translate(-1098.219 -812.861)" fill="url(#linear-gradient)"/>
        <path id="Path_100711" data-name="Path 100711" d="M1342.192,822.107c4.894,2.826,4.916,7.405.054,10.231l-110.893,64.445c-4.86,2.824-12.765,2.826-17.66,0l-111.619-64.444c-4.89-2.823-4.916-7.405-.057-10.229l110.894-64.444c4.862-2.826,12.772-2.826,17.662,0Z" transform="translate(-1098.295 -755.546)" fill="#fff2eb"/>
        <path id="Path_101300" data-name="Path 101300" d="M3725.913,8541.584l.062-21.736,1.706.984-.061,21.738Zm-6.183-3.568.061-21.736,1.709.986-.062,21.736Zm-6.184-3.57.062-21.734,1.709.982-.061,21.739Zm-6.181-3.568.061-21.736,1.708.984-.062,21.735Zm-6.183-3.572.062-21.736,1.708.987-.06,21.739Zm-6.183-3.568.062-21.736,1.708.99-.061,21.732Z" transform="translate(-3618.148 -8376.539)" fill="#ff975d" stroke="rgba(0,0,0,0)" stroke-width="1"/>
        <path id="Path_101299" data-name="Path 101299" d="M3695,8520.833l1.707-.986.062,21.735-1.708.983Zm6.181-3.572,1.709-.983.061,21.735-1.708.986Zm6.184-3.569,1.709-.986.062,21.739-1.71.982Zm6.182-3.569,1.708-.982.062,21.735-1.707.986Zm6.182-3.568,1.708-.986.063,21.735-1.711.986Zm6.183-3.565,1.708-.99.063,21.735-1.71.987Z" transform="translate(-3484.61 -8417.707)" fill="#ab4a0a" stroke="rgba(0,0,0,0)" stroke-width="1"/>
        <path id="Path_100724" data-name="Path 100724" d="M1208.7,971.2l-.014,5.02,5.933,3.425.014-5.02Z" transform="translate(-1147.309 -851.386)" fill="#d8d8d8"/>
        <path id="Path_100725" data-name="Path 100725" d="M1192.242,961.7l-.015,5.02,5.933,3.425.014-5.02Z" transform="translate(-1139.997 -847.165)" fill="#ffb839"/>
        <path id="Path_100726" data-name="Path 100726" d="M1175.787,952.2l-.014,5.02,5.933,3.426.014-5.02Z" transform="translate(-1132.685 -842.943)" fill="#d8d8d8"/>
        <path id="Path_100727" data-name="Path 100727" d="M1159.331,942.7l-.015,5.02,5.935,3.426.013-5.02Z" transform="translate(-1125.371 -838.72)" fill="#d8d8d8"/>
        <path id="Path_100728" data-name="Path 100728" d="M1142.877,933.2l-.014,5.02,5.935,3.426.014-5.02Z" transform="translate(-1118.059 -834.499)" fill="#94ed96"/>
        <path id="Path_100729" data-name="Path 100729" d="M1126.423,923.7l-.015,5.02,5.935,3.426.014-5.02Z" transform="translate(-1110.746 -830.277)" fill="#ffb839"/>
        <path id="Path_100730" data-name="Path 100730" d="M1109.968,914.2l-.014,5.02,5.935,3.426.014-5.02Z" transform="translate(-1103.434 -826.055)" fill="#94ed96"/>
        <path id="Path_100731" data-name="Path 100731" d="M1208.651,987.02l-.015,5.022,5.933,3.425.014-5.022Z" transform="translate(-1147.289 -858.416)" fill="#d8d8d8"/>
        <path id="Path_100732" data-name="Path 100732" d="M1192.2,977.52l-.014,5.022,5.933,3.425.014-5.022Z" transform="translate(-1139.977 -854.193)" fill="#d8d8d8"/>
        <path id="Path_100733" data-name="Path 100733" d="M1175.743,968.021l-.015,5.022,5.933,3.425.014-5.022Z" transform="translate(-1132.665 -849.972)" fill="#94ed96"/>
        <path id="Path_100734" data-name="Path 100734" d="M1159.286,958.519l-.014,5.022,5.935,3.426.014-5.022Z" transform="translate(-1125.351 -845.749)" fill="#d8d8d8"/>
        <path id="Path_100735" data-name="Path 100735" d="M1142.832,949.02l-.014,5.022,5.935,3.426.014-5.022Z" transform="translate(-1118.039 -841.528)" fill="#ffb839"/>
        <path id="Path_100736" data-name="Path 100736" d="M1126.378,939.52l-.014,5.022,5.935,3.427.014-5.022Z" transform="translate(-1110.727 -837.306)" fill="#d8d8d8"/>
        <path id="Path_100737" data-name="Path 100737" d="M1109.924,930.02l-.014,5.022,5.935,3.426.015-5.022Z" transform="translate(-1103.415 -833.084)" fill="#d8d8d8"/>
      </g>
      <path id="Path_131361" data-name="Path 131361" d="M9460.011-6060.681l338.73-114.766,12.165-150.031" transform="translate(3695 8502)" fill="none" stroke="#e36410" stroke-width="2" stroke-dasharray="10"/>
      <g id="Group_31465" data-name="Group 31465" transform="matrix(0.998, 0.07, -0.07, 0.998, 12987.217, -5056.21)">
        <path id="Path_132553" data-name="Path 132553" d="M3851,8637a55.039,55.039,0,0,1-60.5,3.638A55,55,0,1,1,3763,8538c.367,0,.733,0,1.1.011a55.013,55.013,0,0,1,108.047,1.27A55.006,55.006,0,1,1,3851,8637Z" transform="translate(-2809 -1465)" fill="#ff975d"/>
        <path id="Path_132554" data-name="Path 132554" d="M3846.519,8633.8a52.91,52.91,0,0,1-58.6,3.557,52.655,52.655,0,0,1-26.637,7.193c-29.425,0-53.278-24.073-53.278-53.767s23.853-53.769,53.278-53.769c.355,0,.709,0,1.063.01A53.2,53.2,0,0,1,3867,8538.266a53.044,53.044,0,0,1,11.484-1.251c29.425,0,53.276,24.073,53.276,53.769s-23.851,53.767-53.276,53.767A52.725,52.725,0,0,1,3846.519,8633.8Z" transform="translate(-2816.087 -1464.001)" fill="#ffdecc"/>
      </g>
      <g id="Group_30638" data-name="Group 30638" transform="translate(12632.211 2130.476)">
        <path id="Path_64191-4" data-name="Path 64191" d="M232.708,259.461s62.389,17.673,44.308,39.189-59.307,42.122-99.605,50.3-74.621-20.71-60.815-45.036S232.708,259.461,232.708,259.461Z" transform="translate(-113.487 -16.993)" fill="#f5f5f5"/>
        <path id="Path_64192-4" data-name="Path 64192" d="M159.676,215.931l-33.2-16.6,99.779-49.89,33.2,16.6Z" transform="translate(-112.761 -21.723)" fill="#e5e5e5"/>
        <path id="Path_64193-4" data-name="Path 64193" d="M126.46,325.764l33.2,16.6V213.878l-33.2-16.606Z" transform="translate(-112.761 -19.667)" fill="#afafaf"/>
        <path id="Path_64194-4" data-name="Path 64194" d="M244.178,216.8l5.1,2.551V62.958l-5.1-2.551Z" transform="translate(-107.701 -25.55)" fill="#afafaf"/>
        <path id="Path_64195-4" data-name="Path 64195" d="M257.722,64.186V53.131l-99.784,49.9v11.056Z" transform="translate(-111.409 -25.864)" fill="#f5f5f5"/>
        <path id="Path_64196-4" data-name="Path 64196" d="M158.293,344.057l99.784-49.9V165.664l-99.784,49.9Z" transform="translate(-111.394 -21.025)" fill="#d3d3d3"/>
        <path id="Path_64197-4" data-name="Path 64197" d="M162.833,270.937l89.579-44.8V171.282l-89.579,44.8Z" transform="translate(-111.199 -20.784)" fill="#fff"/>
        <path id="Path_64198-4" data-name="Path 64198" d="M162.833,295.709l89.579-44.8v-19.5l-89.579,44.8Z" transform="translate(-111.199 -18.198)" fill="#ff975d"/>
        <g id="Group_11578-4" data-name="Group 11578" transform="translate(68.858 169.653)">
          <path id="Path_64199-4" data-name="Path 64199" d="M216.571,197.8l16.307-8.155v44.317l-16.307,8.155Z" transform="translate(-177.745 -189.648)" fill="#6fe777"/>
          <path id="Path_64200-4" data-name="Path 64200" d="M197.958,207.1l16.307-8.155v44.319l-16.307,8.155Z" transform="translate(-178.546 -189.243)" fill="#505050"/>
          <path id="Path_64201-4" data-name="Path 64201" d="M179.346,216.417l16.307-8.155V252.58l-16.307,8.155Z" transform="translate(-179.346 -188.846)" fill="#e4e71a"/>
          <path id="Path_64202-4" data-name="Path 64202" d="M221.142,236.138l6.773-3.385V225.98l-6.773,3.386Z" transform="translate(-177.549 -188.084)" fill="#fff"/>
          <path id="Path_64203-4" data-name="Path 64203" d="M202.53,245.446l6.773-3.386v-6.773l-6.773,3.385Z" transform="translate(-178.35 -187.683)" fill="#fff"/>
          <path id="Path_64204-4" data-name="Path 64204" d="M183.918,254.758l6.773-3.386V244.6l-6.773,3.383Z" transform="translate(-179.15 -187.286)" fill="#fff"/>
        </g>
        <path id="Path_64205-4" data-name="Path 64205" d="M249.069,212.082l5.1-2.551V53.131l-5.1,2.551Z" transform="translate(-107.491 -25.864)" fill="#d3d3d3"/>
        <path id="Path_64206-4" data-name="Path 64206" d="M158.293,257.48l5.1-2.551V98.529l-5.1,2.551Z" transform="translate(-111.394 -23.912)" fill="#d3d3d3"/>
        <path id="Path_64207-4" data-name="Path 64207" d="M153.4,260.364l5.1,2.551V106.51l-5.1-2.551Z" transform="translate(-111.604 -23.678)" fill="#afafaf"/>
        <g id="Group_11579-4" data-name="Group 11579" transform="translate(113.182 230.295)">
          <path id="Path_64208-4" data-name="Path 64208" d="M224.861,283.693h0a5.7,5.7,0,0,0,3.02-4.529v-29.51c0-1.662-1.355-2.341-3.02-1.509h0a5.7,5.7,0,0,0-3.019,4.529v29.509C221.843,283.844,223.2,284.524,224.861,283.693Z" transform="translate(-221.842 -247.79)" fill="#331710"/>
          <path id="Path_64209-4" data-name="Path 64209" d="M222.588,257.38c0,1.238,1,1.741,2.243,1.122a4.222,4.222,0,0,0,2.243-3.366c0-1.239-1-1.741-2.243-1.122a4.222,4.222,0,0,0-2.243,3.366Z" transform="translate(-221.812 -247.533)" fill="#6fe777"/>
          <path id="Path_64210-4" data-name="Path 64210" d="M222.588,271.173c0,5.579,1,9.6,2.243,8.979s2.243-5.645,2.243-11.223-1-9.6-2.243-8.979S222.588,265.595,222.588,271.173Z" transform="translate(-221.812 -247.269)" fill="#472016"/>
        </g>
        <g id="Group_11580-4" data-name="Group 11580" transform="translate(93.771 240.004)">
          <path id="Path_64211-4" data-name="Path 64211" d="M206.252,293h0a5.7,5.7,0,0,0,3.019-4.529V258.963c0-1.66-1.355-2.341-3.019-1.509h0a5.7,5.7,0,0,0-3.02,4.529v29.511C203.232,293.153,204.591,293.832,206.252,293Z" transform="translate(-203.232 -257.099)" fill="#331710"/>
          <path id="Path_64212-4" data-name="Path 64212" d="M203.976,266.689c0,1.239,1,1.741,2.243,1.122a4.222,4.222,0,0,0,2.243-3.366c0-1.238-1-1.741-2.243-1.122A4.221,4.221,0,0,0,203.976,266.689Z" transform="translate(-203.2 -256.842)" fill="#291213"/>
          <ellipse id="Ellipse_443-4" data-name="Ellipse 443" cx="10.166" cy="2.229" rx="10.166" ry="2.229" transform="translate(0.531 32.889) rotate(-88.534)" fill="#472016"/>
        </g>
        <g id="Group_11581-4" data-name="Group 11581" transform="translate(73.993 249.896)">
          <path id="Path_64213-4" data-name="Path 64213" d="M187.288,302.486h0a5.7,5.7,0,0,0,3.02-4.529V268.446c0-1.66-1.355-2.34-3.02-1.508h0a5.7,5.7,0,0,0-3.019,4.529v29.509C184.269,302.637,185.627,303.317,187.288,302.486Z" transform="translate(-184.269 -266.583)" fill="#331710"/>
          <path id="Path_64214-4" data-name="Path 64214" d="M185.012,276.172c0,1.239,1,1.742,2.243,1.122a4.221,4.221,0,0,0,2.243-3.366c0-1.239-1-1.741-2.243-1.122A4.221,4.221,0,0,0,185.012,276.172Z" transform="translate(-184.237 -266.326)" fill="#e4e71a"/>
          <path id="Path_64215-4" data-name="Path 64215" d="M185.012,289.966c0,5.579,1,9.6,2.243,8.979s2.243-5.645,2.243-11.223-1-9.6-2.243-8.979S185.012,284.387,185.012,289.966Z" transform="translate(-184.237 -266.061)" fill="#472016"/>
        </g>
        <path id="Path_64216-4" data-name="Path 64216" d="M234.669,306.352a17.112,17.112,0,0,0,6.875-6.378c4.647-7.426,3.91-17.107,3.826-18.048V68.3l-2.589,1.294V283.34l.005.058c.009.09.857,9.384-3.16,15.8a12.132,12.132,0,0,1-4.958,4.57c-5.371,2.686-8.579-5.048-8.579-14.078l-2.589,1.294C223.5,299.4,226.474,310.45,234.669,306.352Z" transform="translate(-108.592 -25.211)" fill="#331710"/>
        <path id="Path_64217-4" data-name="Path 64217" d="M178.018,334.286c8.195-4.1,11.171-18.12,11.171-26.544l-2.589,1.294c0,9.03-3.209,19.976-8.579,22.661-2.053,1.028-3.675,1.153-4.958.388-4.017-2.4-3.169-12.535-3.16-12.637l.005-.123V105.643l-2.589,1.294V320.562c-.085,1.024-.821,11.443,3.826,14.223C172.92,335.846,175.233,335.679,178.018,334.286Z" transform="translate(-111.014 -23.603)" fill="#331710"/>
        <path id="Path_64218-4" data-name="Path 64218" d="M211.549,317.77a14.5,14.5,0,0,0,5.592-5.045c4.01-6.023,3.994-14.418,3.985-18.452v-.483c0-53.829-1.775-211.044-1.792-212.625l-2.589,1.324c.018,1.581,1.794,158.782,1.794,212.6v.489c.007,3.686.023,11.356-3.229,16.239a9.578,9.578,0,0,1-3.76,3.369c-2.992,1.5-4.508-3.926-4.508-16.115l-2.589,1.294C204.452,310.725,205.3,320.9,211.549,317.77Z" transform="translate(-109.409 -24.658)" fill="#331710"/>
        <path id="Path_64219-4" data-name="Path 64219" d="M271.082,55.668v-12.8l-115.576,57.8V113.47Z" transform="translate(-111.513 -26.306)" fill="#d3d3d3"/>
        <path id="Path_64220-4" data-name="Path 64220" d="M123.673,95.166l33.2,16.6V98.965l-33.2-16.6Z" transform="translate(-112.881 -24.608)" fill="#afafaf"/>
        <path id="Path_64221-4" data-name="Path 64221" d="M239.219,26.988l33.2,16.6L156.845,101.376l-33.2-16.6Z" transform="translate(-112.883 -26.988)" fill="#e5e5e5"/>
      </g>
      <path id="Path_138108" data-name="Path 138108" d="M5.351,15.087H1.319V-9.78H15.352v3.436h-10V1.429h9.372V4.882H5.351ZM30.439-6.651a6.7,6.7,0,0,0-5.511,2.483,10.615,10.615,0,0,0-2.007,6.855q0,4.576,1.931,6.923a6.819,6.819,0,0,0,5.588,2.347,14.682,14.682,0,0,0,3.062-.315q1.48-.315,3.079-.808v3.487a18.665,18.665,0,0,1-6.634,1.106q-5.46,0-8.386-3.308T18.635,2.653a15.3,15.3,0,0,1,1.42-6.787A10.137,10.137,0,0,1,24.163-8.59a12.424,12.424,0,0,1,6.31-1.548,15.66,15.66,0,0,1,7.042,1.6L36.052-5.154A21.84,21.84,0,0,0,33.39-6.2,9.591,9.591,0,0,0,30.439-6.651Zm22.078,0a6.7,6.7,0,0,0-5.511,2.483A10.615,10.615,0,0,0,45,2.687Q45,7.263,46.93,9.61a6.819,6.819,0,0,0,5.588,2.347,14.682,14.682,0,0,0,3.062-.315q1.48-.315,3.079-.808v3.487a18.665,18.665,0,0,1-6.634,1.106q-5.46,0-8.386-3.308T40.713,2.653a15.3,15.3,0,0,1,1.42-6.787A10.137,10.137,0,0,1,46.241-8.59a12.424,12.424,0,0,1,6.31-1.548,15.66,15.66,0,0,1,7.042,1.6L58.13-5.154A21.841,21.841,0,0,0,55.468-6.2,9.591,9.591,0,0,0,52.517-6.651Z" transform="translate(13034.681 2455.138)" fill="#9d501e"/>
    </g>
    <g id="Group_33051" data-name="Group 33051" transform="translate(13112.163 1800.438)">
      <path id="Path_108157" d="M1459.06,733.876,1334.5,662.1v10.892l124.56,71.775Z" transform="translate(-1334.5 -352.655)" fill="#c8d9dd"/>
      <path id="Path_108158" d="M1459.06,746.784,1334.5,675.009l34.91-20.109,124.56,71.776Z" transform="translate(-1334.5 -365.563)" fill="#dfe6f5"/>
      <path id="Path_108159" d="M1380.68,674.1l31,17.875-16.2,9.216H1380.4Z" transform="translate(-1252.21 -331.141)" fill="#333" opacity="0.22"/>
      <path id="Path_108160" d="M1379.1,711.6V700.708l34.91-20.108v10.892Z" transform="translate(-1254.54 -319.488)" fill="#8a9eab"/>
      <path id="Path_108161" d="M1450.778,621.4,1341.3,558.282l12.009-6.982,109.479,63.4Z" transform="translate(-1322.309 -551.3)" fill="#dfe6f5"/>
      <path id="Path_108162" d="M1450.778,616.918,1341.3,553.8V854.029l109.478,63.4Z" transform="translate(-1322.309 -546.818)" fill="#c8d9dd"/>
      <path id="Path_108163" d="M1380.5,580.882l12.009-6.982V874.129l-12.009,6.982Z" transform="translate(-1252.03 -510.782)" fill="#8a9eab"/>
      <g id="logo_svg" transform="translate(20.462 40.171)">
        <g id="Group_11605" transform="translate(0 0)">
          <g id="Group_11604" transform="translate(0)">
            <ellipse id="Ellipse_445" cx="29.884" cy="47.2" rx="29.884" ry="47.2" transform="matrix(0.855, -0.519, 0.519, 0.855, 0, 31.001)" fill="#001a4d"/>
            <path id="Path_7818" d="M6442.465,7183.07c.281.277.281.557.561.836s.279.559.557.559c.281.279.281.279.561.561l.279.277-.836,1.117c-.281-.279-.559-.557-.838-.838s-.559-.557-.84-.836a1.459,1.459,0,0,1-.557-1.117c-.281-.277-.281-.559-.559-.838-.279,0-.559-.277-.838-.559l-.559-.561a1.022,1.022,0,0,1-.279-.836v-1.115a.274.274,0,0,1,.279-.279h.559c.279.279.559.279.838.836.277.281.559.838.838,1.115h.838l.279-.277v-.561a.272.272,0,0,0-.279-.277l-.279-.281a.275.275,0,0,1-.281-.281l-1.395-.836c-.279,0-.561-.281-.838-.561s-.559-.557-.559-.834c-.277-.281-.277-.561-.277-1.117v-1.676a.272.272,0,0,1,.277-.279h.559c.279,0,.279,0,.559.279l1.957.838v-.838l-4.189-1.955v-1.4l7.541,3.631v1.4l-1.955-.838v2.232l-2.795-1.395c-.279,0-.279-.281-.559,0l-.279.277v.559l.279.281.279.281,1.678.834c.279,0,.557.279.836.561s.277.561.561.838c0,.279.279.561.279.838v1.674a.983.983,0,0,1-.279.561c-.283.277-.283.277-.561.277,0-.277-.281-.277-.562-.277Zm.559-12.012v-.277a.275.275,0,0,1,.279-.281h.561a.274.274,0,0,1,.279.281l.277.277a.275.275,0,0,0,.283.279v.842a.273.273,0,0,1-.283.277h-.557a.274.274,0,0,1-.281-.277l-.279-.283a.272.272,0,0,0-.279-.277Zm6.145,6.7-1.4-.559v8.66l-1.4-.838v-8.658l-1.4-.561v-1.4l1.4.559a3.517,3.517,0,0,1-.281-1.674,1.014,1.014,0,0,1,.281-.838.6.6,0,0,1,.559-.561c.281,0,.561-.281.838,0,.561,0,.838.279,1.4.561a5.8,5.8,0,0,1,1.676,1.117,7.354,7.354,0,0,1,1.4,1.676c.561.557.838,1.395,1.395,1.953a15.962,15.962,0,0,1,1.119,2.236l-1.4-.561c0-.281-.279-.561-.561-.838s-.277-.557-.557-.838-.561-.559-.838-.836-.559-.561-.836-.838-.561-.557-.838-.838-.561-.559-.838-.559-.559-.277-.838-.277h-.559l-.279.277v1.121a1.016,1.016,0,0,0,.279.834l1.4.561Zm8.938,4.191-1.957-.838v2.232l-2.791-1.395h-.279v.836l.279.281.277.281,1.68.836c.279,0,.557.277.834.559s.281.561.563.836c0,.281.277.563.277.838v.838a1.688,1.688,0,0,1-.277,1.117c0,.281-.281.561-.562.838a1.018,1.018,0,0,1-.834.279,3.029,3.029,0,0,1-1.4-.279,2.8,2.8,0,0,1-1.4-1.119c-.559-.557-.836-.836-1.4-1.395a12.088,12.088,0,0,1-1.115-1.955,5.2,5.2,0,0,1-.562-1.955h1.4a2.115,2.115,0,0,0,.561,1.395c.279.561.559.838.836,1.4a3.947,3.947,0,0,0,.838,1.117,3.827,3.827,0,0,0,1.117.834c.279,0,.279.279.559.279h.561l.279-.279v-1.4l-.279-.279-.281-.281-1.676-.838c-.279,0-.561-.279-.838-.557s-.279-.559-.559-.84-.279-.557-.279-1.115v-1.4a.274.274,0,0,1,.279-.281h.559c.281,0,.281,0,.561.281l1.955.84v-.84l-5.867-2.793v-1.395l9.219,4.467Zm-.279,0v-1.4l8.377,3.91v1.4l-1.4-.562v8.658l-1.395-.836v-2.516h-1.119c-.277,0-.277,0-.559-.277-.559-.279-.836-.561-1.4-.838a6.062,6.062,0,0,1-.838-1.4,3.979,3.979,0,0,1-.559-1.676,3.539,3.539,0,0,1-.279-1.676h.838l.279-.279v-1.117c0-.281-.279-.559-.279-.838Zm3.629,3.348a1.686,1.686,0,0,1-.277,1.117,1.025,1.025,0,0,1-.84.281,1.028,1.028,0,0,0,.279.838.971.971,0,0,0,.283.557c0,.281.277.281.277.563.279,0,.279.279.561.279a.524.524,0,0,0,.836,0,.6.6,0,0,0,.559-.561v-3.91l-2.232-1.117c0,.279.279.559.279.836a2.147,2.147,0,0,1,.275,1.117Zm13.127,4.75-1.4-.559v8.658l-1.676-.84v-4.748l-2.514-1.115v1.4a.273.273,0,0,1-.277.279h-.281c-.279,0-.279-.279-.559-.279-.277-.281-.277-.281-.561-.559,0-.281-.277-.281-.277-.561a446.222,446.222,0,0,1-.561-1.119v-.838h.561a.273.273,0,0,1,.277.281l3.912,1.955v-2.234l-5.867-2.793v-1.395l8.658,4.188Zm5.867,5.586h0l.279.279c.279,0,.559.279.836.279h.561v-4.189l2.793,1.4v1.4l-1.4-.559v8.658l-1.395-.836v-4.473h-1.119v.561a1.674,1.674,0,0,1-.279,1.115.6.6,0,0,1-.557.561c-.283,0-.562.281-.84,0a2.111,2.111,0,0,1-1.117-.279c-.279-.281-.557-.281-1.117-.559-.277-.279-.559-.561-.836-.838a1.45,1.45,0,0,1-.561-1.117c-.277-.279-.277-.836-.559-1.117s-.279-.838-.559-1.117c0-.277-.279-.838-.279-1.115h1.395c0,.277.281.559.281.838s.279.557.279.838.279.557.279.836.281.559.559.838.279.557.561.557l.559.561a.526.526,0,0,0,.838,0,1.031,1.031,0,0,0,.277-.836v-.561c0-.277-.277-.277-.277-.559s-.281-.279-.281-.559c-.279,0-.279-.277-.559-.277h-.838v-1.4h0c.281,0,.281.281.559.281h.559a.274.274,0,0,0,.279-.281v-.557a1.026,1.026,0,0,0-.279-.84c-.279-.277-.559-.559-.559-.559a.983.983,0,0,1-.559-.279h-.559l-.281-1.676h.838c.281,0,.561.281.836.281.281.277.561.277.838.557s.559.561.838.838.281.561.561,1.117c0,.277.277.561.277,1.117a1.683,1.683,0,0,1-.277,1.115c-.279.281-.561.561-.84.561h0l.281.279c.283-.277.283-.277.563-.277Zm8.1,1.117-1.395-.559v8.656l-1.4-.838v-8.654l-1.4-.562V7193.4l4.188,1.957Zm-3.629-7.818v.838c0,.277,0,.277.277.559,0,.279.281.279.281.557s.279.283.279.561c.279.279.279.279.561.279s.279.281.557.281h.281l.279-.281.279-.279a.273.273,0,0,1,.281-.277v-.283l1.115,1.121c0,.277,0,.277-.279.557,0,.281-.281.281-.281.559s-.279.279-.279.561c-.277.279-.277.279-.557.279h-.84a1.03,1.03,0,0,1-.838-.279c-.277-.281-.834-.561-1.115-.838a3.874,3.874,0,0,1-.836-1.117,2.14,2.14,0,0,1-.561-1.4,2.5,2.5,0,0,1-.279-1.395Zm3.352,7.537v-1.4l8.379,3.914v1.395l-1.4-.561v8.658l-1.395-.838v-2.512h-1.119c-.279,0-.279,0-.559-.279-.559-.277-.836-.559-1.4-.838a6.02,6.02,0,0,1-.836-1.395,3.956,3.956,0,0,1-.561-1.676,3.55,3.55,0,0,1-.279-1.678h.84l.279-.277v-1.117c0-.285-.279-.562-.279-.838Zm3.629,3.354a1.694,1.694,0,0,1-.277,1.117,1.025,1.025,0,0,1-.838.281,1.023,1.023,0,0,0,.277.834.974.974,0,0,0,.281.561c0,.279.279.279.279.557.279,0,.279.281.561.281a.524.524,0,0,0,.838,0,.6.6,0,0,0,.557-.559v-3.91l-2.232-1.117c0,.279.277.557.277.838a2.12,2.12,0,0,1,.277,1.117Zm11.172,12.568v-5.865h-.838a.274.274,0,0,0-.281.277.274.274,0,0,1-.277.281v1.117l-1.4-.559v-.559c0-.281,0-.281-.281-.559,0-.281,0-.281-.277-.561a.273.273,0,0,0-.279-.277h-.279a.274.274,0,0,0-.281.277v.838a2.513,2.513,0,0,0,.281,1.4c.279.561.279.836.559,1.395a3.768,3.768,0,0,0,.838,1.117c.279.279.557.838,1.115,1.117l-.561,1.117c-.277-.279-.277-.279-.557-.557s-.561-.561-.838-.84-.559-.838-.838-1.115c-.279-.561-.559-.84-.836-1.4s-.281-.836-.561-1.4a12.225,12.225,0,0,0-.279-1.395,1.682,1.682,0,0,1,.279-1.117c0-.279.279-.557.561-.838s.279-.279.557-.279a1.028,1.028,0,0,1,.84.279c.279,0,.279.281.557.281s.281.277.561.557c0,.281.279.281.279.563s.279.279.279.561h0l.281-.281h.557a.275.275,0,0,1,.281.281h.279a.273.273,0,0,1,.279.277v-.838l-6.7-3.354v-1.395l9.5,4.471v1.395l-1.4-.557v8.654Z" transform="translate(-6423.081 -7135.442)" fill="#f5f5f5"/>
            <path id="Path_7821" d="M6471.69,7245.579c-11.449-5.586-22.062-16.756-28.762-30.162a65.392,65.392,0,0,1-5.027-13.4l67.584,32.678a24.328,24.328,0,0,1-5.025,8.654C6493.755,7250.046,6483.142,7251.167,6471.69,7245.579Zm34.076-35.748-67.59-32.676a24.353,24.353,0,0,1,5.029-8.658c11.729-12.287,34.07-5.3,49.99,15.361a80.613,80.613,0,0,1,7.541,12.289,67.968,67.968,0,0,1,5.029,13.684Z" transform="translate(-6423.263 -7149.918)" fill="#ec691f"/>
            <path id="Path_7823" d="M6474.743,7252.328c-21.506-10.332-38.822-38.262-38.541-62.561,0-17.594,9.494-29.045,24.018-28.764,19.83.281,42.73,21.781,50.83,48.037s-1.4,47.2-20.945,47.2A36.846,36.846,0,0,1,6474.743,7252.328Zm.838-85.182c-20.389-9.775-36.867.836-37.145,23.459s16.2,49.154,36.584,58.928,36.867-.834,37.145-23.459h0C6512.165,7203.455,6495.687,7176.922,6475.581,7167.146Z" transform="translate(-6426.31 -7152.478)" fill="#001a4d"/>
          </g>
          <path id="Path_64285" d="M6436.3,7203.658V7188.3l2.8,1.395v15.361Zm13.967,6.707-2.512-1.4v-5.586a7.676,7.676,0,0,0-.281-2.512,2.128,2.128,0,0,0-.561-1.117c-.277-.279-.559-.557-.836-.836a2.1,2.1,0,0,0-1.115-.281c-.281,0-.562.281-.838.838a7.682,7.682,0,0,0-.281,2.516v5.023l-2.514-1.395v-11.174l2.514,1.117v1.676c.838-.834,1.957-.834,3.352-.275a5.756,5.756,0,0,1,1.674,1.111,2.786,2.786,0,0,1,1.117,1.4c.281.557.281,1.117.559,1.393,0,.842.281,1.4,0,1.957Zm11.451,5.586-2.516-1.117v-1.676c-.277.557-.838.557-1.395.838a3.513,3.513,0,0,1-1.676-.281,6.07,6.07,0,0,1-2.793-3.072,8.282,8.282,0,0,1-1.117-5.025c0-1.959.277-3.072,1.117-3.629a3,3,0,0,1,3.07,0,6.045,6.045,0,0,1,2.793,3.068v-5.584l2.516,1.4Zm-6.982-9.219a5.054,5.054,0,0,0,.557,2.793,3.968,3.968,0,0,0,1.678,1.959,1.8,1.8,0,0,0,1.676,0,2.179,2.179,0,0,0,.561-2.236,6.532,6.532,0,0,0-.561-3.072,2.522,2.522,0,0,0-1.676-1.676,1.784,1.784,0,0,0-1.678,0A5.289,5.289,0,0,0,6454.735,7206.732Zm9.215-2.232v-2.793l2.516,1.4v2.793Zm0,12.566V7205.9l2.516,1.395v11.17Zm6.982-4.465-2.512-1.678c.277-.842.559-1.4,1.395-1.68a3.434,3.434,0,0,1,2.793.563,6.532,6.532,0,0,1,2.516,1.678,5.786,5.786,0,0,1,1.115,1.674,10.47,10.47,0,0,1,.279,2.793v5.586a3.929,3.929,0,0,0,.561,1.676l-2.516-1.119c0-.279-.279-.557-.279-1.117v-.277a2.094,2.094,0,0,1-1.395.277c-.559,0-1.117-.277-1.68-.277a6.083,6.083,0,0,1-2.512-2.234,5.4,5.4,0,0,1-.838-2.789,2.1,2.1,0,0,1,.281-1.4,1.46,1.46,0,0,1,1.117-.559,4.688,4.688,0,0,1,1.955.283,8.265,8.265,0,0,0,2.514.557v-.281a2.53,2.53,0,0,0-.277-1.395,2.783,2.783,0,0,0-1.4-1.117,1.688,1.688,0,0,0-1.117-.277C6471.21,7212.037,6470.933,7212.318,6470.933,7212.6Zm3.352,4.184c-.562,0-1.115-.275-1.676-.275a3.025,3.025,0,0,0-1.4-.281c-.277,0-.557.281-.557.836a12.146,12.146,0,0,1,.279,1.4c.277.559.559.834,1.115.834a1.261,1.261,0,0,0,1.4,0,.6.6,0,0,0,.563-.557v-1.4Zm13.967,12.008-2.516-1.391v-5.588a7.664,7.664,0,0,0-.281-2.512,2.078,2.078,0,0,0-.559-1.115c-.279-.285-.557-.562-.836-.842a2.115,2.115,0,0,0-1.117-.279c-.277,0-.559.279-.838.836a7.778,7.778,0,0,0-.277,2.512v5.029l-2.516-1.395v-11.172l2.516,1.119v1.674c.838-.84,1.951-.84,3.35-.281a5.826,5.826,0,0,1,1.676,1.119,2.765,2.765,0,0,1,1.117,1.395c.281.561.281,1.119.559,1.395,0,.84.279,1.4,0,1.959Zm1.674-6.7a14.154,14.154,0,0,1,.557-3.631,3.359,3.359,0,0,1,1.4-1.4,3.93,3.93,0,0,1,1.676-.557,7.247,7.247,0,0,1,3.072.836,12.022,12.022,0,0,1,4.748,4.469,13.278,13.278,0,0,1,1.676,6.7c0,2.512-.561,4.186-1.955,5.027a4.245,4.245,0,0,1-4.748-.285,12.047,12.047,0,0,1-4.75-4.467,14.836,14.836,0,0,1-1.674-6.7Zm3.07,1.117a8.854,8.854,0,0,0,1.117,4.469,6.765,6.765,0,0,0,2.793,2.793,2.519,2.519,0,0,0,2.793,0c.838-.559,1.117-1.68,1.117-3.631a7.61,7.61,0,0,0-1.117-4.469,4.9,4.9,0,0,0-2.793-2.512,2.526,2.526,0,0,0-2.793,0c-.838.553-1.117,1.676-1.117,3.35Zm12.008.838v-2.793l2.516,1.4v2.793Zm0,12.846v-11.17l2.516,1.4v11.172Zm5.029,2.234V7223.77l2.514,1.4v15.359Z" transform="translate(-6426.131 -7103.532)" fill="#0d1b3a"/>
        </g>
      </g>
      <g id="Group_33041" data-name="Group 33041" transform="translate(26.253 154.444)">
        <path id="Path_108169" d="M1343.9,606.6c34.631,20.109,64.574,37.059,95.016,54.654l-.092,19.825L1343.9,625.871Z" transform="translate(-1343.9 -606.6)" fill="#2d2d2d"/>
        <path id="Path_108168" d="M1368.8,621c26.113,15.163-3.791-2.106,19.164,10.951v14.531L1368.8,635.531Z" transform="translate(-1296.134 -576.627)" fill="#ec691f"/>
        <path id="Path_108168-2" data-name="Path_108168" d="M1368.8,621c23.853,13.851-3.463-1.924,17.5,10v13.273l-17.5-10Z" transform="translate(-1367.484 -617.232)" fill="#ec691f"/>
        <path id="Path_108168-3" data-name="Path_108168" d="M1368.8,621c20.745,12.682-3.011-1.761,15.224,9.159v12.153l-15.224-9.159Z" transform="translate(-1346.078 -604.564)" fill="#ec691f"/>
      </g>
      <g id="Group_33042" data-name="Group 33042" transform="translate(26.253 186.551)">
        <path id="Path_108169-2" data-name="Path_108169" d="M1343.9,606.6c34.631,20.109,64.574,37.059,95.016,54.654l-.092,19.825L1343.9,625.871Z" transform="translate(-1343.9 -606.6)" fill="#2d2d2d"/>
        <path id="Path_108168-4" data-name="Path_108168" d="M1368.8,621c26.113,15.163-3.791-2.106,19.164,10.951v14.531L1368.8,635.531Z" transform="translate(-1296.134 -576.627)" fill="#ec691f"/>
        <path id="Path_108168-5" data-name="Path_108168" d="M1368.8,621c23.853,13.851-3.463-1.924,17.5,10v13.273l-17.5-10Z" transform="translate(-1367.484 -617.232)" fill="#ec691f"/>
        <path id="Path_108168-6" data-name="Path_108168" d="M1368.8,621c20.745,12.682-3.011-1.761,15.224,9.159v12.153l-15.224-9.159Z" transform="translate(-1346.078 -604.564)" fill="#ec691f"/>
      </g>
      <g id="Group_33043" data-name="Group 33043" transform="translate(26.253 222.226)">
        <path id="Path_108169-3" data-name="Path_108169" d="M1343.9,606.6c34.631,20.109,64.574,37.059,95.016,54.654l-.092,19.825L1343.9,625.871Z" transform="translate(-1343.9 -606.6)" fill="#2d2d2d"/>
        <path id="Path_108168-7" data-name="Path_108168" d="M1368.8,621c26.113,15.163-3.791-2.106,19.164,10.951v14.531L1368.8,635.531Z" transform="translate(-1296.134 -576.627)" fill="#ec691f"/>
        <path id="Path_108168-8" data-name="Path_108168" d="M1368.8,621c23.853,13.851-3.463-1.924,17.5,10v13.273l-17.5-10Z" transform="translate(-1367.484 -617.232)" fill="#ec691f"/>
        <path id="Path_108168-9" data-name="Path_108168" d="M1368.8,621c20.745,12.682-3.011-1.761,15.224,9.159v12.153l-15.224-9.159Z" transform="translate(-1346.078 -604.564)" fill="#ec691f"/>
      </g>
    </g>
  </g>
</svg>
