<svg xmlns="http://www.w3.org/2000/svg" xmlns:xlink="http://www.w3.org/1999/xlink" width="322" height="223" viewBox="0 0 322 223">
  <defs>
    <clipPath id="clip-path">
      <rect id="Rectangle_4254" data-name="Rectangle 4254" width="322" height="223" transform="translate(635 19)" fill="#fff" opacity="0.72"/>
    </clipPath>
    <clipPath id="clip-path-2">
      <path id="Path_78332" data-name="Path 78332" d="M45.769,3.457c7.863,0,15.79-8.049,26.645.415,8.153,6.357,21.66,21.634,21.66,21.634S125,16.692,139.608,29.756c23.307,20.85,38.672,50.724,38.672,82.64,0,27.821-5.109,56.595-24.324,74.322-15.144,13.972-41.866,18.717-64.415,25.924-13.695,4.377-42.484-37.613-42.484-37.613s-48.936-40.305-30.842-50.895c11.1-6.5-11.748-26.072-19.339-46.426C-8.822,62.431.2,45.565,5.953,40.7c8.622-7.3-.7-10.22,4.777-14.69,2.543-2.074-9.108-9.993-5.146-12.165A87.643,87.643,0,0,1,45.769,3.457Z" transform="matrix(-0.966, 0.259, -0.259, -0.966, 228.551, 213.434)" fill="#fff" stroke="#707070" stroke-width="1"/>
    </clipPath>
    <linearGradient id="linear-gradient" x1="-20.79" y1="-0.034" x2="-21.4" y2="0.576" gradientUnits="objectBoundingBox">
      <stop offset="0" stop-color="#fff"/>
      <stop offset="1"/>
    </linearGradient>
    <linearGradient id="linear-gradient-2" x1="-40.837" y1="0.019" x2="-41.865" y2="0.63" xlink:href="#linear-gradient"/>
    <filter id="Ellipse_736" x="207" y="129" width="46.595" height="46.595" filterUnits="userSpaceOnUse">
      <feOffset input="SourceAlpha"/>
      <feGaussianBlur stdDeviation="3" result="blur"/>
      <feFlood flood-opacity="0.161"/>
      <feComposite operator="in" in2="blur"/>
      <feComposite in="SourceGraphic"/>
    </filter>
    <filter id="Ellipse_735" x="215" y="83" width="46.595" height="46.595" filterUnits="userSpaceOnUse">
      <feOffset input="SourceAlpha"/>
      <feGaussianBlur stdDeviation="3" result="blur-2"/>
      <feFlood flood-opacity="0.161"/>
      <feComposite operator="in" in2="blur-2"/>
      <feComposite in="SourceGraphic"/>
    </filter>
    <filter id="Ellipse_734" x="194" y="37" width="46.595" height="46.595" filterUnits="userSpaceOnUse">
      <feOffset input="SourceAlpha"/>
      <feGaussianBlur stdDeviation="3" result="blur-3"/>
      <feFlood flood-opacity="0.161"/>
      <feComposite operator="in" in2="blur-3"/>
      <feComposite in="SourceGraphic"/>
    </filter>
    <filter id="Ellipse_733" x="158" y="-3" width="46.595" height="46.595" filterUnits="userSpaceOnUse">
      <feOffset input="SourceAlpha"/>
      <feGaussianBlur stdDeviation="3" result="blur-4"/>
      <feFlood flood-opacity="0.161"/>
      <feComposite operator="in" in2="blur-4"/>
      <feComposite in="SourceGraphic"/>
    </filter>
  </defs>
  <g id="img_fleet" transform="translate(-635 -19)" clip-path="url(#clip-path)">
    <g id="Group_18167" data-name="Group 18167">
      <path id="Path_78341" data-name="Path 78341" d="M4662.631-5002.854a128.561,128.561,0,0,1-44.23-7.707,120.343,120.343,0,0,1-19.3-9.042,112.614,112.614,0,0,1-16.816-11.976,103.634,103.634,0,0,1-13.876-14.515,94.777,94.777,0,0,1-10.476-16.659,88.094,88.094,0,0,1-6.621-18.409,85.777,85.777,0,0,1-2.309-19.765v-.01c.006,51.977,49,94.263,109.227,94.263s109.226-42.29,109.226-94.271-49-94.271-109.226-94.271c-59.487,0-108.482,41.759-109.218,93.086a85.8,85.8,0,0,1,2.488-19.336,88.355,88.355,0,0,1,6.735-18.244,95.018,95.018,0,0,1,10.531-16.5,103.837,103.837,0,0,1,13.877-14.371,112.681,112.681,0,0,1,16.774-11.852,120.439,120.439,0,0,1,19.222-8.945,128.615,128.615,0,0,1,43.994-7.621,128.561,128.561,0,0,1,44.23,7.707,120.452,120.452,0,0,1,19.3,9.042,112.649,112.649,0,0,1,16.817,11.977,103.6,103.6,0,0,1,13.875,14.515,94.751,94.751,0,0,1,10.477,16.658,88.11,88.11,0,0,1,6.621,18.41,85.777,85.777,0,0,1,2.309,19.765,85.777,85.777,0,0,1-2.309,19.765,88.082,88.082,0,0,1-6.621,18.409,94.78,94.78,0,0,1-10.477,16.659,103.658,103.658,0,0,1-13.875,14.515,112.643,112.643,0,0,1-16.817,11.976,120.368,120.368,0,0,1-19.3,9.042A128.561,128.561,0,0,1,4662.631-5002.854Z" transform="translate(-3898.917 5236.551)" fill="#aaa"/>
      <g id="Mask_Group_63" data-name="Mask Group 63" transform="translate(633.773 12.549)" clip-path="url(#clip-path-2)">
        <g id="Group_11445" data-name="Group 11445" transform="translate(-107.388 -33.691)">
          <path id="Path_63808" data-name="Path 63808" d="M520.913,462.287h0l.068-.1A1.07,1.07,0,0,0,520.913,462.287Z" transform="translate(-223.094 -222.243)" fill="#be1e2d" fill-rule="evenodd"/>
          <g id="Group_11376" data-name="Group 11376" transform="translate(1.276 80.46)" opacity="0.3" style="mix-blend-mode: multiply;isolation: isolate">
            <path id="Path_63809" data-name="Path 63809" d="M46.821,230.634c-3.211,1.627-3.269,4.437-.131,6.238l142.355,82.683L308.852,386.97a12.945,12.945,0,0,0,11.428.121L365.1,362.325c3.147-1.743,3.138-4.612-.019-6.38L102.331,207.31a13.778,13.778,0,0,0-11.574-.267Z" transform="translate(-44.374 -205.897)"/>
          </g>
          <path id="Path_63810" data-name="Path 63810" d="M414.807,336.332a.161.161,0,0,0-.035,0l41.239-23.164a1.022,1.022,0,0,1,.9.086L488.3,330.828a4.036,4.036,0,0,1,1.775,2.8l1.233,7.222,4.426,21.441.078,6.406a1.843,1.843,0,0,1,1.529,1.9c.108,1.646,0,1.757.043,3.411a2.656,2.656,0,0,1-.553,1.595l-.928.53.117,9.924a1.839,1.839,0,0,1,1.533,1.892c.105,1.653.038,4.96.079,6.607a2.668,2.668,0,0,1-.557,1.595L457.753,418.7s-2.866,1.479-5.173.465l-12.467-7.047-.045-.633a24.281,24.281,0,0,0-11.336-19c-5.681-3.337-11.232-.017-11.027,6.433.012.375.037.757.07,1.135l-2.5-1.407-.353-4.018-.684-57.091C414.23,336.686,414.506,336.4,414.807,336.332Z" transform="translate(-182.803 -165.926)" fill="#ffd0b7"/>
          <g id="Group_11377" data-name="Group 11377" transform="translate(153.381 170.406)">
            <path id="Path_63811" data-name="Path 63811" d="M415.13,350.44c-.006,0-.01,0-.019,0h-.016A.163.163,0,0,1,415.13,350.44Z" transform="translate(-336.507 -350.44)" fill="#fbaa7c"/>
            <path id="Path_63812" data-name="Path 63812" d="M293.376,359.257l2.062-1.23,63.94,35.932,7.938-4.34-.044-3.517-.248-20.677-.165-13.775c-.01-.834.254-1.131.548-1.206l.4,0a1.483,1.483,0,0,1,.363.143l31.381,17.572a4.045,4.045,0,0,1,1.774,2.795l5.658,28.667.075,6.507c-2.912-.077-7.025-2.633-10.836-4.518l7.9,4.442c3.156,1.774,6.737-.512,6.737-.512l2.745-1.577.075,6.255-3.557,2.042a8.474,8.474,0,0,1-2.983.805l.117,9.918c-3-.059-7.767-2.7-11.84-4.587a32.162,32.162,0,0,0-13.047-15.919c-6.862-4.028-13.577-.724-14.5,6.375l-.335-.114.017,1.472-1.648,1.447L339.15,396.622l-.005-.432-.788.449-1.441-.81a10,10,0,0,0,.05-1.38,24.247,24.247,0,0,0-11.321-18.975c-5.671-3.331-11.215-.022-11.013,6.426.014.488.051.971.106,1.46l-1.014-.569-1.61-.835a10.577,10.577,0,0,0,.054-1.376A24.272,24.272,0,0,0,300.844,361.6c-5.676-3.328-11.219-.019-11.016,6.426.013.488.052.974.106,1.462l-1.011-.569c-.059-.529-.1-1.055-.113-1.584C288.683,363.31,290.576,360.387,293.376,359.257Z" transform="translate(-288.804 -350.441)" fill="#fbaa7c"/>
          </g>
          <path id="Path_63813" data-name="Path 63813" d="M290.551,375.465c-.054-.488-.093-.974-.106-1.462-.172-5.469,3.787-8.676,8.457-7.494h0a9.875,9.875,0,0,1,2.559,1.068,24.272,24.272,0,0,1,11.322,18.979,10.577,10.577,0,0,1-.054,1.376l1.281.665-6.086,3.411a6.719,6.719,0,0,1-6.179-.674,21.113,21.113,0,0,1-9.854-16.518c0-.065,0-.126,0-.189,0,.023-.007.042-.007.063Z" transform="translate(-136.041 -186.011)" fill="#343433"/>
          <path id="Path_63814" data-name="Path 63814" d="M336.01,391l3.63-2.057a9.833,9.833,0,0,1,2.556,1.07,24.247,24.247,0,0,1,11.321,18.975,10,10,0,0,1-.05,1.38l1.233.7-6.039,3.381a6.728,6.728,0,0,1-6.181-.673,21.12,21.12,0,0,1-9.851-16.521C332.531,394.2,333.924,391.947,336.01,391Z" transform="translate(-151.975 -194.579)" fill="#343433"/>
          <path id="Path_63815" data-name="Path 63815" d="M280.879,369.772l2.306,1.28-.076-6.394-2.3-1.28Z" transform="translate(-132.402 -184.921)" fill="#8897a0"/>
          <g id="Group_11378" data-name="Group 11378" transform="translate(155.846 182.069)">
            <path id="Path_63816" data-name="Path 63816" d="M292.771,375.919a21.113,21.113,0,0,0,9.854,16.518c4.941,2.9,9.765.023,9.589-5.593a21.127,21.127,0,0,0-9.853-16.517C297.418,367.428,292.594,370.305,292.771,375.919Z" transform="translate(-292.766 -369.182)" fill="#424040"/>
          </g>
          <g id="Group_11379" data-name="Group 11379" transform="translate(156.526 183.341)">
            <path id="Path_63817" data-name="Path 63817" d="M293.862,377.426a19.485,19.485,0,0,0,8.986,15.207c4.505,2.666,8.9.013,8.741-5.151a19.464,19.464,0,0,0-8.984-15.2C298.1,369.611,293.7,372.263,293.862,377.426Z" transform="translate(-293.858 -371.226)" fill="#575656"/>
          </g>
          <g id="Group_11380" data-name="Group 11380" transform="translate(158.984 186.88)">
            <path id="Path_63818" data-name="Path 63818" d="M297.812,381.156a13.3,13.3,0,0,0,6.2,10.4c3.113,1.827,6.147.011,6.037-3.521a13.3,13.3,0,0,0-6.2-10.4C300.739,375.808,297.7,377.624,297.812,381.156Z" transform="translate(-297.809 -376.913)" fill="#cdcccb"/>
          </g>
          <path id="Path_63819" data-name="Path 63819" d="M301.774,376.932c-1.763.187-3.068,1.694-3,3.96a12.5,12.5,0,0,0,5.808,9.774c2.349,1.378,4.643.54,5.4-1.573-.466,2.812-3.185,4.1-5.97,2.461a13.3,13.3,0,0,1-6.2-10.4C297.728,378.43,299.518,376.722,301.774,376.932Z" transform="translate(-138.825 -190.034)" fill="#424040"/>
          <g id="Group_11381" data-name="Group 11381" transform="translate(163.292 189.879)">
            <path id="Path_63820" data-name="Path 63820" d="M304.732,383.995a7.083,7.083,0,0,0,3.307,5.535,2.009,2.009,0,0,0,3.212-1.873,7.085,7.085,0,0,0-3.3-5.54A2.015,2.015,0,0,0,304.732,383.995Z" transform="translate(-304.731 -381.733)" fill="#e8e9e8"/>
          </g>
          <g id="Group_11382" data-name="Group 11382" transform="translate(165.772 192.475)">
            <path id="Path_63821" data-name="Path 63821" d="M308.717,386.615a2.23,2.23,0,0,0,1.038,1.744.635.635,0,0,0,1.014-.591,2.235,2.235,0,0,0-1.042-1.745A.633.633,0,0,0,308.717,386.615Z" transform="translate(-308.716 -385.904)" fill="#424040"/>
          </g>
          <g id="Group_11383" data-name="Group 11383" transform="translate(167.634 196.423)">
            <path id="Path_63822" data-name="Path 63822" d="M311.724,392.464a.839.839,0,0,0,.232.734.243.243,0,0,0,.427-.131.839.839,0,0,0-.235-.734A.241.241,0,0,0,311.724,392.464Z" transform="translate(-311.71 -392.248)" fill="#424040"/>
          </g>
          <g id="Group_11384" data-name="Group 11384" transform="translate(164.825 190.703)">
            <path id="Path_63823" data-name="Path 63823" d="M307.195,383.324a.857.857,0,0,0,.4.662.24.24,0,0,0,.383-.223.824.824,0,0,0-.4-.659A.239.239,0,0,0,307.195,383.324Z" transform="translate(-307.195 -383.057)" fill="#424040"/>
          </g>
          <g id="Group_11385" data-name="Group 11385" transform="translate(167.242 191.627)">
            <path id="Path_63824" data-name="Path 63824" d="M311.175,384.593a.56.56,0,0,0-.03.584c.087.189.281.269.383.156a.561.561,0,0,0,.031-.583C311.47,384.56,311.275,384.48,311.175,384.593Z" transform="translate(-311.078 -384.541)" fill="#424040"/>
          </g>
          <g id="Group_11386" data-name="Group 11386" transform="translate(168.334 194.515)">
            <path id="Path_63825" data-name="Path 63825" d="M312.835,389.386a.574.574,0,0,0,.438.4c.2.061.386-.04.365-.187a.581.581,0,0,0-.433-.4C313,389.143,312.816,389.235,312.835,389.386Z" transform="translate(-312.834 -389.182)" fill="#424040"/>
          </g>
          <g id="Group_11387" data-name="Group 11387" transform="translate(163.917 193.096)">
            <path id="Path_63826" data-name="Path 63826" d="M305.822,387.335a.855.855,0,0,0,.738.236.235.235,0,0,0,.135-.418.852.852,0,0,0-.738-.238A.237.237,0,0,0,305.822,387.335Z" transform="translate(-305.736 -386.902)" fill="#424040"/>
          </g>
          <g id="Group_11388" data-name="Group 11388" transform="translate(165.384 195.328)">
            <path id="Path_63827" data-name="Path 63827" d="M308.451,391.389a.828.828,0,0,0,.475-.6.241.241,0,0,0-.353-.271.824.824,0,0,0-.477.6A.243.243,0,0,0,308.451,391.389Z" transform="translate(-308.092 -390.49)" fill="#424040"/>
          </g>
          <path id="Path_63828" data-name="Path 63828" d="M300.043,379.512l0,0,.064-.1C300.083,379.442,300.065,379.477,300.043,379.512Z" transform="translate(-139.668 -190.976)" fill="#be1e2d" fill-rule="evenodd"/>
          <path id="Path_63829" data-name="Path 63829" d="M339.9,401.8l0,0,.061-.1C339.941,401.733,339.922,401.771,339.9,401.8Z" transform="translate(-154.723 -199.396)" fill="#be1e2d" fill-rule="evenodd"/>
          <g id="Group_11389" data-name="Group 11389" transform="translate(180.649 195.939)">
            <path id="Path_63830" data-name="Path 63830" d="M332.629,398.208a21.12,21.12,0,0,0,9.851,16.521c4.944,2.9,9.765.023,9.591-5.594a21.1,21.1,0,0,0-9.858-16.518C337.278,389.713,332.452,392.6,332.629,398.208Z" transform="translate(-332.624 -391.471)" fill="#424040"/>
          </g>
          <g id="Group_11390" data-name="Group 11390" transform="translate(181.329 197.212)">
            <path id="Path_63831" data-name="Path 63831" d="M333.721,399.716a19.484,19.484,0,0,0,8.982,15.209c4.508,2.666,8.9.017,8.746-5.15a19.478,19.478,0,0,0-8.989-15.2C337.957,391.9,333.559,394.554,333.721,399.716Z" transform="translate(-333.717 -393.517)" fill="#575656"/>
          </g>
          <g id="Group_11391" data-name="Group 11391" transform="translate(183.785 200.751)">
            <path id="Path_63832" data-name="Path 63832" d="M337.667,403.443a13.312,13.312,0,0,0,6.2,10.4c3.113,1.829,6.149.011,6.04-3.523a13.3,13.3,0,0,0-6.207-10.4C340.6,398.1,337.556,399.916,337.667,403.443Z" transform="translate(-337.664 -399.203)" fill="#cdcccb"/>
          </g>
          <path id="Path_63833" data-name="Path 63833" d="M341.627,399.225c-1.761.185-3.065,1.695-2.994,3.961a12.5,12.5,0,0,0,5.81,9.77c2.349,1.381,4.643.544,5.4-1.569-.465,2.813-3.184,4.1-5.97,2.46a13.312,13.312,0,0,1-6.2-10.4C337.582,400.715,339.375,399.016,341.627,399.225Z" transform="translate(-153.879 -198.454)" fill="#424040"/>
          <g id="Group_11392" data-name="Group 11392" transform="translate(188.097 203.751)">
            <path id="Path_63834" data-name="Path 63834" d="M344.594,406.283a7.073,7.073,0,0,0,3.3,5.537,2.01,2.01,0,0,0,3.215-1.871,7.083,7.083,0,0,0-3.3-5.542A2.01,2.01,0,0,0,344.594,406.283Z" transform="translate(-344.592 -404.024)" fill="#e8e9e8"/>
          </g>
          <g id="Group_11393" data-name="Group 11393" transform="translate(190.572 206.346)">
            <path id="Path_63835" data-name="Path 63835" d="M348.571,408.908a2.234,2.234,0,0,0,1.04,1.742.634.634,0,0,0,1.014-.592,2.237,2.237,0,0,0-1.042-1.742A.633.633,0,0,0,348.571,408.908Z" transform="translate(-348.57 -408.196)" fill="#424040"/>
          </g>
          <g id="Group_11394" data-name="Group 11394" transform="translate(192.437 210.294)">
            <path id="Path_63836" data-name="Path 63836" d="M351.582,414.756a.817.817,0,0,0,.232.729.24.24,0,0,0,.425-.128.826.826,0,0,0-.234-.732A.239.239,0,0,0,351.582,414.756Z" transform="translate(-351.568 -414.54)" fill="#424040"/>
          </g>
          <g id="Group_11395" data-name="Group 11395" transform="translate(189.627 204.571)">
            <path id="Path_63837" data-name="Path 63837" d="M347.052,405.612a.842.842,0,0,0,.4.662.24.24,0,0,0,.382-.225.848.848,0,0,0-.4-.659A.24.24,0,0,0,347.052,405.612Z" transform="translate(-347.052 -405.343)" fill="#424040"/>
          </g>
          <g id="Group_11396" data-name="Group 11396" transform="translate(192.043 205.498)">
            <path id="Path_63838" data-name="Path 63838" d="M351.029,406.883a.561.561,0,0,0-.029.582c.087.19.281.268.381.16a.551.551,0,0,0,.032-.585C351.328,406.847,351.132,406.773,351.029,406.883Z" transform="translate(-350.935 -406.832)" fill="#424040"/>
          </g>
          <g id="Group_11397" data-name="Group 11397" transform="translate(193.136 208.384)">
            <path id="Path_63839" data-name="Path 63839" d="M352.692,411.677a.582.582,0,0,0,.436.4c.205.057.388-.041.367-.187a.587.587,0,0,0-.434-.4C352.858,411.43,352.674,411.525,352.692,411.677Z" transform="translate(-352.691 -411.47)" fill="#424040"/>
          </g>
          <g id="Group_11398" data-name="Group 11398" transform="translate(188.72 206.967)">
            <path id="Path_63840" data-name="Path 63840" d="M345.678,409.628a.874.874,0,0,0,.741.234.235.235,0,0,0,.133-.417.852.852,0,0,0-.737-.238A.238.238,0,0,0,345.678,409.628Z" transform="translate(-345.593 -409.193)" fill="#424040"/>
          </g>
          <g id="Group_11399" data-name="Group 11399" transform="translate(190.186 209.199)">
            <path id="Path_63841" data-name="Path 63841" d="M348.309,413.681a.83.83,0,0,0,.475-.6.244.244,0,0,0-.356-.274.838.838,0,0,0-.472.6A.242.242,0,0,0,348.309,413.681Z" transform="translate(-347.95 -412.78)" fill="#424040"/>
          </g>
          <path id="Path_63842" data-name="Path 63842" d="M338.761,388.8l-3.63,2.057c-2.058.932-3.438,3.131-3.381,6.126l-1.341.773c-.055-.489-.092-.972-.106-1.461C330.13,390.829,334.092,387.619,338.761,388.8Z" transform="translate(-151.096 -194.431)" fill="#343433"/>
          <g id="Group_11400" data-name="Group 11400" transform="translate(230.312 215.482)" opacity="0.2">
            <path id="Path_63843" data-name="Path 63843" d="M414.083,422.877l.158,13.223.017,1.472-1.649,1.447-.177-14.693Z" transform="translate(-412.432 -422.877)"/>
          </g>
          <g id="Group_11406" data-name="Group 11406" transform="translate(234.896 225.25)">
            <g id="Group_11401" data-name="Group 11401" transform="translate(0.995 1.54)">
              <path id="Path_63844" data-name="Path 63844" d="M421.4,447.785a21.107,21.107,0,0,0,9.853,16.521c4.943,2.9,9.767.021,9.592-5.591a21.139,21.139,0,0,0-9.855-16.526C426.051,439.294,421.225,442.177,421.4,447.785Z" transform="translate(-421.397 -441.047)" fill="#424040"/>
            </g>
            <g id="Group_11402" data-name="Group 11402" transform="translate(1.675 2.815)">
              <path id="Path_63845" data-name="Path 63845" d="M422.5,449.3a19.478,19.478,0,0,0,8.984,15.2c4.507,2.668,8.9.017,8.744-5.146a19.47,19.47,0,0,0-8.989-15.2C426.73,441.481,422.331,444.135,422.5,449.3Z" transform="translate(-422.491 -443.097)" fill="#575656"/>
            </g>
            <path id="Path_63846" data-name="Path 63846" d="M430.405,448.8c-1.764.187-3.07,1.7-3,3.964a12.5,12.5,0,0,0,5.808,9.767c2.347,1.383,4.65.545,5.4-1.569-.466,2.812-3.187,4.094-5.97,2.463a13.309,13.309,0,0,1-6.2-10.4C426.355,450.293,428.151,448.593,430.405,448.8Z" transform="translate(-422.307 -442.429)" fill="#424040"/>
            <g id="Group_11403" data-name="Group 11403" transform="translate(5.097 6.374)">
              <path id="Path_63847" data-name="Path 63847" d="M433.8,462.544a12.5,12.5,0,0,1-5.808-9.767c-.072-2.257,1.221-3.764,2.974-3.96a5.061,5.061,0,0,1,2.1.7,13.294,13.294,0,0,1,6.205,10.4,5.318,5.318,0,0,1-.077,1.08C438.431,463.093,436.141,463.921,433.8,462.544Z" transform="translate(-427.99 -448.817)" fill="#cdcccb"/>
              <path id="Path_63848" data-name="Path 63848" d="M445.947,468.487c-.012.073-.031.149-.048.223C445.916,468.636,445.934,468.558,445.947,468.487Z" transform="translate(-434.755 -456.247)" fill="#cdcccb"/>
            </g>
            <g id="Group_11404" data-name="Group 11404" transform="translate(6.653 10.1)">
              <path id="Path_63849" data-name="Path 63849" d="M430.492,457.064A7.088,7.088,0,0,0,433.8,462.6a2.01,2.01,0,0,0,3.212-1.876,7.083,7.083,0,0,0-3.3-5.536A2.013,2.013,0,0,0,430.492,457.064Z" transform="translate(-430.491 -454.804)" fill="#e8e9e8"/>
            </g>
            <g id="Group_11405" data-name="Group 11405" transform="translate(5.144 6.628)">
              <path id="Path_63850" data-name="Path 63850" d="M439.456,456.88l1.457-1.446c.273.376.527.762.763,1.163l-1.846.853C439.714,457.254,439.588,457.067,439.456,456.88Z" transform="translate(-432.368 -451.57)" fill="#343433" fill-rule="evenodd"/>
              <path id="Path_63851" data-name="Path 63851" d="M435.688,452.755c-.1-.052-.187-.1-.284-.141l.353-2.536a1.092,1.092,0,0,1,.134.069,10.991,10.991,0,0,1,1.058.732L436.067,453C435.943,452.915,435.814,452.833,435.688,452.755Z" transform="translate(-430.837 -449.547)" fill="#343433" fill-rule="evenodd"/>
              <path id="Path_63852" data-name="Path 63852" d="M440.76,459.559l1.909-.74a13.011,13.011,0,0,1,.584,1.392l-2.175.161A6.991,6.991,0,0,0,440.76,459.559Z" transform="translate(-432.86 -452.848)" fill="#343433" fill-rule="evenodd"/>
              <path id="Path_63853" data-name="Path 63853" d="M437.711,454.482l.848-2.116a12.3,12.3,0,0,1,1.012,1.053l-1.291,1.651A8.17,8.17,0,0,0,437.711,454.482Z" transform="translate(-431.708 -450.411)" fill="#343433" fill-rule="evenodd"/>
              <path id="Path_63854" data-name="Path 63854" d="M430.171,453.38l-1.132-1.836a3.687,3.687,0,0,1,.22-.38,3.1,3.1,0,0,1,.312-.409l.9,2.307A1.8,1.8,0,0,0,430.171,453.38Z" transform="translate(-428.433 -449.802)" fill="#343433" fill-rule="evenodd"/>
              <path id="Path_63855" data-name="Path 63855" d="M429.394,455.376,428.2,454.05a7.229,7.229,0,0,1,.2-.79l1.185,1.5A2.631,2.631,0,0,0,429.394,455.376Z" transform="translate(-428.117 -450.748)" fill="#343433" fill-rule="evenodd"/>
              <path id="Path_63856" data-name="Path 63856" d="M431.547,452.255l-.771-2.536a2.454,2.454,0,0,1,.869-.388l.392,2.757A1.966,1.966,0,0,0,431.547,452.255Z" transform="translate(-429.089 -449.264)" fill="#343433" fill-rule="evenodd"/>
              <path id="Path_63857" data-name="Path 63857" d="M433.4,452l-.349-2.78h.019a3.3,3.3,0,0,1,1.064.2l-.229,2.658A2.625,2.625,0,0,0,433.4,452Z" transform="translate(-429.948 -449.224)" fill="#343433" fill-rule="evenodd"/>
              <path id="Path_63858" data-name="Path 63858" d="M441.652,462.757l2.257-.009a11.479,11.479,0,0,1,.257,1.384l-2.405-.574A6.69,6.69,0,0,0,441.652,462.757Z" transform="translate(-433.197 -454.332)" fill="#343433" fill-rule="evenodd"/>
              <path id="Path_63859" data-name="Path 63859" d="M434.154,466.511l.086,1.344c-.253-.231-.5-.469-.74-.724l.182-1.057C433.834,466.228,433.99,466.372,434.154,466.511Z" transform="translate(-430.118 -455.589)" fill="#343433" fill-rule="evenodd"/>
              <path id="Path_63860" data-name="Path 63860" d="M431.9,464.37l-.319.874a12.872,12.872,0,0,1-.83-1.237l.786-.164C431.652,464.024,431.774,464.2,431.9,464.37Z" transform="translate(-429.08 -454.745)" fill="#343433" fill-rule="evenodd"/>
              <path id="Path_63861" data-name="Path 63861" d="M430.344,461.537l-.76.193a12.479,12.479,0,0,1-.609-1.467l.992.323A7.911,7.911,0,0,0,430.344,461.537Z" transform="translate(-428.409 -453.394)" fill="#343433" fill-rule="evenodd"/>
              <path id="Path_63862" data-name="Path 63862" d="M441.7,465.373l2.493.618c0,.06.008.119.008.179a3.141,3.141,0,0,1-.129.951l-2.522-1.172A2.791,2.791,0,0,0,441.7,465.373Z" transform="translate(-433.16 -455.324)" fill="#343433" fill-rule="evenodd"/>
              <path id="Path_63863" data-name="Path 63863" d="M429.288,457.221a6.213,6.213,0,0,0,.116.965l-1.054-.4a10.031,10.031,0,0,1-.286-1.61Z" transform="translate(-428.065 -451.849)" fill="#343433" fill-rule="evenodd"/>
              <path id="Path_63864" data-name="Path 63864" d="M435.834,467.713c.115.062.228.121.34.174l.782,1.848c-.063-.019-.121-.045-.185-.06-.039-.025-.081-.044-.123-.07-.263-.154-.52-.327-.771-.51l-.351-1.584C435.628,467.582,435.728,467.647,435.834,467.713Z" transform="translate(-430.883 -456.131)" fill="#343433" fill-rule="evenodd"/>
              <path id="Path_63865" data-name="Path 63865" d="M441.022,467l2.409,1.413a2.6,2.6,0,0,1-.518.568,2.9,2.9,0,0,1-.265.193l-1.925-1.809A2.218,2.218,0,0,0,441.022,467Z" transform="translate(-432.846 -455.939)" fill="#343433" fill-rule="evenodd"/>
              <path id="Path_63866" data-name="Path 63866" d="M439.843,468.115l1.795,1.771a3.933,3.933,0,0,1-.838.233l-1.252-1.871A1.972,1.972,0,0,0,439.843,468.115Z" transform="translate(-432.402 -456.359)" fill="#343433" fill-rule="evenodd"/>
              <path id="Path_63867" data-name="Path 63867" d="M438.4,468.493l1.014,1.824h-.04a5.46,5.46,0,0,1-.711-.048l-.872-1.793A2.241,2.241,0,0,0,438.4,468.493Z" transform="translate(-431.739 -456.496)" fill="#343433" fill-rule="evenodd"/>
            </g>
            <path id="Path_63868" data-name="Path 63868" d="M427.579,438.673l0,0,.019.005a.251.251,0,0,1,.065.011l-.007.006a9.341,9.341,0,0,1,3.174,1.193,24.281,24.281,0,0,1,11.336,19l.045.633,1.34.761-6,3.362a6.453,6.453,0,0,0,2.694-5.861,21.139,21.139,0,0,0-9.855-16.526c-4.94-2.9-9.766-.012-9.589,5.6,0,.022,0,.044,0,.067l-.926.53c-.034-.377-.058-.755-.07-1.128C419.639,441.116,423.217,437.96,427.579,438.673Z" transform="translate(-419.799 -438.573)" fill="#343433"/>
          </g>
          <g id="Group_11408" data-name="Group 11408" transform="translate(259.791 202.85)">
            <path id="Path_63869" data-name="Path 63869" d="M506.613,459.091l15.677-9.026a2.091,2.091,0,0,0,.951-1.66l.005.525a2.08,2.08,0,0,1-.947,1.655l-15.678,9.028c-.528.307-.968.062-.977-.549l0-.521C505.646,459.152,506.086,459.4,506.613,459.091Z" transform="translate(-477.117 -419.887)" fill="#fff" opacity="0.5" style="mix-blend-mode: overlay;isolation: isolate"/>
            <path id="Path_63870" data-name="Path 63870" d="M537.3,405.553c2.392-1.4,5.083-2.976,5.083-2.976.655.508.167.975-.166,1.233l-3.691,2.118Z" transform="translate(-489.076 -402.577)" fill="#fff" opacity="0.5" style="mix-blend-mode: overlay;isolation: isolate"/>
            <g id="Group_11407" data-name="Group 11407" transform="translate(0 18.24)" opacity="0.5" style="mix-blend-mode: overlay;isolation: isolate">
              <path id="Path_63871" data-name="Path 63871" d="M476.065,436.6s-3.582,2.286-6.737.512l-7.905-4.444c4.7,2.323,9.864,5.673,12.667,4.132,1.239-.681,1.9-1.051,3.762-2.1l.877.37Z" transform="translate(-460.415 -432.183)" fill="#fff"/>
              <path id="Path_63872" data-name="Path 63872" d="M459.831,431.9l-.027-.015a.081.081,0,0,0,.026.013Z" transform="translate(-459.804 -431.889)" fill="#fff"/>
            </g>
            <path id="Path_63873" data-name="Path 63873" d="M513.28,431.564,475.79,453.072s-3.583,2.283-6.739.512l-8.912-5.007c4.951,2.3,10.924,5.7,13.512,4.242,9.3-5.276,39.7-22.48,39.7-22.48C514,430.843,513.614,431.306,513.28,431.564Z" transform="translate(-459.93 -413.063)" fill="#fff" opacity="0.5" style="mix-blend-mode: overlay;isolation: isolate"/>
          </g>
          <g id="Group_11410" data-name="Group 11410" transform="translate(233.751 150.385)">
            <path id="Path_63874" data-name="Path 63874" d="M537.378,413.618l1.225.284-.075-6.169-1.227-.374Z" transform="translate(-463.037 -351.919)" opacity="0.1" style="mix-blend-mode: multiply;isolation: isolate"/>
            <path id="Path_63875" data-name="Path 63875" d="M537.058,424.472l5.1-2.893.026,5.451-4.878,2.7s-.766.329-.775-.5l-.045-3.614A1.408,1.408,0,0,1,537.058,424.472Z" transform="translate(-462.731 -357.29)" opacity="0.1" style="mix-blend-mode: multiply;isolation: isolate"/>
            <path id="Path_63876" data-name="Path 63876" d="M477.174,456.2l.278.094a2.569,2.569,0,0,0,1.927-.206l6.652-3.892c.814-.471.8.586.8.586l.04,3.418,0,.173a1.363,1.363,0,0,1-.78,1.2l-6.013,3.457a3.439,3.439,0,0,1-2.848.385Z" transform="translate(-440.326 -368.808)" opacity="0.1" style="mix-blend-mode: multiply;isolation: isolate"/>
            <path id="Path_63877" data-name="Path 63877" d="M471.606,457l3.184,1.079.061,5.182a9.483,9.483,0,0,1-1.758-.643s-1.429-.454-1.6-1.184l-.573-3.675C470.733,456.731,471.606,457,471.606,457Z" transform="translate(-437.954 -370.656)" fill-rule="evenodd" opacity="0.1" style="mix-blend-mode: multiply;isolation: isolate"/>
            <path id="Path_63878" data-name="Path 63878" d="M493.123,470.679a2.435,2.435,0,0,0,1.111-1.95.714.714,0,0,0-1.144-.65,2.208,2.208,0,0,0-.21.148,2.576,2.576,0,0,1,.682-.62.83.83,0,0,1,1.329.75,2.824,2.824,0,0,1-1.291,2.266.977.977,0,0,1-.672.146A1.061,1.061,0,0,0,493.123,470.679Z" transform="translate(-446.258 -374.615)" opacity="0.2" style="mix-blend-mode: multiply;isolation: isolate"/>
            <path id="Path_63879" data-name="Path 63879" d="M486.542,474.231a2.431,2.431,0,0,0,1.111-1.948.713.713,0,0,0-1.14-.65,2.012,2.012,0,0,0-.213.149,2.512,2.512,0,0,1,.683-.622.825.825,0,0,1,1.325.75,2.813,2.813,0,0,1-1.287,2.261.969.969,0,0,1-.671.148A1.757,1.757,0,0,0,486.542,474.231Z" transform="translate(-443.773 -375.957)" opacity="0.2" style="mix-blend-mode: multiply;isolation: isolate"/>
            <path id="Path_63880" data-name="Path 63880" d="M537.589,444.922a2.431,2.431,0,0,0,1.11-1.951.713.713,0,0,0-1.14-.65,2.377,2.377,0,0,0-.213.15,2.526,2.526,0,0,1,.68-.624.83.83,0,0,1,1.329.753,2.823,2.823,0,0,1-1.291,2.266.97.97,0,0,1-.668.144A1.014,1.014,0,0,0,537.589,444.922Z" transform="translate(-463.054 -364.885)" opacity="0.2" style="mix-blend-mode: multiply;isolation: isolate"/>
            <path id="Path_63881" data-name="Path 63881" d="M543.341,442.223a2.428,2.428,0,0,0,1.112-1.948.715.715,0,0,0-1.144-.652,1.636,1.636,0,0,0-.21.153,2.52,2.52,0,0,1,.681-.627.831.831,0,0,1,1.328.754,2.827,2.827,0,0,1-1.289,2.266.977.977,0,0,1-.671.146A.909.909,0,0,0,543.341,442.223Z" transform="translate(-465.227 -363.867)" opacity="0.2" style="mix-blend-mode: multiply;isolation: isolate"/>
            <path id="Path_63882" data-name="Path 63882" d="M471.019,318.267l26.067,14.515c.641.358.668.934.058,1.282a2.575,2.575,0,0,1-2.276-.022l-26.082-14.522Z" transform="translate(-437.157 -318.267)" opacity="0.05" style="mix-blend-mode: multiply;isolation: isolate"/>
            <path id="Path_63883" data-name="Path 63883" d="M460.166,324.364l25.972,14.462c.643.357.669.932.06,1.281a2.573,2.573,0,0,1-2.276-.018L457.936,325.62Z" transform="translate(-433.059 -320.57)" opacity="0.05" style="mix-blend-mode: multiply;isolation: isolate"/>
            <path id="Path_63884" data-name="Path 63884" d="M449.143,330.553l26.048,14.509c.641.355.67.937.058,1.279a2.576,2.576,0,0,1-2.275-.017l-26.063-14.516Z" transform="translate(-428.895 -322.908)" opacity="0.05" style="mix-blend-mode: multiply;isolation: isolate"/>
            <path id="Path_63885" data-name="Path 63885" d="M438.463,336.55l26.2,14.59c.641.357.668.937.058,1.283a2.583,2.583,0,0,1-2.276-.017l-26.217-14.6Z" transform="translate(-424.861 -325.173)" opacity="0.05" style="mix-blend-mode: multiply;isolation: isolate"/>
            <path id="Path_63886" data-name="Path 63886" d="M426.9,343.052l26.133,14.553c.638.355.666.934.057,1.281a2.583,2.583,0,0,1-2.276-.022l-26.146-14.56Z" transform="translate(-420.493 -327.629)" opacity="0.05" style="mix-blend-mode: multiply;isolation: isolate"/>
            <path id="Path_63887" data-name="Path 63887" d="M421.057,364.648c6.271,3.045,24.472,13.085,24.472,13.085s-18.021-9.492-24.252-12.462c-.735-.345-2.925-1.413-2.881,2.224l-.153,23.017s-.235-19.6-.284-23.577S420.259,364.258,421.057,364.648Z" transform="translate(-417.959 -335.592)" opacity="0.1" style="mix-blend-mode: multiply;isolation: isolate"/>
            <path id="Path_63888" data-name="Path 63888" d="M496.235,446.788l-1.474.8-6.3-15.479Z" transform="translate(-444.588 -361.267)" opacity="0.1" style="mix-blend-mode: multiply;isolation: isolate"/>
            <path id="Path_63889" data-name="Path 63889" d="M534.147,403.167l-1.607,21.265-1.215.694Z" transform="translate(-460.779 -350.335)" opacity="0.1" style="mix-blend-mode: multiply;isolation: isolate"/>
            <g id="Group_11409" data-name="Group 11409" transform="translate(54.705 78.629)">
              <path id="Path_63890" data-name="Path 63890" d="M522.747,448.334c0-.013,0-.027,0-.039l-.028-2.2c-.005-.6-.445-.852-.975-.543l-15.677,9.029a1.563,1.563,0,0,0-.2.14,2.054,2.054,0,0,1,.784-.933l15.676-9.03c.533-.3.969-.059.977.551l.02,1.673A2.094,2.094,0,0,1,522.747,448.334Z" transform="translate(-505.87 -444.623)" opacity="0.2" style="mix-blend-mode: multiply;isolation: isolate"/>
            </g>
            <path id="Path_63891" data-name="Path 63891" d="M428.056,343.052l26.133,14.553c.617.342.658.889.115,1.24.248-.334.125-.736-.371-1.016l-26.206-14.591Z" transform="translate(-421.648 -327.629)" opacity="0.1" style="mix-blend-mode: multiply;isolation: isolate"/>
            <path id="Path_63892" data-name="Path 63892" d="M439.618,336.55l26.2,14.59c.618.347.657.893.117,1.24.247-.328.122-.734-.375-1.008l-26.275-14.633Z" transform="translate(-426.015 -325.173)" opacity="0.1" style="mix-blend-mode: multiply;isolation: isolate"/>
            <path id="Path_63893" data-name="Path 63893" d="M450.3,330.553l26.048,14.509c.62.344.66.893.117,1.238.248-.329.123-.736-.371-1.01l-26.123-14.551Z" transform="translate(-430.049 -322.908)" opacity="0.1" style="mix-blend-mode: multiply;isolation: isolate"/>
            <path id="Path_63894" data-name="Path 63894" d="M461.32,324.364l25.972,14.462c.621.344.661.887.118,1.241.249-.331.125-.739-.374-1.013l-26.043-14.5Z" transform="translate(-434.214 -320.57)" opacity="0.1" style="mix-blend-mode: multiply;isolation: isolate"/>
            <path id="Path_63895" data-name="Path 63895" d="M472.173,318.267l26.067,14.515c.617.345.661.89.115,1.24.251-.332.124-.736-.37-1.013l-26.143-14.555Z" transform="translate(-438.312 -318.267)" opacity="0.1" style="mix-blend-mode: multiply;isolation: isolate"/>
          </g>
          <path id="Path_63896" data-name="Path 63896" d="M543.646,378.429l1.131-2.6a1.27,1.27,0,0,1-.333-.918l-.042-3.607-1.986,1.18-.117-.574,2.095-1.248-.07-5.739a3.517,3.517,0,0,1,1.573-2.774l.485-.281c.878-.515,1.6-.106,1.616.9l.123,10.182a3.317,3.317,0,0,1-1.61,2.706l-.41.22a1.447,1.447,0,0,1-.815.186l-1.446,3.306Z" transform="translate(-231.173 -184.267)" fill="#343433"/>
          <path id="Path_63897" data-name="Path 63897" d="M469.1,380.076a3.4,3.4,0,0,0,1.418.279,4.256,4.256,0,0,0,1.52-.287L511.951,357.7l.125.612,4.3,20.83L478.18,400.549a10.138,10.138,0,0,1-3.713.907,3.714,3.714,0,0,1-1.788-.388l-.993-.546-2.787-20.55Z" transform="translate(-203.449 -182.775)" fill="#0d1b3a"/>
          <path id="Path_63898" data-name="Path 63898" d="M470.935,381.281a4.7,4.7,0,0,0,1.743-.339l.024-.009.024-.014,39.243-21.995.518-.246,4.3,20.83-1.693-.612-36.927,20.7a9.781,9.781,0,0,1-3.459.847,3.121,3.121,0,0,1-1.515-.325l-.747-.406-2.454-18.534A4.363,4.363,0,0,0,470.935,381.281Z" transform="translate(-203.861 -183.146)" fill="#36464b"/>
          <path id="Path_63899" data-name="Path 63899" d="M544.511,390.135l.256,1.255-.693-.25Z" transform="translate(-231.844 -195.027)" fill="#c6d1d4"/>
          <path id="Path_63900" data-name="Path 63900" d="M541.4,379.063l1.23,5.944-.771,1.762-1.118-.405-1.136-6.234Z" transform="translate(-230.155 -190.846)" fill="#c6d1d4"/>
          <path id="Path_63901" data-name="Path 63901" d="M535.817,359.493l1.017-.568.518-.247,2.5,12.111-1.782,1.059Z" transform="translate(-228.725 -183.146)" fill="#c6d1d4"/>
          <path id="Path_63902" data-name="Path 63902" d="M523.962,361.393l2.95,16.2,0-.008-1.565.867L508.6,373.237l-.04-3.214Z" transform="translate(-218.429 -184.171)" fill="#c6d1d4"/>
          <path id="Path_63903" data-name="Path 63903" d="M489.467,383.015l8.685-4.87,1.9,10.274-9.731,5.561Z" transform="translate(-211.217 -190.498)" fill="#445053"/>
          <path id="Path_63904" data-name="Path 63904" d="M473.568,391.915l.024-.009.024-.014,7.427-4.164,1.923,10.425-9.735,5.558-.886-11.49A4.51,4.51,0,0,0,473.568,391.915Z" transform="translate(-204.751 -194.118)" fill="#445053"/>
          <g id="Group_11411" data-name="Group 11411" transform="translate(277.971 205.61)">
            <path id="Path_63905" data-name="Path 63905" d="M489.019,407.012h0v0Z" transform="translate(-489.019 -407.012)" fill="#82979e"/>
          </g>
          <path id="Path_63906" data-name="Path 63906" d="M457,387l2.784,20.55-17.107-9.334,0-.171-.014-1.146-.206-17.181-.009-.657Z" transform="translate(-193.458 -190.846)" fill="#141c1e"/>
          <path id="Path_63907" data-name="Path 63907" d="M456.983,388.013l2.489,18.385-15.48-8.381-.232-17.194Z" transform="translate(-193.953 -191.51)" fill="#263338"/>
          <path id="Path_63908" data-name="Path 63908" d="M433.59,374.822a1.486,1.486,0,0,1,.711.2l2.639,1.441.232,19.159-2.643-1.441a3.5,3.5,0,0,1-1.657-2.729l-.184-15.484C432.679,375.249,433.049,374.824,433.59,374.822Z" transform="translate(-189.771 -189.243)" fill="#141c1e"/>
          <path id="Path_63909" data-name="Path 63909" d="M447.13,418.722c0,.133-.1.184-.208.121l-3.4-1.91a.447.447,0,0,1-.21-.352l-.007-.47c0-.129.091-.187.206-.121l3.405,1.909a.46.46,0,0,1,.213.353Z" transform="translate(-193.779 -204.783)" fill="#323b3d"/>
          <path id="Path_63910" data-name="Path 63910" d="M434.212,376.7c0-.222.039-.6.349-.6l.438.136,2.523,1.37.206,17.184-2.074-1.124a2.968,2.968,0,0,1-1.368-2.255Z" transform="translate(-190.346 -189.728)" fill="#263338"/>
          <path id="Path_63911" data-name="Path 63911" d="M463.112,406.589l-2.742,1.563-4.867-2.638-.928-11.96a2.233,2.233,0,0,1,1.019-1.92l2.788-1.6,2.685,1.458Z" transform="translate(-198.036 -194.989)" fill="#445053"/>
          <path id="Path_63912" data-name="Path 63912" d="M452.689,390.373l3.011-1.727,1.586.864-2.788,1.6a2.233,2.233,0,0,0-1.019,1.92l.928,11.96L452.582,404l-.909-11.708A2.228,2.228,0,0,1,452.689,390.373Z" transform="translate(-196.94 -194.465)" fill="#202d30"/>
          <path id="Path_63913" data-name="Path 63913" d="M463.89,418.2l2.743-1.563.443,3.288Z" transform="translate(-201.556 -205.038)" fill="#5c6f75"/>
          <path id="Path_63914" data-name="Path 63914" d="M458.216,408.225l.483-.28c.879-.512,1.608-.106,1.623.9l.069,5.866,4.29-2.53.009.641-4.293,2.526.023,1.9,5.527,5.289.008.777-5.526-5.294.012,1.011a3.325,3.325,0,0,1-1.613,2.708l-.408.22a1.035,1.035,0,0,1-1.658-.97l-.119-9.991A3.507,3.507,0,0,1,458.216,408.225Z" transform="translate(-198.819 -201.671)" fill="#343433"/>
          <path id="Path_63915" data-name="Path 63915" d="M492.722,468.379a.714.714,0,0,1,1.144.65,2.435,2.435,0,0,1-1.111,1.95,1.063,1.063,0,0,1-.194.089.838.838,0,0,1-.656-.9,2.817,2.817,0,0,1,.608-1.642A2.243,2.243,0,0,1,492.722,468.379Z" transform="translate(-212.138 -224.529)" fill="#fff"/>
          <path id="Path_63916" data-name="Path 63916" d="M486.144,471.935a.713.713,0,0,1,1.14.65,2.431,2.431,0,0,1-1.111,1.948,1.716,1.716,0,0,1-.194.09.839.839,0,0,1-.657-.9,2.8,2.8,0,0,1,.609-1.642A2.022,2.022,0,0,1,486.144,471.935Z" transform="translate(-209.652 -225.873)" fill="#fff"/>
          <path id="Path_63917" data-name="Path 63917" d="M537.19,442.623a.712.712,0,0,1,1.14.65,2.431,2.431,0,0,1-1.11,1.951,1.014,1.014,0,0,1-.194.088.832.832,0,0,1-.657-.9,2.78,2.78,0,0,1,.608-1.642A2.407,2.407,0,0,1,537.19,442.623Z" transform="translate(-228.933 -214.801)" fill="#fff"/>
          <path id="Path_63918" data-name="Path 63918" d="M542.94,439.925a.715.715,0,0,1,1.144.652,2.428,2.428,0,0,1-1.112,1.948.906.906,0,0,1-.193.092.843.843,0,0,1-.658-.9,2.785,2.785,0,0,1,.609-1.635A1.637,1.637,0,0,1,542.94,439.925Z" transform="translate(-231.106 -213.782)" fill="#fff"/>
          <path id="Path_63919" data-name="Path 63919" d="M511.129,456.856c0,.37.273.523.6.337l9.581-5.518a1.287,1.287,0,0,0,.582-1.016l-.017-1.344c0-.37-.273-.521-.6-.337l-9.583,5.523a1.274,1.274,0,0,0-.582,1.012Z" transform="translate(-219.393 -217.224)" fill="#ec691f"/>
          <path id="Path_63920" data-name="Path 63920" d="M537,426.458l.037,3.123c.009.778.726.472.726.472l4.586-2.6a.219.219,0,0,0,.031-.013l-.056-4.77-4.794,2.71A1.329,1.329,0,0,0,537,426.458Z" transform="translate(-229.173 -207.317)" fill="#fff"/>
          <path id="Path_63921" data-name="Path 63921" d="M472.417,458.232l2.685.884.054,4.609a9.491,9.491,0,0,1-1.758-.643s-.929-.255-1.1-.988l-.571-3.105C471.546,457.962,472.417,458.232,472.417,458.232Z" transform="translate(-204.508 -220.737)" fill="#e05526" fill-rule="evenodd"/>
          <path id="Path_63922" data-name="Path 63922" d="M477.164,457.394l.259.087a2.486,2.486,0,0,0,1.806-.188l6.25-3.536c.763-.434.752.528.752.528l.037,3.111,0,.04a1.241,1.241,0,0,1-.733,1.088l-5.5,3.113a3.7,3.7,0,0,1-2.822.366Z" transform="translate(-206.57 -219.016)" fill="#fff"/>
          <g id="Group_11412" data-name="Group 11412" transform="translate(278.313 206.373)">
            <path id="Path_63923" data-name="Path 63923" d="M491.771,426.613l24.986-14.19,1.192-4.185-.639,5.009-25.853,14.684-1.887-3.575Z" transform="translate(-489.568 -408.238)" fill="#0d1b3a"/>
            <path id="Path_63924" data-name="Path 63924" d="M532.1,432.38Z" transform="translate(-505.633 -417.357)" fill="#0d1b3a"/>
            <path id="Path_63925" data-name="Path 63925" d="M517.972,436.163l1.5-3.783-.481,3.78-18.9,10.731-1.424-2.7,1.983,1.8Z" transform="translate(-493.005 -417.357)" fill="#0d1b3a"/>
            <path id="Path_63926" data-name="Path 63926" d="M498.667,451.362Z" transform="translate(-493.005 -424.527)" fill="#0d1b3a"/>
            <path id="Path_63927" data-name="Path 63927" d="M494.793,433.232l22.5-12.812,1.162-4.134-.638,5.006-23.326,13.251,2.177,2.267,19.977-11.343,1.172-4.174-.637,5.009-20.8,11.812-3.774-7.142Z" transform="translate(-490.714 -411.278)" fill="#0d1b3a"/>
            <path id="Path_63928" data-name="Path 63928" d="M533.122,424.331Z" transform="translate(-506.019 -414.317)" fill="#0d1b3a"/>
          </g>
          <path id="Path_63929" data-name="Path 63929" d="M293.815,361.573l-2.062,1.23a7.291,7.291,0,0,0-4.3,5.306l-2.864,1.6-.076-6.395,6.208-3.486Z" transform="translate(-133.801 -183.582)" fill="#727e84"/>
          <path id="Path_63930" data-name="Path 63930" d="M289.318,359.059l-6.209,3.486-2.3-1.28,6.239-3.481Z" transform="translate(-132.402 -182.808)" fill="#434b50"/>
          <g id="Group_11413" data-name="Group 11413" transform="translate(170.109 183.662)" opacity="0.2" style="mix-blend-mode: multiply;isolation: isolate">
            <path id="Path_63931" data-name="Path 63931" d="M315.687,371.742l14.648,8.235-2,1.195c-2.8,1.129-4.691,4.055-4.566,8.081.016.484.052.978.1,1.47l-.157.091a11.439,11.439,0,0,0,.053-1.5C323.569,383.062,320.387,376.379,315.687,371.742Z" transform="translate(-315.687 -371.742)" fill="url(#linear-gradient)"/>
          </g>
          <g id="Group_11414" data-name="Group 11414" transform="translate(195.076 197.694)">
            <path id="Path_63932" data-name="Path 63932" d="M355.808,394.291l8.481,4.766.164,13.7-.788.449a11.245,11.245,0,0,0,.053-1.5C363.526,405.519,360.418,398.919,355.808,394.291Z" transform="translate(-355.808 -394.291)" opacity="0.2" fill="url(#linear-gradient-2)" style="mix-blend-mode: multiply;isolation: isolate"/>
          </g>
          <path id="Path_63933" data-name="Path 63933" d="M410.464,413.4l.07,5.9-1.651,1.449-5.847-3.288Z" transform="translate(-178.571 -203.814)" opacity="0.1" style="mix-blend-mode: multiply;isolation: isolate"/>
          <path id="Path_63934" data-name="Path 63934" d="M70.006,237.009l1.47-.831,60.323,33.9a16.369,16.369,0,0,1,.177,1.862c.091,2.942-1.189,5.135-3.142,6.135l-7.368,4.131a6.725,6.725,0,0,1-6.181-.673,21.338,21.338,0,0,1-9.41-13.211l-4.46,2.5a6.73,6.73,0,0,1-6.179-.67,21.306,21.306,0,0,1-9-11.7l-3.577,2a6.721,6.721,0,0,1-6.179-.672,21.106,21.106,0,0,1-9.854-16.519C66.528,240.2,67.919,237.95,70.006,237.009Z" transform="translate(-51.5 -136.875)" fill="#343433"/>
          <path id="Path_63935" data-name="Path 63935" d="M72.124,236.761l8.451,4.75a21.019,21.019,0,0,1,5.493,12.9c.174,5.613-4.646,8.5-9.589,5.592a21.106,21.106,0,0,1-9.854-16.519C66.5,239.473,68.927,236.87,72.124,236.761Z" transform="translate(-51.5 -137.095)" fill="#424040"/>
          <path id="Path_63936" data-name="Path 63936" d="M101.965,253.427l9.093,5.111a20.96,20.96,0,0,1,5.156,12.526c.175,5.616-4.648,8.494-9.592,5.6a21.141,21.141,0,0,1-9.855-16.521C96.648,256.26,98.918,253.687,101.965,253.427Z" transform="translate(-62.886 -143.39)" fill="#424040"/>
          <path id="Path_63937" data-name="Path 63937" d="M134.39,271.721l8.655,4.863a20.979,20.979,0,0,1,5.385,12.776c.175,5.616-4.645,8.5-9.589,5.594a21.121,21.121,0,0,1-9.854-16.518C128.863,274.469,131.242,271.878,134.39,271.721Z" transform="translate(-75.056 -150.3)" fill="#424040"/>
          <path id="Path_63938" data-name="Path 63938" d="M248.5,334.487l-1.527,1.111.044,3.839,4.435-3.282Z" transform="translate(-119.625 -174.008)" fill="#343433"/>
          <g id="Group_11415" data-name="Group 11415" transform="translate(15.799 100.92)">
            <path id="Path_63939" data-name="Path 63939" d="M67.716,244.977a19.461,19.461,0,0,0,8.985,15.2c4.505,2.67,8.9.021,8.743-5.148a19.465,19.465,0,0,0-8.987-15.2C71.953,237.161,67.554,239.814,67.716,244.977Z" transform="translate(-67.712 -238.777)" fill="#575656"/>
          </g>
          <g id="Group_11416" data-name="Group 11416" transform="translate(18.256 104.46)">
            <path id="Path_63940" data-name="Path 63940" d="M71.663,248.707a13.309,13.309,0,0,0,6.2,10.4c3.114,1.826,6.148.012,6.039-3.523a13.3,13.3,0,0,0-6.206-10.4C74.591,243.36,71.553,245.176,71.663,248.707Z" transform="translate(-71.66 -244.465)" fill="#cdcccb"/>
          </g>
          <path id="Path_63941" data-name="Path 63941" d="M75.624,244.484c-1.762.186-3.063,1.7-3,3.962a12.51,12.51,0,0,0,5.808,9.774c2.348,1.38,4.648.54,5.4-1.573-.465,2.814-3.184,4.093-5.97,2.462a13.309,13.309,0,0,1-6.2-10.4C71.577,245.978,73.371,244.276,75.624,244.484Z" transform="translate(-53.404 -140.006)" fill="#424040"/>
          <g id="Group_11417" data-name="Group 11417" transform="translate(22.565 107.459)">
            <path id="Path_63942" data-name="Path 63942" d="M78.586,251.542a7.094,7.094,0,0,0,3.3,5.54,2.011,2.011,0,0,0,3.214-1.874,7.073,7.073,0,0,0-3.3-5.538A2.011,2.011,0,0,0,78.586,251.542Z" transform="translate(-78.585 -249.285)" fill="#e8e9e8"/>
          </g>
          <g id="Group_11418" data-name="Group 11418" transform="translate(25.044 110.054)">
            <path id="Path_63943" data-name="Path 63943" d="M82.569,254.166a2.242,2.242,0,0,0,1.04,1.744.633.633,0,0,0,1.012-.589,2.224,2.224,0,0,0-1.04-1.746A.633.633,0,0,0,82.569,254.166Z" transform="translate(-82.568 -253.455)" fill="#424040"/>
          </g>
          <g id="Group_11419" data-name="Group 11419" transform="translate(26.907 114.003)">
            <path id="Path_63944" data-name="Path 63944" d="M85.577,260.017a.844.844,0,0,0,.232.734.242.242,0,0,0,.425-.134.821.821,0,0,0-.233-.731A.24.24,0,0,0,85.577,260.017Z" transform="translate(-85.563 -259.8)" fill="#424040"/>
          </g>
          <g id="Group_11420" data-name="Group 11420" transform="translate(24.099 108.281)">
            <path id="Path_63945" data-name="Path 63945" d="M81.05,250.876a.851.851,0,0,0,.395.66.242.242,0,0,0,.386-.222.848.848,0,0,0-.4-.662A.24.24,0,0,0,81.05,250.876Z" transform="translate(-81.05 -250.605)" fill="#424040"/>
          </g>
          <g id="Group_11421" data-name="Group 11421" transform="translate(26.514 109.206)">
            <path id="Path_63946" data-name="Path 63946" d="M85.027,252.142a.556.556,0,0,0-.031.582c.086.192.281.272.384.161a.56.56,0,0,0,.032-.583C85.325,252.109,85.131,252.032,85.027,252.142Z" transform="translate(-84.931 -252.092)" fill="#424040"/>
          </g>
          <g id="Group_11422" data-name="Group 11422" transform="translate(27.609 112.093)">
            <path id="Path_63947" data-name="Path 63947" d="M86.693,256.935a.572.572,0,0,0,.434.4c.2.062.389-.037.365-.187a.582.582,0,0,0-.432-.4C86.855,256.693,86.67,256.787,86.693,256.935Z" transform="translate(-86.691 -256.732)" fill="#424040"/>
          </g>
          <g id="Group_11423" data-name="Group 11423" transform="translate(23.191 110.677)">
            <path id="Path_63948" data-name="Path 63948" d="M79.677,254.885a.864.864,0,0,0,.736.238.237.237,0,0,0,.136-.419.86.86,0,0,0-.739-.236A.234.234,0,0,0,79.677,254.885Z" transform="translate(-79.59 -254.455)" fill="#424040"/>
          </g>
          <g id="Group_11424" data-name="Group 11424" transform="translate(24.657 112.91)">
            <path id="Path_63949" data-name="Path 63949" d="M82.3,258.942a.83.83,0,0,0,.476-.6.242.242,0,0,0-.355-.268.823.823,0,0,0-.474.6A.242.242,0,0,0,82.3,258.942Z" transform="translate(-81.946 -258.044)" fill="#424040"/>
          </g>
          <path id="Path_63950" data-name="Path 63950" d="M73.9,247.066v0l.064-.1Z" transform="translate(-54.248 -140.949)" fill="#be1e2d" fill-rule="evenodd"/>
          <g id="Group_11425" data-name="Group 11425" transform="translate(34.557 111.283)">
            <path id="Path_63951" data-name="Path 63951" d="M97.86,261.629a19.485,19.485,0,0,0,8.987,15.2c4.508,2.671,8.9.021,8.742-5.147a19.467,19.467,0,0,0-8.986-15.2C102.1,253.814,97.7,256.467,97.86,261.629Z" transform="translate(-97.856 -255.43)" fill="#575656"/>
          </g>
          <g id="Group_11426" data-name="Group 11426" transform="translate(37.017 114.821)">
            <path id="Path_63952" data-name="Path 63952" d="M101.812,265.359a13.286,13.286,0,0,0,6.2,10.4c3.111,1.828,6.148.015,6.035-3.52a13.287,13.287,0,0,0-6.2-10.4C104.737,260.008,101.7,261.824,101.812,265.359Z" transform="translate(-101.809 -261.115)" fill="#cdcccb"/>
          </g>
          <path id="Path_63953" data-name="Path 63953" d="M105.771,261.133c-1.759.187-3.064,1.7-2.993,3.964a12.5,12.5,0,0,0,5.809,9.773c2.346,1.382,4.645.541,5.4-1.574-.469,2.818-3.187,4.1-5.97,2.461a13.286,13.286,0,0,1-6.2-10.4C101.726,262.631,103.518,260.928,105.771,261.133Z" transform="translate(-64.792 -146.295)" fill="#424040"/>
          <g id="Group_11427" data-name="Group 11427" transform="translate(41.327 117.823)">
            <path id="Path_63954" data-name="Path 63954" d="M108.736,268.2a7.086,7.086,0,0,0,3.3,5.536,2.012,2.012,0,0,0,3.217-1.875,7.081,7.081,0,0,0-3.3-5.535A2.01,2.01,0,0,0,108.736,268.2Z" transform="translate(-108.734 -265.939)" fill="#e8e9e8"/>
          </g>
          <g id="Group_11428" data-name="Group 11428" transform="translate(43.805 120.416)">
            <path id="Path_63955" data-name="Path 63955" d="M112.718,270.816a2.232,2.232,0,0,0,1.039,1.748.635.635,0,0,0,1.014-.591,2.235,2.235,0,0,0-1.04-1.744A.632.632,0,0,0,112.718,270.816Z" transform="translate(-112.717 -270.107)" fill="#424040"/>
          </g>
          <g id="Group_11429" data-name="Group 11429" transform="translate(45.667 124.365)">
            <path id="Path_63956" data-name="Path 63956" d="M115.723,276.667a.837.837,0,0,0,.235.734.242.242,0,0,0,.426-.133.847.847,0,0,0-.233-.731A.243.243,0,0,0,115.723,276.667Z" transform="translate(-115.709 -276.452)" fill="#424040"/>
          </g>
          <g id="Group_11430" data-name="Group 11430" transform="translate(42.859 118.643)">
            <path id="Path_63957" data-name="Path 63957" d="M111.2,267.526a.838.838,0,0,0,.394.663.24.24,0,0,0,.385-.223.847.847,0,0,0-.4-.663A.24.24,0,0,0,111.2,267.526Z" transform="translate(-111.197 -267.258)" fill="#424040"/>
          </g>
          <g id="Group_11431" data-name="Group 11431" transform="translate(45.273 119.569)">
            <path id="Path_63958" data-name="Path 63958" d="M115.172,268.8a.561.561,0,0,0-.029.586c.088.191.281.266.385.154a.55.55,0,0,0,.027-.582C115.471,268.763,115.275,268.686,115.172,268.8Z" transform="translate(-115.077 -268.746)" fill="#424040"/>
          </g>
          <g id="Group_11432" data-name="Group 11432" transform="translate(46.369 122.455)">
            <path id="Path_63959" data-name="Path 63959" d="M116.839,273.586a.574.574,0,0,0,.434.4c.2.059.387-.039.368-.187a.58.58,0,0,0-.434-.4C117,273.342,116.819,273.438,116.839,273.586Z" transform="translate(-116.838 -273.382)" fill="#424040"/>
          </g>
          <g id="Group_11433" data-name="Group 11433" transform="translate(41.951 121.038)">
            <path id="Path_63960" data-name="Path 63960" d="M109.823,271.537a.852.852,0,0,0,.739.238.234.234,0,0,0,.136-.416.871.871,0,0,0-.738-.241A.238.238,0,0,0,109.823,271.537Z" transform="translate(-109.738 -271.107)" fill="#424040"/>
          </g>
          <g id="Group_11434" data-name="Group 11434" transform="translate(43.418 123.271)">
            <path id="Path_63961" data-name="Path 63961" d="M112.453,275.594a.831.831,0,0,0,.474-.6.241.241,0,0,0-.352-.272.819.819,0,0,0-.475.6A.242.242,0,0,0,112.453,275.594Z" transform="translate(-112.095 -274.695)" fill="#424040"/>
          </g>
          <path id="Path_63962" data-name="Path 63962" d="M104.046,263.714l0,0,.063-.1C104.085,263.646,104.067,263.682,104.046,263.714Z" transform="translate(-65.636 -147.238)" fill="#be1e2d" fill-rule="evenodd"/>
          <g id="Group_11435" data-name="Group 11435" transform="translate(54.606 122.67)">
            <path id="Path_63963" data-name="Path 63963" d="M130.078,279.928a19.48,19.48,0,0,0,8.987,15.2c4.506,2.67,8.9.021,8.742-5.144a19.457,19.457,0,0,0-8.988-15.2C134.316,272.113,129.919,274.766,130.078,279.928Z" transform="translate(-130.074 -273.729)" fill="#575656"/>
          </g>
          <g id="Group_11436" data-name="Group 11436" transform="translate(57.062 126.209)">
            <path id="Path_63964" data-name="Path 63964" d="M134.024,283.656a13.305,13.305,0,0,0,6.207,10.4c3.11,1.825,6.146.012,6.035-3.524a13.284,13.284,0,0,0-6.2-10.4C136.953,278.309,133.916,280.126,134.024,283.656Z" transform="translate(-134.021 -279.415)" fill="#cdcccb"/>
          </g>
          <path id="Path_63965" data-name="Path 63965" d="M137.985,279.436c-1.761.187-3.062,1.7-2.994,3.961a12.515,12.515,0,0,0,5.809,9.773c2.348,1.38,4.647.538,5.4-1.575-.464,2.817-3.184,4.1-5.966,2.464a13.306,13.306,0,0,1-6.207-10.4C133.942,280.931,135.734,279.23,137.985,279.436Z" transform="translate(-76.959 -153.208)" fill="#424040"/>
          <g id="Group_11437" data-name="Group 11437" transform="translate(61.375 129.21)">
            <path id="Path_63966" data-name="Path 63966" d="M140.953,286.5a7.072,7.072,0,0,0,3.3,5.536,2.01,2.01,0,0,0,3.213-1.874,7.081,7.081,0,0,0-3.3-5.536A2.009,2.009,0,0,0,140.953,286.5Z" transform="translate(-140.951 -284.238)" fill="#e8e9e8"/>
          </g>
          <g id="Group_11438" data-name="Group 11438" transform="translate(63.853 131.802)">
            <path id="Path_63967" data-name="Path 63967" d="M144.935,289.119a2.224,2.224,0,0,0,1.039,1.742.634.634,0,0,0,1.013-.592,2.241,2.241,0,0,0-1.04-1.745A.634.634,0,0,0,144.935,289.119Z" transform="translate(-144.934 -288.404)" fill="#424040"/>
          </g>
          <g id="Group_11439" data-name="Group 11439" transform="translate(65.716 135.754)">
            <path id="Path_63968" data-name="Path 63968" d="M147.94,294.97a.845.845,0,0,0,.232.731.244.244,0,0,0,.429-.131.849.849,0,0,0-.233-.732A.243.243,0,0,0,147.94,294.97Z" transform="translate(-147.927 -294.754)" fill="#424040"/>
          </g>
          <g id="Group_11440" data-name="Group 11440" transform="translate(62.907 130.03)">
            <path id="Path_63969" data-name="Path 63969" d="M143.414,285.824a.834.834,0,0,0,.4.663.241.241,0,0,0,.385-.223.849.849,0,0,0-.4-.661A.24.24,0,0,0,143.414,285.824Z" transform="translate(-143.414 -285.557)" fill="#424040"/>
          </g>
          <g id="Group_11441" data-name="Group 11441" transform="translate(65.322 130.955)">
            <path id="Path_63970" data-name="Path 63970" d="M147.39,287.093a.559.559,0,0,0-.029.584c.087.19.28.267.384.159a.563.563,0,0,0,.029-.587C147.688,287.062,147.493,286.983,147.39,287.093Z" transform="translate(-147.294 -287.043)" fill="#424040"/>
          </g>
          <g id="Group_11442" data-name="Group 11442" transform="translate(66.418 133.843)">
            <path id="Path_63971" data-name="Path 63971" d="M149.057,291.891a.578.578,0,0,0,.434.4c.2.053.387-.04.365-.189a.569.569,0,0,0-.434-.4C149.219,291.642,149.035,291.738,149.057,291.891Z" transform="translate(-149.055 -291.684)" fill="#424040"/>
          </g>
          <g id="Group_11443" data-name="Group 11443" transform="translate(61.998 132.426)">
            <path id="Path_63972" data-name="Path 63972" d="M142.04,289.839a.868.868,0,0,0,.739.239.238.238,0,0,0,.131-.422.861.861,0,0,0-.739-.238A.237.237,0,0,0,142.04,289.839Z" transform="translate(-141.953 -289.406)" fill="#424040"/>
          </g>
          <g id="Group_11444" data-name="Group 11444" transform="translate(63.463 134.659)">
            <path id="Path_63973" data-name="Path 63973" d="M144.667,293.895a.834.834,0,0,0,.475-.6.243.243,0,0,0-.355-.271.834.834,0,0,0-.475.6A.244.244,0,0,0,144.667,293.895Z" transform="translate(-144.307 -292.994)" fill="#424040"/>
          </g>
          <path id="Path_63974" data-name="Path 63974" d="M136.265,282.014l0-.005.061-.1A1,1,0,0,0,136.265,282.014Z" transform="translate(-77.806 -154.149)" fill="#be1e2d" fill-rule="evenodd"/>
          <path id="Path_63975" data-name="Path 63975" d="M42.323,118.969l223.21,125.462.745,62.1L43.068,181.1Z" transform="translate(-42.323 -92.603)" fill="#dfe6ea"/>
          <path id="Path_63976" data-name="Path 63976" d="M91.539,76.6,320.127,198.056l-54.595,30.371L42.323,103Z" transform="translate(-42.323 -76.599)" fill="#e8ebee"/>
          <path id="Path_63977" data-name="Path 63977" d="M47.2,224.026,58.367,230.3l.044,3.844-11.164-6.277Z" transform="translate(-44.166 -132.285)" fill="#8897a0"/>
          <path id="Path_63978" data-name="Path 63978" d="M66.673,232.323l-1.528,1.112.044,3.844,4.43-3.289Z" transform="translate(-50.943 -135.419)" fill="#343433"/>
          <path id="Path_63979" data-name="Path 63979" d="M47.2,223.39l11.166,6.275,1.528-1.112-11.213-6.211Z" transform="translate(-44.166 -131.649)" fill="#434b50"/>
          <path id="Path_63980" data-name="Path 63980" d="M166.015,290.672,216.4,319.048l.044,3.839L166.061,294.51Z" transform="translate(-89.043 -157.458)" fill="#8897a0"/>
          <path id="Path_63981" data-name="Path 63981" d="M166.015,290.032,216.4,318.409l1.527-1.111-50.429-28.319Z" transform="translate(-89.043 -156.819)" fill="#434b50"/>
          <path id="Path_63982" data-name="Path 63982" d="M455.614,271.779l.337,28.127-4.03-2.253a1.022,1.022,0,0,0-.9-.086l-41.239,23.164a.162.162,0,0,1,.035,0c-.3.063-.577.354-.567,1.208l.456,37.969-7.936,4.416-.747-62.171Z" transform="translate(-177.809 -150.322)" fill="#b8bdc1"/>
          <path id="Path_63983" data-name="Path 63983" d="M409.013,324.278l43.56-24.116c1.06-.612,1.934-.113,1.951,1.1l.086,7.233-.388-.218a1.022,1.022,0,0,0-.9-.086l-41.239,23.164a.16.16,0,0,1,.035,0c-.3.063-.577.354-.567,1.208L412,370.527l-4.347,2.42-.545-45.356A4.182,4.182,0,0,1,409.013,324.278Z" transform="translate(-180.11 -160.944)" opacity="0.1" style="mix-blend-mode: multiply;isolation: isolate"/>
          <path id="Path_63984" data-name="Path 63984" d="M512.557,391.262a28.361,28.361,0,0,1,8.589-4.243,4.273,4.273,0,0,0,.08-.725c.04-2.211-2.685-3.454-5.417-2.416-3.07,1.162-5.292,3.8-5.337,6.3a2.428,2.428,0,0,0,.841,1.888C511.744,391.8,512.183,391.522,512.557,391.262Z" transform="translate(-219.152 -192.524)" fill="#3a4448"/>
          <path id="Path_63985" data-name="Path 63985" d="M503.274,395.456l-2.711-.792-9.731,5.556,6.416,1.894,2.969-1.632,1.94-3.152s.836-.485,1.736-1.047A2.548,2.548,0,0,1,503.274,395.456Z" transform="translate(-211.733 -196.738)" fill="#5c6f75"/>
          <path id="Path_63986" data-name="Path 63986" d="M516.692,385.8c-2.251.854-3.88,2.795-3.913,4.625a1.807,1.807,0,0,0,.777,1.517,31.2,31.2,0,0,1,7.016-3.718,2.972,2.972,0,0,0,.086-.459c.005-.065.01-.129.012-.19C520.7,385.959,518.7,385.047,516.692,385.8Z" transform="translate(-220.023 -193.289)" fill="#263338"/>
          <path id="Path_63987" data-name="Path 63987" d="M513.641,394.6c1-.678,1.958-1.274,2.875-1.8l-.288-.224-3.243,1.2A1.881,1.881,0,0,0,513.641,394.6Z" transform="translate(-220.101 -195.952)" fill="#82979e"/>
          <path id="Path_63988" data-name="Path 63988" d="M516.15,390.272l.288.224c.7-.4,1.38-.736,2.039-1.049l-.14-.261,2.246-1.836a1.833,1.833,0,0,0-.624-.886l-7.163,4.047c-.009.089-.017.182-.018.27a1.741,1.741,0,0,0,.128.692Z" transform="translate(-220.023 -193.641)" fill="#acbdc3"/>
          <path id="Path_63989" data-name="Path 63989" d="M525.573,413.843h0v0Z" transform="translate(-224.855 -203.982)" fill="#82979e"/>
          <path id="Path_63990" data-name="Path 63990" d="M493.657,397.745l1.94-3.152s1.821-1.055,2.98-1.853c4.073-2.79,7.479-4.2,10.273-4.6a33.348,33.348,0,0,1,3.648-.011l1.15-.705,3.169,2.106-37.344,20.93a9.777,9.777,0,0,1-3.459.847,3.142,3.142,0,0,1-1.515-.323l-.744-.4-.294-2.22a2.381,2.381,0,0,0,1.014-.217C478.2,406.277,493.657,397.745,493.657,397.745Z" transform="translate(-205.171 -194.002)" fill="#434f52" fill-rule="evenodd"/>
          <path id="Path_63991" data-name="Path 63991" d="M489.867,406.342l-6.365-1.849-9.732,5.553,6.044,1.777C483.078,410.065,487.005,407.915,489.867,406.342Z" transform="translate(-205.288 -200.451)" fill="#5c6f75"/>
          <path id="Path_63992" data-name="Path 63992" d="M474.139,418.325c.88-.444,2.425-1.259,4.26-2.245l-5.825-1.69.551,4.152c.158-.006.322-.035.483-.053A1.985,1.985,0,0,0,474.139,418.325Z" transform="translate(-204.837 -204.189)" fill="#5c6f75"/>
          <path id="Path_63993" data-name="Path 63993" d="M523.334,389.353l.693-.637a.409.409,0,0,1,0-.051c.006-.065.01-.129.012-.19a1.78,1.78,0,0,0-.094-.571l-2.238,1.826.14.261C522.358,389.757,522.854,389.543,523.334,389.353Z" transform="translate(-223.397 -194.185)" fill="#82979e"/>
        </g>
      </g>
      <g id="Group_18166" data-name="Group 18166" transform="translate(5 -7)">
        <g id="Group_18165" data-name="Group 18165">
          <g transform="matrix(1, 0, 0, 1, 630, 26)" filter="url(#Ellipse_736)">
            <circle id="Ellipse_736-2" data-name="Ellipse 736" cx="14.298" cy="14.298" r="14.298" transform="translate(216 138)" fill="#fff"/>
          </g>
          <g id="Group_15342" data-name="Group 15342" transform="translate(850 168)">
            <path id="Path_78182" data-name="Path 78182" d="M-4472.065,3824.682s3.28.865,4.559,3.419.554,6.795.554,6.795" transform="translate(4475.126 -3817.681)" fill="none" stroke="#ec691f" stroke-linecap="round" stroke-linejoin="round" stroke-width="1"/>
            <path id="Path_78183" data-name="Path 78183" d="M-4466.6,3824.682s-3.372.865-4.686,3.419-.568,6.795-.568,6.795" transform="translate(4483.816 -3817.681)" fill="none" stroke="#ec691f" stroke-linecap="round" stroke-linejoin="round" stroke-width="1"/>
            <path id="Path_78184" data-name="Path 78184" d="M-4471.771,3823.046a18.068,18.068,0,0,1,6.5-1.459,19.239,19.239,0,0,1,6.632,1.459" transform="translate(4475.222 -3816.865)" fill="none" stroke="#ec691f" stroke-linecap="round" stroke-linejoin="round" stroke-width="1"/>
            <g id="Path_78185" data-name="Path 78185" fill="none">
              <path d="M10,0A10,10,0,1,1,0,10,10,10,0,0,1,10,0Z" stroke="none"/>
              <path d="M 10 1 C 5.037380218505859 1 1 5.037380218505859 1 10 C 1 14.96261978149414 5.037380218505859 19 10 19 C 14.96261978149414 19 19 14.96261978149414 19 10 C 19 5.037380218505859 14.96261978149414 1 10 1 M 10 0 C 15.52284049987793 0 20 4.477149963378906 20 10 C 20 15.52284049987793 15.52284049987793 20 10 20 C 4.477149963378906 20 0 15.52284049987793 0 10 C 0 4.477149963378906 4.477149963378906 0 10 0 Z" stroke="none" fill="#0d1b3a"/>
            </g>
            <g id="Path_78186" data-name="Path 78186" transform="translate(1.98 1.98)" fill="none">
              <path d="M8.02,0A8.02,8.02,0,1,1,0,8.02,8.02,8.02,0,0,1,8.02,0Z" stroke="none"/>
              <path d="M 8.020025253295898 0.999995231628418 C 4.149165153503418 0.999995231628418 0.999995231628418 4.149165153503418 0.999995231628418 8.020025253295898 C 0.999995231628418 11.8908748626709 4.149165153503418 15.0400447845459 8.020025253295898 15.0400447845459 C 11.8908748626709 15.0400447845459 15.0400447845459 11.8908748626709 15.0400447845459 8.020025253295898 C 15.0400447845459 4.149165153503418 11.8908748626709 0.999995231628418 8.020025253295898 0.999995231628418 M 8.020025253295898 -3.814697265625e-06 C 12.44936561584473 -3.814697265625e-06 16.0400447845459 3.59068489074707 16.0400447845459 8.020025253295898 C 16.0400447845459 12.44936561584473 12.44936561584473 16.0400447845459 8.020025253295898 16.0400447845459 C 3.59068489074707 16.0400447845459 -3.814697265625e-06 12.44936561584473 -3.814697265625e-06 8.020025253295898 C -3.814697265625e-06 3.59068489074707 3.59068489074707 -3.814697265625e-06 8.020025253295898 -3.814697265625e-06 Z" stroke="none" fill="#0d1b3a"/>
            </g>
          </g>
        </g>
        <g id="Group_18164" data-name="Group 18164" transform="translate(-3 2)">
          <path id="ETA" d="M6.449-6.959a3.143,3.143,0,0,1-.867,2.388,3.483,3.483,0,0,1-2.5.826H1.319v-6.308h1.95a3.227,3.227,0,0,1,2.343.811A3.031,3.031,0,0,1,6.449-6.959Zm-1.087.035q0-2.265-2.118-2.265H2.35v4.578h.733A2.029,2.029,0,0,0,5.362-6.924Zm3.473-.194h.716A1.635,1.635,0,0,0,10.6-7.386a.971.971,0,0,0,.324-.794.854.854,0,0,0-.349-.768,1.916,1.916,0,0,0-1.053-.233H8.835Zm0,.854v2.52H7.8v-6.308H9.586a2.928,2.928,0,0,1,1.808.457,1.642,1.642,0,0,1,.587,1.381,1.726,1.726,0,0,1-1.225,1.678l1.782,2.791H11.363l-1.51-2.52Zm4.616,2.52v-6.308h1.031v6.308Zm6.29-6.308h1.07L18.6-3.744H17.516l-2.2-6.308h1.061L17.692-6.13q.1.28.22.723t.151.658q.056-.328.173-.759t.19-.639Zm1.9,6.308v-6.308h1.031v6.308Zm7.951,0H28.332l-3.1-5.026H25.2l.022.28q.06.8.06,1.467v3.279h-.936v-6.308h1.251l3.093,5h.026q-.009-.1-.035-.723t-.026-.973v-3.3H29.6Zm4.245-3.421h2.321V-4a6.717,6.717,0,0,1-1.094.263,7.742,7.742,0,0,1-1.133.078,2.845,2.845,0,0,1-2.209-.848A3.414,3.414,0,0,1,30.951-6.9a3.19,3.19,0,0,1,.876-2.384,3.292,3.292,0,0,1,2.412-.861,4.7,4.7,0,0,1,1.872.38l-.362.859a3.644,3.644,0,0,0-1.536-.354,2.068,2.068,0,0,0-1.6.634,2.455,2.455,0,0,0-.587,1.734,2.589,2.589,0,0,0,.529,1.758,1.916,1.916,0,0,0,1.521.6,5,5,0,0,0,1.07-.125V-6.281H33.841Zm9.768,1.709A1.588,1.588,0,0,1,43-4.137a2.648,2.648,0,0,1-1.678.479,4,4,0,0,1-1.752-.332v-.975a4.761,4.761,0,0,0,.917.319,3.887,3.887,0,0,0,.9.116,1.438,1.438,0,0,0,.9-.233.76.76,0,0,0,.291-.626.784.784,0,0,0-.267-.6,4.027,4.027,0,0,0-1.1-.582A2.922,2.922,0,0,1,40-7.369a1.689,1.689,0,0,1-.354-1.079,1.511,1.511,0,0,1,.561-1.243,2.327,2.327,0,0,1,1.506-.453,4.424,4.424,0,0,1,1.8.4l-.328.841a3.94,3.94,0,0,0-1.5-.354,1.152,1.152,0,0,0-.759.218.716.716,0,0,0-.259.576.811.811,0,0,0,.1.421,1.058,1.058,0,0,0,.341.33,5.765,5.765,0,0,0,.854.41,4.674,4.674,0,0,1,1.018.539,1.586,1.586,0,0,1,.475.565A1.7,1.7,0,0,1,43.609-5.457Zm3.9-3.8a1.7,1.7,0,0,0-1.4.63,2.693,2.693,0,0,0-.509,1.739,2.711,2.711,0,0,0,.49,1.756,1.73,1.73,0,0,0,1.417.6,3.724,3.724,0,0,0,.777-.08q.375-.08.781-.2v.884a4.734,4.734,0,0,1-1.683.28A2.689,2.689,0,0,1,45.262-4.5a3.511,3.511,0,0,1-.742-2.4,3.88,3.88,0,0,1,.36-1.721,2.571,2.571,0,0,1,1.042-1.13,3.151,3.151,0,0,1,1.6-.393,3.972,3.972,0,0,1,1.786.406l-.371.859a5.54,5.54,0,0,0-.675-.265A2.433,2.433,0,0,0,47.514-9.258ZM56.03-6.907a3.45,3.45,0,0,1-.77,2.394,2.785,2.785,0,0,1-2.181.854,2.8,2.8,0,0,1-2.194-.848,3.472,3.472,0,0,1-.766-2.41,3.418,3.418,0,0,1,.77-2.4,2.838,2.838,0,0,1,2.2-.837,2.78,2.78,0,0,1,2.174.85A3.447,3.447,0,0,1,56.03-6.907Zm-4.815,0a2.828,2.828,0,0,0,.47,1.767,1.66,1.66,0,0,0,1.394.6,1.657,1.657,0,0,0,1.387-.6,2.833,2.833,0,0,0,.468-1.773,2.839,2.839,0,0,0-.464-1.76,1.64,1.64,0,0,0-1.383-.6,1.674,1.674,0,0,0-1.4.6A2.8,2.8,0,0,0,51.215-6.907Zm7.2-.211h.716a1.635,1.635,0,0,0,1.044-.267A.97.97,0,0,0,60.5-8.18a.854.854,0,0,0-.349-.768A1.916,1.916,0,0,0,59.1-9.181h-.682Zm0,.854v2.52H57.385v-6.308h1.782a2.928,2.928,0,0,1,1.808.457,1.642,1.642,0,0,1,.587,1.381,1.726,1.726,0,0,1-1.225,1.678l1.782,2.791H60.944l-1.51-2.52ZM66.6-3.744H63.033v-6.308H66.6v.872H64.064v1.717h2.377V-6.6H64.064v1.98H66.6Z" transform="translate(888.681 176.151)" fill="#0d1b3a" opacity="0.6"/>
          <path id="Path_88686" data-name="Path 88686" d="M3.871-14.477a3.413,3.413,0,0,1,2.086.589A1.876,1.876,0,0,1,6.749-12.3a2.074,2.074,0,0,1-.382,1.23,3.255,3.255,0,0,1-1.233.965A4.368,4.368,0,0,1,6.586-8.976a2.107,2.107,0,0,1,.441,1.291A2.149,2.149,0,0,1,6.158-5.9a3.625,3.625,0,0,1-2.287.675,3.815,3.815,0,0,1-2.324-.629A2.09,2.09,0,0,1,.7-7.636,2.362,2.362,0,0,1,1.113-9a3.4,3.4,0,0,1,1.316-1.054A3.376,3.376,0,0,1,1.319-11.1,2.285,2.285,0,0,1,.98-12.314a1.864,1.864,0,0,1,.8-1.566A3.405,3.405,0,0,1,3.871-14.477ZM2.466-7.747a1,1,0,0,0,.37.826,1.575,1.575,0,0,0,1.011.3,1.581,1.581,0,0,0,1.06-.305,1.013,1.013,0,0,0,.351-.8,1.1,1.1,0,0,0-.348-.774,4.477,4.477,0,0,0-1.131-.767Q2.466-8.671,2.466-7.747Zm1.393-5.338a1.186,1.186,0,0,0-.786.25.827.827,0,0,0-.3.669,1.024,1.024,0,0,0,.237.663,2.608,2.608,0,0,0,.86.6,2.407,2.407,0,0,0,.844-.579,1.053,1.053,0,0,0,.24-.684.814.814,0,0,0-.308-.672A1.224,1.224,0,0,0,3.859-13.084ZM14.22-9.855a6.281,6.281,0,0,1-.774,3.495,2.684,2.684,0,0,1-2.382,1.134A2.653,2.653,0,0,1,8.713-6.4a6.192,6.192,0,0,1-.792-3.458,6.341,6.341,0,0,1,.77-3.516A2.672,2.672,0,0,1,11.064-14.5a2.66,2.66,0,0,1,2.358,1.183A6.2,6.2,0,0,1,14.22-9.855Zm-4.407,0A7.011,7.011,0,0,0,10.1-7.479a.993.993,0,0,0,.965.718,1,1,0,0,0,.961-.727,6.817,6.817,0,0,0,.3-2.367,6.8,6.8,0,0,0-.3-2.382,1,1,0,0,0-.958-.724,1,1,0,0,0-.961.724A7,7,0,0,0,9.813-9.855Zm6.8-1.806a3.675,3.675,0,0,0,.139,1.168q.139.385.447.385.592,0,.592-1.553T17.2-13.2q-.308,0-.447.379A3.614,3.614,0,0,0,16.611-11.661Zm2.73-.012a3.457,3.457,0,0,1-.549,2.129,1.906,1.906,0,0,1-1.609.712,1.858,1.858,0,0,1-1.572-.73,3.442,3.442,0,0,1-.555-2.111q0-2.817,2.126-2.817a1.892,1.892,0,0,1,1.6.73A3.381,3.381,0,0,1,19.341-11.673Zm4.24-2.687-5,9.011H17.1l5-9.011Zm-.659,6.3a3.675,3.675,0,0,0,.139,1.168q.139.385.447.385.592,0,.592-1.553T23.508-9.6q-.308,0-.447.379A3.614,3.614,0,0,0,22.922-8.061Zm2.73-.012A3.445,3.445,0,0,1,25.1-5.95a1.906,1.906,0,0,1-1.609.712,1.858,1.858,0,0,1-1.572-.73,3.43,3.43,0,0,1-.555-2.1q0-2.817,2.126-2.817a1.892,1.892,0,0,1,1.6.73A3.381,3.381,0,0,1,25.653-8.073Z" transform="translate(889.297 191.231)" fill="#0d1b3a"/>
        </g>
       
      </g>
      
      <g id="Group_18163" data-name="Group 18163" transform="translate(0 -6)">
        <g id="Group_18162" data-name="Group 18162">
          <g transform="matrix(1, 0, 0, 1, 635, 25)" filter="url(#Ellipse_735)">
            <circle id="Ellipse_735-2" data-name="Ellipse 735" cx="14.298" cy="14.298" r="14.298" transform="translate(224 92)" fill="#fff"/>
          </g>
          <g id="Group_16400" data-name="Group 16400" transform="translate(2.023 1.722)">
            <path id="Path_84267" data-name="Path 84267" d="M2.5,4.343H0V0H2.5V.755H.921v.954h1.47v.755H.921v1.12H2.5Z" transform="translate(858.977 131.129) rotate(-45)" fill="#0d1b3a"/>
            <path id="Path_84268" data-name="Path 84268" d="M1.048,5.024H0V0H2.88V.873H1.048v1.3h1.7v.869h-1.7Z" transform="translate(881.543 129.432) rotate(45)" fill="#0d1b3a"/>
            <g id="Group_16399" data-name="Group 16399" transform="translate(860.765 123.278)">
              <path id="Path_64004" data-name="Path 64004" d="M20.272,5.142A13.042,13.042,0,0,0,10.178.281,13.042,13.042,0,0,0,.084,5.142a.377.377,0,0,0,.018.5l4.209,4.393a.341.341,0,0,0,.529-.04A6.688,6.688,0,0,1,7.747,7.664L9,10.3a1.507,1.507,0,0,0-.605,1.214,1.429,1.429,0,1,0,1.428-1.49,1.351,1.351,0,0,0-.163.017L8.419,7.432a6.424,6.424,0,0,1,1.759-.247,6.518,6.518,0,0,1,5.337,2.806.346.346,0,0,0,.255.146H15.8a.343.343,0,0,0,.248-.107l4.21-4.393a.377.377,0,0,0,.018-.5Zm-9.726,6.372a.727.727,0,1,1-1.454,0,.766.766,0,0,1,.334-.637.343.343,0,0,0,.067.01.338.338,0,0,0,.155-.038.351.351,0,0,0,.108-.087c.021,0,.042-.007.063-.007a.744.744,0,0,1,.727.759Zm5.282-2.291A7.139,7.139,0,0,0,8.1,6.763L6.9,4.232a.344.344,0,0,0-.469-.166.373.373,0,0,0-.159.49L7.434,7A7.35,7.35,0,0,0,4.528,9.223L.83,5.363a12.335,12.335,0,0,1,9.348-4.35,12.336,12.336,0,0,1,9.348,4.35Zm0,0" transform="translate(0 -0.281)" fill="#0d1b3a"/>
              <path id="Path_64005" data-name="Path 64005" d="M167.535,55.028a.459.459,0,0,0-.649,0l-2.3,2.3a.459.459,0,0,0,.65.649l2.3-2.3A.459.459,0,0,0,167.535,55.028Zm0,0" transform="translate(-156.372 -52.157)" fill="#ec691f"/>
              <path id="Path_64006" data-name="Path 64006" d="M215.59,34.549l-3.215,3.215a.459.459,0,1,0,.649.65L216.24,35.2a.459.459,0,1,0-.649-.649Zm0,0" transform="translate(-201.967 -32.752)" fill="#ec691f"/>
            </g>
          </g>
        </g>
        <g id="Group_18161" data-name="Group 18161" transform="translate(-72 11)">
          <path id="ETA-2" data-name="ETA" d="M6.125-3.7H4.932L2.956-6.549l-.607.5V-3.7H1.319v-6.3H2.349v3.006q.422-.517.84-.995l1.7-2.011H6.061Q4.411-8.056,3.7-7.234Zm3.553,0L7.852-8.956H7.818q.073,1.171.073,2.2V-3.7H6.956v-6.3H8.408l1.748,5.008h.026l1.8-5.008h1.456v6.3h-.99V-6.812q0-.469.024-1.223t.041-.913h-.034L10.587-3.7Zm9.586-4.392a1.836,1.836,0,0,1-.646,1.512,2.846,2.846,0,0,1-1.839.525h-.655V-3.7H15.1v-6.3h1.813a2.743,2.743,0,0,1,1.768.482A1.731,1.731,0,0,1,19.264-8.091ZM16.124-6.919h.547A1.96,1.96,0,0,0,17.834-7.2a1,1,0,0,0,.37-.861.977.977,0,0,0-.332-.81,1.638,1.638,0,0,0-1.034-.267h-.715Zm4.4,3.221v-6.3H21.55v5.413h2.666V-3.7Z" transform="translate(970.44 119.994)" fill="#0d1b3a" opacity="0.6"/>
          <path id="Path_88687" data-name="Path 88687" d="M6.723-12.342a2.116,2.116,0,0,1-.511,1.433,2.647,2.647,0,0,1-1.433.812v.037A2.864,2.864,0,0,1,6.428-9.4a1.853,1.853,0,0,1,.56,1.418,2.4,2.4,0,0,1-.941,2.021,4.339,4.339,0,0,1-2.688.723,6.528,6.528,0,0,1-2.6-.486V-7.34a5.867,5.867,0,0,0,1.15.431,4.841,4.841,0,0,0,1.243.166,2.417,2.417,0,0,0,1.39-.32,1.174,1.174,0,0,0,.449-1.027.928.928,0,0,0-.517-.9,3.823,3.823,0,0,0-1.649-.265H2.146v-1.458h.7a3.233,3.233,0,0,0,1.529-.274.989.989,0,0,0,.483-.938q0-1.021-1.28-1.021a2.928,2.928,0,0,0-.9.148,4.4,4.4,0,0,0-1.018.511L.774-13.6a4.888,4.888,0,0,1,2.934-.886,3.789,3.789,0,0,1,2.205.566A1.815,1.815,0,0,1,6.723-12.342Zm1.47,6.1A1.031,1.031,0,0,1,8.47-7.02a1.123,1.123,0,0,1,.806-.265,1.091,1.091,0,0,1,.791.271,1.029,1.029,0,0,1,.28.775,1.029,1.029,0,0,1-.283.766,1.071,1.071,0,0,1-.787.28,1.1,1.1,0,0,1-.8-.274A1.024,1.024,0,0,1,8.193-6.239Zm9.868-.984H16.978v1.864H15.12V-7.223H11.281V-8.546l3.943-5.807h1.753V-8.7h1.083ZM15.12-8.7v-1.526q0-.381.031-1.107t.049-.843h-.049a6.861,6.861,0,0,1-.548.984L12.955-8.7Z" transform="translate(970.998 135.191)" fill="#0d1b3a"/>
        </g>
      </g>
      <g id="Group_18158" data-name="Group 18158" transform="translate(-7 -6)">
        <g id="Group_18157" data-name="Group 18157">
          <g transform="matrix(1, 0, 0, 1, 642, 25)" filter="url(#Ellipse_734)">
            <circle id="Ellipse_734-2" data-name="Ellipse 734" cx="14.298" cy="14.298" r="14.298" transform="translate(203 46)" fill="#fff"/>
          </g>
          <g id="eta-3" data-name="eta" transform="translate(851 76)">
            <g id="Group_2139" data-name="Group 2139" transform="translate(0 0)">
              <g id="Ellipse_88" data-name="Ellipse 88" fill="none" stroke="#0d1b3a" stroke-width="1">
                <circle cx="8.809" cy="8.809" r="8.809" stroke="none"/>
                <circle cx="8.809" cy="8.809" r="8.309" fill="none"/>
              </g>
            </g>
            <g id="Group_11058" data-name="Group 11058" transform="translate(8.12 2.958)">
              <path id="Path_62367" data-name="Path 62367" d="M-14942-6361.03v6.207l3.717,3.719" transform="translate(14942.677 6361.03)" fill="none" stroke="#0d1b3a" stroke-linecap="round" stroke-linejoin="round" stroke-width="1"/>
              <ellipse id="Ellipse_419" data-name="Ellipse 419" cx="0.68" cy="0.68" rx="0.68" ry="0.68" transform="translate(0 5.62)" fill="#ec691f"/>
            </g>
          </g>
        </g>
        <g id="Group_18154" data-name="Group 18154" transform="translate(-25.053 39)">
          <path id="ETA-4" data-name="ETA" d="M4.986-3.526H1.319v-6.483H4.986v.9H2.379v1.765H4.822v.887H2.379v2.035H4.986Zm3.64,0H7.567V-9.1H5.66v-.909h4.873V-9.1H8.627Zm6.922,0-.647-1.8H12.422l-.634,1.8H10.671L13.1-10.035h1.153l2.425,6.509ZM14.622-6.24,14.014-8q-.067-.177-.184-.559t-.162-.559a9.938,9.938,0,0,1-.35,1.193L12.733-6.24Z" transform="translate(909.801 46.035)" fill="#0d1b3a" opacity="0.6"/>
          <path id="Path_88685" data-name="Path 88685" d="M9.457-10.291A4.727,4.727,0,0,1,8.384-6.966,3.976,3.976,0,0,1,5.309-5.8,3.976,3.976,0,0,1,2.235-6.966,4.746,4.746,0,0,1,1.162-10.3a4.681,4.681,0,0,1,1.076-3.322,4.022,4.022,0,0,1,3.084-1.147,3.966,3.966,0,0,1,3.072,1.156A4.739,4.739,0,0,1,9.457-10.291Zm-6.358,0a3.639,3.639,0,0,0,.554,2.2,1.939,1.939,0,0,0,1.657.739q2.211,0,2.211-2.938t-2.2-2.944a1.952,1.952,0,0,0-1.662.742A3.624,3.624,0,0,0,3.1-10.291Zm14.17,4.368H15.451V-9.815A1.869,1.869,0,0,0,15.2-10.9a.932.932,0,0,0-.816-.361,1.227,1.227,0,0,0-1.1.509,3.16,3.16,0,0,0-.34,1.689v3.134H11.119v-6.662h1.388l.244.852h.1a1.921,1.921,0,0,1,.837-.73,2.851,2.851,0,0,1,1.213-.247,2.33,2.33,0,0,1,1.764.629,2.523,2.523,0,0,1,.6,1.814ZM18.55-8.45V-9.94h3.2v1.49ZM26.57-5.923H24.723V-13.1H22.357v-1.537h6.578V-13.1H26.57Zm3.486-8.384q0-.888.989-.888t.989.888a.866.866,0,0,1-.247.658,1.039,1.039,0,0,1-.742.235Q30.056-13.414,30.056-14.307Zm1.895,8.384H30.134v-6.662h1.817Zm7.872,0H38.005V-9.815a1.96,1.96,0,0,0-.241-1.082.849.849,0,0,0-.76-.361,1.1,1.1,0,0,0-1.013.512,3.361,3.361,0,0,0-.316,1.686v3.134H33.858v-6.662h1.388l.244.852h.1a1.847,1.847,0,0,1,.775-.718,2.515,2.515,0,0,1,1.162-.259,2.093,2.093,0,0,1,2.026.977h.161a1.8,1.8,0,0,1,.79-.721,2.633,2.633,0,0,1,1.177-.256,2.323,2.323,0,0,1,1.713.581,2.551,2.551,0,0,1,.581,1.862v4.344H42.153V-9.815a1.96,1.96,0,0,0-.241-1.082.849.849,0,0,0-.76-.361,1.133,1.133,0,0,0-1,.477,2.7,2.7,0,0,0-.331,1.514ZM48.6-11.417a1.153,1.153,0,0,0-.906.366,1.7,1.7,0,0,0-.375,1.04h2.55a1.515,1.515,0,0,0-.352-1.04A1.19,1.19,0,0,0,48.6-11.417ZM48.856-5.8a3.438,3.438,0,0,1-2.515-.888,3.362,3.362,0,0,1-.906-2.515,3.7,3.7,0,0,1,.837-2.589,2.981,2.981,0,0,1,2.315-.915,2.934,2.934,0,0,1,2.2.8,3.043,3.043,0,0,1,.787,2.223V-8.8h-4.3a1.749,1.749,0,0,0,.459,1.21,1.614,1.614,0,0,0,1.2.435,5,5,0,0,0,1.138-.125,5.7,5.7,0,0,0,1.12-.4v1.406a4.268,4.268,0,0,1-1.019.355A6.425,6.425,0,0,1,48.856-5.8Z" transform="translate(909.891 61.804)" fill="#0d1b3a"/>
        </g>
      </g>
      <g id="Group_18160" data-name="Group 18160" transform="translate(-7 -9)">
        <g id="Group_18159" data-name="Group 18159">
          <g transform="matrix(1, 0, 0, 1, 642, 28)" filter="url(#Ellipse_733)">
            <circle id="Ellipse_733-2" data-name="Ellipse 733" cx="14.298" cy="14.298" r="14.298" transform="translate(167 6)" fill="#fff"/>
          </g>
          <g id="Group_11472" data-name="Group 11472" transform="translate(812 40)">
            <g id="Group_11463" data-name="Group 11463" transform="translate(8.317 2.045)">
              <g id="Group_11462" data-name="Group 11462">
                <path id="Path_64014" data-name="Path 64014" d="M218.375,118a.355.355,0,0,0-.461.072l-9.66,11.742a1.6,1.6,0,0,0-.364,1.219,1.632,1.632,0,0,0,.639,1.11,1.752,1.752,0,0,0,1.069.361,1.83,1.83,0,0,0,.2-.011,1.729,1.729,0,0,0,1.153-.614,3.323,3.323,0,0,0,.2-.283l.009-.015,7.335-13.144A.325.325,0,0,0,218.375,118Zm-7.825,13.257c-.04.063-.108.165-.142.206a1.035,1.035,0,0,1-.69.368,1.053,1.053,0,0,1-.759-.21.977.977,0,0,1-.382-.664.96.96,0,0,1,.219-.73l7.242-8.8Z" transform="translate(-207.879 -117.942)" fill="#ec691f"/>
              </g>
            </g>
            <path id="Path_64019" data-name="Path 64019" d="M4596.4,9055.337a.325.325,0,0,1-.327-.28,8.809,8.809,0,0,0-1.137-3.4.307.307,0,0,1,.127-.429.339.339,0,0,1,.448.123,9.456,9.456,0,0,1,1.179,3.359h2.784a10.146,10.146,0,0,0-2.611-6.455.306.306,0,0,1,.035-.444.338.338,0,0,1,.463.034,10.742,10.742,0,0,1,2.777,7.182.323.323,0,0,1-.33.313Zm-18.228-4.217a.309.309,0,0,1-.146-.4,11.245,11.245,0,0,1,5.426-5.545.335.335,0,0,1,.442.138.31.31,0,0,1-.146.423,10.793,10.793,0,0,0-3.458,2.63,10.612,10.612,0,0,1,10.376-1.238,10.205,10.205,0,0,1,2.955,1.886.3.3,0,0,1,.01.442.336.336,0,0,1-.464.01,9.581,9.581,0,0,0-2.766-1.762,9.863,9.863,0,0,0-3.839-.768,9.682,9.682,0,0,0-7.962,4.083.334.334,0,0,1-.274.138A.354.354,0,0,1,4578.171,9051.12Zm16.86-4.489a10.964,10.964,0,0,0-3.326-1.577,11.32,11.32,0,0,0-6.948.255.332.332,0,0,1-.423-.182.307.307,0,0,1,.19-.405,12.064,12.064,0,0,1,7.369-.271,11.656,11.656,0,0,1,3.526,1.672.311.311,0,0,1,.072.443.338.338,0,0,1-.268.127A.333.333,0,0,1,4595.032,9046.631Z" transform="translate(-4577.999 -9044.001)" fill="#0d1b3a"/>
            <g id="Group_11471" data-name="Group 11471" transform="translate(9.685 14.65)">
              <g id="Group_11470" data-name="Group 11470">
                <path id="Path_64018" data-name="Path 64018" d="M235.97,407.952a.346.346,0,1,0,.15.376A.349.349,0,0,0,235.97,407.952Z" transform="translate(-235.443 -407.899)" fill="#0d1b3a"/>
              </g>
            </g>
          </g>
        </g>
        <g id="Group_18156" data-name="Group 18156" transform="translate(-1 2)">
          <path id="Path_88682" data-name="Path 88682" d="M4.738-5.433a1.594,1.594,0,0,1-.611,1.326,2.658,2.658,0,0,1-1.685.481A4.021,4.021,0,0,1,.684-3.96v-.979a4.78,4.78,0,0,0,.921.321,3.9,3.9,0,0,0,.908.117,1.444,1.444,0,0,0,.908-.234.763.763,0,0,0,.292-.628.787.787,0,0,0-.269-.6,4.043,4.043,0,0,0-1.109-.585,2.934,2.934,0,0,1-1.222-.8A1.7,1.7,0,0,1,.757-8.435,1.517,1.517,0,0,1,1.32-9.683a2.336,2.336,0,0,1,1.512-.455,4.442,4.442,0,0,1,1.811.4l-.329.845A3.956,3.956,0,0,0,2.806-9.25a1.157,1.157,0,0,0-.762.219.719.719,0,0,0-.26.578.814.814,0,0,0,.1.422A1.062,1.062,0,0,0,2.23-7.7a5.789,5.789,0,0,0,.858.412,4.693,4.693,0,0,1,1.022.541,1.593,1.593,0,0,1,.477.567A1.707,1.707,0,0,1,4.738-5.433Zm5.419-2.7a1.847,1.847,0,0,1-.65,1.52,2.863,2.863,0,0,1-1.85.528H7v2.37H5.964v-6.333H7.788a2.759,2.759,0,0,1,1.778.485A1.742,1.742,0,0,1,10.157-8.132ZM7-6.954h.55a1.971,1.971,0,0,0,1.17-.277A1.009,1.009,0,0,0,9.092-8.1a.983.983,0,0,0-.334-.814,1.647,1.647,0,0,0-1.04-.269H7ZM15-3.714H11.422v-6.333H15v.875H12.458v1.724h2.387v.866H12.458v1.988H15Zm4.951,0H16.374v-6.333h3.582v.875H17.409v1.724H19.8v.866H17.409v1.988h2.547Zm6.519-3.227a3.156,3.156,0,0,1-.871,2.4,3.5,3.5,0,0,1-2.508.83H21.325v-6.333h1.958a3.24,3.24,0,0,1,2.352.814A3.043,3.043,0,0,1,26.475-6.941Zm-1.092.035q0-2.274-2.127-2.274h-.9v4.6H23.1A2.037,2.037,0,0,0,25.384-6.906Z" transform="translate(850.316 46.138)" fill="#0d1b3a" opacity="0.6"/>
          <path id="Path_88684" data-name="Path 88684" d="M4.145-11.092a2.892,2.892,0,0,1,2.08.736A2.653,2.653,0,0,1,7-8.338a2.939,2.939,0,0,1-.931,2.333A3.913,3.913,0,0,1,3.4-5.188,5.2,5.2,0,0,1,.977-5.677V-7.33a5.028,5.028,0,0,0,1.134.424,5,5,0,0,0,1.227.164q1.744,0,1.744-1.436,0-1.368-1.806-1.368a4.466,4.466,0,0,0-.721.065,5.258,5.258,0,0,0-.641.139l-.758-.408.339-4.61H6.382v1.621H3.165L3-10.962l.216-.043A4.226,4.226,0,0,1,4.145-11.092ZM14.32-9.836a6.327,6.327,0,0,1-.774,3.509,2.68,2.68,0,0,1-2.382,1.139A2.65,2.65,0,0,1,8.813-6.364a6.237,6.237,0,0,1-.792-3.472,6.387,6.387,0,0,1,.77-3.53A2.669,2.669,0,0,1,11.165-14.5a2.657,2.657,0,0,1,2.357,1.188A6.249,6.249,0,0,1,14.32-9.836Zm-4.407,0A7.066,7.066,0,0,0,10.2-7.45a.993.993,0,0,0,.965.721,1,1,0,0,0,.961-.73,6.87,6.87,0,0,0,.3-2.376,6.85,6.85,0,0,0-.3-2.392,1,1,0,0,0-.958-.727,1,1,0,0,0-.961.727A7.053,7.053,0,0,0,9.913-9.836ZM26.431-5.312h-2.17L21.9-9.124l-.807.582v3.23H19.183V-14.36h1.911v4.14l.752-1.064,2.441-3.076h2.12l-3.143,4Zm7.156,0h-1.88V-9.353a2.042,2.042,0,0,0-.25-1.123.877.877,0,0,0-.786-.374,1.137,1.137,0,0,0-1.048.532A3.5,3.5,0,0,0,29.3-8.567v3.255h-1.88v-6.919h1.436l.253.885h.1a1.913,1.913,0,0,1,.8-.746,2.593,2.593,0,0,1,1.2-.269,2.162,2.162,0,0,1,2.1,1.015h.166a1.864,1.864,0,0,1,.817-.749,2.714,2.714,0,0,1,1.217-.266,2.4,2.4,0,0,1,1.772.6,2.656,2.656,0,0,1,.6,1.934v4.511H36V-9.353a2.042,2.042,0,0,0-.25-1.123.877.877,0,0,0-.786-.374,1.171,1.171,0,0,0-1.032.5,2.818,2.818,0,0,0-.342,1.572Z" transform="translate(850.023 61.193)" fill="#0d1b3a"/>
        </g>
      </g>
      <style>
       
          @keyframes pulse-white {
            0% {
              transform: scale(1);
            }
            
            70% {
              transform: scale(.99);
            }
            
            100% {
              transform: scale(1);
            }
          }
       #Group_18166,
       #Group_18163,
       #Group_18158, 
       #Group_18160{
         animation: pulse-white 3s infinite forwards;
         transform-origin: 0%;
       }
        #Group_18166{
         animation-delay:.1s;
       }
       #Group_18163{
         animation-delay:.2s;
       }
       #Group_18158{
         animation-delay:.3s;
       } 
       #Group_18160{
         animation-delay:.4s;
       }
       </style>
    </g>
  </g>
</svg>

