<svg xmlns="http://www.w3.org/2000/svg" xmlns:xlink="http://www.w3.org/1999/xlink" width="279.069" height="212.001" viewBox="0 0 279.069 212.001">
  <defs>
    <linearGradient id="linear-gradient" x1="18.724" y1="0.792" x2="19.123" y2="0.03" gradientUnits="objectBoundingBox">
      <stop offset="0" stop-color="#fff"/>
      <stop offset="1" stop-color="#438be3"/>
    </linearGradient>
    <linearGradient id="linear-gradient-2" x1="0.898" y1="-0.16" x2="0.096" y2="1.17" gradientUnits="objectBoundingBox">
      <stop offset="0" stop-color="#fff"/>
      <stop offset="1" stop-color="#e9f6f9"/>
    </linearGradient>
    <linearGradient id="linear-gradient-3" x1="31.126" y1="0.05" x2="31.111" y2="1.432" gradientUnits="objectBoundingBox">
      <stop offset="0" stop-color="#fff"/>
      <stop offset="1" stop-color="#ffad7f"/>
    </linearGradient>
    <linearGradient id="linear-gradient-4" x1="18.721" y1="0.792" x2="19.119" y2="0.03" xlink:href="#linear-gradient"/>
    <linearGradient id="linear-gradient-5" x1="21.54" y1="0.004" x2="21.244" y2="1.193" xlink:href="#linear-gradient-2"/>
    <linearGradient id="linear-gradient-6" x1="31.127" y1="0.05" x2="31.112" y2="1.432" gradientUnits="objectBoundingBox">
      <stop offset="0" stop-color="#fff"/>
      <stop offset="1" stop-color="#ff975d"/>
    </linearGradient>
    <linearGradient id="linear-gradient-7" x1="54.11" y1="0.082" x2="53.709" y2="1.661" xlink:href="#linear-gradient-6"/>
    <linearGradient id="linear-gradient-8" x1="0.58" y1="0.5" x2="0.443" y2="0.5" xlink:href="#linear-gradient-6"/>
    <linearGradient id="linear-gradient-9" x1="0.694" y1="0.284" x2="0.605" y2="0.389" xlink:href="#linear-gradient-6"/>
    <linearGradient id="linear-gradient-10" x1="-2727.861" y1="-1308.123" x2="-2513.324" y2="-1308.123" gradientUnits="objectBoundingBox">
      <stop offset="0" stop-color="#01253d"/>
      <stop offset="1" stop-color="#185076"/>
    </linearGradient>
  </defs>
  <g id="img_credit_partners" transform="translate(-5485.597 -425.5)">
    <g id="Group_21873" data-name="Group 21873" transform="translate(177.056 18.44)">
      <path id="Path_56497" data-name="Path 56497" d="M1801.167,1215.174l119.77-69.149,61.4,35.448-75.878,30.106-.032,13.722-14.409,8.32-5.019-2.9-31.316,18.083c-6.5,3.1-16.675-.918-23.483-4.733l-28.637-16.537C1796.189,1223.107,1795.7,1218.33,1801.167,1215.174Z" transform="translate(3511.052 -659.208)" fill="#0d1b3a" opacity="0.1" style="mix-blend-mode: multiply;isolation: isolate"/>
      <path id="Path_56498" data-name="Path 56498" d="M2462.506,1208.361l-97.1,56.061V1252.6l97.1-56.06Z" transform="translate(3015.96 -703.247)" fill="#333"/>
      <path id="Path_56499" data-name="Path 56499" d="M2261.223,1060.955l-97.106,56.062,25.81,17.384,97.1-56.059Z" transform="translate(3191.435 -585.045)" fill="#ff975d"/>
      <path id="Path_56500" data-name="Path 56500" d="M3008.968,1313.174l-.684,1.908-9.636-5.517,1.77-3.752,5.878,2.378Z" transform="translate(2463.911 -798.507)"/>
      <g id="Group_9114" data-name="Group 9114" transform="translate(5445.377 506.956)">
        <path id="Path_56501" data-name="Path 56501" d="M2887.365,1308.035l-7.3-4.365c-1.633-.929-3.884-.786-6.368.646-4.992,2.881-9.042,9.894-9.042,15.658,0,2.9,1.027,4.933,2.681,5.871l7.3,4.36c1.635.927,3.882.782,6.362-.651,4.993-2.88,9.04-9.891,9.04-15.656C2890.037,1311,2889.016,1308.973,2887.365,1308.035Z" transform="translate(-2864.653 -1303.083)"/>
        <path id="Path_56502" data-name="Path 56502" d="M2939.689,1343.562c0,5.765-4.047,12.776-9.041,15.656-2.48,1.433-4.727,1.578-6.362.651-1.655-.934-2.678-2.968-2.678-5.87,0-5.764,4.049-12.772,9.04-15.655,2.485-1.435,4.735-1.578,6.369-.646C2938.669,1338.636,2939.689,1340.667,2939.689,1343.562Z" transform="translate(-2914.306 -1332.745)" fill="#191818"/>
        <path id="Path_56503" data-name="Path 56503" d="M2946.274,1352.693c0,5.252-3.687,11.641-8.236,14.269s-8.24.5-8.24-4.757,3.688-11.639,8.24-14.267S2946.274,1347.439,2946.274,1352.693Z" transform="translate(-2921.445 -1341.205)" fill="#333"/>
        <path id="Path_56504" data-name="Path 56504" d="M2961.937,1376.777a12.242,12.242,0,0,1-5.535,9.591c-3.062,1.768-5.539.335-5.539-3.2a12.234,12.234,0,0,1,5.539-9.59C2959.456,1371.816,2961.937,1373.247,2961.937,1376.777Z" transform="translate(-2939.809 -1363.882)" fill="#fff"/>
        <path id="Path_56505" data-name="Path 56505" d="M2961.937,1376.777a12.242,12.242,0,0,1-5.535,9.591c-3.062,1.768-5.539.335-5.539-3.2a12.234,12.234,0,0,1,5.539-9.59C2959.456,1371.816,2961.937,1373.247,2961.937,1376.777Z" transform="translate(-2939.809 -1363.882)" fill="#fff" opacity="0.2" style="mix-blend-mode: multiply;isolation: isolate"/>
        <path id="Path_56506" data-name="Path 56506" d="M2963.879,1382.3a10.512,10.512,0,0,1-4.755,8.235c-2.625,1.515-4.752.284-4.752-2.747a10.505,10.505,0,0,1,4.752-8.233C2961.75,1378.039,2963.879,1379.265,2963.879,1382.3Z" transform="translate(-2942.868 -1369.182)" fill="#003f97"/>
        <path id="Path_56507" data-name="Path 56507" d="M2958.932,1377.28a7.755,7.755,0,0,0-.791.531c.152-.1.3-.2.455-.289,2.625-1.514,4.754-.288,4.754,2.745a10.512,10.512,0,0,1-4.754,8.235c-2.625,1.515-4.752.284-4.752-2.747a7.456,7.456,0,0,1,.09-1.112,8.339,8.339,0,0,0-.167,1.583c0,3.293,2.311,4.629,5.167,2.984a11.425,11.425,0,0,0,5.164-8.948C2964.1,1376.965,2961.781,1375.634,2958.932,1377.28Z" transform="translate(-2942.339 -1367.151)" fill="url(#linear-gradient)"/>
        <path id="Path_56508" data-name="Path 56508" d="M2964.511,1384.335a10.026,10.026,0,0,1-4.536,7.857c-2.506,1.447-4.537.274-4.537-2.621a10.025,10.025,0,0,1,4.537-7.856C2962.481,1380.271,2964.511,1381.442,2964.511,1384.335Z" transform="translate(-2943.798 -1371.094)" fill="url(#linear-gradient-2)"/>
        <path id="Path_56509" data-name="Path 56509" d="M2977.342,1402.706a6.857,6.857,0,0,1-3.1,5.368c-1.711.986-3.1.186-3.1-1.791a6.849,6.849,0,0,1,3.1-5.366C2975.956,1399.93,2977.342,1400.73,2977.342,1402.706Z" transform="translate(-2957.491 -1388.004)" fill="url(#linear-gradient-3)"/>
        <g id="Group_9113" data-name="Group 9113" transform="translate(11.96 10.585)">
          <path id="Path_56510" data-name="Path 56510" d="M2987.741,1391.564c.085.365-.042.707-.286.766s-.514-.191-.6-.555.039-.709.285-.768S2987.654,1391.2,2987.741,1391.564Z" transform="translate(-2983.121 -1390.312)" fill="#0d1b3a"/>
          <path id="Path_56511" data-name="Path 56511" d="M2958.669,1434.818c.372.055.644.3.609.547s-.365.408-.737.356-.644-.295-.609-.546S2958.3,1434.768,2958.669,1434.818Z" transform="translate(-2957.929 -1428.504)" fill="#0d1b3a"/>
          <path id="Path_56512" data-name="Path 56512" d="M2961.8,1456.563c.341-.161.678-.155.754.012s-.137.425-.477.584-.676.153-.754-.012S2961.457,1456.72,2961.8,1456.563Z" transform="translate(-2960.87 -1447.366)" fill="#0d1b3a"/>
          <path id="Path_56513" data-name="Path 56513" d="M2977.428,1464.412c.141-.234.354-.363.481-.29s.11.326-.03.562-.355.365-.479.291S2977.287,1464.649,2977.428,1464.412Z" transform="translate(-2974.828 -1454.04)" fill="#0d1b3a"/>
          <path id="Path_56514" data-name="Path 56514" d="M2970.233,1409.844a.522.522,0,1,1-.84.038A.61.61,0,0,1,2970.233,1409.844Z" transform="translate(-2967.866 -1406.612)" fill="#0d1b3a"/>
          <path id="Path_56515" data-name="Path 56515" d="M3007.12,1386.325c-.012.375-.2.674-.413.666s-.383-.317-.37-.691.2-.673.414-.666S3007.133,1385.952,3007.12,1386.325Z" transform="translate(-3000.128 -1385.634)" fill="#0d1b3a"/>
          <path id="Path_56516" data-name="Path 56516" d="M3019.333,1403.944c-.21.141-.451.146-.539.018s.014-.351.225-.49.452-.146.54-.018S3019.544,1403.8,3019.333,1403.944Z" transform="translate(-3010.963 -1401.089)" fill="#0d1b3a"/>
          <path id="Path_56517" data-name="Path 56517" d="M3019.438,1424.368c-.092-.02-.142-.145-.111-.281s.126-.226.217-.207.14.146.109.281S3019.528,1424.388,3019.438,1424.368Z" transform="translate(-3011.446 -1418.974)" fill="#0d1b3a"/>
          <path id="Path_56518" data-name="Path 56518" d="M2995.763,1460.148a.193.193,0,0,1-.218-.15.19.19,0,0,1,.087-.25c.084-.028.179.042.213.151A.188.188,0,0,1,2995.763,1460.148Z" transform="translate(-2990.71 -1450.24)" fill="#0d1b3a"/>
          <path id="Path_56519" data-name="Path 56519" d="M3011.874,1442.812a.147.147,0,0,1-.2.052.149.149,0,0,1-.015-.206.135.135,0,1,1,.216.155Z" transform="translate(-3004.74 -1435.281)" fill="#0d1b3a"/>
        </g>
        <path id="Path_56520" data-name="Path 56520" d="M2986.271,1416.607a4.044,4.044,0,0,1-1.827,3.162c-1.01.585-1.826.111-1.826-1.054a4.033,4.033,0,0,1,1.826-3.162C2985.45,1414.97,2986.271,1415.443,2986.271,1416.607Z" transform="translate(-2967.492 -1400.914)" fill="#fff"/>
        <path id="Path_56521" data-name="Path 56521" d="M2988.381,1418.225a3.913,3.913,0,0,1-1.774,3.071c-.976.565-1.771.1-1.771-1.023a3.925,3.925,0,0,1,1.771-3.072C2987.59,1416.634,2988.381,1417.094,2988.381,1418.225Z" transform="translate(-2969.426 -1402.357)" fill="#ff975d"/>
      </g>
      <path id="Path_56522" data-name="Path 56522" d="M2852.607,1266.537h0l-8.869-5.341c-2.195-.859-5.021-.506-8.11,1.277-6.971,4.026-12.623,13.814-12.623,21.865h0l8.44,5.154,1.527-.883h0c0-7.078,4.967-15.681,11.1-19.218s11.094-.67,11.094,6.405l1.529-.882C2856.695,1270.663,2855.12,1267.749,2852.607,1266.537Z" transform="translate(2617.03 -759.221)"/>
      <path id="Path_56523" data-name="Path 56523" d="M2890.362,1323.633h0c0-7.078,4.967-15.681,11.1-19.218s11.094-.67,11.094,6.406h0l1.529-.882h0c0-8.051-5.652-11.315-12.623-7.289s-12.623,13.813-12.623,21.864v0Z" transform="translate(2559.644 -794.246)" fill="#333"/>
      <path id="Path_56524" data-name="Path 56524" d="M2363.819,1667.774l-4.777-1.027-4.113-6.81,5.885-.7Z" transform="translate(3025.089 -1106.614)"/>
      <g id="Group_9116" data-name="Group 9116" transform="translate(5362.374 551.437)">
        <path id="Path_56525" data-name="Path 56525" d="M2240.035,1654.928l-7.3-4.362c-1.634-.93-3.884-.789-6.369.646-4.992,2.88-9.041,9.892-9.041,15.656,0,2.9,1.026,4.935,2.679,5.873l7.3,4.36c1.633.926,3.883.784,6.363-.648,4.991-2.883,9.038-9.893,9.038-15.659C2242.707,1657.9,2241.688,1655.868,2240.035,1654.928Z" transform="translate(-2217.324 -1649.977)"/>
        <path id="Path_56526" data-name="Path 56526" d="M2292.356,1690.461c0,5.765-4.046,12.776-9.038,15.659-2.48,1.432-4.73,1.574-6.363.648-1.656-.935-2.679-2.969-2.679-5.87,0-5.763,4.046-12.775,9.04-15.656,2.484-1.433,4.735-1.575,6.368-.646C2291.337,1685.535,2292.356,1687.566,2292.356,1690.461Z" transform="translate(-2266.973 -1679.644)" fill="#191818"/>
        <path id="Path_56527" data-name="Path 56527" d="M2298.936,1699.581c0,5.25-3.687,11.643-8.238,14.268s-8.239.5-8.239-4.757,3.69-11.641,8.239-14.267S2298.936,1694.329,2298.936,1699.581Z" transform="translate(-2274.107 -1688.094)" fill="#333"/>
        <path id="Path_56528" data-name="Path 56528" d="M2314.589,1723.673a12.236,12.236,0,0,1-5.537,9.589c-3.058,1.766-5.539.337-5.539-3.2a12.238,12.238,0,0,1,5.539-9.588C2312.11,1718.709,2314.589,1720.143,2314.589,1723.673Z" transform="translate(-2292.462 -1710.776)" fill="#fff"/>
        <path id="Path_56529" data-name="Path 56529" d="M2314.589,1723.673a12.236,12.236,0,0,1-5.537,9.589c-3.058,1.766-5.539.337-5.539-3.2a12.238,12.238,0,0,1,5.539-9.588C2312.11,1718.709,2314.589,1720.143,2314.589,1723.673Z" transform="translate(-2292.462 -1710.776)" fill="#ff975d" opacity="0.2" style="mix-blend-mode: multiply;isolation: isolate"/>
        <path id="Path_56530" data-name="Path 56530" d="M2316.535,1729.193a10.516,10.516,0,0,1-4.753,8.236c-2.627,1.514-4.755.287-4.755-2.747a10.5,10.5,0,0,1,4.755-8.231C2314.407,1724.934,2316.535,1726.163,2316.535,1729.193Z" transform="translate(-2295.525 -1716.078)" fill="#0d1b3a"/>
        <path id="Path_56531" data-name="Path 56531" d="M2311.591,1724.164a7.551,7.551,0,0,0-.785.531c.147-.1.3-.2.452-.287,2.625-1.516,4.753-.287,4.753,2.742a10.516,10.516,0,0,1-4.753,8.235c-2.627,1.514-4.755.287-4.755-2.747a7.58,7.58,0,0,1,.09-1.109,8.424,8.424,0,0,0-.168,1.581c0,3.293,2.313,4.631,5.166,2.982a11.411,11.411,0,0,0,5.167-8.946C2316.758,1723.851,2314.443,1722.518,2311.591,1724.164Z" transform="translate(-2295 -1714.037)" fill="url(#linear-gradient-4)"/>
        <path id="Path_56532" data-name="Path 56532" d="M2317.188,1731.228a10.036,10.036,0,0,1-4.534,7.856c-2.508,1.446-4.537.273-4.537-2.619a10.021,10.021,0,0,1,4.537-7.857C2315.156,1727.162,2317.188,1728.334,2317.188,1731.228Z" transform="translate(-2296.475 -1717.986)" fill="url(#linear-gradient-5)"/>
        <path id="Path_56533" data-name="Path 56533" d="M2330.023,1749.6a6.844,6.844,0,0,1-3.1,5.365c-1.709.988-3.1.189-3.1-1.788a6.85,6.85,0,0,1,3.1-5.365C2328.635,1746.829,2330.023,1747.631,2330.023,1749.6Z" transform="translate(-2310.171 -1734.902)" fill="url(#linear-gradient-6)"/>
        <g id="Group_9115" data-name="Group 9115" transform="translate(11.962 10.585)">
          <path id="Path_56534" data-name="Path 56534" d="M2340.4,1738.469c.086.363-.042.707-.288.766s-.513-.191-.6-.556.042-.7.286-.764S2340.314,1738.1,2340.4,1738.469Z" transform="translate(-2335.786 -1737.216)" fill="#0d1b3a"/>
          <path id="Path_56535" data-name="Path 56535" d="M2311.347,1781.717c.372.053.646.295.611.546s-.368.409-.739.356-.642-.3-.607-.546S2310.978,1781.663,2311.347,1781.717Z" transform="translate(-2310.61 -1775.401)" fill="#0d1b3a"/>
          <path id="Path_56536" data-name="Path 56536" d="M2314.461,1803.455c.341-.159.679-.153.754.012s-.136.426-.478.584-.678.154-.754-.012S2314.121,1803.614,2314.461,1803.455Z" transform="translate(-2313.537 -1794.26)" fill="#0d1b3a"/>
          <path id="Path_56537" data-name="Path 56537" d="M2330.091,1811.311c.142-.234.357-.365.479-.29s.113.324-.027.561-.356.364-.48.289S2329.95,1811.544,2330.091,1811.311Z" transform="translate(-2327.494 -1800.938)" fill="#0d1b3a"/>
          <path id="Path_56538" data-name="Path 56538" d="M2322.893,1756.743a.523.523,0,1,1-.842.038A.611.611,0,0,1,2322.893,1756.743Z" transform="translate(-2320.528 -1753.511)" fill="#0d1b3a"/>
          <path id="Path_56539" data-name="Path 56539" d="M2359.787,1733.221c-.014.375-.2.672-.416.667s-.382-.316-.369-.692.2-.672.413-.666S2359.8,1732.848,2359.787,1733.221Z" transform="translate(-2352.797 -1732.53)" fill="#0d1b3a"/>
          <path id="Path_56540" data-name="Path 56540" d="M2372.01,1750.838c-.209.143-.45.149-.538.018s.014-.352.222-.49.454-.147.54-.016S2372.219,1750.7,2372.01,1750.838Z" transform="translate(-2363.641 -1747.984)" fill="#0d1b3a"/>
          <path id="Path_56541" data-name="Path 56541" d="M2372.1,1771.264c-.092-.02-.139-.146-.11-.279s.128-.228.219-.207.141.144.107.279S2372.193,1771.286,2372.1,1771.264Z" transform="translate(-2364.114 -1765.871)" fill="#0d1b3a"/>
          <path id="Path_56542" data-name="Path 56542" d="M2348.439,1807.049a.192.192,0,0,1-.217-.152.189.189,0,0,1,.086-.249c.081-.027.18.041.215.15A.2.2,0,0,1,2348.439,1807.049Z" transform="translate(-2343.387 -1797.139)" fill="#0d1b3a"/>
          <path id="Path_56543" data-name="Path 56543" d="M2364.547,1789.7a.146.146,0,0,1-.2.052.149.149,0,0,1-.014-.207.147.147,0,0,1,.2-.053A.144.144,0,0,1,2364.547,1789.7Z" transform="translate(-2357.414 -1782.171)" fill="#0d1b3a"/>
        </g>
        <path id="Path_56544" data-name="Path 56544" d="M2338.931,1763.5a4.039,4.039,0,0,1-1.827,3.165c-1.01.582-1.827.108-1.827-1.056a4.035,4.035,0,0,1,1.827-3.163C2338.112,1761.864,2338.931,1762.333,2338.931,1763.5Z" transform="translate(-2320.153 -1747.807)" fill="#fff"/>
        <path id="Path_56545" data-name="Path 56545" d="M2341.046,1765.115a3.914,3.914,0,0,1-1.775,3.07c-.979.566-1.771.107-1.771-1.023a3.916,3.916,0,0,1,1.771-3.072C2340.252,1763.526,2341.046,1763.984,2341.046,1765.115Z" transform="translate(-2322.091 -1749.248)" fill="url(#linear-gradient-7)"/>
      </g>
      <path id="Path_56546" data-name="Path 56546" d="M2288.342,1656.54s-.182-10.062-7.064-7.707-12.133,13.009-12.133,13.009l.658-7.931,10.162-7.382s6.222-2.911,7.919,1.242a22.1,22.1,0,0,1,1.538,8.059Z" transform="translate(3099.874 -1094.669)" fill="#0d1b3a"/>
      <g id="Group_9117" data-name="Group 9117" transform="translate(5399.962 525.203)">
        <path id="Path_56547" data-name="Path 56547" d="M2562.02,1565.651l2.148,4.775v1.631l1.8-1.041v-.873l-2.325-5.428Z" transform="translate(-2555.41 -1549.414)" fill="#333"/>
        <path id="Path_56548" data-name="Path 56548" d="M2557.118,1460.557v-1.269l-1.494-.865-45.155,26.052v3.921l1.176.714,45.152-26.053v-1.031l-.26-.169v-.962Z" transform="translate(-2510.469 -1456.75)" fill="#333"/>
        <path id="Path_56549" data-name="Path 56549" d="M2518.174,1503.422l-.583-.282v1.581l45.155-26.055v-.962Z" transform="translate(-2516.678 -1473.559)"/>
        <path id="Path_56550" data-name="Path 56550" d="M2555.624,1458.422l-45.155,26.052,1.5.864,45.153-26.052Z" transform="translate(-2510.469 -1456.75)"/>
        <path id="Path_56551" data-name="Path 56551" d="M2563.006,1485.376l-45.152,26.051-.263-.165,45.155-26.055Z" transform="translate(-2516.678 -1480.101)"/>
        <path id="Path_56552" data-name="Path 56552" d="M2769.022,1446.323l2.148,4.773v1.628l1.805-1.041v-.866l-2.325-5.433Z" transform="translate(-2735.869 -1445.383)" fill="#333"/>
        <path id="Path_56553" data-name="Path 56553" d="M2769.022,1449.521l2.148,4.773v1.628l.9-.52v-1.108l-2.244-5.242Z" transform="translate(-2735.869 -1448.581)"/>
        <path id="Path_56554" data-name="Path 56554" d="M2562.02,1568.857l2.148,4.775v1.631l.9-.521v-1.11l-2.242-5.24Z" transform="translate(-2555.41 -1552.62)"/>
      </g>
      <g id="Group_9119" data-name="Group 9119" transform="translate(5349.72 407.56)">
        <g id="Group_9118" data-name="Group 9118" transform="translate(87.879 68.57)">
          <path id="Path_56555" data-name="Path 56555" d="M2803.988,1069.22l48.313,27.893v-2.953l-48.313-27.892Z" transform="translate(-2803.988 -1065.807)" fill="#191818"/>
          <path id="Path_56556" data-name="Path 56556" d="M2804.815,1062.673l48.313,27.894-.827.458-48.313-27.892Z" transform="translate(-2803.988 -1062.673)" fill="#333"/>
          <path id="Path_56557" data-name="Path 56557" d="M3181.615,1282.966l-.838.486V1280.5l.838-.484Z" transform="translate(-3132.464 -1252.146)" fill="#333"/>
        </g>
        <path id="Path_56558" data-name="Path 56558" d="M2797.56,999.376l50.8,29.328v-5.12l-50.8-29.329Z" transform="translate(-2710.505 -934.458)" fill="#191818"/>
        <path id="Path_56559" data-name="Path 56559" d="M3196.444,1210.923v5.121l-2.68,1.547v-5.121Z" transform="translate(-3055.906 -1123.344)" fill="#333"/>
        <path id="Path_56560" data-name="Path 56560" d="M2118.633,579.651l89.72-51.743,50.81,29.336.008,58.266-89.737,51.51-50.8-29.33Z" transform="translate(-2118.633 -527.908)" fill="#f9f9f9"/>
        <path id="Path_56561" data-name="Path 56561" d="M2604.548,756.695l-89.687,51.786-.043,57.99,89.737-51.51Z" transform="translate(-2464.018 -727.359)" fill="#f5f5f5" style="mix-blend-mode: multiply;isolation: isolate"/>
        <path id="Path_56562" data-name="Path 56562" d="M2118.633,931.444v58.038l50.8,29.33.043-57.96Z" transform="translate(-2118.633 -879.701)" fill="#eee" style="mix-blend-mode: multiply;isolation: isolate"/>
      </g>
      <path id="Path_56563" data-name="Path 56563" d="M1899.844,1165.433c1.817,1.817,3.477,3.208,4.176,10.474a206.756,206.756,0,0,1,.656,22.342l-.5.9.344.755v4.957s-10.358,5.179-13.954,8.5-6.841,8.93-7.461,13.567l-9.123,5.18-.231,1.083a9.6,9.6,0,0,1-4.639,1.778c-2.205,0-4.91-.271-12.371-4.253s-21.494-12.641-23.659-14.3-5.488-4.1-5.989-7.846a17.89,17.89,0,0,1,.194-6.379s-.272-6.612.618-7.733c0,0,0-6.687-.077-7.383a52.518,52.518,0,0,1,1.236-5.8s1.275-4.87,2.32-8.039a153.55,153.55,0,0,1,6.417-14.188c1.391-2.667,3.983-4.444,5.876-5.682s14.032-8.271,15.618-9.084,3.4-1.043,6.764.5,13.221,7.035,17.048,9.431S1898.259,1163.848,1899.844,1165.433Z" transform="translate(3485.403 -657.136)" fill="#fff"/>
      <path id="Path_56564" data-name="Path 56564" d="M1904.177,1367.32l.5-.9a206.753,206.753,0,0,0-.656-22.342c-.367-3.808-1-6-1.775-7.491a2.59,2.59,0,0,0-1.744.375c-2.31,1.283-11.133,6.774-13.724,8.419s-6.525,4.075-7.3,6.41-4.937,19.142-5.489,21.4-1.376,5.607-2.568,6.908-8.134,1.254-11.138-.391-21.371-11.993-24.933-14.6c-2.587-1.893-5.552-5.256-7.459-7.265.02,2.139.02,4.788.02,4.788-.89,1.121-.618,7.733-.618,7.733a17.889,17.889,0,0,0-.194,6.379c.5,3.748,3.827,6.184,5.989,7.846s16.2,10.321,23.659,14.3,10.166,4.253,12.371,4.253a9.6,9.6,0,0,0,4.639-1.778l.231-1.083,9.123-5.18c.619-4.637,3.865-10.241,7.461-13.567s13.954-8.5,13.954-8.5v-4.956c-1.89.99-12.7,7.97-15.042,10.332s-15.5,16.631-15.5,16.631l-.192-.751s13.347-14.46,15.687-16.823S1902.287,1368.311,1904.177,1367.32Zm-30.471,14.773.051-1.085,2.765-2.639s21.908-29.07,21.908-29.142,1.246-6.777,1.988-6.47,1.258,8.1,1.168,10.251-1.258,3.372-2.727,5.29-8.013,8.371-11.006,11.329S1873.706,1382.093,1873.706,1382.093Z" transform="translate(3485.403 -825.305)" fill="#ff975d" opacity="0.2" style="mix-blend-mode: multiply;isolation: isolate"/>
      <path id="Path_56565" data-name="Path 56565" d="M1902.245,1282.856a2.589,2.589,0,0,0-1.744.375c-2.31,1.283-11.133,6.774-13.724,8.419s-6.525,4.075-7.3,6.409-4.937,19.142-5.489,21.4-1.376,5.607-2.568,6.908-8.134,1.254-11.138-.391-21.371-11.993-24.933-14.6c-2.587-1.893-5.552-5.256-7.459-7.265.02,2.139.02,4.788.02,4.788-.89,1.121-.618,7.733-.618,7.733a17.889,17.889,0,0,0-.194,6.378c.5,3.748,3.827,6.184,5.989,7.846s16.2,10.321,23.659,14.3,10.166,4.253,12.371,4.253a9.6,9.6,0,0,0,4.639-1.778l.231-1.083,9.123-5.18c.619-4.637,3.865-10.241,7.461-13.567s13.954-8.5,13.954-8.5v-4.956l-.344-.755.5-.9a206.751,206.751,0,0,0-.656-22.342C1903.653,1286.539,1903.022,1284.344,1902.245,1282.856Z" transform="translate(3485.403 -778.465)" opacity="0.2" fill="url(#linear-gradient-8)" style="mix-blend-mode: multiply;isolation: isolate"/>
      <path id="Path_56566" data-name="Path 56566" d="M2208.216,1581.9c-2.34,2.362-15.688,16.822-15.688,16.822v.443s13.347-14.461,15.688-16.823,12.807-9.152,14.7-10.143l.344-.632C2221.368,1572.558,2210.556,1579.537,2208.216,1581.9Z" transform="translate(3166.667 -1030.184)" fill="#ff975d" opacity="0.2" style="mix-blend-mode: multiply;isolation: isolate"/>
      <path id="Path_56567" data-name="Path 56567" d="M2194.583,1659.239l-2.667,2.458.044.62,2.765-2.639Z" transform="translate(3167.2 -1106.614)" fill="#438be3" opacity="0.2" style="mix-blend-mode: multiply;isolation: isolate"/>
      <path id="Path_56568" data-name="Path 56568" d="M2201.868,1772.271l-10.006,5.536.277,2.324,9.123-5.181A16.592,16.592,0,0,1,2201.868,1772.271Z" transform="translate(3167.247 -1205.153)" fill="#ff975d" opacity="0.3" style="mix-blend-mode: multiply;isolation: isolate"/>
      <path id="Path_56569" data-name="Path 56569" d="M1848.138,1228.882a13.554,13.554,0,0,0-4.117,4.473,153.6,153.6,0,0,0-6.417,14.188c-1.045,3.168-2.32,8.039-2.32,8.039a52.486,52.486,0,0,0-1.236,5.8c.027.258.047,1.337.057,2.6,1.907,2.009,4.872,5.371,7.459,7.265,3.562,2.608,21.93,12.953,24.933,14.6s9.95,1.693,11.138.391,2.016-4.649,2.568-6.907,4.712-19.07,5.489-21.4c.434-1.3,1.854-2.635,3.472-3.845Z" transform="translate(3479.184 -731.44)" opacity="0.3" fill="url(#linear-gradient-9)" style="mix-blend-mode: multiply;isolation: isolate"/>
      <g id="Group_9120" data-name="Group 9120" transform="translate(5359.035 515.543)">
        <path id="Path_56570" data-name="Path 56570" d="M2191.433,1423.242h-.149v-15.05c0-.016,2.908-12.81,3.432-15.107.422-1.846,2.288-9.421,2.9-10.425a23.1,23.1,0,0,1,5.8-4.6c1.37-.677,5.513-3.129,8.256-4.753l1.7-1.009c.3-.174.619-.368.936-.562,1.531-.94,3.114-1.915,4.1-1.637a1.07,1.07,0,0,1,.676.579c.811,1.6,1.407,5.472,1.593,10.365.19,4.986.4,13.9,0,15.658l-.261.724.217.812-2.834,6.371-.134-.058,2.812-6.325-.216-.806.272-.762c.4-1.735.188-10.63,0-15.61-.182-4.8-.786-8.747-1.576-10.3a.911.911,0,0,0-.582-.5c-.923-.259-2.548.739-3.982,1.619-.321.2-.635.389-.937.568-.426.249-1.019.6-1.708,1.007-2.743,1.623-6.889,4.079-8.265,4.76a22.867,22.867,0,0,0-5.732,4.542c-.573.934-2.385,8.2-2.881,10.381-.525,2.3-3.432,15.091-3.432,15.091Z" transform="translate(-2191.284 -1370.051)" fill="#ff975d"/>
      </g>
      <g id="Group_9121" data-name="Group 9121" transform="translate(5351.278 556.787)">
        <rect id="Rectangle_3370" data-name="Rectangle 3370" width="0.148" height="7.206" fill="#ff975d"/>
      </g>
      <g id="Group_9122" data-name="Group 9122" transform="translate(5315.797 536.433)">
        <rect id="Rectangle_3371" data-name="Rectangle 3371" width="0.148" height="7.413" fill="#ff975d"/>
      </g>
      <g id="Group_9123" data-name="Group 9123" transform="translate(5346.864 548.257)">
        <path id="Path_56571" data-name="Path 56571" d="M2096.464,1631.007l-.1-.106,5.8-5.721.105.1Z" transform="translate(-2096.361 -1625.18)" fill="#ff975d"/>
      </g>
      <g id="Group_9124" data-name="Group 9124" transform="translate(5316.186 526.171)">
        <path id="Path_56572" data-name="Path 56572" d="M1857.863,1462.309l-.754-9.365.148-.01.754,9.364Z" transform="translate(-1857.109 -1452.933)" fill="#ff975d"/>
      </g>
      <path id="Path_56573" data-name="Path 56573" d="M2232.582,1819.405l-7.288,4.21v.716l7.288-4.162Z" transform="translate(3138.103 -1246.244)" fill="#0d1b3a"/>
      <path id="Path_56574" data-name="Path 56574" d="M2207.5,1797.889v.909l-7.163,4.256-.093-1.043Z" transform="translate(3159.944 -1227.487)" fill="#0d1b3a"/>
      <path id="Path_56575" data-name="Path 56575" d="M2193.192,1832.882l-3.12-1.8-.093-1.043-.8.452-.177,1.121-.535.279,1.324.855,3.4.855Z" transform="translate(3170.204 -1255.51)" fill="#0d1b3a"/>
      <path id="Path_56576" data-name="Path 56576" d="M2211.37,1806.829l-3.245-1.85-7.163,4.256,3.12,1.8Z" transform="translate(3159.314 -1233.667)" fill="#ff975d"/>
      <path id="Path_56577" data-name="Path 56577" d="M1892.1,1543.424a144.594,144.594,0,0,1-16.743-8.945c-6.167-4-10.287-7.2-11.117-7.895-.144-.123-.374-.324-.645-.58l.906,3.338h0c1.254.97,5.327,3.849,11.01,7.532a141.5,141.5,0,0,0,16.589,8.853l.158.07,1.586-1.673C1893.242,1543.912,1892.659,1543.678,1892.1,1543.424Z" transform="translate(3453.425 -990.464)" fill="#ff975d"/>
      <path id="Path_56578" data-name="Path 56578" d="M1837.9,1337.891c.054-.167.107-.332.161-.491l.023-.074c-2.689-1.238-2.923-1.779-2.923-2.34v-3.03h-.592v3.03C1834.567,1335.92,1835.073,1336.6,1837.9,1337.891Z" transform="translate(3478.728 -821.297)" fill="#0d1b3a"/>
      <path id="Path_56579" data-name="Path 56579" d="M1827.221,1262.245c0,.488-.343.682-.76.428l-3.929-2.371a1.747,1.747,0,0,1-.758-1.345v-9.282c0-.488.341-.68.758-.428l3.929,2.371a1.75,1.75,0,0,1,.76,1.344Z" transform="translate(3489.881 -749.096)" fill="#132d67"/>
      <path id="Path_56580" data-name="Path 56580" d="M1823.755,1254.03c-.571,0-.679-.2-.819-.4-.113-.171-.692-3.157-.9-4.24a.5.5,0,0,0-.264.507v9.282a1.747,1.747,0,0,0,.758,1.345l3.929,2.371c.417.253.76.06.76-.428v-9.283a1.545,1.545,0,0,0-.175-.664A17.567,17.567,0,0,1,1823.755,1254.03Z" transform="translate(3489.881 -749.315)" fill="#0d1b3a"/>
      <path id="Path_56581" data-name="Path 56581" d="M1834.895,1232.023h.025a.3.3,0,0,0,.268-.319c-.119-1.42-.055-5.194,1.626-5.628s8.364-1.2,11.7-1.558c.335-.251.667-.485.988-.7-2.716.291-10.9,1.19-12.84,1.691-2.5.645-2.088,6.021-2.065,6.249A.292.292,0,0,0,1834.895,1232.023Z" transform="translate(3478.732 -727.022)" fill="#0d1b3a"/>
      <path id="Path_56582" data-name="Path 56582" d="M2371.921,1563.036c.509-.33,3.847-2.45,4.352-2.816a1.334,1.334,0,0,0,.58-1.208c-.019-.368.122-1.837-.822-1.312a31.809,31.809,0,0,0-3.27,2.239,8.572,8.572,0,0,0-1.331,3.1C2371.448,1563.157,2371.542,1563.28,2371.921,1563.036Z" transform="translate(3010.706 -1017.999)" fill="#e36410"/>
      <path id="Path_56583" data-name="Path 56583" d="M2372.52,1564.03a9.137,9.137,0,0,1,1.285-2.974,31.4,31.4,0,0,1,3.248-2.223.6.6,0,0,1,.282-.094.191.191,0,0,1,.136.057c.185.185.183.739.183,1.039,0,.074,0,.14,0,.189a1.179,1.179,0,0,1-.517,1.079c-.4.29-2.652,1.728-3.736,2.421l-.612.392a.572.572,0,0,1-.266.117Z" transform="translate(3009.755 -1019)" fill="#ec691f"/>
      <path id="Path_56584" data-name="Path 56584" d="M2379.78,1558.795a.192.192,0,0,0-.136-.057.6.6,0,0,0-.283.094,31.386,31.386,0,0,0-3.248,2.223,6.756,6.756,0,0,0-.946,1.857l4.8-3.126C2379.962,1559.484,2379.957,1558.973,2379.78,1558.795Z" transform="translate(3007.446 -1019)" fill="#ff975d"/>
      <path id="Path_56585" data-name="Path 56585" d="M2217.134,1392.038a7.85,7.85,0,0,0-3.036,4.773c-.543,2.279-3.726,16.2-3.944,17.722s-.325,4.05.324,3.688,16.1-14.754,18.3-17,5.425-5.929,5.787-7.268a37.809,37.809,0,0,0,.434-7.631c-.144-1.519-.144-4.59-1.484-3.978S2217.134,1392.038,2217.134,1392.038Z" transform="translate(3151.448 -865.156)" fill="#0d1b3a"/>
      <path id="Path_56586" data-name="Path 56586" d="M2214.609,1421.411a13.942,13.942,0,0,1,.142-2.751c.206-1.439,3.321-15.1,3.931-17.667a7.269,7.269,0,0,1,2.77-4.4c5.193-3.135,15.289-9.185,16.324-9.66a.2.2,0,0,1,.065-.023c.343.27.476,2.106.527,2.8.019.259.035.5.056.718a37.618,37.618,0,0,1-.417,7.418c-.3,1.091-3.155,4.488-5.637,7.01C2230.151,1407.114,2217.221,1419.145,2214.609,1421.411Z" transform="translate(3147.434 -869.201)" fill="#ff975d"/>
      <path id="Path_56587" data-name="Path 56587" d="M2088.718,1667.319l-1.586,1.673a20.352,20.352,0,0,0,8.272,2.066,11.144,11.144,0,0,0,5.157-1.166v-2.549a11.161,11.161,0,0,1-5.157,1.164A19.854,19.854,0,0,1,2088.718,1667.319Z" transform="translate(3258.549 -1113.658)" fill="#fff"/>
      <path id="Path_56588" data-name="Path 56588" d="M1838.1,1495.078a19.616,19.616,0,0,1-3.749-4.549c.015.7.023,1.65.028,2.6a21.433,21.433,0,0,0,4.367,5.077c.066.054.155.124.261.209Z" transform="translate(3478.917 -959.538)" fill="#fff"/>
      <path id="Path_56589" data-name="Path 56589" d="M1892.9,1627.881c2.307,1.559,5.067,3.357,7.543,4.826,2.44,1.445,6.818,3.9,10.807,6.073a5.6,5.6,0,0,1,3.319-2.607,4.308,4.308,0,0,0-1.484-1.724c-.662-.314-9.445-5.034-11.156-6.168s-8.2-5.133-9.218-5.762a1.384,1.384,0,0,0-1.378-.1A16.2,16.2,0,0,1,1892.9,1627.881Z" transform="translate(3429.239 -1074.396)" fill="#ec691f"/>
      <g id="Group_9125" data-name="Group 9125" transform="translate(5321.005 548.181)">
        <path id="Path_56590" data-name="Path 56590" d="M1910.844,1648.809c-2.072-1.231-7.511-4.644-9.375-5.818.038.138.073.276.108.415,1.42.895,7.29,4.587,9.439,5.861s7.779,4.421,10.215,5.776c.089-.073.178-.145.266-.21C1919.1,1653.494,1913.112,1650.153,1910.844,1648.809Z" transform="translate(-1900.6 -1640.631)" fill="#a44100"/>
        <path id="Path_56591" data-name="Path 56591" d="M1922.384,1660.864c-2.483-1.383-8-4.465-10.134-5.73-2.041-1.21-7.431-4.6-9.192-5.705.033.14.058.278.088.411,1.686,1.062,7.19,4.524,9.255,5.749,2.027,1.2,7.115,4.047,9.741,5.512C1922.223,1661.016,1922.3,1660.939,1922.384,1660.864Z" transform="translate(-1901.985 -1646.243)" fill="#a44100"/>
        <path id="Path_56592" data-name="Path 56592" d="M1922.875,1667.032c.057-.07.113-.137.169-.2-2.645-1.476-7.671-4.288-9.687-5.482-1.982-1.176-7.116-4.4-9.029-5.6.024.127.045.252.064.37,2.187,1.372,6.7,4.206,8.531,5.289C1915.005,1662.637,1920.317,1665.607,1922.875,1667.032Z" transform="translate(-1903.093 -1651.749)" fill="#a44100"/>
        <path id="Path_56593" data-name="Path 56593" d="M1906.68,1635.37c-2.169-1.286-7.77-4.8-9.915-6.152.066.151.128.307.186.46,1.681,1.059,7.685,4.833,9.915,6.157,2.479,1.467,9.274,5.256,11.417,6.451.124-.059.242-.11.357-.157C1916.526,1640.95,1909.3,1636.923,1906.68,1635.37Z" transform="translate(-1896.499 -1628.624)" fill="#a44100"/>
        <path id="Path_56594" data-name="Path 56594" d="M1913.625,1666.8c-1.769-1.048-6.061-3.739-8.318-5.156.02.138.037.269.053.382,1.947,1.315,4.779,3.177,7.416,4.74,2.254,1.335,6.377,3.654,10.558,5.938.07-.1.139-.2.21-.292C1920.971,1670.981,1915.7,1668.033,1913.625,1666.8Z" transform="translate(-1903.946 -1656.895)" fill="#a44100"/>
        <path id="Path_56595" data-name="Path 56595" d="M1909.054,1642.26c-2.113-1.251-7.586-4.692-9.606-5.962.047.142.095.288.137.43,1.526.962,7.462,4.7,9.648,5.993,2.306,1.364,8.46,4.8,10.773,6.088.1-.067.2-.131.3-.187C1918,1647.333,1911.476,1643.7,1909.054,1642.26Z" transform="translate(-1898.839 -1634.795)" fill="#a44100"/>
        <path id="Path_56596" data-name="Path 56596" d="M1905.024,1631.077c2.6,1.54,9.755,5.528,11.916,6.731a3.431,3.431,0,0,0-1.051-1.085c-.647-.308-9.471-5.048-11.194-6.191-1.459-.964-6.354-3.99-8.444-5.281l-.766-.474a1.189,1.189,0,0,0-.625-.195.968.968,0,0,0-.167.016c.013.029.027.059.044.09C1896.489,1625.791,1902.708,1629.706,1905.024,1631.077Z" transform="translate(-1894.692 -1624.583)" fill="#a44100"/>
      </g>
      <path id="Path_56597" data-name="Path 56597" d="M2054.963,1736.559c2.342,1.031,2.781,1.364,5.406,1.494a8.847,8.847,0,0,0,4.917-1.494V1731a20.809,20.809,0,0,1-4.846.86c-1.885-.027-6.409-1.5-7.8-2.108s-4.122-.5-5.973,2.458C2050.419,1734.254,2053.829,1736.06,2054.963,1736.559Z" transform="translate(3293.823 -1167.824)" fill="#ff975d"/>
      <path id="Path_56598" data-name="Path 56598" d="M1834.4,1552.846c.8.59,2.526,1.81,4.631,3.232-.151-1.254-.758-5.188-2.565-6.738a66.152,66.152,0,0,1-5.746-6c-.526-.64-.407-2.468-.522-3.427-.89,1.121-.618,7.733-.618,7.733C1830.271,1549.534,1832.73,1551.609,1834.4,1552.846Z" transform="translate(3483.106 -1002.593)" fill="#ff975d"/>
      <path id="Path_56599" data-name="Path 56599" d="M1868.789,1625.4c-2.625-.129-3.064-.463-5.406-1.493s-14.364-7.619-19.1-10.424-10.5-6.823-12.174-8.057-4.134-3.312-4.82-5.2a17.89,17.89,0,0,0-.194,6.379c.5,3.748,3.827,6.184,5.989,7.846s16.2,10.321,23.659,14.3,10.166,4.253,12.371,4.253a9.6,9.6,0,0,0,4.639-1.778l.231-1.083V1624.7l-.277-.8A8.848,8.848,0,0,1,1868.789,1625.4Z" transform="translate(3485.403 -1055.17)" fill="#0d1b3a"/>
      <path id="Path_56600" data-name="Path 56600" d="M1869.921,1625.4c-2.625-.129-3.064-.463-5.406-1.493s-14.364-7.619-19.1-10.424-10.5-6.823-12.174-8.057-4.134-3.312-4.82-5.2a10.4,10.4,0,0,0-.211,1.139,11.665,11.665,0,0,0,3.3,4.493c2.474,2.008,9.834,6.565,14.081,9.189s11.814,6.923,15.29,8.754,6.8,2.906,9.629,2.78a7.261,7.261,0,0,0,4.5-1.779l.1-.1-.277-.8A8.848,8.848,0,0,1,1869.921,1625.4Z" transform="translate(3484.272 -1055.17)" fill="#213460"/>
      <g id="Group_9126" data-name="Group 9126" transform="translate(5314.478 502.592)">
        <path id="Path_56601" data-name="Path 56601" d="M1891.2,1291.533c-1.663-.937-15.154-8.463-20.5-11.68s-14.9-9.439-16.566-10.487a1.963,1.963,0,0,0-2.123,0c-1.673,3.337-4.976,10.351-5.912,13.2-.993,3.012-2.193,7.56-2.31,8a6.14,6.14,0,0,0,1.631,3.248c1.192,1.12,5.063,5.064,15.476,11.356s19.856,10.488,23.291,10.488,3.943-1.7,4.34-3.147,3.147-13.02,3.942-16.13S1892.112,1292.047,1891.2,1291.533Z" transform="translate(-1843.79 -1269.051)" fill="#0d1b3a"/>
        <path id="Path_56602" data-name="Path 56602" d="M1890.37,1320.8c-2.823,0-11.571-3.56-22.83-10.361-9.663-5.837-13.585-9.578-15.06-10.986l-.27-.257a5.128,5.128,0,0,1-1.329-2.574c.253-.955,1.342-5.02,2.24-7.753.915-2.774,4.1-9.542,5.73-12.809a1.149,1.149,0,0,1,.434-.091,1.047,1.047,0,0,1,.561.177c.4.25,1.243.795,2.375,1.523,3.536,2.278,10.121,6.519,14.2,8.973,4.582,2.754,15.129,8.667,19.1,10.893.687.386,1.185.664,1.427.8,1.062.6,1.344,1.893.843,3.854-.39,1.524-1.239,5.051-2.065,8.46-.861,3.562-1.673,6.927-1.874,7.652C1893.489,1319.644,1893.172,1320.8,1890.37,1320.8Z" transform="translate(-1849.973 -1275.081)" fill="#ff975d"/>
        <path id="Path_56603" data-name="Path 56603" d="M1881.568,1278.213c-1.132-.729-1.98-1.273-2.375-1.523a1.2,1.2,0,0,0-.186-.1c-1.194,2.989-6.849,17.346-5.807,18.377,1.164,1.155,4.492-1.022,5.759-2.031,1.04-.829,8.123-7.313,10.616-9.6C1886.6,1281.457,1883.589,1279.515,1881.568,1278.213Z" transform="translate(-1869.318 -1275.626)" fill="#e9f6f9"/>
        <path id="Path_56604" data-name="Path 56604" d="M1858.546,1392.2c-1.207-.519-5.093,2.436-7.263,4.21-.186.681-.328,1.211-.4,1.487a5.13,5.13,0,0,0,1.329,2.574l.27.257c1.474,1.408,5.4,5.149,15.06,10.986,11.258,6.8,20.007,10.361,22.83,10.361,2.8,0,3.119-1.156,3.485-2.5.162-.592.734-2.937,1.405-5.714C1887.533,1409.2,1860.1,1392.861,1858.546,1392.2Z" transform="translate(-1849.973 -1376.353)" fill="#0d1b3a"/>
        <path id="Path_56605" data-name="Path 56605" d="M2044.621,1495.238s-6.2,6.142-5.837,6.81,6.891,5.534,7.866,5.45,9.458-5.527,9.458-5.527-.957-2.509-4.751-4.752A12.334,12.334,0,0,0,2044.621,1495.238Z" transform="translate(-2013.768 -1466.227)" fill="#0d1b3a"/>
        <path id="Path_56606" data-name="Path 56606" d="M2094.854,1470.985c-.681-.339-1.412-.665-1.715-.388s-.388.775.663,1.44,11.38,6.923,11.907,7.256.968.331,1.273,0-.4-.789-1.038-1.26S2095.663,1471.383,2094.854,1470.985Z" transform="translate(-2060.99 -1444.662)" fill="#0d1b3a"/>
        <path id="Path_56607" data-name="Path 56607" d="M1877.974,1287.562c-.568-.334-1.089-.642-1.551-.921-4.08-2.455-10.666-6.7-14.2-8.973-1.132-.729-1.98-1.273-2.375-1.523a1.047,1.047,0,0,0-.561-.177,1.149,1.149,0,0,0-.434.091c-1.626,3.267-4.815,10.035-5.73,12.809-.9,2.733-1.987,6.8-2.24,7.753a5.128,5.128,0,0,0,1.329,2.574l.27.257a61.212,61.212,0,0,0,7.689,6.211A62.822,62.822,0,0,1,1877.974,1287.562Z" transform="translate(-1849.973 -1275.081)" fill="#fff" opacity="0.2"/>
      </g>
      <path id="Path_56608" data-name="Path 56608" d="M1882.519,1690.343c-.131-.6-.567-1.417.661-.6s7.909,4.852,10.458,6.425,9.924,5.859,11,6.362,1.417.758,1.068,1.45a1.766,1.766,0,0,1-2.457.819c-1.259-.567-8.852-4.976-10.9-6.269s-7.939-5.1-8.442-5.418A6.157,6.157,0,0,1,1882.519,1690.343Z" transform="translate(3437.084 -1132.907)" fill="#213460"/>
      <path id="Path_56609" data-name="Path 56609" d="M1909.841,1704.544c-1.074-.5-8.447-4.787-11-6.362s-9.23-5.606-10.458-6.424a.643.643,0,0,0-.078-.051c.022.076.043.156.058.23a6.163,6.163,0,0,0,1.385,2.772c.5.317,6.4,4.128,8.444,5.419s9.64,5.7,10.9,6.269a1.9,1.9,0,0,0,1.453.111,2.056,2.056,0,0,0,.363-.513C1911.258,1705.3,1910.908,1705.05,1909.841,1704.544Z" transform="translate(3431.88 -1134.919)" fill="#0d1b3a"/>
      <path id="Path_56610" data-name="Path 56610" d="M2086.979,1811.527l-1.925-.9a1.528,1.528,0,0,1-.8-1.263v-.691a.651.651,0,0,1,.11-.38.525.525,0,0,0-.381.571v.691a1.527,1.527,0,0,0,.8,1.261l1.925.9a.517.517,0,0,0,.695-.129A.648.648,0,0,1,2086.979,1811.527Z" transform="translate(3261.297 -1236.56)" fill="#1959b1"/>
      <path id="Path_56611" data-name="Path 56611" d="M1846.858,1665.394l-1.794-1.322a2.2,2.2,0,0,1-.678-1.518l.015-.715a.529.529,0,0,1,.168-.434c-.3-.15-.529.013-.536.434l-.019.715a2.23,2.23,0,0,0,.68,1.518l1.8,1.322c.263.227.39.237.449.064C1846.913,1665.438,1846.889,1665.419,1846.858,1665.394Z" transform="translate(3470.493 -1108.456)" fill="#1959b1"/>
      <path id="Path_56612" data-name="Path 56612" d="M2087.507,1811.1a.519.519,0,0,1-.8.508l-1.925-.895a1.528,1.528,0,0,1-.8-1.262v-.691a.522.522,0,0,1,.8-.511l1.925.9a1.523,1.523,0,0,1,.8,1.261Z" transform="translate(3261.297 -1236.452)" fill="#fff"/>
      <path id="Path_56613" data-name="Path 56613" d="M1846.983,1665.067c-.009.5-.109.623-.492.29l-1.8-1.322a2.229,2.229,0,0,1-.68-1.518l.019-.714c.011-.5.333-.646.718-.315l1.671,1.443a2.037,2.037,0,0,1,.622,1.464Z" transform="translate(3470.493 -1108.418)" fill="#fff"/>
      <path id="Path_56614" data-name="Path 56614" d="M2087.719,1809.151l-1.925-.9a.54.54,0,0,0-.655.071.648.648,0,0,1,.425.061l1.921.9a1.517,1.517,0,0,1,.8,1.261v.69a.63.63,0,0,1-.149.439.523.523,0,0,0,.379-.568v-.693A1.523,1.523,0,0,0,2087.719,1809.151Z" transform="translate(3260.285 -1236.458)" fill="#438be3" opacity="0.3" style="mix-blend-mode: multiply;isolation: isolate"/>
      <path id="Path_56615" data-name="Path 56615" d="M1846.759,1662.947l-1.671-1.443c-.323-.276-.6-.218-.687.1a.587.587,0,0,1,.409.176l1.671,1.444a2.031,2.031,0,0,1,.624,1.464l-.059.671c0,.059,0,.116-.009.163.212.111.277-.044.284-.437l.06-.672A2.036,2.036,0,0,0,1846.759,1662.947Z" transform="translate(3470.156 -1108.434)" fill="#438be3" opacity="0.3" style="mix-blend-mode: multiply;isolation: isolate"/>
      <path id="Path_56616" data-name="Path 56616" d="M2062.1,1738.928c-.1,0-.195,0-.291-.006a9.728,9.728,0,0,1-4.6-1.147l-.755-.336c-1.021-.448-4.061-2.039-8.144-4.267a5.014,5.014,0,0,1,4.243-2.554,3.716,3.716,0,0,1,1.46.282c1.4.618,5.936,2.095,7.853,2.123h.093a20.188,20.188,0,0,0,4.61-.813v5.289a8.9,8.9,0,0,1-4.472,1.429Z" transform="translate(3292.388 -1168.841)" fill="#fff"/>
      <path id="Path_56617" data-name="Path 56617" d="M1839.843,1559.644c-1.937-1.315-3.568-2.467-4.355-3.045-1.475-1.091-4.052-3.2-4.763-5.108-.063-1.621-.1-5.6.368-7.133.009.129.013.262.018.4a5,5,0,0,0,.5,2.551,66.035,66.035,0,0,0,5.763,6.013C1839.006,1554.727,1839.644,1558.191,1839.843,1559.644Z" transform="translate(3482.11 -1006.464)" fill="#fff"/>
      <path id="Path_56618" data-name="Path 56618" d="M2062.1,1738.928c-.1,0-.195,0-.291-.006a9.728,9.728,0,0,1-4.6-1.147l-.755-.336c-1.021-.448-4.061-2.039-8.144-4.267a5.014,5.014,0,0,1,4.243-2.554,3.716,3.716,0,0,1,1.46.282c1.4.618,5.936,2.095,7.853,2.123h.093a20.188,20.188,0,0,0,4.61-.813v5.289a8.9,8.9,0,0,1-4.472,1.429Z" transform="translate(3292.388 -1168.841)" fill="#438be3" opacity="0.1" style="mix-blend-mode: multiply;isolation: isolate"/>
      <path id="Path_56619" data-name="Path 56619" d="M1839.843,1559.644c-1.937-1.315-3.568-2.467-4.355-3.045-1.475-1.091-4.052-3.2-4.763-5.108-.063-1.621-.1-5.6.368-7.133.009.129.013.262.018.4a5,5,0,0,0,.5,2.551,66.035,66.035,0,0,0,5.763,6.013C1839.006,1554.727,1839.644,1558.191,1839.843,1559.644Z" transform="translate(3482.11 -1006.464)" fill="#438be3" opacity="0.1" style="mix-blend-mode: multiply;isolation: isolate"/>
      <path id="Path_56620" data-name="Path 56620" d="M2081.042,1737.091c0,1.251-.878,1.76-1.965,1.131a4.337,4.337,0,0,1-1.965-3.4c0-1.252.88-1.763,1.965-1.135A4.34,4.34,0,0,1,2081.042,1737.091Z" transform="translate(3267.283 -1171.281)" fill="#fff"/>
      <path id="Path_56621" data-name="Path 56621" d="M2123,1756.282c0,1.113-.78,1.566-1.747,1.008a3.865,3.865,0,0,1-1.749-3.028c0-1.113.784-1.566,1.749-1.007A3.855,3.855,0,0,1,2123,1756.282Z" transform="translate(3230.33 -1188.368)" fill="#fff"/>
      <path id="Path_56622" data-name="Path 56622" d="M2161.507,1757.075c0,.7-.494.99-1.1.638a2.444,2.444,0,0,1-1.1-1.913c0-.7.494-.99,1.1-.638A2.439,2.439,0,0,1,2161.507,1757.075Z" transform="translate(3195.636 -1190.107)" fill="#fff"/>
      <path id="Path_56623" data-name="Path 56623" d="M1858.591,1603.374a1.657,1.657,0,0,1-.29,1.02h0a.926.926,0,0,1-.7.378s-.007,0-.015,0a1.732,1.732,0,0,1-.955-.266,4.345,4.345,0,0,1-1.963-3.4,2.047,2.047,0,0,1,.12-.723,1,1,0,0,1,.777-.665.224.224,0,0,1,.053-.007,1.556,1.556,0,0,1,.884.189c.477.478.952.935,1.4,1.338A4.11,4.11,0,0,1,1858.591,1603.374Z" transform="translate(3461.21 -1054.714)" fill="#fff"/>
      <path id="Path_56624" data-name="Path 56624" d="M1833.814,1577.525a1.467,1.467,0,0,1-.257.908h0a.834.834,0,0,1-.622.336l-.005,0h-.011a1.5,1.5,0,0,1-.849-.237,3.65,3.65,0,0,1-1.369-1.55v0c-.018-.686-.029-1.575-.013-2.5v0a.837.837,0,0,1,.462-.21l.005,0a1.464,1.464,0,0,1,.916.229A3.864,3.864,0,0,1,1833.814,1577.525Z" transform="translate(3482.119 -1032.533)" fill="#fff"/>
      <path id="Path_56625" data-name="Path 56625" d="M2280.473,1422.414l3-1.747v1.647Z" transform="translate(3089.998 -898.633)" fill="#0d1b3a"/>
      <path id="Path_56626" data-name="Path 56626" d="M2256.778,1521.421c0,.488-.341.679-.758.428l-3.93-2.371a1.75,1.75,0,0,1-.756-1.344v-9.285c0-.487.341-.679.756-.427l3.93,2.37a1.75,1.75,0,0,1,.758,1.344Z" transform="translate(3115.401 -975.039)" fill="#0d2660"/>
      <path id="Path_56627" data-name="Path 56627" d="M2253.773,1639.727l-.96.786v2.685l.96-.343,1.134.123v-2.413Z" transform="translate(3114.112 -1089.604)" fill="#0d1b3a"/>
      <path id="Path_56628" data-name="Path 56628" d="M2253.772,1639.727a9.233,9.233,0,0,1-.96.786l2.094.051Z" transform="translate(3114.113 -1089.604)" fill="#1959b1"/>
      <path id="Path_56629" data-name="Path 56629" d="M2253.313,1513.215c-.57,0-.679-.2-.819-.407-.115-.169-.692-3.155-.9-4.236a.5.5,0,0,0-.262.5v9.285a1.75,1.75,0,0,0,.756,1.344l3.93,2.371c.417.251.758.061.758-.428v-9.285a1.555,1.555,0,0,0-.175-.663A17.546,17.546,0,0,1,2253.313,1513.215Z" transform="translate(3115.401 -975.267)" fill="#0d1b3a"/>
      <g id="Group_9127" data-name="Group 9127" transform="translate(5368.231 544.24)">
        <rect id="Rectangle_3372" data-name="Rectangle 3372" width="0.591" height="8.86" fill="#0d1b3a"/>
      </g>
      <g id="Group_9128" data-name="Group 9128" transform="translate(5368.231 522.929)">
        <path id="Path_56630" data-name="Path 56630" d="M2263.3,1442.968a.294.294,0,0,1-.3-.294v-5.281a8.589,8.589,0,0,1,1.292-4.132c.682-1.213,2.86-5.4,2.879-5.447a.3.3,0,0,1,.527.275c-.022.041-2.207,4.242-2.891,5.461a7.9,7.9,0,0,0-1.217,3.844v5.281A.294.294,0,0,1,2263.3,1442.968Z" transform="translate(-2263.003 -1427.655)" fill="#0d1b3a"/>
      </g>
      <path id="Path_56631" data-name="Path 56631" d="M1821.181,807.958l-80.021,16.773v145.12H1875V839.034Z" transform="translate(3583.957 -374.057)" fill="none"/>
    </g>
    <g id="Group_21874" data-name="Group 21874">
      <path id="Path_99233" data-name="Path 99233" d="M3811.922,8713a29.41,29.41,0,0,1-14.754-3.5,14.371,14.371,0,0,1-4.586-3.869,7.652,7.652,0,0,1-.094-9.037,13.793,13.793,0,0,1,4.289-3.772c0,.037.01.074.015.11v.006l0,.021c0,.023.007.048.01.071a8.135,8.135,0,0,0,1.032,3.769c.126.19.262.383.416.588-.009.02-.028.028-.059.028v.381l.131.311a1.915,1.915,0,0,0-.254,1.069,13.329,13.329,0,0,0,.188,3.077,1.468,1.468,0,0,0,1.638,1.194,4.031,4.031,0,0,0,1.126-.247,10.884,10.884,0,0,0,4.459,6.089,11.3,11.3,0,0,0,5.907,1.447c1.42,0,2.31-.318,2.642-.944a1.127,1.127,0,0,0,.122-.757c-.036-.23-.057-.394-.057-.437v-.065a2.167,2.167,0,0,0,.182-.566,3.162,3.162,0,0,0-.378-1.688,29.949,29.949,0,0,0-3.449-5.157c-.734-.985-1.378-1.9-1.914-2.719a3.1,3.1,0,0,0,.459-.5,2.95,2.95,0,0,0,.363-1.1c-.241-.637-.464-1.286-.663-1.93-.018-.048-.035-.094-.055-.142.184,0,.344,0,.492,0,.636,0,1.009-.115,1.107-.341a1.2,1.2,0,0,1,0-.619c1.178,0,3.395.856,6.59,2.546a13.979,13.979,0,0,0,2.067,1.032,15.252,15.252,0,0,0,2.953.612,10.069,10.069,0,0,0,1.628.159,2.87,2.87,0,0,0,1.261-.225c.5-.275.73-.573.691-.888a.605.605,0,0,0-.066-.275,2.481,2.481,0,0,0,.954-2.14,3.981,3.981,0,0,0-.822-2.633c.444.224.83.432,1.179.632a14.407,14.407,0,0,1,4.588,3.861,7.649,7.649,0,0,1,0,9.177,14.358,14.358,0,0,1-4.588,3.861A29.318,29.318,0,0,1,3811.922,8713Zm53.273-.4h-.131a28.236,28.236,0,0,1-14.207-3.381,13.95,13.95,0,0,1-4.437-3.74,7.378,7.378,0,0,1,0-8.864,13.961,13.961,0,0,1,4.437-3.735,24.482,24.482,0,0,1,6.528-2.546,36.8,36.8,0,0,1-4.186,3.368,6.174,6.174,0,0,1-1.3.589c-.737.241-1.166.378-1.433.459a3.657,3.657,0,0,0-2.277,1.623.461.461,0,0,1-.066.188v.088a2.577,2.577,0,0,1-.328,1.025,6.064,6.064,0,0,0-.451,1.36,20.15,20.15,0,0,0,7.755,1.564c.518,0,1.037-.022,1.542-.066a21.705,21.705,0,0,0,3.383-2.342,17.478,17.478,0,0,1,3.515-2.277.727.727,0,0,1,.454-.166,1.392,1.392,0,0,1,.913.494,4.571,4.571,0,0,0,.647.589.922.922,0,0,0,.512.169.815.815,0,0,0,.267-.045,6.326,6.326,0,0,0,3.709-1.687,10.453,10.453,0,0,0,.969-3.972,9.789,9.789,0,0,0,0-1.339,27.382,27.382,0,0,1,4.455,1.133c-.1.665-.18,1.227-.258,1.717a32.194,32.194,0,0,1-.96,4.141,2.123,2.123,0,0,0,.219.452,5.663,5.663,0,0,0,.669,1.021c-.13.192-.262.393-.4.6l-.056.084-.057.086a23.747,23.747,0,0,0-2.191,3.63c-.392.735-.857,1.705-1.382,2.881a3.681,3.681,0,0,0-.407.923v.118a7.114,7.114,0,0,0-.166.916,8.4,8.4,0,0,0-.118,1.214,1.588,1.588,0,0,0,.982,1.732,17.307,17.307,0,0,0,1.817.1,14.945,14.945,0,0,0,2.223-.164,10.538,10.538,0,0,0,3.681-1.433,7.447,7.447,0,0,0,1.157-1.623c.356-.748.652-1.364.857-1.782a5.675,5.675,0,0,1,2.539-2.821,10.8,10.8,0,0,0,1.1-2.89,5.45,5.45,0,0,0,.131-1.054l.068-.019.068-.019a7.321,7.321,0,0,1,.315,2.139,7.466,7.466,0,0,1-1.478,4.443,13.9,13.9,0,0,1-4.435,3.74A28.217,28.217,0,0,1,3865.2,8712.6Zm-14.337-13.69h0a6.793,6.793,0,0,1-1.423-.391,9.583,9.583,0,0,0,1.236.325.269.269,0,0,1,.188.063Zm52.639-.509a3.63,3.63,0,0,1-.937-.124l-15.911-4.269a21.039,21.039,0,0,0-.275-2.454,26.468,26.468,0,0,1,0-4.882c.25-2.491.472-4.978.66-7.39a47.881,47.881,0,0,0,0-7.536,7.616,7.616,0,0,0-.814-3.1,13.253,13.253,0,0,0-1.026-2.88,17.519,17.519,0,0,1-.741-5.1c-.1-2.848-.1-5.758,0-8.649.148-2.633.271-5.193.363-7.611a69.2,69.2,0,0,1,.741-7.608c.1-.922.177-1.891.225-2.88a13.568,13.568,0,0,0,1.995-3.478,4.459,4.459,0,0,0,.225-.669c.686-2.105.062-4.913-1.854-8.344a3.935,3.935,0,0,0,2.668-1.4c.078-.1.149-.193.219-.291.189-.247.363-.5.516-.743.139-.614.282-1.316.437-2.146.287-2.065.512-4.169.669-6.251l33.827,9.065v-3.7l-33.623-9,0-.117,0-.115c0-.063,0-.127.007-.189.043-1.352.046-2.708.007-4.031l.026-2.806,33.575,9V8605l-33.518-8.982a60.88,60.88,0,0,0-.477-7.395l34,9.109v-3.7l-36.469-9.77c-.183-.239-.388-.519-.61-.831a3.4,3.4,0,0,0-.444-.51,34.144,34.144,0,0,0-4.059-4,4.638,4.638,0,0,0-1.113-.807h-.072a.2.2,0,0,1,.072.144,3.509,3.509,0,0,1-.363,3.922c-.069.094-.14.186-.2.263a27.877,27.877,0,0,1-2.163,2.395c-.2.189-.4.376-.591.566-.84.822-1.689,1.7-2.524,2.618a7.022,7.022,0,0,1-2.436,1.841.918.918,0,0,0-.219-.437.235.235,0,0,1-.072-.16.754.754,0,0,0,.144-.291,10.332,10.332,0,0,0-.735-1.848,12.986,12.986,0,0,0-.888-1.992.5.5,0,0,0-.225-.226c.421-.292.878-.631,1.358-1.009.712-.56,1.474-1.214,2.266-1.946q.292-.294.9-.9c.581-.584,1.352-1.354,2.572-2.57a2.437,2.437,0,0,0,.595-1.62,12.038,12.038,0,0,0,.816-1.186l.109-.22.035-.071c.108-.149.2-.282.291-.42l44.027,11.8v-3.7l-42.376-11.353a14.2,14.2,0,0,0,.794-4.018v-1.26c-.078-.6-.165-1.208-.265-1.853l41.84,11.215v-3.7l-43.951-11.776c-.046-.058-.093-.113-.142-.169a9.7,9.7,0,0,0-7.153-2.747c-.16,0-.313,0-.456.007a16.1,16.1,0,0,0-7.989,2.364,4.532,4.532,0,0,0-1.242,1.111,4.846,4.846,0,0,0-.525,1.034,2.6,2.6,0,0,0,.291,2.661,5,5,0,0,0-.51,1.4,7.283,7.283,0,0,0-.151,3.55,2.1,2.1,0,0,1-.591,2.22c-.427.521-.708.877-.813,1.032v.072l-.14-.022-.106-.018-.257-.043V8512.4a1.914,1.914,0,0,1,.334-1.251,12.953,12.953,0,0,1,2.052-4.278,11.694,11.694,0,0,1,5.557-4.4,7.552,7.552,0,0,1,2.5-.473,5.192,5.192,0,0,1,1.7.278l68.747,18.469a5.353,5.353,0,0,0-1.117-.115,7.567,7.567,0,0,0-2.507.473,10.734,10.734,0,0,0-3.84,2.414,14.621,14.621,0,0,0-3.385,5.067,10.84,10.84,0,0,0-.718,3.65v134.393a32.647,32.647,0,0,1-2.34,12.252,24.99,24.99,0,0,1-6.672,9.226l-14.106,8.8A5.563,5.563,0,0,1,3903.5,8698.4Zm8.591-47.714a.821.821,0,0,0,.7.762A.821.821,0,0,1,3912.088,8650.686Zm7.194-1.187h0l.012.006.012.006.028.015a1.935,1.935,0,0,1,1.105,1.663,1.934,1.934,0,0,0-1.105-1.663l-.028-.015-.013-.007Zm-24.747-19.083v3.694l29.965,8.033v-3.7l-29.965-8.031Zm-30.008-85.333v3.7l59.958,16.063v-3.694l-59.958-16.063Zm0-10.964v3.7l59.958,16.063v-3.7l-59.958-16.062Zm10.955,156.889h0l-4.476-1.2,0-.033c0-.045-.006-.091-.008-.138l.306-.011a2.243,2.243,0,0,0,1.142-2.83,31.07,31.07,0,0,1-.625-15.517,24.862,24.862,0,0,0,.291-8.693v-.37a20.345,20.345,0,0,1,1.258,4.356c.2.884.4,1.68.6,2.364a23.869,23.869,0,0,1,2.364,9.392v1.622a2.129,2.129,0,0,0,.072.444,55.682,55.682,0,0,1-.523,7.608c-.121,1.019-.254,2.029-.394,3Zm-17.109-4.59h0l-20.594-5.529-.1-.028c-.62-.167-.947-.371-.971-.607s.284-.538.921-.862l14.106-8.8a24.992,24.992,0,0,0,6.824-9.575c.024-.059.048-.12.072-.182.35,1.973.731,4.021,1.135,6.089a37.618,37.618,0,0,1,.647,9.924,35.84,35.84,0,0,1-2.036,9.573Zm-42.428-50.291h0c-.122-.071-.267-.147-.456-.241a13.4,13.4,0,0,0-1.833-.8l.291-.365c.3-.532.546-1.029.741-1.477a1.546,1.546,0,0,0,.3-.443,4.089,4.089,0,0,0,.365-.816l.013-.038c.1-.287.2-.567.291-.85a1.627,1.627,0,0,0,.074-.514,1.381,1.381,0,0,0,.072-.437,3.626,3.626,0,0,0,.072-.669,4.846,4.846,0,0,0,.735.219,12.741,12.741,0,0,0,1.26-.365.278.278,0,0,1,.217-.079v.444a9.728,9.728,0,0,1-1.4,5.172.207.207,0,0,1-.073.145c-.1.159-.19.314-.284.466s-.187.317-.274.468l-.019.032-.085.147Zm49.077-6.648h0c-.122-.048-.229-.1-.327-.146a9.55,9.55,0,0,1-3.95-3.045c-.111-.146-.217-.291-.313-.433l-.145-3.913,2.014-.081a10.14,10.14,0,0,0,1.063.991,10.537,10.537,0,0,1,1.949,2.559l-.291,4.067Zm4.5-9.312h0c-.761-.093-1.583-.212-2.514-.363a8.655,8.655,0,0,1-1.033-1.26.216.216,0,0,0-.074-.153,5.275,5.275,0,0,1-.735-2.806,6.823,6.823,0,0,1,.809-2.664c.244-.336.487-.674.741-1.034h1.332a2.144,2.144,0,0,0-.241.481,7.553,7.553,0,0,0,1.715,7.8ZM3850,8614.39a4.773,4.773,0,0,1-1.025-1.025,6.149,6.149,0,0,0-.444-.663,7.624,7.624,0,0,1,.882-3.7,1.242,1.242,0,0,1,.306-.441,1.352,1.352,0,0,1,.435-.074,3.167,3.167,0,0,0,.735-.072,10.815,10.815,0,0,0,1.339-.226.314.314,0,0,0,.225-.072,1.025,1.025,0,0,1-.225.37,14.284,14.284,0,0,0-1.1,2.518c-.814-.047-1.377-.072-1.629-.072a8.491,8.491,0,0,0,.442,3.317.205.205,0,0,0,.066.136Zm13.329-12.993h-.022a.339.339,0,0,0-.012-.034l-.005-.014a.017.017,0,0,0,0-.009.023.023,0,0,0,0-.008c-.12-.316-.231-.626-.329-.9l0-.012c-.2-.611-.359-1.2-.479-1.738l-.19-1.424.146-3.624c.05-.251.1-.476.145-.669a3.009,3.009,0,0,1,.074-.582l.66-3.332c.454.405.863.748,1.216,1.019a6.065,6.065,0,0,0,.932.61,11.948,11.948,0,0,0-.367,2.1,6.148,6.148,0,0,0,.074,1.669,10.118,10.118,0,0,1,.776-1.438c.208-.328.444-.663.7-1,.244-.3.866-1,1.8-2.029a.464.464,0,0,0,.039-.044l.028.047.01.017c.312.5.8,1.2,1.447,2.082a1.139,1.139,0,0,1-.3.444c-.132.2-.38.6-.781,1.271-.449.745-1.064,1.781-1.881,3.168a26.929,26.929,0,0,1-1.4,2.656c-.134.175-.254.326-.367.464a5.93,5.93,0,0,1-.709.741,1.976,1.976,0,0,1-.284.205,3.147,3.147,0,0,1-.91.363Zm-52.86-10.721c-.129-.294-.257-.594-.38-.883l-.016-.038-.046-.107a26.3,26.3,0,0,0-6.721-7.908c-.351-.351-1.373-1.17-3.036-2.436-.786-.69-1.185-1.114-1.185-1.258,0-1.341.6-2.021,1.778-2.021.114,0,.238.007.369.02-.2.452-.421.9-.663,1.329a20.529,20.529,0,0,1,2.065,1.041c1.415.728,2.909,1.6,4.44,2.583a31.717,31.717,0,0,1,4.5,3.259,4.3,4.3,0,0,0,.595-2.073c.052-.959.1-1.613.146-2a2.539,2.539,0,0,1,.072-.591,2.661,2.661,0,0,1,.225-.741,1.211,1.211,0,0,0,.074-.291l.072-.074c1.274.4,2,1.641,2.146,3.7v.146a1.467,1.467,0,0,0,.072.444c0,.641-.024,1.461-.072,2.436a15.674,15.674,0,0,0,0,2.221c.093.616.215,1.263.363,1.92a6.264,6.264,0,0,0-1.621-1.251,12.479,12.479,0,0,0-.291-3.333,4.342,4.342,0,0,0-1.638.813,3.575,3.575,0,0,0-1.026,1.551,1.926,1.926,0,0,0-.072,1.557c.048.1.1.2.144.291a3.712,3.712,0,0,0-.3,1.63v.067Zm52.838-1.625v-.072a.207.207,0,0,0,.072-.146v-.072a.207.207,0,0,0,.074-.153.7.7,0,0,0,.087-.362c.1.146.019.409-.232.8Zm3.108-2.661,0,0a5.632,5.632,0,0,0-2.262-1.753l-.028-.013a.4.4,0,0,0,.044-.065.068.068,0,0,0,.007-.022.8.8,0,0,0,.022-.205,3.562,3.562,0,0,1-.51.219h-.144v.074a.586.586,0,0,0-.234.072,7.835,7.835,0,0,1-2.36.4c-.078,0-.146,0-.207,0-.1-.006-.244-.014-.385-.031.133-.177.259-.352.385-.538.5-.719,1.039-1.606,1.614-2.64.242-.443.553-1,.953-1.7h0a1.338,1.338,0,0,1,.375.072c.21.025.461.062.838.122.177.031.367.066.566.1a4.51,4.51,0,0,1,1.325.516,4.076,4.076,0,0,0,.733.444h.453c-.085.282-.18.6-.289.976-.308,1.063-.61,2.151-.9,3.236v.735Zm-39.314-10.048h0a10.855,10.855,0,0,1-2.581-1.693v-.153a11.027,11.027,0,0,1,1.172-5.761c.107-.1.184-.178.232-.226.2.049,1.088.1,2.729.145-.045.091-.09.186-.146.307a9.792,9.792,0,0,0-1.332,3.543,11.145,11.145,0,0,0-.073,3.838Z" transform="translate(1818.837 -8076)" fill="#ffefe6" stroke="rgba(0,0,0,0)" stroke-width="1"/>
      <path id="Path_98603" data-name="Path 98603" d="M828.041,707.816l-.015.029q-.145.96-.364,2.146a.7.7,0,0,1-.087.364.216.216,0,0,1-.073.153v.073a.209.209,0,0,1-.073.146v.073l-.662,3.332a3.134,3.134,0,0,0-.073.582q-.073.306-.145.669L826.4,719l.189,1.426a14.28,14.28,0,0,0,.4,1.6q.116.313.393,1.011a.228.228,0,0,1,.018.033l0,.011a.038.038,0,0,1,0,.011.086.086,0,0,1,0,.026l.015.022h.022l-.757,8.424a4,4,0,0,0-.742-.6l-1.331-.807q.08-.742.153-1.411v-.073q.041-.765.087-1.546.119-2.01.276-4.136v-.153a1.321,1.321,0,0,1,.08-.444,101.861,101.861,0,0,1,1.549-13.444q.225-1.113.444-2a1.609,1.609,0,0,0,.218-.517.562.562,0,0,1,.233-.073h.073a3.971,3.971,0,0,1,.509-.218v.218l.029.015q-.007.08-.015.146a5.317,5.317,0,0,1-.16.727v.262A.933.933,0,0,1,828.041,707.816ZM826.1,740.138a9.07,9.07,0,0,0,.32,3.47l-2.015.08q-.073-2.663-.073-2.954v-.371h.145q.2-.032.386-.058Q825.578,740.2,826.1,740.138Zm-48.327-30.292q0,.735-.073,1.477a7.214,7.214,0,0,1-1.477.218v.146a3.048,3.048,0,0,1-1.331-.96l-.146-.291a1.917,1.917,0,0,1,.073-1.557,3.552,3.552,0,0,1,1.026-1.55,4.3,4.3,0,0,1,1.637-.815A12.335,12.335,0,0,1,777.772,709.846Z" transform="translate(4854.718 -197.747)" fill="#ec691f" fill-rule="evenodd"/>
      <path id="Path_98604" data-name="Path 98604" d="M738.847,757.048q-.371.524-.742,1.033a2.957,2.957,0,0,1-1.259-.888l-.662-.662a5.241,5.241,0,0,0-.888-.96l-.444-.444-.073-.073a.064.064,0,0,0-.073-.073l.757-8.424a3.114,3.114,0,0,0,.909-.364,2.014,2.014,0,0,0,.284-.2,6.006,6.006,0,0,0,.709-.742q.175-.211.367-.466a26.551,26.551,0,0,0,1.4-2.655q1.2-2.037,1.88-3.168.578-.962.782-1.269a1.17,1.17,0,0,0,.3-.444q.534-.751,1-1.426.172-.253.335-.495a18.488,18.488,0,0,1,1.4-1.775q.146.3.444.808l.073.073a.24.24,0,0,0,.073.16,13.75,13.75,0,0,0-1.1,1.557,20.252,20.252,0,0,0-1.579,3.274q-.381.994-.717,2.11-.756,2.274-1.31,4.616-.254,1.082-.466,2.179-.147.658-.276,1.317-.13.676-.24,1.353v.146a1.46,1.46,0,0,0-.146.662C739.541,751.948,739.138,755.03,738.847,757.048Zm-4.416,9.974a9.067,9.067,0,0,1-.32-3.47.878.878,0,0,1,.378-.073,8.148,8.148,0,0,1,.953-.073h.742a5.991,5.991,0,0,0,.968.073,5.437,5.437,0,0,1,.88.073.216.216,0,0,1,.073.153q-.371,3.317-.662,6.867a10.523,10.523,0,0,0-1.95-2.561A10.489,10.489,0,0,1,734.431,767.021Zm-43.838-18.173a109.86,109.86,0,0,1,.735,14.331,7.253,7.253,0,0,1-.371,3.921,17.328,17.328,0,0,1-.96,2.066.234.234,0,0,1-.073.153,4.325,4.325,0,0,1-.371.582v.007c0,.044-.049.095-.145.153a1.891,1.891,0,0,1-.291.509,2.43,2.43,0,0,1-1.244-1.8,4.068,4.068,0,0,1-.087-.633q.073-2.219.073-3.1a6.516,6.516,0,0,1,.073-1.04q.146-6.206.073-9.385a41.728,41.728,0,0,0-1.259-10.345,27.451,27.451,0,0,0-1.324-4.583,25.6,25.6,0,0,1-1.186-4.583v-.146a7.212,7.212,0,0,0,1.477-.218,30.031,30.031,0,0,1,2.583,5.027,42.026,42.026,0,0,1,2.219,8.562A1.566,1.566,0,0,1,690.593,748.849Zm-48.225,27.928Z" transform="translate(4946.706 -221.16)" fill="#ff975d" fill-rule="evenodd"/>
      <path id="Path_98614" data-name="Path 98614" d="M1377.872,270.743a10.65,10.65,0,0,1,3.841-2.415,6.634,6.634,0,0,1,3.623-.356,5.553,5.553,0,0,1,.538.145.063.063,0,0,1,.044.022,4.893,4.893,0,0,1,1.317.669,5.789,5.789,0,0,1,2.292,5.063Zm-3.386,5.067.149.04a2.216,2.216,0,0,1,1.695,2.408v135.6q-.182,13.764-9.014,21.475l-14.106,8.8a7.314,7.314,0,0,1-1.863,1.157l-1.157.727q-2.335,1.921-4.394,1.368l-15.43-4.143v-.105q.031-.959-.022-1.906l15.91,4.27q2.066.553,4.394-1.368l14.106-8.8q8.839-7.711,9.014-21.475v-134.4A10.786,10.786,0,0,1,1374.486,275.81Zm-93.012,152.3,20.6,5.529q-.241.671-.509,1.339a3.191,3.191,0,0,0,.109.349q.042.117.1.233l-20.861-5.594q-1.913-.516-.051-1.469Zm37.706,10.119c0,.027-.007.054-.011.08a27.36,27.36,0,0,0-4.456-1.135c0-.048-.007-.1-.011-.145Z" transform="translate(4375.14 176.777)" fill="#ff975d" fill-rule="evenodd"/>
      <path id="Path_98615" data-name="Path 98615" d="M1057.032,517.117a7.436,7.436,0,0,1,.753,1.091.064.064,0,0,1,.073.073,4.712,4.712,0,0,1,.291.509,8.68,8.68,0,0,1-1.782,1.615l-.244.164a18.214,18.214,0,0,1-11.5,2.957,3.475,3.475,0,0,0-.968-.669q-.509-.146-2.059-.735a8.592,8.592,0,0,1-1.782-.742,2.589,2.589,0,0,1-.291-2.663,4.9,4.9,0,0,1,.524-1.033,4.565,4.565,0,0,1,1.244-1.113,16.037,16.037,0,0,1,7.988-2.364,9.817,9.817,0,0,1,7.609,2.743Q1056.963,517.032,1057.032,517.117Zm-2.652,52.081q-.373-2.82-.513-5.38-.084-1.537-.084-2.979v-.888a21.129,21.129,0,0,1,.742-5.689q.1-.444.331-1.139.267-.811.709-1.961.26-.741.495-1.415.625-1.821,1.055-3.168a34.3,34.3,0,0,1,2.408-3.172,11.333,11.333,0,0,1,3.317-2.808,4.82,4.82,0,0,1,.553-.226,1.212,1.212,0,0,1,.371-.073.2.2,0,0,1,.146-.08q.338.474.611.829.148.2.276.356a5.468,5.468,0,0,1,.815,1.259,3.132,3.132,0,0,0-2.7-.72,4.142,4.142,0,0,0-2.684,1.651q-.056.075-.109.153a19.881,19.881,0,0,0-2.844,6.322,21.533,21.533,0,0,0-.509,2.815q-.042.364-.076.727a33.948,33.948,0,0,0,.105,7.293q.1.8.233,1.6.193,1.131.371,2.259.371,2.369.677,4.725Zm7.908,21.5-7.544,5.907a55.47,55.47,0,0,0,1.4-11.676v-.371q0-.96-.073-1.921,0-.727-.146-4.38a23.658,23.658,0,0,0,6.722-.051q2.888,5.172,1.855,8.344a4.345,4.345,0,0,1-.225.669A13.513,13.513,0,0,1,1062.288,590.7ZM1027.362,655.7a.256.256,0,0,0-.189-.065,9.994,9.994,0,0,1-1.237-.327l-.982-.327q-.131-.058-.255-.124v-.458l-.065-.655v-.393a.457.457,0,0,0,.065-.189,3.64,3.64,0,0,1,2.277-1.622q.451-.138,1.433-.458a6.005,6.005,0,0,0,1.295-.589,36.6,36.6,0,0,0,4.187-3.368q.675-.623,1.349-1.3.324.227.655.44.408.269.822.531l10.614-.364v.225c0,.019,0,.037,0,.055a2.293,2.293,0,0,1-.92,2.15,5.994,5.994,0,0,1-1.3.851q-.386.131-.844.327l-.9.327a4.169,4.169,0,0,1-.655.189,37.138,37.138,0,0,0-3.9,1.3,6.653,6.653,0,0,0-2.081,1.237q-.648.524-1.884,1.622a6.864,6.864,0,0,1-1.95,1.3,3.909,3.909,0,0,1-2.35.2l-1.753-.262a.267.267,0,0,1-.2-.065,1.282,1.282,0,0,1-.393-.065h-.131q-.255-.065-.516-.124ZM1002,648.748a3.96,3.96,0,0,1,.822,2.633,2.465,2.465,0,0,1-.953,2.139,1.033,1.033,0,0,1-.553.276h-.618a10.653,10.653,0,0,1-3.506-.618,21.8,21.8,0,0,1-3.441-1.586.9.9,0,0,0-.349-.211q-3.288-1.848-3.71-2.051a15.064,15.064,0,0,0-3.848-1.448q-1.088-.235-1.91-.466-.07-.312-.135-.626-.291-1.4-.509-2.888a9.468,9.468,0,0,0,1.7,1.251,10.33,10.33,0,0,0,4.881.669,12.515,12.515,0,0,0,1.324-.218,14.343,14.343,0,0,0,3.034-.815,1.609,1.609,0,0,1,.516-.218c0-.026-.01-.053-.015-.08a27.289,27.289,0,0,0,7.071,4.008Q1001.906,648.623,1002,648.748Zm-32.7-62.091q.3.1.611.2h.073q6.293,1.921,12.636,3.506-.146.757-.4,1.906-.247,1.178-.407,2.015-.895.044-1.819.044a36.973,36.973,0,0,1-5.834-.524q-1.215-.2-4.241-.786-.931-.189-2.037-.407l-.029-.1a.184.184,0,0,0-.182-.109,9.564,9.564,0,0,1,.684-3.186q.72-2.059.844-1.942l.029-.175c.01-.063.022-.129.036-.2l.015-.116A1.25,1.25,0,0,0,969.3,586.657Zm14.281-4.016a101.454,101.454,0,0,1-10.352-5.172,89.813,89.813,0,0,1,1.557-11.894A26.055,26.055,0,0,0,972.35,548.2a6.786,6.786,0,0,0-5.1-3.623l.073-.145.516-.516.444-.589.887-.887a2.437,2.437,0,0,0,.371-.3,11.064,11.064,0,0,1,5.318,5.027,13.439,13.439,0,0,1,1.113,3.994,35.038,35.038,0,0,1,.146,3.616,37.069,37.069,0,0,0,2.59,14.113q.96,2.291,2.219,4.736,1.179,2.51,1.477,3.106A15.387,15.387,0,0,1,983.582,582.642Zm4.954-60.228a9.8,9.8,0,0,0-1.186-.073q-.888-.073-1.848-.146a11.583,11.583,0,0,1-4.954.88,5.631,5.631,0,0,1-1.331-.145,8.291,8.291,0,0,1-2.437-.88,21.7,21.7,0,0,1-2.066-1.4,3.539,3.539,0,0,0-.669-.524q.225-.735.451-1.331a6.659,6.659,0,0,1,.735-1.477v-.073h.073v-.073a7.293,7.293,0,0,1,.451-.669,3.29,3.29,0,0,0,.509-.662,9.853,9.853,0,0,1,7.617-2.728,16.509,16.509,0,0,1,7.682,2.284l-.065-.029a4.584,4.584,0,0,1,2.139,2.248,2.711,2.711,0,0,1-.073,2.219,1.593,1.593,0,0,1-.233.437,5.9,5.9,0,0,1-1.768.742q-1.55.589-2,.822A3.469,3.469,0,0,0,988.536,522.413Zm58.613,141.117v-.116a3.566,3.566,0,0,1,.407-.924q.8-1.79,1.382-2.881a23.653,23.653,0,0,1,2.19-3.63l.516-.775a6.235,6.235,0,0,0,1.331,1.189,18.191,18.191,0,0,0,7.388-.422,13.412,13.412,0,0,1-.986,1.68,26.445,26.445,0,0,0-1.731,2.881q-.516,1.033-1.5,3.055a.211.211,0,0,0-.058.167,4.078,4.078,0,0,1-2.6,2.139q-.233.051-.458.109-.349.058-.866.116l-.524.116h-.109a3.159,3.159,0,0,0-.633.058h-.815q-.633.058-1.266.058a1.365,1.365,0,0,1-1.44-1.04,3.859,3.859,0,0,1-.233-1.44Zm-62.105-8.341q.792,1.213,1.913,2.717a29.726,29.726,0,0,1,3.448,5.158,3.142,3.142,0,0,1,.378,1.688,2.108,2.108,0,0,1-.182.567,1.013,1.013,0,0,1-.822.691,8.137,8.137,0,0,1-1.382.378,7.831,7.831,0,0,1-1.382.124h-.626l-.691-.124a1.278,1.278,0,0,0-.378-.058H985.2a.538.538,0,0,0-.255-.065,7.924,7.924,0,0,1-4.147-2.386q-.124-.189-.378-.567-.691-1.011-2.073-3.077a17.305,17.305,0,0,0-2.757-3.521,8.422,8.422,0,0,1-.567-.88l-.189-.938-.131-.313V654.2a.057.057,0,0,0,.058-.029q.262.346.546.669a5.1,5.1,0,0,0,3.987,1.993,4.317,4.317,0,0,1,.815-.073l1.4-.3h.226a8,8,0,0,0,1.7-.371.557.557,0,0,1,.218-.073A4.954,4.954,0,0,0,985.044,655.19Z" transform="translate(4642.332 -32.786)" fill-rule="evenodd"/>
      <path id="Path_98616" data-name="Path 98616" d="M1097.238,561.916a14.446,14.446,0,0,1-1.651,3.252q-.142.211-.291.418l-.146.291a11.57,11.57,0,0,1-.815,1.186,2.7,2.7,0,0,1-.517.509,1.335,1.335,0,0,1-1.63.3,3.68,3.68,0,0,1-.444-.371,1.11,1.11,0,0,1-.218-1.477,1.134,1.134,0,0,1,.218-.291l.589-.888a1.272,1.272,0,0,0,.109-.516,1.066,1.066,0,0,0-.109-.451,1.537,1.537,0,0,0-1.622-.807,5.886,5.886,0,0,0-1.211.469q-.36.176-.789.411a3.316,3.316,0,0,1-1.622.524q-.589-.073-.371-1.63-.16-.064-.313-.135a5.005,5.005,0,0,1-1.462-.971,1.013,1.013,0,0,1-.146-.226,2.686,2.686,0,0,1-.589-1.4,1.866,1.866,0,0,1,0-.735v-.146l-.742-2.146a.841.841,0,0,0-.218-.146,18.214,18.214,0,0,0,11.5-2.957l.244-.164a8.678,8.678,0,0,0,1.782-1.615,12.777,12.777,0,0,1,.96,2.372q.017.107.033.215.136.869.266,1.851V557.9A14.233,14.233,0,0,1,1097.238,561.916ZM1086.133,680q.007.074.011.146a9.983,9.983,0,0,1,0,1.339,10.4,10.4,0,0,1-.968,3.972,6.29,6.29,0,0,1-3.71,1.688.86.86,0,0,1-.778-.124,4.515,4.515,0,0,1-.647-.589q-.786-.779-1.368-.327a17.254,17.254,0,0,0-3.514,2.277,21.759,21.759,0,0,1-3.383,2.343,19.477,19.477,0,0,1-4.743-.2,20.433,20.433,0,0,1-4.554-1.3,6.067,6.067,0,0,1,.451-1.36,2.589,2.589,0,0,0,.327-1.026v.305l.066.655v.458q.124.065.255.124l.982.327a6.8,6.8,0,0,0,1.426.393h.2q.262.058.516.124h.131a1.282,1.282,0,0,0,.393.065.267.267,0,0,0,.2.065l1.753.262a3.908,3.908,0,0,0,2.35-.2,6.863,6.863,0,0,0,1.95-1.3q1.237-1.1,1.884-1.622a6.652,6.652,0,0,1,2.081-1.237,37.112,37.112,0,0,1,3.9-1.3,4.183,4.183,0,0,0,.655-.189l.9-.327q.458-.2.844-.327a6,6,0,0,0,1.3-.851,2.292,2.292,0,0,0,.92-2.15q0-.027,0-.055v-.226l-10.614.364q-.415-.262-.822-.531-.331-.214-.655-.44l-.276-.2a1.3,1.3,0,0,1-.349-.407c-.014-.029-.028-.058-.04-.087q-.056-.116-.1-.233a3.216,3.216,0,0,1-.109-.349q.269-.668.509-1.339a36.019,36.019,0,0,0,1.39-19.5q-.6-3.042-1.135-6.089-2.551-14.39-3.877-28.917a15.386,15.386,0,0,0,5.4,6.7,1.806,1.806,0,0,0,.284.167l.073-10.49,4.365,3.55-.589,8.352,1.622.371a107.353,107.353,0,0,0,5.012,18.58q.626,1.71,1.193,3.441a24.7,24.7,0,0,1-.291,8.693,30.942,30.942,0,0,0,.626,15.517,2.234,2.234,0,0,1-1.142,2.83l-.306.011C1086.126,679.89,1086.129,679.947,1086.133,680Zm-52.782-2.1c0,.027.01.054.015.08a1.609,1.609,0,0,0-.516.218,14.343,14.343,0,0,1-3.034.815,12.536,12.536,0,0,1-1.324.218,10.33,10.33,0,0,1-4.881-.669,9.471,9.471,0,0,1-1.7-1.251q-.076-.7-.131-1.4a44.558,44.558,0,0,1,2.059-17.351q3.215-9.9,5.733-19.984a82.407,82.407,0,0,0,2.088-12.025,1.264,1.264,0,0,1,.451.291l.073.08a19.833,19.833,0,0,1,2.059,1.251,10.337,10.337,0,0,0,.895.662l-1.63,4.438,5.4.218a35.611,35.611,0,0,1-2.146,8.206,105.525,105.525,0,0,0-2.437,10.934,75.925,75.925,0,0,0-1.04,11.16q0,2.444-.364,7.166-.073,2.437.073,4.51Q1033.135,676.752,1033.351,677.9ZM1016.364,566.24q-.291-.291-.589-.655-.3-.451-.662-1.113a13.644,13.644,0,0,1-2.663-7.682v-1.782a.21.21,0,0,0,.073-.146V554.5q.073-.444.146-.895v-.073a3.541,3.541,0,0,1,.669.524,21.685,21.685,0,0,0,2.066,1.4,8.291,8.291,0,0,0,2.437.88,5.629,5.629,0,0,0,1.331.146,11.583,11.583,0,0,0,4.954-.88q.96.073,1.848.146a9.8,9.8,0,0,1,1.186.073,2.224,2.224,0,0,0-.815,1.113.209.209,0,0,0-.073.146v.146h-.073v1.113a2.3,2.3,0,0,1,0,.815,2.732,2.732,0,0,1-.6,1.331,5.623,5.623,0,0,1-1.7,1.251.558.558,0,0,0-.218.073q.218,1.477-.364,1.63a3.525,3.525,0,0,1-1.637-.6,8.435,8.435,0,0,0-1.986-.88,1.393,1.393,0,0,0-1.549.808.83.83,0,0,0,0,.96,5.322,5.322,0,0,0,.509.888.209.209,0,0,1,.073.145l.153.153a1.261,1.261,0,0,1,0,1.179,1.178,1.178,0,0,1-.225.3,1.319,1.319,0,0,1-2.066.073A.464.464,0,0,1,1016.364,566.24Zm83.61,122.894a5.493,5.493,0,0,1-.131,1.055,10.79,10.79,0,0,1-1.1,2.888,5.646,5.646,0,0,0-2.539,2.823q-.284.575-.858,1.782a7.273,7.273,0,0,1-1.157,1.622,10.445,10.445,0,0,1-3.681,1.433,15.736,15.736,0,0,1-4.037.065,1.579,1.579,0,0,1-.982-1.731,8.393,8.393,0,0,1,.116-1.215,7.191,7.191,0,0,1,.167-.917v.342a3.861,3.861,0,0,0,.233,1.44,1.365,1.365,0,0,0,1.44,1.04q.633,0,1.266-.058h.815a3.154,3.154,0,0,1,.633-.058h.109l.524-.116q.517-.058.866-.116.226-.058.458-.109a4.078,4.078,0,0,0,2.6-2.139.211.211,0,0,1,.058-.167q.982-2.023,1.5-3.055a26.424,26.424,0,0,1,1.731-2.881,13.392,13.392,0,0,0,.986-1.68Q1099.473,689.268,1099.973,689.134Zm-67.2-70.719h-.146q-.436,0-.887-1.4a6.9,6.9,0,0,1-.444-1.477q-.24-.727-.48-1.731h.058a2.43,2.43,0,0,0,1.244,1.8,1.886,1.886,0,0,0,.291-.509.2.2,0,0,0,.124-.029.047.047,0,0,1,.022.029v2.5a.216.216,0,0,0,.073.153,2.475,2.475,0,0,1,.073.589A.064.064,0,0,1,1032.769,618.416Zm-10.21,62.411q.821.231,1.91.466a15.066,15.066,0,0,1,3.848,1.448q.422.2,3.71,2.052a.9.9,0,0,1,.349.211,21.8,21.8,0,0,0,3.441,1.586,10.65,10.65,0,0,0,3.506.618h.618a1.034,1.034,0,0,0,.553-.276.609.609,0,0,1,.066.276q.058.473-.691.888a5.14,5.14,0,0,1-2.888.065,15.213,15.213,0,0,1-2.954-.611,14.038,14.038,0,0,1-2.066-1.033q-4.816-2.546-6.591-2.546a1.233,1.233,0,0,0,0,.618q-.146.342-1.106.342-.247,0-.491,0A32.3,32.3,0,0,1,1022.558,680.826Zm6.667,17.9v.065q0,.058.058.437a1.109,1.109,0,0,1-.124.756q-.5.946-2.641.946a11.228,11.228,0,0,1-5.907-1.448,10.832,10.832,0,0,1-4.459-6.089,4,4,0,0,1-1.128.247,1.461,1.461,0,0,1-1.637-1.193,13.228,13.228,0,0,1-.189-3.077,1.906,1.906,0,0,1,.255-1.069l.189.938a8.417,8.417,0,0,0,.567.88,17.3,17.3,0,0,1,2.757,3.521q1.382,2.066,2.073,3.077.255.378.378.568a7.924,7.924,0,0,0,4.147,2.386.538.538,0,0,1,.255.065h.124a1.278,1.278,0,0,1,.378.058l.691.124h.626a7.83,7.83,0,0,0,1.382-.124,8.146,8.146,0,0,0,1.382-.378A1.013,1.013,0,0,0,1029.226,698.73Z" transform="translate(4603.708 -66.196)" fill-rule="evenodd"/>
      <path id="Path_98617" data-name="Path 98617" d="M1174.02,388.434a4.739,4.739,0,0,0-.291-.509.064.064,0,0,0-.073-.073,7.427,7.427,0,0,0-.753-1.091l43.951,11.778v3.7l-41.841-11.214q-.016-.108-.033-.215A12.762,12.762,0,0,0,1174.02,388.434Zm-1.186,12.967a14.452,14.452,0,0,0,1.651-3.252l42.376,11.352v3.7Zm8.65,10.909a5.473,5.473,0,0,0-.815-1.259q-.129-.16-.276-.357l36.469,9.77v3.7l-34-9.108q-.014-.112-.029-.226A3.917,3.917,0,0,0,1181.484,412.31Zm1.8,13.819.011-1.044q.052-1.32.047-2.637l33.519,8.981v3.7Zm-.251,10.894q.134-1.815.2-3.637l33.624,9.006v3.7ZM1156.9,375.209v-3.7l59.959,16.063v3.7Zm0-10.963v-3.7l59.959,16.063v3.7Zm30.009,96.3v-3.7l29.965,8.031v3.7Zm-78.372-39.51a30.022,30.022,0,0,0-2.583-5.027q.073-.742.073-1.477a6.326,6.326,0,0,1,1.622,1.251q.226,1.259.451,2.59Q1108.393,419.92,1108.539,421.033Zm-5.689-3.921v-.073a3.687,3.687,0,0,1,.3-1.63,3.048,3.048,0,0,0,1.331.96,25.592,25.592,0,0,0,1.186,4.583,27.441,27.441,0,0,1,1.324,4.583,41.725,41.725,0,0,1,1.259,10.345q.073,3.179-.073,9.385-.378-2.066-.669-4.438h-.073q-.073-.807-.146-1.622-1.113-8.5-1.622-11.523-.6-3.55-1.186-5.769A28.982,28.982,0,0,0,1102.85,417.112Z" transform="translate(4526.461 97.569)" fill="#fff" fill-rule="evenodd"/>
      <path id="Path_98618" data-name="Path 98618" d="M1124.084,581.232a4.73,4.73,0,0,1-2.51,1.7h-.08a2.1,2.1,0,0,1-.516.982l-.109.109-.335.24-1.106.378h-.073a1.438,1.438,0,0,1-.444.073,7.725,7.725,0,0,1-1.186.073q-.22-.024-.422-.04-.415-.033-.757-.033h-.6q-.517,0-2.139-.145a5.921,5.921,0,0,1-1.6-.284,3,3,0,0,1-.4-.167,2.185,2.185,0,0,1-.291-.218.814.814,0,0,1-.291-.3,3.9,3.9,0,0,1-.524-.815q-.073-.145-.444-1.331a3.4,3.4,0,0,0-1.477-2.059.226.226,0,0,0-.153-.08,1.405,1.405,0,0,1,.3-1.033v-.073q.153-.225.815-1.033a2.086,2.086,0,0,0,.589-2.219,7.235,7.235,0,0,1,.153-3.55q.671.451,1.724,1.12.68.43,1.52.953,1.848,1.179,3.034,1.841a2.685,2.685,0,0,0,.589,1.4,1,1,0,0,0,.145.225,5,5,0,0,0,1.462.971q.152.07.313.135-.218,1.557.371,1.63a3.316,3.316,0,0,0,1.622-.524q.429-.236.789-.411a5.888,5.888,0,0,1,1.211-.469,1.537,1.537,0,0,1,1.622.807,1.069,1.069,0,0,1,.109.451,1.27,1.27,0,0,1-.109.517l-.589.888A1.143,1.143,0,0,0,1124.084,581.232ZM1107.9,624.023a16.829,16.829,0,0,1-2.881.371,5.467,5.467,0,0,1-.887.073,7.829,7.829,0,0,1-3.4-.815l-.073-.08a1.833,1.833,0,0,0-.437-.218,7.392,7.392,0,0,1-.6-.662q.218-.517.3-.742a2.935,2.935,0,0,1-2.219-2.146.21.21,0,0,1-.073-.146,8.462,8.462,0,0,1-.444-3.317q.371,0,1.629.073t3.463.218h1.186q1.186.516,2.437,1.113a5.971,5.971,0,0,0,1.855.655.576.576,0,0,0,.364-.073v-.582a1.735,1.735,0,0,0-.218-.895q0-.073-.146-.218a5.353,5.353,0,0,0-1.331-1.4q-.3-.145-1.477-.6a3.2,3.2,0,0,1-1.186-.662l-.08-.073a1.233,1.233,0,0,1-.073-1.106,5.877,5.877,0,0,1,1.855.146,8.158,8.158,0,0,1,2.146.589,1.586,1.586,0,0,1,.582.3l1.331.807a4,4,0,0,1,.742.6.064.064,0,0,1,.073.073l.073.073.444.444a5.242,5.242,0,0,1,.888.96l.662.662a2.957,2.957,0,0,0,1.259.888,6.757,6.757,0,0,0-.807,2.663,5.253,5.253,0,0,0,.735,2.808,5.434,5.434,0,0,0-.88-.073,6,6,0,0,1-.968-.073H1111a8.143,8.143,0,0,0-.953.073.878.878,0,0,0-.378.073q-.519.058-1.237.167-.186.027-.386.058Zm-40.79-46.559a3.407,3.407,0,0,1-.6.444.436.436,0,0,0-.073.3,6.88,6.88,0,0,0-.291,1.848,6.694,6.694,0,0,1-.306,1.55q-.073.291-.146.517a.821.821,0,0,0-.146.225,3.092,3.092,0,0,1-2.139,1.106h-.6q-1.549.146-2.292.218a4.891,4.891,0,0,1-.516.153h-1.033l-1.331-.3a5.233,5.233,0,0,1-1.259-.444,3.243,3.243,0,0,1-1.993-2.372v-.291h-.073a.452.452,0,0,1-.3.073,2.039,2.039,0,0,1-1.55,0q-.524-.218-1.033-.436a.273.273,0,0,1-.225-.226,5.32,5.32,0,0,1-.509-.888.83.83,0,0,1,0-.96,1.393,1.393,0,0,1,1.55-.807,8.436,8.436,0,0,1,1.986.88,3.526,3.526,0,0,0,1.637.6q.582-.153.364-1.63a.559.559,0,0,1,.218-.073,5.619,5.619,0,0,0,1.7-1.251,2.73,2.73,0,0,0,.6-1.331q.96-.6,2.292-1.484a8.127,8.127,0,0,1,1.033-.735q1.993-1.331,3.172-2.146a8.523,8.523,0,0,1,.073,2,1.415,1.415,0,0,0-.218.735,1.467,1.467,0,0,0,.218.96,9.872,9.872,0,0,0,1.186,1.549,3.127,3.127,0,0,1,.887,1.4A.9.9,0,0,1,1067.107,577.464Zm55.5,3.172a4.265,4.265,0,0,1-.742.968,7.077,7.077,0,0,0,1.186-.589,4.81,4.81,0,0,0,1.106-.888q0-.073-.218-.226-.146-.146-.146-.218A2.607,2.607,0,0,0,1122.607,580.636ZM1101.023,618.4a16.91,16.91,0,0,0-2.284-.291,15.391,15.391,0,0,0,2.212.517,23.541,23.541,0,0,0,2.364.371v-.3A11.6,11.6,0,0,1,1101.023,618.4Zm0,4.067a7.663,7.663,0,0,0,2.961.371q-.6-.146-1.477-.3Q1101.466,622.466,1101.023,622.466Zm-1.993-2.437a4.84,4.84,0,0,0,1.033.371,8.411,8.411,0,0,0,.96.145A11.623,11.623,0,0,0,1099.029,620.029Zm-47.374-42.048,1.549,1.557.451-.225a3.181,3.181,0,0,0-.6-.815,2.409,2.409,0,0,0-1.186-.662Zm16.041,66.063a10.344,10.344,0,0,1-.895-.662,19.867,19.867,0,0,0-2.059-1.251l-.073-.08a1.265,1.265,0,0,0-.451-.291q-.218-.08-.371-.153a.3.3,0,0,0-.218-.073q.175-.306.378-.647.138-.225.284-.466a.21.21,0,0,0,.073-.146,9.707,9.707,0,0,0,1.4-5.172v-.444q.451-.218.96-.436a.606.606,0,0,1,.225-.073,5.955,5.955,0,0,1,2.808-.742,6.58,6.58,0,0,1,1.63.364l-.895,2.292h.135a.23.23,0,0,0-.135.073q.968.669,2.954,2.073a1.629,1.629,0,0,1,.6.371q.742.218,1.331.364a2.825,2.825,0,0,0,1.113.073,1.984,1.984,0,0,0,.437-.073q.96-.218.96.815a1.506,1.506,0,0,1-.742,1.4q-.807.669-1.477,1.186a20.25,20.25,0,0,1-2.655,1.7.556.556,0,0,0-.218.073,5.409,5.409,0,0,1-1.775.524,5.814,5.814,0,0,1-3.034-.378l-.291-.291Z" transform="translate(4571.151 -81.406)" fill="#ffaa83" fill-rule="evenodd"/>
      <path id="Path_98619" data-name="Path 98619" d="M1102.347,563.046a.844.844,0,0,1,.218.146l.742,2.146v.146a1.87,1.87,0,0,0,0,.735q-1.186-.662-3.034-1.841-.84-.523-1.521-.953-1.052-.67-1.724-1.12a4.932,4.932,0,0,1,.509-1.4,8.588,8.588,0,0,0,1.782.742q1.549.589,2.059.735A3.469,3.469,0,0,1,1102.347,563.046Zm3.4,18.173a.2.2,0,0,1-.146.08,10.575,10.575,0,0,1-2.815,4.874.064.064,0,0,0-.073.073l-.04.044q-1.442,1.585-1.8,2.03-.388.505-.7,1a10.184,10.184,0,0,0-.775,1.44,6.12,6.12,0,0,1-.076-1.67,12.05,12.05,0,0,1,.367-2.1v-.073q.073-.225.146-.524v-.073q.133-.393.236-.724a9.145,9.145,0,0,0,.36-1.422,5.162,5.162,0,0,0,.218-1.477v-.735q.447-1.684.9-3.237.144-.495.287-.975.371-1.113.662-2.139h.364q0,1.331.087,2.212a11.755,11.755,0,0,0,2.728.3,5.592,5.592,0,0,0,3.456-1.062,6.408,6.408,0,0,0,1.942-2.561,1.612,1.612,0,0,0,.218-.517,1.335,1.335,0,0,0,1.63-.3,2.7,2.7,0,0,0,.516-.509,2.432,2.432,0,0,1-.6,1.622q-1.649,1.645-2.572,2.568-.607.608-.9.9-1.174,1.085-2.266,1.946Q1106.406,580.76,1105.744,581.218Zm-53.95-20.319q-1.179.815-3.172,2.146a8.119,8.119,0,0,0-1.033.735q-1.331.888-2.292,1.484a2.3,2.3,0,0,0,0-.815v-1.113h.073v-.145a.21.21,0,0,1,.073-.146,2.224,2.224,0,0,1,.815-1.113,3.472,3.472,0,0,1,1.026-.582q.451-.233,2-.822a5.906,5.906,0,0,0,1.768-.742,1.6,1.6,0,0,0,.233-.437A5.864,5.864,0,0,1,1051.794,560.9Zm38.426,43.9.08.073a3.2,3.2,0,0,0,1.186.662q1.179.451,1.477.6a5.355,5.355,0,0,1,1.331,1.4q.146.146.146.218a1.736,1.736,0,0,1,.218.895v.582a.575.575,0,0,1-.364.073,5.971,5.971,0,0,1-1.855-.655q-1.251-.6-2.437-1.113h-1.186q-2.212-.146-3.463-.218a14.239,14.239,0,0,1,1.106-2.517,1.057,1.057,0,0,0,.226-.371,8.061,8.061,0,0,0,1.324-.3A23.031,23.031,0,0,1,1090.22,604.8Zm-4.649,6.133a11.623,11.623,0,0,1,1.993.517,8.419,8.419,0,0,1-.96-.145A4.834,4.834,0,0,1,1085.571,610.928Zm1.993,2.437q.444,0,1.484.073.88.153,1.477.3A7.665,7.665,0,0,1,1087.564,613.366Zm0-4.067a11.606,11.606,0,0,0,2.292.3v.3a23.529,23.529,0,0,1-2.364-.371,15.388,15.388,0,0,1-2.212-.517A16.91,16.91,0,0,1,1087.564,609.3ZM1038.2,568.88l.218-.146a2.409,2.409,0,0,1,1.186.662,3.185,3.185,0,0,1,.6.815l-.451.226Zm8.65,6.278a2.622,2.622,0,0,0-.226.742,2.489,2.489,0,0,0-.073.589q-.073.6-.146,2a4.265,4.265,0,0,1-.6,2.073,31.428,31.428,0,0,0-4.5-3.259q-2.292-1.477-4.438-2.583a20.384,20.384,0,0,0-2.066-1.04,14.763,14.763,0,0,0,.662-1.331.464.464,0,0,0,.226.226,1.319,1.319,0,0,0,2.066-.073,1.18,1.18,0,0,0,.225-.3,4.261,4.261,0,0,0,1.768,1.775,10.122,10.122,0,0,0,4.954,1.251h1.411A3.814,3.814,0,0,0,1046.847,575.158Z" transform="translate(4584.61 -72.306)" fill="#ed9870" fill-rule="evenodd"/>
      <path id="Path_98620" data-name="Path 98620" d="M974.522,604.735a11.112,11.112,0,0,1,.073-3.841,9.748,9.748,0,0,1,1.331-3.543l.146-.306q.073-.073.153-.146,3.768.669,7.537,1.477a3.6,3.6,0,0,1,.815.233q1.841.363,3.7.88a45.519,45.519,0,0,0,12.927,1.251,35.457,35.457,0,0,1,5.1.226q.839.059,1.862.215l.5.084a1.405,1.405,0,0,0-.3,1.033.226.226,0,0,1,.153.08,1.309,1.309,0,0,1-.226.291l-1.477,2.663a.064.064,0,0,1-.073.073,2.811,2.811,0,0,0-.218.589,4.872,4.872,0,0,0-.226.662.308.308,0,0,1-.073.226,40.125,40.125,0,0,0-1.331,5.027q-.3,1.55-.589,3.47-.08.589-.153,1.186a2.229,2.229,0,0,1-.073.517,8.666,8.666,0,0,0-5.914-6.729,30.006,30.006,0,0,0-9.377-1.775,28.03,28.03,0,0,1-9.465-2.066,30.813,30.813,0,0,0-4.729-1.55A.561.561,0,0,0,974.522,604.735Zm55.8,2.583q-.176.757-1.069,3.685-.249.812-.553,1.793-.286.89-.52,1.615-.078.233-.149.451-.895,3.034-1.113,3.034-.291,0-1.477-.153a1.5,1.5,0,0,0-.516-.08q-1.63-.218-1.7-.218l.145.146q.451.815.895,1.71a.845.845,0,0,0,.146.218q.374.818.56,1.3a2.318,2.318,0,0,1,.182.615,19.345,19.345,0,0,1-1.6,2.7q-.252.394-.546.848a13.2,13.2,0,0,1-1.04,1.55,16.179,16.179,0,0,1-2.059,2.743q-.249.246-.8.935-.836,1.032-2.364,3.059l-.382.509q-.888,1.04-1.55,1.782a1.666,1.666,0,0,1,.073-.524,1.459,1.459,0,0,1,.146-.662v-.146q.11-.677.24-1.353.129-.659.276-1.317.212-1.1.466-2.179.553-2.342,1.31-4.616.335-1.115.717-2.11a20.254,20.254,0,0,1,1.579-3.274,13.761,13.761,0,0,1,1.1-1.557.922.922,0,0,1,.218.437,7.011,7.011,0,0,0,2.437-1.841q1.263-1.387,2.524-2.619.3-.289.589-.567a27.766,27.766,0,0,0,2.164-2.393q.1-.133.2-.262a3.5,3.5,0,0,0,.364-3.921.209.209,0,0,0-.073-.145h.073A4.608,4.608,0,0,1,1030.32,607.318Zm8.006,20.773-.026,2.8q.058,1.993-.007,4.03-.007.21-.015.422-.069,1.823-.2,3.637-.237,3.134-.669,6.249l-.953,2.888q-.1.145-.218.291a3.9,3.9,0,0,1-2.67,1.4,23.658,23.658,0,0,1-6.722.051v-.051a7.806,7.806,0,0,0-.858-.065l-.247-.007-8.65-.968-.146-.218a7.524,7.524,0,0,1-1.717-7.8,2.224,2.224,0,0,1,.24-.48l.146-.218,1.4-.015a41.653,41.653,0,0,1,8.286.757l3.7.291q-.306-2.356-.677-4.725-.179-1.128-.371-2.259-.136-.8-.233-1.6a33.948,33.948,0,0,1-.105-7.293q.035-.364.076-.728a21.51,21.51,0,0,1,.509-2.815,19.878,19.878,0,0,1,2.844-6.322q.053-.078.109-.153a4.14,4.14,0,0,1,2.684-1.651,3.132,3.132,0,0,1,2.7.72,3.916,3.916,0,0,1,1.353,2.517l.029.226a60.728,60.728,0,0,1,.476,7.395q.005,1.317-.047,2.637Zm-12.669,40.124,7.544-5.907q-.073,1.477-.225,2.881a68.452,68.452,0,0,0-.742,7.609q-.145,3.768-.364,7.609-.145,4.358,0,8.65a17.409,17.409,0,0,0,.742,5.1,13.235,13.235,0,0,1,1.026,2.881,7.589,7.589,0,0,1,.815,3.1,47.712,47.712,0,0,1,0,7.537q-.291,3.7-.662,7.391a26.463,26.463,0,0,0,0,4.881,20.963,20.963,0,0,1,.276,2.452q.053.947.022,1.906v.888q-.073.364-.146.742-.073.517-.153.953-.71.223-1.393.407l-.135.036q-.5.134-.986.247a18.192,18.192,0,0,1-7.388.422,6.235,6.235,0,0,1-1.331-1.189,5.579,5.579,0,0,1-.669-1.022,2.121,2.121,0,0,1-.218-.451,32.237,32.237,0,0,0,.96-4.139q.134-.854.258-1.717.006-.039.011-.08.212-1.487.393-3a55.207,55.207,0,0,0,.524-7.609,10.41,10.41,0,0,0-.073-1.259v-.808a23.752,23.752,0,0,0-2.364-9.392q-.3-1.033-.6-2.364a20.187,20.187,0,0,0-1.259-4.358v.371q-.568-1.731-1.193-3.441a107.348,107.348,0,0,1-5.012-18.58q.444.073.96.146a22.819,22.819,0,0,0,5.987.364A15.148,15.148,0,0,0,1025.656,668.215Zm-54.976-41.452q.735-9.021-1.775-14.855a36.137,36.137,0,0,0-3.623-6.576.818.818,0,0,1,.146-.226q.073-.225.146-.517a6.683,6.683,0,0,0,.306-1.55,6.884,6.884,0,0,1,.291-1.848,5.338,5.338,0,0,1,1.4,1.921,58.845,58.845,0,0,0,3.7,6.722q2,3.106,4.212,5.987a56.8,56.8,0,0,0,5.02,5.769,39.091,39.091,0,0,0,3.332,2.954q2.954,2.364,5.769,4.947,2.43,2.219,5.012,4.212a35.827,35.827,0,0,0,4,2.663,1.143,1.143,0,0,1-.305.444,3.1,3.1,0,0,1-.735.073,1.37,1.37,0,0,0-.436.073,1.259,1.259,0,0,0-.305.444,7.593,7.593,0,0,0-.88,3.7,6.276,6.276,0,0,1,.444.662.661.661,0,0,1-.073.3q-2.808-1.4-5.624-2.888-5.834-3.026-11.6-6.2a43.789,43.789,0,0,1-8.271-6.133A.209.209,0,0,0,970.681,626.763ZM955.956,726.8a4.955,4.955,0,0,1-1.39.833.558.558,0,0,0-.218.073,8,8,0,0,1-1.7.371h-.226l-1.4.3a4.318,4.318,0,0,0-.815.073,5.1,5.1,0,0,1-3.987-1.993q-.284-.323-.546-.669-.214-.287-.415-.589a8.1,8.1,0,0,1-1.033-3.768q-.014-.1-.029-.207-.309-2.219-1.149-6.587-.895-4.59-1.259-6.882a33.2,33.2,0,0,1,.444-13.808,51.78,51.78,0,0,0,.436-15.306q-.291-3.252-1.026-7.6a61.64,61.64,0,0,1-.807-6.4q3.026.589,4.241.786a36.965,36.965,0,0,0,5.834.524q.924,0,1.819-.044a37.6,37.6,0,0,0,4.634-.487q3.383-.684,5.223-.975l.32-.153q.24.116.458.24a.3.3,0,0,1,.218.073q.153.073.371.153a82.391,82.391,0,0,1-2.088,12.025q-2.517,10.083-5.733,19.984a44.56,44.56,0,0,0-2.059,17.35q.055.7.131,1.4.218,1.484.509,2.888.065.314.135.626a32.312,32.312,0,0,0,1.215,4.1l.055.142q.3.967.662,1.928a2.919,2.919,0,0,1-.364,1.106A3.115,3.115,0,0,1,955.956,726.8Zm-1.462-72.548a89.77,89.77,0,0,0,8.8,3.4v.226a3.6,3.6,0,0,1-.073.669,1.374,1.374,0,0,1-.073.436,1.64,1.64,0,0,1-.073.517q-.153.451-.306.887a4.151,4.151,0,0,1-.364.815,1.556,1.556,0,0,1-.3.444q-.291.669-.742,1.477l-.291.364-7.537-1.506q-6.344-1.586-12.636-3.506h-.073q-.313-.1-.611-.2-7.711-2.794-6.933-11.48,1.04-10.345,1.557-20.617.073-.96.145-2.437a12.114,12.114,0,0,1,.6-3.106,6.662,6.662,0,0,1,2.437-4.51.21.21,0,0,1,.146.073,6.785,6.785,0,0,1,5.1,3.623,26.054,26.054,0,0,1,2.437,17.372,89.825,89.825,0,0,0-1.557,11.894A101.465,101.465,0,0,0,954.494,654.247ZM945.255,607.1a8.481,8.481,0,0,1,1.033-1.768l1.113-1.04a3.289,3.289,0,0,1,.662-.509q.3.364.589.655-2.146-.218-2.146,2,0,.218,1.186,1.258,2.51,1.913,3.034,2.437a26.153,26.153,0,0,1,6.722,7.908q.218.516.444,1.033a28.974,28.974,0,0,1,1.63,4.8q.589,2.219,1.186,5.769.509,3.026,1.622,11.523.073.815.146,1.622h.073q.291,2.372.669,4.438a6.515,6.515,0,0,0-.073,1.04q0,.88-.073,3.1a4.08,4.08,0,0,0,.087.633H963.1q-.051-.233-.109-.487a96.349,96.349,0,0,0-3.688-11.822q-1.637-3.841-3.477-7.537l-.146-.291a4.865,4.865,0,0,1-.378-.742l-.291-.516a.21.21,0,0,0-.073-.146q-.444-.895-.887-1.71-.08-.146-.153-.291l-.808-1.331a.064.064,0,0,0-.073-.073.986.986,0,0,0-.153-.218,47.035,47.035,0,0,0-2.735-4.365,6.3,6.3,0,0,1,.815-1.993q.895-1.7.968-1.848,0-.153-.306-.3a.851.851,0,0,0-.218-.145q-5.1.218-5.543-1.106a2.854,2.854,0,0,1,0-1.331,2.206,2.206,0,0,0,0-1.4A15.346,15.346,0,0,0,944,611.013a1.407,1.407,0,0,0-.371-.509l-.073-.073,1.331-1.477.073-.08V608.8a2.483,2.483,0,0,0,.073-.589.692.692,0,0,0,.073-.3Q945.182,607.551,945.255,607.1Zm65.706-.517a.815.815,0,0,0,.291.3,2.189,2.189,0,0,0,.291.218q-.436.742-.815,1.477-.589,1.033-.953,1.7-.877,1.572-1.615,2.641-.2.287-.386.538.19.021.386.029a7.59,7.59,0,0,0,2.568-.4,1.612,1.612,0,0,1-.218.517q-.218.888-.444,2a101.838,101.838,0,0,0-1.55,13.444,1.323,1.323,0,0,0-.08.444v.153q-.157,2.125-.276,4.136-.047.781-.087,1.546v.073a14.809,14.809,0,0,1-1.186-3.688q-.364-1.921-.662-4.51-.524-4.947-.669-9.974,0-.662,1.782-1.848.423-.276.822-.5a9.826,9.826,0,0,1,1.091-.535,12.337,12.337,0,0,0-1.091-.618q-.36-.19-.822-.422a4.454,4.454,0,0,0-.6-.364,1.931,1.931,0,0,1-.662-1.331q0-.669,1.993-2.51l.087-.087q.414-.414.946-.88Q1010.219,607.172,1010.961,606.583Zm-48.414-.146a17.146,17.146,0,0,1,4.365,7.69,2.552,2.552,0,0,1-1.033,1.106,3.276,3.276,0,0,1-1.259.589L966.912,619a115.559,115.559,0,0,0-1.033,13.08,1.569,1.569,0,0,0-.08-.524,42.031,42.031,0,0,0-2.219-8.562q-.146-1.113-.437-2.663-.225-1.331-.451-2.59-.218-.96-.364-1.921a15.429,15.429,0,0,1,0-2.219q.073-1.477.073-2.437a1.441,1.441,0,0,1-.073-.444v-.146q-.226-3.1-2.146-3.7a.064.064,0,0,1,.073-.073v-.153Q961,606.583,962.547,606.437Zm2.292,46.857a.046.046,0,0,0-.022-.029.065.065,0,0,0,.022-.044Z" transform="translate(4671.419 -104.393)" fill="#2b2b2b" fill-rule="evenodd"/>
      <path id="Path_98621" data-name="Path 98621" d="M1058.011,672.452h-1.331q.437-3.026.669-4.721.662-.742,1.55-1.782l.382-.509q1.528-2.027,2.364-3.059.554-.688.8-.935a16.183,16.183,0,0,0,2.059-2.743,13.177,13.177,0,0,0,1.04-1.55q.293-.453.546-.848a19.336,19.336,0,0,0,1.6-2.7,2.315,2.315,0,0,0-.182-.615q-.186-.481-.56-1.3a.85.85,0,0,1-.146-.218q-.444-.895-.895-1.71l-.146-.145q.073,0,1.7.218a1.5,1.5,0,0,1,.516.08q1.186.153,1.477.153.218,0,1.113-3.034.071-.218.149-.451.235-.725.52-1.615.3-.981.553-1.793.893-2.928,1.069-3.685a34.354,34.354,0,0,1,4.059,4,3.343,3.343,0,0,1,.444.509.2.2,0,0,0-.146.08,1.211,1.211,0,0,0-.371.073,4.852,4.852,0,0,0-.553.226,11.335,11.335,0,0,0-3.317,2.808,34.344,34.344,0,0,0-2.408,3.172q-.43,1.347-1.055,3.168-.235.674-.495,1.415-.442,1.15-.709,1.961-.23.695-.331,1.139a21.129,21.129,0,0,0-.742,5.689v.888q0,1.443.084,2.979.14,2.56.513,5.38a41.658,41.658,0,0,0-8.286-.757l-1.4.015Zm-7.544,16.4-.073,10.49a1.821,1.821,0,0,1-.284-.167,15.386,15.386,0,0,1-5.4-6.7l-.815-2.583a.234.234,0,0,0,.073-.153.234.234,0,0,1-.153-.073l-.146-.364a60.258,60.258,0,0,0,2.735-9.683,5.47,5.47,0,0,0,.888-.073,16.837,16.837,0,0,0,2.881-.371v.371q0,.291.073,2.954l.146,3.914Q1050.394,687.678,1050.467,688.857Zm-42.332-2.11-.305-2.175a17.337,17.337,0,0,0,.96-2.066,7.253,7.253,0,0,0,.371-3.921,109.834,109.834,0,0,0-.735-14.331,115.575,115.575,0,0,1,1.033-13.08l-2.292-3.179a3.275,3.275,0,0,0,1.258-.589,2.551,2.551,0,0,0,1.033-1.106,17.147,17.147,0,0,0-4.365-7.69h.6a3.092,3.092,0,0,0,2.139-1.106,36.145,36.145,0,0,1,3.623,6.576q2.51,5.834,1.775,14.855,0,.807-.08,1.622-1.026,10.2,1.106,15.59a17.49,17.49,0,0,1,1.477,6.875v.073l-2.059,5.834a6.576,6.576,0,0,0-1.63-.364,5.955,5.955,0,0,0-2.808.742.607.607,0,0,0-.226.073,3.185,3.185,0,0,1-.735-2v-.073a.21.21,0,0,0-.073-.146q-.022-.131-.044-.284Zm-2.3,3.3v-.226a89.793,89.793,0,0,1-8.8-3.4,15.388,15.388,0,0,0-1.179-5.907q-.3-.6-1.477-3.106-1.259-2.444-2.219-4.736a37.069,37.069,0,0,1-2.59-14.113,35.04,35.04,0,0,0-.146-3.616,13.437,13.437,0,0,0-1.113-3.994A11.064,11.064,0,0,0,983,645.921q.095-.094.2-.182l.08-.065q.189-.175.386-.342l.291-.291a5.9,5.9,0,0,1,.524-.6q.807-.953,1.622-1.841l.073.073a1.408,1.408,0,0,1,.371.509,15.349,15.349,0,0,1,1.848,3.332,2.207,2.207,0,0,1,0,1.4,2.853,2.853,0,0,0,0,1.331q.444,1.324,5.543,1.106a.849.849,0,0,1,.218.146q.306.146.305.3-.073.146-.968,1.848a6.3,6.3,0,0,0-.815,1.993,47,47,0,0,1,2.735,4.365.982.982,0,0,1,.153.218.064.064,0,0,1,.073.073l.808,1.331q.073.146.153.291.444.815.888,1.71a.21.21,0,0,1,.073.145l.291.517a4.875,4.875,0,0,0,.378.742l.146.291q1.84,3.7,3.477,7.537a96.321,96.321,0,0,1,3.688,11.822q.058.255.109.487.24,1,.48,1.731a6.9,6.9,0,0,0,.444,1.477q.451,1.4.887,1.4h.146q.08.371.153.815a.66.66,0,0,1,.073.3,11.742,11.742,0,0,1-1.259.364A4.371,4.371,0,0,1,1005.836,690.042Zm45.228-55.492a3.4,3.4,0,0,1,1.477,2.059q.371,1.186.444,1.331a3.908,3.908,0,0,0,.524.815q-.742.589-1.855,1.549-.532.467-.946.88l-.087.087q-1.993,1.841-1.993,2.51a1.93,1.93,0,0,0,.662,1.331,4.465,4.465,0,0,1,.6.364q.462.232.822.422a12.344,12.344,0,0,1,1.091.618,9.831,9.831,0,0,0-1.091.535q-.4.222-.822.5-1.783,1.186-1.782,1.848.146,5.027.669,9.974.3,2.59.662,4.51a14.817,14.817,0,0,0,1.186,3.688q-.073.669-.153,1.411a1.587,1.587,0,0,0-.582-.3,8.158,8.158,0,0,0-2.146-.589q0-.6-.073-1.7-.225-2-.225-2.146-.218-6.955-.517-9.828a23.241,23.241,0,0,1-.225-3.4v-.808a3.154,3.154,0,0,0,0-.96h-.073a2.23,2.23,0,0,0,.073-.517q.073-.6.153-1.186.291-1.921.589-3.47a40.125,40.125,0,0,1,1.331-5.027.308.308,0,0,0,.073-.226,4.9,4.9,0,0,1,.225-.662,2.81,2.81,0,0,1,.218-.589.064.064,0,0,0,.073-.073l1.477-2.663A1.3,1.3,0,0,0,1051.063,634.55Zm4.874,44.558a8.615,8.615,0,0,0,1.033,1.259q1.331.218,2.517.364l.145.218,8.65.968.247.007a7.821,7.821,0,0,1,.858.065v.051q.146,3.652.146,4.379.073.96.073,1.921v.371a55.446,55.446,0,0,1-1.4,11.676,15.147,15.147,0,0,1-5.391,1.251,22.819,22.819,0,0,1-5.987-.364q-.517-.073-.96-.146l-1.622-.371.589-8.352q.073-1.4.153-2.364l.291-4.067Q1055.566,682.425,1055.937,679.108ZM996.08,694.145l7.537,1.506a13.228,13.228,0,0,1,1.833.8l-.32.153q-1.841.291-5.223.975a37.6,37.6,0,0,1-4.634.487q.16-.837.407-2.015Q995.934,694.9,996.08,694.145Z" transform="translate(4628.873 -136.564)" fill-rule="evenodd"/>
      <path id="Path_98622" data-name="Path 98622" d="M1072.32,593.529a.9.9,0,0,0,.291-.815,3.127,3.127,0,0,0-.888-1.4,9.886,9.886,0,0,1-1.186-1.55,1.467,1.467,0,0,1-.218-.96,22.265,22.265,0,0,1,2.219.3q3.47.735,3.914.807t2.139.3a10.987,10.987,0,0,0-1.171,5.762q-.233-.146-.378-.218Q1073.8,594.118,1072.32,593.529Zm54.467,5.463a4.732,4.732,0,0,0,2.51-1.7,1.11,1.11,0,0,0,.218,1.477,3.674,3.674,0,0,0,.444.371,1.61,1.61,0,0,1-.218.517,6.406,6.406,0,0,1-1.942,2.561,5.592,5.592,0,0,1-3.456,1.062,11.751,11.751,0,0,1-2.728-.3q-.087-.88-.087-2.212h.233q.341,0,.757.033.2.016.422.04a7.72,7.72,0,0,0,1.186-.073,1.436,1.436,0,0,0,.444-.073h.073l1.106-.378.335-.24.109-.109A2.466,2.466,0,0,0,1126.787,598.992Zm1.033-2.292a2.608,2.608,0,0,1,1.186-.953q0,.073.146.218.218.153.218.225a4.813,4.813,0,0,1-1.106.888,7.076,7.076,0,0,1-1.186.589A4.261,4.261,0,0,0,1127.82,596.7Zm-68.587-.146a.978.978,0,0,1,.371.218,3.243,3.243,0,0,0,1.993,2.372,5.24,5.24,0,0,0,1.259.444l1.331.3h1.033a4.868,4.868,0,0,0,.517-.153v.153a.064.064,0,0,0-.073.073l-.073.073a1.187,1.187,0,0,1-.073.291,3.814,3.814,0,0,1-.735.073h-1.411a10.122,10.122,0,0,1-4.954-1.251,4.261,4.261,0,0,1-1.768-1.775,1.261,1.261,0,0,0,0-1.179v-.073q.509.218,1.033.436A2.039,2.039,0,0,0,1059.233,596.555Z" transform="translate(4565.939 -97.471)" fill="#e1825f" fill-rule="evenodd"/>
      <path id="Path_98623" data-name="Path 98623" d="M1211.521,676.683a18.5,18.5,0,0,0-1.4,1.775q-.163.242-.335.495-.462.675-1,1.426-.987-1.342-1.444-2.081l-.04-.066a.064.064,0,0,1,.073-.073,10.577,10.577,0,0,0,2.815-4.874.2.2,0,0,0,.145-.08.507.507,0,0,1,.226.225,13.051,13.051,0,0,1,.888,1.993,10.338,10.338,0,0,1,.735,1.848.75.75,0,0,1-.146.291l-.073-.073v-.073A5.633,5.633,0,0,0,1211.521,676.683Zm-48.923,54.9-5.4-.218,1.63-4.438v-.073l.291.291a5.812,5.812,0,0,0,3.034.378,5.406,5.406,0,0,0,1.775-.524.556.556,0,0,1,.218-.073,20.26,20.26,0,0,0,2.655-1.7q.669-.517,1.477-1.186a1.506,1.506,0,0,0,.742-1.4q0-1.033-.96-.815a1.984,1.984,0,0,1-.437.073,2.826,2.826,0,0,1-1.113-.073q-.589-.145-1.331-.364a1.629,1.629,0,0,0-.6-.371q-1.986-1.4-2.953-2.073a.23.23,0,0,1,.135-.073h-.135l.895-2.292,2.059-5.834v-.073l14.71.735L1171.9,732.03Zm43.823-61.851h-.451a4.011,4.011,0,0,1-.735-.444,4.5,4.5,0,0,0-1.324-.517q-.3-.056-.568-.1-.463-.077-.837-.124a1.332,1.332,0,0,0-.378-.073q.378-.735.815-1.477a3.015,3.015,0,0,0,.4.167,5.927,5.927,0,0,0,1.6.284q1.622.146,2.139.146Q1206.792,668.622,1206.421,669.735Zm-3.448,3.194a5.586,5.586,0,0,1,2.262,1.753,5.162,5.162,0,0,1-.218,1.477,9.133,9.133,0,0,1-.36,1.422q-.1.33-.236.724v.073q-.073.3-.146.524v.073a6.182,6.182,0,0,1-.931-.611q-.528-.4-1.215-1.018.378-.589.233-.807.218-1.186.364-2.146l.015-.029a.638.638,0,0,0,.058-.262v-.3c.049,0,.073-.027.073-.08a.557.557,0,0,0,.073-.218v-.218q0-.073.014-.211C1202.963,673.031,1202.968,672.982,1202.973,672.929Z" transform="translate(4481.019 -164.293)" fill="#dcdcdc" fill-rule="evenodd"/>
      <path id="Path_98624" data-name="Path 98624" d="M1125.889,641.5a2.466,2.466,0,0,1-.6.982,2.1,2.1,0,0,0,.517-.982Zm-1.186,10.869a5.621,5.621,0,0,1,.444.735v.073Q1124.849,652.67,1124.7,652.372Zm-8.562-3.608q-.015.138-.015.211v.218a.557.557,0,0,1-.073.218q0,.08-.073.08A5.313,5.313,0,0,0,1116.141,648.764Zm-.218,1.288a.934.934,0,0,0,.058-.3v.036A.64.64,0,0,1,1115.923,650.052Zm-.306-1.448.073-.073a4.013,4.013,0,0,0,.509-.218.852.852,0,0,1-.022.2.056.056,0,0,1-.007.022.254.254,0,0,1-.044.065v-.218A3.975,3.975,0,0,0,1115.617,648.6Zm-.324,16.729.018.047-.015-.022A.085.085,0,0,0,1115.293,665.332Zm-.007-.022a.239.239,0,0,0-.018-.033q-.276-.7-.393-1.011a14.317,14.317,0,0,1-.4-1.6q.182.815.48,1.739Q1115.111,664.844,1115.286,665.31Zm-59.534-26.68v.073l-.153-.153A.208.208,0,0,1,1055.753,638.63Zm2.953.655a.979.979,0,0,0-.371-.218.453.453,0,0,0,.3-.073h.073Z" transform="translate(4566.836 -139.982)" fill="#d4a48d" fill-rule="evenodd"/>
      <path id="Path_98625" data-name="Path 98625" d="M1467.745,707.15l-.073.073h-.073v-.073Z" transform="translate(4214.781 -198.602)" fill="#d3d9e7" fill-rule="evenodd"/>
      <path id="Path_98626" data-name="Path 98626" d="M1642.8,931.988l.953-2.888q-.218,1.178-.436,2.146A9.035,9.035,0,0,1,1642.8,931.988Z" transform="translate(4065.072 -388.259)" fill="#fcd8c9" fill-rule="evenodd"/>
      <path id="Path_98627" data-name="Path 98627" d="M1450.638,997.037l-4.365-3.55q-.073-1.178-.073-2.437.152.222.313.433a9.528,9.528,0,0,0,3.95,3.045q.16.08.328.146Q1450.71,995.633,1450.638,997.037Z" transform="translate(4233.067 -441.195)" fill="#6d411a" fill-rule="evenodd"/>
      <path id="Path_98628" data-name="Path 98628" d="M1401,1013.4a.234.234,0,0,0,.153.073.234.234,0,0,1-.073.153Z" transform="translate(4271.69 -460.293)" fill-rule="evenodd" fill="url(#linear-gradient-10)"/>
      <path id="Path_98629" data-name="Path 98629" d="M1555.523,1358.509a2.087,2.087,0,0,1-.073-.444v-.815A10.409,10.409,0,0,1,1555.523,1358.509Z" transform="translate(4139.713 -754.114)" fill="#1b2b38" fill-rule="evenodd"/>
      <path id="Path_98630" data-name="Path 98630" d="M968.71,674.835l-.444.589-.516.517Q968.121,675.5,968.71,674.835Zm1.259-1.186a2.429,2.429,0,0,1-.371.3q.284-.247.567-.48Q970.063,673.555,969.969,673.649Zm4.43-4.794a.216.216,0,0,1,.073-.153v.073ZM974.77,667q-.073.451-.153.815a.691.691,0,0,1-.073.3A7.062,7.062,0,0,1,974.77,667Z" transform="translate(4641.904 -164.293)" fill="#f5f4f4" fill-rule="evenodd"/>
      <path id="Path_98631" data-name="Path 98631" d="M1150.971,979.4q.073.291.146.742v.146q.145.647.233,1.135l.022.131q.022.153.044.284a.21.21,0,0,1,.073.145v.073a3.184,3.184,0,0,0,.735,2q-.509.218-.96.437a.28.28,0,0,0-.218.08.66.66,0,0,0-.073-.3q-.073-.444-.153-.815a.064.064,0,0,0-.073-.073,2.475,2.475,0,0,0-.073-.589.216.216,0,0,1-.073-.153v-2.663A4.341,4.341,0,0,0,1150.971,979.4Z" transform="translate(4485.658 -431.24)" fill="#010f1a" fill-rule="evenodd"/>
      <path id="Path_98632" data-name="Path 98632" d="M1153.223,978.35l.306,2.175q-.087-.488-.233-1.135v-.146q-.073-.451-.145-.742A.234.234,0,0,0,1153.223,978.35Z" transform="translate(4483.479 -430.343)" fill="#3c3b3b" fill-rule="evenodd"/>
      <g id="Group_21564" data-name="Group 21564" transform="translate(5713.499 564.655)">
        <path id="Path_98634" data-name="Path 98634" d="M1700.6,1109.434c-.091,0-.228,0-3.927-.516q-3.954-.561-4.659-.663c-2.416-.331-3.853-.527-4.268-.581l-2.073-.269a15.469,15.469,0,0,0-1.631-.133,2.019,2.019,0,0,0-.815.109c-.1.047-.349.163-.415.756a.673.673,0,1,1-1.337-.151,2.112,2.112,0,0,1,1.176-1.822,3.262,3.262,0,0,1,1.391-.238,16.456,16.456,0,0,1,1.8.143l2.08.27c.418.054,1.859.25,4.282.583l4.659.662c2.962.413,3.629.493,3.754.5a6.173,6.173,0,0,0,3.88-1.38,4.9,4.9,0,0,0,2.042-2.792,1.367,1.367,0,0,0-.71-1.676,1.915,1.915,0,0,0-1.657-.277,15.046,15.046,0,0,0-2.1,1.269,4.546,4.546,0,0,1-2.334,1.016c-.364,0-1.553-.14-1.553-1.939a1.345,1.345,0,0,1,.032-.276,10.612,10.612,0,0,0-1.107.627l-.012.008a2.651,2.651,0,0,1-1.383.481,1.975,1.975,0,0,1-1.225-.529,2.159,2.159,0,0,1-.845-1.708,1.839,1.839,0,0,1,.082-.477c-.557.239-1.221.564-1.987.975a7.031,7.031,0,0,1-3.009,1.04,4.062,4.062,0,0,1-2.7-.879,3.033,3.033,0,0,1-.853-1.151c-.557.161-1.091.309-1.595.443a7.038,7.038,0,0,1-1.031.239.673.673,0,0,1-.129-1.339c.04-.007.2-.042.818-.2.549-.146,1.139-.311,1.756-.491a8.128,8.128,0,0,1,1.312-3.631,4.891,4.891,0,0,1,4.171-2.665,2.8,2.8,0,0,1,1.745.479,1.708,1.708,0,0,1,.674,1.409,4.238,4.238,0,0,1-2.123,3.385,15.793,15.793,0,0,1-4.3,1.984,1.755,1.755,0,0,0,.422.515,2.729,2.729,0,0,0,1.832.558,5.771,5.771,0,0,0,2.373-.88,17.05,17.05,0,0,1,3.393-1.491.673.673,0,0,1,.843.671,4.4,4.4,0,0,1-.2.993l0,.014a5.391,5.391,0,0,0-.145.526.817.817,0,0,0,.349.639.934.934,0,0,0,.379.227,1.412,1.412,0,0,0,.658-.272,14.321,14.321,0,0,1,2.515-1.269.673.673,0,0,1,.231-.072l.283-.065a.673.673,0,0,1,.378,1.289c-.027.106-.061.232-.106.384l-.005.017a4.145,4.145,0,0,0-.143.512c0,.574.131.574.207.574.1,0,.52-.056,1.569-.777a16.311,16.311,0,0,1,2.293-1.379,3.133,3.133,0,0,1,2.863.306,2.683,2.683,0,0,1,1.4,3.106,6.164,6.164,0,0,1-2.543,3.615A7.567,7.567,0,0,1,1700.6,1109.434Zm-10.127-15.313a3.6,3.6,0,0,0-3.031,2.035,7.321,7.321,0,0,0-1.036,2.483,13.9,13.9,0,0,0,3.585-1.689,3.006,3.006,0,0,0,1.555-2.287.37.37,0,0,0-.144-.339A1.551,1.551,0,0,0,1690.477,1094.121Z" transform="translate(-1681.474 -1092.775)" fill="#ffc6a5"/>
      </g>
    </g>
  </g>
</svg>
