<svg xmlns="http://www.w3.org/2000/svg" width="512" height="512" viewBox="0 0 512 512">
  <g id="incentive" transform="translate(-1220 -7170)">
    <g id="Ellipse_87" data-name="Ellipse 87" transform="translate(1220 7170)" fill="none" stroke="#0d1b3a" stroke-width="12">
      <circle cx="256" cy="256" r="256" stroke="none"/>
      <circle cx="256" cy="256" r="250" fill="none"/>
    </g>
    <g id="Group_138" data-name="Group 138" transform="translate(1339 7289)">
      <path id="Path_478" data-name="Path 478" d="M196.348,176.695a68.452,68.452,0,0,0,50.942-22.782l-6.366-5.7a59.646,59.646,0,1,1,6.023-7.975l7.223,4.563a68.354,68.354,0,1,0-57.823,31.892Z" transform="translate(-59.653 -18.641)" fill="#0d1b3a"/>
      <path id="Path_479" data-name="Path 479" d="M177.706,179.412A89.706,89.706,0,1,0,88,89.706,89.807,89.807,0,0,0,177.706,179.412Zm0-170.868A81.162,81.162,0,1,1,96.543,89.706,81.254,81.254,0,0,1,177.706,8.543Z" transform="translate(-41.011 0)" fill="#0d1b3a"/>
      <path id="Path_480" data-name="Path 480" d="M273.39,404.347V340.271A4.272,4.272,0,0,0,269.118,336H217.324a4.272,4.272,0,0,0-4.272,4.271v4.272H192.227a4.272,4.272,0,0,0-4.272,4.272v8.4a34.216,34.216,0,0,0-41.251,5.447l-3.235,3.235H125.526a25.506,25.506,0,0,0-19.128,8.543H98.673L79,370.51,62.825,354.337a4.273,4.273,0,0,0-3.021-1.251H46.989v8.544H58.035L73.87,377.466a4.272,4.272,0,0,0,2.183,1.168l21.359,4.272a4.289,4.289,0,0,0,.838.083h3.088l-2.783,6.956a4.272,4.272,0,0,0,3.966,5.858h59.8V387.26H108.831l.83-2.074a17.005,17.005,0,0,1,15.865-10.742h19.713a4.275,4.275,0,0,0,3.021-1.251l4.486-4.486a25.63,25.63,0,0,1,35.21-.982v41.663L128.2,421.341,53.4,404.719,8.543,359.86v-2.5H23.861l32.923,32.923a4.269,4.269,0,0,0,1.434.945l21.359,8.543a4.264,4.264,0,0,0,1.586.305h8.543v-8.543H81.986L62.2,383.62,28.651,350.066a4.272,4.272,0,0,0-3.021-1.251H4.272A4.272,4.272,0,0,0,0,353.087v8.544a4.273,4.273,0,0,0,1.251,3.021L48.24,411.639a4.271,4.271,0,0,0,2.094,1.15l76.891,17.087a4.28,4.28,0,0,0,1.764.019l59.066-11.813a4.273,4.273,0,0,0,4.172,3.353h20.825v3.737a4.273,4.273,0,0,0,4.272,4.273h51.795a4.273,4.273,0,0,0,4.272-4.273v-12.28h-8.543v8.01H221.595v-1.669a4.251,4.251,0,0,0,.534-2.069V348.815a4.25,4.25,0,0,0-.534-2.069v-2.2h43.251v59.8ZM196.5,412.89v-59.8h16.553v59.8Z" transform="translate(0 -156.588)" fill="#0d1b3a"/>
      <path id="Path_481" data-name="Path 481" d="M448,464h17.087v8.543H448Z" transform="translate(-208.783 -216.241)" fill="#0d1b3a"/>
      <path id="Path_482" data-name="Path 482" d="M264.076,112.543V104H200v8.543h29.9a12.838,12.838,0,0,1,12.083,8.543H208.543v8.543h33.441a12.838,12.838,0,0,1-12.083,8.543H209.727a9.727,9.727,0,0,0-5,18.067l40.069,24.041,4.4-7.326-40.069-24.041a1.183,1.183,0,0,1,.609-2.2H229.9a21.4,21.4,0,0,0,20.93-17.087H259.8v-8.543h-8.972a21.269,21.269,0,0,0-3.853-8.543Z" transform="translate(-93.207 -48.468)" fill="#e36410"/>
      <path id="Path_483" data-name="Path 483" d="M328,160h8.543v8.544H328Z" transform="translate(-152.859 -74.566)" fill="#0d1b3a"/>
      <path id="Path_484" data-name="Path 484" d="M168,160h8.543v8.544H168Z" transform="translate(-78.294 -74.566)" fill="#0d1b3a"/>
      <path id="Path_485" data-name="Path 485" d="M448,40h8.544v8.543H448Z" transform="translate(-208.783 -18.641)" fill="#0d1b3a"/>
      <path id="Path_486" data-name="Path 486" d="M448,72h8.544v8.543H448Z" transform="translate(-208.783 -33.553)" fill="#0d1b3a"/>
      <path id="Path_487" data-name="Path 487" d="M432,56h8.544v8.543H432Z" transform="translate(-201.326 -26.097)" fill="#0d1b3a"/>
      <path id="Path_488" data-name="Path 488" d="M464,56h8.543v8.543H464Z" transform="translate(-216.239 -26.097)" fill="#0d1b3a"/>
      <path id="Path_489" data-name="Path 489" d="M48,240h8.543v8.543H48Z" transform="translate(-22.37 -111.848)" fill="#0d1b3a"/>
      <path id="Path_490" data-name="Path 490" d="M48,272h8.543v8.543H48Z" transform="translate(-22.37 -126.761)" fill="#0d1b3a"/>
      <path id="Path_491" data-name="Path 491" d="M32,256h8.543v8.544H32Z" transform="translate(-14.913 -119.305)" fill="#0d1b3a"/>
      <path id="Path_492" data-name="Path 492" d="M64,256h8.544v8.544H64Z" transform="translate(-29.826 -119.305)" fill="#0d1b3a"/>
    </g>
  </g>
</svg>
