<svg xmlns="http://www.w3.org/2000/svg" xmlns:xlink="http://www.w3.org/1999/xlink" width="739.938" height="172.157" viewBox="0 0 739.938 172.157">
  <defs>
    <clipPath id="clip-path">
      <rect id="Rectangle_3330" data-name="Rectangle 3330" width="275.173" height="27.1"/>
    </clipPath>
    <clipPath id="clip-path-2">
      <rect id="Rectangle_3331" data-name="Rectangle 3331" width="223.057" height="27.1" stroke="#707070" stroke-width="1"/>
    </clipPath>
  </defs>
  <g id="logo_svg" transform="translate(-5423 -6563.5)">
    <path id="Path_7819" data-name="Path 7819" d="M-22942.605,1123v171.656" transform="translate(28518.279 5440.5)" fill="none" stroke="#707070" stroke-width="1"/>
    <g id="Group_11608" data-name="Group 11608">
      <g id="Group_11607" data-name="Group 11607">
        <g id="Group_8033" data-name="Group 8033" transform="translate(5598 6662.22)">
          <g id="Mask_Group_48" data-name="Mask Group 48" transform="translate(0 0)" clip-path="url(#clip-path)">
            <path id="Path_7815" data-name="Path 7815" d="M1.746-10.461h0Zm-.738,22.2H6.463V2.791h9.851V-1.958H6.463V-6.225H18.175v-4.941H1.008Zm60.26,0H77.633V6.8H66.723V-11.167H61.268Zm60.26,0h18.354V6.8h-12.9V2.182h11.231V-2.375H126.983V-6.418h12.578v-4.749H121.528Zm62.025,0h18.354V6.8h-12.9V2.182h11.231V-2.375H189.008V-6.418h12.578v-4.749H183.553Zm67.095,0H256.1V-6.225H263v-4.941H243.749v4.941h6.9Zm70.913-9.273c0,2.054-1.155,5.23-4.877,5.23-2.471,0-5.615-1.925-5.615-7.412s3.145-7.412,5.84-7.412A4.369,4.369,0,0,1,321.5-3.209h5.327c0-4.974-4.845-8.471-9.915-8.471C310.395-11.68,305.614-7,305.614.289s4.813,11.969,11.07,11.969c7.99,0,10.332-6.193,10.332-9.787Zm47.489,9.273H374.7l1.765-5.1H384.2l1.765,5.1h5.84l-8.631-22.91h-5.455Zm9.177-22.2h4.428l8.086,21.5h-4.268l-1.765-5.1h-8.76l-1.765,5.1H370.11ZM382.88,2.471h-5.006l2.5-6.963h.064Zm-.225-12.931h-4.428l-8.118,21.5h4.075l1.765-5.1h8.76l1.765,5.1h4.268Zm52.174,22.2h5.455v-8.6H444.1c3.241,0,4.236.545,4.492,4.653.16,2.471.353,3.69.706,3.947h5.936c-.449-.449-1.059-1.027-1.219-3.337l-.16-2.15c-.128-2.214-.706-4.236-2.76-5.359a5.987,5.987,0,0,0,3.016-5.551c0-4.974-3.915-6.514-8.022-6.514H434.83Zm.738-22.2h10.075c1.957,0,7.733,0,7.733,6.065A6.111,6.111,0,0,1,449.943.93V.995c2.182,1.316,2.824,1.861,3.177,5.359l.16,2.022c.16,1.829.353,2.407.578,2.663h-4.075a9,9,0,0,1-.449-2.6l-.1-1.6c-.257-4.4-2.407-4.4-5.327-4.4h-4.364Zm4.717,3.85h4.556c1.476,0,3.818.032,3.818,2.76,0,2.824-2.342,2.824-3.818,2.824h-4.556Zm5.763,9.361L447.9,3.785l1.34,4.654s-.158,2.389.546,2.6a38.2,38.2,0,0,0,4.236.33l-.738-5.828-.871-3.1L450.247.995a9.547,9.547,0,0,0,2.695-2.474A5.039,5.039,0,0,0,453.6-4.4a6.123,6.123,0,0,0-2.5-4.98c-1.989-1.516-4.647-1.084-5.455-1.084H435.568l3.3,13.337Zm58.636-9.168h3.53c1.155,0,5.968,0,5.968,6.706s-4.813,6.706-5.968,6.706h-3.53Zm-4.717,17.456h8.7c4.653,0,10.236-2,10.236-10.749s-5.583-10.749-10.236-10.749h-8.7Zm0-21.5h8.7c6.321,0,10.236,3.85,10.236,10.749s-3.915,10.749-10.236,10.749h-8.7Zm-.738,22.2h9.434c6.417,0,10.974-3.626,10.974-11.455s-4.556-11.455-10.974-11.455h-9.434Z" transform="translate(5.026 14.327)"/>
          </g>
          <g id="Mask_Group_49" data-name="Mask Group 49" transform="translate(341.881)" clip-path="url(#clip-path-2)">
            <path id="Path_7816" data-name="Path 7816" d="M1.748-10.458h0ZM1.008,11.8H6.475V2.825h9.873v-4.76H6.475V-6.213H18.214v-4.953H1.008Zm60.4,0h16.4V6.845H66.874v-18.01H61.406Zm60.4,0h18.4V6.845H127.272V2.214h11.256V-2.353H127.272V-6.406h12.607v-4.76H121.8Zm62.167,0h18.4V6.845H189.439V2.214H200.7V-2.353H189.439V-6.406h12.607v-4.76H183.972Zm67.249,0h5.467V-6.213H263.6v-4.953h-19.3v4.953h6.915ZM322.3,2.5c0,2.058-1.158,5.242-4.889,5.242-2.476,0-5.628-1.93-5.628-7.429s3.152-7.429,5.853-7.429a4.379,4.379,0,0,1,4.6,3.924h5.339c0-4.985-4.856-8.491-9.938-8.491-6.529,0-11.321,4.7-11.321,12s4.824,12,11.1,12c8.008,0,10.356-6.207,10.356-9.809Zm47.6,9.295h5.66l1.769-5.114h7.751l1.769,5.114H392.7l-8.651-22.963h-5.467Zm9.2-22.255h4.438l8.1,21.548h-4.277l-1.769-5.114h-8.78l-1.769,5.114h-4.084ZM383.756,2.5h-5.017l2.509-6.979h.064Zm-.225-12.961h-4.438L370.956,11.09h4.084l1.769-5.114h8.78l1.769,5.114h4.277ZM435.825,11.8h5.467V3.178h3.827c3.248,0,4.245.547,4.5,4.663.161,2.476.354,3.7.708,3.956h5.95c-.45-.45-1.061-1.029-1.222-3.345L454.9,6.3c-.129-2.219-.707-4.245-2.766-5.371a6,6,0,0,0,3.023-5.564c0-4.985-3.924-6.529-8.04-6.529H435.825Zm.74-22.255h10.1c1.962,0,7.751,0,7.751,6.078A6.125,6.125,0,0,1,450.973.959v.064c2.187,1.319,2.83,1.865,3.184,5.371l.161,2.026c.161,1.833.354,2.412.579,2.669h-4.084a9.026,9.026,0,0,1-.45-2.605l-.1-1.608c-.257-4.406-2.412-4.406-5.339-4.406h-4.374ZM441.292-6.6h4.567c1.479,0,3.827.032,3.827,2.766,0,2.83-2.348,2.83-3.827,2.83h-4.567Zm5.777,9.382,1.853,1.036,1.343,4.665s-.159,2.394.547,2.605a38.289,38.289,0,0,0,4.245.331l-.74-5.842-.873-3.108-2.167-1.447a9.567,9.567,0,0,0,2.7-2.48,5.05,5.05,0,0,0,.66-2.923,6.137,6.137,0,0,0-2.508-4.991c-1.994-1.52-4.658-1.087-5.467-1.087h-10.1l3.312,13.367Zm58.77-9.189h3.538c1.158,0,5.982,0,5.982,6.722s-4.824,6.722-5.982,6.722h-3.538Zm-4.728,17.5h8.716c4.663,0,10.26-2,10.26-10.774s-5.6-10.774-10.26-10.774h-8.716Zm0-21.548h8.716c6.336,0,10.26,3.859,10.26,10.774s-3.924,10.774-10.26,10.774h-8.716Zm-.74,22.255h9.455c6.432,0,11-3.634,11-11.481s-4.567-11.481-11-11.481h-9.455Z" transform="translate(-304.51 12.323)"/>
          </g>
        </g>
        <path id="Path_7817" data-name="Path 7817" d="M14.5,3.114l4.011,1.272a9,9,0,0,1-3.068,4.983A8.751,8.751,0,0,1,10,11,8.814,8.814,0,0,1,3.291,8.209,10.67,10.67,0,0,1,.663.584q0-5.116,2.642-7.946a9.058,9.058,0,0,1,6.947-2.83A8.523,8.523,0,0,1,16.359-7.97a8.082,8.082,0,0,1,2.1,3.774l-4.1.978a4.344,4.344,0,0,0-1.517-2.516,4.345,4.345,0,0,0-2.8-.922,4.662,4.662,0,0,0-3.7,1.635Q4.926-3.386,4.926.276q0,3.886,1.4,5.535A4.539,4.539,0,0,0,9.958,7.461,4.144,4.144,0,0,0,12.8,6.412,6.089,6.089,0,0,0,14.5,3.114ZM21.681.528a13.032,13.032,0,0,1,.936-5.255,9.643,9.643,0,0,1,1.908-2.809,7.977,7.977,0,0,1,2.649-1.845,11.249,11.249,0,0,1,4.417-.811,9.621,9.621,0,0,1,7.247,2.809Q41.557-4.574,41.557.43q0,4.962-2.7,7.764A9.546,9.546,0,0,1,31.647,11a9.644,9.644,0,0,1-7.268-2.788A10.582,10.582,0,0,1,21.681.528Zm4.263-.14a7.678,7.678,0,0,0,1.607,5.276,5.237,5.237,0,0,0,4.081,1.8,5.192,5.192,0,0,0,4.06-1.782A7.831,7.831,0,0,0,37.28.332a7.7,7.7,0,0,0-1.544-5.255,5.226,5.226,0,0,0-4.1-1.733A5.26,5.26,0,0,0,27.51-4.9,7.742,7.742,0,0,0,25.944.388ZM45.286,10.648V-9.843h4.025L57.7,3.841V-9.843h3.844v20.49H57.39L49.129-2.715V10.648Zm26.316,0L64.277-9.843h4.487L73.949,5.322,78.967-9.843h4.389l-7.338,20.49Zm14.323,0V-9.843h15.193v3.466H90.062v4.543h10.287V1.618H90.062V7.2h11.447v3.452Zm19.593,0V-9.843h4.025l8.386,13.684V-9.843h3.844v20.49h-4.151l-8.26-13.362V10.648Zm20.962,0V-9.843h4.137v20.49Zm8.537,0V-9.843H150.21v3.466H139.154v4.543h10.287V1.618H139.154V7.2H150.6v3.452Zm19.593,0V-9.843h4.025l8.386,13.684V-9.843h3.844v20.49h-4.151l-8.26-13.362V10.648Zm25.7,0V-6.377h-6.08V-9.843h16.283v3.466h-6.066V10.648ZM190.342,6.72h3.928V9.529a9.792,9.792,0,0,1-.294,2.691,4.019,4.019,0,0,1-1.111,1.768,5.727,5.727,0,0,1-2.076,1.23l-.769-1.621a3.308,3.308,0,0,0,1.691-1.076,3.237,3.237,0,0,0,.531-1.873h-1.9Zm15.9-2.74,4.025-.391a4.911,4.911,0,0,0,1.475,2.977,4.458,4.458,0,0,0,3,.95,4.608,4.608,0,0,0,3.012-.846,2.516,2.516,0,0,0,1.013-1.978,1.865,1.865,0,0,0-.426-1.237,3.407,3.407,0,0,0-1.489-.888q-.727-.252-3.313-.895a11.238,11.238,0,0,1-4.668-2.027,5.332,5.332,0,0,1-1.887-4.123A5.267,5.267,0,0,1,207.87-7.4a5.557,5.557,0,0,1,2.558-2.076,10.251,10.251,0,0,1,4.032-.713q3.858,0,5.807,1.691a5.969,5.969,0,0,1,2.048,4.515l-4.137.182a3.513,3.513,0,0,0-1.139-2.271,4.171,4.171,0,0,0-2.621-.692,4.727,4.727,0,0,0-2.823.741,1.493,1.493,0,0,0-.657,1.272,1.574,1.574,0,0,0,.615,1.244,10.877,10.877,0,0,0,3.8,1.37A20.064,20.064,0,0,1,219.82-.667a5.755,5.755,0,0,1,2.264,2.083,6.091,6.091,0,0,1,.818,3.264,6.034,6.034,0,0,1-.978,3.3,5.864,5.864,0,0,1-2.767,2.285,11.606,11.606,0,0,1-4.459.748,8.877,8.877,0,0,1-5.968-1.8A7.813,7.813,0,0,1,206.242,3.98Zm20.6,6.667V-9.843h15.193v3.466H230.978v4.543h10.287V1.618H230.978V7.2h11.447v3.452ZM259.5,3.114l4.011,1.272a9,9,0,0,1-3.068,4.983A8.751,8.751,0,0,1,255,11a8.814,8.814,0,0,1-6.709-2.788A10.67,10.67,0,0,1,245.665.584q0-5.116,2.642-7.946a9.058,9.058,0,0,1,6.947-2.83,8.522,8.522,0,0,1,6.108,2.222,8.082,8.082,0,0,1,2.1,3.774l-4.1.978a4.344,4.344,0,0,0-1.517-2.516,4.345,4.345,0,0,0-2.8-.922,4.662,4.662,0,0,0-3.7,1.635q-1.419,1.635-1.419,5.3,0,3.886,1.4,5.535a4.539,4.539,0,0,0,3.634,1.649A4.144,4.144,0,0,0,257.8,6.412,6.089,6.089,0,0,0,259.5,3.114Zm7.992-12.957h4.137v11.1a23.025,23.025,0,0,0,.154,3.424A3.318,3.318,0,0,0,273.05,6.7a4.407,4.407,0,0,0,2.733.762,4.169,4.169,0,0,0,2.656-.72,2.844,2.844,0,0,0,1.076-1.768,23.054,23.054,0,0,0,.182-3.48V-9.843h4.137V.919a27.658,27.658,0,0,1-.335,5.213A5.771,5.771,0,0,1,282.261,8.7a6.25,6.25,0,0,1-2.411,1.67,10.488,10.488,0,0,1-3.942.622,11.348,11.348,0,0,1-4.452-.678,6.366,6.366,0,0,1-2.4-1.761,5.646,5.646,0,0,1-1.16-2.271,24.887,24.887,0,0,1-.405-5.2Zm21.172,20.49V-9.843h8.708a14.9,14.9,0,0,1,4.773.552,4.709,4.709,0,0,1,2.383,1.964,5.9,5.9,0,0,1,.895,3.229A5.47,5.47,0,0,1,304.069-.29,6.511,6.511,0,0,1,300.015,1.6a9.652,9.652,0,0,1,2.215,1.719,23.35,23.35,0,0,1,2.355,3.327l2.5,4H302.14l-2.991-4.459a28.927,28.927,0,0,0-2.18-3.012,3.175,3.175,0,0,0-1.244-.853,6.819,6.819,0,0,0-2.083-.231H292.8v8.554ZM292.8-1.177h3.061a15.806,15.806,0,0,0,3.718-.252,2.228,2.228,0,0,0,1.16-.867,2.668,2.668,0,0,0,.419-1.537,2.457,2.457,0,0,0-.552-1.67,2.534,2.534,0,0,0-1.558-.8q-.5-.07-3.019-.07H292.8Zm16.979,11.825V-9.843h15.193v3.466H313.919v4.543h10.287V1.618H313.919V7.2h11.447v3.452Zm46.09-2.5L353.5,11.179a13.875,13.875,0,0,1-3.355-2.348A8.436,8.436,0,0,1,347.5,10.48a9.366,9.366,0,0,1-3.327.531,7.337,7.337,0,0,1-5.759-2.152,5.559,5.559,0,0,1-1.5-3.83,5.774,5.774,0,0,1,1.174-3.543A9.6,9.6,0,0,1,341.6-1.247a11.119,11.119,0,0,1-1.579-2.369,5,5,0,0,1-.531-2.132A4.024,4.024,0,0,1,340.979-8.9a6.275,6.275,0,0,1,4.242-1.293,5.956,5.956,0,0,1,4.151,1.356,4.3,4.3,0,0,1,1.5,3.313,4.207,4.207,0,0,1-.741,2.362,10.021,10.021,0,0,1-2.991,2.53l2.851,3.76a9.62,9.62,0,0,0,.867-2.334l3.55.811a21.809,21.809,0,0,1-.923,2.76,7.411,7.411,0,0,1-.839,1.461,16.012,16.012,0,0,0,1.7,1.349A12.825,12.825,0,0,0,355.872,8.146ZM345.18-2.994l1.062-.811a2.444,2.444,0,0,0,1.174-1.8,1.7,1.7,0,0,0-.566-1.286,2.147,2.147,0,0,0-1.53-.531,2.143,2.143,0,0,0-1.468.468,1.41,1.41,0,0,0-.531,1.083,2.963,2.963,0,0,0,.895,1.761Zm-1.537,4.263a5.316,5.316,0,0,0-2.027,1.649,3.416,3.416,0,0,0-.671,1.971,2.758,2.758,0,0,0,.832,2.076,3.072,3.072,0,0,0,2.229.8,4.482,4.482,0,0,0,1.775-.363,7.744,7.744,0,0,0,1.859-1.2ZM367.3,10.648V-9.843h8.708a14.9,14.9,0,0,1,4.773.552,4.709,4.709,0,0,1,2.383,1.964,5.9,5.9,0,0,1,.895,3.229A5.47,5.47,0,0,1,382.7-.29,6.511,6.511,0,0,1,378.648,1.6a9.653,9.653,0,0,1,2.215,1.719,23.349,23.349,0,0,1,2.355,3.327l2.5,4h-4.948l-2.991-4.459a28.916,28.916,0,0,0-2.18-3.012,3.175,3.175,0,0,0-1.244-.853,6.819,6.819,0,0,0-2.083-.231h-.839v8.554Zm4.137-11.825H374.5a15.806,15.806,0,0,0,3.718-.252,2.229,2.229,0,0,0,1.16-.867,2.668,2.668,0,0,0,.419-1.537,2.457,2.457,0,0,0-.552-1.67,2.534,2.534,0,0,0-1.558-.8q-.5-.07-3.019-.07h-3.229Zm16.979,11.825V-9.843h15.193v3.466H392.552v4.543H402.84V1.618H392.552V7.2H404v3.452Zm22.458,0-4.892-20.49h4.235l3.089,14.075,3.746-14.075h4.92L425.563,4.47l3.145-14.313h4.165L427.9,10.648h-4.389L419.427-4.671,415.36,10.648Zm41.467,0h-4.5L446.05,5.993H437.86l-1.691,4.654H431.78l7.981-20.49h4.375Zm-7.617-8.107-2.823-7.6-2.767,7.6Zm10.284,8.107V-9.843h8.708a14.9,14.9,0,0,1,4.773.552,4.708,4.708,0,0,1,2.383,1.964,5.9,5.9,0,0,1,.895,3.229A5.47,5.47,0,0,1,470.409-.29,6.511,6.511,0,0,1,466.356,1.6a9.654,9.654,0,0,1,2.215,1.719,23.355,23.355,0,0,1,2.355,3.327l2.5,4H468.48l-2.991-4.459a28.922,28.922,0,0,0-2.18-3.012,3.175,3.175,0,0,0-1.244-.853,6.82,6.82,0,0,0-2.083-.231h-.839v8.554Zm4.137-11.825H462.2a15.807,15.807,0,0,0,3.718-.252,2.229,2.229,0,0,0,1.16-.867,2.668,2.668,0,0,0,.419-1.537,2.457,2.457,0,0,0-.552-1.67,2.534,2.534,0,0,0-1.558-.8q-.5-.07-3.019-.07h-3.229Zm16.965-8.666h7.562a14.765,14.765,0,0,1,3.9.391,6.852,6.852,0,0,1,3.089,1.887,8.952,8.952,0,0,1,1.957,3.32A15.121,15.121,0,0,1,493.286.6a13.466,13.466,0,0,1-.629,4.361,9.033,9.033,0,0,1-2.194,3.62,7.273,7.273,0,0,1-2.907,1.635,12.518,12.518,0,0,1-3.662.433h-7.785Zm4.137,3.466V7.2h3.089a11.272,11.272,0,0,0,2.5-.2,3.819,3.819,0,0,0,1.67-.853,4.338,4.338,0,0,0,1.083-1.978,13.364,13.364,0,0,0,.419-3.753,12.238,12.238,0,0,0-.419-3.648,4.688,4.688,0,0,0-1.174-1.985,3.937,3.937,0,0,0-1.915-.964,18.758,18.758,0,0,0-3.4-.2Zm16.881,17.024V-9.843h4.137v20.49Zm8.579,0V-9.843h4.025l8.386,13.684V-9.843h3.844v20.49H517.81l-8.26-13.362V10.648Zm30.621-7.534V-.339h8.917V7.824a11.227,11.227,0,0,1-3.767,2.215,13.71,13.71,0,0,1-5,.957,11.215,11.215,0,0,1-5.6-1.349,8.576,8.576,0,0,1-3.592-3.858,12.466,12.466,0,0,1-1.2-5.458,11.794,11.794,0,0,1,1.342-5.689,9.036,9.036,0,0,1,3.928-3.816,10.6,10.6,0,0,1,4.906-1.02,9.788,9.788,0,0,1,5.961,1.6,7.226,7.226,0,0,1,2.76,4.424l-4.109.769a4.34,4.34,0,0,0-1.628-2.383,4.922,4.922,0,0,0-2.984-.874,5.606,5.606,0,0,0-4.312,1.719,7.242,7.242,0,0,0-1.6,5.1,8.023,8.023,0,0,0,1.621,5.472,5.414,5.414,0,0,0,4.249,1.824,7.125,7.125,0,0,0,2.607-.51,8.933,8.933,0,0,0,2.243-1.237v-2.6Zm13.163,7.534V6.72h3.928v3.928Z" transform="translate(5603.337 6720.438)"/>
        <rect id="Rectangle_3332" data-name="Rectangle 3332" width="555.287" height="3.711" transform="translate(5603 6692.563)"/>
      </g>
      <g id="Group_11606" data-name="Group 11606" transform="translate(-1.256)">
        <path id="Path_7807" data-name="Path 7807" d="M-23053.945,959.277h54v11.76h-16.535v44.606h-23.125V971.036h-14.34Z" transform="translate(28736.709 5641.723)" fill="#001850"/>
        <path id="Path_7810" data-name="Path 7810" d="M22.913,56.367h0L0,56.364V0H47.417A34.869,34.869,0,0,1,57.978,2.484a19.158,19.158,0,0,1,7.26,5.066,14.04,14.04,0,0,1,3.3,9.36,13.346,13.346,0,0,1-2.242,7.7,14.424,14.424,0,0,1-4.931,4.378A21.406,21.406,0,0,1,54.193,31.4L66.942,56.361l-25.7,0L30.284,33.818H22.913V56.367Zm-.8-44.892V22.748H37.76c.059,0,5.874-.507,5.874-5.838s-5.815-5.435-5.874-5.435Z" transform="translate(5739.146 6600.613)" fill="#001850"/>
        <path id="Path_7811" data-name="Path 7811" d="M17.863,56.353H0L22.265,0H46.08L68.614,56.349l-20.447,0L43.5,45.648H22.265l-4.4,10.7ZM32.89,17.448l-5.96,15.5H39.1Z" transform="translate(5807.686 6600.613)" fill="#001850"/>
        <path id="Path_7813" data-name="Path 7813" d="M25.267,56.367A23.863,23.863,0,0,1,7.4,48.112,29.717,29.717,0,0,1,0,28.183,29.717,29.717,0,0,1,7.4,8.255,23.863,23.863,0,0,1,25.267,0,23.865,23.865,0,0,1,43.135,8.255a29.716,29.716,0,0,1,7.4,19.929,29.716,29.716,0,0,1-7.4,19.929A23.865,23.865,0,0,1,25.267,56.367Zm0-42.76a6.326,6.326,0,0,0-5.9,3.867c-1.244,2.447-1.874,6.05-1.874,10.71s.631,8.263,1.874,10.71a6.435,6.435,0,0,0,11.8,0c1.244-2.447,1.875-6.05,1.875-10.71s-.631-8.263-1.875-10.71A6.328,6.328,0,0,0,25.267,13.606Z" transform="translate(5931.01 6600.613)" fill="#ec691f"/>
        <path id="Path_7799" data-name="Path 7799" d="M-22910.391,959.276l15.32,56.367h15.762l8.316-33.1,7.441,33.1h16.629l14.449-56.367h-14.449l-7,31.322-9.625-31.322h-15.758l-5.7,31.322-7.875-31.322Z" transform="translate(28892.771 5641.336)" fill="#ec691f"/>
        <path id="Path_7798" data-name="Path 7798" d="M-22829.322,959.277h-42.9v56.353h42.9v-13.247h-26.7V991.932h22.32V979.859h-22.32v-7.7h26.7Z" transform="translate(28934.27 5641.336)" fill="#ec691f"/>
        <path id="Path_7814" data-name="Path 7814" d="M17.871,56.353h0L0,56.351V0H33.367a23.893,23.893,0,0,1,8.569,2.074,16.288,16.288,0,0,1,6.11,4.7A15.9,15.9,0,0,1,49.571,23.6a15.251,15.251,0,0,1-4.018,4.838A18.01,18.01,0,0,1,39.628,31.6L51.28,56.348l-18.644,0-8.81-23.172H17.871V56.353Zm-1.3-46.295v12.9h12.95c.044-.005,4.4-.592,4.4-6.319s-4.359-6.575-4.4-6.583Z" transform="translate(6110.506 6600.613)" fill="#ec691f"/>
        <path id="Path_7812" data-name="Path 7812" d="M17,56.353H0V0H30.244c.87,0,8.654.152,13.864,5.417,3.2,3.23,4.786,7.727,4.727,13.368A15.552,15.552,0,0,1,46.24,27.9a14.431,14.431,0,0,1-5.709,4.7,21.893,21.893,0,0,1-8.3,2H17v21.75Zm.342-44.421V23.086h8.992s.08,0,.22,0c1.09,0,6.527-.269,6.527-5.581s-5.437-5.581-6.527-5.581c-.141,0-.22,0-.22,0Z" transform="translate(5881.431 6600.613)" fill="#ec691f"/>
        <path id="Path_64284" data-name="Path 64284" d="M-14983.641-2376.634l41.043-45.943,47.062,45.943h-36.117l-10.944-12.014-12.039,12.014Z" transform="translate(20589 9034)" fill="#001850"/>
        <path id="Path_64283" data-name="Path 64283" d="M-14878.025-2470l-64.847,81.351-44.872-43.5h37.211l7.661,9.3,38.854-47.15Z" transform="translate(20589 9034)" fill="#ec691f"/>
      </g>
    </g>
    <g id="Group_11605" data-name="Group 11605" transform="translate(179 -358)">
      <g id="Group_11604" data-name="Group 11604">
        <circle id="Ellipse_445" data-name="Ellipse 445" cx="59" cy="59" r="59" transform="translate(5250 6934)" fill="#001a4d"/>
        <path id="Path_7818" data-name="Path 7818" d="M7.509,6.864q.425.384.854.7t.835.565q.405.247.767.434t.671.318l-1.187,2.14a11.915,11.915,0,0,1-1.293-.787A15.064,15.064,0,0,1,6.949,9.3q-.569-.49-1.061-1a11.5,11.5,0,0,1-.859-1,3.821,3.821,0,0,1-1.293-.207,3.085,3.085,0,0,1-.984-.555,2.5,2.5,0,0,1-.627-.8A2.157,2.157,0,0,1,1.9,4.775a1.433,1.433,0,0,1,.135-.626A1.517,1.517,0,0,1,2.4,3.665a1.7,1.7,0,0,1,.531-.318,1.81,1.81,0,0,1,.651-.116,2.781,2.781,0,0,1,1.5.424A3.8,3.8,0,0,1,6.264,4.866a3.273,3.273,0,0,0,.878-.247,1.838,1.838,0,0,0,.574-.4,1.359,1.359,0,0,0,.309-.52,2,2,0,0,0,.092-.611,1.353,1.353,0,0,0-.1-.575.774.774,0,0,0-.27-.323.987.987,0,0,0-.4-.146,3.169,3.169,0,0,0-.487-.035H4.334a2.5,2.5,0,0,1-1.447-.4A3.257,3.257,0,0,1,1.932.6a4.384,4.384,0,0,1-.526-1.3A5.823,5.823,0,0,1,1.247-2,3.2,3.2,0,0,1,1.44-3.179a2.135,2.135,0,0,1,.526-.792,2,2,0,0,1,.767-.444,3.043,3.043,0,0,1,.917-.136h3.29V-5.8H-.239V-8.075H12.5V-5.8H9.458v3.523h-4.6a1.438,1.438,0,0,0-.849.182.674.674,0,0,0-.232.565,1.5,1.5,0,0,0,.058.394,1.041,1.041,0,0,0,.2.389,1.08,1.08,0,0,0,.405.293,1.645,1.645,0,0,0,.666.116H7.731a3.439,3.439,0,0,1,1.36.237,2.311,2.311,0,0,1,.892.656,2.574,2.574,0,0,1,.492.979,4.622,4.622,0,0,1,.15,1.2,4.861,4.861,0,0,1-.183,1.353,3.707,3.707,0,0,1-.564,1.161,3.777,3.777,0,0,1-.97.919,5.184,5.184,0,0,1-1.389.636ZM8.261-11.3a1.556,1.556,0,0,1,.1-.565,1.356,1.356,0,0,1,.285-.454,1.335,1.335,0,0,1,.439-.3,1.4,1.4,0,0,1,.564-.111,1.412,1.412,0,0,1,.56.111,1.339,1.339,0,0,1,.449.308,1.491,1.491,0,0,1,.3.464,1.5,1.5,0,0,1,.111.58,1.585,1.585,0,0,1-.1.575,1.266,1.266,0,0,1-.289.449,1.364,1.364,0,0,1-.444.293,1.435,1.435,0,0,1-.555.106,1.471,1.471,0,0,1-.56-.106,1.28,1.28,0,0,1-.449-.3,1.507,1.507,0,0,1-.3-.459A1.489,1.489,0,0,1,8.261-11.3ZM18.892-5.8h-2.1V6.986H14.27V-5.8H12.138V-8.075h2.171a5.9,5.9,0,0,1-.54-2.322,4.153,4.153,0,0,1,.28-1.524,3.316,3.316,0,0,1,.864-1.252,4.14,4.14,0,0,1,1.5-.843,6.829,6.829,0,0,1,2.176-.308,8.888,8.888,0,0,1,2.861.454A10.237,10.237,0,0,1,24-12.582a13.946,13.946,0,0,1,2.3,2.009,24.474,24.474,0,0,1,2.094,2.609H26.07q-.338-.353-.786-.8t-1-.9q-.55-.454-1.182-.883a10.686,10.686,0,0,0-1.327-.767,8.085,8.085,0,0,0-1.447-.54,5.9,5.9,0,0,0-1.534-.2,3.888,3.888,0,0,0-1.187.161,2.274,2.274,0,0,0-.83.454,1.775,1.775,0,0,0-.482.691,2.428,2.428,0,0,0-.154.883A3.249,3.249,0,0,0,16.263-9a4.772,4.772,0,0,0,.371.924h2.258Zm14.656,0h-3.03v3.422H25.665a1.077,1.077,0,0,0-.671.151.6.6,0,0,0-.179.485,1.476,1.476,0,0,0,.053.373.95.95,0,0,0,.2.373,1.177,1.177,0,0,0,.4.293,1.491,1.491,0,0,0,.646.121h2.7a3.142,3.142,0,0,1,1.346.257,2.3,2.3,0,0,1,.878.7,2.821,2.821,0,0,1,.478,1.045A5.436,5.436,0,0,1,31.657,2.7a5.4,5.4,0,0,1-.3,1.817,4.279,4.279,0,0,1-.912,1.509,4.346,4.346,0,0,1-1.524,1.035,5.519,5.519,0,0,1-2.142.384A6.522,6.522,0,0,1,24.3,6.96a7.782,7.782,0,0,1-2.166-1.327A9.076,9.076,0,0,1,20.4,3.609,10.17,10.17,0,0,1,19.239,1.04L21.41.132a9.067,9.067,0,0,0,.849,1.837,7.879,7.879,0,0,0,1.225,1.56,5.758,5.758,0,0,0,1.529,1.085,3.993,3.993,0,0,0,1.761.4,2.911,2.911,0,0,0,1.008-.162,2,2,0,0,0,.733-.454,1.936,1.936,0,0,0,.449-.707,2.611,2.611,0,0,0,.154-.919,2.043,2.043,0,0,0-.072-.6.743.743,0,0,0-.232-.363.87.87,0,0,0-.4-.177,3.115,3.115,0,0,0-.569-.045h-2.74a2.178,2.178,0,0,1-1.278-.373,3.161,3.161,0,0,1-.888-.944,4.372,4.372,0,0,1-.521-1.247,5.335,5.335,0,0,1-.169-1.292,3.029,3.029,0,0,1,.174-1.105,1.735,1.735,0,0,1,.492-.707,1.872,1.872,0,0,1,.757-.379,3.911,3.911,0,0,1,.96-.111H28V-5.8H18.216V-8.075H33.548Zm-.359,0V-8.075H47.044V-5.8h-2.1V6.975H42.423V3.231l-.029-.01q-.222.172-.487.338a3.867,3.867,0,0,1-.584.3,3.994,3.994,0,0,1-.7.212,4.2,4.2,0,0,1-.859.081,4.384,4.384,0,0,1-2.156-.51A4.967,4.967,0,0,1,36.045,2.3,6.918,6.918,0,0,1,35.032.414a10.369,10.369,0,0,1-.521-2.14,3.425,3.425,0,0,0,1.037-.283,2.115,2.115,0,0,0,.675-.49,1.75,1.75,0,0,0,.367-.636,2.363,2.363,0,0,0,.111-.722,2.991,2.991,0,0,0-.154-.929A4.766,4.766,0,0,0,36.055-5.8Zm6.069,2.362a3.086,3.086,0,0,1-.482,1.721A3.276,3.276,0,0,1,37.348-.545,3.621,3.621,0,0,0,37.729.475a2.585,2.585,0,0,0,.564.691,2.123,2.123,0,0,0,.695.394,2.442,2.442,0,0,0,.782.126,2.615,2.615,0,0,0,1.563-.469A3.61,3.61,0,0,0,42.423-.09V-5.8H38.554a5.065,5.065,0,0,1,.536,1.216A4.234,4.234,0,0,1,39.258-3.442ZM61.042-5.8h-2.1V6.975h-2.7V-.161H52.06Q52.06.525,52.04,1a3.334,3.334,0,0,1-.106.777.8.8,0,0,1-.27.434.842.842,0,0,1-.511.136,1.962,1.962,0,0,1-.8-.172,3.034,3.034,0,0,1-.733-.459A4.02,4.02,0,0,1,49,1.055,5.177,5.177,0,0,1,48.5.263a4.583,4.583,0,0,1-.323-.833,2.979,2.979,0,0,1-.116-.792,1.31,1.31,0,0,1,.111-.59.7.7,0,0,1,.314-.318,1.366,1.366,0,0,1,.492-.126q.289-.025.656-.025h6.6V-5.8H46.685V-8.075H61.042Zm9.733,4.472.318.035a3.181,3.181,0,0,0,.328.015,4.993,4.993,0,0,0,1.221-.151A4.619,4.619,0,0,0,73.651-1.8V-8.075h4.622V-5.8h-2.1V6.975H73.651V.455a2.038,2.038,0,0,1-.3.121q-.183.061-.4.111T72.5.768a3.426,3.426,0,0,1-.444.03q.048.252.077.454a3.3,3.3,0,0,1,.029.464,3.9,3.9,0,0,1-.328,1.63,3.536,3.536,0,0,1-.9,1.221,4.032,4.032,0,0,1-1.351.767A5.077,5.077,0,0,1,67.92,5.6,4.873,4.873,0,0,1,66.25,5.33a5.142,5.142,0,0,1-1.37-.742,6.088,6.088,0,0,1-1.114-1.105,10.058,10.058,0,0,1-.9-1.368A13.593,13.593,0,0,1,62.155.591Q61.841-.2,61.59-.979l2.152-.908q.174.575.391,1.181A12.126,12.126,0,0,0,64.625.47a8.893,8.893,0,0,0,.608,1.07,5.069,5.069,0,0,0,.733.878,3.255,3.255,0,0,0,.868.6,2.39,2.39,0,0,0,1.018.217,1.629,1.629,0,0,0,1.3-.515A2.031,2.031,0,0,0,69.6,1.333a2.329,2.329,0,0,0-.164-.919,1.732,1.732,0,0,0-.453-.636A1.8,1.8,0,0,0,68.3-.59a3.039,3.039,0,0,0-.859-.116q-.1,0-.232.005t-.28.015l-.289.02q-.145.01-.251.02V-2.917a1.546,1.546,0,0,0,.179.01h.178a5.121,5.121,0,0,0,.936-.081,2.174,2.174,0,0,0,.753-.278,1.413,1.413,0,0,0,.5-.53,1.7,1.7,0,0,0,.183-.828,1.333,1.333,0,0,0-.425-1.1,1.774,1.774,0,0,0-1.148-.343,3.671,3.671,0,0,0-1.061.156,8.177,8.177,0,0,0-1.013.379l-.579-2.2a6.338,6.338,0,0,1,1.423-.525,6.081,6.081,0,0,1,1.394-.172,4.552,4.552,0,0,1,1.606.273,3.821,3.821,0,0,1,1.25.747,3.368,3.368,0,0,1,.81,1.115,3.308,3.308,0,0,1,.289,1.378,3.307,3.307,0,0,1-.429,1.65,4.005,4.005,0,0,1-1.278,1.337l.01.05a3.4,3.4,0,0,1,.425.252Q70.592-1.483,70.776-1.332ZM84.351-5.8h-2.1V6.975H79.73V-5.8H77.6V-8.075h6.754Zm-6.243-8.822q.039.161.116.449a5.386,5.386,0,0,0,.217.631,5.419,5.419,0,0,0,.347.7,2.978,2.978,0,0,0,.507.641,2.474,2.474,0,0,0,.7.469,2.209,2.209,0,0,0,.921.182,2.234,2.234,0,0,0,.9-.172,2.5,2.5,0,0,0,.695-.444,3,3,0,0,0,.516-.616,5.248,5.248,0,0,0,.367-.681,4.882,4.882,0,0,0,.236-.646q.087-.308.145-.52l2.065.747q-.1.414-.261.908a6.954,6.954,0,0,1-.425,1A6.2,6.2,0,0,1,84.52-11a4.32,4.32,0,0,1-.883.843,4.373,4.373,0,0,1-1.172.59,4.666,4.666,0,0,1-1.491.222,4.87,4.87,0,0,1-1.824-.328,4.419,4.419,0,0,1-1.442-.929,5.429,5.429,0,0,1-1.052-1.433A7.79,7.79,0,0,1,76-13.889ZM83.992-5.8V-8.075H97.848V-5.8h-2.1V6.975H93.226V3.231l-.029-.01q-.222.172-.487.338a3.867,3.867,0,0,1-.584.3,4,4,0,0,1-.7.212,4.2,4.2,0,0,1-.859.081,4.384,4.384,0,0,1-2.156-.51A4.968,4.968,0,0,1,86.848,2.3,6.918,6.918,0,0,1,85.835.414a10.369,10.369,0,0,1-.521-2.14,3.425,3.425,0,0,0,1.037-.283,2.114,2.114,0,0,0,.675-.49,1.75,1.75,0,0,0,.367-.636,2.364,2.364,0,0,0,.111-.722,2.991,2.991,0,0,0-.154-.929A4.768,4.768,0,0,0,86.858-5.8Zm6.069,2.362a3.086,3.086,0,0,1-.482,1.721A3.276,3.276,0,0,1,88.151-.545,3.62,3.62,0,0,0,88.532.475a2.585,2.585,0,0,0,.564.691,2.123,2.123,0,0,0,.695.394,2.442,2.442,0,0,0,.782.126,2.616,2.616,0,0,0,1.563-.469A3.609,3.609,0,0,0,93.226-.09V-5.8H89.357a5.065,5.065,0,0,1,.536,1.216A4.234,4.234,0,0,1,90.061-3.442Zm18.61,10.417V-1.877q-.116-.02-.227-.035a1.751,1.751,0,0,0-.236-.015,1.461,1.461,0,0,0-.7.162,1.442,1.442,0,0,0-.492.429,1.931,1.931,0,0,0-.289.606,2.473,2.473,0,0,0-.1.681,2.319,2.319,0,0,0,.019.293q.019.151.039.293h-2.239q-.058-.464-.15-.924a3.887,3.887,0,0,0-.251-.818,1.7,1.7,0,0,0-.405-.58.867.867,0,0,0-.6-.222.84.84,0,0,0-.5.146,1.15,1.15,0,0,0-.347.409,2.074,2.074,0,0,0-.2.621,4.482,4.482,0,0,0-.063.772,4.609,4.609,0,0,0,.371,1.888,5.5,5.5,0,0,0,.984,1.5,7.466,7.466,0,0,0,1.4,1.186,14.764,14.764,0,0,0,1.64.934L105.207,7.44a9.29,9.29,0,0,1-.955-.469,10.47,10.47,0,0,1-1.225-.8,13.22,13.22,0,0,1-1.3-1.125,8.792,8.792,0,0,1-1.182-1.433,7.689,7.689,0,0,1-.854-1.736A6.122,6.122,0,0,1,99.36-.151a5.753,5.753,0,0,1,.251-1.716,4.381,4.381,0,0,1,.719-1.408,3.466,3.466,0,0,1,1.129-.949,3.128,3.128,0,0,1,1.481-.348,2.883,2.883,0,0,1,.979.151,2.683,2.683,0,0,1,.724.384,2.812,2.812,0,0,1,.516.5,5.989,5.989,0,0,1,.357.5l.048-.01a2.614,2.614,0,0,1,.463-.646,2.66,2.66,0,0,1,.584-.449,2.513,2.513,0,0,1,.651-.257,2.9,2.9,0,0,1,.675-.081,3.261,3.261,0,0,1,.357.02q.183.02.376.061V-5.8H97.488V-8.075h15.8V-5.8h-2.1V6.975Z" transform="translate(5252.24 6994.636)" fill="#f5f5f5"/>
        <path id="Path_7821" data-name="Path 7821" d="M56.356,118A59.359,59.359,0,0,1,8.393,93.713,58.624,58.624,0,0,1,0,77.437H112.713a58.622,58.622,0,0,1-8.392,16.276A59.309,59.309,0,0,1,56.356,118Zm56.357-77.437H0A58.623,58.623,0,0,1,8.392,24.287a59.463,59.463,0,0,1,95.928,0,58.625,58.625,0,0,1,8.392,16.274v0h0Z" transform="translate(5252.344 6934)" fill="#ec691f"/>
        <path id="Path_7823" data-name="Path 7823" d="M65,130A65.017,65.017,0,0,1,39.7,5.108,65.017,65.017,0,0,1,90.3,124.892,64.591,64.591,0,0,1,65,130ZM65,3.679A61.321,61.321,0,1,0,126.32,65,61.391,61.391,0,0,0,65,3.679Z" transform="translate(5244 6928)" fill="#001a4d"/>
      </g>
      <path id="Path_64285" data-name="Path 64285" d="M2.188-.076V-22.908H6.8V-.076Zm23.441,0H21.252V-8.517a13.046,13.046,0,0,0-.28-3.465,2.43,2.43,0,0,0-.911-1.223,2.6,2.6,0,0,0-1.518-.436,3.509,3.509,0,0,0-2.04.623,3.139,3.139,0,0,0-1.238,1.651,14.27,14.27,0,0,0-.335,3.8V-.076H10.553v-16.54h4.065v2.43a6.623,6.623,0,0,1,5.451-2.8,6.567,6.567,0,0,1,2.648.522,4.436,4.436,0,0,1,1.814,1.332,4.824,4.824,0,0,1,.857,1.838,13.67,13.67,0,0,1,.241,2.944Zm19.034,0H40.6v-2.43A6.567,6.567,0,0,1,38.207-.4,6.134,6.134,0,0,1,35.427.3,6.3,6.3,0,0,1,30.545-2a9.345,9.345,0,0,1-2.032-6.409q0-4.205,1.978-6.393a6.448,6.448,0,0,1,5-2.188,6.192,6.192,0,0,1,4.8,2.3v-8.223h4.376ZM32.982-8.7a7.574,7.574,0,0,0,.732,3.831,3.307,3.307,0,0,0,2.959,1.713,3.221,3.221,0,0,0,2.57-1.285A5.93,5.93,0,0,0,40.3-8.283a6.49,6.49,0,0,0-1.028-4.1,3.253,3.253,0,0,0-2.632-1.254A3.288,3.288,0,0,0,34.033-12.4,5.594,5.594,0,0,0,32.982-8.7ZM48.4-18.858v-4.049h4.376v4.049Zm0,18.782v-16.54h4.376V-.076ZM59.961-11.57l-3.971-.716a6.186,6.186,0,0,1,2.3-3.551,8.435,8.435,0,0,1,4.859-1.152,10.472,10.472,0,0,1,4.361.693,4.349,4.349,0,0,1,2.017,1.76,9.025,9.025,0,0,1,.584,3.917l-.047,5.108a17.735,17.735,0,0,0,.21,3.216,9.387,9.387,0,0,0,.786,2.219h-4.33q-.171-.436-.421-1.293-.109-.389-.156-.514a7.89,7.89,0,0,1-2.4,1.635A6.869,6.869,0,0,1,61.035.3a5.636,5.636,0,0,1-4.026-1.386,4.607,4.607,0,0,1-1.472-3.5,4.7,4.7,0,0,1,.67-2.5,4.376,4.376,0,0,1,1.877-1.682,14.667,14.667,0,0,1,3.481-1.02,23.844,23.844,0,0,0,4.252-1.075V-11.3a2.266,2.266,0,0,0-.623-1.8,3.733,3.733,0,0,0-2.352-.537,3.132,3.132,0,0,0-1.822.459A3.193,3.193,0,0,0,59.961-11.57Zm5.856,3.551a27.354,27.354,0,0,1-2.663.67,8.022,8.022,0,0,0-2.383.763,1.825,1.825,0,0,0-.857,1.542A2.147,2.147,0,0,0,60.6-3.455a2.392,2.392,0,0,0,1.744.67A3.79,3.79,0,0,0,64.6-3.564a2.741,2.741,0,0,0,1.043-1.448,8.642,8.642,0,0,0,.171-2.134ZM88.9-.076H84.523V-8.517a13.046,13.046,0,0,0-.28-3.465,2.43,2.43,0,0,0-.911-1.223,2.6,2.6,0,0,0-1.518-.436,3.509,3.509,0,0,0-2.04.623,3.139,3.139,0,0,0-1.238,1.651,14.269,14.269,0,0,0-.335,3.8V-.076H73.824v-16.54h4.065v2.43a6.623,6.623,0,0,1,5.451-2.8,6.567,6.567,0,0,1,2.648.522A4.436,4.436,0,0,1,87.8-15.136a4.824,4.824,0,0,1,.857,1.838,13.669,13.669,0,0,1,.241,2.944Zm2.961-11.276A14.521,14.521,0,0,1,92.9-17.207a10.746,10.746,0,0,1,2.126-3.13,8.889,8.889,0,0,1,2.951-2.056,12.535,12.535,0,0,1,4.921-.9,10.72,10.72,0,0,1,8.075,3.13q3.029,3.13,3.029,8.706,0,5.529-3.006,8.651A10.637,10.637,0,0,1,102.965.314a10.746,10.746,0,0,1-8.1-3.107Q91.861-5.9,91.861-11.351Zm4.75-.156A8.555,8.555,0,0,0,98.4-5.628a5.836,5.836,0,0,0,4.548,2,5.785,5.785,0,0,0,4.524-1.986q1.768-1.986,1.768-5.957,0-3.925-1.721-5.856a5.823,5.823,0,0,0-4.571-1.931A5.861,5.861,0,0,0,98.355-17.4Q96.611-15.447,96.611-11.507ZM117-18.858v-4.049h4.376v4.049ZM117-.076v-16.54h4.376V-.076Zm8.288,0V-22.908h4.376V-.076Z" transform="translate(5242.813 7086)" fill="#0d1b3a"/>
    </g>
  </g>
</svg>
