<svg xmlns="http://www.w3.org/2000/svg" xmlns:xlink="http://www.w3.org/1999/xlink" width="961.248" height="1272.942" viewBox="0 0 961.248 1272.942">
  <defs>
    <clipPath id="clip-path">
      <path id="Path_56631" data-name="Path 56631" d="M2082.6,807.958,1741.16,879.526v619.215h571.1V940.555Z" transform="translate(-1741.16 -807.958)" fill="none"/>
    </clipPath>
    <linearGradient id="linear-gradient" x1="18.724" y1="0.792" x2="19.123" y2="0.03" gradientUnits="objectBoundingBox">
      <stop offset="0" stop-color="#fff"/>
      <stop offset="1" stop-color="#438be3"/>
    </linearGradient>
    <linearGradient id="linear-gradient-2" x1="0.898" y1="-0.16" x2="0.096" y2="1.17" xlink:href="#linear-gradient"/>
    <linearGradient id="linear-gradient-3" x1="31.126" y1="0.05" x2="31.111" y2="1.432" xlink:href="#linear-gradient"/>
    <linearGradient id="linear-gradient-4" x1="54.13" y1="0.082" x2="53.729" y2="1.661" xlink:href="#linear-gradient"/>
    <linearGradient id="linear-gradient-5" x1="18.721" y1="0.792" x2="19.119" y2="0.03" xlink:href="#linear-gradient"/>
    <linearGradient id="linear-gradient-6" x1="21.54" y1="0.004" x2="21.244" y2="1.193" gradientUnits="objectBoundingBox">
      <stop offset="0" stop-color="#fff"/>
      <stop offset="1" stop-color="#e9f6f9"/>
    </linearGradient>
    <linearGradient id="linear-gradient-7" x1="31.127" y1="0.05" x2="31.112" y2="1.432" gradientUnits="objectBoundingBox">
      <stop offset="0" stop-color="#fff"/>
      <stop offset="1" stop-color="#ff975d"/>
    </linearGradient>
    <linearGradient id="linear-gradient-8" x1="54.11" y1="0.082" x2="53.709" y2="1.661" xlink:href="#linear-gradient-7"/>
    <linearGradient id="linear-gradient-9" x1="0.58" y1="0.5" x2="0.443" y2="0.5" xlink:href="#linear-gradient-7"/>
    <linearGradient id="linear-gradient-10" x1="0.694" y1="0.284" x2="0.605" y2="0.389" xlink:href="#linear-gradient-7"/>
    <linearGradient id="linear-gradient-11" x1="0.096" y1="0.257" x2="0.5" y2="1" gradientUnits="objectBoundingBox">
      <stop offset="0"/>
      <stop offset="1" stop-color="#0d1b3a"/>
    </linearGradient>
  </defs>
  <g id="program_card" transform="translate(-3320.183 -506)">
    <path id="Path_56358" data-name="Path 56358" d="M2231.446,210.687c0-23.47,16.633-33.071,36.957-21.338l325.943,188.177c20.329,11.733,36.952,40.542,36.952,64.005l-.018,849.913c0,23.46-16.613,33.06-36.943,21.317L2268.4,1124.6c-20.335-11.734-36.96-40.538-36.96-64.013Z" transform="translate(1377.201 342.765)" fill="#fff"/>
    <path id="Path_56359" data-name="Path 56359" d="M2231.446,210.687c0-23.47,20.46-33.071,45.463-21.338l400.98,188.177c25.008,11.733,45.455,40.542,45.455,64.005l-.018,849.913c0,23.46-20.44,33.06-45.448,21.317L2276.909,1124.6c-25.014-11.734-45.466-40.538-45.466-64.013Z" transform="translate(1336.261 342.765)" fill="#fff1e9" style="mix-blend-mode: multiply;isolation: isolate"/>
    <path id="Path_56360" data-name="Path 56360" d="M2725.968,1281.771l.017-849.913c0-23.464-20.447-52.273-45.453-64.006L2279.547,179.676c-12.088-5.67-23.064-6.317-31.231-2.867v-.047l46.418-21.459c8.06-3.039,18.724-2.2,30.375,3.257l400.986,188.172c24.994,11.744,45.446,40.549,45.446,64.013l-.006,849.905c0,11.911-5.274,20.249-13.729,24.045l-42.7,19.538C2721.867,1299.948,2725.968,1292.258,2725.968,1281.771Z" transform="translate(1333.622 352.441)" fill="#ffd3bb"/>
    <g id="Group_9131" data-name="Group 9131" transform="translate(3320.183 1088.159)">
      <g id="Group_9130" data-name="Group 9130" clip-path="url(#clip-path)">
        <g id="Group_9129" data-name="Group 9129" transform="translate(32.647 -162.308)">
          <path id="Path_56497" data-name="Path 56497" d="M1814.11,1458.574l541.351-312.549,277.533,160.222-342.962,136.078-.148,62.024-65.127,37.6-22.687-13.1-141.547,81.732c-29.357,14.02-75.368-4.151-106.14-21.391l-129.439-74.746C1791.61,1494.429,1789.409,1472.84,1814.11,1458.574Z" transform="translate(-1797.489 -787.784)" fill="#0d1b3a" opacity="0.1" style="mix-blend-mode: multiply;isolation: isolate"/>
          <path id="Path_56498" data-name="Path 56498" d="M2804.306,1249.96l-438.9,253.391v-53.424l438.9-253.385Z" transform="translate(-2036.259 -809.024)" fill="#333"/>
          <path id="Path_56499" data-name="Path 56499" d="M2603.028,1060.955l-438.911,253.4,116.657,78.572,438.906-253.385Z" transform="translate(-1951.634 -752.018)" fill="#ff975d"/>
          <path id="Path_56500" data-name="Path 56500" d="M3045.293,1339.083l-3.09,8.622-43.555-24.935,8-16.957,26.57,10.748Z" transform="translate(-2302.495 -854.965)" fill="#00267e"/>
          <g id="Group_9114" data-name="Group 9114" transform="translate(618.492 449.266)">
            <path id="Path_56501" data-name="Path 56501" d="M2967.307,1325.466l-33-19.729c-7.385-4.2-17.553-3.555-28.783,2.919-22.561,13.024-40.871,44.721-40.871,70.776,0,13.114,4.639,22.3,12.121,26.538l32.992,19.708c7.389,4.188,17.549,3.533,28.756-2.942,22.572-13.018,40.867-44.705,40.867-70.764C2979.389,1338.89,2974.771,1329.708,2967.307,1325.466Z" transform="translate(-2864.652 -1303.082)" fill="#00267e"/>
            <path id="Path_56502" data-name="Path 56502" d="M3003.328,1366.278c0,26.059-18.287,57.744-40.859,70.763-11.211,6.475-21.369,7.131-28.758,2.943-7.48-4.221-12.1-13.414-12.1-26.532,0-26.055,18.295-57.732,40.859-70.762,11.23-6.484,21.4-7.129,28.785-2.92C2998.717,1344.013,3003.328,1353.195,3003.328,1366.278Z" transform="translate(-2888.601 -1317.387)" fill="#003f97"/>
            <path id="Path_56503" data-name="Path 56503" d="M3004.267,1373.393c0,23.738-16.67,52.614-37.227,64.493-20.561,11.863-37.242,2.244-37.242-21.5s16.67-52.608,37.242-64.485C2987.6,1340.024,3004.267,1349.648,3004.267,1373.393Z" transform="translate(-2892.041 -1321.468)" fill="#00267e"/>
            <path id="Path_56504" data-name="Path 56504" d="M3000.916,1390.689c0,15.972-11.211,35.375-25.018,43.352-13.838,7.988-25.035,1.513-25.035-14.453s11.2-35.363,25.035-43.346C2989.705,1368.263,3000.916,1374.734,3000.916,1390.689Z" transform="translate(-2900.9 -1332.404)" fill="#fff"/>
            <path id="Path_56505" data-name="Path 56505" d="M3000.916,1390.689c0,15.972-11.211,35.375-25.018,43.352-13.838,7.988-25.035,1.513-25.035-14.453s11.2-35.363,25.035-43.346C2989.705,1368.263,3000.916,1374.734,3000.916,1390.689Z" transform="translate(-2900.9 -1332.404)" fill="#438be3" opacity="0.2" style="mix-blend-mode: multiply;isolation: isolate"/>
            <path id="Path_56506" data-name="Path 56506" d="M2997.344,1394.243c0,13.7-9.627,30.363-21.492,37.222s-21.48,1.284-21.48-12.417,9.613-30.359,21.48-37.212S2997.344,1380.535,2997.344,1394.243Z" transform="translate(-2902.372 -1334.96)" fill="#003f97"/>
            <path id="Path_56507" data-name="Path 56507" d="M2977.12,1379.762a35.324,35.324,0,0,0-3.578,2.4c.686-.469,1.357-.906,2.055-1.306,11.867-6.842,21.492-1.3,21.492,12.408s-9.625,30.362-21.492,37.221-21.479,1.286-21.479-12.415a33.749,33.749,0,0,1,.4-5.025,37.677,37.677,0,0,0-.758,7.156c0,14.883,10.445,20.922,23.355,13.488,12.891-7.45,23.34-25.563,23.34-40.447C3000.46,1378.34,2990,1372.323,2977.12,1379.762Z" transform="translate(-2902.118 -1333.98)" fill="url(#linear-gradient)"/>
            <path id="Path_56508" data-name="Path 56508" d="M2996.446,1395.733c0,13.073-9.172,28.974-20.5,35.513s-20.508,1.237-20.508-11.847c0-13.068,9.176-28.969,20.508-35.507S2996.446,1382.656,2996.446,1395.733Z" transform="translate(-2902.822 -1335.882)" fill="url(#linear-gradient-2)"/>
            <path id="Path_56509" data-name="Path 56509" d="M2999.153,1410.492c0,8.926-6.27,19.786-14,24.263-7.734,4.455-14.006.842-14.006-8.094s6.271-19.788,14.006-24.253S2999.153,1401.559,2999.153,1410.492Z" transform="translate(-2909.427 -1344.038)" fill="url(#linear-gradient-3)"/>
            <g id="Group_9113" data-name="Group 9113" transform="translate(54.06 47.844)">
              <path id="Path_56510" data-name="Path 56510" d="M2990.961,1393.55c.387,1.652-.191,3.2-1.3,3.463s-2.32-.862-2.715-2.51.178-3.2,1.291-3.469C2989.346,1390.784,2990.566,1391.9,2990.961,1393.55Z" transform="translate(-2970.075 -1387.889)" fill="#003f97"/>
              <path id="Path_56511" data-name="Path 56511" d="M2961.271,1434.851c1.68.247,2.906,1.344,2.752,2.475s-1.648,1.844-3.328,1.609-2.91-1.334-2.752-2.468S2959.592,1434.623,2961.271,1434.851Z" transform="translate(-2957.93 -1406.309)" fill="#003f97"/>
              <path id="Path_56512" data-name="Path 56512" d="M2963.533,1456.974c1.537-.727,3.063-.7,3.406.052.34.734-.617,1.918-2.156,2.638s-3.057.694-3.408-.053S2962,1457.686,2963.533,1456.974Z" transform="translate(-2959.348 -1415.404)" fill="#003f97"/>
              <path id="Path_56513" data-name="Path 56513" d="M2977.831,1465.5c.637-1.06,1.6-1.641,2.172-1.312s.5,1.477-.135,2.543-1.6,1.652-2.166,1.314S2977.192,1466.575,2977.831,1465.5Z" transform="translate(-2966.08 -1418.624)" fill="#003f97"/>
              <path id="Path_56514" data-name="Path 56514" d="M2973.42,1410.358c1.42.938,1.988,2.542,1.3,3.581s-2.393,1.115-3.795.17c-1.418-.937-2-2.54-1.3-3.58S2972.008,1409.416,2973.42,1410.358Z" transform="translate(-2962.723 -1395.75)" fill="#003f97"/>
              <path id="Path_56515" data-name="Path 56515" d="M3009.879,1388.757c-.055,1.694-.887,3.043-1.867,3.011s-1.73-1.434-1.674-3.123.891-3.042,1.873-3.01S3009.938,1387.067,3009.879,1388.757Z" transform="translate(-2978.281 -1385.634)" fill="#003f97"/>
              <path id="Path_56516" data-name="Path 56516" d="M3021.336,1405.995c-.949.638-2.037.659-2.436.08-.385-.6.066-1.588,1.016-2.217s2.043-.66,2.438-.08C3022.75,1404.379,3022.289,1405.365,3021.336,1405.995Z" transform="translate(-2983.504 -1393.087)" fill="#003f97"/>
              <path id="Path_56517" data-name="Path 56517" d="M3019.861,1426.094c-.42-.092-.643-.656-.5-1.27s.568-1.021.979-.937.637.66.494,1.273S3020.264,1426.184,3019.861,1426.094Z" transform="translate(-2983.738 -1401.712)" fill="#003f97"/>
              <path id="Path_56518" data-name="Path 56518" d="M2996.578,1461.577a.871.871,0,0,1-.984-.676.859.859,0,0,1,.393-1.131c.381-.126.809.188.963.683A.848.848,0,0,1,2996.578,1461.577Z" transform="translate(-2973.738 -1416.792)" fill="#003f97"/>
              <path id="Path_56519" data-name="Path 56519" d="M3012.751,1443.616a.662.662,0,0,1-.9.233.67.67,0,0,1-.07-.932.609.609,0,1,1,.975.7Z" transform="translate(-2980.504 -1409.577)" fill="#003f97"/>
            </g>
            <path id="Path_56520" data-name="Path 56520" d="M2999.128,1421.194c0,5.261-3.709,11.661-8.254,14.294-4.564,2.644-8.256.5-8.256-4.765s3.691-11.661,8.256-14.293C2995.419,1413.8,2999.128,1415.936,2999.128,1421.194Z" transform="translate(-2914.249 -1350.264)" fill="#fff"/>
            <path id="Path_56521" data-name="Path 56521" d="M3000.86,1422.684c0,5.1-3.576,11.323-8.02,13.881-4.414,2.553-8.006.475-8.006-4.626,0-5.117,3.592-11.334,8.006-13.887C2997.284,1415.495,3000.86,1417.574,3000.86,1422.684Z" transform="translate(-2915.182 -1350.96)" fill="url(#linear-gradient-4)"/>
          </g>
          <path id="Path_56522" data-name="Path 56522" d="M2956.79,1286.908h.017l-40.09-24.138c-9.92-3.88-22.7-2.288-36.652,5.77-31.511,18.2-57.057,62.441-57.057,98.828h0l38.151,23.293,6.9-3.991h0c0-31.991,22.448-70.876,50.154-86.863s50.143-3.027,50.143,28.953l6.911-3.987C2975.269,1305.562,2968.153,1292.388,2956.79,1286.908Z" transform="translate(-2228.651 -836.018)" fill="#1959b1"/>
          <path id="Path_56523" data-name="Path 56523" d="M2895.737,1403.562h0c0-31.99,22.449-70.877,50.152-86.864s50.145-3.028,50.145,28.953h0l6.912-3.987h0c0-36.387-25.549-51.142-57.057-32.944s-57.055,62.434-57.055,98.822v.011Z" transform="translate(-2256.329 -852.91)" fill="#003f97"/>
          <path id="Path_56524" data-name="Path 56524" d="M2395.109,1697.816l-21.59-4.642-18.591-30.781,26.6-3.154Z" transform="translate(-2031.855 -1003.556)"/>
          <g id="Group_9116" data-name="Group 9116" transform="translate(243.322 650.314)">
            <path id="Path_56525" data-name="Path 56525" d="M2319.974,1672.355l-33-19.718c-7.384-4.2-17.557-3.565-28.786,2.92-22.563,13.02-40.864,44.713-40.864,70.767,0,13.114,4.639,22.308,12.108,26.544l33.009,19.706c7.379,4.185,17.547,3.543,28.759-2.93,22.563-13.032,40.854-44.718,40.854-70.776C2332.054,1685.784,2327.445,1676.6,2319.974,1672.355Z" transform="translate(-2217.324 -1649.977)"/>
            <path id="Path_56526" data-name="Path 56526" d="M2356,1713.175c0,26.058-18.29,57.746-40.853,70.774-11.211,6.475-21.379,7.114-28.761,2.932-7.483-4.225-12.109-13.419-12.109-26.533,0-26.05,18.289-57.74,40.86-70.764,11.228-6.476,21.4-7.12,28.782-2.923C2351.39,1690.909,2356,1700.092,2356,1713.175Z" transform="translate(-2241.268 -1664.285)" fill="#191818"/>
            <path id="Path_56527" data-name="Path 56527" d="M2356.931,1720.281c-.006,23.732-16.663,52.626-37.234,64.493s-37.237,2.249-37.237-21.5,16.674-52.612,37.237-64.486S2356.931,1696.543,2356.931,1720.281Z" transform="translate(-2244.708 -1668.36)" fill="#333"/>
            <path id="Path_56528" data-name="Path 56528" d="M2353.576,1737.588c0,15.956-11.206,35.369-25.027,43.344s-25.035,1.523-25.035-14.458c0-15.957,11.21-35.353,25.035-43.338S2353.576,1721.634,2353.576,1737.588Z" transform="translate(-2253.56 -1679.299)" fill="#fff"/>
            <path id="Path_56529" data-name="Path 56529" d="M2353.576,1737.588c0,15.956-11.206,35.369-25.027,43.344s-25.035,1.523-25.035-14.458c0-15.957,11.21-35.353,25.035-43.338S2353.576,1721.634,2353.576,1737.588Z" transform="translate(-2253.56 -1679.299)" fill="#ff975d" opacity="0.2" style="mix-blend-mode: multiply;isolation: isolate"/>
            <path id="Path_56530" data-name="Path 56530" d="M2350,1741.133c0,13.7-9.619,30.363-21.48,37.223-11.875,6.843-21.492,1.3-21.492-12.418,0-13.7,9.617-30.349,21.492-37.2S2350,1727.438,2350,1741.133Z" transform="translate(-2255.038 -1681.856)" fill="#0d1b3a"/>
            <path id="Path_56531" data-name="Path 56531" d="M2329.774,1726.647a34.322,34.322,0,0,0-3.55,2.4c.666-.453,1.347-.9,2.044-1.295,11.862-6.854,21.479-1.3,21.479,12.395s-9.617,30.365-21.479,37.225c-11.874,6.841-21.494,1.3-21.494-12.417a34.369,34.369,0,0,1,.408-5.016,38.1,38.1,0,0,0-.759,7.146c0,14.884,10.46,20.933,23.351,13.479s23.354-25.544,23.354-40.439S2342.665,1719.207,2329.774,1726.647Z" transform="translate(-2254.783 -1680.872)" fill="url(#linear-gradient-5)"/>
            <path id="Path_56532" data-name="Path 56532" d="M2349.116,1742.628c0,13.066-9.187,28.968-20.494,35.507-11.334,6.539-20.506,1.236-20.506-11.835s9.172-28.979,20.506-35.514C2339.93,1724.253,2349.116,1729.55,2349.116,1742.628Z" transform="translate(-2255.496 -1682.776)" fill="url(#linear-gradient-6)"/>
            <path id="Path_56533" data-name="Path 56533" d="M2351.834,1757.388c0,8.933-6.274,19.782-14.013,24.248s-14,.853-14-8.083,6.271-19.782,14-24.249S2351.834,1748.468,2351.834,1757.388Z" transform="translate(-2262.101 -1690.934)" fill="url(#linear-gradient-7)"/>
            <g id="Group_9115" data-name="Group 9115" transform="translate(54.065 47.845)">
              <path id="Path_56534" data-name="Path 56534" d="M2343.625,1740.449c.388,1.641-.19,3.2-1.3,3.463s-2.316-.862-2.716-2.513.193-3.187,1.3-3.455S2343.222,1738.8,2343.625,1740.449Z" transform="translate(-2322.749 -1734.789)" fill="#0d1b3a"/>
              <path id="Path_56535" data-name="Path 56535" d="M2313.944,1781.754c1.681.238,2.915,1.332,2.761,2.466s-1.66,1.849-3.337,1.609-2.9-1.337-2.745-2.465S2312.273,1781.508,2313.944,1781.754Z" transform="translate(-2310.61 -1753.206)" fill="#0d1b3a"/>
              <path id="Path_56536" data-name="Path 56536" d="M2316.2,1803.861c1.54-.718,3.071-.692,3.412.054s-.619,1.923-2.162,2.639-3.062.694-3.407-.054S2314.656,1804.581,2316.2,1803.861Z" transform="translate(-2312.021 -1762.3)" fill="#0d1b3a"/>
              <path id="Path_56537" data-name="Path 56537" d="M2330.491,1812.406c.642-1.061,1.613-1.65,2.164-1.311.571.336.51,1.465-.12,2.535s-1.609,1.648-2.173,1.308S2329.854,1813.461,2330.491,1812.406Z" transform="translate(-2318.752 -1765.522)" fill="#0d1b3a"/>
              <path id="Path_56538" data-name="Path 56538" d="M2326.083,1757.255c1.422.938,1.986,2.548,1.312,3.571-.7,1.045-2.395,1.124-3.813.182s-2-2.545-1.3-3.58S2324.676,1756.313,2326.083,1757.255Z" transform="translate(-2315.391 -1742.648)" fill="#0d1b3a"/>
              <path id="Path_56539" data-name="Path 56539" d="M2362.554,1735.652c-.065,1.694-.9,3.038-1.88,3.017s-1.729-1.428-1.67-3.128.892-3.037,1.867-3.01S2362.6,1733.964,2362.554,1735.652Z" transform="translate(-2330.955 -1732.531)" fill="#0d1b3a"/>
              <path id="Path_56540" data-name="Path 56540" d="M2374.014,1752.885c-.946.646-2.036.673-2.429.08s.063-1.589,1-2.212,2.051-.666,2.438-.069S2374.957,1752.267,2374.014,1752.885Z" transform="translate(-2336.185 -1739.983)" fill="#0d1b3a"/>
              <path id="Path_56541" data-name="Path 56541" d="M2372.52,1772.984c-.413-.091-.63-.66-.5-1.263s.577-1.028.991-.934.635.649.484,1.259C2373.366,1772.65,2372.928,1773.081,2372.52,1772.984Z" transform="translate(-2336.412 -1748.608)" fill="#0d1b3a"/>
              <path id="Path_56542" data-name="Path 56542" d="M2349.251,1808.48a.866.866,0,0,1-.98-.687.744.744,0,1,1,1.359-.448A.883.883,0,0,1,2349.251,1808.48Z" transform="translate(-2326.418 -1763.689)" fill="#0d1b3a"/>
              <path id="Path_56543" data-name="Path 56543" d="M2365.425,1790.5a.664.664,0,0,1-.907.235.675.675,0,0,1-.067-.934.667.667,0,0,1,.9-.24A.655.655,0,0,1,2365.425,1790.5Z" transform="translate(-2333.182 -1756.47)" fill="#0d1b3a"/>
            </g>
            <path id="Path_56544" data-name="Path 56544" d="M2351.792,1768.084c0,5.27-3.7,11.67-8.258,14.3s-8.258.49-8.258-4.771,3.7-11.665,8.258-14.3S2351.792,1762.817,2351.792,1768.084Z" transform="translate(-2266.914 -1697.158)" fill="#fff"/>
            <path id="Path_56545" data-name="Path 56545" d="M2353.528,1769.573a17.673,17.673,0,0,1-8.024,13.876c-4.421,2.56-8,.485-8-4.624s3.584-11.33,8-13.883C2349.941,1762.389,2353.528,1764.461,2353.528,1769.573Z" transform="translate(-2267.849 -1697.853)" fill="url(#linear-gradient-8)"/>
          </g>
          <path id="Path_56546" data-name="Path 56546" d="M2355.914,1695.269s-.823-45.479-31.929-34.838-54.841,58.8-54.841,58.8l2.975-35.848,45.928-33.367s28.125-13.156,35.794,5.613a99.91,99.91,0,0,1,6.95,36.424Z" transform="translate(-1995.789 -997.796)" fill="#0d1b3a"/>
          <g id="Group_9117" data-name="Group 9117" transform="translate(413.219 531.738)">
            <path id="Path_56547" data-name="Path 56547" d="M2562.02,1568.946l9.707,21.582v7.371l8.153-4.706v-3.945l-10.511-24.533Z" transform="translate(-2532.142 -1495.554)" fill="#122b63"/>
            <path id="Path_56548" data-name="Path 56548" d="M2721.317,1468.068v-5.735l-6.753-3.911-204.1,117.756V1593.9l5.32,3.226,204.082-117.758v-4.661l-1.176-.763v-4.35Z" transform="translate(-2510.468 -1450.865)" fill="#122b63"/>
            <path id="Path_56549" data-name="Path 56549" d="M2520.228,1593.947l-2.638-1.273v7.146l204.1-117.767v-4.35Z" transform="translate(-2513.461 -1458.972)" fill="#0d1b3a"/>
            <path id="Path_56550" data-name="Path 56550" d="M2714.564,1458.422l-204.1,117.756,6.768,3.906,204.082-117.751Z" transform="translate(-2510.468 -1450.865)" fill="#0d1b3a"/>
            <path id="Path_56551" data-name="Path 56551" d="M2722.864,1485.97l-204.087,117.75-1.187-.746,204.1-117.767Z" transform="translate(-2513.461 -1462.126)" fill="#0d1b3a"/>
            <path id="Path_56552" data-name="Path 56552" d="M2769.021,1449.632l9.709,21.572v7.358l8.159-4.706v-3.918l-10.511-24.555Z" transform="translate(-2619.172 -1445.384)" fill="#1959b1"/>
            <path id="Path_56553" data-name="Path 56553" d="M2769.021,1451.171l9.709,21.574v7.359l4.083-2.352v-5.008l-10.145-23.694Z" transform="translate(-2619.172 -1446.926)" fill="#003f97"/>
            <path id="Path_56554" data-name="Path 56554" d="M2562.02,1570.491l9.707,21.584v7.37l4.085-2.356v-5.014l-10.135-23.683Z" transform="translate(-2532.142 -1497.1)" fill="#0d1b3a"/>
          </g>
          <g id="Group_9119" data-name="Group 9119" transform="translate(186.124)">
            <g id="Group_9118" data-name="Group 9118" transform="translate(397.209 309.932)">
              <path id="Path_56555" data-name="Path 56555" d="M2803.987,1079.611l218.374,126.076v-13.351l-218.374-126.068Z" transform="translate(-2803.987 -1064.185)" fill="#003f97"/>
              <path id="Path_56556" data-name="Path 56556" d="M2807.729,1062.673l218.372,126.08-3.739,2.073-218.374-126.07Z" transform="translate(-2803.987 -1062.673)" fill="#1959b1"/>
              <path id="Path_56557" data-name="Path 56557" d="M3184.563,1293.358l-3.785,2.2V1282.2l3.785-2.19Z" transform="translate(-2962.403 -1154.05)" fill="#003f97"/>
            </g>
            <path id="Path_56558" data-name="Path 56558" d="M2797.561,1017.4l229.627,132.56v-23.145L2797.561,994.254Z" transform="translate(-2404.077 -723.976)" fill="#003f97"/>
            <path id="Path_56559" data-name="Path 56559" d="M3205.876,1210.923v23.145l-12.113,6.991v-23.146Z" transform="translate(-2570.652 -815.07)" fill="#003f97"/>
            <path id="Path_56560" data-name="Path 56560" d="M2118.632,761.784,2524.16,527.908l229.658,132.6.036,263.357-405.607,232.821-229.615-132.57Z" transform="translate(-2118.632 -527.908)" fill="#eff2f4"/>
            <path id="Path_56561" data-name="Path 56561" d="M2920.389,756.695l-405.38,234.068-.19,262.109,405.606-232.821Z" transform="translate(-2285.202 -624.098)" fill="#dfe6ea" opacity="0.2" style="mix-blend-mode: multiply;isolation: isolate"/>
            <path id="Path_56562" data-name="Path 56562" d="M2118.633,931.444v262.329l229.616,132.57.19-261.977Z" transform="translate(-2118.633 -697.568)" fill="#d1dae0" opacity="0.3" style="mix-blend-mode: multiply;isolation: isolate"/>
          </g>
          <path id="Path_56563" data-name="Path 56563" d="M2156.566,1242.111c8.213,8.211,15.718,14.5,18.875,47.343,3.129,32.849,3.836,81.6,2.962,100.986l-2.254,4.071,1.554,3.411v22.4s-46.813,23.41-63.07,38.438-30.921,40.363-33.721,61.321l-41.234,23.416-1.046,4.893s-11.006,8.036-20.966,8.036-22.192-1.226-55.916-19.222-97.154-57.134-106.939-64.646-24.808-18.523-27.071-35.464c-2.283-16.947.876-28.83.876-28.83s-1.229-29.886,2.793-34.953c0,0,0-30.228-.346-33.373s5.583-26.212,5.583-26.212,5.765-22.013,10.489-36.333c4.709-14.325,22.707-52.076,29-64.131s18-20.084,26.563-25.68,63.422-37.383,70.591-41.061,15.372-4.718,30.572,2.275,59.755,31.8,77.055,42.627S2149.4,1234.945,2156.566,1242.111Z" transform="translate(-1809.859 -786.786)" fill="#fff"/>
          <path id="Path_56564" data-name="Path 56564" d="M2176.149,1475.615l2.254-4.073c.874-19.385.167-68.136-2.962-100.984-1.659-17.213-4.51-27.136-8.024-33.86a11.69,11.69,0,0,0-7.883,1.695c-10.439,5.8-50.32,30.614-62.032,38.054s-29.494,18.418-33.013,28.969-22.314,86.523-24.812,96.739-6.22,25.344-11.606,31.223c-5.371,5.884-36.766,5.669-50.345-1.769s-96.6-54.208-112.694-66c-11.7-8.555-25.093-23.756-33.715-32.835.091,9.666.091,21.641.091,21.641-4.022,5.067-2.793,34.955-2.793,34.955s-3.159,11.882-.876,28.83c2.264,16.94,17.3,27.95,27.071,35.462s73.217,46.652,106.939,64.648,45.948,19.222,55.916,19.222,20.966-8.036,20.966-8.036l1.046-4.892,41.234-23.417c2.8-20.958,17.471-46.287,33.721-61.321s63.07-38.437,63.07-38.437v-22.4c-8.54,4.476-57.408,36.023-67.985,46.7s-70.04,75.171-70.04,75.171l-.868-3.393s60.329-65.36,70.908-76.041S2167.605,1480.1,2176.149,1475.615Zm-137.725,66.773.229-4.9,12.5-11.928s99.021-131.395,99.021-131.719,5.633-30.631,8.987-29.244,5.684,36.614,5.278,46.335-5.684,15.241-12.324,23.912-36.216,37.836-49.744,51.207S2038.425,1542.389,2038.425,1542.389Z" transform="translate(-1809.859 -867.889)" fill="#ff975d" opacity="0.2" style="mix-blend-mode: multiply;isolation: isolate"/>
          <path id="Path_56565" data-name="Path 56565" d="M2167.417,1282.968a11.706,11.706,0,0,0-7.883,1.694c-10.439,5.8-50.32,30.616-62.032,38.054s-29.494,18.417-33.013,28.97-22.314,86.521-24.812,96.739-6.22,25.344-11.606,31.221c-5.371,5.884-36.766,5.669-50.345-1.77s-96.6-54.207-112.694-65.995c-11.7-8.559-25.093-23.758-33.715-32.837.091,9.667.091,21.642.091,21.642-4.022,5.068-2.793,34.953-2.793,34.953s-3.159,11.883-.876,28.831c2.264,16.94,17.3,27.95,27.071,35.463s73.217,46.651,106.939,64.648,45.948,19.222,55.916,19.222,20.966-8.036,20.966-8.036l1.046-4.894,41.234-23.416c2.8-20.958,17.471-46.288,33.721-61.322s63.07-38.437,63.07-38.437v-22.4l-1.554-3.413,2.254-4.071c.874-19.386.167-68.135-2.962-100.985C2173.782,1299.616,2170.932,1289.692,2167.417,1282.968Z" transform="translate(-1809.859 -845.301)" opacity="0.2" fill="url(#linear-gradient-9)" style="mix-blend-mode: multiply;isolation: isolate"/>
          <path id="Path_56566" data-name="Path 56566" d="M2263.435,1618.27c-10.578,10.673-70.907,76.034-70.907,76.034v2s60.329-65.36,70.907-76.039,57.886-41.365,66.431-45.849l1.555-2.854C2322.879,1576.046,2274.011,1607.588,2263.435,1618.27Z" transform="translate(-1963.577 -966.697)" fill="#ff975d" opacity="0.2" style="mix-blend-mode: multiply;isolation: isolate"/>
          <path id="Path_56567" data-name="Path 56567" d="M2203.967,1659.239l-12.051,11.11.194,2.8,12.5-11.927Z" transform="translate(-1963.32 -1003.556)" fill="#438be3" opacity="0.2" style="mix-blend-mode: multiply;isolation: isolate"/>
          <path id="Path_56568" data-name="Path 56568" d="M2237.088,1772.271l-45.226,25.021,1.251,10.5,41.234-23.416A75.249,75.249,0,0,1,2237.088,1772.271Z" transform="translate(-1963.297 -1051.079)" fill="#ff975d" opacity="0.3" style="mix-blend-mode: multiply;isolation: isolate"/>
          <path id="Path_56569" data-name="Path 56569" d="M1897.746,1228.882c-6.895,5.078-14.13,11.622-18.609,20.217-6.295,12.055-24.295,49.8-29,64.13-4.725,14.319-10.487,36.333-10.487,36.333s-5.939,23.065-5.587,26.214c.123,1.167.212,6.044.257,11.729,8.621,9.081,22.021,24.279,33.715,32.836,16.1,11.79,99.121,58.547,112.694,66s44.973,7.651,50.345,1.768,9.11-21.012,11.606-31.222,21.3-86.193,24.813-96.739c1.959-5.894,8.38-11.91,15.694-17.377Z" transform="translate(-1812.857 -822.621)" opacity="0.3" fill="url(#linear-gradient-10)" style="mix-blend-mode: multiply;isolation: isolate"/>
          <g id="Group_9120" data-name="Group 9120" transform="translate(228.23 488.078)">
            <path id="Path_56570" data-name="Path 56570" d="M2191.957,1610.47h-.674v-68.027c0-.073,13.146-57.9,15.514-68.28,1.906-8.346,10.341-42.583,13.1-47.119,2.693-4.418,18.6-17.044,26.2-20.79,6.193-3.059,24.921-14.142,37.313-21.485,3.1-1.834,5.775-3.423,7.7-4.562,1.378-.788,2.8-1.663,4.23-2.541,6.92-4.249,14.076-8.655,18.525-7.4a4.835,4.835,0,0,1,3.058,2.617c3.666,7.219,6.357,24.732,7.2,46.846.861,22.538,1.822,62.809-.006,70.776l-1.179,3.273.981,3.67-12.813,28.8-.6-.261,12.71-28.591-.975-3.644,1.228-3.442c1.8-7.845.85-48.048-.017-70.556-.823-21.7-3.552-39.537-7.125-46.566a4.116,4.116,0,0,0-2.63-2.276c-4.17-1.173-11.515,3.342-18,7.317-1.449.883-2.867,1.76-4.234,2.567-1.925,1.125-4.605,2.708-7.72,4.551-12.4,7.338-31.141,18.441-37.357,21.515-7.522,3.708-23.264,16.183-25.91,20.527-2.587,4.222-10.779,37.069-13.022,46.923-2.374,10.376-15.511,68.211-15.511,68.211Z" transform="translate(-2191.283 -1370.05)" fill="#ff975d"/>
          </g>
          <g id="Group_9121" data-name="Group 9121" transform="translate(193.167 674.499)">
            <rect id="Rectangle_3370" data-name="Rectangle 3370" width="0.669" height="32.571" fill="#ff975d"/>
          </g>
          <g id="Group_9122" data-name="Group 9122" transform="translate(32.796 582.497)">
            <rect id="Rectangle_3371" data-name="Rectangle 3371" width="0.67" height="33.504" fill="#ff975d"/>
          </g>
          <g id="Group_9123" data-name="Group 9123" transform="translate(173.216 635.942)">
            <path id="Path_56571" data-name="Path 56571" d="M2096.826,1651.518l-.467-.481,26.235-25.856.479.475Z" transform="translate(-2096.359 -1625.18)" fill="#ff975d"/>
          </g>
          <g id="Group_9124" data-name="Group 9124" transform="translate(34.554 536.114)">
            <path id="Path_56572" data-name="Path 56572" d="M1860.519,1495.31l-3.41-42.329.669-.048,3.41,42.322Z" transform="translate(-1857.108 -1452.933)" fill="#ff975d"/>
          </g>
          <path id="Path_56573" data-name="Path 56573" d="M2258.234,1819.405l-32.941,19.03v3.233l32.941-18.809Z" transform="translate(-1977.352 -1070.896)" fill="#0d1b3a"/>
          <path id="Path_56574" data-name="Path 56574" d="M2233.035,1797.889V1802l-32.379,19.238-.417-4.717Z" transform="translate(-1966.819 -1061.85)" fill="#0d1b3a"/>
          <path id="Path_56575" data-name="Path 56575" d="M2209.812,1842.905l-14.1-8.155-.419-4.715-3.6,2.046-.8,5.066-2.418,1.266,5.986,3.861,15.355,3.864Z" transform="translate(-1961.871 -1075.366)" fill="#0d1b3a"/>
          <path id="Path_56576" data-name="Path 56576" d="M2248,1813.341l-14.668-8.362-32.376,19.237,14.1,8.154Z" transform="translate(-1967.122 -1064.831)" fill="#ff975d"/>
          <path id="Path_56577" data-name="Path 56577" d="M1992.434,1604.742c-11.164-5.016-47.8-22.372-75.676-40.432s-46.5-32.55-50.252-35.683c-.649-.556-1.688-1.466-2.915-2.624l4.094,15.088h0c5.668,4.386,24.078,17.4,49.765,34.047,27.871,18.066,63.82,34.992,74.984,40.015.229.1.478.215.713.315l7.171-7.562C1997.6,1606.948,1994.97,1605.888,1992.434,1604.742Z" transform="translate(-1825.28 -947.54)" fill="#ff975d"/>
          <path id="Path_56578" data-name="Path 56578" d="M1849.627,1358.787c.245-.757.483-1.5.724-2.222.032-.106.073-.229.1-.336-12.153-5.6-13.211-8.042-13.211-10.577v-13.7h-2.676v13.7C1834.567,1349.877,1836.854,1352.963,1849.627,1358.787Z" transform="translate(-1813.079 -865.956)" fill="#0d1b3a"/>
          <path id="Path_56579" data-name="Path 56579" d="M1846.4,1308.389c0,2.207-1.549,3.082-3.436,1.936l-17.761-10.718a7.9,7.9,0,0,1-3.427-6.08v-41.956c0-2.206,1.541-3.074,3.427-1.934l17.761,10.716a7.907,7.907,0,0,1,3.436,6.076Z" transform="translate(-1807.699 -831.135)" fill="#132d67"/>
          <path id="Path_56580" data-name="Path 56580" d="M1830.729,1270.375c-2.58,0-3.071-.884-3.7-1.827-.514-.772-3.128-14.271-4.061-19.162a2.264,2.264,0,0,0-1.194,2.292v41.954a7.9,7.9,0,0,0,3.427,6.081l17.761,10.718c1.887,1.146,3.436.27,3.436-1.936v-41.961a7,7,0,0,0-.791-3C1841.091,1265.964,1832.592,1270.375,1830.729,1270.375Z" transform="translate(-1807.699 -831.241)" fill="#0d1b3a"/>
          <path id="Path_56581" data-name="Path 56581" d="M1836.063,1260.919h.115a1.332,1.332,0,0,0,1.211-1.442c-.535-6.417-.246-23.476,7.348-25.437,7.563-1.955,37.8-5.4,52.906-7.044,1.515-1.134,3.013-2.19,4.465-3.182-12.273,1.316-49.272,5.377-58.034,7.643-11.306,2.914-9.437,27.214-9.336,28.244A1.322,1.322,0,0,0,1836.063,1260.919Z" transform="translate(-1813.076 -820.49)" fill="#0d1b3a"/>
          <path id="Path_56582" data-name="Path 56582" d="M2373.655,1582.209c2.3-1.494,17.387-11.073,19.671-12.727a6.025,6.025,0,0,0,2.619-5.456c-.084-1.663.553-8.3-3.714-5.932a143.129,143.129,0,0,0-14.78,10.12c-2.06,1.737-6.223,12.438-6.016,13.994C2371.513,1582.753,2371.939,1583.311,2373.655,1582.209Z" transform="translate(-2038.793 -960.82)" fill="#e36410"/>
          <path id="Path_56583" data-name="Path 56583" d="M2372.522,1582.66c-.141-1.343,3.954-11.877,5.808-13.444a141.731,141.731,0,0,1,14.679-10.05,2.72,2.72,0,0,1,1.277-.428.861.861,0,0,1,.618.258c.835.836.824,3.341.824,4.694,0,.335,0,.634.011.852a5.33,5.33,0,0,1-2.339,4.876c-1.815,1.312-11.988,7.813-16.886,10.94l-2.765,1.771a2.574,2.574,0,0,1-1.2.531Z" transform="translate(-2039.25 -961.302)" fill="#ec691f"/>
          <path id="Path_56584" data-name="Path 56584" d="M2396.017,1559a.858.858,0,0,0-.616-.258,2.713,2.713,0,0,0-1.278.428,141.97,141.97,0,0,0-14.68,10.05c-1.1.923-2.956,4.962-4.276,8.394l21.676-14.128C2396.842,1562.107,2396.815,1559.8,2396.017,1559Z" transform="translate(-2040.362 -961.302)" fill="#ff975d"/>
          <path id="Path_56585" data-name="Path 56585" d="M2242.293,1426.435c-5.387,3.266-11.277,11.276-13.723,21.571s-16.841,73.237-17.828,80.1-1.469,18.306,1.466,16.67c2.951-1.629,72.751-66.688,82.717-76.829s24.521-26.8,26.157-32.853c1.641-6.038,2.611-27.621,1.961-34.489s-.649-20.746-6.706-17.98C2310.3,1385.417,2242.293,1426.435,2242.293,1426.435Z" transform="translate(-1970.915 -887.109)" fill="#0d1b3a"/>
          <path id="Path_56586" data-name="Path 56586" d="M2214.682,1542.869a62.82,62.82,0,0,1,.643-12.433c.929-6.506,15.008-68.243,17.769-79.855,2.371-9.956,7.99-17.164,12.521-19.91,23.47-14.17,69.1-41.513,73.781-43.661a.86.86,0,0,1,.295-.106c1.548,1.22,2.151,9.517,2.381,12.667.082,1.172.156,2.28.255,3.246.644,6.767-.378,27.951-1.883,33.53-1.336,4.93-14.263,20.282-25.482,31.687C2284.926,1478.245,2226.483,1532.627,2214.682,1542.869Z" transform="translate(-1972.854 -889.059)" fill="#ff975d"/>
          <path id="Path_56587" data-name="Path 56587" d="M2094.3,1667.318l-7.169,7.563c10.989,4.893,23.548,9.337,37.392,9.337,14.152,0,23.307-5.271,23.307-5.271v-11.521s-9.154,5.261-23.307,5.261A89.739,89.739,0,0,1,2094.3,1667.318Z" transform="translate(-1919.264 -1006.953)" fill="#fff"/>
          <path id="Path_56588" data-name="Path 56588" d="M1851.3,1511.088c-4.878-4.555-13.191-13.151-16.948-20.56.065,3.171.106,7.458.125,11.758,4.786,9.249,16.493,20.243,19.739,22.944.3.247.7.562,1.178.945Z" transform="translate(-1812.987 -932.626)" fill="#fff"/>
          <path id="Path_56589" data-name="Path 56589" d="M1898.42,1647.591c10.428,7.044,22.9,15.172,34.1,21.811,11.03,6.533,30.817,17.61,48.844,27.451,4.391-7,9.871-10.457,15-11.782-1.443-2.958-4.466-6.722-6.706-7.791-2.991-1.418-42.691-22.755-50.426-27.877-7.75-5.127-37.08-23.2-41.666-26.043a6.253,6.253,0,0,0-6.229-.457C1896.064,1631.213,1897.885,1643.139,1898.42,1647.591Z" transform="translate(-1836.946 -988.019)" fill="#ec691f"/>
          <g id="Group_9125" data-name="Group 9125" transform="translate(56.335 635.596)">
            <path id="Path_56590" data-name="Path 56590" d="M1943.843,1669.289c-9.365-5.562-33.947-20.99-42.374-26.3.172.624.328,1.247.486,1.876,6.419,4.044,32.952,20.734,42.666,26.491,9.742,5.787,35.162,19.982,46.172,26.106.4-.33.808-.655,1.2-.948C1981.142,1690.463,1954.095,1675.364,1943.843,1669.289Z" transform="translate(-1897.541 -1632.323)" fill="#a44100"/>
            <path id="Path_56591" data-name="Path 56591" d="M1990.41,1701.114c-11.223-6.252-36.159-20.183-45.806-25.9-9.226-5.468-33.587-20.778-41.547-25.786.151.633.265,1.256.4,1.859,7.621,4.8,32.5,20.447,41.836,25.983,9.159,5.432,32.16,18.29,44.031,24.916C1989.683,1701.8,1990.045,1701.455,1990.41,1701.114Z" transform="translate(-1898.209 -1635.029)" fill="#a44100"/>
            <path id="Path_56592" data-name="Path 56592" d="M1988.157,1706.764c.257-.314.51-.618.766-.91-11.954-6.674-34.674-19.383-43.783-24.781-8.957-5.313-32.163-19.889-40.812-25.329.108.576.2,1.141.287,1.674,9.886,6.2,30.307,19.013,38.562,23.905C1952.586,1686.9,1976.594,1700.322,1988.157,1706.764Z" transform="translate(-1898.743 -1637.684)" fill="#a44100"/>
            <path id="Path_56593" data-name="Path 56593" d="M1941.58,1657.023c-9.8-5.812-35.118-21.709-44.815-27.8.3.681.58,1.385.84,2.078,7.6,4.784,34.734,21.844,44.815,27.829,11.2,6.628,41.915,23.756,51.6,29.153.563-.268,1.1-.493,1.614-.71C1986.084,1682.246,1953.42,1664.043,1941.58,1657.023Z" transform="translate(-1895.563 -1626.532)" fill="#a44100"/>
            <path id="Path_56594" data-name="Path 56594" d="M1942.9,1684.951c-7.993-4.737-27.4-16.9-37.6-23.3.091.625.165,1.215.239,1.728,8.8,5.942,21.6,14.361,33.521,21.427,10.19,6.033,28.824,16.516,47.723,26.838.315-.465.626-.9.946-1.322C1976.105,1703.833,1952.287,1690.51,1942.9,1684.951Z" transform="translate(-1899.154 -1640.167)" fill="#a44100"/>
            <path id="Path_56595" data-name="Path 56595" d="M1942.867,1663.247c-9.552-5.656-34.288-21.21-43.418-26.95.214.646.43,1.3.618,1.946,6.9,4.349,33.729,21.23,43.605,27.087,10.423,6.165,38.241,21.689,48.7,27.521.46-.3.92-.593,1.374-.849C1983.3,1686.176,1953.812,1669.736,1942.867,1663.247Z" transform="translate(-1896.692 -1629.508)" fill="#a44100"/>
            <path id="Path_56596" data-name="Path 56596" d="M1941.391,1653.935c11.75,6.959,44.09,24.989,53.86,30.425-1.488-2.234-3.418-4.259-4.752-4.9-2.923-1.394-42.807-22.818-50.6-27.985-6.592-4.357-28.718-18.031-38.167-23.865l-3.46-2.143a5.367,5.367,0,0,0-2.825-.88,4.565,4.565,0,0,0-.758.068c.058.132.124.266.2.406C1902.813,1630.044,1930.924,1647.737,1941.391,1653.935Z" transform="translate(-1894.691 -1624.583)" fill="#a44100"/>
          </g>
          <path id="Path_56597" data-name="Path 56597" d="M2084.156,1761.575c10.589,4.658,12.572,6.166,24.438,6.75s22.223-6.75,22.223-6.75v-25.137s-13.366,4.018-21.9,3.888c-8.521-.119-28.965-6.771-35.25-9.526-6.262-2.771-18.627-2.25-27,11.112C2063.622,1751.157,2079.032,1759.319,2084.156,1761.575Z" transform="translate(-1902.253 -1033.077)" fill="#ff975d"/>
          <path id="Path_56598" data-name="Path 56598" d="M1851.511,1598.354c3.6,2.665,11.416,8.179,20.932,14.607-.685-5.664-3.428-23.446-11.595-30.456-9.792-8.414-23.591-24.215-25.974-27.1s-1.841-11.154-2.358-15.492c-4.022,5.067-2.793,34.954-2.793,34.954C1832.825,1583.387,1843.936,1592.766,1851.511,1598.354Z" transform="translate(-1810.968 -953.39)" fill="#ff975d"/>
          <path id="Path_56599" data-name="Path 56599" d="M2016.2,1714c-11.865-.587-13.851-2.093-24.437-6.752s-64.924-34.436-86.333-47.113-47.466-30.84-55.029-36.42-18.684-14.968-21.787-23.483c0,0-3.159,11.883-.876,28.83,2.264,16.941,17.3,27.95,27.071,35.465s73.217,46.65,106.939,64.646,45.948,19.223,55.916,19.223,20.966-8.036,20.966-8.036l1.046-4.9v-24.605l-1.253-3.609S2028.071,1714.577,2016.2,1714Z" transform="translate(-1809.859 -978.746)" fill="#0d1b3a"/>
          <path id="Path_56600" data-name="Path 56600" d="M2016.746,1714c-11.867-.587-13.851-2.093-24.437-6.752s-64.923-34.436-86.333-47.113-47.467-30.84-55.028-36.42-18.685-14.968-21.788-23.483a46.994,46.994,0,0,0-.952,5.146,52.729,52.729,0,0,0,14.937,20.31c11.182,9.075,44.45,29.671,63.646,41.535s53.4,31.292,69.109,39.568c15.719,8.248,30.72,13.136,43.521,12.566a32.832,32.832,0,0,0,20.341-8.042l.462-.458-1.252-3.609S2028.614,1714.577,2016.746,1714Z" transform="translate(-1810.404 -978.746)" fill="#213460"/>
          <g id="Group_9126" data-name="Group 9126" transform="translate(26.834 429.542)">
            <path id="Path_56601" data-name="Path 56601" d="M2058.1,1370.666c-7.517-4.236-68.494-38.251-92.682-52.793s-67.354-42.665-74.875-47.4a8.874,8.874,0,0,0-9.6-.006c-7.561,15.082-22.492,46.789-26.721,59.654-4.489,13.615-9.913,34.168-10.439,36.162.971,5.166,3.422,10.972,7.371,14.682,5.389,5.062,22.887,22.888,69.948,51.33,47.09,28.435,89.749,47.406,105.273,47.406s17.822-7.684,19.62-14.223,14.224-58.848,17.814-72.906S2062.2,1372.989,2058.1,1370.666Z" transform="translate(-1843.789 -1269.05)" fill="#0d1b3a"/>
            <path id="Path_56602" data-name="Path 56602" d="M2029.365,1478.6c-12.76,0-52.3-16.088-103.19-46.831-43.676-26.385-61.4-43.294-68.067-49.657l-1.221-1.162c-2.744-2.581-4.96-6.883-6.006-11.634,1.143-4.316,6.066-22.691,10.126-35.043,4.137-12.539,18.551-43.129,25.9-57.9a5.183,5.183,0,0,1,1.961-.41,4.718,4.718,0,0,1,2.535.8c1.789,1.131,5.621,3.591,10.737,6.886,15.981,10.295,45.747,29.463,64.191,40.559,20.71,12.449,68.382,39.175,86.331,49.234,3.105,1.744,5.354,3,6.449,3.625,4.8,2.706,6.074,8.558,3.81,17.419-1.766,6.892-5.6,22.831-9.333,38.242-3.892,16.1-7.565,31.309-8.471,34.587C2043.461,1473.377,2042.027,1478.6,2029.365,1478.6Z" transform="translate(-1846.771 -1271.959)" fill="#ff975d"/>
            <path id="Path_56603" data-name="Path 56603" d="M1911.469,1283.916c-5.116-3.295-8.948-5.756-10.737-6.886a5.4,5.4,0,0,0-.837-.437c-5.4,13.509-30.96,78.4-26.245,83.064,5.262,5.222,20.3-4.62,26.032-9.181,4.7-3.747,36.712-33.057,47.982-43.395C1934.22,1298.576,1920.6,1289.8,1911.469,1283.916Z" transform="translate(-1856.101 -1272.221)" fill="#e9f6f9"/>
            <path id="Path_56604" data-name="Path 56604" d="M1885.524,1392.408c-5.455-2.346-23.02,11.007-32.83,19.029-.839,3.079-1.484,5.472-1.813,6.72,1.046,4.748,3.262,9.053,6.006,11.634l1.221,1.161c6.663,6.362,24.392,23.273,68.067,49.656,50.888,30.743,90.431,46.832,103.19,46.832,12.662,0,14.1-5.223,15.752-11.281.734-2.677,3.317-13.275,6.353-25.827C2016.541,1469.242,1892.549,1395.412,1885.524,1392.408Z" transform="translate(-1846.771 -1320.8)" fill="#0d1b3a"/>
            <path id="Path_56605" data-name="Path 56605" d="M2065.223,1495.271s-28.039,27.759-26.384,30.782,31.149,25.013,35.556,24.634,42.749-24.982,42.749-24.982-4.324-11.34-21.476-21.477S2065.223,1495.271,2065.223,1495.271Z" transform="translate(-1925.764 -1364.143)" fill="#0d1b3a"/>
            <path id="Path_56606" data-name="Path 56606" d="M2101.6,1472.717c-3.081-1.53-6.383-3.006-7.751-1.755s-1.754,3.5,3,6.509,51.438,31.291,53.817,32.794,4.376,1.5,5.751,0-1.809-3.565-4.687-5.7S2105.258,1474.518,2101.6,1472.717Z" transform="translate(-1948.54 -1353.743)" fill="#0d1b3a"/>
            <path id="Path_56607" data-name="Path 56607" d="M1973.339,1328.374c-2.569-1.509-4.925-2.9-7.008-4.162-18.444-11.1-48.21-30.264-64.191-40.559-5.116-3.3-8.948-5.755-10.737-6.886a4.718,4.718,0,0,0-2.535-.8,5.183,5.183,0,0,0-1.961.41c-7.349,14.767-21.763,45.356-25.9,57.9-4.06,12.353-8.983,30.727-10.126,35.043,1.046,4.751,3.262,9.053,6.006,11.634l1.221,1.162c4.621,4.408,14.563,13.893,34.755,28.073C1908.317,1386.354,1934.207,1354.306,1973.339,1328.374Z" transform="translate(-1846.771 -1271.959)" fill="#fff" opacity="0.2"/>
          </g>
          <path id="Path_56608" data-name="Path 56608" d="M1883.162,1693.665c-.594-2.732-2.561-6.4,2.988-2.7s35.747,21.93,47.272,29.038,44.855,26.484,49.71,28.755c4.825,2.286,6.406,3.428,4.825,6.555s-5.4,6.263-11.106,3.7-40.012-22.492-49.264-28.334-35.884-23.065-38.156-24.491S1884,1697.51,1883.162,1693.665Z" transform="translate(-1833.163 -1016.237)" fill="#213460"/>
          <path id="Path_56609" data-name="Path 56609" d="M1985.641,1749.729c-4.854-2.27-38.177-21.636-49.71-28.756s-41.717-25.339-47.271-29.038a3.14,3.14,0,0,0-.354-.229c.1.347.193.7.264,1.039.836,3.841,3.989,11.109,6.263,12.529s28.906,18.655,38.167,24.492,43.57,25.766,49.264,28.335a8.578,8.578,0,0,0,6.565.5,9.278,9.278,0,0,0,1.64-2.317C1992.048,1753.155,1990.468,1752.015,1985.641,1749.729Z" transform="translate(-1835.671 -1017.208)" fill="#0d1b3a"/>
          <path id="Path_56610" data-name="Path 56610" d="M2097.536,1822.893l-8.7-4.05a6.912,6.912,0,0,1-3.635-5.707v-3.123a2.924,2.924,0,0,1,.5-1.716,2.376,2.376,0,0,0-1.722,2.579V1814a6.905,6.905,0,0,0,3.632,5.7l8.7,4.044a2.337,2.337,0,0,0,3.14-.581A2.942,2.942,0,0,1,2097.536,1822.893Z" transform="translate(-1917.938 -1066.225)" fill="#1959b1"/>
          <path id="Path_56611" data-name="Path 56611" d="M1856.872,1679.625l-8.109-5.975a9.941,9.941,0,0,1-3.067-6.862l.065-3.229a2.392,2.392,0,0,1,.761-1.961c-1.347-.677-2.39.059-2.424,1.961l-.084,3.229a10.079,10.079,0,0,0,3.074,6.862l8.121,5.975c1.188,1.024,1.764,1.071,2.028.287C1857.12,1679.822,1857.008,1679.737,1856.872,1679.625Z" transform="translate(-1817.049 -1004.444)" fill="#1959b1"/>
          <path id="Path_56612" data-name="Path 56612" d="M2099.928,1821.4c0,2.19-1.623,3.233-3.617,2.3l-8.7-4.045a6.9,6.9,0,0,1-3.632-5.7v-3.122c0-2.2,1.638-3.245,3.632-2.309l8.7,4.051a6.888,6.888,0,0,1,3.617,5.7Z" transform="translate(-1917.938 -1066.173)" fill="#fff"/>
          <path id="Path_56613" data-name="Path 56613" d="M1857.435,1678.3c-.04,2.272-.491,2.815-2.226,1.311l-8.121-5.974a10.079,10.079,0,0,1-3.074-6.862l.084-3.229c.052-2.281,1.507-2.92,3.245-1.422l7.554,6.522a9.2,9.2,0,0,1,2.81,6.618Z" transform="translate(-1817.049 -1004.428)" fill="#fff"/>
          <path id="Path_56614" data-name="Path 56614" d="M2096.8,1812.567l-8.7-4.049a2.441,2.441,0,0,0-2.959.321,2.918,2.918,0,0,1,1.919.277l8.688,4.05a6.85,6.85,0,0,1,3.632,5.7v3.119a2.844,2.844,0,0,1-.674,1.981,2.363,2.363,0,0,0,1.713-2.567v-3.134A6.9,6.9,0,0,0,2096.8,1812.567Z" transform="translate(-1918.426 -1066.176)" fill="#438be3" opacity="0.3" style="mix-blend-mode: multiply;isolation: isolate"/>
          <path id="Path_56615" data-name="Path 56615" d="M1855.062,1668.647l-7.556-6.522c-1.46-1.247-2.7-.985-3.106.448a2.65,2.65,0,0,1,1.847.794l7.554,6.525a9.18,9.18,0,0,1,2.819,6.62l-.268,3.032c-.007.269-.015.523-.039.736.958.5,1.252-.2,1.285-1.978l.271-3.038A9.2,9.2,0,0,0,1855.062,1668.647Z" transform="translate(-1817.212 -1004.434)" fill="#438be3" opacity="0.3" style="mix-blend-mode: multiply;isolation: isolate"/>
          <path id="Path_56616" data-name="Path 56616" d="M2110.633,1768.176c-.435,0-.878-.006-1.316-.026-10.353-.511-12.982-1.685-20.782-5.184-1.038-.464-2.166-.966-3.413-1.521-4.613-2.024-18.355-9.219-36.807-19.285,6.559-10.034,14.807-11.542,19.181-11.542a16.82,16.82,0,0,1,6.6,1.273c6.332,2.792,26.827,9.47,35.5,9.6h.421c7.362,0,17.768-2.8,20.833-3.676v23.905c-1.655,1.081-10.321,6.458-20.211,6.458Z" transform="translate(-1902.944 -1033.568)" fill="#fff"/>
          <path id="Path_56617" data-name="Path 56617" d="M1872.066,1613.449c-8.757-5.942-16.13-11.149-19.686-13.767-6.669-4.929-18.315-14.469-21.527-23.086-.283-7.326-.447-25.323,1.661-32.239.039.585.061,1.183.083,1.806.181,4.354.386,9.283,2.241,11.533,3.014,3.649,16.632,19.083,26.048,27.177C1868.283,1591.225,1871.166,1606.883,1872.066,1613.449Z" transform="translate(-1811.448 -955.256)" fill="#fff"/>
          <path id="Path_56618" data-name="Path 56618" d="M2110.633,1768.176c-.435,0-.878-.006-1.316-.026-10.353-.511-12.982-1.685-20.782-5.184-1.038-.464-2.166-.966-3.413-1.521-4.613-2.024-18.355-9.219-36.807-19.285,6.559-10.034,14.807-11.542,19.181-11.542a16.82,16.82,0,0,1,6.6,1.273c6.332,2.792,26.827,9.47,35.5,9.6h.421c7.362,0,17.768-2.8,20.833-3.676v23.905c-1.655,1.081-10.321,6.458-20.211,6.458Z" transform="translate(-1902.944 -1033.568)" fill="#438be3" opacity="0.1" style="mix-blend-mode: multiply;isolation: isolate"/>
          <path id="Path_56619" data-name="Path 56619" d="M1872.066,1613.449c-8.757-5.942-16.13-11.149-19.686-13.767-6.669-4.929-18.315-14.469-21.527-23.086-.283-7.326-.447-25.323,1.661-32.239.039.585.061,1.183.083,1.806.181,4.354.386,9.283,2.241,11.533,3.014,3.649,16.632,19.083,26.048,27.177C1868.283,1591.225,1871.166,1606.883,1872.066,1613.449Z" transform="translate(-1811.448 -955.256)" fill="#438be3" opacity="0.1" style="mix-blend-mode: multiply;isolation: isolate"/>
          <path id="Path_56620" data-name="Path 56620" d="M2094.873,1750.021c0,5.652-3.967,7.955-8.882,5.109-4.9-2.825-8.879-9.7-8.879-15.369s3.979-7.967,8.879-5.133S2094.873,1744.355,2094.873,1750.021Z" transform="translate(-1915.053 -1034.744)" fill="#fff"/>
          <path id="Path_56621" data-name="Path 56621" d="M2135.3,1767.779c0,5.03-3.524,7.078-7.893,4.556a17.461,17.461,0,0,1-7.906-13.685c0-5.031,3.541-7.077,7.906-4.551A17.424,17.424,0,0,1,2135.3,1767.779Z" transform="translate(-1932.874 -1042.984)" fill="#fff"/>
          <path id="Path_56622" data-name="Path 56622" d="M2169.285,1764.336c0,3.182-2.231,4.479-5,2.884a11.046,11.046,0,0,1-4.993-8.643c0-3.187,2.234-4.478,4.993-2.884A11.02,11.02,0,0,1,2169.285,1764.336Z" transform="translate(-1949.605 -1043.822)" fill="#fff"/>
          <path id="Path_56623" data-name="Path 56623" d="M1872.424,1616.292a7.5,7.5,0,0,1-1.311,4.608h-.013a4.181,4.181,0,0,1-3.184,1.712c-.008.02-.03.02-.067.02a7.811,7.811,0,0,1-4.314-1.2c-4.909-2.841-8.874-9.724-8.874-15.38a9.237,9.237,0,0,1,.544-3.266,4.533,4.533,0,0,1,3.509-3.007.953.953,0,0,1,.242-.031,7.027,7.027,0,0,1,3.994.853c2.157,2.159,4.3,4.227,6.31,6.048A18.573,18.573,0,0,1,1872.424,1616.292Z" transform="translate(-1821.526 -978.526)" fill="#fff"/>
          <path id="Path_56624" data-name="Path 56624" d="M1844.856,1589.017a6.634,6.634,0,0,1-1.16,4.1h-.014a3.766,3.766,0,0,1-2.812,1.519l-.023.017h-.051a6.75,6.75,0,0,1-3.837-1.071,16.491,16.491,0,0,1-6.188-7.008v-.017c-.082-3.1-.132-7.118-.062-11.281v-.016a3.776,3.776,0,0,1,2.089-.949c.017-.011.017-.011.024-.011a6.609,6.609,0,0,1,4.138,1.035A17.463,17.463,0,0,1,1844.856,1589.017Z" transform="translate(-1811.442 -967.829)" fill="#fff"/>
          <path id="Path_56625" data-name="Path 56625" d="M2280.473,1428.565l13.576-7.9v7.445Z" transform="translate(-2000.552 -903.253)" fill="#0d1b3a"/>
          <path id="Path_56626" data-name="Path 56626" d="M2275.94,1567.565c0,2.207-1.539,3.069-3.427,1.936l-17.762-10.718a7.916,7.916,0,0,1-3.419-6.074v-41.967c0-2.2,1.543-3.069,3.419-1.93l17.762,10.712a7.905,7.905,0,0,1,3.427,6.076Z" transform="translate(-1988.299 -940.101)" fill="#0d2660"/>
          <path id="Path_56627" data-name="Path 56627" d="M2257.153,1639.727l-4.342,3.555v12.134l4.342-1.55,5.125.553v-10.907Z" transform="translate(-1988.921 -995.354)" fill="#0d1b3a"/>
          <path id="Path_56628" data-name="Path 56628" d="M2257.154,1639.727c-.011.331-4.343,3.555-4.343,3.555l9.465.229Z" transform="translate(-1988.921 -995.354)" fill="#1959b1"/>
          <path id="Path_56629" data-name="Path 56629" d="M2260.278,1529.559c-2.575,0-3.069-.892-3.7-1.841-.52-.763-3.128-14.26-4.059-19.146a2.244,2.244,0,0,0-1.187,2.28v41.967a7.918,7.918,0,0,0,3.419,6.074l17.762,10.718c1.888,1.134,3.427.272,3.427-1.936v-41.966a7.014,7.014,0,0,0-.791-2.994C2270.635,1525.145,2262.142,1529.559,2260.278,1529.559Z" transform="translate(-1988.299 -940.211)" fill="#0d1b3a"/>
          <g id="Group_9127" data-name="Group 9127" transform="translate(269.796 617.787)">
            <rect id="Rectangle_3372" data-name="Rectangle 3372" width="2.67" height="40.047" fill="#0d1b3a"/>
          </g>
          <g id="Group_9128" data-name="Group 9128" transform="translate(269.796 521.463)">
            <path id="Path_56630" data-name="Path 56630" d="M2264.337,1496.868a1.329,1.329,0,0,1-1.334-1.33v-23.87c0-7.321,3.123-13.821,5.842-18.678,3.081-5.482,12.927-24.425,13.015-24.621a1.343,1.343,0,0,1,2.381,1.242c-.1.187-9.977,19.174-13.063,24.684-2.728,4.845-5.506,10.711-5.506,17.372v23.87A1.328,1.328,0,0,1,2264.337,1496.868Z" transform="translate(-2263.003 -1427.654)" fill="#0d1b3a"/>
          </g>
        </g>
      </g>
    </g>
    <g id="Group_31455" data-name="Group 31455" transform="translate(4066.682 842.808)">
      <path id="Path_133598" data-name="Path 133598" d="M-3598.443,1052.06V1255.7l32.352-6.471V1057.251Z" transform="translate(3598.443 -618.233)"/>
      <path id="Path_133597" data-name="Path 133597" d="M-3598.443,1257.03V1051.06l32.352,8.8v191.976Z" transform="translate(3598.443 -1051.06)"/>
      <path id="Path_133599" data-name="Path 133599" d="M-3599.443,1173.729l17.578,1.353V1061.108s-.74-6.228-3.4-8.818-7.24-1.548-7.24-1.548l-6.936.607Z" transform="translate(3599.443 -617.932)" fill="#141414"/>
      <path id="Path_133601" data-name="Path 133601" d="M-3529.873,989.12l-11.16,58.092-3.635,21.885s118.145,260.61,122.467,310.043,27.908,111.347-43.092,148.709-90.434-55.772-90.434-55.772V1302.35l-29.484,2.194s-4.623,86.678,0,160.368,61.234,98.007,108.861,91.088,115.842-59.362,81.639-182.484-120.475-304.42-120.475-304.42l4.109-20.365,9.494-47.091Z" transform="translate(3600.212 -801.15)" fill="url(#linear-gradient-11)"/>
      <path id="Path_133600" data-name="Path 133600" d="M-3594.891,1051.563l34.693,1.4a14.959,14.959,0,0,1,6.756,2.736,17.23,17.23,0,0,1,4.289,6.3v109.667l-38.781,4.377V1062.817a18.931,18.931,0,0,0-2.094-7.114A11.792,11.792,0,0,0-3594.891,1051.563Z" transform="translate(3605.512 -618.895)" fill="#333"/>
    </g>
    <g id="Group_31457" data-name="Group 31457" transform="matrix(0.978, 0.208, -0.208, 0.978, 4070.006, 725.075)">
      <g id="Group_30905" data-name="Group 30905" transform="translate(0 0)">
        <path id="Path_132307" data-name="Path 132307" d="M65.5,0,88.844,28.362,53.806,65.584,38.516,97.717l-13.427,72.24,34.745-14.651,25.706-14.848,14.928,9.87-17.854,28.9L25.662,206.3,5.319,193.644,0,182.785l8.2-79.557L21.5,60.9,33.685,36.3Z" transform="translate(31.524 99.965)" fill="#ffcaa7"/>
        <path id="Path_132308" data-name="Path 132308" d="M0,0V24.028c0,3.711,2.451,7.423,7.356,10.254,9.809,5.663,25.712,5.663,35.521,0,4.9-2.831,7.357-6.543,7.357-10.254V0Z" transform="translate(117.065 270.903)"/>
        <ellipse id="Ellipse_970" data-name="Ellipse 970" cx="25.118" cy="14.502" rx="25.118" ry="14.502" transform="translate(117.065 256.402)" fill="#b3b3b3"/>
        <path id="Path_132309" data-name="Path 132309" d="M0,0V18.023c0,2.784,1.841,5.568,5.519,7.693,7.359,4.248,19.289,4.248,26.647,0,3.679-2.124,5.519-4.909,5.519-7.693V0Z" transform="translate(123.34 250.295)"/>
        <path id="Path_132310" data-name="Path 132310" d="M7.356,2.72C2.452,4.617,0,7.862,0,11.573v142.4c0,3.711,2.452,7.423,7.356,10.255a33.693,33.693,0,0,0,12.987,3.984V0A44.4,44.4,0,0,0,7.356,2.72Z" transform="translate(117.065 103.235)" fill="#c16c3d"/>
        <g id="Group_30904" data-name="Group 30904" transform="translate(92.328 129.522)">
          <path id="Path_132311" data-name="Path 132311" d="M17.815,1.225A6.191,6.191,0,0,0,12.868.132,6.125,6.125,0,0,0,8.146,7.393s.721,2.661,2.268,14.729C14.84,63.188,9.955,95.239.108,127.193a1.791,1.791,0,0,0,.6,2.083s8.642,6.485,8.642,6.485C17.7,115.039,22.467,94.316,22.031,73.6L26.459,7.707Z" transform="translate(0 0)" fill="#1a1a1a"/>
          <path id="Path_132312" data-name="Path 132312" d="M21.507,44.85c-2.039,34.675-7.349,56.358-17.875,83.645a1.873,1.873,0,0,1-3.538-1.219C9.967,95.242,14.851,63.191,10.425,22.124,8.878,10.056,8.157,7.395,8.157,7.395A6.125,6.125,0,0,1,20.141,4.857C21,8.9,22.437,28.4,21.507,44.85Z" transform="translate(8.632 6.48)" fill="#333"/>
        </g>
        <path id="Path_132313" data-name="Path 132313" d="M22.534,5.762C16.411,1.059,7.91-.4,0,.09V168.3c7.91.88,16.411-.448,22.534-3.984,4.906-2.832,7.358-6.543,7.358-10.254V17.418C29.892,13.706,27.44,9.528,22.534,5.762Z" transform="translate(137.408 103.145)" fill="#ffad78"/>
        <path id="Path_132314" data-name="Path 132314" d="M0,8.928v125.2a24.907,24.907,0,0,0,3.588-1.689c3.887-2.242,6.028-5.066,6.028-7.95V0A40.037,40.037,0,0,1,0,8.928Z" transform="translate(155.026 132.723)" fill="#ffa163" opacity="0.75"/>
        <path id="Path_132315" data-name="Path 132315" d="M40.722,72.955s31.745-5.429,28.034-29.77c0,0-19.835-29.287-25.6-36.711S24.1-4.266,10.306,9.188C-7.6,26.055,3.271,37.417,3.271,37.417Z" transform="translate(96.686 71.541)" fill="#ffbf95"/>
        <path id="Path_132316" data-name="Path 132316" d="M44.914,41.507c-2.664-3.929-19.92-29.326-25.15-36.062A14.441,14.441,0,0,0,8.2,0,19.608,19.608,0,0,0,0,1.946L41.1,55.91A18.61,18.61,0,0,0,44.914,41.507Z" transform="translate(117.98 74.201)" fill="#ff9650"/>
        <path id="Path_132317" data-name="Path 132317" d="M65.5,0,85.54,31.872,44.986,56.913,27.95,92.093,18.394,172.78l41.44-17.474L85.54,140.458v18.626l-25.262,13.7L18.394,190.32,5.318,193.644,0,182.785l8.2-79.557L21.5,60.9,33.684,36.3Z" transform="translate(51.868 112.625)" fill="#ffa163"/>
        <path id="Path_132318" data-name="Path 132318" d="M3.076,34.072,32.661,75.435c13.462,13.319,42.715-12.609,29.157-26.4L32.329,7.313C25.384.036,19.72.5,13.548,0,2.246,7.979-4.181,22.551,3.076,34.072Z" transform="translate(70.176 27.71)" fill="#999"/>
        <path id="Path_132319" data-name="Path 132319" d="M32.636,44.549l-.15-.154L2.988,2.665A24.841,24.841,0,0,0,0,0,22.341,22.341,0,0,1,.353,14.686L33.08,58.369A19.275,19.275,0,0,0,34.292,56C35.6,52.878,36.378,48.355,32.636,44.549Z" transform="translate(97.46 34.055)" fill="#fff" opacity="0.5" style="mix-blend-mode: overlay;isolation: isolate"/>
        <path id="Path_132320" data-name="Path 132320" d="M5.363,0c0,7.009,10.537,13.753,20.343,12.66L0,27.508Z" transform="translate(111.701 240.423)" fill="#ab4a0a"/>
        <path id="Path_132321" data-name="Path 132321" d="M11.476,0c-.342,6.875,11.572,13.729,20.342,12.66L0,48.964,2.612,10.113Z" transform="translate(85.552 99.965)" fill="#ffcaa7"/>
        <path id="Path_132322" data-name="Path 132322" d="M80.695,28.462S11.076,0,11.076,0L0,28.846,69.62,57.3a10.667,10.667,0,0,0,2.411.661c6.951,1.041,13.986-4.868,15.712-13.2C89.26,37.45,86.177,30.7,80.695,28.462Z" transform="translate(7.432 0.78)" fill="#b3b3b3"/>
        <path id="Path_132323" data-name="Path 132323" d="M60.074,24.6,0,0A12.641,12.641,0,0,1,1.221,6.867L65.7,32.622C65.137,28.9,63.108,25.839,60.074,24.6Z" transform="translate(27.046 7.104)" fill="#fff" opacity="0.5" style="mix-blend-mode: overlay;isolation: isolate"/>
        <path id="Path_132324" data-name="Path 132324" d="M25.555,17.088c-1.727,8.331-8.761,14.24-15.711,13.2S-1.342,21.649.386,13.318,9.146-.922,16.1.119,27.281,8.758,25.555,17.088Z" fill="#e6e6e6"/>
        <path id="Path_132325" data-name="Path 132325" d="M8.787,25.087a8,8,0,0,1-6.715-3.628A13.28,13.28,0,0,1,.331,11.2C1.655,4.814,6.6,0,11.839,0a8,8,0,0,1,6.713,3.629,13.272,13.272,0,0,1,1.741,10.26C18.969,20.273,14.024,25.087,8.787,25.087Z" transform="translate(2.658 2.66)"/>
      </g>
      <path id="Path_132334" data-name="Path 132334" d="M23.72.784,27.852,0s9.754-.028,15.085,1.825c5.331,1.837,6.955,8.45,6.955,8.45S47.2,28.955,46.32,35.182,31.212,52.8,31.212,52.8L17.784,57.25,4.67,54.73,0,48.039,1.545,37.405l4.323,5.958,2.688,3.265s6.955,3.707,13.965,1.411S36.565,37.405,36.565,37.405s3.707-5.331,3.819-9.659-3.36-7.666-3.36-7.666Z" transform="translate(81.959 38.602)" fill="#505050"/>
      <path id="Path_132333" data-name="Path 132333" d="M16.328,0a8.343,8.343,0,0,1,1.949,4.905c.437,4.239,1.154,7.022-.8,15.539s-6.988,18.535-6.988,18.535A48.726,48.726,0,0,1,5.488,44.3,38.712,38.712,0,0,1,0,48.24L14.492,68.164a60.11,60.11,0,0,0,5.745-4.5,58.127,58.127,0,0,0,4.894-5.079,54.008,54.008,0,0,0,3.505-7.167c1.646-4.054,3.035-9.049,3.035-9.049a.972.972,0,0,1,.907,0,4.33,4.33,0,0,1,1.165,1.014l7.4,10.566,3.449-12.7L44.3,36.409l-3.046-7.117Z" transform="translate(111.395 41.588)" fill="#333"/>
      <path id="Path_132335" data-name="Path 132335" d="M29.476,3.309,44,23.445l-8.153,3.707s-8.691-.358-14.5-2.693a20.461,20.461,0,0,1-8.691-6.68L0,0S2.9,6.283,13.809,7.347C24.761,8.4,29.476,3.309,29.476,3.309Z" transform="translate(81.917 86.32)" fill="#212121"/>
    </g>
  </g>
</svg>
