<svg xmlns="http://www.w3.org/2000/svg" xmlns:xlink="http://www.w3.org/1999/xlink" width="1712.583" height="1088.835" viewBox="0 0 1712.583 1088.835">
  <defs>
    <clipPath id="clip-path">
      <path id="Path_54734" data-name="Path 54734" d="M2175.149,740.441,1653.71,439.388c-7.2-4.154-18.826-4.154-25.995.012l-968.2,562.658c-7.149,4.155-7.111,10.891.085,15.046l521.438,301.053c7.2,4.155,18.827,4.155,25.976,0l968.2-562.658c7.168-4.166,7.131-10.9-.065-15.057Z" transform="translate(-654.175 -436.274)" fill="none"/>
    </clipPath>
  </defs>
  <g id="tech" transform="translate(-741.417 -875.241)">
    <path id="Path_57088" data-name="Path 57088" d="M1074.288-4.231c327.668,0,388.507,216.244,388.507,543.911S801.536,998.825,473.869,998.825-70.041,719.007-70.041,391.34,746.621-4.231,1074.288-4.231Z" transform="translate(905.35 965.251) scale(1)" fill="#ff975d" opacity="0.16">
  
    </path>
    
    <path id="Path_57089" data-name="Path 57089" d="M1074.288,998.825c327.667,0,388.507-216.244,388.507-543.911S801.536-4.231,473.869-4.231-70.041,275.586-70.041,603.254,746.621,998.825,1074.288,998.825Z" transform="translate(905.349 965.251)" fill="#ff975d" opacity="0.16"/>
    <g id="Group_9059" data-name="Group 9059" transform="translate(741.417 875.241)">
      <g id="Group_8713" data-name="Group 8713" transform="translate(0 0)">
        <g id="Group_8712" data-name="Group 8712" transform="translate(0)">
          <path id="Path_54701" data-name="Path 54701" d="M2215.951,698.712,1821.858,471.182c-53.773-31.046-141.49-31.057-194.914-.01L615.19,1059.139c-53.424,31.047-53.119,81.855.655,112.9l394.094,227.53c53.774,31.047,141.489,31.057,194.913.01L2216.606,811.614C2270.03,780.567,2269.725,729.758,2215.951,698.712Z" transform="translate(-543.896 -396.139)" fill="#161616" opacity="0.1"/>
          <path id="Path_54702" data-name="Path 54702" d="M521.454,1535.262V1504.8l14.569-2.141,1.468,41.418L530.78,1564Z" transform="translate(-521.432 -836.023)" fill="#cdcdcc"/>
          <path id="Path_54703" data-name="Path 54703" d="M2162.051,666.828,1767.958,439.3c-53.774-31.046-141.491-31.057-194.914-.01L561.289,1027.255c-53.424,31.047-53.118,81.855.655,112.9l394.093,227.53c53.774,31.046,141.49,31.057,194.914.01L2162.705,779.729C2216.13,748.682,2215.824,697.874,2162.051,666.828Z" transform="translate(-521.417 -382.842)" fill="#cdcdcc"/>
          <path id="Path_54704" data-name="Path 54704" d="M3379.312,920.637l-.02-31.67-36.271,16.788,13.339,34.507Z" transform="translate(-1698.15 -580.087)" fill="#d9d9d8"/>
          <path id="Path_54705" data-name="Path 54705" d="M740.833,1146.344c-12.272-7.085-12.336-18.673-.145-25.758s32.216-7.1,44.488-.011l103.658,59.846c12.272,7.085,12.336,18.7.145,25.781s-32.216,7.074-44.488-.011l-103.658-59.847Zm-136.6-161.418c-7.2-4.155-7.234-10.891-.084-15.046l968.2-562.658c7.169-4.166,18.8-4.166,25.995-.012l521.439,301.053c7.2,4.154,7.234,10.891.065,15.057l-968.2,562.658c-7.15,4.155-18.78,4.155-25.976,0L604.231,984.926ZM1823.346,493.667c-5.076-2.931-5.083-7.725-.04-10.656,5.023-2.919,13.3-2.931,18.376,0l113.79,65.7c5.076,2.931,5.1,7.736.079,10.655-5.043,2.931-13.34,2.931-18.416,0l-113.79-65.7Zm144.349,84.549c-5.679-3.279-5.708-8.6-.066-11.88,5.623-3.268,14.811-3.268,20.49.012,5.659,3.267,5.69,8.589.067,11.857-5.642,3.279-14.83,3.279-20.49.012Zm194.356,31.719-394.094-227.53c-53.774-31.046-141.49-31.057-194.914-.01L561.289,970.362c-53.424,31.047-53.118,81.855.655,112.9l394.094,227.53c53.773,31.046,141.489,31.057,194.913.01L2162.706,722.837c53.424-31.047,53.118-81.855-.655-112.9Z" transform="translate(-521.417 -359.116)" fill="#fff"/>
          <path id="Path_54706" data-name="Path 54706" d="M1039.188,1721.368,935.53,1661.521c-12.272-7.085-32.3-7.074-44.488.011s-12.126,18.673.145,25.758l103.658,59.846c12.272,7.085,32.3,7.1,44.488.011s12.127-18.7-.145-25.781Z" transform="translate(-671.771 -900.062)" fill="#454545"/>
          <path id="Path_54707" data-name="Path 54707" d="M2884.136,635.773l-113.79-65.7c-5.075-2.93-13.353-2.919-18.376,0-5.043,2.931-5.036,7.725.041,10.656l113.79,65.7c5.076,2.931,13.372,2.931,18.416,0,5.023-2.919,5-7.725-.08-10.655Z" transform="translate(-1450.081 -446.181)" fill="#454545"/>
          <path id="Path_54708" data-name="Path 54708" d="M3019.718,712.841c-5.679-3.279-14.867-3.279-20.49-.012-5.642,3.279-5.613,8.6.066,11.88,5.66,3.267,14.848,3.267,20.491-.012,5.622-3.268,5.592-8.59-.067-11.857Z" transform="translate(-1553.016 -505.608)" fill="#454545"/>
          <g id="Group_8711" data-name="Group 8711" transform="translate(77.392 44.98)">
            <g id="Group_8710" data-name="Group 8710" clip-path="url(#clip-path)">
              <g id="Group_8709" data-name="Group 8709" transform="translate(-360.985 -218.101)">
                <path id="Path_54709" data-name="Path 54709" d="M659.51,701.428l-131.9,65.114L451.7,649.159l207.806,52.27Zm219.328,27.478L388.465,613.076l244.6,359.544L920.625,805.507c-29.716-22.437-43.658-49.692-41.786-76.6ZM814.72,935.776l146.673-88.794c40.988,20.78,110.816,23.324,110.816,23.324l-3.441,118.3c-97.024,11.011-254.049-52.825-254.049-52.825ZM1094.8,851.623c-47.51,1.627-95.886-6.319-135.62-23.859L766.154,939.936c55.451,23.785,200.3,78.607,329.5,64.989v-.005l-.855-153.3Zm359.831-99.505q-10.4,2.273-20.706,4.316c-75.755,15.019-130.554,17.281-160.011,16.983-9.678,16.062-25.559,31.139-47.624,43.961-22.454,13.049-48.949,22.4-77.194,28.031l1.192,211.736L1543.043,828.9q-50.282-38.643-88.416-76.781Zm-803.175-255.3,23.166-58.635L833.6,449.8l-10.729,58.149L651.452,496.818Zm359.369-43.147L660.5,427.456l-89.616,194.76,317.695,75.05c9.508-17.029,25.878-33.013,49.107-46.512,31.131-18.091,69.987-29.057,110.542-32.893l-37.4-164.187v0ZM987.786,352.593,756.411,219.008,674.605,396.794,1003.456,421.4l-15.67-68.809Zm160.458-46.337L957.852,196.332l-81.666,47.459,145.077,83.76,126.981-21.3Zm-490.694,738,65-55.776L881.1,1039.125l-55,61.544L657.55,1044.254ZM296.883,540.527l103.578-193.56,194.219,45.064L495.728,587.314,296.883,540.527ZM1353.121,258.9l-140.212,26.544L1007.817,167.034l92.789-53.923L1353.121,258.9Zm32.624,7.506L927.39,62.144l-867.723,586,830.756,560.019,205.69-119.533-.275-51.825c-36.8,3.083-76.371,2.027-118.119-3.174-42.925-5.348-88.277-15.092-134.81-28.951a999.586,999.586,0,0,1-115.484-42.233L596.556,1038.5l-38.55-22.257,33.251-19.323L318.969,596.662,34.944,529.573l41.531-24.135L520.114,610.227h0L711.943,193.335l-49.367-28.5,38.3-22.257,136.76,78.958L919.3,174.075,782.542,95.117l38.3-22.257,386.951,223.406,177.953-29.859ZM1094.115,478.895l-26.734-113.038,133.974-22.909,36.15,121.13-143.39,14.817Zm379.033-162.026-43.39-25.051-386.279,64.8,59.315,260.326c44.725,2.734,88.244,14,122.562,33.809,43.234,24.961,63.1,58.429,59.538,91.161v.009c26.794-.4,73.361-3.436,136.683-16.353q3.289-.672,6.675-1.387h0q-33.98-38.275-55.12-75.6c-33.135-58.51-42.819-115.627-28.808-169.766,8.147-31.46,24.306-61.89,48.021-90.461,19.036-22.938,42.979-44.74,71.135-64.789,3.237-2.3,6.475-4.537,9.67-6.7ZM1620.255,650.59c-120.27-128.731,2.562-228.345,2.562-228.345l212.113,120.248c-24.281,27.816-214.675,108.1-214.675,108.1Zm248.707-105.2L1618.355,400.7c-39.36,28.842-63.814,61.409-72.727,96.8-13.284,52.721,7.971,110.57,63.3,172.849l0,0c75.306-28.417,162.845-68.486,260.039-124.969Zm81.229,46.9-42.679-24.64c-90.156,52.392-180.249,95.736-267.774,128.827q-2.121.8-4.237,1.595l0,0q23.456,22.84,52.794,46.411l261.894-152.2Z" transform="translate(-34.944 -62.144)" fill="#dcd5cd"/>
                <path id="Path_54710" data-name="Path 54710" d="M1829.511,1091.944c-58.323-33.673-152.895-33.673-210.84,0s-57.628,88.448.7,122.121c58.306,33.664,152.886,33.668,210.823,0s57.627-88.458-.679-122.122Z" transform="translate(-677.39 -481.084)" fill="#c4d87d"/>
                <path id="Path_54711" data-name="Path 54711" d="M1580.52,1192.028c-58.324-33.673-58.633-88.453-.7-122.121s152.517-33.674,210.84,0c58.307,33.663,58.624,88.448.679,122.122s-152.517,33.665-210.823,0Zm248.435-144.375c-34.317-19.813-77.837-31.075-122.562-33.808l2.978,13.039-26.839,2-27.02,2.018-.142-.581-3.546-15.562c-40.556,3.836-79.411,14.8-110.542,32.893-23.229,13.5-39.6,29.483-49.107,46.512l25.2,5.954,4.06.956-10.2,14.6-10.162,14.536-18.637-4.4c-1.871,26.909,12.07,54.164,41.786,76.6l17.87-10.386,38.55,22.257-17.87,10.385c39.734,17.541,88.11,25.486,135.62,23.859l-.088-15.713-.013-2.323h54.322l.076,11.823c28.245-5.633,54.74-14.982,77.194-28.031,22.065-12.823,37.947-27.9,47.624-43.961-15.367-.156-23.836-1.008-24.788-1.11l9.628-30.954-.207-.02c.225.021,9.272.843,26.351.59v-.009c3.558-32.732-16.3-66.2-59.539-91.161Z" transform="translate(-638.543 -459.045)" fill="#fff"/>
                <path id="Path_54712" data-name="Path 54712" d="M1351.242,1341.748l-38.55-22.257-17.87,10.385-287.562,167.113,15.254,22.422-50.54,11.457-6.521-9.584L932.2,1540.607l38.55,22.256,130.868-76.052c-12.024-5.3-19.01-8.742-19.8-9.131l17.628-11.942,17.619-11.947c.4.2,8.789,4.3,23.28,10.514l193.021-112.172,17.87-10.385Z" transform="translate(-409.14 -586.513)" fill="#fff"/>
                <path id="Path_54713" data-name="Path 54713" d="M917.833,1021.306l-4.06-.956-25.2-5.953-317.7-75.052-6.166,13.419-52.51-8.2,7.919-17.209h0L76.475,822.568,34.944,846.7l284.031,67.091-4.28-6.284,50.541-11.457,23.236,34.156,490.367,115.829,18.637,4.4,10.162-14.536,10.2-14.6Z" transform="translate(-34.944 -379.274)" fill="#fff"/>
                <path id="Path_54714" data-name="Path 54714" d="M2296.866,1069.893q-3.381.714-6.675,1.387c-63.322,12.917-109.889,15.957-136.683,16.353-17.079.253-26.125-.568-26.35-.59l.207.02-9.628,30.954c.952.1,9.421.954,24.788,1.109,29.458.3,84.257-1.964,160.012-16.983q10.3-2.043,20.706-4.316h0q-14.044-14.022-26.376-27.935Zm479.271-156.539L2737.586,891.1c-97.194,56.483-184.733,96.552-260.039,124.969q12.186,13.712,26.569,27.715,2.12-.794,4.238-1.595c87.524-33.092,177.618-76.436,267.774-128.828l.009-.005Z" transform="translate(-903.56 -407.854)" fill="#fff"/>
                <path id="Path_54715" data-name="Path 54715" d="M1907.156,1385.473h-54.322l.013,2.323.088,15.713.855,153.3v.005q9.936-1.048,19.746-2.65l14.97,30.284q-16.816,2.76-34.529,4.243l.275,51.824,54.171-31.481-1.192-211.736-.075-11.823Z" transform="translate(-793.084 -614.03)" fill="#fff"/>
                <path id="Path_54716" data-name="Path 54716" d="M1596.63,1622.722q-9.793,1.607-19.747,2.65c-129.2,13.617-274.045-41.2-329.5-64.989-14.491-6.216-22.876-10.312-23.281-10.514l-17.619,11.947-17.629,11.942c.788.389,7.774,3.832,19.8,9.131a999.591,999.591,0,0,0,115.484,42.233c46.534,13.86,91.885,23.6,134.81,28.952,41.748,5.2,81.324,6.256,118.12,3.175q17.7-1.483,34.528-4.242l-14.969-30.284Z" transform="translate(-516.177 -682.591)" fill="#fff"/>
                <path id="Path_54717" data-name="Path 54717" d="M1470.268,385.091l-145.077-83.76-19.145,11.126L1267.495,290.2l19.146-11.126-136.76-78.958-38.3,22.257,49.367,28.5,4.046-8.794,52.51,8.2-12.088,26.271L1436.79,410.133l15.671,68.809,34.938,2.614-6.783,31.21-20.791-1.556v0l37.4,164.187,3.546,15.563.141.581,27.02-2.018,26.839-2-2.978-13.039-59.315-260.326-22.342,3.75-15.264-30.234,15.39-2.584Z" transform="translate(-483.949 -119.684)" fill="#fff"/>
                <path id="Path_54718" data-name="Path 54718" d="M1109.924,280.3l-52.51-8.2-4.047,8.794L861.541,697.789,853.622,715l52.51,8.2,6.174-13.418,89.616-194.76-23.536-1.761,6.783-31.21,30.861,2.309,81.805-177.786,12.088-26.271Z" transform="translate(-376.369 -149.706)" fill="#fff"/>
                <path id="Path_54719" data-name="Path 54719" d="M2124.356,437.946l-44.014-25.412L1902.39,442.393l7.97,4.6-38.3,22.257-29.218-16.869-126.981,21.3-15.39,2.584,15.264,30.234,22.342-3.75,386.279-64.8Z" transform="translate(-729.542 -208.272)" fill="#dcd5cd"/>
                <path id="Path_54720" data-name="Path 54720" d="M1750.59,308.532l-7.97-4.6L1355.669,80.525l-38.3,22.257,136.76,78.958,19.146-11.126,38.55,22.257L1492.679,204,1683.071,313.92l29.218,16.869,38.3-22.257Z" transform="translate(-569.772 -69.81)" fill="#fff"/>
                <path id="Path_54721" data-name="Path 54721" d="M1537.542,257.321l-38.55-22.257-19.146,11.126-81.666,47.459-19.146,11.126,38.55,22.257,19.146-11.126,81.666-47.459,19.146-11.126Z" transform="translate(-595.489 -134.259)" fill="#fff"/>
                <path id="Path_54722" data-name="Path 54722" d="M2550.742,576.516l-67.786-39.136c-45.847,31.436-96.934,79.48-113.728,144.4-12.759,49.231-3.786,101.476,26.678,155.279q20.406,36.067,53.879,73.35,12.37,13.775,26.479,27.685a870.171,870.171,0,0,0,76.628,66.511l67.775-39.387a795.435,795.435,0,0,1-60.194-52.521q-14.315-13.895-26.616-27.595c-62.145-69.159-85.93-134.108-70.845-194.035,10.5-41.72,39.583-79.951,86.455-113.64.421-.3.861-.611,1.274-.911Z" transform="translate(-1006.098 -260.338)" fill="#90d8f9"/>
                <path id="Path_54723" data-name="Path 54723" d="M2444.075,521.414,2405.421,499.1c-3.2,2.159-6.433,4.391-9.67,6.7-28.156,20.049-52.1,41.85-71.135,64.789-23.715,28.571-39.874,59-48.021,90.461-14.01,54.139-4.327,111.256,28.808,169.766q21.087,37.283,55.119,75.6,12.345,13.91,26.376,27.935,38.09,38.088,88.417,76.781l38.7-22.488a870.156,870.156,0,0,1-76.628-66.511q-14.109-13.91-26.478-27.685-33.431-37.239-53.88-73.35c-30.463-53.8-39.436-106.048-26.677-155.279,16.793-64.919,67.88-112.963,113.727-144.4Zm106.554,61.518-38.767-22.382c-.413.3-.853.606-1.274.911-46.871,33.689-75.952,71.919-86.454,113.64-15.085,59.927,8.7,124.876,70.845,194.035q12.305,13.692,26.616,27.595a795.5,795.5,0,0,0,60.194,52.521l38.783-22.538q-29.321-23.561-52.794-46.411l0,0q-14.379-13.99-26.57-27.715l0,0c-55.33-62.28-76.584-120.128-63.3-172.849,8.912-35.391,33.366-67.959,72.727-96.8Z" transform="translate(-967.217 -244.373)" fill="#fff"/>
                <path id="Path_54724" data-name="Path 54724" d="M1469.075,661.77l-34.939-2.614-328.85-24.607-30.862-2.309-6.783,31.21,23.536,1.761L1441.5,691.425l20.791,1.556,6.783-31.21Z" transform="translate(-465.624 -299.899)" fill="#fff"/>
                <path id="Path_54725" data-name="Path 54725" d="M565.368,948.623,514.827,960.08l4.274,6.283,272.288,400.253,6.52,9.584,50.541-11.457L833.2,1342.32,588.6,982.779l-23.236-34.155Z" transform="translate(-235.076 -431.845)" fill="#fff"/>
                <path id="Path_54726" data-name="Path 54726" d="M782.071,595.792l-194.22-45.064L484.273,744.288l198.845,46.787,98.953-195.283Z" transform="translate(-222.334 -265.905)" fill="#c5d87e"/>
                <path id="Path_54727" data-name="Path 54727" d="M1939.956,543.833l-133.974,22.909,26.734,113.038,143.39-14.817-36.15-121.13Z" transform="translate(-773.544 -263.03)" fill="#c9bdaa"/>
                <path id="Path_54728" data-name="Path 54728" d="M2049.109,295.362,1796.594,149.572,1703.8,203.5,1908.9,321.906l140.212-26.544Z" transform="translate(-730.932 -98.605)" fill="#c5d87e"/>
                <path id="Path_54729" data-name="Path 54729" d="M1274.642,718.82,1115.664,707.2,1092.5,765.834l171.415,11.135,10.729-58.149Z" transform="translate(-475.991 -331.16)" fill="#c9bdaa"/>
                <path id="Path_54730" data-name="Path 54730" d="M1326.513,1701.819l-158.558-50.647-65,55.776,168.549,56.416,55-61.544Z" transform="translate(-480.353 -724.838)" fill="#c9bdaa"/>
                <path id="Path_54731" data-name="Path 54731" d="M957.659,1121.375l-207.806-52.27,75.911,117.385,131.9-65.115Z" transform="translate(-333.092 -482.091)" fill="#dcd5cd"/>
                <path id="Path_54732" data-name="Path 54732" d="M2931.281,800.107,2719.169,679.86s-122.832,99.614-2.562,228.345c0,0,190.394-80.282,214.675-108.1Z" transform="translate(-1131.297 -319.759)" fill="#c5d87e"/>
                <path id="Path_54733" data-name="Path 54733" d="M1630.057,1431.775s-69.828-2.543-110.816-23.323l-146.673,88.794s157.024,63.837,254.049,52.825l3.441-118.3Z" transform="translate(-592.792 -623.613)" fill="#c5d87e"/>
              </g>
            </g>
          </g>
        </g>
      </g>
      <g id="Group_8730" data-name="Group 8730" transform="translate(681.053 159.513)">
        <g id="Group_8714" data-name="Group 8714" transform="translate(54.115 310.016)" opacity="0.1">
          <path id="Path_54735" data-name="Path 54735" d="M1825.277,1171.482c-16.03-9.255-41.94-9.255-57.866,0s-15.842,24.263.188,33.518,41.94,9.258,57.868,0,15.842-24.262-.191-33.519Z" transform="translate(-1755.52 -1164.541)" fill="#030504"/>
        </g>
        <g id="Group_8729" data-name="Group 8729" transform="translate(0 0)">
          <g id="Group_8728" data-name="Group 8728" style="isolation: isolate">
            <g id="Group_8715" data-name="Group 8715" transform="translate(95.033 306.884)">
              <path id="Path_54736" data-name="Path 54736" d="M1846.136,1160.81l-20.425,11.87a3.6,3.6,0,0,0,1.426-1.641l20.425-11.87A3.582,3.582,0,0,1,1846.136,1160.81Z" transform="translate(-1825.711 -1159.169)" fill="#cf0036"/>
            </g>
            <g id="Group_8716" data-name="Group 8716" transform="translate(90.629 194.495)">
              <path id="Path_54737" data-name="Path 54737" d="M1838.582,966.377c13.992,8.078,27.005,10.7,37.813,8.55l-20.426,11.87c-10.807,2.145-23.82-.472-37.811-8.55Z" transform="translate(-1818.157 -966.377)" fill="#e4003c"/>
            </g>
            <g id="Group_8717" data-name="Group 8717" transform="translate(128.441 199.212)">
              <path id="Path_54738" data-name="Path 54738" d="M1903.445,978.3a33.177,33.177,0,0,0,10.244-3.832l-20.425,11.87a33.179,33.179,0,0,1-10.245,3.833l10.19-5.922,1.342-.779,6.5-3.779A18.658,18.658,0,0,1,1903.445,978.3Z" transform="translate(-1883.019 -974.47)" fill="#e4003c"/>
            </g>
            <g id="Group_8718" data-name="Group 8718" transform="translate(23.288 34.427)">
              <path id="Path_54739" data-name="Path 54739" d="M1782.826,847c2.486,1.755,5.018,3.384,7.581,4.864l-20.425,11.87c-2.563-1.48-5.1-3.109-7.581-4.864-33.731-23.807-59.874-71.847-59.76-111.781.06-21.39,7.645-36.414,19.864-43.424l20.425-11.87c-12.219,7.01-19.8,22.033-19.864,43.424C1722.953,775.156,1749.1,823.195,1782.826,847Z" transform="translate(-1702.641 -691.798)" fill="#e4003c"/>
            </g>
            <g id="Group_8719" data-name="Group 8719" transform="translate(96.458 207.756)">
              <path id="Path_54740" data-name="Path 54740" d="M1905.193,1001l20.425-11.87-77.036,99.127-20.425,11.87Z" transform="translate(-1828.156 -989.126)" fill="#df590e"/>
            </g>
            <g id="Group_8720" data-name="Group 8720" transform="translate(138.703 155.864)">
              <path id="Path_54741" data-name="Path 54741" d="M1921.048,943.449l-20.426,11.87c12.129-7.049,19.649-22.036,19.71-43.338l20.425-11.87C1940.7,921.413,1933.177,936.4,1921.048,943.449Z" transform="translate(-1900.623 -900.111)" fill="#fff"/>
            </g>
            <g id="Group_8721" data-name="Group 8721" transform="translate(42.996 29.958)">
              <path id="Path_54742" data-name="Path 54742" d="M1736.448,700.562l20.425-11.87c10.608-6.164,24.742-6.255,40.491.816a83.845,83.845,0,0,1,7.583,3.891l-20.425,11.87a84.008,84.008,0,0,0-7.583-3.891C1761.189,694.306,1747.056,694.4,1736.448,700.562Z" transform="translate(-1736.448 -684.132)" fill="#fff"/>
            </g>
            <g id="Group_8722" data-name="Group 8722" transform="translate(26.503)">
              <path id="Path_54743" data-name="Path 54743" d="M1708.156,650.743l20.425-11.87c16.518-9.6,39.394-8.247,64.641,6.33L1772.8,657.073C1747.55,642.5,1724.674,641.144,1708.156,650.743Z" transform="translate(-1708.156 -632.742)" fill="#df590e"/>
            </g>
            <g id="Group_8723" data-name="Group 8723" transform="translate(91.07 39.224)">
              <path id="Path_54744" data-name="Path 54744" d="M1818.913,711.9l20.425-11.87c37.313,21.543,67.465,73.767,67.343,116.641l-20.425,11.87C1886.377,785.663,1856.226,733.439,1818.913,711.9Z" transform="translate(-1818.913 -700.026)" fill="#fff"/>
            </g>
            <g id="Group_8724" data-name="Group 8724" transform="translate(0 11.87)">
              <path id="Path_54745" data-name="Path 54745" d="M1753.837,665.564c50.176,28.969,90.718,99.2,90.554,156.849-.043,15.375-2.975,28.3-8.2,38.447l-77.036,99.127c-1.153,2.463-3.655,2.582-6.152,1.14a14.465,14.465,0,0,1-6.125-8.228l-76.224-187.612c-5.152-16.139-8-32.4-7.958-47.778C1662.856,659.855,1703.661,636.6,1753.837,665.564Zm-.516,182.034c37.313,21.542,67.661,4.249,67.783-38.63s-30.03-95.1-67.343-116.64a83.968,83.968,0,0,0-7.583-3.892c-33.755-15.155-60.084,2.589-60.2,42.518s26.03,87.973,59.76,111.781c2.486,1.755,5.018,3.384,7.581,4.864Z" transform="translate(-1662.692 -653.103)" fill="#ec691f"/>
            </g>
            <g id="Group_8725" data-name="Group 8725" transform="translate(23.289 41.829)">
              <path id="Path_54746" data-name="Path 54746" d="M1818.164,875.123c-12.291,7.209-29.349,6.231-48.183-4.641-2.562-1.481-5.094-3.111-7.578-4.865-33.729-23.807-59.873-71.846-59.761-111.781.069-24.354,9.893-40.453,25.206-45.865-12.063,7.068-19.536,22.029-19.6,43.26-.113,39.935,26.031,87.973,59.76,111.781,2.485,1.754,5.017,3.384,7.578,4.866C1791.705,877.184,1806.522,879.242,1818.164,875.123Z" transform="translate(-1702.641 -705.946)" fill="#dedfe0"/>
              <path id="Path_54747" data-name="Path 54747" d="M1841.778,830.4c-.061,21.235-7.538,36.2-19.6,43.271-11.642,4.118-26.459,2.061-42.575-7.245-2.561-1.482-5.094-3.112-7.578-4.865-33.729-23.807-59.873-71.846-59.761-111.781.061-21.231,7.535-36.192,19.6-43.26,9.791-3.47,21.829-2.565,34.994,3.347a84.607,84.607,0,0,1,7.582,3.891C1811.747,735.3,1841.9,787.526,1841.778,830.4Z" transform="translate(-1706.653 -704.496)" fill="#fff"/>
            </g>
            <g id="Group_8726" data-name="Group 8726" transform="translate(28.897 41.829)">
              <path id="Path_54748" data-name="Path 54748" d="M1841.778,830.4c-.061,21.235-7.538,36.2-19.6,43.271-11.642,4.118-26.459,2.061-42.575-7.245-2.561-1.482-5.094-3.112-7.578-4.865-33.729-23.807-59.873-71.846-59.761-111.781.061-21.231,7.535-36.192,19.6-43.26,9.791-3.47,21.829-2.565,34.994,3.347a84.607,84.607,0,0,1,7.582,3.891C1811.747,735.3,1841.9,787.526,1841.778,830.4Z" transform="translate(-1712.261 -704.496)" fill="#fff"/>
            </g>
            <g id="Group_8727" data-name="Group 8727" transform="translate(91.145 12.461)">
              <path id="Path_54749" data-name="Path 54749" d="M1819.042,665.988l20.425-11.87c50.176,28.969,90.719,99.2,90.555,156.848-.044,15.375-2.975,28.3-8.205,38.446l-20.425,11.87c5.229-10.146,8.161-23.072,8.2-38.447C1909.76,765.183,1869.217,694.956,1819.042,665.988Z" transform="translate(-1819.042 -654.118)" fill="#df590e"/>
            </g>
          </g>
        </g>
      </g>
      <g id="Group_8750" data-name="Group 8750" transform="translate(1017.463 353.413)">
        <path id="Path_54750" data-name="Path 54750" d="M1054.015,1498.327l-51.764,29.694-152.483-89.483,51.764-30.5Z" transform="translate(-849.768 -1325.576)" fill="#c1c1c0" opacity="0.46" style="mix-blend-mode: multiply;isolation: isolate"/>
        <g id="Group_8749" data-name="Group 8749" transform="translate(0.359 0)">
          <g id="Group_8738" data-name="Group 8738">
            <path id="Path_54751" data-name="Path 54751" d="M1048.048,1537.167l-15.606,9.01,0-13.562h8.4Z" transform="translate(-931.432 -1381.022)" fill="#4c6273"/>
            <path id="Path_54752" data-name="Path 54752" d="M1035.784,1538.47l8.688-5.016,11.641,6.721-7.356,7.177-10.9-4.342Z" transform="translate(-932.92 -1381.396)" fill="#67899e"/>
            <path id="Path_54753" data-name="Path 54753" d="M966.008,1493.834l-8.688,5.016v-7.55H962Z" transform="translate(-897.997 -1362.633)" fill="#4c6273"/>
            <path id="Path_54754" data-name="Path 54754" d="M901.569,1448.369l3.6,15.9-8.688,5.016-12.232-20.92,9.178-5.086Z" transform="translate(-865.476 -1341.262)" fill="#3d3d3d"/>
            <path id="Path_54755" data-name="Path 54755" d="M902.019,1326.667l-51.6,29.793v-67.234l51.6-29.793Z" transform="translate(-850.415 -1259.433)" fill="#d7d7d7"/>
            <path id="Path_54756" data-name="Path 54756" d="M957.319,1487.106v2.327l46.368,26.771-1.3-3.076Z" transform="translate(-897.997 -1360.767)" fill="#577285"/>
            <path id="Path_54757" data-name="Path 54757" d="M850.416,1375.419l112.362,64.872v-62.3l-112.362-64.872Z" transform="translate(-850.415 -1283.329)" fill="#d7d7d7"/>
            <path id="Path_54758" data-name="Path 54758" d="M943.408,1321.73,1055.77,1386.6v-62.3l-112.362-64.872Z" transform="translate(-891.805 -1259.433)" fill="#d7d7d7"/>
            <path id="Path_54759" data-name="Path 54759" d="M962.433,1439.695v-58.284l-108.886-62.866v58.284Z" transform="translate(-851.809 -1285.743)" fill="#ededec"/>
            <path id="Path_54760" data-name="Path 54760" d="M1038.543,1534l1.3,3.076,1.825,4.324,4.848,2.8v-5.6Z" transform="translate(-934.148 -1381.639)" fill="#d7d7d7"/>
            <path id="Path_54761" data-name="Path 54761" d="M1131.533,1480.31l1.3,3.075,1.824,4.324,4.848,2.8v-5.6Z" transform="translate(-975.536 -1357.742)" fill="#d7d7d7"/>
            <path id="Path_54762" data-name="Path 54762" d="M850.415,1425.385v5.6l4.848,2.8,3.121-3.8Z" transform="translate(-850.415 -1333.296)" fill="#d7d7d7"/>
            <path id="Path_54763" data-name="Path 54763" d="M859.143,1441.746l8.275,4.778,5.5-6.7-10.655-6.151-3.121,3.8Z" transform="translate(-854.3 -1336.985)" fill="#577285"/>
            <path id="Path_54764" data-name="Path 54764" d="M918.7,1474.688l18.978,10.957v-9.876L913.2,1461.633Z" transform="translate(-878.359 -1349.429)" fill="#577285"/>
            <path id="Path_54765" data-name="Path 54765" d="M997.794,1514.668v12.419l19.228,11.1V1525.77Z" transform="translate(-916.011 -1373.034)" fill="#577285"/>
            <path id="Path_54766" data-name="Path 54766" d="M960.26,1501.219v3.211l-2.94-1.7v2.332l22.459,12.967V1515.7l-3.1-1.789v-3.21l3.1,1.79v-2.327l-22.459-12.967v2.327Zm1.738,1,12.945,7.474v3.21L962,1505.432Z" transform="translate(-897.997 -1365.257)" fill="#577285"/>
            <g id="Group_8737" data-name="Group 8737" transform="translate(12.75 103.611)">
              <ellipse id="Ellipse_311" data-name="Ellipse 311" cx="6.976" cy="12.083" rx="6.976" ry="12.083" transform="translate(0 6.976) rotate(-30)" fill="#545454"/>
              <ellipse id="Ellipse_312" data-name="Ellipse 312" cx="3.855" cy="6.676" rx="3.855" ry="6.676" transform="translate(5.406 10.097) rotate(-30.001)" fill="#a5a5a5"/>
              <path id="Path_54767" data-name="Path 54767" d="M892.606,1469a3.138,3.138,0,0,0,1.42,2.459c.784.453,1.42.086,1.42-.82a3.139,3.139,0,0,0-1.42-2.46C893.241,1467.727,892.606,1468.094,892.606,1469Z" transform="translate(-881.943 -1455.867)" fill="#c1c1c0"/>
              <g id="Group_8731" data-name="Group 8731" transform="translate(11.687 8.904)">
                <path id="Path_54768" data-name="Path 54768" d="M894.451,1463.444a2.614,2.614,0,0,0,.4,1.689c.219.126.4-.425.4-1.232a2.614,2.614,0,0,0-.4-1.689C894.629,1462.085,894.451,1462.637,894.451,1463.444Z" transform="translate(-894.451 -1462.194)" fill="#868686"/>
                <path id="Path_54769" data-name="Path 54769" d="M894.451,1476.307a2.614,2.614,0,0,0,.4,1.69c.219.126.4-.426.4-1.232a2.614,2.614,0,0,0-.4-1.69C894.629,1474.949,894.451,1475.5,894.451,1476.307Z" transform="translate(-894.451 -1467.919)" fill="#868686"/>
              </g>
              <g id="Group_8736" data-name="Group 8736" transform="translate(7.727 8.608)">
                <g id="Group_8732" data-name="Group 8732" transform="translate(1.233)">
                  <path id="Path_54770" data-name="Path 54770" d="M898.631,1476.7c-.494-.856-1.02-1.477-1.175-1.388s.12.855.615,1.711,1.02,1.476,1.175,1.387S899.126,1477.557,898.631,1476.7Z" transform="translate(-893.042 -1467.733)" fill="#868686"/>
                  <path id="Path_54771" data-name="Path 54771" d="M890.754,1463.057c-.494-.855-1.02-1.477-1.175-1.388s.12.855.614,1.711,1.021,1.477,1.175,1.388S891.248,1463.913,890.754,1463.057Z" transform="translate(-889.536 -1461.661)" fill="#868686"/>
                </g>
                <g id="Group_8733" data-name="Group 8733" transform="translate(0 2.697)">
                  <path id="Path_54772" data-name="Path 54772" d="M899.72,1473.357c-.7-.4-1.265-.526-1.265-.273s.567.784,1.265,1.188,1.265.526,1.265.273S900.419,1473.761,899.72,1473.357Z" transform="translate(-892.273 -1469.384)" fill="#868686"/>
                  <path id="Path_54773" data-name="Path 54773" d="M888.58,1466.925c-.7-.4-1.265-.525-1.265-.273s.567.784,1.265,1.188,1.266.525,1.266.273S889.279,1467.329,888.58,1466.925Z" transform="translate(-887.315 -1466.521)" fill="#868686"/>
                </g>
                <g id="Group_8734" data-name="Group 8734" transform="translate(1.233 3.373)">
                  <path id="Path_54774" data-name="Path 54774" d="M898.071,1467.963c-.494.285-.769.733-.615,1s.681.254,1.175-.031.769-.734.615-1S898.565,1467.678,898.071,1467.963Z" transform="translate(-893.042 -1467.74)" fill="#868686"/>
                  <path id="Path_54775" data-name="Path 54775" d="M890.194,1472.511c-.494.285-.769.734-.614,1s.681.254,1.175-.032.769-.734.614-1S890.688,1472.225,890.194,1472.511Z" transform="translate(-889.536 -1469.764)" fill="#868686"/>
                </g>
                <g id="Group_8735" data-name="Group 8735" transform="translate(3.96 0.296)">
                  <path id="Path_54776" data-name="Path 54776" d="M894.451,1463.444a2.614,2.614,0,0,0,.4,1.689c.219.126.4-.425.4-1.232a2.614,2.614,0,0,0-.4-1.689C894.629,1462.085,894.451,1462.637,894.451,1463.444Z" transform="translate(-894.451 -1462.194)" fill="#868686"/>
                  <path id="Path_54777" data-name="Path 54777" d="M894.451,1476.307a2.614,2.614,0,0,0,.4,1.69c.219.126.4-.426.4-1.232a2.614,2.614,0,0,0-.4-1.69C894.629,1474.949,894.451,1475.5,894.451,1476.307Z" transform="translate(-894.451 -1467.919)" fill="#868686"/>
                </g>
              </g>
            </g>
            <path id="Path_54778" data-name="Path 54778" d="M962.778,1354.1l-112.362-64.872,51.6-29.793L1014.38,1324.3Z" transform="translate(-850.415 -1259.433)" fill="#e0e0df"/>
            <path id="Path_54779" data-name="Path 54779" d="M857.647,1291.084l47.59-27.476,108.349,62.555L966,1353.639Z" transform="translate(-853.634 -1261.291)" fill="#f8fbfb"/>
            <path id="Path_54780" data-name="Path 54780" d="M1104.5,1444.232l-51.6,29.793v-67.9l51.6-29.793Z" transform="translate(-940.538 -1311.465)" fill="#d7d7d7"/>
            <path id="Path_54781" data-name="Path 54781" d="M1056.032,1468.677v-58.284l48.127-27.786v58.284Z" transform="translate(-941.932 -1314.256)" fill="#e0e0df"/>
            <path id="Path_54782" data-name="Path 54782" d="M874.056,1451.458l8.552-4.938-3.048-1.76Z" transform="translate(-860.937 -1341.92)" fill="#4c6273"/>
            <path id="Path_54783" data-name="Path 54783" d="M965.75,1509.465l1.69-.976.005-1.256-1.7-.979Z" transform="translate(-901.749 -1369.29)" fill="#4c6273"/>
            <path id="Path_54784" data-name="Path 54784" d="M959.016,1505.426l-1.7.97,2.94,1.7v-1.948Z" transform="translate(-897.997 -1368.921)" fill="#67899e"/>
            <path id="Path_54785" data-name="Path 54785" d="M978.695,1518.731v-1.948l-11.255-6.5-1.69.976Z" transform="translate(-901.749 -1371.082)" fill="#67899e"/>
            <path id="Path_54786" data-name="Path 54786" d="M995.308,1528.328v-1.948l-1.4-.811-1.7.97Z" transform="translate(-913.525 -1377.886)" fill="#67899e"/>
            <path id="Path_54787" data-name="Path 54787" d="M993.9,1523.771v-1.262l-1.7-.979v3.21Z" transform="translate(-913.525 -1376.089)" fill="#4c6273"/>
            <path id="Path_54788" data-name="Path 54788" d="M979.78,1509.383v-1.948l-20.765-11.988-1.7.97Z" transform="translate(-897.997 -1364.479)" fill="#67899e"/>
          </g>
          <g id="Group_8748" data-name="Group 8748" transform="translate(102.864 81.594)">
            <path id="Path_54789" data-name="Path 54789" d="M1068.289,1566.36l14.492-8.367s-3.625-8.088-7.61-7.085-9.2,4.721-9.2,7.878S1068.289,1566.36,1068.289,1566.36Z" transform="translate(-1049.219 -1470.719)" fill="#4c6273"/>
            <path id="Path_54790" data-name="Path 54790" d="M1094.495,1559.611l3.6,15.9-8.688,5.016-12.232-20.92,9.178-5.086Z" transform="translate(-1054.209 -1472.368)" fill="#3d3d3d"/>
            <path id="Path_54791" data-name="Path 54791" d="M1093.218,1509.719v22.668l-8.924-5.152c-1.826-4.619-5.185-8.944-9.029-11.163-4.531-2.616-8.386-1.529-9.852,2.271l-6.251-3.611v-54.569l14.534,8.386a14.683,14.683,0,0,1,6.156,6.938l.51,1.2,11.673,27.258A14.667,14.667,0,0,1,1093.218,1509.719Z" transform="translate(-1046.189 -1430.368)" fill="#ff9e26"/>
            <path id="Path_54792" data-name="Path 54792" d="M1089.832,1509.313l-5.75-3.391-3.038-5.971-17.29-9.979v-18.8c0-.072.052-.1.116-.064l.779.458v17.772l17.291,9.98,3.038,5.97,4.2,2.48Z" transform="translate(-1048.233 -1435.234)" fill="#5f7b90"/>
            <path id="Path_54793" data-name="Path 54793" d="M1089.9,1508.152l-4.2-2.48-3.038-5.971-6.536-3.772-2.38-1.376-1.87-1.076-4.767-2.753-1.737-1V1471.95l5.433,3.2,4.755,2.8,1.862,1.1.188.108,1.6,3.776Z" transform="translate(-1048.951 -1435.615)" fill="#50697a"/>
            <path id="Path_54794" data-name="Path 54794" d="M1066.678,1527.569l6.371,3.678v-1.763a2.84,2.84,0,0,0-1.186-2.266l-4-2.309c-.656-.378-1.186.023-1.186.9Z" transform="translate(-1049.534 -1459.123)" fill="#577285"/>
            <path id="Path_54795" data-name="Path 54795" d="M1035.784,1542.494v9.15l19.07,11.01a17.13,17.13,0,0,1-.476-3.887,10.443,10.443,0,0,1,.633-3.779l-7.759-4.48-1.969-2.53Z" transform="translate(-1035.784 -1467.013)" fill="#577285"/>
            <path id="Path_54796" data-name="Path 54796" d="M1198.9,1534.335a10.9,10.9,0,0,1-.476,3.337l10.38,5.993v-7.625a3.7,3.7,0,0,0-1.852-3.207l-9.508-5.49A19.32,19.32,0,0,1,1198.9,1534.335Z" transform="translate(-1107.735 -1460.269)" fill="#5c798d"/>
            <g id="Group_8745" data-name="Group 8745" transform="translate(16.992 83.855)">
              <ellipse id="Ellipse_313" data-name="Ellipse 313" cx="6.976" cy="12.083" rx="6.976" ry="12.083" transform="matrix(0.866, -0.5, 0.5, 0.866, 0, 6.976)" fill="#545454"/>
              <path id="Path_54797" data-name="Path 54797" d="M1079.672,1575.113a10.436,10.436,0,0,0,4.72,8.177c2.608,1.505,4.721.285,4.721-2.726a10.434,10.434,0,0,0-4.721-8.177C1081.786,1570.881,1079.672,1572.1,1079.672,1575.113Z" transform="translate(-1072.31 -1563.886)" fill="#a5a5a5"/>
              <path id="Path_54798" data-name="Path 54798" d="M1085.62,1580.437a3.14,3.14,0,0,0,1.42,2.459c.785.453,1.421.086,1.421-.819a3.139,3.139,0,0,0-1.421-2.46C1086.256,1579.164,1085.62,1579.531,1085.62,1580.437Z" transform="translate(-1074.957 -1567.304)" fill="#c1c1c0"/>
              <g id="Group_8739" data-name="Group 8739" transform="translate(11.687 8.904)">
                <path id="Path_54799" data-name="Path 54799" d="M1087.466,1574.881a2.615,2.615,0,0,0,.4,1.689c.219.127.4-.425.4-1.232a2.611,2.611,0,0,0-.4-1.69C1087.643,1573.522,1087.466,1574.074,1087.466,1574.881Z" transform="translate(-1087.466 -1573.63)" fill="#868686"/>
                <path id="Path_54800" data-name="Path 54800" d="M1087.466,1587.744a2.614,2.614,0,0,0,.4,1.689c.219.127.4-.425.4-1.232a2.611,2.611,0,0,0-.4-1.69C1087.643,1586.385,1087.466,1586.937,1087.466,1587.744Z" transform="translate(-1087.466 -1579.356)" fill="#868686"/>
              </g>
              <g id="Group_8744" data-name="Group 8744" transform="translate(7.726 8.608)">
                <g id="Group_8740" data-name="Group 8740" transform="translate(1.233)">
                  <path id="Path_54801" data-name="Path 54801" d="M1091.646,1588.138c-.494-.856-1.02-1.477-1.175-1.388s.121.855.615,1.711,1.02,1.477,1.175,1.387S1092.14,1588.994,1091.646,1588.138Z" transform="translate(-1086.057 -1579.17)" fill="#868686"/>
                  <path id="Path_54802" data-name="Path 54802" d="M1083.769,1574.494c-.495-.856-1.02-1.477-1.175-1.388s.12.856.615,1.711,1.02,1.477,1.175,1.388S1084.263,1575.349,1083.769,1574.494Z" transform="translate(-1082.551 -1573.097)" fill="#868686"/>
                </g>
                <g id="Group_8741" data-name="Group 8741" transform="translate(0 2.697)">
                  <path id="Path_54803" data-name="Path 54803" d="M1092.735,1584.795c-.7-.4-1.265-.526-1.265-.273s.566.784,1.265,1.188,1.265.526,1.265.273S1093.434,1585.2,1092.735,1584.795Z" transform="translate(-1085.288 -1580.821)" fill="#868686"/>
                  <path id="Path_54804" data-name="Path 54804" d="M1081.594,1578.362c-.7-.4-1.265-.525-1.265-.273s.567.785,1.265,1.188,1.265.526,1.265.273S1082.293,1578.766,1081.594,1578.362Z" transform="translate(-1080.329 -1577.958)" fill="#868686"/>
                </g>
                <g id="Group_8742" data-name="Group 8742" transform="translate(1.233 3.373)">
                  <path id="Path_54805" data-name="Path 54805" d="M1091.086,1579.4c-.494.285-.769.734-.615,1s.681.254,1.175-.032.769-.734.615-1S1091.58,1579.115,1091.086,1579.4Z" transform="translate(-1086.057 -1579.177)" fill="#868686"/>
                  <path id="Path_54806" data-name="Path 54806" d="M1083.209,1583.948c-.494.285-.769.734-.615,1s.68.254,1.175-.032.769-.734.615-1S1083.7,1583.662,1083.209,1583.948Z" transform="translate(-1082.551 -1581.201)" fill="#868686"/>
                </g>
                <g id="Group_8743" data-name="Group 8743" transform="translate(3.96 0.296)">
                  <path id="Path_54807" data-name="Path 54807" d="M1087.466,1574.881a2.615,2.615,0,0,0,.4,1.689c.219.127.4-.425.4-1.232a2.611,2.611,0,0,0-.4-1.69C1087.643,1573.522,1087.466,1574.074,1087.466,1574.881Z" transform="translate(-1087.466 -1573.63)" fill="#868686"/>
                  <path id="Path_54808" data-name="Path 54808" d="M1087.466,1587.744a2.614,2.614,0,0,0,.4,1.689c.219.127.4-.425.4-1.232a2.611,2.611,0,0,0-.4-1.69C1087.643,1586.385,1087.466,1586.937,1087.466,1587.744Z" transform="translate(-1087.466 -1579.356)" fill="#868686"/>
                </g>
              </g>
            </g>
            <path id="Path_54809" data-name="Path 54809" d="M1107.693,1517.19h-1.675l-11.675-27.258h1.675Z" transform="translate(-1061.848 -1443.618)" fill="#50697a"/>
            <path id="Path_54810" data-name="Path 54810" d="M1160.641,1463.5l-12.391,7.155-4,2.311-2.777,1.6-15.758,9.1-4,2.307-3.134,1.809-8,4.615-1.553.9-11.673-27.258,11.067-6.392,8-4.615,3.134-1.81,4-2.307,4.209-2.432,14.325-8.27,4-2.307,2.877-1.661Z" transform="translate(-1063.193 -1419.722)" fill="#50697a"/>
            <path id="Path_54811" data-name="Path 54811" d="M1131.964,1422.987v0l-21.2,12.239-30.4,17.556-.51-1.2a14.683,14.683,0,0,0-6.156-6.938l-14.534-8.387,51.6-29.794,14.534,8.391a14.672,14.672,0,0,1,6.156,6.934Z" transform="translate(-1046.189 -1406.471)" fill="#ffaf46"/>
            <path id="Path_54812" data-name="Path 54812" d="M1171.187,1491.142v22.672l-51.6,29.79v-22.667a14.674,14.674,0,0,0-1.183-5.778l32.438-18.727L1170,1485.364A14.67,14.67,0,0,1,1171.187,1491.142Z" transform="translate(-1072.555 -1441.585)" fill="#f29217"/>
            <path id="Path_54813" data-name="Path 54813" d="M1174.57,1540.175l-51.6,29.793-2.434-3.545,51.6-29.79Z" transform="translate(-1073.505 -1464.404)" fill="#5c798d"/>
            <path id="Path_54814" data-name="Path 54814" d="M1105.9,1588.024a10.908,10.908,0,0,1-.476,3.337l10.38,5.993v-7.624a3.7,3.7,0,0,0-1.852-3.207l-9.509-5.49A19.311,19.311,0,0,1,1105.9,1588.024Z" transform="translate(-1066.345 -1484.166)" fill="#577285"/>
            <path id="Path_54815" data-name="Path 54815" d="M1124.92,1580.433l51.6-29.793v-7.624l-51.6,29.792Z" transform="translate(-1075.457 -1467.245)" fill="#4c6574"/>
            <g id="Group_8747" data-name="Group 8747" transform="translate(47.028 54.932)">
              <path id="Path_54816" data-name="Path 54816" d="M1126.806,1565.626l-6.273,3.622v-12.176l4.111-2.374c.721-.416,1.355-.235,1.56.444l2.162,7.171A3.38,3.38,0,0,1,1126.806,1565.626Z" transform="translate(-1120.533 -1527.278)" fill="#5c798d"/>
              <path id="Path_54817" data-name="Path 54817" d="M1200.914,1521.262l6.273-3.622v-12.177l-4.111,2.374a3.647,3.647,0,0,0-1.56,2.245l-2.162,9.667C1199.045,1521.133,1199.826,1521.89,1200.914,1521.262Z" transform="translate(-1155.585 -1505.463)" fill="#5c798d"/>
              <path id="Path_54818" data-name="Path 54818" d="M1137.2,1537.889l2.08,6.332c.266.81,1.041,1.016,1.916.51l25.032-14.452a4.5,4.5,0,0,0,1.917-2.723l2.079-8.733c.413-1.737-.554-2.708-1.917-1.922l-29.191,16.854C1137.75,1534.541,1136.782,1536.629,1137.2,1537.889Z" transform="translate(-1127.906 -1510.431)" fill="#5c798d"/>
              <g id="Group_8746" data-name="Group 8746" transform="translate(12.276 8.148)">
                <path id="Path_54819" data-name="Path 54819" d="M1143.35,1557.386l-.695.4v-9.881l.695-.4Z" transform="translate(-1142.655 -1532.323)" fill="#6f92aa"/>
                <path id="Path_54820" data-name="Path 54820" d="M1147,1555.281l-.695.4V1545.8l.695-.4Z" transform="translate(-1144.278 -1531.386)" fill="#6f92aa"/>
                <path id="Path_54821" data-name="Path 54821" d="M1150.64,1553.177l-.695.4V1543.7l.695-.4Z" transform="translate(-1145.9 -1530.449)" fill="#6f92aa"/>
                <path id="Path_54822" data-name="Path 54822" d="M1154.285,1551.072l-.7.4v-9.881l.7-.4Z" transform="translate(-1147.522 -1529.513)" fill="#6f92aa"/>
                <path id="Path_54823" data-name="Path 54823" d="M1157.93,1548.968l-.695.4v-9.881l.695-.4Z" transform="translate(-1149.145 -1528.576)" fill="#6f92aa"/>
                <path id="Path_54824" data-name="Path 54824" d="M1161.575,1546.863l-.7.4v-9.881l.7-.4Z" transform="translate(-1150.767 -1527.64)" fill="#6f92aa"/>
                <path id="Path_54825" data-name="Path 54825" d="M1165.22,1544.759l-.7.4v-9.881l.7-.4Z" transform="translate(-1152.389 -1526.703)" fill="#6f92aa"/>
                <path id="Path_54826" data-name="Path 54826" d="M1168.865,1542.654l-.695.4v-9.881l.695-.4Z" transform="translate(-1154.012 -1525.766)" fill="#6f92aa"/>
                <path id="Path_54827" data-name="Path 54827" d="M1172.51,1540.55l-.7.4v-9.881l.7-.4Z" transform="translate(-1155.634 -1524.83)" fill="#6f92aa"/>
                <path id="Path_54828" data-name="Path 54828" d="M1176.156,1538.445l-.7.4v-9.881l.7-.4Z" transform="translate(-1157.256 -1523.893)" fill="#6f92aa"/>
                <path id="Path_54829" data-name="Path 54829" d="M1179.8,1536.341l-.695.4v-9.881l.695-.4Z" transform="translate(-1158.879 -1522.957)" fill="#6f92aa"/>
                <path id="Path_54830" data-name="Path 54830" d="M1183.445,1534.236l-.695.4v-9.881l.695-.4Z" transform="translate(-1160.501 -1522.02)" fill="#6f92aa"/>
                <path id="Path_54831" data-name="Path 54831" d="M1187.09,1532.132l-.695.4v-9.881l.695-.4Z" transform="translate(-1162.124 -1521.083)" fill="#6f92aa"/>
                <path id="Path_54832" data-name="Path 54832" d="M1190.736,1530.027l-.7.4v-9.881l.7-.4Z" transform="translate(-1163.745 -1520.146)" fill="#6f92aa"/>
              </g>
              <path id="Path_54833" data-name="Path 54833" d="M1126.469,1560.528a4.16,4.16,0,0,1-.846,4.3c-1.086,1.218-2.468,1.264-3.086.1a4.158,4.158,0,0,1,.846-4.3C1124.469,1559.414,1125.851,1559.368,1126.469,1560.528Z" transform="translate(-1121.293 -1529.597)" fill="#b3e1e9"/>
              <path id="Path_54834" data-name="Path 54834" d="M1126.687,1571.733l-4.1,2.365c-.333.192-.6-.012-.6-.455h0a1.441,1.441,0,0,1,.6-1.15l4.1-2.365c.332-.192.6.012.6.455h0A1.441,1.441,0,0,1,1126.687,1571.733Z" transform="translate(-1121.181 -1534.212)" fill="#f1b050"/>
              <path id="Path_54835" data-name="Path 54835" d="M1204.224,1515.356c-.619,1.874-.24,3.364.846,3.327s2.468-1.586,3.086-3.46.24-3.364-.846-3.327S1204.842,1513.482,1204.224,1515.356Z" transform="translate(-1157.65 -1508.326)" fill="#b3e1e9"/>
              <path id="Path_54836" data-name="Path 54836" d="M1203.386,1527.451l4.1-2.365a1.441,1.441,0,0,0,.6-1.15h0c0-.443-.27-.647-.6-.455l-4.1,2.365a1.441,1.441,0,0,0-.6,1.15h0C1202.784,1527.439,1203.054,1527.643,1203.386,1527.451Z" transform="translate(-1157.142 -1513.45)" fill="#f1b050"/>
            </g>
            <path id="Path_54837" data-name="Path 54837" d="M1064.648,1471.634l-.895-.393v18.8l.895-.63Z" transform="translate(-1048.233 -1435.299)" fill="#465b6b"/>
            <path id="Path_54838" data-name="Path 54838" d="M1076.948,1480.51l-3.683,15.533-4.767-2.753,3.7-15.577Z" transform="translate(-1050.344 -1438.18)" fill="#7ba4be" opacity="0.42"/>
            <path id="Path_54839" data-name="Path 54839" d="M1085.923,1488.619l-3.086,13-2.38-1.376,3.675-15.509.189.108Z" transform="translate(-1055.667 -1441.305)" fill="#7ba4be" opacity="0.42"/>
            <path id="Path_54840" data-name="Path 54840" d="M1127.464,1502.85l-8,4.615-2.159-32.752,8-4.615Z" transform="translate(-1072.069 -1434.791)" fill="#7ba4be" opacity="0.42"/>
            <path id="Path_54841" data-name="Path 54841" d="M1143.523,1495.431l-4,2.307-2.159-32.752,4-2.307Z" transform="translate(-1080.997 -1431.489)" fill="#7ba4be" opacity="0.42"/>
            <path id="Path_54842" data-name="Path 54842" d="M1184.126,1471.987l-4,2.311-2.159-32.756,4-2.307Z" transform="translate(-1099.069 -1421.054)" fill="#7ba4be" opacity="0.42"/>
          </g>
        </g>
      </g>
      <g id="Group_9058" data-name="Group 9058" transform="translate(451.412 487.493)">
        <path id="Path_54750-2" data-name="Path 54750" d="M849.768,1498.327l51.764,29.694,152.483-89.483-51.764-30.5Z" transform="translate(-849.726 -1325.576)" fill="#c1c1c0" opacity="0.46" style="mix-blend-mode: multiply;isolation: isolate"/>
        <g id="Group_8749-2" data-name="Group 8749" transform="translate(0 0)">
          <g id="Group_8738-2" data-name="Group 8738" transform="translate(39.965)">
            <path id="Path_54751-2" data-name="Path 54751" d="M1032.44,1537.167l15.606,9.01,0-13.562h-8.4Z" transform="translate(-985.092 -1381.022)" fill="#4c6273"/>
            <path id="Path_54752-2" data-name="Path 54752" d="M1056.113,1538.47l-8.687-5.016-11.641,6.721,7.356,7.177,10.9-4.342Z" transform="translate(-995.012 -1381.396)" fill="#67899e"/>
            <path id="Path_54753-2" data-name="Path 54753" d="M957.319,1493.834l8.688,5.016v-7.55H961.33Z" transform="translate(-861.366 -1362.633)" fill="#4c6273"/>
            <path id="Path_54754-2" data-name="Path 54754" d="M887.859,1448.369l-3.6,15.9,8.688,5.016,12.232-20.92L896,1443.283Z" transform="translate(-759.986 -1341.262)" fill="#3d3d3d"/>
            <path id="Path_54755-2" data-name="Path 54755" d="M850.416,1326.667l51.6,29.793v-67.235l-51.6-29.793Z" transform="translate(-738.054 -1259.433)" fill="#d7d7d7"/>
            <path id="Path_54756-2" data-name="Path 54756" d="M1003.688,1487.106v2.327L957.319,1516.2l1.3-3.076Z" transform="translate(-899.045 -1360.767)" fill="#577285"/>
            <path id="Path_54757-2" data-name="Path 54757" d="M962.778,1375.419l-112.362,64.872v-62.3l112.362-64.872Z" transform="translate(-798.813 -1283.329)" fill="#d7d7d7"/>
            <path id="Path_54758-2" data-name="Path 54758" d="M1055.77,1321.73,943.408,1386.6v-62.3l112.362-64.872Z" transform="translate(-943.408 -1259.433)" fill="#d7d7d7"/>
            <path id="Path_54759-2" data-name="Path 54759" d="M853.547,1439.695v-58.284l108.887-62.866v58.284Z" transform="translate(-800.207 -1285.743)" fill="#ededec"/>
            <path id="Path_54760-2" data-name="Path 54760" d="M1046.511,1534l-1.3,3.076-1.824,4.324-4.848,2.8v-5.6Z" transform="translate(-986.941 -1381.639)" fill="#d7d7d7"/>
            <path id="Path_54761-2" data-name="Path 54761" d="M1139.5,1480.31l-1.3,3.075-1.825,4.324-4.848,2.8v-5.6Z" transform="translate(-1131.533 -1357.742)" fill="#d7d7d7"/>
            <path id="Path_54762-2" data-name="Path 54762" d="M858.383,1425.385v5.6l-4.848,2.8-3.12-3.8Z" transform="translate(-694.418 -1333.296)" fill="#d7d7d7"/>
            <path id="Path_54763-2" data-name="Path 54763" d="M872.923,1441.746l-8.275,4.778-5.5-6.7,10.655-6.151,3.121,3.8Z" transform="translate(-713.801 -1336.985)" fill="#577285"/>
            <path id="Path_54764-2" data-name="Path 54764" d="M932.178,1474.688,913.2,1485.646v-9.876l24.484-14.136Z" transform="translate(-808.558 -1349.429)" fill="#577285"/>
            <path id="Path_54765-2" data-name="Path 54765" d="M1017.022,1514.668v12.419l-19.228,11.1V1525.77Z" transform="translate(-934.84 -1373.034)" fill="#577285"/>
            <path id="Path_54766-2" data-name="Path 54766" d="M976.84,1501.219v3.211l2.94-1.7v2.332L957.32,1518.03V1515.7l3.1-1.789v-3.21l-3.1,1.79v-2.327l22.459-12.967v2.327Zm-1.738,1-12.944,7.474v3.21l12.944-7.474Z" transform="translate(-875.138 -1365.257)" fill="#577285"/>
            <g id="Group_8737-2" data-name="Group 8737" transform="translate(127.05 103.611)">
              <ellipse id="Ellipse_311-2" data-name="Ellipse 311" cx="6.976" cy="12.083" rx="6.976" ry="12.083" transform="matrix(-0.866, -0.5, 0.5, -0.866, 12.083, 27.904)" fill="#545454"/>
              <ellipse id="Ellipse_312-2" data-name="Ellipse 312" cx="3.855" cy="6.676" rx="3.855" ry="6.676" transform="translate(12.083 21.661) rotate(-149.999)" fill="#a5a5a5"/>
              <path id="Path_54767-2" data-name="Path 54767" d="M895.446,1469a3.137,3.137,0,0,1-1.42,2.459c-.784.453-1.42.086-1.42-.82a3.14,3.14,0,0,1,1.42-2.46C894.81,1467.726,895.446,1468.094,895.446,1469Z" transform="translate(-881.943 -1455.867)" fill="#c1c1c0"/>
              <g id="Group_8731-2" data-name="Group 8731" transform="translate(11.687 8.904)">
                <path id="Path_54768-2" data-name="Path 54768" d="M895.243,1463.444a2.613,2.613,0,0,1-.4,1.689c-.219.126-.4-.425-.4-1.232a2.616,2.616,0,0,1,.4-1.69C895.066,1462.085,895.243,1462.637,895.243,1463.444Z" transform="translate(-894.451 -1462.194)" fill="#868686"/>
                <path id="Path_54769-2" data-name="Path 54769" d="M895.243,1476.307a2.613,2.613,0,0,1-.4,1.69c-.219.126-.4-.426-.4-1.232a2.616,2.616,0,0,1,.4-1.69C895.066,1474.949,895.243,1475.5,895.243,1476.307Z" transform="translate(-894.451 -1467.919)" fill="#868686"/>
              </g>
              <g id="Group_8736-2" data-name="Group 8736" transform="translate(7.727 8.608)">
                <g id="Group_8732-2" data-name="Group 8732" transform="translate(1.233)">
                  <path id="Path_54770-2" data-name="Path 54770" d="M898.071,1476.7c.494-.856,1.02-1.477,1.175-1.388s-.12.855-.615,1.711-1.02,1.476-1.175,1.387S897.577,1477.557,898.071,1476.7Z" transform="translate(-897.414 -1467.734)" fill="#868686"/>
                  <path id="Path_54771-2" data-name="Path 54771" d="M890.194,1463.057c.494-.856,1.02-1.477,1.175-1.388s-.12.856-.614,1.712-1.02,1.477-1.175,1.388S889.7,1463.913,890.194,1463.057Z" transform="translate(-885.165 -1461.661)" fill="#868686"/>
                </g>
                <g id="Group_8733-2" data-name="Group 8733" transform="translate(0 2.697)">
                  <path id="Path_54772-2" data-name="Path 54772" d="M899.72,1473.357c.7-.4,1.265-.525,1.265-.273s-.567.784-1.265,1.188-1.265.526-1.265.273S899.021,1473.761,899.72,1473.357Z" transform="translate(-898.455 -1469.384)" fill="#868686"/>
                  <path id="Path_54773-2" data-name="Path 54773" d="M888.58,1466.926c.7-.4,1.265-.525,1.265-.273s-.567.785-1.265,1.188-1.265.526-1.265.273S887.882,1467.329,888.58,1466.926Z" transform="translate(-881.133 -1466.521)" fill="#868686"/>
                </g>
                <g id="Group_8734-2" data-name="Group 8734" transform="translate(1.233 3.373)">
                  <path id="Path_54774-2" data-name="Path 54774" d="M898.631,1467.963c.494.285.769.733.615,1s-.681.254-1.175-.031-.769-.734-.615-1S898.138,1467.678,898.631,1467.963Z" transform="translate(-897.414 -1467.74)" fill="#868686"/>
                  <path id="Path_54775-2" data-name="Path 54775" d="M890.754,1472.511c.494.285.769.733.614,1s-.681.254-1.175-.031-.769-.733-.614-1S890.26,1472.226,890.754,1472.511Z" transform="translate(-885.165 -1469.764)" fill="#868686"/>
                </g>
                <g id="Group_8735-2" data-name="Group 8735" transform="translate(3.96 0.296)">
                  <path id="Path_54776-2" data-name="Path 54776" d="M895.243,1463.444a2.613,2.613,0,0,1-.4,1.689c-.219.126-.4-.425-.4-1.232a2.616,2.616,0,0,1,.4-1.69C895.066,1462.085,895.243,1462.637,895.243,1463.444Z" transform="translate(-894.451 -1462.194)" fill="#868686"/>
                  <path id="Path_54777-2" data-name="Path 54777" d="M895.243,1476.307a2.613,2.613,0,0,1-.4,1.69c-.219.126-.4-.426-.4-1.232a2.616,2.616,0,0,1,.4-1.69C895.066,1474.949,895.243,1475.5,895.243,1476.307Z" transform="translate(-894.451 -1467.919)" fill="#868686"/>
                </g>
              </g>
            </g>
            <path id="Path_54778-2" data-name="Path 54778" d="M902.019,1354.1l112.362-64.872-51.6-29.793L850.416,1324.3Z" transform="translate(-850.416 -1259.433)" fill="#e0e0df"/>
            <path id="Path_54779-2" data-name="Path 54779" d="M1013.587,1291.084,966,1263.608l-108.349,62.555,47.59,27.476Z" transform="translate(-853.635 -1261.291)" fill="#f8fbfb"/>
            <path id="Path_54780-2" data-name="Path 54780" d="M1052.9,1444.232l51.6,29.793v-67.9l-51.6-29.793Z" transform="translate(-1052.9 -1311.465)" fill="#d7d7d7"/>
            <path id="Path_54781-2" data-name="Path 54781" d="M1104.159,1468.677v-58.284l-48.127-27.786v58.284Z" transform="translate(-1054.294 -1314.256)" fill="#e0e0df"/>
            <path id="Path_54782-2" data-name="Path 54782" d="M882.608,1451.458l-8.552-4.938,3.047-1.76Z" transform="translate(-731.761 -1341.919)" fill="#4c6273"/>
            <path id="Path_54783-2" data-name="Path 54783" d="M967.445,1509.465l-1.69-.976-.005-1.256,1.7-.979Z" transform="translate(-867.481 -1369.289)" fill="#4c6273"/>
            <path id="Path_54784-2" data-name="Path 54784" d="M958.565,1505.426l1.7.97-2.94,1.7v-1.948Z" transform="translate(-855.618 -1368.92)" fill="#67899e"/>
            <path id="Path_54785-2" data-name="Path 54785" d="M965.75,1518.731v-1.948l11.255-6.5,1.69.976Z" transform="translate(-878.73 -1371.082)" fill="#67899e"/>
            <path id="Path_54786-2" data-name="Path 54786" d="M992.208,1528.328v-1.948l1.4-.811,1.7.97Z" transform="translate(-910.026 -1377.886)" fill="#67899e"/>
            <path id="Path_54787-2" data-name="Path 54787" d="M992.208,1523.771v-1.262l1.7-.979v3.21Z" transform="translate(-908.622 -1376.088)" fill="#4c6273"/>
            <path id="Path_54788-2" data-name="Path 54788" d="M957.32,1509.383v-1.948l20.764-11.988,1.7.97Z" transform="translate(-875.138 -1364.479)" fill="#67899e"/>
          </g>
          <g id="Group_8748-2" data-name="Group 8748" transform="translate(0 81.594)">
            <path id="Path_54789-2" data-name="Path 54789" d="M1080.461,1566.36l-14.492-8.367s3.625-8.088,7.61-7.085,9.2,4.721,9.2,7.878S1080.461,1566.36,1080.461,1566.36Z" transform="translate(-998.465 -1470.719)" fill="#4c6273"/>
            <path id="Path_54790-2" data-name="Path 54790" d="M1080.785,1559.611l-3.605,15.9,8.688,5.016,12.232-20.92-9.178-5.086Z" transform="translate(-1020.005 -1472.368)" fill="#3d3d3d"/>
            <path id="Path_54791-2" data-name="Path 54791" d="M1059.162,1509.72v22.668l8.924-5.152c1.826-4.619,5.185-8.944,9.028-11.163,4.531-2.616,8.387-1.529,9.852,2.271l6.252-3.611v-54.569l-14.534,8.386a14.683,14.683,0,0,0-6.156,6.938l-.51,1.2-11.673,27.258A14.663,14.663,0,0,0,1059.162,1509.72Z" transform="translate(-1005.125 -1430.369)" fill="#ff9e26"/>
            <path id="Path_54792-2" data-name="Path 54792" d="M1063.754,1509.313l5.75-3.391,3.038-5.97,17.29-9.98v-18.8c0-.072-.052-.1-.116-.064l-.779.457v17.772l-17.291,9.98-3.038,5.971-4.2,2.48Z" transform="translate(-1004.288 -1435.234)" fill="#5f7b90"/>
            <path id="Path_54793-2" data-name="Path 54793" d="M1065.366,1508.153l4.2-2.48,3.038-5.971,6.537-3.772,2.38-1.376,1.87-1.075,4.767-2.753,1.738-1V1471.95l-5.433,3.2-4.755,2.8-1.862,1.1-.189.108-1.6,3.776Z" transform="translate(-1005.246 -1435.615)" fill="#50697a"/>
            <path id="Path_54794-2" data-name="Path 54794" d="M1073.049,1527.569l-6.371,3.678v-1.763a2.84,2.84,0,0,1,1.186-2.266l4-2.309c.655-.378,1.186.023,1.186.9Z" transform="translate(-989.127 -1459.123)" fill="#577285"/>
            <path id="Path_54795-2" data-name="Path 54795" d="M1055.01,1542.494v9.15l-19.07,11.01a17.13,17.13,0,0,0,.476-3.887,10.44,10.44,0,0,0-.633-3.779l7.759-4.48,1.97-2.53Z" transform="translate(-953.944 -1467.013)" fill="#577285"/>
            <path id="Path_54796-2" data-name="Path 54796" d="M1207.344,1534.335a10.908,10.908,0,0,0,.476,3.337l-10.38,5.993v-7.625a3.7,3.7,0,0,1,1.852-3.207l9.509-5.49A19.315,19.315,0,0,0,1207.344,1534.335Z" transform="translate(-1197.44 -1460.269)" fill="#5c798d"/>
            <g id="Group_8745-2" data-name="Group 8745" transform="translate(59.908 83.855)">
              <ellipse id="Ellipse_313-2" data-name="Ellipse 313" cx="6.976" cy="12.083" rx="6.976" ry="12.083" transform="matrix(-0.866, -0.5, 0.5, -0.866, 12.083, 27.904)" fill="#545454"/>
              <path id="Path_54797-2" data-name="Path 54797" d="M1089.114,1575.113a10.435,10.435,0,0,1-4.721,8.177c-2.607,1.505-4.721.285-4.721-2.726a10.435,10.435,0,0,1,4.721-8.177C1087,1570.881,1089.114,1572.1,1089.114,1575.113Z" transform="translate(-1072.31 -1563.886)" fill="#a5a5a5"/>
              <path id="Path_54798-2" data-name="Path 54798" d="M1088.461,1580.437a3.139,3.139,0,0,1-1.42,2.459c-.785.453-1.421.086-1.421-.819a3.139,3.139,0,0,1,1.421-2.46C1087.825,1579.164,1088.461,1579.531,1088.461,1580.437Z" transform="translate(-1074.958 -1567.304)" fill="#c1c1c0"/>
              <g id="Group_8739-2" data-name="Group 8739" transform="translate(11.687 8.904)">
                <path id="Path_54799-2" data-name="Path 54799" d="M1088.258,1574.881a2.614,2.614,0,0,1-.4,1.689c-.219.127-.4-.425-.4-1.232a2.611,2.611,0,0,1,.4-1.69C1088.081,1573.522,1088.258,1574.074,1088.258,1574.881Z" transform="translate(-1087.466 -1573.63)" fill="#868686"/>
                <path id="Path_54800-2" data-name="Path 54800" d="M1088.258,1587.744a2.613,2.613,0,0,1-.4,1.689c-.219.127-.4-.425-.4-1.232a2.61,2.61,0,0,1,.4-1.69C1088.081,1586.385,1088.258,1586.937,1088.258,1587.744Z" transform="translate(-1087.466 -1579.356)" fill="#868686"/>
              </g>
              <g id="Group_8744-2" data-name="Group 8744" transform="translate(7.727 8.608)">
                <g id="Group_8740-2" data-name="Group 8740" transform="translate(1.233)">
                  <path id="Path_54801-2" data-name="Path 54801" d="M1091.086,1588.138c.494-.856,1.02-1.477,1.175-1.388s-.12.855-.615,1.711-1.02,1.477-1.175,1.387S1090.592,1588.994,1091.086,1588.138Z" transform="translate(-1090.428 -1579.17)" fill="#868686"/>
                  <path id="Path_54802-2" data-name="Path 54802" d="M1083.208,1574.494c.494-.856,1.021-1.477,1.175-1.388s-.12.856-.614,1.711-1.02,1.477-1.175,1.388S1082.715,1575.349,1083.208,1574.494Z" transform="translate(-1078.18 -1573.097)" fill="#868686"/>
                </g>
                <g id="Group_8741-2" data-name="Group 8741" transform="translate(0 2.697)">
                  <path id="Path_54803-2" data-name="Path 54803" d="M1092.735,1584.795c.7-.4,1.265-.526,1.265-.273s-.566.784-1.265,1.188-1.265.526-1.265.273S1092.036,1585.2,1092.735,1584.795Z" transform="translate(-1091.47 -1580.821)" fill="#868686"/>
                  <path id="Path_54804-2" data-name="Path 54804" d="M1081.594,1578.362c.7-.4,1.265-.525,1.265-.273s-.567.785-1.265,1.188-1.265.526-1.265.273S1080.895,1578.766,1081.594,1578.362Z" transform="translate(-1074.147 -1577.958)" fill="#868686"/>
                </g>
                <g id="Group_8742-2" data-name="Group 8742" transform="translate(1.233 3.373)">
                  <path id="Path_54805-2" data-name="Path 54805" d="M1091.646,1579.4c.494.285.769.734.615,1s-.681.254-1.175-.032-.769-.734-.615-1S1091.152,1579.115,1091.646,1579.4Z" transform="translate(-1090.428 -1579.177)" fill="#868686"/>
                  <path id="Path_54806-2" data-name="Path 54806" d="M1083.769,1583.948c.494.285.769.734.614,1s-.68.254-1.175-.032-.769-.734-.614-1S1083.275,1583.662,1083.769,1583.948Z" transform="translate(-1078.18 -1581.201)" fill="#868686"/>
                </g>
                <g id="Group_8743-2" data-name="Group 8743" transform="translate(3.96 0.296)">
                  <path id="Path_54807-2" data-name="Path 54807" d="M1088.258,1574.881a2.614,2.614,0,0,1-.4,1.689c-.219.127-.4-.425-.4-1.232a2.611,2.611,0,0,1,.4-1.69C1088.081,1573.522,1088.258,1574.074,1088.258,1574.881Z" transform="translate(-1087.466 -1573.63)" fill="#868686"/>
                  <path id="Path_54808-2" data-name="Path 54808" d="M1088.258,1587.744a2.613,2.613,0,0,1-.4,1.689c-.219.127-.4-.425-.4-1.232a2.61,2.61,0,0,1,.4-1.69C1088.081,1586.385,1088.258,1586.937,1088.258,1587.744Z" transform="translate(-1087.466 -1579.356)" fill="#868686"/>
                </g>
              </g>
            </g>
            <path id="Path_54809-2" data-name="Path 54809" d="M1094.344,1517.19h1.675l11.675-27.258h-1.675Z" transform="translate(-1039.123 -1443.618)" fill="#50697a"/>
            <path id="Path_54810-2" data-name="Path 54810" d="M1097.364,1463.5l12.391,7.155,4,2.311,2.777,1.6,15.758,9.1,4,2.307,3.134,1.81,8,4.615,1.553.9,11.673-27.258-11.067-6.392-8-4.615-3.134-1.81-4-2.307-4.209-2.432-14.326-8.27-4-2.307-2.877-1.661Z" transform="translate(-1093.747 -1419.722)" fill="#50697a"/>
            <path id="Path_54811-2" data-name="Path 54811" d="M1059.162,1422.987v0l21.2,12.239,30.4,17.556.509-1.2a14.684,14.684,0,0,1,6.156-6.938l14.534-8.387-51.6-29.794-14.534,8.391a14.673,14.673,0,0,0-6.156,6.934Z" transform="translate(-1043.872 -1406.471)" fill="#ffaf46"/>
            <path id="Path_54812-2" data-name="Path 54812" d="M1118.4,1491.142v22.672l51.6,29.79v-22.667a14.67,14.67,0,0,1,1.183-5.778l-32.439-18.727-19.165-11.067A14.672,14.672,0,0,0,1118.4,1491.142Z" transform="translate(-1115.966 -1441.585)" fill="#f29217"/>
            <path id="Path_54813-2" data-name="Path 54813" d="M1120.533,1540.175l51.6,29.793,2.434-3.545-51.6-29.79Z" transform="translate(-1120.533 -1464.404)" fill="#5c798d"/>
            <path id="Path_54814-2" data-name="Path 54814" d="M1114.352,1588.024a10.92,10.92,0,0,0,.476,3.337l-10.38,5.993v-7.624a3.7,3.7,0,0,1,1.852-3.207l9.508-5.49A19.327,19.327,0,0,0,1114.352,1588.024Z" transform="translate(-1052.845 -1484.165)" fill="#577285"/>
            <path id="Path_54815-2" data-name="Path 54815" d="M1176.523,1580.433l-51.6-29.793v-7.624l51.6,29.792Z" transform="translate(-1124.92 -1467.245)" fill="#4c6574"/>
            <g id="Group_8747-2" data-name="Group 8747" transform="translate(2.434 54.932)">
              <path id="Path_54816-2" data-name="Path 54816" d="M1122.161,1565.626l6.273,3.622v-12.176l-4.111-2.374c-.721-.416-1.355-.235-1.56.444l-2.162,7.171A3.38,3.38,0,0,0,1122.161,1565.626Z" transform="translate(-1076.832 -1527.278)" fill="#5c798d"/>
              <path id="Path_54817-2" data-name="Path 54817" d="M1205.559,1521.262l-6.273-3.622v-12.177l4.111,2.374a3.647,3.647,0,0,1,1.561,2.245l2.162,9.667C1207.429,1521.133,1206.647,1521.89,1205.559,1521.262Z" transform="translate(-1199.286 -1505.463)" fill="#5c798d"/>
              <path id="Path_54818-2" data-name="Path 54818" d="M1170.22,1537.889l-2.08,6.332c-.266.81-1.04,1.016-1.916.51l-25.032-14.452a4.5,4.5,0,0,1-1.917-2.723l-2.079-8.733c-.413-1.737.554-2.708,1.917-1.922l29.191,16.854C1169.665,1534.541,1170.633,1536.629,1170.22,1537.889Z" transform="translate(-1127.906 -1510.431)" fill="#5c798d"/>
              <g id="Group_8746-2" data-name="Group 8746" transform="translate(12.337 8.148)">
                <path id="Path_54819-2" data-name="Path 54819" d="M1142.655,1557.386l.695.4v-9.881l-.695-.4Z" transform="translate(-1116.36 -1532.323)" fill="#6f92aa"/>
                <path id="Path_54820-2" data-name="Path 54820" d="M1146.3,1555.281l.695.4V1545.8l-.695-.4Z" transform="translate(-1122.028 -1531.386)" fill="#6f92aa"/>
                <path id="Path_54821-2" data-name="Path 54821" d="M1149.945,1553.177l.695.4V1543.7l-.695-.4Z" transform="translate(-1127.696 -1530.449)" fill="#6f92aa"/>
                <path id="Path_54822-2" data-name="Path 54822" d="M1153.59,1551.072l.7.4v-9.881l-.7-.4Z" transform="translate(-1133.363 -1529.513)" fill="#6f92aa"/>
                <path id="Path_54823-2" data-name="Path 54823" d="M1157.235,1548.968l.695.4v-9.881l-.695-.4Z" transform="translate(-1139.031 -1528.576)" fill="#6f92aa"/>
                <path id="Path_54824-2" data-name="Path 54824" d="M1160.88,1546.863l.7.4v-9.881l-.7-.4Z" transform="translate(-1144.699 -1527.64)" fill="#6f92aa"/>
                <path id="Path_54825-2" data-name="Path 54825" d="M1164.525,1544.759l.695.4v-9.881l-.695-.4Z" transform="translate(-1150.366 -1526.703)" fill="#6f92aa"/>
                <path id="Path_54826-2" data-name="Path 54826" d="M1168.171,1542.654l.695.4v-9.881l-.695-.4Z" transform="translate(-1156.034 -1525.766)" fill="#6f92aa"/>
                <path id="Path_54827-2" data-name="Path 54827" d="M1171.815,1540.55l.7.4v-9.881l-.7-.4Z" transform="translate(-1161.702 -1524.83)" fill="#6f92aa"/>
                <path id="Path_54828-2" data-name="Path 54828" d="M1175.46,1538.445l.7.4v-9.881l-.7-.4Z" transform="translate(-1167.37 -1523.893)" fill="#6f92aa"/>
                <path id="Path_54829-2" data-name="Path 54829" d="M1179.106,1536.341l.695.4v-9.881l-.695-.4Z" transform="translate(-1173.037 -1522.957)" fill="#6f92aa"/>
                <path id="Path_54830-2" data-name="Path 54830" d="M1182.751,1534.236l.695.4v-9.881l-.695-.4Z" transform="translate(-1178.705 -1522.02)" fill="#6f92aa"/>
                <path id="Path_54831-2" data-name="Path 54831" d="M1186.4,1532.132l.7.4v-9.881l-.7-.4Z" transform="translate(-1184.373 -1521.083)" fill="#6f92aa"/>
                <path id="Path_54832-2" data-name="Path 54832" d="M1190.041,1530.027l.695.4v-9.881l-.695-.4Z" transform="translate(-1190.041 -1520.146)" fill="#6f92aa"/>
              </g>
              <path id="Path_54833-2" data-name="Path 54833" d="M1122.536,1560.528a4.16,4.16,0,0,0,.846,4.3c1.086,1.218,2.468,1.264,3.086.1a4.159,4.159,0,0,0-.846-4.3C1124.537,1559.414,1123.155,1559.368,1122.536,1560.528Z" transform="translate(-1076.11 -1529.597)" fill="#b3e1e9"/>
              <path id="Path_54834-2" data-name="Path 54834" d="M1122.591,1571.733l4.1,2.365c.332.192.6-.012.6-.455h0a1.442,1.442,0,0,0-.6-1.15l-4.1-2.365c-.333-.192-.6.012-.6.455h0A1.441,1.441,0,0,0,1122.591,1571.733Z" transform="translate(-1076.494 -1534.212)" fill="#f1b050"/>
              <path id="Path_54835-2" data-name="Path 54835" d="M1208.156,1515.356c.619,1.874.24,3.364-.846,3.327s-2.468-1.586-3.086-3.46-.24-3.364.846-3.327S1207.538,1513.482,1208.156,1515.356Z" transform="translate(-1203.126 -1508.326)" fill="#b3e1e9"/>
              <path id="Path_54836-2" data-name="Path 54836" d="M1207.481,1527.451l-4.1-2.365a1.44,1.44,0,0,1-.6-1.15h0c0-.443.27-.647.6-.455l4.1,2.365a1.441,1.441,0,0,1,.6,1.15h0C1208.083,1527.439,1207.814,1527.643,1207.481,1527.451Z" transform="translate(-1202.123 -1513.45)" fill="#f1b050"/>
            </g>
            <path id="Path_54837-2" data-name="Path 54837" d="M1063.754,1471.635l.895-.394v18.8l-.895-.63Z" transform="translate(-979.104 -1435.299)" fill="#465b6b"/>
            <path id="Path_54838-2" data-name="Path 54838" d="M1068.5,1480.51l3.684,15.533,4.767-2.753-3.7-15.577Z" transform="translate(-994.036 -1438.18)" fill="#7ba4be" opacity="0.42"/>
            <path id="Path_54839-2" data-name="Path 54839" d="M1080.458,1488.619l3.086,13,2.38-1.376-3.676-15.509-.189.108Z" transform="translate(-1009.648 -1441.305)" fill="#7ba4be" opacity="0.42"/>
            <path id="Path_54840-2" data-name="Path 54840" d="M1117.308,1502.85l8,4.615,2.159-32.752-8-4.615Z" transform="translate(-1071.637 -1434.791)" fill="#7ba4be" opacity="0.42"/>
            <path id="Path_54841-2" data-name="Path 54841" d="M1137.367,1495.431l4,2.307,2.159-32.751-4-2.307Z" transform="translate(-1098.827 -1431.489)" fill="#7ba4be" opacity="0.42"/>
            <path id="Path_54842-2" data-name="Path 54842" d="M1177.97,1471.987l4,2.311,2.159-32.756-4-2.307Z" transform="translate(-1161.962 -1421.054)" fill="#7ba4be" opacity="0.42"/>
          </g>
        </g>
      </g>
      <g id="Group_8822" data-name="Group 8822" transform="translate(847.809 487.469)">
        <g id="Group_8767" data-name="Group 8767" transform="translate(35.755 30.462)">
          <path id="Path_54843" data-name="Path 54843" d="M2299.328,1484.817l8.082.688,23.667-13.427-12.915-6.985Z" transform="translate(-2130.707 -1338.287)" fill="#1a1818" opacity="0.2"/>
          <path id="Path_54844" data-name="Path 54844" d="M2065.266,1533.96l8.082.688,23.667-13.427-12.916-6.985Z" transform="translate(-2033.093 -1358.781)" fill="#1a1818" opacity="0.2"/>
          <path id="Path_54845" data-name="Path 54845" d="M2010.077,1417.607l8.082.688,23.667-13.427-12.915-6.985Z" transform="translate(-2010.077 -1310.257)" fill="#1a1818" opacity="0.2"/>
          <path id="Path_54846" data-name="Path 54846" d="M2096.013,1368.03l8.082.688,23.667-13.427-12.915-6.985Z" transform="translate(-2045.916 -1289.581)" fill="#1a1818" opacity="0.2"/>
          <path id="Path_54847" data-name="Path 54847" d="M2173.13,1322.854l8.081.688,23.667-13.427-12.915-6.985Z" transform="translate(-2078.077 -1270.741)" fill="#1a1818" opacity="0.2"/>
          <path id="Path_54848" data-name="Path 54848" d="M2179.834,1540.432l8.082.689,54.271-30.79-15.679-9.437Z" transform="translate(-2080.873 -1353.217)" fill="#1a1818" opacity="0.2"/>
          <path id="Path_54849" data-name="Path 54849" d="M2163.378,1446.042l8.082.689,54.271-30.79-15.68-9.437Z" transform="translate(-2074.01 -1313.852)" fill="#1a1818" opacity="0.2"/>
          <path id="Path_54850" data-name="Path 54850" d="M2288.676,1380.416l8.082.689,41.229-23.363-15.68-9.437Z" transform="translate(-2126.265 -1289.581)" fill="#1a1818" opacity="0.2"/>
          <g id="Group_8751" data-name="Group 8751" transform="translate(126.657)">
            <path id="Path_54851" data-name="Path 54851" d="M2324.431,1282.981l-35.754,20.643v49.543l35.754-20.643Z" transform="translate(-2252.922 -1262.338)" fill="#885e41"/>
            <path id="Path_54852" data-name="Path 54852" d="M2324.431,1282.981l-35.754,20.643v.231l35.754-20.578Z" transform="translate(-2252.922 -1262.338)" fill="#775039"/>
            <path id="Path_54853" data-name="Path 54853" d="M2227.343,1282.981l35.754,20.643v49.543l-35.754-20.643Z" transform="translate(-2227.343 -1262.338)" fill="#ad7b4e"/>
            <path id="Path_54854" data-name="Path 54854" d="M2298.852,1268.213l-35.755,20.643-35.754-20.643,35.754-20.643Z" transform="translate(-2227.343 -1247.57)" fill="#daad7a"/>
            <path id="Path_54855" data-name="Path 54855" d="M2251.876,1265.862l35.744,20.65,7.162-4.135-35.754-20.643Z" transform="translate(-2237.574 -1253.477)" fill="#e4caa4" opacity="0.8"/>
          </g>
          <path id="Path_54856" data-name="Path 54856" d="M2313.191,1301.279l.01,16.508,7.152-4.129v-16.514Z" transform="translate(-2136.489 -1268.245)" fill="#a88971" opacity="0.8"/>
          <path id="Path_54857" data-name="Path 54857" d="M2313.191,1357.936l.01,16.509,7.152-4.129V1353.8Z" transform="translate(-2136.489 -1291.873)" fill="#a88971" opacity="0.8"/>
          <g id="Group_8766" data-name="Group 8766" transform="translate(131.432 15.939)">
            <g id="Group_8753" data-name="Group 8753">
              <path id="Path_54858" data-name="Path 54858" d="M2249.335,1281.547c.779-.661.363-1.757-1.037-2.566l-.013-.008a5.605,5.605,0,0,0-.517-.262c-.142-.063-.287-.121-.434-.174a6.625,6.625,0,0,0-1.516-.348,4.3,4.3,0,0,0-1.964.192l2.627,1.517-2.918,1.684a.708.708,0,0,1-.639,0,.2.2,0,0,1,0-.37l.1-.059a.069.069,0,0,0,0-.131.249.249,0,0,0-.226,0l-.1.059a.333.333,0,0,0,0,.631,1.208,1.208,0,0,0,1.092,0l2.918-1.685Z" transform="translate(-2238.427 -1276.266)" fill="#1a1818"/>
              <g id="Group_8752" data-name="Group 8752">
                <path id="Path_54859" data-name="Path 54859" d="M2242.719,1283.207l-7.185-4.147,7.185-4.148,7.184,4.148Zm-6.627-4.147,6.627,3.826,6.627-3.826-6.627-3.826Z" transform="translate(-2235.534 -1274.912)" fill="#1a1818"/>
              </g>
            </g>
            <g id="Group_8756" data-name="Group 8756" transform="translate(7.805 4.506)">
              <g id="Group_8754" data-name="Group 8754">
                <path id="Path_54860" data-name="Path 54860" d="M2256.107,1290.937l-7.184-4.148,7.184-4.147,7.184,4.147Zm-6.627-4.148,6.627,3.826,6.627-3.826-6.627-3.826Z" transform="translate(-2248.923 -1282.642)" fill="#1a1818"/>
              </g>
              <g id="Group_8755" data-name="Group 8755" transform="translate(3.306 1.945)">
                <path id="Path_54861" data-name="Path 54861" d="M2264.425,1287.479l-1.812,1.046a2.384,2.384,0,0,1-2.149,0l-.449-.259a.656.656,0,0,1,0-1.241l1.812-1.046,1.314.759-.819.139.559.323-2.385.5,3.071-.33-.57-.329.627-.023Z" transform="translate(-2256.67 -1285.979)" fill="#1a1818"/>
                <path id="Path_54862" data-name="Path 54862" d="M2257.418,1291.163l-.4-.229,2.27-1.311.4.229Z" transform="translate(-2255.606 -1287.499)" fill="#1a1818"/>
                <path id="Path_54863" data-name="Path 54863" d="M2256.392,1291.5l-1.8-.539,2.662,1.537Z" transform="translate(-2254.594 -1288.057)" fill="#1a1818"/>
              </g>
            </g>
            <g id="Group_8760" data-name="Group 8760" transform="translate(15.537 8.97)">
              <g id="Group_8757" data-name="Group 8757">
                <path id="Path_54864" data-name="Path 54864" d="M2269.37,1298.594l-7.184-4.148,7.184-4.148,7.185,4.148Zm-6.627-4.148,6.627,3.827,6.627-3.827-6.627-3.826Z" transform="translate(-2262.186 -1290.299)" fill="#1a1818"/>
              </g>
              <g id="Group_8758" data-name="Group 8758" transform="translate(1.736 2.661)">
                <path id="Path_54865" data-name="Path 54865" d="M2270.965,1299.5l-5.8-3.349,7.968-1.283Zm-4.9-3.213,4.663,2.692,1.743-3.723Z" transform="translate(-2265.164 -1294.864)" fill="#1a1818"/>
              </g>
              <g id="Group_8759" data-name="Group 8759" transform="translate(5.291 3.391)">
                <path id="Path_54866" data-name="Path 54866" d="M2271.38,1297.61a.542.542,0,0,1,.512-.007c.152.088.14.208-.012.3a.536.536,0,0,1-.512.007C2271.22,1297.82,2271.232,1297.7,2271.38,1297.61Zm.71-.288,1.97-1.205.405.234-2.088,1.138Z" transform="translate(-2271.263 -1296.116)" fill="#1a1818"/>
              </g>
            </g>
            <g id="Group_8765" data-name="Group 8765" transform="translate(23.288 13.445)">
              <g id="Group_8761" data-name="Group 8761">
                <path id="Path_54867" data-name="Path 54867" d="M2282.667,1306.271l-7.184-4.148,7.184-4.148,7.185,4.148Zm-6.626-4.148,6.626,3.826,6.627-3.826-6.627-3.826Z" transform="translate(-2275.483 -1297.976)" fill="#1a1818"/>
              </g>
              <g id="Group_8764" data-name="Group 8764" transform="translate(2.153 1.913)">
                <path id="Path_54868" data-name="Path 54868" d="M2283.828,1307.87l-4.651-2.685.682-.394,4.651,2.685Z" transform="translate(-2279.177 -1302.731)" fill="#1a1818"/>
                <g id="Group_8762" data-name="Group 8762" transform="translate(4.547 1.497)">
                  <path id="Path_54869" data-name="Path 54869" d="M2287.516,1306.6l-.539-.311,3.483-2.011.539.311Z" transform="translate(-2286.978 -1304.016)" fill="#1a1818"/>
                  <path id="Path_54870" data-name="Path 54870" d="M2292.743,1304.974l-1.489-.86,2.123-.288Z" transform="translate(-2288.761 -1303.826)" fill="#1a1818"/>
                </g>
                <g id="Group_8763" data-name="Group 8763" transform="translate(1.954)">
                  <path id="Path_54871" data-name="Path 54871" d="M2283.068,1304.034l-.539-.311,3.484-2.011.539.311Z" transform="translate(-2282.529 -1301.447)" fill="#1a1818"/>
                  <path id="Path_54872" data-name="Path 54872" d="M2288.295,1302.406l-1.489-.86,2.123-.288Z" transform="translate(-2284.313 -1301.258)" fill="#1a1818"/>
                </g>
              </g>
            </g>
          </g>
          <path id="Path_54873" data-name="Path 54873" d="M2294.782,1265.862l-35.744,20.65-7.162-4.135,35.754-20.643Z" transform="translate(-2110.918 -1253.477)" fill="#e4caa4" opacity="0.8"/>
          <path id="Path_54874" data-name="Path 54874" d="M2259.038,1301.279l-.01,16.508-7.151-4.129v-16.514Z" transform="translate(-2110.918 -1268.245)" fill="#ceb699" opacity="0.8"/>
          <path id="Path_54875" data-name="Path 54875" d="M2259.038,1357.936l-.01,16.509-7.151-4.129V1353.8Z" transform="translate(-2110.918 -1291.873)" fill="#ceb699" opacity="0.8"/>
        </g>
        <g id="Group_8769" data-name="Group 8769" transform="translate(95.053 0)">
          <g id="Group_8768" data-name="Group 8768">
            <path id="Path_54876" data-name="Path 54876" d="M2194.582,1230.727l-21.452,12.386v49.543l21.452-12.386Z" transform="translate(-2137.375 -1210.084)" fill="#885e41"/>
            <path id="Path_54877" data-name="Path 54877" d="M2194.582,1230.727l-21.452,12.386v.231l21.452-12.321Z" transform="translate(-2137.375 -1210.084)" fill="#775039"/>
            <path id="Path_54878" data-name="Path 54878" d="M2111.8,1216.561l35.754,20.644v49.543L2111.8,1266.1Z" transform="translate(-2111.796 -1204.176)" fill="#ad7b4e"/>
            <path id="Path_54879" data-name="Path 54879" d="M2169,1215.959l-21.453,12.386L2111.8,1207.7l21.452-12.385Z" transform="translate(-2111.796 -1195.316)" fill="#daad7a"/>
            <path id="Path_54880" data-name="Path 54880" d="M2124.062,1206.528l35.744,20.648.01,16.508,7.152-4.128v-16.514l-35.755-20.644Z" transform="translate(-2116.912 -1198.27)" fill="#e4caa4" opacity="0.8"/>
          </g>
          <path id="Path_54881" data-name="Path 54881" d="M2185.377,1241.945l.01,16.509,7.152-4.128v-16.514Z" transform="translate(-2142.483 -1213.038)" fill="#a88971"/>
        </g>
        <g id="Group_8771" data-name="Group 8771" transform="translate(50.097 59.362)">
          <g id="Group_8770" data-name="Group 8770">
            <path id="Path_54882" data-name="Path 54882" d="M2117.466,1332.556l-21.453,12.386v16.513l21.453-12.385Z" transform="translate(-2060.259 -1311.914)" fill="#885e41"/>
            <path id="Path_54883" data-name="Path 54883" d="M2117.466,1332.556l-21.453,12.386v.231l21.453-12.321Z" transform="translate(-2060.259 -1311.914)" fill="#775039"/>
            <path id="Path_54884" data-name="Path 54884" d="M2034.68,1318.391l35.755,20.644v16.513L2034.68,1334.9Z" transform="translate(-2034.68 -1306.006)" fill="#ad7b4e"/>
            <path id="Path_54885" data-name="Path 54885" d="M2091.887,1317.789l-21.453,12.386-35.755-20.644,21.453-12.385Z" transform="translate(-2034.68 -1297.146)" fill="#daad7a"/>
            <path id="Path_54886" data-name="Path 54886" d="M2046.947,1308.359l35.744,20.649,7.161-4.134L2054.1,1304.23Z" transform="translate(-2039.796 -1300.1)" fill="#e4caa4" opacity="0.8"/>
          </g>
          <path id="Path_54887" data-name="Path 54887" d="M2108.262,1343.776l.01,8.249,7.151-4.128v-8.255Z" transform="translate(-2065.367 -1314.868)" fill="#a88971" opacity="0.8"/>
        </g>
        <g id="Group_8788" data-name="Group 8788" transform="translate(89.368 96.593)">
          <g id="Group_8772" data-name="Group 8772">
            <path id="Path_54888" data-name="Path 54888" d="M2213.434,1396.422l-50.055,28.9v16.513l50.055-28.9Z" transform="translate(-2127.624 -1375.778)" fill="#885e41"/>
            <path id="Path_54889" data-name="Path 54889" d="M2213.434,1396.422l-50.055,28.9v.231l50.055-28.836Z" transform="translate(-2127.624 -1375.778)" fill="#775039"/>
            <path id="Path_54890" data-name="Path 54890" d="M2102.045,1410.585l35.755,20.644v16.513l-35.755-20.644Z" transform="translate(-2102.045 -1381.685)" fill="#ad7b4e"/>
            <path id="Path_54891" data-name="Path 54891" d="M2187.855,1381.654l-50.056,28.9-35.755-20.644,50.057-28.9Z" transform="translate(-2102.045 -1361.01)" fill="#daad7a"/>
            <path id="Path_54892" data-name="Path 54892" d="M2138.844,1386.385l35.744,20.648,7.161-4.134L2146,1382.256Z" transform="translate(-2117.392 -1369.871)" fill="#e4caa4" opacity="0.8"/>
            <path id="Path_54893" data-name="Path 54893" d="M2183.778,1379.3l-50.057,28.915-7.16-4.137,50.065-28.907Z" transform="translate(-2112.27 -1366.917)" fill="#e4caa4" opacity="0.8"/>
          </g>
          <path id="Path_54894" data-name="Path 54894" d="M2133.731,1428.886l-.01,8.25-7.152-4.128v-8.255Z" transform="translate(-2112.272 -1387.593)" fill="#d7bc9a" opacity="0.8"/>
          <g id="Group_8787" data-name="Group 8787" transform="translate(38.479 30.578)">
            <g id="Group_8774" data-name="Group 8774" transform="translate(27.588)">
              <path id="Path_54895" data-name="Path 54895" d="M2216.9,1423.941a6.791,6.791,0,0,1,3.247-4.2l.016-.009a5.375,5.375,0,0,1,.575-.288,4.145,4.145,0,0,1,.435-.16,2.5,2.5,0,0,1,1.254-.1,1.2,1.2,0,0,1,.967,1.013l-3.112,1.8v3.992c0,.241.169.339.379.218a.84.84,0,0,0,.378-.656v-.14a.3.3,0,0,1,.134-.232c.074-.043.134-.008.134.078v.139a1.432,1.432,0,0,1-.646,1.121c-.357.206-.647.038-.647-.374v-3.991Z" transform="translate(-2216.012 -1415.831)" fill="#1a1818"/>
              <g id="Group_8773" data-name="Group 8773">
                <path id="Path_54896" data-name="Path 54896" d="M2215.377,1418.378l8.511-4.914v9.828l-8.511,4.914Zm8.181-4.343-7.851,4.533v9.065l7.851-4.533Z" transform="translate(-2215.377 -1413.464)" fill="#1a1818"/>
              </g>
            </g>
            <g id="Group_8777" data-name="Group 8777" transform="translate(18.342 5.338)">
              <g id="Group_8775" data-name="Group 8775">
                <path id="Path_54897" data-name="Path 54897" d="M2199.516,1427.535l8.511-4.914v9.827l-8.511,4.914Zm8.181-4.342-7.85,4.532v9.065l7.85-4.533Z" transform="translate(-2199.516 -1422.621)" fill="#1a1818"/>
              </g>
              <g id="Group_8776" data-name="Group 8776" transform="translate(2.679 3.02)">
                <path id="Path_54898" data-name="Path 54898" d="M2204.111,1429.578v2.48c0,.808.573,1.138,1.273.734l.533-.307a2.828,2.828,0,0,0,1.273-2.205V1427.8l-1.557.9.342.528-.661.383.9,1.7-1.481-1.636.675-.39-.348-.256Z" transform="translate(-2204.111 -1427.801)" fill="#1a1818"/>
                <path id="Path_54899" data-name="Path 54899" d="M2206.342,1438.517l.47-.272v-3.105l-.47.272Z" transform="translate(-2205.042 -1430.862)" fill="#1a1818"/>
                <path id="Path_54900" data-name="Path 54900" d="M2205.648,1440.022l1.617-.343-3.153,1.821Z" transform="translate(-2204.112 -1432.755)" fill="#1a1818"/>
              </g>
            </g>
            <g id="Group_8781" data-name="Group 8781" transform="translate(9.183 10.627)">
              <g id="Group_8778" data-name="Group 8778">
                <path id="Path_54901" data-name="Path 54901" d="M2183.8,1436.607l8.51-4.914v9.827l-8.51,4.914Zm8.18-4.343-7.85,4.533v9.065l7.85-4.532Z" transform="translate(-2183.804 -1431.693)" fill="#1a1818"/>
              </g>
              <g id="Group_8779" data-name="Group 8779" transform="translate(0.82 3.867)">
                <path id="Path_54902" data-name="Path 54902" d="M2188.678,1438.326l3.4,5-6.871,3.967Zm0,.916-2.787,7.212,5.523-3.189Z" transform="translate(-2185.21 -1438.326)" fill="#1a1818"/>
              </g>
              <g id="Group_8780" data-name="Group 8780" transform="translate(3.96 5.716)">
                <path id="Path_54903" data-name="Path 54903" d="M2190.892,1445.6c-.18.1-.3.015-.3-.188a.629.629,0,0,1,.3-.529c.171-.1.3-.02.3.189A.642.642,0,0,1,2190.892,1445.6Zm-.17-1.087-.071-2.735.481-.277-.07,2.816Z" transform="translate(-2190.597 -1441.498)" fill="#1a1818"/>
              </g>
            </g>
            <g id="Group_8786" data-name="Group 8786" transform="translate(0 15.928)">
              <g id="Group_8782" data-name="Group 8782">
                <path id="Path_54904" data-name="Path 54904" d="M2168.052,1445.7l8.51-4.914v9.827l-8.51,4.914Zm8.18-4.342-7.85,4.533v9.065l7.85-4.533Z" transform="translate(-2168.052 -1440.787)" fill="#1a1818"/>
              </g>
              <g id="Group_8785" data-name="Group 8785" transform="translate(1.5 2.873)">
                <path id="Path_54905" data-name="Path 54905" d="M2170.626,1459.563l5.51-3.181v-.933l-5.51,3.181Z" transform="translate(-2170.626 -1449.775)" fill="#1a1818"/>
                <g id="Group_8783" data-name="Group 8783" transform="translate(0.262 1.774)">
                  <path id="Path_54906" data-name="Path 54906" d="M2172.04,1455.363l.638-.369v-4.765l-.638.368Z" transform="translate(-2171.477 -1449.372)" fill="#1a1818"/>
                  <path id="Path_54907" data-name="Path 54907" d="M2171.074,1451.014l1.764-1.018-.962-1.237Z" transform="translate(-2171.074 -1448.758)" fill="#1a1818"/>
                </g>
                <g id="Group_8784" data-name="Group 8784" transform="translate(3.333)">
                  <path id="Path_54908" data-name="Path 54908" d="M2177.31,1452.32l.638-.369v-4.765l-.638.368Z" transform="translate(-2176.747 -1446.329)" fill="#1a1818"/>
                  <path id="Path_54909" data-name="Path 54909" d="M2176.344,1447.972l1.764-1.019-.962-1.237Z" transform="translate(-2176.344 -1445.716)" fill="#1a1818"/>
                </g>
              </g>
            </g>
          </g>
          <path id="Path_54910" data-name="Path 54910" d="M2200.159,1421.8l.01,8.249,7.151-4.128v-8.255Z" transform="translate(-2142.963 -1384.639)" fill="#a88971" opacity="0.8"/>
        </g>
        <g id="Group_8790" data-name="Group 8790" transform="translate(113.272 159.881)">
          <g id="Group_8789" data-name="Group 8789">
            <path id="Path_54911" data-name="Path 54911" d="M2229.89,1490.814l-50.056,28.9v16.513l50.056-28.9Z" transform="translate(-2158.391 -1478.433)" fill="#885e41"/>
            <path id="Path_54912" data-name="Path 54912" d="M2229.89,1490.814l-50.056,28.9v.231l50.056-28.835Z" transform="translate(-2158.391 -1478.433)" fill="#775039"/>
            <path id="Path_54913" data-name="Path 54913" d="M2143.051,1519.169l21.443,12.371v16.513l-21.443-12.371Z" transform="translate(-2143.051 -1490.258)" fill="#ad7b4e"/>
            <path id="Path_54914" data-name="Path 54914" d="M2214.55,1481.956l-50.056,28.9-21.443-12.371,50.055-28.911Z" transform="translate(-2143.051 -1469.575)" fill="#daad7a"/>
            <path id="Path_54915" data-name="Path 54915" d="M2212.5,1480.778l-50.057,28.914-7.16-4.137,50.065-28.907Z" transform="translate(-2148.153 -1472.525)" fill="#e4caa4" opacity="0.8"/>
          </g>
          <path id="Path_54916" data-name="Path 54916" d="M2162.453,1530.362l-.01,8.25-7.151-4.128v-8.255Z" transform="translate(-2148.156 -1493.202)" fill="#d7bc9a" opacity="0.8"/>
        </g>
        <g id="Group_8793" data-name="Group 8793" transform="translate(173.58 125.492)">
          <g id="Group_8792" data-name="Group 8792" transform="translate(9.342 1.957)">
            <g id="Group_8791" data-name="Group 8791">
              <path id="Path_54917" data-name="Path 54917" d="M2320.779,1435.187l-21.453,12.386v24.772l21.453-12.386Z" transform="translate(-2277.875 -1422.802)" fill="#885e41"/>
              <path id="Path_54918" data-name="Path 54918" d="M2320.779,1435.187l-21.453,12.386v.231l21.453-12.321Z" transform="translate(-2277.875 -1422.802)" fill="#775039"/>
              <path id="Path_54919" data-name="Path 54919" d="M2262.528,1435.188l21.452,12.385v24.772l-21.453-12.386Z" transform="translate(-2262.528 -1422.802)" fill="#ad7b4e"/>
              <path id="Path_54920" data-name="Path 54920" d="M2305.433,1426.327l-21.453,12.386-21.452-12.387,21.453-12.385Z" transform="translate(-2262.528 -1413.942)" fill="#b07d4a"/>
            </g>
          </g>
          <path id="Path_54921" data-name="Path 54921" d="M2283.981,1438.713l-21.453-12.387,21.453-12.385Z" transform="translate(-2253.185 -1411.984)" fill="#73483a"/>
          <path id="Path_54922" data-name="Path 54922" d="M2320.78,1426.327l12,1.381-21.666-12.051-11.783-1.715Z" transform="translate(-2268.532 -1411.984)" fill="#daad7a"/>
          <path id="Path_54923" data-name="Path 54923" d="M2277.3,1412.532l-9.532-1.947-21.263,12.528,9.342,1.8Z" transform="translate(-2246.501 -1410.585)" fill="#daad7a"/>
          <path id="Path_54924" data-name="Path 54924" d="M2327.931,1443.966l-7.152-8.778-21.453,12.386,7.056,8.588Z" transform="translate(-2268.532 -1420.845)" fill="#daad7a"/>
          <path id="Path_54925" data-name="Path 54925" d="M2277.905,1447.573l-21.452-12.385-8.491,8.98,22.793,13.412Z" transform="translate(-2247.11 -1420.845)" fill="#daad7a"/>
        </g>
        <g id="Group_8805" data-name="Group 8805" transform="translate(0 80.004)">
          <g id="Group_8795" data-name="Group 8795">
            <g id="Group_8794" data-name="Group 8794">
              <path id="Path_54926" data-name="Path 54926" d="M2031.53,1367.965l-21.452,12.386v24.771l21.453-12.385Z" transform="translate(-1974.323 -1347.322)" fill="#885e41"/>
              <path id="Path_54927" data-name="Path 54927" d="M2031.53,1367.965l-21.452,12.386v.231l21.452-12.321Z" transform="translate(-1974.323 -1347.322)" fill="#775039"/>
              <path id="Path_54928" data-name="Path 54928" d="M1948.744,1353.8l35.754,20.644v24.772l-35.755-20.644Z" transform="translate(-1948.744 -1341.414)" fill="#ad7b4e"/>
              <path id="Path_54929" data-name="Path 54929" d="M2005.951,1353.2l-21.453,12.387-35.754-20.645,21.453-12.385Z" transform="translate(-1948.744 -1332.554)" fill="#daad7a"/>
              <path id="Path_54930" data-name="Path 54930" d="M1961.011,1343.768l35.744,20.648,7.162-4.134-35.754-20.644Z" transform="translate(-1953.859 -1335.508)" fill="#e4caa4" opacity="0.8"/>
            </g>
            <path id="Path_54931" data-name="Path 54931" d="M2022.326,1379.184l.01,8.25,7.152-4.128v-8.255Z" transform="translate(-1979.431 -1350.277)" fill="#a88971" opacity="0.8"/>
          </g>
          <g id="Group_8797" data-name="Group 8797" transform="translate(22.456 35.713)">
            <path id="Path_54932" data-name="Path 54932" d="M1988.808,1400.391c.219-1.207,1.609-1.432,3.29-.462l.016.009c.2.116.393.243.582.381.15.11.3.225.441.347a7.909,7.909,0,0,1,1.272,1.367,5.149,5.149,0,0,1,.979,2.157l-3.154-1.821v4.045a.851.851,0,0,0,.384.665c.211.122.384.023.384-.222v-.141c0-.087.061-.122.136-.079a.3.3,0,0,1,.136.236v.142c0,.417-.294.587-.656.378a1.452,1.452,0,0,1-.656-1.136v-4.045Z" transform="translate(-1987.909 -1396.113)" fill="#1a1818"/>
            <g id="Group_8796" data-name="Group 8796">
              <path id="Path_54933" data-name="Path 54933" d="M1987.265,1393.816l8.625,4.979v9.96l-8.625-4.979Zm8.291,5.172-7.956-4.594v9.187l7.956,4.594Z" transform="translate(-1987.265 -1393.816)" fill="#1a1818"/>
            </g>
          </g>
          <g id="Group_8800" data-name="Group 8800" transform="translate(13.085 30.303)">
            <g id="Group_8798" data-name="Group 8798">
              <path id="Path_54934" data-name="Path 54934" d="M1971.19,1384.535l8.626,4.98v9.96l-8.626-4.98Zm8.292,5.173-7.957-4.594v9.187l7.957,4.594Z" transform="translate(-1971.19 -1384.535)" fill="#1a1818"/>
            </g>
            <g id="Group_8799" data-name="Group 8799" transform="translate(2.715 3.017)">
              <path id="Path_54935" data-name="Path 54935" d="M1975.847,1389.71v2.512a2.863,2.863,0,0,0,1.29,2.235l.54.312c.71.409,1.29.074,1.29-.745v-2.512l-1.578-.911.347.935-.671-.388.913,2.78-1.5-3.391.685.4-.353-.667Z" transform="translate(-1975.847 -1389.71)" fill="#1a1818"/>
              <path id="Path_54936" data-name="Path 54936" d="M1978.108,1400.287l.477.276v-3.147l-.477-.276Z" transform="translate(-1976.79 -1392.809)" fill="#1a1818"/>
              <path id="Path_54937" data-name="Path 54937" d="M1977.4,1402.122l1.64,1.546-3.2-1.845Z" transform="translate(-1975.847 -1394.761)" fill="#1a1818"/>
            </g>
          </g>
          <g id="Group_8804" data-name="Group 8804" transform="translate(3.802 24.943)">
            <g id="Group_8801" data-name="Group 8801">
              <path id="Path_54938" data-name="Path 54938" d="M1955.266,1375.341l8.625,4.98v9.96l-8.625-4.98Zm8.291,5.173-7.957-4.594v9.187l7.957,4.594Z" transform="translate(-1955.266 -1375.341)" fill="#1a1818"/>
            </g>
            <g id="Group_8802" data-name="Group 8802" transform="translate(0.831 3.957)">
              <path id="Path_54939" data-name="Path 54939" d="M1960.206,1382.128l3.449,9.056-6.964-4.021Zm0,.926-2.825,4.047,5.6,3.232Z" transform="translate(-1956.691 -1382.128)" fill="#1a1818"/>
            </g>
            <g id="Group_8803" data-name="Group 8803" transform="translate(4.013 5.793)">
              <path id="Path_54940" data-name="Path 54940" d="M1962.449,1389.434a.644.644,0,0,1-.3-.536c0-.211.117-.3.3-.191a.653.653,0,0,1,.3.536C1962.749,1389.449,1962.627,1389.537,1962.449,1389.434Zm-.172-1.3-.071-2.854.487.281-.071,2.772Z" transform="translate(-1962.15 -1385.279)" fill="#1a1818"/>
            </g>
          </g>
        </g>
        <g id="Group_8821" data-name="Group 8821" transform="translate(21.573 138.884)">
          <g id="Group_8808" data-name="Group 8808">
            <g id="Group_8807" data-name="Group 8807" transform="translate(10.6 8.955)">
              <g id="Group_8806" data-name="Group 8806">
                <path id="Path_54941" data-name="Path 54941" d="M2086.719,1484.33l-21.453,12.386v24.771l21.453-12.385Z" transform="translate(-2029.511 -1463.687)" fill="#885e41"/>
                <path id="Path_54942" data-name="Path 54942" d="M2086.719,1484.33l-21.453,12.386v.231l21.453-12.321Z" transform="translate(-2029.511 -1463.687)" fill="#775039"/>
                <path id="Path_54943" data-name="Path 54943" d="M2003.932,1470.164l35.755,20.644v24.772l-35.755-20.644Z" transform="translate(-2003.932 -1457.779)" fill="#ad7b4e"/>
                <path id="Path_54944" data-name="Path 54944" d="M2061.139,1469.562l-21.452,12.387-35.755-20.645,21.453-12.385Z" transform="translate(-2003.932 -1448.919)" fill="#b07d4a"/>
              </g>
            </g>
            <path id="Path_54945" data-name="Path 54945" d="M2025.385,1473.691l-21.453-12.387,21.453-12.385Z" transform="translate(-1993.333 -1439.964)" fill="#73483a"/>
            <path id="Path_54946" data-name="Path 54946" d="M2076.487,1463.156l7.365-9.29-35.968-20.309-7.151,8.955Z" transform="translate(-2008.68 -1433.557)" fill="#daad7a"/>
            <path id="Path_54947" data-name="Path 54947" d="M2019.059,1443.7l-9.034-7.3-21.262,12.528,8.843,7.153Z" transform="translate(-1987.006 -1434.745)" fill="#daad7a"/>
            <path id="Path_54948" data-name="Path 54948" d="M2097.492,1482.98l-10.774.787-21.453,12.386,10.679-.978Z" transform="translate(-2018.911 -1454.169)" fill="#daad7a"/>
            <path id="Path_54949" data-name="Path 54949" d="M2032.1,1490.622l-35.754-20.644-10.6-.262,37.1,21.67Z" transform="translate(-1985.75 -1448.637)" fill="#daad7a"/>
          </g>
          <g id="Group_8811" data-name="Group 8811" transform="translate(33.654 44.19)">
            <g id="Group_8809" data-name="Group 8809">
              <path id="Path_54950" data-name="Path 54950" d="M2043.48,1509.361l9.87,5.7v11.4l-9.87-5.7Zm9.487,5.919-9.1-5.256v10.513l9.1,5.256Z" transform="translate(-2043.48 -1509.361)" fill="#1a1818"/>
            </g>
            <g id="Group_8810" data-name="Group 8810" transform="translate(3.107 3.452)">
              <path id="Path_54951" data-name="Path 54951" d="M2048.809,1515.282v2.875a3.275,3.275,0,0,0,1.476,2.557l.617.356c.811.469,1.476.085,1.476-.852v-2.875l-1.806-1.042.4,1.07-.768-.443,1.045,3.18-1.718-3.88.783.452-.4-.763Z" transform="translate(-2048.809 -1515.282)" fill="#1a1818"/>
              <path id="Path_54952" data-name="Path 54952" d="M2051.4,1527.385l.546.315v-3.6l-.546-.315Z" transform="translate(-2049.888 -1518.828)" fill="#1a1818"/>
              <path id="Path_54953" data-name="Path 54953" d="M2050.591,1529.485l1.876,1.769-3.657-2.111Z" transform="translate(-2048.809 -1521.063)" fill="#1a1818"/>
            </g>
          </g>
          <g id="Group_8815" data-name="Group 8815" transform="translate(23.032 38.058)">
            <g id="Group_8812" data-name="Group 8812">
              <path id="Path_54954" data-name="Path 54954" d="M2025.259,1498.841l9.87,5.7v11.4l-9.87-5.7Zm9.487,5.919-9.1-5.256v10.513l9.1,5.256Z" transform="translate(-2025.259 -1498.841)" fill="#1a1818"/>
            </g>
            <g id="Group_8813" data-name="Group 8813" transform="translate(0.951 4.527)">
              <path id="Path_54955" data-name="Path 54955" d="M2030.911,1506.607l3.947,10.362-7.969-4.6Zm0,1.059-3.232,4.632,6.4,3.7Z" transform="translate(-2026.89 -1506.607)" fill="#1a1818"/>
            </g>
            <g id="Group_8814" data-name="Group 8814" transform="translate(4.592 6.629)">
              <path id="Path_54956" data-name="Path 54956" d="M2033.479,1514.967a.736.736,0,0,1-.342-.613c0-.241.133-.339.342-.218a.745.745,0,0,1,.343.614C2033.822,1514.984,2033.683,1515.084,2033.479,1514.967Zm-.2-1.489-.081-3.266.557.322-.081,3.173Z" transform="translate(-2033.137 -1510.212)" fill="#1a1818"/>
            </g>
          </g>
          <g id="Group_8820" data-name="Group 8820" transform="translate(12.383 31.909)">
            <g id="Group_8816" data-name="Group 8816">
              <path id="Path_54957" data-name="Path 54957" d="M2006.991,1488.294l9.87,5.7v11.4l-9.87-5.7Zm9.487,5.919-9.1-5.256v10.513l9.1,5.257Z" transform="translate(-2006.991 -1488.294)" fill="#1a1818"/>
            </g>
            <g id="Group_8819" data-name="Group 8819" transform="translate(1.74 3.124)">
              <path id="Path_54958" data-name="Path 54958" d="M2009.976,1506.379l6.389,3.689v-1.083l-6.389-3.689Z" transform="translate(-2009.976 -1498.509)" fill="#1a1818"/>
              <g id="Group_8817" data-name="Group 8817" transform="translate(0.303)">
                <path id="Path_54959" data-name="Path 54959" d="M2011.616,1501.069l.74.427v-5.526l-.74-.427Z" transform="translate(-2010.963 -1494.441)" fill="#1a1818"/>
                <path id="Path_54960" data-name="Path 54960" d="M2010.5,1495.195l2.046,1.181-1.116-2.723Z" transform="translate(-2010.497 -1493.652)" fill="#1a1818"/>
              </g>
              <g id="Group_8818" data-name="Group 8818" transform="translate(3.866 2.057)">
                <path id="Path_54961" data-name="Path 54961" d="M2017.728,1504.6l.74.427V1499.5l-.74-.427Z" transform="translate(-2017.074 -1497.969)" fill="#1a1818"/>
                <path id="Path_54962" data-name="Path 54962" d="M2016.607,1498.723l2.046,1.181-1.116-2.723Z" transform="translate(-2016.607 -1497.181)" fill="#1a1818"/>
              </g>
            </g>
          </g>
        </g>
      </g>
    </g>
  </g>
  <animateTransform 
    xlink:href="#Group_8729"
    attributeType="xml" 
      attributeName="transform"
      type="translate"
      dur="1.5s"
      values="0,0; 0,-25; 0,0; 0,10;0,0"
      repeatCount="indefinite"/>
     
</svg>
